ply
format ascii 1.0
element vertex 516
property float x
property float y
property float z
element face 538
property list uchar int vertex_index
end_header
0.428223 62.079052 -47.410851
6.071878 88.000343 -44.613766
8.540997 63.255203 -50.456841
3.89147 50.611832 -51.221378
-8.804253 64.58567 -36.722088
-5.429057 58.986427 -42.559673
-4.647708 70.937546 -42.396343
3.332971 75.180359 -47.06218
12.8407 77.410286 -49.363594
-12.48711 66.273621 -29.889446
-9.439204 70.031128 -36.483856
-7.148571 68.059822 -39.666817
-7.347888 73.580124 -39.45919
4.63765 81.683571 -46.237087
8.038297 76.455521 -48.535767
9.787875 83.392479 -47.374176
-11.691688 71.301956 -33.050335
-10.688843 65.955139 -33.353569
-2.927421 60.862816 -45.078583
-4.033813 54.952518 -45.266331
-1.020056 56.043278 -47.622066
4.939553 44.421417 -52.864002
1.669123 45.258793 -52.312992
4.374492 62.968815 -49.228149
2.407654 56.58334 -49.430809
6.403233 56.612938 -50.766125
7.560699 49.784714 -51.964203
8.307718 42.809219 -52.973595
-8.43711 59.540775 -36.999607
-7.24448 57.127369 -39.797474
-7.102482 62.294254 -39.65414
-4.956594 64.97168 -42.47662
-1.961234 66.812065 -45.101387
-1.131218 73.218102 -44.922554
1.968162 68.288681 -47.405254
6.146541 69.685287 -48.985294
10.779076 70.376343 -50.104755
11.458139 89.683609 -45.356598
-12.566044 60.563324 -27.199631
-11.176456 61.094589 -30.650217
-9.769308 60.7901 -33.986305
0.462404 50.754154 -49.994827
11.307005 40.779366 -52.67683
-9.761084 72.735992 -36.335934
-8.514183 71.983841 -38.013641
-8.733464 74.69207 -37.790123
5.417623 84.93959 -45.557938
7.283359 82.55114 -46.939156
8.041951 85.97612 -46.078285
-10.55768 70.834579 -34.834972
-1.391268 61.367542 -46.282597
-1.900685 58.499916 -46.405704
-0.283489 58.905254 -47.507839
5.247356 41.251007 -53.633911
3.700356 42.027973 -53.55563
6.499353 62.96479 -49.959423
5.317925 59.803925 -50.007427
7.389494 59.807594 -50.587509
8.000921 46.495533 -52.469219
-8.619085 61.997494 -36.771351
-7.887463 61.117905 -38.211536
-7.972935 63.720787 -38.165058
-6.037975 69.639206 -41.035397
-6.074955 66.514 -41.063141
-4.732956 67.893539 -42.516548
-3.450895 65.761894 -43.951942
-3.246153 69.01828 -43.819118
0.935283 74.258408 -46.022064
0.478861 70.934067 -46.230518
2.535097 71.862312 -47.198895
3.922356 69.103958 -48.214756
4.896991 72.377853 -48.151958
10.39942 77.000694 -49.016449
9.621163 73.604095 -49.418224
11.999143 73.969505 -49.822144
12.161475 92.686913 -43.87851
-12.60647 63.544796 -28.460585
-11.91768 60.868813 -28.798819
-11.798856 63.627026 -30.206062
-9.710503 65.489243 -35.155617
-10.161243 63.302505 -33.690353
-9.373532 62.714607 -35.270397
-9.094725 60.237484 -35.512299
-6.467909 58.190048 -41.086422
-5.830415 56.410885 -42.495304
3.241642 53.629696 -50.355186
1.470138 53.705803 -49.632935
2.162569 50.770496 -50.671871
12.868988 39.783485 -52.372967
11.239166 36.877827 -52.852028
9.819255 38.184532 -53.17836
-9.13873 67.315514 -36.552589
-8.054045 66.435173 -38.240547
-8.323514 69.127014 -38.069057
-7.22965 70.9534 -39.622467
-5.951653 72.544525 -41.012646
5.6514 75.894768 -47.869003
6.442631 79.2911 -47.473331
8.987713 79.934113 -48.079395
11.443811 80.602898 -48.455406
-12.18896 68.932205 -31.472622
-11.604223 66.272835 -31.636324
-11.222514 68.732826 -33.174057
-10.239335 68.154869 -34.791508
-4.271996 60.123302 -43.826889
-4.648946 57.182957 -43.947453
-3.378683 57.905243 -45.203762
-2.589557 55.694744 -46.480339
-1.910479 53.229469 -47.767208
4.494641 47.624859 -52.043613
2.789159 47.801216 -51.694054
3.32355 44.872189 -52.663437
2.102175 42.50272 -53.406445
2.34351 62.481956 -48.409122
1.471908 59.395813 -48.454041
3.398034 59.614597 -49.331532
4.330126 56.595242 -50.172081
5.230478 53.56218 -50.956295
7.063345 53.083477 -51.408825
5.717938 50.250023 -51.661701
6.188073 46.783661 -52.384338
6.662555 43.707813 -52.976051
6.819239 40.377064 -53.582733
-8.340112 57.303658 -37.264259
-7.889067 56.257618 -38.504299
-7.823612 58.561676 -38.395931
-7.122219 59.69416 -39.729752
-6.214765 60.828148 -41.171318
-7.097524 64.999397 -39.663189
-6.153462 63.539082 -41.067589
-5.188911 61.97543 -42.473549
-3.909804 62.949299 -43.817589
-2.426652 63.714867 -45.101532
-0.708805 64.583618 -46.301495
-7.344409 76.471634 -39.279064
-5.887982 75.267906 -40.863308
-4.326736 73.891098 -42.420341
-2.635634 75.230797 -43.602776
-2.89034 72.054436 -43.798397
-1.451218 69.993248 -45.104664
-0.074422 67.779205 -46.302536
1.221365 65.096603 -47.43853
3.284893 65.675865 -48.397457
5.351889 66.251617 -49.15834
7.508834 66.73381 -49.789162
7.212125 73.208107 -48.831486
8.421195 70.351181 -49.58078
9.672305 66.790909 -50.309887
9.530905 91.943611 -43.728783
8.603617 89.106705 -44.950279
10.639567 86.651993 -46.476181
12.465988 84.109276 -47.665737
-10.960257 63.580563 -32.02412
-10.451955 60.804565 -32.325623
-10.047321 58.47126 -32.820919
-9.492382 58.213482 -34.283951
-8.878113 57.885883 -35.881119
-5.208245 54.556831 -43.938324
0.7273 56.37286 -48.637569
-0.248578 53.390335 -48.823151
-1.244548 50.633373 -49.123318
1.148381 47.981361 -51.195103
9.806533 41.73098 -52.885117
8.253175 39.116982 -53.475948
-9.395574 75.096477 -36.930053
-9.247274 73.714031 -37.063029
-9.909384 74.118438 -36.202959
5.744751 86.469966 -45.085852
4.476019 85.875305 -44.810057
4.803147 87.405682 -44.337971
-9.909384 74.118438 -36.202959
-10.375649 73.02013 -35.452662
4.558376 40.137197 -54.0557
5.315518 39.638134 -54.009867
2.134127 74.719383 -46.542122
1.241767 75.86055 -45.912987
2.440611 76.321526 -46.433044
13.547712 75.856037 -49.704098
13.126934 74.135647 -49.933373
12.419922 75.689896 -49.592869
-12.908107 66.127575 -29.013339
-12.808203 67.575424 -29.81305
-12.54679 64.909209 -29.175016
-12.967788 64.763162 -28.298908
-12.908107 66.127575 -29.013339
11.110427 35.009594 -52.918039
11.930806 36.250311 -52.645935
10.458783 35.687611 -53.148353
11.110427 35.009594 -52.918039
3.417757 81.156868 -45.836893
3.758991 82.70623 -45.562019
4.300365 80.089756 -46.475376
3.417757 81.156868 -45.836893
5.54014 80.487336 -46.855209
5.202856 78.89352 -47.093498
4.300365 80.089756 -46.475376
-12.249667 71.358688 -32.111082
-11.95472 72.529953 -32.876732
-11.940324 70.117081 -32.261478
-12.498303 70.173813 -31.322226
-12.249667 71.358688 -32.111082
2.259826 41.173414 -53.918086
2.901266 42.265346 -53.481037
3.058917 40.936041 -53.992678
1.426191 41.571298 -53.807906
2.259826 41.173414 -53.918086
7.312022 51.434095 -51.686514
8.037447 52.986677 -51.546801
8.286124 51.337295 -51.824489
-7.363919 77.877529 -39.072096
-8.083963 76.930363 -38.413822
-5.083033 76.113502 -41.470585
-5.837619 76.767578 -40.718529
-4.302411 75.425098 -42.249102
-5.107359 74.579502 -41.641824
-5.083033 76.113502 -41.470585
-1.883426 74.224449 -44.262665
-1.645596 75.73558 -44.192189
-0.893388 74.729233 -44.852078
11.363665 68.711674 -50.388052
10.81028 66.918957 -50.490618
10.22569 68.583626 -50.207321
13.664642 84.201324 -47.764239
12.912778 85.735618 -47.154989
13.121802 82.554176 -48.181521
13.664642 84.201324 -47.764239
-12.901412 60.279694 -26.35985
-12.959031 61.780636 -26.952488
-12.52222 58.949944 -26.596688
-12.901412 60.279694 -26.35985
-12.236422 59.265389 -27.427036
-12.192599 57.652008 -26.824093
-12.52222 58.949944 -26.596688
-11.253442 59.765656 -29.990234
-11.624054 59.652768 -29.064535
-11.547068 60.981701 -29.724518
-10.925666 59.715401 -30.863659
-11.253442 59.765656 -29.990234
-7.377942 55.967367 -39.766506
-7.700236 55.532491 -39.119918
-7.566774 56.692493 -39.150886
12.120865 42.291165 -52.470739
12.901857 41.793224 -52.318808
12.087996 40.281425 -52.524899
11.305294 42.741892 -52.55805
12.120865 42.291165 -52.470739
10.556769 41.255173 -52.780974
10.555058 43.217699 -52.662194
11.305294 42.741892 -52.55805
8.267744 37.408181 -53.668624
9.036215 38.650757 -53.327154
9.050784 36.941955 -53.51983
7.56794 38.065072 -53.812775
8.267744 37.408181 -53.668624
4.148978 84.334239 -45.222445
4.476019 85.875305 -44.810057
5.027636 83.31158 -45.897513
3.758991 82.70623 -45.562019
4.148978 84.334239 -45.222445
-11.340951 72.303112 -33.809862
-11.95472 72.529953 -32.876732
-10.773947 72.069423 -34.70218
-11.124684 71.068268 -33.942653
-11.340951 72.303112 -33.809862
-10.159382 71.785286 -35.585453
-10.773947 72.069423 -34.70218
-10.375649 73.02013 -35.452662
3.784876 40.52568 -54.016559
4.473856 41.63949 -53.59477
4.558376 40.137197 -54.0557
3.058917 40.936041 -53.992678
3.784876 40.52568 -54.016559
8.511999 49.63732 -52.029552
8.286124 51.337295 -51.824489
8.73211 47.992729 -52.282061
7.78081 48.140124 -52.216711
8.511999 49.63732 -52.029552
8.815945 46.059317 -52.491171
8.73211 47.992729 -52.282061
8.969344 44.21616 -52.743359
8.154319 44.652376 -52.721407
8.815945 46.059317 -52.491171
0.139863 75.249386 -45.401832
1.241767 75.86055 -45.912987
-0.097968 73.738255 -45.472309
-0.893388 74.729233 -44.852078
0.139863 75.249386 -45.401832
12.542499 72.382053 -50.110419
11.932465 70.585472 -50.251724
11.389109 72.172924 -49.963449
12.542499 72.382053 -50.110419
13.126934 74.135647 -49.933373
13.569056 92.979191 -43.858194
12.667454 94.078434 -43.026896
13.146238 91.513004 -44.643999
13.569056 92.979191 -43.858194
12.79457 90.011353 -45.383043
11.809807 91.185261 -44.617554
13.146238 91.513004 -44.643999
12.408854 88.522785 -46.000419
12.79457 90.011353 -45.383043
-12.979243 63.271372 -27.582965
-13.340561 64.489739 -27.421289
-12.967788 64.763162 -28.298908
-12.586257 62.05406 -27.830108
-12.959031 61.780636 -26.952488
-12.979243 63.271372 -27.582965
-6.597421 56.925754 -41.110805
-6.985706 56.394415 -40.466331
-6.856194 57.658709 -40.441948
-6.278674 56.036173 -41.815247
-6.597421 56.925754 -41.110805
-6.149162 57.300466 -41.790863
-6.025426 55.178953 -42.537883
-6.278674 56.036173 -41.815247
-4.314283 53.736331 -45.361694
-3.657487 53.941093 -45.987539
0.822572 45.433866 -52.032269
1.041989 44.207033 -52.64402
12.745717 37.70314 -52.406405
13.599381 39.119268 -52.190718
12.054077 38.330656 -52.612498
12.745717 37.70314 -52.406405
11.930806 36.250311 -52.645935
9.748828 36.340964 -53.31152
10.529211 37.53118 -53.015194
10.458783 35.687611 -53.148353
9.050784 36.941955 -53.51983
9.748828 36.340964 -53.31152
8.984619 61.486542 -50.732668
9.639796 63.353748 -50.653488
3.648026 76.83815 -46.887923
2.440611 76.321526 -46.433044
4.80724 77.195355 -47.291334
4.492185 75.537564 -47.465592
3.648026 76.83815 -46.887923
6.047016 77.592934 -47.671167
4.80724 77.195355 -47.291334
5.202856 78.89352 -47.093498
-12.659128 68.904717 -30.604638
-12.498303 70.173813 -31.322226
-12.338035 67.602913 -30.681034
-12.808203 67.575424 -29.81305
-12.659128 68.904717 -30.604638
-2.935358 54.312206 -46.594544
-3.657487 53.941093 -45.987539
-3.311685 55.323631 -45.873335
-2.59582 53.079569 -47.237978
-2.935358 54.312206 -46.594544
-2.250018 54.462107 -47.123773
-2.314232 51.854503 -47.956459
-2.59582 53.079569 -47.237978
1.258515 42.828997 -53.190747
1.041989 44.207033 -52.64402
1.885649 43.880756 -52.859718
1.258515 42.828997 -53.190747
1.426191 41.571298 -53.807906
5.155168 88.935505 -43.779812
4.803147 87.405682 -44.337971
8.408867 59.762737 -50.798002
7.965245 61.531399 -50.522175
8.984619 61.486542 -50.732668
7.817625 58.061339 -50.886009
8.408867 59.762737 -50.798002
7.324494 56.464011 -50.975317
6.896363 58.210266 -50.676817
7.817625 58.061339 -50.886009
7.65455 54.69928 -51.296667
8.037447 52.986677 -51.546801
6.733289 54.848208 -51.087475
7.324494 56.464011 -50.975317
7.65455 54.69928 -51.296667
6.101459 39.201162 -53.984277
5.315518 39.638134 -54.009867
6.033297 40.814036 -53.608322
-8.114589 56.780638 -37.884279
-8.103388 55.865486 -38.019806
-8.328911 56.388506 -37.399786
-8.778491 76.040581 -37.669352
-9.395574 75.096477 -36.930053
-8.038937 75.581852 -38.534593
-8.778491 76.040581 -37.669352
-8.083963 76.930363 -38.413822
-6.565832 77.369442 -39.926407
-7.363919 77.877529 -39.072096
-6.616195 75.86977 -40.071186
-6.565832 77.369442 -39.926407
-5.837619 76.767578 -40.718529
-2.415069 76.722324 -43.515469
-1.645596 75.73558 -44.192189
-3.45686 76.094948 -42.840319
-2.415069 76.722324 -43.515469
-3.481185 74.560947 -43.011558
-4.302411 75.425098 -42.249102
-3.45686 76.094948 -42.840319
10.20545 65.121601 -50.580011
9.639796 63.353748 -50.653488
9.106651 65.023056 -50.383364
10.20545 65.121601 -50.580011
10.81028 66.918957 -50.490618
11.363665 68.711674 -50.388052
11.932465 70.585472 -50.251724
6.373823 89.500591 -43.980781
5.155168 88.935505 -43.779812
11.283219 93.789792 -42.95908
12.667454 94.078434 -43.026896
9.967934 93.41814 -42.884217
11.283219 93.789792 -42.95908
10.84619 92.315262 -43.803646
8.603027 92.878795 -42.841164
9.040056 94.353325 -41.996598
9.967934 93.41814 -42.884217
8.103337 91.472225 -43.53829
8.603027 92.878795 -42.841164
7.639692 90.053772 -44.149038
8.103337 91.472225 -43.53829
9.067261 90.525158 -44.339531
7.337747 88.553524 -44.782022
6.373823 89.500591 -43.980781
7.639692 90.053772 -44.149038
11.999568 87.006977 -46.560211
11.048853 88.167801 -45.916389
12.408854 88.522785 -46.000419
11.552777 85.380634 -47.070959
11.999568 87.006977 -46.560211
12.912778 85.735618 -47.154989
12.610713 80.800987 -48.576355
11.954899 82.356087 -48.060572
13.121802 82.554176 -48.181521
13.309158 79.204681 -49.030449
12.142256 79.006592 -48.9095
12.610713 80.800987 -48.576355
14.035375 77.589684 -49.440693
13.309158 79.204681 -49.030449
13.547712 75.856037 -49.704098
14.035375 77.589684 -49.440693
-11.91224 59.418133 -28.22663
-12.236422 59.265389 -27.427036
-12.241862 60.716069 -27.999225
-11.91224 59.418133 -28.22663
-11.624054 59.652768 -29.064535
-10.563415 59.570388 -31.701362
-10.925666 59.715401 -30.863659
-10.814205 60.949577 -31.48792
-10.361098 58.403736 -31.94901
-10.563415 59.570388 -31.701362
-10.249638 59.637912 -32.573271
-10.178406 57.132238 -32.242722
-10.361098 58.403736 -31.94901
-9.919666 57.235848 -33.048561
-10.178406 57.132238 -32.242722
-9.642196 57.106959 -33.780077
-9.919666 57.235848 -33.048561
-9.769851 58.342371 -33.552435
-9.369725 57.107544 -34.587523
-9.642196 57.106959 -33.780077
-9.06259 56.943745 -35.386106
-9.369725 57.107544 -34.587523
-9.185247 58.049683 -35.082535
-8.806652 56.81361 -36.117409
-9.06259 56.943745 -35.386106
-8.537651 56.522498 -36.808979
-8.806652 56.81361 -36.117409
-8.609113 57.59477 -36.572689
-8.328911 56.388506 -37.399786
-8.537651 56.522498 -36.808979
-7.987163 55.226309 -38.49345
-8.103388 55.865486 -38.019806
-7.798332 54.501182 -39.10907
-7.987163 55.226309 -38.49345
-7.700236 55.532491 -39.119918
-7.377942 55.967367 -39.766506
-6.985706 56.394415 -40.466331
-5.714341 54.251926 -43.259394
-6.025426 55.178953 -42.537883
-5.51933 55.483858 -43.216814
-4.901499 53.538488 -44.697691
-4.621029 54.754675 -44.602328
-4.314283 53.736331 -45.361694
-5.508741 53.241427 -43.997837
-4.901499 53.538488 -44.697691
-5.714341 54.251926 -43.259394
-5.508741 53.241427 -43.997837
-1.981267 50.556455 -48.634514
-2.314232 51.854503 -47.956459
-1.577514 51.931421 -48.445263
0.562201 46.79515 -51.473324
1.408752 46.620077 -51.754047
0.822572 45.433866 -52.032269
0.322053 48.059649 -50.845263
0.562201 46.79515 -51.473324
-0.020936 49.446045 -50.245125
0.805393 49.367757 -50.594965
0.322053 48.059649 -50.845263
-0.874412 49.385655 -49.80937
-0.391072 50.693764 -49.559072
-0.020936 49.446045 -50.245125
-1.704264 49.398618 -49.34895
-0.874412 49.385655 -49.80937
-1.981267 50.556455 -48.634514
-1.704264 49.398618 -49.34895
13.704587 41.360888 -52.188698
14.434981 40.69667 -52.006449
13.599381 39.119268 -52.190718
13.704587 41.360888 -52.188698
12.901857 41.793224 -52.318808
9.718751 43.67704 -52.69912
10.555058 43.217699 -52.662194
9.057125 42.2701 -52.929356
8.969344 44.21616 -52.743359
9.718751 43.67704 -52.69912
6.850971 38.695112 -53.866167
7.536207 39.747023 -53.529341
7.56794 38.065072 -53.812775
6.101459 39.201162 -53.984277
6.850971 38.695112 -53.866167
3 164 45 165
3 166 165 43
3 164 165 166
3 1 167 169
3 167 46 168
3 167 168 169
3 1 48 46
3 170 43 171
3 0 52 50
3 173 172 53
3 2 57 55
3 4 61 59
3 6 64 62
3 6 66 64
3 7 174 176
3 174 67 175
3 174 175 176
3 7 69 67
3 7 71 69
3 8 74 72
3 8 177 179
3 179 178 74
3 177 178 179
3 9 180 181
3 9 182 184
3 182 76 183
3 182 183 184
3 9 78 76
3 4 81 79
3 4 59 81
3 5 84 83
3 3 87 85
3 185 89 186
3 188 187 89
3 10 93 91
3 12 94 44
3 12 95 94
3 13 189 190
3 13 191 192
3 13 193 195
3 193 97 194
3 193 194 195
3 15 98 47
3 15 99 98
3 16 196 197
3 16 198 200
3 198 100 199
3 198 199 200
3 16 102 100
3 10 103 49
3 10 91 103
3 18 106 104
3 20 107 51
3 20 108 107
3 21 111 109
3 201 112 202
3 203 202 54
3 201 202 203
3 205 204 112
3 23 115 113
3 25 116 56
3 25 117 116
3 26 206 208
3 206 118 207
3 206 207 208
3 26 119 118
3 26 120 119
3 27 121 58
3 27 122 121
3 28 125 123
3 30 126 60
3 30 127 126
3 11 128 92
3 31 129 63
3 31 130 129
3 31 131 130
3 32 132 65
3 32 133 132
3 209 134 210
3 211 135 212
3 213 136 214
3 215 214 135
3 213 214 215
3 33 216 218
3 216 137 217
3 216 217 218
3 33 138 137
3 33 139 138
3 34 140 68
3 34 141 140
3 34 142 141
3 35 143 70
3 35 144 143
3 14 145 96
3 36 146 73
3 36 147 146
3 36 219 221
3 221 220 147
3 219 220 221
3 37 148 75
3 37 149 148
3 37 150 149
3 222 151 223
3 225 224 151
3 38 226 227
3 38 228 229
3 38 230 232
3 230 231 232
3 39 233 235
3 235 234 77
3 233 234 235
3 39 236 237
3 17 152 101
3 40 153 80
3 40 154 153
3 40 155 154
3 28 156 82
3 28 123 156
3 29 238 240
3 240 239 124
3 238 239 240
3 19 157 105
3 24 158 114
3 41 159 86
3 41 160 159
3 22 161 110
3 42 241 243
3 243 242 88
3 241 242 243
3 42 244 245
3 42 246 248
3 246 162 247
3 246 247 248
3 249 163 250
3 251 250 90
3 249 250 251
3 253 252 163
3 43 44 10
3 45 44 43
3 45 12 44
3 46 254 255
3 46 256 258
3 256 13 257
3 256 257 258
3 46 47 13
3 48 47 46
3 48 15 47
3 259 16 260
3 261 49 262
3 263 262 16
3 261 262 263
3 43 264 266
3 264 49 265
3 264 265 266
3 43 10 49
3 50 51 18
3 52 51 50
3 52 20 51
3 53 54 21
3 267 54 268
3 269 268 53
3 267 268 269
3 271 270 54
3 55 56 23
3 57 56 55
3 57 25 56
3 272 26 273
3 274 58 275
3 276 275 26
3 274 275 276
3 277 58 278
3 279 27 280
3 281 280 58
3 279 280 281
3 59 60 28
3 61 60 59
3 61 30 60
3 62 63 11
3 64 63 62
3 64 31 63
3 64 65 31
3 66 65 64
3 66 32 65
3 67 282 283
3 67 284 286
3 284 33 285
3 284 285 286
3 67 68 33
3 69 68 67
3 69 34 68
3 69 70 34
3 71 70 69
3 71 35 70
3 72 73 14
3 74 73 72
3 74 36 73
3 74 287 289
3 289 288 36
3 287 288 289
3 291 290 74
3 292 75 293
3 294 75 295
3 296 37 297
3 298 297 75
3 296 297 298
3 300 299 37
3 76 301 303
3 301 302 303
3 76 304 306
3 304 38 305
3 304 305 306
3 76 77 38
3 78 77 76
3 78 39 77
3 79 80 17
3 81 80 79
3 81 40 80
3 81 82 40
3 59 82 81
3 59 28 82
3 83 307 309
3 309 308 29
3 307 308 309
3 84 310 312
3 312 311 83
3 310 311 312
3 84 313 314
3 316 315 19
3 85 86 24
3 87 86 85
3 87 41 86
3 318 317 22
3 319 88 320
3 89 321 323
3 321 88 322
3 321 322 323
3 89 42 88
3 89 90 42
3 324 90 325
3 326 325 89
3 324 325 326
3 328 327 90
3 330 329 2
3 91 92 4
3 93 92 91
3 93 11 92
3 44 93 10
3 94 93 44
3 94 11 93
3 94 62 11
3 95 62 94
3 95 6 62
3 331 7 332
3 333 96 334
3 335 334 7
3 333 334 335
3 97 336 338
3 336 96 337
3 336 337 338
3 97 14 96
3 47 97 13
3 98 97 47
3 98 14 97
3 98 72 14
3 99 72 98
3 99 8 72
3 100 339 340
3 100 341 343
3 341 9 342
3 341 342 343
3 100 101 9
3 102 101 100
3 102 17 101
3 49 102 16
3 103 102 49
3 103 17 102
3 103 79 17
3 91 79 103
3 91 4 79
3 104 105 5
3 106 105 104
3 106 19 105
3 51 106 18
3 107 106 51
3 107 19 106
3 107 344 346
3 346 345 19
3 344 345 346
3 108 347 349
3 349 348 107
3 347 348 349
3 108 350 351
3 109 110 3
3 111 110 109
3 111 22 110
3 54 111 21
3 112 111 54
3 112 22 111
3 112 352 354
3 354 353 22
3 352 353 354
3 356 355 112
3 357 1 358
3 113 114 0
3 115 114 113
3 115 24 114
3 56 115 23
3 116 115 56
3 116 24 115
3 116 85 24
3 117 85 116
3 117 3 85
3 359 57 360
3 361 360 2
3 359 360 361
3 362 57 363
3 364 25 365
3 366 365 57
3 364 365 366
3 118 367 368
3 118 369 371
3 369 25 370
3 369 370 371
3 118 117 25
3 119 117 118
3 119 3 117
3 119 109 3
3 120 109 119
3 120 21 109
3 58 120 26
3 121 120 58
3 121 21 120
3 121 53 21
3 122 53 121
3 122 372 374
3 374 373 53
3 372 373 374
3 123 375 377
3 375 124 376
3 375 376 377
3 125 124 123
3 125 29 124
3 60 125 28
3 126 125 60
3 126 29 125
3 126 83 29
3 127 83 126
3 127 5 83
3 92 61 4
3 128 61 92
3 128 30 61
3 63 128 11
3 129 128 63
3 129 30 128
3 129 127 30
3 130 127 129
3 130 5 127
3 130 104 5
3 131 104 130
3 131 18 104
3 65 131 31
3 132 131 65
3 132 18 131
3 132 50 18
3 133 50 132
3 133 0 50
3 378 45 379
3 134 380 382
3 380 45 381
3 380 381 382
3 134 12 45
3 383 134 384
3 135 385 387
3 385 134 386
3 385 386 387
3 135 12 134
3 135 95 12
3 136 95 135
3 136 6 95
3 137 388 389
3 137 390 391
3 137 392 394
3 392 136 393
3 392 393 394
3 138 136 137
3 138 6 136
3 138 66 6
3 139 66 138
3 139 32 66
3 68 139 33
3 140 139 68
3 140 32 139
3 140 133 32
3 141 133 140
3 141 0 133
3 141 113 0
3 142 113 141
3 142 23 113
3 70 142 34
3 143 142 70
3 143 23 142
3 143 55 23
3 144 55 143
3 144 2 55
3 96 71 7
3 145 71 96
3 145 35 71
3 73 145 14
3 146 145 73
3 146 35 145
3 146 144 35
3 147 144 146
3 147 2 144
3 147 395 397
3 397 396 2
3 395 396 397
3 399 398 147
3 401 400 36
3 402 1 403
3 75 404 405
3 148 406 408
3 408 407 75
3 406 407 408
3 148 409 411
3 409 410 411
3 148 412 413
3 149 414 416
3 416 415 148
3 414 415 416
3 149 417 419
3 417 1 418
3 417 418 419
3 149 48 1
3 150 48 149
3 150 15 48
3 420 150 421
3 422 421 37
3 420 421 422
3 151 423 425
3 423 150 424
3 423 424 425
3 151 15 150
3 151 99 15
3 426 99 427
3 428 427 151
3 426 427 428
3 429 8 430
3 431 430 99
3 429 430 431
3 432 8 433
3 435 434 8
3 77 436 438
3 438 437 38
3 436 437 438
3 440 439 77
3 101 78 9
3 152 78 101
3 152 39 78
3 80 152 17
3 153 152 80
3 153 39 152
3 153 441 443
3 443 442 39
3 441 442 443
3 154 444 446
3 446 445 153
3 444 445 446
3 154 447 448
3 154 449 450
3 155 451 453
3 453 452 154
3 451 452 453
3 155 454 455
3 82 155 40
3 156 155 82
3 156 456 458
3 458 457 155
3 456 457 458
3 156 459 460
3 123 461 463
3 463 462 156
3 461 462 463
3 123 464 465
3 124 466 467
3 470 469 124
3 468 469 470
3 472 471 29
3 105 84 5
3 157 84 105
3 157 473 475
3 475 474 84
3 473 474 475
3 476 157 477
3 478 477 19
3 476 477 478
3 479 157 480
3 482 481 157
3 114 52 0
3 158 52 114
3 158 20 52
3 86 158 24
3 159 158 86
3 159 20 158
3 159 108 20
3 160 108 159
3 160 483 485
3 485 484 108
3 483 484 485
3 110 87 3
3 161 87 110
3 161 41 87
3 486 161 487
3 488 487 22
3 486 487 488
3 489 161 490
3 491 41 492
3 493 492 161
3 491 492 493
3 494 160 495
3 496 495 41
3 494 495 496
3 497 160 498
3 500 499 160
3 88 501 503
3 501 502 503
3 505 504 88
3 162 506 507
3 162 508 510
3 508 27 509
3 508 509 510
3 90 162 42
3 163 162 90
3 163 27 162
3 163 122 27
3 511 122 512
3 513 512 163
3 511 512 513
3 515 514 122
