ply
format ascii 1.0
element vertex 618
property float x
property float y
property float z
element face 642
property list uchar int vertex_index
end_header
-36.140617 24.743269 -2.762159
-36.950645 7.442912 22.150604
-33.407303 17.995834 -4.516971
-27.006483 21.00374 -7.32307
-38.160152 17.155731 0.390924
-31.463057 5.207117 30.751188
-21.398729 25.25255 -9.351578
-35.30928 -0.987391 27.601145
-40.260761 8.031934 13.436931
-39.273666 17.051561 7.945505
-35.249786 21.847075 -3.890259
-32.727123 23.309883 -5.585141
-34.346104 26.497383 -4.32702
-37.180702 21.437956 -1.511858
-36.181309 17.391493 -2.405836
-24.088573 22.967949 -8.322462
-34.360027 6.391604 26.527996
-33.544388 2.37894 29.041145
-36.324959 3.186116 24.871439
-38.564373 3.653596 20.721638
-40.059856 3.765294 16.559357
-39.069538 7.928655 17.637556
-38.563087 16.538015 12.167053
-38.245049 21.330654 5.330906
-30.828434 13.523044 -4.642313
-27.317522 14.599846 -6.091542
-30.341753 19.327816 -6.079933
-29.768789 25.192122 -6.940632
-38.901203 12.48189 2.674172
-36.868679 12.46729 -0.357445
-34.050972 12.78219 -2.803934
-29.40975 7.919651 32.303429
-32.117416 9.519486 28.209078
-34.899437 10.576906 23.834059
-37.21637 11.622112 19.406425
-17.225344 22.597589 -10.97902
-15.851169 25.287655 -12.684733
-24.169693 16.266848 -7.278676
-21.36598 18.195713 -8.392928
-19.111771 20.542603 -9.581773
-36.86116 25.122297 -0.281719
-35.185947 28.415365 -2.005435
-40.448719 7.925953 9.293069
-39.003777 12.218996 14.961895
-40.010681 12.427443 10.568467
-39.992809 12.504619 6.410278
-39.202812 17.072088 3.814914
-38.120697 21.376661 1.483129
-33.158684 31.258951 -3.653566
-35.858509 23.587074 -3.324842
-34.849121 24.098719 -4.236974
-35.38884 25.480682 -3.522968
-36.632481 23.24271 -2.276652
-36.314159 21.512833 -2.822751
-35.741772 6.907486 24.318581
-35.33334 4.860558 25.747387
-36.685547 5.393034 23.476173
-37.475151 3.524188 22.86363
-37.861019 5.579551 21.356747
-38.836124 5.846169 19.230194
-38.052956 7.688344 20.015047
-32.176266 15.696325 -4.606751
-30.431383 16.372345 -5.470312
-31.888891 18.475769 -5.334414
-32.373207 25.798111 -5.796213
-31.308832 24.00956 -6.275502
-38.527824 14.794084 1.43483
-38.011017 12.46099 1.098098
-37.658947 14.89941 -0.074221
-34.851204 17.481974 -3.5242
-35.282635 15.097109 -2.615889
-33.778435 15.422246 -3.714493
-32.513988 13.010849 -3.744674
-27.982792 7.063594 34.368069
-31.016569 10.820271 29.088318
-32.452324 11.539155 26.835804
-33.507305 10.005276 26.114376
-33.71283 12.192002 24.733578
-35.003468 12.733096 22.495535
-17.165035 26.580164 -11.487574
-16.465195 24.191166 -11.844658
-27.142086 17.819382 -6.773177
-25.72699 15.318289 -6.686572
-25.605667 18.557062 -7.298264
-22.738897 24.253649 -8.838995
-22.743198 20.564781 -8.338623
-21.380217 21.67938 -8.887438
-20.185648 19.126884 -8.937988
-20.165432 23.051607 -9.478798
-19.025919 24.066252 -10.078717
-36.939674 25.376001 1.29336
-36.187599 27.147417 0.370522
-34.453754 0.779248 28.307436
-40.226139 5.792852 14.957247
-40.459686 3.694628 14.41656
-40.533714 5.728069 12.798567
-40.541267 5.676572 10.704239
-40.501453 7.933075 11.312746
-37.183651 13.793988 18.015362
-38.166176 12.021818 17.209122
-38.072121 14.130337 15.83709
-39.015335 16.793406 10.054741
-39.407936 14.44904 11.401735
-39.721317 14.647369 9.195253
-40.138943 12.459561 8.403798
-39.780235 14.897417 7.036937
-39.625252 14.904774 5.041076
-39.358482 17.111519 5.803013
-37.63076 23.362352 4.162491
-38.290596 21.379335 3.319871
-37.628632 23.489517 2.271924
-37.510494 23.323927 0.497151
-34.404263 30.525883 -1.357182
-34.207214 29.817688 -2.881764
-34.409248 20.17119 -4.317873
-33.10981 20.715691 -5.139505
-34.032143 22.58169 -4.808507
-33.676582 24.943001 -5.045726
-33.213776 27.431387 -5.084584
-37.677505 19.320568 -0.661148
-37.277508 17.223835 -1.100457
-36.811028 19.443062 -2.045615
-35.65448 19.58559 -3.295075
-26.888041 24.215544 -7.750427
-25.509874 22.06547 -7.848816
-32.919556 5.864341 28.660963
-32.556183 3.890173 29.830557
-33.992039 4.388854 27.78503
-35.04044 2.822871 26.880163
-35.855896 1.098556 26.244526
-36.642025 -0.636074 25.541149
-37.140583 1.450323 24.134541
-38.232361 1.669638 22.085072
-39.220974 1.63455 19.892757
-39.4422 3.815907 18.555605
-39.630329 5.893623 17.137054
-39.786152 7.918552 15.558431
-37.887241 16.205294 14.466961
-38.570965 18.997858 8.695462
-38.815605 19.189348 6.516719
-38.051048 21.039953 7.553891
-29.085018 14.092861 -5.423588
-28.829338 17.020529 -6.139329
-28.69655 19.965637 -6.704515
-31.644352 21.265356 -5.881417
-30.102787 22.27519 -6.579997
-28.473955 23.077477 -7.182562
-39.238781 10.217085 4.024858
-38.345833 10.064389 2.385626
-36.571625 14.977857 -1.422911
-35.537395 12.581017 -1.664766
-30.434164 6.643051 31.50738
-30.82773 8.646976 30.242521
-31.917423 7.327981 29.381264
-33.325916 7.919718 27.299414
-34.651749 8.489231 25.214701
-35.981308 9.071789 22.943132
-37.192055 9.434239 20.727543
-36.174667 11.155932 21.51952
-17.403137 18.962492 -10.472685
-16.882185 16.781879 -10.910749
-16.639336 20.267448 -11.349235
-16.03249 21.600172 -12.25616
-24.220617 19.724751 -7.831759
-22.756636 17.161627 -7.816692
-21.465918 14.755341 -7.8345
-20.226963 15.758598 -8.448822
-19.133871 16.941877 -9.106687
-18.231232 18.119215 -9.765924
-18.136496 21.637844 -10.235709
-18.016527 25.108927 -10.737794
-36.543167 24.931116 -1.757406
-35.810387 26.319923 -2.500782
-36.091797 26.80546 -1.155714
-35.346527 28.870981 -0.436004
-40.106907 7.939588 7.254344
-38.195873 9.755908 18.600288
-39.044731 10.119216 16.379541
-39.722984 10.139318 14.286559
-38.818932 14.398826 13.597724
-39.598557 12.392291 12.831399
-40.167145 10.288179 12.067199
-40.364754 10.222721 10.014892
-40.285824 10.174545 7.977438
-39.891243 10.089865 5.914655
-39.60236 12.458812 4.554694
-39.216599 14.676932 3.179051
-38.806625 17.07897 2.045204
-38.865681 19.248068 4.476575
-38.697453 19.263426 2.630021
-38.31216 19.280218 0.923266
-37.759327 21.321142 -0.112141
-37.159275 23.332996 -0.986117
-34.928329 27.466858 -3.299495
-33.82119 28.884066 -4.077179
-31.679167 26.312239 -6.13498
-32.166906 27.201986 -5.791991
-32.447918 12.633207 26.294559
-31.822664 12.236704 27.365878
-33.078171 12.95963 25.243447
-33.082577 11.865578 25.784691
-32.447918 12.633207 26.294559
-33.70071 13.299305 24.140983
-33.078171 12.95963 25.243447
-16.78548 27.327836 -11.901607
-17.203674 28.442281 -11.702527
-20.817836 25.842772 -9.622305
-20.201187 24.742301 -9.685914
-20.78208 24.152079 -9.415188
-36.526332 26.375201 1.756817
-36.912283 25.410235 2.268683
-31.295343 4.232156 31.285191
-30.73791 4.906735 31.74648
-34.570583 -1.215202 28.649231
-34.14282 -0.331883 29.002377
-34.881517 -0.104071 27.95429
-35.000256 -2.029242 28.261901
-34.570583 -1.215202 28.649231
-35.677084 -1.88971 27.286449
-35.000256 -2.029242 28.261901
-37.547532 15.062232 16.246572
-37.627886 13.962163 16.926226
-37.103296 14.894058 17.335708
-37.256762 24.466993 2.757966
-37.629696 23.425935 3.217207
-37.257826 24.40341 3.703249
-36.912283 25.410235 2.268683
-37.284153 24.432759 1.782642
-37.256762 24.466993 2.757966
-33.899006 31.328886 -1.801602
-33.971423 31.539372 -0.94945
-26.167948 24.744127 -7.997347
-26.852165 25.805983 -7.896516
-38.072096 19.991394 9.225395
-38.340402 18.902553 9.808773
-37.812138 21.012442 8.654609
-38.311007 20.018906 8.124676
-38.072096 19.991394 9.225395
-29.956726 13.807952 -5.032951
-29.209066 12.574102 -5.004417
-30.080773 12.289194 -4.61378
-29.001852 25.742576 -7.234783
-28.354435 24.685254 -7.355748
-29.121372 24.134799 -7.061597
-37.043298 11.211905 0.263981
-37.614468 11.208755 0.991753
-37.439848 12.46414 0.370327
-36.353876 11.227764 -0.445223
-37.043298 11.211905 0.263981
-34.190672 11.442191 -2.282807
-34.933883 11.341604 -1.713223
-34.794184 12.681603 -2.23435
-33.438534 11.495196 -2.770567
-34.190672 11.442191 -2.282807
-30.965918 12.108981 -4.198608
-31.808695 11.852884 -3.749789
-31.671211 13.266946 -4.193493
-30.080773 12.289194 -4.61378
-30.965918 12.108981 -4.198608
-29.175339 6.868105 32.968803
-28.461861 6.440076 34.001123
-28.696271 7.491623 33.335749
-29.921957 7.281351 31.905405
-29.687546 6.229805 32.570779
-29.175339 6.868105 32.968803
-35.549314 13.041118 21.41193
-34.902792 13.85359 21.975679
-15.687754 24.074454 -12.965406
-15.778415 22.230712 -12.751119
-15.94183 23.443914 -12.470446
-26.637126 13.322669 -6.02095
-27.494643 13.045029 -5.686028
-24.309904 14.59921 -6.931434
-25.088552 14.12493 -6.635382
-24.948341 15.792568 -6.982624
-23.518542 15.039517 -7.251181
-24.309904 14.59921 -6.931434
-18.560093 26.370714 -10.623105
-18.521223 24.587589 -10.408255
-19.064789 25.849377 -10.293567
-18.045293 26.966833 -10.962673
-18.560093 26.370714 -10.623105
-35.329197 29.016544 0.391697
-35.767063 28.009199 -0.032741
-35.749733 28.154762 0.79496
-34.885803 29.90231 -0.020206
-35.329197 29.016544 0.391697
-32.806452 2.09965 30.06499
-32.312349 2.855266 30.459696
-33.050286 3.134556 29.435851
-36.931625 -1.601229 25.305853
-37.217169 -0.528173 24.538685
-40.202041 2.679929 16.160517
-39.983513 2.657928 17.204841
-40.483121 2.534762 14.11959
-40.509787 3.590883 13.349735
-40.361185 6.729931 9.046665
-40.407459 5.605241 9.75225
-40.494993 6.801262 9.998654
-40.277813 7.932771 8.273706
-40.190279 6.736749 8.027303
-40.361185 6.729931 9.046665
-32.911271 30.644796 -4.271034
-33.242524 29.457353 -4.482841
-33.489937 30.071509 -3.865373
-16.811202 15.602132 -11.136074
-16.604665 17.350893 -11.369335
-31.146979 25.417964 -6.374625
-31.84102 24.903835 -6.035858
-31.679167 26.312239 -6.13498
-30.376958 26.009245 -6.70719
-30.538811 24.600841 -6.608067
-31.146979 25.417964 -6.374625
-29.680026 26.63968 -7.009334
-30.376958 26.009245 -6.70719
-27.413403 7.610451 34.874398
-27.277605 6.645367 35.365296
-28.07467 8.110668 33.879221
-27.413403 7.610451 34.874398
-28.788149 8.538697 32.846901
-28.696271 7.491623 33.335749
-28.07467 8.110668 33.879221
-31.104787 11.877261 28.492135
-30.442239 11.434361 29.580693
-31.734446 11.179713 27.962061
-31.104787 11.877261 28.492135
-31.822664 12.236704 27.365878
-34.34603 13.569852 23.021961
-34.358149 12.462549 23.614556
-33.70071 13.299305 24.140983
-34.902792 13.85359 21.975679
-34.34603 13.569852 23.021961
-16.435561 26.133337 -12.080149
-16.815115 25.385665 -11.666116
-16.78548 27.327836 -11.901607
-16.128547 26.681582 -12.500186
-16.158182 24.73941 -12.264696
-16.435561 26.133337 -12.080149
-19.631431 25.249623 -9.985874
-19.595675 23.558929 -9.778757
-20.201187 24.742301 -9.685914
-19.064789 25.849377 -10.293567
-19.631431 25.249623 -9.985874
-36.150295 27.260909 1.295397
-36.563637 26.261709 0.831941
-36.526332 26.375201 1.756817
-35.749733 28.154762 0.79496
-36.150295 27.260909 1.295397
-33.743046 0.518034 29.306846
-33.288362 1.31788 29.673701
-33.999071 1.579094 28.67429
-33.743046 0.518034 29.306846
-34.14282 -0.331883 29.002377
-40.546801 4.607603 12.540738
-40.509787 3.590883 13.349735
-40.4967 4.711348 13.607564
-40.537491 5.70232 11.751403
-40.550577 4.581855 11.493574
-40.546801 4.607603 12.540738
-33.800482 30.974789 -2.563893
-34.305739 30.171785 -2.119473
-33.899006 31.328886 -1.801602
-33.276217 31.69542 -2.949795
-33.682949 30.53832 -3.267665
-33.800482 30.974789 -2.563893
-32.587191 28.018625 -5.436177
-32.166906 27.201986 -5.791991
-32.793492 26.614749 -5.440399
-25.478865 23.669089 -8.046542
-26.198957 23.140507 -7.799622
-26.167948 24.744127 -7.997347
-24.768214 24.120329 -8.283365
-24.799224 22.51671 -8.085639
-25.478865 23.669089 -8.046542
-24.124146 24.640329 -8.509453
-24.768214 24.120329 -8.283365
-23.449308 25.283178 -8.76772
-23.413735 23.610799 -8.580728
-24.124146 24.640329 -8.509453
-22.73085 25.865 -9.030676
-23.449308 25.283178 -8.76772
-22.060766 26.364451 -9.286967
-22.068813 24.753099 -9.095287
-22.73085 25.865 -9.030676
-21.470177 27.068135 -9.546098
-22.060766 26.364451 -9.286967
-37.466448 0.515026 23.835381
-37.217169 -0.528173 24.538685
-36.891304 0.407125 24.837845
-38.012337 0.624683 22.810647
-37.466448 0.515026 23.835381
-37.686472 1.55998 23.109806
-38.533008 0.632425 21.747847
-38.012337 0.624683 22.810647
-39.027315 0.614881 20.651689
-38.533008 0.632425 21.747847
-38.726667 1.652094 20.988914
-39.407994 0.611266 19.647962
-39.027315 0.614881 20.651689
-39.564071 1.592556 18.871541
-39.407994 0.611266 19.647962
-39.674684 2.683235 18.202965
-39.564071 1.592556 18.871541
-39.331587 2.725229 19.224181
-39.751028 3.790601 17.557481
-39.983513 2.657928 17.204841
-39.674684 2.683235 18.202965
-37.308039 17.165105 14.94886
-37.455092 16.099711 15.561508
-37.705275 17.307223 13.829462
-37.308039 17.165105 14.94886
-38.043198 17.473583 12.679508
-38.225164 16.371654 13.317007
-37.705275 17.307223 13.829462
-38.336464 17.672632 11.544569
-38.043198 17.473583 12.679508
-38.562587 17.800328 10.488412
-38.789211 16.665711 11.110897
-38.336464 17.672632 11.544569
-38.79315 17.895632 9.375101
-38.562587 17.800328 10.488412
-38.340402 18.902553 9.808773
-37.517691 22.090592 8.027827
-37.812138 21.012442 8.654609
-37.72242 22.165872 6.930939
-37.517691 22.090592 8.027827
-37.81942 22.311222 5.819446
-38.148049 21.185303 6.442398
-37.72242 22.165872 6.930939
-37.512276 23.327071 5.235239
-37.937905 22.346503 4.746698
-37.81942 22.311222 5.819446
-37.152535 24.361418 4.742644
-37.512276 23.327071 5.235239
-37.257826 24.40341 3.703249
-37.152535 24.361418 4.742644
-28.378391 12.791536 -5.352051
-29.209066 12.574102 -5.004417
-28.20127 14.346353 -5.757565
-27.494643 13.045029 -5.686028
-28.378391 12.791536 -5.352051
-27.561478 25.254287 -7.63968
-27.680998 23.64651 -7.466494
-28.354435 24.685254 -7.355748
-26.852165 25.805983 -7.896516
-27.561478 25.254287 -7.63968
-29.001852 25.742576 -7.234783
-29.680026 26.63968 -7.009334
-38.927572 8.914391 3.871956
-39.369529 8.977858 4.735364
-38.481099 8.838043 3.05234
-38.927572 8.914391 3.871956
-38.792307 10.140737 3.205242
-37.938578 8.792469 2.279457
-38.481099 8.838043 3.05234
-37.781875 10.010454 1.635517
-38.178425 11.26269 1.741862
-37.614468 11.208755 0.991753
-37.938578 8.792469 2.279457
-37.781875 10.010454 1.635517
-35.688234 11.284627 -1.098883
-36.353876 11.227764 -0.445223
-36.203037 12.524154 -1.011105
-35.688234 11.284627 -1.098883
-34.933883 11.341604 -1.713223
-32.670042 11.609525 -3.240937
-33.438534 11.495196 -2.770567
-33.28248 12.89652 -3.274304
-32.670042 11.609525 -3.240937
-31.808695 11.852884 -3.749789
-27.773267 6.007451 34.979919
-27.277605 6.645367 35.365296
-27.773267 6.007451 34.979919
-28.461861 6.440076 34.001123
-30.223464 5.624702 32.124576
-29.687546 6.229805 32.570779
-30.948611 5.925084 31.129284
-30.73791 4.906735 31.74648
-30.223464 5.624702 32.124576
-29.501207 8.922262 31.802247
-28.788149 8.538697 32.846901
-30.304616 10.372572 30.194692
-30.442239 11.434361 29.580693
-30.210197 9.285925 30.771793
-30.304616 10.372572 30.194692
-30.922149 9.733624 29.665419
-30.11874 8.283314 31.272975
-29.501207 8.922262 31.802247
-30.210197 9.285925 30.771793
-36.134914 12.252536 20.923922
-35.589067 11.944514 22.007528
-35.549314 13.041118 21.41193
-36.655766 12.485626 19.867375
-36.695518 11.389022 20.462972
-36.134914 12.252536 20.923922
-36.639406 13.571565 19.171844
-37.20001 12.70805 18.710893
-36.655766 12.485626 19.867375
-36.599714 14.604888 18.54298
-36.639406 13.571565 19.171844
-37.103296 14.894058 17.335708
-36.599714 14.604888 18.54298
-17.142661 17.872186 -10.691717
-17.243845 16.19663 -10.468294
-17.504321 17.286936 -10.249262
-16.483241 19.093677 -11.588578
-16.604665 17.350893 -11.369335
-16.76076 18.524664 -11.129992
-16.179817 19.760039 -12.04204
-16.483241 19.093677 -11.588578
-16.335913 20.93381 -11.802698
-15.951792 20.457622 -12.521578
-16.179817 19.760039 -12.04204
-15.697717 21.088161 -13.016538
-15.951792 20.457622 -12.521578
-15.778415 22.230712 -12.751119
-15.773657 27.176861 -12.949188
-16.128547 26.681582 -12.500186
-15.562127 25.84365 -13.193485
-15.773657 27.176861 -12.949188
-15.484616 27.732856 -13.457939
-15.687754 24.074454 -12.965406
-15.562127 25.84365 -13.193485
-25.84186 13.681891 -6.318465
-26.637126 13.322669 -6.02095
-26.522256 14.959067 -6.389057
-25.84186 13.681891 -6.318465
-25.088552 14.12493 -6.635382
-22.812014 15.486907 -7.520188
-23.518542 15.039517 -7.251181
-23.463164 16.714237 -7.547684
-22.166655 14.283764 -7.529092
-22.812014 15.486907 -7.520188
-22.111277 15.958484 -7.825596
-21.56867 13.016666 -7.516233
-22.166655 14.283764 -7.529092
-20.951107 13.487952 -7.84371
-21.56867 13.016666 -7.516233
-20.331629 13.98958 -8.150871
-20.951107 13.487952 -7.84371
-20.84644 15.25697 -8.141661
-19.795734 14.572436 -8.49479
-20.331629 13.98958 -8.150871
-19.249187 15.164076 -8.823723
-19.795734 14.572436 -8.49479
-19.680417 16.350237 -8.777755
-18.775703 15.705945 -9.180522
-19.249187 15.164076 -8.823723
-18.324384 16.294614 -9.51014
-18.775703 15.705945 -9.180522
-18.682551 17.530546 -9.436305
-17.918368 16.865298 -9.895881
-18.324384 16.294614 -9.51014
-17.817184 18.540854 -10.119305
-17.504321 17.286936 -10.249262
-17.918368 16.865298 -9.895881
-17.619547 27.702452 -11.337563
-17.590781 25.844546 -11.112684
-18.045293 26.966833 -10.962673
-17.203674 28.442281 -11.702527
-17.619547 27.702452 -11.337563
-20.817836 25.842772 -9.622305
-21.470177 27.068135 -9.546098
-34.414671 30.72976 -0.480795
-34.875395 29.698432 -0.896593
-34.885803 29.90231 -0.020206
-33.971423 31.539372 -0.94945
-34.414671 30.72976 -0.480795
-31.841905 3.573684 30.824876
-31.295343 4.232156 31.285191
-32.00962 4.548645 30.290872
-31.841905 3.573684 30.824876
-32.312349 2.855266 30.459696
-32.806452 2.09965 30.06499
-33.288362 1.31788 29.673701
-36.343457 -1.714051 26.256452
-35.677084 -1.88971 27.286449
-35.975652 -0.811732 26.571147
-36.343457 -1.714051 26.256452
-36.931625 -1.601229 25.305853
-40.401956 2.644596 15.089119
-40.202041 2.679929 16.160517
-40.259771 3.729961 15.487958
-40.401956 2.644596 15.089119
-40.483121 2.534762 14.11959
-40.445007 4.446858 10.492286
-40.550577 4.581855 11.493574
-40.445007 4.446858 10.492286
-40.407459 5.605241 9.75225
-39.911901 6.617226 7.110191
-40.190279 6.736749 8.027303
-39.803593 7.839109 6.350106
-39.911901 6.617226 7.110191
-37.979681 15.167815 15.152026
-37.547532 15.062232 16.246572
-37.455092 16.099711 15.561508
-39.695761 8.914248 5.680262
-39.803593 7.839109 6.350106
-39.999075 9.014727 6.584499
-39.565012 10.153475 4.969756
-39.369529 8.977858 4.735364
-39.695761 8.914248 5.680262
-32.938817 28.731013 -4.986543
-33.517483 28.157727 -4.580882
-33.242524 29.457353 -4.482841
-32.587191 28.018625 -5.436177
-32.938817 28.731013 -4.986543
-32.788055 32.391917 -3.385888
-33.276217 31.69542 -2.949795
-32.610369 31.923648 -4.053764
-32.788055 32.391917 -3.385888
-32.911271 30.644796 -4.271034
-32.610369 31.923648 -4.053764
-17.07132 15.064179 -10.658935
-17.43298 14.478929 -10.21648
-17.243845 16.19663 -10.468294
-17.07132 15.064179 -10.658935
-16.811202 15.602132 -11.136074
3 0 51 49
3 0 49 52
3 1 56 54
3 1 58 56
3 1 60 58
3 2 63 61
3 196 195 64
3 4 68 66
3 2 71 69
3 2 61 71
3 197 75 198
3 199 77 200
3 201 200 75
3 199 200 201
3 203 202 77
3 205 204 79
3 3 83 81
3 6 86 84
3 6 88 86
3 6 206 208
3 208 207 88
3 206 207 208
3 210 209 90
3 5 211 212
3 7 213 215
3 215 214 92
3 213 214 215
3 7 216 217
3 7 218 219
3 8 95 93
3 8 97 95
3 220 100 221
3 222 221 98
3 220 221 222
3 9 103 101
3 9 105 103
3 9 107 105
3 223 110 224
3 225 224 108
3 223 224 225
3 226 90 227
3 228 227 110
3 226 227 228
3 230 229 112
3 10 116 114
3 12 117 50
3 12 118 117
3 13 121 119
3 10 122 53
3 10 114 122
3 232 231 123
3 16 127 125
3 18 128 55
3 18 129 128
3 18 131 129
3 19 132 57
3 19 133 132
3 19 134 133
3 21 135 59
3 21 136 135
3 233 138 234
3 235 140 236
3 237 236 138
3 235 236 237
3 24 238 240
3 238 141 239
3 238 239 240
3 26 142 62
3 26 143 142
3 11 144 115
3 27 145 65
3 27 146 145
3 27 241 243
3 243 242 146
3 241 242 243
3 28 148 147
3 29 244 246
3 246 245 67
3 244 245 246
3 29 247 248
3 14 149 120
3 30 150 70
3 30 249 251
3 251 250 150
3 249 250 251
3 30 252 253
3 24 254 256
3 256 255 72
3 254 255 256
3 24 257 258
3 31 259 261
3 261 260 73
3 259 260 261
3 31 262 264
3 262 151 263
3 262 263 264
3 32 152 74
3 32 153 152
3 32 154 153
3 33 155 76
3 33 156 155
3 33 158 156
3 266 265 78
3 35 161 159
3 36 162 80
3 36 267 269
3 269 268 162
3 267 268 269
3 25 270 271
3 37 272 274
3 274 273 82
3 272 273 274
3 37 275 276
3 15 163 124
3 38 164 85
3 38 165 164
3 38 166 165
3 39 167 87
3 39 168 167
3 39 169 168
3 277 170 278
3 279 278 89
3 277 278 279
3 281 280 170
3 40 173 171
3 282 174 283
3 284 283 91
3 282 283 284
3 286 285 174
3 17 287 289
3 289 288 126
3 287 288 289
3 291 290 130
3 20 292 293
3 295 294 94
3 42 296 298
3 298 297 96
3 296 297 298
3 42 299 301
3 299 175 300
3 299 300 301
3 34 176 157
3 43 177 99
3 43 178 177
3 22 179 137
3 44 180 102
3 44 181 180
3 44 182 181
3 45 183 104
3 45 184 183
3 45 185 184
3 46 186 106
3 46 187 186
3 23 188 139
3 47 189 109
3 47 190 189
3 47 191 190
3 40 192 111
3 40 171 192
3 41 193 172
3 48 194 113
3 48 302 304
3 304 303 194
3 302 303 304
3 306 305 160
3 49 50 10
3 51 50 49
3 51 12 50
3 52 53 13
3 49 53 52
3 49 10 53
3 54 55 16
3 56 55 54
3 56 18 55
3 56 57 18
3 58 57 56
3 58 19 57
3 58 59 19
3 60 59 58
3 60 21 59
3 61 62 24
3 63 62 61
3 63 26 62
3 64 65 11
3 307 65 308
3 309 308 64
3 307 308 309
3 310 27 311
3 312 311 65
3 310 311 312
3 314 313 27
3 66 67 28
3 68 67 66
3 68 29 67
3 69 70 14
3 71 70 69
3 71 30 70
3 71 72 30
3 61 72 71
3 61 24 72
3 315 73 316
3 317 73 318
3 319 31 320
3 321 320 73
3 319 320 321
3 322 74 323
3 75 324 326
3 324 74 325
3 324 325 326
3 75 32 74
3 75 76 32
3 77 76 75
3 77 33 76
3 77 78 33
3 327 78 328
3 329 328 77
3 327 328 329
3 331 330 78
3 79 80 35
3 332 80 333
3 334 333 79
3 332 333 334
3 335 36 336
3 337 336 80
3 335 336 337
3 81 82 25
3 83 82 81
3 83 37 82
3 84 85 15
3 86 85 84
3 86 38 85
3 86 87 38
3 88 87 86
3 88 39 87
3 88 89 39
3 338 89 339
3 340 339 88
3 338 339 340
3 342 341 89
3 90 91 40
3 343 91 344
3 345 344 90
3 343 344 345
3 347 346 91
3 92 348 350
3 350 349 17
3 348 349 350
3 352 351 92
3 93 94 20
3 95 94 93
3 95 353 355
3 355 354 94
3 353 354 355
3 95 356 358
3 356 96 357
3 356 357 358
3 97 96 95
3 97 42 96
3 98 99 34
3 100 99 98
3 100 43 99
3 101 102 22
3 103 102 101
3 103 44 102
3 103 104 44
3 105 104 103
3 105 45 104
3 105 106 45
3 107 106 105
3 107 46 106
3 108 109 23
3 110 109 108
3 110 47 109
3 110 111 47
3 90 111 110
3 90 40 111
3 112 113 41
3 359 113 360
3 361 360 112
3 359 360 361
3 362 48 363
3 364 363 113
3 362 363 364
3 114 115 2
3 116 115 114
3 116 11 115
3 50 116 10
3 117 116 50
3 117 11 116
3 117 64 11
3 118 64 117
3 118 365 367
3 367 366 64
3 365 366 367
3 119 120 4
3 121 120 119
3 121 14 120
3 53 121 13
3 122 121 53
3 122 14 121
3 122 69 14
3 114 69 122
3 114 2 69
3 123 124 3
3 368 124 369
3 370 369 123
3 368 369 370
3 371 15 372
3 373 372 124
3 371 372 373
3 374 15 375
3 376 84 377
3 378 377 15
3 376 377 378
3 379 84 380
3 381 6 382
3 383 382 84
3 381 382 383
3 385 384 6
3 125 126 5
3 127 126 125
3 127 17 126
3 55 127 16
3 128 127 55
3 128 17 127
3 128 92 17
3 129 92 128
3 129 7 92
3 129 130 7
3 131 130 129
3 131 386 388
3 388 387 130
3 386 387 388
3 57 131 18
3 132 131 57
3 132 389 391
3 391 390 131
3 389 390 391
3 132 392 393
3 133 394 396
3 396 395 132
3 394 395 396
3 133 397 398
3 133 399 400
3 134 401 403
3 403 402 133
3 401 402 403
3 134 404 406
3 404 20 405
3 404 405 406
3 59 134 19
3 135 134 59
3 135 20 134
3 135 93 20
3 136 93 135
3 136 8 93
3 407 137 408
3 409 137 410
3 411 22 412
3 413 412 137
3 411 412 413
3 414 22 415
3 416 101 417
3 418 417 22
3 416 417 418
3 138 419 421
3 419 101 420
3 419 420 421
3 138 9 101
3 138 139 9
3 140 139 138
3 140 23 139
3 422 140 423
3 424 140 425
3 426 23 427
3 428 427 140
3 426 427 428
3 429 108 430
3 431 430 23
3 429 430 431
3 432 108 433
3 435 434 108
3 141 436 437
3 141 438 440
3 438 25 439
3 438 439 440
3 62 141 24
3 142 141 62
3 142 25 141
3 142 81 25
3 143 81 142
3 143 3 81
3 115 63 2
3 144 63 115
3 144 26 63
3 65 144 11
3 145 144 65
3 145 26 144
3 145 143 26
3 146 143 145
3 146 3 143
3 146 123 3
3 441 123 442
3 443 442 146
3 441 442 443
3 445 444 123
3 447 446 27
3 147 448 449
3 148 450 452
3 452 451 147
3 450 451 452
3 148 453 454
3 67 148 28
3 455 148 456
3 457 456 67
3 455 456 457
3 459 458 148
3 120 68 4
3 149 68 120
3 149 29 68
3 70 149 14
3 150 149 70
3 150 29 149
3 150 460 462
3 462 461 29
3 460 461 462
3 464 463 150
3 72 465 467
3 467 466 30
3 465 466 467
3 469 468 72
3 73 470 471
3 473 472 73
3 151 474 475
3 151 476 478
3 476 5 477
3 476 477 478
3 479 31 480
3 74 481 482
3 152 483 485
3 485 484 74
3 483 484 485
3 152 486 488
3 486 31 487
3 486 487 488
3 152 151 31
3 153 151 152
3 153 5 151
3 153 125 5
3 154 125 153
3 154 16 125
3 76 154 32
3 155 154 76
3 155 16 154
3 155 54 16
3 156 54 155
3 156 1 54
3 156 157 1
3 158 157 156
3 158 34 157
3 78 158 33
3 489 158 490
3 491 490 78
3 489 490 491
3 492 34 493
3 494 493 158
3 492 493 494
3 495 98 496
3 497 496 34
3 495 496 497
3 498 98 499
3 501 500 98
3 159 502 504
3 502 160 503
3 502 503 504
3 161 160 159
3 161 505 507
3 507 506 160
3 505 506 507
3 80 161 35
3 162 161 80
3 162 508 510
3 510 509 161
3 508 509 510
3 162 511 512
3 515 514 162
3 513 514 515
3 516 36 517
3 518 36 519
3 518 519 520
3 522 521 36
3 82 523 525
3 525 524 25
3 523 524 525
3 527 526 82
3 124 83 3
3 163 83 124
3 163 37 83
3 85 163 15
3 164 163 85
3 164 37 163
3 164 528 530
3 530 529 37
3 528 529 530
3 165 531 533
3 533 532 164
3 531 532 533
3 165 534 535
3 165 536 537
3 166 538 540
3 540 539 165
3 538 539 540
3 166 541 542
3 87 166 38
3 167 166 87
3 167 543 545
3 545 544 166
3 543 544 545
3 167 546 547
3 168 548 550
3 550 549 167
3 548 549 550
3 168 551 552
3 168 553 555
3 553 159 554
3 553 554 555
3 169 159 168
3 169 35 159
3 89 169 39
3 170 169 89
3 170 35 169
3 170 79 35
3 556 79 557
3 558 557 170
3 556 557 558
3 560 559 79
3 562 561 6
3 171 172 0
3 173 172 171
3 173 41 172
3 91 173 40
3 174 173 91
3 174 41 173
3 174 112 41
3 563 112 564
3 565 564 174
3 563 564 565
3 567 566 112
3 126 568 570
3 570 569 5
3 568 569 570
3 572 571 126
3 574 573 17
3 130 575 577
3 577 576 7
3 575 576 577
3 579 578 130
3 94 580 582
3 582 581 20
3 580 581 582
3 584 583 94
3 96 585 586
3 588 587 96
3 175 589 590
3 175 591 592
3 157 60 1
3 176 60 157
3 176 21 60
3 99 176 34
3 177 176 99
3 177 21 176
3 177 136 21
3 178 136 177
3 178 8 136
3 137 593 595
3 593 100 594
3 593 594 595
3 179 100 137
3 179 43 100
3 102 179 22
3 180 179 102
3 180 43 179
3 180 178 43
3 181 178 180
3 181 8 178
3 181 97 8
3 182 97 181
3 182 42 97
3 104 182 44
3 183 182 104
3 183 42 182
3 183 175 42
3 184 175 183
3 184 596 598
3 598 597 175
3 596 597 598
3 184 599 601
3 599 147 600
3 599 600 601
3 185 147 184
3 185 28 147
3 106 185 45
3 186 185 106
3 186 28 185
3 186 66 28
3 187 66 186
3 187 4 66
3 139 107 9
3 188 107 139
3 188 46 107
3 109 188 23
3 189 188 109
3 189 46 188
3 189 187 46
3 190 187 189
3 190 4 187
3 190 119 4
3 191 119 190
3 191 13 119
3 111 191 47
3 192 191 111
3 192 13 191
3 192 52 13
3 171 52 192
3 171 0 52
3 172 51 0
3 193 51 172
3 193 12 51
3 113 193 41
3 194 193 113
3 194 12 193
3 194 118 12
3 602 118 603
3 604 603 194
3 602 603 604
3 606 605 118
3 607 48 608
3 609 48 610
3 612 611 48
3 160 613 615
3 613 614 615
3 617 616 160
