ply
format ascii 1.0
element vertex 605
property float x
property float y
property float z
element face 652
property list uchar int vertex_index
end_header
30.062569 16.553286 43.195202
22.690538 11.117397 69.314201
29.875109 14.859743 58.33123
30.077671 9.570095 38.392338
27.720547 13.365429 65.822296
16.347269 21.786613 65.487411
23.078144 25.951687 65.479103
28.036871 28.241961 61.107948
15.751755 8.327668 68.620911
2.514397 25.194952 56.47451
8.954453 17.128925 62.963459
30.107933 15.855638 49.973476
30.106163 29.320154 53.31337
30.385906 19.87734 40.824036
30.577579 16.901567 37.971813
30.007164 13.634071 40.981323
25.472921 12.315516 68.185219
25.259048 5.363174 69.702103
19.611849 16.401037 67.903076
19.882843 23.780363 66.014908
22.935518 18.247398 67.611557
25.711477 19.674677 66.25473
-1.2367 22.917229 55.013878
12.331484 12.901729 65.975815
30.105503 15.379445 54.222839
29.260988 21.697418 60.140274
29.369631 29.058506 57.402611
29.966099 22.026567 56.292213
30.281679 22.456598 51.780769
29.154881 14.199371 62.411175
13.129683 26.534208 62.48241
16.819893 28.965656 63.497456
20.177362 31.329996 63.715485
23.350101 33.619778 62.899651
26.194836 34.968636 60.987206
25.844316 27.122765 64.004707
27.828712 20.776819 63.771381
19.344622 9.728672 69.395401
22.207634 4.489697 70.679359
6.345139 27.960848 57.829613
5.70697 21.344217 59.735775
9.557348 23.719343 61.305977
12.701675 19.468105 64.399826
15.949389 14.743255 67.186768
30.059568 16.263596 46.045815
29.76532 11.417317 44.106777
29.763445 10.142307 47.58297
28.149256 36.0574 58.006821
30.348518 22.14456 47.633499
30.345484 21.561687 44.019268
29.571609 7.192861 41.666473
30.178934 17.83902 42.134453
30.209322 16.762695 40.751259
30.029514 15.382855 42.179028
24.108044 11.722789 68.899574
25.431469 8.812898 68.948959
24.090677 8.181285 69.646309
21.259924 13.789983 68.741028
21.252121 17.47197 67.856232
22.829525 14.752522 68.478378
24.31608 15.341854 68.010529
30.032635 15.132002 56.254562
29.618431 18.065491 59.536266
29.689989 21.599337 58.266823
29.928946 18.339731 57.336979
30.107077 18.887068 55.155544
30.348206 13.357697 38.14888
30.745625 15.124485 36.626572
30.484221 11.32189 36.85931
28.522741 13.79896 64.256554
14.786394 24.250963 64.068481
15.030713 27.674999 63.106503
16.673733 25.301903 64.595306
21.54487 24.793581 65.908195
20.038258 27.543617 64.924324
21.644119 28.576553 64.764389
21.867369 32.323166 63.521313
23.266209 29.805683 64.234482
24.706039 30.404289 63.581169
24.531612 26.529266 64.903107
26.829231 16.456823 66.169258
26.806026 20.362398 65.177658
27.815277 16.956766 64.809799
28.607718 17.257328 63.237343
17.608143 9.039458 69.108253
19.127926 6.401266 70.047722
17.248848 5.873239 69.660851
0.995665 27.062311 54.86824
2.930827 28.227852 55.60004
4.459897 26.520491 57.182194
7.392858 19.35927 61.378273
7.577421 22.414747 60.525356
9.272155 20.573002 62.127491
11.121367 21.632908 62.888435
10.84669 18.286652 63.716511
14.039244 10.556767 67.387863
14.148255 13.869853 66.623169
15.857113 11.428617 67.953186
17.700268 12.351178 68.383644
30.079294 16.078079 47.838787
29.920576 13.487783 46.824772
29.947088 13.002459 48.779922
27.162836 31.691349 61.194832
27.267792 35.474579 59.64122
28.054993 32.211483 59.669857
29.804607 29.066097 55.408173
29.400816 32.780636 55.954845
29.867321 32.490669 53.914818
30.32164 29.00132 51.176655
30.226974 18.981554 50.935852
30.327127 22.13287 49.711918
30.223654 18.974026 48.838165
30.207218 18.894213 46.851044
30.498323 23.86867 42.700855
30.478203 24.506176 44.508354
29.600285 8.439708 44.650372
29.66218 9.381569 42.936611
30.651628 21.978025 39.304668
30.782307 20.452387 37.841068
30.460342 18.475611 39.338734
30.25436 15.111816 39.451286
30.029142 11.728504 39.65197
26.683306 12.863054 67.1604
26.533527 9.376626 68.043251
17.909719 19.25798 66.741318
18.220839 22.746126 65.89238
19.696087 20.062704 66.990952
21.469074 21.180954 66.909958
23.051863 22.069683 66.589699
24.433846 22.967922 65.993248
24.461525 19.034054 67.043694
25.576649 15.823452 67.313583
13.807569 7.611693 67.963074
0.672829 23.884741 55.831581
10.673248 15.112896 64.504509
30.125439 15.624858 52.090679
29.987438 12.552746 50.861332
30.016075 12.131033 52.893967
28.72794 24.871447 60.764362
28.75699 28.924519 59.341347
29.304344 25.37686 58.85363
29.73275 25.57597 56.891521
30.053173 25.492937 54.739258
30.24312 25.740568 52.623638
30.173 22.283207 53.97646
30.197966 18.952702 52.972969
30.97016 18.818098 36.429802
31.206461 16.861511 35.053768
29.586946 14.543675 60.457935
11.484853 28.464895 60.86935
15.326862 31.288258 62.018532
16.957396 32.893909 62.194046
18.419146 26.366465 64.893539
18.421053 30.335381 63.623581
18.660667 34.156891 62.350437
20.443352 34.982578 62.454514
22.091743 36.218941 62.085846
23.699846 37.347797 61.408428
25.063761 38.023556 60.577934
24.906155 34.169739 62.150139
26.033314 30.902763 62.60022
27.053349 27.65946 62.716633
25.751474 23.426117 65.189949
26.881157 24.024204 64.053627
27.936634 24.574936 62.471638
28.65555 21.008942 62.104706
29.192905 17.757004 61.444466
21.074097 10.437686 69.480988
22.520782 7.805233 70.018372
20.876232 7.115876 70.158897
20.564245 3.816364 70.759102
0.33388 20.879339 56.641369
2.232853 22.209249 57.346588
3.87967 20.144201 59.01722
4.159291 23.251785 58.156475
6.038833 24.480921 58.885025
7.905153 25.763889 59.59906
9.813125 27.12184 60.316002
11.402688 24.978842 62.003124
12.959227 22.824266 63.557644
14.587009 20.503637 65.066559
12.609243 16.118982 65.275185
14.283528 17.127556 65.841286
16.122637 18.245213 66.360069
17.817169 15.678309 67.620224
19.524193 13.074627 68.676422
30.050653 16.427753 44.452549
29.932396 14.376741 43.578354
29.906857 13.831663 45.082832
29.750071 10.796534 45.802387
29.575989 7.292041 46.446918
29.816006 9.727766 49.610416
23.801466 4.790642 70.377632
26.375641 38.902668 59.250195
27.430746 39.355934 57.825897
28.819517 32.499043 57.888336
28.921576 36.180908 56.180981
30.367548 25.451618 50.419659
30.436964 25.403526 48.397682
30.476048 25.323687 46.393475
30.344509 21.850056 45.786873
30.196995 18.910807 45.071487
30.187757 18.665955 43.537857
30.348671 20.803795 42.320511
29.853451 12.473297 42.461185
29.797071 10.34452 41.206322
29.774605 8.228007 39.966122
29.525681 4.903163 40.322979
29.914353 13.265587 57.816713
29.993116 13.401717 56.778379
29.953872 14.995873 57.292896
30.147092 8.623287 37.731144
30.350367 9.499185 36.96463
30.280946 10.445992 37.625824
28.083004 11.815968 65.50045
28.484101 12.032733 64.717579
28.121644 13.582194 65.039425
8.173656 18.244097 62.170866
7.242396 17.83932 61.740216
8.023193 16.724148 62.532809
30.153959 30.971196 52.446558
30.034537 32.556454 52.747282
29.986742 30.905411 53.614094
30.213901 29.160737 52.245013
30.261697 30.811779 51.3782
30.153959 30.971196 52.446558
30.536634 26.206491 44.707731
30.557335 25.845598 43.759094
29.526618 7.26268 44.013756
29.503693 6.750901 44.902293
25.896024 5.588611 69.21418
25.982235 7.313474 68.837608
25.345258 7.088036 69.325531
25.801767 3.835905 69.596527
25.896024 5.588611 69.21418
13.634199 6.235461 68.182999
12.846364 7.275194 67.580731
-1.008098 24.382198 54.635006
-1.980341 23.727976 54.282669
-0.281935 23.400985 55.42273
-0.053333 24.865953 55.043858
-1.008098 24.382198 54.635006
12.846364 7.275194 67.580731
13.001503 8.65879 67.332886
31.0874 14.92812 35.1602
30.976043 15.992998 35.84017
30.856981 14.059607 35.946602
31.3837 15.841227 34.291942
31.0874 14.92812 35.1602
29.326072 12.597364 61.984372
29.542105 12.769516 61.007751
29.370914 14.371523 61.434555
13.300058 28.255108 61.988426
12.477642 29.220451 61.181896
12.307268 27.499551 61.67588
19.648599 3.554575 70.658336
19.846086 5.108815 70.403412
18.93044 4.847025 70.302646
20.400894 2.240058 71.020069
19.648599 3.554575 70.658336
6.527216 29.614573 57.314925
5.532135 28.848733 56.979636
7.320827 28.53977 58.234922
6.527216 29.614573 57.314925
1.198879 20.036217 57.43255
0.290412 19.47134 57.054657
2.148365 20.701172 57.78516
1.283367 21.544294 56.993978
1.198879 20.036217 57.43255
4.79332 20.744209 59.376497
4.643019 19.230331 59.761158
5.556669 19.830338 60.120435
29.838532 9.350625 50.633385
29.901722 11.140256 50.235874
29.924247 10.763115 51.258843
28.252271 37.741709 57.099699
27.893016 39.390976 57.009237
27.790001 37.706667 57.916359
29.220647 36.211291 55.158335
29.161196 34.480772 56.067913
29.460267 34.511155 55.045267
28.980814 37.993702 55.244141
29.220647 36.211291 55.158335
29.537834 3.759488 39.628345
29.395155 3.094146 40.492325
29.667419 5.526092 39.518257
29.537834 3.759488 39.628345
-2.127655 22.173448 54.71121
-1.980341 23.727976 54.282669
30.022587 13.407989 55.669622
30.059021 13.53171 54.653761
30.069069 15.255724 55.238701
30.022587 13.407989 55.669622
29.993116 13.401717 56.778379
30.72628 12.158309 36.062971
30.856981 14.059607 35.946602
30.614923 13.223187 36.742941
30.603967 10.309432 36.144894
30.72628 12.158309 36.062971
30.603967 10.309432 36.144894
30.350367 9.499185 36.96463
28.787777 12.285773 63.855896
29.103847 12.485979 62.933206
28.838811 13.999166 63.333864
28.787777 12.285773 63.855896
28.484101 12.032733 64.717579
17.990901 4.583012 70.109211
18.93044 4.847025 70.302646
18.188387 6.137252 69.854287
1.154888 28.536349 54.39461
0.180758 27.921878 54.0529
2.122469 29.11912 54.760509
1.154888 28.536349 54.39461
1.963246 27.645081 55.23414
3.055366 29.913263 55.015425
2.247008 30.80453 54.175894
2.122469 29.11912 54.760509
3.824979 28.982235 55.864849
3.055366 29.913263 55.015425
4.589514 28.128554 56.655926
3.824979 28.982235 55.864849
3.695362 27.374171 56.391117
5.402518 27.240669 57.505904
5.532135 28.848733 56.979636
4.589514 28.128554 56.655926
6.399612 18.837865 60.941685
7.242396 17.83932 61.740216
6.549914 20.351743 60.557024
5.556669 19.830338 60.120435
6.399612 18.837865 60.941685
22.862536 3.05871 70.837025
22.079789 2.772967 70.984329
29.69352 34.366171 54.025253
29.460267 34.511155 55.045267
29.634068 32.635652 54.934832
29.920174 34.173313 52.98966
29.69352 34.366171 54.025253
29.920174 34.173313 52.98966
30.034537 32.556454 52.747282
30.370284 30.695162 50.292425
30.261697 30.811779 51.3782
30.391894 28.847133 50.086683
30.370284 30.695162 50.292425
30.567395 25.526845 42.855345
30.597236 25.101629 41.943592
30.488263 24.187423 43.604604
30.567395 25.526845 42.855345
30.557335 25.845598 43.759094
29.557565 7.733611 43.156875
29.631232 8.910639 43.793492
29.526618 7.26268 44.013756
29.51228 6.639257 42.521806
29.616895 8.287215 42.301542
29.557565 7.733611 43.156875
30.716967 21.215206 38.572868
30.874637 22.36144 37.794464
30.809297 23.124259 38.526264
27.154874 11.353078 66.932483
27.673495 11.604265 66.263431
27.201926 13.114242 66.491348
27.079985 9.609863 67.373909
27.154874 11.353078 66.932483
26.608417 11.11984 67.601825
27.019808 7.786595 67.806938
27.079985 9.609863 67.373909
26.533264 7.595337 68.384754
25.982498 9.094762 68.496105
25.982235 7.313474 68.837608
27.019808 7.786595 67.806938
26.533264 7.595337 68.384754
14.591233 6.484955 68.533516
15.563325 6.842942 68.862435
14.779662 7.96968 68.291993
14.591233 6.484955 68.533516
13.634199 6.235461 68.182999
0.108085 26.454739 54.562187
0.180758 27.921878 54.0529
0.834247 25.473526 55.349911
0.108085 26.454739 54.562187
-0.053333 24.865953 55.043858
8.889015 15.574688 63.360066
8.023193 16.724148 62.532809
9.748412 14.566674 64.13059
9.813851 16.120911 63.733984
8.889015 15.574688 63.360066
10.575778 13.49798 64.878262
9.748412 14.566674 64.13059
11.404896 12.392397 65.613914
11.502366 14.007312 65.240162
10.575778 13.49798 64.878262
12.26346 11.303808 66.339257
11.404896 12.392397 65.613914
13.11734 10.131327 67.04528
13.185364 11.729248 66.681839
12.26346 11.303808 66.339257
13.923407 9.08423 67.675468
13.11734 10.131327 67.04528
13.001503 8.65879 67.332886
29.938566 10.552258 52.27516
29.924247 10.763115 51.258843
30.001756 12.34189 51.87765
30.014307 11.907504 53.989325
30.060789 13.755239 53.558403
30.059021 13.53171 54.653761
29.965257 10.389754 53.375882
30.014307 11.907504 53.989325
29.938566 10.552258 52.27516
29.965257 10.389754 53.375882
30.970845 21.4865 37.045479
30.874637 22.36144 37.794464
31.064772 20.669356 36.339846
30.970845 21.4865 37.045479
30.876233 19.635243 37.135435
31.199841 19.77563 35.594251
31.064772 20.669356 36.339846
31.317991 18.797337 34.906234
31.199841 19.77563 35.594251
31.08831 17.839804 35.741785
31.49194 17.687413 34.149344
31.317991 18.797337 34.906234
31.49194 17.687413 34.149344
31.3837 15.841227 34.291942
29.684527 12.932913 60.011341
29.828609 13.090947 58.947988
29.731027 14.701709 59.394582
29.684527 12.932913 60.011341
29.542105 12.769516 61.007751
29.326072 12.597364 61.984372
29.103847 12.485979 62.933206
28.083004 11.815968 65.50045
27.673495 11.604265 66.263431
11.703632 30.20319 60.366037
10.776115 29.68019 59.985099
11.703632 30.20319 60.366037
12.477642 29.220451 61.181896
14.250573 28.825503 62.300472
13.300058 28.255108 61.988426
14.080198 27.104603 62.794456
14.398647 30.632132 61.756487
14.250573 28.825503 62.300472
15.178788 29.481628 62.562517
14.506547 32.38616 61.17149
14.398647 30.632132 61.756487
15.35584 33.137119 61.346418
14.506547 32.38616 61.17149
16.171107 33.939945 61.434175
15.35584 33.137119 61.346418
16.142129 32.091083 62.106289
17.07377 34.777275 61.529001
16.171107 33.939945 61.434175
17.925406 35.408766 61.607197
17.07377 34.777275 61.529001
17.809031 33.5254 62.272241
18.84696 36.010115 61.691465
17.925406 35.408766 61.607197
19.738302 36.422958 61.743504
18.84696 36.010115 61.691465
19.55201 34.569734 62.402476
20.634495 37.029142 61.681046
19.738302 36.422958 61.743504
21.458691 37.647323 61.496712
20.634495 37.029142 61.681046
21.267547 35.600759 62.27018
22.271437 38.141079 61.308872
21.458691 37.647323 61.496712
23.075488 38.705507 60.970163
22.271437 38.141079 61.308872
22.895795 36.783369 61.747137
23.806408 39.340427 60.558685
23.075488 38.705507 60.970163
24.381804 37.685676 60.993181
24.488366 39.678306 60.143438
23.806408 39.340427 60.558685
21.258094 2.436301 71.024201
22.079789 2.772967 70.984329
21.385939 4.15303 70.719231
21.258094 2.436301 71.024201
20.400894 2.240058 71.020069
16.311872 5.615728 69.382405
16.500301 7.100453 69.140881
15.563325 6.842942 68.862435
17.089454 4.332561 69.910706
16.311872 5.615728 69.382405
17.990901 4.583012 70.109211
17.089454 4.332561 69.910706
-1.353223 21.39086 55.437685
-2.127655 22.173448 54.71121
-0.567933 20.371916 56.25143
0.290412 19.47134 57.054657
-0.45141 21.898284 55.827624
-1.353223 21.39086 55.437685
-0.567933 20.371916 56.25143
3.72219 18.733914 59.358683
4.643019 19.230331 59.761158
2.971774 19.668647 58.620476
3.72219 18.733914 59.358683
3.056261 21.176725 58.181904
2.148365 20.701172 57.78516
2.971774 19.668647 58.620476
8.100834 27.441291 59.119646
7.320827 28.53977 58.234922
7.125146 26.862368 58.714337
9.05482 28.120266 59.478117
8.100834 27.441291 59.119646
8.859139 26.442864 59.957531
9.940251 29.008662 59.708425
9.05482 28.120266 59.478117
10.648989 27.793367 60.592676
10.776115 29.68019 59.985099
9.940251 29.008662 59.708425
29.491545 6.177068 45.800565
29.503693 6.750901 44.902293
29.588137 7.865875 45.548645
29.752727 8.046806 49.968359
29.838532 9.350625 50.633385
29.719386 8.275505 48.985489
29.752727 8.046806 49.968359
29.693106 8.482776 47.971766
29.789726 9.935037 48.596693
29.719386 8.275505 48.985489
29.599377 7.057643 47.40374
29.669717 8.717174 47.014944
29.693106 8.482776 47.971766
29.494843 5.651499 46.783111
29.599377 7.057643 47.40374
29.491545 6.177068 45.800565
29.494843 5.651499 46.783111
29.914353 13.265587 57.816713
29.828609 13.090947 58.947988
23.659453 3.209182 70.686161
23.00455 4.640169 70.528496
22.862536 3.05871 70.837025
24.441707 3.367903 70.382977
23.659453 3.209182 70.686161
25.170497 3.654168 70.045212
24.530257 5.076908 70.039867
24.441707 3.367903 70.382977
25.801767 3.835905 69.596527
25.170497 3.654168 70.045212
25.179891 39.93643 59.710918
24.488366 39.678306 60.143438
25.835831 40.375986 59.047049
25.179891 39.93643 59.710918
25.719701 38.463112 59.914064
26.449119 40.844442 58.336056
25.835831 40.375986 59.047049
26.976671 41.071075 57.623907
26.449119 40.844442 58.336056
26.903194 39.129301 58.538046
27.536205 41.230734 56.83695
26.976671 41.071075 57.623907
27.536205 41.230734 56.83695
27.893016 39.390976 57.009237
28.638431 37.803463 56.186779
28.252271 37.741709 57.099699
28.535416 36.119154 57.093901
28.638431 37.803463 56.186779
28.980814 37.993702 55.244141
30.414848 27.072283 49.708185
30.391894 28.847133 50.086683
30.344594 27.226469 50.798157
30.449556 27.048237 48.697197
30.414848 27.072283 49.708185
30.402256 25.427572 49.40867
30.491495 27.002655 47.691229
30.449556 27.048237 48.697197
30.511037 26.962736 46.689126
30.491495 27.002655 47.691229
30.456506 25.363606 47.395578
30.535557 26.615247 45.650292
30.511037 26.962736 46.689126
30.477125 24.914932 45.450914
30.536634 26.206491 44.707731
30.535557 26.615247 45.650292
30.73238 23.741358 39.339948
30.809297 23.124259 38.526264
30.890049 24.887592 38.561544
30.607298 22.578168 40.094704
30.73238 23.741358 39.339948
30.474436 21.527826 40.854388
30.518767 20.927682 40.064352
30.607298 22.578168 40.094704
30.530645 23.523491 41.792797
30.597236 25.101629 41.943592
30.455819 21.991053 41.602625
30.530645 23.523491 41.792797
30.423497 22.336233 42.510683
30.367289 20.340567 41.572274
30.474436 21.527826 40.854388
30.455819 21.991053 41.602625
29.455704 5.499429 41.838768
29.51228 6.639257 42.521806
29.432741 4.35458 41.167021
29.395155 3.094146 40.492325
29.548645 6.048012 40.994726
29.455704 5.499429 41.838768
29.432741 4.35458 41.167021
29.791881 7.188514 39.339828
29.650143 6.565585 40.14455
29.667419 5.526092 39.518257
29.943413 7.859558 38.552937
29.926138 8.899051 39.17923
29.791881 7.188514 39.339828
30.147092 8.623287 37.731144
29.943413 7.859558 38.552937
3 0 53 51
3 1 56 54
3 1 59 57
3 1 54 59
3 2 208 210
3 210 209 61
3 208 209 210
3 2 64 62
3 2 61 64
3 3 68 66
3 3 211 213
3 213 212 68
3 211 212 213
3 4 214 216
3 216 215 69
3 214 215 216
3 5 72 70
3 6 75 73
3 6 77 75
3 6 79 77
3 4 82 80
3 4 69 82
3 8 86 84
3 9 88 87
3 9 89 88
3 10 217 219
3 217 90 218
3 217 218 219
3 10 92 90
3 10 94 92
3 8 97 95
3 8 84 97
3 11 101 99
3 7 104 102
3 12 107 105
3 12 220 222
3 222 221 107
3 220 221 222
3 12 223 225
3 223 108 224
3 223 224 225
3 11 111 109
3 11 99 111
3 226 114 227
3 229 228 115
3 13 119 117
3 15 120 52
3 15 121 120
3 16 123 122
3 17 230 232
3 232 231 55
3 230 231 232
3 17 233 234
3 18 126 124
3 20 127 58
3 20 128 127
3 20 130 128
3 16 131 60
3 16 122 131
3 236 235 132
3 22 237 238
3 22 239 241
3 239 133 240
3 239 240 241
3 242 132 243
3 24 137 135
3 25 140 138
3 27 141 63
3 27 142 141
3 27 144 142
3 24 145 65
3 24 135 145
3 14 146 118
3 244 147 245
3 246 245 67
3 244 245 246
3 248 247 147
3 29 249 251
3 251 250 148
3 249 250 251
3 30 252 254
3 254 253 149
3 252 253 254
3 31 150 71
3 31 151 150
3 19 152 125
3 32 153 74
3 32 154 153
3 32 155 154
3 33 156 76
3 33 157 156
3 33 159 157
3 35 160 78
3 35 161 160
3 21 162 129
3 36 163 81
3 36 164 163
3 36 165 164
3 29 166 83
3 29 148 166
3 37 169 167
3 255 170 256
3 257 256 85
3 255 256 257
3 259 258 170
3 39 260 261
3 39 262 263
3 264 171 265
3 266 172 267
3 268 267 171
3 266 267 268
3 40 269 271
3 269 173 270
3 269 270 271
3 40 174 173
3 40 175 174
3 41 176 91
3 41 177 176
3 41 178 177
3 42 179 93
3 42 180 179
3 23 181 134
3 43 182 96
3 43 183 182
3 43 184 183
3 37 185 98
3 37 167 185
3 44 188 186
3 46 189 100
3 46 190 189
3 272 191 273
3 274 273 136
3 272 273 274
3 38 192 168
3 34 193 158
3 47 194 103
3 47 275 277
3 277 276 194
3 275 276 277
3 26 195 139
3 278 196 279
3 280 279 106
3 278 279 280
3 282 281 196
3 28 197 143
3 48 198 110
3 48 199 198
3 48 200 199
3 44 201 112
3 44 186 201
3 49 203 113
3 49 202 203
3 45 204 187
3 50 205 116
3 50 206 205
3 283 207 284
3 286 285 207
3 51 52 13
3 53 52 51
3 53 15 52
3 54 55 16
3 56 55 54
3 56 17 55
3 57 58 18
3 59 58 57
3 59 20 58
3 59 60 20
3 54 60 59
3 54 16 60
3 287 22 288
3 61 289 291
3 291 290 24
3 289 290 291
3 293 292 61
3 62 63 25
3 64 63 62
3 64 27 63
3 64 65 27
3 61 65 64
3 61 24 65
3 66 67 14
3 68 67 66
3 68 294 296
3 296 295 67
3 294 295 296
3 68 297 298
3 300 299 68
3 69 301 303
3 303 302 29
3 301 302 303
3 305 304 69
3 70 71 30
3 72 71 70
3 72 31 71
3 73 74 19
3 75 74 73
3 75 32 74
3 75 76 32
3 77 76 75
3 77 33 76
3 77 78 33
3 79 78 77
3 79 35 78
3 80 81 21
3 82 81 80
3 82 36 81
3 82 83 36
3 69 83 82
3 69 29 83
3 84 85 37
3 86 85 84
3 86 306 308
3 308 307 85
3 306 307 308
3 87 309 310
3 88 311 313
3 313 312 87
3 311 312 313
3 88 314 316
3 314 315 316
3 88 317 318
3 89 319 321
3 321 320 88
3 319 320 321
3 89 322 324
3 322 39 323
3 322 323 324
3 90 325 326
3 90 327 329
3 327 40 328
3 327 328 329
3 90 91 40
3 92 91 90
3 92 41 91
3 92 93 41
3 94 93 92
3 94 42 93
3 95 96 23
3 97 96 95
3 97 43 96
3 97 98 43
3 84 98 97
3 84 37 98
3 99 100 44
3 101 100 99
3 101 46 100
3 331 330 38
3 102 103 34
3 104 103 102
3 104 47 103
3 105 106 26
3 107 106 105
3 107 332 334
3 334 333 106
3 332 333 334
3 107 335 336
3 338 337 107
3 108 339 340
3 108 341 342
3 109 110 28
3 111 110 109
3 111 48 110
3 111 112 48
3 99 112 111
3 99 44 112
3 343 113 344
3 114 345 347
3 345 113 346
3 345 346 347
3 114 49 113
3 115 116 45
3 348 116 349
3 350 349 115
3 348 349 350
3 351 50 352
3 353 352 116
3 351 352 353
3 117 354 356
3 354 118 355
3 354 355 356
3 119 118 117
3 119 14 118
3 52 119 13
3 120 119 52
3 120 14 119
3 120 66 14
3 121 66 120
3 121 3 66
3 122 357 359
3 359 358 4
3 357 358 359
3 123 360 362
3 362 361 122
3 360 361 362
3 123 363 364
3 55 123 16
3 365 123 366
3 367 366 55
3 365 366 367
3 369 368 123
3 124 125 5
3 126 125 124
3 126 19 125
3 58 126 18
3 127 126 58
3 127 19 126
3 127 73 19
3 128 73 127
3 128 6 73
3 128 129 6
3 130 129 128
3 130 21 129
3 60 130 20
3 131 130 60
3 131 21 130
3 131 80 21
3 122 80 131
3 122 4 80
3 132 370 372
3 372 371 8
3 370 371 372
3 374 373 132
3 375 87 376
3 133 377 379
3 377 87 378
3 377 378 379
3 133 9 87
3 380 10 381
3 382 134 383
3 384 383 10
3 382 383 384
3 385 134 386
3 387 23 388
3 389 388 134
3 387 388 389
3 390 23 391
3 392 95 393
3 394 393 23
3 392 393 394
3 132 395 397
3 395 95 396
3 395 396 397
3 132 8 95
3 135 136 11
3 137 136 135
3 137 398 400
3 400 399 136
3 398 399 400
3 401 137 402
3 403 402 24
3 401 402 403
3 404 137 405
3 407 406 137
3 138 139 7
3 140 139 138
3 140 26 139
3 63 140 25
3 141 140 63
3 141 26 140
3 141 105 26
3 142 105 141
3 142 12 105
3 142 143 12
3 144 143 142
3 144 28 143
3 65 144 27
3 145 144 65
3 145 28 144
3 145 109 28
3 135 109 145
3 135 11 109
3 118 408 409
3 146 410 412
3 412 411 118
3 410 411 412
3 146 413 414
3 67 146 14
3 147 146 67
3 147 415 417
3 417 416 146
3 415 416 417
3 147 418 419
3 421 420 147
3 148 422 424
3 424 423 2
3 422 423 424
3 426 425 148
3 428 427 29
3 430 429 4
3 149 431 432
3 434 433 149
3 71 435 437
3 437 436 30
3 435 436 437
3 150 438 440
3 440 439 71
3 438 439 440
3 150 441 442
3 150 443 444
3 151 445 447
3 447 446 150
3 445 446 447
3 151 448 449
3 125 72 5
3 152 72 125
3 152 31 72
3 74 152 19
3 153 152 74
3 153 31 152
3 153 151 31
3 154 151 153
3 154 450 452
3 452 451 151
3 450 451 452
3 154 453 454
3 155 455 457
3 457 456 154
3 455 456 457
3 155 458 459
3 76 155 32
3 156 155 76
3 156 460 462
3 462 461 155
3 460 461 462
3 156 463 464
3 157 465 467
3 467 466 156
3 465 466 467
3 157 468 469
3 157 470 472
3 470 158 471
3 470 471 472
3 159 158 157
3 159 34 158
3 78 159 33
3 160 159 78
3 160 34 159
3 160 102 34
3 161 102 160
3 161 7 102
3 129 79 6
3 162 79 129
3 162 35 79
3 81 162 21
3 163 162 81
3 163 35 162
3 163 161 35
3 164 161 163
3 164 7 161
3 164 138 7
3 165 138 164
3 165 25 138
3 83 165 36
3 166 165 83
3 166 25 165
3 166 62 25
3 148 62 166
3 148 2 62
3 167 168 1
3 169 168 167
3 169 38 168
3 85 169 37
3 170 169 85
3 170 38 169
3 170 473 475
3 475 474 38
3 473 474 475
3 477 476 170
3 478 86 479
3 480 479 8
3 478 479 480
3 481 86 482
3 484 483 86
3 485 22 486
3 171 487 488
3 171 489 491
3 489 22 490
3 489 490 491
3 171 133 22
3 172 133 171
3 172 9 133
3 173 492 493
3 173 494 495
3 173 496 498
3 496 172 497
3 496 497 498
3 174 172 173
3 174 9 172
3 174 89 9
3 175 89 174
3 175 39 89
3 91 175 40
3 176 175 91
3 176 39 175
3 176 499 501
3 501 500 39
3 499 500 501
3 177 502 504
3 504 503 176
3 502 503 504
3 177 505 506
3 177 507 509
3 507 149 508
3 507 508 509
3 178 149 177
3 178 30 149
3 93 178 41
3 179 178 93
3 179 30 178
3 179 70 30
3 180 70 179
3 180 5 70
3 134 94 10
3 181 94 134
3 181 42 94
3 96 181 23
3 182 181 96
3 182 42 181
3 182 180 42
3 183 180 182
3 183 5 180
3 183 124 5
3 184 124 183
3 184 18 124
3 98 184 43
3 185 184 98
3 185 18 184
3 185 57 18
3 167 57 185
3 167 1 57
3 186 187 0
3 188 187 186
3 188 45 187
3 100 188 44
3 189 188 100
3 189 45 188
3 189 115 45
3 190 115 189
3 190 510 512
3 512 511 115
3 510 511 512
3 136 101 11
3 191 101 136
3 191 46 101
3 513 191 514
3 515 191 516
3 517 46 518
3 519 518 191
3 517 518 519
3 520 190 521
3 522 521 46
3 520 521 522
3 523 190 524
3 526 525 190
3 528 527 2
3 168 56 1
3 192 56 168
3 192 17 56
3 529 192 530
3 531 530 38
3 529 530 531
3 532 192 533
3 534 17 535
3 536 535 192
3 534 535 536
3 538 537 17
3 158 539 540
3 193 541 543
3 543 542 158
3 541 542 543
3 193 544 545
3 103 193 34
3 194 193 103
3 194 546 548
3 548 547 193
3 546 547 548
3 194 549 550
3 552 551 194
3 139 104 7
3 195 104 139
3 195 47 104
3 106 195 26
3 196 195 106
3 196 47 195
3 196 553 555
3 555 554 47
3 553 554 555
3 557 556 196
3 143 108 12
3 197 108 143
3 197 558 560
3 560 559 108
3 558 559 560
3 110 197 28
3 198 197 110
3 198 561 563
3 563 562 197
3 561 562 563
3 198 564 565
3 199 566 568
3 568 567 198
3 566 567 568
3 199 569 570
3 199 571 573
3 571 114 572
3 571 572 573
3 200 114 199
3 200 49 114
3 112 200 48
3 201 200 112
3 201 49 200
3 201 202 49
3 186 202 201
3 186 0 202
3 574 117 575
3 574 575 576
3 577 117 578
3 579 13 580
3 581 580 117
3 579 580 581
3 113 582 583
3 203 584 586
3 586 585 113
3 584 585 586
3 203 587 589
3 587 13 588
3 587 588 589
3 203 51 13
3 202 51 203
3 202 0 51
3 187 53 0
3 204 53 187
3 204 15 53
3 116 204 45
3 205 204 116
3 205 15 204
3 205 121 15
3 206 121 205
3 206 3 121
3 590 50 591
3 207 592 593
3 207 594 596
3 594 50 595
3 594 595 596
3 207 206 50
3 597 206 598
3 599 598 207
3 597 598 599
3 600 3 601
3 602 601 206
3 600 601 602
3 604 603 3
