ply
format ascii 1.0
element vertex 672
property float x
property float y
property float z
element face 771
property list uchar int vertex_index
end_header
-22.949369 -7.076767 -6.347281
-24.425484 19.416185 -36.260479
-33.306313 -9.364587 -17.582508
-22.699825 4.374025 -18.287949
-33.58823 -22.330196 -3.590874
-26.965027 -9.586326 -10.78345
-28.051201 -2.864251 -17.768002
-21.881517 -2.0132 -11.443166
-28.060505 -15.014726 -5.002098
-32.72282 -16.633415 -10.516335
-30.492245 12.87906 -35.256504
-18.317924 26.944101 -36.037628
-16.351032 32.634373 -45.223782
-34.640598 -1.701307 -25.035797
-29.504341 4.938723 -25.81354
-23.938404 11.645998 -26.532045
-37.501328 -30.089691 -2.098256
-37.165417 -24.073114 -10.10365
-37.58604 -16.67696 -17.536863
-24.563931 -8.832864 -8.232061
-24.440945 -6.121453 -11.112356
-22.167473 -4.850245 -8.655448
-25.355312 -11.220985 -5.651246
-27.160284 -12.492417 -7.710477
-27.546265 16.098049 -35.92382
-27.221373 19.790758 -40.895985
-17.646385 29.92767 -40.735001
-36.237854 -8.917751 -21.337856
-33.977333 -5.478679 -21.324968
-25.237219 0.577752 -17.914051
-28.796787 0.881451 -21.592758
-26.023905 4.306423 -21.936174
-26.716408 8.267111 -26.28141
-23.333546 7.994767 -22.308441
-32.194401 -20.815424 -1.008101
-35.937847 -26.22089 -2.822922
-37.277473 -27.440422 -6.117321
-35.459194 -23.48773 -6.696714
-32.805031 -13.106665 -13.954384
-35.318722 -16.671288 -14.001791
-35.707573 -12.916404 -17.619143
-30.158056 -9.834822 -13.978119
-30.686367 -6.004763 -17.665159
-27.336052 -6.433951 -14.071551
-24.647974 -2.891353 -14.306993
-22.109844 1.031212 -14.60116
-29.362547 -16.929815 -2.170329
-30.812309 -18.581591 -4.287061
-32.872047 -19.579983 -7.132265
-30.063107 -16.036192 -7.439783
-29.922323 -13.096654 -10.700305
-21.314262 22.980598 -36.299301
-23.959885 23.05402 -41.311092
-20.802202 26.273697 -41.237179
-31.439205 -2.269812 -21.386208
-32.229416 1.740838 -25.488451
-30.210796 8.949939 -30.443987
-27.273848 12.163469 -30.886374
-24.377254 15.430379 -31.144133
-20.656376 12.235103 -22.515949
-21.097425 15.70366 -26.687
-21.372009 19.282064 -31.227205
-18.595924 23.715982 -31.446669
-35.201199 -20.23472 -10.35909
-37.328514 -20.503502 -13.939283
-23.67292 -8.177349 -7.142745
-23.330019 -6.949358 -8.380859
-22.461229 -5.975803 -7.444369
-24.135893 -9.259463 -5.964876
-24.883627 -10.114203 -6.858728
-25.924059 17.694485 -35.978653
-27.396086 18.050871 -38.438393
-25.832991 19.581657 -38.544678
-34.80254 -9.082504 -19.455158
-35.053795 -7.132172 -21.231262
-33.61327 -7.367009 -19.472324
-23.97175 2.39237 -18.09305
-25.61726 2.527766 -19.974312
-24.32427 4.26298 -20.114042
-24.522564 6.178432 -22.034777
-22.910341 6.16532 -20.132353
-32.767895 -21.5753 -2.219809
-34.132977 -23.577951 -1.74174
-35.260635 -25.424065 -1.296462
-34.850517 -24.275349 -3.217216
-35.652138 -24.920656 -4.751655
-34.489079 -22.908453 -5.162865
-33.092033 -11.312638 -15.78287
-34.350739 -12.987918 -15.854262
-34.573784 -11.072628 -17.649786
-35.969566 -10.939658 -19.4744
-28.577105 -9.855154 -12.321551
-28.8162 -8.10172 -14.118732
-27.189005 -8.110516 -12.435557
-23.131638 -4.218195 -11.188814
-24.496319 -4.575802 -12.637501
-23.182941 -2.659548 -12.739378
-23.330259 -0.960459 -14.442664
-21.986835 -0.598105 -12.960964
-27.294889 -14.181767 -3.994235
-28.058788 -15.075071 -2.64191
-28.605587 -15.990408 -3.578274
-30.027065 -17.896887 -3.043045
-29.474602 -16.872272 -4.60043
-30.424276 -17.465658 -5.795598
-28.979826 -15.657684 -6.055332
-27.077518 -11.224742 -9.183144
-28.440969 -12.884582 -9.098914
-28.410307 -11.416012 -10.639634
-29.944756 -11.505733 -12.265027
-19.836557 24.808512 -36.152061
-20.991999 24.725302 -38.595474
-19.501728 26.630157 -38.708839
-17.035488 31.376993 -42.960323
-18.659056 29.580902 -43.520718
-17.906435 31.005362 -45.76339
-34.988377 0.29642 -27.120441
-29.405161 -4.54632 -17.642887
-31.078365 -4.154015 -19.525454
-29.684305 -2.557502 -19.530064
-29.064074 2.937716 -23.610876
-30.53479 1.360792 -23.578466
-30.851788 3.27651 -25.548573
-32.57832 3.66153 -27.560131
-31.164164 5.263888 -27.682312
-31.530437 7.321192 -30.081566
-29.878311 7.063214 -28.193705
-25.358337 9.983651 -26.530239
-27.060852 10.059612 -28.423307
-25.52759 11.859482 -28.626558
-25.797937 13.766964 -31.010178
-24.08884 13.627537 -28.772869
-19.697002 16.089666 -24.651888
-19.823999 17.91457 -26.830278
-21.35988 17.402937 -28.969261
-19.994446 19.657692 -29.157709
-19.993147 21.369558 -31.318888
-18.647655 21.963923 -29.179874
-37.196831 -25.765842 -8.185977
-37.913692 -27.901981 -7.993477
-37.944172 -26.140572 -10.042842
-37.953297 -24.274128 -11.920617
-32.794415 -18.246538 -8.792809
-34.138119 -20.119362 -8.661911
-33.9958 -18.431499 -10.394508
-36.49958 -16.58993 -15.819702
-36.426765 -18.496611 -14.087229
-37.515255 -18.705273 -15.812498
-23.622566 24.673241 -43.893658
-25.742239 -9.448513 -9.368529
-25.629225 -7.919911 -10.836685
-24.372889 -7.479661 -9.592837
-23.156803 -5.586801 -9.782388
-21.922567 -3.437702 -9.982494
-25.981339 -12.239854 -4.398224
-26.675222 -13.142764 -5.32043
-27.541313 -13.801698 -6.346776
-26.205534 -12.018412 -6.589809
-25.781744 -10.664065 -7.907405
-29.01569 14.553132 -35.665142
-30.511719 14.863377 -37.908463
-28.995003 16.413059 -38.160095
-28.857216 18.229164 -40.716686
-18.031023 28.454054 -38.31374
-37.376312 -8.779933 -23.022263
-36.431923 -6.978242 -23.040106
-35.435841 -5.291259 -23.080763
-34.292133 -3.653412 -23.088083
-26.638506 -1.146644 -17.861467
-28.346878 -1.045821 -19.556831
-26.960611 0.759686 -19.780443
-27.387985 2.556302 -21.727621
-27.675831 4.556897 -23.762186
-28.156164 6.50323 -26.007055
-26.307713 6.282232 -23.99987
-25.027374 8.041862 -24.29862
-23.597393 9.863098 -24.371521
-31.564133 -19.629971 -0.150628
-36.79076 -28.073912 -2.431844
-37.343811 -28.821121 -4.019542
-36.567177 -26.797865 -4.376095
-36.427963 -25.416199 -6.347872
-36.282097 -23.741701 -8.346511
-32.804501 -14.993234 -12.24991
-34.097847 -16.71431 -12.276604
-34.128178 -14.860917 -14.007213
-35.400234 -14.73401 -15.758708
-36.698257 -14.759229 -17.581413
-37.803192 -14.673208 -19.418182
-36.929909 -12.828581 -19.394022
-37.127399 -10.806742 -21.173326
-31.672213 -9.634058 -15.678158
-32.055058 -7.690702 -17.637512
-30.376135 -7.865719 -15.851851
-28.892666 -6.23195 -15.770092
-27.627108 -4.576051 -15.936668
-25.77836 -6.322477 -12.525937
-26.029322 -4.675218 -14.254846
-26.308887 -2.891922 -16.063923
-24.933048 -1.084218 -16.17808
-23.57221 0.655332 -16.139067
-22.373621 2.613851 -16.336149
-30.234711 -17.725197 -0.761309
-30.763941 -18.851509 -1.605537
-31.410206 -19.715874 -2.653603
-32.21941 -20.420969 -3.945745
-33.17865 -20.97859 -5.449702
-31.782515 -19.164618 -5.607641
-31.500349 -17.857418 -7.213361
-31.395626 -16.406349 -8.955166
-28.619158 -14.259866 -7.617728
-29.920029 -14.549645 -9.12968
-31.348402 -14.77298 -10.691243
-31.403131 -13.151731 -12.335534
-31.501995 -11.396059 -14.014988
-22.784513 21.143209 -36.167389
-24.191883 21.314264 -38.739407
-22.630331 22.953129 -38.748615
-22.331062 24.571241 -41.106846
-21.901876 26.235067 -43.722687
-19.164497 28.100416 -41.052757
-20.174253 27.915201 -43.519901
-32.435505 -5.764461 -19.542454
-32.787525 -3.820689 -21.429222
-33.114117 -1.811834 -23.367729
-30.181883 -0.601928 -21.601242
-31.76309 -0.136483 -23.444796
-33.471966 0.100996 -25.315054
-33.873962 2.072362 -27.459726
-30.362282 10.865222 -32.702656
-28.501406 8.493479 -28.281359
-28.673197 10.473407 -30.509802
-28.971001 12.537794 -33.1422
-27.43959 14.137739 -33.331936
-25.942135 15.835823 -33.613201
-24.433548 17.409573 -33.600044
-21.391771 -3.709436 -7.760344
-21.078905 -2.605996 -8.926779
-20.877304 -1.294034 -10.24443
-20.77906 0.18494 -11.680681
-20.893139 1.544826 -13.212447
-21.409838 6.408063 -18.332033
-21.724512 8.138635 -20.33255
-21.968918 9.994904 -22.378906
-22.253681 11.829319 -24.514851
-20.883347 13.899217 -24.494442
-22.507639 13.634503 -26.66333
-22.716722 15.449417 -28.889547
-22.915365 17.329021 -31.327824
-22.929695 19.193888 -33.684647
-21.387362 21.147697 -33.714916
-19.946518 23.101559 -33.671989
-18.501385 25.371069 -33.7621
-37.88755 -29.509312 -5.79451
-38.330078 -30.052082 -7.50838
-34.216236 -21.525171 -6.877334
-35.223919 -21.813181 -8.525756
-36.247345 -22.13755 -10.18881
-35.294289 -18.549601 -12.235342
-36.305725 -20.33189 -12.181386
-37.211372 -22.245621 -12.095476
-38.103882 -22.536831 -13.867895
-25.647238 21.422688 -41.238075
-23.542631 -8.168115 -6.156078
-23.850033 -8.631683 -5.605625
-23.256771 -7.540335 -5.796828
-31.231908 12.984148 -36.306713
-31.249365 12.006529 -35.062883
-16.728588 32.414282 -46.598305
-17.50629 31.599776 -46.868109
-17.128733 31.819868 -45.493586
-35.304031 -1.491513 -25.99031
-35.173952 -2.526474 -24.97893
-34.814487 -0.702443 -26.078119
-35.47792 -0.49265 -27.032632
-35.304031 -1.491513 -25.99031
-19.224495 19.08444 -26.924861
-19.145895 18.256919 -25.813365
-19.309719 19.956001 -28.088577
-19.909222 18.786131 -27.993994
-19.224495 19.08444 -26.924861
-18.636323 21.109116 -28.09966
-19.32105 20.810808 -29.168792
-19.309719 19.956001 -28.088577
-37.592803 -30.692777 -1.018253
-37.303797 -29.725602 -1.247054
-37.73321 -31.123138 -1.855719
-37.592803 -30.692777 -1.018253
-37.70366 -30.499598 -2.883673
-37.73321 -31.123138 -1.855719
-37.983011 -17.641905 -17.567808
-37.947619 -18.656061 -16.705626
-37.550647 -17.691116 -16.674681
-38.061892 -16.601512 -18.488758
-37.983011 -17.641905 -17.567808
-24.147053 24.807891 -45.278391
-23.300795 25.501722 -45.175417
-25.668326 -11.730419 -5.024735
-25.346909 -11.200563 -4.611817
-25.033895 -10.691128 -5.238328
-27.913905 19.917825 -42.188614
-28.731827 19.137028 -42.098965
-28.039295 19.009961 -40.806336
-32.550524 -21.175798 -0.200297
-32.23539 -20.583071 0.228439
-31.879267 -20.222698 -0.579364
-36.097452 -26.786102 -1.79192
-35.758846 -26.38769 -1.02869
-35.599241 -25.822477 -2.059692
-36.364303 -27.147401 -2.627383
-36.523909 -27.712613 -1.59638
-36.097452 -26.786102 -1.79192
-29.177451 -16.399498 -1.729639
-28.525571 -15.472126 -1.965429
-28.710667 -16.002443 -2.406119
-29.798629 -17.327506 -1.465819
-29.613533 -16.797189 -1.025129
-29.177451 -16.399498 -1.729639
-31.258139 14.876788 -38.961285
-30.490327 15.709974 -39.131979
-19.878197 28.643713 -44.82065
-19.416654 28.748051 -43.520309
-19.120599 29.476563 -44.821058
-20.707568 27.854014 -44.832102
-19.878197 28.643713 -44.82065
-33.317301 3.85358 -28.53635
-32.694716 4.69635 -28.679081
-31.008871 9.062137 -31.397954
-31.668692 8.247763 -31.216743
-30.870616 8.135566 -30.262777
-30.286539 9.90758 -31.573321
-31.084614 10.019778 -32.527288
-31.008871 9.062137 -31.397954
-21.172779 -3.062345 -7.457686
-21.644373 -4.250343 -7.212969
-20.591981 -1.396086 -9.12017
-20.763531 -1.963701 -8.542708
-20.49118 -0.740105 -9.778996
-20.978105 -1.950015 -9.585604
-20.591981 -1.396086 -9.12017
-20.283735 1.328467 -11.811347
-20.316611 0.686911 -11.138884
-20.340775 2.00841 -12.57723
-20.8361 0.864883 -12.446564
-20.283735 1.328467 -11.811347
-20.860148 7.484604 -18.438716
-20.726282 6.76176 -17.562264
-21.017485 8.349889 -19.438975
-21.567175 7.273349 -19.332292
-20.860148 7.484604 -18.438716
-21.312647 11.115004 -22.447427
-21.226741 10.145957 -21.397191
-20.57047 11.266056 -21.465713
-38.384514 -29.154393 -8.626561
-38.121885 -28.977031 -7.750929
-38.176321 -28.079342 -8.869109
-38.57345 -29.390614 -9.512
-38.519014 -30.288303 -8.393819
-38.384514 -29.154393 -8.626561
-38.300238 -14.585226 -20.405535
-37.909216 -13.61284 -20.365275
-24.424186 -9.710367 -5.395143
-23.850033 -8.631683 -5.605625
-24.745603 -10.240224 -5.808061
-25.033895 -10.691128 -5.238328
-24.424186 -9.710367 -5.395143
-33.101031 -22.086329 -1.384979
-32.814284 -21.706392 -0.779124
-32.481148 -21.195362 -1.613955
-33.783571 -23.087655 -1.145944
-33.101031 -22.086329 -1.384979
-33.450436 -22.576625 -1.980775
-34.362339 -23.990346 -0.860023
-33.783571 -23.087655 -1.145944
-34.696806 -24.501008 -1.519101
-34.926169 -24.913403 -0.637384
-34.362339 -23.990346 -0.860023
-27.676839 -14.628419 -3.318073
-27.416035 -14.109741 -2.897196
-27.034085 -13.663089 -3.573359
-18.744288 30.188794 -45.942394
-19.120599 29.476563 -44.821058
-18.282745 30.293132 -44.642054
-18.350804 30.849419 -47.163077
-18.744288 30.188794 -45.942394
-18.350804 30.849419 -47.163077
-17.50629 31.599776 -46.868109
-35.656214 0.383935 -28.039539
-36.145758 -0.405135 -27.951731
-35.47792 -0.49265 -27.032632
-35.123793 1.278391 -28.173277
-35.656214 0.383935 -28.039539
-31.987637 5.497528 -28.740172
-32.694716 4.69635 -28.679081
-31.871242 4.462709 -27.621221
-31.3473 6.29254 -28.881939
-32.170774 6.526181 -29.939799
-31.987637 5.497528 -28.740172
-20.003428 12.413251 -21.535267
-20.57047 11.266056 -21.465713
-19.082397 17.344467 -24.72417
-19.018374 16.509774 -23.694894
-19.7605 17.002118 -25.741083
-19.082397 17.344467 -24.72417
-19.145895 18.256919 -25.813365
-38.191561 -27.198638 -9.893791
-38.176321 -28.079342 -8.869109
-37.928932 -27.021276 -9.018159
-38.255049 -26.301032 -10.925839
-38.191561 -27.198638 -9.893791
-38.259611 -25.367811 -11.864726
-38.255049 -26.301032 -10.925839
-37.948735 -25.20735 -10.98173
-38.327893 -24.488273 -12.807707
-38.259611 -25.367811 -11.864726
-37.888319 -19.710676 -15.770044
-37.794949 -20.60979 -14.833436
-37.421885 -19.604388 -14.875891
-37.888319 -19.710676 -15.770044
-37.947619 -18.656061 -16.705626
-24.454456 23.95836 -43.969044
-24.623116 23.14875 -42.677761
-23.791225 23.86363 -42.602375
-24.454456 23.95836 -43.969044
-24.147053 24.807891 -45.278391
-25.766348 -11.679395 -4.020523
-25.346909 -11.200563 -4.611817
-26.37731 -12.692132 -3.775353
-25.766348 -11.679395 -4.020523
-26.638114 -13.210811 -4.19623
-27.034085 -13.663089 -3.573359
-26.37731 -12.692132 -3.775353
-29.731969 16.484815 -39.257795
-30.490327 15.709974 -39.131979
-29.753361 15.638218 -38.034279
-29.663075 17.392868 -40.536091
-29.731969 16.484815 -39.257795
-28.92611 17.321112 -39.43839
-29.519234 18.323999 -41.889066
-29.663075 17.392868 -40.536091
-29.519234 18.323999 -41.889066
-28.731827 19.137028 -42.098965
-17.4497 28.833211 -37.104853
-18.174474 27.699078 -37.175684
-17.593151 28.078235 -35.966797
-17.305919 29.507422 -38.18146
-17.4497 28.833211 -37.104853
-17.113599 30.244231 -39.39209
-17.838704 29.190862 -39.524371
-17.305919 29.507422 -38.18146
-16.914642 30.915701 -40.566057
-17.113599 30.244231 -39.39209
-16.609193 31.640363 -41.678719
-17.340936 30.652331 -41.847662
-16.914642 30.915701 -40.566057
-16.278519 32.351758 -42.821428
-16.609193 31.640363 -41.678719
-15.936291 32.980448 -43.953158
-16.69326 32.005683 -44.092053
-16.278519 32.351758 -42.821428
-37.504846 -7.788806 -23.949778
-37.880634 -8.690372 -23.894417
-37.032652 -6.887961 -23.9587
-37.504846 -7.788806 -23.949778
-36.904117 -7.879087 -23.031185
-36.570173 -6.045274 -23.934036
-37.032652 -6.887961 -23.9587
-36.072133 -5.201782 -23.954364
-36.570173 -6.045274 -23.934036
-35.933882 -6.13475 -23.060434
-35.571573 -4.32145 -24.001413
-36.072133 -5.201782 -23.954364
-34.999719 -3.502527 -24.005074
-35.571573 -4.32145 -24.001413
-34.863987 -4.472335 -23.084423
-34.466365 -2.677359 -24.06194
-35.173952 -2.526474 -24.97893
-34.999719 -3.502527 -24.005074
-32.04756 -19.967664 0.693206
-31.444004 -19.08139 0.319077
-32.718817 -20.920764 1.072272
-32.04756 -19.967664 0.693206
-32.23539 -20.583071 0.228439
-32.550524 -21.175798 -0.200297
-32.814284 -21.706392 -0.779124
-35.499909 -25.927544 -0.363606
-34.926169 -24.913403 -0.637384
-35.499909 -25.927544 -0.363606
-35.758846 -26.38769 -1.02869
-36.948513 -28.717712 -1.413848
-36.523909 -27.712613 -1.59638
-37.146044 -29.081801 -2.26505
-37.303797 -29.725602 -1.247054
-36.948513 -28.717712 -1.413848
-37.472575 -12.690527 -20.353195
-37.909216 -13.61284 -20.365275
-37.366551 -13.750895 -19.406102
-37.57132 -11.679607 -21.242847
-37.472575 -12.690527 -20.353195
-37.028654 -11.817661 -20.283674
-37.676018 -10.691416 -22.123993
-37.57132 -11.679607 -21.242847
-37.800474 -9.678012 -23.048462
-37.676018 -10.691416 -22.123993
-37.251855 -9.793337 -22.097794
-37.880634 -8.690372 -23.894417
-37.800474 -9.678012 -23.048462
-27.886246 -14.461357 -2.243165
-27.416035 -14.109741 -2.897196
-27.886246 -14.461357 -2.243165
-28.525571 -15.472126 -1.965429
-30.158821 -17.118974 -0.291139
-29.613533 -16.797189 -1.025129
-30.779293 -18.129002 0.013736
-30.158821 -17.118974 -0.291139
-30.899422 -18.677584 -0.455968
-31.444004 -19.08139 0.319077
-30.779293 -18.129002 0.013736
-31.241645 13.976306 -37.632692
-31.231908 12.984148 -36.306713
-30.501982 13.871219 -36.582483
-31.241645 13.976306 -37.632692
-31.258139 14.876788 -38.961285
-22.228153 -5.311098 -6.176852
-22.423172 -5.934009 -6.506438
-22.75435 -6.453857 -6.017696
-22.75435 -6.453857 -6.017696
-23.256771 -7.540335 -5.796828
-22.440451 26.282635 -45.089931
-23.300795 25.501722 -45.175417
-22.762221 25.454154 -43.808172
-21.571379 27.013947 -44.933495
-21.038065 27.075134 -43.621294
-20.707568 27.854014 -44.832102
-22.440451 26.282635 -45.089931
-21.571379 27.013947 -44.933495
-15.643663 33.478224 -45.019016
-15.936291 32.980448 -43.953158
-15.956226 33.179941 -46.397683
-15.643663 33.478224 -45.019016
-16.728588 32.414282 -46.598305
-15.956226 33.179941 -46.397683
-34.566586 2.166362 -28.34292
-35.123793 1.278391 -28.173277
-34.431169 1.184391 -27.290084
-33.965122 3.058996 -28.486147
-33.226141 2.866946 -27.509929
-33.317301 3.85358 -28.53635
-34.566586 2.166362 -28.34292
-33.965122 3.058996 -28.486147
-32.336011 7.414443 -31.046751
-32.170774 6.526181 -29.939799
-32.336011 7.414443 -31.046751
-31.668692 8.247763 -31.216743
-31.184383 10.99961 -33.785959
-31.084614 10.019778 -32.527288
-30.427264 11.872141 -33.97958
-31.249365 12.006529 -35.062883
-31.184383 10.99961 -33.785959
-22.179102 -5.383527 -7.054982
-22.705299 -6.526285 -6.895825
-22.423172 -5.934009 -6.506438
-21.9265 -4.842619 -7.602356
-22.179102 -5.383527 -7.054982
-21.644373 -4.250343 -7.212969
-20.919964 -2.515421 -7.959491
-21.172779 -3.062345 -7.457686
-20.700972 -1.868329 -7.656833
-21.235338 -3.157716 -8.343561
-20.919964 -2.515421 -7.959491
-20.763531 -1.963701 -8.542708
-20.365733 -0.052576 -10.420758
-20.49118 -0.740105 -9.778996
-20.828182 -0.554547 -10.962556
-20.365733 -0.052576 -10.420758
-20.316611 0.686911 -11.138884
-20.358522 2.68889 -13.305124
-20.340775 2.00841 -12.57723
-20.897971 2.375392 -13.974753
-20.358522 2.68889 -13.305124
-21.506324 2.118585 -14.66911
-21.501492 1.288019 -13.906803
-20.897971 2.375392 -13.974753
-21.638212 2.909904 -15.536604
-22.241732 1.822531 -15.468654
-21.506324 2.118585 -14.66911
-21.793799 3.662966 -16.44092
-21.638212 2.909904 -15.536604
-21.956902 4.543052 -17.416821
-22.536723 3.493938 -17.312049
-21.793799 3.662966 -16.44092
-21.311908 5.560072 -17.438862
-20.726282 6.76176 -17.562264
-22.054831 5.391044 -18.309991
-21.956902 4.543052 -17.416821
-21.311908 5.560072 -17.438862
-21.104538 9.217822 -20.374013
-21.017485 8.349889 -19.438975
-21.846715 9.066769 -21.355728
-21.104538 9.217822 -20.374013
-21.226741 10.145957 -21.397191
-20.057438 13.306833 -22.502641
-20.003428 12.413251 -21.535267
-19.577751 15.234115 -23.570611
-19.018374 16.509774 -23.694894
-20.170924 14.138891 -23.491888
-19.577751 15.234115 -23.570611
-20.290174 14.994442 -24.573165
-20.769862 13.06716 -23.505195
-20.057438 13.306833 -22.502641
-20.170924 14.138891 -23.491888
-18.015311 22.380075 -28.123404
-18.636323 21.109116 -28.09966
-17.981614 23.189826 -29.112752
-18.015311 22.380075 -28.123404
-17.955748 24.065855 -30.24615
-18.621789 22.839953 -30.313271
-17.981614 23.189826 -29.112752
-17.910597 24.876162 -31.324101
-17.955748 24.065855 -30.24615
-17.270421 25.226035 -30.123582
-17.863327 25.703705 -32.481817
-18.548654 24.543526 -32.604384
-17.910597 24.876162 -31.324101
-17.799408 26.507147 -33.652927
-17.863327 25.703705 -32.481817
-17.16135 26.839783 -32.372644
-17.707678 27.293663 -34.790691
-18.409655 26.157585 -34.899864
-17.799408 26.507147 -33.652927
-17.593151 28.078235 -35.966797
-17.707678 27.293663 -34.790691
-37.624901 -29.865313 -3.844316
-37.70366 -30.499598 -2.883673
-37.42257 -29.455406 -3.058899
-37.896771 -30.209409 -4.7318
-37.624901 -29.865313 -3.844316
-37.61568 -29.165216 -4.907026
-38.068815 -30.585356 -5.54463
-37.896771 -30.209409 -4.7318
-38.290079 -30.856741 -6.401565
-38.068815 -30.585356 -5.54463
-38.108814 -29.780697 -6.651445
-38.432058 -31.088865 -7.311509
-38.290079 -30.856741 -6.401565
-38.432058 -31.088865 -7.311509
-38.519014 -30.288303 -8.393819
-38.403185 -23.619624 -13.781347
-38.327893 -24.488273 -12.807707
-38.028589 -23.405479 -12.894256
-38.182632 -21.626455 -14.797743
-37.716198 -21.520167 -13.903589
-37.794949 -20.60979 -14.833436
-38.488001 -22.585794 -14.824496
-38.182632 -21.626455 -14.797743
-38.403185 -23.619624 -13.781347
-38.488001 -22.585794 -14.824496
-38.170468 -15.599636 -19.429417
-38.061892 -16.601512 -18.488758
-37.694616 -15.675084 -18.477522
-38.170468 -15.599636 -19.429417
-38.300238 -14.585226 -20.405535
-25.466792 22.333084 -42.641253
-24.803562 22.238354 -41.274584
-24.623116 23.14875 -42.677761
-26.284839 21.535411 -42.48658
-25.466792 22.333084 -42.641253
-27.071907 20.719446 -42.315535
-26.434306 20.606723 -41.06703
-26.284839 21.535411 -42.48658
-27.913905 19.917825 -42.188614
-27.071907 20.719446 -42.315535
3 0 67 65
3 0 263 265
3 263 68 264
3 263 264 265
3 0 65 68
3 1 72 70
3 2 75 73
3 3 78 76
3 3 80 78
3 4 82 81
3 4 84 82
3 4 86 84
3 2 89 87
3 2 73 89
3 5 93 91
3 7 96 94
3 7 98 96
3 8 101 99
3 8 103 101
3 8 105 103
3 5 108 106
3 5 91 108
3 10 266 267
3 11 112 110
3 12 115 113
3 12 268 270
3 270 269 115
3 268 269 270
3 13 271 272
3 13 273 275
3 273 116 274
3 273 274 275
3 6 119 117
3 14 122 120
3 14 124 122
3 14 126 124
3 15 129 127
3 15 131 129
3 276 133 277
3 278 135 279
3 280 279 133
3 278 279 280
3 281 137 282
3 283 282 135
3 281 282 283
3 16 284 285
3 16 286 287
3 16 288 289
3 17 140 138
3 17 141 140
3 9 144 142
3 18 147 145
3 18 290 292
3 292 291 147
3 290 291 292
3 18 293 294
3 296 295 148
3 19 151 149
3 21 152 66
3 21 153 152
3 22 297 299
3 297 154 298
3 297 298 299
3 22 155 154
3 22 157 155
3 19 158 69
3 19 149 158
3 24 161 159
3 25 162 71
3 25 300 302
3 302 301 162
3 300 301 302
3 27 165 164
3 28 166 74
3 28 167 166
3 29 170 168
3 31 171 77
3 31 172 171
3 31 174 172
3 33 175 79
3 33 176 175
3 34 303 305
3 305 304 177
3 303 304 305
3 35 306 308
3 308 307 83
3 306 307 308
3 35 309 311
3 309 178 310
3 309 310 311
3 35 180 178
3 37 181 85
3 37 182 181
3 38 185 183
3 40 186 88
3 40 187 186
3 40 189 187
3 27 190 90
3 27 164 190
3 41 193 191
3 43 194 92
3 43 195 194
3 20 196 150
3 44 197 95
3 44 198 197
3 44 199 198
3 45 200 97
3 45 201 200
3 46 312 314
3 314 313 100
3 312 313 314
3 46 315 317
3 315 202 316
3 315 316 317
3 46 203 202
3 47 204 102
3 47 205 204
3 47 207 205
3 49 208 104
3 49 209 208
3 23 210 156
3 50 211 107
3 50 212 211
3 50 213 212
3 41 214 109
3 41 191 214
3 319 318 160
3 51 217 215
3 53 218 111
3 53 219 218
3 26 220 163
3 320 221 321
3 322 321 114
3 320 321 322
3 324 323 221
3 42 222 192
3 54 223 118
3 54 224 223
3 30 225 169
3 55 226 121
3 55 227 226
3 55 228 227
3 326 325 123
3 56 327 329
3 329 328 125
3 327 328 329
3 56 330 332
3 330 229 331
3 330 331 332
3 32 230 173
3 57 231 128
3 57 232 231
3 57 233 232
3 58 234 130
3 58 235 234
3 333 236 334
3 335 237 336
3 337 238 338
3 339 338 237
3 337 338 339
3 340 239 341
3 342 240 343
3 344 343 239
3 342 343 344
3 345 241 346
3 347 242 348
3 349 348 241
3 347 348 349
3 59 350 352
3 350 243 351
3 350 351 352
3 59 244 243
3 60 245 132
3 60 246 245
3 60 247 246
3 61 248 134
3 61 249 248
3 61 250 249
3 62 251 136
3 62 252 251
3 36 253 179
3 353 254 354
3 355 354 139
3 353 354 355
3 358 357 254
3 356 357 358
3 48 255 206
3 63 256 143
3 63 257 256
3 39 258 184
3 64 259 146
3 64 260 259
3 64 261 260
3 360 359 188
3 52 262 216
3 65 66 19
3 67 66 65
3 67 21 66
3 68 361 362
3 68 363 365
3 363 22 364
3 363 364 365
3 68 69 22
3 65 69 68
3 65 19 69
3 70 71 24
3 72 71 70
3 72 25 71
3 73 74 27
3 75 74 73
3 75 28 74
3 76 77 29
3 78 77 76
3 78 31 77
3 78 79 31
3 80 79 78
3 80 33 79
3 81 366 368
3 368 367 34
3 366 367 368
3 82 369 371
3 371 370 81
3 369 370 371
3 82 372 373
3 82 374 376
3 374 83 375
3 374 375 376
3 84 83 82
3 84 35 83
3 84 85 35
3 86 85 84
3 86 37 85
3 87 88 38
3 89 88 87
3 89 40 88
3 89 90 40
3 73 90 89
3 73 27 90
3 91 92 41
3 93 92 91
3 93 43 92
3 94 95 20
3 96 95 94
3 96 44 95
3 96 97 44
3 98 97 96
3 98 45 97
3 99 377 379
3 377 100 378
3 377 378 379
3 101 100 99
3 101 46 100
3 101 102 46
3 103 102 101
3 103 47 102
3 103 104 47
3 105 104 103
3 105 49 104
3 106 107 23
3 108 107 106
3 108 50 107
3 108 109 50
3 91 109 108
3 91 41 109
3 110 111 51
3 112 111 110
3 112 53 111
3 113 114 26
3 115 114 113
3 115 380 382
3 382 381 114
3 380 381 382
3 115 383 384
3 386 385 115
3 116 387 389
3 387 388 389
3 116 390 391
3 117 118 42
3 119 118 117
3 119 54 118
3 120 121 30
3 122 121 120
3 122 55 121
3 122 123 55
3 124 123 122
3 124 392 394
3 394 393 123
3 392 393 394
3 124 395 397
3 395 125 396
3 395 396 397
3 126 125 124
3 126 56 125
3 127 128 32
3 129 128 127
3 129 57 128
3 129 130 57
3 131 130 129
3 131 58 130
3 398 59 399
3 400 132 401
3 133 402 404
3 402 132 403
3 402 403 404
3 133 60 132
3 133 134 60
3 135 134 133
3 135 61 134
3 135 136 61
3 137 136 135
3 137 62 136
3 138 139 36
3 140 139 138
3 140 405 407
3 407 406 139
3 405 406 407
3 140 408 409
3 141 410 412
3 412 411 140
3 410 411 412
3 141 413 414
3 142 143 48
3 144 143 142
3 144 63 143
3 145 146 39
3 147 146 145
3 147 64 146
3 147 415 417
3 417 416 64
3 415 416 417
3 419 418 147
3 148 420 422
3 422 421 52
3 420 421 422
3 424 423 148
3 149 150 5
3 151 150 149
3 151 20 150
3 66 151 19
3 152 151 66
3 152 20 151
3 152 94 20
3 153 94 152
3 153 7 94
3 154 425 426
3 154 427 428
3 154 429 431
3 429 99 430
3 429 430 431
3 155 99 154
3 155 8 99
3 155 156 8
3 157 156 155
3 157 23 156
3 69 157 22
3 158 157 69
3 158 23 157
3 158 106 23
3 149 106 158
3 149 5 106
3 159 160 10
3 161 160 159
3 161 432 434
3 434 433 160
3 432 433 434
3 71 161 24
3 162 161 71
3 162 435 437
3 437 436 161
3 435 436 437
3 162 438 439
3 441 440 162
3 442 163 443
3 444 443 11
3 442 443 444
3 445 163 446
3 447 26 448
3 449 448 163
3 447 448 449
3 450 26 451
3 452 113 453
3 454 453 26
3 452 453 454
3 455 113 456
3 457 12 458
3 459 458 113
3 457 458 459
3 164 460 461
3 165 462 464
3 464 463 164
3 462 463 464
3 165 465 466
3 74 165 27
3 166 165 74
3 166 467 469
3 469 468 165
3 467 468 469
3 166 470 471
3 167 472 474
3 474 473 166
3 472 473 474
3 167 475 477
3 475 13 476
3 475 476 477
3 168 169 6
3 170 169 168
3 170 30 169
3 77 170 29
3 171 170 77
3 171 30 170
3 171 120 30
3 172 120 171
3 172 14 120
3 172 173 14
3 174 173 172
3 174 32 173
3 79 174 31
3 175 174 79
3 175 32 174
3 175 127 32
3 176 127 175
3 176 15 127
3 177 478 479
3 482 481 177
3 480 481 482
3 484 483 34
3 83 485 486
3 488 487 83
3 178 489 490
3 178 491 493
3 491 16 492
3 491 492 493
3 178 179 16
3 180 179 178
3 180 36 179
3 85 180 35
3 181 180 85
3 181 36 180
3 181 138 36
3 182 138 181
3 182 17 138
3 183 184 9
3 185 184 183
3 185 39 184
3 88 185 38
3 186 185 88
3 186 39 185
3 186 145 39
3 187 145 186
3 187 18 145
3 187 188 18
3 189 188 187
3 189 494 496
3 496 495 188
3 494 495 496
3 90 189 40
3 190 189 90
3 190 497 499
3 499 498 189
3 497 498 499
3 190 500 501
3 164 502 504
3 504 503 190
3 502 503 504
3 164 505 506
3 191 192 2
3 193 192 191
3 193 42 192
3 92 193 41
3 194 193 92
3 194 42 193
3 194 117 42
3 195 117 194
3 195 6 117
3 150 93 5
3 196 93 150
3 196 43 93
3 95 196 20
3 197 196 95
3 197 43 196
3 197 195 43
3 198 195 197
3 198 6 195
3 198 168 6
3 199 168 198
3 199 29 168
3 97 199 44
3 200 199 97
3 200 29 199
3 200 76 29
3 201 76 200
3 201 3 76
3 100 507 508
3 510 509 100
3 202 511 512
3 202 513 514
3 202 515 517
3 515 177 516
3 515 516 517
3 203 177 202
3 203 34 177
3 102 203 46
3 204 203 102
3 204 34 203
3 204 81 34
3 205 81 204
3 205 4 81
3 205 206 4
3 207 206 205
3 207 48 206
3 104 207 47
3 208 207 104
3 208 48 207
3 208 142 48
3 209 142 208
3 209 9 142
3 156 105 8
3 210 105 156
3 210 49 105
3 107 210 23
3 211 210 107
3 211 49 210
3 211 209 49
3 212 209 211
3 212 9 209
3 212 183 9
3 213 183 212
3 213 38 183
3 109 213 50
3 214 213 109
3 214 38 213
3 214 87 38
3 191 87 214
3 191 2 87
3 160 518 520
3 520 519 10
3 518 519 520
3 522 521 160
3 525 524 0
3 523 524 525
3 526 0 527
3 215 216 1
3 217 216 215
3 217 52 216
3 111 217 51
3 218 217 111
3 218 52 217
3 218 148 52
3 219 148 218
3 219 528 530
3 530 529 148
3 528 529 530
3 163 112 11
3 220 112 163
3 220 53 112
3 114 220 26
3 221 220 114
3 221 53 220
3 221 219 53
3 531 219 532
3 533 532 221
3 531 532 533
3 535 534 219
3 536 12 537
3 538 12 539
3 541 540 12
3 192 75 2
3 222 75 192
3 222 28 75
3 118 222 42
3 223 222 118
3 223 28 222
3 223 167 28
3 224 167 223
3 224 13 167
3 169 119 6
3 225 119 169
3 225 54 119
3 121 225 30
3 226 225 121
3 226 54 225
3 226 224 54
3 227 224 226
3 227 13 224
3 227 116 13
3 228 116 227
3 228 542 544
3 544 543 116
3 542 543 544
3 123 228 55
3 545 228 546
3 547 546 123
3 545 546 547
3 549 548 228
3 125 550 551
3 553 552 125
3 229 554 555
3 229 556 558
3 556 10 557
3 556 557 558
3 173 126 14
3 230 126 173
3 230 56 126
3 128 230 32
3 231 230 128
3 231 56 230
3 231 229 56
3 232 229 231
3 232 10 229
3 232 159 10
3 233 159 232
3 233 24 159
3 130 233 57
3 234 233 130
3 234 24 233
3 234 70 24
3 235 70 234
3 235 1 70
3 559 67 560
3 561 560 0
3 559 560 561
3 236 562 564
3 562 67 563
3 562 563 564
3 236 21 67
3 565 236 566
3 565 566 567
3 237 568 570
3 568 236 569
3 568 569 570
3 237 21 236
3 237 153 21
3 238 153 237
3 238 7 153
3 571 238 572
3 239 573 575
3 573 238 574
3 573 574 575
3 239 7 238
3 239 98 7
3 240 98 239
3 240 45 98
3 576 240 577
3 578 240 579
3 580 45 581
3 582 581 240
3 580 581 582
3 583 201 584
3 585 584 45
3 583 584 585
3 586 201 587
3 588 3 589
3 590 589 201
3 588 589 590
3 241 591 592
3 241 593 595
3 593 3 594
3 593 594 595
3 241 80 3
3 242 80 241
3 242 33 80
3 596 242 597
3 243 598 600
3 598 242 599
3 598 599 600
3 243 33 242
3 243 176 33
3 244 176 243
3 244 15 176
3 601 59 602
3 132 603 604
3 245 605 607
3 607 606 132
3 605 606 607
3 245 608 610
3 608 59 609
3 608 609 610
3 245 244 59
3 246 244 245
3 246 15 244
3 246 131 15
3 247 131 246
3 247 58 131
3 134 247 60
3 248 247 134
3 248 58 247
3 248 235 58
3 249 235 248
3 249 1 235
3 249 215 1
3 250 215 249
3 250 51 215
3 136 250 61
3 251 250 136
3 251 51 250
3 251 110 51
3 252 110 251
3 252 11 110
3 611 137 612
3 613 137 614
3 615 62 616
3 617 616 137
3 615 616 617
3 618 62 619
3 618 619 620
3 621 252 622
3 623 622 62
3 621 622 623
3 624 252 625
3 624 625 626
3 627 11 628
3 629 628 252
3 627 628 629
3 631 630 11
3 179 632 634
3 634 633 16
3 632 633 634
3 253 635 637
3 637 636 179
3 635 636 637
3 253 638 639
3 139 253 36
3 254 253 139
3 254 640 642
3 642 641 253
3 640 641 642
3 254 643 644
3 646 645 254
3 206 86 4
3 255 86 206
3 255 37 86
3 143 255 48
3 256 255 143
3 256 37 255
3 256 182 37
3 257 182 256
3 257 17 182
3 184 144 9
3 258 144 184
3 258 63 144
3 146 258 39
3 259 258 146
3 259 63 258
3 259 257 63
3 260 257 259
3 260 17 257
3 260 141 17
3 261 141 260
3 261 647 649
3 649 648 141
3 647 648 649
3 650 261 651
3 652 651 64
3 650 651 652
3 653 261 654
3 656 655 261
3 188 657 659
3 659 658 18
3 657 658 659
3 661 660 188
3 216 72 1
3 262 72 216
3 262 25 72
3 662 262 663
3 664 663 52
3 662 663 664
3 665 262 666
3 667 25 668
3 669 668 262
3 667 668 669
3 671 670 25
