ply
format ascii 1.0
element vertex 776
property float x
property float y
property float z
element face 880
property list uchar int vertex_index
end_header
25.05158 -16.965988 38.801243
38.766216 -22.581221 11.36142
26.576248 -34.845402 32.674641
36.076595 -20.651478 28.332035
38.127335 -31.381596 -2.521331
31.203585 -18.454273 34.113094
37.520035 -20.652073 2.194935
39.261776 -27.58552 4.995993
25.560316 -25.642982 36.04958
20.050056 -32.966789 36.71167
38.665218 -22.508972 20.44525
31.713572 -27.685732 31.301487
36.55138 -29.317961 24.142368
38.831509 -29.493685 15.213255
37.775513 -34.81139 7.939837
36.060295 -34.462444 -9.149208
35.709129 -33.89146 -15.439358
28.285275 -17.564402 36.450485
37.528248 -19.277847 9.317506
36.502274 -18.60014 5.094601
38.243729 -21.913918 6.814953
38.865883 -24.191956 3.531689
39.153309 -25.218908 8.34499
19.451981 -28.690329 38.419613
35.900154 -16.097446 29.384453
37.586395 -17.388609 25.96023
38.534824 -18.436743 22.115524
37.716724 -21.785332 24.606779
26.023397 -30.174618 34.413239
28.777117 -26.646996 33.825596
29.25705 -31.139803 32.079056
34.684761 -32.892376 25.578566
36.573269 -33.080791 21.424831
37.981461 -29.688328 19.782097
37.774391 -33.066753 16.775806
38.495647 -32.436893 11.716951
37.215153 -36.01004 13.128543
38.840374 -27.604895 -3.958109
38.142704 -29.332451 -7.420906
37.274574 -30.738085 -10.672098
37.067432 -33.044014 -6.070168
33.569839 -14.934897 32.386402
33.812996 -19.507479 31.507029
38.408882 -22.379908 -1.361261
39.100502 -26.059738 -0.022843
38.914364 -29.626381 1.357064
22.113489 -20.801624 39.684662
25.356804 -21.423334 37.428299
22.304434 -25.039219 38.072327
22.709677 -29.340834 36.427803
23.296684 -33.980328 34.77351
17.570978 -36.502602 37.111382
20.816473 -37.463379 35.190189
37.115028 -16.458595 11.028318
38.350052 -19.477209 13.623888
34.140701 -39.095764 -10.584177
33.100403 -42.560341 -10.006482
38.744862 -19.077911 17.925116
38.966675 -22.739258 15.835244
28.436214 -22.221415 35.294109
31.343056 -23.173695 32.949837
34.166634 -24.04501 30.001387
32.212666 -32.172337 29.148346
34.364117 -28.661879 28.123806
36.299271 -25.114038 26.611439
37.894089 -25.833654 22.541046
38.840721 -26.154871 17.988253
39.213024 -26.000933 13.293904
39.221519 -28.862436 10.248365
38.816212 -31.311802 6.494578
38.035294 -33.262791 2.720938
36.895477 -35.157616 -0.931928
35.708157 -36.740723 -4.620338
34.745777 -38.045643 -7.748218
35.257767 -35.756935 -11.700275
36.390568 -32.237465 -13.449734
35.203365 -35.537598 -14.429897
26.532625 -15.117205 38.124084
28.013004 -15.349942 37.016785
26.697477 -17.263609 37.601738
38.221169 -20.880171 10.302936
37.887508 -20.670935 8.170098
38.551796 -22.356474 9.077684
38.823254 -23.631927 7.634671
38.987946 -23.980759 9.978746
35.965481 -18.372618 28.967901
36.777763 -16.750849 27.830156
36.912445 -18.983231 27.199076
37.656384 -19.656946 25.326317
37.008064 -21.260544 26.479818
26.381815 -32.54707 33.489372
27.674465 -30.73171 33.26828
27.986074 -33.145348 32.297108
35.705276 -34.869858 22.094826
36.4566 -34.968548 19.812952
37.22451 -33.140007 19.222664
37.073284 -34.896317 17.38098
37.583584 -34.539696 14.928283
38.537426 -29.597002 -3.257126
38.533005 -28.482582 -5.750499
38.122395 -30.433121 -4.987778
37.658791 -31.153475 -6.801412
37.609257 -32.251472 -4.298222
31.031517 -16.279995 34.585114
32.379368 -14.357775 33.605843
32.375004 -16.629536 33.380451
33.687405 -17.188047 32.019676
32.514622 -19.030685 32.878071
37.0294 -19.711012 3.728611
36.009415 -18.131071 2.953403
38.029102 -21.631163 0.61812
39.177876 -25.952135 4.252406
39.028732 -25.065567 1.727086
39.191456 -26.940674 2.363399
39.090614 -27.882545 0.491024
39.144062 -28.707151 3.269231
20.7355 -22.647638 39.939823
22.299282 -22.925663 38.816612
20.733738 -24.772467 39.116859
19.622189 -30.808903 37.594891
21.03709 -29.016983 37.415638
21.322657 -31.084257 36.607861
23.036493 -31.608992 35.575108
21.699722 -33.40416 35.7472
37.6744 -16.2633 12.981104
37.81028 -18.037434 12.297953
38.207527 -17.781675 14.352335
33.814663 -40.266315 -8.721615
33.61623 -40.784306 -10.296497
33.210838 -42.091011 -8.274493
38.59956 -20.493134 21.290966
38.732243 -18.804087 20.018343
38.80085 -20.771013 19.119158
38.834789 -20.990992 16.989529
38.896198 -22.736053 18.166807
25.41136 -23.473927 36.791573
26.962364 -21.670391 36.375732
27.010477 -23.963711 35.707527
30.315571 -27.07534 32.622311
30.181332 -24.940992 33.356388
31.684958 -25.321306 32.065338
32.866901 -23.606684 31.489525
33.042255 -25.956345 30.618311
32.335846 -34.36319 28.03129
35.688225 -31.01285 24.90947
34.540821 -30.874353 26.878134
35.506172 -28.986784 26.295168
35.455025 -26.813988 27.337948
36.421822 -27.314631 25.447775
37.209911 -25.466599 24.588924
37.254601 -27.434322 23.534327
38.456173 -29.621235 17.638187
38.478157 -27.884886 19.022499
38.85812 -27.967747 16.645266
39.091763 -26.184994 15.589038
39.117748 -27.840607 14.212956
39.259785 -27.433975 11.877712
39.07383 -29.296629 12.74074
38.184536 -33.683262 9.855011
38.699863 -31.929962 9.028061
38.345345 -33.101994 7.169342
38.466488 -32.342644 4.589702
37.883221 -34.213375 5.345655
36.289398 -35.996784 -2.770847
34.542767 -39.097637 -5.572425
34.130558 -39.699703 -7.176671
34.408234 -38.549168 -9.239786
36.676838 -32.62624 -9.966542
36.830078 -31.411486 -12.22933
36.250137 -33.266335 -11.327658
35.825935 -34.060223 -12.433542
35.58342 -35.239361 -10.440148
36.263973 -32.019909 -16.387096
35.978252 -33.031269 -17.140909
29.424324 -13.47924 36.167625
29.609602 -15.763147 35.773792
29.699263 -18.114546 35.336185
36.670338 -17.686363 8.245311
36.044502 -17.413607 6.221987
37.029179 -19.00457 7.188686
37.449455 -20.211632 5.945671
37.883034 -21.327885 4.518665
38.301662 -22.387978 2.870424
38.570026 -23.046827 5.221735
39.022858 -24.742945 5.920394
39.264973 -26.527399 6.85752
35.812717 -13.92781 29.690279
36.786762 -14.438566 28.057789
37.514332 -15.122728 26.452759
38.126404 -17.911213 24.207748
38.202347 -20.122744 23.439199
38.289436 -22.139477 22.543779
25.772686 -27.971436 35.220383
27.183764 -26.171164 34.956284
27.462498 -28.455866 34.102104
29.099552 -28.89398 32.919868
30.555868 -29.496696 31.656706
35.660717 -33.089561 23.629541
36.571941 -31.332287 22.816696
37.328995 -29.521881 22.082476
37.334839 -31.317919 20.688334
37.898643 -31.431118 18.416174
38.401703 -31.197266 15.939919
38.719219 -31.005802 13.544765
38.199341 -32.775982 14.34951
37.930031 -34.147507 12.604197
37.553169 -35.429546 10.566282
38.9445 -25.803345 -4.616295
38.79533 -26.514103 -6.418101
38.543472 -27.234217 -8.210271
38.223141 -28.007998 -9.713978
37.7635 -29.844587 -9.241343
37.185005 -31.836205 -8.473094
36.578617 -33.699203 -7.667722
34.792896 -15.598151 30.938808
34.869747 -17.979706 30.548382
35.022251 -20.223906 29.939941
28.212925 -35.439899 31.375671
38.658672 -23.387068 1.045421
38.878185 -24.229221 -0.833295
38.979553 -25.071718 -2.636971
39.026733 -26.886978 -1.98427
38.867817 -28.765045 -1.39517
38.572803 -30.510246 -0.607373
23.596451 -19.013237 39.257484
25.249298 -19.155815 38.121796
23.728466 -21.095573 38.531815
23.87488 -23.207064 37.768883
23.945528 -25.310078 37.053116
20.959993 -26.964294 38.168594
22.555292 -27.223562 37.191261
24.120596 -27.461843 36.273499
24.361128 -29.708494 35.453709
24.75946 -32.011108 34.558311
24.913034 -34.373871 33.795067
18.795759 -34.818424 36.86507
19.060722 -36.940807 36.214645
20.36759 -35.251957 35.941578
21.991611 -35.785641 34.979374
23.620903 -36.25211 34.001213
36.327896 -14.81446 9.804356
36.430302 -16.337648 9.069024
37.247253 -17.864061 10.210531
37.96582 -19.456848 11.371692
38.515617 -21.028788 12.47435
34.514442 -37.803661 -12.320129
38.542107 -17.673302 16.487488
38.617188 -19.421871 15.776585
38.732365 -21.095919 14.680305
38.919876 -22.768435 13.571072
26.803574 -19.422163 37.048492
28.354239 -19.889345 35.921539
29.820436 -20.32851 34.800541
28.634573 -24.366972 34.581944
29.964048 -22.694765 34.126045
31.24383 -20.810469 33.609779
32.642799 -21.340223 32.279995
33.986542 -21.831013 30.805513
35.17971 -22.442478 29.199425
29.450565 -33.50502 31.11664
30.714132 -31.858543 30.687845
32.008156 -29.9659 30.229122
33.522472 -32.600262 27.430901
33.31144 -30.379469 28.701681
33.166656 -28.051571 29.774673
34.319271 -26.365843 29.064978
35.238682 -24.645977 28.452801
36.217484 -22.893373 27.501551
37.083801 -23.5455 25.62788
37.817379 -23.750904 23.666845
38.359333 -24.185495 21.553663
37.928101 -27.883123 21.282362
38.424709 -26.100407 20.374327
38.767464 -24.353785 19.24264
39.010155 -24.457762 16.879642
39.113941 -24.488958 14.565876
39.104168 -24.337484 12.191789
39.237129 -25.728518 10.853241
39.303204 -27.081749 9.319995
39.272995 -28.392757 7.638644
38.943501 -30.658352 10.92433
39.07988 -30.117117 8.400819
39.141144 -29.451008 5.845171
38.893326 -30.49531 3.90735
38.53656 -31.486526 2.014888
38.088314 -32.346115 -0.037897
37.503803 -34.166 0.746045
37.562366 -33.219868 -1.877612
36.964138 -34.175575 -3.550979
36.419319 -34.951241 -5.137424
35.915268 -35.541737 -6.928796
35.228966 -37.324131 -6.283697
35.391304 -36.291389 -8.468713
34.984364 -36.935394 -9.759226
34.705364 -37.381546 -11.111433
34.970646 -36.355473 -12.860964
36.026207 -33.028038 -14.495897
35.481094 -34.772797 -13.564829
35.071338 -36.024411 -14.672961
34.999204 -36.197611 -14.039678
36.358896 -35.80276 18.964481
36.003799 -35.839962 20.203391
36.667238 -35.766644 17.748496
36.764942 -34.932433 18.596966
36.358896 -35.80276 18.964481
36.937983 -35.642263 16.522423
36.667238 -35.766644 17.748496
37.071583 -19.868496 1.804255
36.826266 -19.397965 2.571093
37.274718 -20.181542 2.961773
37.378408 -20.311557 1.038558
37.071583 -19.868496 1.804255
37.774569 -21.141618 1.406528
37.632942 -20.801102 0.25015
37.378408 -20.311557 1.038558
19.986638 -24.674191 39.651329
20.734619 -23.710052 39.528341
19.987519 -23.611777 40.062811
37.9416 -16.196917 14.082302
37.687477 -15.393513 13.296156
38.208164 -16.956105 14.767917
37.940963 -17.022488 13.666719
37.9416 -16.196917 14.082302
33.330288 -41.826246 -7.471328
33.512751 -41.178663 -8.498054
33.632201 -40.913898 -7.694889
32.471192 -35.414206 27.311715
31.800761 -35.271357 28.201441
33.790148 -40.630592 -6.922417
33.983254 -40.301138 -6.069776
33.632201 -40.913898 -7.694889
33.972611 -39.983009 -7.949143
33.790148 -40.630592 -6.922417
28.670699 -13.27377 36.772516
29.322243 -12.356434 36.320505
37.852907 -16.537805 25.288109
37.816876 -15.404864 25.534374
37.550364 -16.255668 26.206494
37.8564 -17.649911 25.083989
38.122912 -16.799107 24.411868
37.852907 -16.537805 25.288109
33.545206 -13.751669 32.471382
32.94997 -13.463108 33.081103
32.974604 -14.646336 32.996122
34.155382 -14.052152 31.769899
33.545206 -13.751669 32.471382
34.181368 -15.266524 31.662605
34.76691 -14.383779 31.046102
34.155382 -14.052152 31.769899
35.964266 -17.821862 4.653854
35.73538 -17.228595 5.217547
36.273388 -18.006873 5.658294
35.413052 -17.320535 2.610921
35.776909 -17.824067 1.946142
38.311981 -21.87812 -2.55692
38.087137 -21.552495 -1.573739
38.557403 -22.770947 -2.316148
38.311981 -21.87812 -2.55692
20.205987 -27.827312 38.294103
20.154144 -26.823984 38.708396
19.400138 -27.687002 38.833906
17.409121 -35.427774 37.479391
16.800416 -36.293402 37.60821
18.183369 -35.660513 36.988226
18.021512 -34.585685 37.356235
17.409121 -35.427774 37.479391
19.938598 -37.202093 35.702417
19.29445 -38.111099 35.849887
20.172326 -38.372385 35.33766
23.875434 -37.339756 33.582184
23.046961 -37.171271 34.089014
24.502838 -36.43188 33.446589
23.875434 -37.339756 33.582184
36.721462 -15.636527 10.416337
36.694891 -14.77621 10.747941
37.088457 -15.598277 11.359922
34.113928 -39.179447 -11.351
34.300798 -38.533395 -12.218976
34.327572 -38.449713 -11.452153
33.350907 -41.80336 -10.927499
33.60882 -40.915343 -11.072506
33.358317 -41.672324 -10.15149
33.118128 -42.72586 -10.842154
33.350907 -41.80336 -10.927499
38.618642 -17.604553 21.427944
38.518014 -17.345947 22.443728
38.726494 -18.172725 18.300587
38.720185 -18.035813 19.3472
38.738552 -18.940999 18.97173
38.643484 -18.375606 17.206302
38.625117 -17.470421 17.581773
38.726494 -18.172725 18.300587
29.620764 -34.650091 30.546449
28.831745 -34.472459 31.246156
29.001943 -35.617531 30.675964
31.463399 -32.01544 29.918095
30.854962 -32.933166 30.14178
31.604229 -33.090063 29.372031
34.103617 -32.746319 26.504734
33.58865 -33.63675 26.784517
34.169794 -33.782806 25.85835
37.19964 -34.661808 -0.092942
37.145376 -35.125006 1.15837
36.841213 -35.620813 0.319383
37.334637 -30.130533 -11.783961
37.548223 -29.747996 -11.023881
36.683096 -31.262215 -13.882694
36.902851 -30.849226 -13.272492
36.610323 -31.824475 -12.839532
36.492365 -31.680584 -14.450957
36.683096 -31.262215 -13.882694
36.208388 -32.632751 -13.972815
36.310184 -32.075871 -14.974038
36.492365 -31.680584 -14.450957
35.311071 -35.236889 -15.232401
35.563953 -34.41382 -15.737132
35.456247 -34.714529 -14.934628
35.311071 -35.236889 -15.232401
35.071338 -36.024411 -14.672961
27.272814 -15.233574 37.570435
27.965039 -14.209121 37.197096
27.224849 -14.092752 37.750746
35.628137 -35.790617 21.344328
35.219694 -35.760935 22.4328
36.080938 -34.919203 20.953889
35.628137 -35.790617 21.344328
36.003799 -35.839962 20.203391
37.193133 -35.463953 15.296074
37.328434 -34.718007 16.154632
36.937983 -35.642263 16.522423
37.008917 -36.199125 14.396204
37.399369 -35.274868 14.028413
37.193133 -35.463953 15.296074
31.705443 -15.318885 34.095478
31.634116 -14.130926 34.278502
30.96019 -15.092035 34.768137
36.316273 -18.607995 2.183489
36.519407 -18.921042 3.341007
36.826266 -19.397965 2.571093
35.776909 -17.824067 1.946142
36.316273 -18.607995 2.183489
37.897247 -21.178123 -0.584048
37.632942 -20.801102 0.25015
38.218992 -22.005536 -0.371571
38.087137 -21.552495 -1.573739
37.897247 -21.178123 -0.584048
16.996215 -37.375391 37.244933
16.800416 -36.293402 37.60821
21.027426 -38.637842 34.830545
20.172326 -38.372385 35.33766
21.644746 -37.776905 34.683502
21.027426 -38.637842 34.830545
37.368143 -15.50063 12.336315
37.687477 -15.393513 13.296156
37.394714 -16.360948 12.004711
37.088457 -15.598277 11.359922
37.368143 -15.50063 12.336315
31.665819 -34.18549 28.813503
31.800761 -35.271357 28.201441
32.274256 -33.267764 28.589818
31.604229 -33.090063 29.372031
31.665819 -34.18549 28.813503
36.520122 -36.104248 -0.557975
36.841213 -35.620813 0.319383
36.217083 -36.523832 -1.477435
36.592438 -35.5772 -1.851387
36.520122 -36.104248 -0.557975
35.933075 -36.870494 -2.462846
36.217083 -36.523832 -1.477435
35.642454 -37.242464 -3.387591
35.998778 -36.368753 -3.695593
35.933075 -36.870494 -2.462846
34.189358 -40.000105 -5.267653
34.391903 -39.743055 -4.35592
34.336663 -39.39867 -6.374548
34.189358 -40.000105 -5.267653
33.983254 -40.301138 -6.069776
36.39547 -31.540806 -17.343037
36.543335 -31.018555 -16.90392
36.252609 -32.046486 -17.719943
36.39547 -31.540806 -17.343037
36.121112 -32.525589 -16.764003
36.116596 -32.66926 -18.020451
36.252609 -32.046486 -17.719943
35.698515 -33.983725 -16.587908
35.84369 -33.461365 -16.290133
35.563953 -34.41382 -15.737132
35.842989 -33.6415 -17.413221
35.698515 -33.983725 -16.587908
36.116596 -32.66926 -18.020451
35.842989 -33.6415 -17.413221
30.077632 -12.517429 35.684849
29.322243 -12.356434 36.320505
30.156593 -13.691658 35.559393
30.077632 -12.517429 35.684849
28.718664 -14.414591 36.592205
28.670699 -13.27377 36.772516
27.965039 -14.209121 37.197096
30.249232 -14.833611 35.362476
30.156593 -13.691658 35.559393
29.516963 -14.621194 35.970709
30.32056 -16.021571 35.179453
30.96019 -15.092035 34.768137
30.249232 -14.833611 35.362476
36.35742 -17.549985 7.233649
35.866592 -16.756595 6.690368
36.17951 -16.892973 7.70203
18.728929 -28.534762 38.928295
19.400138 -27.687002 38.833906
18.781211 -29.624589 38.482979
18.728929 -28.534762 38.928295
18.866315 -30.683876 38.070618
19.537085 -29.749616 38.007252
18.781211 -29.624589 38.482979
19.047717 -31.757549 37.613692
18.866315 -30.683876 38.070618
19.261651 -32.836492 37.172081
19.836123 -31.887846 37.15328
19.047717 -31.757549 37.613692
36.25065 -13.090021 29.007347
35.7621 -12.727226 29.784022
36.737673 -13.345399 28.191102
36.25065 -13.090021 29.007347
36.29974 -14.183188 28.874034
37.160666 -13.599259 27.324022
36.737673 -13.345399 28.191102
37.524451 -13.94134 26.521507
37.160666 -13.599259 27.324022
37.150547 -14.780647 27.255274
37.82589 -14.31165 25.647829
37.524451 -13.94134 26.521507
37.82589 -14.31165 25.647829
37.816876 -15.404864 25.534374
38.313805 -17.083182 23.489839
38.122912 -16.799107 24.411868
38.330614 -18.173978 23.161636
38.518014 -17.345947 22.443728
38.313805 -17.083182 23.489839
34.698 -33.885107 24.913123
34.169794 -33.782806 25.85835
35.208258 -34.873848 23.171253
35.219694 -35.760935 22.4328
35.185978 -33.9837 23.93861
35.208258 -34.873848 23.171253
35.682997 -33.979709 22.862184
35.172739 -32.990969 24.604053
34.698 -33.885107 24.913123
35.185978 -33.9837 23.93861
38.911857 -25.173605 -5.805997
38.907431 -24.905221 -4.805076
38.837272 -25.528984 -6.7069
38.911857 -25.173605 -5.805997
38.869915 -26.158724 -5.517198
38.788353 -25.881988 -7.560431
38.837272 -25.528984 -6.7069
38.662424 -26.242044 -8.456516
38.788353 -25.881988 -7.560431
38.669401 -26.87416 -7.314186
38.554913 -26.591873 -9.364374
38.662424 -26.242044 -8.456516
38.394747 -26.978763 -10.116228
38.554913 -26.591873 -9.364374
38.383307 -27.621108 -8.962124
38.248165 -27.366267 -10.880399
38.394747 -26.978763 -10.116228
38.022507 -28.382953 -10.544821
38.248165 -27.366267 -10.880399
37.792687 -29.301248 -10.308504
38.022507 -28.382953 -10.544821
37.99332 -28.926293 -9.47766
37.519037 -30.291336 -9.95672
37.548223 -29.747996 -11.023881
37.792687 -29.301248 -10.308504
32.286171 -13.265497 33.742417
31.634116 -14.130926 34.278502
32.286171 -13.265497 33.742417
32.94997 -13.463108 33.081103
35.276821 -13.548609 30.421838
35.7621 -12.727226 29.784022
35.302807 -14.76298 30.314543
35.276821 -13.548609 30.421838
34.76691 -14.383779 31.046102
27.626227 -36.287523 31.518991
27.394586 -35.142651 32.025156
26.807889 -35.990274 32.168475
28.418307 -36.531602 30.83007
27.626227 -36.287523 31.518991
29.001943 -35.617531 30.675964
28.418307 -36.531602 30.83007
35.519835 -16.663555 5.736069
35.866592 -16.756595 6.690368
35.519835 -16.663555 5.736069
35.73538 -17.228595 5.217547
35.717836 -17.587327 3.583255
35.964266 -17.821862 4.653854
36.255844 -18.365606 4.024002
35.717836 -17.587327 3.583255
35.413052 -17.320535 2.610921
38.792055 -23.695603 -2.052164
38.557403 -22.770947 -2.316148
38.643534 -23.304564 -1.097278
38.842739 -24.116852 -2.954003
38.792055 -23.695603 -2.052164
38.928869 -24.650469 -1.735133
38.924957 -24.539408 -3.815414
38.842739 -24.116852 -2.954003
38.962027 -25.437531 -3.626633
38.907431 -24.905221 -4.805076
38.924957 -24.539408 -3.815414
20.041016 -25.728071 39.182529
19.986638 -24.674191 39.651329
20.846865 -25.868381 38.642726
20.041016 -25.728071 39.182529
20.154144 -26.823984 38.708396
18.634502 -33.76231 37.248781
18.021512 -34.585685 37.356235
19.422908 -33.892606 36.78837
19.261651 -32.836492 37.172081
18.634502 -33.76231 37.248781
17.772858 -37.577712 36.771599
16.996215 -37.375391 37.244933
18.51773 -37.796814 36.32323
19.29445 -38.111099 35.849887
18.31585 -36.721705 36.663013
17.772858 -37.577712 36.771599
18.51773 -37.796814 36.32323
22.232315 -36.938036 34.578094
21.404042 -36.62451 35.084781
21.644746 -37.776905 34.683502
22.806257 -36.018876 34.490293
22.232315 -36.938036 34.578094
23.046961 -37.171271 34.089014
25.148903 -35.49276 33.343516
24.266968 -35.31299 33.89814
24.502838 -36.43188 33.446589
25.980511 -35.728526 32.783303
25.744641 -34.609637 33.234854
25.148903 -35.49276 33.343516
26.807889 -35.990274 32.168475
25.980511 -35.728526 32.783303
36.352472 -13.933895 10.105049
36.694891 -14.77621 10.747941
35.886048 -14.00379 9.143688
36.352472 -13.933895 10.105049
35.891579 -14.777299 8.806703
35.886048 -14.00379 9.143688
35.942781 -15.538894 8.439037
35.891579 -14.777299 8.806703
36.379099 -15.576054 9.43669
36.059492 -16.218615 8.113886
35.942781 -15.538894 8.439037
36.55032 -17.012006 8.657167
36.17951 -16.892973 7.70203
36.059492 -16.218615 8.113886
26.443224 -14.029312 38.355577
27.224849 -14.092752 37.750746
25.761713 -15.00644 38.709553
26.443224 -14.029312 38.355577
25.021191 -15.930832 39.048132
25.792102 -16.041597 38.462664
25.761713 -15.00644 38.709553
24.252023 -16.931726 39.379476
25.021191 -15.930832 39.048132
23.524458 -17.955351 39.607597
24.324016 -17.989612 39.029364
24.252023 -16.931726 39.379476
22.81317 -18.901483 39.842973
23.524458 -17.955351 39.607597
22.07169 -19.795677 40.056562
22.85497 -19.907431 39.471073
22.81317 -18.901483 39.842973
21.342364 -20.793614 40.233445
22.07169 -19.795677 40.056562
20.653369 -21.716621 40.361025
21.424495 -21.724631 39.812242
21.342364 -20.793614 40.233445
19.902379 -22.602716 40.561247
20.653369 -21.716621 40.361025
19.987519 -23.611777 40.062811
19.902379 -22.602716 40.561247
34.504915 -37.877349 -12.98515
34.654743 -37.330642 -12.984794
34.504915 -37.877349 -12.98515
34.300798 -38.533395 -12.218976
33.851692 -40.023718 -11.20716
34.113928 -39.179447 -11.351
33.878466 -39.940035 -10.440337
33.851692 -40.023718 -11.20716
33.60882 -40.915343 -11.072506
32.984001 -42.817911 -7.195747
33.330288 -41.826246 -7.471328
32.920717 -43.0189 -8.118025
32.984001 -42.817911 -7.195747
32.865499 -43.253565 -8.984019
33.15562 -42.325676 -9.140487
32.920717 -43.0189 -8.118025
32.852848 -43.45577 -9.85869
32.865499 -43.253565 -8.984019
32.617945 -44.148995 -8.836226
33.118128 -42.72586 -10.842154
32.852848 -43.45577 -9.85869
38.717352 -17.788224 20.379354
38.618642 -17.604553 21.427944
38.633533 -18.620415 21.066934
38.717352 -17.788224 20.379354
38.720185 -18.035813 19.3472
38.540588 -16.662157 16.821893
38.625117 -17.470421 17.581773
38.375454 -16.901919 15.835494
38.540588 -16.662157 16.821893
38.374817 -17.727488 15.419911
38.208164 -16.956105 14.767917
38.375454 -16.901919 15.835494
30.223179 -33.756405 30.356178
29.620764 -34.650091 30.546449
30.082349 -32.681781 30.902242
30.223179 -33.756405 30.356178
30.854962 -32.933166 30.14178
32.995336 -34.518214 27.084712
32.471192 -35.414206 27.311715
32.929159 -33.481726 27.731095
32.995336 -34.518214 27.084712
33.58865 -33.63675 26.784517
36.794796 -36.924532 13.555734
37.008917 -36.199125 14.396204
36.98753 -36.653902 12.258
36.794796 -36.924532 13.555734
37.156538 -36.363655 10.976869
37.384161 -35.719793 11.847413
36.98753 -36.653902 12.258
37.289471 -36.062843 9.658804
37.156538 -36.363655 10.976869
37.400643 -35.753765 8.345582
37.664341 -35.120468 9.253059
37.289471 -36.062843 9.658804
37.499365 -35.392134 6.991229
37.400643 -35.753765 8.345582
37.553219 -35.093126 5.694138
37.829367 -34.512383 6.642746
37.499365 -35.392134 6.991229
37.625927 -34.666313 4.29344
37.553219 -35.093126 5.694138
37.701964 -34.191021 2.981082
37.959257 -33.738083 4.033296
37.625927 -34.666313 4.29344
37.436218 -34.642625 1.993635
37.145376 -35.125006 1.15837
37.769548 -33.714395 1.733491
37.701964 -34.191021 2.981082
37.436218 -34.642625 1.993635
35.343235 -37.650139 -4.271301
35.642454 -37.242464 -3.387591
34.76054 -38.828596 -4.747345
34.391903 -39.743055 -4.35592
35.103639 -37.941843 -5.102981
34.76054 -38.828596 -4.747345
34.885866 -38.210884 -5.928061
35.468561 -37.032427 -5.452018
35.343235 -37.650139 -4.271301
35.103639 -37.941843 -5.102981
34.654743 -37.330642 -12.984794
34.882845 -36.606549 -13.255211
34.742544 -37.079567 -12.590546
37.112389 -30.467233 -12.562577
37.334637 -30.130533 -11.783961
37.052326 -31.074786 -11.450714
37.112389 -30.467233 -12.562577
36.902851 -30.849226 -13.272492
36.429068 -31.571806 -15.919638
36.543335 -31.018555 -16.90392
36.14509 -32.523973 -15.441496
36.429068 -31.571806 -15.919638
36.310184 -32.075871 -14.974038
34.882845 -36.606549 -13.255211
34.999204 -36.197611 -14.039678
35.087006 -35.946536 -13.64543
3 299 298 76
3 0 79 77
3 1 82 80
3 1 84 82
3 3 87 85
3 3 89 87
3 2 92 90
3 300 94 301
3 302 96 303
3 304 303 94
3 302 303 304
3 306 305 96
3 4 100 98
3 4 102 100
3 5 105 103
3 5 107 105
3 6 307 309
3 309 308 108
3 307 308 309
3 6 310 311
3 6 312 314
3 312 110 313
3 312 313 314
3 7 113 111
3 7 115 113
3 315 118 316
3 317 316 116
3 315 316 317
3 9 121 119
3 9 123 121
3 318 124 319
3 320 126 321
3 322 321 124
3 320 321 322
3 323 129 324
3 325 324 127
3 323 324 325
3 10 132 130
3 10 134 132
3 8 137 135
3 11 140 138
3 11 142 140
3 326 143 327
3 12 146 144
3 12 148 146
3 12 150 148
3 13 153 151
3 13 155 153
3 13 157 155
3 14 160 158
3 14 162 160
3 328 165 329
3 330 127 331
3 332 331 165
3 330 331 332
3 15 169 167
3 15 171 169
3 16 173 172
3 333 174 334
3 17 175 78
3 17 176 175
3 18 179 177
3 20 180 81
3 20 181 180
3 20 183 181
3 22 184 83
3 22 185 184
3 24 187 186
3 25 188 86
3 25 335 337
3 337 336 188
3 335 336 337
3 25 338 340
3 338 189 339
3 338 339 340
3 27 190 88
3 27 191 190
3 28 194 192
3 30 195 91
3 30 196 195
3 32 197 93
3 32 198 197
3 32 200 198
3 34 201 95
3 34 202 201
3 34 204 202
3 36 205 97
3 36 206 205
3 37 208 207
3 38 209 99
3 38 210 209
3 38 211 210
3 40 212 101
3 40 213 212
3 41 341 343
3 343 342 104
3 341 342 343
3 41 344 345
3 41 346 348
3 346 214 347
3 346 347 348
3 42 215 106
3 42 216 215
3 19 349 351
3 351 350 178
3 349 350 351
3 353 352 109
3 43 354 355
3 43 356 357
3 21 218 182
3 44 219 112
3 44 220 219
3 44 221 220
3 45 222 114
3 45 223 222
3 46 226 224
3 48 227 117
3 48 228 227
3 23 358 360
3 358 229 359
3 358 359 360
3 49 230 120
3 49 231 230
3 49 232 231
3 50 233 122
3 50 234 233
3 51 361 362
3 51 363 365
3 363 235 364
3 363 364 365
3 52 366 368
3 366 236 367
3 366 367 368
3 52 237 236
3 52 238 237
3 369 239 370
3 372 371 239
3 53 373 375
3 373 240 374
3 373 374 375
3 53 241 240
3 53 242 241
3 54 243 125
3 54 244 243
3 55 376 378
3 378 377 245
3 376 377 378
3 56 379 381
3 381 380 128
3 379 380 381
3 56 382 383
3 26 384 385
3 57 386 388
3 388 387 131
3 386 387 388
3 57 389 391
3 389 246 390
3 389 390 391
3 57 247 246
3 58 248 133
3 58 249 248
3 47 250 225
3 59 251 136
3 59 252 251
3 29 253 193
3 60 254 139
3 60 255 254
3 60 256 255
3 61 257 141
3 61 258 257
3 392 259 393
3 394 393 217
3 392 393 394
3 62 395 397
3 395 260 396
3 395 396 397
3 62 261 260
3 31 398 400
3 398 262 399
3 398 399 400
3 63 263 145
3 63 264 263
3 63 265 264
3 64 266 147
3 64 267 266
3 64 268 267
3 65 269 149
3 65 270 269
3 33 271 199
3 66 272 152
3 66 273 272
3 66 274 273
3 67 275 154
3 67 276 275
3 67 277 276
3 68 278 156
3 68 279 278
3 35 280 203
3 69 281 159
3 69 282 281
3 69 283 282
3 70 284 161
3 70 285 284
3 71 401 403
3 401 286 402
3 401 402 403
3 71 287 286
3 71 288 287
3 72 289 163
3 72 290 289
3 73 291 164
3 73 292 291
3 73 293 292
3 55 294 166
3 55 245 294
3 39 404 405
3 75 406 408
3 408 407 168
3 406 407 408
3 75 409 410
3 75 411 413
3 411 296 412
3 411 412 413
3 74 297 170
3 74 295 297
3 76 414 416
3 416 415 16
3 414 415 416
3 418 417 76
3 77 419 421
3 419 78 420
3 419 420 421
3 79 78 77
3 79 17 78
3 80 81 18
3 82 81 80
3 82 20 81
3 82 83 20
3 84 83 82
3 84 22 83
3 85 86 24
3 87 86 85
3 87 25 86
3 87 88 25
3 89 88 87
3 89 27 88
3 90 91 28
3 92 91 90
3 92 30 91
3 422 93 423
3 94 424 426
3 424 93 425
3 424 425 426
3 94 32 93
3 94 95 32
3 96 95 94
3 96 34 95
3 96 97 34
3 427 97 428
3 429 428 96
3 427 428 429
3 430 36 431
3 432 431 97
3 430 431 432
3 98 99 37
3 100 99 98
3 100 38 99
3 100 101 38
3 102 101 100
3 102 40 101
3 103 433 435
3 433 104 434
3 433 434 435
3 105 104 103
3 105 41 104
3 105 106 41
3 107 106 105
3 107 42 106
3 108 109 19
3 436 109 437
3 438 437 108
3 436 437 438
3 440 439 109
3 110 441 442
3 110 443 445
3 443 43 444
3 443 444 445
3 111 112 21
3 113 112 111
3 113 44 112
3 113 114 44
3 115 114 113
3 115 45 114
3 116 117 46
3 118 117 116
3 118 48 117
3 119 120 23
3 121 120 119
3 121 49 120
3 121 122 49
3 123 122 121
3 123 50 122
3 446 51 447
3 448 52 449
3 451 450 52
3 124 452 453
3 124 454 456
3 454 53 455
3 454 455 456
3 124 125 53
3 126 125 124
3 126 54 125
3 127 128 55
3 129 128 127
3 129 56 128
3 130 131 26
3 132 131 130
3 132 57 131
3 132 133 57
3 134 133 132
3 134 58 133
3 135 136 47
3 137 136 135
3 137 59 136
3 138 139 29
3 140 139 138
3 140 60 139
3 140 141 60
3 142 141 140
3 142 61 141
3 143 457 458
3 143 459 461
3 459 62 460
3 459 460 461
3 144 145 31
3 146 145 144
3 146 63 145
3 146 147 63
3 148 147 146
3 148 64 147
3 148 149 64
3 150 149 148
3 150 65 149
3 151 152 33
3 153 152 151
3 153 66 152
3 153 154 66
3 155 154 153
3 155 67 154
3 155 156 67
3 157 156 155
3 157 68 156
3 158 159 35
3 160 159 158
3 160 69 159
3 160 161 69
3 162 161 160
3 162 70 161
3 462 71 463
3 464 163 465
3 466 465 71
3 464 465 466
3 467 163 468
3 469 72 470
3 471 470 163
3 469 470 471
3 472 164 473
3 165 474 476
3 474 164 475
3 474 475 476
3 165 73 164
3 165 166 73
3 127 166 165
3 127 55 166
3 167 168 39
3 169 168 167
3 169 75 168
3 169 170 75
3 171 170 169
3 171 74 170
3 172 477 478
3 173 479 481
3 481 480 172
3 479 480 481
3 173 482 483
3 484 173 485
3 486 485 16
3 484 485 486
3 487 173 488
3 490 489 173
3 174 491 492
3 174 493 494
3 78 495 497
3 495 174 496
3 495 496 497
3 175 174 78
3 175 498 500
3 500 499 174
3 498 499 500
3 175 501 503
3 501 103 502
3 501 502 503
3 176 103 175
3 176 5 103
3 177 504 506
3 504 178 505
3 504 505 506
3 179 178 177
3 179 19 178
3 81 179 18
3 180 179 81
3 180 19 179
3 180 108 19
3 181 108 180
3 181 6 108
3 181 182 6
3 183 182 181
3 183 21 182
3 83 183 20
3 184 183 83
3 184 21 183
3 184 111 21
3 185 111 184
3 185 7 111
3 507 23 508
3 509 23 510
3 511 119 512
3 513 512 23
3 511 512 513
3 514 119 515
3 516 9 517
3 518 517 119
3 516 517 518
3 186 519 520
3 187 521 523
3 523 522 186
3 521 522 523
3 187 524 525
3 86 187 24
3 188 187 86
3 188 526 528
3 528 527 187
3 526 527 528
3 188 529 530
3 532 531 188
3 189 533 534
3 189 535 537
3 535 26 536
3 535 536 537
3 88 189 25
3 190 189 88
3 190 26 189
3 190 130 26
3 191 130 190
3 191 10 130
3 192 193 8
3 194 193 192
3 194 29 193
3 91 194 28
3 195 194 91
3 195 29 194
3 195 138 29
3 196 138 195
3 196 11 138
3 538 31 539
3 93 540 541
3 197 542 544
3 544 543 93
3 542 543 544
3 197 545 547
3 545 31 546
3 545 546 547
3 197 144 31
3 198 144 197
3 198 12 144
3 198 199 12
3 200 199 198
3 200 33 199
3 95 200 32
3 201 200 95
3 201 33 200
3 201 151 33
3 202 151 201
3 202 13 151
3 202 203 13
3 204 203 202
3 204 35 203
3 97 204 34
3 205 204 97
3 205 35 204
3 205 158 35
3 206 158 205
3 206 14 158
3 207 548 549
3 208 550 552
3 552 551 207
3 550 551 552
3 208 553 554
3 99 208 37
3 209 208 99
3 209 555 557
3 557 556 208
3 555 556 557
3 209 558 559
3 210 560 562
3 562 561 209
3 560 561 562
3 210 563 564
3 210 565 566
3 211 567 569
3 569 568 210
3 567 568 569
3 211 570 572
3 570 39 571
3 570 571 572
3 101 211 38
3 212 211 101
3 212 39 211
3 212 167 39
3 213 167 212
3 213 15 167
3 104 573 574
3 576 575 104
3 577 186 578
3 214 579 581
3 579 186 580
3 579 580 581
3 214 24 186
3 106 214 41
3 215 214 106
3 215 24 214
3 215 85 24
3 216 85 215
3 216 3 85
3 582 217 583
3 584 583 2
3 582 583 584
3 585 217 586
3 588 587 217
3 178 589 590
3 592 591 178
3 109 593 595
3 595 594 19
3 593 594 595
3 597 596 109
3 182 110 6
3 218 110 182
3 218 43 110
3 112 218 21
3 219 218 112
3 219 43 218
3 219 598 600
3 600 599 43
3 598 599 600
3 220 601 603
3 603 602 219
3 601 602 603
3 220 604 605
3 220 606 608
3 606 207 607
3 606 607 608
3 221 207 220
3 221 37 207
3 114 221 44
3 222 221 114
3 222 37 221
3 222 98 37
3 223 98 222
3 223 4 98
3 224 225 0
3 226 225 224
3 226 47 225
3 117 226 46
3 227 226 117
3 227 47 226
3 227 135 47
3 228 135 227
3 228 8 135
3 609 118 610
3 229 611 613
3 611 118 612
3 611 612 613
3 229 48 118
3 120 229 23
3 230 229 120
3 230 48 229
3 230 228 48
3 231 228 230
3 231 8 228
3 231 192 8
3 232 192 231
3 232 28 192
3 122 232 49
3 233 232 122
3 233 28 232
3 233 90 28
3 234 90 233
3 234 2 90
3 235 614 615
3 235 616 618
3 616 9 617
3 616 617 618
3 619 51 620
3 236 621 622
3 236 623 625
3 623 51 624
3 623 624 625
3 236 235 51
3 237 235 236
3 237 9 235
3 237 123 9
3 238 123 237
3 238 50 123
3 626 238 627
3 628 627 52
3 626 627 628
3 239 629 631
3 629 238 630
3 629 630 631
3 239 50 238
3 239 234 50
3 632 234 633
3 634 633 239
3 632 633 634
3 635 2 636
3 637 636 234
3 635 636 637
3 639 638 2
3 240 640 641
3 240 642 643
3 240 644 645
3 241 646 648
3 648 647 240
3 646 647 648
3 241 649 650
3 241 651 653
3 651 177 652
3 651 652 653
3 242 177 241
3 242 18 177
3 125 242 53
3 243 242 125
3 243 18 242
3 243 80 18
3 244 80 243
3 244 1 80
3 654 77 655
3 656 77 657
3 658 0 659
3 660 659 77
3 658 659 660
3 661 0 662
3 663 224 664
3 665 664 0
3 663 664 665
3 666 224 667
3 668 46 669
3 670 669 224
3 668 669 670
3 671 46 672
3 673 116 674
3 675 674 46
3 673 674 675
3 676 116 677
3 679 678 116
3 245 680 681
3 683 682 245
3 128 684 686
3 686 685 55
3 684 685 686
3 688 687 128
3 689 129 690
3 691 129 692
3 693 56 694
3 695 694 129
3 693 694 695
3 696 56 697
3 696 697 698
3 700 699 56
3 131 701 703
3 703 702 26
3 701 702 703
3 705 704 131
3 246 706 707
3 246 708 709
3 246 710 712
3 710 126 711
3 710 711 712
3 247 126 246
3 247 54 126
3 133 247 57
3 248 247 133
3 248 54 247
3 248 244 54
3 249 244 248
3 249 1 244
3 225 79 0
3 250 79 225
3 250 17 79
3 136 250 47
3 251 250 136
3 251 17 250
3 251 176 17
3 252 176 251
3 252 5 176
3 193 137 8
3 253 137 193
3 253 59 137
3 139 253 29
3 254 253 139
3 254 59 253
3 254 252 59
3 255 252 254
3 255 5 252
3 255 107 5
3 256 107 255
3 256 42 107
3 141 256 60
3 257 256 141
3 257 42 256
3 257 216 42
3 258 216 257
3 258 3 216
3 217 92 2
3 259 92 217
3 259 30 92
3 713 259 714
3 260 715 717
3 715 259 716
3 715 716 717
3 260 30 259
3 260 196 30
3 261 196 260
3 261 11 196
3 718 143 719
3 262 720 722
3 720 143 721
3 720 721 722
3 262 62 143
3 145 262 31
3 263 262 145
3 263 62 262
3 263 261 62
3 264 261 263
3 264 11 261
3 264 142 11
3 265 142 264
3 265 61 142
3 147 265 63
3 266 265 147
3 266 61 265
3 266 258 61
3 267 258 266
3 267 3 258
3 267 89 3
3 268 89 267
3 268 27 89
3 149 268 64
3 269 268 149
3 269 27 268
3 269 191 27
3 270 191 269
3 270 10 191
3 199 150 12
3 271 150 199
3 271 65 150
3 152 271 33
3 272 271 152
3 272 65 271
3 272 270 65
3 273 270 272
3 273 10 270
3 273 134 10
3 274 134 273
3 274 58 134
3 154 274 66
3 275 274 154
3 275 58 274
3 275 249 58
3 276 249 275
3 276 1 249
3 276 84 1
3 277 84 276
3 277 22 84
3 156 277 67
3 278 277 156
3 278 22 277
3 278 185 22
3 279 185 278
3 279 7 185
3 203 157 13
3 280 157 203
3 280 68 157
3 159 280 35
3 281 280 159
3 281 68 280
3 281 279 68
3 282 279 281
3 282 7 279
3 282 115 7
3 283 115 282
3 283 45 115
3 161 283 69
3 284 283 161
3 284 45 283
3 284 223 45
3 285 223 284
3 285 4 223
3 723 36 724
3 725 36 726
3 727 206 728
3 729 728 36
3 727 728 729
3 730 206 731
3 732 14 733
3 734 733 206
3 732 733 734
3 735 14 736
3 737 162 738
3 739 738 14
3 737 738 739
3 740 162 741
3 742 70 743
3 744 743 162
3 742 743 744
3 286 745 746
3 286 747 749
3 747 70 748
3 747 748 749
3 286 285 70
3 287 285 286
3 287 4 285
3 287 102 4
3 288 102 287
3 288 40 102
3 163 288 71
3 289 288 163
3 289 40 288
3 289 213 40
3 290 213 289
3 290 15 213
3 750 72 751
3 164 752 753
3 291 754 756
3 756 755 164
3 754 755 756
3 291 757 759
3 757 72 758
3 757 758 759
3 291 290 72
3 292 290 291
3 292 15 290
3 292 171 15
3 293 171 292
3 293 74 171
3 166 293 73
3 294 293 166
3 294 74 293
3 294 295 74
3 245 295 294
3 245 760 762
3 762 761 295
3 760 761 762
3 168 763 765
3 765 764 39
3 763 764 765
3 767 766 168
3 768 172 769
3 296 770 772
3 770 172 771
3 770 771 772
3 296 16 172
3 170 296 75
3 297 296 170
3 297 16 296
3 297 76 16
3 295 76 297
3 295 773 775
3 775 774 76
3 773 774 775
