ply
format ascii 1.0
element vertex 259
property float x
property float y
property float z
element face 252
property list uchar int vertex_index
end_header
-20.235434 97.243408 14.974918
-28.983591 92.385872 5.847461
-24.744482 100.748764 3.208625
-12.165771 96.98317 12.049584
-17.570679 103.996239 0.985038
-22.587797 99.792709 9.159239
-7.915334 95.599503 10.620188
-28.665834 95.588631 -1.127128
-20.218864 105.556961 -5.037243
-27.211994 97.097832 4.632442
-26.553703 100.285049 -2.684009
-16.418911 97.611443 13.603462
-18.975212 101.100204 7.838598
-14.935163 101.072395 6.671046
-13.675173 93.40937 18.352169
-9.475116 92.212051 16.873486
-21.498455 103.155251 1.836728
-23.72164 103.60833 -3.925313
-22.037773 96.605072 15.634501
-23.160952 97.727402 12.869823
-21.508839 98.753998 11.987952
-25.172318 99.071533 6.727467
-26.478279 97.246078 7.410267
-26.070211 99.01741 4.08745
-26.867069 98.80883 1.07082
-25.630264 100.750397 0.26828
-14.322277 97.515305 12.667284
-15.70506 99.520065 10.000469
-13.582949 99.087555 9.543359
-15.594622 93.578407 19.236519
-10.037007 90.096764 20.04591
-7.991077 89.623886 19.016716
-18.367243 102.693863 4.326438
-20.299438 102.287285 4.939687
-19.559341 103.755791 1.43191
-22.036242 104.812248 -4.733977
-24.792921 103.325935 -7.138597
-24.16227 98.619514 9.813209
-23.822733 100.360962 6.251238
-10.102638 96.276627 11.507116
-11.49296 98.714058 8.642106
-9.330024 97.908043 8.162204
-28.798223 94.19091 2.299888
-18.853281 105.013947 -2.126257
-27.568054 95.111412 8.155455
-28.192101 94.776459 5.390884
-27.930174 96.635345 1.574315
-27.660912 98.194458 -2.0661
-27.342848 99.606049 -5.737809
-18.373484 97.788116 13.92769
-19.706621 99.275574 11.402131
-17.652416 99.6082 10.559989
-17.030973 101.31292 7.094512
-16.418213 102.716278 3.870809
-12.86962 100.778778 5.919423
-18.961802 95.647209 17.464092
-17.056431 95.749474 16.779432
-14.965516 95.702293 15.867089
-12.820015 95.128838 15.355774
-12.226847 90.821434 20.749146
-11.508295 92.709183 17.791393
-10.740107 94.612251 14.547102
-8.565787 93.905495 13.750864
-20.869001 100.709381 8.295305
-22.178196 101.534439 5.500395
-23.218731 102.102486 2.566984
-20.901596 104.462822 -1.666122
-22.624973 103.582008 -1.102595
-24.218943 102.284554 -0.269434
-25.269983 102.128258 -3.568093
-26.208048 101.564331 -6.552361
-7.148444 88.206703 20.039825
-8.213758 88.549965 20.489928
-6.850988 89.174191 18.621292
-7.148444 88.206703 20.039825
-29.32988 90.973232 6.207633
-29.087848 91.354931 7.498912
-29.053384 94.316498 -0.842468
-29.119579 93.617638 0.87104
-28.732028 94.88977 0.58638
-11.751701 100.420749 5.693366
-12.18129 99.746418 7.280765
-11.063371 99.388389 7.054708
-18.224424 94.651241 18.710979
-19.18687 94.556847 19.087714
-17.271738 94.702373 18.368648
-18.009116 95.698341 17.121762
-18.224424 94.651241 18.710979
-11.393369 89.427841 21.829796
-12.47449 89.742428 22.217474
-26.013905 102.060204 -8.211702
-25.500484 102.445133 -6.845479
-25.306342 102.941006 -8.50482
-26.660348 101.074585 -7.937988
-26.013905 102.060204 -8.211702
-22.599363 97.166237 14.252162
-23.414464 96.617031 14.648824
-22.852874 96.055866 16.031163
-7.530316 96.262207 9.179574
-6.792649 95.062264 10.377688
-28.968544 95.065022 -2.489509
-28.524541 96.394463 -2.921699
-25.825299 98.158805 7.068867
-26.020794 97.17321 8.93241
-25.367814 98.085938 8.59101
-15.859834 92.386963 20.929416
-16.540833 93.61684 19.597192
-14.897133 92.415573 20.36648
-15.859834 92.386963 20.929416
-13.937409 92.331054 19.924305
-14.634897 93.493888 18.794344
-14.897133 92.415573 20.36648
-9.236724 88.786404 21.004525
-10.298449 89.065506 21.478178
-9.014042 89.860325 19.531313
-9.236724 88.786404 21.004525
-8.213758 88.549965 20.489928
-7.590668 90.486679 17.561304
-8.332687 91.780762 16.489689
-8.733097 90.917969 17.945101
-7.590668 90.486679 17.561304
-6.850988 89.174191 18.621292
-21.774287 105.267685 -6.410293
-21.127553 105.184605 -4.88561
-20.865597 105.640041 -6.561926
-22.668695 104.734783 -6.231508
-21.774287 105.267685 -6.410293
-22.406739 105.19022 -7.907823
-23.511394 104.132824 -5.827176
-22.878941 104.210289 -4.329645
-22.668695 104.734783 -6.231508
-24.047034 103.991626 -7.433817
-24.257281 103.467132 -5.531955
-23.511394 104.132824 -5.827176
-24.549436 103.802532 -8.949266
-24.047034 103.991626 -7.433817
-25.306342 102.941006 -8.50482
-24.549436 103.802532 -8.949266
-23.930527 97.097699 13.15425
-23.414464 96.617031 14.648824
-24.431186 97.543755 11.625943
-23.930527 97.097699 13.15425
-23.661611 98.173458 11.341516
-24.862789 97.859928 10.133881
-24.431186 97.543755 11.625943
-24.667294 98.845523 8.270338
-25.367814 98.085938 8.59101
-24.862789 97.859928 10.133881
-9.981903 98.985382 6.814757
-11.063371 99.388389 7.054708
-10.411492 98.31105 8.402155
-8.237661 97.416477 7.950582
-8.622679 96.753773 9.391196
-7.530316 96.262207 9.179574
-8.829093 98.53534 6.561956
-8.237661 97.416477 7.950582
-9.981903 98.985382 6.814757
-8.829093 98.53534 6.561956
-29.173641 92.808457 2.68913
-29.266325 91.905937 4.462917
-28.890907 93.288391 4.073675
-29.173641 92.808457 2.68913
-29.119579 93.617638 0.87104
-29.053384 94.316498 -0.842468
-28.968544 95.065022 -2.489509
-17.888182 105.102074 -2.364607
-18.21198 104.505093 -0.570609
-17.24688 104.59322 -0.80896
-18.604388 105.526726 -3.922303
-17.888182 105.102074 -2.364607
-19.287179 105.798233 -5.377797
-19.536072 105.285454 -3.58175
-18.604388 105.526726 -3.922303
-19.935622 106.01168 -6.905279
-19.287179 105.798233 -5.377797
-20.865597 105.640041 -6.561926
-19.935622 106.01168 -6.905279
-28.712692 92.584034 7.355691
-29.087848 91.354931 7.498912
-26.642843 96.262707 9.152066
-26.020794 97.17321 8.93241
-27.187731 95.195374 9.52466
-26.642843 96.262707 9.152066
-27.023167 96.178745 7.782861
-27.67757 94.093804 9.957525
-27.187731 95.195374 9.52466
-28.004924 93.946804 8.509688
-27.67757 94.093804 9.957525
-28.316947 93.779327 7.127402
-28.004924 93.946804 8.509688
-27.880077 94.943936 6.773169
-28.587846 93.581165 5.619172
-28.712692 92.584034 7.355691
-28.316947 93.779327 7.127402
-28.02208 97.697376 -3.391185
-28.524541 96.394463 -2.921699
-28.163373 96.891545 -1.596614
-27.863048 98.403171 -5.22704
-28.02208 97.697376 -3.391185
-27.50188 98.900253 -3.901955
-27.767139 98.963505 -7.030415
-27.863048 98.403171 -5.22704
-12.47248 101.411873 4.308255
-11.751701 100.420749 5.693366
-13.579303 101.637737 4.617615
-12.47248 101.411873 4.308255
-14.612075 101.784546 4.993426
-13.902392 100.925587 6.295234
-13.579303 101.637737 4.617615
-15.3536 102.606487 3.593307
-15.676688 101.894337 5.270927
-14.612075 101.784546 4.993426
-15.94098 103.333282 2.165008
-15.3536 102.606487 3.593307
-16.517213 103.973263 0.722123
-16.994446 103.356258 2.427923
-15.94098 103.333282 2.165008
-17.24688 104.59322 -0.80896
-16.517213 103.973263 0.722123
-22.256221 95.43586 17.423655
-22.852874 96.055866 16.031163
-21.446342 95.845345 17.009388
-22.256221 95.43586 17.423655
-20.545172 96.164513 16.679596
-21.136603 96.92424 15.30471
-21.446342 95.845345 17.009388
-19.908356 95.366413 17.924183
-19.18687 94.556847 19.087714
-19.598618 96.445309 16.219505
-20.545172 96.164513 16.679596
-19.908356 95.366413 17.924183
-16.325526 94.66394 18.007976
-17.271738 94.702373 18.368648
-16.540833 93.61684 19.597192
-13.213245 91.037087 21.122794
-12.47449 89.742428 22.217474
-12.95101 92.115402 19.550657
-13.937409 92.331054 19.924305
-13.213245 91.037087 21.122794
-11.131927 90.459099 20.397528
-11.393369 89.427841 21.829796
-10.298449 89.065506 21.478178
-7.878023 92.627484 14.928378
-9.020452 93.058773 15.312175
-8.332687 91.780762 16.489689
-7.513305 93.465676 13.437612
-7.878023 92.627484 14.928378
-7.188078 94.31268 11.872274
-8.240561 94.752499 12.185526
-7.513305 93.465676 13.437612
-6.792649 95.062264 10.377688
-7.188078 94.31268 11.872274
-29.32988 90.973232 6.207633
-29.266325 91.905937 4.462917
-27.227748 100.095444 -7.530712
-26.775448 100.58519 -6.145085
-26.660348 101.074585 -7.937988
-27.767139 98.963505 -7.030415
-27.227748 100.095444 -7.530712
3 0 20 18
3 2 23 21
3 2 25 23
3 3 28 26
3 71 31 72
3 74 73 31
3 1 75 76
3 4 34 32
3 5 37 19
3 5 38 37
3 6 41 39
3 7 77 79
3 79 78 42
3 77 78 79
3 9 44 22
3 9 45 44
3 9 46 45
3 10 47 24
3 10 48 47
3 11 51 49
3 13 52 27
3 13 53 52
3 80 54 81
3 82 81 40
3 80 81 82
3 83 55 84
3 85 56 86
3 87 86 55
3 85 86 87
3 14 57 29
3 14 58 57
3 88 59 89
3 15 60 30
3 15 61 60
3 15 62 61
3 12 63 50
3 16 64 33
3 16 65 64
3 8 66 43
3 17 67 35
3 17 68 67
3 17 69 68
3 90 70 91
3 92 91 36
3 90 91 92
3 94 93 70
3 18 95 97
3 95 19 96
3 95 96 97
3 20 19 18
3 20 5 19
3 99 98 6
3 101 100 7
3 21 102 104
3 102 22 103
3 102 103 104
3 23 22 21
3 23 9 22
3 23 24 9
3 25 24 23
3 25 10 24
3 26 27 11
3 28 27 26
3 28 13 27
3 105 29 106
3 107 29 108
3 109 14 110
3 111 110 29
3 109 110 111
3 112 30 113
3 31 114 116
3 114 30 115
3 114 115 116
3 31 15 30
3 31 117 119
3 119 118 15
3 117 118 119
3 121 120 31
3 32 33 12
3 34 33 32
3 34 16 33
3 122 35 123
3 124 123 8
3 122 123 124
3 125 35 126
3 125 126 127
3 128 17 129
3 130 129 35
3 128 129 130
3 131 36 132
3 133 132 17
3 131 132 133
3 134 36 135
3 137 136 36
3 19 138 139
3 37 140 142
3 142 141 19
3 140 141 142
3 37 143 144
3 37 145 147
3 145 21 146
3 145 146 147
3 38 21 37
3 38 2 21
3 39 40 3
3 41 40 39
3 41 148 150
3 150 149 40
3 148 149 150
3 151 41 152
3 153 152 6
3 151 152 153
3 154 41 155
3 157 156 41
3 42 158 160
3 160 159 1
3 158 159 160
3 162 161 42
3 164 163 7
3 165 43 166
3 167 166 4
3 165 166 167
3 168 43 169
3 170 8 171
3 172 171 43
3 170 171 172
3 173 8 174
3 176 175 8
3 177 1 178
3 22 179 180
3 44 181 183
3 183 182 22
3 181 182 183
3 44 184 185
3 44 186 187
3 45 188 190
3 190 189 44
3 188 189 190
3 45 191 193
3 191 1 192
3 191 192 193
3 45 42 1
3 46 42 45
3 46 7 42
3 24 46 9
3 47 46 24
3 47 7 46
3 47 194 196
3 196 195 7
3 194 195 196
3 48 197 199
3 199 198 47
3 197 198 199
3 48 200 201
3 49 50 0
3 51 50 49
3 51 12 50
3 27 51 11
3 52 51 27
3 52 12 51
3 52 32 12
3 53 32 52
3 53 4 32
3 40 28 3
3 54 28 40
3 54 13 28
3 202 54 203
3 204 54 205
3 206 13 207
3 208 207 54
3 206 207 208
3 209 53 210
3 211 210 13
3 209 210 211
3 212 53 213
3 214 4 215
3 216 215 53
3 214 215 216
3 218 217 4
3 219 18 220
3 221 18 222
3 223 0 224
3 225 224 18
3 223 224 225
3 55 226 227
3 55 228 230
3 228 0 229
3 228 229 230
3 55 49 0
3 56 49 55
3 56 11 49
3 29 231 233
3 231 56 232
3 231 232 233
3 57 56 29
3 57 11 56
3 57 26 11
3 58 26 57
3 58 3 26
3 59 234 235
3 59 236 238
3 236 14 237
3 236 237 238
3 30 239 241
3 239 59 240
3 239 240 241
3 60 59 30
3 60 14 59
3 60 58 14
3 61 58 60
3 61 3 58
3 61 39 3
3 62 39 61
3 62 6 39
3 242 62 243
3 244 243 15
3 242 243 244
3 245 62 246
3 247 6 248
3 249 248 62
3 247 248 249
3 251 250 6
3 253 252 1
3 50 20 0
3 63 20 50
3 63 5 20
3 33 63 12
3 64 63 33
3 64 5 63
3 64 38 5
3 65 38 64
3 65 2 38
3 43 34 4
3 66 34 43
3 66 16 34
3 35 66 8
3 67 66 35
3 67 16 66
3 67 65 16
3 68 65 67
3 68 2 65
3 68 25 2
3 69 25 68
3 69 10 25
3 36 69 17
3 70 69 36
3 70 10 69
3 70 48 10
3 254 48 255
3 256 255 70
3 254 255 256
3 258 257 48
