ply
format ascii 1.0
element vertex 652
property float x
property float y
property float z
element face 769
property list uchar int vertex_index
end_header
-10.263027 -107.35881 -15.650969
-24.32995 -80.31768 -18.25366
-23.207834 -101.476479 -17.823416
-24.186289 -64.952263 -4.181255
-25.446321 -91.892769 -17.981405
-20.65406 -96.706924 -27.292664
-22.330656 -85.880119 -26.576414
-22.169987 -68.085388 -18.941614
-21.292746 -73.068146 -25.844028
-15.463054 -105.253357 -7.340064
-17.109613 -106.913513 -17.189896
-22.689062 -102.222488 -7.022058
-26.263781 -94.329269 -7.546952
-25.992374 -83.917152 -9.012271
-25.192341 -75.358421 -1.152298
-23.870268 -72.708977 -10.730302
-15.242822 -103.856842 -26.901981
-6.48677 -106.161041 -16.973696
-9.56528 -107.296761 -19.466766
-25.176865 -86.271843 -18.106136
-24.141607 -89.275818 -22.61582
-23.82979 -83.534416 -22.335939
-21.375542 -61.962879 -19.396452
-20.936401 -64.533592 -22.559935
-19.3589 -104.416779 -7.049994
-26.461424 -90.088371 -2.653966
-26.515232 -89.342056 -8.195225
-26.311277 -84.88755 -3.782234
-24.487024 -69.954086 -2.694212
-24.592297 -74.389427 -6.073152
-23.782494 -68.946075 -7.45398
-23.078833 -67.331856 -11.78156
-23.444208 -63.552124 -8.600219
-20.702953 -104.746986 -17.388226
-16.596136 -105.98851 -22.054403
-19.825632 -103.442924 -22.569304
-16.227722 -97.03656 -31.5135
-19.138731 -68.089226 -29.188356
-24.431467 -59.677475 -5.343877
-24.838165 -97.100708 -17.857126
-22.205433 -99.632301 -22.936457
-23.707245 -94.78701 -22.778194
-21.910589 -91.548729 -27.094776
-23.232056 -74.142517 -18.566143
-23.046818 -77.229408 -22.101564
-21.951559 -70.732216 -22.265678
-20.253742 -66.519852 -25.957144
-12.734025 -106.810249 -11.964457
-13.454274 -107.674767 -16.489532
-16.800638 -106.678642 -12.253839
-20.550327 -105.068741 -12.124619
-23.406897 -102.267464 -12.568782
-25.044569 -98.726006 -7.184369
-25.281885 -98.339928 -12.762202
-26.145264 -93.579086 -13.019058
-26.093977 -88.192825 -13.324671
-25.363787 -82.431328 -13.572407
-25.549301 -79.568329 -4.850148
-25.000511 -78.416756 -9.654777
-24.214176 -76.49144 -14.266642
-23.119125 -70.80928 -15.004985
-22.285465 -64.97332 -15.843429
-8.58135 -105.929985 -12.431474
-4.006949 -103.959503 -13.26213
-13.02667 -107.273857 -20.950775
-11.748682 -105.712845 -25.693869
-18.510265 -100.780144 -27.213907
-13.471564 -100.640549 -31.046885
-8.635518 -106.941956 -16.234592
-7.939332 -106.874275 -18.320955
-9.903821 -107.422165 -17.374952
-24.837357 -83.384766 -18.031031
-24.566746 -85.053787 -20.252939
-24.198256 -82.11042 -20.234846
-21.092827 -59.05191 -19.761852
-20.795156 -60.270473 -21.236414
-26.480066 -87.345795 -3.140842
-24.580334 -65.412254 -1.786505
-24.657997 -68.096275 -1.0421
-24.296713 -67.488289 -3.344265
-24.138882 -69.514717 -5.066866
-23.935095 -66.999146 -5.662582
-23.577492 -66.412888 -7.906157
-23.806934 -64.341751 -6.466584
-21.96063 -103.332985 -17.794542
-20.344931 -104.257027 -20.039188
-21.740046 -102.567055 -20.231028
-25.24539 -94.654396 -17.967482
-24.386406 -96.077057 -20.284225
-24.754404 -93.453377 -20.314045
-23.342838 -87.743927 -24.567961
-23.253902 -90.717056 -24.741653
-22.308605 -88.852852 -26.690329
-22.684166 -71.182388 -18.758066
-22.649403 -72.645981 -20.449459
-22.091337 -69.569618 -20.64978
-20.214725 -62.512146 -24.223236
-20.628351 -65.617775 -24.289478
-19.79497 -63.290821 -25.875294
-19.333326 -64.218704 -27.509958
-14.145479 -106.134781 -9.6619
-14.842307 -106.869232 -11.964613
-16.202679 -106.099281 -9.740787
-21.186342 -103.427094 -6.931154
-19.993996 -104.929665 -9.650033
-21.68548 -103.803703 -9.610712
-22.033255 -103.89473 -12.468111
-23.139887 -102.391327 -9.823745
-26.073423 -94.594521 -4.773139
-25.471464 -96.840736 -4.737193
-25.782484 -96.629456 -7.243268
-25.283627 -98.558075 -9.878201
-25.910517 -96.400795 -9.920916
-25.836975 -96.103638 -12.803288
-26.266056 -94.171951 -10.43273
-26.332541 -86.654312 -8.622035
-26.367804 -88.754585 -10.651019
-26.109426 -86.060326 -11.094816
-25.792459 -85.257462 -13.395009
-25.714382 -83.263329 -11.414463
-25.11735 -73.020309 0.54602
-25.450516 -75.598412 1.534515
-25.568666 -77.806114 -0.273203
-25.732471 -79.858711 -2.213901
-25.322384 -77.371239 -3.022276
-24.239746 -73.642303 -8.473173
-24.76532 -76.331856 -7.773578
-24.415907 -75.595238 -10.211693
-24.631433 -77.535522 -12.009802
-24.065586 -74.771439 -12.405001
-23.649986 -73.6716 -14.59889
-23.532423 -71.921684 -12.836292
-22.822708 -64.422173 -12.235765
-22.691534 -66.137459 -13.808308
-22.433428 -63.505466 -14.32327
-22.039745 -62.131725 -16.149273
-13.146132 -105.186577 -7.548164
-12.050659 -105.940605 -9.810567
-6.364041 -105.037994 -12.671062
-7.542655 -104.756729 -10.43964
-15.264047 -107.450958 -16.779325
-13.257844 -107.615868 -18.689604
-15.225049 -107.237526 -19.235786
-16.029848 -105.122429 -24.420544
-14.173397 -106.05304 -24.002806
-13.527843 -105.004967 -26.296234
-12.667231 -103.631111 -28.562494
-21.463282 -98.405922 -25.190308
-20.501587 -100.424187 -25.090054
-19.678596 -98.833504 -27.3337
-14.909193 -98.852348 -31.448956
-12.269703 -98.48996 -33.029701
-22.195551 -75.246323 -24.108192
-22.640213 -78.529495 -24.180038
-21.720446 -76.546204 -26.009121
-4.159854 -105.022659 -17.437407
-5.523981 -105.886215 -19.109644
-8.711135 -106.826279 -21.724455
-25.406637 -89.019211 -18.003334
-24.833719 -90.865303 -20.48102
-24.834568 -88.050659 -20.213568
-24.121258 -86.473518 -22.297178
-23.213634 -84.68856 -24.45204
-21.700796 -64.867653 -19.228844
-21.59745 -66.37587 -20.738224
-21.142439 -63.226299 -21.011946
-20.497204 -61.430786 -22.777954
-16.549519 -104.078293 -4.751107
-17.518013 -105.001137 -7.204816
-18.676989 -103.572578 -4.404124
-26.220503 -92.482155 -2.280395
-26.434809 -92.16671 -5.064223
-26.49749 -91.91468 -7.966772
-26.551643 -89.681458 -5.419557
-26.464832 -87.134331 -5.987218
-26.203117 -84.477562 -6.358748
-24.856821 -70.413864 -0.152948
-24.816957 -72.566353 -1.762675
-24.862209 -74.608162 -3.615596
-24.468746 -72.072403 -4.304205
-24.139326 -71.624504 -6.735959
-23.794262 -70.915451 -9.043651
-23.428505 -70.06797 -11.348263
-23.430239 -68.190453 -9.697712
-23.205666 -65.520027 -10.109234
-23.092535 -62.756138 -10.582023
-18.988314 -106.001976 -17.321175
-17.102037 -106.518867 -19.665842
-18.874922 -105.499969 -19.830399
-18.351736 -104.849388 -22.32411
-17.612696 -103.882027 -24.82375
-18.566141 -96.969032 -29.538586
-20.268089 -70.715614 -27.561176
-24.622513 -62.849072 -2.518426
-24.225042 -62.274002 -4.87895
-24.830635 -60.282894 -3.040659
-24.133324 -99.363113 -17.976439
-22.857725 -100.606766 -20.396229
-23.704838 -98.489029 -20.431623
-23.138802 -97.303093 -22.779274
-22.360041 -95.973877 -25.050158
-24.022621 -92.162811 -22.749489
-22.842783 -93.274574 -25.117609
-21.359621 -94.248795 -27.286331
-23.827375 -77.283424 -18.270624
-23.73399 -78.90789 -20.196341
-23.218193 -75.858429 -20.334932
-22.515635 -74.020004 -22.199894
-21.72337 -72.083908 -24.040312
-21.391882 -67.499069 -22.425068
-21.193932 -68.856728 -24.072691
-20.784771 -69.742653 -25.860188
-19.797867 -67.414299 -27.545923
-11.415367 -107.23304 -14.056744
-11.701962 -107.611481 -15.990908
-13.240942 -107.420364 -14.217925
-15.140982 -107.328667 -14.343625
-17.056746 -106.950256 -14.702065
-18.136919 -105.722435 -9.793922
-18.689947 -106.093132 -12.332602
-18.928188 -106.19976 -14.818298
-20.645876 -105.116898 -14.834582
-22.206108 -103.640999 -14.986362
-23.411814 -101.959618 -15.255113
-24.014097 -100.597565 -7.077854
-24.351067 -100.60968 -9.838076
-24.48173 -100.418381 -12.493823
-24.356287 -100.080582 -15.445896
-25.13685 -97.801888 -15.437806
-25.64443 -95.318062 -15.43365
-25.88608 -92.8312 -15.431875
-26.426691 -91.553085 -10.562295
-26.249178 -90.835045 -12.924991
-25.880623 -90.142563 -15.662678
-25.710537 -87.208504 -15.62088
-25.365685 -84.418739 -15.773758
-24.884287 -81.407349 -15.948027
-25.976442 -82.171967 -4.192528
-25.793734 -81.765213 -6.845749
-25.059214 -76.830276 -5.328341
-25.280678 -78.955391 -7.317334
-25.541285 -81.183708 -9.282136
-25.194628 -80.310394 -11.639202
-24.803654 -79.486656 -14.014885
-24.347689 -78.451736 -16.166685
-23.780981 -75.57399 -16.521687
-23.202305 -72.527519 -16.7246
-22.658278 -69.503654 -17.080233
-23.051373 -68.907555 -13.306332
-22.676756 -67.90094 -15.279881
-22.225624 -66.538513 -17.297411
-21.855688 -63.481056 -17.633389
-21.595858 -60.539894 -17.954439
-23.835375 -61.779442 -7.047138
-9.772772 -105.48188 -10.130676
-10.686825 -106.50383 -12.158291
-9.515414 -106.814301 -14.224338
-5.199602 -105.168625 -15.191465
-7.478367 -106.143761 -14.640574
-11.54293 -107.660278 -18.011049
-11.19253 -107.419182 -20.299614
-10.467072 -106.877647 -22.657333
-14.798903 -106.793159 -21.595253
-12.402703 -106.657364 -23.318142
-21.190586 -101.658089 -22.716059
-19.275381 -102.24601 -24.923588
-17.04343 -102.426788 -27.111557
-17.428446 -99.120293 -29.425869
-16.050364 -100.797462 -29.362593
-14.420262 -102.347008 -29.082808
-23.453037 -80.346657 -22.257368
-22.933664 -81.659401 -24.430567
-20.797325 -58.074787 -20.641554
-21.012442 -57.569508 -19.893116
-21.748575 -86.285202 -27.590126
-21.73755 -87.771569 -27.647084
-22.319631 -87.366485 -26.633371
-19.567287 -61.660155 -25.882104
-20.004848 -62.901483 -25.049265
-19.777165 -61.270817 -25.056075
-19.343519 -62.135365 -26.641512
-19.567287 -61.660155 -25.882104
-22.566293 -62.616369 -13.505554
-22.628068 -63.963819 -13.279518
-22.760933 -63.074723 -12.461801
-22.381036 -62.033113 -14.429896
-22.566293 -62.616369 -13.505554
-14.304593 -105.219967 -7.444114
-13.810495 -104.676224 -6.265916
-14.968956 -104.709614 -6.161865
-6.916978 -104.044495 -9.463107
-6.33375 -104.221314 -10.581565
-11.729124 -97.271541 -33.882368
-13.004611 -97.549774 -33.163857
-10.860561 -98.041073 -33.772239
-11.729124 -97.271541 -33.882368
-8.343246 -106.910771 -19.95861
-7.530273 -106.699528 -19.385704
-8.752306 -107.085518 -18.893861
-9.138208 -107.06152 -20.59561
-7.916174 -106.67553 -21.087454
-8.343246 -106.910771 -19.95861
-20.328563 -59.922933 -22.846442
-20.64618 -60.850629 -22.007184
-20.477539 -59.342777 -22.075672
-20.130668 -60.284031 -23.569384
-20.328563 -59.922933 -22.846442
-18.101553 -103.112262 -3.210754
-17.613254 -103.825435 -4.577616
-17.037818 -103.36512 -3.384245
-26.340964 -91.285263 -2.46718
-26.242421 -91.394459 -1.12505
-26.362882 -90.197567 -1.311835
-17.037818 -103.36512 -3.384245
-15.996112 -103.434681 -3.437843
-19.311575 -69.762783 -29.279466
-19.876254 -71.075977 -28.465875
-19.70341 -69.40242 -28.374766
-24.911853 -61.845442 -1.648905
-24.828941 -63.138751 -1.249574
-25.015914 -60.562353 -1.910021
-24.726574 -61.565983 -2.779542
-24.911853 -61.845442 -1.648905
-21.084754 -91.832271 -28.194178
-20.80927 -93.182305 -28.289955
-21.635105 -92.898762 -27.190554
-19.027904 -64.541905 -28.309056
-18.80977 -62.9794 -28.284157
-24.845326 -98.697174 -5.845237
-25.058774 -97.754539 -4.621649
-25.258017 -97.783371 -5.960781
-24.529333 -99.661786 -7.131112
-24.33009 -99.632954 -5.79198
-24.845326 -98.697174 -5.845237
-21.744267 -59.93799 -17.224395
-21.817802 -61.335809 -17.051856
-21.966211 -60.733906 -16.321813
-21.507856 -59.117525 -18.158735
-21.744267 -59.93799 -17.224395
-10.34535 -105.137089 -8.926157
-9.242028 -104.854198 -9.113709
-2.792038 -103.243663 -13.435282
-3.369817 -103.226249 -12.259472
-3.311306 -103.861629 -14.473883
-2.792038 -103.243663 -13.435282
-4.603275 -104.564064 -14.226797
-3.907633 -104.466191 -15.43855
-3.311306 -103.861629 -14.473883
-10.830431 -105.887444 -25.349122
-11.157442 -106.359703 -24.161259
-12.075693 -106.185104 -24.506006
-10.41758 -105.339173 -26.460257
-10.830431 -105.887444 -25.349122
-12.537769 -101.2687 -30.905765
-13.012118 -102.121929 -29.923727
-13.945913 -101.493778 -30.064847
-22.462219 -80.691819 -25.355632
-22.786938 -80.094448 -24.305302
-22.315493 -79.126866 -25.230367
-22.563021 -82.267383 -25.454837
-22.462219 -80.691819 -25.355632
-20.648489 -58.684069 -21.378836
-20.943991 -59.661192 -20.499133
-20.797325 -58.074787 -20.641554
-20.477539 -59.342777 -22.075672
-20.648489 -58.684069 -21.378836
-26.43458 -88.984325 -1.580913
-26.362882 -90.197567 -1.311835
-26.443901 -87.613037 -1.824351
-26.470745 -88.717083 -2.897404
-26.43458 -88.984325 -1.580913
-26.404317 -86.247734 -2.03053
-26.443901 -87.613037 -1.824351
-26.319923 -85.018612 -2.351226
-26.395671 -86.116672 -3.461538
-26.404317 -86.247734 -2.03053
-24.619166 -66.754265 -1.414303
-24.811637 -67.011539 -0.197899
-24.772806 -65.669529 -0.570101
-18.715198 -68.441131 -30.026457
-18.501516 -66.685779 -30.003436
-21.604952 -89.19796 -27.774204
-21.405945 -90.545898 -27.976428
-22.109597 -90.20079 -26.892553
-21.604952 -89.19796 -27.774204
-21.73755 -87.771569 -27.647084
-19.112696 -62.599306 -27.458844
-19.564148 -63.754762 -26.692626
-19.343519 -62.135365 -26.641512
-18.80977 -62.9794 -28.284157
-19.112696 -62.599306 -27.458844
-25.772444 -95.717629 -4.755166
-25.621451 -95.703739 -3.373291
-25.922431 -94.580632 -3.391264
-25.271262 -73.245357 1.883563
-25.161572 -72.018333 1.459874
-25.437846 -74.534409 2.37781
-25.271262 -73.245357 1.883563
-25.283933 -74.30936 1.040268
-25.563075 -75.758659 2.843614
-25.437846 -74.534409 2.37781
-25.610315 -76.950401 1.967271
-25.563075 -75.758659 2.843614
-25.66939 -78.054252 1.063411
-25.610315 -76.950401 1.967271
-25.509591 -76.702263 0.630656
-25.731195 -79.083439 0.016214
-25.66939 -78.054252 1.063411
-25.650568 -78.832413 -1.243552
-25.813097 -80.109737 -0.954135
-25.731195 -79.083439 0.016214
-22.184195 -61.346243 -15.342897
-22.236587 -62.818596 -15.236272
-22.381036 -62.033113 -14.429896
-21.966211 -60.733906 -16.321813
-22.184195 -61.346243 -15.342897
-24.229128 -59.355104 -6.443511
-24.590485 -58.318861 -5.64952
-12.706194 -104.589764 -6.439165
-13.810495 -104.676224 -6.265916
-12.03203 -104.989437 -7.634901
-12.706194 -104.589764 -6.439165
-12.598395 -105.563591 -8.679365
-11.484293 -105.366451 -8.766103
-12.03203 -104.989437 -7.634901
-4.565898 -103.8227 -11.992809
-3.369817 -103.226249 -12.259472
-5.744444 -104.361946 -11.697275
-5.185495 -104.498749 -12.966596
-4.565898 -103.8227 -11.992809
-6.953348 -104.897362 -11.555351
-5.744444 -104.361946 -11.697275
-6.33375 -104.221314 -10.581565
-12.260905 -104.743984 -27.111894
-11.371324 -105.097924 -26.810711
-12.638262 -105.358906 -25.995051
-11.830599 -104.057057 -28.245024
-12.260905 -104.743984 -27.111894
-13.097537 -104.318039 -27.429364
-11.321852 -103.279258 -29.327546
-11.830599 -104.057057 -28.245024
-14.324356 -97.730969 -32.373484
-15.568458 -97.944454 -31.481228
-14.983621 -96.823074 -32.405756
-13.589448 -98.671154 -32.239328
-14.324356 -97.730969 -32.373484
-13.004611 -97.549774 -33.163857
-11.487356 -99.207809 -32.844141
-12.088287 -100.283104 -31.852733
-12.870634 -99.565254 -32.038293
-11.487356 -99.207809 -32.844141
-10.860561 -98.041073 -33.772239
-21.85561 -78.13522 -26.144909
-22.315493 -79.126866 -25.230367
-22.180329 -77.537849 -25.09458
-3.63866 -104.821003 -18.598839
-2.88072 -104.272594 -17.754988
-4.320723 -105.252781 -19.434957
-3.63866 -104.821003 -18.598839
-4.841918 -105.454437 -18.273525
-5.02626 -105.619583 -20.232301
-4.320723 -105.252781 -19.434957
-6.322597 -106.205498 -19.780048
-6.731656 -106.380245 -18.7153
-7.530273 -106.699528 -19.385704
-5.02626 -105.619583 -20.232301
-6.322597 -106.205498 -19.780048
-7.49765 -106.377098 -22.22887
-7.916174 -106.67553 -21.087454
-8.355177 -106.470489 -22.892129
-7.49765 -106.377098 -22.22887
-19.989429 -60.824711 -24.292026
-20.355964 -61.971466 -23.500595
-20.130668 -60.284031 -23.569384
-19.777165 -61.270817 -25.056075
-19.989429 -60.824711 -24.292026
-19.115656 -102.818058 -3.102622
-18.101553 -103.112262 -3.210754
-19.561099 -103.249031 -4.438443
-19.115656 -102.818058 -3.102622
-19.902055 -103.671132 -5.761378
-19.017944 -103.994678 -5.727059
-19.561099 -103.249031 -4.438443
-20.815776 -103.176289 -5.701958
-20.272621 -103.921937 -6.990574
-19.902055 -103.671132 -5.761378
-21.593361 -102.608494 -5.544335
-20.815776 -103.176289 -5.701958
-22.344721 -102.006191 -5.589787
-21.937702 -102.824791 -6.976606
-21.593361 -102.608494 -5.544335
-26.060132 -92.453071 -0.857336
-26.242421 -91.394459 -1.12505
-25.995971 -93.524449 -2.144892
-26.060132 -92.453071 -0.857336
-26.146963 -93.538338 -3.526767
-25.922431 -94.580632 -3.391264
-25.995971 -93.524449 -2.144892
-24.849615 -68.196868 0.231764
-24.811637 -67.011539 -0.197899
-24.949027 -69.355663 0.67634
-24.849615 -68.196868 0.231764
-24.757409 -69.25507 -0.597524
-25.031308 -70.715111 1.11039
-24.949027 -69.355663 0.67634
-24.987085 -71.717086 0.196536
-25.161572 -72.018333 1.459874
-25.031308 -70.715111 1.11039
-22.895847 -62.241705 -11.63493
-22.760933 -63.074723 -12.461801
-22.957622 -63.589156 -11.408894
-15.512189 -104.122082 -4.867387
-15.996112 -103.434681 -3.437843
-16.006287 -104.665825 -6.045585
-14.968956 -104.709614 -6.161865
-15.512189 -104.122082 -4.867387
-19.072249 -95.85807 -29.453713
-19.610101 -96.837978 -28.415625
-20.116209 -95.727016 -28.330751
-17.959136 -95.979477 -30.498331
-19.072249 -95.85807 -29.453713
-16.789926 -96.013241 -31.485788
-17.396932 -97.002796 -30.526043
-17.959136 -95.979477 -30.498331
-15.662944 -95.882591 -32.380518
-16.789926 -96.013241 -31.485788
-14.983621 -96.823074 -32.405756
-15.662944 -95.882591 -32.380518
-20.467979 -72.356667 -27.617506
-20.980308 -73.532933 -26.758932
-20.780417 -71.89188 -26.702602
-20.467979 -72.356667 -27.617506
-19.876254 -71.075977 -28.465875
-19.311575 -69.762783 -29.279466
-18.715198 -68.441131 -30.026457
-24.807851 -64.420342 -0.883614
-24.772806 -65.669529 -0.570101
-24.601424 -64.130663 -2.152465
-24.807851 -64.420342 -0.883614
-24.828941 -63.138751 -1.249574
-25.176823 -59.252044 -2.22797
-25.015914 -60.562353 -1.910021
-24.965542 -59.012957 -3.420307
-25.176823 -59.252044 -2.22797
-24.765958 -58.710247 -4.571917
-24.631051 -59.980185 -4.192268
-24.965542 -59.012957 -3.420307
-24.590485 -58.318861 -5.64952
-24.765958 -58.710247 -4.571917
-20.468989 -94.497951 -28.327585
-20.116209 -95.727016 -28.330751
-21.006841 -95.477859 -27.289497
-20.468989 -94.497951 -28.327585
-20.80927 -93.182305 -28.289955
-21.084754 -91.832271 -28.194178
-21.405945 -90.545898 -27.976428
-19.260175 -66.139702 -28.327039
-19.565596 -65.816502 -27.52794
-19.027904 -64.541905 -28.309056
-18.930607 -66.477165 -29.148255
-19.468299 -67.751762 -28.36714
-19.260175 -66.139702 -28.327039
-18.501516 -66.685779 -30.003436
-18.930607 -66.477165 -29.148255
-23.06763 -101.354011 -5.7581
-22.344721 -102.006191 -5.589787
-25.237165 -96.781345 -3.299904
-25.621451 -95.703739 -3.373291
-25.237165 -96.781345 -3.299904
-25.058774 -97.754539 -4.621649
-23.730148 -100.54155 -5.785998
-24.33009 -99.632954 -5.79198
-23.351579 -101.410027 -7.049956
-23.06763 -101.354011 -5.7581
-23.730148 -100.54155 -5.785998
-26.205514 -83.759823 -2.68559
-26.319923 -85.018612 -2.351226
-25.916111 -81.245403 -1.901423
-25.813097 -80.109737 -0.954135
-26.038097 -82.402031 -2.890737
-25.916111 -81.245403 -1.901423
-25.854456 -81.015339 -3.203215
-26.143859 -83.529758 -3.987381
-26.205514 -83.759823 -2.68559
-26.038097 -82.402031 -2.890737
-21.256341 -58.373533 -19.062441
-21.344342 -59.795902 -18.858145
-21.507856 -59.117525 -18.158735
-21.012442 -57.569508 -19.893116
-21.256341 -58.373533 -19.062441
-23.931082 -60.406088 -7.295142
-24.133421 -60.728459 -6.195507
-24.229128 -59.355104 -6.443511
-23.660666 -61.285136 -8.073199
-23.931082 -60.406088 -7.295142
-23.465083 -62.171476 -8.849739
-23.639792 -62.665783 -7.823678
-23.660666 -61.285136 -8.073199
-23.289247 -61.773483 -9.840642
-23.268372 -63.154131 -9.591121
-23.465083 -62.171476 -8.849739
-23.101619 -61.382089 -10.832883
-23.289247 -61.773483 -9.840642
-22.895847 -62.241705 -11.63493
-23.101619 -61.382089 -10.832883
-8.12697 -104.491623 -9.268192
-6.916978 -104.044495 -9.463107
-8.657713 -105.119304 -10.285158
-8.12697 -104.491623 -9.268192
-9.242028 -104.854198 -9.113709
-10.911715 -105.711242 -9.970622
-10.34535 -105.137089 -8.926157
-11.484293 -105.366451 -8.766103
-3.387759 -104.393208 -16.561521
-2.88072 -104.272594 -17.754988
-4.679728 -105.095642 -16.314436
-3.387759 -104.393208 -16.561521
-3.907633 -104.466191 -15.43855
-9.233145 -106.496173 -23.358568
-8.355177 -106.470489 -22.892129
-9.589104 -106.851963 -22.190894
-10.189626 -106.469844 -23.830854
-11.434888 -106.767505 -22.987738
-11.157442 -106.359703 -24.161259
-9.233145 -106.496173 -23.358568
-10.189626 -106.469844 -23.830854
-10.41758 -105.339173 -26.460257
-11.371324 -105.097924 -26.810711
-12.135603 -102.763981 -29.66357
-13.543746 -102.989059 -28.822651
-13.012118 -102.121929 -29.923727
-11.321852 -103.279258 -29.327546
-12.135603 -102.763981 -29.66357
-12.537769 -101.2687 -30.905765
-12.088287 -100.283104 -31.852733
-22.703007 -83.781963 -25.465573
-23.073649 -83.17398 -24.441304
-22.563021 -82.267383 -25.454837
-22.261518 -84.377742 -26.52776
-22.772145 -85.284339 -25.514227
-22.703007 -83.781963 -25.465573
-21.194158 -75.271962 -26.841479
-21.506596 -74.807175 -25.926575
-20.980308 -73.532933 -26.758932
-21.309786 -76.884869 -27.010995
-21.194158 -75.271962 -26.841479
-21.85561 -78.13522 -26.144909
-21.309786 -76.884869 -27.010995
-21.736575 -84.766422 -27.542521
-22.261518 -84.377742 -26.52776
-21.748575 -86.285202 -27.590126
-21.736575 -84.766422 -27.542521
3 0 70 68
3 1 73 71
3 273 272 74
3 3 79 77
3 3 81 79
3 3 83 81
3 2 86 84
3 4 89 87
3 6 92 90
3 6 274 276
3 276 275 92
3 274 275 276
3 7 95 93
3 277 98 278
3 279 278 96
3 277 278 279
3 281 280 98
3 9 102 100
3 11 105 103
3 11 107 105
3 12 110 108
3 12 112 110
3 12 114 112
3 13 117 115
3 13 119 117
3 14 121 120
3 14 122 121
3 14 124 122
3 15 127 125
3 15 129 127
3 15 131 129
3 282 134 283
3 284 283 132
3 282 283 284
3 286 285 134
3 9 287 289
3 287 136 288
3 287 288 289
3 9 100 136
3 290 139 291
3 10 142 140
3 16 145 143
3 16 146 145
3 5 149 147
3 292 151 293
3 295 294 151
3 8 154 152
3 17 156 155
3 18 296 298
3 298 297 69
3 296 297 298
3 18 299 301
3 299 157 300
3 299 300 301
3 19 160 158
3 21 161 72
3 21 162 161
3 22 165 163
3 302 166 303
3 304 303 75
3 302 303 304
3 306 305 166
3 307 169 308
3 309 308 167
3 307 308 309
3 25 310 312
3 310 170 311
3 310 311 312
3 25 171 170
3 25 173 171
3 27 174 76
3 27 175 174
3 28 176 78
3 28 177 176
3 28 179 177
3 30 180 80
3 30 181 180
3 30 183 181
3 32 184 82
3 32 185 184
3 313 167 314
3 33 188 186
3 35 189 85
3 35 190 189
3 37 315 317
3 317 316 192
3 315 316 317
3 318 193 319
3 320 195 321
3 322 321 193
3 320 321 322
3 39 198 196
3 41 199 88
3 41 200 199
3 20 201 159
3 42 202 91
3 42 203 202
3 42 323 325
3 325 324 203
3 323 324 325
3 43 206 204
3 45 207 94
3 45 208 207
3 23 209 164
3 46 210 97
3 46 211 210
3 46 212 211
3 327 326 99
3 47 215 213
3 49 216 101
3 49 217 216
3 24 218 168
3 50 219 104
3 50 220 219
3 50 221 220
3 51 222 106
3 51 223 222
3 52 328 330
3 330 329 109
3 328 329 330
3 52 331 333
3 331 224 332
3 331 332 333
3 52 225 224
3 53 226 111
3 53 227 226
3 53 228 227
3 54 229 113
3 54 230 229
3 26 231 172
3 55 232 116
3 55 233 232
3 55 234 233
3 56 235 118
3 56 236 235
3 57 237 123
3 57 238 237
3 29 239 178
3 58 240 126
3 58 241 240
3 58 242 241
3 59 243 128
3 59 244 243
3 59 245 244
3 60 246 130
3 60 247 246
3 31 248 182
3 61 249 133
3 61 250 249
3 61 251 250
3 334 252 335
3 336 335 135
3 334 335 336
3 338 337 252
3 38 253 194
3 339 254 340
3 47 255 137
3 47 213 255
3 63 341 342
3 63 343 344
3 63 345 347
3 345 257 346
3 345 346 347
3 62 258 138
3 62 256 258
3 48 259 214
3 64 260 141
3 64 261 260
3 34 262 187
3 65 263 144
3 65 348 350
3 350 349 263
3 348 349 350
3 65 351 352
3 40 264 197
3 66 265 148
3 66 266 265
3 36 267 191
3 67 268 150
3 67 269 268
3 67 353 355
3 355 354 269
3 353 354 355
3 44 270 205
3 356 271 357
3 358 357 153
3 356 357 358
3 360 359 271
3 68 69 17
3 70 69 68
3 70 18 69
3 71 72 19
3 73 72 71
3 73 21 72
3 74 75 22
3 361 75 362
3 363 362 74
3 361 362 363
3 365 364 75
3 366 25 367
3 368 76 369
3 370 369 25
3 368 369 370
3 371 76 372
3 373 27 374
3 375 374 76
3 373 374 375
3 77 376 378
3 376 78 377
3 376 377 378
3 79 78 77
3 79 28 78
3 79 80 28
3 81 80 79
3 81 30 80
3 81 82 30
3 83 82 81
3 83 32 82
3 84 85 33
3 86 85 84
3 86 35 85
3 380 379 37
3 87 88 39
3 89 88 87
3 89 41 88
3 90 91 20
3 92 91 90
3 92 42 91
3 92 381 383
3 383 382 42
3 381 382 383
3 385 384 92
3 93 94 43
3 95 94 93
3 95 45 94
3 96 97 23
3 98 97 96
3 98 46 97
3 98 99 46
3 386 99 387
3 388 387 98
3 386 387 388
3 390 389 99
3 100 101 47
3 102 101 100
3 102 49 101
3 103 104 24
3 105 104 103
3 105 50 104
3 105 106 50
3 107 106 105
3 107 51 106
3 108 391 393
3 391 109 392
3 391 392 393
3 110 109 108
3 110 52 109
3 110 111 52
3 112 111 110
3 112 53 111
3 112 113 53
3 114 113 112
3 114 54 113
3 115 116 26
3 117 116 115
3 117 55 116
3 117 118 55
3 119 118 117
3 119 56 118
3 120 394 395
3 121 396 398
3 398 397 120
3 396 397 398
3 121 399 400
3 121 401 402
3 122 403 405
3 405 404 121
3 403 404 405
3 122 406 407
3 122 408 410
3 408 123 409
3 408 409 410
3 124 123 122
3 124 57 123
3 125 126 29
3 127 126 125
3 127 58 126
3 127 128 58
3 129 128 127
3 129 59 128
3 129 130 59
3 131 130 129
3 131 60 130
3 132 133 31
3 134 133 132
3 134 61 133
3 134 135 61
3 411 135 412
3 413 412 134
3 411 412 413
3 415 414 135
3 417 416 38
3 136 418 419
3 136 420 421
3 136 422 424
3 422 137 423
3 422 423 424
3 100 137 136
3 100 47 137
3 425 63 426
3 427 138 428
3 429 428 63
3 427 428 429
3 139 430 432
3 430 138 431
3 430 431 432
3 139 62 138
3 140 141 48
3 142 141 140
3 142 64 141
3 143 144 34
3 145 144 143
3 145 65 144
3 145 433 435
3 435 434 65
3 433 434 435
3 146 436 438
3 438 437 145
3 436 437 438
3 146 439 440
3 147 148 40
3 149 148 147
3 149 66 148
3 441 150 442
3 443 442 36
3 441 442 443
3 151 444 446
3 444 150 445
3 444 445 446
3 151 67 150
3 151 447 449
3 449 448 67
3 447 448 449
3 451 450 151
3 152 153 44
3 154 153 152
3 154 452 454
3 454 453 153
3 452 453 454
3 155 455 456
3 156 457 459
3 459 458 155
3 457 458 459
3 156 460 461
3 69 156 17
3 462 156 463
3 464 463 69
3 462 463 464
3 466 465 156
3 157 467 468
3 157 469 470
3 158 159 4
3 160 159 158
3 160 20 159
3 72 160 19
3 161 160 72
3 161 20 160
3 161 90 20
3 162 90 161
3 162 6 90
3 163 164 7
3 165 164 163
3 165 23 164
3 75 165 22
3 166 165 75
3 166 23 165
3 166 96 23
3 471 96 472
3 473 472 166
3 471 472 473
3 475 474 96
3 167 168 9
3 169 168 167
3 169 24 168
3 476 169 477
3 478 169 479
3 480 24 481
3 482 481 169
3 480 481 482
3 483 103 484
3 485 484 24
3 483 484 485
3 486 103 487
3 488 11 489
3 490 489 103
3 488 489 490
3 170 491 492
3 170 493 494
3 170 495 497
3 495 108 496
3 495 496 497
3 171 108 170
3 171 12 108
3 171 172 12
3 173 172 171
3 173 26 172
3 76 173 25
3 174 173 76
3 174 26 173
3 174 115 26
3 175 115 174
3 175 13 115
3 78 498 499
3 176 500 502
3 502 501 78
3 500 501 502
3 176 503 504
3 176 505 507
3 505 120 506
3 505 506 507
3 177 120 176
3 177 14 120
3 177 178 14
3 179 178 177
3 179 29 178
3 80 179 28
3 180 179 80
3 180 29 179
3 180 125 29
3 181 125 180
3 181 15 125
3 181 182 15
3 183 182 181
3 183 31 182
3 82 183 30
3 184 183 82
3 184 31 183
3 184 132 31
3 185 132 184
3 185 508 510
3 510 509 132
3 508 509 510
3 167 511 512
3 167 513 515
3 513 9 514
3 513 514 515
3 186 187 10
3 188 187 186
3 188 34 187
3 85 188 33
3 189 188 85
3 189 34 188
3 189 143 34
3 190 143 189
3 190 16 143
3 516 191 517
3 518 517 5
3 516 517 518
3 519 191 520
3 521 36 522
3 523 522 191
3 521 522 523
3 524 36 525
3 527 526 36
3 192 528 530
3 530 529 8
3 528 529 530
3 532 531 192
3 534 533 37
3 535 77 536
3 193 537 539
3 537 77 538
3 537 538 539
3 193 3 77
3 193 194 3
3 195 194 193
3 195 38 194
3 540 195 541
3 542 195 543
3 544 38 545
3 546 545 195
3 544 545 546
3 548 547 38
3 196 197 2
3 198 197 196
3 198 40 197
3 88 198 39
3 199 198 88
3 199 40 198
3 199 147 40
3 200 147 199
3 200 5 147
3 159 89 4
3 201 89 159
3 201 41 89
3 91 201 20
3 202 201 91
3 202 41 201
3 202 200 41
3 203 200 202
3 203 5 200
3 203 549 551
3 551 550 5
3 549 550 551
3 553 552 203
3 555 554 42
3 204 205 1
3 206 205 204
3 206 44 205
3 94 206 43
3 207 206 94
3 207 44 206
3 207 152 44
3 208 152 207
3 208 8 152
3 164 95 7
3 209 95 164
3 209 45 95
3 97 209 23
3 210 209 97
3 210 45 209
3 210 208 45
3 211 208 210
3 211 8 208
3 211 192 8
3 212 192 211
3 212 37 192
3 99 212 46
3 556 212 557
3 558 557 99
3 556 557 558
3 559 37 560
3 561 560 212
3 559 560 561
3 563 562 37
3 213 214 0
3 215 214 213
3 215 48 214
3 101 215 47
3 216 215 101
3 216 48 215
3 216 140 48
3 217 140 216
3 217 10 140
3 168 102 9
3 218 102 168
3 218 49 102
3 104 218 24
3 219 218 104
3 219 49 218
3 219 217 49
3 220 217 219
3 220 10 217
3 220 186 10
3 221 186 220
3 221 33 186
3 106 221 50
3 222 221 106
3 222 33 221
3 222 84 33
3 223 84 222
3 223 2 84
3 564 11 565
3 109 566 567
3 569 568 109
3 224 570 571
3 224 572 574
3 572 11 573
3 572 573 574
3 224 107 11
3 225 107 224
3 225 51 107
3 111 225 52
3 226 225 111
3 226 51 225
3 226 223 51
3 227 223 226
3 227 2 223
3 227 196 2
3 228 196 227
3 228 39 196
3 113 228 53
3 229 228 113
3 229 39 228
3 229 87 39
3 230 87 229
3 230 4 87
3 172 114 12
3 231 114 172
3 231 54 114
3 116 231 26
3 232 231 116
3 232 54 231
3 232 230 54
3 233 230 232
3 233 4 230
3 233 158 4
3 234 158 233
3 234 19 158
3 118 234 55
3 235 234 118
3 235 19 234
3 235 71 19
3 236 71 235
3 236 1 71
3 575 27 576
3 123 577 578
3 237 579 581
3 581 580 123
3 579 580 581
3 237 582 584
3 582 27 583
3 582 583 584
3 237 175 27
3 238 175 237
3 238 13 175
3 178 124 14
3 239 124 178
3 239 57 124
3 126 239 29
3 240 239 126
3 240 57 239
3 240 238 57
3 241 238 240
3 241 13 238
3 241 119 13
3 242 119 241
3 242 56 119
3 128 242 58
3 243 242 128
3 243 56 242
3 243 236 56
3 244 236 243
3 244 1 236
3 244 204 1
3 245 204 244
3 245 43 204
3 130 245 59
3 246 245 130
3 246 43 245
3 246 93 43
3 247 93 246
3 247 7 93
3 182 131 15
3 248 131 182
3 248 60 131
3 133 248 31
3 249 248 133
3 249 60 248
3 249 247 60
3 250 247 249
3 250 7 247
3 250 163 7
3 251 163 250
3 251 22 163
3 135 251 61
3 252 251 135
3 252 22 251
3 252 74 22
3 585 74 586
3 587 586 252
3 585 586 587
3 589 588 74
3 194 83 3
3 253 83 194
3 253 32 83
3 590 253 591
3 592 591 38
3 590 591 592
3 593 253 594
3 595 32 596
3 597 596 253
3 595 596 597
3 598 185 599
3 600 599 32
3 598 599 600
3 601 185 602
3 604 603 185
3 605 139 606
3 254 607 609
3 607 139 608
3 607 608 609
3 254 62 139
3 137 610 612
3 610 254 611
3 610 611 612
3 255 254 137
3 255 62 254
3 255 256 62
3 213 256 255
3 213 0 256
3 613 155 614
3 257 615 617
3 615 155 616
3 615 616 617
3 257 17 155
3 138 257 63
3 258 257 138
3 258 17 257
3 258 68 17
3 256 68 258
3 256 0 68
3 214 70 0
3 259 70 214
3 259 18 70
3 141 259 48
3 260 259 141
3 260 18 259
3 260 157 18
3 261 157 260
3 261 618 620
3 620 619 157
3 618 619 620
3 187 142 10
3 262 142 187
3 262 64 142
3 144 262 34
3 263 262 144
3 263 64 262
3 263 261 64
3 621 261 622
3 623 622 263
3 621 622 623
3 625 624 261
3 627 626 65
3 197 86 2
3 264 86 197
3 264 35 86
3 148 264 40
3 265 264 148
3 265 35 264
3 265 190 35
3 266 190 265
3 266 16 190
3 191 149 5
3 267 149 191
3 267 66 149
3 150 267 36
3 268 267 150
3 268 66 267
3 268 266 66
3 269 266 268
3 269 16 266
3 269 146 16
3 628 146 629
3 630 629 269
3 628 629 630
3 632 631 146
3 634 633 67
3 205 73 1
3 270 73 205
3 270 21 73
3 153 270 44
3 271 270 153
3 271 21 270
3 271 162 21
3 635 162 636
3 637 636 271
3 635 636 637
3 638 6 639
3 640 639 162
3 638 639 640
3 641 154 642
3 643 642 8
3 641 642 643
3 644 154 645
3 647 646 154
3 648 6 649
3 651 650 6
