ply
format ascii 1.0
element vertex 503
property float x
property float y
property float z
element face 584
property list uchar int vertex_index
end_header
17.165039 62.778118 -51.248756
30.994955 54.374344 -45.654152
25.632113 89.413521 -42.811924
27.416862 97.488976 -32.336323
31.607412 83.952881 -37.061638
11.230453 48.556496 -52.163887
24.82262 60.057564 -49.763691
17.9678 45.193554 -51.349934
9.3248 98.898705 -38.125401
16.534964 90.682693 -45.302849
22.192945 77.413986 -48.906933
29.439291 73.700485 -45.47966
34.398579 66.808807 -39.205219
30.144854 93.805298 -29.081833
12.955297 63.173347 -51.139145
10.150247 56.249138 -51.45237
14.147142 55.742004 -51.677143
28.110184 57.738396 -48.044163
24.915897 49.992142 -49.442528
28.023546 47.360214 -47.536873
22.829159 95.744423 -40.258305
18.371193 96.243958 -41.549103
21.477091 90.56929 -44.494705
19.665134 84.51371 -47.581322
24.075443 83.840958 -46.441017
26.109947 75.874786 -47.629223
27.91448 81.965805 -44.419552
33.143242 75.788567 -38.430576
26.770506 94.077255 -37.928608
28.89535 87.369049 -40.32159
29.635279 91.400017 -35.05159
31.947773 87.476837 -31.479958
21.214096 61.589405 -50.79995
17.949324 54.369869 -51.459755
21.533321 52.553974 -50.746738
21.145306 42.764221 -50.338455
15.383924 70.827072 -50.568146
13.173433 95.469955 -42.175282
14.863297 84.293373 -47.86274
17.670345 78.048195 -49.468719
19.783756 70.293678 -50.445625
23.860268 69.095352 -49.643829
27.460667 66.965721 -48.12368
30.610626 64.266983 -45.756851
30.816219 79.340439 -41.743805
32.144554 70.433952 -42.731743
33.12397 60.763588 -42.924797
14.643045 47.172108 -51.944386
15.06919 63.478512 -51.231594
13.728921 59.580128 -51.449574
15.753196 59.335384 -51.477226
29.563812 56.010357 -46.95565
28.142725 52.577671 -47.85471
29.599045 51.182896 -46.717831
24.421047 92.742065 -41.551613
22.199924 93.332428 -42.478287
23.632814 90.317558 -43.675503
22.809784 87.613541 -45.483536
24.786673 86.938141 -44.758392
25.997536 83.190941 -45.542343
26.741947 85.835358 -43.793594
25.422731 97.017639 -36.621826
27.072218 95.980782 -35.28619
28.319014 92.876396 -36.50695
28.555101 94.684937 -33.664669
31.137665 91.921402 -27.051855
31.024529 90.875404 -30.391237
10.875859 52.734257 -51.822826
9.011549 52.889877 -51.684776
9.463299 49.489925 -52.094902
9.63097 45.6231 -52.513123
23.058401 60.620899 -50.366348
21.421886 57.076668 -50.831066
23.225677 55.969437 -50.322517
24.681082 45.261635 -49.176758
23.117804 46.637821 -49.943901
13.085855 70.794601 -50.398693
14.254725 74.301788 -50.044601
8.566114 96.567184 -40.119774
17.525867 93.456894 -43.662441
15.826352 95.955452 -42.00098
14.976637 93.271469 -43.837879
14.131002 90.339096 -45.409489
13.359569 87.361961 -46.644241
15.862379 87.555275 -46.729485
20.985474 80.997055 -48.367168
18.672007 81.405151 -48.631306
20.009626 77.785126 -49.287769
18.979261 74.331573 -50.017651
21.207558 73.874168 -49.759262
21.873627 69.796425 -50.129803
23.119493 73.509895 -49.337795
27.890471 74.709412 -46.661285
26.971066 71.59964 -47.885418
28.599699 70.30751 -46.901653
29.128727 65.877716 -46.993347
30.116743 69.338753 -45.632694
30.332991 85.720894 -38.848381
29.999653 83.387375 -41.024494
31.345325 81.679131 -39.418293
33.797474 71.264023 -38.982922
32.706898 73.172417 -40.78112
33.309353 68.588928 -41.114609
32.703964 65.683716 -42.885899
33.890446 63.688347 -41.172451
34.221581 59.052189 -41.300606
18.161507 49.967972 -51.420113
16.244865 50.794983 -51.701271
16.375538 46.352188 -51.689243
27.732773 98.619629 -29.131775
28.906076 95.802742 -30.661263
29.120729 96.780518 -27.375391
30.207085 94.818047 -25.759232
10.738596 63.452293 -50.850136
9.428241 59.71788 -51.008495
11.526132 59.83041 -51.277443
12.188331 56.050789 -51.620441
12.679976 51.901436 -51.89986
26.467558 58.791035 -49.01778
25.02733 55.202999 -49.635536
26.644598 53.911701 -48.810814
26.53229 48.700047 -48.551121
26.196281 43.808392 -48.264935
21.329954 98.49604 -38.518932
19.211565 98.592033 -39.262142
20.720018 96.258957 -40.888069
19.911621 93.578156 -43.147858
19.037836 90.897644 -44.94384
18.320171 87.911064 -46.470192
20.551247 87.84404 -46.120361
21.954992 84.548866 -47.028275
23.107527 80.689171 -47.840897
24.235041 76.564171 -48.40163
25.146719 79.89183 -47.165707
27.003448 79.201065 -46.179169
28.680634 78.055885 -45.06205
32.681923 81.992996 -35.190109
32.458221 79.849731 -37.76992
33.453663 77.887779 -35.93898
34.126347 73.585579 -36.683132
32.315887 52.643478 -44.210903
30.956474 49.24614 -45.416641
23.457481 97.918961 -37.688511
24.88242 95.20105 -39.116322
26.158886 92.035446 -40.506947
27.386852 88.497841 -41.633953
27.874163 90.942917 -39.172306
29.384119 89.351562 -37.857143
30.700495 87.737679 -36.142956
29.884928 92.844788 -32.168648
30.889334 89.540466 -33.299988
31.838337 85.816696 -34.387901
32.828926 83.655945 -32.527763
8.245755 56.315083 -51.184509
19.240147 62.381611 -51.093239
17.809189 58.658913 -51.387508
19.619259 57.868408 -51.179447
19.825928 53.502277 -51.156521
19.828234 48.715607 -51.051674
23.296026 51.555119 -50.169823
21.546947 47.821487 -50.549229
19.684755 44.102001 -50.875591
29.402214 45.70153 -46.392567
27.528822 41.895893 -47.244884
11.948254 67.047005 -50.671349
14.090514 67.166206 -50.880527
16.449327 66.899994 -50.977127
16.660528 98.478241 -39.803806
14.063397 98.13575 -40.058891
11.347649 97.264771 -40.364998
10.404963 94.89267 -42.03965
13.777616 80.999077 -48.697304
17.237043 84.722961 -47.757648
16.353613 81.368675 -48.748978
15.23005 77.769081 -49.517792
16.633537 74.475143 -50.110813
17.606625 70.833992 -50.566978
18.578606 66.718094 -50.897068
20.623388 65.982803 -50.692924
22.653254 65.412933 -50.29285
24.478035 64.582169 -49.761036
25.132185 72.711441 -48.702583
25.786932 68.408546 -48.925125
26.193184 63.576321 -49.061352
27.853582 62.367455 -48.153023
29.4877 60.898407 -46.995319
30.873806 59.22863 -45.782345
28.479362 84.655067 -42.539288
29.434788 80.95491 -43.102791
30.230057 76.618881 -43.717335
32.069187 77.40097 -40.243378
31.593531 74.850716 -42.274044
30.921377 72.157349 -44.098663
31.411654 67.45533 -44.429688
31.900808 62.687412 -44.42625
32.1292 57.796497 -44.444763
33.352173 56.28949 -42.890327
16.117533 55.308929 -51.619453
14.605371 51.600723 -51.834366
12.978714 47.968597 -52.094391
14.540187 42.93829 -52.004429
12.934725 43.802963 -52.264648
11.303583 44.704418 -52.43927
26.690783 98.044964 -33.020914
26.777578 98.823712 -31.478926
27.24454 96.734879 -33.811256
26.518462 97.290867 -34.495847
26.690783 98.044964 -33.020914
31.560388 90.359016 -27.768524
31.569542 90.815174 -26.161988
23.709153 43.378868 -49.407858
24.512486 42.686226 -48.977518
13.547712 75.856037 -49.704098
13.126934 74.135647 -49.933373
7.926672 98.259537 -38.172534
8.311846 99.426865 -37.015749
8.945457 97.732945 -39.122587
7.547329 97.093776 -39.16972
7.926672 98.259537 -38.172534
34.619619 64.376173 -39.376028
34.365553 62.815943 -40.359644
34.144512 65.248577 -40.188835
27.837623 99.060119 -27.415437
27.085911 99.908299 -28.193648
28.5316 98.140564 -26.537245
28.426751 97.700074 -28.253583
27.837623 99.060119 -27.415437
30.21801 95.165646 -23.96918
29.707726 96.197804 -24.8383
30.683768 93.758129 -24.697978
30.21801 95.165646 -23.96918
33.566811 78.688606 -34.645077
33.067793 79.940387 -35.564544
33.18094 80.741215 -34.270641
34.59018 72.356777 -35.74334
34.2456 74.53146 -35.443941
34.471991 71.383266 -36.820227
34.59018 72.356777 -35.74334
32.317211 50.143284 -44.065668
32.909822 51.93654 -43.453938
23.751888 98.804978 -36.304325
22.713408 99.073704 -36.905524
8.037447 52.986677 -51.546801
8.286124 51.337295 -51.824489
20.188883 41.005093 -50.503414
19.458607 41.673983 -50.771982
20.415031 43.433111 -50.607023
30.108604 45.046558 -45.732687
30.179344 47.473835 -45.904604
30.885734 46.818863 -45.244724
27.395375 39.478342 -46.977758
28.302779 41.389128 -46.639602
26.643462 40.196078 -47.538887
27.395375 39.478342 -46.977758
11.363665 68.711674 -50.388052
10.81028 66.918957 -50.490618
13.664642 84.201324 -47.764239
12.912778 85.735618 -47.154989
14.111433 85.827667 -47.25349
14.320456 82.646225 -48.280022
13.121802 82.554176 -48.181521
13.664642 84.201324 -47.764239
34.32221 56.707611 -41.311594
34.723396 58.130865 -40.441386
14.434981 40.69667 -52.006449
15.316153 42.31606 -51.833063
12.120865 42.291165 -52.470739
12.901857 41.793224 -52.318808
11.305294 42.741892 -52.55805
12.119154 44.25369 -52.351959
12.120865 42.291165 -52.470739
10.555058 43.217699 -52.662194
11.305294 42.741892 -52.55805
25.693718 97.809296 -35.163666
24.734513 98.354317 -35.770983
26.247474 96.499211 -35.954008
25.693718 97.809296 -35.163666
26.518462 97.290867 -34.495847
31.50382 89.836017 -29.438215
31.081097 91.398403 -28.721546
31.560388 90.359016 -27.768524
31.965443 88.136734 -29.982575
31.486151 89.17612 -30.935598
31.50382 89.836017 -29.438215
32.41165 86.28978 -30.612955
31.965443 88.136734 -29.982575
8.511999 49.63732 -52.029552
8.286124 51.337295 -51.824489
9.237424 51.189901 -51.889839
8.73211 47.992729 -52.282061
8.511999 49.63732 -52.029552
8.815945 46.059317 -52.491171
8.73211 47.992729 -52.282061
9.547134 47.556512 -52.304012
8.969344 44.21616 -52.743359
8.815945 46.059317 -52.491171
22.927515 44.066961 -49.791429
23.899443 45.949728 -49.560329
23.709153 43.378868 -49.407858
21.941266 42.130161 -49.988707
22.131555 44.701021 -50.141178
22.927515 44.066961 -49.791429
20.938837 40.382698 -50.191315
21.941266 42.130161 -49.988707
12.542499 72.382053 -50.110419
11.932465 70.585472 -50.251724
13.67029 72.548194 -50.221647
12.542499 72.382053 -50.110419
13.126934 74.135647 -49.933373
7.116303 95.944812 -40.034294
6.097518 96.471405 -39.08424
7.547329 97.093776 -39.16972
8.120631 95.190582 -41.036659
7.116303 95.944812 -40.034294
13.569056 92.979191 -43.858194
12.667454 94.078434 -43.026896
14.075035 94.370712 -43.00658
13.146238 91.513004 -44.643999
13.569056 92.979191 -43.858194
14.553819 91.805283 -44.623684
12.79457 90.011353 -45.383043
13.146238 91.513004 -44.643999
13.745286 88.850528 -46.026865
12.408854 88.522785 -46.000419
12.79457 90.011353 -45.383043
34.531121 60.497864 -40.423721
34.056013 61.370268 -41.236529
34.365553 62.815943 -40.359644
34.723396 58.130865 -40.441386
34.531121 60.497864 -40.423721
26.935533 99.389038 -29.876652
27.085911 99.908299 -28.193648
27.574818 98.054303 -30.734049
26.777578 98.823712 -31.478926
26.935533 99.389038 -29.876652
29.164548 97.179039 -25.64638
28.5316 98.140564 -26.537245
29.663907 95.799283 -26.567312
29.164548 97.179039 -25.64638
29.707726 96.197804 -24.8383
31.149057 92.309807 -25.34429
30.672375 93.369725 -26.405544
30.683768 93.758129 -24.697978
31.569542 90.815174 -26.161988
31.149057 92.309807 -25.34429
10.083419 61.585087 -50.929316
8.984619 61.486542 -50.732668
9.639796 63.353748 -50.653488
25.270085 41.959604 -48.521607
24.512486 42.686226 -48.977518
25.438682 44.535013 -48.720847
9.770872 100.007004 -36.966115
8.311846 99.426865 -37.015749
20.27076 98.544037 -38.890537
19.470453 99.691421 -37.951889
20.529648 99.643425 -37.580284
33.909258 76.68256 -35.071865
33.566811 78.688606 -34.645077
33.790005 75.736679 -36.311056
33.909258 76.68256 -35.071865
34.2456 74.53146 -35.443941
34.307555 70.222488 -37.970122
33.961911 72.424801 -37.833027
34.471991 71.383266 -36.820227
34.608107 67.99488 -38.08127
34.098027 69.036415 -39.094071
34.307555 70.222488 -37.970122
34.86013 65.656097 -38.359924
34.608107 67.99488 -38.08127
17.02996 43.443691 -51.505815
17.832562 42.963899 -51.285129
31.637504 48.444615 -44.668537
31.63618 50.944809 -44.813772
32.317211 50.143284 -44.065668
31.566765 46.017337 -44.49662
30.885734 46.818863 -45.244724
31.637504 48.444615 -44.668537
21.649645 99.362244 -37.320734
20.529648 99.643425 -37.580284
20.849339 100.509628 -36.382086
22.393718 98.2075 -38.103721
21.649645 99.362244 -37.320734
22.713408 99.073704 -36.905524
24.440106 97.4683 -37.155169
23.751888 98.804978 -36.304325
24.734513 98.354317 -35.770983
33.254442 81.572689 -32.939468
33.18094 80.741215 -34.270641
32.755425 82.824471 -33.858936
32.852226 84.379334 -31.136857
32.38835 85.566391 -32.003861
32.41165 86.28978 -30.612955
33.283865 82.408344 -31.569438
32.852226 84.379334 -31.136857
33.254442 81.572689 -32.939468
33.283865 82.408344 -31.569438
8.408867 59.762737 -50.798002
8.984619 61.486542 -50.732668
7.817625 58.061339 -50.886009
8.408867 59.762737 -50.798002
8.836998 58.016481 -51.096502
7.324494 56.464011 -50.975317
7.817625 58.061339 -50.886009
7.65455 54.69928 -51.296667
8.628652 54.60248 -51.434642
8.037447 52.986677 -51.546801
7.324494 56.464011 -50.975317
7.65455 54.69928 -51.296667
18.691039 42.418123 -51.047958
17.832562 42.963899 -51.285129
18.826277 44.647778 -51.112763
18.691039 42.418123 -51.047958
19.458607 41.673983 -50.771982
20.188883 41.005093 -50.503414
20.938837 40.382698 -50.191315
29.239475 43.291946 -46.213444
30.108604 45.046558 -45.732687
28.465518 43.798711 -46.818725
29.239475 43.291946 -46.213444
28.302779 41.389128 -46.639602
25.977191 41.152327 -48.048913
26.862552 42.852142 -47.754909
26.643462 40.196078 -47.538887
25.270085 41.959604 -48.521607
25.977191 41.152327 -48.048913
10.20545 65.121601 -50.580011
9.639796 63.353748 -50.653488
11.343425 65.249649 -50.760742
10.20545 65.121601 -50.580011
10.81028 66.918957 -50.490618
12.517055 68.920803 -50.535021
11.363665 68.711674 -50.388052
11.932465 70.585472 -50.251724
10.715445 99.336304 -38.091032
9.770872 100.007004 -36.966115
18.326211 99.650398 -38.30292
19.470453 99.691421 -37.951889
17.050693 99.593502 -38.573752
18.326211 99.650398 -38.30292
17.936046 98.535137 -39.532974
15.79445 99.379673 -38.868296
17.050693 99.593502 -38.573752
14.495885 99.208427 -38.995838
15.79445 99.379673 -38.868296
15.361963 98.306995 -39.931348
13.084744 98.954826 -39.057778
14.495885 99.208427 -38.995838
11.726869 98.519337 -39.210831
13.084744 98.954826 -39.057778
12.705523 97.70026 -40.211945
10.336225 98.081738 -39.245199
10.715445 99.336304 -38.091032
11.726869 98.519337 -39.210831
9.040056 94.353325 -41.996598
8.120631 95.190582 -41.036659
9.485539 95.729927 -41.079712
11.283219 93.789792 -42.95908
11.789198 95.181312 -42.107466
12.667454 94.078434 -43.026896
9.967934 93.41814 -42.884217
11.283219 93.789792 -42.95908
9.040056 94.353325 -41.996598
9.967934 93.41814 -42.884217
11.999568 87.006977 -46.560211
12.408854 88.522785 -46.000419
11.999568 87.006977 -46.560211
12.912778 85.735618 -47.154989
12.610713 80.800987 -48.576355
13.121802 82.554176 -48.181521
13.309158 79.204681 -49.030449
12.610713 80.800987 -48.576355
14.035375 77.589684 -49.440693
13.309158 79.204681 -49.030449
14.503833 79.384079 -49.107548
14.742387 76.035435 -49.781197
13.547712 75.856037 -49.704098
14.035375 77.589684 -49.440693
33.427965 53.759546 -42.79365
32.909822 51.93654 -43.453938
32.83403 54.466484 -43.550615
33.887507 55.326262 -42.106454
33.786877 57.670839 -42.095467
34.32221 56.707611 -41.311594
33.427965 53.759546 -42.79365
33.887507 55.326262 -42.106454
34.619619 64.376173 -39.376028
34.86013 65.656097 -38.359924
16.233829 44.023009 -51.67547
17.171669 45.772871 -51.519588
17.02996 43.443691 -51.505815
15.457862 44.645239 -51.846836
16.233829 44.023009 -51.67547
15.316153 42.31606 -51.833063
13.704587 41.360888 -52.188698
14.434981 40.69667 -52.006449
13.737456 43.370627 -52.134539
13.704587 41.360888 -52.188698
12.901857 41.793224 -52.318808
9.718751 43.67704 -52.69912
10.467277 45.163759 -52.476197
10.555058 43.217699 -52.662194
8.969344 44.21616 -52.743359
9.718751 43.67704 -52.69912
3 0 50 48
3 1 53 51
3 2 56 54
3 2 58 56
3 2 60 58
3 3 203 204
3 3 205 207
3 205 62 206
3 205 206 207
3 3 64 62
3 209 208 65
3 5 69 67
3 5 70 69
3 6 73 71
3 211 210 74
3 212 77 213
3 8 214 215
3 8 216 218
3 216 78 217
3 216 217 218
3 9 81 79
3 9 82 81
3 9 84 82
3 10 87 85
3 10 89 87
3 10 91 89
3 11 94 92
3 11 96 94
3 4 99 97
3 12 102 100
3 12 104 102
3 12 219 221
3 221 220 104
3 219 220 221
3 7 108 106
3 222 109 223
3 224 111 225
3 226 225 109
3 224 225 226
3 227 112 228
3 230 229 112
3 14 115 113
3 16 116 49
3 16 117 116
3 17 120 118
3 19 121 52
3 19 122 121
3 20 125 123
3 22 126 55
3 22 127 126
3 22 129 127
3 24 130 57
3 24 131 130
3 24 133 131
3 26 134 59
3 26 135 134
3 231 138 232
3 233 232 136
3 231 232 233
3 234 139 235
3 237 236 139
3 239 238 140
3 240 142 241
3 28 143 61
3 28 144 143
3 28 146 144
3 30 147 63
3 30 148 147
3 13 149 110
3 31 150 66
3 31 151 150
3 31 152 151
3 15 153 114
3 243 242 68
3 32 156 154
3 34 157 72
3 34 158 157
3 18 159 119
3 35 160 75
3 35 161 160
3 35 244 246
3 246 245 161
3 244 245 246
3 247 162 248
3 249 248 141
3 247 248 249
3 250 163 251
3 253 252 163
3 254 164 255
3 36 165 76
3 36 166 165
3 21 167 124
3 37 168 80
3 37 169 168
3 37 170 169
3 38 256 258
3 258 257 83
3 256 257 258
3 38 259 261
3 259 171 260
3 259 260 261
3 23 172 128
3 39 173 86
3 39 174 173
3 39 175 174
3 40 176 88
3 40 177 176
3 40 178 177
3 41 179 90
3 41 180 179
3 25 181 132
3 42 182 93
3 42 183 182
3 42 184 183
3 43 185 95
3 43 186 185
3 29 187 145
3 44 188 98
3 44 189 188
3 27 190 137
3 45 191 101
3 45 192 191
3 45 193 192
3 46 194 103
3 46 195 194
3 46 196 195
3 263 262 105
3 33 197 155
3 47 198 107
3 47 199 198
3 264 200 265
3 266 201 267
3 268 202 269
3 270 269 201
3 268 269 270
3 272 271 202
3 48 49 14
3 50 49 48
3 50 16 49
3 51 52 17
3 53 52 51
3 53 19 52
3 54 55 20
3 56 55 54
3 56 22 55
3 56 57 22
3 58 57 56
3 58 24 57
3 58 59 24
3 60 59 58
3 60 26 59
3 273 61 274
3 62 275 277
3 275 61 276
3 275 276 277
3 62 28 61
3 62 63 28
3 64 63 62
3 64 30 63
3 65 66 13
3 278 66 279
3 280 279 65
3 278 279 280
3 281 31 282
3 283 282 66
3 281 282 283
3 285 284 31
3 67 68 15
3 69 68 67
3 69 286 288
3 288 287 68
3 286 287 288
3 69 289 290
3 70 291 293
3 293 292 69
3 291 292 293
3 70 294 295
3 71 72 32
3 73 72 71
3 73 34 72
3 74 75 18
3 296 75 297
3 298 297 74
3 296 297 298
3 299 35 300
3 301 300 75
3 299 300 301
3 303 302 35
3 304 76 305
3 77 306 308
3 306 76 307
3 306 307 308
3 77 36 76
3 78 309 311
3 309 310 311
3 78 312 313
3 79 80 21
3 81 80 79
3 81 37 80
3 81 314 316
3 316 315 37
3 314 315 316
3 82 317 319
3 319 318 81
3 317 318 319
3 82 320 321
3 82 322 324
3 322 83 323
3 322 323 324
3 84 83 82
3 84 38 83
3 85 86 23
3 87 86 85
3 87 39 86
3 87 88 39
3 89 88 87
3 89 40 88
3 89 90 40
3 91 90 89
3 91 41 90
3 92 93 25
3 94 93 92
3 94 42 93
3 94 95 42
3 96 95 94
3 96 43 95
3 97 98 29
3 99 98 97
3 99 44 98
3 100 101 27
3 102 101 100
3 102 45 101
3 102 103 45
3 104 103 102
3 104 46 103
3 104 105 46
3 325 105 326
3 327 326 104
3 325 326 327
3 329 328 105
3 106 107 33
3 108 107 106
3 108 47 107
3 109 330 331
3 109 332 334
3 332 3 333
3 332 333 334
3 109 110 3
3 111 110 109
3 111 13 110
3 335 111 336
3 112 337 339
3 337 111 338
3 337 338 339
3 112 13 111
3 112 65 13
3 340 65 341
3 342 341 112
3 340 341 342
3 344 343 65
3 113 345 347
3 345 114 346
3 345 346 347
3 115 114 113
3 115 15 114
3 49 115 14
3 116 115 49
3 116 15 115
3 116 67 15
3 117 67 116
3 117 5 67
3 118 119 6
3 120 119 118
3 120 18 119
3 52 120 17
3 121 120 52
3 121 18 120
3 121 74 18
3 122 74 121
3 122 348 350
3 350 349 74
3 348 349 350
3 351 8 352
3 123 353 355
3 353 124 354
3 353 354 355
3 125 124 123
3 125 21 124
3 55 125 20
3 126 125 55
3 126 21 125
3 126 79 21
3 127 79 126
3 127 9 79
3 127 128 9
3 129 128 127
3 129 23 128
3 57 129 22
3 130 129 57
3 130 23 129
3 130 85 23
3 131 85 130
3 131 10 85
3 131 132 10
3 133 132 131
3 133 25 132
3 59 133 24
3 134 133 59
3 134 25 133
3 134 92 25
3 135 92 134
3 135 11 92
3 136 137 4
3 138 137 136
3 138 27 137
3 356 138 357
3 139 358 360
3 358 138 359
3 358 359 360
3 139 27 138
3 139 100 27
3 361 100 362
3 363 362 139
3 361 362 363
3 364 12 365
3 366 365 100
3 364 365 366
3 368 367 12
3 370 369 7
3 140 141 1
3 371 141 372
3 373 372 140
3 371 372 373
3 376 375 141
3 374 375 376
3 377 123 378
3 377 378 379
3 142 380 382
3 380 123 381
3 380 381 382
3 142 20 123
3 61 383 385
3 383 142 384
3 383 384 385
3 143 142 61
3 143 20 142
3 143 54 20
3 144 54 143
3 144 2 54
3 144 145 2
3 146 145 144
3 146 29 145
3 63 146 28
3 147 146 63
3 147 29 146
3 147 97 29
3 148 97 147
3 148 4 97
3 110 64 3
3 149 64 110
3 149 30 64
3 66 149 13
3 150 149 66
3 150 30 149
3 150 148 30
3 151 148 150
3 151 4 148
3 151 136 4
3 152 136 151
3 152 386 388
3 388 387 136
3 386 387 388
3 389 152 390
3 391 390 31
3 389 390 391
3 392 152 393
3 395 394 152
3 114 396 397
3 153 398 400
3 400 399 114
3 398 399 400
3 153 401 402
3 68 153 15
3 403 153 404
3 405 404 68
3 403 404 405
3 407 406 153
3 154 155 0
3 156 155 154
3 156 33 155
3 72 156 32
3 157 156 72
3 157 33 156
3 157 106 33
3 158 106 157
3 158 7 106
3 119 73 6
3 159 73 119
3 159 34 73
3 75 159 18
3 160 159 75
3 160 34 159
3 160 158 34
3 161 158 160
3 161 7 158
3 161 408 410
3 410 409 7
3 408 409 410
3 412 411 161
3 414 413 35
3 141 53 1
3 162 53 141
3 162 19 53
3 415 162 416
3 163 417 419
3 417 162 418
3 417 418 419
3 163 19 162
3 163 122 19
3 420 122 421
3 422 421 163
3 420 421 422
3 424 423 122
3 425 113 426
3 164 427 429
3 427 113 428
3 427 428 429
3 164 14 113
3 76 430 432
3 430 164 431
3 430 431 432
3 165 164 76
3 165 14 164
3 165 48 14
3 166 48 165
3 166 0 48
3 433 8 434
3 124 435 436
3 167 437 439
3 439 438 124
3 437 438 439
3 167 440 441
3 80 167 21
3 168 167 80
3 168 442 444
3 444 443 167
3 442 443 444
3 168 445 446
3 169 447 449
3 449 448 168
3 447 448 449
3 169 450 452
3 450 8 451
3 450 451 452
3 169 78 8
3 170 78 169
3 170 453 455
3 455 454 78
3 453 454 455
3 456 170 457
3 458 457 37
3 456 457 458
3 459 170 460
3 462 461 170
3 83 463 464
3 466 465 83
3 171 467 468
3 171 469 470
3 128 84 9
3 172 84 128
3 172 38 84
3 86 172 23
3 173 172 86
3 173 38 172
3 173 171 38
3 174 171 173
3 174 471 473
3 473 472 171
3 471 472 473
3 174 474 476
3 474 77 475
3 474 475 476
3 175 77 174
3 175 36 77
3 88 175 39
3 176 175 88
3 176 36 175
3 176 166 36
3 177 166 176
3 177 0 166
3 177 154 0
3 178 154 177
3 178 32 154
3 90 178 40
3 179 178 90
3 179 32 178
3 179 71 32
3 180 71 179
3 180 6 71
3 132 91 10
3 181 91 132
3 181 41 91
3 93 181 25
3 182 181 93
3 182 41 181
3 182 180 41
3 183 180 182
3 183 6 180
3 183 118 6
3 184 118 183
3 184 17 118
3 95 184 42
3 185 184 95
3 185 17 184
3 185 51 17
3 186 51 185
3 186 1 51
3 145 60 2
3 187 60 145
3 187 26 60
3 98 187 29
3 188 187 98
3 188 26 187
3 188 135 26
3 189 135 188
3 189 11 135
3 137 99 4
3 190 99 137
3 190 44 99
3 101 190 27
3 191 190 101
3 191 44 190
3 191 189 44
3 192 189 191
3 192 11 189
3 192 96 11
3 193 96 192
3 193 43 96
3 103 193 45
3 194 193 103
3 194 43 193
3 194 186 43
3 195 186 194
3 195 1 186
3 195 140 1
3 196 140 195
3 196 477 479
3 479 478 140
3 477 478 479
3 105 196 46
3 480 196 481
3 482 481 105
3 480 481 482
3 484 483 196
3 486 485 12
3 155 50 0
3 197 50 155
3 197 16 50
3 107 197 33
3 198 197 107
3 198 16 197
3 198 117 16
3 199 117 198
3 199 5 117
3 487 108 488
3 489 488 7
3 487 488 489
3 200 490 492
3 490 108 491
3 490 491 492
3 200 47 108
3 493 200 494
3 201 495 497
3 495 200 496
3 495 496 497
3 201 47 200
3 201 199 47
3 202 199 201
3 202 5 199
3 202 70 5
3 498 70 499
3 500 499 202
3 498 499 500
3 502 501 70
