ply
format ascii 1.0
element vertex 550
property float x
property float y
property float z
element face 589
property list uchar int vertex_index
end_header
-18.978903 31.235666 -55.964214
-40.892967 -4.314759 -44.579628
-35.71254 5.955745 -33.671429
-41.078243 -6.745286 -36.599899
-35.62368 12.578288 -43.489056
-29.845926 20.081015 -45.774113
-20.395658 28.423046 -65.288147
-22.979025 26.330202 -46.457176
-39.240383 -2.015003 -32.002193
-39.374805 3.492263 -40.35334
-38.449287 7.455056 -49.990658
-26.437347 25.807159 -56.593014
-30.468935 16.556572 -40.355495
-41.366756 -10.273982 -41.831375
-37.71714 2.026229 -32.794827
-39.435688 0.749735 -35.940037
-37.850533 5.252274 -37.116966
-34.718033 15.661375 -48.927128
-37.1945 10.985902 -47.233059
-21.283123 29.123161 -51.259705
-24.901787 26.412086 -51.858982
-22.619364 28.788076 -56.704132
-20.777428 25.31465 -68.741577
-24.44957 25.215597 -65.214546
-41.400963 -11.167083 -37.714474
-41.075302 -5.427233 -40.516647
-33.269669 9.425369 -34.350468
-35.81068 9.522044 -38.487129
-33.331966 13.245205 -39.56628
-32.952892 16.664684 -45.039085
-31.885509 19.619295 -50.279228
-16.513315 28.152 -68.402946
-19.582142 29.372225 -46.121399
-17.705412 31.926714 -50.551952
-15.367661 33.638031 -54.621101
-35.259209 2.260363 -29.226114
-32.811111 5.731169 -29.798031
-40.433952 -3.765021 -34.538658
-40.461449 -1.583443 -38.477871
-40.36562 0.200357 -43.033047
-37.751331 8.238634 -42.008495
-39.123188 5.649806 -45.004761
-39.93689 1.782361 -47.414135
-26.389599 23.446167 -46.585667
-28.542383 23.231081 -51.411133
-30.134697 22.172674 -55.720894
-23.640783 27.622568 -61.34885
-27.601126 24.130507 -60.793674
-41.171169 -7.216521 -43.218262
-36.80022 4.049635 -33.293846
-37.852345 3.643771 -34.963711
-36.9188 5.703595 -35.494644
-34.178158 16.815443 -51.749401
-35.544605 14.501575 -50.655506
-20.237146 30.276564 -53.75568
-21.963499 29.052063 -54.040504
-20.753042 30.070211 -56.497902
-22.740875 23.56275 -68.607918
-41.231068 -9.21704 -35.415405
-41.359913 -11.29455 -35.95623
-41.264301 -8.744244 -37.253216
-41.280666 -8.330132 -39.068043
-41.091457 -6.063686 -38.526081
-32.006485 11.133998 -34.869263
-33.401669 11.360118 -36.9771
-31.971571 13.089235 -37.356922
-30.181252 18.418833 -43.061447
-31.727417 16.736208 -42.641525
-31.474077 18.379986 -45.410995
-32.485943 18.194319 -47.61813
-30.929216 19.993189 -48.09679
-16.588095 26.495237 -69.866791
-18.795174 30.693476 -48.562763
-15.004953 34.127617 -52.181789
-13.740808 34.762047 -54.135967
-36.324051 0.47145 -28.958637
-40.380497 -4.879296 -32.820217
-39.881004 -2.57876 -33.388493
-39.443592 2.127249 -38.120739
-40.041492 -0.385984 -37.239525
-40.003685 0.905235 -39.438499
-40.447578 -0.683244 -40.642769
-39.980598 1.806566 -41.617126
-35.817028 10.984971 -40.881687
-36.886391 8.948271 -40.239307
-36.708614 10.580544 -42.867329
-37.869534 9.457439 -48.770527
-38.249348 8.354552 -46.210255
-38.80175 6.758472 -47.526718
-39.592838 3.867786 -46.317577
-39.282852 4.575381 -48.739433
-25.286346 23.243479 -44.04443
-24.671541 24.942541 -46.663124
-25.653883 26.275723 -54.36116
-26.700317 24.914463 -51.749317
-27.479725 24.688931 -54.027073
-29.257669 22.992296 -53.672691
-28.275146 24.120434 -56.292229
-22.030729 28.145332 -63.526058
-26.357977 23.291567 -64.944374
-26.09791 24.82729 -63.032444
-27.88802 22.89959 -62.784714
-29.464836 22.044754 -60.429657
-41.046635 -7.487441 -34.674236
-28.606438 20.044893 -43.481243
-41.476997 -13.180511 -40.05032
-38.528267 -0.05176 -32.306358
-39.32312 -0.430967 -33.991886
-38.638462 1.549098 -34.373512
-38.687191 3.059661 -36.505051
-38.701275 4.473219 -38.748886
-35.240433 14.158099 -46.117165
-36.531174 11.853601 -45.417568
-36.070374 13.296434 -48.050255
-22.235195 27.778261 -48.901733
-23.992796 26.434523 -49.266933
-23.155521 27.735691 -51.623295
-23.757341 27.741024 -54.203449
-24.476732 27.408251 -56.623264
-20.49354 27.056665 -67.222649
-22.371431 26.940001 -65.427238
-22.725697 25.414749 -67.030914
-24.613796 23.479828 -66.959877
-26.572578 21.423712 -66.431396
-41.480186 -13.575704 -38.153076
-41.409321 -10.72381 -39.675499
-41.266014 -7.929244 -41.077808
-41.018883 -4.859139 -42.483898
-34.540886 7.783733 -34.096191
-35.895779 7.668418 -36.067261
-34.641201 9.613635 -36.521893
-34.642422 11.446124 -39.112057
-34.497395 13.118017 -41.56234
-32.004559 14.8902 -40.014107
-33.213245 15.056194 -42.368198
-34.330482 14.684947 -44.262466
-33.898998 16.290949 -46.987915
-33.368156 17.680769 -49.638908
-32.67646 18.983116 -52.449699
-18.365227 28.499937 -67.005722
-18.567389 26.958275 -68.649895
-21.240883 27.792826 -46.144302
-20.483887 29.204264 -48.647346
-19.499706 30.512426 -51.083267
-18.436855 31.550161 -53.33345
-16.695051 32.820965 -52.737755
-17.137104 32.436069 -55.50111
-38.322792 -1.60382 -30.343061
-37.437901 0.400145 -30.614351
-36.508656 2.345186 -31.014717
-35.481041 4.183924 -31.41391
-34.056282 4.04563 -29.512568
-34.404045 5.913373 -31.824434
-33.141586 7.507695 -32.011936
-31.806946 9.174334 -32.351921
-40.787731 -6.120586 -33.806702
-40.819618 -5.156374 -35.631004
-39.988235 -1.46048 -35.287548
-40.489208 -2.762019 -36.488548
-40.83316 -4.230248 -37.573933
-40.820168 -3.380647 -39.501835
-40.766285 -2.514736 -41.642525
-40.686184 -2.01669 -43.85548
-36.960201 7.395923 -37.922604
-37.926498 6.641074 -39.562843
-38.691589 5.791342 -41.280792
-37.547523 9.646242 -44.612942
-38.471794 7.249239 -43.728577
-39.324638 4.502365 -42.638714
-39.814529 2.962544 -43.997623
-40.234257 0.804351 -45.17667
-40.473228 -1.316062 -46.238697
-26.92244 21.648134 -43.735085
-28.065968 21.849871 -46.215202
-25.762539 24.970205 -49.233505
-27.560192 23.405191 -49.079578
-29.276018 21.705935 -48.534332
-30.231335 21.523579 -50.92799
-31.021225 21.050186 -52.990505
-31.718367 20.261372 -55.257343
-23.251936 28.283726 -58.932568
-25.237129 26.744162 -58.899155
-24.131124 26.555477 -63.361824
-25.564991 26.056959 -61.150555
-27.000448 25.178835 -58.909504
-28.899616 23.30147 -58.400822
-30.649509 21.293655 -57.88089
-40.947716 -5.550216 -45.023477
-41.086816 -7.001097 -44.342794
-41.032068 -5.76564 -43.898945
-40.778872 -4.052428 -45.711475
-40.947716 -5.550216 -45.023477
-34.517889 16.199677 -52.628679
-33.753415 17.435693 -53.036773
-31.231908 12.984148 -36.306713
-31.989028 12.111617 -36.113092
-31.249365 12.006529 -35.062883
-12.949697 35.398526 -53.672062
-13.59261 35.101317 -52.861297
-12.991256 35.005434 -54.951407
-12.949697 35.398526 -53.672062
-39.560693 -2.296882 -32.695343
-39.859834 -3.333326 -32.498212
-39.539524 -3.051448 -31.805062
-38.61572 6.445239 -50.603245
-39.032503 5.005402 -49.977632
-38.866069 6.015218 -49.365046
-23.825283 25.636371 -46.56015
-24.147053 24.807891 -45.278391
-23.300795 25.501722 -45.175417
-21.213194 28.284189 -64.407102
-20.995069 28.859685 -63.38018
-20.177534 28.998542 -64.261225
-28.065424 22.07273 -63.543602
-27.122999 23.095579 -63.864544
-27.300403 22.268719 -64.623432
-28.885801 21.746508 -62.393919
-28.065424 22.07273 -63.543602
-41.022688 -7.82782 -33.859278
-41.11528 -8.585767 -34.175384
-27.913905 19.917825 -42.188614
-28.731827 19.137028 -42.098965
-41.397108 -11.704363 -41.931297
-41.452229 -13.157627 -41.040769
-41.421876 -11.727246 -40.940848
-36.175342 13.251845 -50.228001
-35.87994 13.769576 -51.501429
-24.737913 22.459799 -67.563202
-23.677335 23.521289 -67.783897
-23.801452 22.50126 -68.387223
-25.717304 21.431741 -67.298962
-25.593187 22.45177 -66.695637
-24.737913 22.459799 -67.563202
-26.780609 20.274433 -66.891533
-25.717304 21.431741 -67.298962
-41.42149 -12.405988 -37.002188
-41.400965 -12.469721 -36.123066
-41.380438 -11.230816 -36.835352
-41.440574 -12.371393 -37.933775
-41.461101 -13.610298 -37.221489
-41.42149 -12.405988 -37.002188
-31.236747 15.723386 -40.184801
-31.258139 14.876788 -38.961285
-30.490327 15.709974 -39.131979
-16.462229 28.87258 -67.505443
-15.511287 28.694436 -68.090317
-17.439271 28.325969 -67.704334
-17.388185 29.046549 -66.806832
-16.462229 28.87258 -67.505443
-17.687221 25.787935 -69.94244
-16.650553 25.509436 -70.45971
-19.878197 28.643713 -44.82065
-19.120599 29.476563 -44.821058
-20.411513 28.582526 -46.132851
-20.707568 27.854014 -44.832102
-19.878197 28.643713 -44.82065
-15.560175 33.347721 -55.955928
-16.444896 32.74674 -56.395933
-16.252382 33.03705 -55.061105
-37.787667 -1.541179 -29.465736
-38.246601 -2.458964 -29.437444
-37.345221 -0.539196 -29.601381
-37.880347 -0.601838 -30.478706
-37.787667 -1.541179 -29.465736
-33.433696 4.8884 -29.6553
-33.317301 3.85358 -28.53635
-32.694716 4.69635 -28.679081
-31.008871 9.062137 -31.397954
-31.668692 8.247763 -31.216743
-31.084614 10.019778 -32.527288
-31.008871 9.062137 -31.397954
-40.054909 0.5208 -47.935719
-40.323078 -1.028412 -47.348
-40.205059 0.23315 -46.826416
-23.446359 27.953147 -60.140709
-22.466506 28.658177 -60.128653
-22.66093 28.327598 -61.336794
-30.982372 20.549039 -58.682417
-30.057173 21.669204 -59.155273
-30.390035 20.924589 -59.9568
-31.566011 20.090966 -57.42839
-30.982372 20.549039 -58.682417
-41.217237 -8.502479 -43.501744
-41.315031 -10.031209 -42.8083
-41.268963 -8.745252 -42.524819
-41.217237 -8.502479 -43.501744
-41.086816 -7.001097 -44.342794
-35.201112 15.042744 -52.081732
-34.861382 15.658509 -51.202454
-34.517889 16.199677 -52.628679
-35.87994 13.769576 -51.501429
-35.201112 15.042744 -52.081732
-21.786181 23.428764 -69.324105
-21.759152 24.4387 -68.674747
-20.804458 24.304713 -69.390934
-22.865418 22.406298 -69.153515
-21.786181 23.428764 -69.324105
-23.801452 22.50126 -68.387223
-22.865418 22.406298 -69.153515
-41.29549 -10.255795 -35.685817
-41.340191 -11.525454 -35.066177
-41.275768 -10.4867 -34.795765
-15.534105 27.915734 -68.883895
-15.511287 28.694436 -68.090317
-15.571495 27.087353 -69.615818
-16.550705 27.323619 -69.134869
-15.534105 27.915734 -68.883895
-15.6265 26.141116 -70.290818
-15.571495 27.087353 -69.615818
-16.650553 25.509436 -70.45971
-15.6265 26.141116 -70.290818
-18.744288 30.188794 -45.942394
-19.120599 29.476563 -44.821058
-18.350804 30.849419 -47.163077
-19.188658 30.032851 -47.342081
-18.744288 30.188794 -45.942394
-17.950659 31.443833 -48.267795
-18.350804 30.849419 -47.163077
-17.405778 32.060452 -49.26239
-18.250293 31.310095 -49.557357
-17.950659 31.443833 -48.267795
-14.224682 34.784102 -51.884208
-14.76609 34.425176 -50.907053
-14.372881 34.444832 -53.158878
-14.224682 34.784102 -51.884208
-13.59261 35.101317 -52.861297
-13.864034 34.437014 -55.395765
-14.67746 33.875006 -55.638332
-14.554234 34.200039 -54.378534
-13.864034 34.437014 -55.395765
-12.991256 35.005434 -54.951407
-36.145758 -0.405135 -27.951731
-36.788296 -0.503544 -28.773524
-35.656214 0.383935 -28.039539
-36.145758 -0.405135 -27.951731
-35.123793 1.278391 -28.173277
-35.79163 1.365906 -29.092375
-35.656214 0.383935 -28.039539
-31.987637 5.497528 -28.740172
-32.694716 4.69635 -28.679081
-32.170774 6.526181 -29.939799
-31.987637 5.497528 -28.740172
-40.109581 -4.483594 -32.214074
-40.326153 -5.441261 -31.988185
-40.13075 -3.729028 -33.104355
-40.109581 -4.483594 -32.214074
-39.859834 -3.333326 -32.498212
-39.426271 3.418044 -49.308887
-39.75329 2.021534 -48.646239
-39.609871 3.178871 -48.076784
-39.426271 3.418044 -49.308887
-39.032503 5.005402 -49.977632
-24.454456 23.95836 -43.969044
-24.623116 23.14875 -42.677761
-24.978943 24.09301 -45.353777
-24.454456 23.95836 -43.969044
-24.147053 24.807891 -45.278391
-21.855902 28.58898 -62.425398
-20.995069 28.859685 -63.38018
-22.835756 27.88395 -62.437454
-22.66093 28.327598 -61.336794
-21.855902 28.58898 -62.425398
-29.674208 21.31909 -61.216391
-28.676428 22.472172 -61.607185
-28.885801 21.746508 -62.393919
-30.390035 20.924589 -59.9568
-29.674208 21.31909 -61.216391
-41.207497 -9.450567 -34.545969
-41.275768 -10.4867 -34.795765
-41.138852 -8.352241 -35.044821
-41.207497 -9.450567 -34.545969
-41.11528 -8.585767 -34.175384
-29.731969 16.484815 -39.257795
-30.490327 15.709974 -39.131979
-29.663075 17.392868 -40.536091
-29.731969 16.484815 -39.257795
-29.519234 18.323999 -41.889066
-30.325094 17.487702 -41.708471
-29.663075 17.392868 -40.536091
-29.393845 19.231863 -43.271345
-29.519234 18.323999 -41.889066
-28.731827 19.137028 -42.098965
-41.482039 -14.619853 -40.17467
-41.490149 -14.763277 -39.229931
-41.482039 -14.619853 -40.17467
-41.452229 -13.157627 -41.040769
-41.397108 -11.704363 -41.931297
-41.315031 -10.031209 -42.8083
-36.438227 12.649275 -48.925375
-35.80749 13.899005 -49.35288
-36.175342 13.251845 -50.228001
-37.00029 11.494008 -48.516777
-36.632437 12.141168 -47.641657
-36.438227 12.649275 -48.925375
-37.337807 10.729777 -49.285511
-37.532017 10.221671 -48.001793
-37.00029 11.494008 -48.516777
-37.634163 9.905369 -50.003908
-37.337807 10.729777 -49.285511
-37.924039 8.904177 -50.613974
-38.15941 8.456247 -49.380593
-37.634163 9.905369 -50.003908
-38.15723 7.863113 -51.302372
-37.924039 8.904177 -50.613974
-27.407703 21.334792 -65.366943
-27.300403 22.268719 -64.623432
-26.465277 22.357639 -65.687885
-27.563073 20.313845 -65.980663
-27.407703 21.334792 -65.366943
-27.563073 20.313845 -65.980663
-26.780609 20.274433 -66.891533
-41.378681 -12.625225 -35.274463
-41.358959 -12.856129 -34.384411
-41.340191 -11.525454 -35.066177
-41.378681 -12.625225 -35.274463
-41.400965 -12.469721 -36.123066
-41.479717 -14.925473 -37.383059
-41.461101 -13.610298 -37.221489
-41.491743 -14.960874 -38.281309
-41.479717 -14.925473 -37.383059
-41.478592 -13.378107 -39.101698
-41.490149 -14.763277 -39.229931
-41.491743 -14.960874 -38.281309
-31.241645 13.976306 -37.632692
-31.231908 12.984148 -36.306713
-31.988065 13.989718 -38.685514
-31.241645 13.976306 -37.632692
-31.258139 14.876788 -38.961285
-33.002566 18.51953 -53.386922
-33.753415 17.435693 -53.036773
-33.427309 17.899279 -52.09955
-19.18446 31.042913 -57.284217
-18.272436 31.600008 -56.98659
-19.335731 29.050514 -65.202618
-20.177534 28.998542 -64.261225
-18.320515 29.08896 -66.061405
-17.388185 29.046549 -66.806832
-19.380443 28.461492 -66.146935
-19.335731 29.050514 -65.202618
-18.320515 29.08896 -66.061405
-18.676868 26.019454 -69.333992
-17.577742 26.726756 -69.258343
-17.687221 25.787935 -69.94244
-19.781887 25.197641 -69.379833
-19.672408 26.136463 -68.695736
-18.676868 26.019454 -69.333992
-20.804458 24.304713 -69.390934
-19.781887 25.197641 -69.379833
-22.440451 26.282635 -45.089931
-23.300795 25.501722 -45.175417
-21.571379 27.013947 -44.933495
-20.707568 27.854014 -44.832102
-22.109954 27.061514 -46.300739
-22.440451 26.282635 -45.089931
-21.571379 27.013947 -44.933495
-16.874007 32.630386 -50.373438
-17.405778 32.060452 -49.26239
-15.523777 33.730837 -51.188356
-14.76609 34.425176 -50.907053
-16.368826 33.077511 -51.466339
-15.523777 33.730837 -51.188356
-15.850002 33.474291 -52.459772
-17.200232 32.37384 -51.644853
-16.874007 32.630386 -50.373438
-16.368826 33.077511 -51.466339
-17.351537 32.200209 -56.755038
-18.272436 31.600008 -56.98659
-18.058003 31.835867 -55.732662
-17.351537 32.200209 -56.755038
-16.444896 32.74674 -56.395933
-15.560175 33.347721 -55.955928
-14.67746 33.875006 -55.638332
-39.169601 -2.781735 -31.089664
-39.539524 -3.051448 -31.805062
-38.710806 -2.576144 -30.260098
-38.246601 -2.458964 -29.437444
-38.781588 -1.809411 -31.172627
-39.169601 -2.781735 -31.089664
-38.710806 -2.576144 -30.260098
-36.880976 0.435797 -29.786494
-37.345221 -0.539196 -29.601381
-36.788296 -0.503544 -28.773524
-34.566586 2.166362 -28.34292
-35.123793 1.278391 -28.173277
-33.965122 3.058996 -28.486147
-33.317301 3.85358 -28.53635
-34.657746 3.152996 -29.369341
-34.566586 2.166362 -28.34292
-33.965122 3.058996 -28.486147
-32.336011 7.414443 -31.046751
-32.976349 6.619432 -30.904984
-32.170774 6.526181 -29.939799
-32.474266 8.341014 -32.181928
-32.336011 7.414443 -31.046751
-31.668692 8.247763 -31.216743
-31.184383 10.99961 -33.785959
-31.906715 10.154166 -33.610592
-31.084614 10.019778 -32.527288
-31.249365 12.006529 -35.062883
-31.184383 10.99961 -33.785959
-40.54533 -5.932428 -32.491552
-40.326153 -5.441261 -31.988185
-40.748947 -6.553073 -32.984795
-40.54533 -5.932428 -32.491552
-40.584114 -5.499941 -33.31346
-40.893236 -7.144392 -33.425511
-40.748947 -6.553073 -32.984795
-40.917183 -6.804013 -34.240469
-41.022688 -7.82782 -33.859278
-40.893236 -7.144392 -33.425511
-40.569002 -2.553079 -46.54101
-40.778872 -4.052428 -45.711475
-40.683098 -2.81541 -45.409163
-40.569002 -2.553079 -46.54101
-40.323078 -1.028412 -47.348
-40.054909 0.5208 -47.935719
-39.75329 2.021534 -48.646239
-38.61572 6.445239 -50.603245
-38.15723 7.863113 -51.302372
-25.466792 22.333084 -42.641253
-24.623116 23.14875 -42.677761
-26.284839 21.535411 -42.48658
-25.466792 22.333084 -42.641253
-26.104393 22.445806 -43.889758
-27.071907 20.719446 -42.315535
-26.284839 21.535411 -42.48658
-27.764439 20.846514 -43.608164
-27.913905 19.917825 -42.188614
-27.071907 20.719446 -42.315535
-32.523519 19.158658 -54.790745
-33.002566 18.51953 -53.386922
-32.197413 19.622244 -53.853521
-20.07153 30.460186 -57.551062
-19.865972 30.652938 -56.231058
-19.18446 31.042913 -57.284217
-20.97626 29.87827 -57.758949
-20.07153 30.460186 -57.551062
-21.909421 29.237203 -57.862065
-21.686203 29.429144 -56.601017
-20.97626 29.87827 -57.758949
-22.225707 28.985028 -58.976282
-22.466506 28.658177 -60.128653
-22.93565 28.535901 -57.81835
-21.909421 29.237203 -57.862065
-22.225707 28.985028 -58.976282
-32.10044 19.574824 -56.116617
-31.183938 20.777514 -56.569116
-31.566011 20.090966 -57.42839
-32.523519 19.158658 -54.790745
-32.10044 19.574824 -56.116617
3 1 187 189
3 189 188 48
3 187 188 189
3 1 190 191
3 2 51 49
3 193 192 52
3 0 56 54
3 3 60 58
3 3 62 60
3 194 65 195
3 196 195 63
3 194 195 196
3 5 68 66
3 5 70 68
3 197 74 198
3 200 199 74
3 8 201 203
3 201 77 202
3 201 202 203
3 9 80 78
3 9 82 80
3 4 85 83
3 10 88 86
3 10 90 88
3 10 204 206
3 206 205 90
3 204 205 206
3 7 207 209
3 207 92 208
3 207 208 209
3 11 95 93
3 11 97 95
3 6 210 212
3 210 98 211
3 210 211 212
3 213 101 214
3 215 214 99
3 213 214 215
3 217 216 101
3 218 103 219
3 220 104 221
3 13 222 224
3 224 223 105
3 222 223 224
3 14 108 106
3 16 109 50
3 16 110 109
3 17 113 111
3 226 225 53
3 19 116 114
3 21 117 55
3 21 118 117
3 22 121 119
3 227 122 228
3 229 228 57
3 227 228 229
3 230 123 231
3 232 231 122
3 230 231 232
3 234 233 123
3 24 235 237
3 237 236 59
3 235 236 237
3 24 238 240
3 238 124 239
3 238 239 240
3 24 125 124
3 25 126 61
3 25 127 126
3 26 130 128
3 28 131 64
3 28 132 131
3 12 241 243
3 241 133 242
3 241 242 243
3 29 134 67
3 29 135 134
3 29 136 135
3 30 137 69
3 30 138 137
3 31 244 245
3 31 246 248
3 246 139 247
3 246 247 248
3 31 140 139
3 250 249 71
3 32 251 252
3 32 253 255
3 253 141 254
3 253 254 255
3 32 142 141
3 33 143 72
3 33 144 143
3 34 145 73
3 34 146 145
3 34 256 258
3 258 257 146
3 256 257 258
3 259 147 260
3 261 148 262
3 263 262 147
3 261 262 263
3 35 149 75
3 35 150 149
3 36 264 266
3 264 151 265
3 264 265 266
3 36 152 151
3 36 153 152
3 267 154 268
3 270 269 154
3 37 155 76
3 37 156 155
3 15 157 107
3 38 158 79
3 38 159 158
3 38 160 159
3 39 161 81
3 39 162 161
3 27 163 129
3 40 164 84
3 40 165 164
3 18 166 112
3 41 167 87
3 41 168 167
3 41 169 168
3 42 170 89
3 42 171 170
3 42 271 273
3 273 272 171
3 271 272 273
3 43 172 91
3 43 173 172
3 20 174 115
3 44 175 94
3 44 176 175
3 44 177 176
3 45 178 96
3 45 179 178
3 46 274 276
3 274 180 275
3 274 275 276
3 46 181 180
3 23 182 120
3 47 183 100
3 47 184 183
3 47 185 184
3 277 186 278
3 279 278 102
3 277 278 279
3 281 280 186
3 48 282 284
3 284 283 13
3 282 283 284
3 286 285 48
3 49 50 14
3 51 50 49
3 51 16 50
3 52 53 17
3 287 53 288
3 289 288 52
3 287 288 289
3 291 290 53
3 54 55 19
3 56 55 54
3 56 21 55
3 292 57 293
3 294 293 22
3 292 293 294
3 295 57 296
3 298 297 57
3 58 299 301
3 299 59 300
3 299 300 301
3 60 59 58
3 60 24 59
3 60 61 24
3 62 61 60
3 62 25 61
3 63 64 26
3 65 64 63
3 65 28 64
3 66 67 12
3 68 67 66
3 68 29 67
3 68 69 29
3 70 69 68
3 70 30 69
3 302 31 303
3 304 71 305
3 306 305 31
3 304 305 306
3 307 71 308
3 310 309 71
3 311 32 312
3 313 72 314
3 315 314 32
3 313 314 315
3 316 72 317
3 318 33 319
3 320 319 72
3 318 319 320
3 321 73 322
3 74 323 325
3 323 73 324
3 323 324 325
3 74 34 73
3 74 326 328
3 328 327 34
3 326 327 328
3 330 329 74
3 331 75 332
3 333 75 334
3 335 35 336
3 337 336 75
3 335 336 337
3 338 36 339
3 341 340 36
3 342 76 343
3 77 344 346
3 344 76 345
3 344 345 346
3 77 37 76
3 78 79 15
3 80 79 78
3 80 38 79
3 80 81 38
3 82 81 80
3 82 39 81
3 83 84 27
3 85 84 83
3 85 40 84
3 86 87 18
3 88 87 86
3 88 41 87
3 88 89 41
3 90 89 88
3 90 42 89
3 90 347 349
3 349 348 42
3 347 348 349
3 351 350 90
3 352 91 353
3 92 354 356
3 354 91 355
3 354 355 356
3 92 43 91
3 93 94 20
3 95 94 93
3 95 44 94
3 95 96 44
3 97 96 95
3 97 45 96
3 98 357 358
3 98 359 361
3 359 46 360
3 359 360 361
3 99 100 23
3 101 100 99
3 101 47 100
3 101 102 47
3 362 102 363
3 364 363 101
3 362 363 364
3 366 365 102
3 367 58 368
3 103 369 371
3 369 58 370
3 369 370 371
3 103 3 58
3 372 12 373
3 374 12 375
3 376 66 377
3 378 377 12
3 376 377 378
3 104 379 381
3 379 66 380
3 379 380 381
3 104 5 66
3 105 382 383
3 385 384 105
3 387 386 13
3 106 107 8
3 108 107 106
3 108 15 107
3 50 108 14
3 109 108 50
3 109 15 108
3 109 78 15
3 110 78 109
3 110 9 78
3 111 112 4
3 113 112 111
3 113 18 112
3 53 113 17
3 388 113 389
3 390 389 53
3 388 389 390
3 391 18 392
3 393 392 113
3 391 392 393
3 394 86 395
3 396 395 18
3 394 395 396
3 397 86 398
3 399 10 400
3 401 400 86
3 399 400 401
3 403 402 10
3 114 115 7
3 116 115 114
3 116 20 115
3 55 116 19
3 117 116 55
3 117 20 116
3 117 93 20
3 118 93 117
3 118 11 93
3 119 120 6
3 121 120 119
3 121 23 120
3 57 121 22
3 122 121 57
3 122 23 121
3 122 99 23
3 123 99 122
3 123 404 406
3 406 405 99
3 404 405 406
3 123 407 408
3 410 409 123
3 59 411 413
3 411 412 413
3 415 414 59
3 124 416 417
3 124 418 419
3 124 420 422
3 420 105 421
3 420 421 422
3 125 105 124
3 125 13 105
3 61 125 24
3 126 125 61
3 126 13 125
3 126 48 13
3 127 48 126
3 127 1 48
3 128 129 2
3 130 129 128
3 130 27 129
3 64 130 26
3 131 130 64
3 131 27 130
3 131 83 27
3 132 83 131
3 132 4 83
3 423 65 424
3 133 425 427
3 425 65 426
3 425 426 427
3 133 28 65
3 67 133 12
3 134 133 67
3 134 28 133
3 134 132 28
3 135 132 134
3 135 4 132
3 135 111 4
3 136 111 135
3 136 17 111
3 69 136 29
3 137 136 69
3 137 17 136
3 137 52 17
3 138 52 137
3 138 428 430
3 430 429 52
3 428 429 430
3 432 431 0
3 433 6 434
3 139 435 436
3 139 437 439
3 437 6 438
3 437 438 439
3 139 119 6
3 140 119 139
3 140 22 119
3 71 140 31
3 440 140 441
3 442 441 71
3 440 441 442
3 443 22 444
3 445 444 140
3 443 444 445
3 447 446 22
3 448 7 449
3 141 450 451
3 141 452 454
3 452 7 453
3 452 453 454
3 141 114 7
3 142 114 141
3 142 19 114
3 72 142 32
3 143 142 72
3 143 19 142
3 143 54 19
3 144 54 143
3 144 0 54
3 455 33 456
3 73 457 458
3 145 459 461
3 461 460 73
3 459 460 461
3 145 462 464
3 462 33 463
3 462 463 464
3 145 144 33
3 146 144 145
3 146 0 144
3 146 465 467
3 467 466 0
3 465 466 467
3 469 468 146
3 471 470 34
3 472 8 473
3 147 474 475
3 147 476 478
3 476 8 477
3 476 477 478
3 147 106 8
3 148 106 147
3 148 14 106
3 75 479 481
3 479 148 480
3 479 480 481
3 149 148 75
3 149 14 148
3 149 49 14
3 150 49 149
3 150 2 49
3 482 35 483
3 151 484 485
3 151 486 488
3 486 35 487
3 486 487 488
3 151 150 35
3 152 150 151
3 152 2 150
3 152 128 2
3 153 128 152
3 153 26 128
3 489 153 490
3 491 490 36
3 489 490 491
3 154 492 494
3 492 153 493
3 492 493 494
3 154 26 153
3 154 63 26
3 495 63 496
3 497 496 154
3 495 496 497
3 499 498 63
3 76 500 501
3 155 502 504
3 504 503 76
3 502 503 504
3 155 505 506
3 155 507 509
3 507 103 508
3 507 508 509
3 156 103 155
3 156 3 103
3 107 77 8
3 157 77 107
3 157 37 77
3 79 157 15
3 158 157 79
3 158 37 157
3 158 156 37
3 159 156 158
3 159 3 156
3 159 62 3
3 160 62 159
3 160 25 62
3 81 160 38
3 161 160 81
3 161 25 160
3 161 127 25
3 162 127 161
3 162 1 127
3 129 51 2
3 163 51 129
3 163 16 51
3 84 163 27
3 164 163 84
3 164 16 163
3 164 110 16
3 165 110 164
3 165 9 110
3 112 85 4
3 166 85 112
3 166 40 85
3 87 166 18
3 167 166 87
3 167 40 166
3 167 165 40
3 168 165 167
3 168 9 165
3 168 82 9
3 169 82 168
3 169 39 82
3 89 169 41
3 170 169 89
3 170 39 169
3 170 162 39
3 171 162 170
3 171 1 162
3 171 510 512
3 512 511 1
3 510 511 512
3 514 513 171
3 516 515 42
3 518 517 10
3 91 519 520
3 172 521 523
3 523 522 91
3 521 522 523
3 172 524 525
3 172 526 528
3 526 104 527
3 526 527 528
3 173 104 172
3 173 5 104
3 115 92 7
3 174 92 115
3 174 43 92
3 94 174 20
3 175 174 94
3 175 43 174
3 175 173 43
3 176 173 175
3 176 5 173
3 176 70 5
3 177 70 176
3 177 30 70
3 96 177 44
3 178 177 96
3 178 30 177
3 178 138 30
3 179 138 178
3 179 529 531
3 531 530 138
3 529 530 531
3 532 56 533
3 534 533 0
3 532 533 534
3 535 56 536
3 537 21 538
3 539 538 56
3 537 538 539
3 180 540 541
3 180 542 544
3 542 21 543
3 542 543 544
3 180 118 21
3 181 118 180
3 181 11 118
3 120 98 6
3 182 98 120
3 182 46 98
3 100 182 23
3 183 182 100
3 183 46 182
3 183 181 46
3 184 181 183
3 184 11 181
3 184 97 11
3 185 97 184
3 185 45 97
3 102 185 47
3 186 185 102
3 186 45 185
3 186 179 45
3 545 179 546
3 547 546 186
3 545 546 547
3 549 548 179
