ply
format ascii 1.0
element vertex 418
property float x
property float y
property float z
element face 431
property list uchar int vertex_index
end_header
38.945908 -7.819839 16.255924
38.110451 -0.652609 9.128608
40.348381 1.189379 15.894937
35.711483 -11.526642 29.877764
27.088085 -1.158599 -1.198447
32.998184 -1.564164 3.360689
35.7878 -9.424891 9.080898
38.208801 -16.130535 15.1835
38.79641 -5.076818 23.140644
38.530899 -14.04398 23.067318
30.888863 -13.904076 34.95116
38.654209 -4.304078 12.584405
36.821781 -5.21656 9.288454
37.69585 -8.889683 12.637546
37.150036 -12.804285 12.183049
38.375916 -12.095333 15.889577
37.534569 -12.759953 26.590254
28.948654 -5.515916 0.69325
26.596697 -4.785892 -1.589813
39.74469 0.29053 12.513978
39.701321 -3.108794 16.091404
35.4506 -6.958923 29.90601
33.329311 -10.23651 32.731285
29.908033 -1.441556 0.850272
31.657686 -5.744719 3.254996
35.831001 -1.167922 6.095695
34.388554 -5.729676 6.148092
39.750164 -1.982534 19.446928
39.331604 -6.453826 19.832289
37.419594 -8.181157 26.79077
38.624672 -9.635056 23.386364
38.939919 -11.015186 19.858425
38.721561 -15.286298 19.16494
24.538118 -0.401967 -3.134582
38.845211 -6.061475 14.4444
38.164898 -6.567317 12.686192
38.414509 -8.310732 14.391503
38.091167 -10.510106 14.332631
38.616863 -10.10103 16.136883
40.178173 0.781147 14.18326
39.727001 -1.548703 14.196312
40.043327 -0.959059 15.948065
33.250893 -7.997907 32.660397
32.02327 -9.824326 34.018089
32.39323 0.901332 2.032899
30.78701 0.964791 0.828085
31.502377 -1.545696 2.095177
30.732576 -3.753663 2.028727
32.263264 -3.841157 3.394451
37.069927 -0.832405 7.557102
36.25042 -7.293064 9.213516
35.66082 -5.395408 7.640886
35.06863 -7.661708 7.569407
33.82225 -7.682422 5.961325
34.67244 -9.58359 7.393773
35.529255 -11.341099 8.871171
37.700554 -14.523726 13.611208
37.061886 -14.737959 11.691526
38.782658 -2.924424 23.144463
39.307339 -3.564208 21.339325
39.552769 -4.186754 19.633673
39.180798 -5.798691 21.454426
35.637115 -9.295837 29.880209
36.559643 -7.509757 28.308546
36.643063 -9.892589 28.357651
38.137447 -13.500573 24.842899
38.109192 -11.114757 25.124498
38.552647 -11.945884 23.345957
38.89048 -10.308393 21.647802
38.798019 -12.504244 21.394291
38.800026 -13.320929 19.638405
38.719547 -14.74004 21.257984
25.752701 -0.83113 -2.185918
30.73094 -11.555617 35.202072
33.888168 0.754244 3.333774
38.409847 -2.534293 10.832504
37.497189 -3.046032 9.355732
37.823395 -4.950696 10.999256
37.281315 -7.068265 10.951294
36.787876 -9.093563 10.760617
36.535145 -11.131705 10.7171
37.371082 -10.841258 12.485431
37.829258 -12.560001 14.021667
38.227909 -14.100849 15.564597
38.167236 -4.328773 24.823301
36.688583 -12.252232 28.324415
38.119419 -15.687 24.615988
38.501205 -16.25515 22.771931
27.985928 -3.512352 -0.249628
26.669008 -3.058315 -1.359213
27.702845 -5.306517 -0.502575
39.032433 -0.181984 10.755263
39.178867 -2.013075 12.460893
39.293644 -3.719681 14.315279
39.310135 -5.534596 16.261997
34.444695 -8.590429 31.368855
34.511032 -10.859467 31.429171
32.192974 -12.173218 33.87899
33.520573 -12.568441 32.556362
34.740925 -13.169407 31.153397
27.610588 1.057697 -1.258756
29.132748 0.963836 -0.280491
28.412109 -1.439984 -0.223123
29.317749 -3.723047 0.853246
30.267679 -5.705458 1.929797
35.315113 1.050275 4.591131
34.509418 -1.429938 4.748814
36.392445 -3.178347 7.7136
35.098541 -3.503428 6.197574
33.652554 -3.750716 4.710114
33.07336 -5.913497 4.725661
36.377048 -13.053329 10.405742
40.099205 -0.332428 17.674252
39.835945 -2.624149 17.813074
39.533897 -4.966807 18.025185
39.255688 -7.183044 18.122614
36.412807 -5.318897 28.25939
37.376614 -5.810741 26.65959
38.134933 -6.599848 25.063169
37.456585 -10.478143 26.808674
38.078991 -8.993787 25.265894
38.673798 -7.302414 23.445993
39.023575 -7.9692 21.662672
39.127281 -8.665726 19.876577
38.991837 -9.387856 18.049391
38.77763 -11.60925 17.973093
38.616379 -13.606516 17.608114
38.53907 -15.651011 17.156298
38.702461 -16.772362 20.740364
38.708126 -17.26754 18.676058
25.522493 -2.700669 -2.370523
40.263277 0.985263 15.039099
40.348786 1.894598 14.104999
40.43389 2.098714 14.960838
31.293115 -9.605792 34.679318
31.94873 -8.640849 34.01083
37.590189 -0.742507 8.342855
37.446321 0.305461 7.546704
37.966583 0.395359 8.332457
37.9416 -16.196917 14.082302
37.687477 -15.393513 13.296156
37.954678 -15.32713 14.397354
38.208164 -16.956105 14.767917
37.9416 -16.196917 14.082302
26.420393 -0.994865 -1.692182
25.994649 0.231976 -2.165488
26.662341 0.068242 -1.671753
34.320383 2.07674 3.232059
33.608095 2.034251 2.640821
37.74403 -4.002262 25.637765
38.146889 -3.220796 24.718167
37.852907 -16.537805 25.288109
37.816876 -15.404864 25.534374
38.122912 -16.799107 24.411868
37.852907 -16.537805 25.288109
39.709903 1.279738 11.650658
39.979301 1.471454 12.450049
39.388561 0.054273 11.634621
39.353775 1.043481 10.7713
39.709903 1.279738 11.650658
33.545206 -13.751669 32.471382
32.94997 -13.463108 33.081103
34.155382 -14.052152 31.769899
34.130749 -12.868924 31.854879
33.545206 -13.751669 32.471382
34.76691 -14.383779 31.046102
34.155382 -14.052152 31.769899
27.983949 2.258794 -1.318465
27.260997 2.305039 -1.73004
31.510903 -6.733737 3.20686
30.815899 -6.714106 2.544261
30.962682 -5.725089 2.592396
35.573057 -0.058823 5.343413
35.962196 1.184519 5.262453
36.22014 0.075421 6.014736
33.210161 -7.763042 5.252171
33.713661 -8.721179 5.934522
36.694891 -14.77621 10.747941
37.088457 -15.598277 11.359922
39.832487 -0.816797 19.343273
39.581716 -1.629501 20.291328
39.924684 -1.157481 18.56059
40.007008 0.008256 18.456935
39.832487 -0.816797 19.343273
35.931703 -6.13891 29.0827
35.873102 -4.939589 28.970796
35.391998 -5.759602 29.794106
38.618642 -17.604553 21.427944
38.601833 -16.513756 21.756147
38.518014 -17.345947 22.443728
38.726494 -18.172725 18.300587
38.720185 -18.035813 19.3472
38.625117 -17.470421 17.581773
38.726494 -18.172725 18.300587
24.084218 0.835174 -3.519872
24.704262 0.617692 -3.087541
23.982487 -0.130451 -3.616153
24.084218 0.835174 -3.519872
28.900793 -6.391391 0.55571
29.495391 -6.522714 1.208353
40.196043 1.716763 13.28469
40.348786 1.894598 14.104999
39.961432 0.535838 13.348619
39.979301 1.471454 12.450049
40.196043 1.716763 13.28469
32.562542 -7.72764 33.331984
33.156773 -6.913719 32.624751
32.637081 -8.911116 33.339243
32.562542 -7.72764 33.331984
31.94873 -8.640849 34.01083
31.634116 -14.130926 34.278502
30.96019 -15.092035 34.768137
31.59012 0.933061 1.430492
31.260326 2.124967 0.802709
32.063437 2.093237 1.405115
36.839603 0.24318 6.745439
37.446321 0.305461 7.546704
36.450464 -1.000163 6.826398
36.22014 0.075421 6.014736
36.839603 0.24318 6.745439
34.138756 -9.671763 6.650746
33.713661 -8.721179 5.934522
34.247345 -8.633006 6.677549
34.578171 -10.551388 7.254608
34.138756 -9.671763 6.650746
35.006579 -11.430143 7.993307
34.578171 -10.551388 7.254608
35.100848 -10.462345 8.132472
35.486727 -12.26711 8.677095
35.006579 -11.430143 7.993307
37.368143 -15.50063 12.336315
37.38122 -14.630842 12.651367
37.687477 -15.393513 13.296156
37.088457 -15.598277 11.359922
37.368143 -15.50063 12.336315
39.097963 -2.100446 22.140095
38.835335 -1.770239 22.887032
39.360304 -2.420338 21.237526
39.097963 -2.100446 22.140095
39.044998 -3.244316 22.241894
39.528751 -2.773371 20.393127
39.581716 -1.629501 20.291328
39.360304 -2.420338 21.237526
25.311553 0.40311 -2.613208
25.994649 0.231976 -2.165488
25.145409 -0.616549 -2.66025
24.704262 0.617692 -3.087541
25.311553 0.40311 -2.613208
26.10223 -4.556354 -2.132958
26.688873 -5.513227 -1.776899
40.469834 2.299104 15.765375
40.43389 2.098714 14.960838
29.975552 -11.394623 35.837728
30.64695 -10.471438 35.271309
30.077632 -12.517429 35.684849
29.975552 -11.394623 35.837728
30.156593 -13.691658 35.559393
30.809902 -12.729847 35.076616
30.077632 -12.517429 35.684849
30.249232 -14.833611 35.362476
30.156593 -13.691658 35.559393
30.96019 -15.092035 34.768137
30.249232 -14.833611 35.362476
32.860626 2.107794 1.990384
32.063437 2.093237 1.405115
33.140699 0.827788 2.683337
32.860626 2.107794 1.990384
33.608095 2.034251 2.640821
38.4546 -2.518622 23.878748
38.835335 -1.770239 22.887032
38.474947 -3.626599 23.983882
38.4546 -2.518622 23.878748
38.146889 -3.220796 24.718167
36.25065 -13.090021 29.007347
36.200033 -11.889437 29.10109
35.7621 -12.727226 29.784022
36.737673 -13.345399 28.191102
36.25065 -13.090021 29.007347
37.160666 -13.599259 27.324022
37.111576 -12.506092 27.457335
36.737673 -13.345399 28.191102
37.524451 -13.94134 26.521507
37.160666 -13.599259 27.324022
37.82589 -14.31165 25.647829
37.836008 -13.130263 25.716577
37.524451 -13.94134 26.521507
38.128433 -14.593787 24.729444
37.82589 -14.31165 25.647829
37.816876 -15.404864 25.534374
38.313805 -17.083182 23.489839
38.310312 -15.971075 23.693959
38.122912 -16.799107 24.411868
38.518014 -17.345947 22.443728
38.313805 -17.083182 23.489839
28.277888 -6.286691 -0.042203
28.32575 -5.411217 0.095338
28.900793 -6.391391 0.55571
27.745949 -6.083077 -0.643354
28.277888 -6.286691 -0.042203
27.192875 -5.822764 -1.186973
27.149771 -5.046204 -1.046194
27.745949 -6.083077 -0.643354
26.688873 -5.513227 -1.776899
27.192875 -5.822764 -1.186973
38.473349 0.525608 9.14635
37.966583 0.395359 8.332457
38.93434 0.76092 9.959677
39.353775 1.043481 10.7713
38.571442 -0.417297 9.941935
38.473349 0.525608 9.14635
38.93434 0.76092 9.959677
34.907746 -6.617706 30.549658
35.391998 -5.759602 29.794106
33.807892 -7.137198 31.926852
33.156773 -6.913719 32.624751
34.404793 -7.433459 31.281081
33.807892 -7.137198 31.926852
33.847794 -8.294168 32.014626
34.947648 -7.774676 30.637432
34.907746 -6.617706 30.549658
34.404793 -7.433459 31.281081
31.377105 -10.689971 34.610081
31.293115 -9.605792 34.679318
30.64695 -10.471438 35.271309
32.286171 -13.265497 33.742417
31.540919 -13.038647 34.415075
31.634116 -14.130926 34.278502
32.856774 -12.370829 33.217676
32.286171 -13.265497 33.742417
32.94997 -13.463108 33.081103
35.276821 -13.548609 30.421838
35.7621 -12.727226 29.784022
35.226204 -12.348025 30.51558
35.276821 -13.548609 30.421838
34.76691 -14.383779 31.046102
26.923592 1.176389 -1.701907
27.260997 2.305039 -1.73004
27.349336 -0.050451 -1.228601
26.662341 0.068242 -1.671753
26.923592 1.176389 -1.701907
30.39819 2.147953 0.231323
31.260326 2.124967 0.802709
29.57106 2.147476 -0.322965
30.39819 2.147953 0.231323
29.959879 0.964314 0.273797
28.745029 2.211863 -0.829332
29.57106 2.147476 -0.322965
28.371668 1.010767 -0.769624
27.983949 2.258794 -1.318465
28.745029 2.211863 -0.829332
30.154904 -6.617485 1.826627
29.495391 -6.522714 1.208353
29.608167 -5.610687 1.311524
30.154904 -6.617485 1.826627
30.815899 -6.714106 2.544261
35.784443 2.300791 4.579878
35.962196 1.184519 5.262453
35.033856 2.224756 3.860737
35.784443 2.300791 4.579878
34.601641 0.902259 3.962452
34.320383 2.07674 3.232059
35.033856 2.224756 3.860737
32.835716 -6.878579 4.634339
33.447805 -6.797959 5.343493
33.210161 -7.763042 5.252171
32.127879 -6.794191 3.899006
32.365523 -5.829108 3.990328
32.835716 -6.878579 4.634339
31.510903 -6.733737 3.20686
32.127879 -6.794191 3.899006
35.910623 -13.123224 9.444381
35.486727 -12.26711 8.677095
35.953152 -12.197214 9.638457
36.352472 -13.933895 10.105049
36.719467 -13.895644 11.048634
36.694891 -14.77621 10.747941
35.910623 -13.123224 9.444381
36.352472 -13.933895 10.105049
40.322878 1.498658 16.677149
40.469834 2.299104 15.765375
40.19829 0.737754 17.566807
40.007008 0.008256 18.456935
40.223793 0.428476 16.784595
40.322878 1.498658 16.677149
40.19829 0.737754 17.566807
36.351985 -4.191276 28.139795
35.873102 -4.939589 28.970796
36.866816 -4.497324 27.355809
36.351985 -4.191276 28.139795
37.348719 -4.743246 26.555909
36.866816 -4.497324 27.355809
36.894711 -5.564819 27.45949
37.771925 -5.069757 25.741446
37.74403 -4.002262 25.637765
37.348719 -4.743246 26.555909
38.717352 -17.788224 20.379354
38.618642 -17.604553 21.427944
38.705293 -17.019951 19.708211
38.717352 -17.788224 20.379354
38.720185 -18.035813 19.3472
38.540588 -16.662157 16.821893
38.623598 -16.459276 17.916178
38.625117 -17.470421 17.581773
38.375454 -16.901919 15.835494
38.373936 -15.890773 16.169899
38.540588 -16.662157 16.821893
38.208164 -16.956105 14.767917
38.375454 -16.901919 15.835494
25.565128 -3.513743 -2.523313
26.059595 -3.743281 -1.980168
26.10223 -4.556354 -2.132958
24.979754 -2.425543 -2.896244
25.565128 -3.513743 -2.523313
24.487567 -1.276192 -3.278274
25.030306 -1.551318 -2.752553
24.979754 -2.425543 -2.896244
23.982487 -0.130451 -3.616153
24.487567 -1.276192 -3.278274
3 0 36 34
3 0 38 36
3 2 131 133
3 131 39 132
3 131 132 133
3 2 41 39
3 134 43 135
3 5 46 44
3 5 48 46
3 1 136 138
3 136 49 137
3 136 137 138
3 6 52 50
3 6 54 52
3 6 55 54
3 7 139 141
3 141 140 56
3 139 140 141
3 7 142 143
3 8 59 58
3 8 61 59
3 3 64 62
3 9 67 65
3 9 69 67
3 9 71 69
3 4 144 146
3 144 72 145
3 144 145 146
3 147 74 148
3 11 77 75
3 13 78 35
3 13 79 78
3 13 81 79
3 15 82 37
3 15 83 82
3 149 84 150
3 151 86 152
3 154 153 86
3 17 90 88
3 19 155 156
3 19 157 159
3 157 91 158
3 157 158 159
3 19 92 91
3 20 93 40
3 20 94 93
3 22 95 42
3 22 96 95
3 10 97 73
3 160 98 161
3 162 99 163
3 164 163 98
3 162 163 164
3 166 165 99
3 167 100 168
3 23 101 45
3 23 102 101
3 23 103 102
3 24 104 47
3 24 169 171
3 171 170 104
3 169 170 171
3 25 172 174
3 172 105 173
3 172 173 174
3 25 106 105
3 12 107 76
3 26 108 51
3 26 109 108
3 26 110 109
3 176 175 53
3 14 111 80
3 178 177 57
3 27 179 180
3 27 181 183
3 181 112 182
3 181 182 183
3 27 113 112
3 28 114 60
3 28 115 114
3 21 184 186
3 184 116 185
3 184 185 186
3 29 117 63
3 29 118 117
3 16 119 85
3 30 120 66
3 30 121 120
3 30 122 121
3 31 123 68
3 31 124 123
3 31 125 124
3 32 126 70
3 32 127 126
3 187 128 188
3 189 188 87
3 187 188 189
3 190 129 191
3 193 192 129
3 33 194 195
3 33 196 197
3 18 130 89
3 34 35 11
3 36 35 34
3 36 13 35
3 36 37 13
3 38 37 36
3 38 15 37
3 199 198 17
3 39 200 201
3 39 202 204
3 202 19 203
3 202 203 204
3 39 40 19
3 41 40 39
3 41 20 40
3 205 42 206
3 43 207 209
3 207 42 208
3 207 208 209
3 43 22 42
3 211 210 10
3 44 212 214
3 212 45 213
3 212 213 214
3 46 45 44
3 46 23 45
3 46 47 23
3 48 47 46
3 48 24 47
3 49 215 216
3 49 217 219
3 217 25 218
3 217 218 219
3 50 51 12
3 52 51 50
3 52 26 51
3 52 53 26
3 54 53 52
3 54 220 222
3 222 221 53
3 220 221 222
3 54 223 224
3 55 225 227
3 227 226 54
3 225 226 227
3 55 228 229
3 56 57 14
3 230 57 231
3 232 231 56
3 230 231 232
3 234 233 57
3 58 235 236
3 59 237 239
3 239 238 58
3 237 238 239
3 59 240 242
3 240 27 241
3 240 241 242
3 59 60 27
3 61 60 59
3 61 28 60
3 62 63 21
3 64 63 62
3 64 29 63
3 65 66 16
3 67 66 65
3 67 30 66
3 67 68 30
3 69 68 67
3 69 31 68
3 69 70 31
3 71 70 69
3 71 32 70
3 72 243 244
3 72 245 247
3 245 33 246
3 245 246 247
3 249 248 18
3 250 2 251
3 252 73 253
3 254 73 255
3 256 10 257
3 258 257 73
3 256 257 258
3 259 10 260
3 262 261 10
3 263 44 264
3 74 265 267
3 265 44 266
3 265 266 267
3 74 5 44
3 75 76 1
3 77 76 75
3 77 12 76
3 35 77 11
3 78 77 35
3 78 12 77
3 78 50 12
3 79 50 78
3 79 6 50
3 79 80 6
3 81 80 79
3 81 14 80
3 37 81 13
3 82 81 37
3 82 14 81
3 82 56 14
3 83 56 82
3 83 7 56
3 268 58 269
3 84 270 272
3 270 58 271
3 270 271 272
3 84 8 58
3 273 85 274
3 275 274 3
3 273 274 275
3 276 85 277
3 278 16 279
3 280 279 85
3 278 279 280
3 281 16 282
3 283 65 284
3 285 284 16
3 283 284 285
3 86 286 288
3 286 65 287
3 286 287 288
3 86 9 65
3 86 87 9
3 289 87 290
3 291 290 86
3 289 290 291
3 293 292 87
3 88 89 4
3 90 89 88
3 90 18 89
3 294 90 295
3 296 295 17
3 294 295 296
3 297 90 298
3 299 18 300
3 301 300 90
3 299 300 301
3 303 302 18
3 304 1 305
3 91 306 307
3 91 308 310
3 308 1 309
3 308 309 310
3 91 75 1
3 92 75 91
3 92 11 75
3 40 92 19
3 93 92 40
3 93 11 92
3 93 34 11
3 94 34 93
3 94 0 34
3 311 21 312
3 42 313 314
3 95 315 317
3 317 316 42
3 315 316 317
3 95 318 320
3 318 21 319
3 318 319 320
3 95 62 21
3 96 62 95
3 96 3 62
3 73 321 323
3 321 43 322
3 321 322 323
3 97 43 73
3 97 22 43
3 324 97 325
3 326 325 10
3 324 325 326
3 98 327 329
3 327 97 328
3 327 328 329
3 98 22 97
3 98 96 22
3 99 96 98
3 99 3 96
3 99 330 332
3 332 331 3
3 330 331 332
3 334 333 99
3 100 335 336
3 100 337 339
3 337 4 338
3 337 338 339
3 45 340 341
3 101 342 344
3 344 343 45
3 342 343 344
3 101 345 346
3 101 347 349
3 347 100 348
3 347 348 349
3 102 100 101
3 102 4 100
3 102 88 4
3 103 88 102
3 103 17 88
3 47 103 23
3 104 103 47
3 104 17 103
3 104 350 352
3 352 351 17
3 350 351 352
3 354 353 104
3 105 355 356
3 105 357 358
3 105 359 361
3 359 74 360
3 359 360 361
3 106 74 105
3 106 5 74
3 76 49 1
3 107 49 76
3 107 25 49
3 51 107 12
3 108 107 51
3 108 25 107
3 108 106 25
3 109 106 108
3 109 5 106
3 109 48 5
3 110 48 109
3 110 24 48
3 53 110 26
3 362 110 363
3 364 363 53
3 362 363 364
3 365 24 366
3 367 366 110
3 365 366 367
3 369 368 24
3 80 55 6
3 111 55 80
3 111 370 372
3 372 371 55
3 370 371 372
3 57 111 14
3 373 111 374
3 375 374 57
3 373 374 375
3 377 376 111
3 378 2 379
3 112 380 381
3 112 382 384
3 382 2 383
3 382 383 384
3 112 41 2
3 113 41 112
3 113 20 41
3 60 113 27
3 114 113 60
3 114 20 113
3 114 94 20
3 115 94 114
3 115 0 94
3 116 385 386
3 116 387 388
3 63 116 21
3 117 116 63
3 117 389 391
3 391 390 116
3 389 390 391
3 117 392 394
3 392 84 393
3 392 393 394
3 118 84 117
3 118 8 84
3 85 64 3
3 119 64 85
3 119 29 64
3 66 119 16
3 120 119 66
3 120 29 119
3 120 118 29
3 121 118 120
3 121 8 118
3 121 61 8
3 122 61 121
3 122 28 61
3 68 122 30
3 123 122 68
3 123 28 122
3 123 115 28
3 124 115 123
3 124 0 115
3 124 38 0
3 125 38 124
3 125 15 38
3 70 125 31
3 126 125 70
3 126 15 125
3 126 83 15
3 127 83 126
3 127 7 83
3 87 71 9
3 128 71 87
3 128 32 71
3 395 128 396
3 129 397 399
3 397 128 398
3 397 398 399
3 129 32 128
3 129 127 32
3 400 127 401
3 402 401 129
3 400 401 402
3 403 7 404
3 405 404 127
3 403 404 405
3 407 406 7
3 89 72 4
3 130 72 89
3 130 33 72
3 408 130 409
3 410 409 18
3 408 409 410
3 411 130 412
3 413 33 414
3 415 414 130
3 413 414 415
3 417 416 33
