ply
format ascii 1.0
element vertex 341
property float x
property float y
property float z
element face 334
property list uchar int vertex_index
end_header
15.770384 19.823299 -21.647617
16.637897 14.193645 -11.092503
14.797931 28.089905 -25.86307
20.06815 4.045437 -9.326323
22.518356 0.688836 -5.017037
15.576838 17.085634 -16.251871
19.400257 8.12622 -14.9815
15.273171 23.466028 -23.47094
15.901013 15.705831 -13.546598
17.28134 12.324363 -15.566113
17.489849 10.650105 -12.690426
22.503397 -0.258792 -8.620264
22.024481 2.037099 -11.47241
18.187336 8.668803 -10.156691
19.156353 7.299252 -8.041495
21.065975 2.133911 -7.043036
23.337385 -2.154346 -6.094872
14.479213 23.106113 -20.167067
15.559017 18.467215 -19.05599
14.366546 22.344215 -17.263119
14.723828 21.456038 -14.626406
17.325132 16.647635 -21.845013
17.253422 14.378525 -18.777065
19.646107 5.857807 -11.942741
24.645819 -3.610777 -3.826251
15.545788 21.310804 -22.408566
16.192823 21.389696 -24.076124
16.351789 19.627478 -22.872217
16.212353 14.988063 -12.259239
16.666588 13.034801 -13.10327
16.922676 12.321252 -11.799616
23.863245 -2.184386 -8.344473
15.386925 28.252796 -27.951511
21.536572 3.220647 -5.657043
20.681847 3.941954 -6.614969
21.684855 1.50374 -5.983401
22.117867 -0.007904 -6.548535
22.724457 -0.781831 -5.505849
14.379296 22.641563 -18.683058
15.078503 21.012962 -13.346863
15.486334 17.929113 -17.674999
16.304306 16.377657 -18.777014
16.35218 15.413348 -17.360813
18.302597 10.11979 -15.240389
18.244198 11.296176 -16.905071
19.078606 6.283673 -9.784349
18.775032 7.154504 -10.990305
19.871992 4.823431 -10.622087
15.017047 25.7784 -24.618792
15.695475 25.833874 -26.645046
15.957536 23.537985 -25.345364
15.722299 16.303753 -14.832928
16.36735 14.660743 -15.927656
16.503851 13.753873 -14.467749
17.436422 11.269319 -14.102243
18.351774 9.137512 -13.672262
21.277113 1.729652 -8.921646
20.940063 2.815601 -10.190002
22.184511 0.894605 -9.985554
17.313669 11.481401 -10.643981
17.792105 10.737965 -9.575804
18.596823 7.997897 -9.050905
19.477989 5.480424 -8.615496
19.875908 6.448666 -7.124324
20.026939 4.630994 -7.587741
20.53878 2.992309 -8.176007
21.661848 0.787009 -7.747064
22.820599 -1.182826 -7.330189
24.137857 -3.164264 -6.907279
15.13402 21.136513 -20.925602
15.646318 19.228035 -20.527197
14.96555 20.644585 -19.509972
14.857209 20.282162 -18.096081
14.903612 19.679321 -16.747414
14.517402 21.757034 -15.890824
15.051956 19.001766 -15.30711
15.240808 18.645809 -13.964992
15.570667 17.994093 -12.800394
14.819618 23.130459 -21.726257
16.419107 18.308096 -21.679235
16.371529 17.289221 -20.292524
17.280674 15.448832 -20.287537
17.275352 13.285766 -17.206757
18.295666 12.446203 -18.645491
17.794098 9.657481 -11.390041
18.552258 8.106492 -12.344067
19.522022 6.955884 -13.478999
20.860252 3.809629 -11.738295
20.778837 4.945787 -13.287456
23.426857 0.141065 -4.097725
24.437016 -2.150417 -3.421965
23.503845 -1.553699 -4.483349
23.927114 -2.957685 -4.970535
24.68679 -4.218709 -5.590319
24.459018 -2.513184 -8.946036
24.529431 -3.058891 -8.173319
15.092428 28.171351 -26.907291
14.929557 29.493011 -27.49732
14.63506 29.411565 -26.4531
19.396691 8.729069 -15.834084
18.847862 9.725854 -15.963529
18.851427 9.123005 -15.110945
19.995752 7.851489 -15.765156
19.396691 8.729069 -15.834084
16.569515 21.485694 -24.975138
16.699348 20.493609 -24.337995
16.066751 25.901308 -27.669612
16.197039 24.781385 -26.948895
17.791021 11.813745 -9.319409
17.477353 12.11743 -9.797676
18.876588 7.648575 -8.5462
18.488212 9.01001 -8.828986
18.767977 8.660688 -8.324281
20.26423 6.20223 -6.716833
19.906371 7.614882 -7.018743
14.620615 21.606536 -15.258615
14.416398 23.122584 -15.584152
14.519611 22.972086 -14.951942
15.561125 19.227483 -12.495384
15.324585 19.503528 -13.073629
15.315043 20.736918 -12.768619
15.80301 17.555898 -12.224826
15.561125 19.227483 -12.495384
14.649415 23.118286 -20.946662
14.48925 24.359689 -21.410463
14.319047 24.347516 -20.630868
17.791719 14.01991 -19.537534
17.805345 14.555063 -20.29277
17.267048 14.913678 -19.532301
18.858248 11.521733 -18.545833
18.269932 11.871189 -17.775281
18.832514 10.94672 -17.675623
18.875721 12.199286 -19.442548
18.858248 11.521733 -18.545833
21.402178 4.653479 -13.978576
21.409772 4.032421 -13.16515
20.759566 5.555359 -14.105373
21.402178 4.653479 -13.978576
23.982487 -0.130451 -3.616153
23.528588 1.10669 -4.001444
24.084218 0.835174 -3.519872
24.541418 -2.880597 -3.624108
25.022389 -3.238617 -3.049034
25.126791 -3.968796 -3.251177
25.34999 -5.111311 -5.386023
24.954744 -4.593064 -4.967723
25.121656 -4.6201 -6.093865
25.34999 -5.111311 -5.386023
17.28909 17.349381 -22.525264
16.836078 18.179612 -22.442375
16.87212 17.477866 -21.762124
16.77883 19.6125 -23.736042
16.699348 20.493609 -24.337995
16.272306 20.508587 -23.47417
23.731217 -1.611272 -9.053888
23.051293 -0.648475 -9.191783
23.183321 -1.221589 -8.482368
23.731217 -1.611272 -9.053888
24.459018 -2.513184 -8.946036
15.196091 29.497593 -28.551527
14.738724 30.737808 -28.097336
14.929557 29.493011 -27.49732
15.711903 28.331207 -29.001024
15.196091 29.497593 -28.551527
19.121287 8.320147 -7.883549
18.767977 8.660688 -8.324281
21.109209 3.581301 -6.136006
20.6672 4.948874 -6.462156
21.094562 4.588221 -5.983193
14.186107 23.95004 -19.051786
14.429254 22.873838 -19.425062
14.236065 24.182315 -19.793791
14.18115 23.79002 -18.297332
14.186107 23.95004 -19.051786
14.174774 23.641346 -17.587362
14.372921 22.492889 -17.973088
14.18115 23.79002 -18.297332
14.710537 22.722378 -14.307731
14.519611 22.972086 -14.951942
14.887874 22.50084 -13.66796
14.901165 21.2345 -13.986635
14.710537 22.722378 -14.307731
15.125806 22.41136 -13.096087
14.887874 22.50084 -13.66796
15.315043 20.736918 -12.768619
15.125806 22.41136 -13.096087
14.236065 24.182315 -19.793791
14.319047 24.347516 -20.630868
18.818662 10.314047 -16.79587
18.273398 10.707983 -16.07273
18.847862 9.725854 -15.963529
18.832514 10.94672 -17.675623
18.818662 10.314047 -16.79587
22.032594 2.578078 -12.257627
22.715178 1.70147 -12.157033
25.297225 -4.665013 -3.513921
25.126791 -3.968796 -3.251177
24.934258 -4.289098 -4.085689
25.297225 -4.665013 -3.513921
17.830865 16.495102 -22.632019
17.839968 15.792818 -21.865246
16.328069 23.63344 -26.299053
16.197039 24.781385 -26.948895
15.826505 24.68593 -25.995205
16.451871 22.559838 -25.609758
16.07518 22.46384 -24.710744
16.569515 21.485694 -24.975138
16.328069 23.63344 -26.299053
16.451871 22.559838 -25.609758
21.606922 4.24067 -5.55868
21.094562 4.588221 -5.983193
22.031537 2.907863 -5.209319
21.606922 4.24067 -5.55868
22.52243 1.641958 -4.889316
22.027464 1.954741 -5.33704
22.031537 2.907863 -5.209319
22.891851 -0.071776 -9.874429
22.343954 0.317906 -9.302909
23.051293 -0.648475 -9.191783
22.759674 0.573389 -10.603575
22.891851 -0.071776 -9.874429
22.679659 1.144637 -11.347003
22.104496 1.465852 -10.728982
22.759674 0.573389 -10.603575
22.715178 1.70147 -12.157033
22.679659 1.144637 -11.347003
15.912475 27.110769 -28.322845
15.5412 27.043335 -27.298279
16.066751 25.901308 -27.669612
15.711903 28.331207 -29.001024
15.912475 27.110769 -28.322845
17.238135 12.489147 -10.331765
16.975783 12.837523 -10.868242
16.900249 13.84527 -10.556026
17.552887 11.109683 -10.109893
17.238135 12.489147 -10.331765
17.477353 12.11743 -9.797676
18.085853 10.380045 -9.091436
17.791021 11.813745 -9.319409
18.194464 9.367931 -9.313354
18.085853 10.380045 -9.091436
18.488212 9.01001 -8.828986
19.481064 7.894854 -7.424964
19.906371 7.614882 -7.018743
19.51613 6.873959 -7.582909
19.121287 8.320147 -7.883549
19.481064 7.894854 -7.424964
20.278878 5.19531 -6.869646
20.26423 6.20223 -6.716833
20.6672 4.948874 -6.462156
24.666736 -3.54883 -7.454722
24.529431 -3.058891 -8.173319
24.000551 -2.674325 -7.625876
14.234402 23.491091 -16.885779
14.174774 23.641346 -17.587362
14.30983 23.197501 -16.199632
14.416398 23.122584 -15.584152
14.441974 22.050624 -16.576971
14.234402 23.491091 -16.885779
14.30983 23.197501 -16.199632
16.123853 16.052884 -11.954248
15.89151 16.491078 -12.529817
15.80301 17.555898 -12.224826
16.336625 15.655674 -11.37088
16.425125 14.590854 -11.675871
16.123853 16.052884 -11.954248
16.603933 15.32964 -10.852035
16.336625 15.655674 -11.37088
16.900249 13.84527 -10.556026
16.603933 15.32964 -10.852035
14.40233 29.470848 -25.450284
14.63506 29.411565 -26.4531
14.51831 28.197007 -24.879824
14.40233 29.470848 -25.450284
14.627868 27.041254 -24.257685
14.907489 26.934153 -25.240931
14.51831 28.197007 -24.879824
14.755403 25.733587 -23.676678
14.627868 27.041254 -24.257685
14.883465 24.577401 -23.102752
15.145109 24.622214 -24.044866
14.755403 25.733587 -23.676678
14.656689 24.409616 -22.23041
14.48925 24.359689 -21.410463
15.046394 23.298243 -22.598599
14.883465 24.577401 -23.102752
14.656689 24.409616 -22.23041
17.81774 15.193416 -21.086508
17.839968 15.792818 -21.865246
17.302903 16.048234 -21.066275
17.81774 15.193416 -21.086508
17.805345 14.555063 -20.29277
18.312841 13.053749 -19.471747
17.791719 14.01991 -19.537534
17.774544 13.412364 -18.711278
18.312841 13.053749 -19.471747
18.875721 12.199286 -19.442548
21.45048 3.464342 -12.39057
21.442366 2.923364 -11.605353
22.032594 2.578078 -12.257627
20.819544 4.377708 -12.512875
21.45048 3.464342 -12.39057
21.409772 4.032421 -13.16515
20.131158 6.560408 -14.201144
20.15043 5.950836 -13.383228
20.759566 5.555359 -14.105373
20.070276 7.145575 -14.952395
19.46114 7.541052 -14.230249
20.131158 6.560408 -14.201144
19.995752 7.851489 -15.765156
20.070276 7.145575 -14.952395
22.97668 1.368072 -4.429659
23.528588 1.10669 -4.001444
22.972606 0.41495 -4.557381
22.52243 1.641958 -4.889316
22.97668 1.368072 -4.429659
24.979754 -2.425543 -2.896244
25.022389 -3.238617 -3.049034
24.487567 -1.276192 -3.278274
24.979754 -2.425543 -2.896244
23.931936 -1.004676 -3.759845
23.982487 -0.130451 -3.616153
24.487567 -1.276192 -3.278274
24.574906 -3.962553 -4.657832
24.286466 -3.284231 -4.398393
24.934258 -4.289098 -4.085689
24.306952 -3.588197 -5.280427
24.574906 -3.962553 -4.657832
24.954744 -4.593064 -4.967723
24.847189 -4.092878 -6.752345
24.412323 -3.691486 -6.248799
25.121656 -4.6201 -6.093865
24.666736 -3.54883 -7.454722
24.847189 -4.092878 -6.752345
16.802419 18.839303 -23.038866
16.385448 18.967787 -22.275726
16.836078 18.179612 -22.442375
16.77883 19.6125 -23.736042
16.802419 18.839303 -23.038866
17.28909 17.349381 -22.525264
17.830865 16.495102 -22.632019
3 0 27 25
3 1 30 28
3 95 94 31
3 2 96 98
3 96 32 97
3 96 97 98
3 4 35 33
3 4 37 35
3 5 42 40
3 6 99 101
3 101 100 43
3 99 100 101
3 6 102 103
3 3 47 45
3 7 50 48
3 105 104 26
3 8 53 51
3 10 54 29
3 10 55 54
3 11 58 56
3 107 106 49
3 108 60 109
3 14 110 112
3 110 61 111
3 110 111 112
3 14 62 61
3 113 63 114
3 15 64 34
3 15 65 64
3 15 66 65
3 16 67 36
3 16 68 67
3 17 71 69
3 19 72 38
3 19 73 72
3 20 115 117
3 115 74 116
3 115 116 117
3 20 75 74
3 20 76 75
3 118 77 119
3 120 119 39
3 118 119 120
3 122 121 77
3 17 123 125
3 123 78 124
3 123 124 125
3 17 69 78
3 18 80 70
3 22 81 41
3 22 126 128
3 128 127 81
3 126 127 128
3 9 82 52
3 129 83 130
3 131 130 44
3 129 130 131
3 133 132 83
3 13 84 59
3 23 85 46
3 23 86 85
3 12 87 57
3 134 88 135
3 137 136 88
3 138 89 139
3 138 139 140
3 24 141 143
3 141 90 142
3 141 142 143
3 24 91 90
3 24 92 91
3 144 93 145
3 147 146 93
3 21 148 150
3 150 149 79
3 148 149 150
3 25 26 7
3 27 26 25
3 27 151 153
3 153 152 26
3 151 152 153
3 28 29 8
3 30 29 28
3 30 10 29
3 31 154 156
3 156 155 11
3 154 155 156
3 158 157 31
3 32 159 161
3 159 160 161
3 32 162 163
3 164 14 165
3 33 166 168
3 166 34 167
3 166 167 168
3 35 34 33
3 35 15 34
3 35 36 15
3 37 36 35
3 37 16 36
3 169 38 170
3 171 170 17
3 169 170 171
3 172 38 173
3 174 19 175
3 176 175 38
3 174 175 176
3 177 20 178
3 179 39 180
3 181 180 20
3 179 180 181
3 182 39 183
3 185 184 39
3 186 17 187
3 40 41 18
3 42 41 40
3 42 22 41
3 43 44 9
3 188 44 189
3 190 189 43
3 188 189 190
3 192 191 44
3 45 46 13
3 47 46 45
3 47 23 46
3 194 193 12
3 195 24 196
3 198 197 24
3 200 199 21
3 48 49 2
3 50 49 48
3 50 201 203
3 203 202 49
3 201 202 203
3 26 50 7
3 204 50 205
3 206 205 26
3 204 205 206
3 208 207 50
3 209 33 210
3 211 33 212
3 213 4 214
3 215 214 33
3 213 214 215
3 51 52 5
3 53 52 51
3 53 9 52
3 29 53 8
3 54 53 29
3 54 9 53
3 54 43 9
3 55 43 54
3 55 6 43
3 56 57 3
3 58 57 56
3 58 12 57
3 216 58 217
3 218 217 11
3 216 217 218
3 219 58 220
3 221 12 222
3 223 222 58
3 221 222 223
3 225 224 12
3 49 32 2
3 226 32 227
3 228 227 49
3 226 227 228
3 230 229 32
3 231 59 232
3 233 232 1
3 231 232 233
3 60 234 236
3 234 59 235
3 234 235 236
3 60 13 59
3 237 60 238
3 61 239 241
3 239 60 240
3 239 240 241
3 61 13 60
3 61 45 13
3 62 45 61
3 62 3 45
3 63 242 243
3 63 244 246
3 244 14 245
3 244 245 246
3 34 247 249
3 247 63 248
3 247 248 249
3 64 63 34
3 64 14 63
3 64 62 14
3 65 62 64
3 65 3 62
3 65 56 3
3 66 56 65
3 66 11 56
3 36 66 15
3 67 66 36
3 67 11 66
3 67 31 11
3 68 31 67
3 68 250 252
3 252 251 31
3 250 251 252
3 69 70 0
3 71 70 69
3 71 18 70
3 38 71 17
3 72 71 38
3 72 18 71
3 72 40 18
3 73 40 72
3 73 5 40
3 253 19 254
3 74 255 256
3 74 257 259
3 257 19 258
3 257 258 259
3 74 73 19
3 75 73 74
3 75 5 73
3 75 51 5
3 76 51 75
3 76 8 51
3 39 76 20
3 77 76 39
3 77 8 76
3 77 28 8
3 260 28 261
3 262 261 77
3 260 261 262
3 263 1 264
3 265 264 28
3 263 264 265
3 266 1 267
3 269 268 1
3 270 2 271
3 272 2 273
3 274 48 275
3 276 275 2
3 274 275 276
3 277 48 278
3 279 7 280
3 281 280 48
3 279 280 281
3 78 282 283
3 78 284 286
3 284 7 285
3 284 285 286
3 78 25 7
3 69 25 78
3 69 0 25
3 70 79 0
3 80 79 70
3 80 21 79
3 41 80 18
3 81 80 41
3 81 21 80
3 81 287 289
3 289 288 21
3 287 288 289
3 291 290 81
3 52 42 5
3 82 42 52
3 82 22 42
3 44 82 9
3 83 82 44
3 83 22 82
3 83 292 294
3 294 293 22
3 292 293 294
3 296 295 83
3 59 30 1
3 84 30 59
3 84 10 30
3 46 84 13
3 85 84 46
3 85 10 84
3 85 55 10
3 86 55 85
3 86 6 55
3 57 47 3
3 87 47 57
3 87 23 47
3 297 87 298
3 299 298 12
3 297 298 299
3 88 300 302
3 300 87 301
3 300 301 302
3 88 23 87
3 88 86 23
3 303 86 304
3 305 304 88
3 303 304 305
3 306 6 307
3 308 307 86
3 306 307 308
3 310 309 6
3 89 311 312
3 89 313 315
3 313 4 314
3 313 314 315
3 90 316 317
3 90 318 319
3 90 320 322
3 320 89 321
3 320 321 322
3 91 89 90
3 91 4 89
3 91 37 4
3 92 37 91
3 92 16 37
3 323 92 324
3 325 324 24
3 323 324 325
3 93 326 328
3 326 92 327
3 326 327 328
3 93 16 92
3 93 68 16
3 329 68 330
3 331 330 93
3 329 330 331
3 333 332 68
3 79 27 0
3 334 27 335
3 336 335 79
3 334 335 336
3 338 337 27
3 340 339 21
