ply
format ascii 1.0
element vertex 395
property float x
property float y
property float z
element face 430
property list uchar int vertex_index
end_header
-23.364277 -83.397156 23.408726
-19.253696 -99.389374 3.303454
-10.129201 -85.383118 22.528307
-21.346092 -91.557503 14.151481
-25.253162 -85.318695 12.746408
-17.518099 -86.510826 23.807789
-14.265622 -93.330376 13.217782
-2.567819 -81.996857 21.367582
-6.116774 -91.205261 11.610236
-22.324291 -87.500748 18.938763
-23.708393 -89.00341 13.810966
-24.340614 -84.614464 18.264668
-20.752586 -85.490341 23.987207
-19.327646 -89.343277 19.099689
-26.1341 -76.557358 14.928005
-26.309904 -71.871307 12.713911
-6.321572 -83.753929 21.935787
-4.124206 -86.63089 16.419106
-8.075419 -88.333252 17.021263
-16.802374 -96.689102 8.392347
-12.845732 -96.710205 7.519037
-20.405722 -95.464699 9.049294
-23.228161 -93.151299 8.950747
-25.014954 -89.957352 8.294302
-13.922832 -86.296234 23.380836
-12.029211 -89.638779 17.688686
-15.866362 -89.941818 18.648777
-18.209824 -93.119141 13.787756
-25.068895 -80.453682 22.136833
-25.566565 -80.896317 16.760914
-25.877567 -81.171135 11.313988
-10.416962 -92.73909 12.295582
-22.856333 -85.395645 21.266615
-23.372515 -86.259796 18.719637
-23.845657 -84.136276 20.833061
-22.851852 -82.626038 25.790277
-21.531878 -83.642433 26.101786
-22.214428 -84.615379 23.654123
-21.578793 -86.507874 21.553467
-11.232192 -83.730957 25.513807
-9.351431 -83.122681 25.052341
-7.468681 -82.233231 24.825682
-8.167554 -84.598885 22.202744
-7.101701 -86.105583 19.370054
-9.094199 -86.877052 19.754707
-18.068645 -98.076263 5.959574
-16.107285 -98.432518 5.547693
-17.366598 -99.895325 3.032289
-20.887318 -93.562309 11.596823
-21.951147 -94.626381 8.784482
-22.23 -92.626457 11.420653
-24.591566 -87.331856 13.33229
-24.439075 -89.399445 11.133822
-25.125507 -87.597961 10.704863
-25.595064 -85.630058 10.072493
-18.352308 -84.652069 26.439749
-16.683348 -84.660881 26.488136
-14.915095 -84.586838 26.189226
-15.85409 -86.445709 23.777771
-14.90249 -88.09285 21.144352
-16.635166 -88.180496 21.341049
-20.326599 -90.515213 16.693224
-18.721285 -91.181709 16.585331
-19.834019 -92.440857 14.131624
-19.333769 -94.340057 11.485061
-25.707813 -78.495346 21.220081
-25.333969 -80.730583 19.544703
-25.81657 -78.758171 18.58518
-26.07513 -76.479652 12.234706
-25.971485 -78.713463 13.066381
-3.801688 -80.55378 24.172806
-1.435432 -83.385933 18.702372
-5.147994 -89.00647 13.965924
-3.149048 -88.120735 13.669392
-3.952642 -90.351257 11.19644
-13.292128 -91.482697 15.610081
-11.266647 -91.163475 15.076377
-12.319373 -93.101738 12.786457
-11.87146 -98.086983 4.893762
-10.654531 -96.356224 7.003964
-21.814177 -89.513878 16.649969
-22.618916 -90.475227 13.984048
-23.03071 -88.330879 16.352739
-24.054724 -86.691742 16.124928
-24.82699 -85.048325 15.446054
-20.050329 -84.311981 26.311066
-19.136368 -86.099342 24.056784
-18.481009 -87.922211 21.549595
-20.093378 -87.389656 21.599236
-20.944273 -88.604927 19.034683
-26.138523 -76.77713 17.61322
-26.256893 -74.242142 13.830876
-26.105032 -74.103287 11.346196
-5.641798 -81.391731 24.50997
-4.40045 -82.852165 21.64559
-3.31744 -84.29068 18.924057
-5.291974 -85.114723 19.336012
-6.054072 -87.451057 16.761475
-7.087618 -89.763687 14.332277
-15.542757 -95.071686 10.860429
-13.513172 -95.046448 10.359493
-14.845695 -96.744392 8.110745
-14.101925 -98.349197 5.331278
-19.781507 -97.453331 6.274178
-20.929909 -98.534119 3.567842
-21.338173 -96.639465 6.319758
-22.835262 -95.351334 6.332359
-23.95619 -93.965683 6.137563
-23.47768 -91.119072 11.349792
-24.260681 -91.683212 8.598739
-24.896593 -92.200165 5.820482
-13.074278 -84.244827 25.875313
-11.989325 -85.890694 22.988901
-10.996767 -87.541306 20.080627
-12.950107 -87.945442 20.581238
-13.962584 -89.732574 18.43482
-15.146972 -91.68557 15.919973
-17.628981 -89.738739 19.007435
-17.020414 -91.70591 16.100983
-16.302433 -93.374771 13.547482
-17.518616 -94.960518 11.064866
-18.745066 -96.209717 8.792126
-23.955839 -81.392097 25.225233
-24.291473 -82.111519 22.778238
-24.826302 -79.959457 24.540514
-25.547924 -78.269791 23.629385
-24.680872 -82.531319 20.302347
-25.06604 -82.788872 17.603888
-25.383183 -83.048874 14.829978
-25.90638 -78.854225 15.738256
-25.756014 -80.942749 13.949438
-25.636402 -83.381897 12.104535
-2.218762 -85.676018 16.252939
-10.080403 -89.078415 17.339134
-9.288564 -90.609871 14.658748
-8.217362 -92.011131 11.943481
-11.496668 -94.854721 9.753918
-9.409108 -94.215248 9.506427
-7.189454 -93.464218 9.126081
-19.748536 -99.904873 2.066619
-18.837727 -100.248474 1.961688
-18.837727 -100.248474 1.961688
-17.894177 -100.50145 1.826105
-18.310147 -99.642349 3.167871
-25.988426 -77.618675 19.430132
-25.762192 -78.626758 19.902631
-25.934047 -77.487262 20.747583
-26.027373 -77.700172 11.269623
-26.030318 -76.406158 10.931175
-2.324518 -80.866371 22.650957
-2.941453 -80.144833 24.053569
-3.184754 -81.275318 22.770194
-1.713865 -81.550763 21.320336
-2.324518 -80.866371 22.650957
-2.001626 -82.691395 20.034977
-1.147671 -82.2453 19.987731
-1.713865 -81.550763 21.320336
-5.606271 -91.905731 10.22567
-4.524204 -91.478729 10.018773
-5.034708 -90.778259 11.403338
-10.672086 -97.834423 4.637624
-11.36939 -98.749699 3.55607
-26.283399 -73.056725 13.272393
-26.396273 -73.17065 14.620413
-26.422779 -71.985233 14.061931
-14.679882 -99.1716 4.087226
-15.104605 -98.390858 5.439485
-15.682562 -99.213261 4.195433
-13.60172 -99.066715 3.981206
-14.679882 -99.1716 4.087226
-25.290557 -90.045113 6.879689
-25.231376 -91.166519 5.642779
-24.955773 -91.078758 7.057392
-24.671452 -79.653709 25.836478
-24.39107 -80.675777 24.882874
-24.236221 -80.370029 26.178838
-25.776585 -77.20377 24.51596
-25.462466 -78.016129 24.959384
-25.830689 -77.287392 23.225784
-25.776585 -77.20377 24.51596
-24.236221 -80.370029 26.178838
-23.742404 -81.000202 26.503311
-21.411479 -98.977329 2.225116
-21.655361 -97.948017 3.682983
-25.875742 -82.292874 10.308626
-25.755159 -83.398255 10.7039
-25.756985 -82.276516 11.709262
-2.09846 -87.483711 13.728231
-2.525867 -88.692383 12.392899
-8.930294 -94.92141 8.137683
-10.03182 -95.285736 8.255195
-9.553005 -95.991897 6.886451
-7.820467 -94.545895 7.94751
-8.299281 -93.839733 9.316254
-8.930294 -94.92141 8.137683
-6.739707 -94.146588 7.785948
-7.820467 -94.545895 7.94751
-22.191865 -83.134235 25.946032
-21.899822 -82.653724 27.219511
-22.55981 -82.145527 27.063757
-26.476391 -70.840194 13.542862
-26.422779 -71.985233 14.061931
-10.86254 -82.640618 26.726228
-11.778809 -82.950161 26.904106
-9.922159 -82.336479 26.495494
-10.86254 -82.640618 26.726228
-10.291811 -83.426819 25.283074
-9.038338 -81.951145 26.361751
-9.922159 -82.336479 26.495494
-8.410056 -82.677956 24.939011
-8.096963 -81.506421 26.248422
-9.038338 -81.951145 26.361751
-16.312219 -99.944664 2.937731
-15.682562 -99.213261 4.195433
-16.736942 -99.163922 4.289991
-16.91485 -100.659149 1.73239
-16.312219 -99.944664 2.937731
-16.91485 -100.659149 1.73239
-17.894177 -100.50145 1.826105
-25.352388 -87.699417 9.336652
-25.297111 -88.879112 8.131372
-25.070231 -88.777657 9.499582
-25.587167 -86.715465 9.020467
-25.352388 -87.699417 9.336652
-25.360285 -86.61401 10.388678
-25.755355 -85.65839 8.660623
-25.587167 -86.715465 9.020467
-17.952526 -83.817795 27.697485
-18.782827 -83.761799 27.657534
-17.118046 -83.822201 27.721679
-17.952526 -83.817795 27.697485
-17.517828 -84.656475 26.463943
-16.228904 -83.810044 27.61352
-17.118046 -83.822201 27.721679
-15.799221 -84.62386 26.338681
-15.344777 -83.773022 27.464064
-16.228904 -83.810044 27.61352
-25.975551 -78.817078 11.685461
-26.023308 -77.596558 12.650543
-26.027373 -77.700172 11.269623
-25.928591 -80.045914 10.809265
-25.924526 -79.942299 12.190185
-25.975551 -78.817078 11.685461
-25.925833 -81.104152 9.989854
-25.928591 -80.045914 10.809265
-3.543233 -79.409859 25.438076
-4.374085 -79.861134 25.499417
-3.543233 -79.409859 25.438076
-2.941453 -80.144833 24.053569
-0.546049 -82.86853 18.738492
-0.258288 -81.727898 20.023851
-1.147671 -82.2453 19.987731
-0.887467 -84.026249 17.446415
-0.546049 -82.86853 18.738492
-2.927665 -89.807644 11.156423
-2.525867 -88.692383 12.392899
-3.550845 -89.235996 12.432916
-3.442785 -91.018501 9.835248
-2.417807 -90.474887 9.79523
-2.927665 -89.807644 11.156423
-3.442785 -91.018501 9.835248
-4.524204 -91.478729 10.018773
-10.063621 -96.969043 5.692724
-11.262996 -97.221604 5.948863
-10.672086 -97.834423 4.637624
-9.553005 -95.991897 6.886451
-10.063621 -96.969043 5.692724
-21.163345 -83.063217 27.362293
-21.899822 -82.653724 27.219511
-20.42257 -83.397991 27.466932
-21.163345 -83.063217 27.362293
-20.791103 -83.977207 26.206426
-19.631838 -83.591755 27.593193
-20.42257 -83.397991 27.466932
-19.201318 -84.482025 26.375408
-18.782827 -83.761799 27.657534
-19.631838 -83.591755 27.593193
-26.304561 -75.634068 18.377937
-26.149403 -76.628154 18.944153
-26.255713 -75.661541 17.064808
-26.304561 -75.634068 18.377937
-26.253501 -75.551655 15.7222
-26.136311 -76.667244 16.270612
-26.255713 -75.661541 17.064808
-26.314898 -74.394047 15.173636
-26.396273 -73.17065 14.620413
-26.195497 -75.39975 14.379441
-26.253501 -75.551655 15.7222
-26.314898 -74.394047 15.173636
-26.045269 -75.217975 10.486921
-26.030318 -76.406158 10.931175
-26.090081 -75.29147 11.790451
-7.147398 -81.116948 26.023972
-8.096963 -81.506421 26.248422
-6.233956 -80.696197 25.866117
-7.147398 -81.116948 26.023972
-6.555239 -81.812481 24.667826
-5.294139 -80.280109 25.667998
-5.886297 -79.584576 27.024145
-6.233956 -80.696197 25.866117
-4.721743 -80.972756 24.341388
-4.374085 -79.861134 25.499417
-5.294139 -80.280109 25.667998
-12.486488 -98.935608 3.762447
-12.986693 -98.21809 5.11252
-13.60172 -99.066715 3.981206
-11.36939 -98.749699 3.55607
-12.486488 -98.935608 3.762447
-21.859493 -97.00069 5.058941
-21.655361 -97.948017 3.682983
-21.134041 -97.586792 4.9438
-22.608038 -96.356625 5.065241
-21.859493 -97.00069 5.058941
-22.086717 -95.995399 6.326059
-23.265828 -95.691559 4.922524
-22.608038 -96.356625 5.065241
-23.826292 -94.998734 4.825126
-23.265828 -95.691559 4.922524
-23.395726 -94.658508 6.234961
-24.318453 -94.141835 4.82458
-23.826292 -94.998734 4.825126
-24.788654 -93.259075 4.66604
-24.318453 -94.141835 4.82458
-24.426392 -93.082924 5.979023
-25.18092 -92.293053 4.486142
-24.788654 -93.259075 4.66604
-25.18092 -92.293053 4.486142
-25.231376 -91.166519 5.642779
-25.290557 -90.045113 6.879689
-25.297111 -88.879112 8.131372
-14.495244 -83.604786 27.39304
-15.344777 -83.773022 27.464064
-13.574835 -83.43378 27.236083
-14.495244 -83.604786 27.39304
-13.994687 -84.415832 26.032269
-12.699852 -83.207096 27.084859
-13.574835 -83.43378 27.236083
-12.153235 -83.987892 25.69456
-11.778809 -82.950161 26.904106
-12.699852 -83.207096 27.084859
-25.101654 -78.860962 25.414949
-24.671452 -79.653709 25.836478
-25.187113 -79.114624 24.08495
-25.101654 -78.860962 25.414949
-25.462466 -78.016129 24.959384
-25.910634 -77.40017 22.021133
-25.627868 -78.382568 22.424733
-25.830689 -77.287392 23.225784
-25.934047 -77.487262 20.747583
-25.910634 -77.40017 22.021133
-23.19041 -81.617172 26.785833
-22.55981 -82.145527 27.063757
-23.403846 -82.009068 25.507755
-23.19041 -81.617172 26.785833
-23.742404 -81.000202 26.503311
-20.586642 -99.477246 2.198813
-19.748536 -99.904873 2.066619
-20.091803 -98.961747 3.435648
-20.586642 -99.477246 2.198813
-21.411479 -98.977329 2.225116
-25.977546 -77.767651 18.0992
-25.988426 -77.618675 19.430132
-26.149403 -76.628154 18.944153
-25.73449 -84.522335 9.687879
-25.615733 -84.505978 11.088514
-25.755159 -83.398255 10.7039
-25.755355 -85.65839 8.660623
-25.73449 -84.522335 9.687879
-25.875742 -82.292874 10.308626
-25.925833 -81.104152 9.989854
-26.338389 -70.674023 12.245012
-26.476391 -70.840194 13.542862
-26.504875 -69.64291 13.073963
-26.191358 -71.856205 11.473304
-26.338389 -70.674023 12.245012
-26.088923 -72.972195 10.789447
-26.207468 -72.987297 12.030054
-26.191358 -71.856205 11.473304
-26.008617 -74.036125 9.985515
-26.088923 -72.972195 10.789447
-26.045269 -75.217975 10.486921
-26.008617 -74.036125 9.985515
-1.279131 -85.171291 16.221699
-0.887467 -84.026249 17.446415
-1.827097 -84.530975 17.477656
-1.633317 -86.261353 15.020005
-2.683905 -86.898376 14.961165
-2.09846 -87.483711 13.728231
-1.279131 -85.171291 16.221699
-1.633317 -86.261353 15.020005
-6.14261 -93.03521 8.983593
-5.606271 -91.905731 10.22567
-6.653114 -92.334739 10.368158
-6.14261 -93.03521 8.983593
-6.739707 -94.146588 7.785948
3 0 34 32
3 0 37 35
3 0 32 37
3 1 139 140
3 2 40 39
3 2 42 40
3 2 44 42
3 1 47 45
3 1 141 143
3 143 142 47
3 141 142 143
3 3 50 48
3 4 53 51
3 4 54 53
3 5 56 55
3 5 58 56
3 5 60 58
3 3 63 61
3 3 48 63
3 144 67 145
3 146 145 65
3 144 145 146
3 148 147 68
3 7 149 151
3 151 150 70
3 149 150 151
3 7 152 153
3 7 154 156
3 154 71 155
3 154 155 156
3 8 74 72
3 8 157 159
3 159 158 74
3 157 158 159
3 6 77 75
3 161 160 78
3 9 82 80
3 11 83 33
3 11 84 83
3 12 85 36
3 12 86 85
3 12 88 86
3 9 89 38
3 9 80 89
3 15 162 164
3 162 91 163
3 162 163 164
3 15 92 91
3 16 93 41
3 16 94 93
3 16 96 94
3 18 97 43
3 18 98 97
3 19 101 99
3 165 102 166
3 167 166 46
3 165 166 167
3 169 168 102
3 21 105 103
3 22 106 49
3 22 107 106
3 10 108 81
3 23 109 52
3 23 110 109
3 23 170 172
3 172 171 110
3 170 171 172
3 24 111 57
3 24 112 111
3 24 114 112
3 26 115 59
3 26 116 115
3 13 117 87
3 27 118 62
3 27 119 118
3 27 120 119
3 21 121 64
3 21 103 121
3 173 124 174
3 175 174 122
3 173 174 175
3 176 125 177
3 179 178 125
3 180 122 181
3 183 182 104
3 28 126 123
3 29 127 66
3 29 128 127
3 14 129 90
3 30 130 69
3 30 131 130
3 30 184 186
3 186 185 131
3 184 185 186
3 17 132 95
3 188 187 73
3 25 133 113
3 31 134 76
3 31 135 134
3 20 136 100
3 189 137 190
3 191 190 79
3 189 190 191
3 192 138 193
3 194 193 137
3 192 193 194
3 196 195 138
3 32 33 9
3 34 33 32
3 34 11 33
3 35 197 199
3 197 36 198
3 197 198 199
3 37 36 35
3 37 12 36
3 37 38 12
3 32 38 37
3 32 9 38
3 200 15 201
3 39 202 203
3 40 204 206
3 206 205 39
3 204 205 206
3 40 207 208
3 40 209 211
3 209 41 210
3 209 210 211
3 42 41 40
3 42 16 41
3 42 43 16
3 44 43 42
3 44 18 43
3 45 46 19
3 47 46 45
3 47 212 214
3 214 213 46
3 212 213 214
3 47 215 216
3 218 217 47
3 48 49 21
3 50 49 48
3 50 22 49
3 51 52 10
3 53 52 51
3 53 23 52
3 53 219 221
3 221 220 23
3 219 220 221
3 54 222 224
3 224 223 53
3 222 223 224
3 54 225 226
3 55 227 228
3 56 229 231
3 231 230 55
3 229 230 231
3 56 232 233
3 56 234 236
3 234 57 235
3 234 235 236
3 58 57 56
3 58 24 57
3 58 59 24
3 60 59 58
3 60 26 59
3 61 62 13
3 63 62 61
3 63 27 62
3 63 64 27
3 48 64 63
3 48 21 64
3 65 66 28
3 67 66 65
3 67 29 66
3 68 69 14
3 237 69 238
3 239 238 68
3 237 238 239
3 240 30 241
3 242 241 69
3 240 241 242
3 244 243 30
3 70 245 246
3 248 247 70
3 71 249 251
3 249 250 251
3 71 252 253
3 72 73 17
3 74 73 72
3 74 254 256
3 256 255 73
3 254 255 256
3 74 257 259
3 257 258 259
3 261 260 74
3 75 76 25
3 77 76 75
3 77 31 76
3 78 79 20
3 262 79 263
3 264 263 78
3 262 263 264
3 266 265 79
3 80 81 3
3 82 81 80
3 82 10 81
3 33 82 9
3 83 82 33
3 83 10 82
3 83 51 10
3 84 51 83
3 84 4 51
3 36 267 268
3 85 269 271
3 271 270 36
3 269 270 271
3 85 272 273
3 85 274 276
3 274 55 275
3 274 275 276
3 86 55 85
3 86 5 55
3 86 87 5
3 88 87 86
3 88 13 87
3 38 88 12
3 89 88 38
3 89 13 88
3 89 61 13
3 80 61 89
3 80 3 61
3 277 90 278
3 279 90 280
3 281 14 282
3 283 282 90
3 281 282 283
3 91 284 285
3 91 286 288
3 286 14 287
3 286 287 288
3 91 68 14
3 92 68 91
3 92 289 291
3 291 290 68
3 289 290 291
3 41 292 293
3 93 294 296
3 296 295 41
3 294 295 296
3 93 297 299
3 297 298 299
3 93 300 302
3 300 70 301
3 300 301 302
3 94 70 93
3 94 7 70
3 94 95 7
3 96 95 94
3 96 17 95
3 43 96 16
3 97 96 43
3 97 17 96
3 97 72 17
3 98 72 97
3 98 8 72
3 99 100 6
3 101 100 99
3 101 20 100
3 46 101 19
3 102 101 46
3 102 20 101
3 102 78 20
3 303 78 304
3 305 304 102
3 303 304 305
3 307 306 78
3 103 104 1
3 105 104 103
3 105 308 310
3 310 309 104
3 308 309 310
3 49 105 21
3 106 105 49
3 106 311 313
3 313 312 105
3 311 312 313
3 106 314 315
3 107 316 318
3 318 317 106
3 316 317 318
3 107 319 320
3 81 50 3
3 108 50 81
3 108 22 50
3 52 108 10
3 109 108 52
3 109 22 108
3 109 107 22
3 110 107 109
3 110 321 323
3 323 322 107
3 321 322 323
3 110 324 325
3 327 326 110
3 329 328 23
3 57 330 331
3 111 332 334
3 334 333 57
3 332 333 334
3 111 335 336
3 111 337 339
3 337 39 338
3 337 338 339
3 112 39 111
3 112 2 39
3 112 113 2
3 114 113 112
3 114 25 113
3 59 114 24
3 115 114 59
3 115 25 114
3 115 75 25
3 116 75 115
3 116 6 75
3 87 60 5
3 117 60 87
3 117 26 60
3 62 117 13
3 118 117 62
3 118 26 117
3 118 116 26
3 119 116 118
3 119 6 116
3 119 99 6
3 120 99 119
3 120 19 99
3 64 120 27
3 121 120 64
3 121 19 120
3 121 45 19
3 103 45 121
3 103 1 45
3 122 123 0
3 124 123 122
3 124 28 123
3 340 124 341
3 125 342 344
3 342 124 343
3 342 343 344
3 125 28 124
3 125 65 28
3 345 65 346
3 347 346 125
3 345 346 347
3 349 348 65
3 350 35 351
3 122 352 354
3 352 35 353
3 352 353 354
3 122 0 35
3 104 355 357
3 357 356 1
3 355 356 357
3 359 358 104
3 123 34 0
3 126 34 123
3 126 11 34
3 66 126 28
3 127 126 66
3 127 11 126
3 127 84 11
3 128 84 127
3 128 4 84
3 90 360 362
3 360 67 361
3 360 361 362
3 129 67 90
3 129 29 67
3 69 129 14
3 130 129 69
3 130 29 129
3 130 128 29
3 131 128 130
3 131 4 128
3 131 54 4
3 363 54 364
3 365 364 131
3 363 364 365
3 367 366 54
3 369 368 30
3 370 15 371
3 370 371 372
3 373 15 374
3 375 92 376
3 377 376 15
3 375 376 377
3 378 92 379
3 381 380 92
3 95 71 7
3 132 71 95
3 132 382 384
3 384 383 71
3 382 383 384
3 73 132 17
3 385 132 386
3 387 386 73
3 385 386 387
3 389 388 132
3 113 44 2
3 133 44 113
3 133 18 44
3 76 133 25
3 134 133 76
3 134 18 133
3 134 98 18
3 135 98 134
3 135 8 98
3 100 77 6
3 136 77 100
3 136 31 77
3 79 136 20
3 137 136 79
3 137 31 136
3 137 135 31
3 138 135 137
3 138 8 135
3 138 390 392
3 392 391 8
3 390 391 392
3 394 393 138
