ply
format ascii 1.0
element vertex 130
property float x
property float y
property float z
element face 94
property list uchar int vertex_index
end_header
24.343889 40.110817 -48.778278
17.302885 35.908211 -51.004139
14.329775 38.455051 -52.008469
30.814995 44.391586 -45.072807
22.737225 41.496101 -49.638958
20.732368 38.001175 -50.044174
22.197378 36.538483 -49.294746
30.462154 39.244732 -44.667431
29.076736 40.882362 -46.034321
17.697323 40.734245 -51.220325
16.092119 41.693829 -51.661697
15.849375 37.431698 -51.551403
32.072376 42.59103 -43.636356
19.23246 39.245964 -50.668373
18.737989 34.604477 -50.393917
25.758102 38.496262 -47.83289
23.540557 40.803459 -49.208618
23.709153 43.378868 -49.407858
24.512486 42.686226 -48.977518
29.521318 37.316807 -45.087416
30.207357 36.619535 -44.408609
32.680027 41.805441 -42.858542
32.787441 44.354366 -43.020416
31.901551 39.987858 -43.403418
32.680027 41.805441 -42.858542
20.188883 41.005093 -50.503414
19.458607 41.673983 -50.771982
19.439687 34.030787 -50.064234
19.735178 36.302826 -50.219046
20.436877 35.729135 -49.889362
18.383219 32.250118 -50.242962
19.439687 34.030787 -50.064234
30.108604 45.046558 -45.732687
30.885734 46.818863 -45.244724
28.302779 41.389128 -46.639602
28.169331 38.971576 -46.372476
26.510015 37.778526 -47.271761
26.643462 40.196078 -47.538887
14.434981 40.69667 -52.006449
15.316153 42.31606 -51.833063
15.210947 40.07444 -51.835083
16.287609 34.400801 -51.219026
16.98855 33.610501 -50.893284
22.927515 44.066961 -49.791429
23.709153 43.378868 -49.407858
21.941266 42.130161 -49.988707
22.927515 44.066961 -49.791429
21.734797 39.748638 -49.841566
20.938837 40.382698 -50.191315
21.941266 42.130161 -49.988707
21.169382 34.997789 -49.514648
20.436877 35.729135 -49.889362
21.464873 37.269829 -49.66946
28.828609 38.135622 -45.770861
29.769445 40.063547 -45.350876
29.521318 37.316807 -45.087416
28.169331 38.971576 -46.372476
28.828609 38.135622 -45.770861
13.599381 39.119268 -52.190718
13.476111 37.038923 -52.224155
25.270085 41.959604 -48.521607
24.512486 42.686226 -48.977518
16.894721 41.214037 -51.441011
17.02996 43.443691 -51.505815
17.832562 42.963899 -51.285129
15.560854 35.162544 -51.492659
16.57613 36.669955 -51.277771
16.287609 34.400801 -51.219026
14.953303 35.966924 -51.749765
15.560854 35.162544 -51.492659
14.193503 36.478601 -51.978298
15.089575 37.943374 -51.779936
14.953303 35.966924 -51.749765
13.476111 37.038923 -52.224155
14.193503 36.478601 -51.978298
31.566765 46.017337 -44.49662
30.885734 46.818863 -45.244724
32.195455 45.11706 -43.778395
32.787441 44.354366 -43.020416
31.443686 43.491308 -44.354581
31.566765 46.017337 -44.49662
32.195455 45.11706 -43.778395
31.09644 38.314709 -43.918955
31.267265 40.917881 -44.151893
31.901551 39.987858 -43.403418
30.207357 36.619535 -44.408609
31.09644 38.314709 -43.918955
18.691039 42.418123 -51.047958
17.832562 42.963899 -51.285129
18.464892 39.990105 -50.944349
18.691039 42.418123 -51.047958
19.458607 41.673983 -50.771982
19.982414 38.62357 -50.356274
20.188883 41.005093 -50.503414
20.938837 40.382698 -50.191315
17.706102 32.958634 -50.588173
16.98855 33.610501 -50.893284
18.020437 35.256344 -50.699028
17.706102 32.958634 -50.588173
18.383219 32.250118 -50.242962
29.239475 43.291946 -46.213444
30.108604 45.046558 -45.732687
29.945866 42.636974 -45.553564
29.239475 43.291946 -46.213444
28.302779 41.389128 -46.639602
25.977191 41.152327 -48.048913
26.643462 40.196078 -47.538887
25.050995 39.303539 -48.305584
25.270085 41.959604 -48.521607
25.977191 41.152327 -48.048913
25.408337 35.899764 -47.616864
26.510015 37.778526 -47.271761
24.702651 36.758645 -48.126549
25.408337 35.899764 -47.616864
23.995545 37.565922 -48.599243
25.050995 39.303539 -48.305584
24.702651 36.758645 -48.126549
22.922289 35.779755 -48.857477
23.270634 38.32465 -49.036512
23.995545 37.565922 -48.599243
21.836465 33.996027 -49.091677
22.922289 35.779755 -48.857477
21.169382 34.997789 -49.514648
21.836465 33.996027 -49.091677
16.233829 44.023009 -51.67547
17.02996 43.443691 -51.505815
16.233829 44.023009 -51.67547
15.316153 42.31606 -51.833063
14.434981 40.69667 -52.006449
13.599381 39.119268 -52.190718
3 0 16 18
3 16 4 17
3 16 17 18
3 0 6 4
3 20 19 7
3 1 11 9
3 21 12 22
3 24 23 12
3 25 13 26
3 27 14 28
3 29 28 5
3 27 28 29
3 31 30 14
3 3 32 33
3 35 34 8
3 36 15 37
3 2 38 40
3 40 39 10
3 38 39 40
3 42 41 1
3 4 43 44
3 4 45 46
3 4 47 49
3 47 5 48
3 47 48 49
3 6 5 4
3 6 50 52
3 52 51 5
3 50 51 52
3 7 8 3
3 53 8 54
3 55 54 7
3 53 54 55
3 57 56 8
3 59 58 2
3 60 0 61
3 9 62 64
3 62 10 63
3 62 63 64
3 11 10 9
3 11 2 10
3 65 11 66
3 67 66 1
3 65 66 67
3 68 11 69
3 70 2 71
3 72 71 11
3 70 71 72
3 74 73 2
3 75 3 76
3 12 77 78
3 12 79 81
3 79 3 80
3 79 80 81
3 12 7 3
3 82 7 83
3 84 83 12
3 82 83 84
3 86 85 7
3 87 9 88
3 13 89 91
3 89 9 90
3 89 90 91
3 13 1 9
3 5 92 94
3 92 13 93
3 92 93 94
3 14 13 5
3 14 1 13
3 14 95 97
3 97 96 1
3 95 96 97
3 99 98 14
3 8 100 102
3 102 101 3
3 100 101 102
3 104 103 8
3 15 105 106
3 15 107 109
3 107 0 108
3 107 108 109
3 110 15 111
3 112 15 113
3 114 0 115
3 116 115 15
3 114 115 116
3 117 6 118
3 119 118 0
3 117 118 119
3 120 6 121
3 123 122 6
3 10 124 125
3 127 126 10
3 129 128 2
