ply
format ascii 1.0
element vertex 505
property float x
property float y
property float z
element face 528
property list uchar int vertex_index
end_header
28.248569 100.219185 -18.737417
35.251774 74.728706 -29.485252
33.986862 77.297798 -3.607514
35.545082 47.15015 -39.475239
32.001419 89.708946 -25.27212
34.891945 78.149864 -17.150377
31.732601 90.273857 -11.302322
23.283827 105.932404 -10.056607
37.730816 56.991535 -31.88072
37.309849 64.000656 -9.015941
30.228935 95.513245 -22.179127
31.906696 90.640808 -18.394314
30.183525 95.890556 -15.237527
25.4867 103.68412 -21.917694
24.796816 102.409302 -28.771519
27.942472 99.50061 -25.699099
36.657757 66.092178 -30.737013
36.687061 69.010109 -25.347551
34.467392 78.351204 -10.585112
36.09425 71.548927 -13.021619
35.605537 71.166519 -6.558722
34.975819 70.017479 0.173495
33.679958 79.489433 -33.351173
35.054012 71.127975 -34.803547
36.178795 62.327629 -35.637371
33.503757 51.229603 -42.696972
33.677296 82.797043 -27.553072
35.20657 76.87793 -23.473619
33.604973 84.124329 -21.292713
33.304699 84.646027 -14.40182
32.926422 84.017014 -7.198544
24.046295 99.690994 -34.920139
25.952084 103.790573 -14.453988
28.35741 99.90834 -11.292299
26.132389 102.92263 -6.951902
22.608866 106.507919 -17.561827
36.515285 70.676376 -19.415249
30.128162 94.915771 -7.55385
31.446367 89.033737 -3.861928
32.492401 82.45298 -0.00657
35.225212 57.209541 -39.582165
36.937683 52.896965 -36.164242
29.286066 97.985069 -20.373152
30.236532 95.802338 -18.600912
29.251829 98.256767 -16.960073
26.999611 102.089188 -20.17392
26.769131 101.780296 -23.716232
28.136002 99.991768 -22.143522
29.208366 97.57756 -23.917368
35.98859 70.364426 -30.241577
36.744541 67.438286 -28.197266
36.032642 71.723618 -27.423742
34.225994 78.022629 -7.15813
34.998035 74.998993 -8.448271
34.777664 74.354836 -5.135904
35.328487 70.546402 -3.172059
34.502705 73.703392 -1.824459
34.508133 77.079956 -31.546761
34.364853 75.477341 -34.20475
35.182793 73.091354 -32.31126
35.860332 68.717712 -32.906887
34.594498 49.269203 -41.078224
33.502506 46.117702 -42.404476
32.858891 86.352684 -26.534008
33.652386 83.651932 -24.466658
32.831413 87.102814 -23.143023
31.851446 90.502861 -14.825294
32.642452 87.72699 -16.465326
32.510002 87.56456 -12.73467
33.096695 84.549156 -10.716907
32.307915 87.420204 -9.251736
26.138294 100.158447 -30.621529
24.434822 101.152328 -32.085796
25.964705 98.600952 -33.705505
31.983112 88.796631 -28.485193
32.875526 85.102722 -29.745951
24.668535 105.059761 -12.358469
26.051603 103.483345 -10.672146
24.762329 104.61808 -8.481807
22.970499 106.36834 -13.905667
24.399971 105.327797 -15.960693
35.079475 77.589317 -20.325422
35.910515 73.657623 -21.533669
35.692108 74.595032 -18.485397
36.687927 67.943893 -11.017351
36.950058 67.681404 -14.246972
28.383886 99.290382 -7.194592
29.343346 97.468323 -9.448958
29.310791 96.755287 -5.465065
31.293562 88.030388 -0.094145
31.980791 85.879723 -1.952825
31.831661 84.740814 1.56221
34.84066 61.943539 -39.546837
36.957729 59.846523 -33.8386
36.641998 57.445164 -35.928757
37.414169 55.164314 -34.056297
31.16045 92.698212 -23.636724
32.038017 90.117867 -21.732052
31.164885 93.06633 -20.233603
31.082207 93.308014 -16.599268
31.031107 93.117348 -13.216702
23.751261 104.949181 -23.39407
23.412491 104.284821 -26.715464
25.232637 103.196144 -25.220699
26.439049 101.196968 -27.25552
37.252731 61.46109 -31.396265
37.386333 63.090336 -28.881775
37.367191 64.879997 -26.134258
37.336048 66.006813 -23.305721
34.65992 78.539909 -13.948483
35.515148 74.864128 -15.097593
35.312035 74.84951 -11.733521
35.847164 71.543709 -9.736718
36.457474 67.646317 -7.7565
37.006176 63.973358 -5.889335
36.10923 67.515923 -4.391239
34.817635 69.180954 -36.957321
35.321682 64.503387 -37.514629
35.674328 66.62825 -35.293503
36.500786 64.280174 -33.22192
32.318535 47.643089 -43.920433
34.469872 78.879616 -28.709417
35.23978 76.041801 -26.611242
34.461525 79.910599 -25.738579
34.436264 80.480591 -22.52887
34.282665 81.144852 -19.357969
32.763779 87.517197 -19.810713
33.498737 84.420387 -17.987503
34.109486 81.456238 -15.903296
33.866589 81.679634 -12.388849
33.694511 81.315926 -9.07971
33.499916 80.586014 -5.41211
22.965105 103.283493 -30.077606
22.506435 102.021278 -33.040485
21.969336 100.228447 -36.122536
33.738804 81.160744 -30.611113
27.178047 102.112274 -16.659599
28.281137 100.266716 -15.050282
27.165588 102.116455 -13.037886
27.359795 101.473015 -9.1281
22.379145 106.258278 -21.091949
24.173489 105.235748 -19.72444
25.7988 103.819031 -18.279556
35.945286 73.081223 -24.66501
36.615986 70.045616 -22.4195
36.358719 71.071007 -16.31179
29.296427 98.039162 -13.378419
30.166508 95.554428 -11.53451
30.912785 92.818428 -9.535384
30.074785 93.988083 -3.536972
30.800707 92.121452 -5.528205
31.528028 90.056534 -7.654775
32.121979 86.902679 -5.646619
32.704193 83.408348 -3.647305
33.197815 80.081924 -1.806683
32.274574 81.430611 3.450373
32.997044 78.864143 1.745546
33.721203 76.445557 -0.113533
34.42284 54.363033 -41.322582
35.463936 52.38184 -39.567337
35.780922 59.815563 -37.750633
36.156891 55.028019 -37.821484
36.325054 50.438694 -37.937187
35.018896 45.640871 -40.191979
34.543604 46.700397 -40.993471
35.06979 48.209677 -40.276731
26.690783 98.044964 -33.020914
26.051499 99.3797 -32.163517
26.777578 98.823712 -31.478926
26.518462 97.290867 -34.495847
26.690783 98.044964 -33.020914
31.992265 89.252789 -26.878656
31.560388 90.359016 -27.768524
31.569542 90.815174 -26.161988
23.127163 106.150372 -11.981137
22.258243 106.66932 -12.725993
22.414907 106.451352 -10.801463
38.069013 55.593712 -30.914428
37.924684 54.794929 -32.056556
37.427822 64.026032 -10.631839
37.116861 65.99765 -11.632544
36.998888 65.972274 -10.016646
37.712183 62.207737 -9.685792
37.427822 64.026032 -10.631839
37.591156 62.155828 -8.141024
37.712183 62.207737 -9.685792
28.85343 97.585667 -4.368785
28.847338 98.022834 -6.329828
28.389978 98.853214 -5.233549
31.223569 87.422612 1.731119
30.913953 89.102223 1.007737
31.492618 85.777825 2.559296
31.562612 86.385601 0.734033
31.223569 87.422612 1.731119
34.619619 64.376173 -39.376028
34.365553 62.815943 -40.359644
37.924684 54.794929 -32.056556
37.766361 53.881319 -33.144344
37.572492 56.077924 -32.968508
27.837623 99.060119 -27.415437
27.085911 99.908299 -28.193648
27.19076 100.348789 -26.47731
28.5316 98.140564 -26.537245
27.837623 99.060119 -27.415437
30.21801 95.165646 -23.96918
29.707726 96.197804 -24.8383
29.718651 96.545402 -23.048248
30.694693 94.105728 -22.907926
30.683768 93.758129 -24.697978
30.21801 95.165646 -23.96918
35.387595 68.489952 -0.521337
35.563929 68.754413 -2.194114
35.152153 70.28194 -1.499282
35.234966 67.982479 1.114803
35.387595 68.489952 -0.521337
33.566811 78.688606 -34.645077
33.18094 80.741215 -34.270641
34.59018 72.356777 -35.74334
34.2456 74.53146 -35.443941
34.709432 73.302658 -34.504148
34.935823 70.154465 -35.880434
34.471991 71.383266 -36.820227
34.59018 72.356777 -35.74334
32.911146 49.436346 -43.308703
32.317211 50.143284 -44.065668
32.909822 51.93654 -43.453938
32.787441 44.354366 -43.020416
33.395092 43.568777 -42.242602
23.751888 98.804978 -36.304325
22.713408 99.073704 -36.905524
23.007815 99.959721 -35.521338
26.726378 101.900276 -6.042542
27.340081 101.175468 -7.130641
26.746092 102.197823 -8.040001
21.64962 106.885151 -18.262238
21.873442 106.887161 -16.42756
22.494006 106.383099 -19.326888
21.534759 106.760331 -20.027299
21.64962 106.885151 -18.262238
36.882528 68.779495 -19.935105
36.932879 68.464115 -21.43723
36.565635 70.360996 -20.917375
37.055736 67.463673 -15.908179
37.343939 65.773985 -14.789223
37.286491 62.03581 -5.012726
36.840697 63.828392 -4.310047
30.003063 93.586365 -1.688606
29.635972 94.993954 -2.57663
31.123537 90.577595 -4.695066
30.765808 91.579575 -3.627493
31.088638 90.035717 -2.794354
32.185257 80.686375 5.236199
31.955767 82.453106 4.391139
33.229056 77.030853 2.640786
32.864951 78.34542 3.471122
33.591135 75.82156 1.711247
33.359124 77.65485 0.816007
33.229056 77.030853 2.640786
33.946449 74.624901 0.867354
33.591135 75.82156 1.711247
34.824026 55.786287 -40.452374
34.32221 56.707611 -41.311594
34.723396 58.130865 -40.441386
37.054833 50.66894 -36.156176
36.748518 49.439804 -37.042648
36.631369 51.667829 -37.050714
33.997608 45.124647 -41.656597
34.048502 47.693452 -41.74135
34.543604 46.700397 -40.993471
33.395092 43.568777 -42.242602
33.997608 45.124647 -41.656597
25.693718 97.809296 -35.163666
24.734513 98.354317 -35.770983
25.0055 99.145973 -34.312822
25.693718 97.809296 -35.163666
26.518462 97.290867 -34.495847
31.50382 89.836017 -29.438215
31.560388 90.359016 -27.768524
31.965443 88.136734 -29.982575
31.50382 89.836017 -29.438215
32.429319 86.949677 -29.115572
32.41165 86.28978 -30.612955
31.965443 88.136734 -29.982575
22.054258 106.817372 -14.59948
22.258243 106.66932 -12.725993
22.789682 106.43813 -15.733747
21.873442 106.887161 -16.42756
22.054258 106.817372 -14.59948
37.247926 65.866405 -13.247355
36.818993 67.812648 -12.632161
37.116861 65.99765 -11.632544
37.343939 65.773985 -14.789223
37.247926 65.866405 -13.247355
31.012236 89.534042 -0.910463
30.913953 89.102223 1.007737
31.369965 88.532062 -1.978036
31.088638 90.035717 -2.794354
31.012236 89.534042 -0.910463
34.531121 60.497864 -40.423721
34.365553 62.815943 -40.359644
35.032936 59.57654 -39.564501
34.723396 58.130865 -40.441386
34.531121 60.497864 -40.423721
37.549637 52.937798 -34.230635
37.311394 51.804123 -35.284607
37.175926 54.030639 -35.11027
37.549637 52.937798 -34.230635
37.766361 53.881319 -33.144344
35.516298 44.800962 -39.365778
35.990515 46.40019 -38.641537
23.581876 104.617001 -25.054767
22.652401 105.071045 -25.571422
22.821786 105.403225 -23.910725
26.935533 99.389038 -29.876652
26.288671 100.677707 -28.938524
27.085911 99.908299 -28.193648
26.777578 98.823712 -31.478926
26.935533 99.389038 -29.876652
29.164548 97.179039 -25.64638
28.5316 98.140564 -26.537245
28.575419 98.539085 -24.808234
29.164548 97.179039 -25.64638
29.707726 96.197804 -24.8383
31.149057 92.309807 -25.34429
30.683768 93.758129 -24.697978
31.580934 91.203579 -24.454422
31.569542 90.815174 -26.161988
31.149057 92.309807 -25.34429
23.328421 105.625527 -8.091466
22.559765 106.16816 -8.903923
22.559765 106.16816 -8.903923
22.414907 106.451352 -10.801463
37.607933 60.042518 -30.382948
37.846975 57.807741 -30.625175
37.491773 59.226312 -31.638492
37.674734 60.857141 -29.125703
37.607933 60.042518 -30.382948
37.319532 62.275713 -30.13902
37.700428 61.733139 -27.894317
37.674734 60.857141 -29.125703
37.690857 62.62797 -26.520559
37.700428 61.733139 -27.894317
37.376762 63.985167 -27.508017
37.71311 63.182423 -25.135904
37.690857 62.62797 -26.520559
37.697539 63.74583 -23.721635
37.71311 63.182423 -25.135904
37.351619 65.443405 -24.719989
37.656522 64.354763 -22.3082
37.697539 63.74583 -23.721635
36.392224 65.599674 -3.560998
36.840697 63.828392 -4.310047
36.557703 65.744641 -5.140287
35.9543 67.239174 -2.803704
35.718858 69.031162 -3.781649
35.563929 68.754413 -2.194114
36.392224 65.599674 -3.560998
35.9543 67.239174 -2.803704
33.909258 76.68256 -35.071865
33.566811 78.688606 -34.645077
34.022405 77.483387 -33.777962
33.909258 76.68256 -35.071865
34.2456 74.53146 -35.443941
34.307555 70.222488 -37.970122
34.471991 71.383266 -36.820227
34.608107 67.99488 -38.08127
34.307555 70.222488 -37.970122
35.069659 66.842171 -37.235975
34.86013 65.656097 -38.359924
34.608107 67.99488 -38.08127
31.637504 48.444615 -44.668537
32.317211 50.143284 -44.065668
31.566765 46.017337 -44.49662
31.637504 48.444615 -44.668537
32.195455 45.11706 -43.778395
32.91052 46.880396 -43.162455
32.787441 44.354366 -43.020416
31.566765 46.017337 -44.49662
32.195455 45.11706 -43.778395
35.018896 45.640871 -40.191979
35.516298 44.800962 -39.365778
22.471477 104.60701 -27.364757
22.652401 105.071045 -25.571422
22.247785 104.106346 -29.045828
22.471477 104.60701 -27.364757
23.188798 103.784157 -28.396535
21.904871 103.603825 -30.57157
22.247785 104.106346 -29.045828
21.675536 102.972717 -32.05301
21.904871 103.603825 -30.57157
22.73577 102.652386 -31.559045
21.460375 102.238983 -33.507052
21.675536 102.972717 -32.05301
21.191825 101.342568 -35.048077
21.460375 102.238983 -33.507052
22.237885 101.124863 -34.58151
20.849339 100.509628 -36.382086
21.191825 101.342568 -35.048077
21.649645 99.362244 -37.320734
20.849339 100.509628 -36.382086
21.649645 99.362244 -37.320734
22.713408 99.073704 -36.905524
23.751888 98.804978 -36.304325
24.734513 98.354317 -35.770983
33.254442 81.572689 -32.939468
33.18094 80.741215 -34.270641
32.852226 84.379334 -31.136857
32.41165 86.28978 -30.612955
33.283865 82.408344 -31.569438
32.852226 84.379334 -31.136857
33.307165 83.131733 -30.178532
33.709381 80.325088 -31.981143
33.254442 81.572689 -32.939468
33.283865 82.408344 -31.569438
27.852127 100.084152 -6.163887
27.87184 100.381698 -8.161346
27.340081 101.175468 -7.130641
28.389978 98.853214 -5.233549
27.852127 100.084152 -6.163887
24.067673 104.968365 -7.304066
24.023078 105.275242 -9.269207
23.328421 105.625527 -8.091466
24.86415 104.188358 -6.511302
24.067673 104.968365 -7.304066
25.54918 103.340633 -5.746349
25.447359 103.770355 -7.716855
24.86415 104.188358 -6.511302
26.219145 102.412391 -4.945418
25.54918 103.340633 -5.746349
26.726378 101.900276 -6.042542
26.219145 102.412391 -4.945418
21.318211 106.607216 -21.73591
21.534759 106.760331 -20.027299
22.135728 106.057773 -22.759664
21.318211 106.607216 -21.73591
23.065203 105.60373 -22.243009
22.821786 105.403225 -23.910725
22.135728 106.057773 -22.759664
38.069013 55.593712 -30.914428
37.846975 57.807741 -30.625175
37.29291 66.444714 -21.88034
36.976017 68.026214 -22.86261
36.932879 68.464115 -21.43723
37.656522 64.354763 -22.3082
37.29291 66.444714 -21.88034
36.760067 69.158474 -16.940588
36.654388 69.376205 -15.279381
37.055736 67.463673 -15.908179
36.83835 68.961159 -18.492318
36.437002 70.873692 -17.863519
36.760067 69.158474 -16.940588
36.882528 68.779495 -19.935105
36.83835 68.961159 -18.492318
37.43932 62.142179 -6.577721
37.591156 62.155828 -8.141024
37.158012 63.987007 -7.452638
37.43932 62.142179 -6.577721
37.286491 62.03581 -5.012726
29.253975 96.377556 -3.540676
28.85343 97.585667 -4.368785
29.692788 95.371685 -4.501018
29.253975 96.377556 -3.540676
29.635972 94.993954 -2.57663
30.402847 92.51289 -2.631876
30.003063 93.586365 -1.688606
30.437746 93.054767 -4.532589
30.402847 92.51289 -2.631876
30.765808 91.579575 -3.627493
31.73431 84.108207 3.447058
31.492618 85.777825 2.559296
32.053117 83.085712 2.506292
31.73431 84.108207 3.447058
31.955767 82.453106 4.391139
32.503715 79.628654 4.323535
32.185257 80.686375 5.236199
32.635809 80.147377 2.597959
32.503715 79.628654 4.323535
32.864951 78.34542 3.471122
34.3372 73.253818 0.011891
34.111954 75.074474 -0.968996
33.946449 74.624901 0.867354
34.573757 71.410862 1.010868
34.739262 71.860435 -0.825482
34.3372 73.253818 0.011891
34.810705 69.539722 1.84006
34.573757 71.410862 1.010868
35.234966 67.982479 1.114803
34.810705 69.539722 1.84006
33.427965 53.759546 -42.79365
32.909822 51.93654 -43.453938
33.887507 55.326262 -42.106454
34.32221 56.707611 -41.311594
33.963299 52.796318 -42.009777
33.427965 53.759546 -42.79365
33.887507 55.326262 -42.106454
35.081171 63.223463 -38.530733
34.619619 64.376173 -39.376028
34.86013 65.656097 -38.359924
36.3805 48.044462 -37.872511
35.990515 46.40019 -38.641537
35.935068 48.794422 -38.706213
36.3805 48.044462 -37.872511
36.748518 49.439804 -37.042648
37.054833 50.66894 -36.156176
37.311394 51.804123 -35.284607
3 0 44 42
3 0 47 45
3 0 42 47
3 1 51 49
3 2 54 52
3 2 56 54
3 1 59 57
3 1 49 59
3 3 163 165
3 165 164 61
3 163 164 165
3 4 65 63
3 6 68 66
3 6 70 68
3 166 73 167
3 168 167 71
3 166 167 168
3 170 169 73
3 4 171 173
3 171 74 172
3 171 172 173
3 4 63 74
3 7 78 76
3 7 174 176
3 174 79 175
3 174 175 176
3 7 76 79
3 8 177 178
3 5 83 81
3 9 179 181
3 181 180 84
3 179 180 181
3 9 182 183
3 9 184 185
3 186 88 187
3 188 187 86
3 186 187 188
3 189 89 190
3 191 91 192
3 193 192 89
3 191 192 193
3 194 92 195
3 8 95 93
3 8 196 198
3 198 197 95
3 196 197 198
3 10 98 96
3 12 99 43
3 12 100 99
3 13 103 101
3 15 104 46
3 15 199 201
3 201 200 104
3 199 200 201
3 15 202 203
3 10 204 206
3 206 205 48
3 204 205 206
3 10 207 209
3 207 96 208
3 207 208 209
3 16 106 105
3 17 107 50
3 17 108 107
3 18 111 109
3 20 112 53
3 20 113 112
3 20 115 113
3 21 210 212
3 212 211 55
3 210 211 212
3 21 213 214
3 22 215 216
3 23 217 219
3 219 218 58
3 217 218 219
3 23 220 222
3 220 116 221
3 220 221 222
3 23 118 116
3 16 119 60
3 16 105 119
3 25 223 225
3 223 120 224
3 223 224 225
3 227 226 62
3 26 123 121
3 28 124 64
3 28 125 124
3 11 126 97
3 29 127 67
3 29 128 127
3 29 129 128
3 30 130 69
3 30 131 130
3 14 132 102
3 31 133 72
3 31 134 133
3 31 228 230
3 230 229 134
3 228 229 230
3 26 135 75
3 26 121 135
3 32 138 136
3 34 139 77
3 34 231 233
3 233 232 139
3 231 232 233
3 35 234 235
3 35 236 238
3 236 140 237
3 236 237 238
3 35 141 140
3 32 142 80
3 32 136 142
3 27 143 122
3 36 144 82
3 36 239 241
3 241 240 144
3 239 240 241
3 19 145 110
3 243 242 85
3 245 244 114
3 33 146 137
3 37 147 87
3 37 148 147
3 246 149 247
3 38 248 250
3 248 150 249
3 248 249 250
3 38 151 150
3 38 152 151
3 39 153 90
3 39 154 153
3 251 155 252
3 253 156 254
3 255 157 256
3 257 256 156
3 255 256 257
3 259 258 157
3 40 260 262
3 260 158 261
3 260 261 262
3 40 159 158
3 24 160 117
3 41 161 94
3 41 162 161
3 41 263 265
3 265 264 162
3 263 264 265
3 42 43 10
3 44 43 42
3 44 12 43
3 45 46 13
3 47 46 45
3 47 15 46
3 47 48 15
3 42 48 47
3 42 10 48
3 49 50 16
3 51 50 49
3 51 17 50
3 52 53 18
3 54 53 52
3 54 20 53
3 54 55 20
3 56 55 54
3 56 21 55
3 57 58 22
3 59 58 57
3 59 23 58
3 59 60 23
3 49 60 59
3 49 16 60
3 61 62 25
3 266 62 267
3 268 267 61
3 266 267 268
3 270 269 62
3 63 64 26
3 65 64 63
3 65 28 64
3 66 67 11
3 68 67 66
3 68 29 67
3 68 69 29
3 70 69 68
3 70 30 69
3 71 72 14
3 73 72 71
3 73 31 72
3 73 271 273
3 273 272 31
3 271 272 273
3 275 274 73
3 74 276 277
3 74 278 279
3 74 280 282
3 280 75 281
3 280 281 282
3 63 75 74
3 63 26 75
3 76 77 32
3 78 77 76
3 78 34 77
3 79 283 284
3 79 285 287
3 285 35 286
3 285 286 287
3 79 80 35
3 76 80 79
3 76 32 80
3 81 82 27
3 83 82 81
3 83 36 82
3 84 85 19
3 288 85 289
3 290 289 84
3 288 289 290
3 292 291 85
3 86 87 33
3 88 87 86
3 88 37 87
3 89 293 294
3 89 295 297
3 295 38 296
3 295 296 297
3 89 90 38
3 91 90 89
3 91 39 90
3 92 298 299
3 92 300 302
3 300 40 301
3 300 301 302
3 93 94 24
3 95 94 93
3 95 41 94
3 95 303 305
3 305 304 41
3 303 304 305
3 307 306 95
3 309 308 3
3 96 97 4
3 98 97 96
3 98 11 97
3 43 98 10
3 99 98 43
3 99 11 98
3 99 66 11
3 100 66 99
3 100 6 66
3 101 310 312
3 310 102 311
3 310 311 312
3 103 102 101
3 103 14 102
3 46 103 13
3 104 103 46
3 104 14 103
3 104 71 14
3 313 71 314
3 315 314 104
3 313 314 315
3 317 316 71
3 48 318 320
3 320 319 15
3 318 319 320
3 322 321 48
3 96 323 324
3 96 325 327
3 325 4 326
3 325 326 327
3 329 328 7
3 330 7 331
3 105 332 334
3 334 333 8
3 332 333 334
3 106 335 337
3 337 336 105
3 335 336 337
3 106 338 339
3 50 106 16
3 107 106 50
3 107 340 342
3 342 341 106
3 340 341 342
3 107 343 344
3 108 345 347
3 347 346 107
3 345 346 347
3 108 348 349
3 109 110 5
3 111 110 109
3 111 19 110
3 53 111 18
3 112 111 53
3 112 19 111
3 112 84 19
3 113 84 112
3 113 9 84
3 113 114 9
3 115 114 113
3 115 350 352
3 352 351 114
3 350 351 352
3 55 115 20
3 353 115 354
3 355 354 55
3 353 354 355
3 357 356 115
3 58 358 360
3 360 359 22
3 358 359 360
3 362 361 58
3 116 363 364
3 116 365 366
3 116 367 369
3 367 117 368
3 367 368 369
3 118 117 116
3 118 24 117
3 60 118 23
3 119 118 60
3 119 24 118
3 119 93 24
3 105 93 119
3 105 8 93
3 120 370 371
3 120 372 373
3 62 120 25
3 374 120 375
3 376 375 62
3 374 375 376
3 378 377 120
3 380 379 3
3 121 122 1
3 123 122 121
3 123 27 122
3 64 123 26
3 124 123 64
3 124 27 123
3 124 81 27
3 125 81 124
3 125 5 81
3 97 65 4
3 126 65 97
3 126 28 65
3 67 126 11
3 127 126 67
3 127 28 126
3 127 125 28
3 128 125 127
3 128 5 125
3 128 109 5
3 129 109 128
3 129 18 109
3 69 129 29
3 130 129 69
3 130 18 129
3 130 52 18
3 131 52 130
3 131 2 52
3 102 381 382
3 132 383 385
3 385 384 102
3 383 384 385
3 132 386 387
3 72 132 14
3 133 132 72
3 133 388 390
3 390 389 132
3 388 389 390
3 133 391 392
3 134 393 395
3 395 394 133
3 393 394 395
3 134 396 397
3 134 398 399
3 401 400 134
3 403 402 31
3 404 22 405
3 75 406 407
3 135 408 410
3 410 409 75
3 408 409 410
3 135 411 413
3 411 22 412
3 411 412 413
3 135 57 22
3 121 57 135
3 121 1 57
3 136 137 0
3 138 137 136
3 138 33 137
3 77 138 32
3 139 138 77
3 139 33 138
3 139 86 33
3 414 86 415
3 416 415 139
3 414 415 416
3 418 417 86
3 419 78 420
3 421 420 7
3 419 420 421
3 422 78 423
3 424 34 425
3 426 425 78
3 424 425 426
3 427 34 428
3 430 429 34
3 140 431 432
3 140 433 434
3 140 435 437
3 435 101 436
3 435 436 437
3 141 101 140
3 141 13 101
3 80 141 35
3 142 141 80
3 142 13 141
3 142 45 13
3 136 45 142
3 136 0 45
3 439 438 8
3 122 51 1
3 143 51 122
3 143 17 51
3 82 143 27
3 144 143 82
3 144 17 143
3 144 108 17
3 440 108 441
3 442 441 144
3 440 441 442
3 444 443 108
3 110 83 5
3 145 83 110
3 145 36 83
3 85 145 19
3 445 145 446
3 447 446 85
3 445 446 447
3 448 36 449
3 450 449 145
3 448 449 450
3 452 451 36
3 114 453 455
3 455 454 9
3 453 454 455
3 457 456 114
3 137 44 0
3 146 44 137
3 146 12 44
3 87 146 33
3 147 146 87
3 147 12 146
3 147 100 12
3 148 100 147
3 148 6 100
3 458 88 459
3 149 460 462
3 460 88 461
3 460 461 462
3 149 37 88
3 463 149 464
3 150 465 467
3 465 149 466
3 465 466 467
3 150 37 149
3 150 148 37
3 151 148 150
3 151 6 148
3 151 70 6
3 152 70 151
3 152 30 70
3 90 152 38
3 153 152 90
3 153 30 152
3 153 131 30
3 154 131 153
3 154 2 131
3 468 91 469
3 155 470 472
3 470 91 471
3 470 471 472
3 155 39 91
3 473 155 474
3 156 475 477
3 475 155 476
3 475 476 477
3 156 39 155
3 156 154 39
3 157 154 156
3 157 2 154
3 157 56 2
3 478 56 479
3 480 479 157
3 478 479 480
3 481 21 482
3 483 482 56
3 481 482 483
3 484 21 485
3 487 486 21
3 488 25 489
3 158 490 491
3 158 492 494
3 492 25 493
3 492 493 494
3 158 61 25
3 159 61 158
3 159 3 61
3 117 495 497
3 495 92 496
3 495 496 497
3 160 92 117
3 160 40 92
3 94 160 24
3 161 160 94
3 161 40 160
3 161 159 40
3 162 159 161
3 162 3 159
3 162 498 500
3 500 499 3
3 498 499 500
3 502 501 162
3 504 503 41
