ply
format ascii 1.0
element vertex 375
property float x
property float y
property float z
element face 401
property list uchar int vertex_index
end_header
-19.85149 60.060127 11.610872
-12.497372 55.828548 30.364466
1.703861 71.965729 31.247068
-7.790776 50.973724 38.508099
-5.795286 63.968281 31.46624
-0.148513 58.804996 39.270344
-15.000102 69.898941 13.396518
-10.644199 67.742203 22.725607
-3.82166 75.830513 22.946648
-4.03351 54.929577 38.951721
-13.648379 63.21854 22.259985
-11.562975 61.843426 26.707647
-2.196039 67.883461 31.491142
-4.846037 70.106804 27.308802
-1.046348 74.216331 27.071938
-0.078989 79.894012 22.405714
-10.263702 53.53162 34.668552
-9.349186 59.78133 31.124268
-6.718515 57.508762 35.275307
-3.163933 61.363049 35.492836
0.772231 65.689148 35.380978
3.699585 62.837261 39.344936
-17.574995 64.880112 12.762913
-18.089542 59.762161 16.375959
-15.737265 64.269371 17.362207
-13.008141 68.803352 18.094801
-9.818384 73.433289 18.320133
-8.427734 65.762634 27.330189
-7.43575 71.803856 22.992861
-6.451282 77.502815 18.296204
-2.625168 81.436203 18.206879
-20.970552 57.597786 10.832828
-13.559896 56.759003 28.08864
-13.125687 59.6394 26.30545
-12.032877 58.844448 28.563545
-0.215423 69.762032 31.569969
-1.6572 71.049561 29.342392
0.206429 73.034096 29.166
0.872917 76.226959 26.836254
2.229273 74.938248 29.100628
-8.96472 52.609978 36.518101
-8.485525 55.67049 34.945385
-7.200222 54.300827 36.953079
-2.120765 56.862629 39.112942
-3.518925 58.202129 37.304451
-1.721919 60.1581 37.33651
-1.237623 63.480282 35.47308
0.225331 62.181244 37.386269
2.243209 64.301682 37.37149
1.863674 60.897465 39.333
-16.332861 67.498375 13.030393
-17.25396 59.131397 18.939047
-16.927547 61.978344 16.986025
-16.037577 61.553246 19.305664
-12.180111 65.505211 22.544239
-13.315077 65.921486 20.327436
-11.911006 68.263542 20.379326
-11.419845 71.166847 18.298239
-10.261418 70.570984 20.567446
-7.539859 61.91748 31.387581
-8.899623 62.727253 29.317951
-7.117313 64.937714 29.438747
-4.334876 72.937836 25.236031
-6.242941 70.790642 25.282528
-5.595914 73.882156 23.035753
-6.943255 74.671799 20.71924
-5.091351 76.834778 20.57946
-4.610355 79.566841 18.137978
-3.359385 78.697838 20.451443
0.507114 82.591637 20.08956
-6.364498 49.627583 40.353756
-5.844195 52.850349 38.886089
-4.392292 51.63306 40.608929
-2.489146 53.507664 40.825089
-0.685351 55.317501 40.980816
1.281937 57.410904 41.060448
-13.663547 72.093994 13.661237
-15.092987 61.020981 21.674393
-14.080734 60.459194 24.022612
-12.581502 62.491566 24.649719
-11.105243 64.863655 24.704405
-4.083085 65.854431 31.512266
-5.366555 67.100304 29.374292
-3.593812 68.959152 29.439651
-3.001915 72.11882 27.242079
-2.448711 75.123276 24.966482
-1.977335 77.93428 22.630943
-0.602549 77.086433 24.750261
1.305569 78.988403 24.551916
-11.415777 54.731968 32.558109
-10.894468 57.876099 30.80143
-9.764556 56.631588 33.007591
-8.079884 58.645527 33.264973
-6.342579 60.668999 33.418087
-5.398443 56.25872 37.142319
-4.940107 59.406464 35.449741
-4.507285 62.658249 33.540749
-2.629249 64.671745 33.58099
-0.71777 66.810661 33.472061
1.278279 68.835136 33.426952
2.890041 67.768906 35.385387
4.350421 66.284241 37.470684
3.250825 59.182076 41.319706
-18.745298 62.689205 12.010348
-20.186964 57.351616 13.233629
-19.280441 57.409939 15.60899
-19.017481 59.925705 13.904263
-17.863993 62.252277 14.556855
-16.606937 64.824615 14.990619
-15.277021 67.101784 15.586143
-14.768692 63.69236 19.812254
-14.350518 66.48584 17.957893
-13.950298 69.461227 15.803266
-12.496518 71.837471 15.927655
-11.002992 73.985092 16.039635
-9.346306 76.220726 16.000473
-10.507592 60.870888 28.908312
-10.048685 63.775871 27.065456
-9.554054 66.795502 25.055542
-6.664702 67.872574 27.444187
-7.968083 68.73494 25.243261
-9.093558 69.804001 22.868698
-8.673429 72.723282 20.567078
-8.260613 75.390625 18.344248
-2.140708 83.986473 15.747905
-1.485879 80.644913 20.265039
-0.825469 83.368141 17.889206
-0.129666 85.91201 15.602899
-20.289038 60.160992 10.342227
-20.848569 58.929821 9.953205
-20.411021 58.828957 11.22185
-13.284116 54.826049 30.056607
-12.773281 54.344787 31.151429
-13.028634 56.293775 29.226553
-13.815379 55.291277 28.918695
-13.284116 54.826049 30.056607
2.721506 73.046219 31.106192
2.984212 74.532478 30.032972
1.966567 73.451988 30.173848
-8.701167 50.171238 38.228235
-8.022533 49.475996 39.187443
-8.377748 51.791851 37.5131
-9.288139 50.989365 37.233237
-8.701167 50.171238 38.228235
-15.516831 70.019565 12.231365
-16.183211 68.819282 12.048303
-15.666481 68.698658 13.213456
-16.83325 58.849474 20.12462
-17.458745 57.755295 19.764365
-16.225058 60.060399 20.307928
-16.645768 60.342321 19.122355
-16.83325 58.849474 20.12462
-5.642427 48.999653 41.188288
-6.602282 48.020168 41.050459
-4.656324 50.002392 41.315875
-5.378395 50.630322 40.481342
-5.642427 48.999653 41.188288
-1.828672 52.644469 41.724913
-2.776152 51.822689 41.559669
-0.926775 53.549387 41.802777
-1.587248 54.412582 40.902952
-1.828672 52.644469 41.724913
0.083852 54.600762 41.878591
-0.926775 53.549387 41.802777
-13.487358 73.520694 12.442158
-12.923527 73.330787 13.613757
-14.338513 58.929006 24.939622
-14.749092 59.331806 23.832153
2.019213 78.50399 25.616377
1.089243 77.607681 25.694085
1.802887 77.123268 26.758546
2.258462 79.90652 24.446356
2.019213 78.50399 25.616377
-11.122598 52.577156 34.403782
-10.525423 52.043373 35.393921
-10.83974 54.131794 33.613331
-11.698635 53.17733 33.34856
-11.122598 52.577156 34.403782
4.718297 63.930524 39.324283
5.043715 65.654014 38.387158
4.025003 64.560751 38.40781
3.084708 57.531628 42.16476
2.266381 58.29649 41.190077
2.100264 56.646042 42.035132
-18.014605 65.149617 11.472865
-18.599756 64.054163 11.096583
-18.160146 63.784658 12.38663
-20.293171 56.152397 14.080431
-20.708182 56.177656 12.876227
-18.684992 58.58605 15.992475
-18.892896 57.160946 16.835253
-18.297446 58.337057 17.218738
-7.041676 77.857307 17.169571
-7.946341 76.801212 17.193593
-7.355947 76.44672 18.320226
-6.15939 78.874282 17.093453
-7.041676 77.857307 17.169571
-3.315567 81.81099 17.002274
-4.30816 80.876308 16.967824
-3.617762 80.501522 18.172429
-2.382938 82.711338 16.977392
-3.073336 83.086125 15.772787
-3.315567 81.81099 17.002274
0.084066 84.259487 17.781001
-0.159178 82.979889 18.989383
0.750358 83.871235 18.881178
0.431968 85.531421 16.637847
-0.477568 84.640075 16.746053
0.084066 84.259487 17.781001
0.768606 86.748542 15.523143
0.431968 85.531421 16.637847
-21.364285 57.638899 9.670718
-21.50791 56.33711 10.450132
-21.364285 57.638899 9.670718
-20.848569 58.929821 9.953205
-14.273441 55.634367 27.895763
-13.815379 55.291277 28.918695
-14.078094 57.078911 26.972636
-14.273441 55.634367 27.895763
-13.342792 58.199202 27.197045
-13.86099 58.519109 26.081041
-14.078094 57.078911 26.972636
2.481065 76.478913 27.890733
1.802887 77.123268 26.758546
1.551095 75.582604 27.968441
3.213579 76.135239 28.793559
2.481065 76.478913 27.890733
3.213579 76.135239 28.793559
2.984212 74.532478 30.032972
-9.875932 51.582552 36.318695
-9.288139 50.989365 37.233237
-9.614211 53.070799 35.593327
-10.525423 52.043373 35.393921
-9.875932 51.582552 36.318695
-16.823777 67.632252 11.824752
-17.444844 66.323121 11.691012
-16.953928 66.189244 12.896653
-16.823777 67.632252 11.824752
-16.183211 68.819282 12.048303
-17.879655 58.021675 18.500281
-17.458745 57.755295 19.764365
-17.671751 59.446779 17.657503
-18.297446 58.337057 17.218738
-17.879655 58.021675 18.500281
1.195072 82.216488 21.122211
0.214062 81.242825 21.247637
0.902021 80.867676 22.280288
1.430647 83.549522 19.899912
1.195072 82.216488 21.122211
0.750358 83.871235 18.881178
1.430647 83.549522 19.899912
-7.309394 48.802926 40.110271
-6.602282 48.020168 41.050459
-7.077637 50.300653 39.430927
-8.022533 49.475996 39.187443
-7.309394 48.802926 40.110271
-3.727725 50.885387 41.451589
-4.656324 50.002392 41.315875
-3.440719 52.570362 40.717009
-3.727725 50.885387 41.451589
-2.776152 51.822689 41.559669
1.067497 55.647463 41.918408
0.298293 56.364203 41.020632
0.083852 54.600762 41.878591
2.100264 56.646042 42.035132
1.067497 55.647463 41.918408
-14.202788 72.383567 12.35025
-14.871066 71.286041 12.21789
-14.331824 70.996467 13.528878
-14.202788 72.383567 12.35025
-13.487358 73.520694 12.442158
-15.255219 59.612699 22.658044
-15.752763 59.794266 21.492292
-14.586861 60.740088 22.848502
-15.255219 59.612699 22.658044
-14.749092 59.331806 23.832153
-13.60321 60.049297 25.164031
-14.338513 58.929006 24.939622
-13.86099 58.519109 26.081041
1.594299 80.414871 23.353389
0.902021 80.867676 22.280288
0.61329 79.441208 23.478815
1.594299 80.414871 23.353389
2.258462 79.90652 24.446356
-12.232484 53.796498 32.24825
-11.698635 53.17733 33.34856
-11.956575 55.280258 31.461288
-12.773281 54.344787 31.151429
-12.232484 53.796498 32.24825
2.256162 69.828648 33.368494
2.468952 71.393944 32.278552
1.49107 70.400432 32.33701
3.062043 69.295533 34.347712
2.256162 69.828648 33.368494
2.08416 68.302021 34.40617
3.850871 68.794792 35.300416
3.062043 69.295533 34.347712
4.58106 68.05246 36.343065
3.850871 68.794792 35.300416
3.620231 67.026573 36.428036
5.279317 67.471565 37.270473
4.58106 68.05246 36.343065
5.279317 67.471565 37.270473
5.043715 65.654014 38.387158
4.061181 58.55027 42.232437
3.084708 57.531628 42.16476
4.209569 60.249359 41.317659
4.061181 58.55027 42.232437
4.433949 62.076952 40.330275
3.475205 61.009669 40.332321
4.209569 60.249359 41.317659
4.718297 63.930524 39.324283
4.433949 62.076952 40.330275
-19.196906 62.689976 10.867857
-19.750002 61.375436 10.668119
-19.298394 61.374666 11.81061
-19.196906 62.689976 10.867857
-18.599756 64.054163 11.096583
-18.014605 65.149617 11.472865
-17.444844 66.323121 11.691012
-15.516831 70.019565 12.231365
-14.871066 71.286041 12.21789
-21.099977 56.300741 11.675826
-21.50791 56.33711 10.450132
-20.578758 57.474701 12.033228
-21.099977 56.300741 11.675826
-20.708182 56.177656 12.876227
-19.429434 56.06599 16.499544
-18.892896 57.160946 16.835253
-19.839909 56.181559 15.268112
-19.429434 56.06599 16.499544
-19.733702 57.380778 14.421309
-20.293171 56.152397 14.080431
-19.839909 56.181559 15.268112
-15.565282 61.287114 20.490029
-16.225058 60.060399 20.307928
-15.752763 59.794266 21.492292
-12.340013 73.202526 14.746966
-12.923527 73.330787 13.613757
-13.080032 71.965733 14.794446
-11.59325 74.276336 14.802956
-12.340013 73.202526 14.746966
-11.749755 72.911282 15.983645
-10.773329 75.370201 14.864115
-11.59325 74.276336 14.802956
-9.944986 76.488018 14.844534
-10.773329 75.370201 14.864115
-10.174649 75.102909 16.020054
-9.081187 77.594303 14.797343
-9.944986 76.488018 14.844534
-8.489187 77.216263 16.021705
-8.803459 75.805676 17.17236
-7.946341 76.801212 17.193593
-9.081187 77.594303 14.797343
-8.489187 77.216263 16.021705
-5.238927 79.906295 17.01434
-6.15939 78.874282 17.093453
-5.530819 78.534828 18.217091
-5.238927 79.906295 17.01434
-4.30816 80.876308 16.967824
-2.718034 84.442482 14.521371
-3.073336 83.086125 15.772787
-1.748518 85.242375 14.629338
-2.718034 84.442482 14.521371
-0.742997 86.205143 14.556836
-1.748518 85.242375 14.629338
-1.135187 84.949241 15.675402
0.229256 87.136371 14.455383
-0.742997 86.205143 14.556836
0.229256 87.136371 14.455383
0.768606 86.748542 15.523143
2.721506 73.046219 31.106192
2.468952 71.393944 32.278552
-20.289038 60.160992 10.342227
-19.750002 61.375436 10.668119
3 0 128 130
3 130 129 31
3 128 129 130
3 1 131 132
3 1 133 135
3 133 32 134
3 133 134 135
3 1 34 32
3 2 37 35
3 2 39 37
3 2 136 138
3 138 137 39
3 136 137 138
3 3 139 140
3 3 141 143
3 141 40 142
3 141 142 143
3 3 42 40
3 5 45 43
3 5 47 45
3 5 49 47
3 6 144 146
3 146 145 50
3 144 145 146
3 147 51 148
3 149 53 150
3 151 150 51
3 149 150 151
3 7 56 54
3 7 58 56
3 4 61 59
3 8 64 62
3 8 66 64
3 8 68 66
3 152 70 153
3 154 72 155
3 156 155 70
3 154 155 156
3 157 73 158
3 159 74 160
3 161 160 73
3 159 160 161
3 163 162 74
3 165 164 76
3 166 78 167
3 11 79 33
3 11 80 79
3 12 83 81
3 14 84 36
3 14 85 84
3 14 87 85
3 168 88 169
3 170 169 38
3 168 169 170
3 172 171 88
3 16 173 174
3 16 175 177
3 175 89 176
3 175 176 177
3 16 91 89
3 18 92 41
3 18 93 92
3 9 94 71
3 19 95 44
3 19 96 95
3 19 97 96
3 20 98 46
3 20 99 98
3 20 100 99
3 21 101 48
3 21 178 180
3 180 179 101
3 178 179 180
3 181 102 182
3 183 182 75
3 181 182 183
3 22 184 186
3 186 185 103
3 184 185 186
3 187 104 188
3 23 189 191
3 189 105 190
3 189 190 191
3 23 106 105
3 23 107 106
3 24 108 52
3 24 109 108
3 10 110 77
3 25 111 55
3 25 112 111
3 25 113 112
3 26 114 57
3 26 115 114
3 17 116 90
3 27 117 60
3 27 118 117
3 13 119 82
3 28 120 63
3 28 121 120
3 28 122 121
3 29 123 65
3 29 192 194
3 194 193 123
3 192 193 194
3 29 195 196
3 30 197 199
3 199 198 67
3 197 198 199
3 30 200 202
3 200 124 201
3 200 201 202
3 15 125 86
3 203 126 204
3 205 204 69
3 203 204 205
3 206 127 207
3 208 207 126
3 206 207 208
3 210 209 127
3 31 211 212
3 214 213 31
3 32 215 216
3 32 217 218
3 32 219 221
3 219 33 220
3 219 220 221
3 34 33 32
3 34 11 33
3 35 36 12
3 37 36 35
3 37 14 36
3 37 38 14
3 39 38 37
3 39 222 224
3 224 223 38
3 222 223 224
3 39 225 226
3 228 227 39
3 40 229 230
3 40 231 233
3 231 16 232
3 231 232 233
3 40 41 16
3 42 41 40
3 42 18 41
3 43 44 9
3 45 44 43
3 45 19 44
3 45 46 19
3 47 46 45
3 47 20 46
3 47 48 20
3 49 48 47
3 49 21 48
3 50 234 236
3 236 235 22
3 234 235 236
3 238 237 50
3 51 239 240
3 51 241 243
3 241 23 242
3 241 242 243
3 51 52 23
3 53 52 51
3 53 24 52
3 54 55 10
3 56 55 54
3 56 25 55
3 56 57 25
3 58 57 56
3 58 26 57
3 59 60 17
3 61 60 59
3 61 27 60
3 62 63 13
3 64 63 62
3 64 28 63
3 64 65 28
3 66 65 64
3 66 29 65
3 66 67 29
3 68 67 66
3 68 30 67
3 244 69 245
3 246 245 15
3 244 245 246
3 247 69 248
3 250 249 69
3 70 251 252
3 70 253 255
3 253 3 254
3 253 254 255
3 70 71 3
3 72 71 70
3 72 9 71
3 256 72 257
3 73 258 260
3 258 72 259
3 258 259 260
3 73 9 72
3 73 43 9
3 74 43 73
3 74 5 43
3 74 75 5
3 261 75 262
3 263 262 74
3 261 262 263
3 265 264 75
3 76 266 268
3 268 267 6
3 266 267 268
3 270 269 76
3 271 77 272
3 78 273 275
3 273 77 274
3 273 274 275
3 78 10 77
3 33 276 278
3 276 78 277
3 276 277 278
3 79 78 33
3 79 10 78
3 79 54 10
3 80 54 79
3 80 7 54
3 81 82 4
3 83 82 81
3 83 13 82
3 36 83 12
3 84 83 36
3 84 13 83
3 84 62 13
3 85 62 84
3 85 8 62
3 85 86 8
3 87 86 85
3 87 15 86
3 38 87 14
3 88 87 38
3 88 15 87
3 88 279 281
3 281 280 15
3 279 280 281
3 283 282 88
3 89 284 285
3 89 286 288
3 286 1 287
3 286 287 288
3 89 90 1
3 91 90 89
3 91 17 90
3 41 91 16
3 92 91 41
3 92 17 91
3 92 59 17
3 93 59 92
3 93 4 59
3 71 42 3
3 94 42 71
3 94 18 42
3 44 94 9
3 95 94 44
3 95 18 94
3 95 93 18
3 96 93 95
3 96 4 93
3 96 81 4
3 97 81 96
3 97 12 81
3 46 97 19
3 98 97 46
3 98 12 97
3 98 35 12
3 99 35 98
3 99 2 35
3 99 289 291
3 291 290 2
3 289 290 291
3 100 292 294
3 294 293 99
3 292 293 294
3 100 295 296
3 48 100 20
3 101 100 48
3 101 297 299
3 299 298 100
3 297 298 299
3 101 300 301
3 303 302 101
3 75 49 5
3 102 49 75
3 102 21 49
3 304 102 305
3 306 102 307
3 308 21 309
3 310 309 102
3 308 309 310
3 312 311 21
3 103 313 315
3 315 314 0
3 313 314 315
3 317 316 103
3 319 318 22
3 321 320 6
3 322 31 323
3 104 324 326
3 324 31 325
3 324 325 326
3 104 0 31
3 105 327 328
3 105 329 330
3 105 331 333
3 331 104 332
3 331 332 333
3 106 104 105
3 106 0 104
3 106 103 0
3 107 103 106
3 107 22 103
3 52 107 23
3 108 107 52
3 108 22 107
3 108 50 22
3 109 50 108
3 109 6 50
3 77 334 336
3 334 53 335
3 334 335 336
3 110 53 77
3 110 24 53
3 55 110 10
3 111 110 55
3 111 24 110
3 111 109 24
3 112 109 111
3 112 6 109
3 112 76 6
3 113 76 112
3 113 337 339
3 339 338 76
3 337 338 339
3 57 113 25
3 114 113 57
3 114 340 342
3 342 341 113
3 340 341 342
3 114 343 344
3 115 345 347
3 347 346 114
3 345 346 347
3 115 348 349
3 90 34 1
3 116 34 90
3 116 11 34
3 60 116 17
3 117 116 60
3 117 11 116
3 117 80 11
3 118 80 117
3 118 7 80
3 82 61 4
3 119 61 82
3 119 27 61
3 63 119 13
3 120 119 63
3 120 27 119
3 120 118 27
3 121 118 120
3 121 7 118
3 121 58 7
3 122 58 121
3 122 26 58
3 65 122 28
3 123 122 65
3 123 26 122
3 123 115 26
3 350 115 351
3 352 351 123
3 350 351 352
3 354 353 115
3 67 355 357
3 357 356 29
3 355 356 357
3 359 358 67
3 124 360 361
3 124 362 363
3 86 68 8
3 125 68 86
3 125 30 68
3 69 125 15
3 126 125 69
3 126 30 125
3 126 124 30
3 127 124 126
3 127 364 366
3 366 365 124
3 364 365 366
3 127 367 368
3 370 369 127
3 372 371 2
3 374 373 0
