ply
format ascii 1.0
element vertex 296
property float x
property float y
property float z
element face 303
property list uchar int vertex_index
end_header
37.902103 -32.411079 -27.921299
38.071762 -25.470959 -25.247976
35.876553 -35.113304 -20.041637
39.614655 -29.006926 -36.329639
37.111107 -41.840858 -29.812515
37.606419 -40.244068 -38.296574
36.25494 -32.307251 -18.899992
35.18853 -36.0439 -16.566572
37.984051 -28.551113 -26.680132
38.845093 -22.955181 -29.055315
38.937973 -26.42009 -30.739578
39.750416 -24.398846 -34.886631
38.877636 -30.865978 -32.059418
37.616055 -41.245693 -34.191025
35.92836 -47.055702 -34.905865
37.036289 -30.51329 -22.662651
36.87178 -33.734352 -23.932892
35.477142 -38.756298 -20.649376
36.593346 -38.031059 -24.812756
36.134693 -42.657005 -25.483181
37.698925 -36.770782 -28.98834
38.493286 -35.994282 -33.140953
38.932564 -34.645615 -37.337467
35.418777 -34.93618 -16.034906
34.939312 -36.511223 -14.916026
37.933983 -30.532434 -27.30513
38.446148 -27.598207 -28.631744
38.465782 -29.497738 -29.425781
38.940868 -28.606226 -31.484118
38.413712 -31.516134 -29.943699
35.920895 -47.460602 -32.799686
36.037521 -33.661015 -19.474178
36.621544 -31.409046 -20.743166
36.46199 -32.839878 -21.309097
36.938889 -32.050423 -23.290968
36.360657 -34.443771 -21.985744
38.502285 -22.720503 -26.261049
39.247101 -21.622242 -31.104263
39.188473 -20.093527 -30.249655
39.703388 -26.732069 -35.494648
36.074314 -38.174141 -22.78797
35.828705 -40.487423 -22.969141
36.210957 -45.016472 -28.075075
36.607185 -42.489937 -27.573576
36.93922 -39.81842 -27.2253
37.434498 -39.341778 -29.334248
38.175816 -36.259151 -31.187645
37.848801 -38.958408 -31.544409
37.67157 -40.824638 -36.234497
38.313168 -38.066277 -35.727001
38.37151 -37.424889 -37.745716
38.936241 -33.967625 -39.420464
38.207458 -37.01524 -39.839569
35.707726 -34.251732 -17.685534
35.463791 -35.684399 -18.156181
38.002483 -26.91572 -25.905462
38.461452 -24.186743 -27.163952
38.441395 -25.822847 -27.894987
38.892147 -24.56588 -29.917152
39.301636 -23.519949 -31.90489
39.701309 -22.337303 -34.031418
39.360001 -25.541264 -32.776188
39.354176 -27.71633 -33.492283
39.278648 -30.052481 -34.146748
36.555649 -44.727947 -30.179819
37.436039 -41.553074 -32.043888
36.800751 -44.383057 -32.327553
36.835262 -44.274315 -34.409672
36.815907 -43.716702 -36.627182
37.698925 -26.667019 -23.226835
37.173988 -29.088446 -21.972216
37.564995 -28.056934 -23.910715
37.532295 -29.371637 -24.722137
37.433105 -31.251705 -25.265486
37.395191 -33.107697 -25.958776
38.852261 -21.295588 -28.264751
35.247875 -37.25861 -18.556471
35.721539 -36.70295 -20.473467
36.185459 -36.318611 -22.300154
36.74234 -35.716465 -24.346094
37.287708 -35.142746 -26.383141
36.419437 -40.162556 -25.177
37.182198 -37.264591 -26.899345
37.842197 -34.421215 -28.495615
38.319302 -33.873909 -30.529297
38.765228 -33.238762 -32.703129
39.103188 -32.550079 -34.739811
38.166042 -38.452343 -33.748096
38.764126 -35.395012 -35.188435
39.323315 -31.934965 -36.733391
39.466656 -30.962809 -38.920517
34.867178 -36.684424 -14.282743
35.071338 -36.024411 -14.672961
34.999204 -36.197611 -14.039678
38.287024 -24.095731 -25.754513
38.32873 -23.469338 -25.254762
38.113468 -24.844566 -24.748225
39.388832 -20.17991 -31.682901
39.424026 -21.087889 -32.084986
39.791822 -27.426851 -36.968773
39.836189 -26.289422 -36.551277
39.659021 -27.869498 -35.912143
39.695932 -28.724815 -37.344296
39.791822 -27.426851 -36.968773
35.443371 -41.708706 -22.117863
35.574326 -40.571268 -22.007245
36.177893 -46.222096 -30.379928
36.076809 -46.245308 -29.31161
36.300444 -46.04965 -31.453795
36.6782 -44.555502 -31.253686
36.177893 -46.222096 -30.379928
37.536999 -27.224496 -22.234316
37.77986 -26.077943 -22.748468
36.545543 -31.185402 -19.50808
36.390953 -31.684477 -18.599485
39.175387 -19.34561 -29.781779
39.318766 -18.642617 -30.746049
39.901413 -22.747764 -35.557617
39.87686 -21.716992 -35.13001
39.725863 -23.368074 -34.459024
34.932467 -38.250016 -17.764885
35.069328 -37.419565 -17.659279
35.251857 -38.873937 -19.736918
35.119267 -39.914707 -19.828919
35.59934 -37.729624 -20.561422
35.374056 -37.847263 -19.648963
35.251857 -38.873937 -19.736918
35.719736 -43.964693 -24.642802
35.966579 -43.916342 -25.729197
35.891571 -42.675214 -24.479521
35.719736 -43.964693 -24.642802
36.277065 -41.40978 -25.33009
36.033943 -41.42799 -24.326431
35.891571 -42.675214 -24.479521
39.173851 -32.14642 -40.22873
38.86262 -33.608095 -40.452253
35.311071 -35.236889 -15.232401
35.563953 -34.41382 -15.737132
35.179045 -35.723702 -15.475466
35.311071 -35.236889 -15.232401
35.071338 -36.024411 -14.672961
35.429326 -48.959925 -31.85778
35.860516 -47.588423 -31.689862
35.394087 -48.964745 -32.950657
35.429326 -48.959925 -31.85778
35.397819 -48.762294 -34.003746
35.924627 -47.258152 -33.852775
35.394087 -48.964745 -32.950657
38.541528 -22.115901 -25.730935
38.32873 -23.469338 -25.254762
38.682577 -21.382727 -26.748933
38.541528 -22.115901 -25.730935
39.359518 -19.415552 -31.255597
39.217787 -20.857885 -30.676959
39.388832 -20.17991 -31.682901
39.318766 -18.642617 -30.746049
39.359518 -19.415552 -31.255597
39.886538 -25.00752 -36.273438
39.910052 -23.840908 -35.969429
39.726902 -25.565458 -35.19064
39.886538 -25.00752 -36.273438
39.836189 -26.289422 -36.551277
35.398544 -39.705706 -20.847363
35.119267 -39.914707 -19.828919
35.69713 -39.414627 -21.91666
35.775728 -38.46522 -21.718673
35.398544 -39.705706 -20.847363
35.95151 -39.330782 -22.878556
35.69713 -39.414627 -21.91666
35.574326 -40.571268 -22.007245
36.004711 -45.096075 -27.025144
35.736977 -46.416933 -27.158989
36.202826 -43.832808 -26.774395
36.004711 -45.096075 -27.025144
36.409071 -43.753204 -27.824326
36.370939 -42.573471 -26.528378
35.966579 -43.916342 -25.729197
36.202826 -43.832808 -26.774395
38.498228 -35.131903 -40.661806
38.86262 -33.608095 -40.452253
38.571849 -35.491433 -39.630016
36.116596 -32.66926 -18.020451
36.390953 -31.684477 -18.599485
35.698515 -33.983725 -16.587908
35.563953 -34.41382 -15.737132
35.842989 -33.6415 -17.413221
35.698515 -33.983725 -16.587908
35.563251 -34.593956 -16.86022
35.981333 -33.279491 -18.292763
36.116596 -32.66926 -18.020451
35.842989 -33.6415 -17.413221
39.451294 -22.036743 -32.485299
39.424026 -21.087889 -32.084986
39.274369 -22.571095 -31.504576
39.501473 -22.928626 -32.968154
39.651131 -21.44542 -33.548563
39.451294 -22.036743 -32.485299
35.904463 -46.389571 -28.259238
35.736977 -46.416933 -27.158989
36.383303 -44.872209 -29.127447
35.904463 -46.389571 -28.259238
36.076809 -46.245308 -29.31161
36.360823 -45.92183 -32.56362
36.300444 -46.04965 -31.453795
35.860516 -47.588423 -31.689862
37.92705 -25.442597 -23.737655
37.77986 -26.077943 -22.748468
37.885344 -26.068989 -24.237406
38.113468 -24.844566 -24.748225
37.92705 -25.442597 -23.737655
36.728845 -30.7363 -20.429668
36.545543 -31.185402 -19.50808
36.438242 -31.858148 -19.821579
37.005067 -29.576 -21.044193
36.728845 -30.7363 -20.429668
36.897766 -30.248746 -21.357691
37.27453 -28.435209 -21.607007
37.005067 -29.576 -21.044193
37.436457 -27.877733 -22.599525
37.536999 -27.224496 -22.234316
37.27453 -28.435209 -21.607007
38.857565 -20.670269 -27.750784
38.682577 -21.382727 -26.748933
38.677273 -22.008046 -27.2629
39.007281 -19.946641 -28.789327
39.020367 -20.694558 -29.257203
39.175387 -19.34561 -29.781779
38.857565 -20.670269 -27.750784
39.007281 -19.946641 -28.789327
39.831921 -20.69589 -34.646748
39.651131 -21.44542 -33.548563
39.831921 -20.69589 -34.646748
39.87686 -21.716992 -35.13001
39.901413 -22.747764 -35.557617
39.910052 -23.840908 -35.969429
34.71735 -37.23113 -14.283099
34.867178 -36.684424 -14.282743
34.794131 -37.155501 -15.049302
34.71735 -37.23113 -14.283099
34.91874 -36.921839 -15.874576
35.063921 -36.277562 -15.741299
34.794131 -37.155501 -15.049302
35.039655 -36.81221 -16.66433
34.91874 -36.921839 -15.874576
35.177286 -36.63246 -17.459134
35.326161 -35.864149 -17.361376
35.039655 -36.81221 -16.66433
35.355833 -36.471504 -18.356326
35.177286 -36.63246 -17.459134
35.069328 -37.419565 -17.659279
35.137224 -38.125093 -18.690465
34.932467 -38.250016 -17.764885
35.484707 -36.98078 -19.514969
35.137224 -38.125093 -18.690465
35.374056 -37.847263 -19.648963
35.738577 -41.590423 -23.222501
35.443371 -41.708706 -22.117863
36.124071 -40.32499 -24.073071
35.738577 -41.590423 -23.222501
36.033943 -41.42799 -24.326431
39.550263 -30.188835 -37.546171
39.695932 -28.724815 -37.344296
39.468985 -30.470945 -36.531515
39.621933 -29.702757 -38.639735
39.550263 -30.188835 -37.546171
39.394986 -31.448887 -37.826954
39.673256 -29.105291 -39.725825
39.621933 -29.702757 -38.639735
39.439059 -30.644013 -39.978756
39.201448 -32.465217 -39.17049
39.173851 -32.14642 -40.22873
39.673256 -29.105291 -39.725825
39.439059 -30.644013 -39.978756
35.310381 -48.637102 -35.117598
35.397819 -48.762294 -34.003746
34.779841 -50.343694 -34.215479
35.783039 -47.011763 -35.958862
35.310381 -48.637102 -35.117598
36.226813 -45.342263 -36.819521
36.372134 -45.386202 -35.766523
35.783039 -47.011763 -35.958862
36.691168 -43.572648 -37.596905
36.226813 -45.342263 -36.819521
37.086424 -41.836331 -38.431601
37.211163 -41.980385 -37.461878
36.691168 -43.572648 -37.596905
37.446038 -40.09077 -39.295844
37.086424 -41.836331 -38.431601
36.926043 -41.683033 -39.43087
37.746557 -38.476356 -40.067341
37.906939 -38.629654 -39.068072
37.446038 -40.09077 -39.295844
38.073448 -36.636469 -40.878956
37.746557 -38.476356 -40.067341
38.498228 -35.131903 -40.661806
38.073448 -36.636469 -40.878956
3 91 24 92
3 91 92 93
3 0 27 25
3 0 29 27
3 2 33 31
3 2 35 33
3 1 94 96
3 94 36 95
3 94 95 96
3 98 97 37
3 3 99 101
3 101 100 39
3 99 100 101
3 3 102 103
3 104 41 105
3 4 43 42
3 4 45 43
3 4 47 45
3 5 50 48
3 5 52 50
3 7 53 23
3 7 54 53
3 8 57 55
3 10 58 26
3 10 59 58
3 10 61 59
3 12 62 28
3 12 63 62
3 106 64 107
3 108 66 109
3 110 109 64
3 108 109 110
3 14 67 30
3 14 68 67
3 111 69 112
3 6 113 114
3 15 70 32
3 15 71 70
3 15 72 71
3 16 73 34
3 16 74 73
3 9 75 56
3 116 115 38
3 11 117 119
3 119 118 60
3 117 118 119
3 120 76 121
3 17 122 123
3 17 124 126
3 124 77 125
3 124 125 126
3 17 78 77
3 18 79 40
3 18 80 79
3 19 127 128
3 19 129 130
3 19 131 133
3 131 81 132
3 131 132 133
3 20 82 44
3 20 83 82
3 20 84 83
3 21 85 46
3 21 86 85
3 13 87 65
3 22 88 49
3 22 89 88
3 22 90 89
3 135 134 51
3 136 23 137
3 24 138 140
3 138 23 139
3 138 139 140
3 24 7 23
3 25 26 8
3 27 26 25
3 27 10 26
3 27 28 10
3 29 28 27
3 29 12 28
3 141 30 142
3 143 30 144
3 145 14 146
3 147 146 30
3 145 146 147
3 31 32 6
3 33 32 31
3 33 15 32
3 33 34 15
3 35 34 33
3 35 16 34
3 36 148 149
3 36 150 151
3 37 38 9
3 152 38 153
3 154 153 37
3 152 153 154
3 156 155 38
3 39 157 159
3 159 158 11
3 157 158 159
3 161 160 39
3 162 17 163
3 164 40 165
3 166 165 17
3 164 165 166
3 41 167 169
3 167 40 168
3 167 168 169
3 41 18 40
3 42 170 171
3 43 172 174
3 174 173 42
3 172 173 174
3 43 175 177
3 175 19 176
3 175 176 177
3 43 44 19
3 45 44 43
3 45 20 44
3 45 46 20
3 47 46 45
3 47 21 46
3 48 49 13
3 50 49 48
3 50 22 49
3 50 51 22
3 52 51 50
3 52 178 180
3 180 179 51
3 178 179 180
3 181 6 182
3 23 183 184
3 53 185 187
3 187 186 23
3 185 186 187
3 53 188 190
3 188 6 189
3 188 189 190
3 53 31 6
3 54 31 53
3 54 2 31
3 55 56 1
3 57 56 55
3 57 9 56
3 26 57 8
3 58 57 26
3 58 9 57
3 58 37 9
3 59 37 58
3 59 191 193
3 193 192 37
3 191 192 193
3 59 194 196
3 194 60 195
3 194 195 196
3 61 60 59
3 61 11 60
3 28 61 10
3 62 61 28
3 62 11 61
3 62 39 11
3 63 39 62
3 63 3 39
3 197 42 198
3 64 199 201
3 199 42 200
3 199 200 201
3 64 4 42
3 64 65 4
3 66 65 64
3 66 13 65
3 30 202 204
3 202 66 203
3 202 203 204
3 67 66 30
3 67 13 66
3 67 48 13
3 68 48 67
3 68 5 48
3 69 205 206
3 69 207 209
3 207 1 208
3 207 208 209
3 32 210 212
3 212 211 6
3 210 211 212
3 70 213 215
3 215 214 32
3 213 214 215
3 70 216 217
3 70 218 220
3 218 69 219
3 218 219 220
3 71 69 70
3 71 1 69
3 71 55 1
3 72 55 71
3 72 8 55
3 34 72 15
3 73 72 34
3 73 8 72
3 73 25 8
3 74 25 73
3 74 0 25
3 56 36 1
3 75 36 56
3 75 221 223
3 223 222 36
3 221 222 223
3 38 75 9
3 224 75 225
3 226 225 38
3 224 225 226
3 228 227 75
3 60 229 230
3 232 231 60
3 234 233 11
3 235 24 236
3 237 24 238
3 239 7 240
3 241 240 24
3 239 240 241
3 242 7 243
3 244 54 245
3 246 245 7
3 244 245 246
3 76 247 249
3 247 54 248
3 247 248 249
3 76 2 54
3 250 76 251
3 77 252 254
3 252 76 253
3 252 253 254
3 77 2 76
3 77 35 2
3 78 35 77
3 78 16 35
3 40 78 17
3 79 78 40
3 79 16 78
3 79 74 16
3 80 74 79
3 80 0 74
3 255 41 256
3 81 257 259
3 257 41 258
3 257 258 259
3 81 18 41
3 44 81 19
3 82 81 44
3 82 18 81
3 82 80 18
3 83 80 82
3 83 0 80
3 83 29 0
3 84 29 83
3 84 12 29
3 46 84 20
3 85 84 46
3 85 12 84
3 85 63 12
3 86 63 85
3 86 3 63
3 65 47 4
3 87 47 65
3 87 21 47
3 49 87 13
3 88 87 49
3 88 21 87
3 88 86 21
3 89 86 88
3 89 3 86
3 89 260 262
3 262 261 3
3 260 261 262
3 90 263 265
3 265 264 89
3 263 264 265
3 90 266 267
3 51 90 22
3 268 90 269
3 270 269 51
3 268 269 270
3 272 271 90
3 273 14 274
3 273 274 275
3 276 14 277
3 278 68 279
3 280 279 14
3 278 279 280
3 281 68 282
3 283 5 284
3 285 284 68
3 283 284 285
3 286 5 287
3 286 287 288
3 289 52 290
3 291 290 5
3 289 290 291
3 292 52 293
3 295 294 52
