ply
format ascii 1.0
element vertex 812
property float x
property float y
property float z
element face 1002
property list uchar int vertex_index
end_header
-34.803654 -2.069832 -61.390511
-40.854156 -27.051092 -31.189356
-39.125629 -29.613762 -45.496834
-33.328671 18.055944 -54.324146
-20.897701 21.215652 -70.901268
-19.28055 -4.713273 -67.623161
-27.448805 -32.771614 -55.511185
-41.5033 -16.346043 -38.409542
-12.750035 17.574854 -72.861137
-38.119534 -16.369896 -53.823238
-34.606979 -31.209181 -51.778278
-32.318569 -17.13336 -59.521881
-24.41132 -18.04439 -62.186375
-27.743507 -2.764247 -66.39164
-38.071434 -41.270241 -36.773037
-40.751961 -28.090578 -38.244709
-40.938885 -15.782024 -46.216919
-39.190456 -2.62526 -53.58268
-35.007565 10.496861 -59.908096
-28.242828 21.245871 -64.30249
-28.766459 11.198074 -67.609978
-20.565809 9.297992 -71.403191
-11.925368 -7.628088 -65.659599
-19.038015 -34.023529 -56.430283
-16.433535 -19.774059 -61.522663
-36.782867 -9.115779 -57.746185
-35.585186 -16.464455 -57.098129
-33.813293 -9.224426 -60.943027
-30.212141 -9.875698 -63.182724
-31.51689 -2.265918 -64.361755
-40.886517 -27.711653 -34.663876
-41.407295 -16.073793 -42.180225
-41.099709 -9.827952 -45.705181
-40.303734 -9.312509 -50.098518
-40.325157 -3.343539 -49.076515
-36.215275 13.037577 -52.347351
-37.065346 9.107649 -55.223106
-34.368629 15.029756 -57.674561
-24.86203 21.43977 -68.166527
-28.847717 16.65897 -66.45977
-24.942505 16.708841 -69.745407
-24.782305 10.607401 -70.088676
-20.953468 15.600555 -71.806412
-38.86335 -35.552761 -41.188725
-36.880672 -42.486382 -40.381924
-37.38649 -36.54451 -44.620354
-31.276833 -31.632622 -54.14249
-24.089113 -40.552235 -53.361557
-19.797119 -41.395226 -53.808765
-23.296955 -33.438408 -56.34388
-22.206392 -11.181579 -65.077896
-20.270281 -19.060766 -62.11871
-18.115826 -12.154461 -64.759903
-14.323195 -13.193902 -63.818836
-15.345226 -6.105977 -66.933212
-41.228054 -21.500549 -31.502493
-41.323757 -21.847139 -34.827824
-41.430607 -16.313349 -34.823971
-16.713011 24.523634 -71.052628
-16.780558 19.832895 -72.539192
-12.681582 22.662584 -72.072296
-38.867271 -23.187622 -49.788956
-37.388069 -30.105192 -48.902508
-36.712582 -23.471558 -53.139069
-33.836628 -24.018566 -55.75729
-30.159275 -24.903063 -57.690308
-26.252541 -25.218819 -58.987484
-28.516043 -17.599463 -61.26619
-26.329346 -10.377151 -64.576042
-23.558575 -3.571368 -67.490562
-40.180519 -29.017462 -41.89233
-41.32814 -22.037544 -38.532181
-41.022018 -22.40926 -42.357674
-40.299145 -22.53377 -46.101982
-39.831398 -15.828982 -50.347713
-38.905758 -9.105255 -54.087238
-37.309132 -2.181242 -57.827549
-38.994411 3.045355 -52.323814
-37.452198 3.990263 -56.891773
-35.185242 4.569337 -61.085182
-31.315235 19.804424 -59.483944
-31.949991 16.096741 -62.474487
-32.286018 10.947341 -64.116905
-32.095146 4.61782 -64.751823
-28.325191 4.519611 -67.584152
-24.343576 3.714571 -69.235764
-20.147524 2.560199 -69.922379
-16.663124 14.06714 -72.714348
-16.402689 7.817577 -71.662331
-16.116163 0.972732 -69.633064
-35.048988 -37.631958 -47.680195
-22.002359 -26.064127 -59.332886
-18.035213 -26.700003 -59.047825
-35.910645 -5.696893 -59.54026
-35.369129 -9.311517 -59.424595
-34.428814 -5.537462 -61.233139
-32.794743 -5.770606 -62.643429
-33.252125 -2.127849 -62.975212
-40.906567 -27.159702 -32.976913
-41.263306 -9.788437 -43.785225
-41.002464 -6.785673 -45.467327
-40.743034 -6.432964 -47.569061
-40.664776 -3.790097 -46.843323
-34.85762 15.583912 -53.507957
-35.458633 13.948095 -55.00703
-33.998215 16.588345 -56.015553
-20.831488 23.294777 -70.040291
-22.989962 21.249847 -69.699112
-25.02536 19.170551 -69.048523
-22.850529 18.905573 -70.552299
-23.041756 16.113386 -70.903435
-20.987654 18.419744 -71.544731
-39.054317 -32.550694 -43.420822
-38.183018 -36.250237 -42.858994
-38.287296 -33.080765 -45.197384
-29.431684 -31.895855 -55.037121
-29.751591 -35.674637 -53.160583
-27.83736 -35.983395 -53.964512
-26.218077 -40.071442 -52.846855
-25.749887 -36.548092 -54.509483
-23.796566 -36.940258 -54.878551
-25.469246 -32.694847 -56.175087
-20.850338 -7.740684 -66.453651
-20.129206 -11.440189 -65.091812
-18.814537 -8.283052 -66.303543
-16.879663 -8.884597 -65.9729
-17.268307 -5.378385 -67.369377
-41.294315 -18.936306 -31.471123
-41.356709 -19.011496 -33.149738
-41.376816 -16.582043 -33.172836
-14.664906 25.786995 -70.714844
-14.770402 23.609974 -71.770592
-12.762739 24.88903 -71.222557
-38.608288 -19.793247 -51.74696
-37.92321 -23.082872 -51.59082
-37.480316 -19.778179 -53.615128
-34.093899 -16.668741 -58.394855
-34.838184 -20.10709 -56.486641
-33.226978 -20.470778 -57.652061
-32.093544 -24.323294 -56.857124
-31.375917 -20.991484 -58.63615
-29.42889 -21.068325 -59.568817
-30.478306 -17.181093 -60.562317
-29.036316 -6.227584 -64.856422
-28.316509 -10.170425 -63.959351
-27.0546 -6.429511 -65.622925
-25.020178 -6.687931 -66.159187
-25.641911 -3.136526 -67.074348
-40.412197 -31.125914 -36.137508
-40.268471 -31.328106 -38.023739
-39.979607 -31.829456 -39.827049
-40.524799 -28.583057 -40.011906
-41.449753 -19.090704 -36.617668
-41.362423 -21.672283 -36.746967
-41.463329 -18.902107 -38.638161
-41.228443 -16.110413 -44.169899
-41.272774 -19.125179 -42.396996
-41.027367 -19.186617 -44.343678
-40.730644 -22.36227 -44.268723
-40.672714 -19.165483 -46.235291
-40.143288 -19.080093 -48.27169
-40.472122 -15.701791 -48.329456
-39.826672 -5.885133 -51.826439
-39.673531 -9.29282 -52.168461
-39.11235 -5.688902 -53.922504
-38.146416 -5.523959 -56.077244
-38.335632 -2.36342 -55.773006
-39.569691 2.260707 -49.878342
-38.782154 5.435423 -51.215832
-36.129929 9.811992 -57.620647
-37.29528 6.738202 -56.199741
-36.29493 7.395437 -58.463852
-36.466637 4.315364 -58.953491
-35.197468 7.647876 -60.561531
-29.883581 20.593426 -62.003124
-31.691265 18.048475 -61.213924
-30.118694 18.852757 -63.483826
-28.968531 13.977408 -67.094627
-30.709639 13.811458 -65.313866
-30.690634 11.055087 -65.899429
-32.201202 7.952474 -64.613464
-30.433409 8.14599 -66.32444
-30.292589 4.719998 -66.287941
-28.569187 8.017735 -67.764694
-22.688829 10.030943 -70.889206
-24.7034 7.211983 -69.747269
-22.533005 6.690963 -70.411728
-22.28476 2.998682 -69.646858
-20.475546 5.874117 -70.726677
-14.757195 18.781399 -72.869324
-16.772387 16.937103 -72.79451
-14.760119 15.918777 -72.938942
-14.753386 10.001472 -72.177872
-14.639701 6.671329 -71.360023
-16.474913 4.475962 -70.755508
-14.480613 3.253332 -70.313347
-14.220756 -0.07944 -69.129059
-36.993164 -44.885002 -36.338501
-36.109406 -30.594978 -50.446877
-36.257614 -33.712631 -48.488571
-34.82375 -34.489235 -49.808205
-19.566303 -37.443657 -55.218647
-17.038942 -34.176601 -56.257977
-25.454462 -21.839111 -60.513168
-24.058987 -25.591228 -59.288456
-23.366238 -22.091843 -60.754662
-18.368309 -19.190048 -61.985489
-19.199406 -22.948847 -60.569042
-17.333475 -23.007454 -60.383163
-13.207275 -10.257468 -64.829948
-12.573621 -13.600041 -63.237255
-37.559052 -12.741993 -55.765774
-36.949673 -16.283846 -55.577034
-36.302456 -12.857765 -57.4319
-34.743309 -12.915552 -59.060596
-33.113445 -13.336528 -60.278015
-31.328016 -13.567881 -61.372128
-32.11882 -9.624359 -62.120701
-30.995699 -6.084503 -63.830608
-29.717655 -2.472282 -65.476662
-40.512787 -30.665829 -34.463604
-40.869911 -27.780926 -36.414555
-41.48708 -16.059196 -40.299019
-41.42746 -13.134743 -42.031219
-41.303879 -12.966815 -43.979691
-41.067829 -12.640163 -46.069206
-40.6954 -12.627949 -48.128792
-40.762657 -9.305288 -47.98505
-40.349625 -6.01554 -49.734585
-39.829727 -2.947532 -51.387348
-36.80608 12.002115 -49.800495
-37.398792 10.353299 -51.237289
-37.865173 8.27117 -52.614086
-36.755062 11.147137 -53.875381
-35.856537 12.078882 -56.403164
-34.807022 12.891461 -58.80069
-28.553568 19.203978 -65.52993
-26.98864 19.125154 -67.351669
-27.013178 16.689646 -68.205818
-26.968262 14.075221 -68.732025
-26.880306 10.843429 -68.953255
-24.968615 13.640576 -70.044861
-22.89757 13.227142 -71.058563
-20.799547 12.735209 -71.771904
-12.776244 14.85146 -72.782883
-38.520393 -38.485439 -38.996761
-37.569645 -41.91806 -38.54282
-37.934109 -39.058224 -40.80225
-37.102375 -39.857059 -42.469372
-36.172279 -40.287891 -44.108173
-32.958878 -31.383078 -53.110611
-22.027487 -40.735458 -53.766407
-21.557281 -37.356579 -55.103298
-21.181763 -33.683743 -56.500252
-23.431381 -14.408346 -63.723282
-22.408682 -18.642641 -62.200397
-21.362452 -15.036819 -63.668415
-19.437899 -15.444736 -63.522804
-17.294174 -15.708885 -63.261028
-15.353804 -16.356434 -62.709679
-16.104992 -12.574626 -64.382065
-14.95495 -9.628344 -65.432465
-13.579924 -6.851366 -66.35582
-41.08989 -24.183409 -31.442499
-41.137657 -24.3561 -33.102261
-41.286873 -21.572193 -33.202034
-41.408836 -19.08741 -34.84177
-41.479248 -16.275242 -36.613041
-41.397449 -13.9559 -34.592697
-41.442017 -13.644893 -36.289902
-18.786346 25.080633 -70.018089
-18.734224 22.911333 -71.175667
-18.972532 20.394535 -71.899139
-16.817423 22.283651 -71.945541
-14.674154 21.333971 -72.473877
-12.8408 20.125566 -72.656624
-39.112705 -26.265648 -47.646633
-38.3815 -29.636143 -47.324505
-38.198208 -26.466648 -49.489353
-37.096519 -26.667862 -51.162971
-35.746063 -27.434216 -52.464775
-36.240108 -19.987324 -55.118862
-35.299042 -23.9744 -54.485298
-34.281826 -27.771481 -53.738461
-32.721737 -27.728456 -54.973885
-30.851978 -28.207884 -55.921478
-28.750517 -28.606497 -56.76799
-26.916248 -28.832409 -57.34029
-28.270746 -24.859789 -58.510128
-27.459614 -21.389191 -60.172451
-26.497824 -17.80958 -61.830261
-29.3932 -13.737508 -62.304523
-27.584814 -13.895411 -62.954777
-25.499245 -14.247893 -63.412498
-24.261589 -10.543338 -65.013672
-22.861313 -7.270419 -66.39859
-21.472439 -4.083535 -67.673813
-39.325989 -35.078426 -39.470695
-39.595089 -32.222286 -41.57449
-39.747978 -29.050079 -43.860054
-41.170376 -24.547274 -34.912704
-41.161304 -24.819752 -36.598289
-41.085293 -25.13269 -38.48204
-41.404556 -19.191654 -40.472958
-41.228767 -22.176413 -40.46291
-40.954536 -25.132519 -40.352039
-40.680859 -25.567198 -42.15218
-40.315754 -25.811922 -43.958614
-39.775597 -25.903763 -45.971699
-39.697292 -22.633665 -48.022499
-39.451275 -19.414379 -50.077881
-39.058445 -16.023115 -52.157135
-40.115601 -12.561457 -50.335724
-39.429237 -12.543749 -52.248779
-38.583424 -12.80237 -54.007183
-37.988182 -9.08217 -55.884346
-37.152542 -5.579572 -57.810719
-36.105968 -2.086677 -59.729275
-41.018707 -24.231546 -29.650208
-41.15152 -21.627409 -29.722044
-40.172928 -0.740762 -48.457302
-39.760735 -0.331553 -50.710258
-39.173923 0.227505 -52.978043
-38.087631 6.17526 -53.867886
-38.265671 3.680221 -54.733665
-38.423107 0.614936 -55.221249
-37.424953 0.918329 -57.521038
-36.371826 1.224092 -59.428322
-35.064949 1.458679 -61.34222
-32.482513 18.888277 -56.975891
-32.924576 17.417109 -58.719822
-33.335495 15.475577 -60.120365
-33.568474 13.294873 -61.28854
-30.362516 16.625256 -64.631783
-32.20118 13.669215 -63.407391
-33.764858 10.699701 -62.090122
-33.839809 7.909064 -62.617634
-33.669357 4.801821 -63.086945
-33.595612 1.27291 -63.051601
-31.899225 1.306768 -64.645561
-30.040985 1.259541 -66.023506
-28.079994 0.886048 -67.087692
-26.568693 7.664855 -68.941177
-26.361372 4.235392 -68.549263
-26.095385 0.441742 -67.862755
-24.065407 -0.088794 -68.386856
-21.853281 -0.516764 -68.753357
-19.836895 -1.124864 -68.825241
-18.840471 17.771967 -72.339432
-18.72513 14.848913 -72.430794
-18.705328 11.901537 -72.183708
-14.736757 12.949386 -72.68779
-16.595766 11.076011 -72.330154
-18.50239 8.740787 -71.681595
-18.356634 5.296368 -70.881439
-18.137667 1.63257 -69.828629
-17.813162 -1.834502 -68.678841
-15.910514 -2.5868 -68.347954
-14.004537 -3.368125 -67.847572
-12.307514 -4.269605 -67.175636
-37.362061 -33.506596 -46.85302
-36.279675 -37.155098 -46.241333
-24.797409 -29.225233 -57.721542
-22.71332 -29.5769 -57.914185
-20.63158 -29.917707 -57.92823
-21.197311 -22.581553 -60.728931
-19.984327 -26.262249 -59.315311
-18.547195 -30.458036 -57.693859
-16.494661 -30.525164 -57.469593
-13.522465 -16.667446 -62.186558
-40.880362 -27.105397 -32.083134
-40.716294 -28.542917 -31.948301
-40.690088 -28.488612 -31.054523
-40.947716 -5.550216 -45.023477
-41.086816 -7.001097 -44.342794
-40.778872 -4.052428 -45.711475
-40.83362 -5.287885 -46.155325
-40.947716 -5.550216 -45.023477
-34.093145 16.819928 -53.916051
-34.517889 16.199677 -52.628679
-33.753415 17.435693 -53.036773
-41.34474 -16.552044 -32.331978
-41.335566 -17.759175 -32.321979
-41.303489 -17.729175 -31.481122
-13.702236 26.366855 -70.366509
-14.609901 26.733232 -70.039845
-12.751152 25.917873 -70.620365
-13.713822 25.338013 -70.9687
-13.702236 26.366855 -70.366509
-38.61572 6.445239 -50.603245
-39.032503 5.005402 -49.977632
-28.065424 22.07273 -63.543602
-27.300403 22.268719 -64.623432
-29.063204 20.919649 -63.152807
-28.885801 21.746508 -62.393919
-28.065424 22.07273 -63.543602
-13.720489 6.187952 -71.1361
-13.786189 7.707929 -71.562702
-13.640945 4.478953 -70.612763
-14.560157 4.962331 -70.836685
-13.720489 6.187952 -71.1361
-13.554321 2.783392 -70.0443
-13.640945 4.478953 -70.612763
-37.532299 -43.077621 -36.555769
-37.239569 -44.432823 -35.465496
-37.778704 -42.625442 -35.682764
-18.242278 -36.020792 -55.709261
-18.506422 -37.730856 -55.103443
-19.302159 -35.733593 -55.824465
-18.038479 -34.100065 -56.34413
-17.242742 -36.097328 -55.623108
-18.242278 -36.020792 -55.709261
-15.892449 -21.668139 -60.686599
-16.342419 -23.284836 -60.11685
-16.883505 -21.390757 -60.952913
-15.47025 -19.949232 -61.269345
-15.892449 -21.668139 -60.686599
-11.684438 -9.246205 -64.887962
-12.325391 -10.560894 -64.473137
-12.566322 -8.942778 -65.244774
-11.119093 -8.053806 -65.243378
-11.684438 -9.246205 -64.887962
-40.699652 -29.188741 -34.56374
-40.525706 -30.475271 -33.555458
-40.71257 -28.998182 -33.655594
-41.397108 -11.704363 -41.931297
-41.452229 -13.157627 -41.040769
-36.510677 12.519846 -51.073923
-36.175342 13.251845 -50.228001
-35.87994 13.769576 -51.501429
-24.737913 22.459799 -67.563202
-23.801452 22.50126 -68.387223
-25.717304 21.431741 -67.298962
-24.737913 22.459799 -67.563202
-25.925335 20.282462 -67.759098
-26.780609 20.274433 -66.891533
-25.717304 21.431741 -67.298962
-31.43208 -33.378384 -53.214043
-32.273103 -33.253612 -52.698103
-32.117855 -31.50785 -53.626551
-29.981918 -37.383114 -52.204059
-28.991499 -37.573915 -52.684052
-24.186631 -42.3373 -52.598303
-25.251113 -42.096903 -52.340952
-25.153595 -40.311839 -53.104206
-23.162911 -42.527945 -52.820978
-24.186631 -42.3373 -52.598303
-23.0583 -40.643847 -53.563982
-22.132098 -42.619556 -53.023403
-23.162911 -42.527945 -52.820978
-41.358959 -12.856129 -34.384411
-41.372867 -14.139775 -33.752815
-41.42149 -12.405988 -37.002188
-41.400965 -12.469721 -36.123066
-41.461101 -13.610298 -37.221489
-41.42149 -12.405988 -37.002188
-17.749679 24.802134 -70.535359
-17.687221 25.787935 -69.94244
-16.650553 25.509436 -70.45971
-39.495587 -34.810263 -38.635684
-39.137707 -36.458128 -38.378263
-40.89483 -25.379421 -28.744219
-40.911689 -25.552593 -29.572333
-41.116367 -21.496684 -28.894533
-41.060955 -22.763028 -28.883969
-41.186507 -20.312632 -29.768683
-41.116367 -21.496684 -28.894533
-40.054909 0.5208 -47.935719
-40.323078 -1.028412 -47.348
-30.982372 20.549039 -58.682417
-30.390035 20.924589 -59.9568
-31.898874 19.34635 -58.229917
-31.566011 20.090966 -57.42839
-30.982372 20.549039 -58.682417
-13.840592 12.392354 -72.551476
-13.756501 13.900423 -72.735337
-12.860335 13.34339 -72.599022
-13.254976 -2.164001 -68.196106
-14.112647 -1.723782 -68.488315
-13.363086 -0.519659 -68.836849
-12.406464 -2.614742 -67.860138
-13.156025 -3.818865 -67.511604
-13.254976 -2.164001 -68.196106
-36.664363 -43.904991 -39.309557
-37.00885 -43.62083 -38.390005
-37.225158 -42.202221 -39.462372
-35.019117 -39.239855 -46.656881
-35.634461 -39.001425 -45.93745
-35.664332 -37.393528 -46.960764
-18.890129 -43.418192 -53.172024
-19.985077 -43.159849 -53.162928
-12.188685 -15.375827 -62.374519
-11.744953 -13.860549 -62.88505
-40.722595 -28.722207 -32.812112
-40.716294 -28.542917 -31.948301
-40.896542 -27.435677 -33.820395
-40.71257 -28.998182 -33.655594
-40.722595 -28.722207 -32.812112
-41.217237 -8.502479 -43.501744
-41.315031 -10.031209 -42.8083
-41.132885 -8.287055 -44.626276
-41.217237 -8.502479 -43.501744
-41.086816 -7.001097 -44.342794
-35.201112 15.042744 -52.081732
-34.517889 16.199677 -52.628679
-35.536447 14.310745 -52.927654
-35.87994 13.769576 -51.501429
-35.201112 15.042744 -52.081732
-21.786181 23.428764 -69.324105
-20.804458 24.304713 -69.390934
-22.865418 22.406298 -69.153515
-21.786181 23.428764 -69.324105
-21.910725 22.272312 -69.869701
-23.925996 21.344808 -68.932819
-23.801452 22.50126 -68.387223
-22.865418 22.406298 -69.153515
-28.034384 -37.728295 -53.086016
-28.991499 -37.573915 -52.684052
-28.794476 -35.829016 -53.562548
-27.027718 -38.027418 -53.405683
-27.224742 -39.772318 -52.527187
-28.034384 -37.728295 -53.086016
-15.6265 26.141116 -70.290818
-14.609901 26.733232 -70.039845
-15.688959 25.155315 -70.883736
-16.650553 25.509436 -70.45971
-15.6265 26.141116 -70.290818
-40.144506 -32.646781 -36.069639
-40.208992 -32.450502 -35.110406
-40.072643 -32.747877 -37.012754
-40.144506 -32.646781 -36.069639
-40.340334 -31.22701 -37.080624
-39.966828 -32.935102 -37.912206
-40.072643 -32.747877 -37.012754
-40.124039 -31.578781 -38.925394
-39.822395 -33.185778 -38.813862
-39.966828 -32.935102 -37.912206
-39.426271 3.418044 -49.308887
-39.75329 2.021534 -48.646239
-39.175922 3.848065 -50.547087
-39.426271 3.418044 -49.308887
-39.032503 5.005402 -49.977632
-29.674208 21.31909 -61.216391
-28.885801 21.746508 -62.393919
-30.599408 20.198925 -60.743534
-30.390035 20.924589 -59.9568
-29.674208 21.31909 -61.216391
-13.843032 9.373 -71.971626
-13.848906 10.918397 -72.296516
-14.696544 8.3364 -71.768947
-13.843032 9.373 -71.971626
-13.786189 7.707929 -71.562702
-13.424392 1.117007 -69.452156
-14.350684 1.586946 -69.721203
-13.554321 2.783392 -70.0443
-13.363086 -0.519659 -68.836849
-13.424392 1.117007 -69.452156
-36.704304 -46.139813 -35.221422
-37.239569 -44.432823 -35.465496
-36.420448 -46.558515 -36.160995
-36.704304 -46.139813 -35.221422
-36.240858 -44.313133 -40.143583
-36.394852 -42.960953 -41.161476
-18.652334 -39.472498 -54.530271
-18.767742 -41.448283 -53.82533
-19.681711 -39.419442 -54.513706
-18.652334 -39.472498 -54.530271
-18.506422 -37.730856 -55.103443
-16.281879 -36.222824 -55.489988
-17.242742 -36.097328 -55.623108
-16.023556 -34.475447 -56.017674
-16.281879 -36.222824 -55.489988
-16.710234 -24.933098 -59.561708
-17.061102 -26.779373 -58.894039
-17.684344 -24.853728 -59.715494
-16.710234 -24.933098 -59.561708
-16.342419 -23.284836 -60.11685
-12.008564 -12.232181 -63.67679
-12.890448 -11.928755 -64.033602
-12.325391 -10.560894 -64.473137
-11.744953 -13.860549 -62.88505
-12.008564 -12.232181 -63.67679
-40.301133 -31.938305 -33.395578
-40.525706 -30.475271 -33.555458
-40.259287 -32.220459 -34.273454
-40.301133 -31.938305 -33.395578
-40.462492 -30.895871 -35.300556
-40.208992 -32.450502 -35.110406
-40.259287 -32.220459 -34.273454
-41.482039 -14.619853 -40.17467
-41.49519 -16.20262 -39.354281
-41.490149 -14.763277 -39.229931
-41.45727 -14.59697 -41.165119
-41.482039 -14.619853 -40.17467
-41.452229 -13.157627 -41.040769
-41.345383 -11.46159 -42.908222
-41.397108 -11.704363 -41.931297
-41.315031 -10.031209 -42.8083
-36.438227 12.649275 -48.925375
-36.175342 13.251845 -50.228001
-37.00029 11.494008 -48.516777
-36.438227 12.649275 -48.925375
-37.337807 10.729777 -49.285511
-37.00029 11.494008 -48.516777
-37.634163 9.905369 -50.003908
-37.337807 10.729777 -49.285511
-37.102436 11.177707 -50.518892
-37.924039 8.904177 -50.613974
-37.634163 9.905369 -50.003908
-37.631982 9.312234 -51.925687
-38.15723 7.863113 -51.302372
-37.924039 8.904177 -50.613974
-27.407703 21.334792 -65.366943
-27.300403 22.268719 -64.623432
-27.563073 20.313845 -65.980663
-28.398198 20.224925 -64.91621
-27.407703 21.334792 -65.366943
-27.771104 19.164566 -66.440799
-27.563073 20.313845 -65.980663
-26.780609 20.274433 -66.891533
-11.869707 15.509028 -72.668568
-12.76314 16.213157 -72.82201
-11.856603 16.870725 -72.707695
-11.870335 14.081397 -72.547111
-11.869707 15.509028 -72.668568
-12.860335 13.34339 -72.599022
-11.870335 14.081397 -72.547111
-36.505703 -41.646292 -42.205201
-36.394852 -42.960953 -41.161476
-36.991523 -41.17172 -41.425648
-36.040655 -41.861708 -43.024601
-36.505703 -41.646292 -42.205201
-36.637327 -40.072475 -43.288773
-35.512147 -42.112156 -43.82077
-36.040655 -41.861708 -43.024601
-33.138708 -33.091171 -52.108837
-33.962759 -33.004222 -51.44267
-33.782928 -31.296129 -52.444445
-33.138708 -33.091171 -52.108837
-32.273103 -33.253612 -52.698103
-30.66946 -35.399392 -52.723089
-31.43208 -33.378384 -53.214043
-30.514212 -33.65363 -53.651537
-30.66946 -35.399392 -52.723089
-29.981918 -37.383114 -52.204059
-26.289623 -41.883614 -52.01301
-27.224742 -39.772318 -52.527187
-26.289623 -41.883614 -52.01301
-25.251113 -42.096903 -52.340952
-21.100261 -42.829966 -53.141749
-22.132098 -42.619556 -53.023403
-20.912303 -41.065342 -53.787586
-19.985077 -43.159849 -53.162928
-21.100261 -42.829966 -53.141749
-41.362551 -15.452846 -33.042884
-41.34474 -16.552044 -32.331978
-41.387132 -15.268971 -33.882767
-41.362551 -15.452846 -33.042884
-41.372867 -14.139775 -33.752815
-41.378681 -12.625225 -35.274463
-41.358959 -12.856129 -34.384411
-41.419733 -13.800396 -35.441299
-41.378681 -12.625225 -35.274463
-41.400965 -12.469721 -36.123066
-41.479717 -14.925473 -37.383059
-41.460633 -14.960067 -36.451471
-41.461101 -13.610298 -37.221489
-41.491743 -14.960874 -38.281309
-41.491274 -16.310643 -37.511291
-41.479717 -14.925473 -37.383059
-41.490149 -14.763277 -39.229931
-41.491743 -14.960874 -38.281309
-33.002566 18.51953 -53.386922
-33.753415 17.435693 -53.036773
-18.676868 26.019454 -69.333992
-17.687221 25.787935 -69.94244
-19.781887 25.197641 -69.379833
-18.676868 26.019454 -69.333992
-19.808917 24.187705 -70.02919
-20.804458 24.304713 -69.390934
-19.781887 25.197641 -69.379833
-11.792741 25.364584 -70.824085
-12.751152 25.917873 -70.620365
-11.783337 24.322127 -71.304653
-11.792741 25.364584 -70.824085
-11.742759 23.208904 -71.729523
-12.722161 23.775807 -71.647426
-11.783337 24.322127 -71.304653
-11.767246 21.975873 -72.092816
-11.742759 23.208904 -71.729523
-11.846855 20.707364 -72.38498
-12.761191 21.394075 -72.36446
-11.767246 21.975873 -72.092816
-11.872739 19.53122 -72.562905
-11.846855 20.707364 -72.38498
-11.827357 18.255864 -72.665161
-12.795417 18.85021 -72.758881
-11.872739 19.53122 -72.562905
-11.856603 16.870725 -72.707695
-11.827357 18.255864 -72.665161
-38.23217 -41.011538 -35.879658
-37.778704 -42.625442 -35.682764
-38.51043 -39.554035 -37.029434
-38.23217 -41.011538 -35.879658
-38.734909 -38.161634 -38.141296
-38.295913 -39.87784 -37.884899
-38.51043 -39.554035 -37.029434
-38.923191 -36.781932 -39.233728
-38.734909 -38.161634 -38.141296
-39.137707 -36.458128 -38.378263
-39.652798 -33.453941 -39.648872
-39.495587 -34.810263 -38.635684
-39.822395 -33.185778 -38.813862
-40.683249 -28.270004 -30.241331
-40.690088 -28.488612 -31.054523
-40.829414 -26.962366 -30.341907
-40.683249 -28.270004 -30.241331
-40.947281 -25.528525 -30.468479
-40.972023 -25.617251 -31.315928
-40.829414 -26.962366 -30.341907
-41.054299 -24.207478 -30.546354
-40.947281 -25.528525 -30.468479
-40.911689 -25.552593 -29.572333
-40.994549 -24.065097 -28.848052
-40.89483 -25.379421 -28.744219
-41.085113 -22.929478 -29.686126
-40.994549 -24.065097 -28.848052
-41.060955 -22.763028 -28.883969
-41.257904 -18.96708 -30.643222
-41.222917 -20.281858 -30.596584
-41.186507 -20.312632 -29.768683
-41.303489 -17.729175 -31.481122
-41.257904 -18.96708 -30.643222
-40.569002 -2.553079 -46.54101
-40.778872 -4.052428 -45.711475
-40.418852 -2.265429 -47.650312
-40.569002 -2.553079 -46.54101
-40.323078 -1.028412 -47.348
-39.871309 0.759972 -49.167822
-40.054909 0.5208 -47.935719
-39.75329 2.021534 -48.646239
-38.323663 6.853296 -51.914959
-38.61572 6.445239 -50.603245
-38.15723 7.863113 -51.302372
-32.523519 19.158658 -54.790745
-33.002566 18.51953 -53.386922
-32.10044 19.574824 -56.116617
-31.566011 20.090966 -57.42839
-32.905592 18.47211 -55.650019
-32.523519 19.158658 -54.790745
-32.10044 19.574824 -56.116617
-14.745072 11.475429 -72.432831
-13.840592 12.392354 -72.551476
-13.848906 10.918397 -72.296516
-11.607451 -3.206188 -67.44358
-12.406464 -2.614742 -67.860138
-11.473382 -4.822996 -66.728366
-11.607451 -3.206188 -67.44358
-11.28231 -6.502237 -65.970348
-12.116441 -5.948847 -66.417618
-11.473382 -4.822996 -66.728366
-11.119093 -8.053806 -65.243378
-11.28231 -6.502237 -65.970348
-36.720609 -45.104301 -37.287846
-37.281405 -43.401531 -37.44066
-37.00885 -43.62083 -38.390005
-36.420448 -46.558515 -36.160995
-36.720609 -45.104301 -37.287846
-36.664363 -43.904991 -39.309557
-36.240858 -44.313133 -40.143583
-35.580763 -40.567822 -44.87087
-36.225977 -38.721495 -45.174753
-35.634461 -39.001425 -45.93745
-35.512147 -42.112156 -43.82077
-35.580763 -40.567822 -44.87087
-34.071145 -34.644249 -50.457634
-34.715364 -32.849208 -50.793242
-33.962759 -33.004222 -51.44267
-34.209618 -36.361603 -49.384918
-34.071145 -34.644249 -50.457634
-34.322237 -37.932964 -48.320914
-34.936369 -36.060597 -48.7442
-34.209618 -36.361603 -49.384918
-34.319252 -39.618969 -47.299995
-34.322237 -37.932964 -48.320914
-35.019117 -39.239855 -46.656881
-34.319252 -39.618969 -47.299995
-18.890129 -43.418192 -53.172024
-18.767742 -41.448283 -53.82533
-15.751416 -32.649728 -56.623481
-16.023556 -34.475447 -56.017674
-16.766801 -32.350882 -56.863785
-16.290827 -28.691953 -58.104923
-17.264937 -28.612583 -58.258709
-17.061102 -26.779373 -58.894039
-15.5428 -30.691558 -57.247685
-16.290827 -28.691953 -58.104923
-15.751416 -32.649728 -56.623481
-15.5428 -30.691558 -57.247685
-14.930385 -18.24042 -61.862853
-15.47025 -19.949232 -61.269345
-15.893669 -18.065247 -62.116171
-14.014716 -18.395926 -61.601292
-14.930385 -18.24042 -61.862853
-14.438135 -16.51194 -62.448118
-13.088236 -18.395749 -61.364847
-14.014716 -18.395926 -61.601292
-12.663107 -16.90953 -61.849171
-13.048043 -15.133744 -62.711906
-12.188685 -15.375827 -62.374519
-13.088236 -18.395749 -61.364847
-12.663107 -16.90953 -61.849171
3 0 95 93
3 0 97 95
3 1 370 372
3 370 98 371
3 370 371 372
3 373 100 374
3 375 102 376
3 377 376 100
3 375 376 377
3 3 378 380
3 378 103 379
3 378 379 380
3 3 105 103
3 4 107 106
3 4 109 107
3 4 111 109
3 2 114 112
3 6 117 115
3 6 119 117
3 6 121 119
3 5 124 122
3 5 126 124
3 381 129 382
3 383 382 127
3 381 382 383
3 384 130 385
3 386 132 387
3 388 387 130
3 386 387 388
3 9 135 133
3 11 138 136
3 11 140 138
3 11 142 140
3 13 145 143
3 13 147 145
3 15 149 148
3 15 151 149
3 7 154 152
3 16 157 155
3 16 159 157
3 16 161 159
3 17 164 162
3 17 166 164
3 389 168 390
3 18 171 169
3 18 173 171
3 19 391 392
3 19 393 395
3 393 174 394
3 393 394 395
3 19 176 174
3 20 179 177
3 20 181 179
3 20 183 181
3 21 186 184
3 21 188 186
3 8 191 189
3 396 193 397
3 398 195 399
3 400 399 193
3 398 399 400
3 402 401 195
3 14 403 405
3 403 197 404
3 403 404 405
3 10 200 198
3 23 406 408
3 408 407 201
3 406 407 408
3 23 409 411
3 409 202 410
3 409 410 411
3 12 205 203
3 24 208 206
3 24 412 414
3 414 413 208
3 412 413 414
3 24 415 416
3 22 417 419
3 419 418 209
3 417 418 419
3 22 420 421
3 25 213 211
3 27 214 94
3 27 215 214
3 27 217 215
3 29 218 96
3 29 219 218
3 30 422 424
3 422 220 423
3 422 423 424
3 30 221 220
3 425 223 426
3 32 224 99
3 32 225 224
3 32 227 225
3 34 228 101
3 34 229 228
3 35 427 429
3 427 230 428
3 427 428 429
3 35 231 230
3 35 233 231
3 37 234 104
3 37 235 234
3 38 430 431
3 38 432 433
3 38 434 436
3 434 237 435
3 434 435 436
3 40 238 108
3 40 239 238
3 40 241 239
3 42 242 110
3 42 243 242
3 43 247 245
3 45 248 113
3 45 249 248
3 46 437 439
3 439 438 250
3 437 438 439
3 441 440 116
3 47 442 444
3 444 443 118
3 442 443 444
3 47 445 446
3 47 447 449
3 447 251 448
3 447 448 449
3 49 252 120
3 49 253 252
3 50 256 254
3 52 257 123
3 52 258 257
3 52 260 258
3 54 261 125
3 54 262 261
3 55 265 263
3 57 266 128
3 57 267 266
3 450 268 451
3 452 269 453
3 455 454 269
3 58 456 458
3 456 270 457
3 456 457 458
3 58 271 270
3 58 273 271
3 60 274 131
3 60 275 274
3 61 278 276
3 63 279 134
3 63 280 279
3 26 281 212
3 64 282 137
3 64 283 282
3 64 284 283
3 65 285 139
3 65 286 285
3 65 288 286
3 67 289 141
3 67 290 289
3 28 291 216
3 68 292 144
3 68 293 292
3 68 294 293
3 69 295 146
3 69 296 295
3 459 297 460
3 70 298 150
3 70 299 298
3 56 300 264
3 71 301 153
3 71 302 301
3 31 303 222
3 72 304 156
3 72 305 304
3 72 306 305
3 73 307 158
3 73 308 307
3 73 309 308
3 74 310 160
3 74 311 310
3 33 312 226
3 75 313 163
3 75 314 313
3 75 315 314
3 76 316 165
3 76 317 316
3 461 318 462
3 463 319 464
3 466 465 319
3 467 320 468
3 77 321 167
3 77 322 321
3 36 323 232
3 78 324 170
3 78 325 324
3 78 326 325
3 79 327 172
3 79 328 327
3 80 469 470
3 80 471 473
3 471 329 472
3 471 472 473
3 80 330 329
3 81 331 175
3 81 332 331
3 39 333 236
3 82 334 178
3 82 335 334
3 82 336 335
3 83 337 180
3 83 338 337
3 83 339 338
3 84 340 182
3 84 341 340
3 41 342 240
3 85 343 185
3 85 344 343
3 85 345 344
3 86 346 187
3 86 347 346
3 59 348 272
3 87 349 190
3 87 350 349
3 474 351 475
3 476 475 244
3 474 475 476
3 88 352 192
3 88 353 352
3 88 354 353
3 89 355 194
3 89 356 355
3 89 357 356
3 477 358 478
3 479 478 196
3 477 478 479
3 480 359 481
3 482 481 358
3 480 481 482
3 44 483 485
3 485 484 246
3 483 484 485
3 62 360 277
3 90 361 199
3 90 486 488
3 488 487 361
3 486 487 488
3 48 489 490
3 66 362 287
3 91 363 204
3 91 364 363
3 51 365 255
3 92 366 207
3 92 367 366
3 92 368 367
3 53 369 259
3 492 491 210
3 93 94 25
3 95 94 93
3 95 27 94
3 95 96 27
3 97 96 95
3 97 29 96
3 98 493 494
3 98 495 497
3 495 30 496
3 495 496 497
3 498 99 499
3 100 500 502
3 500 99 501
3 500 501 502
3 100 32 99
3 100 101 32
3 102 101 100
3 102 34 101
3 103 503 504
3 103 505 507
3 505 35 506
3 505 506 507
3 103 104 35
3 105 104 103
3 105 37 104
3 106 508 509
3 107 510 512
3 512 511 106
3 510 511 512
3 107 513 515
3 513 38 514
3 513 514 515
3 107 108 38
3 109 108 107
3 109 40 108
3 109 110 40
3 111 110 109
3 111 42 110
3 112 113 43
3 114 113 112
3 114 45 113
3 115 116 46
3 117 116 115
3 117 516 518
3 518 517 116
3 516 517 518
3 117 519 521
3 519 118 520
3 519 520 521
3 119 118 117
3 119 47 118
3 119 120 47
3 121 120 119
3 121 49 120
3 122 123 50
3 124 123 122
3 124 52 123
3 124 125 52
3 126 125 124
3 126 54 125
3 127 128 55
3 129 128 127
3 129 57 128
3 130 522 523
3 130 524 526
3 524 58 525
3 524 525 526
3 130 131 58
3 132 131 130
3 132 60 131
3 133 134 61
3 135 134 133
3 135 63 134
3 136 137 26
3 138 137 136
3 138 64 137
3 138 139 64
3 140 139 138
3 140 65 139
3 140 141 65
3 142 141 140
3 142 67 141
3 143 144 28
3 145 144 143
3 145 68 144
3 145 146 68
3 147 146 145
3 147 69 146
3 148 527 528
3 149 529 531
3 531 530 148
3 529 530 531
3 149 532 533
3 149 534 536
3 534 150 535
3 534 535 536
3 151 150 149
3 151 70 150
3 152 153 56
3 154 153 152
3 154 71 153
3 155 156 31
3 157 156 155
3 157 72 156
3 157 158 72
3 159 158 157
3 159 73 158
3 159 160 73
3 161 160 159
3 161 74 160
3 162 163 33
3 164 163 162
3 164 75 163
3 164 165 75
3 166 165 164
3 166 76 165
3 537 167 538
3 168 539 541
3 539 167 540
3 539 540 541
3 168 77 167
3 169 170 36
3 171 170 169
3 171 78 170
3 171 172 78
3 173 172 171
3 173 79 172
3 174 542 543
3 174 544 546
3 544 80 545
3 544 545 546
3 174 175 80
3 176 175 174
3 176 81 175
3 177 178 39
3 179 178 177
3 179 82 178
3 179 180 82
3 181 180 179
3 181 83 180
3 181 182 83
3 183 182 181
3 183 84 182
3 184 185 41
3 186 185 184
3 186 85 185
3 186 187 85
3 188 187 186
3 188 86 187
3 189 190 59
3 191 190 189
3 191 87 190
3 547 192 548
3 193 549 551
3 549 192 550
3 549 550 551
3 193 88 192
3 193 194 88
3 195 194 193
3 195 89 194
3 195 196 89
3 552 196 553
3 554 553 195
3 552 553 554
3 556 555 196
3 197 557 558
3 197 559 560
3 562 561 44
3 198 199 62
3 200 199 198
3 200 90 199
3 201 563 565
3 565 564 48
3 563 564 565
3 567 566 201
3 202 568 569
3 202 570 571
3 203 204 66
3 205 204 203
3 205 91 204
3 206 207 51
3 208 207 206
3 208 92 207
3 208 572 574
3 574 573 92
3 572 573 574
3 576 575 208
3 209 210 53
3 577 210 578
3 579 578 209
3 577 578 579
3 581 580 210
3 211 212 9
3 213 212 211
3 213 26 212
3 94 213 25
3 214 213 94
3 214 26 213
3 214 136 26
3 215 136 214
3 215 11 136
3 215 216 11
3 217 216 215
3 217 28 216
3 96 217 27
3 218 217 96
3 218 28 217
3 218 143 28
3 219 143 218
3 219 13 143
3 220 582 583
3 220 584 585
3 220 586 588
3 586 148 587
3 586 587 588
3 221 148 220
3 221 15 148
3 589 222 590
3 591 590 7
3 589 590 591
3 223 592 594
3 592 222 593
3 592 593 594
3 223 31 222
3 99 595 597
3 595 223 596
3 595 596 597
3 224 223 99
3 224 31 223
3 224 155 31
3 225 155 224
3 225 16 155
3 225 226 16
3 227 226 225
3 227 33 226
3 101 227 32
3 228 227 101
3 228 33 227
3 228 162 33
3 229 162 228
3 229 17 162
3 230 598 599
3 230 600 601
3 230 602 603
3 231 604 606
3 606 605 230
3 604 605 606
3 231 607 608
3 231 609 611
3 609 232 610
3 609 610 611
3 233 232 231
3 233 36 232
3 104 233 35
3 234 233 104
3 234 36 233
3 234 169 36
3 235 169 234
3 235 18 169
3 612 19 613
3 614 236 615
3 616 615 19
3 614 615 616
3 237 617 619
3 617 236 618
3 617 618 619
3 237 39 236
3 108 237 38
3 238 237 108
3 238 39 237
3 238 177 39
3 239 177 238
3 239 20 177
3 239 240 20
3 241 240 239
3 241 41 240
3 110 241 40
3 242 241 110
3 242 41 241
3 242 184 41
3 243 184 242
3 243 21 184
3 620 244 621
3 622 621 8
3 620 621 622
3 623 244 624
3 626 625 244
3 245 246 14
3 247 246 245
3 247 44 246
3 113 247 43
3 248 247 113
3 248 44 247
3 248 627 629
3 629 628 44
3 627 628 629
3 249 630 632
3 632 631 248
3 630 631 632
3 249 633 634
3 250 635 637
3 637 636 10
3 635 636 637
3 639 638 250
3 116 640 642
3 642 641 46
3 640 641 642
3 644 643 116
3 118 645 646
3 648 647 118
3 251 649 650
3 251 651 653
3 651 48 652
3 651 652 653
3 120 251 47
3 252 251 120
3 252 48 251
3 252 201 48
3 253 201 252
3 253 23 201
3 254 255 12
3 256 255 254
3 256 51 255
3 123 256 50
3 257 256 123
3 257 51 256
3 257 206 51
3 258 206 257
3 258 24 206
3 258 259 24
3 260 259 258
3 260 53 259
3 125 260 52
3 261 260 125
3 261 53 260
3 261 209 53
3 262 209 261
3 262 22 209
3 263 264 1
3 265 264 263
3 265 56 264
3 128 265 55
3 266 265 128
3 266 56 265
3 266 152 56
3 267 152 266
3 267 7 152
3 654 129 655
3 268 656 658
3 656 129 657
3 656 657 658
3 268 57 129
3 659 268 660
3 269 661 663
3 661 268 662
3 661 662 663
3 269 57 268
3 269 267 57
3 664 267 665
3 666 665 269
3 664 665 666
3 667 7 668
3 669 668 267
3 667 668 669
3 671 670 7
3 672 3 673
3 270 674 675
3 270 676 677
3 270 678 680
3 678 106 679
3 678 679 680
3 271 106 270
3 271 4 106
3 271 272 4
3 273 272 271
3 273 59 272
3 131 273 58
3 274 273 131
3 274 59 273
3 274 189 59
3 275 189 274
3 275 8 189
3 681 132 682
3 683 132 684
3 685 60 686
3 687 686 132
3 685 686 687
3 688 60 689
3 690 275 691
3 692 691 60
3 690 691 692
3 693 275 694
3 695 8 696
3 697 696 275
3 695 696 697
3 699 698 8
3 276 277 2
3 278 277 276
3 278 62 277
3 134 278 61
3 279 278 134
3 279 62 278
3 279 198 62
3 280 198 279
3 280 10 198
3 212 135 9
3 281 135 212
3 281 63 135
3 137 281 26
3 282 281 137
3 282 63 281
3 282 280 63
3 283 280 282
3 283 10 280
3 283 250 10
3 284 250 283
3 284 46 250
3 139 284 64
3 285 284 139
3 285 46 284
3 285 115 46
3 286 115 285
3 286 6 115
3 286 287 6
3 288 287 286
3 288 66 287
3 141 288 65
3 289 288 141
3 289 66 288
3 289 203 66
3 290 203 289
3 290 12 203
3 216 142 11
3 291 142 216
3 291 67 142
3 144 291 28
3 292 291 144
3 292 67 291
3 292 290 67
3 293 290 292
3 293 12 290
3 293 254 12
3 294 254 293
3 294 50 254
3 146 294 68
3 295 294 146
3 295 50 294
3 295 122 50
3 296 122 295
3 296 5 122
3 700 14 701
3 702 14 703
3 704 245 705
3 706 705 14
3 704 705 706
3 297 707 709
3 707 245 708
3 707 708 709
3 297 43 245
3 150 710 712
3 710 297 711
3 710 711 712
3 298 297 150
3 298 43 297
3 298 112 43
3 299 112 298
3 299 2 112
3 264 98 1
3 300 98 264
3 300 30 98
3 153 300 56
3 301 300 153
3 301 30 300
3 301 221 30
3 302 221 301
3 302 15 221
3 222 154 7
3 303 154 222
3 303 71 154
3 156 303 31
3 304 303 156
3 304 71 303
3 304 302 71
3 305 302 304
3 305 15 302
3 305 151 15
3 306 151 305
3 306 70 151
3 158 306 72
3 307 306 158
3 307 70 306
3 307 299 70
3 308 299 307
3 308 2 299
3 308 276 2
3 309 276 308
3 309 61 276
3 160 309 73
3 310 309 160
3 310 61 309
3 310 133 61
3 311 133 310
3 311 9 133
3 226 161 16
3 312 161 226
3 312 74 161
3 163 312 33
3 313 312 163
3 313 74 312
3 313 311 74
3 314 311 313
3 314 9 311
3 314 211 9
3 315 211 314
3 315 25 211
3 165 315 75
3 316 315 165
3 316 25 315
3 316 93 25
3 317 93 316
3 317 0 93
3 713 1 714
3 715 1 716
3 717 263 718
3 719 718 1
3 717 718 719
3 318 720 722
3 720 263 721
3 720 721 722
3 318 55 263
3 723 318 724
3 319 725 727
3 725 318 726
3 725 726 727
3 319 55 318
3 319 127 55
3 728 127 729
3 730 729 319
3 728 729 730
3 732 731 127
3 733 102 734
3 320 735 737
3 735 102 736
3 735 736 737
3 320 34 102
3 167 738 740
3 738 320 739
3 738 739 740
3 321 320 167
3 321 34 320
3 321 229 34
3 322 229 321
3 322 17 229
3 232 741 743
3 741 168 742
3 741 742 743
3 323 168 232
3 323 77 168
3 170 323 36
3 324 323 170
3 324 77 323
3 324 322 77
3 325 322 324
3 325 17 322
3 325 166 17
3 326 166 325
3 326 76 166
3 172 326 78
3 327 326 172
3 327 76 326
3 327 317 76
3 328 317 327
3 328 0 317
3 744 3 745
3 329 746 747
3 329 748 750
3 748 3 749
3 748 749 750
3 329 105 3
3 330 105 329
3 330 37 105
3 175 330 80
3 331 330 175
3 331 37 330
3 331 235 37
3 332 235 331
3 332 18 235
3 236 176 19
3 333 176 236
3 333 81 176
3 178 333 39
3 334 333 178
3 334 81 333
3 334 332 81
3 335 332 334
3 335 18 332
3 335 173 18
3 336 173 335
3 336 79 173
3 180 336 82
3 337 336 180
3 337 79 336
3 337 328 79
3 338 328 337
3 338 0 328
3 338 97 0
3 339 97 338
3 339 29 97
3 182 339 83
3 340 339 182
3 340 29 339
3 340 219 29
3 341 219 340
3 341 13 219
3 240 183 20
3 342 183 240
3 342 84 183
3 185 342 41
3 343 342 185
3 343 84 342
3 343 341 84
3 344 341 343
3 344 13 341
3 344 147 13
3 345 147 344
3 345 69 147
3 187 345 85
3 346 345 187
3 346 69 345
3 346 296 69
3 347 296 346
3 347 5 296
3 272 111 4
3 348 111 272
3 348 42 111
3 190 348 59
3 349 348 190
3 349 42 348
3 349 243 42
3 350 243 349
3 350 21 243
3 244 191 8
3 351 191 244
3 351 87 191
3 192 751 753
3 751 351 752
3 751 752 753
3 352 351 192
3 352 87 351
3 352 350 87
3 353 350 352
3 353 21 350
3 353 188 21
3 354 188 353
3 354 86 188
3 194 354 88
3 355 354 194
3 355 86 354
3 355 347 86
3 356 347 355
3 356 5 347
3 356 126 5
3 357 126 356
3 357 54 126
3 196 357 89
3 358 357 196
3 358 54 357
3 358 262 54
3 359 262 358
3 359 22 262
3 754 359 755
3 756 359 757
3 758 22 759
3 760 759 359
3 758 759 760
3 762 761 22
3 246 197 14
3 763 197 764
3 765 764 246
3 763 764 765
3 767 766 197
3 769 768 44
3 277 114 2
3 360 114 277
3 360 45 114
3 199 360 62
3 361 360 199
3 361 45 360
3 361 249 45
3 770 249 771
3 772 771 361
3 770 771 772
3 774 773 249
3 775 200 776
3 777 776 10
3 775 776 777
3 778 200 779
3 780 90 781
3 782 781 200
3 780 781 782
3 783 90 784
3 786 785 90
3 788 787 48
3 287 121 6
3 362 121 287
3 362 49 121
3 204 362 66
3 363 362 204
3 363 49 362
3 363 253 49
3 364 253 363
3 364 23 253
3 255 205 12
3 365 205 255
3 365 91 205
3 207 365 51
3 366 365 207
3 366 91 365
3 366 364 91
3 367 364 366
3 367 23 364
3 367 202 23
3 368 202 367
3 368 789 791
3 791 790 202
3 789 790 791
3 792 368 793
3 794 793 92
3 792 793 794
3 795 368 796
3 798 797 368
3 259 799 801
3 801 800 24
3 799 800 801
3 369 802 804
3 804 803 259
3 802 803 804
3 369 805 806
3 210 369 53
3 807 369 808
3 809 808 210
3 807 808 809
3 811 810 369
