ply
format ascii 1.0
element vertex 312
property float x
property float y
property float z
element face 332
property list uchar int vertex_index
end_header
-40.820976 -9.411622 -30.364738
-39.779053 -25.106714 -17.441034
-41.312664 -16.522045 -31.491121
-38.384956 -8.600811 -24.766571
-40.527443 -16.775082 -24.837408
-40.655594 -25.933966 -24.456884
-41.174511 -12.364612 -31.03838
-41.320469 -11.756359 -34.176125
-40.998741 -8.168198 -33.044319
-36.708424 -5.112305 -24.827965
-38.01524 -12.552472 -21.312368
-39.779675 -29.787827 -17.048817
-40.396767 -25.486475 -21.122086
-40.813183 -21.144676 -24.750761
-40.201416 -20.77276 -21.400639
-39.279537 -28.988869 -13.305013
-40.015949 -8.907515 -27.957867
-40.271809 -6.003226 -31.156153
-38.908882 -5.160671 -28.373888
-37.252541 -1.478537 -28.588411
-38.43895 -28.256704 -9.744741
-38.702488 -24.702417 -13.694798
-39.018612 -20.614367 -17.638075
-39.410736 -16.582912 -21.365679
-39.7216 -12.54559 -24.757908
-40.730236 -12.592896 -27.970728
-41.081215 -21.365959 -28.067022
-41.08601 -16.555708 -28.264498
-41.007378 -10.615383 -30.674248
-41.120228 -10.233159 -32.086143
-40.922916 -8.832008 -31.568371
-39.876022 -27.361605 -17.312048
-40.119289 -27.571556 -19.183876
-40.146278 -25.346004 -19.325855
-40.369179 -23.270765 -21.196177
-40.006676 -23.033178 -19.443058
-39.292267 -8.756786 -26.373749
-39.468349 -7.03804 -28.043955
-38.621994 -6.817647 -26.51235
-35.707306 -3.351641 -24.922064
-36.997974 -3.183562 -26.767004
-35.967464 -1.281719 -26.944824
-38.565926 -26.461493 -11.808835
-38.261383 -20.716078 -15.72759
-38.379982 -18.60685 -17.598753
-39.177277 -18.580116 -19.446619
-38.537743 -16.526064 -19.440653
-38.224636 -10.576091 -23.074661
-38.977234 -12.55352 -23.091497
-39.135464 -10.608086 -24.744057
-39.870163 -10.705076 -26.336912
-40.354725 -28.22187 -22.657505
-39.99921 -30.928967 -22.254335
-40.411339 -28.515963 -24.288286
-40.727318 -26.183292 -26.185152
-40.97039 -23.898647 -28.045895
-40.886749 -23.861727 -26.321857
-40.736206 -18.844652 -24.905783
-40.972786 -18.848156 -26.589046
-40.858849 -16.750599 -26.521662
-40.946201 -14.62976 -28.027925
-40.630192 -14.628054 -26.417492
-39.838665 -4.087892 -31.607931
-41.272369 -14.235379 -31.342653
-41.348286 -14.32365 -32.912933
-41.263245 -12.023964 -32.598297
-41.183926 -9.684094 -33.676533
-37.633381 -6.797679 -24.877293
-39.910553 -30.05533 -18.836763
-40.271141 -27.850731 -20.950897
-40.550198 -25.701841 -22.750759
-40.783512 -23.534643 -24.587158
-40.627037 -23.288458 -22.973886
-40.565262 -21.026518 -23.064417
-40.360996 -18.766733 -23.10384
-39.582939 -29.441599 -15.240396
-39.52401 -27.177286 -15.315208
-40.539391 -9.257705 -29.304991
-40.622204 -7.94486 -30.70755
-40.158463 -7.430519 -29.498936
-39.697853 -5.507413 -29.868782
-39.09882 -3.548468 -30.177135
-37.900776 -5.017299 -26.6768
-38.17041 -3.314109 -28.531826
-38.899025 -28.69298 -11.454278
-39.110508 -26.829546 -13.585605
-39.293777 -24.808441 -15.608929
-38.87212 -22.634758 -15.781096
-39.505417 -22.798731 -17.623236
-39.680096 -20.666029 -19.529444
-39.844807 -18.693981 -21.255749
-40.047607 -16.603752 -23.15229
-38.797283 -14.497244 -21.392887
-39.584538 -14.53852 -23.124645
-40.177887 -14.54721 -24.79561
-40.305733 -12.633281 -26.354979
-40.407566 -10.783236 -27.830948
-40.786682 -10.746344 -29.303556
-41.221493 -18.997854 -29.815321
-40.980839 -21.265554 -26.499134
-41.128559 -18.813101 -28.263247
-41.226852 -16.525692 -29.894974
-41.153229 -14.373395 -29.746855
-41.000385 -12.49432 -29.465664
-40.710163 -6.985559 -32.162888
-41.34474 -16.552044 -32.331978
-41.303489 -17.729175 -31.481122
-35.304031 -1.491513 -25.99031
-35.837385 -2.31668 -25.933444
-35.173952 -2.526474 -24.97893
-35.47792 -0.49265 -27.032632
-35.304031 -1.491513 -25.99031
-37.983011 -17.641905 -17.567808
-37.947619 -18.656061 -16.705626
-38.061892 -16.601512 -18.488758
-38.458862 -17.566457 -18.519703
-37.983011 -17.641905 -17.567808
-39.859834 -3.333326 -32.498212
-39.539524 -3.051448 -31.805062
-41.022688 -7.82782 -33.859278
-41.11528 -8.585767 -34.175384
-41.091334 -8.926146 -33.360426
-39.845114 -29.921579 -17.94279
-39.717811 -31.044114 -17.755144
-39.652372 -30.910363 -16.861171
-41.358959 -12.856129 -34.384411
-41.372867 -14.139775 -33.752815
-41.334378 -13.040005 -33.544529
-39.431238 -29.215234 -14.272704
-39.430042 -30.342679 -14.185282
-39.278341 -30.116314 -13.217591
-37.787667 -1.541179 -29.465736
-38.246601 -2.458964 -29.437444
-37.711475 -2.396323 -28.560119
-37.345221 -0.539196 -29.601381
-37.787667 -1.541179 -29.465736
-38.384514 -29.154393 -8.626561
-38.176321 -28.079342 -8.869109
-38.57345 -29.390614 -9.512
-38.384514 -29.154393 -8.626561
-38.668988 -28.474842 -10.599509
-38.803488 -29.608753 -10.366768
-38.57345 -29.390614 -9.512
-38.406261 -13.524858 -21.352628
-38.300238 -14.585226 -20.405535
-37.909216 -13.61284 -20.365275
-39.807004 -32.247738 -22.904591
-39.784206 -32.14267 -22.062407
-40.022008 -31.034035 -23.09652
-41.116367 -21.496684 -28.894533
-41.060955 -22.763028 -28.883969
-41.025802 -22.632303 -28.056459
-41.151354 -20.181907 -28.941172
-41.186507 -20.312632 -29.768683
-41.116367 -21.496684 -28.894533
-41.340191 -11.525454 -35.066177
-41.275768 -10.4867 -34.795765
-39.154926 -29.925133 -12.244179
-39.278341 -30.116314 -13.217591
-36.145758 -0.405135 -27.951731
-36.788296 -0.503544 -28.773524
-36.610003 -1.380128 -27.766618
-36.145758 -0.405135 -27.951731
-35.47792 -0.49265 -27.032632
-38.191561 -27.198638 -9.893791
-38.176321 -28.079342 -8.869109
-38.255049 -26.301032 -10.925839
-38.502438 -27.359099 -10.776788
-38.191561 -27.198638 -9.893791
-38.259611 -25.367811 -11.864726
-38.255049 -26.301032 -10.925839
-38.327893 -24.488273 -12.807707
-38.634207 -25.581955 -12.751817
-38.259611 -25.367811 -11.864726
-37.888319 -19.710676 -15.770044
-37.794949 -20.60979 -14.833436
-38.320683 -19.661464 -16.663171
-37.888319 -19.710676 -15.770044
-37.947619 -18.656061 -16.705626
-40.176968 -29.575418 -22.45592
-39.989969 -30.663611 -21.3891
-40.167727 -29.310062 -21.590685
-40.228073 -29.827533 -24.113495
-40.022008 -31.034035 -23.09652
-40.205275 -29.722465 -23.27131
-40.43631 -28.637711 -25.151334
-40.228073 -29.827533 -24.113495
-40.594299 -27.471376 -26.099767
-40.43631 -28.637711 -25.151334
-40.569328 -27.349628 -25.236719
-40.749136 -26.355294 -27.011691
-40.594299 -27.471376 -26.099767
-40.848854 -25.04097 -27.115524
-40.870672 -25.212972 -27.942062
-40.749136 -26.355294 -27.011691
-40.109581 -4.483594 -32.214074
-40.326153 -5.441261 -31.988185
-40.055237 -5.045559 -31.382042
-40.109581 -4.483594 -32.214074
-39.859834 -3.333326 -32.498212
-41.207497 -9.450567 -34.545969
-41.275768 -10.4867 -34.795765
-41.252198 -10.720226 -33.926329
-41.207497 -9.450567 -34.545969
-41.11528 -8.585767 -34.175384
-37.504846 -7.788806 -23.949778
-38.009169 -7.699245 -24.821932
-37.880634 -8.690372 -23.894417
-37.032652 -6.887961 -23.9587
-37.504846 -7.788806 -23.949778
-36.570173 -6.045274 -23.934036
-37.170902 -5.954992 -24.852629
-37.032652 -6.887961 -23.9587
-36.072133 -5.201782 -23.954364
-36.570173 -6.045274 -23.934036
-35.571573 -4.32145 -24.001413
-36.207865 -4.231973 -24.875014
-36.072133 -5.201782 -23.954364
-34.999719 -3.502527 -24.005074
-35.571573 -4.32145 -24.001413
-35.173952 -2.526474 -24.97893
-34.999719 -3.502527 -24.005074
-37.472575 -12.690527 -20.353195
-37.909216 -13.61284 -20.365275
-37.57132 -11.679607 -21.242847
-37.472575 -12.690527 -20.353195
-37.676018 -10.691416 -22.123993
-38.119938 -11.564281 -22.193514
-37.57132 -11.679607 -21.242847
-37.800474 -9.678012 -23.048462
-37.676018 -10.691416 -22.123993
-37.880634 -8.690372 -23.894417
-38.304796 -9.588451 -23.920616
-37.800474 -9.678012 -23.048462
-39.727009 -31.322856 -18.621378
-39.717811 -31.044114 -17.755144
-39.94564 -30.226792 -19.680314
-39.727009 -31.322856 -18.621378
-40.125934 -29.124493 -20.737381
-39.94564 -30.226792 -19.680314
-40.090847 -28.953031 -19.89383
-40.312933 -28.0363 -21.804201
-40.167727 -29.310062 -21.590685
-40.125934 -29.124493 -20.737381
-41.362551 -15.452846 -33.042884
-41.34474 -16.552044 -32.331978
-41.330475 -15.422847 -32.202027
-41.362551 -15.452846 -33.042884
-41.372867 -14.139775 -33.752815
-41.358959 -12.856129 -34.384411
-41.340191 -11.525454 -35.066177
-39.58654 -30.855588 -15.914939
-39.652372 -30.910363 -16.861171
-39.488173 -30.682474 -15.010729
-39.430042 -30.342679 -14.185282
-39.681307 -29.614713 -16.144607
-39.58654 -30.855588 -15.914939
-39.488173 -30.682474 -15.010729
-39.169601 -2.781735 -31.089664
-39.539524 -3.051448 -31.805062
-39.468743 -3.81818 -30.892533
-38.710806 -2.576144 -30.260098
-38.634615 -3.431288 -29.354481
-38.246601 -2.458964 -29.437444
-39.169601 -2.781735 -31.089664
-38.710806 -2.576144 -30.260098
-37.345221 -0.539196 -29.601381
-36.788296 -0.503544 -28.773524
-38.96467 -29.777189 -11.318811
-38.803488 -29.608753 -10.366768
-39.089281 -28.840924 -12.379646
-39.154926 -29.925133 -12.244179
-38.96467 -29.777189 -11.318811
-38.403185 -23.619624 -13.781347
-38.327893 -24.488273 -12.807707
-38.182632 -21.626455 -14.797743
-37.794949 -20.60979 -14.833436
-38.488001 -22.585794 -14.824496
-38.182632 -21.626455 -14.797743
-38.566752 -21.675418 -15.754343
-38.787304 -23.668588 -14.737947
-38.403185 -23.619624 -13.781347
-38.488001 -22.585794 -14.824496
-38.170468 -15.599636 -19.429417
-38.061892 -16.601512 -18.488758
-38.667513 -15.511654 -20.41677
-38.170468 -15.599636 -19.429417
-38.300238 -14.585226 -20.405535
-39.791481 -31.899733 -21.25366
-39.989969 -30.663611 -21.3891
-39.791481 -31.899733 -21.25366
-39.784206 -32.14267 -22.062407
-40.994549 -24.065097 -28.848052
-40.89483 -25.379421 -28.744219
-40.870672 -25.212972 -27.942062
-40.994549 -24.065097 -28.848052
-41.060955 -22.763028 -28.883969
-41.257904 -18.96708 -30.643222
-41.186507 -20.312632 -29.768683
-41.267078 -17.759949 -30.653221
-41.303489 -17.729175 -31.481122
-41.257904 -18.96708 -30.643222
-40.54533 -5.932428 -32.491552
-40.490986 -6.494393 -31.65952
-40.326153 -5.441261 -31.988185
-40.748947 -6.553073 -32.984795
-40.54533 -5.932428 -32.491552
-40.893236 -7.144392 -33.425511
-40.854452 -7.576879 -32.603604
-40.748947 -6.553073 -32.984795
-41.022688 -7.82782 -33.859278
-40.893236 -7.144392 -33.425511
3 0 30 28
3 1 33 31
3 1 35 33
3 2 105 106
3 3 38 36
3 107 41 108
3 109 108 39
3 107 108 109
3 111 110 41
3 112 44 113
3 114 46 115
3 116 115 44
3 114 115 116
3 3 49 47
3 3 36 49
3 5 53 51
3 5 54 53
3 5 56 54
3 4 59 57
3 4 61 59
3 118 117 62
3 6 65 63
3 8 66 29
3 8 119 121
3 121 120 66
3 119 120 121
3 11 122 124
3 122 68 123
3 122 123 124
3 12 69 32
3 12 70 69
3 12 72 70
3 14 73 34
3 14 74 73
3 7 125 127
3 127 126 64
3 125 126 127
3 15 128 130
3 128 75 129
3 128 129 130
3 15 76 75
3 16 79 77
3 18 80 37
3 18 81 80
3 9 82 67
3 19 83 40
3 19 131 133
3 133 132 83
3 131 132 133
3 19 134 135
3 20 136 137
3 20 138 139
3 20 140 142
3 140 84 141
3 140 141 142
3 21 85 42
3 21 86 85
3 22 87 43
3 22 88 87
3 22 89 88
3 23 90 45
3 23 91 90
3 10 143 145
3 143 92 144
3 143 144 145
3 24 93 48
3 24 94 93
3 24 95 94
3 16 96 50
3 16 77 96
3 148 147 52
3 146 147 148
3 26 149 151
3 151 150 55
3 149 150 151
3 26 152 154
3 152 98 153
3 152 153 154
3 13 99 71
3 27 100 58
3 27 101 100
3 27 102 101
3 25 103 60
3 25 97 103
3 17 104 78
3 28 29 6
3 30 29 28
3 30 8 29
3 31 32 11
3 33 32 31
3 33 12 32
3 33 34 12
3 35 34 33
3 35 14 34
3 156 155 7
3 157 15 158
3 36 37 16
3 38 37 36
3 38 18 37
3 39 40 9
3 41 40 39
3 41 19 40
3 41 159 161
3 161 160 19
3 159 160 161
3 163 162 41
3 164 20 165
3 166 42 167
3 168 167 20
3 166 167 168
3 169 42 170
3 171 21 172
3 173 172 42
3 171 172 173
3 174 43 175
3 44 176 178
3 176 43 177
3 176 177 178
3 44 22 43
3 44 45 22
3 46 45 44
3 46 23 45
3 47 48 10
3 49 48 47
3 49 24 48
3 49 50 24
3 36 50 49
3 36 16 50
3 51 179 181
3 179 52 180
3 179 180 181
3 53 52 51
3 53 182 184
3 184 183 52
3 182 183 184
3 53 185 186
3 54 187 189
3 189 188 53
3 187 188 189
3 54 190 191
3 54 192 194
3 192 55 193
3 192 193 194
3 56 55 54
3 56 26 55
3 57 58 13
3 59 58 57
3 59 27 58
3 59 60 27
3 61 60 59
3 61 25 60
3 62 195 197
3 197 196 17
3 195 196 197
3 199 198 62
3 63 64 2
3 65 64 63
3 65 7 64
3 29 65 6
3 66 65 29
3 66 7 65
3 66 200 202
3 202 201 7
3 200 201 202
3 204 203 66
3 205 67 206
3 207 206 3
3 205 206 207
3 208 67 209
3 210 9 211
3 212 211 67
3 210 211 212
3 213 9 214
3 215 39 216
3 217 216 9
3 215 216 217
3 218 39 219
3 221 220 39
3 222 10 223
3 224 10 225
3 226 47 227
3 228 227 10
3 226 227 228
3 229 47 230
3 231 3 232
3 233 232 47
3 231 232 233
3 68 234 235
3 68 236 237
3 32 68 11
3 69 68 32
3 69 238 240
3 240 239 68
3 238 239 240
3 69 241 243
3 241 51 242
3 241 242 243
3 70 51 69
3 70 5 51
3 70 71 5
3 72 71 70
3 72 13 71
3 34 72 12
3 73 72 34
3 73 13 72
3 73 57 13
3 74 57 73
3 74 4 57
3 64 244 246
3 246 245 2
3 244 245 246
3 248 247 64
3 250 249 7
3 251 11 252
3 75 253 254
3 75 255 257
3 255 11 256
3 255 256 257
3 75 31 11
3 76 31 75
3 76 1 31
3 77 78 0
3 79 78 77
3 79 17 78
3 37 79 16
3 80 79 37
3 80 17 79
3 80 62 17
3 81 62 80
3 81 258 260
3 260 259 62
3 258 259 260
3 67 38 3
3 82 38 67
3 82 18 38
3 40 82 9
3 83 82 40
3 83 18 82
3 83 81 18
3 261 81 262
3 263 262 83
3 261 262 263
3 265 264 81
3 267 266 19
3 84 268 269
3 84 270 272
3 270 15 271
3 270 271 272
3 42 84 20
3 85 84 42
3 85 15 84
3 85 76 15
3 86 76 85
3 86 1 76
3 273 21 274
3 43 275 276
3 87 277 279
3 279 278 43
3 277 278 279
3 87 280 282
3 280 21 281
3 280 281 282
3 87 86 21
3 88 86 87
3 88 1 86
3 88 35 1
3 89 35 88
3 89 14 35
3 45 89 22
3 90 89 45
3 90 14 89
3 90 74 14
3 91 74 90
3 91 4 74
3 283 46 284
3 92 285 287
3 285 46 286
3 285 286 287
3 92 23 46
3 48 92 10
3 93 92 48
3 93 23 92
3 93 91 23
3 94 91 93
3 94 4 91
3 94 61 4
3 95 61 94
3 95 25 61
3 50 95 24
3 96 95 50
3 96 25 95
3 96 97 25
3 77 97 96
3 77 0 97
3 52 288 289
3 291 290 52
3 55 292 294
3 292 293 294
3 296 295 55
3 98 297 298
3 98 299 301
3 299 2 300
3 299 300 301
3 71 56 5
3 99 56 71
3 99 26 56
3 58 99 13
3 100 99 58
3 100 26 99
3 100 98 26
3 101 98 100
3 101 2 98
3 101 63 2
3 102 63 101
3 102 6 63
3 60 102 27
3 103 102 60
3 103 6 102
3 103 28 6
3 97 28 103
3 97 0 28
3 78 30 0
3 104 30 78
3 104 8 30
3 302 104 303
3 304 303 17
3 302 303 304
3 305 104 306
3 307 8 308
3 309 308 104
3 307 308 309
3 311 310 8
