ply
format ascii 1.0
element vertex 878
property float x
property float y
property float z
element face 1092
property list uchar int vertex_index
end_header
-20.491482 -70.482437 12.900571
-25.16872 -56.253098 26.075338
-29.928886 -54.889572 6.584838
-12.766424 -65.522766 29.761169
-0.431999 -71.285469 30.577602
-27.498064 -47.885513 30.29166
-30.96493 -50.367477 23.137405
-21.196325 -52.287697 32.073872
-18.85857 -77.224236 3.743697
-34.725185 -46.925648 3.07241
-32.633911 -50.569016 -3.970092
-3.286701 -61.529068 37.423981
-16.963409 -69.923317 22.262154
-10.727991 -74.966682 22.277903
-15.18876 -77.921196 13.478166
-22.52566 -63.81876 20.230902
-25.109913 -62.664818 10.161342
-27.884697 -56.969296 17.029402
-11.319777 -48.851643 37.986652
-8.931402 -58.904259 35.456985
-14.825514 -55.848644 33.822205
-19.077785 -61.389969 28.371344
2.525414 -81.119591 21.738148
-6.386343 -68.748871 30.077887
-3.991147 -78.475258 21.557755
-19.684063 -73.804207 8.439642
-21.908773 -69.651794 7.750471
-36.642517 -42.768669 1.646453
-35.757294 -44.558929 -1.951735
-18.903002 -70.663979 17.689867
-16.038322 -74.007416 18.181486
-17.983549 -74.311752 13.506019
-17.042963 -78.0084 8.755372
-23.833128 -60.194496 23.247107
-25.264084 -60.346825 18.771765
-26.754641 -56.944942 21.809433
-32.145267 -50.410793 18.576178
-14.033059 -47.435257 36.708378
-12.924501 -52.296238 35.933598
-15.939365 -50.7673 34.92934
-23.308544 -54.558453 29.548283
-20.126123 -56.923706 30.483059
-22.235357 -58.789383 27.332396
-20.962685 -63.065495 24.604332
-27.523331 -58.704865 8.215512
-26.363373 -61.219803 4.762958
-28.778736 -57.003357 2.803868
-34.211594 -47.832447 -9.159435
0.934862 -67.769302 35.197144
2.422131 -72.458885 31.362099
4.052433 -77.445435 26.986565
1.02781 -76.24366 26.267
-10.71738 -62.393917 32.723217
-7.653258 -63.786068 33.252838
-9.594017 -67.21064 30.020718
-9.736647 -79.295883 17.786531
-7.41392 -76.677887 22.109728
-6.23589 -81.360313 17.294996
-26.513111 -52.16663 28.325857
-28.17454 -53.396786 24.637085
-29.420673 -49.510765 27.131546
-18.98872 -49.074036 34.110909
-22.141607 -47.530899 33.289116
-24.334984 -50.248634 31.220142
-32.400726 -50.975357 4.77749
-31.214645 -52.906216 1.115092
-33.5858 -48.834354 -0.366076
-34.907173 -46.225273 -5.611024
-1.921071 -66.432114 34.297108
-14.971702 -68.144516 26.214178
-11.645136 -70.294083 26.473492
-13.953752 -72.548782 22.551977
-12.946303 -76.937111 18.122652
-12.020826 -81.035355 13.240738
-14.099521 -81.784157 8.573771
-16.18434 -81.516594 3.589798
-21.458265 -67.181198 16.689079
-22.731258 -66.723831 11.761
-23.879786 -63.641113 15.283465
-26.406662 -59.870857 13.627431
-28.839619 -56.289505 11.958484
-29.509544 -53.756241 20.24544
-30.495937 -53.494175 15.241746
-31.42565 -52.492249 10.147347
-7.373525 -55.312492 38.261101
-10.100848 -53.862808 37.012077
-11.831042 -57.370716 34.664604
-13.911208 -60.684147 32.128437
-17.890717 -54.048119 33.031868
-16.974771 -58.923752 31.387299
-15.850789 -63.71133 29.183262
-17.948921 -65.823151 25.600191
-19.899439 -66.785309 21.580553
-24.116106 -65.417435 6.377168
-30.166882 -55.013664 -2.323419
-6.068408 -60.361588 36.291599
-4.751873 -65.075455 33.74334
-3.40556 -69.967209 30.256083
-8.504879 -72.072227 26.316921
-5.237975 -73.543556 26.158257
-2.075928 -74.902924 26.071005
-0.723555 -79.910118 21.380772
-20.102331 -72.079643 10.752866
-20.743073 -71.870506 8.194816
-21.182184 -70.203293 10.324494
-37.00853 -41.595707 -0.728382
-5.489491 -54.239494 40.50069
-19.767414 -70.650368 15.251424
-18.479481 -72.497597 15.546447
-19.331064 -72.378777 13.139159
-18.882761 -74.074371 11.067651
-24.450005 -58.264996 24.783661
-25.237003 -58.590904 22.687149
-25.962767 -56.752083 24.051783
-15.449823 -46.550545 36.204365
-14.982301 -49.027317 35.820751
-16.434183 -48.188068 35.372478
-24.241158 -55.521526 27.958008
-22.725975 -56.73867 28.520321
-23.686008 -57.488506 26.804346
-23.081999 -59.535831 25.455631
-28.75481 -56.730389 7.434288
-28.084639 -57.98156 5.545244
-29.270298 -56.033943 4.64732
0.23215 -69.493523 32.850807
1.685925 -70.070389 33.378048
1.003218 -71.83416 30.96384
1.727626 -74.396378 28.721764
0.250813 -73.710663 28.499346
-11.646009 -64.155281 31.235577
-10.160877 -64.987274 31.365606
-11.192869 -66.518967 29.828888
-9.169416 -81.525337 15.28721
-7.978746 -80.417358 17.497725
-7.359486 -82.764709 14.900207
-27.03356 -49.989273 29.407742
-28.005367 -50.767578 27.816273
-28.591608 -48.704792 28.79409
-26.411894 -46.923309 31.492367
-24.835108 -47.893116 31.958988
-25.871124 -49.148529 30.79014
-25.509115 -51.27594 29.864683
-18.439632 -78.941025 1.26365
-19.648674 -76.840691 1.024181
-33.662094 -48.85733 3.904994
-32.951828 -50.003155 2.131161
-34.130997 -47.915207 1.243762
-35.282276 -45.485676 -3.798261
-1.929514 -62.220634 37.988316
-1.283086 -64.598 36.441463
-2.640275 -64.001007 35.918751
-15.927352 -69.186211 24.31303
-14.39698 -70.350517 24.529099
-15.575109 -71.140953 22.522932
-15.627682 -75.938263 15.944575
-14.537652 -75.463501 18.286001
-14.135033 -77.391647 16.039101
-12.569847 -78.881439 15.816228
-13.721192 -79.384262 13.528535
-13.109643 -81.426582 11.065588
-14.620116 -79.85746 11.147508
-17.95426 -77.699455 6.309853
-16.592569 -79.762817 6.311508
-17.549658 -79.396095 3.813675
-17.112434 -81.10865 1.246755
-22.033566 -65.472351 18.413639
-22.730072 -65.337967 16.003857
-23.335644 -63.693043 17.748606
-26.571136 -58.643784 18.024744
-25.870579 -60.154411 16.338676
-27.131756 -58.422729 15.415279
-27.599237 -58.124233 12.695867
-28.314064 -56.789154 14.530756
-29.586998 -51.942795 23.874224
-28.873425 -53.701134 22.493481
-30.222784 -52.156998 21.75004
-31.36215 -51.945942 16.982344
-31.790623 -51.68499 14.395267
-30.950613 -53.086422 12.6458
-32.6726 -50.590252 9.067323
-9.433372 -52.018085 38.19743
-10.736893 -51.304855 37.550655
-13.900056 -54.030087 34.897373
-12.461774 -54.866734 35.318794
-13.346302 -56.518372 34.270966
-12.785734 -59.180256 33.409298
-14.314528 -58.346203 33.05088
-20.125067 -50.628571 33.180809
-18.445591 -51.570343 33.615547
-19.489279 -53.124996 32.602512
-19.6595 -59.106167 29.499714
-18.536673 -57.80389 31.037886
-18.136675 -60.184608 29.939917
-16.514666 -61.275574 30.349148
-17.44417 -62.547665 28.86231
-16.962069 -64.755112 27.540197
-18.542589 -63.581551 27.079575
-21.75536 -63.588314 22.501944
-20.362671 -65.021835 23.148285
-21.263882 -65.341911 20.835489
-20.704163 -67.101982 19.229513
-23.952093 -64.636238 10.970345
-23.398926 -66.159477 9.166524
-24.540545 -64.104744 8.316545
-31.856071 -51.86573 -1.359267
-30.604237 -54.043766 -0.606759
-31.45109 -52.710964 -3.227919
3.38546 -79.44799 24.194218
3.463546 -83.600159 19.460459
-8.224401 -57.047626 36.796413
-6.81746 -57.826206 37.312096
-7.499338 -59.601803 35.880905
-7.133131 -66.330872 31.687731
-6.166759 -64.592056 33.393055
-5.616109 -66.861443 31.929186
-4.175564 -67.617767 31.970106
-4.948628 -69.363945 30.124567
-11.19171 -72.672401 24.432011
-10.133987 -71.288925 26.330309
-9.661907 -73.500916 24.40712
-5.678368 -77.680054 21.745237
-6.320217 -75.286232 24.016361
-4.636004 -75.870644 24.054274
-3.655777 -74.368179 25.947613
-3.054983 -76.771194 23.737928
-1.360098 -77.419159 23.777672
-2.282485 -79.036575 21.647644
-27.931589 -45.814461 31.02319
-29.018129 -46.645287 29.724621
-26.746969 -44.800026 32.143242
-19.263605 -75.504135 6.1908
-20.433777 -73.403183 5.845697
-35.716518 -44.942123 2.490939
-35.181744 -45.899467 0.642654
-36.18988 -43.711334 -0.05016
-4.039645 -59.190372 38.556229
-17.982233 -70.384621 20.064583
-16.491257 -72.005241 20.271893
-17.492882 -72.436333 17.936544
-17.133175 -74.236816 15.774312
-16.5748 -76.180504 13.642829
-16.201828 -77.944153 11.229148
-17.580059 -76.067558 11.182757
-18.434731 -75.921783 8.597299
-23.157217 -62.023731 21.823572
-23.917021 -62.123257 19.402962
-24.577847 -60.3974 21.05311
-26.015266 -58.617622 20.405827
-27.377655 -57.020191 19.463083
-31.652178 -50.392567 20.923384
-12.635789 -48.052132 37.356018
-12.059283 -50.585541 36.946938
-13.457898 -49.834114 36.376038
-14.430919 -51.629784 35.380306
-15.400354 -53.448757 34.383572
-22.351713 -53.551758 30.825649
-20.622156 -54.558571 31.392689
-21.692345 -55.779167 30.035757
-21.216099 -58.013325 28.9611
-20.655094 -60.201393 27.816689
-20.065685 -62.312122 26.599506
-21.571001 -60.981438 26.039742
-22.36912 -61.591652 24.10778
-26.247675 -60.789207 9.16764
-25.626581 -62.179394 7.458509
-26.817041 -60.119099 6.497345
-27.558023 -59.102226 3.788991
-28.213959 -58.211967 1.277575
-33.371758 -49.319794 -6.541561
-32.209038 -51.548763 -5.876814
2.354689 -68.448639 35.755836
3.136237 -70.863419 33.763569
3.920545 -73.167732 31.825499
4.774911 -75.506737 29.839647
3.266203 -74.911644 29.286079
2.610163 -76.883018 26.579126
1.88555 -78.65966 24.125069
-9.733917 -60.669403 34.131191
-8.267233 -61.299637 34.500771
-9.203177 -63.262222 32.890102
-8.57452 -65.675545 31.565491
-7.973225 -68.108208 29.981533
-10.168532 -77.238441 20.022713
-9.114195 -75.872253 22.185541
-8.439875 -78.184906 19.921852
-6.783738 -79.041985 19.755249
-5.097005 -80.115982 19.282516
-3.282255 -80.918282 19.152884
-4.374097 -82.40979 16.948366
-25.848656 -54.178249 27.318857
-26.739391 -54.741879 25.419029
-27.415785 -52.770145 26.675549
-28.824266 -51.546597 25.892311
-30.297014 -49.952011 25.234255
-30.001656 -47.347626 28.213957
-20.555708 -48.316616 33.694904
-21.615477 -49.846867 32.780281
-23.2271 -48.916718 32.366318
-22.739782 -51.215931 31.699047
-23.853319 -52.34296 30.465805
-24.852428 -53.401371 29.010521
-31.164848 -52.95285 5.779592
-30.515694 -54.010674 3.892932
-31.756371 -51.995079 2.891877
-32.43903 -50.836559 0.267221
-33.083813 -49.703667 -2.252878
-34.710976 -46.719021 -1.280718
-34.176121 -47.690128 -2.989429
-33.830898 -48.349693 -5.027009
-34.572868 -46.947254 -7.397263
0.124632 -65.366852 36.923115
-0.54111 -67.005966 34.757637
-1.224255 -68.902596 32.44083
-13.79548 -67.040131 28.015516
-12.313542 -67.893112 28.194624
-13.320715 -69.359253 26.311665
-12.786846 -71.564713 24.535429
-12.279982 -73.68187 22.656324
-14.973601 -73.364159 20.522171
-13.475327 -74.757904 20.394152
-11.902051 -75.972343 20.296206
-11.374712 -78.129875 18.026047
-10.896426 -80.257706 15.578413
-10.263785 -82.515793 12.941604
-15.600857 -79.932877 8.789106
-15.165697 -81.816093 5.967841
-20.998333 -68.803864 14.747504
-21.601284 -68.672592 12.313879
-22.153877 -66.999069 14.160406
-23.354422 -65.102303 13.377618
-24.535555 -63.170605 12.725153
-24.567989 -62.007313 16.98765
-25.131296 -61.758873 14.522038
-25.753756 -61.251286 11.78094
-26.945223 -59.392864 10.839304
-28.128504 -57.54401 10.193412
-29.3421 -55.698845 9.30774
-27.394007 -55.235683 23.393894
-28.168886 -55.282738 21.141991
-28.638203 -55.447994 18.756069
-30.830784 -52.083961 19.585985
-30.065969 -53.642914 17.866129
-29.207956 -55.217426 16.161709
-29.726957 -54.813553 13.559959
-30.097689 -54.461044 10.92654
-30.649267 -53.720127 8.373816
-31.945644 -51.727551 7.47494
-33.11657 -49.853909 6.504859
-34.274841 -47.872784 5.695596
-35.307674 -45.938255 4.935729
-6.775369 -53.57526 39.663754
-8.085009 -52.703808 38.962456
-8.725378 -54.59153 37.619583
-9.516199 -56.469402 36.280544
-11.540985 -53.232735 36.384037
-10.989176 -55.703587 35.775471
-10.375362 -58.038193 35.108257
-11.248683 -59.842155 33.829269
-12.243814 -61.672867 32.417538
-13.249756 -63.14064 31.07889
-17.415871 -49.982533 34.50964
-16.82782 -52.448673 34.054981
-16.415596 -54.962234 33.398216
-18.974909 -55.524914 31.884245
-17.496641 -56.421791 32.283669
-15.913081 -57.434673 32.657425
-15.442316 -59.939644 31.717793
-14.874017 -62.18961 30.776848
-14.334961 -64.634422 29.501068
-15.417838 -65.998817 27.744415
-16.513659 -67.019897 25.917078
-17.46365 -67.948463 23.917458
-19.490694 -64.45887 25.144949
-18.916811 -66.480522 23.648117
-18.504299 -68.378616 21.90797
-19.442459 -68.696434 19.652126
-20.247036 -68.886238 17.221035
-22.284153 -68.191727 9.838132
-23.035223 -67.478271 7.139532
-25.232008 -63.333782 5.455015
-29.974047 -54.983692 2.001979
-29.380152 -56.168785 0.275497
-6.035155 -56.164131 38.85857
-5.412854 -58.546814 37.897911
-4.638093 -60.928101 36.862614
-6.811429 -62.11808 34.748039
-5.422227 -62.760532 35.083344
-3.939171 -63.379372 35.530163
-3.406176 -65.818741 33.895504
-2.639589 -68.219299 32.23457
-1.851084 -70.821693 30.220415
-10.613407 -68.851868 28.261885
-9.002326 -69.678246 28.269226
-7.417346 -70.35936 28.304815
-7.950288 -74.4189 24.251728
-6.849127 -72.811592 26.268206
-5.860899 -71.142303 28.189568
-4.203575 -71.850159 28.169161
-2.711999 -72.474968 28.201368
-1.129136 -73.199806 28.249325
-0.538789 -75.678215 26.004622
0.273352 -78.089409 23.847916
0.973312 -80.58622 21.467165
-1.560601 -81.691887 19.029902
0.122389 -82.331467 19.08873
1.816904 -83.139961 19.041109
-5.827518 -52.978932 40.902069
-5.175277 -53.469143 41.323646
-16.698056 -46.981678 35.537468
-15.942003 -47.369307 35.788421
-16.205876 -46.162917 35.953411
-7.936577 -83.318805 13.729226
-8.264451 -82.145023 15.093708
-8.841542 -82.699119 13.922728
-6.969322 -83.937241 13.595841
-7.936577 -83.318805 13.729226
-2.608108 -61.874851 37.706148
-2.347622 -61.007984 38.605638
-3.026216 -60.662201 38.323471
-32.446537 -50.716535 13.984236
-32.213211 -50.924282 15.273181
-32.03655 -51.407997 13.108686
-32.446537 -50.716535 13.984236
-11.028335 -50.078249 37.768653
-10.397604 -50.333073 38.153762
-10.689046 -49.106466 38.371761
3.376277 -81.392746 21.966788
3.8063 -80.556946 23.194823
2.955437 -80.283791 22.966183
2.99448 -82.359875 20.599303
3.845343 -82.63303 20.827944
3.376277 -81.392746 21.966788
-28.619514 -45.226311 30.786259
-28.070474 -44.846596 31.343986
-27.478164 -44.339379 31.904012
-27.0042 -43.749001 32.360022
-28.070474 -44.846596 31.343986
-27.339279 -45.307243 31.583216
-27.478164 -44.339379 31.904012
-21.744165 -70.387916 6.673236
-21.161314 -71.497273 6.895408
-21.325923 -70.76115 7.972644
-22.291439 -69.311523 6.342068
-21.744165 -70.387916 6.673236
-36.840662 -41.98719 -1.653013
-37.216172 -40.884104 -2.018788
-4.384305 -57.996696 39.074814
-3.720985 -58.367851 39.446549
-33.660826 -48.945896 -8.762549
-33.240908 -49.68957 -7.453612
-33.791676 -48.576121 -7.850498
1.644775 -68.10897 35.47649
1.949095 -67.295177 36.619024
1.239181 -66.955509 36.339678
-30.146769 -46.372475 28.717121
-29.509892 -46.996457 28.969289
-29.655006 -46.021305 29.472453
-21.348658 -47.923758 33.49201
-20.773913 -47.173647 33.907613
-21.566862 -46.780788 33.704719
-0.245063 -64.134867 37.758821
0.431428 -64.534267 38.056574
-11.707342 -82.100018 11.935777
-10.828821 -82.840237 11.78621
-11.142305 -81.775574 13.091171
-13.268313 -82.635822 8.535101
-12.773374 -82.457035 9.781009
-13.604582 -81.605369 9.819679
-13.828393 -82.733616 7.253905
-13.268313 -82.635822 8.535101
-15.37755 -82.583493 3.538877
-14.868229 -82.733242 4.727899
-15.675019 -81.666343 4.778819
-15.882417 -82.470081 2.26693
-15.37755 -82.583493 3.538877
-16.845637 -82.008758 -0.058038
-17.553733 -80.868465 0.026152
-33.478358 -49.274962 7.455684
-32.894585 -50.222081 7.786091
-33.256372 -49.643133 8.736916
-34.057493 -48.284399 7.051052
-33.695706 -48.863347 6.100227
-33.478358 -49.274962 7.455684
-35.62286 -45.358894 5.804331
-35.128648 -46.339645 6.266676
-35.80252 -44.87524 4.505702
-35.62286 -45.358894 5.804331
-8.429725 -51.438116 39.238333
-7.776147 -51.851523 39.655417
-18.202295 -49.528284 34.310274
-17.649021 -48.751251 34.722577
-18.435446 -48.297003 34.523211
-23.938581 -66.079983 5.373966
-23.39814 -67.110401 5.755148
-23.575664 -66.447853 6.75835
-29.56771 -56.10176 -1.892144
-29.174345 -56.679321 -0.592686
-29.773517 -55.591224 -1.023961
-31.585871 -52.706308 -5.391878
-32.035696 -52.039898 -6.728042
4.834614 -77.702877 27.309286
5.195853 -76.733529 28.735827
4.413672 -76.476086 28.413106
-2.036466 -82.535839 17.851868
-2.421428 -81.305084 19.091393
-2.897293 -82.149036 17.913359
0.49602 -83.575279 17.857078
-0.349597 -83.196705 17.879748
1.343278 -83.979526 17.833267
0.969647 -82.735714 19.06492
0.49602 -83.575279 17.857078
2.266633 -84.359924 17.887191
1.343278 -83.979526 17.833267
-37.18396 -41.139578 0.176562
-36.825524 -42.182188 0.459035
-37.000953 -41.726059 1.36398
-37.329239 -40.50938 -1.105541
-37.18396 -41.139578 0.176562
-37.216172 -40.884104 -2.018788
-37.329239 -40.50938 -1.105541
-4.790094 -54.67511 40.937282
-5.175277 -53.469143 41.323646
-5.109228 -55.521257 40.047044
-4.790094 -54.67511 40.937282
-34.079541 -48.250574 -10.037733
-34.647674 -47.004919 -10.38398
-6.413723 -83.267742 14.81679
-5.851925 -82.565544 16.014184
-6.797688 -82.062511 16.097601
-6.413723 -83.267742 14.81679
-6.969322 -83.937241 13.595841
-22.391079 -46.370056 33.509442
-21.566862 -46.780788 33.704719
-25.623501 -47.408213 31.725678
-25.032574 -46.802193 32.258585
-25.820967 -46.317289 32.025275
-18.900116 -78.643505 -0.127373
-18.217332 -79.784653 0.0346
-19.504638 -77.593338 -0.247108
-18.900116 -78.643505 -0.127373
-19.044153 -77.890858 1.143915
-20.126551 -76.365914 -0.191774
-19.504638 -77.593338 -0.247108
-35.793085 -44.347437 -4.126594
-35.519785 -45.022302 -2.874998
-36.030594 -43.884063 -3.203331
-35.59741 -44.776696 -5.042811
-35.793085 -44.347437 -4.126594
-35.409858 -45.146494 -5.949192
-35.094724 -45.855474 -4.704643
-35.59741 -44.776696 -5.042811
-35.271143 -45.459557 -6.885504
-35.409858 -45.146494 -5.949192
-1.677586 -61.37281 38.955215
-2.347622 -61.007984 38.605638
-1.272136 -62.561758 38.291422
-1.677586 -61.37281 38.955215
-1.6063 -63.409317 37.214889
-0.948922 -63.750441 37.517995
-1.272136 -62.561758 38.291422
-18.217332 -79.784653 0.0346
-17.553733 -80.868465 0.026152
-17.776033 -80.024837 1.255202
-31.998974 -51.054758 16.566719
-31.753708 -51.178368 17.779261
-32.390533 -50.287183 17.363636
-31.576386 -51.815466 15.688806
-31.998974 -51.054758 16.566719
-32.213211 -50.924282 15.273181
-31.616546 -52.108713 12.233953
-31.370618 -52.385706 13.520533
-32.03655 -51.407997 13.108686
-31.854064 -51.811627 10.984726
-31.188132 -52.789335 11.396573
-31.616546 -52.108713 12.233953
-32.477539 -50.860628 10.444714
-32.049125 -51.541251 9.607335
-31.854064 -51.811627 10.984726
-33.067961 -49.94733 10.036558
-32.477539 -50.860628 10.444714
-33.256372 -49.643133 8.736916
-33.067961 -49.94733 10.036558
-9.745844 -50.689687 38.47715
-9.103907 -51.095254 38.85582
-10.085133 -51.66147 37.874043
-9.745844 -50.689687 38.47715
-10.397604 -50.333073 38.153762
-26.172897 -61.798416 3.774863
-26.714165 -60.770428 3.408233
4.174705 -79.663563 24.508543
4.508192 -78.662285 25.904716
3.718946 -78.446713 25.590391
4.174705 -79.663563 24.508543
3.8063 -80.556946 23.194823
4.32116 -83.856018 19.711396
3.845343 -82.63303 20.827944
3.987242 -84.867165 18.301313
4.32116 -83.856018 19.711396
-29.162783 -45.641724 30.136975
-28.474859 -46.229874 30.373905
-28.619514 -45.226311 30.786259
-29.655006 -46.021305 29.472453
-29.162783 -45.641724 30.136975
-26.236592 -44.200098 32.566405
-27.0042 -43.749001 32.360022
-25.988504 -45.255648 32.350712
-26.236592 -44.200098 32.566405
-26.579431 -45.861668 31.817805
-25.820967 -46.317289 32.025275
-25.988504 -45.255648 32.350712
-19.64848 -75.310577 4.855861
-19.445963 -76.170628 3.632309
-19.061087 -76.364186 4.967249
-20.233567 -74.260101 4.683309
-19.64848 -75.310577 4.855861
-19.848691 -74.453659 6.018249
-20.800772 -73.139412 4.578006
-20.233567 -74.260101 4.683309
-21.006667 -72.263611 5.720849
-20.588425 -72.636844 7.020257
-21.161314 -71.497273 6.895408
-20.800772 -73.139412 4.578006
-21.006667 -72.263611 5.720849
-36.431337 -43.045004 -1.313902
-36.599205 -42.65352 -0.389271
-36.840662 -41.98719 -1.653013
-36.215044 -43.468801 -2.264689
-35.973587 -44.135131 -1.000948
-36.431337 -43.045004 -1.313902
-36.030594 -43.884063 -3.203331
-36.215044 -43.468801 -2.264689
-3.402688 -59.492853 38.889595
-3.720985 -58.367851 39.446549
-3.663173 -60.35972 37.990105
-3.026216 -60.662201 38.323471
-3.402688 -59.492853 38.889595
-31.963859 -49.562002 21.653328
-31.308554 -50.380022 22.030394
-31.620235 -49.549458 22.760339
-32.287971 -49.540275 20.525429
-31.963859 -49.562002 21.653328
-32.534515 -49.549388 19.351826
-31.898722 -50.40168 19.749781
-32.287971 -49.540275 20.525429
-32.79924 -49.452566 18.245202
-32.534515 -49.549388 19.351826
-32.390533 -50.287183 17.363636
-32.79924 -49.452566 18.245202
-27.31149 -59.71164 2.92125
-26.714165 -60.770428 3.408233
-26.960698 -60.161015 4.275975
-27.639458 -59.26651 1.665541
-27.31149 -59.71164 2.92125
-27.885991 -58.657097 2.533283
-28.009377 -58.778852 0.361498
-27.639458 -59.26651 1.665541
-32.659548 -50.804054 -7.121239
-32.790398 -50.434279 -6.209188
-33.240908 -49.68957 -7.453612
-32.035696 -52.039898 -6.728042
-32.659548 -50.804054 -7.121239
-33.660826 -48.945896 -8.762549
-34.079541 -48.250574 -10.037733
2.678116 -67.664177 36.96702
1.949095 -67.295177 36.619024
3.049626 -68.778771 36.07027
2.678116 -67.664177 36.96702
3.440399 -69.98616 35.074137
3.049626 -68.778771 36.07027
2.745463 -69.656029 34.759703
3.867962 -71.192914 34.076021
3.440399 -69.98616 35.074137
4.260116 -72.34507 33.106987
3.867962 -71.192914 34.076021
3.528391 -72.015575 32.794534
4.703685 -73.532871 32.114862
4.260116 -72.34507 33.106987
4.347728 -74.337234 30.832573
5.130868 -74.702373 31.121935
4.703685 -73.532871 32.114862
-3.443214 -82.89479 16.8111
-2.897293 -82.149036 17.913359
-3.828176 -81.664036 18.050625
-4.921029 -83.090283 15.84087
-5.304994 -81.885052 17.121681
-5.851925 -82.565544 16.014184
-4.001781 -83.576802 15.723345
-4.921029 -83.090283 15.84087
-3.443214 -82.89479 16.8111
-4.001781 -83.576802 15.723345
-30.654376 -46.613095 27.933523
-30.146769 -46.372475 28.717121
-30.397286 -47.660757 27.398411
-30.654376 -46.613095 27.933523
-30.106795 -48.742327 26.857205
-29.711165 -48.429195 27.672752
-30.397286 -47.660757 27.398411
-30.544965 -48.96295 25.90856
-29.858843 -49.731388 26.182901
-30.106795 -48.742327 26.857205
-30.977652 -49.145181 24.900428
-30.544965 -48.96295 25.90856
-31.311611 -49.352914 23.852003
-30.630972 -50.159744 24.18583
-30.977652 -49.145181 24.900428
-31.620235 -49.549458 22.760339
-31.311611 -49.352914 23.852003
-19.218822 -47.967821 34.299459
-18.435446 -48.297003 34.523211
-20.002316 -47.589112 34.091457
-20.773913 -47.173647 33.907613
-19.772214 -48.695326 33.902907
-19.218822 -47.967821 34.299459
-20.002316 -47.589112 34.091457
-22.946337 -47.068813 33.101015
-22.391079 -46.370056 33.509442
-24.293087 -47.249922 32.435951
-25.032574 -46.802193 32.258585
-23.489083 -47.761723 32.639616
-24.293087 -47.249922 32.435951
-24.031104 -48.404917 32.162653
-22.684354 -48.223809 32.827717
-22.946337 -47.068813 33.101015
-23.489083 -47.761723 32.639616
-19.841015 -75.978856 2.272551
-19.253622 -77.032464 2.383939
-19.445963 -76.170628 3.632309
-20.273564 -75.61298 0.964767
-19.841015 -75.978856 2.272551
-20.126551 -76.365914 -0.191774
-20.273564 -75.61298 0.964767
-35.10399 -45.820547 -7.778624
-34.74002 -46.586264 -6.504143
-35.271143 -45.459557 -6.885504
-34.912241 -46.278259 -8.560455
-35.10399 -45.820547 -7.778624
-34.731604 -46.720855 -9.441541
-34.392231 -47.389851 -8.278349
-34.912241 -46.278259 -8.560455
-34.647674 -47.004919 -10.38398
-34.731604 -46.720855 -9.441541
0.834067 -65.754284 37.202663
0.431428 -64.534267 38.056574
0.529747 -66.568077 36.06013
1.239181 -66.955509 36.339678
0.834067 -65.754284 37.202663
-0.579227 -64.982426 36.682289
-0.245063 -64.134867 37.758821
-0.948922 -63.750441 37.517995
-9.388727 -83.194347 12.749924
-8.841542 -82.699119 13.922728
-9.716601 -82.020565 14.114407
-9.936418 -83.624234 11.586531
-9.388727 -83.194347 12.749924
-9.936418 -83.624234 11.586531
-10.828821 -82.840237 11.78621
-12.25175 -82.295631 10.848202
-11.707342 -82.100018 11.935777
-12.565234 -81.230968 12.153163
-12.25175 -82.295631 10.848202
-12.773374 -82.457035 9.781009
-14.361481 -82.749584 5.95094
-13.828393 -82.733616 7.253905
-14.632609 -81.800125 7.270806
-14.361481 -82.749584 5.95094
-14.868229 -82.733242 4.727899
-16.346464 -82.266109 1.095409
-15.882417 -82.470081 2.26693
-16.648387 -81.312622 2.418277
-16.346464 -82.266109 1.095409
-16.845637 -82.008758 -0.058038
-34.612232 -47.30691 6.64661
-34.057493 -48.284399 7.051052
-34.791258 -46.905519 5.315663
-34.612232 -47.30691 6.64661
-35.128648 -46.339645 6.266676
-36.006943 -44.377174 3.283307
-35.512096 -45.440189 3.713334
-35.80252 -44.87524 4.505702
-36.469942 -43.290447 2.861064
-36.179518 -43.855396 2.068696
-36.006943 -44.377174 3.283307
-36.864719 -42.265958 2.549872
-36.469942 -43.290447 2.861064
-37.000953 -41.726059 1.36398
-36.864719 -42.265958 2.549872
-7.121327 -52.287249 40.006065
-6.470457 -52.646815 40.483601
-7.430189 -53.139534 39.313105
-7.121327 -52.287249 40.006065
-7.776147 -51.851523 39.655417
-8.75919 -52.360946 38.579943
-8.429725 -51.438116 39.238333
-9.103907 -51.095254 38.85582
-17.158178 -47.854019 35.153996
-16.698056 -46.981678 35.537468
-16.925027 -49.085301 34.941059
-17.158178 -47.854019 35.153996
-17.649021 -48.751251 34.722577
-10.987638 -47.864861 38.59478
-10.689046 -49.106466 38.371761
-11.648699 -47.578467 38.164799
-10.987638 -47.864861 38.59478
-12.306705 -47.178711 37.849481
-11.977783 -48.451887 37.671335
-11.648699 -47.578467 38.164799
-12.972673 -46.801213 37.501869
-12.306705 -47.178711 37.849481
-13.671308 -46.492775 37.178049
-13.334424 -47.743695 37.032198
-12.972673 -46.801213 37.501869
-14.336458 -46.141047 36.8718
-13.671308 -46.492775 37.178049
-15.04484 -45.69869 36.619793
-14.741441 -46.992901 36.456372
-14.336458 -46.141047 36.8718
-15.746364 -45.363146 36.338101
-15.04484 -45.69869 36.619793
-16.205876 -46.162917 35.953411
-15.746364 -45.363146 36.338101
-22.854664 -68.224761 6.036599
-22.291439 -69.311523 6.342068
-22.471998 -68.565033 7.445002
-22.854664 -68.224761 6.036599
-23.39814 -67.110401 5.755148
-25.607215 -62.855406 4.120891
-25.797691 -62.276792 5.108987
-26.172897 -61.798416 3.774863
-25.051999 -63.93725 4.514107
-25.607215 -62.855406 4.120891
-24.494048 -64.979076 4.975184
-24.674057 -64.375608 5.916092
-25.051999 -63.93725 4.514107
-23.938581 -66.079983 5.373966
-24.494048 -64.979076 4.975184
-28.591248 -57.700912 -0.091647
-28.797055 -57.190376 0.776536
-29.174345 -56.679321 -0.592686
-28.009377 -58.778852 0.361498
-28.591248 -57.700912 -0.091647
-31.206897 -53.287408 -4.067431
-31.830064 -52.129863 -4.552366
-31.585871 -52.706308 -5.391878
-30.564793 -54.438758 -3.615181
-30.808986 -53.862314 -2.775669
-31.206897 -53.287408 -4.067431
-29.985057 -55.523083 -3.210433
-30.564793 -54.438758 -3.615181
-29.56771 -56.10176 -1.892144
-29.985057 -55.523083 -3.210433
5.517768 -75.862083 30.074479
5.130868 -74.702373 31.121935
5.517768 -75.862083 30.074479
5.195853 -76.733529 28.735827
4.834614 -77.702877 27.309286
4.508192 -78.662285 25.904716
-6.13243 -53.907377 40.082222
-5.827518 -52.978932 40.902069
-6.470457 -52.646815 40.483601
-5.38206 -56.483576 39.225984
-5.109228 -55.521257 40.047044
-5.762323 -55.201813 39.67963
-5.070909 -57.674917 38.745655
-5.38206 -56.483576 39.225984
-5.724004 -57.355472 38.378241
-4.726249 -58.868593 38.22707
-4.384305 -57.996696 39.074814
-5.070909 -57.674917 38.745655
-1.191091 -82.876915 17.850333
-2.036466 -82.535839 17.851868
-0.719106 -82.011677 19.059316
-1.191091 -82.876915 17.850333
-0.349597 -83.196705 17.879748
3.089954 -84.590023 18.096866
2.640225 -83.37006 19.250784
2.266633 -84.359924 17.887191
3.987242 -84.867165 18.301313
3.089954 -84.590023 18.096866
3 0 104 102
3 406 106 407
3 0 109 107
3 0 102 109
3 1 113 111
3 408 116 409
3 410 409 114
3 408 409 410
3 1 119 117
3 1 111 119
3 2 123 121
3 4 126 124
3 4 128 126
3 3 131 129
3 411 134 412
3 413 412 132
3 411 412 413
3 415 414 134
3 5 137 135
3 5 140 138
3 5 135 140
3 8 143 142
3 9 146 144
3 11 416 418
3 416 148 417
3 416 417 418
3 11 150 148
3 12 153 151
3 14 156 154
3 14 158 156
3 14 160 158
3 8 163 161
3 8 142 163
3 15 167 165
3 17 170 168
3 17 172 170
3 6 175 173
3 419 177 420
3 422 421 177
3 18 423 425
3 423 181 424
3 423 424 425
3 20 184 182
3 20 186 184
3 7 189 187
3 21 192 190
3 21 194 192
3 21 196 194
3 15 199 197
3 15 165 199
3 16 203 201
3 10 206 204
3 22 426 428
3 428 427 207
3 426 427 428
3 22 429 431
3 429 208 430
3 429 430 431
3 19 211 209
3 23 214 212
3 23 216 214
3 13 219 217
3 24 222 220
3 24 224 222
3 24 226 224
3 433 432 227
3 434 229 435
3 436 227 437
3 438 437 229
3 436 437 438
3 25 231 230
3 26 439 441
3 441 440 103
3 439 440 441
3 26 442 443
3 27 234 232
3 445 444 105
3 446 235 447
3 29 238 236
3 31 239 108
3 31 240 239
3 31 242 240
3 25 243 110
3 25 230 243
3 33 246 244
3 35 247 112
3 35 248 247
3 37 252 250
3 39 253 115
3 39 254 253
3 40 257 255
3 42 258 118
3 42 259 258
3 42 261 259
3 33 262 120
3 33 244 262
3 44 265 263
3 46 266 122
3 46 267 266
3 47 448 450
3 450 449 268
3 448 449 450
3 48 451 453
3 451 270 452
3 451 452 453
3 49 271 125
3 49 272 271
3 49 274 272
3 51 275 127
3 51 276 275
3 52 279 277
3 54 280 130
3 54 281 280
3 55 284 282
3 57 285 133
3 57 286 285
3 57 288 286
3 58 291 289
3 60 292 136
3 60 293 292
3 454 294 455
3 456 455 228
3 454 455 456
3 62 457 459
3 457 295 458
3 457 458 459
3 62 296 295
3 63 297 139
3 63 298 297
3 63 299 298
3 58 300 141
3 58 289 300
3 64 303 301
3 66 304 145
3 66 305 304
3 28 306 233
3 67 307 147
3 67 308 307
3 67 309 308
3 460 310 461
3 68 311 149
3 68 312 311
3 69 315 313
3 71 316 152
3 71 317 316
3 30 318 237
3 72 319 155
3 72 320 319
3 72 321 320
3 73 322 157
3 73 323 322
3 73 462 464
3 464 463 323
3 462 463 464
3 74 465 467
3 467 466 159
3 465 466 467
3 74 468 469
3 32 324 241
3 75 325 162
3 75 470 472
3 472 471 325
3 470 471 472
3 75 473 474
3 476 475 164
3 76 328 326
3 78 329 166
3 78 330 329
3 34 331 245
3 79 332 169
3 79 333 332
3 79 334 333
3 80 335 171
3 80 336 335
3 59 337 290
3 81 338 174
3 81 339 338
3 36 340 249
3 82 341 176
3 82 342 341
3 82 343 342
3 83 344 178
3 83 345 344
3 83 346 345
3 477 347 478
3 479 478 179
3 477 478 479
3 480 348 481
3 482 481 347
3 480 481 482
3 483 349 484
3 486 485 349
3 487 351 488
3 85 352 180
3 85 353 352
3 38 354 251
3 86 355 183
3 86 356 355
3 86 357 356
3 87 358 185
3 87 359 358
3 61 489 491
3 489 360 490
3 489 490 491
3 88 361 188
3 88 362 361
3 41 363 256
3 89 364 191
3 89 365 364
3 89 366 365
3 90 367 193
3 90 368 367
3 90 369 368
3 91 370 195
3 91 371 370
3 43 372 260
3 92 373 198
3 92 374 373
3 92 375 374
3 76 376 200
3 76 326 376
3 77 377 327
3 93 378 202
3 93 492 494
3 494 493 378
3 492 493 494
3 45 379 264
3 65 380 302
3 94 381 205
3 94 495 497
3 497 496 381
3 495 496 497
3 499 498 269
3 50 500 502
3 502 501 273
3 500 501 502
3 84 382 350
3 95 383 210
3 95 384 383
3 53 385 278
3 96 386 213
3 96 387 386
3 96 388 387
3 97 389 215
3 97 390 389
3 70 391 314
3 98 392 218
3 98 393 392
3 56 394 283
3 99 395 221
3 99 396 395
3 99 397 396
3 100 398 223
3 100 399 398
3 100 400 399
3 101 401 225
3 101 402 401
3 503 403 504
3 505 504 287
3 503 504 505
3 506 404 507
3 508 405 509
3 510 509 404
3 508 509 510
3 512 511 405
3 102 103 25
3 104 103 102
3 104 26 103
3 513 105 514
3 515 514 27
3 513 514 515
3 516 105 517
3 519 518 105
3 106 520 521
3 106 522 523
3 107 108 29
3 109 108 107
3 109 31 108
3 109 110 31
3 102 110 109
3 102 25 110
3 111 112 33
3 113 112 111
3 113 35 112
3 114 115 37
3 116 115 114
3 116 39 115
3 117 118 40
3 119 118 117
3 119 42 118
3 119 120 42
3 111 120 119
3 111 33 120
3 121 122 44
3 123 122 121
3 123 46 122
3 525 524 47
3 124 125 48
3 126 125 124
3 126 49 125
3 126 127 49
3 128 127 126
3 128 51 127
3 129 130 52
3 131 130 129
3 131 54 130
3 132 133 55
3 134 133 132
3 134 57 133
3 134 526 528
3 528 527 57
3 526 527 528
3 530 529 134
3 135 136 58
3 137 136 135
3 137 60 136
3 531 62 532
3 138 533 535
3 533 139 534
3 533 534 535
3 140 139 138
3 140 63 139
3 140 141 63
3 135 141 140
3 135 58 141
3 142 536 537
3 143 538 540
3 540 539 142
3 538 539 540
3 143 541 542
3 144 145 64
3 146 145 144
3 146 66 145
3 543 147 544
3 545 544 28
3 543 544 545
3 546 147 547
3 548 67 549
3 550 549 147
3 548 549 550
3 552 551 67
3 148 553 554
3 148 555 556
3 148 557 559
3 557 149 558
3 557 558 559
3 150 149 148
3 150 68 149
3 151 152 69
3 153 152 151
3 153 71 152
3 154 155 30
3 156 155 154
3 156 72 155
3 156 157 72
3 158 157 156
3 158 73 157
3 158 159 73
3 160 159 158
3 160 74 159
3 161 162 32
3 163 162 161
3 163 75 162
3 163 164 75
3 142 164 163
3 142 560 562
3 562 561 164
3 560 561 562
3 165 166 76
3 167 166 165
3 167 78 166
3 168 169 34
3 170 169 168
3 170 79 169
3 170 171 79
3 172 171 170
3 172 80 171
3 173 174 59
3 175 174 173
3 175 81 174
3 563 176 564
3 565 564 36
3 563 564 565
3 177 566 568
3 566 176 567
3 566 567 568
3 177 82 176
3 177 178 82
3 569 178 570
3 571 570 177
3 569 570 571
3 572 83 573
3 574 573 178
3 572 573 574
3 575 179 576
3 577 576 83
3 575 576 577
3 578 179 579
3 581 580 179
3 582 180 583
3 181 584 586
3 584 180 585
3 584 585 586
3 181 85 180
3 182 183 38
3 184 183 182
3 184 86 183
3 184 185 86
3 186 185 184
3 186 87 185
3 187 188 61
3 189 188 187
3 189 88 188
3 190 191 41
3 192 191 190
3 192 89 191
3 192 193 89
3 194 193 192
3 194 90 193
3 194 195 90
3 196 195 194
3 196 91 195
3 197 198 43
3 199 198 197
3 199 92 198
3 199 200 92
3 165 200 199
3 165 76 200
3 201 202 77
3 203 202 201
3 203 93 202
3 588 587 45
3 204 205 65
3 206 205 204
3 206 94 205
3 207 589 591
3 591 590 50
3 589 590 591
3 593 592 207
3 208 594 595
3 208 596 597
3 209 210 84
3 211 210 209
3 211 95 210
3 212 213 53
3 214 213 212
3 214 96 213
3 214 215 96
3 216 215 214
3 216 97 215
3 217 218 70
3 219 218 217
3 219 98 218
3 220 221 56
3 222 221 220
3 222 99 221
3 222 223 99
3 224 223 222
3 224 100 223
3 224 225 100
3 226 225 224
3 226 101 225
3 227 228 5
3 598 228 599
3 600 599 227
3 598 599 600
3 602 601 228
3 229 603 604
3 229 605 606
3 229 607 609
3 607 138 608
3 607 608 609
3 227 138 229
3 227 5 138
3 230 610 612
3 612 611 8
3 610 611 612
3 231 613 615
3 615 614 230
3 613 614 615
3 231 616 617
3 103 231 25
3 618 231 619
3 620 619 103
3 618 619 620
3 622 621 231
3 232 233 9
3 234 233 232
3 234 28 233
3 105 234 27
3 623 234 624
3 625 624 105
3 623 624 625
3 626 28 627
3 628 627 234
3 626 627 628
3 630 629 28
3 235 631 632
3 235 633 635
3 633 11 634
3 633 634 635
3 236 237 12
3 238 237 236
3 238 30 237
3 108 238 29
3 239 238 108
3 239 30 238
3 239 154 30
3 240 154 239
3 240 14 154
3 240 241 14
3 242 241 240
3 242 32 241
3 110 242 31
3 243 242 110
3 243 32 242
3 243 161 32
3 230 161 243
3 230 8 161
3 244 245 15
3 246 245 244
3 246 34 245
3 112 246 33
3 247 246 112
3 247 34 246
3 247 168 34
3 248 168 247
3 248 17 168
3 636 249 637
3 638 637 6
3 636 637 638
3 639 249 640
3 641 36 642
3 643 642 249
3 641 642 643
3 644 36 645
3 647 646 36
3 250 251 18
3 252 251 250
3 252 38 251
3 115 252 37
3 253 252 115
3 253 38 252
3 253 182 38
3 254 182 253
3 254 20 182
3 255 256 7
3 257 256 255
3 257 41 256
3 118 257 40
3 258 257 118
3 258 41 257
3 258 190 41
3 259 190 258
3 259 21 190
3 259 260 21
3 261 260 259
3 261 43 260
3 120 261 42
3 262 261 120
3 262 43 261
3 262 197 43
3 244 197 262
3 244 15 197
3 263 264 16
3 265 264 263
3 265 45 264
3 122 265 44
3 266 265 122
3 266 45 265
3 266 648 650
3 650 649 45
3 648 649 650
3 267 651 653
3 653 652 266
3 651 652 653
3 267 654 655
3 268 269 10
3 656 269 657
3 658 657 268
3 656 657 658
3 660 659 269
3 662 661 47
3 270 663 664
3 270 665 666
3 125 270 48
3 271 270 125
3 271 667 669
3 669 668 270
3 667 668 669
3 271 670 671
3 272 672 674
3 674 673 271
3 672 673 674
3 272 675 676
3 272 677 679
3 677 273 678
3 677 678 679
3 274 273 272
3 274 50 273
3 127 274 49
3 275 274 127
3 275 50 274
3 275 207 50
3 276 207 275
3 276 22 207
3 277 278 19
3 279 278 277
3 279 53 278
3 130 279 52
3 280 279 130
3 280 53 279
3 280 212 53
3 281 212 280
3 281 23 212
3 282 283 13
3 284 283 282
3 284 56 283
3 133 284 55
3 285 284 133
3 285 56 284
3 285 220 56
3 286 220 285
3 286 24 220
3 286 287 24
3 288 287 286
3 288 680 682
3 682 681 287
3 680 681 682
3 683 288 684
3 685 684 57
3 683 684 685
3 686 288 687
3 689 688 288
3 289 290 1
3 291 290 289
3 291 59 290
3 136 291 58
3 292 291 136
3 292 59 291
3 292 173 59
3 293 173 292
3 293 6 173
3 228 137 5
3 294 137 228
3 294 60 137
3 690 294 691
3 692 294 693
3 694 60 695
3 696 695 294
3 694 695 696
3 697 293 698
3 699 698 60
3 697 698 699
3 700 293 701
3 702 6 703
3 704 703 293
3 702 703 704
3 706 705 6
3 707 61 708
3 295 709 710
3 295 711 713
3 711 61 712
3 711 712 713
3 295 187 61
3 296 187 295
3 296 7 187
3 714 62 715
3 139 716 717
3 297 718 720
3 720 719 139
3 718 719 720
3 297 721 723
3 721 62 722
3 721 722 723
3 297 296 62
3 298 296 297
3 298 7 296
3 298 255 7
3 299 255 298
3 299 40 255
3 141 299 63
3 300 299 141
3 300 40 299
3 300 117 40
3 289 117 300
3 289 1 117
3 724 143 725
3 726 725 8
3 724 725 726
3 727 143 728
3 730 729 143
3 301 302 2
3 303 302 301
3 303 65 302
3 145 303 64
3 304 303 145
3 304 65 303
3 304 204 65
3 305 204 304
3 305 10 204
3 233 146 9
3 306 146 233
3 306 66 146
3 147 306 28
3 307 306 147
3 307 66 306
3 307 305 66
3 308 305 307
3 308 10 305
3 308 268 10
3 309 268 308
3 309 47 268
3 731 309 732
3 733 732 67
3 731 732 733
3 734 309 735
3 736 47 737
3 738 737 309
3 736 737 738
3 740 739 47
3 310 741 742
3 310 743 745
3 743 48 744
3 743 744 745
3 149 746 748
3 746 310 747
3 746 747 748
3 311 310 149
3 311 48 310
3 311 124 48
3 312 124 311
3 312 4 124
3 313 314 3
3 315 314 313
3 315 70 314
3 152 315 69
3 316 315 152
3 316 70 315
3 316 217 70
3 317 217 316
3 317 13 217
3 237 153 12
3 318 153 237
3 318 71 153
3 155 318 30
3 319 318 155
3 319 71 318
3 319 317 71
3 320 317 319
3 320 13 317
3 320 282 13
3 321 282 320
3 321 55 282
3 157 321 72
3 322 321 157
3 322 55 321
3 322 132 55
3 323 132 322
3 323 749 751
3 751 750 132
3 749 750 751
3 323 752 753
3 755 754 323
3 159 756 758
3 758 757 73
3 756 757 758
3 760 759 159
3 241 160 14
3 324 160 241
3 324 74 160
3 162 324 32
3 325 324 162
3 325 74 324
3 325 761 763
3 763 762 74
3 761 762 763
3 765 764 325
3 164 766 768
3 768 767 75
3 766 767 768
3 770 769 164
3 326 327 0
3 328 327 326
3 328 77 327
3 166 328 76
3 329 328 166
3 329 77 328
3 329 201 77
3 330 201 329
3 330 16 201
3 245 167 15
3 331 167 245
3 331 78 167
3 169 331 34
3 332 331 169
3 332 78 331
3 332 330 78
3 333 330 332
3 333 16 330
3 333 263 16
3 334 263 333
3 334 44 263
3 171 334 79
3 335 334 171
3 335 44 334
3 335 121 44
3 336 121 335
3 336 2 121
3 290 113 1
3 337 113 290
3 337 35 113
3 174 337 59
3 338 337 174
3 338 35 337
3 338 248 35
3 339 248 338
3 339 17 248
3 249 175 6
3 340 175 249
3 340 81 175
3 176 340 36
3 341 340 176
3 341 81 340
3 341 339 81
3 342 339 341
3 342 17 339
3 342 172 17
3 343 172 342
3 343 80 172
3 178 343 82
3 344 343 178
3 344 80 343
3 344 336 80
3 345 336 344
3 345 2 336
3 345 301 2
3 346 301 345
3 346 64 301
3 179 346 83
3 347 346 179
3 347 64 346
3 347 144 64
3 348 144 347
3 348 9 144
3 771 348 772
3 349 773 775
3 773 348 774
3 773 774 775
3 349 9 348
3 349 232 9
3 776 232 777
3 778 777 349
3 776 777 778
3 779 27 780
3 781 780 232
3 779 780 781
3 782 27 783
3 785 784 27
3 786 350 787
3 351 788 790
3 788 350 789
3 788 789 790
3 351 84 350
3 180 791 793
3 791 351 792
3 791 792 793
3 352 351 180
3 352 84 351
3 352 209 84
3 353 209 352
3 353 19 209
3 251 181 18
3 354 181 251
3 354 85 181
3 183 354 38
3 355 354 183
3 355 85 354
3 355 353 85
3 356 353 355
3 356 19 353
3 356 277 19
3 357 277 356
3 357 52 277
3 185 357 86
3 358 357 185
3 358 52 357
3 358 129 52
3 359 129 358
3 359 3 129
3 794 116 795
3 360 796 798
3 796 116 797
3 796 797 798
3 360 39 116
3 188 360 61
3 361 360 188
3 361 39 360
3 361 254 39
3 362 254 361
3 362 20 254
3 256 189 7
3 363 189 256
3 363 88 189
3 191 363 41
3 364 363 191
3 364 88 363
3 364 362 88
3 365 362 364
3 365 20 362
3 365 186 20
3 366 186 365
3 366 87 186
3 193 366 89
3 367 366 193
3 367 87 366
3 367 359 87
3 368 359 367
3 368 3 359
3 368 313 3
3 369 313 368
3 369 69 313
3 195 369 90
3 370 369 195
3 370 69 369
3 370 151 69
3 371 151 370
3 371 12 151
3 260 196 21
3 372 196 260
3 372 91 196
3 198 372 43
3 373 372 198
3 373 91 372
3 373 371 91
3 374 371 373
3 374 12 371
3 374 236 12
3 375 236 374
3 375 29 236
3 200 375 92
3 376 375 200
3 376 29 375
3 376 107 29
3 326 107 376
3 326 0 107
3 799 18 800
3 801 18 802
3 803 250 804
3 805 804 18
3 803 804 805
3 806 250 807
3 808 37 809
3 810 809 250
3 808 809 810
3 811 37 812
3 813 114 814
3 815 814 37
3 813 814 815
3 816 114 817
3 819 818 114
3 327 104 0
3 377 104 327
3 377 26 104
3 202 377 77
3 378 377 202
3 378 26 377
3 378 820 822
3 822 821 26
3 820 821 822
3 824 823 378
3 264 203 16
3 379 203 264
3 379 93 203
3 825 379 826
3 827 826 45
3 825 826 827
3 828 379 829
3 830 93 831
3 832 831 379
3 830 831 832
3 834 833 93
3 302 123 2
3 380 123 302
3 380 46 123
3 205 380 65
3 381 380 205
3 381 46 380
3 381 267 46
3 835 267 836
3 837 836 381
3 835 836 837
3 839 838 267
3 269 206 10
3 840 206 841
3 842 841 269
3 840 841 842
3 843 94 844
3 845 844 206
3 843 844 845
3 846 94 847
3 849 848 94
3 273 850 851
3 853 852 273
3 855 854 50
3 350 856 858
3 856 106 857
3 856 857 858
3 382 106 350
3 382 859 861
3 861 860 106
3 859 860 861
3 210 382 84
3 383 382 210
3 383 862 864
3 864 863 382
3 862 863 864
3 383 865 867
3 865 235 866
3 865 866 867
3 384 235 383
3 384 11 235
3 278 211 19
3 385 211 278
3 385 95 211
3 213 385 53
3 386 385 213
3 386 95 385
3 386 384 95
3 387 384 386
3 387 11 384
3 387 150 11
3 388 150 387
3 388 68 150
3 215 388 96
3 389 388 215
3 389 68 388
3 389 312 68
3 390 312 389
3 390 4 312
3 314 131 3
3 391 131 314
3 391 54 131
3 218 391 70
3 392 391 218
3 392 54 391
3 392 281 54
3 393 281 392
3 393 23 281
3 283 219 13
3 394 219 283
3 394 98 219
3 221 394 56
3 395 394 221
3 395 98 394
3 395 393 98
3 396 393 395
3 396 23 393
3 396 216 23
3 397 216 396
3 397 97 216
3 223 397 99
3 398 397 223
3 398 97 397
3 398 390 97
3 399 390 398
3 399 4 390
3 399 128 4
3 400 128 399
3 400 51 128
3 225 400 100
3 401 400 225
3 401 51 400
3 401 276 51
3 402 276 401
3 402 22 276
3 287 226 24
3 403 226 287
3 403 101 226
3 868 403 869
3 404 870 872
3 870 403 871
3 870 871 872
3 404 101 403
3 404 402 101
3 405 402 404
3 405 22 402
3 405 208 22
3 873 208 874
3 875 874 405
3 873 874 875
3 877 876 208
