ply
format ascii 1.0
element vertex 349
property float x
property float y
property float z
element face 373
property list uchar int vertex_index
end_header
6.71544 -90.80027 12.810859
20.730097 -88.66684 20.394104
14.020739 -91.408318 16.246325
25.425764 -82.031235 22.771566
15.98154 -83.53714 27.983366
9.24291 -83.251648 24.040882
24.839863 -90.451897 12.027068
10.502793 -91.340057 14.456697
13.335861 -95.291672 10.424591
9.303032 -95.111969 8.619412
5.405323 -94.311111 7.394632
12.569909 -83.671753 25.989107
10.526009 -79.48587 29.998857
23.441442 -85.830673 21.802263
25.001375 -86.432777 17.407383
23.043219 -90.02459 16.193739
17.551046 -90.633789 18.288141
20.335443 -92.861717 14.416763
16.845915 -94.594048 12.416327
21.369745 -84.526756 26.041298
18.285086 -86.530235 24.153614
14.938189 -87.47007 22.107159
11.575616 -87.564949 20.126755
7.893029 -87.004333 18.331787
5.865163 -82.210838 22.710762
4.510939 -86.134171 17.142168
26.354601 -81.97644 18.018692
26.178581 -86.071556 12.771084
8.66953 -91.213882 13.496856
9.893643 -93.225006 11.570768
7.944204 -92.98793 10.72721
7.350469 -94.749016 7.976014
5.909659 -92.497604 10.137292
22.138176 -87.426117 21.125759
23.22953 -87.948669 18.992729
21.958254 -89.487228 18.262781
15.788897 -91.180939 17.20532
17.26502 -92.692955 15.275525
15.469049 -93.161308 14.27794
12.78385 -97.083839 7.517138
14.764626 -97.017143 8.335466
22.788746 -83.359085 26.416742
21.925486 -82.474388 28.64262
17.654964 -83.131836 28.973831
18.871313 -84.427826 27.135191
17.104103 -85.146805 26.024597
16.608959 -87.188568 23.047678
15.498302 -85.456764 25.130835
10.954672 -83.630539 24.881063
12.053413 -85.723427 22.889526
10.341923 -85.557266 21.913515
9.744467 -87.412834 19.097404
8.591988 -85.162704 21.132078
4.963951 -79.879135 24.822868
4.227141 -81.665901 22.195429
5.178773 -84.111877 19.962334
26.57086 -79.612793 20.625048
25.956476 -82.085609 20.365084
24.932783 -88.393845 14.707877
25.661648 -86.31543 15.152015
25.619164 -88.504021 12.21826
25.588608 -90.421188 9.72554
20.037001 -94.765068 11.676256
21.557156 -93.67865 12.380935
12.329015 -91.487717 15.307596
13.714231 -93.370056 13.356758
11.802374 -93.376045 12.429012
11.300409 -95.253326 9.518431
10.86274 -97.154915 6.490369
8.780804 -96.948059 5.652579
6.755521 -96.472122 5.145557
14.875317 -81.745445 30.000572
14.226105 -83.618958 27.073446
13.171846 -81.64296 29.133221
11.444212 -81.663055 27.860085
9.792293 -81.358528 26.926407
24.589737 -83.987709 22.270126
25.24782 -84.256119 19.934
24.337103 -86.171608 19.580456
24.122591 -88.330513 16.831755
23.928291 -90.397781 14.171774
19.142925 -89.808273 19.354237
20.493172 -90.766899 17.453379
18.923754 -91.913239 16.317648
18.655983 -93.871254 13.443774
18.349403 -95.834007 10.504658
15.14784 -95.112762 11.326884
16.585836 -96.535492 9.439753
24.747965 -82.022179 24.863644
23.744249 -83.782669 24.360657
22.436079 -85.32003 23.907949
21.000208 -86.613426 23.226795
20.41423 -83.57946 27.973032
19.890059 -85.63665 25.168894
19.511461 -87.705956 22.293329
17.851374 -88.541901 21.28894
16.3111 -89.257378 20.066072
14.500979 -89.47213 19.143475
13.816111 -85.565269 24.186989
13.257843 -87.60775 21.092009
12.739014 -89.515724 18.208704
11.048181 -89.523201 17.198641
9.132096 -89.286247 16.278299
7.477905 -89.027145 15.524429
8.124981 -80.881027 26.138174
6.51147 -80.396896 25.407501
7.560087 -82.900208 23.159803
6.800982 -84.654953 20.444799
6.220961 -86.650917 17.625475
5.579556 -88.526367 14.932711
4.744067 -90.254463 12.295531
4.098916 -92.019875 9.66488
25.774462 -84.296989 17.706568
26.22933 -84.13488 15.304484
21.736158 -91.56546 15.391705
22.80267 -92.207054 13.281756
23.926449 -92.357704 11.296082
24.884535 -92.426865 9.075903
13.576073 -97.937283 6.472188
12.621524 -98.018619 5.985368
22.080075 -81.486007 29.978918
22.559434 -81.783856 28.966239
16.818252 -83.334488 28.478599
17.078879 -82.337475 29.971312
16.242167 -82.540127 29.47608
3.376277 -81.392746 21.966788
3.8063 -80.556946 23.194823
3.845343 -82.63303 20.827944
3.376277 -81.392746 21.966788
25.69112 -82.058422 21.568325
26.055822 -81.037353 21.597618
25.790467 -81.010166 22.80086
20.696486 -95.193226 10.623488
19.926446 -95.799106 10.120454
4.952725 -95.039524 6.073891
5.627823 -96.12003 4.949353
6.080422 -95.391616 6.270094
14.331163 -80.820171 30.961189
15.199768 -80.801071 31.477892
13.479427 -80.768929 30.527513
14.023582 -81.694203 29.566896
14.331163 -80.820171 30.961189
10.985111 -80.574463 28.929471
11.756542 -80.707923 29.378746
11.29744 -79.619331 30.448132
16.475025 -97.465385 7.968507
15.675231 -96.776318 8.887609
15.56442 -97.706211 7.416363
17.371576 -97.231369 8.348247
16.475025 -97.465385 7.968507
24.372758 -81.843311 25.978777
24.897837 -80.953175 26.126093
23.8709 -82.723557 25.727283
24.246107 -82.902424 24.61215
24.372758 -81.843311 25.978777
19.889741 -82.992218 28.985176
20.617692 -82.599975 29.318804
7.68274 -79.761699 27.163588
8.498398 -79.950432 27.648708
3.793203 -90.000599 12.053892
4.231515 -89.141292 13.353912
3.470627 -90.883305 10.738567
4.421492 -91.137169 10.980206
3.793203 -90.000599 12.053892
26.583486 -80.724475 18.121641
26.691615 -79.542652 19.424819
26.46273 -80.794616 19.32187
26.50496 -81.812859 16.829701
26.583486 -80.724475 18.121641
26.389228 -84.805748 12.862694
26.414602 -83.83741 14.129395
26.203955 -85.103218 14.037784
26.369633 -85.903244 11.567059
26.389228 -84.805748 12.862694
22.800004 -93.185154 11.817138
22.179913 -92.942852 12.831345
22.177247 -93.920952 11.366728
23.361894 -93.260479 10.824302
23.364559 -92.282379 12.288919
22.800004 -93.185154 11.817138
24.855175 -93.458607 7.622535
24.371744 -93.435677 8.694072
25.253067 -92.384705 8.009719
24.855175 -93.458607 7.622535
10.816623 -78.583252 31.445868
11.29744 -79.619331 30.448132
14.566461 -97.903935 6.881352
13.774238 -97.050491 7.926302
13.576073 -97.937283 6.472188
15.56442 -97.706211 7.416363
14.566461 -97.903935 6.881352
22.991064 -82.226204 27.8533
23.393149 -82.511764 26.755326
22.357116 -82.916736 27.529681
22.991064 -82.226204 27.8533
22.559434 -81.783856 28.966239
17.938105 -82.11615 30.457832
17.078879 -82.337475 29.971312
18.510109 -82.768406 29.485575
17.938105 -82.11615 30.457832
18.263139 -83.779831 28.054511
19.118283 -83.416401 28.566255
18.510109 -82.768406 29.485575
4.174705 -79.663563 24.508543
4.508192 -78.662285 25.904716
4.595546 -80.772518 23.509149
4.174705 -79.663563 24.508543
3.8063 -80.556946 23.194823
4.32116 -83.856018 19.711396
4.702957 -82.888889 21.078882
3.845343 -82.63303 20.827944
3.987242 -84.867165 18.301313
4.844856 -85.123024 18.552251
4.32116 -83.856018 19.711396
26.363014 -79.800945 21.727601
26.677574 -78.584801 21.781153
26.263668 -80.849201 20.495066
26.363014 -79.800945 21.727601
26.055822 -81.037353 21.597618
25.892457 -88.34473 11.158625
26.172165 -87.128498 11.435036
25.898873 -87.287789 12.494672
25.877178 -89.303314 9.912264
25.892457 -88.34473 11.158625
25.603886 -89.462604 10.9719
25.893023 -90.328559 8.512953
25.877178 -89.303314 9.912264
21.456563 -94.650017 10.975827
20.797078 -94.221859 12.028595
20.696486 -95.193226 10.623488
22.177247 -93.920952 11.366728
21.456563 -94.650017 10.975827
11.660969 -98.054158 5.471983
12.621524 -98.018619 5.985368
11.823295 -97.119377 7.003754
10.5695 -98.019123 4.997532
11.660969 -98.054158 5.471983
9.528532 -97.915695 4.578637
10.5695 -98.019123 4.997532
9.821772 -97.051487 6.071474
8.443142 -97.742779 4.236794
9.528532 -97.915695 4.578637
7.4305 -97.50481 3.983283
8.443142 -97.742779 4.236794
7.768162 -96.710091 5.399068
6.289767 -97.14637 3.828695
7.4305 -97.50481 3.983283
6.289767 -97.14637 3.828695
5.627823 -96.12003 4.949353
15.689056 -81.64428 30.484683
15.199768 -80.801071 31.477892
15.428429 -82.641292 28.991969
16.242167 -82.540127 29.47608
15.689056 -81.64428 30.484683
12.620359 -80.697876 30.015314
13.479427 -80.768929 30.527513
12.308029 -81.653008 28.496653
12.620359 -80.697876 30.015314
11.756542 -80.707923 29.378746
19.082647 -96.333576 9.534655
19.926446 -95.799106 10.120454
19.193202 -95.299537 11.090457
18.25336 -96.880627 8.880699
17.467619 -96.18475 9.972205
17.371576 -97.231369 8.348247
19.082647 -96.333576 9.534655
18.25336 -96.880627 8.880699
25.567695 -80.941353 23.974414
25.790467 -81.010166 22.80086
25.228796 -80.936825 25.020453
24.897837 -80.953175 26.126093
25.086865 -82.026707 23.817605
25.567695 -80.941353 23.974414
25.228796 -80.936825 25.020453
23.266497 -83.570877 25.3887
23.8709 -82.723557 25.727283
23.393149 -82.511764 26.755326
21.37332 -82.047439 29.653599
22.080075 -81.486007 29.978918
21.169858 -83.026924 28.307826
21.37332 -82.047439 29.653599
20.617692 -82.599975 29.318804
19.642772 -84.003643 27.554111
19.889741 -82.992218 28.985176
19.118283 -83.416401 28.566255
9.993742 -78.355709 31.010682
10.816623 -78.583252 31.445868
9.698912 -79.252853 29.579049
9.993742 -78.355709 31.010682
9.332054 -80.189182 28.042824
10.159151 -80.422199 28.462632
9.698912 -79.252853 29.579049
8.958637 -81.119777 26.532291
9.332054 -80.189182 28.042824
8.498398 -79.950432 27.648708
5.290373 -78.919727 26.227438
4.834614 -77.702877 27.309286
4.508192 -78.662285 25.904716
6.064132 -79.178608 26.519754
5.290373 -78.919727 26.227438
5.737711 -80.138015 25.115184
6.875984 -79.519634 26.798252
6.064132 -79.178608 26.519754
7.318226 -80.638961 25.772838
7.68274 -79.761699 27.163588
6.875984 -79.519634 26.798252
3.61365 -85.857029 16.937721
3.987242 -84.867165 18.301313
3.089954 -84.590023 18.096866
4.11495 -87.081146 15.77723
3.61365 -85.857029 16.937721
4.649259 -88.277244 14.672501
5.045248 -87.330269 16.03744
4.11495 -87.081146 15.77723
5.161812 -89.390415 13.614121
4.649259 -88.277244 14.672501
4.231515 -89.141292 13.353912
3.035262 -91.639423 9.525436
3.470627 -90.883305 10.738567
3.662685 -92.785225 8.375666
3.035262 -91.639423 9.525436
2.599031 -92.404774 8.236221
4.315888 -93.930843 7.240541
4.75212 -93.165493 8.529756
3.662685 -92.785225 8.375666
4.952725 -95.039524 6.073891
4.315888 -93.930843 7.240541
26.808391 -78.383682 20.651339
26.677574 -78.584801 21.781153
26.929147 -78.313541 19.45111
26.808391 -78.383682 20.651339
26.691615 -79.542652 19.424819
26.442324 -82.892078 15.472596
26.50496 -81.812859 16.829701
26.291965 -83.05566 16.661588
26.442324 -82.892078 15.472596
26.414602 -83.83741 14.129395
26.369633 -85.903244 11.567059
26.172165 -87.128498 11.435036
23.892701 -93.401096 9.804161
23.361894 -93.260479 10.824302
24.405492 -92.392285 10.185993
23.892701 -93.401096 9.804161
24.371744 -93.435677 8.694072
25.605103 -91.381867 8.334538
25.236572 -91.424026 9.400721
25.253067 -92.384705 8.009719
25.893023 -90.328559 8.512953
25.605103 -91.381867 8.334538
3 0 30 28
3 0 32 30
3 1 35 33
3 2 38 36
3 119 118 39
3 120 42 121
3 4 122 124
3 122 43 123
3 122 123 124
3 4 45 43
3 4 47 45
3 5 50 48
3 5 52 50
3 125 54 126
3 128 127 54
3 3 129 131
3 129 57 130
3 129 130 131
3 6 60 58
3 6 61 60
3 133 132 62
3 7 66 64
3 9 67 29
3 9 68 67
3 9 69 68
3 10 70 31
3 10 134 136
3 136 135 70
3 134 135 136
3 137 71 138
3 139 73 140
3 141 140 71
3 139 140 141
3 12 142 144
3 142 74 143
3 142 143 144
3 12 75 74
3 13 78 76
3 15 79 34
3 15 80 79
3 16 83 81
3 18 84 37
3 18 85 84
3 8 86 65
3 145 87 146
3 147 146 40
3 145 146 147
3 149 148 87
3 150 88 151
3 152 89 153
3 154 153 88
3 152 153 154
3 19 90 41
3 19 91 90
3 155 92 156
3 20 93 44
3 20 94 93
3 20 95 94
3 21 96 46
3 21 97 96
3 11 98 72
3 22 99 49
3 22 100 99
3 22 101 100
3 23 102 51
3 23 103 102
3 157 104 158
3 24 105 53
3 24 106 105
3 24 107 106
3 25 108 55
3 25 109 108
3 159 110 160
3 161 111 162
3 163 162 110
3 161 162 163
3 26 164 166
3 166 165 56
3 164 165 166
3 26 167 168
3 14 112 77
3 27 113 59
3 27 169 171
3 171 170 113
3 169 170 171
3 27 172 173
3 17 114 82
3 174 115 175
3 176 175 63
3 174 175 176
3 177 116 178
3 179 178 115
3 177 178 179
3 180 117 181
3 183 182 117
3 28 29 7
3 30 29 28
3 30 9 29
3 30 31 9
3 32 31 30
3 32 10 31
3 184 12 185
3 33 34 13
3 35 34 33
3 35 15 34
3 36 37 16
3 38 37 36
3 38 18 37
3 39 40 8
3 186 40 187
3 188 187 39
3 186 187 188
3 190 189 40
3 191 41 192
3 42 193 195
3 193 41 194
3 193 194 195
3 42 19 41
3 43 196 197
3 43 198 199
3 43 200 202
3 200 44 201
3 200 201 202
3 45 44 43
3 45 20 44
3 45 46 20
3 47 46 45
3 47 21 46
3 48 49 11
3 50 49 48
3 50 22 49
3 50 51 22
3 52 51 50
3 52 23 51
3 203 53 204
3 54 205 207
3 205 53 206
3 205 206 207
3 54 24 53
3 54 55 24
3 208 55 209
3 210 209 54
3 208 209 210
3 211 25 212
3 213 212 55
3 211 212 213
3 214 56 215
3 57 216 218
3 216 56 217
3 216 217 218
3 57 26 56
3 58 59 14
3 60 59 58
3 60 27 59
3 60 219 221
3 221 220 27
3 219 220 221
3 61 222 224
3 224 223 60
3 222 223 224
3 61 225 226
3 62 63 17
3 227 63 228
3 229 228 62
3 227 228 229
3 231 230 63
3 64 65 2
3 66 65 64
3 66 8 65
3 29 66 7
3 67 66 29
3 67 8 66
3 67 39 8
3 68 39 67
3 68 232 234
3 234 233 39
3 232 233 234
3 68 235 236
3 69 237 239
3 239 238 68
3 237 238 239
3 69 240 241
3 31 69 9
3 70 69 31
3 70 242 244
3 244 243 69
3 242 243 244
3 70 245 246
3 248 247 70
3 71 249 250
3 71 251 253
3 251 4 252
3 251 252 253
3 71 72 4
3 73 72 71
3 73 11 72
3 254 73 255
3 74 256 258
3 256 73 257
3 256 257 258
3 74 11 73
3 74 48 11
3 75 48 74
3 75 5 48
3 76 77 3
3 78 77 76
3 78 14 77
3 34 78 13
3 79 78 34
3 79 14 78
3 79 58 14
3 80 58 79
3 80 6 58
3 81 82 1
3 83 82 81
3 83 17 82
3 37 83 16
3 84 83 37
3 84 17 83
3 84 62 17
3 85 62 84
3 85 259 261
3 261 260 62
3 259 260 261
3 65 38 2
3 86 38 65
3 86 18 38
3 40 86 8
3 87 86 40
3 87 18 86
3 87 85 18
3 262 85 263
3 264 263 87
3 262 263 264
3 266 265 85
3 267 3 268
3 88 269 270
3 88 271 273
3 271 3 272
3 271 272 273
3 88 76 3
3 89 76 88
3 89 13 76
3 41 274 276
3 274 89 275
3 274 275 276
3 90 89 41
3 90 13 89
3 90 33 13
3 91 33 90
3 91 1 33
3 277 42 278
3 92 279 281
3 279 42 280
3 279 280 281
3 92 19 42
3 44 282 284
3 282 92 283
3 282 283 284
3 93 92 44
3 93 19 92
3 93 91 19
3 94 91 93
3 94 1 91
3 94 81 1
3 95 81 94
3 95 16 81
3 46 95 20
3 96 95 46
3 96 16 95
3 96 36 16
3 97 36 96
3 97 2 36
3 72 47 4
3 98 47 72
3 98 21 47
3 49 98 11
3 99 98 49
3 99 21 98
3 99 97 21
3 100 97 99
3 100 2 97
3 100 64 2
3 101 64 100
3 101 7 64
3 51 101 22
3 102 101 51
3 102 7 101
3 102 28 7
3 103 28 102
3 103 0 28
3 285 12 286
3 287 12 288
3 289 75 290
3 291 290 12
3 289 290 291
3 104 292 294
3 292 75 293
3 292 293 294
3 104 5 75
3 53 295 297
3 295 296 297
3 105 298 300
3 300 299 53
3 298 299 300
3 105 301 302
3 105 303 305
3 303 104 304
3 303 304 305
3 106 104 105
3 106 5 104
3 106 52 5
3 107 52 106
3 107 23 52
3 55 107 24
3 108 107 55
3 108 23 107
3 108 103 23
3 109 103 108
3 109 0 103
3 306 25 307
3 306 307 308
3 309 25 310
3 311 109 312
3 313 312 25
3 311 312 313
3 110 314 316
3 314 109 315
3 314 315 316
3 110 0 109
3 110 32 0
3 111 32 110
3 111 10 32
3 317 111 318
3 319 111 320
3 319 320 321
3 322 10 323
3 324 323 111
3 322 323 324
3 326 325 10
3 56 327 328
3 331 330 56
3 329 330 331
3 77 57 3
3 112 57 77
3 112 26 57
3 59 112 14
3 113 112 59
3 113 26 112
3 113 332 334
3 334 333 26
3 332 333 334
3 336 335 113
3 338 337 27
3 82 35 1
3 114 35 82
3 114 15 35
3 63 114 17
3 115 114 63
3 115 15 114
3 115 80 15
3 116 80 115
3 116 6 80
3 339 116 340
3 117 341 343
3 341 116 342
3 341 342 343
3 117 6 116
3 117 61 6
3 344 61 345
3 346 345 117
3 344 345 346
3 348 347 61
