ply
format ascii 1.0
element vertex 677
property float x
property float y
property float z
element face 744
property list uchar int vertex_index
end_header
-26.590322 33.875092 -8.250269
-35.11507 24.750526 11.964375
-28.936014 41.314075 3.626086
-31.960606 28.605862 -5.78777
-31.695795 22.519112 21.35211
-29.365253 31.786678 17.046043
-32.443512 13.727259 25.753315
-37.022942 15.994127 16.656055
-17.242313 30.304398 -11.91748
-21.764774 39.745575 -10.673367
-36.884892 25.444469 3.244007
-33.538582 32.55286 -0.541717
-32.090881 33.221424 7.582677
-26.3965 41.0312 12.811983
-29.55978 39.275188 -4.04625
-25.81707 46.227539 -7.309085
-29.615925 21.017859 25.903303
-28.803818 25.975107 23.832312
-29.86791 12.04845 30.073067
-29.934385 16.585411 27.892733
-32.247177 18.119759 23.528206
-15.704782 32.956635 -13.680019
-26.81629 27.396423 -8.042606
-24.071461 29.712093 -9.037519
-21.580307 32.411098 -10.102205
-24.010702 36.718414 -9.429921
-36.317749 25.182802 7.45475
-34.734608 29.40637 5.168791
-33.587845 29.172998 9.82352
-26.274677 35.669662 19.926529
-27.739038 36.557186 15.110717
-24.901638 40.544479 17.743597
-23.660219 45.265499 15.582672
-36.291824 20.258337 14.322376
-37.573227 20.98493 9.755327
-31.333277 36.978939 1.258767
-31.543783 35.944756 -2.372104
-29.697054 40.595901 -0.44292
-29.222195 31.045712 -7.119814
-33.536545 23.87479 16.637783
-32.325993 28.233009 14.439112
-30.544224 27.418818 19.195669
-27.658155 30.682455 21.98563
-34.802116 14.974083 21.455824
-34.433891 19.35173 18.95965
-27.631802 45.342228 1.517394
-19.103659 27.632502 -10.508416
-19.298061 35.260773 -11.402924
-35.311867 29.162107 1.219398
-33.081791 33.203114 3.183797
-30.449192 37.334061 5.51725
-30.733528 32.828381 12.298356
-29.261091 37.030102 10.125546
-27.73843 41.407642 8.072361
-25.11393 45.642551 10.668223
-30.840555 34.114994 -5.229895
-28.585329 37.027256 -6.569234
-28.062462 44.55201 -2.274116
-27.637907 42.755775 -5.620966
-26.318758 39.945995 -7.93748
-24.083126 43.37822 -9.401538
-29.86351 18.805534 26.818344
-26.773832 30.536877 -8.194415
-25.48037 28.740551 -8.538354
-25.374027 31.980612 -8.740412
-24.113163 33.388447 -9.2644
-25.312166 35.391354 -8.816738
-35.741947 25.039967 9.743575
-35.078304 27.118294 8.510171
-34.46312 26.866724 10.803795
-24.947672 37.45219 21.22443
-25.592556 38.118294 18.817381
-24.296034 39.853184 20.21093
-23.644421 42.347988 19.100946
-35.699425 22.558168 13.199208
-36.996037 20.73284 11.958625
-36.356812 23.015934 10.820831
-36.984333 23.141232 8.501763
-30.199381 39.050781 2.443402
-30.44828 38.906101 0.384937
-29.352171 41.14138 1.548129
-30.985126 26.826368 -6.473747
-29.591263 28.087238 -7.078037
-30.640194 29.800699 -6.460022
-32.634159 23.30471 18.969339
-32.063694 25.567303 17.954548
-31.189913 24.969246 20.227827
-28.266186 28.383053 22.853403
-26.860332 29.990061 24.268051
-26.252117 32.571785 23.194817
-28.166548 9.157743 33.390373
-31.193005 12.934252 27.895952
-33.688591 14.406609 23.548388
-32.068302 20.404274 22.292027
-33.3578 18.71953 21.32015
-33.136375 21.017075 19.974195
-34.036118 21.637335 17.769188
-16.405926 28.075508 -12.31564
-15.055541 34.152512 -14.696052
-15.108044 30.213139 -14.185631
-20.236942 26.432995 -9.893031
-21.586914 36.015961 -10.441039
-20.35763 33.745182 -10.726745
-20.503605 37.280502 -11.057575
-36.112991 27.374401 2.220273
-33.49585 31.226406 6.381044
-33.847496 31.436037 4.247594
-32.668793 33.210686 5.364064
-31.807413 35.228062 4.348314
-31.253508 35.310627 6.534569
-30.83522 30.085495 15.659143
-31.549429 30.576517 13.315189
-29.985176 32.51125 14.663674
-27.043924 38.788425 14.008268
-28.520218 36.768711 12.677235
-27.788425 39.002575 11.542744
-28.389111 39.236202 9.347001
-27.010284 41.366043 10.468181
-26.427624 43.458801 9.355641
-25.659437 43.465202 11.763641
-33.393749 32.131889 -2.246023
-30.556141 37.649563 -3.14258
-31.331951 35.149422 -3.886758
-30.255711 36.72308 -4.647499
-29.748228 35.514904 -5.883706
-29.168932 38.162266 -5.493463
-27.903643 45.115089 -0.379935
-27.19458 45.48658 -4.917053
-26.742472 44.368301 -6.445006
-27.067295 41.475533 -6.927835
-26.042387 43.150867 -7.686616
-25.180475 41.707436 -8.648646
-25.074263 44.887184 -8.455791
-30.608212 22.001535 23.618513
-30.260336 24.369364 22.45195
-29.297951 23.475182 24.809587
-28.483053 11.223175 32.20837
-28.720591 13.467319 31.00136
-29.968801 14.380502 28.904816
-31.191387 15.093775 26.836111
-32.376213 15.825304 24.706522
-31.126913 17.329247 25.727177
-30.978539 19.750612 24.513245
-17.326473 34.137619 -12.40717
-16.431013 31.751501 -12.769647
-16.535057 35.682106 -13.27213
-25.447855 25.272709 -8.244267
-24.159718 26.312708 -8.696445
-22.722803 27.476351 -9.222357
-21.541624 28.88372 -9.740617
-22.850473 31.028906 -9.533398
-22.795238 34.661854 -9.840927
-22.879477 38.247314 -10.019423
-36.674309 25.360483 5.322797
-35.949509 27.306625 4.225369
-35.560482 27.330395 6.249264
-34.324924 29.139473 7.46236
-32.92255 31.17012 8.5424
-27.812487 33.715836 18.450722
-28.493093 34.254356 16.146729
-27.017885 36.12746 17.541477
-26.365219 38.347836 16.477255
-25.637564 40.782318 15.364763
-24.979012 43.151688 14.240162
-24.284817 42.825825 16.691759
-23.009825 44.853249 18.004848
-36.728836 18.124916 15.43076
-37.523308 18.409151 13.191963
-38.10984 18.807249 10.922084
-37.393791 23.29179 6.307987
-32.480419 34.740105 0.254423
-32.524837 34.292244 -1.533969
-31.500658 36.649311 -0.580706
-30.652462 38.283203 -1.453516
-29.800026 39.932575 -2.316808
-28.234915 26.29303 -7.528934
-28.180967 29.277239 -7.650536
-27.944113 32.466057 -7.66715
-34.454178 24.247566 14.223005
-33.79039 26.431965 13.170094
-32.979866 26.0676 15.494598
-31.454489 27.76638 16.934298
-29.968584 29.594343 18.157419
-29.698555 26.776861 21.472754
-29.109266 28.961029 20.616453
-28.507977 31.266634 19.560728
-27.091114 33.088486 20.81131
-25.553356 35.003441 22.362997
-24.182413 36.89603 23.679859
-29.592663 9.924873 31.301065
-36.095161 13.349141 20.328325
-36.015778 15.415788 19.070599
-33.551029 16.580141 22.442768
-34.68103 17.125437 20.208319
-35.770233 17.683729 17.800982
-35.382935 19.939631 16.625891
-34.899094 22.133488 15.521119
-27.660791 43.598831 4.819582
-28.26549 43.284397 2.64076
-27.130276 45.592297 3.660641
-15.696145 29.066067 -13.213643
-18.074059 28.824739 -11.187551
-20.351076 30.062857 -10.297591
-19.197153 31.473398 -10.961879
-18.20051 32.704082 -11.642625
-18.28299 36.457561 -12.13089
-34.425079 30.933638 0.395592
-35.104435 29.319714 3.168843
-34.279182 31.132429 2.214201
-33.365955 32.998016 1.300441
-32.23254 35.056702 2.161696
-31.027308 37.094948 3.324041
-29.676773 39.284874 4.628934
-33.077984 28.619501 12.073294
-32.238815 30.913389 11.013028
-31.469955 32.977577 9.998768
-29.194538 34.657612 13.815763
-29.909897 34.975117 11.400312
-30.684624 35.090366 8.894938
-29.803003 37.366459 7.838513
-29.08663 39.322784 6.875657
-28.322136 41.54987 5.774459
-27.046551 43.659672 7.012438
-24.36463 45.621613 13.018488
-32.663857 30.03064 -4.888502
-32.417427 33.524883 -3.11821
-32.062054 32.588345 -4.453963
-31.409657 31.490988 -5.594223
-30.162405 32.619831 -6.317781
-28.944378 34.189194 -6.896219
-27.699579 35.64563 -7.512733
-28.644497 43.034641 0.534596
-28.863029 42.559067 -1.354752
-28.847145 41.95771 -3.118279
-27.371778 46.293793 -3.309386
-27.988533 43.794579 -4.000572
-28.605776 41.045723 -4.763103
-28.120365 39.946949 -6.130484
-27.433802 38.57399 -7.242309
-26.52244 36.968224 -8.113524
-25.290123 38.417347 -8.758816
-24.140589 40.154114 -9.402534
-22.969656 41.7262 -10.129949
-23.937022 39.620045 21.407246
-24.621853 38.652687 20.71768
-24.262842 38.419548 21.913997
-23.636216 40.822445 20.895645
-23.937022 39.620045 21.407246
-31.472866 27.716115 -6.130759
-31.679167 26.312239 -6.13498
-32.166906 27.201986 -5.791991
-26.460669 29.569834 25.403999
-27.161544 28.789946 24.669713
-26.177017 30.834897 24.942058
-26.460669 29.569834 25.403999
-27.622194 9.709324 33.871427
-27.50528 8.657526 34.385549
-32.447918 12.633207 26.294559
-31.822664 12.236704 27.365878
-31.818258 13.330756 26.824634
-33.078171 12.95963 25.243447
-32.447918 12.633207 26.294559
-33.066052 14.066934 24.650852
-33.70071 13.299305 24.140983
-33.078171 12.95963 25.243447
-16.82412 29.189953 -12.11656
-16.78548 27.327836 -11.901607
-17.203674 28.442281 -11.702527
-14.511302 33.665458 -15.612011
-14.806565 33.012262 -15.02748
-14.760279 34.805708 -15.280582
-20.817836 25.842772 -9.622305
-20.201187 24.742301 -9.685914
-21.209254 40.355514 -11.031608
-20.57867 39.122978 -11.223712
-21.134189 38.513039 -10.865471
-36.498942 26.409435 2.73214
-36.526332 26.375201 1.756817
-36.912283 25.410235 2.268683
-37.547532 15.062232 16.246572
-37.103296 14.894058 17.335708
-37.256762 24.466993 2.757966
-37.257826 24.40341 3.703249
-36.912283 25.410235 2.268683
-37.256762 24.466993 2.757966
-33.466166 32.342375 -1.39387
-33.899006 31.328886 -1.801602
-33.971423 31.539372 -0.94945
-26.279771 45.29792 -6.877045
-26.55089 45.7742 -6.209016
-26.088189 46.703819 -6.641056
-28.127133 14.08285 31.55014
-28.027234 12.974743 32.108852
-29.951593 15.482957 28.398775
-29.340381 15.11743 29.445656
-29.323172 16.219884 28.939614
-17.012992 36.94001 -13.101876
-16.930765 34.909863 -12.83965
-17.4087 36.167766 -12.669397
-26.132072 26.334566 -8.143436
-26.167948 24.744127 -7.997347
-26.852165 25.805983 -7.896516
-22.688009 44.608707 19.21273
-23.327123 43.600618 18.552897
-23.005308 43.356077 19.760779
-22.361368 46.000851 18.606545
-22.688009 44.608707 19.21273
-38.072096 19.991394 9.225395
-38.340402 18.902553 9.808773
-37.841533 19.896089 10.338705
-37.812138 21.012442 8.654609
-38.072096 19.991394 9.225395
-29.001852 25.742576 -7.234783
-28.354435 24.685254 -7.355748
-25.219434 34.609745 23.510043
-25.902736 33.787613 22.778907
-25.568814 33.393917 23.925953
-24.533962 35.556039 24.168474
-24.867885 35.949736 23.021428
-25.219434 34.609745 23.510043
-35.448639 14.161612 20.892074
-35.549314 13.041118 21.41193
-34.902792 13.85359 21.975679
-26.791487 45.753344 4.760114
-27.395533 44.595564 4.240111
-27.056745 44.756611 5.339584
-15.190565 28.306392 -13.943933
-14.933155 29.139517 -14.527021
-18.560093 26.370714 -10.623105
-19.064789 25.849377 -10.293567
-18.588859 28.22862 -10.847983
-18.045293 26.966833 -10.962673
-18.560093 26.370714 -10.623105
-35.329197 29.016544 0.391697
-35.749733 28.154762 0.79496
-34.868473 30.047872 0.807495
-34.885803 29.90231 -0.020206
-35.329197 29.016544 0.391697
-25.471466 45.716051 9.426894
-26.128313 44.624176 8.770603
-25.770777 44.550676 10.011932
-24.866262 46.845289 10.0049
-25.471466 45.716051 9.426894
-32.911271 30.644796 -4.271034
-33.242524 29.457353 -4.482841
-26.992335 47.292576 -3.838514
-27.0096 47.661789 -2.958368
-28.90822 21.877688 26.522871
-29.044866 20.651928 27.017257
-29.300036 17.323951 28.450468
-29.323172 16.219884 28.939614
-29.264599 18.434012 27.913274
-29.898947 17.695473 27.355539
-29.300036 17.323951 28.450468
-29.168658 19.545766 27.474777
-29.264599 18.434012 27.913274
-29.044866 20.651928 27.017257
-29.739718 19.911697 26.360824
-29.168658 19.545766 27.474777
-23.310409 42.069847 20.340653
-23.970228 41.100586 19.655938
-23.636216 40.822445 20.895645
-23.005308 43.356077 19.760779
-23.310409 42.069847 20.340653
-31.146979 25.417964 -6.374625
-31.679167 26.312239 -6.13498
-30.376958 26.009245 -6.70719
-31.146979 25.417964 -6.374625
-30.288195 27.456803 -6.775892
-29.680026 26.63968 -7.009334
-30.376958 26.009245 -6.70719
-27.864472 27.986441 23.962389
-28.535002 27.17908 23.342858
-28.133288 26.782469 24.451844
-27.563259 29.186557 23.560727
-27.864472 27.986441 23.962389
-27.161544 28.789946 24.669713
-25.872909 32.125759 24.405441
-26.556224 31.280923 23.731434
-26.177017 30.834897 24.942058
-25.568814 33.393917 23.925953
-25.872909 32.125759 24.405441
-28.07467 8.110668 33.879221
-27.50528 8.657526 34.385549
-28.788149 8.538697 32.846901
-28.07467 8.110668 33.879221
-31.104787 11.877261 28.492135
-30.442239 11.434361 29.580693
-30.530457 12.491351 28.98451
-31.104787 11.877261 28.492135
-31.822664 12.236704 27.365878
-34.34603 13.569852 23.021961
-33.70071 13.299305 24.140983
-34.245354 14.690346 22.502106
-34.902792 13.85359 21.975679
-34.34603 13.569852 23.021961
-16.435561 26.133337 -12.080149
-16.78548 27.327836 -11.901607
-16.128547 26.681582 -12.500186
-16.435561 26.133337 -12.080149
-14.832816 31.042576 -14.77227
-15.081792 32.182825 -14.440842
-14.806565 33.012262 -15.02748
-14.933155 29.139517 -14.527021
-14.832816 31.042576 -14.77227
-19.631431 25.249623 -9.985874
-20.201187 24.742301 -9.685914
-19.6703 27.032748 -10.200724
-19.064789 25.849377 -10.293567
-19.631431 25.249623 -9.985874
-19.988387 38.012449 -11.413085
-19.385615 37.002584 -11.585759
-19.900833 36.270637 -11.230249
-19.988387 38.012449 -11.413085
-20.57867 39.122978 -11.223712
-36.150295 27.260909 1.295397
-36.526332 26.375201 1.756817
-35.712429 28.268254 1.719836
-35.749733 28.154762 0.79496
-36.150295 27.260909 1.295397
-23.413221 46.505703 14.887925
-23.069784 46.324295 16.130216
-33.800482 30.974789 -2.563893
-33.899006 31.328886 -1.801602
-33.276217 31.69542 -2.949795
-33.800482 30.974789 -2.563893
-27.451308 46.332666 -0.014778
-27.767722 45.228658 0.568729
-27.315388 46.446236 0.933886
-27.593162 46.065942 -0.950246
-27.451308 46.332666 -0.014778
-27.672572 45.784403 -1.897336
-27.983052 44.83355 -1.327025
-27.593162 46.065942 -0.950246
-26.776944 46.333339 -5.44504
-26.903736 46.88897 -4.642347
-26.968526 44.927441 -5.68103
-26.776944 46.333339 -5.44504
-26.55089 45.7742 -6.209016
-32.587191 28.018625 -5.436177
-32.166906 27.201986 -5.791991
-28.749234 23.106349 25.976013
-29.456938 22.246521 25.356445
-28.90822 21.877688 26.522871
-28.578273 24.32894 25.469237
-28.749234 23.106349 25.976013
-28.331207 25.578902 24.9806
-29.050885 24.725144 24.32095
-28.578273 24.32894 25.469237
-28.133288 26.782469 24.451844
-28.331207 25.578902 24.9806
-27.908465 11.852671 32.712356
-27.780447 10.74204 33.280426
-28.601822 12.345247 31.604865
-27.908465 11.852671 32.712356
-28.027234 12.974743 32.108852
-28.716276 14.660839 30.493928
-28.127133 14.08285 31.55014
-29.344696 13.92391 29.953088
-28.716276 14.660839 30.493928
-29.340381 15.11743 29.445656
-16.609106 37.594257 -13.541974
-17.012992 36.94001 -13.101876
-16.157576 36.226647 -13.732206
-16.609106 37.594257 -13.541974
-15.742439 34.863911 -13.936151
-16.119919 34.31937 -13.476074
-16.157576 36.226647 -13.732206
-15.417818 35.461849 -14.444167
-15.380161 33.554574 -14.188035
-15.742439 34.863911 -13.936151
-15.059663 36.100768 -14.998803
-15.417818 35.461849 -14.444167
-14.760279 34.805708 -15.280582
-15.059663 36.100768 -14.998803
-25.478865 23.669089 -8.046542
-26.167948 24.744127 -7.997347
-24.768214 24.120329 -8.283365
-25.478865 23.669089 -8.046542
-24.124146 24.640329 -8.509453
-24.768214 24.120329 -8.283365
-24.803787 25.792708 -8.470356
-23.449308 25.283178 -8.76772
-24.124146 24.640329 -8.509453
-22.73085 25.865 -9.030676
-23.449308 25.283178 -8.76772
-23.44126 26.89453 -8.959401
-22.060766 26.364451 -9.286967
-22.73085 25.865 -9.030676
-22.132213 28.180036 -9.481487
-21.470177 27.068135 -9.546098
-22.060766 26.364451 -9.286967
-22.744587 46.11817 17.341304
-23.069784 46.324295 16.130216
-23.335022 45.059374 16.79376
-22.744587 46.11817 17.341304
-22.361368 46.000851 18.606545
-37.308039 17.165105 14.94886
-37.455092 16.099711 15.561508
-36.875889 17.059521 16.043408
-37.705275 17.307223 13.829462
-37.308039 17.165105 14.94886
-37.126072 18.267034 14.311362
-38.043198 17.473583 12.679508
-37.705275 17.307223 13.829462
-38.336464 17.672632 11.544569
-38.043198 17.473583 12.679508
-37.816574 18.6082 12.057023
-38.562587 17.800328 10.488412
-38.336464 17.672632 11.544569
-38.562587 17.800328 10.488412
-38.340402 18.902553 9.808773
-37.517691 22.090592 8.027827
-37.812138 21.012442 8.654609
-37.27878 22.063081 9.128545
-37.72242 22.165872 6.930939
-37.517691 22.090592 8.027827
-37.189062 23.216511 7.404875
-37.81942 22.311222 5.819446
-37.72242 22.165872 6.930939
-37.512276 23.327071 5.235239
-37.81942 22.311222 5.819446
-37.152535 24.361418 4.742644
-37.512276 23.327071 5.235239
-37.03405 24.326136 5.815392
-36.779601 25.402476 4.283402
-37.257826 24.40341 3.703249
-37.152535 24.361418 4.742644
-25.670918 47.779833 -7.105133
-26.088189 46.703819 -6.641056
-25.366929 47.113208 -7.774144
-25.670918 47.779833 -7.105133
-27.561478 25.254287 -7.63968
-28.354435 24.685254 -7.355748
-27.525602 26.844727 -7.78577
-26.852165 25.805983 -7.896516
-27.561478 25.254287 -7.63968
-28.913089 27.190134 -7.303485
-29.001852 25.742576 -7.234783
-29.680026 26.63968 -7.009334
-23.880212 38.141468 23.141711
-24.262842 38.419548 21.913997
-24.565043 37.17411 22.452145
-28.324801 10.190459 32.799371
-27.622194 9.709324 33.871427
-27.780447 10.74204 33.280426
-29.501207 8.922262 31.802247
-28.788149 8.538697 32.846901
-28.879606 9.541308 32.345719
-30.304616 10.372572 30.194692
-29.730286 10.986662 30.687066
-30.442239 11.434361 29.580693
-30.210197 9.285925 30.771793
-30.304616 10.372572 30.194692
-29.501207 8.922262 31.802247
-30.210197 9.285925 30.771793
-36.134914 12.252536 20.923922
-35.549314 13.041118 21.41193
-36.655766 12.485626 19.867375
-36.134914 12.252536 20.923922
-36.639406 13.571565 19.171844
-36.655766 12.485626 19.867375
-36.599714 14.604888 18.54298
-36.639406 13.571565 19.171844
-36.05547 14.382464 19.699462
-36.51936 15.704957 17.863327
-37.103296 14.894058 17.335708
-36.599714 14.604888 18.54298
-26.533713 46.829786 4.229739
-26.791487 45.753344 4.760114
-26.849637 46.699079 3.079343
-26.533713 46.829786 4.229739
-27.1004 46.574045 2.007719
-27.381039 45.467263 2.589017
-26.849637 46.699079 3.079343
-27.315388 46.446236 0.933886
-27.1004 46.574045 2.007719
-15.773657 27.176861 -12.949188
-16.128547 26.681582 -12.500186
-16.051036 28.570788 -12.764641
-15.484616 27.732856 -13.457939
-15.402095 29.639603 -13.699637
-15.190565 28.306392 -13.943933
-15.773657 27.176861 -12.949188
-15.484616 27.732856 -13.457939
-17.619547 27.702452 -11.337563
-18.045293 26.966833 -10.962673
-17.658186 29.564569 -11.552515
-17.203674 28.442281 -11.702527
-17.619547 27.702452 -11.337563
-20.889283 27.658358 -9.816824
-20.817836 25.842772 -9.622305
-21.470177 27.068135 -9.546098
-17.886958 37.327737 -12.531257
-17.4087 36.167766 -12.669397
-17.804732 35.29759 -12.26903
-18.878079 37.600978 -11.949742
-18.790526 35.859167 -11.766907
-19.385615 37.002584 -11.585759
-18.396483 38.366992 -12.351723
-18.878079 37.600978 -11.949742
-17.886958 37.327737 -12.531257
-18.396483 38.366992 -12.351723
-34.414671 30.72976 -0.480795
-34.885803 29.90231 -0.020206
-33.981831 31.743249 -0.073063
-33.971423 31.539372 -0.94945
-34.414671 30.72976 -0.480795
-26.749625 44.787031 6.436013
-27.056745 44.756611 5.339584
-27.353671 43.629251 5.91601
-26.437776 44.724612 7.599002
-26.737088 43.559236 8.18404
-26.128313 44.624176 8.770603
-26.749625 44.787031 6.436013
-26.437776 44.724612 7.599002
-23.765427 46.68376 13.605832
-24.012425 45.443556 14.30058
-23.413221 46.505703 14.887925
-24.108077 46.818754 12.399936
-23.765427 46.68376 13.605832
-23.508874 47.880902 12.987281
-24.482727 46.829223 11.224804
-24.73928 45.632082 11.843355
-24.108077 46.818754 12.399936
-24.866262 46.845289 10.0049
-24.482727 46.829223 11.224804
-23.819088 36.499147 24.911187
-24.533962 35.556039 24.168474
-23.541839 37.838739 24.300038
-23.819088 36.499147 24.911187
-23.880212 38.141468 23.141711
-23.541839 37.838739 24.300038
-37.547532 15.062232 16.246572
-37.455092 16.099711 15.561508
-32.938817 28.731013 -4.986543
-33.242524 29.457353 -4.482841
-32.312231 29.318251 -5.338136
-32.587191 28.018625 -5.436177
-32.938817 28.731013 -4.986543
-32.788055 32.391917 -3.385888
-33.276217 31.69542 -2.949795
-32.905588 32.828386 -2.682117
-32.610369 31.923648 -4.053764
-32.788055 32.391917 -3.385888
-32.239741 33.056614 -3.786086
-32.362955 31.309492 -4.671233
-32.911271 30.644796 -4.271034
-32.610369 31.923648 -4.053764
-27.32723 46.655294 -2.414972
-27.0096 47.661789 -2.958368
-27.71712 45.422902 -2.791751
-27.672572 45.784403 -1.897336
-27.32723 46.655294 -2.414972
-27.283179 45.890186 -4.113219
-26.992335 47.292576 -3.838514
-26.903736 46.88897 -4.642347
-24.995525 46.443031 -8.347497
-25.445667 45.557361 -7.882438
-25.366929 47.113208 -7.774144
-24.571545 45.761994 -8.894783
-24.995525 46.443031 -8.347497
-24.075976 45.007511 -9.367657
-24.578694 44.132702 -8.928665
-24.571545 45.761994 -8.894783
-23.585012 44.218025 -9.782975
-24.075976 45.007511 -9.367657
-23.028278 43.392015 -10.147181
-23.526391 42.55221 -9.765743
-23.585012 44.218025 -9.782975
-22.434649 42.387525 -10.495901
-23.028278 43.392015 -10.147181
-21.832207 41.397213 -10.76761
-22.367215 40.735888 -10.401658
-22.434649 42.387525 -10.495901
-21.209254 40.355514 -11.031608
-21.832207 41.397213 -10.76761
3 0 64 62
3 0 66 64
3 1 69 67
3 243 72 244
3 245 244 70
3 243 244 245
3 247 246 72
3 1 76 74
3 1 67 76
3 2 80 78
3 3 248 250
3 248 81 249
3 248 249 250
3 3 83 81
3 4 86 84
3 251 88 252
3 254 253 88
3 255 90 256
3 6 257 259
3 259 258 91
3 257 258 259
3 6 260 261
3 6 262 264
3 262 92 263
3 262 263 264
3 4 95 93
3 4 84 95
3 8 265 267
3 265 97 266
3 265 266 267
3 270 269 98
3 268 269 270
3 271 100 272
3 9 103 101
3 9 273 275
3 275 274 103
3 273 274 275
3 10 276 278
3 276 104 277
3 276 277 278
3 12 107 105
3 12 109 107
3 5 112 110
3 13 115 113
3 13 117 115
3 13 119 117
3 7 279 280
3 10 281 282
3 10 283 284
3 11 285 287
3 285 120 286
3 285 286 287
3 14 123 121
3 14 125 123
3 15 288 290
3 288 128 289
3 288 289 290
3 15 130 128
3 15 132 130
3 16 135 133
3 291 137 292
3 19 293 295
3 293 138 294
3 293 294 295
3 19 139 138
3 19 141 139
3 16 142 61
3 16 133 142
3 296 145 297
3 298 297 143
3 296 297 298
3 22 299 301
3 299 146 300
3 299 300 301
3 23 147 63
3 23 148 147
3 23 150 148
3 25 151 65
3 25 152 151
3 26 155 153
3 28 156 68
3 28 157 156
3 29 160 158
3 31 161 71
3 31 162 161
3 31 164 162
3 302 165 303
3 304 303 73
3 302 303 304
3 306 305 165
3 33 167 166
3 34 168 75
3 34 307 309
3 309 308 168
3 307 308 309
3 34 310 311
3 26 169 77
3 26 153 169
3 35 172 170
3 37 173 79
3 37 174 173
3 312 175 313
3 38 176 82
3 38 177 176
3 39 180 178
3 41 181 85
3 41 182 181
3 17 183 134
3 42 184 87
3 42 185 184
3 42 186 185
3 314 187 315
3 316 315 89
3 314 315 316
3 317 188 318
3 319 318 187
3 317 318 319
3 18 189 136
3 43 320 322
3 320 190 321
3 320 321 322
3 43 191 190
3 20 192 140
3 44 193 94
3 44 194 193
3 44 195 194
3 39 196 96
3 39 178 196
3 323 199 324
3 325 324 197
3 323 324 325
3 21 200 144
3 327 326 99
3 46 328 329
3 46 330 332
3 330 201 331
3 330 331 332
3 24 202 149
3 47 203 102
3 47 204 203
3 47 205 204
3 48 333 334
3 48 335 337
3 335 206 336
3 335 336 337
3 27 207 154
3 49 208 106
3 49 209 208
3 49 210 209
3 50 211 108
3 50 212 211
3 40 213 179
3 51 214 111
3 51 215 214
3 30 216 159
3 52 217 114
3 52 218 217
3 52 219 218
3 53 220 116
3 53 221 220
3 53 222 221
3 54 338 340
3 340 339 118
3 338 339 340
3 54 341 342
3 32 223 163
3 343 224 344
3 36 225 171
3 55 226 122
3 55 227 226
3 55 228 227
3 56 229 124
3 56 230 229
3 45 231 198
3 57 232 126
3 57 233 232
3 345 234 346
3 58 235 127
3 58 236 235
3 58 237 236
3 59 238 129
3 59 239 238
3 59 240 239
3 60 241 131
3 60 242 241
3 348 347 16
3 349 19 350
3 351 61 352
3 353 352 19
3 351 352 353
3 354 61 355
3 356 16 357
3 358 357 61
3 356 357 358
3 62 63 22
3 64 63 62
3 64 23 63
3 64 65 23
3 66 65 64
3 66 25 65
3 67 68 26
3 69 68 67
3 69 28 68
3 70 71 29
3 72 71 70
3 72 31 71
3 72 73 31
3 359 73 360
3 361 360 72
3 359 360 361
3 363 362 73
3 74 75 33
3 76 75 74
3 76 34 75
3 76 77 34
3 67 77 76
3 67 26 77
3 78 79 35
3 80 79 78
3 80 37 79
3 81 364 365
3 81 366 367
3 81 368 370
3 368 82 369
3 368 369 370
3 83 82 81
3 83 38 82
3 84 85 39
3 86 85 84
3 86 41 85
3 371 87 372
3 373 372 17
3 371 372 373
3 88 374 376
3 374 87 375
3 374 375 376
3 88 42 87
3 88 89 42
3 377 89 378
3 379 378 88
3 377 378 379
3 381 380 89
3 90 382 383
3 90 384 385
3 91 386 388
3 388 387 18
3 386 387 388
3 390 389 91
3 92 391 392
3 92 393 395
3 393 43 394
3 393 394 395
3 93 94 20
3 95 94 93
3 95 44 94
3 95 96 44
3 84 96 95
3 84 39 96
3 97 396 397
3 97 398 399
3 98 99 21
3 400 99 401
3 402 401 98
3 400 401 402
3 404 403 99
3 100 405 406
3 100 407 409
3 407 46 408
3 407 408 409
3 101 102 24
3 103 102 101
3 103 47 102
3 103 410 412
3 412 411 47
3 410 411 412
3 414 413 103
3 104 415 416
3 104 417 419
3 417 48 418
3 417 418 419
3 105 106 27
3 107 106 105
3 107 49 106
3 107 108 49
3 109 108 107
3 109 50 108
3 110 111 40
3 112 111 110
3 112 51 111
3 113 114 30
3 115 114 113
3 115 52 114
3 115 116 52
3 117 116 115
3 117 53 116
3 117 118 53
3 119 118 117
3 119 54 118
3 421 420 32
3 120 422 423
3 120 424 425
3 121 122 36
3 123 122 121
3 123 55 122
3 123 124 55
3 125 124 123
3 125 56 124
3 426 126 427
3 428 427 45
3 426 427 428
3 429 126 430
3 431 57 432
3 433 432 126
3 431 432 433
3 434 127 435
3 128 436 438
3 436 127 437
3 436 437 438
3 128 58 127
3 128 129 58
3 130 129 128
3 130 59 129
3 130 131 59
3 132 131 130
3 132 60 131
3 439 3 440
3 133 134 4
3 135 134 133
3 135 17 134
3 441 135 442
3 443 442 16
3 441 442 443
3 444 135 445
3 446 17 447
3 448 447 135
3 446 447 448
3 450 449 17
3 451 136 452
3 137 453 455
3 453 136 454
3 453 454 455
3 137 18 136
3 456 137 457
3 138 458 460
3 458 137 459
3 458 459 460
3 138 18 137
3 138 91 18
3 139 91 138
3 139 6 91
3 139 140 6
3 141 140 139
3 141 20 140
3 61 141 19
3 142 141 61
3 142 20 141
3 142 93 20
3 133 93 142
3 133 4 93
3 143 144 8
3 145 144 143
3 145 21 144
3 461 145 462
3 463 145 464
3 465 21 466
3 467 466 145
3 465 466 467
3 468 98 469
3 470 469 21
3 468 469 470
3 471 98 472
3 474 473 98
3 146 475 476
3 146 477 478
3 63 146 22
3 147 146 63
3 147 479 481
3 481 480 146
3 479 480 481
3 147 482 483
3 148 484 486
3 486 485 147
3 484 485 486
3 148 487 488
3 148 489 491
3 489 149 490
3 489 490 491
3 150 149 148
3 150 24 149
3 65 150 23
3 151 150 65
3 151 24 150
3 151 101 24
3 152 101 151
3 152 9 101
3 153 154 10
3 155 154 153
3 155 27 154
3 68 155 26
3 156 155 68
3 156 27 155
3 156 105 27
3 157 105 156
3 157 12 105
3 158 159 5
3 160 159 158
3 160 30 159
3 71 160 29
3 161 160 71
3 161 30 160
3 161 113 30
3 162 113 161
3 162 13 113
3 162 163 13
3 164 163 162
3 164 32 163
3 73 164 31
3 165 164 73
3 165 32 164
3 165 492 494
3 494 493 32
3 492 493 494
3 496 495 165
3 166 497 499
3 499 498 7
3 497 498 499
3 167 500 502
3 502 501 166
3 500 501 502
3 167 503 504
3 75 167 33
3 168 167 75
3 168 505 507
3 507 506 167
3 505 506 507
3 168 508 509
3 511 510 168
3 77 512 514
3 514 513 34
3 512 513 514
3 169 515 517
3 517 516 77
3 515 516 517
3 169 518 519
3 169 520 521
3 153 522 524
3 524 523 169
3 522 523 524
3 153 525 527
3 525 10 526
3 525 526 527
3 170 171 11
3 172 171 170
3 172 36 171
3 79 172 35
3 173 172 79
3 173 36 172
3 173 121 36
3 174 121 173
3 174 14 121
3 528 15 529
3 531 530 15
3 175 532 533
3 175 534 536
3 534 22 535
3 534 535 536
3 82 537 539
3 537 175 538
3 537 538 539
3 176 175 82
3 176 22 175
3 176 62 22
3 177 62 176
3 177 0 62
3 178 179 1
3 180 179 178
3 180 40 179
3 85 180 39
3 181 180 85
3 181 40 180
3 181 110 40
3 182 110 181
3 182 5 110
3 134 86 4
3 183 86 134
3 183 41 86
3 87 183 17
3 184 183 87
3 184 41 183
3 184 182 41
3 185 182 184
3 185 5 182
3 185 158 5
3 186 158 185
3 186 29 158
3 89 186 42
3 187 186 89
3 187 29 186
3 187 70 29
3 188 70 187
3 188 540 542
3 542 541 70
3 540 541 542
3 136 543 545
3 543 90 544
3 543 544 545
3 189 90 136
3 189 546 548
3 548 547 90
3 546 547 548
3 549 189 550
3 551 550 18
3 549 550 551
3 552 189 553
3 555 554 189
3 190 556 557
3 190 558 559
3 190 560 561
3 191 562 564
3 564 563 190
3 562 563 564
3 191 565 567
3 565 7 566
3 565 566 567
3 140 92 6
3 192 92 140
3 192 43 92
3 94 192 20
3 193 192 94
3 193 43 192
3 193 191 43
3 194 191 193
3 194 7 191
3 194 166 7
3 195 166 194
3 195 33 166
3 96 195 44
3 196 195 96
3 196 33 195
3 196 74 33
3 178 74 196
3 178 1 74
3 197 198 2
3 199 198 197
3 199 45 198
3 568 199 569
3 570 199 571
3 572 45 573
3 574 573 199
3 572 573 574
3 576 575 45
3 144 97 8
3 200 97 144
3 200 577 579
3 579 578 97
3 577 578 579
3 99 200 21
3 580 200 581
3 582 581 99
3 580 581 582
3 584 583 200
3 201 585 586
3 201 587 589
3 587 8 588
3 587 588 589
3 149 590 592
3 590 100 591
3 590 591 592
3 202 100 149
3 202 46 100
3 102 202 24
3 203 202 102
3 203 46 202
3 203 201 46
3 204 201 203
3 204 8 201
3 204 143 8
3 205 143 204
3 205 593 595
3 595 594 143
3 593 594 595
3 596 205 597
3 598 597 47
3 596 597 598
3 599 205 600
3 602 601 205
3 206 603 604
3 206 605 607
3 605 11 606
3 605 606 607
3 154 104 10
3 207 104 154
3 207 48 104
3 106 207 27
3 208 207 106
3 208 48 207
3 208 206 48
3 209 206 208
3 209 11 206
3 209 170 11
3 210 170 209
3 210 35 170
3 108 210 49
3 211 210 108
3 211 35 210
3 211 78 35
3 212 78 211
3 212 2 78
3 179 69 1
3 213 69 179
3 213 28 69
3 111 213 40
3 214 213 111
3 214 28 213
3 214 157 28
3 215 157 214
3 215 12 157
3 159 112 5
3 216 112 159
3 216 51 112
3 114 216 30
3 217 216 114
3 217 51 216
3 217 215 51
3 218 215 217
3 218 12 215
3 218 109 12
3 219 109 218
3 219 50 109
3 116 219 52
3 220 219 116
3 220 50 219
3 220 212 50
3 221 212 220
3 221 2 212
3 221 197 2
3 222 197 221
3 222 608 610
3 610 609 197
3 608 609 610
3 118 222 53
3 611 222 612
3 613 612 118
3 611 612 613
3 615 614 222
3 163 119 13
3 223 119 163
3 223 54 119
3 616 223 617
3 618 617 32
3 616 617 618
3 619 223 620
3 619 620 621
3 622 54 623
3 624 623 223
3 622 623 624
3 626 625 54
3 627 188 628
3 629 188 630
3 632 631 188
3 634 633 7
3 224 635 636
3 224 637 639
3 637 3 638
3 637 638 639
3 171 120 11
3 225 120 171
3 225 640 642
3 642 641 120
3 640 641 642
3 122 225 36
3 226 225 122
3 226 643 645
3 645 644 225
3 643 644 645
3 226 646 648
3 646 224 647
3 646 647 648
3 227 224 226
3 227 3 224
3 227 83 3
3 228 83 227
3 228 38 83
3 124 228 55
3 229 228 124
3 229 38 228
3 229 177 38
3 230 177 229
3 230 0 177
3 198 80 2
3 231 80 198
3 231 37 80
3 126 231 45
3 232 231 126
3 232 37 231
3 232 174 37
3 233 174 232
3 233 14 174
3 234 649 650
3 234 651 653
3 651 57 652
3 651 652 653
3 127 654 656
3 654 234 655
3 654 655 656
3 235 234 127
3 235 57 234
3 235 233 57
3 236 233 235
3 236 14 233
3 236 125 14
3 237 125 236
3 237 56 125
3 129 237 58
3 238 237 129
3 238 56 237
3 238 230 56
3 239 230 238
3 239 0 230
3 239 66 0
3 240 66 239
3 240 25 66
3 131 240 59
3 241 240 131
3 241 25 240
3 241 152 25
3 242 152 241
3 242 9 152
3 657 132 658
3 659 658 15
3 657 658 659
3 660 132 661
3 662 60 663
3 664 663 132
3 662 663 664
3 665 60 666
3 667 242 668
3 669 668 60
3 667 668 669
3 670 242 671
3 672 9 673
3 674 673 242
3 672 673 674
3 676 675 9
