ply
format ascii 1.0
element vertex 242
property float x
property float y
property float z
element face 218
property list uchar int vertex_index
end_header
37.48822 45.566994 10.075225
32.710022 32.633732 30.191038
35.042782 40.333519 20.745323
35.919476 62.233814 3.785294
33.841343 36.391468 25.709501
35.155422 31.607134 22.757944
33.820042 28.320108 27.048565
36.675217 63.683426 -2.730758
36.26889 43.148281 15.66022
36.628368 34.670036 17.694038
37.64864 55.829624 0.960853
36.816311 54.011047 7.002299
35.825813 51.419228 12.958061
34.69239 48.346947 18.812731
33.680122 44.811066 24.024483
33.282059 34.660492 27.905951
33.833714 32.442276 26.45751
33.220081 30.425209 28.63942
35.685932 41.517422 18.245043
36.504539 38.990982 16.592344
35.843369 37.308414 19.240726
36.307774 63.065525 0.57737
37.195091 59.749397 -0.921485
36.778316 59.22274 2.262865
37.242393 54.986336 4.085454
36.398186 58.275005 5.239622
35.517952 55.588852 11.448936
35.257317 50.041592 15.895709
34.437191 38.247711 23.323044
35.169037 35.891838 21.695677
34.493984 34.154076 24.136148
34.456215 29.953587 25.027479
35.79937 66.962425 -1.216169
35.494114 65.947479 2.056111
32.194389 30.585867 32.295639
36.92672 44.210846 12.897325
37.126942 40.030132 14.138056
35.905819 33.238556 20.237305
36.644112 30.359497 18.828516
37.566807 60.098263 -4.136116
38.047813 56.22533 -2.176297
37.700272 50.763622 5.567029
37.240593 49.765305 8.388026
35.981651 56.979092 8.358863
36.364017 52.850056 9.860086
36.669754 48.638687 11.408073
36.104115 47.198143 14.300833
35.472759 45.977161 17.09753
34.927681 44.340557 19.664051
34.171375 46.773766 21.424692
34.315571 42.493721 22.450365
33.747654 40.57196 25.039557
33.217918 38.824799 27.403309
32.722134 36.618088 29.716021
37.900928 43.965708 9.336602
37.764581 46.041949 8.632601
34.123058 26.915717 26.367605
34.441145 27.732456 25.357062
34.138129 29.136848 26.038022
35.387595 68.489952 -0.521337
35.563929 68.754413 -2.194114
35.234966 67.982479 1.114803
35.646742 66.454952 0.419971
35.387595 68.489952 -0.521337
32.137374 28.490448 32.492584
31.954253 29.418519 33.307209
36.953524 35.182299 16.510849
36.891609 37.342771 15.960002
36.566454 36.830509 17.143191
36.998075 33.077158 17.040739
36.953524 35.182299 16.510849
36.641852 28.176844 19.286164
36.25222 29.702778 20.072907
37.029791 28.676931 18.086726
36.641852 28.176844 19.286164
37.121012 61.890845 -3.433437
37.286491 62.03581 -5.012726
36.840697 63.828392 -4.310047
38.084705 54.058525 0.233963
38.284292 54.256378 -1.334612
37.848226 56.027477 -0.607722
37.891219 53.71121 1.777262
38.084705 54.058525 0.233963
35.555927 58.364649 9.185595
35.759124 59.104917 7.565558
33.925748 45.792416 22.724587
33.840812 47.839669 22.321432
33.595186 46.858318 23.621327
32.960814 39.800168 28.254257
33.203271 40.941997 26.956249
32.712922 38.696812 29.410612
32.970026 37.721443 28.559665
32.960814 39.800168 28.254257
35.507875 30.326597 22.037622
35.136896 29.509318 23.184494
35.103766 56.94973 12.280105
35.324078 57.669529 10.730632
35.255356 54.969353 12.951714
35.103766 56.94973 12.280105
35.409286 52.884541 13.706276
35.671882 53.50404 12.203499
35.255356 54.969353 12.951714
35.125039 52.195723 15.1751
35.541565 50.73041 14.426885
35.409286 52.884541 13.706276
34.885677 51.261877 16.682302
35.125039 52.195723 15.1751
34.603214 50.414555 18.140813
34.974854 49.19427 17.35422
34.885677 51.261877 16.682302
33.37155 45.895418 24.942524
33.595186 46.858318 23.621327
33.434373 43.935131 25.266837
33.37155 45.895418 24.942524
34.787292 28.682544 24.319261
35.136896 29.509318 23.184494
34.805819 30.780361 23.892711
34.787292 28.682544 24.319261
34.441145 27.732456 25.357062
36.392224 65.599674 -3.560998
36.840697 63.828392 -4.310047
35.9543 67.239174 -2.803704
35.563929 68.754413 -2.194114
36.237294 65.322925 -1.973463
36.392224 65.599674 -3.560998
35.9543 67.239174 -2.803704
32.409197 29.55979 31.514198
32.667013 30.583723 30.461897
32.452206 31.6098 31.243339
32.409197 29.55979 31.514198
32.137374 28.490448 32.492584
37.331964 42.667774 12.195705
37.612714 43.345848 10.784655
37.20747 44.88892 11.486275
37.432075 40.577417 12.81607
37.331964 42.667774 12.195705
37.026831 42.120489 13.517691
37.510016 38.46297 13.47268
37.432075 40.577417 12.81607
37.20281 37.862347 14.732858
36.815741 39.510557 15.3652
36.891609 37.342771 15.960002
37.510016 38.46297 13.47268
37.20281 37.862347 14.732858
35.883074 31.142308 20.777302
35.53062 32.422845 21.497625
35.507875 30.326597 22.037622
36.274966 31.799027 19.53291
35.883074 31.142308 20.777302
36.25222 29.702778 20.072907
37.005948 30.921889 17.607978
36.998075 33.077158 17.040739
36.63624 32.514767 18.261277
37.005948 30.921889 17.607978
37.029791 28.676931 18.086726
32.922043 29.479461 29.686088
32.965052 31.529471 29.415229
32.667013 30.583723 30.461897
33.174408 28.405151 28.932724
32.922043 29.479461 29.686088
33.474389 27.352601 28.137296
33.520061 29.372659 27.843992
33.174408 28.405151 28.932724
33.766556 26.207372 27.373955
33.474389 27.352601 28.137296
34.123058 26.915717 26.367605
33.766556 26.207372 27.373955
37.719635 60.204632 -5.701111
37.286491 62.03581 -5.012726
37.979732 58.293265 -4.751582
37.719635 60.204632 -5.701111
38.220236 56.356798 -3.771672
37.979732 58.293265 -4.751582
37.80731 58.161797 -3.156207
38.465772 54.340446 -2.790179
38.220236 56.356798 -3.771672
38.465772 54.340446 -2.790179
38.284292 54.256378 -1.334612
37.688095 53.289566 3.339563
37.891219 53.71121 1.777262
37.445516 55.40798 2.523154
37.917034 51.178209 4.08035
37.688095 53.289566 3.339563
37.471333 52.874979 4.826242
38.138306 48.900498 4.914195
37.917034 51.178209 4.08035
37.870607 48.640262 6.378503
38.138306 48.900498 4.914195
37.640768 48.141104 7.789002
37.870607 48.640262 6.378503
37.470433 50.264463 6.977527
37.364407 47.66615 9.231625
37.764581 46.041949 8.632601
37.640768 48.141104 7.789002
35.069853 67.504722 2.781369
35.234966 67.982479 1.114803
34.810705 69.539722 1.84006
35.286873 65.545479 3.6875
35.069853 67.504722 2.781369
35.499554 63.688646 4.552092
35.706795 64.090647 2.920702
35.286873 65.545479 3.6875
35.728037 61.732278 5.278774
35.499554 63.688646 4.552092
35.967392 59.752874 6.005938
36.158831 60.25441 4.512458
35.728037 61.732278 5.278774
36.189919 57.627049 6.799243
35.967392 59.752874 6.005938
35.759124 59.104917 7.565558
35.749802 56.283972 9.903899
35.555927 58.364649 9.185595
35.324078 57.669529 10.730632
34.348327 49.551258 19.598579
34.603214 50.414555 18.140813
34.08782 48.764668 20.90456
33.840812 47.839669 22.321432
34.431883 47.560356 20.118711
34.348327 49.551258 19.598579
34.08782 48.764668 20.90456
33.468139 41.815578 25.774373
33.713888 42.691513 24.53202
33.434373 43.935131 25.266837
33.482786 39.69838 26.221433
33.468139 41.815578 25.774373
33.203271 40.941997 26.956249
32.494963 37.48113 30.612378
32.712922 38.696812 29.410612
32.489754 35.59339 30.807859
32.494963 37.48113 30.612378
32.483698 33.601212 31.045368
32.716078 34.62591 29.95353
32.489754 35.59339 30.807859
32.225881 32.577279 32.097668
32.452206 31.6098 31.243339
32.483698 33.601212 31.045368
32.020327 31.486277 33.096019
32.225881 32.577279 32.097668
31.954253 29.418519 33.307209
32.020327 31.486277 33.096019
37.900928 43.965708 9.336602
37.612714 43.345848 10.784655
3 0 54 55
3 1 17 15
3 2 20 18
3 3 23 21
3 3 25 23
3 4 30 28
3 6 31 16
3 6 56 58
3 58 57 31
3 56 57 58
3 59 32 60
3 61 33 62
3 63 62 32
3 61 62 63
3 65 64 34
3 8 36 35
3 9 66 68
3 68 67 19
3 66 67 68
3 9 69 70
3 5 37 29
3 71 38 72
3 74 73 38
3 7 75 77
3 75 39 76
3 75 76 77
3 10 40 22
3 10 78 80
3 80 79 40
3 78 79 80
3 10 81 82
3 11 41 24
3 11 42 41
3 83 43 84
3 12 44 26
3 12 45 44
3 12 46 45
3 13 47 27
3 13 48 47
3 14 85 87
3 85 49 86
3 85 86 87
3 14 50 49
3 14 51 50
3 88 52 89
3 90 53 91
3 92 91 52
3 90 91 92
3 15 16 4
3 17 16 15
3 17 6 16
3 18 19 8
3 20 19 18
3 20 9 19
3 94 93 5
3 21 22 7
3 23 22 21
3 23 10 22
3 23 24 10
3 25 24 23
3 25 11 24
3 95 26 96
3 97 26 98
3 99 12 100
3 101 100 26
3 99 100 101
3 102 27 103
3 104 103 12
3 102 103 104
3 105 27 106
3 107 13 108
3 109 108 27
3 107 108 109
3 110 14 111
3 113 112 14
3 28 29 2
3 30 29 28
3 30 5 29
3 16 30 4
3 31 30 16
3 31 5 30
3 31 114 116
3 116 115 5
3 114 115 116
3 118 117 31
3 119 7 120
3 32 121 122
3 32 123 125
3 123 7 124
3 123 124 125
3 32 21 7
3 33 21 32
3 33 3 21
3 34 126 128
3 128 127 1
3 126 127 128
3 130 129 34
3 35 131 133
3 133 132 0
3 131 132 133
3 36 134 136
3 136 135 35
3 134 135 136
3 36 137 138
3 19 36 8
3 139 36 140
3 141 140 19
3 139 140 141
3 143 142 36
3 29 20 2
3 37 20 29
3 37 9 20
3 144 37 145
3 146 145 5
3 144 145 146
3 38 147 149
3 147 37 148
3 147 148 149
3 38 9 37
3 38 150 152
3 152 151 9
3 150 151 152
3 154 153 38
3 155 17 156
3 157 156 1
3 155 156 157
3 158 17 159
3 160 6 161
3 162 161 17
3 160 161 162
3 163 6 164
3 166 165 6
3 39 167 168
3 39 169 170
3 22 39 7
3 40 39 22
3 40 171 173
3 173 172 39
3 171 172 173
3 40 174 175
3 177 176 40
3 24 178 180
3 180 179 10
3 178 179 180
3 41 181 183
3 183 182 24
3 181 182 183
3 41 184 185
3 41 186 187
3 42 188 190
3 190 189 41
3 188 189 190
3 42 191 193
3 191 0 192
3 191 192 193
3 194 33 195
3 194 195 196
3 197 33 198
3 199 3 200
3 201 200 33
3 199 200 201
3 202 3 203
3 204 25 205
3 206 205 3
3 204 205 206
3 43 207 209
3 207 25 208
3 207 208 209
3 43 11 25
3 26 210 212
3 210 43 211
3 210 211 212
3 44 43 26
3 44 11 43
3 44 42 11
3 45 42 44
3 45 0 42
3 45 35 0
3 46 35 45
3 46 8 35
3 27 46 12
3 47 46 27
3 47 8 46
3 47 18 8
3 48 18 47
3 48 2 18
3 213 13 214
3 49 215 216
3 49 217 219
3 217 13 218
3 217 218 219
3 49 48 13
3 50 48 49
3 50 2 48
3 50 28 2
3 51 28 50
3 51 4 28
3 220 51 221
3 222 221 14
3 220 221 222
3 52 223 225
3 223 51 224
3 223 224 225
3 52 4 51
3 52 15 4
3 53 15 52
3 53 1 15
3 226 53 227
3 228 53 229
3 230 1 231
3 232 231 53
3 230 231 232
3 233 34 234
3 235 234 1
3 233 234 235
3 236 34 237
3 239 238 34
3 241 240 0
