ply
format ascii 1.0
element vertex 521
property float x
property float y
property float z
element face 600
property list uchar int vertex_index
end_header
-17.923731 45.438148 -13.953789
-24.416458 57.992569 -5.871986
-12.425122 54.121861 -24.873646
-24.155535 50.482342 8.094124
-26.425591 49.674435 -0.658565
-23.033861 60.031513 2.167185
-14.465016 35.458904 -15.865112
-14.900738 50.609085 -18.703987
-22.320774 53.267517 -11.412629
-21.89492 69.595612 -5.315943
-22.066885 65.975075 -12.66338
-19.004997 59.587944 -16.720751
-15.85246 64.37944 -23.019209
-22.045267 55.076435 10.067436
-23.496517 55.272133 5.358971
-21.499311 60.367989 6.798752
-17.490927 38.197914 -12.931623
-15.91251 40.720615 -14.79933
-14.559677 43.410576 -17.164331
-16.285452 48.088737 -16.163521
-25.453453 53.646847 -3.141323
-26.612892 48.291359 -4.367642
-25.160198 52.354977 -6.581172
-24.005226 49.916138 -9.254821
-23.781534 55.920677 -9.117818
-20.668051 70.224541 -0.83631
-21.348673 71.799477 -13.311667
-20.707226 69.244545 -16.264057
-20.866219 63.287777 -15.079028
-19.313993 66.027023 -18.368132
-17.45681 62.258091 -19.724245
-17.604107 68.542824 -22.009205
-26.452698 45.914391 5.859587
-25.50458 50.243484 3.611285
-24.752787 54.781445 0.951244
-24.079044 59.335617 -2.069497
-13.420305 45.363052 -19.803753
-13.653937 52.631321 -21.55051
-19.688702 42.520374 -12.161512
-22.646637 50.299992 12.98011
-22.149315 46.471802 -10.962933
-20.173452 49.689896 -12.975215
-21.134003 65.403389 3.053472
-22.513515 64.84481 -1.261748
-23.368347 63.756958 -5.420521
-22.478725 67.981865 -9.298411
-23.325575 62.245419 -9.051966
-22.367254 59.721287 -11.920923
-20.654762 56.744801 -13.944818
-18.484352 52.733833 -15.215091
-16.901487 55.529472 -17.816648
-15.353825 57.491364 -20.660889
-13.958344 59.415379 -23.849436
-21.758017 57.680012 8.508609
-17.659845 41.897511 -13.459181
-16.683155 39.506409 -13.811818
-16.854191 43.215263 -14.403956
-16.092882 44.685192 -15.49412
-17.084568 46.709709 -14.987539
-24.907253 55.970806 -4.408037
-25.437902 53.047173 -4.887107
-24.818073 55.137455 -6.223133
-24.457478 54.157471 -7.861814
-24.195772 57.218124 -7.641479
-19.926653 70.751328 -18.202469
-20.102865 67.706093 -17.394646
-19.27042 69.214073 -19.315285
-18.490591 67.390282 -20.155788
-25.26631 48.150692 7.095661
-25.937151 48.067276 4.798837
-24.843994 50.448486 5.832579
-23.262793 57.704231 3.744201
-24.216759 55.03495 2.998191
-23.903307 57.321667 1.691683
-24.402546 57.073368 -0.447723
-23.596136 59.826248 0.045217
-13.9672 36.915478 -17.111568
-14.684041 47.096119 -17.935284
-13.94795 44.398041 -18.466822
-14.043346 48.258385 -19.336161
-13.439619 48.981102 -20.741711
-14.252924 51.683689 -20.107439
-19.473169 38.744396 -11.768594
-20.653734 40.965454 -11.389849
-26.998974 47.550243 0.350378
-27.282681 47.016796 -1.520557
-26.359308 47.180099 -5.973026
-23.115829 51.641792 -10.352625
-23.149094 48.395073 -10.220917
-22.212532 49.746075 -11.19237
-21.114014 47.955341 -11.929013
-21.321411 51.603271 -12.266465
-21.406223 69.811111 -3.099631
-21.636675 67.664482 -1.142353
-22.295786 67.104195 -3.343911
-23.025717 64.478355 -3.515241
-22.684589 66.759514 -5.421165
-21.78817 68.861893 -12.985924
-21.93696 69.976273 -11.303857
-22.422909 66.914909 -11.005127
-22.952602 65.085121 -9.226655
-22.716724 64.153267 -10.85032
-22.950268 61.109642 -10.615059
-22.324694 62.947586 -12.131008
-20.068932 61.410843 -15.863936
-20.827814 60.02454 -14.44767
-19.845474 58.194256 -15.2747
-19.543245 54.635159 -14.658357
-18.802691 56.339611 -15.927645
-17.665735 54.014778 -16.437744
-17.977751 57.480202 -17.237047
-16.635056 63.257915 -21.320906
-16.346647 59.945427 -20.277931
-15.631886 60.996468 -21.792269
-14.638823 58.533211 -22.24951
-14.89107 61.934082 -23.414854
-13.352017 62.997948 -26.705345
-23.093098 52.645287 9.22637
-23.814709 52.795536 6.779675
-22.816294 55.18512 7.641168
-22.507328 57.81765 6.129217
-22.381754 60.05228 4.407883
-15.780096 36.771187 -14.192282
-15.063786 38.049023 -15.301553
-14.460845 39.53228 -16.50481
-15.213411 41.902962 -15.878244
-15.341282 45.762302 -16.650867
-15.591695 49.429035 -17.373459
-25.901779 51.775833 -1.86593
-26.647421 49.029785 -2.607349
-26.026447 51.026672 -3.817936
-25.909678 50.141186 -5.466919
-25.524765 49.332127 -6.901182
-24.916788 47.998878 -8.239202
-24.736029 51.109875 -7.977771
-23.904388 52.87207 -9.203392
-23.14197 54.850117 -10.375597
-21.094313 70.837112 -14.960418
-21.380365 67.823425 -14.510477
-21.573601 64.587616 -13.922339
-20.864107 66.275253 -15.624177
-20.123369 64.566666 -16.617033
-19.246082 62.691372 -17.414698
-18.269958 61.066505 -18.169508
-18.478825 64.159836 -19.0319
-17.679077 65.507431 -20.735655
-16.795576 66.273018 -22.40317
-26.568998 47.805862 2.498044
-26.07976 49.911335 1.412946
-24.521191 52.764248 4.369358
-25.160248 52.407192 2.220769
-25.614714 52.116344 0.219674
-25.167356 54.438286 -1.185157
-24.754911 56.647079 -2.59944
-24.318916 58.935711 -4.094621
-13.925947 40.594639 -17.715031
-13.390189 41.711315 -19.158764
-12.904797 46.531006 -21.36405
-12.942358 50.311569 -22.288612
-13.04883 53.629486 -23.192368
-18.509975 40.276424 -12.572555
-18.731424 43.855881 -13.021114
-25.829002 45.789551 8.185566
-24.618593 48.048027 9.341578
-23.851524 48.015896 11.781384
-23.420366 50.282192 10.628726
-22.285923 52.706581 11.618886
-24.068827 46.636803 -9.333776
-23.086899 45.057831 -10.164412
-21.899641 43.048851 -10.861853
-20.955971 44.621494 -11.626888
-19.908154 46.009136 -12.544272
-18.996605 47.529789 -13.517964
-21.387058 62.734417 4.913757
-22.113611 62.680321 2.685164
-20.931101 67.824745 1.122192
-21.870922 65.22113 0.835355
-22.756554 62.452831 0.573774
-23.341967 62.134686 -1.776065
-23.726336 61.650562 -3.839346
-23.923439 60.927864 -5.711459
-22.311697 68.806465 -7.284722
-22.938154 65.994064 -7.316799
-23.461605 63.078388 -7.346342
-23.901878 59.953682 -7.447454
-23.57366 59.154572 -9.138976
-23.094467 57.933842 -10.441552
-22.394842 56.356327 -11.600611
-21.613262 61.524765 -13.474925
-21.623964 58.394073 -12.989436
-21.46876 55.108601 -12.66229
-20.400572 53.311069 -13.478413
-19.253963 51.145145 -14.083226
-18.126448 48.959507 -14.575479
-17.372152 50.39817 -15.667619
-16.551231 51.795357 -16.964273
-15.870951 53.159771 -18.248013
-17.232428 59.004185 -18.710884
-16.161358 56.657784 -19.17783
-15.152761 54.169891 -19.610638
-14.459661 55.075455 -21.057835
-13.801051 55.978157 -22.603994
-13.142571 56.788914 -24.271809
-14.989541 65.061096 -24.737007
-14.12359 62.551716 -25.041231
-13.236779 59.996063 -25.520069
-12.478397 57.336563 -25.993746
-19.480909 71.460388 -19.246578
-19.733155 72.26162 -18.644952
-19.152792 70.691761 -19.802986
-19.598537 69.9827 -18.758877
-19.480909 71.460388 -19.246578
-18.829093 69.843769 -20.286875
-19.152792 70.691761 -19.802986
-12.174961 52.908343 -25.212513
-12.418801 52.49086 -24.362838
-12.162592 54.516239 -25.722251
-12.174961 52.908343 -25.212513
-14.511302 33.665458 -15.612011
-14.760279 34.805708 -15.280582
-14.277013 34.315 -16.231499
-14.511302 33.665458 -15.612011
-14.216108 36.187191 -16.48834
-14.028105 35.043288 -16.854727
-14.277013 34.315 -16.231499
-21.209254 40.355514 -11.031608
-20.57867 39.122978 -11.223712
-26.55089 45.7742 -6.209016
-26.088189 46.703819 -6.641056
-17.012992 36.94001 -13.101876
-17.4087 36.167766 -12.669397
-20.900769 70.040829 -15.612238
-20.735207 71.55714 -15.96056
-20.541663 70.760857 -16.612379
-26.791487 45.753344 4.760114
-27.056745 44.756611 5.339584
-13.174046 44.20575 -20.243424
-13.158987 42.379881 -19.92093
-13.405247 43.537183 -19.481259
-13.162551 45.947029 -20.583901
-12.916291 44.789727 -21.023573
-13.174046 44.20575 -20.243424
-25.471466 45.716051 9.426894
-26.128313 44.624176 8.770603
-24.866262 46.845289 10.0049
-25.223797 46.918789 8.763572
-25.471466 45.716051 9.426894
-23.24908 49.157944 12.380747
-23.508874 47.880902 12.987281
-22.90643 49.02295 13.586644
-26.992335 47.292576 -3.838514
-27.0096 47.661789 -2.958368
-26.630156 48.660572 -3.487496
-21.260531 64.068903 3.983615
-20.84374 64.070086 5.184311
-20.717213 65.404572 4.254169
-20.799576 69.024643 0.142941
-20.368113 69.214519 1.268134
-20.236587 70.414417 0.288883
-21.327545 72.336681 -12.506395
-20.998929 73.317631 -13.615177
-22.163007 69.444988 -9.367441
-21.892125 70.442193 -10.370165
-22.207842 68.979069 -10.301134
-22.395211 68.394165 -8.291567
-22.079493 69.857289 -8.360597
-22.163007 69.444988 -9.367441
-14.55605 65.231506 -25.570141
-14.965369 66.476887 -25.426201
-14.123075 63.976816 -25.722254
-14.556565 63.806406 -24.889119
-14.55605 65.231506 -25.570141
-12.901412 60.279694 -26.35985
-13.294398 61.497006 -26.112707
-12.959031 61.780636 -26.952488
-12.52222 58.949944 -26.596688
-12.857588 58.666313 -25.756908
-12.901412 60.279694 -26.35985
-12.192599 57.652008 -26.824093
-12.52222 58.949944 -26.596688
-21.364285 57.638899 9.670718
-21.901642 56.378223 9.288023
-21.50791 56.33711 10.450132
-21.242302 58.970934 8.791096
-21.364285 57.638899 9.670718
-20.848569 58.929821 9.953205
-21.112949 60.314923 7.936167
-21.628664 59.024 7.653681
-21.242302 58.970934 8.791096
-20.151377 71.514248 -17.581585
-19.733155 72.26162 -18.644952
-20.31694 69.997937 -17.233263
-20.541663 70.760857 -16.612379
-20.151377 71.514248 -17.581585
-18.439178 68.931873 -20.707127
-18.880505 68.302177 -19.735537
-18.829093 69.843769 -20.286875
-17.995936 69.508145 -21.633835
-18.047349 67.966553 -21.082497
-18.439178 68.931873 -20.707127
-13.830605 35.638206 -17.508651
-14.028105 35.043288 -16.854727
-13.724224 37.552544 -17.831991
-13.830605 35.638206 -17.508651
-19.988387 38.012449 -11.413085
-19.385615 37.002584 -11.585759
-20.063451 39.854925 -11.579221
-19.988387 38.012449 -11.413085
-20.57867 39.122978 -11.223712
-22.308971 50.105947 14.205624
-22.90643 49.02295 13.586644
-22.099663 51.418616 13.476216
-22.308971 50.105947 14.205624
-27.451308 46.332666 -0.014778
-27.315388 46.446236 0.933886
-27.593162 46.065942 -0.950246
-27.451308 46.332666 -0.014778
-27.140828 47.283519 -0.585089
-27.672572 45.784403 -1.897336
-27.593162 46.065942 -0.950246
-26.776944 46.333339 -5.44504
-26.903736 46.88897 -4.642347
-26.4861 47.735729 -5.170334
-26.776944 46.333339 -5.44504
-26.55089 45.7742 -6.209016
-20.589251 66.72522 3.288957
-20.717213 65.404572 4.254169
-13.340561 64.489739 -27.421289
-13.737288 64.199933 -26.55431
-12.979243 63.271372 -27.582965
-13.340561 64.489739 -27.421289
-12.959031 61.780636 -26.952488
-12.979243 63.271372 -27.582965
-16.609106 37.594257 -13.541974
-17.012992 36.94001 -13.101876
-17.087041 38.852161 -13.371721
-16.157576 36.226647 -13.732206
-16.609106 37.594257 -13.541974
-16.231625 38.138798 -14.00205
-15.742439 34.863911 -13.936151
-16.157576 36.226647 -13.732206
-15.417818 35.461849 -14.444167
-15.742439 34.863911 -13.936151
-15.059663 36.100768 -14.998803
-15.417818 35.461849 -14.444167
-15.421941 37.410105 -14.746918
-14.764401 36.753963 -15.583333
-14.760279 34.805708 -15.280582
-15.059663 36.100768 -14.998803
-25.670918 47.779833 -7.105133
-26.088189 46.703819 -6.641056
-25.942037 48.256113 -6.437104
-25.220776 48.665503 -7.570192
-25.366929 47.113208 -7.774144
-25.670918 47.779833 -7.105133
-20.162943 71.530579 -0.869419
-20.236587 70.414417 0.288883
-20.554103 71.383587 -2.018397
-20.162943 71.530579 -0.869419
-20.048995 72.689625 -2.051506
-20.923189 71.176872 -3.150057
-21.037137 70.017826 -1.967971
-20.554103 71.383587 -2.018397
-21.227609 71.00785 -4.219779
-20.923189 71.176872 -3.150057
-21.471957 70.900101 -5.327935
-21.650571 69.703361 -4.207787
-21.227609 71.00785 -4.219779
-20.996113 72.723259 -14.380613
-20.998929 73.317631 -13.615177
-20.868933 72.242076 -15.204989
-20.735207 71.55714 -15.96056
-21.221493 71.318295 -14.136043
-20.996113 72.723259 -14.380613
-20.868933 72.242076 -15.204989
-26.533713 46.829786 4.229739
-26.791487 45.753344 4.760114
-26.194924 46.990834 5.329212
-26.849637 46.699079 3.079343
-26.533713 46.829786 4.229739
-26.253075 47.936569 3.64844
-27.1004 46.574045 2.007719
-26.849637 46.699079 3.079343
-26.783986 47.678052 1.424211
-27.315388 46.446236 0.933886
-27.1004 46.574045 2.007719
-13.703598 39.392125 -18.133722
-13.724224 37.552544 -17.831991
-13.946573 38.755059 -17.4133
-13.435719 39.950463 -18.855589
-13.703598 39.392125 -18.133722
-13.658068 41.152977 -18.436898
-13.224581 40.494724 -19.604881
-13.435719 39.950463 -18.855589
-13.224581 40.494724 -19.604881
-13.158987 42.379881 -19.92093
-12.707453 45.202648 -21.806783
-12.916291 44.789727 -21.023573
-12.678892 47.043194 -22.14164
-12.707453 45.202648 -21.806783
-12.697672 48.933476 -22.603921
-12.678892 47.043194 -22.14164
-12.923578 48.421287 -21.826331
-12.677419 50.585714 -23.070321
-12.697672 48.933476 -22.603921
-12.730655 52.244673 -23.522199
-12.677419 50.585714 -23.070321
-12.995594 51.970528 -22.74049
-12.736976 53.875674 -24.033007
-12.418801 52.49086 -24.362838
-12.730655 52.244673 -23.522199
-17.886958 37.327737 -12.531257
-17.4087 36.167766 -12.669397
-18.878079 37.600978 -11.949742
-19.385615 37.002584 -11.585759
-18.396483 38.366992 -12.351723
-18.878079 37.600978 -11.949742
-18.991572 39.51041 -12.170575
-18.000451 39.237169 -12.752089
-17.886958 37.327737 -12.531257
-18.396483 38.366992 -12.351723
-26.749625 44.787031 6.436013
-27.056745 44.756611 5.339584
-26.437776 44.724612 7.599002
-26.128313 44.624176 8.770603
-26.14085 45.851971 7.022576
-26.749625 44.787031 6.436013
-26.437776 44.724612 7.599002
-24.108077 46.818754 12.399936
-23.508874 47.880902 12.987281
-24.482727 46.829223 11.224804
-24.108077 46.818754 12.399936
-24.235059 48.031961 10.561481
-24.866262 46.845289 10.0049
-24.482727 46.829223 11.224804
-21.919306 52.62191 12.795604
-22.46628 51.503287 12.299498
-22.099663 51.418616 13.476216
-21.757662 53.855138 12.068855
-21.919306 52.62191 12.795604
-21.637334 55.040065 11.29313
-22.165595 53.891508 10.843161
-21.757662 53.855138 12.068855
-21.50791 56.33711 10.450132
-21.637334 55.040065 11.29313
-27.32723 46.655294 -2.414972
-26.965051 48.023291 -2.063953
-27.0096 47.661789 -2.958368
-27.672572 45.784403 -1.897336
-27.32723 46.655294 -2.414972
-26.992335 47.292576 -3.838514
-26.903736 46.88897 -4.642347
-24.995525 46.443031 -8.347497
-25.366929 47.113208 -7.774144
-24.571545 45.761994 -8.894783
-24.995525 46.443031 -8.347497
-24.492807 47.317841 -8.786489
-24.075976 45.007511 -9.367657
-24.571545 45.761994 -8.894783
-23.585012 44.218025 -9.782975
-24.075976 45.007511 -9.367657
-23.577863 45.847317 -9.749094
-23.028278 43.392015 -10.147181
-23.585012 44.218025 -9.782975
-22.434649 42.387525 -10.495901
-23.028278 43.392015 -10.147181
-22.49327 44.053341 -10.513133
-21.832207 41.397213 -10.76761
-22.434649 42.387525 -10.495901
-21.276688 42.007153 -11.125851
-21.209254 40.355514 -11.031608
-21.832207 41.397213 -10.76761
-20.989728 61.683859 7.017516
-21.112949 60.314923 7.936167
-20.933602 62.867073 6.075019
-20.84374 64.070086 5.184311
-21.443185 61.551203 5.856255
-20.989728 61.683859 7.017516
-20.933602 62.867073 6.075019
-20.4878 67.935897 2.323317
-20.368113 69.214519 1.268134
-21.032552 66.614067 2.087832
-20.589251 66.72522 3.288957
-20.4878 67.935897 2.323317
-21.717717 70.621274 -6.391296
-21.471957 70.900101 -5.327935
-21.621688 71.42508 -11.502491
-21.327545 72.336681 -12.506395
-21.642817 70.887875 -12.307762
-21.621688 71.42508 -11.502491
-21.892125 70.442193 -10.370165
-21.926105 70.2267 -7.375686
-22.079493 69.857289 -8.360597
-22.103308 69.201039 -6.300332
-21.717717 70.621274 -6.391296
-21.926105 70.2267 -7.375686
-17.555194 70.017956 -22.562261
-17.995936 69.508145 -21.633835
-17.184464 68.936149 -22.844864
-17.555194 70.017956 -22.562261
-16.780199 67.801246 -23.041846
-17.199841 67.407921 -22.206187
-17.184464 68.936149 -22.844864
-16.359773 66.805382 -23.32351
-16.780199 67.801246 -23.041846
-15.888216 65.858593 -23.63153
-16.324018 65.326229 -22.711189
-16.359773 66.805382 -23.32351
-15.456756 66.199421 -24.490429
-14.965369 66.476887 -25.426201
-15.421 64.720268 -23.878108
-15.888216 65.858593 -23.63153
-15.456756 66.199421 -24.490429
-13.737804 62.774832 -25.873288
-14.123075 63.976816 -25.722254
-13.737288 64.199933 -26.55431
-12.189229 56.12359 -26.282301
-12.162592 54.516239 -25.722251
-12.451759 55.729212 -25.433696
-12.189229 56.12359 -26.282301
-12.192599 57.652008 -26.824093
3 0 56 54
3 0 58 56
3 1 61 59
3 1 63 61
3 207 64 208
3 209 66 210
3 211 210 64
3 209 210 211
3 213 212 66
3 2 214 215
3 2 216 217
3 3 70 68
3 5 73 71
3 5 75 73
3 6 218 219
3 6 220 221
3 6 222 224
3 222 76 223
3 222 223 224
3 7 79 77
3 7 81 79
3 225 83 226
3 4 85 84
3 228 227 86
3 8 89 87
3 8 91 89
3 9 94 92
3 9 96 94
3 10 99 97
3 10 101 99
3 10 103 101
3 11 106 104
3 11 108 106
3 11 110 108
3 12 113 111
3 12 115 113
3 13 119 117
3 15 120 53
3 15 121 120
3 16 229 230
3 17 122 55
3 17 123 122
3 17 125 123
3 19 126 57
3 19 127 126
3 20 130 128
3 22 131 60
3 22 132 131
3 22 134 132
3 24 135 62
3 24 136 135
3 27 231 233
3 231 137 232
3 231 232 233
3 27 138 137
3 27 140 138
3 29 141 65
3 29 142 141
3 29 144 142
3 31 145 67
3 31 146 145
3 32 234 235
3 33 147 69
3 33 148 147
3 14 149 118
3 34 150 72
3 34 151 150
3 34 152 151
3 35 153 74
3 35 154 153
3 18 155 124
3 36 156 78
3 36 236 238
3 238 237 156
3 236 237 238
3 36 239 241
3 239 157 240
3 239 240 241
3 37 158 80
3 37 159 158
3 38 160 82
3 38 161 160
3 242 162 243
3 244 163 245
3 246 245 162
3 244 245 246
3 39 247 249
3 247 164 248
3 247 248 249
3 39 165 164
3 39 166 165
3 21 250 252
3 252 251 129
3 250 251 252
3 23 167 133
3 40 168 88
3 40 169 168
3 40 170 169
3 41 171 90
3 41 172 171
3 42 253 255
3 253 173 254
3 253 254 255
3 42 174 173
3 25 256 258
3 256 175 257
3 256 257 258
3 43 176 93
3 43 177 176
3 43 178 177
3 44 179 95
3 44 180 179
3 26 259 260
3 45 261 263
3 263 262 98
3 261 262 263
3 45 264 266
3 264 181 265
3 264 265 266
3 45 182 181
3 46 183 100
3 46 184 183
3 46 185 184
3 47 186 102
3 47 187 186
3 28 188 139
3 48 189 105
3 48 190 189
3 48 191 190
3 49 192 107
3 49 193 192
3 49 194 193
3 50 195 109
3 50 196 195
3 30 197 143
3 51 198 112
3 51 199 198
3 51 200 199
3 52 201 114
3 52 202 201
3 267 203 268
3 269 204 270
3 271 270 203
3 269 270 271
3 272 205 273
3 274 273 116
3 272 273 274
3 275 206 276
3 277 276 205
3 275 276 277
3 279 278 206
3 280 53 281
3 282 281 13
3 280 281 282
3 283 53 284
3 283 284 285
3 286 15 287
3 288 287 53
3 286 287 288
3 54 55 16
3 56 55 54
3 56 17 55
3 56 57 17
3 58 57 56
3 58 19 57
3 59 60 20
3 61 60 59
3 61 22 60
3 61 62 22
3 63 62 61
3 63 24 62
3 64 289 290
3 64 291 293
3 291 27 292
3 291 292 293
3 64 65 27
3 66 65 64
3 66 29 65
3 66 67 29
3 294 67 295
3 296 295 66
3 294 295 296
3 297 31 298
3 299 298 67
3 297 298 299
3 68 69 32
3 70 69 68
3 70 33 69
3 71 72 14
3 73 72 71
3 73 34 72
3 73 74 34
3 75 74 73
3 75 35 74
3 76 300 301
3 76 302 303
3 77 78 18
3 79 78 77
3 79 36 78
3 79 80 36
3 81 80 79
3 81 37 80
3 304 82 305
3 83 306 308
3 306 82 307
3 306 307 308
3 83 38 82
3 309 39 310
3 312 311 39
3 84 313 314
3 85 315 317
3 317 316 84
3 315 316 317
3 85 318 319
3 86 320 322
3 322 321 21
3 320 321 322
3 324 323 86
3 87 88 23
3 89 88 87
3 89 40 88
3 89 90 40
3 91 90 89
3 91 41 90
3 325 42 326
3 92 93 25
3 94 93 92
3 94 43 93
3 94 95 43
3 96 95 94
3 96 44 95
3 97 98 26
3 99 98 97
3 99 45 98
3 99 100 45
3 101 100 99
3 101 46 100
3 101 102 46
3 103 102 101
3 103 47 102
3 104 105 28
3 106 105 104
3 106 48 105
3 106 107 48
3 108 107 106
3 108 49 107
3 108 109 49
3 110 109 108
3 110 50 109
3 111 112 30
3 113 112 111
3 113 51 112
3 113 114 51
3 115 114 113
3 115 52 114
3 327 116 328
3 329 116 330
3 332 331 116
3 117 118 3
3 119 118 117
3 119 14 118
3 53 119 13
3 120 119 53
3 120 14 119
3 120 71 14
3 121 71 120
3 121 5 71
3 55 333 335
3 335 334 16
3 333 334 335
3 122 336 338
3 338 337 55
3 336 337 338
3 122 339 340
3 122 341 342
3 123 343 345
3 345 344 122
3 343 344 345
3 123 346 348
3 346 6 347
3 346 347 348
3 123 124 6
3 125 124 123
3 125 18 124
3 57 125 17
3 126 125 57
3 126 18 125
3 126 77 18
3 127 77 126
3 127 7 77
3 128 129 4
3 130 129 128
3 130 21 129
3 60 130 20
3 131 130 60
3 131 21 130
3 131 86 21
3 132 86 131
3 132 349 351
3 351 350 86
3 349 350 351
3 132 352 354
3 352 133 353
3 352 353 354
3 134 133 132
3 134 23 133
3 62 134 22
3 135 134 62
3 135 23 134
3 135 87 23
3 136 87 135
3 136 8 87
3 355 25 356
3 357 25 358
3 357 358 359
3 360 92 361
3 362 361 25
3 360 361 362
3 363 92 364
3 365 9 366
3 367 366 92
3 365 366 367
3 368 26 369
3 137 370 371
3 137 372 374
3 372 26 373
3 372 373 374
3 137 97 26
3 138 97 137
3 138 10 97
3 138 139 10
3 140 139 138
3 140 28 139
3 65 140 27
3 141 140 65
3 141 28 140
3 141 104 28
3 142 104 141
3 142 11 104
3 142 143 11
3 144 143 142
3 144 30 143
3 67 144 29
3 145 144 67
3 145 30 144
3 145 111 30
3 146 111 145
3 146 12 111
3 69 375 377
3 377 376 32
3 375 376 377
3 147 378 380
3 380 379 69
3 378 379 380
3 147 381 382
3 147 383 385
3 383 84 384
3 383 384 385
3 148 84 147
3 148 4 84
3 118 70 3
3 149 70 118
3 149 33 70
3 72 149 14
3 150 149 72
3 150 33 149
3 150 148 33
3 151 148 150
3 151 4 148
3 151 128 4
3 152 128 151
3 152 20 128
3 74 152 34
3 153 152 74
3 153 20 152
3 153 59 20
3 154 59 153
3 154 1 59
3 124 76 6
3 155 76 124
3 155 386 388
3 388 387 76
3 386 387 388
3 78 155 18
3 156 155 78
3 156 389 391
3 391 390 155
3 389 390 391
3 156 392 393
3 395 394 156
3 157 396 397
3 157 398 399
3 80 157 36
3 158 157 80
3 158 400 402
3 402 401 157
3 400 401 402
3 158 403 404
3 159 405 407
3 407 406 158
3 405 406 407
3 159 408 410
3 408 2 409
3 408 409 410
3 411 16 412
3 82 413 414
3 160 415 417
3 417 416 82
3 415 416 417
3 160 418 420
3 418 16 419
3 418 419 420
3 160 54 16
3 161 54 160
3 161 0 54
3 421 32 422
3 162 423 424
3 162 425 427
3 425 32 426
3 425 426 427
3 162 68 32
3 163 68 162
3 163 3 68
3 164 428 429
3 164 430 431
3 164 432 434
3 432 163 433
3 432 433 434
3 165 163 164
3 165 3 163
3 165 117 3
3 166 117 165
3 166 13 117
3 435 166 436
3 437 436 39
3 435 436 437
3 438 166 439
3 440 13 441
3 442 441 166
3 440 441 442
3 444 443 13
3 129 85 4
3 445 85 446
3 447 446 129
3 445 446 447
3 449 448 85
3 451 450 21
3 133 452 453
3 167 454 456
3 456 455 133
3 454 455 456
3 167 457 458
3 88 167 23
3 168 167 88
3 168 459 461
3 461 460 167
3 459 460 461
3 168 462 463
3 169 464 466
3 466 465 168
3 464 465 466
3 169 467 468
3 169 469 471
3 469 83 470
3 469 470 471
3 170 83 169
3 170 38 83
3 90 170 40
3 171 170 90
3 171 38 170
3 171 161 38
3 172 161 171
3 172 0 161
3 472 15 473
3 173 474 475
3 173 476 478
3 476 15 477
3 476 477 478
3 173 121 15
3 174 121 173
3 174 5 121
3 175 479 480
3 175 481 483
3 481 42 482
3 481 482 483
3 93 175 25
3 176 175 93
3 176 42 175
3 176 174 42
3 177 174 176
3 177 5 174
3 177 75 5
3 178 75 177
3 178 35 75
3 95 178 43
3 179 178 95
3 179 35 178
3 179 154 35
3 180 154 179
3 180 1 154
3 484 9 485
3 98 486 488
3 488 487 26
3 486 487 488
3 490 489 98
3 181 491 492
3 181 493 495
3 493 9 494
3 493 494 495
3 181 96 9
3 182 96 181
3 182 44 96
3 100 182 45
3 183 182 100
3 183 44 182
3 183 180 44
3 184 180 183
3 184 1 180
3 184 63 1
3 185 63 184
3 185 24 63
3 102 185 46
3 186 185 102
3 186 24 185
3 186 136 24
3 187 136 186
3 187 8 136
3 139 103 10
3 188 103 139
3 188 47 103
3 105 188 28
3 189 188 105
3 189 47 188
3 189 187 47
3 190 187 189
3 190 8 187
3 190 91 8
3 191 91 190
3 191 41 91
3 107 191 48
3 192 191 107
3 192 41 191
3 192 172 41
3 193 172 192
3 193 0 172
3 193 58 0
3 194 58 193
3 194 19 58
3 109 194 49
3 195 194 109
3 195 19 194
3 195 127 19
3 196 127 195
3 196 7 127
3 143 110 11
3 197 110 143
3 197 50 110
3 112 197 30
3 198 197 112
3 198 50 197
3 198 196 50
3 199 196 198
3 199 7 196
3 199 81 7
3 200 81 199
3 200 37 81
3 114 200 51
3 201 200 114
3 201 37 200
3 201 159 37
3 202 159 201
3 202 2 159
3 496 31 497
3 498 31 499
3 500 146 501
3 502 501 31
3 500 501 502
3 503 146 504
3 505 12 506
3 507 506 146
3 505 506 507
3 203 508 509
3 203 510 512
3 510 12 511
3 510 511 512
3 203 115 12
3 204 115 203
3 204 52 115
3 116 513 515
3 513 204 514
3 513 514 515
3 205 204 116
3 205 52 204
3 205 202 52
3 206 202 205
3 206 2 202
3 206 516 518
3 518 517 2
3 516 517 518
3 520 519 206
