ply
format ascii 1.0
element vertex 102
property float x
property float y
property float z
element face 85
property list uchar int vertex_index
end_header
0.423336 17.603806 -62.421833
-1.640563 25.407806 -59.031521
0.437144 23.057316 -62.082024
2.84094 26.296265 -64.370979
2.620105 21.305305 -65.465645
-0.470918 26.632061 -60.158085
-0.613415 24.023605 -60.498299
0.592884 25.597519 -61.740742
2.64557 23.762403 -64.968193
3.755447 23.107164 -66.562958
3.65845 20.414907 -66.953957
-1.665395 22.489956 -59.290443
-0.583659 21.457338 -60.823738
0.436055 20.464916 -62.386433
1.801364 27.241745 -62.712559
1.646808 24.646366 -63.389301
1.496361 21.950258 -63.7757
1.440402 19.408958 -63.970051
2.459088 18.73555 -65.502724
0.446334 16.268959 -62.364165
-0.040701 16.669163 -61.619661
0.923825 17.154463 -63.194433
0.446334 16.268959 -62.364165
0.159941 27.405734 -60.655071
-0.412361 27.962804 -59.84022
0.691842 26.888463 -61.4464
0.060983 26.11479 -60.949413
0.159941 27.405734 -60.655071
4.474355 23.895283 -67.129612
3.861464 24.286 -66.307098
4.377477 22.689072 -67.373306
4.474355 23.895283 -67.129612
-2.193862 26.099187 -58.351087
-1.60842 26.740454 -58.823519
-2.186643 24.70609 -58.485968
-2.193862 26.099187 -58.351087
-1.652979 23.948881 -59.160982
-2.199059 23.247165 -58.615429
-2.186643 24.70609 -58.485968
2.94748 27.411211 -63.98044
3.55547 26.99964 -64.869648
2.321152 26.769005 -63.541769
2.427691 27.883951 -63.15123
2.94748 27.411211 -63.98044
3.584326 19.054774 -66.953179
4.251371 19.991944 -67.68726
-1.023597 27.352581 -59.386801
-0.412361 27.962804 -59.84022
-1.05574 26.019934 -59.594803
-1.60842 26.740454 -58.823519
-1.023597 27.352581 -59.386801
3.40421 25.88055 -65.211109
3.55547 26.99964 -64.869648
3.306526 24.613619 -65.509716
2.743255 25.029334 -64.669586
3.40421 25.88055 -65.211109
3.200509 23.434784 -65.765575
3.306526 24.613619 -65.509716
3.861464 24.286 -66.307098
4.328978 21.342943 -67.568806
3.706949 21.761035 -66.758457
4.377477 22.689072 -67.373306
4.921899 20.91998 -68.302109
4.251371 19.991944 -67.68726
4.328978 21.342943 -67.568806
-0.041982 18.099484 -61.710476
-0.040701 16.669163 -61.619661
-2.140883 21.789479 -58.713663
-2.199059 23.247165 -58.615429
-1.581719 21.118573 -59.433203
-2.140883 21.789479 -58.713663
-1.040851 20.602264 -60.19985
-1.581719 21.118573 -59.433203
-1.124527 21.973647 -60.057091
-0.54548 20.02625 -60.911428
-1.040851 20.602264 -60.19985
-0.035622 19.53004 -61.692776
-0.54548 20.02625 -60.911428
-0.073802 20.961127 -61.605086
0.429696 19.034361 -62.404133
-0.041982 18.099484 -61.710476
-0.035622 19.53004 -61.692776
1.930536 28.473492 -62.299871
2.427691 27.883951 -63.15123
1.296082 27.710576 -61.932308
1.930536 28.473492 -62.299871
1.197124 26.419632 -62.22665
0.691842 26.888463 -61.4464
1.296082 27.710576 -61.932308
1.432358 18.057039 -63.968542
0.923825 17.154463 -63.194433
0.931869 18.506382 -63.195942
1.941701 17.720335 -64.734879
1.432358 18.057039 -63.968542
1.949745 19.072254 -64.736388
2.432911 17.324765 -65.457657
1.941701 17.720335 -64.734879
2.984645 18.215096 -66.227562
3.058769 19.575229 -66.228341
3.584326 19.054774 -66.953179
2.432911 17.324765 -65.457657
2.984645 18.215096 -66.227562
3 0 19 20
3 0 21 22
3 23 5 24
3 25 7 26
3 27 26 5
3 25 26 27
3 28 9 29
3 31 30 9
3 1 32 33
3 1 34 35
3 1 36 38
3 36 11 37
3 36 37 38
3 2 12 6
3 2 13 12
3 3 39 40
3 3 41 43
3 41 14 42
3 41 42 43
3 3 15 14
3 4 16 8
3 4 17 16
3 4 18 17
3 45 44 10
3 5 46 47
3 5 48 50
3 48 1 49
3 48 49 50
3 5 6 1
3 7 6 5
3 7 2 6
3 51 3 52
3 53 8 54
3 55 54 3
3 53 54 55
3 9 56 58
3 56 8 57
3 56 57 58
3 9 4 8
3 9 10 4
3 59 10 60
3 61 60 9
3 59 60 61
3 64 63 10
3 62 63 64
3 65 0 66
3 11 67 68
3 11 69 70
3 6 11 1
3 12 11 6
3 12 71 73
3 73 72 11
3 71 72 73
3 12 74 75
3 13 76 78
3 78 77 12
3 76 77 78
3 13 79 81
3 79 0 80
3 79 80 81
3 14 82 83
3 14 84 85
3 14 86 88
3 86 7 87
3 86 87 88
3 15 7 14
3 15 2 7
3 8 15 3
3 16 15 8
3 16 2 15
3 16 13 2
3 17 13 16
3 17 0 13
3 17 89 91
3 91 90 0
3 89 90 91
3 18 92 94
3 94 93 17
3 92 93 94
3 18 95 96
3 10 18 4
3 97 18 98
3 99 98 10
3 97 98 99
3 101 100 18
