ply
format ascii 1.0
element vertex 100
property float x
property float y
property float z
element face 80
property list uchar int vertex_index
end_header
-0.045904 22.555712 -63.190388
0.154303 27.315212 -61.356823
-2.496759 26.193531 -64.757339
-2.671069 21.888338 -66.625435
-1.209497 30.978241 -60.665501
0.066434 24.963915 -62.350761
-1.211174 26.769709 -63.08247
-1.18924 24.592184 -64.005333
-2.599216 24.143456 -65.804916
-1.284287 22.210264 -64.881927
0.224241 29.59638 -60.248619
-1.160645 28.832415 -61.933243
-2.62936 28.3508 -63.631386
-4.097815 21.582096 -68.187332
-1.538482 19.825554 -65.681824
-2.867174 19.597662 -67.308289
-0.517215 31.385143 -59.910983
-1.285961 32.034866 -60.005791
0.010265 23.759813 -62.770574
0.649133 23.930181 -61.894081
0.592964 22.72608 -62.313895
0.762349 27.680467 -60.590231
0.725688 26.366259 -61.052448
0.189272 28.455796 -60.802721
0.797318 28.821051 -60.036129
0.762349 27.680467 -60.590231
-3.262734 27.072729 -64.968357
-3.329035 28.151364 -64.40538
-2.56306 27.272165 -64.194362
-3.214853 26.095992 -65.531689
-3.262734 27.072729 -64.968357
-3.376651 22.892059 -67.026577
-3.340724 24.019618 -66.616318
-2.635143 23.015897 -66.215176
-3.384442 21.735217 -67.406384
-4.090024 22.738937 -67.807525
-3.376651 22.892059 -67.026577
-1.001151 18.820321 -65.049405
-0.90406 20.009218 -64.812258
-2.977549 18.450705 -67.538937
-2.283821 18.578243 -66.707478
-3.574228 19.441029 -68.052788
-2.977549 18.450705 -67.538937
-1.983935 31.685847 -60.692452
-1.285961 32.034866 -60.005791
-1.903576 30.711638 -61.403023
-1.983935 31.685847 -60.692452
0.681753 25.19061 -61.549418
0.649133 23.930181 -61.894081
0.110368 26.139564 -61.853792
0.725688 26.366259 -61.052448
0.681753 25.19061 -61.549418
0.474467 21.490147 -62.663083
0.592964 22.72608 -62.313895
-0.157771 21.374297 -63.56654
0.474467 21.490147 -62.663083
0.896547 30.058765 -59.473734
0.797318 28.821051 -60.036129
0.199654 30.694213 -59.702541
0.896547 30.058765 -59.473734
-0.492628 30.287311 -60.45706
-0.517215 31.385143 -59.910983
0.199654 30.694213 -59.702541
-1.87915 29.638725 -62.036894
-1.903576 30.711638 -61.403023
-1.185071 29.905328 -61.299372
-2.613507 29.397918 -62.885965
-1.87915 29.638725 -62.036894
-1.895002 28.591608 -62.782314
-3.307164 29.114526 -63.661457
-2.613507 29.397918 -62.885965
-3.307164 29.114526 -63.661457
-3.329035 28.151364 -64.40538
-3.266081 25.070954 -66.055477
-3.214853 26.095992 -65.531689
-2.547988 25.168494 -65.281127
-3.266081 25.070954 -66.055477
-3.340724 24.019618 -66.616318
-4.840889 22.5931 -68.50954
-4.090024 22.738937 -67.807525
-4.861139 21.491328 -68.861385
-5.604213 22.502331 -69.183594
-4.840889 22.5931 -68.50954
-0.776963 21.201573 -64.41231
-0.665095 22.382988 -64.036158
-0.157771 21.374297 -63.56654
-1.411385 21.017909 -65.281876
-0.776963 21.201573 -64.41231
-0.90406 20.009218 -64.812258
-1.619474 18.692189 -65.894246
-1.001151 18.820321 -65.049405
-2.202828 19.711608 -66.495057
-1.619474 18.692189 -65.894246
-2.283821 18.578243 -66.707478
-4.189548 20.433246 -68.49231
-3.482494 20.589879 -67.74781
-3.574228 19.441029 -68.052788
-4.952872 20.342478 -69.166363
-4.861139 21.491328 -68.861385
-4.189548 20.433246 -68.49231
3 16 4 17
3 0 18 20
3 18 5 19
3 18 19 20
3 0 7 5
3 0 9 7
3 1 21 22
3 1 23 25
3 23 10 24
3 23 24 25
3 1 11 10
3 2 12 6
3 2 26 28
3 28 27 12
3 26 27 28
3 2 29 30
3 3 31 33
3 33 32 8
3 31 32 33
3 3 34 36
3 34 13 35
3 34 35 36
3 37 14 38
3 39 15 40
3 42 41 15
3 4 43 44
3 4 45 46
3 5 47 48
3 5 49 51
3 49 1 50
3 49 50 51
3 5 6 1
3 7 6 5
3 7 2 6
3 7 8 2
3 9 8 7
3 9 3 8
3 52 0 53
3 55 54 0
3 10 56 57
3 10 58 59
3 10 60 62
3 60 4 61
3 60 61 62
3 11 4 10
3 11 63 65
3 65 64 4
3 63 64 65
3 6 11 1
3 12 11 6
3 12 66 68
3 68 67 11
3 66 67 68
3 12 69 70
3 72 71 12
3 8 73 75
3 75 74 2
3 73 74 75
3 77 76 8
3 13 78 79
3 13 80 82
3 80 81 82
3 83 9 84
3 85 84 0
3 83 84 85
3 14 86 88
3 86 9 87
3 86 87 88
3 14 3 9
3 89 14 90
3 15 91 93
3 91 14 92
3 91 92 93
3 15 3 14
3 15 13 3
3 94 13 95
3 96 95 15
3 94 95 96
3 99 98 13
3 97 98 99
