ply
format ascii 1.0
element vertex 254
property float x
property float y
property float z
element face 250
property list uchar int vertex_index
end_header
-15.472306 20.639458 -13.92986
-18.007877 7.659054 -12.466965
-18.0562 13.802598 -18.963219
-18.624992 20.254309 -27.019445
-18.463007 5.149936 -10.052222
-17.229885 11.084056 -10.922724
-16.230066 16.608232 -15.998266
-16.190016 19.445681 -19.333155
-18.339746 16.929882 -22.7379
-16.212175 22.463911 -23.036602
-16.180943 25.545992 -27.059589
-16.327145 17.919907 -11.827921
-20.105057 -0.186176 -9.313561
-19.78841 2.471994 -11.942013
-19.885981 5.477718 -15.039108
-16.545025 13.870604 -13.204623
-17.879644 10.739916 -15.518682
-20.310457 8.561144 -18.545399
-17.680931 10.016174 -9.983852
-17.260456 13.346479 -10.407122
-15.379498 21.401518 -17.92137
-15.278069 22.798264 -19.421021
-16.167105 21.002132 -21.078781
-15.265424 24.079512 -21.217133
-15.2485 25.413963 -23.072367
-20.448156 -1.321406 -8.158638
-19.573792 1.341 -8.623466
-18.187748 6.366603 -11.236007
-18.939486 3.784047 -10.903828
-18.899349 4.935702 -12.30174
-19.823906 3.832954 -13.3978
-18.781252 6.472972 -13.627369
-15.871095 19.315071 -12.786996
-16.281216 15.923846 -12.44264
-15.955761 17.196974 -13.574436
-17.022732 14.99946 -17.32328
-17.028635 13.557409 -15.774843
-18.021559 12.057032 -17.191223
-18.992441 9.394492 -16.877457
-19.099089 11.037191 -18.608725
-20.484564 10.297009 -20.415476
-19.350479 12.591399 -20.554586
-18.467791 18.599268 -24.796453
-18.854284 3.98446 -9.093593
-18.213932 6.96517 -9.51785
-17.812361 7.961078 -10.502017
-17.461205 9.355723 -11.584221
-15.139335 22.038509 -15.216558
-15.683294 18.643145 -14.938807
-15.497595 19.997566 -16.303665
-16.110556 18.263489 -17.575699
-17.05678 16.529177 -19.037724
-18.243303 15.249807 -20.823168
-17.180286 17.907843 -20.852716
-17.22645 19.573307 -22.790682
-17.295561 21.22258 -24.884769
-17.382967 22.796227 -27.066935
-16.221636 23.984699 -25.035986
-19.228737 2.400791 -9.719756
-19.854162 1.188882 -10.597087
-20.902803 3.205958 -14.737059
-21.213978 4.71208 -16.545692
-16.740219 14.422385 -11.3614
-16.818712 12.578685 -12.040328
-17.264912 10.547316 -12.837445
-16.34495 15.244954 -14.526538
-17.053362 12.201303 -14.220966
-17.911816 9.189933 -13.990303
-18.882116 7.851509 -15.208751
-20.042727 7.115457 -16.792494
-19.4585 14.378564 -22.489334
-17.315573 24.415728 -29.045631
-17.43298 14.478929 -10.21648
-17.58993 12.796636 -9.969098
-14.914136 24.483712 -19.631842
-14.972991 23.86223 -18.782696
-14.907813 25.124336 -20.529898
-15.271746 23.438888 -20.319077
-14.914136 24.483712 -19.631842
-14.848757 25.808464 -21.396235
-14.907813 25.124336 -20.529898
-19.482844 2.106871 -8.375298
-19.836162 0.802789 -8.120703
-19.224495 19.08444 -26.924861
-19.145895 18.256919 -25.813365
-18.546391 19.426789 -25.907949
-19.309719 19.956001 -28.088577
-19.224495 19.08444 -26.924861
-18.636323 21.109116 -28.09966
-19.309719 19.956001 -28.088577
-18.250962 7.946339 -9.296782
-18.519226 6.310109 -9.040012
-15.190857 21.715492 -16.470864
-15.318465 21.018037 -15.760111
-15.011727 22.735964 -15.92731
-15.209711 26.18786 -24.054108
-14.781186 27.161991 -23.186217
-20.591981 -1.396086 -9.12017
-20.763531 -1.963701 -8.542708
-20.276606 -0.753791 -8.736099
-20.49118 -0.740105 -9.778996
-20.591981 -1.396086 -9.12017
-20.283735 1.328467 -11.811347
-20.316611 0.686911 -11.138884
-19.821286 1.830438 -11.26955
-20.340775 2.00841 -12.57723
-20.283735 1.328467 -11.811347
-16.533682 16.171146 -11.59466
-16.811202 15.602132 -11.136074
-16.604665 17.350893 -11.369335
-20.860148 7.484604 -18.438716
-20.726282 6.76176 -17.562264
-20.176592 7.838301 -17.668947
-21.017485 8.349889 -19.438975
-20.860148 7.484604 -18.438716
-21.226741 10.145957 -21.397191
-20.57047 11.266056 -21.465713
-17.800167 11.131484 -9.757462
-17.984461 9.471841 -9.529784
-17.470694 11.681327 -10.195487
-17.800167 11.131484 -9.757462
-17.58993 12.796636 -9.969098
-15.023706 23.163857 -18.032871
-15.131809 22.417468 -17.279716
-15.328784 22.099891 -18.671195
-15.023706 23.163857 -18.032871
-14.972991 23.86223 -18.782696
-14.840295 26.47569 -22.323853
-15.256962 24.746738 -22.14475
-14.848757 25.808464 -21.396235
-14.781186 27.161991 -23.186217
-14.840295 26.47569 -22.323853
-20.273344 -0.528415 -7.888288
-20.700972 -1.868329 -7.656833
-20.010974 0.009797 -8.391052
-20.273344 -0.528415 -7.888288
-19.836162 0.802789 -8.120703
-20.003428 12.413251 -21.535267
-20.57047 11.266056 -21.465713
-19.917521 11.444204 -20.485031
-19.082397 17.344467 -24.72417
-19.018374 16.509774 -23.694894
-18.403768 17.764575 -23.767176
-19.082397 17.344467 -24.72417
-19.145895 18.256919 -25.813365
-16.141689 26.348141 -28.131005
-15.660952 26.96098 -27.128702
-18.839402 4.819754 -8.827884
-19.123089 3.428601 -8.610361
-18.534108 5.474815 -9.305722
-18.839402 4.819754 -8.827884
-18.519226 6.310109 -9.040012
-17.947432 8.490672 -9.750851
-18.250962 7.946339 -9.296782
-17.984461 9.471841 -9.529784
-15.438547 20.699542 -17.112517
-15.190857 21.715492 -16.470864
-15.131809 22.417468 -17.279716
-15.696279 25.473228 -25.035918
-15.735068 24.699331 -24.054177
-15.209711 26.18786 -24.054108
-15.675932 26.253874 -26.047719
-16.20129 24.765345 -26.047787
-15.696279 25.473228 -25.035918
-15.660952 26.96098 -27.128702
-15.675932 26.253874 -26.047719
-16.483241 19.093677 -11.588578
-16.604665 17.350893 -11.369335
-16.179817 19.760039 -12.04204
-16.483241 19.093677 -11.588578
-15.951792 20.457622 -12.521578
-16.09912 18.617489 -12.307458
-16.179817 19.760039 -12.04204
-15.697717 21.088161 -13.016538
-15.951792 20.457622 -12.521578
-15.498323 21.750355 -13.587969
-15.671701 19.977265 -13.358428
-15.697717 21.088161 -13.016538
-15.25754 22.471982 -14.205346
-15.498323 21.750355 -13.587969
-15.091054 23.171508 -14.848695
-15.30582 21.338984 -14.573209
-15.25754 22.471982 -14.205346
-14.916939 23.838093 -15.417278
-15.091054 23.171508 -14.848695
-15.011727 22.735964 -15.92731
-14.916939 23.838093 -15.417278
-20.919964 -2.515421 -7.959491
-20.700972 -1.868329 -7.656833
-20.919964 -2.515421 -7.959491
-20.763531 -1.963701 -8.542708
-19.214038 2.66273 -8.858529
-19.482844 2.106871 -8.375298
-19.123089 3.428601 -8.610361
-20.365733 -0.052576 -10.420758
-20.49118 -0.740105 -9.778996
-19.979609 0.501353 -9.955324
-20.365733 -0.052576 -10.420758
-20.316611 0.686911 -11.138884
-20.358522 2.68889 -13.305124
-20.340775 2.00841 -12.57723
-19.806158 3.152474 -12.669906
-20.897971 2.375392 -13.974753
-20.358522 2.68889 -13.305124
-20.363354 3.519456 -14.067429
-21.506324 2.118585 -14.66911
-20.897971 2.375392 -13.974753
-21.638212 2.909904 -15.536604
-21.506324 2.118585 -14.66911
-21.793799 3.662966 -16.44092
-21.638212 2.909904 -15.536604
-21.058391 3.959019 -15.641375
-21.956902 4.543052 -17.416821
-21.793799 3.662966 -16.44092
-17.07132 15.064179 -10.658935
-17.43298 14.478929 -10.21648
-17.000338 13.884432 -10.884261
-17.07132 15.064179 -10.658935
-16.811202 15.602132 -11.136074
-21.311908 5.560072 -17.438862
-20.628352 5.913768 -16.669093
-20.726282 6.76176 -17.562264
-21.956902 4.543052 -17.416821
-21.311908 5.560072 -17.438862
-21.104538 9.217822 -20.374013
-21.017485 8.349889 -19.438975
-20.39751 9.429077 -19.480438
-21.104538 9.217822 -20.374013
-21.226741 10.145957 -21.397191
-20.057438 13.306833 -22.502641
-20.003428 12.413251 -21.535267
-19.40449 13.484981 -21.52196
-19.577751 15.234115 -23.570611
-18.899123 15.654223 -22.613617
-19.018374 16.509774 -23.694894
-20.170924 14.138891 -23.491888
-19.577751 15.234115 -23.570611
-20.057438 13.306833 -22.502641
-20.170924 14.138891 -23.491888
-18.015311 22.380075 -28.123404
-18.636323 21.109116 -28.09966
-18.003979 21.525268 -27.04319
-17.981614 23.189826 -29.112752
-18.015311 22.380075 -28.123404
-17.34927 23.605978 -28.056283
-17.955748 24.065855 -30.24615
-17.981614 23.189826 -29.112752
-16.709004 25.783009 -29.124026
-16.748258 24.98086 -28.05261
-16.141689 26.348141 -28.131005
-17.270421 25.226035 -30.123582
-16.709004 25.783009 -29.124026
-17.955748 24.065855 -30.24615
-17.270421 25.226035 -30.123582
3 72 19 73
3 74 21 75
3 76 23 77
3 78 77 21
3 76 77 78
3 80 79 23
3 81 26 82
3 1 29 27
3 1 31 29
3 0 34 32
3 2 37 35
3 2 39 37
3 2 41 39
3 3 83 85
3 85 84 42
3 83 84 85
3 3 86 87
3 3 88 89
3 90 44 91
3 5 45 18
3 5 46 45
3 92 49 93
3 94 93 47
3 92 93 94
3 7 50 20
3 7 51 50
3 7 53 51
3 9 54 22
3 9 55 54
3 9 57 55
3 96 95 24
3 12 97 99
3 99 98 25
3 97 98 99
3 12 100 101
3 4 58 43
3 13 59 28
3 13 102 104
3 104 103 59
3 102 103 104
3 13 105 106
3 14 60 30
3 14 61 60
3 11 107 109
3 107 62 108
3 107 108 109
3 15 63 33
3 15 64 63
3 6 65 48
3 16 66 36
3 16 67 66
3 16 68 67
3 17 69 38
3 17 110 112
3 112 111 69
3 110 111 112
3 17 113 114
3 116 115 40
3 8 70 52
3 10 71 56
3 117 18 118
3 19 119 121
3 119 18 120
3 119 120 121
3 19 5 18
3 122 20 123
3 21 124 126
3 124 20 125
3 124 125 126
3 21 7 20
3 21 22 7
3 23 22 21
3 23 9 22
3 23 24 9
3 127 24 128
3 129 128 23
3 127 128 129
3 131 130 24
3 132 25 133
3 26 134 136
3 134 25 135
3 134 135 136
3 26 12 25
3 27 28 4
3 29 28 27
3 29 13 28
3 29 30 13
3 31 30 29
3 31 14 30
3 32 33 11
3 34 33 32
3 34 15 33
3 35 36 6
3 37 36 35
3 37 16 36
3 37 38 16
3 39 38 37
3 39 17 38
3 39 40 17
3 41 40 39
3 41 137 139
3 139 138 40
3 137 138 139
3 42 140 142
3 142 141 8
3 140 141 142
3 144 143 42
3 146 145 10
3 147 43 148
3 44 149 151
3 149 43 150
3 149 150 151
3 44 4 43
3 18 152 154
3 152 44 153
3 152 153 154
3 45 44 18
3 45 4 44
3 45 27 4
3 46 27 45
3 46 1 27
3 47 48 0
3 49 48 47
3 49 6 48
3 20 155 157
3 155 49 156
3 155 156 157
3 50 49 20
3 50 6 49
3 50 35 6
3 51 35 50
3 51 2 35
3 51 52 2
3 53 52 51
3 53 8 52
3 22 53 7
3 54 53 22
3 54 8 53
3 54 42 8
3 55 42 54
3 55 3 42
3 55 56 3
3 57 56 55
3 57 10 56
3 24 57 9
3 158 57 159
3 160 159 24
3 158 159 160
3 161 10 162
3 163 162 57
3 161 162 163
3 165 164 10
3 166 11 167
3 168 11 169
3 170 32 171
3 172 171 11
3 170 171 172
3 173 32 174
3 175 0 176
3 177 176 32
3 175 176 177
3 178 0 179
3 180 47 181
3 182 181 0
3 180 181 182
3 183 47 184
3 186 185 47
3 25 187 188
3 190 189 25
3 43 191 193
3 191 26 192
3 191 192 193
3 58 26 43
3 58 12 26
3 28 58 4
3 59 58 28
3 59 12 58
3 59 194 196
3 196 195 12
3 194 195 196
3 198 197 59
3 30 199 201
3 201 200 13
3 199 200 201
3 60 202 204
3 204 203 30
3 202 203 204
3 60 205 206
3 60 207 208
3 61 209 211
3 211 210 60
3 209 210 211
3 61 212 213
3 214 19 215
3 62 216 218
3 216 19 217
3 216 217 218
3 62 5 19
3 33 62 11
3 63 62 33
3 63 5 62
3 63 46 5
3 64 46 63
3 64 1 46
3 48 34 0
3 65 34 48
3 65 15 34
3 36 65 6
3 66 65 36
3 66 15 65
3 66 64 15
3 67 64 66
3 67 1 64
3 67 31 1
3 68 31 67
3 68 14 31
3 38 68 16
3 69 68 38
3 69 14 68
3 69 61 14
3 219 61 220
3 221 220 69
3 219 220 221
3 223 222 61
3 40 224 226
3 226 225 17
3 224 225 226
3 228 227 40
3 52 41 2
3 70 41 52
3 70 229 231
3 231 230 41
3 229 230 231
3 232 70 233
3 234 233 8
3 232 233 234
3 235 70 236
3 238 237 70
3 56 239 241
3 241 240 3
3 239 240 241
3 71 242 244
3 244 243 56
3 242 243 244
3 71 245 246
3 247 71 248
3 249 248 10
3 247 248 249
3 250 71 251
3 253 252 71
