ply
format ascii 1.0
element vertex 954
property float x
property float y
property float z
element face 1093
property list uchar int vertex_index
end_header
-1.705941 -19.812298 63.275246
-18.701809 -20.501606 72.546547
-29.876299 -34.131741 56.108456
-25.187193 -38.723969 69.342018
32.180099 13.522241 26.477575
23.421862 -1.185511 40.966125
-30.449402 -25.322344 62.964272
-25.796379 -19.191626 72.919617
-22.731609 -29.296371 72.574257
-28.348089 -28.200466 69.758018
-29.182905 -37.098438 63.974663
28.135628 6.579226 34.027905
21.810205 5.548728 40.891373
4.135614 -12.13059 59.07626
11.61523 -10.653358 52.686611
-4.25333 -13.161744 64.99894
-10.288034 -20.637838 68.845894
-12.818124 -12.774395 69.919685
-14.865417 -29.061817 70.875069
-18.25012 -38.324852 70.266357
34.050816 5.806372 27.990456
16.950853 -2.571486 47.445637
18.242695 -9.286576 46.274136
-30.483871 -20.748341 66.086426
-27.289171 -23.501492 71.804977
-29.345491 -22.568254 69.416832
-29.794418 -27.127285 66.778038
1.061275 -15.966891 61.372028
5.097715 -15.398157 58.124195
-8.447008 -12.97634 67.537064
-0.96522 -9.326559 62.582115
-29.560789 -32.412601 51.76609
-14.607885 -20.80146 71.01075
-12.822462 -24.628128 70.17421
-16.967342 -24.756392 71.938988
-23.984638 -34.037586 71.387917
-20.525028 -33.956154 71.699799
-21.929878 -38.600021 70.43013
-19.682014 -42.951805 68.822365
-23.275126 -43.380688 68.259689
-26.067099 -43.412228 66.610977
-29.844246 -35.648846 60.223473
33.132675 9.78984 27.240597
25.834152 2.76808 37.637169
28.808155 2.772061 34.730026
26.498531 -0.97583 38.003254
24.121769 -4.716884 40.773125
16.335743 0.84257 47.485794
13.646678 -3.237981 50.611561
12.167231 -14.02774 51.61377
14.950627 -9.988445 49.49762
-30.148619 -29.921597 59.612709
-29.903419 -28.067541 55.166107
-30.406401 -23.663631 58.73645
-22.415789 -20.094465 73.264671
-20.846024 -24.764627 72.931
-24.442186 -24.392229 72.944099
-25.877222 -28.90975 71.817986
-26.935791 -33.577995 69.82058
-27.569595 -38.21994 67.246864
-28.834593 -32.671753 67.240555
-29.853804 -31.604109 63.752811
30.243853 10.0481 30.374304
27.012207 10.042154 33.893505
24.86805 6.277596 37.486397
22.600655 2.188484 40.98761
7.123706 -8.213927 56.601154
10.890697 -7.344146 53.399223
7.846816 -11.386353 56.044418
8.684786 -14.698462 54.959774
-3.098703 -16.461046 64.361488
-6.062756 -20.232412 66.310081
-7.461201 -16.718571 67.13047
-11.731345 -16.872232 69.516716
-15.831589 -16.478472 71.445625
-19.90097 -15.875595 72.826012
3.145173 -8.887344 59.680485
-0.083357 -12.666403 62.207878
-8.460896 -24.316534 67.743202
-10.731577 -28.345467 68.85582
-12.601657 -32.701527 69.352112
-18.980417 -29.389965 72.200577
-16.716722 -33.618279 70.956581
-14.243626 -37.508942 69.158791
-15.740176 -42.184998 68.241501
34.764698 1.760077 28.689371
31.198622 6.370347 30.93722
31.910122 2.526363 31.660109
19.480726 1.623837 44.240585
20.350273 -1.620867 44.016579
14.402196 -6.554708 50.175835
17.735773 -5.781455 46.948166
20.982195 -5.099513 43.768402
-30.005152 -21.77689 67.907188
-0.361705 -17.945011 62.363953
1.603354 -17.501514 60.849148
0.388691 -19.525158 61.652359
-29.797871 -36.07457 54.407066
-29.655348 -35.347607 52.160301
-29.748796 -33.385689 54.020523
-16.706627 -20.554874 71.871635
-15.82087 -22.63381 71.540749
-17.8123 -22.617956 72.262871
-24.677746 -36.459999 70.416985
-23.066412 -36.271362 70.98864
-23.621059 -38.637447 70.080643
-22.569187 -40.99855 69.463722
-24.286749 -41.012413 68.905762
-24.800385 -43.420578 67.558525
-25.707458 -40.965652 68.065895
-29.922941 -34.841213 58.151684
-29.829319 -37.682209 58.443874
-29.863997 -36.965126 56.39793
32.722202 11.706654 26.767351
24.602613 0.885098 39.363281
26.225416 0.931722 37.791096
24.95903 -0.886121 39.440849
25.344179 -2.804711 39.423771
23.773121 -2.87259 40.909908
13.334541 -1.646889 50.687092
11.938288 -3.600567 52.174644
-30.306301 -27.740734 61.324902
-30.28437 -26.88648 59.197083
-30.479061 -24.697857 60.799358
-24.185513 -19.676935 73.243446
-23.457142 -22.175219 73.206734
-25.072132 -21.914856 72.991821
-27.872368 -26.021009 70.874214
-26.6665 -26.359314 71.818321
-27.246344 -28.800772 70.883942
-26.402266 -31.296583 70.947701
-27.677036 -30.933332 69.84787
-27.975637 -33.387836 68.610741
-28.619127 -30.489262 68.57196
-30.207809 -26.466702 64.915527
-29.846704 -29.459387 65.286964
-30.175705 -28.542032 63.357944
-30.095839 -30.66877 61.746395
22.90246 7.553801 39.173584
24.411661 7.936379 37.434975
23.335781 5.968876 39.175423
23.820539 4.280842 39.177429
22.292339 3.888329 40.844131
5.584577 -10.151983 57.909634
7.45627 -9.840132 56.390644
5.957028 -11.809107 57.619179
6.952125 -14.966324 56.533539
-3.670027 -14.833074 64.704948
-5.188239 -16.590034 65.730194
-5.919257 -14.852036 66.122536
-10.590002 -13.053078 68.753838
-10.1878 -14.936815 68.61541
-12.191845 -14.771313 69.68045
-13.797919 -16.715097 70.540298
-14.254835 -14.639167 70.693459
-21.792028 -15.467786 73.183716
4.734769 -6.914995 58.328064
2.852693 -7.068313 59.716164
-2.580448 -11.146122 63.796986
-0.432403 -10.93623 62.350887
-2.093553 -12.918709 63.586956
-1.437472 -14.574886 63.203979
-29.676985 -27.226225 52.877228
-8.119344 -20.584009 67.593666
-7.205517 -22.244772 67.013901
-9.37696 -22.490088 68.334572
-13.946602 -26.688946 70.635139
-11.742883 -26.421598 69.55191
-12.857335 -28.560192 69.98645
-11.68952 -30.435606 69.180595
-13.74955 -30.886076 70.177635
-21.820204 -27.070957 72.851624
-19.905493 -27.037422 72.619209
-20.815746 -29.394135 72.510643
-19.339815 -36.2314 71.031792
-18.634686 -33.866791 71.433617
-17.453327 -35.988533 70.68763
-15.454394 -35.646347 70.102264
-16.277473 -37.988033 69.823349
-15.021575 -39.912823 68.788086
-17.051096 -40.262211 69.363945
-20.315727 -45.363796 67.743736
-18.406254 -45.106903 67.683861
-28.502781 -37.749283 65.704666
-27.88516 -40.362949 65.724236
-28.6824 -39.86972 64.168343
35.776516 3.36587 26.813869
34.472801 3.828369 28.287275
29.208035 8.386812 32.197124
30.743269 8.22715 30.63092
29.629028 6.412326 32.562126
29.288834 1.052956 34.80233
30.367296 2.731998 33.187084
16.638811 -0.926565 47.503597
17.842653 1.11609 45.967667
18.226143 -0.52492 45.902729
19.886358 0.08545 44.162067
18.663265 -2.049339 45.723667
11.155531 -9.037118 53.188721
12.734161 -6.961051 51.736774
12.96825 -8.621107 51.525822
16.734982 -9.57352 47.75272
16.370804 -7.967737 48.258156
17.984774 -7.521451 46.684151
19.308538 -5.454839 45.405373
19.58527 -7.2228 45.120049
21.115177 -7.048378 43.646324
19.777769 -9.095914 44.784321
-30.49312 -23.274977 64.654541
-30.631681 -22.456949 62.531239
-26.583904 -21.297421 72.470825
-27.910192 -20.816349 71.590996
-28.445555 -23.197994 70.723747
-28.852663 -25.577847 69.651245
-29.190262 -27.814709 68.316978
-29.630827 -24.858021 68.164406
-30.189201 -24.024054 66.408951
21.432514 7.317049 40.820351
2.665261 -13.984228 60.199608
4.486352 -13.800805 58.756012
3.066815 -15.671737 59.801292
3.606582 -17.300421 59.195953
-4.637064 -11.226827 65.117676
-6.386183 -13.004566 66.312386
-6.826108 -11.157506 66.462364
-8.915255 -11.121485 67.699539
-11.029106 -11.038509 68.886948
0.78358 -7.409337 61.202068
-2.994549 -9.36702 63.919621
-12.499977 -20.718729 70.013
-11.658921 -22.64426 69.600212
-13.722088 -22.734989 70.626312
-14.856568 -24.608133 71.118637
-15.90883 -26.82935 71.460472
-23.323378 -31.70331 72.085327
-21.60508 -31.483295 72.239944
-22.263813 -33.976601 71.706818
-21.240946 -36.341579 71.147095
-20.159307 -38.59037 70.458115
-18.989344 -40.6101 69.656876
-20.847473 -41.011639 69.640373
-21.489357 -43.336365 68.642433
-22.087355 -45.715355 67.423775
-23.81028 -45.716957 66.910698
-25.263262 -45.715752 66.091682
-29.597763 -36.527077 62.145729
-29.24826 -39.423859 62.387104
-29.634338 -38.619595 60.455513
33.752251 7.913882 27.407473
26.973335 4.659873 35.897598
28.447496 4.66397 34.428631
27.338823 2.873296 36.137806
27.726336 0.981255 36.338299
28.114815 -0.928543 36.462654
15.097411 -1.145405 48.996284
15.260917 -2.888072 49.083221
11.820767 -12.459173 52.271614
13.244447 -10.302265 51.152344
13.559484 -11.997168 50.601757
15.318024 -11.698295 48.853817
-29.996084 -32.002209 57.734886
-29.892525 -31.133078 55.751354
-30.079815 -29.000597 57.508373
-30.152893 -25.993744 57.003616
-30.63562 -21.288551 60.515797
-20.664888 -20.229118 73.030006
-19.827812 -22.445436 72.82682
-21.685602 -22.570265 73.13578
-22.766026 -24.543596 73.086464
-23.640934 -26.815575 72.817802
-25.914734 -24.012203 72.534775
-25.183992 -26.683018 72.488815
-24.342794 -29.280848 72.335777
-24.960546 -31.447632 71.697639
-25.566799 -33.770176 70.796364
-26.045921 -36.234825 69.68293
-26.523405 -38.537075 68.3853
-27.250443 -35.883148 68.645561
-28.297064 -35.526741 67.181747
-29.028313 -34.876801 65.691887
-29.342772 -30.031147 67.029175
-29.465322 -32.07983 65.58094
-29.534822 -34.347233 63.930462
-29.867197 -33.479427 62.062744
-30.003075 -32.852692 59.922474
30.598675 13.69078 28.28233
31.098629 11.903388 28.560471
29.590677 11.980919 30.242712
28.627974 10.22901 32.059696
27.615479 8.28665 33.912342
25.91692 8.139351 35.759789
26.507357 6.517914 35.715561
25.395424 4.613304 37.488026
24.266407 2.632846 39.215057
23.106689 0.621101 40.879665
10.462182 -5.732622 53.662075
9.06043 -7.812957 54.989262
9.346004 -9.491169 54.787807
9.662457 -11.125377 54.458328
6.39167 -13.362322 57.187271
8.259077 -13.003939 55.575012
10.088446 -12.649834 53.923477
10.407265 -14.369671 53.33453
-2.419301 -18.0837 63.872707
-3.814223 -20.01438 64.799828
-4.622452 -18.421524 65.380966
-6.727767 -18.478716 66.727745
-8.964898 -18.710287 68.06665
-8.013052 -14.847589 67.37542
-9.573976 -16.709558 68.347855
-11.013186 -18.718441 69.20005
-13.086824 -18.720579 70.256584
-15.216393 -18.776155 71.238472
-17.250532 -18.503551 72.045532
-16.315214 -14.281453 71.586006
-17.984324 -16.382675 72.266594
-19.236782 -18.267111 72.687294
-21.213518 -17.920395 73.128067
-23.034773 -17.644781 73.312653
-24.668699 -16.970472 73.222946
5.228418 -8.448533 58.097996
3.672295 -10.469137 59.394451
1.150546 -9.028178 61.110817
1.599317 -10.81458 60.928825
2.100901 -12.398242 60.627701
0.618883 -14.280984 61.738094
-0.93678 -16.224888 62.851269
-29.698479 -30.38282 53.444572
-29.488457 -29.508865 51.233082
-5.083067 -21.903862 65.614502
-6.415874 -23.961885 66.428825
-7.582821 -26.099566 67.074165
-10.583485 -24.4002 68.993935
-9.50428 -26.283833 68.283783
-8.68831 -28.222052 67.61264
-9.625246 -30.22863 67.984238
-10.585602 -32.388054 68.26844
-11.378515 -34.780609 68.306641
-18.929575 -24.7542 72.541245
-17.949684 -27.071138 72.142059
-16.927092 -28.987225 71.663658
-19.768932 -31.696321 72.036087
-17.845306 -31.452621 71.649979
-15.92987 -31.176094 71.064156
-14.765533 -33.191704 70.296471
-13.356182 -35.061356 69.307556
-17.731583 -42.687443 68.62616
-26.855886 -40.883766 66.991814
-27.290445 -42.867664 65.446831
36.009033 1.398601 27.194443
31.734457 10.11361 28.688044
32.219597 8.077451 29.084507
32.675957 6.23227 29.386467
29.988178 4.634559 32.885166
31.465256 4.435524 31.429386
32.996819 4.343891 29.800705
33.41328 2.367683 30.07091
20.268991 5.321519 42.559635
19.118042 3.285 44.227787
20.65613 3.646386 42.578899
21.095795 2.05522 42.526318
21.479025 0.375277 42.533253
21.922323 -1.253218 42.423927
12.221488 -5.373197 52.101547
13.946991 -4.888692 50.50531
15.66044 -4.516881 48.877644
14.735226 -8.217075 49.848652
16.107288 -6.207187 48.541145
17.273109 -4.182552 47.311039
18.978844 -3.624066 45.609512
20.54752 -3.412352 44.064255
22.123407 -3.138497 42.514027
22.52187 -4.988805 42.289982
-2.418188 -20.826342 63.743568
-1.389358 -20.626759 62.95879
-1.389358 -20.626759 62.95879
-0.342041 -20.483189 62.147346
-0.658625 -19.668728 62.463802
32.45115 12.614448 26.622463
33.184139 12.480826 25.79298
32.913088 13.38862 25.648092
11.031452 -3.923708 52.986349
11.675835 -2.85585 52.307505
32.566727 14.320712 25.559916
32.144847 15.249125 25.58796
31.758219 14.450654 26.505619
32.913088 13.38862 25.648092
32.566727 14.320712 25.559916
2.611124 -6.271107 59.792986
3.634623 -6.141099 59.042604
-19.753755 -46.481485 67.126
-20.660947 -46.594276 67.08604
34.743332 5.652866 27.200896
34.574171 6.623145 26.990663
34.261809 4.81737 28.138866
34.954324 4.663864 27.349306
34.743332 5.652866 27.200896
30.003056 0.910977 34.136839
29.472855 0.061889 34.895046
-30.595645 -20.502493 65.12331
-30.60027 -21.765811 64.407367
-30.488495 -22.011659 65.370484
-28.114582 -19.31295 71.508763
-27.53384 -19.687838 71.95102
-28.895523 -22.883124 70.07029
-28.696714 -21.685924 70.594795
-29.146682 -21.371054 69.941338
21.18239 8.192839 40.868849
21.980221 8.360387 39.939667
2.931579 -18.296627 59.651725
2.604968 -17.400968 60.022551
1.929965 -18.397174 60.478323
3.920965 -18.056735 58.804103
2.931579 -18.296627 59.651725
-5.921309 -10.270301 65.835926
-5.731586 -11.192166 65.79002
-4.826788 -10.304962 65.163582
-9.136052 -10.157435 67.762551
-8.045258 -10.219415 67.118931
-10.192978 -10.115947 68.356255
-9.972181 -11.079997 68.293244
-9.136052 -10.157435 67.762551
-4.00553 -9.375058 64.564554
-3.134821 -8.485385 63.926462
-4.826788 -10.304962 65.163582
-3.815806 -10.296924 64.518648
-4.00553 -9.375058 64.564554
-29.521426 -33.37643 50.881361
-29.568706 -34.843933 51.078466
-29.608069 -33.880104 51.963195
-29.465822 -32.021654 50.651953
-29.521426 -33.37643 50.881361
-26.308325 -44.45027 65.820785
-25.906407 -45.602032 65.561138
-25.66518 -44.56399 66.35133
-29.75918 -39.12689 58.574036
-29.827724 -38.75543 57.643274
33.908589 9.588206 26.407294
33.67218 10.513258 26.225389
33.442463 8.851861 27.324035
34.218377 8.650227 26.490733
33.908589 9.588206 26.407294
26.668893 -1.874216 38.01552
27.477035 -1.850572 37.24522
27.306673 -0.952187 37.232954
24.871915 -4.680883 40.07907
25.48312 -3.724797 39.404393
24.732974 -3.760798 40.098448
24.242238 -5.673324 40.702408
24.871915 -4.680883 40.07907
15.382554 -12.55008 48.590946
14.550898 -12.706267 49.425226
16.079244 -11.586433 48.094122
15.382554 -12.55008 48.590946
-30.314498 -23.229517 57.603973
-30.187744 -24.394573 56.737556
-30.279647 -24.828688 57.870033
-30.71473 -20.183464 61.361854
-30.633651 -21.87275 61.523518
-30.712761 -20.767663 62.369575
29.31956 12.865131 30.161917
30.094676 12.83585 29.262521
29.823559 13.720061 29.181725
27.82009 10.135582 32.976601
28.346555 11.131714 32.002747
27.538671 11.038286 32.919651
8.092068 -8.013442 55.795208
8.814428 -7.009982 55.135811
7.846065 -7.210468 55.941757
29.823559 13.720061 29.181725
30.219924 14.596748 28.297607
-16.523219 -13.135722 71.62379
-15.528102 -13.351514 71.209686
-18.942647 -16.129135 72.546303
-18.133091 -15.167769 72.284104
-19.091414 -14.91423 72.563813
-23.252174 -16.334675 73.300793
-22.413401 -16.556283 73.248185
-22.630801 -15.246177 73.236324
-24.069136 -15.997521 73.255939
-23.851736 -17.307626 73.267799
-23.252174 -16.334675 73.300793
-29.469284 -27.963546 50.949643
-29.582721 -28.367545 52.055155
-29.563548 -26.822226 51.771715
-29.390518 -29.037368 50.167633
-29.469284 -27.963546 50.949643
-13.214368 -37.31732 68.698246
-12.770646 -36.093527 68.772628
-13.799904 -36.285149 69.233173
-13.606347 -38.398445 68.603809
-13.214368 -37.31732 68.698246
-14.77608 -41.942677 67.935379
-14.41678 -40.80659 68.208672
-15.380876 -41.048911 68.514793
-15.130764 -43.147387 67.590439
-14.77608 -41.942677 67.935379
-17.45146 -44.860106 67.566361
-17.832462 -46.108208 67.04731
-27.730514 -42.69845 64.752938
-27.587802 -41.615307 65.585533
-28.027871 -41.446092 64.89164
-27.454623 -43.992784 64.589989
-27.730514 -42.69845 64.752938
-29.059413 -40.667412 62.443779
-29.312714 -40.410527 61.496413
34.877402 0.774377 28.866917
35.499569 0.593639 28.119453
35.386865 1.579339 27.941907
19.477516 5.130884 43.424452
20.070134 6.140841 42.569564
16.963487 1.899449 46.659407
16.15411 1.665396 47.501198
21.940343 -6.890373 42.871453
21.270895 -7.877153 43.448813
-30.58533 -19.226557 65.884788
-30.391933 -19.652475 66.829407
-29.548386 -20.998139 69.246986
-29.146682 -21.371054 69.941338
-29.878217 -20.602457 68.492165
-29.675321 -22.172572 68.66201
-29.548386 -20.998139 69.246986
-30.152573 -20.166749 67.739788
-29.878217 -20.602457 68.492165
-30.391933 -19.652475 66.829407
-30.244512 -21.262616 66.996807
-30.152573 -20.166749 67.739788
1.322634 -19.408996 60.879928
1.929965 -18.397174 60.478323
0.996023 -18.513336 61.250754
0.667453 -20.382321 61.312067
1.322634 -19.408996 60.879928
0.667453 -20.382321 61.312067
-0.342041 -20.483189 62.147346
-29.72661 -35.711089 53.283683
-29.708241 -36.675556 52.368847
-29.779502 -37.039038 53.49223
-29.845063 -38.396889 56.620302
-29.827724 -38.75543 57.643274
-29.846658 -37.323667 57.420902
-29.852673 -37.942369 55.503046
-29.845063 -38.396889 56.620302
-29.81961 -37.497091 54.507614
-29.852673 -37.942369 55.503046
-29.830934 -36.519848 55.402498
-29.779502 -37.039038 53.49223
-29.81961 -37.497091 54.507614
33.466943 11.471665 25.988765
33.184139 12.480826 25.79298
32.927439 10.748247 27.003974
33.67218 10.513258 26.225389
33.466943 11.471665 25.988765
12.373962 -1.879011 51.563728
13.097481 -0.899086 50.784214
12.636415 -2.623728 51.430868
12.373962 -1.879011 51.563728
11.675835 -2.85585 52.307505
12.975502 -13.87099 50.805203
12.337491 -14.835621 51.215359
26.77376 10.9553 33.821119
27.538671 11.038286 32.919651
23.657061 7.74509 38.304279
24.190641 8.801224 37.405552
23.43604 8.609935 38.274856
6.271888 -15.997346 57.001726
6.02492 -15.18224 57.328867
5.344682 -16.213262 57.797054
7.160965 -15.838344 56.192917
6.271888 -15.997346 57.001726
8.027296 -15.704413 55.406035
7.818456 -14.832393 55.746657
7.160965 -15.838344 56.192917
8.911199 -15.518123 54.56975
8.027296 -15.704413 55.406035
-20.068288 -14.659028 72.831604
-19.091414 -14.91423 72.563813
-21.013816 -14.455123 73.010456
-20.846499 -15.671691 73.004864
-20.068288 -14.659028 72.831604
-21.938927 -14.147307 73.160931
-21.013816 -14.455123 73.010456
-22.630801 -15.246177 73.236324
-21.938927 -14.147307 73.160931
4.575661 -6.06444 58.348554
5.551099 -5.933452 57.602993
3.793731 -6.991654 59.022114
4.575661 -6.06444 58.348554
3.634623 -6.141099 59.042604
-29.804274 -26.171886 53.758065
-29.790202 -27.646883 54.021667
-29.91749 -26.592544 54.902504
-29.687078 -25.652781 52.635111
-29.804274 -26.171886 53.758065
-29.563548 -26.822226 51.771715
-29.687078 -25.652781 52.635111
-18.799019 -46.353038 67.096062
-19.36099 -45.235349 67.713798
-19.753755 -46.481485 67.126
-17.832462 -46.108208 67.04731
-18.799019 -46.353038 67.096062
-28.426491 -41.199478 64.113693
-28.027871 -41.446092 64.89164
-28.28378 -40.116335 64.94629
35.606182 4.432615 26.612603
36.247581 4.19771 25.840218
35.124658 3.597119 27.550572
35.606182 4.432615 26.612603
34.954324 4.663864 27.349306
30.542287 1.750498 33.329216
29.828065 1.892477 33.994707
30.003056 0.910977 34.136839
31.3137 1.64768 32.565728
31.138709 2.62918 32.423597
30.542287 1.750498 33.329216
32.089681 1.539525 31.79685
31.3137 1.64768 32.565728
20.602191 -8.900921 44.017811
21.270895 -7.877153 43.448813
20.446473 -8.072146 44.215322
-30.66955 -21.356797 63.345717
-30.562401 -22.865963 63.59289
-30.60027 -21.765811 64.407367
-30.712761 -20.767663 62.369575
-30.66955 -21.356797 63.345717
-30.595645 -20.502493 65.12331
-30.58533 -19.226557 65.884788
-26.870696 -19.928375 72.390934
-26.190142 -20.244523 72.695221
-26.476934 -18.875477 72.61533
-27.247048 -21.056885 72.030911
-26.870696 -19.928375 72.390934
-27.53384 -19.687838 71.95102
-28.429033 -20.495102 71.02842
-28.114582 -19.31295 71.508763
-28.177873 -22.007171 71.157372
-28.429033 -20.495102 71.02842
-28.696714 -21.685924 70.594795
22.715193 8.478763 39.116283
23.43604 8.609935 38.274856
22.167487 7.435425 39.996967
22.715193 8.478763 39.116283
21.980221 8.360387 39.939667
4.599116 -17.164395 58.332933
5.344682 -16.213262 57.797054
4.352149 -16.349289 58.660074
4.599116 -17.164395 58.332933
3.920965 -18.056735 58.804103
-7.000685 -10.237426 66.500343
-5.921309 -10.270301 65.835926
-7.870681 -11.139495 67.080951
-7.000685 -10.237426 66.500343
-8.045258 -10.219415 67.118931
0.593199 -6.495535 61.226175
1.576568 -6.441619 60.535938
-0.180019 -7.476502 61.862421
0.593199 -6.495535 61.226175
-1.054419 -8.435113 62.552445
-0.09082 -8.367948 61.892091
-0.180019 -7.476502 61.862421
-2.069084 -8.455343 63.221198
-3.134821 -8.485385 63.926462
-1.979885 -9.346789 63.250868
-1.054419 -8.435113 62.552445
-2.069084 -8.455343 63.221198
-29.64423 -36.331142 51.301878
-29.708241 -36.675556 52.368847
-29.64423 -36.331142 51.301878
-29.568706 -34.843933 51.078466
-21.546761 -46.770056 66.92606
-20.660947 -46.594276 67.08604
-21.201541 -45.539575 67.583755
-22.44845 -46.892586 66.703988
-21.546761 -46.770056 66.92606
-23.309913 -46.893387 66.447449
-22.44845 -46.892586 66.703988
-22.948817 -45.716156 67.167237
-24.065205 -46.86713 66.154079
-23.309913 -46.893387 66.447449
-24.791697 -46.866528 65.744572
-24.065205 -46.86713 66.154079
-24.536771 -45.716355 66.50119
-25.503372 -46.831225 65.26511
-24.791697 -46.866528 65.744572
-25.503372 -46.831225 65.26511
-25.906407 -45.602032 65.561138
-29.505753 -40.008394 60.530617
-29.312714 -40.410527 61.496413
-29.441299 -39.021727 61.421309
-29.66169 -39.595583 59.579855
-29.731828 -38.150902 59.449694
-29.75918 -39.12689 58.574036
-29.505753 -40.008394 60.530617
-29.66169 -39.595583 59.579855
34.424889 7.6769 26.699172
34.218377 8.650227 26.490733
33.901533 6.860127 27.698964
34.574171 6.623145 26.990663
34.424889 7.6769 26.699172
28.885846 -0.92886 35.725208
29.472855 0.061889 34.895046
28.701825 0.062206 35.632492
28.259047 -1.852072 36.519503
28.885846 -0.92886 35.725208
28.259047 -1.852072 36.519503
27.477035 -1.850572 37.24522
26.091718 -2.788656 38.725779
26.668893 -1.874216 38.01552
25.921355 -1.890271 38.713513
26.091718 -2.788656 38.725779
25.48312 -3.724797 39.404393
15.496051 0.627401 48.31912
16.15411 1.665396 47.501198
13.995449 -0.617329 49.91977
13.097481 -0.899086 50.784214
14.876884 -0.366587 49.074365
13.995449 -0.617329 49.91977
14.215976 -1.396147 49.841688
15.716577 -0.151417 48.241039
15.496051 0.627401 48.31912
14.876884 -0.366587 49.074365
13.671628 -12.855704 50.299196
12.863357 -13.012454 51.107764
12.975502 -13.87099 50.805203
14.438754 -11.847732 49.727787
13.671628 -12.855704 50.299196
14.550898 -12.706267 49.425226
16.787723 -10.524045 47.543573
16.026503 -10.635908 48.303269
16.079244 -11.586433 48.094122
17.54158 -10.380573 46.804282
17.488838 -9.430048 47.013428
16.787723 -10.524045 47.543573
18.305502 -10.188189 46.071434
17.54158 -10.380573 46.804282
-30.042227 -25.555646 55.821258
-29.91749 -26.592544 54.902504
-30.028156 -27.030642 56.084862
-30.042227 -25.555646 55.821258
-30.187744 -24.394573 56.737556
-30.690381 -19.690433 60.305155
-30.71473 -20.183464 61.361854
-30.572652 -20.82356 59.421908
-30.690381 -19.690433 60.305155
-30.458042 -22.0111 58.532234
-30.52101 -22.476091 59.626123
-30.572652 -20.82356 59.421908
-30.314498 -23.229517 57.603973
-30.458042 -22.0111 58.532234
28.827906 12.007669 31.094254
29.31956 12.865131 30.161917
29.109325 11.104965 31.151204
28.827906 12.007669 31.094254
28.346555 11.131714 32.002747
26.217897 9.930262 34.805021
26.77376 10.9553 33.821119
24.917624 8.877374 36.575756
24.190641 8.801224 37.405552
25.670254 8.97886 35.738163
24.917624 8.877374 36.575756
25.16429 8.037865 36.597382
26.464564 9.090753 34.826647
26.217897 9.930262 34.805021
25.670254 8.97886 35.738163
9.515303 -5.969815 54.472217
10.293399 -4.989736 53.730064
9.761306 -6.77279 54.325668
9.515303 -5.969815 54.472217
8.814428 -7.009982 55.135811
9.772438 -15.353727 53.757128
9.546026 -14.534066 54.147152
8.911199 -15.518123 54.56975
10.655648 -15.188441 52.881495
9.772438 -15.353727 53.757128
11.535631 -15.017475 52.021114
11.287248 -14.198705 52.47415
10.655648 -15.188441 52.881495
12.337491 -14.835621 51.215359
11.535631 -15.017475 52.021114
30.967507 14.534923 27.407997
30.588757 15.440891 27.423273
30.219924 14.596748 28.297607
31.389387 13.60651 27.379953
31.758219 14.450654 26.505619
30.967507 14.534923 27.407997
-11.148909 -9.941741 68.883015
-10.192978 -10.115947 68.356255
-12.001241 -10.797646 69.386155
-11.148909 -9.941741 68.883015
-12.89575 -11.665589 69.902523
-11.923615 -11.906452 69.403317
-12.001241 -10.797646 69.386155
-13.779557 -12.597985 70.376525
-12.89575 -11.665589 69.902523
-14.497912 -13.530371 70.763413
-13.536479 -13.706781 70.306572
-13.779557 -12.597985 70.376525
-15.285025 -14.46031 71.139733
-14.497912 -13.530371 70.763413
-15.528102 -13.351514 71.209686
-17.298535 -14.117159 71.94381
-16.523219 -13.135722 71.62379
-17.149769 -15.332064 71.9263
-17.298535 -14.117159 71.94381
-18.133091 -15.167769 72.284104
-24.832959 -15.560393 73.179527
-24.069136 -15.997521 73.255939
-25.379742 -16.641874 73.049926
-24.832959 -15.560393 73.179527
-25.943583 -17.752451 72.898262
-25.232539 -18.081049 73.071281
-25.379742 -16.641874 73.049926
-26.476934 -18.875477 72.61533
-25.943583 -17.752451 72.898262
6.958906 -7.386796 56.664463
7.846065 -7.210468 55.941757
5.764437 -6.737331 57.527918
5.551099 -5.933452 57.602993
6.011261 -7.504099 57.412884
5.764437 -6.737331 57.527918
4.981593 -7.681764 58.21303
6.176062 -8.33123 57.349575
6.958906 -7.386796 56.664463
6.011261 -7.504099 57.412884
1.818137 -7.238825 60.459116
2.611124 -6.271107 59.792986
1.576568 -6.441619 60.535938
-29.429656 -30.569786 50.385449
-29.465822 -32.021654 50.651953
-29.524623 -30.960733 51.499586
-29.331716 -30.098289 49.32
-29.429656 -30.569786 50.385449
-29.390518 -29.037368 50.167633
-3.472329 -20.927383 64.505859
-2.418188 -20.826342 63.743568
-2.760082 -19.913339 64.037537
-4.106751 -21.872124 64.913196
-3.472329 -20.927383 64.505859
-4.448645 -20.959121 65.207165
-4.689509 -22.844579 65.271988
-4.106751 -21.872124 64.913196
-5.355913 -23.87359 65.679149
-4.689509 -22.844579 65.271988
-5.74947 -22.932873 66.021664
-5.96291 -24.816635 66.042186
-5.355913 -23.87359 65.679149
-6.546383 -25.885475 66.364857
-5.96291 -24.816635 66.042186
-6.999347 -25.030725 66.751495
-7.120985 -26.909714 66.674118
-6.546383 -25.885475 66.364857
-7.67373 -27.970957 66.943355
-7.120985 -26.909714 66.674118
-8.135566 -27.160809 67.343402
-8.088154 -29.066503 67.099327
-7.67373 -27.970957 66.943355
-8.556622 -30.069792 67.285126
-8.088154 -29.066503 67.099327
-9.156778 -29.225341 67.798439
-9.081058 -31.076064 67.498555
-8.556622 -30.069792 67.285126
-9.561236 -32.155776 67.640656
-9.081058 -31.076064 67.498555
-10.105424 -31.308342 68.126339
-9.982467 -33.299585 67.718723
-9.561236 -32.155776 67.640656
-10.378923 -34.495863 67.737823
-9.982467 -33.299585 67.718723
-10.982059 -33.584331 68.287541
-10.775025 -35.671056 67.738678
-10.378923 -34.495863 67.737823
-11.781813 -35.953153 68.272171
-12.367349 -34.920983 68.807098
-12.770646 -36.093527 68.772628
-10.775025 -35.671056 67.738678
-11.781813 -35.953153 68.272171
-13.995321 -39.600386 68.418457
-13.606347 -38.398445 68.603809
-14.632601 -38.710882 68.973439
-13.995321 -39.600386 68.418457
-14.41678 -40.80659 68.208672
-17.114125 -43.650376 68.03751
-18.068919 -43.897173 68.155011
-17.45146 -44.860106 67.566361
-16.118421 -43.399153 67.84518
-16.735879 -42.436221 68.43383
-17.114125 -43.650376 68.03751
-15.130764 -43.147387 67.590439
-16.118421 -43.399153 67.84518
-26.919998 -44.177988 65.238712
-26.308325 -44.45027 65.820785
-26.678772 -43.139946 66.028904
-26.919998 -44.177988 65.238712
-27.454623 -43.992784 64.589989
-28.776484 -40.890343 63.334398
-28.96533 -39.646789 63.277723
-29.059413 -40.667412 62.443779
-28.426491 -41.199478 64.113693
-28.776484 -40.890343 63.334398
36.369982 3.120419 26.065147
36.247581 4.19771 25.840218
36.486241 2.136785 26.255434
36.369982 3.120419 26.065147
35.892775 2.382236 27.004156
36.566227 1.102653 26.462228
37.043435 1.840837 25.523219
36.486241 2.136785 26.255434
36.08454 0.331367 27.412037
36.566227 1.102653 26.462228
36.08454 0.331367 27.412037
35.499569 0.593639 28.119453
32.841261 1.460185 31.00225
32.661701 2.447023 30.86551
32.089681 1.539525 31.79685
33.520967 1.314296 30.300598
32.841261 1.460185 31.00225
34.196676 1.010493 29.609829
34.088989 2.06388 29.380141
33.520967 1.314296 30.300598
34.877402 0.774377 28.866917
34.196676 1.010493 29.609829
20.651896 7.138606 41.699922
21.18239 8.192839 40.868849
20.850752 6.319284 41.689993
20.651896 7.138606 41.699922
20.070134 6.140841 42.569564
17.716941 2.036209 45.900343
16.963487 1.899449 46.659407
17.089198 0.97933 46.726731
18.354636 3.120664 45.030403
17.716941 2.036209 45.900343
18.480348 2.200545 45.097727
18.902041 4.112624 44.258527
18.354636 3.120664 45.030403
19.693517 4.30326 43.393711
19.477516 5.130884 43.424452
18.902041 4.112624 44.258527
11.200235 -4.666595 52.91836
11.031452 -3.923708 52.986349
10.293399 -4.989736 53.730064
22.64369 -5.860587 42.193281
21.818523 -6.018591 42.968153
21.940343 -6.890373 42.871453
23.443639 -5.724626 41.434853
23.32182 -4.852844 41.531554
22.64369 -5.860587 42.193281
24.242238 -5.673324 40.702408
23.443639 -5.724626 41.434853
19.073039 -10.092858 45.326526
19.010232 -9.191245 45.529229
18.305502 -10.188189 46.071434
19.881817 -9.951707 44.563125
19.073039 -10.092858 45.326526
20.602191 -8.900921 44.017811
19.881817 -9.951707 44.563125
3 0 373 374
3 0 96 94
3 0 375 377
3 377 376 96
3 375 376 377
3 2 99 97
3 1 102 100
3 3 105 103
3 3 107 105
3 3 109 107
3 2 112 110
3 2 97 112
3 4 378 380
3 378 113 379
3 378 379 380
3 5 116 114
3 5 118 116
3 381 120 382
3 4 383 385
3 383 384 385
3 4 386 387
3 6 123 121
3 7 126 124
3 9 129 127
3 9 131 129
3 9 133 131
3 6 136 134
3 6 121 136
3 12 140 138
3 12 142 140
3 13 145 143
3 15 149 147
3 17 152 150
3 17 154 152
3 388 157 389
3 15 160 158
3 15 147 160
3 16 165 163
3 18 168 166
3 18 170 168
3 8 173 171
3 19 176 174
3 19 178 176
3 19 180 178
3 391 390 181
3 10 185 183
3 20 392 393
3 20 394 396
3 394 187 395
3 394 395 396
3 11 190 188
3 398 397 191
3 21 195 193
3 21 197 195
3 14 200 198
3 22 203 201
3 22 205 203
3 22 207 205
3 23 399 401
3 401 400 208
3 399 400 401
3 402 211 403
3 25 404 406
3 404 212 405
3 404 405 406
3 25 213 212
3 25 215 213
3 23 216 93
3 23 208 216
3 407 217 408
3 27 220 218
3 409 221 410
3 411 410 95
3 409 410 411
3 413 412 221
3 414 224 415
3 416 415 222
3 414 415 416
3 417 225 418
3 419 226 420
3 421 420 225
3 419 420 421
3 422 228 423
3 424 222 425
3 426 425 228
3 424 425 426
3 31 427 429
3 429 428 98
3 427 428 429
3 31 430 431
3 32 231 229
3 34 232 101
3 34 233 232
3 35 236 234
3 37 237 104
3 37 238 237
3 37 240 238
3 39 241 106
3 39 242 241
3 39 243 242
3 40 244 108
3 40 432 434
3 434 433 244
3 432 433 434
3 41 247 245
3 436 435 111
3 42 437 438
3 42 439 441
3 439 248 440
3 439 440 441
3 43 251 249
3 45 252 115
3 45 253 252
3 45 442 444
3 444 443 253
3 442 443 444
3 46 445 447
3 447 446 117
3 445 446 447
3 46 448 449
3 48 254 119
3 48 255 254
3 49 258 256
3 450 259 451
3 453 452 259
3 51 262 260
3 53 263 122
3 53 454 456
3 456 455 263
3 454 455 456
3 457 264 458
3 459 458 209
3 457 458 459
3 54 267 265
3 56 268 125
3 56 269 268
3 24 270 210
3 57 271 128
3 57 272 271
3 57 273 272
3 58 274 130
3 58 275 274
3 58 277 275
3 60 278 132
3 60 279 278
3 26 280 214
3 61 281 135
3 61 282 281
3 61 283 282
3 51 284 137
3 51 260 284
3 460 287 461
3 462 461 285
3 460 461 462
3 63 463 465
3 463 288 464
3 463 464 465
3 63 289 288
3 64 290 139
3 64 291 290
3 64 292 291
3 65 293 141
3 65 294 293
3 66 466 468
3 466 296 467
3 466 467 468
3 68 297 144
3 68 298 297
3 28 299 219
3 69 300 146
3 69 301 300
3 69 302 301
3 469 285 470
3 70 305 303
3 72 306 148
3 72 307 306
3 29 308 223
3 73 309 151
3 73 310 309
3 73 311 310
3 74 312 153
3 74 313 312
3 471 314 472
3 75 473 475
3 473 315 474
3 473 474 475
3 75 316 315
3 75 317 316
3 476 318 477
3 478 477 155
3 476 477 478
3 479 319 480
3 481 480 318
3 479 480 481
3 76 320 156
3 76 321 320
3 30 322 227
3 77 323 159
3 77 324 323
3 77 325 324
3 70 326 161
3 70 303 326
3 52 327 261
3 482 328 483
3 484 483 162
3 482 483 484
3 486 485 328
3 71 329 304
3 78 330 164
3 78 331 330
3 33 332 230
3 79 333 167
3 79 334 333
3 79 335 334
3 80 336 169
3 80 337 336
3 55 338 266
3 81 339 172
3 81 340 339
3 36 341 235
3 82 342 175
3 82 343 342
3 82 344 343
3 83 345 177
3 83 487 489
3 489 488 345
3 487 488 489
3 83 490 491
3 84 492 494
3 494 493 179
3 492 493 494
3 84 495 496
3 38 346 239
3 498 497 182
3 59 347 276
3 499 348 500
3 501 500 184
3 499 500 501
3 503 502 348
3 505 504 246
3 85 349 186
3 85 506 508
3 508 507 349
3 506 507 508
3 62 350 286
3 86 351 189
3 86 352 351
3 44 353 250
3 87 354 192
3 87 355 354
3 87 356 355
3 509 357 510
3 47 511 512
3 88 358 194
3 88 359 358
3 88 360 359
3 89 361 196
3 89 362 361
3 67 363 295
3 90 364 199
3 90 365 364
3 50 366 257
3 91 367 202
3 91 368 367
3 91 369 368
3 92 370 204
3 92 371 370
3 92 372 371
3 514 513 206
3 516 515 23
3 517 25 518
3 519 93 520
3 521 520 25
3 519 520 521
3 522 93 523
3 524 23 525
3 526 525 93
3 524 525 526
3 94 95 27
3 96 95 94
3 96 527 529
3 529 528 95
3 527 528 529
3 96 530 531
3 533 532 96
3 97 534 536
3 534 98 535
3 534 535 536
3 99 98 97
3 99 31 98
3 100 101 32
3 102 101 100
3 102 34 101
3 103 104 35
3 105 104 103
3 105 37 104
3 105 106 37
3 107 106 105
3 107 39 106
3 107 108 39
3 109 108 107
3 109 40 108
3 110 111 41
3 112 111 110
3 112 537 539
3 539 538 111
3 537 538 539
3 112 540 541
3 97 542 544
3 544 543 112
3 542 543 544
3 97 545 546
3 113 547 548
3 113 549 551
3 549 42 550
3 549 550 551
3 114 115 43
3 116 115 114
3 116 45 115
3 116 117 45
3 118 117 116
3 118 46 117
3 552 119 553
3 120 554 556
3 554 119 555
3 554 555 556
3 120 48 119
3 558 557 49
3 121 122 51
3 123 122 121
3 123 53 122
3 124 125 54
3 126 125 124
3 126 56 125
3 127 128 24
3 129 128 127
3 129 57 128
3 129 130 57
3 131 130 129
3 131 58 130
3 131 132 58
3 133 132 131
3 133 60 132
3 134 135 26
3 136 135 134
3 136 61 135
3 136 137 61
3 121 137 136
3 121 51 137
3 559 63 560
3 138 561 563
3 561 139 562
3 561 562 563
3 140 139 138
3 140 64 139
3 140 141 64
3 142 141 140
3 142 65 141
3 143 144 66
3 145 144 143
3 145 68 144
3 564 146 565
3 566 565 28
3 564 565 566
3 567 146 568
3 569 69 570
3 571 570 146
3 569 570 571
3 573 572 69
3 147 148 70
3 149 148 147
3 149 72 148
3 150 151 29
3 152 151 150
3 152 73 151
3 152 153 73
3 154 153 152
3 154 74 153
3 574 75 575
3 576 155 577
3 578 577 75
3 576 577 578
3 579 155 580
3 582 581 155
3 583 156 584
3 157 585 587
3 585 156 586
3 585 586 587
3 157 76 156
3 158 159 30
3 160 159 158
3 160 77 159
3 160 161 77
3 147 161 160
3 147 70 161
3 588 162 589
3 590 589 52
3 588 589 590
3 591 162 592
3 594 593 162
3 163 164 71
3 165 164 163
3 165 78 164
3 166 167 33
3 168 167 166
3 168 79 167
3 168 169 79
3 170 169 168
3 170 80 169
3 171 172 55
3 173 172 171
3 173 81 172
3 174 175 36
3 176 175 174
3 176 82 175
3 176 177 82
3 178 177 176
3 178 83 177
3 178 179 83
3 180 179 178
3 180 84 179
3 181 182 38
3 595 182 596
3 597 596 181
3 595 596 597
3 599 598 182
3 183 184 59
3 185 184 183
3 185 600 602
3 602 601 184
3 600 601 602
3 603 186 604
3 187 605 607
3 605 186 606
3 605 606 607
3 187 85 186
3 188 189 62
3 190 189 188
3 190 86 189
3 191 192 44
3 608 192 609
3 610 609 191
3 608 609 610
3 611 87 612
3 613 612 192
3 611 612 613
3 615 614 87
3 193 194 47
3 195 194 193
3 195 88 194
3 195 196 88
3 197 196 195
3 197 89 196
3 198 199 67
3 200 199 198
3 200 90 199
3 201 202 50
3 203 202 201
3 203 91 202
3 203 204 91
3 205 204 203
3 205 92 204
3 205 206 92
3 207 206 205
3 207 616 618
3 618 617 206
3 616 617 618
3 208 209 6
3 619 209 620
3 621 620 208
3 619 620 621
3 623 622 209
3 625 624 23
3 626 210 627
3 628 627 7
3 626 627 628
3 211 629 631
3 629 210 630
3 629 630 631
3 211 24 210
3 632 211 633
3 212 634 636
3 634 211 635
3 634 635 636
3 212 24 211
3 212 127 24
3 213 127 212
3 213 9 127
3 213 214 9
3 215 214 213
3 215 26 214
3 93 215 25
3 216 215 93
3 216 26 215
3 216 134 26
3 208 134 216
3 208 6 134
3 637 138 638
3 217 639 641
3 639 138 640
3 639 640 641
3 217 12 138
3 218 219 13
3 220 219 218
3 220 28 219
3 95 220 27
3 221 220 95
3 221 28 220
3 221 642 644
3 644 643 28
3 642 643 644
3 646 645 221
3 222 223 15
3 224 223 222
3 224 29 223
3 647 224 648
3 225 649 651
3 649 224 650
3 649 650 651
3 225 29 224
3 225 150 29
3 226 150 225
3 226 17 150
3 652 227 653
3 654 227 655
3 656 30 657
3 658 657 227
3 656 657 658
3 228 659 660
3 228 661 663
3 661 30 662
3 661 662 663
3 228 158 30
3 222 158 228
3 222 15 158
3 98 664 665
3 667 666 98
3 229 230 16
3 231 230 229
3 231 33 230
3 101 231 32
3 232 231 101
3 232 33 231
3 232 166 33
3 233 166 232
3 233 18 166
3 234 235 8
3 236 235 234
3 236 36 235
3 104 236 35
3 237 236 104
3 237 36 236
3 237 174 36
3 238 174 237
3 238 19 174
3 238 239 19
3 240 239 238
3 240 38 239
3 106 240 37
3 241 240 106
3 241 38 240
3 241 181 38
3 242 181 241
3 242 668 670
3 670 669 181
3 668 669 670
3 242 671 672
3 243 673 675
3 675 674 242
3 673 674 675
3 243 676 677
3 108 243 39
3 244 243 108
3 244 678 680
3 680 679 243
3 678 679 680
3 244 681 682
3 684 683 244
3 245 246 10
3 247 246 245
3 247 685 687
3 687 686 246
3 685 686 687
3 111 247 41
3 688 247 689
3 690 689 111
3 688 689 690
3 692 691 247
3 248 693 694
3 248 695 697
3 695 20 696
3 695 696 697
3 249 250 11
3 251 250 249
3 251 44 250
3 115 251 43
3 252 251 115
3 252 44 251
3 252 191 44
3 253 191 252
3 253 698 700
3 700 699 191
3 698 699 700
3 253 701 702
3 704 703 253
3 117 705 707
3 707 706 45
3 705 706 707
3 709 708 117
3 710 47 711
3 119 712 713
3 254 714 716
3 716 715 119
3 714 715 716
3 254 717 719
3 717 47 718
3 717 718 719
3 254 193 47
3 255 193 254
3 255 21 193
3 256 257 14
3 258 257 256
3 258 50 257
3 720 258 721
3 722 721 49
3 720 721 722
3 259 723 725
3 723 258 724
3 723 724 725
3 259 50 258
3 259 201 50
3 726 201 727
3 728 727 259
3 726 727 728
3 729 22 730
3 731 730 201
3 729 730 731
3 733 732 22
3 260 261 2
3 262 261 260
3 262 52 261
3 122 262 51
3 263 262 122
3 263 52 262
3 263 734 736
3 736 735 52
3 734 735 736
3 738 737 263
3 209 123 6
3 264 123 209
3 264 53 123
3 739 264 740
3 741 264 742
3 743 53 744
3 745 744 264
3 743 744 745
3 747 746 53
3 265 266 1
3 267 266 265
3 267 55 266
3 125 267 54
3 268 267 125
3 268 55 267
3 268 171 55
3 269 171 268
3 269 8 171
3 210 126 7
3 270 126 210
3 270 56 126
3 128 270 24
3 271 270 128
3 271 56 270
3 271 269 56
3 272 269 271
3 272 8 269
3 272 234 8
3 273 234 272
3 273 35 234
3 130 273 57
3 274 273 130
3 274 35 273
3 274 103 35
3 275 103 274
3 275 3 103
3 275 276 3
3 277 276 275
3 277 59 276
3 132 277 58
3 278 277 132
3 278 59 277
3 278 183 59
3 279 183 278
3 279 10 183
3 214 133 9
3 280 133 214
3 280 60 133
3 135 280 26
3 281 280 135
3 281 60 280
3 281 279 60
3 282 279 281
3 282 10 279
3 282 245 10
3 283 245 282
3 283 41 245
3 137 283 61
3 284 283 137
3 284 41 283
3 284 110 41
3 260 110 284
3 260 2 110
3 285 286 4
3 287 286 285
3 287 62 286
3 748 287 749
3 288 750 752
3 750 287 751
3 750 751 752
3 288 62 287
3 288 188 62
3 289 188 288
3 289 11 188
3 753 63 754
3 139 755 756
3 290 757 759
3 759 758 139
3 757 758 759
3 290 760 762
3 760 63 761
3 760 761 762
3 290 289 63
3 291 289 290
3 291 11 289
3 291 249 11
3 292 249 291
3 292 43 249
3 141 292 64
3 293 292 141
3 293 43 292
3 293 114 43
3 294 114 293
3 294 5 114
3 763 295 764
3 296 765 767
3 765 295 766
3 765 766 767
3 296 67 295
3 144 296 66
3 297 296 144
3 297 67 296
3 297 198 67
3 298 198 297
3 298 14 198
3 219 145 13
3 299 145 219
3 299 68 145
3 146 299 28
3 300 299 146
3 300 68 299
3 300 298 68
3 301 298 300
3 301 14 298
3 301 256 14
3 302 256 301
3 302 49 256
3 768 302 769
3 770 769 69
3 768 769 770
3 771 302 772
3 773 49 774
3 775 774 302
3 773 774 775
3 777 776 49
3 285 778 780
3 778 779 780
3 285 781 783
3 781 4 782
3 781 782 783
3 303 304 0
3 305 304 303
3 305 71 304
3 148 305 70
3 306 305 148
3 306 71 305
3 306 163 71
3 307 163 306
3 307 16 163
3 223 149 15
3 308 149 223
3 308 72 149
3 151 308 29
3 309 308 151
3 309 72 308
3 309 307 72
3 310 307 309
3 310 16 307
3 310 229 16
3 311 229 310
3 311 32 229
3 153 311 73
3 312 311 153
3 312 32 311
3 312 100 32
3 313 100 312
3 313 1 100
3 784 226 785
3 786 226 787
3 788 17 789
3 790 789 226
3 788 789 790
3 791 17 792
3 793 154 794
3 795 794 17
3 793 794 795
3 314 796 798
3 796 154 797
3 796 797 798
3 314 74 154
3 799 314 800
3 315 801 803
3 801 314 802
3 801 802 803
3 315 74 314
3 315 313 74
3 316 313 315
3 316 1 313
3 316 265 1
3 317 265 316
3 317 54 265
3 155 317 75
3 318 317 155
3 318 54 317
3 318 124 54
3 319 124 318
3 319 7 124
3 804 319 805
3 806 319 807
3 808 7 809
3 810 809 319
3 808 809 810
3 812 811 7
3 813 66 814
3 156 815 816
3 320 817 819
3 819 818 156
3 817 818 819
3 320 820 822
3 820 66 821
3 820 821 822
3 320 143 66
3 321 143 320
3 321 13 143
3 227 823 825
3 823 157 824
3 823 824 825
3 322 157 227
3 322 76 157
3 159 322 30
3 323 322 159
3 323 76 322
3 323 321 76
3 324 321 323
3 324 13 321
3 324 218 13
3 325 218 324
3 325 27 218
3 161 325 77
3 326 325 161
3 326 27 325
3 326 94 27
3 303 94 326
3 303 0 94
3 261 99 2
3 327 99 261
3 327 31 99
3 162 327 52
3 328 327 162
3 328 31 327
3 328 826 828
3 828 827 31
3 826 827 828
3 831 830 328
3 829 830 831
3 304 832 834
3 834 833 0
3 832 833 834
3 329 835 837
3 837 836 304
3 835 836 837
3 329 838 839
3 164 329 71
3 330 329 164
3 330 840 842
3 842 841 329
3 840 841 842
3 330 843 844
3 331 845 847
3 847 846 330
3 845 846 847
3 331 848 849
3 230 165 16
3 332 165 230
3 332 78 165
3 167 332 33
3 333 332 167
3 333 78 332
3 333 331 78
3 334 331 333
3 334 850 852
3 852 851 331
3 850 851 852
3 334 853 854
3 335 855 857
3 857 856 334
3 855 856 857
3 335 858 859
3 169 335 79
3 336 335 169
3 336 860 862
3 862 861 335
3 860 861 862
3 336 863 864
3 337 865 867
3 867 866 336
3 865 866 867
3 337 868 869
3 266 102 1
3 338 102 266
3 338 34 102
3 172 338 55
3 339 338 172
3 339 34 338
3 339 233 34
3 340 233 339
3 340 18 233
3 235 173 8
3 341 173 235
3 341 81 173
3 175 341 36
3 342 341 175
3 342 81 341
3 342 340 81
3 343 340 342
3 343 18 340
3 343 170 18
3 344 170 343
3 344 80 170
3 177 344 82
3 345 344 177
3 345 80 344
3 345 337 80
3 870 337 871
3 872 871 345
3 870 871 872
3 874 873 337
3 179 875 877
3 877 876 83
3 875 876 877
3 879 878 179
3 239 180 19
3 346 180 239
3 346 84 180
3 182 346 38
3 880 346 881
3 882 881 182
3 880 881 882
3 883 84 884
3 885 884 346
3 883 884 885
3 887 886 84
3 276 109 3
3 347 109 276
3 347 40 109
3 184 347 59
3 348 347 184
3 348 40 347
3 348 888 890
3 890 889 40
3 888 889 890
3 892 891 348
3 246 185 10
3 893 185 894
3 895 894 246
3 893 894 895
3 897 896 185
3 186 898 899
3 349 900 902
3 902 901 186
3 900 901 902
3 349 903 905
3 903 904 905
3 349 906 907
3 909 908 349
3 286 113 4
3 350 113 286
3 350 42 113
3 189 350 62
3 351 350 189
3 351 42 350
3 351 248 42
3 352 248 351
3 352 20 248
3 250 190 11
3 353 190 250
3 353 86 190
3 192 353 44
3 354 353 192
3 354 86 353
3 354 352 86
3 355 352 354
3 355 20 352
3 355 187 20
3 356 187 355
3 356 85 187
3 910 356 911
3 912 911 87
3 910 911 912
3 913 356 914
3 915 85 916
3 917 916 356
3 915 916 917
3 919 918 85
3 920 217 921
3 357 922 924
3 922 217 923
3 922 923 924
3 357 12 217
3 194 925 927
3 927 926 47
3 925 926 927
3 358 928 930
3 930 929 194
3 928 929 930
3 358 931 932
3 358 933 935
3 933 357 934
3 933 934 935
3 359 357 358
3 359 12 357
3 359 142 12
3 360 142 359
3 360 65 142
3 196 360 88
3 361 360 196
3 361 65 360
3 361 294 65
3 362 294 361
3 362 5 294
3 295 936 938
3 936 120 937
3 936 937 938
3 363 120 295
3 363 48 120
3 199 363 67
3 364 363 199
3 364 48 363
3 364 255 48
3 365 255 364
3 365 21 255
3 257 200 14
3 366 200 257
3 366 90 200
3 202 366 50
3 367 366 202
3 367 90 366
3 367 365 90
3 368 365 367
3 368 21 365
3 368 197 21
3 369 197 368
3 369 89 197
3 204 369 91
3 370 369 204
3 370 89 369
3 370 362 89
3 371 362 370
3 371 5 362
3 371 118 5
3 372 118 371
3 372 46 118
3 206 372 92
3 939 372 940
3 941 940 206
3 939 940 941
3 942 46 943
3 944 943 372
3 942 943 944
3 946 945 46
3 947 207 948
3 949 948 22
3 947 948 949
3 950 207 951
3 953 952 207
