ply
format ascii 1.0
element vertex 476
property float x
property float y
property float z
element face 512
property list uchar int vertex_index
end_header
28.944464 -53.290249 40.558277
26.031067 -67.790031 3.601604
29.962217 -49.84206 21.24852
30.450136 -45.620106 3.771632
29.449387 -51.87326 30.476013
28.313868 -59.392132 12.52454
31.026176 -25.521042 28.425035
30.024235 -39.170727 29.212198
31.740616 -36.802692 21.136841
30.491474 -47.552307 12.481263
27.342257 -57.203445 3.700397
25.191818 -66.193169 -0.598374
29.047289 -47.425385 39.422401
29.683399 -50.743874 25.948944
29.687832 -45.75098 29.853443
30.184023 -44.451435 25.467609
30.823721 -38.050327 25.044739
30.77067 -43.54174 21.153297
31.392347 -42.443401 16.873192
30.244839 -48.768814 16.806322
27.134567 -63.649147 8.03295
27.859364 -58.27747 7.960356
26.425909 -62.500351 3.625637
26.828699 -69.162819 8.32395
29.228529 -52.733189 35.461353
29.358988 -55.617332 21.688475
29.308638 -54.865383 16.917946
28.655369 -60.430527 17.230122
27.72868 -64.945511 12.662663
33.358864 -16.176083 24.431366
31.728838 -17.807615 28.056768
32.49411 -23.713829 24.614931
29.340067 -46.703018 34.52507
30.454733 -32.463753 28.858503
31.60264 -31.055868 24.87591
32.850925 -29.76342 20.983223
31.914778 -41.406208 12.596824
30.581156 -46.507332 8.186147
29.237944 -53.664684 12.520768
29.035364 -52.621403 8.068676
28.746891 -51.545658 3.780754
25.594769 -67.038483 1.366195
25.587225 -69.71373 1.365887
28.902555 -47.878902 41.814308
29.037552 -50.547516 39.801132
29.815454 -50.317436 23.661207
29.916348 -47.647503 25.656612
30.120344 -47.270515 23.364979
30.460201 -44.021912 23.363882
30.342113 -46.81274 21.08836
30.591879 -46.086811 18.959633
30.107998 -49.306622 19.014256
26.546562 -65.843246 5.803885
26.747183 -63.26152 5.691831
26.146656 -65.071938 3.50967
25.740622 -64.392258 1.345937
29.149281 -47.832176 -0.594887
29.373827 -48.233788 1.57425
29.314262 -56.40403 24.082012
29.058037 -58.021564 19.590212
27.272427 -67.099434 10.530944
31.398664 -21.631502 28.151449
32.131248 -20.807047 26.379284
31.735815 -24.706959 26.498917
29.341587 -52.340916 32.94817
29.296001 -49.803802 34.996758
29.417313 -49.369534 32.679291
29.840958 -42.367641 29.54076
29.580048 -43.225082 31.779861
29.672405 -39.848591 31.540054
29.820652 -36.62141 31.093845
29.985197 -33.06953 30.83511
30.199419 -35.701855 29.206976
31.254753 -37.393257 23.187166
31.179281 -34.562557 25.056236
31.714636 -34.118538 22.991096
32.232925 -30.473278 22.853346
32.275597 -33.529713 20.963116
32.211723 -36.336933 19.069344
31.010258 -45.047199 14.696083
31.678877 -41.923466 14.661827
31.161106 -44.619183 12.464441
31.305691 -44.040005 10.368873
30.49976 -47.250607 10.294646
28.835707 -57.267101 14.767632
29.31142 -54.090977 14.700191
28.730362 -56.546062 12.468076
27.590662 -57.832985 5.81152
28.344622 -55.617462 7.823912
28.218313 -54.871643 5.83185
28.916134 -52.018322 5.886649
27.98349 -54.450977 3.735199
28.891092 -44.886707 41.109688
29.038988 -44.625591 38.742489
29.5599 -51.399227 28.079262
29.563501 -48.859108 30.185608
29.71636 -48.375553 27.945417
29.905098 -45.221386 27.682226
30.139849 -41.959583 27.326332
30.390656 -38.571842 27.18346
30.483013 -41.197845 25.30895
30.838423 -40.844505 23.204653
31.265781 -40.064766 21.098257
31.644657 -39.612106 19.0714
31.090235 -42.913628 19.085094
30.811588 -45.50053 17.003685
30.39233 -48.083988 14.668732
27.733589 -61.51704 10.275555
28.067129 -58.981613 10.159376
27.417326 -60.98748 7.843766
27.138014 -60.459095 5.814732
26.824003 -59.891079 3.686486
26.068192 -61.891445 1.553664
25.339413 -63.70892 -0.705453
26.431377 -68.591309 5.857347
26.000454 -70.374054 3.491918
26.409918 -71.060364 5.844449
28.979492 -55.790565 38.400108
29.099873 -53.171688 37.944069
29.119602 -55.598518 35.837345
29.231237 -55.266502 33.355572
29.317602 -54.806835 31.127644
29.40514 -54.320019 28.469696
29.47994 -53.846409 26.137632
29.562246 -53.260372 23.832279
29.645702 -52.693203 21.378168
29.681498 -52.447624 19.096579
29.33515 -55.326206 19.211866
28.965548 -57.648907 17.173828
28.490421 -59.934696 14.78649
28.191509 -62.738834 14.842316
27.955404 -62.248291 12.460803
27.431355 -64.311081 10.212433
26.902924 -66.564674 8.035624
31.451294 -42.913303 6.083328
32.532017 -17.131203 26.213457
32.95369 -19.950277 24.468594
33.239925 -23.08238 22.716713
29.164837 -50.142887 37.555386
29.195688 -47.352188 36.924728
29.19573 -44.135582 36.387653
29.500828 -46.277542 32.140911
29.365328 -43.628437 34.156826
30.72146 -29.090542 28.640221
30.666105 -35.392059 27.020081
30.985546 -31.86331 26.898989
31.368286 -28.210587 26.665966
32.057606 -27.457605 24.686195
32.74107 -26.874805 22.750132
32.031998 -39.138458 16.896536
32.398544 -38.532246 14.856899
32.151215 -40.734661 10.512744
31.402889 -43.477345 8.262374
30.527617 -46.077114 5.87074
29.746674 -51.856323 16.983805
29.801046 -51.230824 14.74984
29.815514 -50.702152 12.511948
28.570705 -55.992332 10.138323
29.146685 -53.122272 10.211684
29.798143 -50.177437 10.245072
29.743553 -49.646545 7.915717
29.709173 -49.005531 5.876938
29.55352 -48.608948 3.650033
28.486759 -51.203629 1.529238
28.991008 -51.918883 40.179704
28.955512 -50.613118 41.067253
28.908968 -51.984484 41.445825
30.355604 -45.490656 2.690176
30.887448 -44.161058 3.764523
29.911981 -46.926947 2.672941
29.817449 -46.797497 1.591485
30.355604 -45.490656 2.690176
31.21242 -23.576272 28.288242
31.045454 -22.1223 29.064363
30.85921 -24.06707 29.201156
27.200606 -56.872915 2.577228
27.521222 -55.496681 2.594629
27.662873 -55.827211 3.717798
24.946622 -67.048798 -1.609019
24.963448 -65.831112 -1.6483
24.963448 -65.831112 -1.6483
25.037246 -64.588988 -1.70184
25.265616 -64.951044 -0.651914
28.597503 -48.983617 -1.621541
28.705355 -49.265867 -0.600839
29.032337 -56.955362 36.12235
29.049547 -55.694541 37.118727
28.962282 -57.051386 37.403732
29.199231 -56.517376 32.352582
29.152448 -56.650415 33.625517
29.242413 -56.287543 31.238618
29.27442 -55.036669 32.241608
29.199231 -56.517376 32.352582
29.347062 -55.555076 27.402938
29.327634 -55.704439 28.657316
29.384462 -55.318272 26.236906
29.44254 -54.083214 27.303664
29.347062 -55.555076 27.402938
27.960095 -63.842172 13.752489
28.09046 -64.113661 15.032964
27.859046 -65.216999 13.943137
31.880268 -41.541311 7.247794
31.872204 -41.437326 6.046397
33.800039 -15.742039 23.460424
33.60875 -14.355042 24.262106
33.557026 -17.62968 23.534304
33.800039 -15.742039 23.460424
25.849738 -71.2994 2.431579
26.054455 -71.616066 3.545613
31.52559 -16.498425 28.808421
31.359518 -18.3211 28.920326
31.944051 -16.037701 27.87685
31.52559 -16.498425 28.808421
32.130428 -17.469409 27.135112
32.345641 -15.699495 26.955194
31.944051 -16.037701 27.87685
29.384542 -42.091278 33.944896
29.472688 -43.42676 32.968344
29.491902 -41.889601 32.756414
29.271105 -42.249704 35.079283
29.384542 -42.091278 33.944896
30.309855 -31.062101 29.731952
30.075086 -31.36499 30.720256
30.219965 -32.766641 29.846806
30.588096 -30.777147 28.749362
30.443218 -29.375496 29.622812
30.309855 -31.062101 29.731952
33.147804 -27.982988 20.885032
33.092877 -26.538681 21.768486
32.795997 -28.319112 21.866678
33.165958 -29.455941 19.976527
33.147804 -27.982988 20.885032
32.321936 -39.669403 12.691537
32.56382 -38.232422 13.821575
32.156661 -39.969227 13.726862
32.032996 -41.070435 11.554784
32.440155 -39.33363 11.649497
32.321936 -39.669403 12.691537
25.363804 -67.969673 0.314557
25.162329 -67.547016 -0.667728
25.393293 -66.615826 0.383911
25.360032 -69.307297 0.314403
25.363804 -67.969673 0.314557
25.590997 -68.376106 1.366041
25.413467 -70.549671 0.298477
25.360032 -69.307297 0.314403
28.888013 -49.27881 42.073841
28.817673 -47.994552 43.086224
28.970053 -49.213209 40.80772
28.888013 -49.27881 42.073841
28.955512 -50.613118 41.067253
29.705177 -46.596691 0.506916
29.606753 -46.402811 -0.563527
29.261554 -48.032982 0.489681
29.705177 -46.596691 0.506916
29.817449 -46.797497 1.591485
28.817628 -49.466673 0.483729
28.705355 -49.265867 -0.600839
29.261554 -48.032982 0.489681
26.795358 -70.553116 8.260351
26.985301 -69.52834 9.478787
29.198353 -57.899465 24.180502
29.301623 -56.597082 25.209096
29.198318 -57.561592 23.000722
29.198353 -57.899465 24.180502
29.220681 -57.168243 21.803953
29.336625 -56.010681 22.885244
29.198318 -57.561592 23.000722
29.070206 -58.370359 20.754822
29.208512 -56.819448 20.639344
29.220681 -57.168243 21.803953
28.920306 -59.452529 19.64902
29.070206 -58.370359 20.754822
28.718972 -60.657011 18.468975
28.856703 -59.226045 18.410167
28.920306 -59.452529 19.64902
27.651927 -66.307846 12.832512
27.859046 -65.216999 13.943137
27.4238 -67.384807 11.766653
27.500554 -66.022472 11.596804
27.651927 -66.307846 12.832512
27.207165 -68.496647 10.582285
27.4238 -67.384807 11.766653
26.985301 -69.52834 9.478787
27.050563 -68.131126 9.427447
27.207165 -68.496647 10.582285
33.180555 -14.632055 25.196711
33.60875 -14.355042 24.262106
31.194431 -20.233044 28.967666
31.045454 -22.1223 29.064363
31.563751 -19.719558 28.104109
31.359518 -18.3211 28.920326
31.194431 -20.233044 28.967666
29.53808 -40.201355 32.63651
29.491902 -41.889601 32.756414
29.626227 -41.536836 31.659958
29.575222 -38.477947 32.389848
29.53808 -40.201355 32.63651
29.649345 -36.864357 32.166744
29.575222 -38.477947 32.389848
29.746529 -38.235 31.316949
29.686932 -35.269779 32.01235
29.649345 -36.864357 32.166744
29.902924 -34.84547 30.964478
29.769204 -33.493839 31.882983
29.686932 -35.269779 32.01235
32.559077 -33.090878 20.038466
32.84674 -31.207731 20.04852
32.563261 -31.646566 20.973169
32.52714 -34.494488 19.09158
32.559077 -33.090878 20.038466
32.24366 -34.933323 20.01623
32.449364 -36.008625 18.060546
32.52714 -34.494488 19.09158
27.859984 -54.184602 2.643821
28.241685 -52.731943 2.666598
28.365191 -52.998317 3.757976
27.859984 -54.184602 2.643821
27.521222 -55.496681 2.594629
24.946622 -67.048798 -1.609019
25.162329 -67.547016 -0.667728
30.715592 -25.877284 29.354322
30.85921 -24.06707 29.201156
28.824144 -46.623255 42.693891
28.817673 -47.994552 43.086224
28.818413 -45.127157 42.341582
28.824144 -46.623255 42.693891
28.896823 -46.382804 41.461998
28.795368 -43.695263 42.044485
28.818413 -45.127157 42.341582
28.862274 -43.419742 40.873081
28.795368 -43.695263 42.044485
28.936222 -43.289185 39.689482
28.862274 -43.419742 40.873081
28.96504 -44.756149 39.926088
29.015729 -43.124334 38.534599
28.936222 -43.289185 39.689482
26.66004 -59.550768 2.587676
26.919167 -58.206951 2.594632
27.08313 -58.547262 3.693442
26.282134 -60.550951 1.521265
26.66004 -59.550768 2.587676
26.446098 -60.891262 2.620075
25.877147 -61.564073 0.494112
26.282134 -60.550951 1.521265
25.512757 -62.472811 -0.635447
25.877147 -61.564073 0.494112
25.703803 -62.800182 0.424105
25.159611 -63.296999 -1.653712
25.512757 -62.472811 -0.635447
25.159611 -63.296999 -1.653712
25.037246 -64.588988 -1.70184
29.065161 -47.504842 -1.63809
29.606753 -46.402811 -0.563527
29.065161 -47.504842 -1.63809
28.597503 -48.983617 -1.621541
26.259187 -71.959221 4.721878
26.054455 -71.616066 3.545613
26.205186 -70.717209 4.668183
26.585968 -71.501889 7.020601
26.619309 -70.111592 7.0842
26.795358 -70.553116 8.260351
26.451669 -72.405491 5.910562
26.585968 -71.501889 7.020601
26.259187 -71.959221 4.721878
26.451669 -72.405491 5.910562
29.096631 -56.816423 34.866404
29.032337 -56.955362 36.12235
29.17542 -55.43251 34.596458
29.096631 -56.816423 34.866404
29.152448 -56.650415 33.625517
29.283865 -55.947847 29.98629
29.242413 -56.287543 31.238618
29.361371 -54.563427 29.79867
29.283865 -55.947847 29.98629
29.327634 -55.704439 28.657316
29.397101 -55.12522 25.109822
29.384462 -55.318272 26.236906
29.301623 -56.597082 25.209096
28.519894 -61.886473 17.317886
28.718972 -60.657011 18.468975
28.287964 -63.040627 16.123983
28.09046 -64.113661 15.032964
28.423439 -61.58468 16.036219
28.519894 -61.886473 17.317886
28.287964 -63.040627 16.123983
31.388027 -42.807657 4.920371
31.872204 -41.437326 6.046397
30.950715 -44.266705 4.92748
30.887448 -44.161058 3.764523
31.388027 -42.807657 4.920371
28.848973 -53.395905 41.810167
28.908968 -51.984484 41.445825
28.872701 -54.604302 40.762917
28.848973 -53.395905 41.810167
28.890215 -55.85446 39.683832
28.961978 -54.540407 39.479192
28.872701 -54.604302 40.762917
28.877288 -57.152124 38.657539
28.890215 -55.85446 39.683832
28.962282 -57.051386 37.403732
28.877288 -57.152124 38.657539
25.643124 -70.969238 1.368563
25.79384 -70.043892 2.428902
25.849738 -71.2994 2.431579
25.413467 -70.549671 0.298477
25.643124 -70.969238 1.368563
32.767132 -15.109616 26.087757
32.345641 -15.699495 26.955194
32.945441 -16.653643 25.322412
33.180555 -14.632055 25.196711
32.767132 -15.109616 26.087757
33.354439 -19.516777 23.552917
33.557026 -17.62968 23.534304
33.156277 -18.06318 24.44998
33.497557 -21.082828 22.676977
33.354439 -19.516777 23.552917
33.096807 -21.516329 23.592653
33.60713 -22.6904 21.801685
33.497557 -21.082828 22.676977
29.0941 -42.879329 37.357181
29.015729 -43.124334 38.534599
29.117359 -44.380586 37.565071
29.186306 -42.503277 36.194696
29.280529 -43.882009 35.272239
29.271105 -42.249704 35.079283
29.0941 -42.879329 37.357181
29.186306 -42.503277 36.194696
29.838636 -31.894716 31.647613
29.769204 -33.493839 31.882983
29.838636 -31.894716 31.647613
30.075086 -31.36499 30.720256
30.563234 -27.662034 29.461915
30.443218 -29.375496 29.622812
30.873818 -27.305792 28.532628
30.715592 -25.877284 29.354322
30.563234 -27.662034 29.461915
33.342304 -24.642468 21.751776
32.990498 -24.978592 22.733422
33.092877 -26.538681 21.768486
33.60713 -22.6904 21.801685
33.342304 -24.642468 21.751776
33.165958 -29.455941 19.976527
32.84674 -31.207731 20.04852
32.359501 -37.409388 16.974142
32.449364 -36.008625 18.060546
32.12186 -37.737696 17.98294
32.542774 -37.106282 15.954324
32.359501 -37.409388 16.974142
32.215271 -38.835352 15.876718
32.752781 -36.887276 14.875304
32.542774 -37.106282 15.954324
32.752781 -36.887276 14.875304
32.56382 -38.232422 13.821575
32.569186 -39.082598 10.584559
32.440155 -39.33363 11.649497
32.230228 -40.45199 9.462502
32.569186 -39.082598 10.584559
31.856065 -41.823332 8.337317
32.230228 -40.45199 9.462502
31.777052 -42.106003 9.387559
31.427091 -43.195324 7.172851
31.880268 -41.541311 7.247794
31.856065 -41.823332 8.337317
28.374094 -50.951594 0.461224
28.817628 -49.466673 0.483729
28.930293 -49.718708 1.551744
28.111619 -52.560929 1.54084
28.616825 -51.374644 2.654996
28.241685 -52.731943 2.666598
27.990381 -52.316443 0.543196
28.111619 -52.560929 1.54084
28.374094 -50.951594 0.461224
27.990381 -52.316443 0.543196
27.200606 -56.872915 2.577228
26.919167 -58.206951 2.594632
3 1 42 41
3 0 164 166
3 164 44 165
3 164 165 166
3 2 47 45
3 2 49 47
3 2 51 49
3 1 54 52
3 1 41 54
3 3 167 168
3 3 169 171
3 169 57 170
3 169 170 171
3 6 172 174
3 172 61 173
3 172 173 174
3 6 63 61
3 4 66 64
3 7 69 67
3 7 70 69
3 7 72 70
3 8 75 73
3 8 77 75
3 8 78 77
3 9 81 79
3 9 83 81
3 5 86 84
3 10 89 87
3 10 91 89
3 10 175 177
3 177 176 91
3 175 176 177
3 11 178 179
3 12 92 43
3 12 93 92
3 13 96 94
3 15 97 46
3 15 98 97
3 15 100 98
3 17 101 48
3 17 102 101
3 17 104 102
3 19 105 50
3 19 106 105
3 20 109 107
3 22 110 53
3 22 111 110
3 22 112 111
3 11 113 55
3 11 180 182
3 182 181 113
3 180 181 182
3 184 183 56
3 23 116 114
3 185 119 186
3 187 186 117
3 185 186 187
3 188 120 189
3 190 121 191
3 192 191 120
3 190 191 192
3 193 122 194
3 195 123 196
3 197 196 122
3 195 196 197
3 25 124 58
3 25 125 124
3 25 127 125
3 27 128 59
3 27 129 128
3 28 198 200
3 198 130 199
3 198 199 200
3 28 131 130
3 28 132 131
3 23 133 60
3 23 114 133
3 201 134 202
3 29 203 204
3 29 205 206
3 208 207 115
3 30 209 210
3 30 211 212
3 30 213 215
3 213 135 214
3 213 214 215
3 31 136 62
3 31 137 136
3 24 138 118
3 32 139 65
3 32 140 139
3 14 141 95
3 216 142 217
3 218 217 68
3 216 217 218
3 220 219 142
3 33 221 223
3 223 222 71
3 221 222 223
3 33 224 226
3 224 143 225
3 224 225 226
3 16 144 99
3 34 145 74
3 34 146 145
3 34 147 146
3 35 148 76
3 35 227 229
3 229 228 148
3 227 228 229
3 35 230 231
3 18 149 103
3 36 150 80
3 36 232 234
3 234 233 150
3 232 233 234
3 36 235 237
3 235 151 236
3 235 236 237
3 37 152 82
3 37 153 152
3 26 154 126
3 38 155 85
3 38 156 155
3 21 157 108
3 39 158 88
3 39 159 158
3 39 160 159
3 40 161 90
3 40 162 161
3 40 163 162
3 41 238 240
3 240 239 11
3 238 239 240
3 42 241 243
3 243 242 41
3 241 242 243
3 42 244 245
3 246 43 247
3 44 248 250
3 248 43 249
3 248 249 250
3 44 12 43
3 45 46 13
3 47 46 45
3 47 15 46
3 47 48 15
3 49 48 47
3 49 17 48
3 49 50 17
3 51 50 49
3 51 19 50
3 52 53 20
3 54 53 52
3 54 22 53
3 54 55 22
3 41 55 54
3 41 11 55
3 251 56 252
3 57 253 255
3 253 56 254
3 253 254 255
3 57 256 258
3 258 257 56
3 256 257 258
3 260 259 23
3 261 58 262
3 263 58 264
3 265 25 266
3 267 266 58
3 265 266 267
3 268 59 269
3 270 269 25
3 268 269 270
3 271 59 272
3 273 27 274
3 275 274 59
3 273 274 275
3 276 28 277
3 278 60 279
3 280 279 28
3 278 279 280
3 281 60 282
3 283 23 284
3 285 284 60
3 283 284 285
3 286 29 287
3 61 288 289
3 61 290 292
3 290 30 291
3 290 291 292
3 61 62 30
3 63 62 61
3 63 31 62
3 64 65 24
3 66 65 64
3 66 32 65
3 67 68 14
3 69 68 67
3 69 293 295
3 295 294 68
3 293 294 295
3 69 296 297
3 70 298 300
3 300 299 69
3 298 299 300
3 70 301 302
3 70 303 305
3 303 71 304
3 303 304 305
3 72 71 70
3 72 33 71
3 73 74 16
3 75 74 73
3 75 34 74
3 75 76 34
3 77 76 75
3 77 35 76
3 77 306 308
3 308 307 35
3 306 307 308
3 78 309 311
3 311 310 77
3 309 310 311
3 78 312 313
3 79 80 18
3 81 80 79
3 81 36 80
3 81 82 36
3 83 82 81
3 83 37 82
3 84 85 26
3 86 85 84
3 86 38 85
3 87 88 21
3 89 88 87
3 89 39 88
3 89 90 39
3 91 90 89
3 91 40 90
3 91 314 316
3 316 315 40
3 314 315 316
3 318 317 91
3 320 319 11
3 321 6 322
3 43 323 324
3 92 325 327
3 327 326 43
3 325 326 327
3 92 328 329
3 92 330 331
3 93 332 334
3 334 333 92
3 332 333 334
3 93 335 336
3 94 95 4
3 96 95 94
3 96 14 95
3 46 96 13
3 97 96 46
3 97 14 96
3 97 67 14
3 98 67 97
3 98 7 67
3 98 99 7
3 100 99 98
3 100 16 99
3 48 100 15
3 101 100 48
3 101 16 100
3 101 73 16
3 102 73 101
3 102 8 73
3 102 103 8
3 104 103 102
3 104 18 103
3 50 104 17
3 105 104 50
3 105 18 104
3 105 79 18
3 106 79 105
3 106 9 79
3 107 108 5
3 109 108 107
3 109 21 108
3 53 109 20
3 110 109 53
3 110 21 109
3 110 87 21
3 111 87 110
3 111 10 87
3 111 337 339
3 339 338 10
3 337 338 339
3 112 340 342
3 342 341 111
3 340 341 342
3 112 343 344
3 55 112 22
3 113 112 55
3 113 345 347
3 347 346 112
3 345 346 347
3 113 348 349
3 351 350 113
3 56 352 353
3 355 354 56
3 114 115 1
3 116 115 114
3 116 356 358
3 358 357 115
3 356 357 358
3 359 116 360
3 361 360 23
3 359 360 361
3 362 116 363
3 365 364 116
3 117 118 0
3 119 118 117
3 119 24 118
3 366 119 367
3 120 368 370
3 368 119 369
3 368 369 370
3 120 24 119
3 120 64 24
3 121 64 120
3 121 4 64
3 371 121 372
3 122 373 375
3 373 121 374
3 373 374 375
3 122 4 121
3 122 94 4
3 123 94 122
3 123 13 94
3 58 376 378
3 376 123 377
3 376 377 378
3 124 123 58
3 124 13 123
3 124 45 13
3 125 45 124
3 125 2 45
3 125 126 2
3 127 126 125
3 127 26 126
3 59 127 25
3 128 127 59
3 128 26 127
3 128 84 26
3 129 84 128
3 129 5 84
3 379 27 380
3 130 381 382
3 130 383 385
3 383 27 384
3 383 384 385
3 130 129 27
3 131 129 130
3 131 5 129
3 131 107 5
3 132 107 131
3 132 20 107
3 60 132 28
3 133 132 60
3 133 20 132
3 133 52 20
3 114 52 133
3 114 1 52
3 134 386 387
3 134 388 390
3 388 3 389
3 388 389 390
3 391 0 392
3 393 0 394
3 395 117 396
3 397 396 0
3 395 396 397
3 398 117 399
3 401 400 117
3 115 42 1
3 402 42 403
3 404 403 115
3 402 403 404
3 406 405 42
3 135 407 408
3 135 409 411
3 409 29 410
3 409 410 411
3 62 135 30
3 136 135 62
3 136 29 135
3 136 412 414
3 414 413 29
3 412 413 414
3 137 415 417
3 417 416 136
3 415 416 417
3 137 418 419
3 118 44 0
3 138 44 118
3 138 12 44
3 65 138 24
3 139 138 65
3 139 12 138
3 139 93 12
3 140 93 139
3 140 420 422
3 422 421 93
3 420 421 422
3 95 66 4
3 141 66 95
3 141 32 66
3 68 141 14
3 142 141 68
3 142 32 141
3 142 140 32
3 423 140 424
3 425 424 142
3 423 424 425
3 427 426 140
3 71 428 429
3 431 430 71
3 143 432 433
3 143 434 436
3 434 6 435
3 434 435 436
3 99 72 7
3 144 72 99
3 144 33 72
3 74 144 16
3 145 144 74
3 145 33 144
3 145 143 33
3 146 143 145
3 146 6 143
3 146 63 6
3 147 63 146
3 147 31 63
3 76 147 34
3 148 147 76
3 148 31 147
3 148 137 31
3 437 137 438
3 439 438 148
3 437 438 439
3 441 440 137
3 443 442 35
3 103 78 8
3 149 78 103
3 149 444 446
3 446 445 78
3 444 445 446
3 80 149 18
3 150 149 80
3 150 447 449
3 449 448 149
3 447 448 449
3 150 450 451
3 453 452 150
3 151 454 455
3 151 456 457
3 82 151 36
3 152 151 82
3 152 458 460
3 460 459 151
3 458 459 460
3 152 461 463
3 461 134 462
3 461 462 463
3 153 134 152
3 153 3 134
3 126 51 2
3 154 51 126
3 154 19 51
3 85 154 26
3 155 154 85
3 155 19 154
3 155 106 19
3 156 106 155
3 156 9 106
3 108 86 5
3 157 86 108
3 157 38 86
3 88 157 21
3 158 157 88
3 158 38 157
3 158 156 38
3 159 156 158
3 159 9 156
3 159 83 9
3 160 83 159
3 160 37 83
3 90 160 39
3 161 160 90
3 161 37 160
3 161 153 37
3 162 153 161
3 162 3 153
3 162 57 3
3 163 57 162
3 163 464 466
3 466 465 57
3 464 465 466
3 467 163 468
3 469 468 40
3 467 468 469
3 470 163 471
3 473 472 163
3 475 474 10
