ply
format ascii 1.0
element vertex 1030
property float x
property float y
property float z
element face 1133
property list uchar int vertex_index
end_header
-6.843683 -10.74527 -62.383541
13.532147 -51.377697 -35.660637
-6.289782 11.187957 -70.022224
-11.201054 -34.686432 -54.878345
1.06962 -31.75075 -48.935802
-5.624463 21.40056 -69.535439
-33.208988 -54.978943 -34.929504
-11.644792 -50.290253 -50.716774
15.805842 -43.734325 -31.982767
9.896015 -36.803749 -38.542763
4.474018 -28.330954 -45.362991
7.138631 -42.793209 -42.071037
20.639816 -48.63665 -25.30826
18.739723 -57.543106 -29.198486
-2.159414 2.618351 -63.907612
-6.76012 -0.361538 -66.780869
-2.873408 -8.296381 -60.364635
-12.801277 5.704574 -70.912178
-34.852016 -43.93642 -43.533367
-28.580629 -46.380283 -48.593632
-20.368896 -48.652779 -51.138393
-9.220489 -20.672253 -59.134983
2.803171 -47.152935 -45.388348
-4.264316 -33.963917 -52.170731
-3.623931 -20.480474 -56.128201
0.303506 -18.365683 -52.774372
-31.847189 -59.418964 -30.559431
-11.607743 -57.617226 -48.996864
14.648417 -47.624504 -33.821999
12.920426 -40.419186 -35.197998
11.748159 -43.88327 -36.968464
8.608932 -39.946793 -40.341503
10.361174 -47.234612 -38.87606
19.476191 -53.069351 -27.375044
-2.571131 -2.880743 -62.286884
-1.171281 -7.482529 -58.61541
-9.186964 14.850807 -71.942596
-12.944426 11.835321 -72.415161
-9.500757 9.080718 -71.096199
-9.549664 2.792621 -69.19696
-6.547618 5.488169 -68.749542
-31.939989 -38.619671 -50.238998
-28.231407 -39.473194 -52.20752
-24.459753 -47.493191 -50.316505
-7.596438 -42.351303 -51.507252
-4.120605 -41.74136 -50.164047
-7.471737 -34.704556 -53.489567
-7.051416 -27.35829 -55.643158
-10.347265 -27.411209 -57.004536
2.972758 -30.315971 -47.140476
2.176239 -23.441504 -49.057457
0.55762 -24.648371 -50.906559
-1.489678 -19.40382 -54.623848
-1.582843 -25.898825 -52.691551
-9.006163 19.921186 -71.754951
-5.983762 16.48016 -70.338943
-11.653677 -42.263355 -52.795467
7.130352 -33.014774 -41.797718
5.591346 -35.092548 -43.753754
3.943786 -37.333996 -45.444675
18.337561 -46.316967 -28.834953
17.258169 -50.660244 -30.653603
16.378572 -54.726231 -32.434322
-3.849951 7.092825 -67.180244
-4.326312 1.641484 -65.827858
-4.647791 -4.043397 -63.830811
-6.850972 -5.937109 -64.513565
-5.003318 -9.456858 -61.766895
-12.505415 -0.959878 -68.54464
-9.40145 -3.326544 -66.758804
-8.864308 -9.341716 -63.934467
-35.847733 -48.232029 -35.98349
-34.229084 -49.676491 -39.404057
-31.716991 -51.307247 -42.422573
-31.97913 -45.287155 -46.336136
-28.456953 -52.818729 -45.022194
-16.064484 -56.799313 -49.111538
-15.908419 -49.393059 -51.333698
-15.596308 -42.041618 -53.544415
-15.008171 -34.774292 -55.77737
-14.14992 -27.223017 -58.221031
-12.654007 -20.124052 -60.543137
-10.916285 -14.121056 -62.532845
-7.965026 -15.035209 -60.989983
5.138675 -44.887985 -43.86578
1.780784 -39.488113 -47.077805
-0.895213 -40.709908 -48.668201
-1.398603 -33.27002 -50.595955
-4.035622 -26.768621 -54.203163
-6.255561 -20.72658 -57.71521
-5.532864 -14.918756 -59.731121
-1.361066 -13.222135 -56.654175
-3.288549 -14.150818 -58.33934
14.156552 -49.671257 -34.694786
13.262482 -46.099277 -35.378105
12.653308 -47.618698 -36.290611
11.126179 -45.569462 -37.871342
11.962225 -49.205231 -37.261276
-7.720047 12.925487 -71.105476
-9.328588 11.915546 -71.626671
-7.84172 10.107585 -70.668625
-7.947641 7.299314 -70.019516
-6.479364 8.455018 -69.549652
-9.501333 -38.589851 -53.173077
-7.715682 -38.388531 -52.560455
-9.30738 -34.803902 -54.193569
-9.043592 -31.335777 -55.170906
-10.8951 -30.995068 -55.965652
2.037019 -30.847561 -48.121201
1.652712 -27.496544 -49.081059
0.734063 -28.094727 -49.976421
-0.448227 -25.311844 -51.814434
-0.313894 -28.915182 -50.794243
-7.320583 20.682253 -70.815292
-7.423162 18.23859 -71.174164
-5.83343 18.957813 -70.106903
-32.563168 -57.328106 -32.664536
-30.997068 -60.74876 -32.237816
-31.699495 -58.411064 -34.380016
-32.294254 -55.883842 -36.598038
-9.472733 -53.914165 -49.492229
-9.630426 -49.951298 -50.38229
-9.657154 -46.075939 -51.289444
-11.738124 -46.125443 -51.780319
16.547457 -41.739803 -30.999741
11.421333 -38.734562 -36.847416
8.497135 -34.905781 -40.150379
7.885916 -41.199341 -41.234653
7.117887 -37.484047 -41.974739
6.379678 -38.88158 -42.845222
4.901145 -36.340462 -44.513298
5.505625 -40.126881 -43.747276
21.517502 -49.343334 -23.64967
19.145056 -55.430168 -28.188227
18.397444 -51.849964 -29.069744
18.077032 -54.276741 -29.840096
16.916779 -53.01136 -31.425356
17.667986 -56.526627 -30.803358
-2.948537 4.898462 -65.604721
-4.12534 4.507435 -66.653198
-3.156741 2.371137 -64.972229
-2.725143 -5.576911 -61.347202
-3.547963 -3.419249 -63.108742
-3.69354 -6.117154 -62.109001
-4.79875 -6.682404 -62.819904
-3.956782 -8.742924 -61.220646
-12.932677 8.744529 -71.765381
-12.628029 2.313453 -69.775253
-8.030794 1.473084 -68.123993
-9.461782 -0.169651 -68.05896
-8.077904 -1.498571 -66.986488
-8.072165 -4.611405 -65.690643
-6.858318 -3.296299 -65.641991
-35.909031 -43.435524 -41.941029
-35.601044 -46.139885 -39.905243
-34.537998 -46.94743 -41.514828
-33.017536 -50.741711 -40.841393
-33.320534 -47.823219 -42.863804
-30.2738 -42.504593 -49.449368
-32.063446 -41.941368 -48.28775
-30.291168 -45.814339 -47.605518
-30.280439 -48.996399 -45.698265
-28.446625 -49.896118 -46.762093
-26.53936 -53.587826 -46.137482
-26.593084 -50.250496 -47.881756
-22.357233 -48.172939 -50.804646
-22.475016 -51.540051 -49.374207
-20.33695 -52.337257 -49.776516
-18.278963 -56.257652 -48.874928
-18.378965 -52.583817 -50.132149
-16.174675 -53.058712 -50.23698
-18.196682 -49.007175 -51.347927
-17.738365 -41.501339 -53.841896
-17.446541 -38.018055 -54.988239
-15.524817 -38.269047 -54.722
-16.086992 -26.858742 -58.740253
-15.351362 -23.562218 -59.850536
-13.380198 -23.822151 -59.296257
-14.506966 -20.124405 -61.016026
-11.443507 -10.864321 -64.116325
-9.879335 -11.402729 -63.385937
-10.312817 -8.479524 -64.827156
5.923331 -49.056782 -43.030109
4.09701 -46.172024 -44.586105
3.485872 -42.429024 -45.397106
2.166007 -43.02977 -46.310101
-4.254978 -37.88015 -51.139179
-2.412089 -41.393795 -49.382904
-2.683875 -37.336884 -50.431309
-1.241956 -36.769386 -49.690746
-2.819561 -33.577686 -51.445652
-2.800595 -29.899485 -52.442337
-4.107867 -30.397272 -53.107018
-8.282699 -24.007294 -57.426285
-6.681116 -23.853331 -56.726383
-7.767795 -20.665674 -58.50082
-7.186303 -17.832533 -59.39785
-8.60975 -17.556103 -60.175407
5.148866 -27.300068 -44.465477
4.01611 -25.224817 -46.199638
1.177889 -20.8957 -50.935265
1.932117 -20.310045 -49.948269
1.027333 -17.698555 -51.895523
0.254368 -15.323114 -53.718365
-0.567769 -12.820652 -55.740295
-0.529652 -15.943672 -54.63063
-2.465732 -19.961924 -55.371304
-2.409589 -16.640142 -56.535023
-3.487518 -17.255354 -57.261753
-4.38977 -14.511329 -59.103313
-4.678249 -17.630632 -58.009796
-30.906553 -61.709938 -28.332386
-33.986195 -53.947552 -33.171257
-9.481711 -57.739536 -48.713139
-11.67665 -53.977001 -49.841969
15.16262 -45.552044 -32.937275
14.406464 -42.161774 -33.566406
13.813068 -44.092342 -34.470181
12.368957 -42.292072 -36.044189
10.793152 -40.314251 -37.755791
9.27484 -38.354111 -39.426334
10.1569 -41.87167 -38.666405
9.608177 -43.67445 -39.447334
8.701573 -44.847233 -40.510189
21.642296 -52.532997 -22.98414
20.90201 -51.796303 -24.649797
19.986969 -50.811054 -26.382225
20.383471 -54.18354 -25.695969
-2.32936 -0.133599 -63.094769
-1.656259 -2.40526 -61.332668
-1.852878 -5.151157 -60.478836
-1.996595 -7.951622 -59.513226
-10.96317 16.166597 -72.554253
-10.964426 13.311333 -72.31134
-11.168496 10.484849 -71.871552
-11.118714 7.582562 -71.153954
-11.081817 4.42388 -70.18895
-9.447683 6.055997 -70.244644
-8.077204 4.386619 -69.179787
-6.749812 2.59266 -67.890617
-33.318539 -34.799263 -51.107063
-31.587328 -35.124146 -52.285595
-30.212246 -39.091591 -51.247536
-28.343964 -43.057625 -50.439922
-26.446632 -47.150009 -49.516434
-26.361168 -43.695786 -51.179165
-24.284149 -44.122364 -51.835049
-22.236708 -44.503654 -52.280399
-20.173035 -44.924473 -52.51709
-5.877804 -42.027924 -50.890232
-6.000678 -38.075043 -51.915955
-5.822442 -34.385689 -52.840714
-5.688683 -30.941902 -53.796352
-7.36434 -31.027212 -54.566246
-8.661219 -27.641798 -56.262844
-9.90476 -23.840937 -58.158379
3.730483 -29.231882 -46.298523
3.280348 -25.801311 -47.207577
2.56385 -26.783707 -48.062122
1.48949 -24.386539 -49.825985
0.407917 -21.546257 -51.812611
-0.519716 -18.871481 -53.700672
-0.564704 -21.956118 -52.847744
-1.554357 -22.694452 -53.626385
-2.640972 -23.050808 -54.454205
-10.904679 18.936874 -72.469185
-9.256043 17.528887 -72.042122
-7.584242 15.804073 -71.287956
-6.083777 13.911029 -70.266907
-30.296026 -62.737759 -30.177229
-7.689856 -46.148842 -50.66507
-9.616334 -42.317627 -52.212742
-11.411883 -38.582523 -53.771549
6.416376 -29.724216 -42.685398
5.749111 -30.73403 -43.574879
7.845899 -36.306568 -41.040562
6.371161 -34.150986 -42.792042
5.024193 -31.779104 -44.501469
4.260169 -32.648827 -45.416012
3.424856 -33.767197 -46.281246
2.475583 -34.816647 -47.12923
17.92997 -42.95763 -29.326683
17.156937 -45.125889 -30.3629
18.906071 -49.640392 -28.1276
17.759203 -48.494991 -29.747595
16.473492 -47.012867 -31.381731
15.991785 -49.131744 -32.238316
15.551397 -51.215469 -33.086987
15.016281 -53.224113 -34.052525
-4.791679 11.933802 -69.060951
-3.707163 9.821133 -67.704483
-4.981862 9.24739 -68.698387
-5.156879 6.664701 -68.169632
-5.337302 3.764224 -67.390007
-5.567104 0.854044 -66.502876
-3.37309 -0.467366 -64.125496
-4.51328 -1.251544 -64.87175
-5.706857 -2.09557 -65.432915
-5.750908 -4.875681 -64.297531
-5.857636 -7.635052 -63.170193
-6.86904 -8.702463 -63.309917
-5.995003 -10.341696 -62.063797
-10.994002 1.043265 -68.978058
-10.907389 -2.14277 -67.711525
-10.639251 -5.376387 -66.281097
-9.194623 -6.529078 -65.30925
-7.931568 -7.52239 -64.358017
-7.703669 -10.111396 -63.095947
-35.250118 -50.665455 -33.760445
-34.564217 -51.636967 -35.503128
-36.448055 -45.323601 -38.23719
-35.158257 -48.910191 -37.720066
-33.766811 -52.381454 -37.24509
-32.799812 -53.16436 -38.791431
-34.989246 -40.847752 -45.633568
-33.595486 -38.233971 -48.961632
-33.589516 -41.60598 -46.919796
-33.621834 -44.524479 -44.917267
-31.984224 -48.361988 -44.274193
-30.126839 -52.085003 -43.82616
-24.561825 -50.897346 -48.719975
-13.899952 -57.245865 -49.145401
-13.990225 -53.549141 -50.131645
-13.831257 -49.823128 -51.120155
-17.983139 -45.441158 -52.535282
-15.914693 -45.547909 -52.492146
-13.752273 -45.930809 -52.181141
-13.604139 -42.133579 -53.239819
-13.447295 -38.471313 -54.301701
-13.110537 -34.467857 -55.482433
-14.590939 -30.857952 -57.025776
-12.691176 -30.773354 -56.596489
-12.194607 -27.286283 -57.670605
-11.64592 -23.797041 -58.792408
-10.89261 -20.702879 -59.752899
-11.803748 -17.151613 -61.511784
-10.193501 -17.575851 -60.797485
-9.39581 -14.555834 -61.80608
-8.528319 -12.065496 -62.57098
-7.328245 -12.475909 -61.840508
8.013909 -46.544407 -41.260216
6.955364 -47.733383 -42.227757
6.214614 -43.944897 -42.961224
4.506823 -41.14513 -44.642262
2.913307 -38.59074 -46.278206
1.326275 -35.482399 -48.061417
-2.157278 -45.446445 -48.467297
-0.571574 -44.62833 -47.777279
0.942492 -44.173409 -46.95948
0.424161 -40.064941 -47.954445
0.189342 -36.320454 -48.798466
-0.097388 -32.614124 -49.770565
-1.494761 -29.625389 -51.589207
-2.762808 -26.368622 -53.473381
-3.836855 -23.56082 -55.161739
-5.473346 -27.277382 -54.871563
-5.161162 -23.751949 -55.936134
-4.852588 -20.710621 -56.893307
-5.879116 -17.862352 -58.678337
-6.677036 -15.049882 -60.344715
-6.232346 -12.478829 -61.247086
2.936696 -22.747971 -48.047783
-0.463858 -10.016495 -56.598957
-1.281738 -10.206438 -57.697277
-2.08922 -10.792953 -58.469547
-1.437495 -16.255955 -55.648624
-2.284882 -13.682994 -57.541992
-3.104773 -11.131582 -59.41021
-4.158901 -11.654835 -60.140816
-5.194695 -12.20616 -60.696598
-6.472523 21.041407 -70.175365
-7.279724 21.860936 -70.487274
-6.431664 22.22009 -69.847347
15.486684 -42.059337 -32.278292
15.857492 -41.062077 -31.78678
16.176649 -42.737064 -31.491254
10.235753 -36.161034 -38.089188
10.998411 -37.12644 -37.241514
10.658674 -37.769155 -37.69509
9.535344 -35.19013 -38.890482
10.235753 -36.161034 -38.089188
9.196575 -35.854765 -39.346571
8.835904 -34.241146 -39.69429
9.535344 -35.19013 -38.890482
20.987572 -47.459673 -24.830124
21.426414 -47.813015 -24.000829
21.078659 -48.989992 -24.478965
20.486186 -46.997734 -25.656621
20.987572 -47.459673 -24.830124
20.102735 -48.008484 -26.191635
20.486186 -46.997734 -25.656621
-2.029311 3.980782 -64.19285
-1.670253 2.767604 -63.292422
-2.553975 3.758407 -64.756167
-2.423872 5.120838 -65.041404
-2.029311 3.980782 -64.19285
-13.720489 6.187952 -71.1361
-13.786189 7.707929 -71.562702
-12.866977 7.224552 -71.33878
-13.640945 4.478953 -70.612763
-13.720489 6.187952 -71.1361
-12.714653 4.009014 -70.343716
-13.554321 2.783392 -70.0443
-13.640945 4.478953 -70.612763
-18.242278 -36.020792 -55.709261
-18.506422 -37.730856 -55.103443
-17.242742 -36.097328 -55.623108
-18.242278 -36.020792 -55.709261
-15.892449 -21.668139 -60.686599
-16.342419 -23.284836 -60.11685
-15.47025 -19.949232 -61.269345
-14.929164 -21.843311 -60.433281
-15.892449 -21.668139 -60.686599
-11.684438 -9.246205 -64.887962
-12.325391 -10.560894 -64.473137
-11.119093 -8.053806 -65.243378
-10.878162 -9.671923 -64.471741
-11.684438 -9.246205 -64.887962
3.45009 -46.66248 -44.987227
4.417285 -48.160944 -44.206347
3.770365 -48.651399 -44.607468
-34.225714 -53.57271 -32.255206
-33.587599 -55.164131 -31.96726
-10.544727 -57.678381 -48.855002
-9.333186 -59.739355 -48.293777
-10.396202 -59.6782 -48.43564
21.388254 -53.712858 -23.500927
21.701031 -54.17162 -22.637063
21.01811 -53.344511 -24.333756
21.272153 -52.16465 -23.816969
21.388254 -53.712858 -23.500927
20.758841 -54.538129 -24.856842
20.642741 -52.989922 -25.172883
21.01811 -53.344511 -24.333756
-1.211342 -2.176333 -60.775547
-1.554822 -1.022577 -61.733341
-1.51208 -6.316843 -59.547123
-1.410396 -4.89563 -59.96673
-1.069597 -6.061316 -59.035017
-31.43208 -33.378384 -53.214043
-32.273103 -33.253612 -52.698103
-29.221826 -39.282393 -51.727528
-29.981918 -37.383114 -52.204059
-28.991499 -37.573915 -52.684052
-24.186631 -42.3373 -52.598303
-25.251113 -42.096903 -52.340952
-23.162911 -42.527945 -52.820978
-23.260428 -44.313009 -52.057724
-24.186631 -42.3373 -52.598303
-22.132098 -42.619556 -53.023403
-23.162911 -42.527945 -52.820978
-6.737121 -42.189614 -51.198742
-5.802058 -44.110899 -50.407419
-6.661374 -44.272588 -50.715929
-9.929537 20.605174 -71.934143
-9.030219 21.093392 -71.524277
-9.955421 19.42903 -72.112068
-10.878794 20.113018 -72.29126
-9.929537 20.605174 -71.934143
-30.224302 -62.293859 -32.161892
-30.539471 -61.215685 -33.200123
-7.683034 -48.041319 -50.258904
-6.655991 -48.157694 -49.890442
13.269164 -39.652851 -34.741493
14.012183 -40.524146 -33.925697
13.663445 -41.29048 -34.382202
6.773364 -31.369495 -42.241558
7.095401 -30.672318 -41.809036
7.452389 -32.317597 -41.365196
18.133766 -44.637298 -29.080818
18.537367 -43.610231 -28.530831
18.741163 -45.2899 -28.284966
-4.088068 12.117373 -68.439533
-4.701605 13.194475 -69.130348
-3.778557 8.456979 -67.442363
-3.240784 8.717446 -66.952396
-3.312177 7.353293 -66.690277
-13.840592 12.392354 -72.551476
-12.860335 13.34339 -72.599022
-13.254976 -2.164001 -68.196106
-13.363086 -0.519659 -68.836849
-12.406464 -2.614742 -67.860138
-13.254976 -2.164001 -68.196106
-35.548925 -49.448742 -34.871967
-35.83278 -49.030039 -33.932394
-36.131588 -47.813326 -35.043917
-36.664363 -43.904991 -39.309557
-37.00885 -43.62083 -38.390005
-31.579448 -52.768772 -41.374939
-32.22972 -52.486004 -40.584349
-32.367263 -51.024479 -41.631983
-30.857819 -53.107123 -42.161705
-31.579448 -52.768772 -41.374939
-35.019117 -39.239855 -46.656881
-35.634461 -39.001425 -45.93745
-28.432634 -54.256203 -44.111563
-29.267578 -53.88934 -43.513546
-29.291896 -52.451866 -44.424177
-27.55342 -54.711128 -44.660568
-28.432634 -54.256203 -44.111563
-25.595729 -55.516333 -45.761364
-25.571496 -53.945311 -46.59442
-22.564403 -53.204994 -48.606448
-21.501662 -53.642395 -48.874522
-16.056988 -58.441284 -48.586489
-17.164228 -58.170454 -48.468184
-17.171723 -56.528482 -48.993233
-14.923203 -58.886933 -48.617304
-16.056988 -58.441284 -48.586489
-14.982218 -57.022589 -49.12847
-13.840937 -59.110208 -48.634236
-14.923203 -58.886933 -48.617304
-18.890129 -43.418192 -53.172024
-19.078087 -45.182816 -52.526186
-19.985077 -43.159849 -53.162928
-11.360017 -15.636335 -62.022315
-12.188685 -15.375827 -62.374519
-11.744953 -13.860549 -62.88505
8.379695 -48.419379 -40.956721
8.838757 -47.709755 -40.489193
-3.138942 -43.593902 -49.315672
-3.08939 -45.489095 -48.900745
-4.071053 -43.636553 -49.74912
2.292281 -20.011669 -49.433662
1.8404 -18.805657 -50.39786
-0.103767 -11.30226 -55.585832
-0.087288 -9.865531 -56.048319
-11.594139 -59.39741 -48.576355
-10.396202 -59.6782 -48.43564
-0.753758 -7.320881 -58.047753
-1.069597 -6.061316 -59.035017
-28.034384 -37.728295 -53.086016
-28.991499 -37.573915 -52.684052
-27.224742 -39.772318 -52.527187
-28.034384 -37.728295 -53.086016
-8.187429 21.473925 -71.054447
-7.279724 21.860936 -70.487274
-8.163373 20.301719 -71.285122
-9.030219 21.093392 -71.524277
-8.187429 21.473925 -71.054447
-30.890684 -60.046837 -34.271223
-30.539471 -61.215685 -33.200123
-31.348281 -59.579912 -33.308916
-31.187627 -58.874083 -35.262199
-30.890684 -60.046837 -34.271223
-31.485007 -57.610472 -36.37121
-31.187627 -58.874083 -35.262199
-31.996875 -57.147453 -35.489027
-31.714374 -56.382057 -37.387997
-31.485007 -57.610472 -36.37121
-8.467939 -53.87887 -49.257973
-8.341753 -55.874675 -48.864176
-8.546786 -51.897436 -49.703003
-8.467939 -53.87887 -49.257973
-9.551579 -51.932732 -49.937259
-8.653319 -49.942547 -50.117514
-8.546786 -51.897436 -49.703003
-9.64379 -48.013618 -50.835867
-8.666683 -48.004868 -50.57109
-8.653319 -49.942547 -50.117514
16.199551 -40.077812 -31.38915
16.963555 -40.7192 -30.51596
16.199551 -40.077812 -31.38915
15.857492 -41.062077 -31.78678
11.742176 -37.926462 -36.413746
12.491723 -38.768774 -35.589037
12.17088 -39.576874 -36.022707
11.742176 -37.926462 -36.413746
10.998411 -37.12644 -37.241514
8.13578 -33.263101 -40.541527
8.835904 -34.241146 -39.69429
7.813744 -33.960278 -40.974049
7.452389 -32.317597 -41.365196
8.13578 -33.263101 -40.541527
21.882133 -48.243433 -23.135814
21.903734 -49.79253 -22.777202
21.882133 -48.243433 -23.135814
21.426414 -47.813015 -24.000829
18.951607 -46.848642 -27.954981
18.741163 -45.2899 -28.284966
-2.861471 6.256111 -65.902515
-2.423872 5.120838 -65.041404
-3.399244 5.995643 -66.392482
-3.312177 7.353293 -66.690277
-2.861471 6.256111 -65.902515
-13.843032 9.373 -71.971626
-13.848906 10.918397 -72.296516
-12.938551 10.289925 -72.090271
-13.843032 9.373 -71.971626
-13.786189 7.707929 -71.562702
-13.424392 1.117007 -69.452156
-13.554321 2.783392 -70.0443
-12.566722 0.676787 -69.159947
-13.363086 -0.519659 -68.836849
-13.424392 1.117007 -69.452156
-36.420448 -46.558515 -36.160995
-36.131588 -47.813326 -35.043917
-35.755038 -44.787705 -40.923136
-36.240858 -44.313133 -40.143583
-36.394852 -42.960953 -41.161476
-25.598358 -52.276646 -47.466557
-25.571496 -53.945311 -46.59442
-26.566222 -51.919161 -47.009619
-20.432628 -54.040999 -49.075676
-21.501662 -53.642395 -48.874522
-21.405983 -51.938654 -49.575361
-19.307957 -54.297455 -49.325722
-19.403635 -56.001196 -48.624882
-20.432628 -54.040999 -49.075676
-18.652334 -39.472498 -54.530271
-18.767742 -41.448283 -53.82533
-17.592453 -39.759697 -54.415067
-18.652334 -39.472498 -54.530271
-18.506422 -37.730856 -55.103443
-16.281879 -36.222824 -55.489988
-16.485679 -38.143551 -54.85512
-17.242742 -36.097328 -55.623108
-16.023556 -34.475447 -56.017674
-15.266494 -36.52167 -55.249685
-16.281879 -36.222824 -55.489988
-16.710234 -24.933098 -59.561708
-17.061102 -26.779373 -58.894039
-15.719177 -25.21048 -59.295395
-16.710234 -24.933098 -59.561708
-16.342419 -23.284836 -60.11685
-12.008564 -12.232181 -63.67679
-12.325391 -10.560894 -64.473137
-11.179896 -12.492688 -63.324585
-11.744953 -13.860549 -62.88505
-12.008564 -12.232181 -63.67679
5.330445 -49.603323 -43.428348
6.339344 -51.168459 -42.640303
5.010171 -47.614403 -43.808107
5.330445 -49.603323 -43.428348
4.417285 -48.160944 -44.206347
4.921176 -25.816561 -44.865555
5.538985 -27.022569 -43.930633
4.354798 -24.778936 -45.732636
4.921176 -25.816561 -44.865555
4.582488 -26.262442 -45.332558
3.810983 -23.658628 -46.648775
4.354798 -24.778936 -45.732636
1.388008 -17.499913 -51.371487
1.8404 -18.805657 -50.39786
1.479725 -19.0043 -50.921896
1.023333 -16.244391 -52.282018
1.388008 -17.499913 -51.371487
0.63685 -15.056671 -53.193439
1.023333 -16.244391 -52.282018
0.64085 -16.510835 -52.806944
0.255346 -13.955569 -54.145536
0.63685 -15.056671 -53.193439
-0.1567 -14.071883 -54.72933
-0.155723 -12.704339 -55.156502
0.255346 -13.955569 -54.145536
-5.604213 22.502331 -69.183594
-6.431664 22.22009 -69.847347
-31.197302 -61.044782 -27.323317
-30.475431 -62.626381 -27.126502
-31.594791 -60.184584 -28.427729
-31.197302 -61.044782 -27.323317
-32.065109 -59.039096 -29.541251
-31.376871 -60.564451 -29.445909
-31.594791 -60.184584 -28.427729
-32.518096 -57.899838 -30.661347
-32.065109 -59.039096 -29.541251
-32.876086 -56.854408 -31.7139
-32.205179 -58.373535 -31.611984
-32.518096 -57.899838 -30.661347
-33.274681 -55.637829 -32.917896
-32.876086 -56.854408 -31.7139
-33.587599 -55.164131 -31.96726
-8.275888 -59.697466 -48.131153
-9.333186 -59.739355 -48.293777
-8.346242 -57.787361 -48.474631
-8.275888 -59.697466 -48.131153
-9.477222 -55.82685 -49.102684
-8.341753 -55.874675 -48.864176
-8.346242 -57.787361 -48.474631
21.946196 -52.975792 -22.136032
21.701031 -54.17162 -22.637063
21.966132 -51.387361 -22.444437
21.946196 -52.975792 -22.136032
21.579899 -50.938165 -23.316905
21.903734 -49.79253 -22.777202
21.966132 -51.387361 -22.444437
20.575434 -55.794906 -25.344075
20.758841 -54.538129 -24.856842
20.204147 -55.356157 -26.152904
20.575434 -55.794906 -25.344075
19.750507 -54.799062 -26.992442
19.929831 -53.626446 -26.535507
20.204147 -55.356157 -26.152904
19.58494 -55.979471 -27.399034
19.310623 -54.249759 -27.781636
19.750507 -54.799062 -26.992442
19.443753 -57.156633 -27.844619
19.58494 -55.979471 -27.399034
19.241086 -58.213103 -28.349748
18.94239 -56.486637 -28.693357
19.443753 -57.156633 -27.844619
-1.806399 1.489229 -63.020813
-1.670253 2.767604 -63.292422
-1.891372 0.113253 -62.614391
-2.244387 1.242376 -63.50119
-1.806399 1.489229 -63.020813
-1.992809 -1.269429 -62.213718
-1.891372 0.113253 -62.614391
-1.554822 -1.022577 -61.733341
-1.312086 -3.522682 -60.393646
-1.211342 -2.176333 -60.775547
-1.754568 -3.778209 -60.905752
-1.312086 -3.522682 -60.393646
-1.410396 -4.89563 -59.96673
-11.869707 15.509028 -72.668568
-11.856603 16.870725 -72.707695
-11.870335 14.081397 -72.547111
-11.869707 15.509028 -72.668568
-10.963798 14.738965 -72.432796
-11.954426 12.573327 -72.36325
-12.860335 13.34339 -72.599022
-11.870335 14.081397 -72.547111
-36.505703 -41.646292 -42.205201
-36.394852 -42.960953 -41.161476
-36.040655 -41.861708 -43.024601
-36.505703 -41.646292 -42.205201
-35.512147 -42.112156 -43.82077
-35.380523 -43.685972 -42.737198
-36.040655 -41.861708 -43.024601
-33.138708 -33.091171 -52.108837
-33.962759 -33.004222 -51.44267
-32.452934 -34.961705 -51.696329
-33.138708 -33.091171 -52.108837
-32.273103 -33.253612 -52.698103
-30.66946 -35.399392 -52.723089
-31.43208 -33.378384 -53.214043
-30.899787 -37.107869 -51.766565
-30.66946 -35.399392 -52.723089
-29.981918 -37.383114 -52.204059
-26.289623 -41.883614 -52.01301
-27.296287 -41.58449 -51.693342
-27.224742 -39.772318 -52.527187
-25.322658 -43.909075 -51.507107
-26.289623 -41.883614 -52.01301
-25.251113 -42.096903 -52.340952
-21.100261 -42.829966 -53.141749
-21.204871 -44.714063 -52.398745
-22.132098 -42.619556 -53.023403
-19.985077 -43.159849 -53.162928
-21.100261 -42.829966 -53.141749
3.071549 -49.165795 -45.017073
3.770365 -48.651399 -44.607468
-4.949653 -43.779835 -50.112213
-5.802058 -44.110899 -50.407419
-4.999205 -41.884642 -50.527139
-4.071053 -43.636553 -49.74912
-4.949653 -43.779835 -50.112213
-11.872739 19.53122 -72.562905
-10.878794 20.113018 -72.29126
-11.827357 18.255864 -72.665161
-11.872739 19.53122 -72.562905
-10.933924 17.551735 -72.511719
-11.856603 16.870725 -72.707695
-11.827357 18.255864 -72.665161
-30.189307 -63.225266 -28.065531
-30.475431 -62.626381 -27.126502
-29.884044 -63.739176 -28.987952
-30.189307 -63.225266 -28.065531
-30.60129 -62.223849 -29.254807
-29.510652 -64.334772 -29.977127
-29.884044 -63.739176 -28.987952
-29.873781 -63.288359 -31.131599
-30.646547 -61.743259 -31.207523
-30.224302 -62.293859 -32.161892
-29.510652 -64.334772 -29.977127
-29.873781 -63.288359 -31.131599
-6.708083 -46.171358 -50.294838
-6.655991 -48.157694 -49.890442
-7.643147 -44.250073 -51.086161
-6.661374 -44.272588 -50.715929
-6.708083 -46.171358 -50.294838
-8.673505 -46.112391 -50.977257
-7.683034 -48.041319 -50.258904
-8.666683 -48.004868 -50.57109
14.786995 -41.273062 -33.070112
15.486684 -42.059337 -32.278292
15.106153 -42.948049 -32.774586
14.786995 -41.273062 -33.070112
14.012183 -40.524146 -33.925697
13.269164 -39.652851 -34.741493
12.491723 -38.768774 -35.589037
6.818793 -29.237773 -42.159776
7.095401 -30.672318 -41.809036
6.17274 -28.234643 -43.040594
6.818793 -29.237773 -42.159776
5.782621 -28.512142 -43.575437
5.538985 -27.022569 -43.930633
6.17274 -28.234643 -43.040594
18.372965 -41.979878 -28.80415
18.537367 -43.610231 -28.530831
17.654812 -41.328114 -29.679431
18.372965 -41.979878 -28.80415
17.238714 -42.348717 -30.163212
16.963555 -40.7192 -30.51596
17.654812 -41.328114 -29.679431
19.776311 -49.095686 -26.728617
20.102735 -48.008484 -26.191635
20.313392 -49.723852 -25.845242
19.235862 -48.510355 -27.601305
19.776311 -49.095686 -26.728617
19.44652 -50.225723 -27.254912
18.621816 -47.978679 -28.481276
18.951607 -46.848642 -27.954981
19.235862 -48.510355 -27.601305
-4.861139 21.491328 -68.861385
-5.604213 22.502331 -69.183594
-4.952872 20.342478 -69.166363
-4.861139 21.491328 -68.861385
-5.057356 19.121105 -69.452095
-5.728947 20.179187 -69.821171
-4.952872 20.342478 -69.166363
-5.136815 17.919665 -69.612942
-5.057356 19.121105 -69.452095
-5.211982 16.680838 -69.728961
-5.908596 17.718986 -70.222923
-5.136815 17.919665 -69.612942
-5.297646 15.467654 -69.769344
-5.211982 16.680838 -69.728961
-5.347653 14.183088 -69.733326
-6.03377 15.195595 -70.302925
-5.297646 15.467654 -69.769344
-5.437728 12.922415 -69.663929
-5.347653 14.183088 -69.733326
-4.701605 13.194475 -69.130348
-3.085441 9.979824 -67.066159
-3.240784 8.717446 -66.952396
-3.54581 11.061038 -67.761299
-3.085441 9.979824 -67.066159
-4.249421 10.877467 -68.382717
-4.088068 12.117373 -68.439533
-3.54581 11.061038 -67.761299
-13.840592 12.392354 -72.551476
-13.848906 10.918397 -72.296516
-11.607451 -3.206188 -67.44358
-12.406464 -2.614742 -67.860138
-11.706402 -1.551324 -68.128083
-11.473382 -4.822996 -66.728366
-11.607451 -3.206188 -67.44358
-10.77332 -3.759578 -66.996311
-11.28231 -6.502237 -65.970348
-11.473382 -4.822996 -66.728366
-10.476034 -6.927955 -65.554126
-11.119093 -8.053806 -65.243378
-11.28231 -6.502237 -65.970348
-35.474983 -50.256796 -32.795672
-35.83278 -49.030039 -33.932394
-34.857675 -51.931662 -32.5498
-35.474983 -50.256796 -32.795672
-34.618156 -52.306504 -33.465851
-34.225714 -53.57271 -32.255206
-34.857675 -51.931662 -32.5498
-36.720609 -45.104301 -37.287846
-37.00885 -43.62083 -38.390005
-36.147894 -46.777815 -37.11034
-36.420448 -46.558515 -36.160995
-36.720609 -45.104301 -37.287846
-36.024549 -45.731743 -39.071216
-36.664363 -43.904991 -39.309557
-36.240858 -44.313133 -40.143583
-31.967153 -55.022316 -38.484694
-31.714374 -56.382057 -37.387997
-32.547033 -54.524101 -37.694735
-32.120858 -53.697328 -39.559368
-32.908674 -51.953035 -39.816412
-32.22972 -52.486004 -40.584349
-31.967153 -55.022316 -38.484694
-32.120858 -53.697328 -39.559368
-35.580763 -40.567822 -44.87087
-35.634461 -39.001425 -45.93745
-34.920631 -42.392086 -44.583467
-35.512147 -42.112156 -43.82077
-35.580763 -40.567822 -44.87087
-34.071145 -34.644249 -50.457634
-33.962759 -33.004222 -51.44267
-34.209618 -36.361603 -49.384918
-34.071145 -34.644249 -50.457634
-33.457013 -36.516617 -50.034347
-34.322237 -37.932964 -48.320914
-34.209618 -36.361603 -49.384918
-34.319252 -39.618969 -47.299995
-34.322237 -37.932964 -48.320914
-33.592501 -39.919975 -47.940714
-34.289381 -41.226866 -46.276682
-35.019117 -39.239855 -46.656881
-34.319252 -39.618969 -47.299995
-30.062742 -53.496001 -42.863499
-30.857819 -53.107123 -42.161705
-30.921915 -51.696125 -43.124367
-30.062742 -53.496001 -42.863499
-29.267578 -53.88934 -43.513546
-26.594623 -55.095676 -45.218212
-27.55342 -54.711128 -44.660568
-27.498157 -53.203277 -45.579838
-26.594623 -55.095676 -45.218212
-25.595729 -55.516333 -45.761364
-24.582729 -52.600071 -47.885666
-25.598358 -52.276646 -47.466557
-25.577455 -50.573921 -48.300866
-23.607808 -52.883642 -48.279331
-23.51842 -51.218699 -49.047091
-22.564403 -53.204994 -48.606448
-24.582729 -52.600071 -47.885666
-23.607808 -52.883642 -48.279331
-18.278144 -57.965782 -48.246208
-19.403635 -56.001196 -48.624882
-18.278144 -57.965782 -48.246208
-17.164228 -58.170454 -48.468184
-12.740244 -59.211729 -48.650623
-13.840937 -59.110208 -48.634236
-12.753847 -57.431545 -49.071133
-11.594139 -59.39741 -48.576355
-12.740244 -59.211729 -48.650623
-17.860752 -43.471249 -53.188589
-18.890129 -43.418192 -53.172024
-18.767742 -41.448283 -53.82533
-15.751416 -32.649728 -56.623481
-16.023556 -34.475447 -56.017674
-16.290827 -28.691953 -58.104923
-17.061102 -26.779373 -58.894039
-15.5428 -30.691558 -57.247685
-16.290827 -28.691953 -58.104923
-15.338966 -28.858347 -57.883015
-14.799555 -32.816122 -56.401573
-15.751416 -32.649728 -56.623481
-15.5428 -30.691558 -57.247685
-14.930385 -18.24042 -61.862853
-15.47025 -19.949232 -61.269345
-14.014716 -18.395926 -61.601292
-14.930385 -18.24042 -61.862853
-13.088236 -18.395749 -61.364847
-13.580486 -20.124229 -60.779581
-14.014716 -18.395926 -61.601292
-12.663107 -16.90953 -61.849171
-12.188685 -15.375827 -62.374519
-12.228877 -18.637833 -61.027461
-13.088236 -18.395749 -61.364847
-12.663107 -16.90953 -61.849171
19.13113 -59.392456 -28.794377
19.241086 -58.213103 -28.349748
18.651508 -58.864149 -29.583672
19.13113 -59.392456 -28.794377
18.115639 -58.355909 -30.386108
18.203854 -57.034866 -30.000922
18.651508 -58.864149 -29.583672
17.505129 -57.550985 -31.220542
18.115639 -58.355909 -30.386108
16.860422 -56.650787 -32.036024
17.023279 -55.626429 -31.61884
17.505129 -57.550985 -31.220542
16.183901 -55.910584 -32.872377
16.860422 -56.650787 -32.036024
15.502755 -55.159525 -33.681478
15.697426 -53.975172 -33.243424
16.183901 -55.910584 -32.872377
14.788383 -54.200204 -34.46045
15.502755 -55.159525 -33.681478
14.046316 -53.276996 -35.264505
14.274214 -52.300905 -34.856581
14.788383 -54.200204 -34.46045
13.278341 -52.358034 -36.064986
14.046316 -53.276996 -35.264505
12.49338 -51.271801 -36.865305
12.747186 -50.291464 -36.460957
13.278341 -52.358034 -36.064986
11.67796 -50.127064 -37.662581
12.49338 -51.271801 -36.865305
10.877434 -49.141754 -38.469972
11.1617 -48.219921 -38.068668
11.67796 -50.127064 -37.662581
10.01239 -48.054857 -39.297115
10.877434 -49.141754 -38.469972
9.182589 -46.861168 -40.114179
9.531374 -46.040923 -39.693124
10.01239 -48.054857 -39.297115
8.357741 -45.69582 -40.885202
9.182589 -46.861168 -40.114179
8.838757 -47.709755 -40.489193
6.83326 -50.370873 -42.276329
6.339344 -51.168459 -42.640303
7.349277 -49.709173 -41.875153
6.83326 -50.370873 -42.276329
6.439348 -48.395083 -42.628933
7.850423 -49.013867 -41.440491
7.349277 -49.709173 -41.875153
7.484637 -47.138895 -41.743986
8.379695 -48.419379 -40.956721
7.850423 -49.013867 -41.440491
2.069103 -47.590437 -45.787987
3.071549 -49.165795 -45.017073
-2.037351 -47.32415 -48.095589
-3.08939 -45.489095 -48.900745
-1.196177 -47.024055 -47.7213
-2.037351 -47.32415 -48.095589
-0.403325 -46.614998 -47.376292
-1.196177 -47.024055 -47.7213
-1.364426 -45.037387 -48.122288
0.381731 -46.328135 -46.982453
-0.403325 -46.614998 -47.376292
1.138764 -46.100674 -46.573553
0.381731 -46.328135 -46.982453
0.185459 -44.400869 -47.36838
1.872831 -45.663172 -46.173914
2.069103 -47.590437 -45.787987
1.138764 -46.100674 -46.573553
3.271275 -22.420206 -47.572848
3.810983 -23.658628 -46.648775
3.476403 -23.986394 -47.123711
2.79457 -21.230632 -48.483419
2.434407 -21.529008 -48.998026
2.292281 -20.011669 -49.433662
3.271275 -22.420206 -47.572848
2.79457 -21.230632 -48.483419
-0.400046 -8.587864 -57.039526
-0.087288 -9.865531 -56.048319
-0.81757 -8.749512 -57.607183
-0.753758 -7.320881 -58.047753
-0.400046 -8.587864 -57.039526
-0.515813 -11.418574 -56.169626
-0.103767 -11.30226 -55.585832
-0.155723 -12.704339 -55.156502
3 1 95 93
3 1 97 95
3 2 100 98
3 2 102 100
3 3 105 103
3 3 107 105
3 4 110 108
3 4 112 110
3 5 370 372
3 370 113 371
3 370 371 372
3 5 115 113
3 6 118 116
3 6 119 118
3 7 121 120
3 7 123 121
3 8 373 375
3 375 374 124
3 373 374 375
3 9 376 378
3 378 377 125
3 376 377 378
3 9 379 380
3 9 381 383
3 381 126 382
3 381 382 383
3 11 129 127
3 11 131 129
3 12 384 386
3 386 385 132
3 384 385 386
3 12 387 388
3 12 389 390
3 13 135 133
3 13 137 135
3 14 391 392
3 14 393 395
3 393 138 394
3 393 394 395
3 14 140 138
3 16 143 141
3 16 145 143
3 17 396 398
3 398 397 146
3 396 397 398
3 17 399 400
3 17 401 403
3 401 147 402
3 401 402 403
3 15 150 148
3 15 152 150
3 18 155 153
3 18 157 155
3 19 160 158
3 19 162 160
3 19 164 162
3 20 167 165
3 20 169 167
3 20 171 169
3 404 173 405
3 407 406 173
3 408 176 409
3 410 178 411
3 412 411 176
3 410 411 412
3 413 179 414
3 415 181 416
3 417 416 179
3 415 416 417
3 22 418 420
3 418 183 419
3 418 419 420
3 22 185 183
3 23 188 186
3 23 190 188
3 23 192 190
3 21 195 193
3 21 197 195
3 10 199 198
3 25 202 200
3 25 203 202
3 25 205 203
3 24 208 206
3 24 210 208
3 421 212 422
3 27 423 425
3 423 213 424
3 423 424 425
3 27 214 213
3 28 217 215
3 30 218 94
3 30 219 218
3 30 221 219
3 32 222 96
3 32 223 222
3 426 224 427
3 428 225 429
3 430 429 224
3 428 429 430
3 431 227 432
3 433 432 225
3 431 432 433
3 434 229 435
3 35 436 438
3 436 230 437
3 436 437 438
3 35 231 230
3 36 233 232
3 38 234 99
3 38 235 234
3 38 237 235
3 40 238 101
3 40 239 238
3 439 241 440
3 42 441 443
3 441 242 442
3 441 442 443
3 42 243 242
3 42 245 243
3 444 246 445
3 446 247 447
3 448 447 246
3 446 447 448
3 450 449 247
3 44 451 453
3 451 249 452
3 451 452 453
3 46 250 104
3 46 251 250
3 46 253 251
3 48 254 106
3 48 255 254
3 49 258 256
3 51 259 109
3 51 260 259
3 51 262 260
3 53 263 111
3 53 264 263
3 54 454 455
3 54 456 458
3 456 265 457
3 456 457 458
3 54 266 265
3 55 267 114
3 55 268 267
3 26 269 211
3 460 459 117
3 461 270 462
3 56 271 122
3 56 272 271
3 29 463 465
3 465 464 216
3 463 464 465
3 57 466 468
3 466 273 467
3 466 467 468
3 57 274 273
3 31 275 220
3 58 276 128
3 58 277 276
3 58 278 277
3 59 279 130
3 59 280 279
3 60 469 471
3 469 281 470
3 469 470 471
3 60 282 281
3 33 283 226
3 61 284 134
3 61 285 284
3 61 286 285
3 62 287 136
3 62 288 287
3 472 289 473
3 63 474 476
3 474 290 475
3 474 475 476
3 63 291 290
3 63 292 291
3 64 293 139
3 64 294 293
3 34 295 228
3 65 296 142
3 65 297 296
3 65 298 297
3 67 299 144
3 67 301 299
3 37 477 478
3 68 479 480
3 68 481 482
3 39 302 236
3 69 303 149
3 69 304 303
3 69 305 304
3 66 306 151
3 66 300 306
3 71 483 485
3 483 308 484
3 483 484 485
3 71 309 308
3 486 310 487
3 72 311 154
3 72 312 311
3 72 313 312
3 73 488 490
3 490 489 156
3 488 489 490
3 73 491 492
3 493 314 494
3 41 315 240
3 74 316 159
3 74 317 316
3 74 318 317
3 75 319 161
3 75 495 497
3 497 496 319
3 495 496 497
3 75 498 499
3 501 500 163
3 43 320 244
3 503 502 166
3 76 504 506
3 506 505 168
3 504 505 506
3 76 507 508
3 76 509 511
3 509 321 510
3 509 510 511
3 77 322 170
3 77 323 322
3 512 324 513
3 514 513 248
3 512 513 514
3 78 325 172
3 78 326 325
3 78 327 326
3 79 328 174
3 79 329 328
3 80 330 175
3 80 331 330
3 80 332 331
3 81 333 177
3 81 334 333
3 82 515 517
3 515 335 516
3 515 516 517
3 82 336 335
3 82 337 336
3 70 338 180
3 70 307 338
3 518 340 519
3 84 341 182
3 84 342 341
3 84 343 342
3 85 344 184
3 85 345 344
3 45 520 522
3 520 346 521
3 520 521 522
3 86 347 187
3 86 348 347
3 86 349 348
3 87 350 189
3 87 351 350
3 87 352 351
3 88 353 191
3 88 354 353
3 47 355 252
3 89 356 194
3 89 357 356
3 89 358 357
3 83 359 196
3 83 339 359
3 50 361 257
3 524 523 201
3 525 362 526
3 91 363 204
3 91 364 363
3 52 365 261
3 92 366 207
3 92 367 366
3 92 368 367
3 90 369 209
3 90 360 369
3 527 27 528
3 93 94 28
3 95 94 93
3 95 30 94
3 95 96 30
3 97 96 95
3 97 32 96
3 529 35 530
3 98 99 36
3 100 99 98
3 100 38 99
3 100 101 38
3 102 101 100
3 102 40 101
3 531 42 532
3 534 533 42
3 103 104 44
3 105 104 103
3 105 46 104
3 105 106 46
3 107 106 105
3 107 48 106
3 108 109 49
3 110 109 108
3 110 51 109
3 110 111 51
3 112 111 110
3 112 53 111
3 113 535 536
3 113 537 539
3 537 54 538
3 537 538 539
3 113 114 54
3 115 114 113
3 115 55 114
3 116 117 26
3 118 117 116
3 118 540 542
3 542 541 117
3 540 541 542
3 118 543 544
3 119 545 547
3 547 546 118
3 545 546 547
3 119 548 549
3 120 550 551
3 121 552 554
3 554 553 120
3 552 553 554
3 121 555 556
3 121 557 559
3 557 122 558
3 557 558 559
3 123 122 121
3 123 56 122
3 124 560 561
3 563 562 124
3 125 564 566
3 566 565 29
3 564 565 566
3 568 567 125
3 126 569 570
3 126 571 573
3 571 57 572
3 571 572 573
3 127 128 31
3 129 128 127
3 129 58 128
3 129 130 58
3 131 130 129
3 131 59 130
3 132 574 575
3 577 576 132
3 578 60 579
3 133 134 33
3 135 134 133
3 135 61 134
3 135 136 61
3 137 136 135
3 137 62 136
3 138 580 581
3 138 582 584
3 582 63 583
3 582 583 584
3 138 139 63
3 140 139 138
3 140 64 139
3 141 142 34
3 143 142 141
3 143 65 142
3 143 144 65
3 145 144 143
3 145 67 144
3 146 585 587
3 587 586 37
3 585 586 587
3 589 588 146
3 147 590 591
3 147 592 594
3 592 68 593
3 592 593 594
3 148 149 39
3 150 149 148
3 150 69 149
3 150 151 69
3 152 151 150
3 152 66 151
3 595 71 596
3 153 597 599
3 597 154 598
3 597 598 599
3 155 154 153
3 155 72 154
3 155 156 72
3 157 156 155
3 157 73 156
3 158 159 41
3 160 159 158
3 160 74 159
3 160 161 74
3 162 161 160
3 162 75 161
3 162 163 75
3 164 163 162
3 164 600 602
3 602 601 163
3 600 601 602
3 165 166 43
3 167 166 165
3 167 603 605
3 605 604 166
3 603 604 605
3 167 606 608
3 606 168 607
3 606 607 608
3 169 168 167
3 169 76 168
3 169 170 76
3 171 170 169
3 171 77 170
3 609 172 610
3 173 611 613
3 611 172 612
3 611 612 613
3 173 78 172
3 173 174 78
3 614 174 615
3 616 615 173
3 614 615 616
3 617 79 618
3 619 618 174
3 617 618 619
3 620 175 621
3 176 622 624
3 622 175 623
3 622 623 624
3 176 80 175
3 176 177 80
3 178 177 176
3 178 81 177
3 179 625 626
3 179 627 629
3 627 82 628
3 627 628 629
3 179 180 82
3 181 180 179
3 181 70 180
3 630 182 631
3 183 632 634
3 632 182 633
3 632 633 634
3 183 84 182
3 183 184 84
3 185 184 183
3 185 85 184
3 186 187 45
3 188 187 186
3 188 86 187
3 188 189 86
3 190 189 188
3 190 87 189
3 190 191 87
3 192 191 190
3 192 88 191
3 193 194 47
3 195 194 193
3 195 89 194
3 195 196 89
3 197 196 195
3 197 83 196
3 198 635 636
3 199 637 639
3 639 638 198
3 637 638 639
3 199 640 641
3 200 201 50
3 202 201 200
3 202 642 644
3 644 643 201
3 642 643 644
3 202 645 646
3 203 647 649
3 649 648 202
3 647 648 649
3 203 650 651
3 203 652 654
3 652 204 653
3 652 653 654
3 205 204 203
3 205 91 204
3 206 207 52
3 208 207 206
3 208 92 207
3 208 209 92
3 210 209 208
3 210 90 209
3 655 5 656
3 657 211 658
3 659 211 660
3 661 26 662
3 663 662 211
3 661 662 663
3 664 26 665
3 666 116 667
3 668 667 26
3 666 667 668
3 212 669 671
3 669 116 670
3 669 670 671
3 212 6 116
3 213 672 673
3 213 674 675
3 213 676 678
3 676 120 677
3 676 677 678
3 214 120 213
3 214 7 120
3 215 216 8
3 217 216 215
3 217 29 216
3 94 217 28
3 218 217 94
3 218 29 217
3 218 125 29
3 219 125 218
3 219 9 125
3 219 220 9
3 221 220 219
3 221 31 220
3 96 221 30
3 222 221 96
3 222 31 221
3 222 127 31
3 223 127 222
3 223 11 127
3 224 679 680
3 224 681 682
3 224 683 685
3 683 132 684
3 683 684 685
3 225 132 224
3 225 12 132
3 225 226 12
3 227 226 225
3 227 33 226
3 686 227 687
3 688 227 689
3 690 33 691
3 692 691 227
3 690 691 692
3 693 133 694
3 695 694 33
3 693 694 695
3 696 133 697
3 698 13 699
3 700 699 133
3 698 699 700
3 701 14 702
3 703 228 704
3 705 704 14
3 703 704 705
3 229 706 708
3 706 228 707
3 706 707 708
3 229 34 228
3 709 229 710
3 230 711 713
3 711 229 712
3 711 712 713
3 230 34 229
3 230 141 34
3 231 141 230
3 231 16 141
3 232 714 715
3 233 716 718
3 718 717 232
3 716 717 718
3 233 719 721
3 719 37 720
3 719 720 721
3 99 233 36
3 234 233 99
3 234 37 233
3 234 146 37
3 235 146 234
3 235 17 146
3 235 236 17
3 237 236 235
3 237 39 236
3 101 237 38
3 238 237 101
3 238 39 237
3 238 148 39
3 239 148 238
3 239 15 148
3 722 153 723
3 724 153 725
3 726 18 727
3 728 727 153
3 726 727 728
3 729 240 730
3 241 731 733
3 731 240 732
3 731 732 733
3 241 41 240
3 734 241 735
3 242 736 738
3 736 241 737
3 736 737 738
3 242 41 241
3 242 158 41
3 243 158 242
3 243 19 158
3 243 244 19
3 245 244 243
3 245 43 244
3 739 245 740
3 741 740 42
3 739 740 741
3 246 742 744
3 742 245 743
3 742 743 744
3 246 43 245
3 246 165 43
3 247 165 246
3 247 20 165
3 247 248 20
3 745 248 746
3 747 746 247
3 745 746 747
3 749 748 248
3 750 22 751
3 249 752 753
3 249 754 756
3 754 45 755
3 754 755 756
3 104 249 44
3 250 249 104
3 250 45 249
3 250 186 45
3 251 186 250
3 251 23 186
3 251 252 23
3 253 252 251
3 253 47 252
3 106 253 46
3 254 253 106
3 254 47 253
3 254 193 47
3 255 193 254
3 255 21 193
3 256 257 10
3 258 257 256
3 258 50 257
3 109 258 49
3 259 258 109
3 259 50 258
3 259 200 50
3 260 200 259
3 260 25 200
3 260 261 25
3 262 261 260
3 262 52 261
3 111 262 51
3 263 262 111
3 263 52 262
3 263 206 52
3 264 206 263
3 264 24 206
3 265 757 758
3 265 759 760
3 265 761 763
3 761 232 762
3 761 762 763
3 266 232 265
3 266 36 232
3 114 266 54
3 267 266 114
3 267 36 266
3 267 98 36
3 268 98 267
3 268 2 98
3 211 764 765
3 269 766 768
3 768 767 211
3 766 767 768
3 269 769 770
3 117 269 26
3 771 269 772
3 773 772 117
3 771 772 773
3 775 774 269
3 270 776 777
3 270 778 780
3 778 44 779
3 778 779 780
3 122 781 783
3 781 270 782
3 781 782 783
3 271 270 122
3 271 44 270
3 271 103 44
3 272 103 271
3 272 3 103
3 216 784 786
3 786 785 8
3 784 785 786
3 788 787 216
3 790 789 29
3 273 791 792
3 273 793 794
3 273 795 797
3 795 198 796
3 795 796 797
3 274 198 273
3 274 10 198
3 220 126 9
3 275 126 220
3 275 57 126
3 128 275 31
3 276 275 128
3 276 57 275
3 276 274 57
3 277 274 276
3 277 10 274
3 277 256 10
3 278 256 277
3 278 49 256
3 130 278 58
3 279 278 130
3 279 49 278
3 279 108 49
3 280 108 279
3 280 4 108
3 281 798 799
3 281 800 801
3 281 802 804
3 802 124 803
3 802 803 804
3 282 124 281
3 282 8 124
3 226 805 807
3 807 806 12
3 805 806 807
3 283 808 810
3 810 809 226
3 808 809 810
3 283 811 813
3 811 60 812
3 811 812 813
3 134 283 33
3 284 283 134
3 284 60 283
3 284 282 60
3 285 282 284
3 285 8 282
3 285 215 8
3 286 215 285
3 286 28 215
3 136 286 61
3 287 286 136
3 287 28 286
3 287 93 28
3 288 93 287
3 288 1 93
3 814 5 815
3 816 5 817
3 818 115 819
3 820 819 5
3 818 819 820
3 821 115 822
3 823 55 824
3 825 824 115
3 823 824 825
3 826 55 827
3 828 268 829
3 830 829 55
3 828 829 830
3 289 831 833
3 831 268 832
3 831 832 833
3 289 2 268
3 290 834 835
3 290 836 837
3 290 838 840
3 838 289 839
3 838 839 840
3 291 289 290
3 291 2 289
3 291 102 2
3 292 102 291
3 292 40 102
3 139 292 63
3 293 292 139
3 293 40 292
3 293 239 40
3 294 239 293
3 294 15 239
3 228 140 14
3 295 140 228
3 295 64 140
3 142 295 34
3 296 295 142
3 296 64 295
3 296 294 64
3 297 294 296
3 297 15 294
3 297 152 15
3 298 152 297
3 298 66 152
3 144 298 65
3 299 298 144
3 299 66 298
3 299 300 66
3 301 300 299
3 301 0 300
3 842 841 37
3 236 147 17
3 302 147 236
3 302 68 147
3 149 302 39
3 303 302 149
3 303 68 302
3 303 843 845
3 845 844 68
3 843 844 845
3 304 846 848
3 848 847 303
3 846 847 848
3 304 849 850
3 304 851 853
3 851 181 852
3 851 852 853
3 305 181 304
3 305 70 181
3 151 305 69
3 306 305 151
3 306 70 305
3 306 307 70
3 300 307 306
3 300 0 307
3 308 854 855
3 308 856 857
3 308 858 860
3 858 212 859
3 858 859 860
3 309 212 308
3 309 6 212
3 310 861 862
3 310 863 865
3 863 71 864
3 863 864 865
3 154 866 868
3 866 310 867
3 866 867 868
3 311 310 154
3 311 71 310
3 311 309 71
3 312 309 311
3 312 6 309
3 312 119 6
3 313 119 312
3 313 869 871
3 871 870 119
3 869 870 871
3 156 313 72
3 872 313 873
3 874 873 156
3 872 873 874
3 876 875 313
3 314 877 878
3 314 879 881
3 879 18 880
3 879 880 881
3 240 882 883
3 315 884 886
3 886 885 240
3 884 885 886
3 315 887 888
3 159 315 41
3 316 315 159
3 316 889 891
3 891 890 315
3 889 890 891
3 316 892 894
3 892 314 893
3 892 893 894
3 317 314 316
3 317 18 314
3 317 157 18
3 318 157 317
3 318 73 157
3 161 318 74
3 319 318 161
3 319 73 318
3 319 895 897
3 897 896 73
3 895 896 897
3 899 898 319
3 163 900 902
3 902 901 75
3 900 901 902
3 904 903 163
3 244 164 19
3 320 164 244
3 320 905 907
3 907 906 164
3 905 906 907
3 166 320 43
3 908 320 909
3 910 909 166
3 908 909 910
3 912 911 320
3 168 913 914
3 916 915 168
3 321 917 918
3 321 919 921
3 919 27 920
3 919 920 921
3 170 321 76
3 322 321 170
3 322 27 321
3 322 214 27
3 323 214 322
3 323 7 214
3 248 171 20
3 324 171 248
3 324 77 171
3 172 922 924
3 922 324 923
3 922 923 924
3 325 324 172
3 325 77 324
3 325 323 77
3 326 323 325
3 326 7 323
3 326 123 7
3 327 123 326
3 327 56 123
3 174 327 78
3 328 327 174
3 328 56 327
3 328 272 56
3 329 272 328
3 329 3 272
3 925 79 926
3 175 927 928
3 330 929 931
3 931 930 175
3 929 930 931
3 330 932 934
3 932 79 933
3 932 933 934
3 330 329 79
3 331 329 330
3 331 3 329
3 331 107 3
3 332 107 331
3 332 48 107
3 177 332 80
3 333 332 177
3 333 48 332
3 333 255 48
3 334 255 333
3 334 21 255
3 935 178 936
3 937 178 938
3 939 81 940
3 941 940 178
3 939 940 941
3 335 942 943
3 335 944 946
3 944 81 945
3 944 945 946
3 335 334 81
3 336 334 335
3 336 21 334
3 336 197 21
3 337 197 336
3 337 83 197
3 180 337 82
3 338 337 180
3 338 83 337
3 338 339 83
3 307 339 338
3 307 0 339
3 947 13 948
3 949 13 950
3 951 137 952
3 953 952 13
3 951 952 953
3 954 137 955
3 956 62 957
3 958 957 137
3 956 957 958
3 959 62 960
3 961 288 962
3 963 962 62
3 961 962 963
3 964 288 965
3 966 1 967
3 968 967 288
3 966 967 968
3 969 1 970
3 971 97 972
3 973 972 1
3 971 972 973
3 974 97 975
3 976 32 977
3 978 977 97
3 976 977 978
3 979 32 980
3 981 223 982
3 983 982 32
3 981 982 983
3 340 984 986
3 984 223 985
3 984 985 986
3 340 11 223
3 182 987 988
3 341 989 991
3 991 990 182
3 989 990 991
3 341 992 993
3 341 994 996
3 994 340 995
3 994 995 996
3 342 340 341
3 342 11 340
3 342 131 11
3 343 131 342
3 343 59 131
3 184 343 84
3 344 343 184
3 344 59 343
3 344 280 59
3 345 280 344
3 345 4 280
3 997 22 998
3 346 999 1000
3 346 1001 1002
3 187 346 45
3 347 346 187
3 347 1003 1005
3 1005 1004 346
3 1003 1004 1005
3 347 1006 1007
3 348 1008 1010
3 1010 1009 347
3 1008 1009 1010
3 348 1011 1013
3 1011 22 1012
3 1011 1012 1013
3 348 185 22
3 349 185 348
3 349 85 185
3 189 349 86
3 350 349 189
3 350 85 349
3 350 345 85
3 351 345 350
3 351 4 345
3 351 112 4
3 352 112 351
3 352 53 112
3 191 352 87
3 353 352 191
3 353 53 352
3 353 264 53
3 354 264 353
3 354 24 264
3 252 192 23
3 355 192 252
3 355 88 192
3 194 355 47
3 356 355 194
3 356 88 355
3 356 354 88
3 357 354 356
3 357 24 354
3 357 210 24
3 358 210 357
3 358 90 210
3 196 358 89
3 359 358 196
3 359 90 358
3 359 360 90
3 339 360 359
3 339 0 360
3 257 199 10
3 361 199 257
3 361 1014 1016
3 1016 1015 199
3 1014 1015 1016
3 201 361 50
3 1017 361 1018
3 1019 1018 201
3 1017 1018 1019
3 1021 1020 361
3 362 1022 1023
3 362 1024 1026
3 1024 35 1025
3 1024 1025 1026
3 204 1027 1029
3 1027 362 1028
3 1027 1028 1029
3 363 362 204
3 363 35 362
3 363 231 35
3 364 231 363
3 364 16 231
3 261 205 25
3 365 205 261
3 365 91 205
3 207 365 52
3 366 365 207
3 366 91 365
3 366 364 91
3 367 364 366
3 367 16 364
3 367 145 16
3 368 145 367
3 368 67 145
3 209 368 92
3 369 368 209
3 369 67 368
3 369 301 67
3 360 301 369
3 360 0 301
