ply
format ascii 1.0
element vertex 483
property float x
property float y
property float z
element face 482
property list uchar int vertex_index
end_header
-15.702964 26.112459 63.869106
-10.875224 17.34691 64.046021
-8.335062 28.877369 58.583012
-3.988358 19.262455 59.16106
-26.8092 28.706676 62.751804
-30.111877 18.899385 58.528404
-23.032637 20.839115 67.010742
-8.487589 13.484251 63.729103
-7.359223 18.496147 61.576523
-2.160407 14.761455 59.258282
-28.254675 32.235188 59.42252
-4.901721 29.822056 55.980774
-17.002823 19.245121 66.459076
-20.677481 16.745291 68.074921
-19.370565 24.030899 65.798737
-21.650171 28.321718 64.790169
-30.435877 21.599525 54.40723
-30.584015 13.539269 55.180496
-30.634993 16.053267 50.963768
-30.514677 10.474779 47.496365
-30.713326 18.484617 46.860271
-13.11451 21.400269 64.068153
-11.882342 27.93932 61.191849
-9.597676 22.87059 61.555588
-6.006557 23.999773 58.878479
-2.58442 24.635038 56.45322
-14.446839 15.284755 66.469627
-0.489683 19.630272 56.744293
-27.818758 20.995192 64.254913
-29.624043 15.83742 62.232548
-28.928707 24.254465 60.99065
-29.662609 27.490694 57.336735
-26.265545 17.426313 66.895538
-25.069794 25.129332 65.169983
-16.835754 28.775753 63.483471
-14.962242 29.568768 62.347603
-3.086132 30.114107 54.721069
-4.251835 32.713245 54.424129
-16.269926 22.649172 65.193039
-18.084494 21.628271 66.150627
-17.550297 24.944088 64.986015
-18.716843 27.523121 64.550186
-30.555864 22.977522 52.229198
-30.583817 18.851984 52.806202
-30.65312 20.423454 50.605385
-30.667479 17.356045 49.003239
-12.009591 19.214542 64.130409
-11.338085 22.188787 62.82835
-10.25208 20.083036 62.854733
-5.587479 18.883804 60.322208
-6.67472 21.130592 60.293083
-4.884426 21.622459 58.97282
-4.281374 24.515156 57.579773
-3.184853 21.839407 57.799046
-11.361188 14.46923 65.123535
-12.700496 16.355785 65.32296
-13.76369 18.427046 65.280411
-1.431888 22.153894 56.563175
-2.242031 19.677607 57.884296
-27.329882 24.7106 63.584084
-28.429171 22.588186 62.712048
-27.923254 26.650629 62.090065
-29.057901 29.954029 58.454933
-10.060398 28.387495 59.889301
-11.337687 30.933027 59.746136
-21.936136 18.631063 67.674713
-22.592838 15.129053 68.602928
-23.670839 17.215204 67.946899
-25.361248 15.26688 67.999481
-24.749922 18.934748 67.195312
-25.608438 21.203568 66.14003
-24.065552 23.018185 66.185669
-29.868961 17.674191 60.44244
-30.313368 14.982617 58.825211
-30.61846 10.733158 53.430485
-30.545084 11.627074 45.378468
-9.578811 15.360744 63.865902
-9.148973 18.017267 62.831501
-7.953031 16.035719 62.690487
-6.335948 16.466167 61.545235
-4.696967 16.689779 60.414177
-2.974003 17.148968 59.136131
-3.800994 14.625568 60.406582
-26.356544 32.831806 61.674133
-27.570763 30.597845 61.157986
-6.611969 29.389111 57.256557
-17.626694 16.107304 67.517975
-19.433765 14.838328 68.339394
-18.893848 18.374331 67.289711
-20.087059 20.322773 67.012733
-21.223396 22.431448 66.562584
-22.320055 24.730728 65.911049
-20.594761 26.062468 65.411865
-30.287695 20.326342 56.51627
-30.425961 16.349382 56.880009
-30.51553 17.570011 54.827126
-30.610811 14.820287 52.98037
-30.601645 11.91503 51.289162
-30.602978 13.307295 49.202785
-30.624218 14.588508 47.201378
-30.681889 15.661364 45.000202
-30.793879 16.721907 42.998245
-30.798588 19.813662 44.770573
-14.371784 23.790266 63.973022
-13.770254 27.152412 62.55513
-12.501429 24.743378 62.662964
-10.712584 25.261702 61.427563
-9.02074 25.924116 60.130661
-8.50364 20.647169 61.608444
-7.78893 23.620461 60.159988
-7.155228 26.620998 58.667923
-5.366582 26.935488 57.388741
-3.637489 27.419941 56.100063
-1.841409 27.432341 54.973907
-16.402161 14.072668 67.606171
-15.633735 17.190786 66.483658
-15.044274 20.410131 65.319351
-0.785509 24.855049 55.244301
0.240474 22.496778 55.379841
-1.310059 17.244328 57.992607
-28.299284 16.977804 64.92495
-29.206701 14.665738 63.929466
-28.830334 18.455072 63.406452
-29.237345 20.108215 61.76704
-29.606712 21.738146 59.875584
-28.552038 28.164373 60.374592
-29.364872 25.710144 59.160641
-29.914381 23.154305 57.885376
-30.152021 24.458954 55.88179
-30.339384 25.803164 53.858524
-13.221837 30.435745 61.081146
-27.610685 15.319304 66.376869
-27.11569 19.184544 65.66256
-26.573639 22.858297 64.959122
-26.011032 26.875502 64.056641
-23.356621 26.940796 65.121117
-24.488245 28.946539 64.161858
-25.422836 30.927248 63.037453
-30.54879 12.200262 57.242565
-2.80771 31.573741 53.975536
-2.187328 30.187128 54.145666
-30.654985 22.458672 50.369102
-30.604492 21.700488 51.417291
-30.606357 23.735706 51.181009
-30.686768 20.942263 49.528833
-30.654985 22.458672 50.369102
-8.943131 30.190216 58.476
-9.805799 29.945279 59.129145
-9.19773 28.632432 59.236156
-30.620095 8.55679 53.583195
-30.588223 9.274389 52.497759
-30.500083 10.118641 44.537117
-30.58987 12.217568 44.418888
-5.883795 15.495036 61.531279
-6.663973 15.266482 62.096037
-5.064305 15.606842 60.96575
-5.516457 16.577973 60.979706
-5.883795 15.495036 61.531279
-9.305039 13.071307 64.316929
-8.742848 12.290751 64.183059
-9.0332 14.422498 63.797503
-9.850651 14.009553 64.385328
-9.305039 13.071307 64.316929
-4.616319 14.574737 60.961952
-4.248981 15.657674 60.41038
-5.064305 15.606842 60.96575
-26.785799 33.808632 60.856174
-26.173175 34.834536 61.068573
-5.434142 31.074337 55.829487
-6.289266 30.857865 56.467378
-5.756845 29.605584 56.618665
-4.895967 34.070784 54.28675
-4.063222 34.243949 53.687496
-19.346699 28.686411 64.325012
-18.408482 29.267919 63.874128
-14.738188 13.757464 66.988002
-13.81756 14.288249 66.427582
-15.4245 14.678712 67.037899
-15.715848 13.15142 67.556275
-14.738188 13.757464 66.988002
0.390572 19.819804 56.108734
0.755651 21.253057 55.426508
-0.124604 21.063525 56.062067
-30.297799 27.873847 53.474451
-30.165018 27.19321 54.587047
-30.424582 26.547538 52.74901
-30.297799 27.873847 53.474451
-11.953238 32.309228 59.603214
-11.111093 32.588648 58.957018
-21.01752 14.992545 68.557183
-20.395662 14.039064 68.689419
-20.055623 15.79181 68.207157
-22.911623 13.336601 69.034584
-23.443962 14.290675 68.715244
-26.568216 15.374682 67.277774
-26.116067 14.294965 67.829746
-25.813396 16.346597 67.447509
-26.938115 16.372809 66.636203
-27.240786 14.321177 67.01844
-26.568216 15.374682 67.277774
-24.154737 30.965982 63.57082
-23.674055 29.757556 64.082116
-24.622033 31.956336 63.008617
-24.95554 29.936894 63.599655
-24.154737 30.965982 63.57082
-25.192771 32.887191 62.454567
-24.622033 31.956336 63.008617
-29.771895 13.87908 62.452561
-29.563224 13.293239 63.301019
-29.415372 15.251579 63.081007
-30.451777 8.36122 47.653568
-30.518228 9.836771 48.489624
-30.948813 19.484559 41.928538
-30.885889 17.423152 42.029921
-30.856804 18.783314 42.896862
-7.739793 13.775524 63.187971
-8.030295 12.62727 63.670828
-8.030295 12.62727 63.670828
-8.742848 12.290751 64.183059
-16.503034 30.540724 62.722061
-17.467938 29.894236 63.340771
-15.566277 30.937231 62.154127
-16.503034 30.540724 62.722061
-15.898998 29.172261 62.915537
-14.678939 31.365562 61.54186
-15.566277 30.937231 62.154127
-3.390562 32.87331 53.827066
-3.668983 31.413676 54.572599
-2.80771 31.573741 53.975536
-3.201949 34.404015 53.090433
-4.063222 34.243949 53.687496
-3.390562 32.87331 53.827066
-17.467938 29.894236 63.340771
-18.408482 29.267919 63.874128
-17.776299 28.149437 64.016829
-30.693948 19.408559 48.727761
-30.6603 18.88975 49.804312
-30.686768 20.942263 49.528833
-30.716871 19.972845 47.656276
-30.690402 17.920331 47.931755
-30.693948 19.408559 48.727761
-30.754939 20.628017 46.619773
-30.716871 19.972845 47.656276
-12.274734 13.880487 65.754536
-11.628232 13.05078 65.630581
-12.944388 14.823764 65.854248
-12.274734 13.880487 65.754536
-12.030842 15.412508 65.223247
-13.573667 15.82027 65.896293
-13.81756 14.288249 66.427582
-12.944388 14.823764 65.854248
-1.312342 14.804436 58.667046
-1.8322 13.650543 59.318157
-28.932121 31.981752 57.995212
-28.656288 31.094608 58.938727
-28.530508 33.122332 58.479006
-29.28547 30.700571 57.422972
-28.932121 31.981752 57.995212
-29.587824 29.468904 56.863872
-29.360255 28.722361 57.895834
-29.28547 30.700571 57.422972
-29.826631 28.036975 56.326153
-29.587824 29.468904 56.863872
-10.444444 31.218045 59.057562
-10.699043 29.660261 59.817718
-9.805799 29.945279 59.129145
-11.111093 32.588648 58.957018
-10.444444 31.218045 59.057562
-23.982962 15.333751 68.38723
-23.443962 14.290675 68.715244
-23.131839 16.172128 68.274913
-24.516044 16.241042 67.97319
-24.828167 14.359589 68.413521
-23.982962 15.333751 68.38723
-22.255018 29.445146 64.396271
-21.375089 30.28106 64.118233
-30.015164 15.557872 60.592444
-29.892705 14.639487 61.487498
-29.746502 16.755806 61.337494
-30.237367 14.212085 59.783829
-30.015164 15.557872 60.592444
-30.091164 16.328404 59.633826
-30.408352 12.840301 58.965544
-30.237367 14.212085 59.783829
-30.629418 10.038976 54.442482
-30.612196 11.442032 55.317487
-30.601237 12.136214 54.30549
-30.629418 10.038976 54.442482
-30.620095 8.55679 53.583195
-30.467197 9.535217 45.595976
-30.451994 8.959069 46.654924
-30.52988 11.050926 46.437416
-30.467197 9.535217 45.595976
-30.500083 10.118641 44.537117
-7.472514 15.051258 62.668663
-8.22031 14.759985 63.209795
-7.739793 13.775524 63.187971
-7.14449 16.250943 62.117861
-7.472514 15.051258 62.668663
-6.663973 15.266482 62.096037
-10.741839 13.563796 65.014145
-11.628232 13.05078 65.630581
-10.47 14.914987 64.494719
-10.741839 13.563796 65.014145
-9.850651 14.009553 64.385328
-4.260855 13.533485 61.001921
-4.616319 14.574737 60.961952
-3.491148 13.523267 60.483462
-4.260855 13.533485 61.001921
-2.670854 13.59121 59.909312
-2.980701 14.693511 59.832432
-3.491148 13.523267 60.483462
-1.8322 13.650543 59.318157
-2.670854 13.59121 59.909312
-27.392908 32.691651 60.598101
-26.963653 31.714825 61.41606
-26.785799 33.808632 60.856174
-27.734865 33.510323 59.730368
-27.912719 31.416517 60.290253
-27.392908 32.691651 60.598101
-28.079169 34.417847 58.878631
-27.734865 33.510323 59.730368
-28.530508 33.122332 58.479006
-28.079169 34.417847 58.878631
-7.188318 30.718527 57.113897
-8.049864 30.462656 57.777124
-7.473516 29.13324 57.919784
-7.188318 30.718527 57.113897
-6.289266 30.857865 56.467378
-5.109199 32.519931 55.051164
-5.434142 31.074337 55.829487
-4.576778 31.267651 55.202451
-5.109199 32.519931 55.051164
-4.895967 34.070784 54.28675
-18.53023 15.472816 67.928685
-18.853099 13.82035 68.442612
-17.949563 14.454838 68.031903
-20.285658 27.956084 64.755852
-19.655802 26.792794 64.981026
-19.346699 28.686411 64.325012
-20.813363 29.08571 64.445004
-21.122466 27.192093 65.101017
-20.285658 27.956084 64.755852
-21.375089 30.28106 64.118233
-20.813363 29.08571 64.445004
-30.579816 9.865326 51.427098
-30.588223 9.274389 52.497759
-30.610053 11.324094 52.359823
-30.561712 10.556896 50.386022
-30.579816 9.865326 51.427098
-30.562378 11.253028 49.342834
-30.561712 10.556896 50.386022
-30.602311 12.611162 50.245973
-30.558827 11.891037 48.349575
-30.518228 9.836771 48.489624
-30.562378 11.253028 49.342834
-30.658273 14.234713 44.229755
-30.58987 12.217568 44.418888
-30.613487 13.644219 45.189335
-30.737884 16.191636 43.999223
-30.714268 14.764985 43.228777
-30.658273 14.234713 44.229755
-30.859158 20.329192 43.783026
-30.856804 18.783314 42.896862
-30.796233 18.267785 43.884409
-30.79757 21.292539 45.574924
-30.755957 19.14914 45.815422
-30.754939 20.628017 46.619773
-30.847983 21.823341 44.528545
-30.79757 21.292539 45.574924
-30.859158 20.329192 43.783026
-30.847983 21.823341 44.528545
-1.564966 28.846245 54.272085
-2.187328 30.187128 54.145666
-2.46377 28.773224 54.847488
-16.683279 12.585136 68.068737
-15.715848 13.15142 67.556275
-17.337297 13.43752 68.076
-16.683279 12.585136 68.068737
-17.014428 15.089986 67.562073
-17.949563 14.454838 68.031903
-17.337297 13.43752 68.076
-0.995541 27.48264 54.43943
-1.564966 28.846245 54.272085
-0.467591 26.193994 54.574627
-0.995541 27.48264 54.43943
-1.313459 26.143695 55.109104
0.130926 24.994688 54.626908
-0.467591 26.193994 54.574627
0.643918 23.815552 54.694677
0.130926 24.994688 54.626908
-0.272518 23.675914 55.312071
1.152801 22.579349 54.771406
0.643918 23.815552 54.694677
1.152801 22.579349 54.771406
0.755651 21.253057 55.426508
-0.887168 16.045872 58.034208
-1.735233 16.002892 58.625445
-1.312342 14.804436 58.667046
-0.464233 17.271433 57.415564
-0.887168 16.045872 58.034208
-0.054044 18.464405 56.791407
-0.899871 18.4373 57.36845
-0.464233 17.271433 57.415564
0.390572 19.819804 56.108734
-0.054044 18.464405 56.791407
-28.752992 15.821771 64.427208
-28.974592 13.736942 64.750446
-28.520884 14.892975 65.248188
-30.071337 26.521105 55.598681
-29.907315 25.974824 56.609262
-29.826631 28.036975 56.326153
-30.245703 25.131059 54.870157
-30.071337 26.521105 55.598681
-30.165018 27.19321 54.587047
-30.532823 25.134717 51.934347
-30.447624 24.390343 53.043861
-30.424582 26.547538 52.74901
-30.606357 23.735706 51.181009
-30.532823 25.134717 51.934347
-13.808737 31.799051 60.908632
-14.678939 31.365562 61.54186
-14.09204 30.002257 61.714374
-12.895312 32.060587 60.270719
-12.279762 30.684386 60.413641
-11.953238 32.309228 59.603214
-13.808737 31.799051 60.908632
-12.895312 32.060587 60.270719
-8.943131 30.190216 58.476
-8.049864 30.462656 57.777124
-19.767984 13.096627 68.829273
-18.853099 13.82035 68.442612
-19.767984 13.096627 68.829273
-20.395662 14.039064 68.689419
-21.975198 14.184426 68.821186
-21.01752 14.992545 68.557183
-21.63516 15.937172 68.338925
-21.975198 14.184426 68.821186
-22.911623 13.336601 69.034584
-25.656052 13.384633 68.371231
-24.828167 14.359589 68.413521
-25.656052 13.384633 68.371231
-26.116067 14.294965 67.829746
-27.879424 13.185921 66.709869
-27.240786 14.321177 67.01844
-28.176584 14.063726 65.974148
-27.879424 13.185921 66.709869
-27.954985 16.148554 65.650909
-28.520884 14.892975 65.248188
-28.176584 14.063726 65.974148
-23.108243 28.754684 64.561745
-22.503396 27.631257 64.955643
-22.255018 29.445146 64.396271
-23.922433 27.943668 64.641487
-23.108243 28.754684 64.561745
-23.674055 29.757556 64.082116
-25.659625 33.83947 61.772907
-25.88969 31.879527 62.355793
-25.192771 32.887191 62.454567
-26.173175 34.834536 61.068573
-25.659625 33.83947 61.772907
-29.404029 12.478879 64.194866
-28.974592 13.736942 64.750446
-29.404029 12.478879 64.194866
-29.563224 13.293239 63.301019
-29.771895 13.87908 62.452561
-29.892705 14.639487 61.487498
-30.526063 11.449123 58.174221
-30.408352 12.840301 58.965544
-30.431079 13.591439 58.033888
-30.594583 10.772528 56.348522
-30.566403 12.869765 56.21153
-30.612196 11.442032 55.317487
-30.604226 10.02096 57.419132
-30.594583 10.772528 56.348522
-30.526063 11.449123 58.174221
-30.604226 10.02096 57.419132
-30.451777 8.36122 47.653568
-30.451994 8.959069 46.654924
-30.795063 15.347225 42.257868
-30.714268 14.764985 43.228777
-30.795063 15.347225 42.257868
-30.885889 17.423152 42.029921
3 0 35 34
3 140 139 36
3 0 40 38
3 0 34 40
3 141 44 142
3 143 142 42
3 141 142 143
3 145 144 44
3 1 48 46
3 3 51 49
3 3 53 51
3 1 55 54
3 1 46 55
3 3 58 53
3 4 61 59
3 2 146 148
3 148 147 63
3 146 147 148
3 6 67 65
3 6 69 67
3 6 71 69
3 5 73 72
3 150 149 74
3 152 151 75
3 7 78 76
3 153 79 154
3 155 80 156
3 157 156 79
3 155 156 157
3 7 158 159
3 7 160 162
3 160 76 161
3 160 161 162
3 163 82 164
3 165 164 80
3 163 164 165
3 167 166 83
3 11 168 170
3 170 169 85
3 168 169 170
3 172 171 37
3 12 88 86
3 14 89 39
3 14 90 89
3 14 92 90
3 174 173 41
3 16 95 93
3 18 96 43
3 18 97 96
3 18 98 97
3 20 99 45
3 20 100 99
3 20 102 100
3 21 105 103
3 23 106 47
3 23 107 106
3 8 108 77
3 24 109 50
3 24 110 109
3 24 111 110
3 25 112 52
3 25 113 112
3 26 175 176
3 26 177 179
3 177 114 178
3 177 178 179
3 26 115 114
3 21 116 56
3 21 103 116
3 25 117 113
3 27 118 57
3 27 180 182
3 182 181 118
3 180 181 182
3 9 119 81
3 28 122 120
3 30 123 60
3 30 124 123
3 10 125 84
3 31 126 62
3 31 127 126
3 31 128 127
3 183 129 184
3 186 185 129
3 22 130 104
3 188 187 64
3 13 189 191
3 191 190 87
3 189 190 191
3 193 192 66
3 32 194 196
3 196 195 68
3 194 195 196
3 32 197 199
3 197 131 198
3 197 198 199
3 32 132 131
3 33 133 70
3 33 134 133
3 15 135 91
3 200 136 201
3 202 137 203
3 204 203 136
3 202 203 204
3 206 205 137
3 29 207 209
3 209 208 121
3 207 208 209
3 17 138 94
3 19 210 211
3 214 213 101
3 212 213 214
3 216 215 7
3 217 7 218
3 34 219 220
3 35 221 223
3 223 222 34
3 221 222 223
3 35 224 225
3 36 37 11
3 226 37 227
3 228 227 36
3 226 227 228
3 231 230 37
3 229 230 231
3 38 39 12
3 40 39 38
3 40 14 39
3 40 41 14
3 34 41 40
3 34 232 234
3 234 233 41
3 232 233 234
3 42 43 16
3 44 43 42
3 44 18 43
3 44 45 18
3 235 45 236
3 237 236 44
3 235 236 237
3 238 20 239
3 240 239 45
3 238 239 240
3 242 241 20
3 46 47 21
3 48 47 46
3 48 23 47
3 49 50 8
3 51 50 49
3 51 24 50
3 51 52 24
3 53 52 51
3 53 25 52
3 54 243 244
3 55 245 247
3 247 246 54
3 245 246 247
3 55 248 250
3 248 26 249
3 248 249 250
3 55 56 26
3 46 56 55
3 46 21 56
3 53 57 25
3 58 57 53
3 58 27 57
3 252 251 9
3 59 60 28
3 61 60 59
3 61 30 60
3 253 62 254
3 255 254 10
3 253 254 255
3 256 62 257
3 258 31 259
3 260 259 62
3 258 259 260
3 262 261 31
3 63 64 22
3 263 64 264
3 265 264 63
3 263 264 265
3 267 266 64
3 65 66 13
3 67 66 65
3 67 268 270
3 270 269 66
3 268 269 270
3 67 271 273
3 271 68 272
3 271 272 273
3 69 68 67
3 69 32 68
3 69 70 32
3 71 70 69
3 71 33 70
3 275 274 15
3 72 276 278
3 278 277 29
3 276 277 278
3 73 279 281
3 281 280 72
3 279 280 281
3 73 282 283
3 74 284 286
3 286 285 17
3 284 285 286
3 288 287 74
3 75 289 291
3 291 290 19
3 289 290 291
3 293 292 75
3 76 77 1
3 78 77 76
3 78 8 77
3 294 78 295
3 296 295 7
3 294 295 296
3 79 297 299
3 297 78 298
3 297 298 299
3 79 8 78
3 79 49 8
3 80 49 79
3 80 3 49
3 300 54 301
3 76 302 304
3 302 54 303
3 302 303 304
3 76 1 54
3 80 81 3
3 82 81 80
3 82 9 81
3 305 82 306
3 307 82 308
3 309 9 310
3 311 310 82
3 309 310 311
3 313 312 9
3 83 84 4
3 314 84 315
3 316 315 83
3 314 315 316
3 317 10 318
3 319 318 84
3 317 318 319
3 320 10 321
3 323 322 10
3 85 324 326
3 326 325 2
3 324 325 326
3 328 327 85
3 37 329 331
3 331 330 11
3 329 330 331
3 333 332 37
3 86 334 336
3 334 87 335
3 334 335 336
3 88 87 86
3 88 13 87
3 39 88 12
3 89 88 39
3 89 13 88
3 89 65 13
3 90 65 89
3 90 6 65
3 90 91 6
3 92 91 90
3 92 15 91
3 41 92 14
3 337 92 338
3 339 338 41
3 337 338 339
3 340 15 341
3 342 341 92
3 340 341 342
3 344 343 15
3 93 94 5
3 95 94 93
3 95 17 94
3 43 95 16
3 96 95 43
3 96 17 95
3 96 74 17
3 97 74 96
3 97 345 347
3 347 346 74
3 345 346 347
3 97 348 349
3 98 350 352
3 352 351 97
3 350 351 352
3 98 353 355
3 353 19 354
3 353 354 355
3 45 98 18
3 99 98 45
3 99 19 98
3 99 75 19
3 100 75 99
3 100 356 358
3 358 357 75
3 356 357 358
3 100 359 361
3 359 101 360
3 359 360 361
3 102 101 100
3 102 362 364
3 364 363 101
3 362 363 364
3 365 102 366
3 367 366 20
3 365 366 367
3 368 102 369
3 371 370 102
3 103 104 0
3 105 104 103
3 105 22 104
3 47 105 21
3 106 105 47
3 106 22 105
3 106 63 22
3 107 63 106
3 107 2 63
3 77 48 1
3 108 48 77
3 108 23 48
3 50 108 8
3 109 108 50
3 109 23 108
3 109 107 23
3 110 107 109
3 110 2 107
3 110 85 2
3 111 85 110
3 111 11 85
3 52 111 24
3 112 111 52
3 112 11 111
3 112 36 11
3 113 36 112
3 113 372 374
3 374 373 36
3 372 373 374
3 114 375 376
3 114 377 378
3 114 379 381
3 379 86 380
3 379 380 381
3 115 86 114
3 115 12 86
3 56 115 26
3 116 115 56
3 116 12 115
3 116 38 12
3 103 38 116
3 103 0 38
3 113 382 383
3 117 384 386
3 386 385 113
3 384 385 386
3 117 387 388
3 57 117 25
3 118 117 57
3 118 389 391
3 391 390 117
3 389 390 391
3 118 392 393
3 395 394 118
3 81 58 3
3 119 58 81
3 119 27 58
3 396 119 397
3 398 397 9
3 396 397 398
3 399 119 400
3 401 27 402
3 403 402 119
3 401 402 403
3 405 404 27
3 120 406 408
3 406 121 407
3 406 407 408
3 122 121 120
3 122 29 121
3 60 122 28
3 123 122 60
3 123 29 122
3 123 72 29
3 124 72 123
3 124 5 72
3 84 61 4
3 125 61 84
3 125 30 61
3 62 125 10
3 126 125 62
3 126 30 125
3 126 124 30
3 127 124 126
3 127 5 124
3 127 93 5
3 128 93 127
3 128 16 93
3 409 128 410
3 411 410 31
3 409 410 411
3 129 412 414
3 412 128 413
3 412 413 414
3 129 16 128
3 129 42 16
3 415 42 416
3 417 416 129
3 415 416 417
3 419 418 42
3 104 35 0
3 130 35 104
3 130 420 422
3 422 421 35
3 420 421 422
3 64 130 22
3 423 130 424
3 425 424 64
3 423 424 425
3 427 426 130
3 429 428 2
3 87 430 431
3 433 432 87
3 66 434 436
3 436 435 13
3 434 435 436
3 438 437 66
3 68 439 440
3 442 441 68
3 131 443 444
3 131 445 446
3 131 447 449
3 447 120 448
3 447 448 449
3 132 120 131
3 132 28 120
3 70 132 32
3 133 132 70
3 133 28 132
3 133 59 28
3 134 59 133
3 134 4 59
3 91 71 6
3 135 71 91
3 135 33 71
3 450 135 451
3 452 451 15
3 450 451 452
3 136 453 455
3 453 135 454
3 453 454 455
3 136 33 135
3 136 134 33
3 137 134 136
3 137 4 134
3 137 83 4
3 456 83 457
3 458 457 137
3 456 457 458
3 460 459 83
3 121 461 462
3 464 463 121
3 466 465 29
3 94 73 5
3 138 73 94
3 138 467 469
3 469 468 73
3 467 468 469
3 470 138 471
3 472 471 17
3 470 471 472
3 473 138 474
3 476 475 138
3 478 477 19
3 101 479 480
3 482 481 101
