ply
format ascii 1.0
element vertex 381
property float x
property float y
property float z
element face 409
property list uchar int vertex_index
end_header
-6.165545 -51.718369 41.303448
-12.283184 -32.457924 44.986874
-17.77718 -29.259663 40.406631
-0.944098 -54.960773 45.379211
1.63749 -49.222057 54.285027
-3.992875 -45.195202 48.778034
-8.968554 -41.885063 43.476032
-14.094923 -38.822979 39.281193
-19.727766 -36.093372 36.652546
-3.625432 -53.200935 43.278324
-1.258675 -47.142841 51.611137
-9.615734 -34.046135 47.906368
-8.012403 -38.671959 47.052971
-10.593751 -37.019432 44.232479
-11.455201 -40.284847 41.230034
-13.02893 -35.650875 41.868652
-18.500219 -32.657623 38.317638
-21.454647 -31.402658 37.00238
-14.865677 -30.900164 42.59684
-8.774441 -50.172424 39.51421
0.125352 -51.937462 49.657303
-2.530595 -50.206627 47.119007
-4.977512 -48.5695 44.791389
-5.382715 -40.463757 50.060577
-6.480825 -43.553112 46.042763
-7.505561 -46.866123 42.517818
-10.000593 -45.29475 40.466114
-12.621981 -43.673046 38.724892
-15.321208 -42.306442 37.309299
-15.677458 -34.001717 39.956829
-16.836489 -37.384098 37.80555
-18.198572 -40.980877 36.213779
-21.306719 -39.606831 35.335072
-4.861064 -52.698792 42.146603
-10.93551 -33.186207 46.472603
-10.076522 -35.535282 46.051041
-11.441019 -34.650703 44.626755
-11.843371 -36.271397 42.984024
-12.715223 -33.904148 43.355076
-21.632652 -43.611324 34.446133
-10.058316 -49.36129 38.75687
2.37036 -47.713863 56.502949
0.787399 -50.561691 51.8871
-2.650074 -46.300419 50.074501
-1.97675 -48.609913 49.277069
-3.227896 -47.811939 47.960419
-3.763589 -49.316944 45.985397
-4.504191 -46.76881 46.784359
-8.461299 -40.24622 45.248264
-7.18713 -41.17247 46.593422
-7.745382 -42.760769 44.671131
-6.937132 -45.247849 44.242851
-8.271311 -44.424824 42.929062
-8.79329 -46.047085 41.420025
-9.518452 -43.50124 41.866871
-12.740063 -39.555275 40.216892
-11.97713 -42.105133 39.866787
-13.27046 -41.338299 39.022968
-13.974816 -42.969006 37.960171
-14.600561 -40.593525 38.26545
-16.305944 -30.085209 41.438343
-15.260283 -32.394207 41.210606
-16.629045 -31.64827 40.236286
-19.100258 -34.217297 37.451351
-17.552731 -34.916183 38.148136
-18.252516 -36.656387 37.219662
-17.383148 -39.241764 36.990528
-18.911438 -38.548588 36.444855
-19.739916 -40.225376 35.765953
-20.494455 -37.785439 35.971275
-2.279285 -54.169495 44.255051
0.90385 -46.864883 55.109165
0.164634 -48.171822 52.973343
-0.550291 -45.646183 53.891907
-1.976454 -44.859509 52.281849
-3.301829 -43.831146 50.941986
-8.312304 -35.005802 49.293026
-7.518674 -37.232059 48.926334
-8.814516 -36.484165 47.358212
-9.269132 -37.94862 45.579201
-9.702264 -39.535034 43.884369
-10.26314 -41.100212 42.221241
-11.009354 -38.622204 42.659611
-12.246647 -37.901264 41.54248
-13.531774 -37.122864 40.540741
-19.17647 -28.631763 39.474689
-18.014954 -31.062222 39.31337
-19.545218 -30.296425 38.489536
-20.016268 -31.944496 37.623322
-20.62635 -33.796261 36.795315
-21.304905 -35.442501 36.132767
-22.2267 -33.062382 36.248302
-13.608582 -31.654308 43.703251
-7.467286 -50.999237 40.348377
-0.368419 -53.430664 47.570625
-0.587072 -49.443096 50.750362
-1.19268 -50.926388 48.543446
-1.683976 -52.503578 46.462429
-3.001752 -51.821289 45.148075
-4.349702 -50.889572 44.018196
-5.596795 -50.160336 42.907856
-4.644349 -42.84853 49.495579
-6.70557 -39.624416 48.493446
-5.937184 -41.96339 48.03759
-5.256651 -44.388229 47.363216
-5.781308 -46.080559 45.354778
-6.248717 -47.802261 43.567024
-6.92078 -49.26379 41.86216
-8.129706 -48.443729 40.952831
-9.354121 -47.705875 40.052124
-10.655499 -46.878078 39.202908
-10.755681 -42.838203 40.781944
-11.289554 -44.583286 39.519566
-11.97762 -46.30529 38.342945
-13.309558 -45.550293 37.64772
-14.639857 -44.846836 37.035221
-16.042904 -44.175747 36.471836
-13.921065 -33.284317 42.215149
-14.414406 -34.651562 40.869289
-14.846794 -36.367081 39.638412
-17.039925 -33.228123 39.148796
-16.230978 -35.565605 38.835293
-15.423029 -38.035671 38.530487
-15.959911 -39.678596 37.657246
-16.721684 -41.537746 36.758842
-17.548172 -43.292835 35.993454
-19.144258 -42.618996 35.507027
-20.677168 -42.007469 35.090698
-22.165131 -41.186016 34.759903
-21.935019 -37.329586 35.535351
-5.827518 -52.978932 40.902069
-5.175277 -53.469143 41.323646
-5.513305 -52.20858 41.725026
-11.609347 -32.822066 45.729738
-11.410446 -32.107278 46.576718
-12.084283 -31.743136 45.833853
-22.136601 -44.410269 34.08795
-22.404991 -43.171496 34.283663
-0.578908 -56.20785 44.742647
-0.305566 -55.344015 45.922966
-10.397604 -50.333073 38.153762
-10.689046 -49.106466 38.371761
2.369287 -49.707981 54.902386
2.735722 -48.953884 56.011347
2.003925 -48.46796 55.393988
1.985099 -50.410965 53.764364
2.369287 -49.707981 54.902386
1.212444 -49.891874 53.086063
1.560053 -51.080782 52.565401
1.985099 -50.410965 53.764364
-3.23448 -54.495041 42.7731
-2.561406 -54.979321 43.261464
-2.952358 -53.685215 43.766688
0.549321 -45.629499 55.514809
1.275439 -46.069099 56.207667
-0.17775 -45.020149 54.90618
0.17678 -46.255533 54.500536
0.549321 -45.629499 55.514809
-2.366967 -43.607378 52.606016
-1.647483 -44.119839 53.348753
-3.029654 -43.093196 51.936084
-2.639142 -44.345327 51.611918
-2.366967 -43.607378 52.606016
-9.35754 -33.378135 48.836796
-10.072484 -32.874702 48.087728
-8.964019 -34.525969 48.599697
-8.705825 -33.857969 49.530124
-9.35754 -33.378135 48.836796
-20.111756 -29.080773 38.564487
-19.360844 -29.464094 38.982112
-19.927383 -28.248441 39.057064
-20.735458 -31.673577 37.312851
-20.570185 -30.741965 37.679045
-21.289375 -30.471045 37.368574
-8.429725 -51.438116 39.238333
-7.776147 -51.851523 39.655417
-8.120863 -50.585831 39.931293
0.573745 -53.17799 49.178459
0.870565 -52.440681 50.312157
-0.121534 -52.684063 48.613964
0.32686 -53.924591 48.13512
0.573745 -53.17799 49.178459
-4.73569 -40.897492 50.802482
-5.099391 -39.775787 51.035162
-5.013532 -41.656143 49.778078
-4.366507 -42.089878 50.519983
-4.73569 -40.897492 50.802482
-22.385179 -36.196949 35.576046
-21.619962 -36.386043 35.834059
-22.070122 -35.253406 35.874754
-4.47588 -53.904758 41.760239
-3.858064 -54.15583 42.326099
-4.243248 -52.949863 42.712463
-4.790094 -54.67511 40.937282
-4.47588 -53.904758 41.760239
-5.175277 -53.469143 41.323646
-10.732372 -32.444738 47.370846
-11.410446 -32.107278 46.576718
-10.275622 -33.616171 47.189486
-10.072484 -32.874702 48.087728
-10.732372 -32.444738 47.370846
-22.046515 -30.237004 37.002699
-21.289375 -30.471045 37.368574
-22.318356 -31.126581 36.647787
-22.046515 -30.237004 37.002699
-21.312385 -44.821001 34.283228
-20.835646 -44.018107 34.631941
-21.312385 -44.821001 34.283228
-22.136601 -44.410269 34.08795
-9.745844 -50.689687 38.47715
-9.103907 -51.095254 38.85582
-9.416379 -49.766857 39.13554
-9.745844 -50.689687 38.47715
-10.397604 -50.333073 38.153762
3.120339 -48.171795 57.122971
2.783584 -46.962069 57.571675
3.485701 -49.411816 56.631369
3.120339 -48.171795 57.122971
2.735722 -48.953884 56.011347
1.201588 -51.752796 51.427055
1.560053 -51.080782 52.565401
0.456375 -51.249577 50.772201
0.870565 -52.440681 50.312157
1.201588 -51.752796 51.427055
-5.789217 -39.285893 50.262957
-5.099391 -39.775787 51.035162
-1.894607 -55.352911 43.759603
-1.227014 -55.74855 44.321683
-1.611691 -54.565134 44.817131
-1.894607 -55.352911 43.759603
-2.561406 -54.979321 43.261464
-3.23448 -54.495041 42.7731
-3.858064 -54.15583 42.326099
2.008694 -46.493589 56.904559
2.783584 -46.962069 57.571675
1.637105 -47.289373 55.806057
2.008694 -46.493589 56.904559
1.275439 -46.069099 56.207667
-0.934402 -44.513176 54.153782
-0.17775 -45.020149 54.90618
-1.263373 -45.252846 53.086878
-0.934402 -44.513176 54.153782
-1.647483 -44.119839 53.348753
-7.995001 -34.331558 50.308706
-8.705825 -33.857969 49.530124
-7.63497 -35.445926 50.073363
-7.995001 -34.331558 50.308706
-7.915489 -36.118931 49.10968
-7.238155 -36.559055 49.890017
-7.63497 -35.445926 50.073363
-20.33466 -29.917929 38.112152
-20.111756 -29.080773 38.564487
-19.780743 -31.120461 38.056429
-20.33466 -29.917929 38.112152
-20.570185 -30.741965 37.679045
-22.531019 -34.063347 35.932522
-22.070122 -35.253406 35.874754
-21.765802 -34.252442 36.190534
-22.704382 -31.956443 36.270748
-21.840674 -32.23252 36.625341
-22.318356 -31.126581 36.647787
-23.002049 -32.898271 35.954897
-22.704382 -31.956443 36.270748
-22.531019 -34.063347 35.932522
-23.002049 -32.898271 35.954897
-12.732823 -31.320113 45.190176
-12.084283 -31.743136 45.833853
-13.395522 -30.918304 44.548365
-12.945883 -32.056116 44.345062
-12.732823 -31.320113 45.190176
-14.070586 -30.488307 43.920119
-13.395522 -30.918304 44.548365
-14.699134 -30.111235 43.366913
-14.237129 -31.277236 43.150046
-14.070586 -30.488307 43.920119
-15.431327 -29.714528 42.698799
-14.699134 -30.111235 43.366913
-16.15146 -29.30705 42.119551
-15.585811 -30.492686 42.017592
-15.431327 -29.714528 42.698799
-16.839378 -28.878412 41.593296
-16.15146 -29.30705 42.119551
-17.574996 -28.46564 41.07744
-17.041562 -29.672436 40.922487
-16.839378 -28.878412 41.593296
-18.270116 -28.134794 40.543249
-17.574996 -28.46564 41.07744
-18.969761 -27.820844 40.077278
-18.476825 -28.945713 39.94066
-18.270116 -28.134794 40.543249
-19.712718 -27.410114 39.597166
-18.969761 -27.820844 40.077278
-20.463631 -27.026792 39.179541
-19.927383 -28.248441 39.057064
-19.712718 -27.410114 39.597166
-0.578908 -56.20785 44.742647
-1.227014 -55.74855 44.321683
-7.121327 -52.287249 40.006065
-6.470457 -52.646815 40.483601
-6.816415 -51.358803 40.825913
-7.121327 -52.287249 40.006065
-7.776147 -51.851523 39.655417
-8.429725 -51.438116 39.238333
-9.103907 -51.095254 38.85582
-0.017727 -54.578961 47.018673
0.32686 -53.924591 48.13512
-0.656258 -54.195718 46.474918
-0.305566 -55.344015 45.922966
-0.017727 -54.578961 47.018673
-3.695247 -42.581186 51.243187
-3.029654 -43.093196 51.936084
-3.973089 -43.339838 50.218783
-3.695247 -42.581186 51.243187
-4.366507 -42.089878 50.519983
-6.857197 -37.670043 49.695835
-7.238155 -36.559055 49.890017
-6.450645 -38.866222 49.479391
-6.857197 -37.670043 49.695835
-7.112122 -38.428237 48.70989
-6.044142 -40.044086 49.277012
-5.789217 -39.285893 50.262957
-6.450645 -38.866222 49.479391
-10.987638 -47.864861 38.59478
-10.689046 -49.106466 38.371761
-10.356908 -48.119684 38.979889
-11.648699 -47.578467 38.164799
-10.987638 -47.864861 38.59478
-11.31656 -46.591684 38.772926
-12.306705 -47.178711 37.849481
-11.648699 -47.578467 38.164799
-12.972673 -46.801213 37.501869
-12.306705 -47.178711 37.849481
-12.643589 -45.927791 37.995333
-13.671308 -46.492775 37.178049
-12.972673 -46.801213 37.501869
-14.336458 -46.141047 36.8718
-13.671308 -46.492775 37.178049
-13.974707 -45.198565 37.34147
-15.04484 -45.69869 36.619793
-14.336458 -46.141047 36.8718
-15.746364 -45.363146 36.338101
-15.04484 -45.69869 36.619793
-15.34138 -44.511291 36.753529
-16.502417 -44.975518 36.087147
-16.205876 -46.162917 35.953411
-15.746364 -45.363146 36.338101
-17.255051 -44.534061 35.847955
-16.502417 -44.975518 36.087147
-16.795538 -43.734291 36.232645
-18.032913 -44.14896 35.621012
-17.255051 -44.534061 35.847955
-18.830956 -43.812041 35.377798
-18.032913 -44.14896 35.621012
-18.346215 -42.955916 35.750241
-19.591449 -43.521943 35.162388
-18.830956 -43.812041 35.377798
-20.357905 -43.216179 34.954223
-19.591449 -43.521943 35.162388
-19.910713 -42.313232 35.298862
-21.15491 -42.809397 34.768416
-20.835646 -44.018107 34.631941
-20.357905 -43.216179 34.954223
-22.671231 -41.958842 34.440548
-22.404991 -43.171496 34.283663
-21.898891 -42.39867 34.603018
-22.772599 -37.026884 35.297844
-22.385179 -36.196949 35.576046
-22.409347 -38.114723 35.237657
-22.772599 -37.026884 35.297844
-22.095197 -39.253345 35.137518
-21.620869 -38.468209 35.435211
-22.409347 -38.114723 35.237657
-22.524403 -40.042938 34.849934
-21.735925 -40.396423 35.047488
-22.095197 -39.253345 35.137518
-22.944062 -40.856419 34.570418
-22.524403 -40.042938 34.849934
-22.671231 -41.958842 34.440548
-22.944062 -40.856419 34.570418
-5.827518 -52.978932 40.902069
-6.470457 -52.646815 40.483601
3 0 130 132
3 132 131 33
3 130 131 132
3 1 133 135
3 133 34 134
3 133 134 135
3 1 36 34
3 1 38 36
3 137 136 39
3 3 138 139
3 141 140 40
3 4 142 144
3 144 143 41
3 142 143 144
3 4 145 146
3 4 147 149
3 147 42 148
3 147 148 149
3 5 45 43
3 5 47 45
3 6 50 48
3 6 52 50
3 6 54 52
3 7 57 55
3 7 59 57
3 2 62 60
3 8 65 63
3 8 67 65
3 8 69 67
3 9 150 152
3 152 151 70
3 150 151 152
3 153 71 154
3 155 73 156
3 157 156 71
3 155 156 157
3 158 74 159
3 160 75 161
3 162 161 74
3 160 161 162
3 11 163 164
3 11 165 167
3 165 76 166
3 165 166 167
3 11 78 76
3 13 79 35
3 13 80 79
3 13 82 80
3 15 83 37
3 15 84 83
3 168 87 169
3 170 169 85
3 168 169 170
3 17 171 173
3 171 88 172
3 171 172 173
3 17 89 88
3 17 91 89
3 19 174 176
3 176 175 93
3 174 175 176
3 20 177 178
3 20 179 181
3 179 94 180
3 179 180 181
3 10 95 72
3 21 96 44
3 21 97 96
3 21 98 97
3 22 99 46
3 22 100 99
3 23 182 183
3 23 184 186
3 184 101 185
3 184 185 186
3 12 102 77
3 24 103 49
3 24 104 103
3 24 105 104
3 25 106 51
3 25 107 106
3 25 108 107
3 26 109 53
3 26 110 109
3 14 111 81
3 27 112 56
3 27 113 112
3 27 114 113
3 28 115 58
3 28 116 115
3 18 117 92
3 29 118 61
3 29 119 118
3 16 120 86
3 30 121 64
3 30 122 121
3 30 123 122
3 31 124 66
3 31 125 124
3 31 126 125
3 32 127 68
3 32 128 127
3 187 129 188
3 189 188 90
3 187 188 189
3 33 190 192
3 192 191 9
3 190 191 192
3 195 194 33
3 193 194 195
3 34 196 197
3 34 198 200
3 198 11 199
3 198 199 200
3 34 35 11
3 36 35 34
3 36 13 35
3 36 37 13
3 38 37 36
3 38 15 37
3 201 17 202
3 204 203 17
3 39 205 206
3 208 207 39
3 40 209 211
3 211 210 19
3 209 210 211
3 213 212 40
3 41 214 215
3 218 217 41
3 216 217 218
3 42 219 220
3 42 221 223
3 221 20 222
3 221 222 223
3 43 44 10
3 45 44 43
3 45 21 44
3 45 46 21
3 47 46 45
3 47 22 46
3 224 23 225
3 48 49 12
3 50 49 48
3 50 24 49
3 50 51 24
3 52 51 50
3 52 25 51
3 52 53 25
3 54 53 52
3 54 26 53
3 55 56 14
3 57 56 55
3 57 27 56
3 57 58 27
3 59 58 57
3 59 28 58
3 60 61 18
3 62 61 60
3 62 29 61
3 63 64 16
3 65 64 63
3 65 30 64
3 65 66 30
3 67 66 65
3 67 31 66
3 67 68 31
3 69 68 67
3 69 32 68
3 70 226 228
3 228 227 3
3 226 227 228
3 230 229 70
3 232 231 9
3 233 41 234
3 71 235 237
3 235 41 236
3 235 236 237
3 71 4 41
3 71 72 4
3 73 72 71
3 73 10 72
3 238 73 239
3 74 240 242
3 240 73 241
3 240 241 242
3 74 10 73
3 74 43 10
3 75 43 74
3 75 5 43
3 76 243 244
3 76 245 246
3 76 247 249
3 247 77 248
3 247 248 249
3 78 77 76
3 78 12 77
3 35 78 11
3 79 78 35
3 79 12 78
3 79 48 12
3 80 48 79
3 80 6 48
3 80 81 6
3 82 81 80
3 82 14 81
3 37 82 13
3 83 82 37
3 83 14 82
3 83 55 14
3 84 55 83
3 84 7 55
3 85 86 2
3 87 86 85
3 87 16 86
3 250 87 251
3 88 252 254
3 252 87 253
3 252 253 254
3 88 16 87
3 88 63 16
3 89 63 88
3 89 8 63
3 89 90 8
3 91 90 89
3 91 255 257
3 257 256 90
3 255 256 257
3 258 91 259
3 260 259 17
3 258 259 260
3 261 91 262
3 264 263 91
3 265 1 266
3 267 92 268
3 269 268 1
3 267 268 269
3 270 92 271
3 272 18 273
3 274 273 92
3 272 273 274
3 275 18 276
3 277 60 278
3 279 278 18
3 277 278 279
3 280 60 281
3 282 2 283
3 284 283 60
3 282 283 284
3 285 2 286
3 287 85 288
3 289 288 2
3 287 288 289
3 290 85 291
3 294 293 85
3 292 293 294
3 296 295 3
3 93 297 299
3 299 298 0
3 297 298 299
3 301 300 93
3 303 302 19
3 94 304 305
3 94 306 308
3 306 3 307
3 306 307 308
3 72 42 4
3 95 42 72
3 95 20 42
3 44 95 10
3 96 95 44
3 96 20 95
3 96 94 20
3 97 94 96
3 97 3 94
3 97 70 3
3 98 70 97
3 98 9 70
3 46 98 21
3 99 98 46
3 99 9 98
3 99 33 9
3 100 33 99
3 100 0 33
3 309 75 310
3 101 311 313
3 311 75 312
3 311 312 313
3 101 5 75
3 77 314 315
3 102 316 318
3 318 317 77
3 316 317 318
3 102 319 321
3 319 23 320
3 319 320 321
3 49 102 12
3 103 102 49
3 103 23 102
3 103 101 23
3 104 101 103
3 104 5 101
3 104 47 5
3 105 47 104
3 105 22 47
3 51 105 24
3 106 105 51
3 106 22 105
3 106 100 22
3 107 100 106
3 107 0 100
3 107 93 0
3 108 93 107
3 108 19 93
3 53 108 25
3 109 108 53
3 109 19 108
3 109 40 19
3 110 40 109
3 110 322 324
3 324 323 40
3 322 323 324
3 81 54 6
3 111 54 81
3 111 26 54
3 56 111 14
3 112 111 56
3 112 26 111
3 112 110 26
3 113 110 112
3 113 325 327
3 327 326 110
3 325 326 327
3 113 328 329
3 114 330 332
3 332 331 113
3 330 331 332
3 114 333 334
3 58 114 27
3 115 114 58
3 115 335 337
3 337 336 114
3 335 336 337
3 115 338 339
3 116 340 342
3 342 341 115
3 340 341 342
3 116 343 345
3 343 344 345
3 92 38 1
3 117 38 92
3 117 15 38
3 61 117 18
3 118 117 61
3 118 15 117
3 118 84 15
3 119 84 118
3 119 7 84
3 86 62 2
3 120 62 86
3 120 29 62
3 64 120 16
3 121 120 64
3 121 29 120
3 121 119 29
3 122 119 121
3 122 7 119
3 122 59 7
3 123 59 122
3 123 28 59
3 66 123 30
3 124 123 66
3 124 28 123
3 124 116 28
3 125 116 124
3 125 346 348
3 348 347 116
3 346 347 348
3 125 349 350
3 126 351 353
3 353 352 125
3 351 352 353
3 126 354 355
3 68 126 31
3 127 126 68
3 127 356 358
3 358 357 126
3 356 357 358
3 127 359 361
3 359 39 360
3 359 360 361
3 128 39 127
3 128 362 364
3 364 363 39
3 362 363 364
3 90 69 8
3 129 69 90
3 129 32 69
3 365 129 366
3 367 129 368
3 369 32 370
3 371 370 129
3 369 370 371
3 372 128 373
3 374 373 32
3 372 373 374
3 375 128 376
3 378 377 128
3 380 379 0
