ply
format ascii 1.0
element vertex 755
property float x
property float y
property float z
element face 866
property list uchar int vertex_index
end_header
-4.812918 100.537796 -34.648285
19.996334 78.107689 -6.722471
14.725031 85.765404 -26.740921
2.927184 78.868828 -42.734539
13.616772 63.721127 -29.478897
15.242155 81.890648 0.482383
19.50194 71.641045 3.019268
8.907242 90.159058 -1.360725
14.124074 88.363304 -10.148912
-11.170296 94.5709 -43.564941
-0.069029 90.939568 -40.453804
19.866184 75.464775 -21.408499
15.361182 75.839066 -29.286892
22.767174 72.122856 -12.965534
22.540522 60.269863 4.676126
5.960558 94.517586 -31.466719
18.394268 83.40435 -17.151745
9.239076 84.473328 -35.549667
9.969376 72.493362 -36.617069
12.764057 83.148087 3.800973
15.053135 78.613724 5.340942
10.078156 86.597771 3.15851
12.335803 86.393028 -0.782051
-8.08468 98.08506 -39.607094
-5.611251 93.150742 -42.355576
-2.397522 96.266075 -38.038204
19.181787 70.756538 -22.565262
-13.638537 99.088394 -40.331062
21.816061 75.393173 -10.253403
18.781248 68.008705 7.847273
21.126913 65.941177 4.043978
20.272306 62.539875 8.603341
21.75561 57.058952 8.982013
17.386803 83.456345 -8.476902
16.614473 86.074013 -13.649548
19.514141 81.003487 -11.951266
21.016438 77.757286 -14.842744
-1.573732 81.100571 -45.181126
10.708899 90.363007 -29.35708
7.836184 89.890572 -34.014908
12.199725 85.435196 -31.366041
14.57956 70.055809 -29.649315
12.749164 74.516243 -32.957417
12.236762 68.293198 -33.024551
17.677105 80.41156 -3.304675
19.914114 75.065247 -1.804685
17.547157 77.07402 1.72811
17.151533 73.536621 6.486701
16.371136 70.061996 11.197398
7.419984 93.753105 -6.580012
11.511187 89.686516 -5.955264
14.872993 85.304581 -4.703724
4.842122 93.831238 -1.818658
-3.438832 87.516159 -44.149368
1.554945 85.231987 -42.016834
17.757425 80.725716 -24.139791
15.433653 80.909531 -28.460951
17.68951 76.154121 -25.568964
16.974373 70.715004 -26.082842
0.901946 97.88591 -33.10598
8.694981 94.322609 -26.375917
13.150491 89.86441 -24.330549
15.25014 88.220139 -19.0187
16.809195 85.016365 -21.952478
19.576817 79.729866 -19.680582
21.511778 74.213257 -17.329617
3.156641 93.284851 -36.154034
4.94303 88.032715 -38.164284
6.106113 82.130722 -39.39415
12.784333 80.159531 -32.535862
9.868639 78.563698 -36.366791
6.900828 75.840775 -39.828461
7.43912 69.308304 -39.837875
11.485166 84.947578 3.410675
-6.565625 99.591782 -37.164726
-5.20122 97.385757 -38.785698
-3.585411 98.538216 -36.441719
-6.073048 102.305885 -32.635136
-7.754945 101.548775 -35.194767
-9.124689 100.29982 -37.633614
20.95826 76.964317 -8.646031
21.898401 74.283691 -7.804821
21.065035 75.401711 -6.029001
18.347153 66.261116 10.149544
19.57539 65.349121 8.140592
19.048513 63.597431 10.608687
19.851826 60.799343 10.831869
18.779652 80.781525 -7.515907
18.524494 82.273994 -10.189472
19.854074 79.58316 -9.387639
20.790897 78.144547 -11.067376
0.714144 80.020401 -44.038616
-0.802972 77.830536 -45.443863
1.487339 76.815414 -44.156261
3.63671 75.616867 -42.758476
12.768995 88.188301 -28.109486
11.501772 88.02034 -30.528599
13.499846 85.768913 -29.078981
14.164993 66.81144 -29.455788
13.418033 69.296349 -31.311409
13.066776 66.201965 -31.202488
16.450239 81.228111 -1.382841
17.776312 78.573555 -0.780977
16.464342 79.485222 1.147216
14.783605 77.063133 7.648014
16.081053 76.159126 6.034906
15.777946 74.526688 8.334404
16.719917 71.921242 8.890971
15.43375 72.796593 10.627869
8.244745 91.97261 -3.980394
9.603419 91.773331 -6.496806
10.079292 90.134987 -3.670692
13.80195 84.293747 -0.177402
13.663912 85.767113 -2.57143
15.147151 83.55069 -2.024206
16.382196 82.944954 -4.158832
7.781494 90.131279 0.691451
5.857683 91.675751 0.86914
6.866902 92.090187 -1.626743
6.161147 93.852974 -4.227333
-9.880106 91.858109 -44.834846
-2.876049 92.14872 -41.51115
-4.553672 90.471786 -43.365757
-1.862305 89.58345 -42.343525
-1.012326 86.521942 -43.194019
0.56773 88.185745 -41.481819
18.953854 77.947845 -22.767788
17.859184 78.347237 -24.930269
18.811132 75.711929 -23.561499
18.055317 70.837929 -24.415762
17.493259 67.87059 -24.411831
16.360886 67.88929 -26.195862
-12.318698 97.043877 -41.974586
19.78438 73.452812 0.442926
20.612034 70.552322 1.319461
21.855841 63.160736 4.335423
22.130219 64.867813 2.309407
21.464985 55.419216 10.970531
10.02915 93.727325 -23.644947
10.963634 92.18306 -25.486574
12.155835 91.574554 -22.807577
12.114954 90.777603 -10.816217
13.392971 89.909065 -12.775327
17.540815 84.905869 -15.497406
15.890975 87.378578 -16.28112
16.880049 85.89962 -18.150202
16.148685 86.643433 -20.610697
17.799801 84.035652 -19.556948
18.28647 82.355881 -20.995173
19.145468 81.550278 -18.429893
21.960911 74.993492 -13.96917
21.353374 76.092941 -16.272144
22.197481 73.247131 -15.193591
3.556507 96.217896 -32.334934
1.989529 95.768272 -34.76622
4.643645 94.011894 -33.847271
8.629421 87.242928 -34.897785
6.376739 89.117935 -36.172241
7.069806 86.199028 -37.077915
5.512233 85.198349 -38.935577
7.776976 83.446457 -37.443836
15.433165 78.592323 -29.005274
14.044511 80.848686 -30.621195
14.215122 78.030449 -30.870472
11.340413 73.50444 -34.83849
11.405004 76.592873 -34.719532
10.006016 75.526993 -36.492275
8.301946 77.455704 -38.210041
8.612201 74.189507 -38.189869
7.329795 72.656219 -39.71381
8.754991 70.87587 -38.166779
14.00708 82.600883 2.116235
15.185398 80.307213 2.894299
13.996528 80.979149 4.451349
9.603834 88.326874 0.925572
10.752177 88.251823 -1.107297
11.190515 86.568924 1.202226
12.709728 84.629532 1.568487
-9.574767 96.497841 -41.634228
-8.388419 94.134415 -42.93713
-6.616509 95.764893 -40.978249
-3.97139 94.800453 -40.315868
-1.180624 93.662453 -39.393692
20.551809 72.71859 -20.215549
19.607714 73.128105 -22.103445
-10.821947 98.83873 -39.909782
22.395309 73.851212 -11.662332
23.129881 71.150581 -10.704344
22.681805 72.537659 -9.158208
19.152702 69.861504 5.469797
20.359238 68.779228 3.578084
19.981186 67.04184 5.912124
20.758131 64.206848 6.254777
21.477766 61.522377 6.466255
22.08581 58.759026 6.923631
21.001347 59.891155 8.77708
20.665169 58.013386 10.960145
15.862462 85.96534 -9.413059
15.400556 87.336281 -11.998566
17.125265 84.764091 -11.147341
18.161793 83.596481 -12.926545
19.04764 82.251282 -14.56973
19.816008 80.613472 -15.984898
20.358522 79.484398 -13.442369
21.498108 76.600899 -12.574204
-4.056903 82.121529 -46.228901
-3.138084 78.964203 -46.509724
8.363728 92.535751 -30.516201
7.00878 92.205574 -32.897308
9.35943 90.146751 -31.782835
10.135335 87.735771 -32.742027
10.786044 85.190384 -33.413513
15.04605 73.028862 -29.51067
14.100317 75.130081 -31.093521
13.834109 72.373344 -31.215866
12.49575 71.512321 -33.075539
11.241851 70.579216 -34.81385
10.085354 69.203743 -36.396954
11.103275 67.373039 -34.740124
18.8543 79.377411 -5.050557
19.994852 76.69014 -4.305908
18.928394 77.652275 -2.546864
18.78327 76.002487 0.030918
18.623436 74.32959 2.350075
16.26619 77.910866 3.62228
17.337225 75.384155 4.168866
18.312618 72.694412 4.758883
17.939169 70.848732 7.292594
17.605488 69.042786 9.527115
17.063116 67.4188 11.946223
10.816807 91.432388 -8.744668
12.816434 89.150276 -8.132473
11.950336 88.029213 -3.223473
13.23511 87.538971 -5.267873
14.606377 86.805374 -7.383995
16.25338 84.375313 -6.726715
17.613081 81.936333 -5.864286
3.865214 95.765678 -4.47852
-7.176699 91.272682 -44.152035
-6.125373 88.320877 -45.102158
-2.553651 84.332214 -44.827305
0.011444 83.368294 -43.630444
2.332106 82.034286 -42.446957
16.326876 83.333038 -25.507378
15.198135 83.342979 -27.740131
16.640347 80.905182 -26.352268
16.664976 78.542076 -27.035723
16.57415 75.973747 -27.417395
18.521557 73.429497 -24.080204
17.441647 73.490364 -25.884125
16.178301 73.261719 -27.834562
15.794732 70.544006 -27.878056
15.292986 67.633896 -27.826452
21.465738 67.59285 1.819304
-3.134941 101.092484 -32.098366
-1.876697 99.262398 -33.985088
-0.550598 99.847427 -31.438551
2.370756 98.145378 -30.665726
4.901969 96.481682 -29.808603
6.293938 96.310768 -27.2458
7.395557 94.527428 -28.984001
9.836378 92.323616 -28.08036
11.947427 90.3181 -26.836617
14.026654 87.91375 -25.63689
14.799804 88.590851 -14.470092
14.078777 89.745872 -17.321611
13.202599 90.739044 -20.097635
14.358573 89.04184 -21.645426
15.10928 87.46077 -23.144848
15.807346 85.5411 -24.39579
17.391016 82.957039 -23.186785
18.744974 80.217552 -21.98521
19.806021 77.70739 -20.722746
20.365807 78.875801 -17.189846
20.617676 77.024498 -18.556898
20.763542 74.760895 -19.377085
-0.736078 97.288574 -35.605427
0.397974 94.947678 -37.114521
1.438593 92.442902 -38.344898
5.564444 91.604057 -35.182186
3.97909 90.757851 -37.378864
2.400241 89.655861 -39.389313
3.11901 86.818909 -40.248634
3.966633 83.85537 -40.696625
4.391695 80.798378 -41.183262
13.91608 83.272888 -29.924295
12.523868 82.924767 -32.107792
11.123285 82.461555 -34.070824
12.836223 77.438416 -32.819332
11.401007 79.582405 -34.406445
9.616091 81.421928 -36.099239
8.135296 80.541512 -37.855385
6.520761 79.091919 -39.697483
4.971225 77.678856 -41.322891
5.511384 74.183655 -41.355709
5.995358 70.903351 -41.27161
8.802896 67.869286 -38.172028
18.471995 64.108671 11.480733
18.697833 64.929273 10.379116
18.121315 65.440514 11.251162
18.855701 62.702433 11.698358
18.471995 64.108671 11.480733
13.131496 63.431048 -30.358166
12.856498 64.671467 -31.219962
13.341774 64.961546 -30.340692
13.376942 62.141119 -29.468367
13.131496 63.431048 -30.358166
15.111877 74.977002 9.151692
15.280776 75.79491 7.991209
14.614706 76.245224 8.808497
14.939778 74.111954 10.298424
15.605848 73.661641 9.481136
15.111877 74.977002 9.151692
-10.525201 93.214505 -44.199894
-11.24168 92.055252 -45.085188
-11.886775 93.411648 -44.450235
17.670902 66.620979 -23.670807
18.046406 68.021927 -23.612083
17.137336 66.587723 -24.48111
17.670902 66.620979 -23.670807
-12.537771 94.713051 -43.750811
-13.111971 95.94954 -42.955633
-11.744497 95.807389 -42.769763
-11.886775 93.411648 -44.450235
-12.537771 94.713051 -43.750811
23.08627 70.722416 -12.492992
22.832293 71.173668 -13.541574
22.700485 61.139253 3.598118
22.358144 62.58469 3.427766
22.198182 61.7153 4.505774
23.050708 59.65352 3.722337
22.700485 61.139253 3.598118
22.876926 58.839569 4.816244
23.050708 59.65352 3.722337
21.880491 54.062732 11.013607
21.314464 54.564899 12.057941
10.543183 93.387664 -22.329704
9.346016 94.527107 -22.690104
11.606526 92.311279 -21.91102
11.092492 92.650939 -23.226262
10.543183 93.387664 -22.329704
22.832293 71.173668 -13.541574
22.547446 71.735805 -14.655602
22.482328 72.684993 -14.079562
9.295527 87.413692 3.044253
9.589575 86.467415 4.146997
9.840995 87.462322 2.042041
9.058366 88.278244 1.927784
9.295527 87.413692 3.044253
20.405659 71.476502 -20.408551
20.848015 71.234967 -19.541826
22.355641 72.754601 -7.394841
21.951286 73.475479 -6.618571
20.074134 58.596954 11.931124
20.258497 59.406364 10.896007
19.667462 59.989933 11.866986
20.464588 57.255947 12.039331
20.074134 58.596954 11.931124
-1.540407 76.686668 -46.075407
-0.419102 76.213299 -45.495666
8.040909 93.644165 -7.792333
6.98768 94.58979 -7.94146
4.327355 93.602672 -0.540423
4.835135 92.524929 0.803477
5.349902 92.753495 -0.474759
3.789388 94.685265 -1.923567
4.327355 93.602672 -0.540423
4.353668 94.798458 -3.148589
3.300934 95.652484 -3.253498
3.789388 94.685265 -1.923567
6.304733 94.730759 -6.761801
5.675314 94.780693 -5.585462
6.790565 93.80304 -5.403672
6.98768 94.58979 -7.94146
6.304733 94.730759 -6.761801
-4.277662 86.36026 -44.983362
-5.620933 86.762619 -45.459757
-4.782102 87.918518 -44.625763
-2.996242 85.924186 -44.488337
-3.835072 84.768287 -45.32233
-4.277662 86.36026 -44.983362
15.518363 66.247268 -26.945894
15.826936 67.761593 -27.011157
16.052313 66.374966 -26.130599
14.981269 66.104466 -27.823889
15.518363 66.247268 -26.945894
-14.925632 99.081508 -40.427569
-14.170899 100.025436 -39.346008
23.473014 69.587128 -10.296848
23.296143 70.355454 -9.613146
20.45927 74.468109 -2.663971
20.499639 75.280556 -3.914583
19.954483 75.877693 -3.055296
22.289955 65.722637 1.137269
22.653108 64.208675 1.335993
22.317068 56.494291 7.964671
22.482169 57.344328 6.93548
21.92071 57.908989 7.952822
-1.252247 100.715408 -30.414773
-1.842769 100.469955 -31.768459
-2.544419 101.337936 -30.744681
3.080684 98.147438 -29.339411
1.664122 99.045613 -29.73989
4.34629 97.31559 -28.91085
3.636363 97.31353 -30.237164
3.080684 98.147438 -29.339411
7.494459 95.316688 -26.810859
6.983344 96.076042 -25.837325
8.183866 95.081963 -25.402383
21.492732 73.066002 -17.735925
21.118614 73.339821 -18.759659
21.13766 74.487076 -18.353351
-2.544419 101.337936 -30.744681
-3.888812 101.95514 -31.031264
6.795176 68.485665 -40.645891
6.073295 69.283188 -41.362758
6.717239 70.105828 -40.554743
9.377267 66.894241 -37.328369
9.444125 68.536515 -37.284491
10.018496 67.56147 -36.440832
12.741836 82.3727 4.936307
12.215568 83.290108 4.612506
10.978694 84.959747 4.272748
10.781661 85.772674 3.284593
10.275189 85.784843 4.146666
11.576123 84.189853 4.417357
10.978694 84.959747 4.272748
12.215568 83.290108 4.612506
12.124612 84.047832 3.605824
11.576123 84.189853 4.417357
10.275189 85.784843 4.146666
9.589575 86.467415 4.146997
-7.507333 102.737198 -32.895457
-6.720612 103.0844 -31.498432
-8.348282 102.358643 -34.175272
-7.507333 102.737198 -32.895457
-6.913996 101.92733 -33.914952
-9.162444 101.845032 -35.468418
-8.348282 102.358643 -34.175272
-8.439817 100.924297 -36.414191
-9.847316 101.220554 -36.687842
-9.162444 101.845032 -35.468418
21.534603 74.034489 -5.730662
21.951286 73.475479 -6.618571
21.481718 74.842701 -6.916911
19.257357 61.303388 11.809949
19.45017 62.198387 10.720278
18.855701 62.702433 11.698358
19.667462 59.989933 11.866986
19.257357 61.303388 11.809949
0.726053 75.705738 -44.851866
-0.419102 76.213299 -45.495666
0.342183 77.322975 -44.800062
1.830035 75.092647 -44.19375
0.726053 75.705738 -44.851866
2.90472 74.493374 -43.494858
1.830035 75.092647 -44.19375
2.562024 76.21614 -43.457369
3.876604 73.938969 -42.802471
2.90472 74.493374 -43.494858
12.540097 65.767906 -32.055166
12.12509 66.813523 -32.966198
12.651769 67.247581 -32.11352
12.540097 65.767906 -32.055166
12.856498 64.671467 -31.219962
6.819589 90.903515 0.780296
6.294855 90.676735 2.011207
7.256761 89.904499 1.922363
-10.737586 90.619984 -45.690098
-11.24168 92.055252 -45.085188
-9.367064 90.500389 -45.329046
-10.737586 90.619984 -45.690098
18.327435 69.505596 -23.614049
18.618552 70.797234 -23.490512
18.89067 69.464901 -22.688799
17.774288 69.35426 -24.413797
18.327435 69.505596 -23.614049
18.046406 68.021927 -23.612083
16.57115 66.597072 -25.373126
16.927073 67.87994 -25.303846
17.137336 66.587723 -24.48111
16.052313 66.374966 -26.130599
16.57115 66.597072 -25.373126
-13.669039 97.08775 -42.137596
-14.328958 98.110008 -41.315834
-12.978617 98.066136 -41.152824
-13.669039 97.08775 -42.137596
-13.111971 95.94954 -42.955633
20.336161 72.824219 -0.345199
20.401029 73.630436 -1.469004
19.849247 74.259029 -0.68088
20.749989 71.373974 0.093069
20.336161 72.824219 -0.345199
20.198207 72.002567 0.881193
21.171244 69.983882 0.356953
20.749989 71.373974 0.093069
22.495333 63.438228 2.414759
21.99303 64.014274 3.322415
22.358144 62.58469 3.427766
22.653108 64.208675 1.335993
22.495333 63.438228 2.414759
22.058689 54.858949 9.887117
22.204002 55.678817 8.892858
21.610298 56.239084 9.976272
22.058689 54.858949 9.887117
21.880491 54.062732 11.013607
8.85095 94.784321 -24.036898
9.346016 94.527107 -22.690104
9.362065 94.024967 -25.010432
8.183866 95.081963 -25.402383
8.85095 94.784321 -24.036898
11.773041 91.456684 -12.143263
11.062096 91.891922 -11.081408
12.41205 91.022415 -13.122818
11.773041 91.456684 -12.143263
12.753963 90.343334 -11.795772
13.13363 90.436192 -14.107268
12.41205 91.022415 -13.122818
22.22646 72.222511 -15.64145
21.883608 72.705574 -16.709463
21.85463 73.730194 -16.261604
22.22646 72.222511 -15.64145
22.547446 71.735805 -14.655602
13.358071 81.288231 5.261496
13.380292 82.063618 4.126161
12.741836 82.3727 4.936307
13.889989 80.244866 5.595808
13.358071 81.288231 5.261496
14.418293 79.062153 6.040605
14.524831 79.796436 4.896146
13.889989 80.244866 5.595808
14.283528 78.286857 7.19414
14.91837 77.838428 6.494478
14.418293 79.062153 6.040605
14.146216 77.485637 8.358937
14.283528 78.286857 7.19414
14.614706 76.245224 8.808497
14.146216 77.485637 8.358937
8.147196 89.180447 1.810723
7.256761 89.904499 1.922363
8.692664 89.229077 0.808512
8.147196 89.180447 1.810723
9.058366 88.278244 1.927784
19.933612 71.681259 -21.352499
20.079762 72.923348 -21.159497
20.405659 71.476502 -20.408551
19.720648 70.495475 -21.583407
19.394751 71.942322 -22.334353
19.933612 71.681259 -21.352499
19.430885 69.349514 -21.810704
19.720648 70.495475 -21.583407
18.89067 69.464901 -22.688799
19.430885 69.349514 -21.810704
-12.867551 99.961204 -39.1879
-14.170899 100.025436 -39.346008
-10.610627 100.566917 -37.839177
-9.847316 101.220554 -36.687842
-11.459256 99.836372 -38.97726
-10.610627 100.566917 -37.839177
-9.973318 99.569275 -38.771698
-12.230242 98.963562 -40.120422
-12.867551 99.961204 -39.1879
-11.459256 99.836372 -38.97726
23.072105 71.048992 -8.840077
23.296143 70.355454 -9.613146
22.905843 71.84412 -9.931276
22.747343 71.881585 -8.071535
22.290103 73.410675 -8.481514
22.355641 72.754601 -7.394841
23.072105 71.048992 -8.840077
22.747343 71.881585 -8.071535
20.864495 55.958862 12.044524
21.065077 56.716301 10.965338
20.464588 57.255947 12.039331
21.314464 54.564899 12.057941
20.864495 55.958862 12.044524
-4.81612 80.92519 -46.86529
-5.379716 82.550133 -46.700578
-4.356711 79.346527 -47.005701
-4.81612 80.92519 -46.86529
-3.597494 80.542866 -46.369312
-3.837155 77.627842 -47.113729
-4.356711 79.346527 -47.005701
-2.707963 77.253502 -46.608337
-1.970528 78.397369 -45.976793
-1.540407 76.686668 -46.075407
-3.837155 77.627842 -47.113729
-2.707963 77.253502 -46.608337
10.527456 66.646118 -35.612417
10.018496 67.56147 -36.440832
10.594314 68.288391 -35.568539
11.558346 66.353443 -33.823985
11.670019 67.833119 -33.882338
12.12509 66.813523 -32.966198
11.044312 65.767029 -34.680782
11.558346 66.353443 -33.823985
10.527456 66.646118 -35.612417
11.044312 65.767029 -34.680782
17.479297 66.019356 12.149501
18.121315 65.440514 11.251162
17.705134 66.839958 11.047884
9.132627 92.654278 -7.75073
8.040909 93.644165 -7.792333
8.511702 92.763218 -6.538409
9.739321 92.483807 -8.874661
9.132627 92.654278 -7.75073
10.210113 91.602859 -7.620737
10.413023 92.219314 -10.045633
9.739321 92.483807 -8.874661
11.465881 91.104996 -9.780442
11.062096 91.891922 -11.081408
10.413023 92.219314 -10.045633
5.337877 91.440129 2.066902
6.294855 90.676735 2.011207
5.337877 91.440129 2.066902
4.835135 92.524929 0.803477
2.7483 96.620731 -4.566
3.300934 95.652484 -3.253498
3.431988 96.585826 -5.764176
2.7483 96.620731 -4.566
4.527348 95.737045 -5.711055
5.01318 94.809326 -4.352926
5.675314 94.780693 -5.585462
3.431988 96.585826 -5.764176
4.527348 95.737045 -5.711055
-8.01536 90.207676 -44.98764
-9.367064 90.500389 -45.329046
-8.528403 91.565395 -44.49344
-7.489697 88.731774 -45.462702
-8.01536 90.207676 -44.98764
-6.651036 89.796779 -44.627097
-6.877097 87.191227 -45.843533
-7.489697 88.731774 -45.462702
-6.877097 87.191227 -45.843533
-5.620933 86.762619 -45.459757
-4.586698 83.662945 -46.023128
-5.379716 82.550133 -46.700578
-3.305277 83.226871 -45.528103
-4.586698 83.662945 -46.023128
-3.835072 84.768287 -45.32233
14.417272 65.693238 -28.638556
14.72899 67.222668 -28.64112
14.981269 66.104466 -27.823889
14.143161 64.148081 -28.650111
13.890883 65.266284 -29.467343
14.417272 65.693238 -28.638556
13.841815 62.515326 -28.603138
14.143161 64.148081 -28.650111
-14.925632 99.081508 -40.427569
-14.328958 98.110008 -41.315834
23.267623 70.236278 -11.362397
23.08627 70.722416 -12.492992
22.948528 71.636719 -11.834939
23.267623 70.236278 -11.362397
23.473014 69.587128 -10.296848
21.03473 74.636342 -4.776129
20.529944 76.045926 -5.167454
20.499639 75.280556 -3.914583
21.534603 74.034489 -5.730662
21.03473 74.636342 -4.776129
20.45927 74.468109 -2.663971
20.401029 73.630436 -1.469004
21.598095 68.504146 0.606875
21.171244 69.983882 0.356953
21.038886 69.072586 1.569383
21.957715 67.085155 0.892217
21.797978 66.230332 2.064356
22.289955 65.722637 1.137269
21.598095 68.504146 0.606875
21.957715 67.085155 0.892217
22.64957 58.08415 5.939997
22.876926 58.839569 4.816244
22.313166 59.514444 5.799879
22.64957 58.08415 5.939997
22.482169 57.344328 6.93548
22.317068 56.494291 7.964671
22.204002 55.678817 8.892858
0.203445 99.896637 -30.126302
-1.252247 100.715408 -30.414773
0.910079 98.996402 -31.052138
0.203445 99.896637 -30.126302
1.664122 99.045613 -29.73989
5.653574 97.102535 -26.354353
6.983344 96.076042 -25.837325
5.042274 97.230133 -27.629448
5.653574 97.102535 -26.354353
5.597954 96.396225 -28.527202
4.34629 97.31559 -28.91085
5.042274 97.230133 -27.629448
13.837047 89.777085 -14.95465
13.13363 90.436192 -14.107268
14.096387 89.249958 -13.622709
13.476534 90.354595 -16.38041
13.837047 89.777085 -14.95465
14.439291 89.168362 -15.895851
13.023063 90.954357 -17.768972
13.476534 90.354595 -16.38041
12.584974 91.450943 -19.156984
13.023063 90.954357 -17.768972
13.640688 90.242458 -18.709623
12.129907 91.893524 -20.556049
12.584974 91.450943 -19.156984
12.679217 91.156799 -21.452606
11.606526 92.311279 -21.91102
12.129907 91.893524 -20.556049
21.012747 72.318669 -19.178891
20.657675 73.739743 -19.796317
21.118614 73.339821 -18.759659
20.848015 71.234967 -19.541826
21.012747 72.318669 -19.178891
21.492732 73.066002 -17.735925
21.883608 72.705574 -16.709463
-5.357865 102.56184 -31.299649
-6.720612 103.0844 -31.498432
-4.603994 101.699185 -32.366751
-5.357865 102.56184 -31.299649
-3.888812 101.95514 -31.031264
14.787064 73.180382 11.460483
14.939778 74.111954 10.298424
14.293092 74.495743 11.131038
15.25199 71.8806 11.778246
14.787064 73.180382 11.460483
15.720682 70.513301 12.06301
15.902443 71.429294 10.912634
15.25199 71.8806 11.778246
16.118182 69.241669 12.368146
15.720682 70.513301 12.06301
16.464172 67.920071 12.742558
16.717126 68.740398 11.57181
16.118182 69.241669 12.368146
16.88008 66.495686 13.036525
16.464172 67.920071 12.742558
17.479297 66.019356 12.149501
16.88008 66.495686 13.036525
4.813941 73.222363 -42.101087
3.876604 73.938969 -42.802471
4.574047 74.900261 -42.057092
5.055928 71.582211 -42.059038
4.813941 73.222363 -42.101087
5.753371 72.543503 -41.313659
5.303791 69.918633 -42.062195
5.055928 71.582211 -42.059038
5.303791 69.918633 -42.062195
6.073295 69.283188 -41.362758
8.853786 66.230408 -38.150152
9.377267 66.894241 -37.328369
8.245236 67.020508 -38.960217
8.853786 66.230408 -38.150152
7.563348 67.740017 -39.79314
8.121008 68.588795 -39.004951
8.245236 67.020508 -38.960217
6.795176 68.485665 -40.645891
7.563348 67.740017 -39.79314
13.376942 62.141119 -29.468367
13.841815 62.515326 -28.603138
3 0 76 74
3 0 78 77
3 0 74 78
3 1 82 80
3 297 85 298
3 299 298 83
3 297 298 299
3 301 300 85
3 1 89 87
3 1 80 89
3 3 93 91
3 3 94 93
3 2 97 95
3 4 100 98
3 4 302 304
3 304 303 100
3 302 303 304
3 4 305 306
3 5 103 101
3 307 106 308
3 309 308 104
3 307 308 309
3 310 108 311
3 312 311 106
3 310 311 312
3 7 111 109
3 5 114 112
3 5 101 114
3 7 118 116
3 7 109 118
3 9 313 315
3 313 120 314
3 313 314 315
3 10 123 121
3 10 125 123
3 11 128 126
3 316 130 317
3 319 318 130
3 9 320 322
3 322 321 132
3 320 321 322
3 9 323 324
3 13 325 326
3 6 134 133
3 14 327 329
3 329 328 135
3 327 328 329
3 14 330 331
3 14 332 333
3 335 334 137
3 336 138 337
3 338 140 339
3 340 339 138
3 338 339 340
3 8 142 141
3 16 145 143
3 16 147 145
3 16 149 147
3 13 152 150
3 13 341 343
3 343 342 152
3 341 342 343
3 15 155 153
3 17 158 156
3 17 160 158
3 12 163 161
3 18 166 164
3 18 168 166
3 18 170 168
3 19 173 171
3 21 176 174
3 19 177 73
3 19 171 177
3 21 344 345
3 21 346 348
3 346 174 347
3 346 347 348
3 23 180 178
3 25 181 75
3 25 182 181
3 350 349 183
3 23 185 79
3 23 178 185
3 28 188 186
3 352 351 81
3 29 191 189
3 31 192 84
3 31 193 192
3 31 195 193
3 353 196 354
3 355 354 86
3 353 354 355
3 357 356 196
3 33 199 197
3 35 200 88
3 35 201 200
3 35 203 201
3 28 204 90
3 28 186 204
3 37 206 205
3 359 358 92
3 38 209 207
3 40 210 96
3 40 211 210
3 41 214 212
3 43 215 99
3 43 216 215
3 43 218 216
3 44 221 219
3 46 222 102
3 46 223 222
3 20 224 172
3 47 225 105
3 47 226 225
3 47 227 226
3 48 228 107
3 48 229 228
3 49 360 361
3 50 230 110
3 50 231 230
3 22 232 175
3 51 233 113
3 51 234 233
3 51 235 234
3 44 236 115
3 44 219 236
3 52 362 364
3 364 363 117
3 362 363 364
3 52 365 366
3 52 367 369
3 367 237 368
3 367 368 369
3 49 370 372
3 372 371 119
3 370 371 372
3 49 373 374
3 24 238 179
3 53 239 122
3 53 375 377
3 377 376 239
3 375 376 377
3 53 378 380
3 378 240 379
3 378 379 380
3 54 241 124
3 54 242 241
3 55 245 243
3 57 246 127
3 57 247 246
3 26 248 184
3 58 249 129
3 58 250 249
3 58 251 250
3 381 252 382
3 383 382 131
3 381 382 383
3 385 384 252
3 27 386 387
3 389 388 187
3 45 390 392
3 392 391 220
3 390 391 392
3 30 253 190
3 394 393 136
3 32 395 397
3 397 396 194
3 395 396 397
3 398 256 399
3 400 399 254
3 398 399 400
3 401 257 402
3 403 258 404
3 405 404 257
3 403 404 405
3 60 406 408
3 406 259 407
3 406 407 408
3 60 260 259
3 60 261 260
3 61 262 139
3 61 263 262
3 34 264 198
3 62 265 144
3 62 266 265
3 62 267 266
3 63 268 146
3 63 269 268
3 63 270 269
3 64 271 148
3 64 272 271
3 36 273 202
3 65 274 151
3 65 275 274
3 65 409 411
3 411 410 275
3 409 410 411
3 412 254 413
3 59 276 255
3 66 277 154
3 66 278 277
3 39 279 208
3 67 280 157
3 67 281 280
3 67 282 281
3 68 283 159
3 68 284 283
3 56 285 244
3 69 286 162
3 69 287 286
3 42 288 213
3 70 289 165
3 70 290 289
3 70 291 290
3 71 292 167
3 71 293 292
3 71 294 293
3 72 295 169
3 72 414 416
3 416 415 295
3 414 415 416
3 417 296 418
3 419 418 217
3 417 418 419
3 421 420 19
3 422 73 423
3 424 423 21
3 422 423 424
3 425 73 426
3 427 19 428
3 429 428 73
3 427 428 429
3 430 21 431
3 74 75 23
3 76 75 74
3 76 25 75
3 77 432 433
3 78 434 436
3 436 435 77
3 434 435 436
3 78 437 438
3 78 439 441
3 439 79 440
3 439 440 441
3 74 79 78
3 74 23 79
3 80 81 28
3 82 81 80
3 82 442 444
3 444 443 81
3 442 443 444
3 83 84 29
3 85 84 83
3 85 31 84
3 85 86 31
3 445 86 446
3 447 446 85
3 445 446 447
3 449 448 86
3 87 88 33
3 89 88 87
3 89 35 88
3 89 90 35
3 80 90 89
3 80 28 90
3 91 92 37
3 93 92 91
3 93 450 452
3 452 451 92
3 450 451 452
3 93 453 454
3 94 455 457
3 457 456 93
3 455 456 457
3 94 458 459
3 95 96 38
3 97 96 95
3 97 40 96
3 98 99 41
3 100 99 98
3 100 43 99
3 100 460 462
3 462 461 43
3 460 461 462
3 464 463 100
3 101 102 44
3 103 102 101
3 103 46 102
3 104 105 20
3 106 105 104
3 106 47 105
3 106 107 47
3 108 107 106
3 108 48 107
3 109 110 49
3 111 110 109
3 111 50 110
3 112 113 22
3 114 113 112
3 114 51 113
3 114 115 51
3 101 115 114
3 101 44 115
3 116 465 467
3 465 117 466
3 465 466 467
3 118 117 116
3 118 52 117
3 118 119 52
3 109 119 118
3 109 49 119
3 120 468 469
3 120 470 471
3 121 122 24
3 123 122 121
3 123 53 122
3 123 124 53
3 125 124 123
3 125 54 124
3 126 127 55
3 128 127 126
3 128 57 127
3 472 129 473
3 474 473 26
3 472 473 474
3 130 475 477
3 475 129 476
3 475 476 477
3 130 58 129
3 130 131 58
3 478 131 479
3 480 479 130
3 478 479 480
3 482 481 131
3 132 483 485
3 485 484 27
3 483 484 485
3 487 486 132
3 133 488 490
3 490 489 45
3 488 489 490
3 134 491 493
3 493 492 133
3 491 492 493
3 134 494 495
3 135 136 30
3 496 136 497
3 498 497 135
3 496 497 498
3 500 499 136
3 137 501 503
3 503 502 32
3 501 502 503
3 505 504 137
3 138 506 507
3 138 508 510
3 508 60 509
3 508 509 510
3 138 139 60
3 140 139 138
3 140 61 139
3 141 511 512
3 142 513 515
3 515 514 141
3 513 514 515
3 142 516 517
3 143 144 34
3 145 144 143
3 145 62 144
3 145 146 62
3 147 146 145
3 147 63 146
3 147 148 63
3 149 148 147
3 149 64 148
3 150 151 36
3 152 151 150
3 152 65 151
3 152 518 520
3 520 519 65
3 518 519 520
3 522 521 152
3 153 154 59
3 155 154 153
3 155 66 154
3 156 157 39
3 158 157 156
3 158 67 157
3 158 159 67
3 160 159 158
3 160 68 159
3 161 162 56
3 163 162 161
3 163 69 162
3 164 165 42
3 166 165 164
3 166 70 165
3 166 167 70
3 168 167 166
3 168 71 167
3 168 169 71
3 170 169 168
3 170 72 169
3 171 172 5
3 173 172 171
3 173 20 172
3 523 173 524
3 525 524 19
3 523 524 525
3 526 173 527
3 528 20 529
3 530 529 173
3 528 529 530
3 531 104 532
3 533 532 20
3 531 532 533
3 534 104 535
3 537 536 104
3 174 175 7
3 176 175 174
3 176 22 175
3 73 176 21
3 177 176 73
3 177 22 176
3 177 112 22
3 171 112 177
3 171 5 112
3 538 116 539
3 174 540 542
3 540 116 541
3 540 541 542
3 174 7 116
3 178 179 9
3 180 179 178
3 180 24 179
3 75 180 23
3 181 180 75
3 181 24 180
3 181 121 24
3 182 121 181
3 182 10 121
3 183 184 11
3 543 184 544
3 545 544 183
3 543 544 545
3 546 26 547
3 548 547 184
3 546 547 548
3 549 26 550
3 552 551 26
3 553 27 554
3 79 555 556
3 185 557 559
3 559 558 79
3 557 558 559
3 185 560 562
3 560 27 561
3 560 561 562
3 185 132 27
3 178 132 185
3 178 9 132
3 186 187 13
3 188 187 186
3 188 563 565
3 565 564 187
3 563 564 565
3 81 188 28
3 566 188 567
3 568 567 81
3 566 567 568
3 570 569 188
3 189 190 6
3 191 190 189
3 191 30 190
3 84 191 29
3 192 191 84
3 192 30 191
3 192 135 30
3 193 135 192
3 193 14 135
3 193 194 14
3 195 194 193
3 195 32 194
3 86 195 31
3 196 195 86
3 196 32 195
3 196 137 32
3 571 137 572
3 573 572 196
3 571 572 573
3 575 574 137
3 197 198 8
3 199 198 197
3 199 34 198
3 88 199 33
3 200 199 88
3 200 34 199
3 200 143 34
3 201 143 200
3 201 16 143
3 201 202 16
3 203 202 201
3 203 36 202
3 90 203 35
3 204 203 90
3 204 36 203
3 204 150 36
3 186 150 204
3 186 13 150
3 205 576 577
3 206 578 580
3 580 579 205
3 578 579 580
3 206 581 582
3 92 206 37
3 583 206 584
3 585 584 92
3 583 584 585
3 587 586 206
3 207 208 15
3 209 208 207
3 209 39 208
3 96 209 38
3 210 209 96
3 210 39 209
3 210 156 39
3 211 156 210
3 211 17 156
3 212 213 12
3 214 213 212
3 214 42 213
3 99 214 41
3 215 214 99
3 215 42 214
3 215 164 42
3 216 164 215
3 216 18 164
3 216 217 18
3 218 217 216
3 218 588 590
3 590 589 217
3 588 589 590
3 591 218 592
3 593 592 43
3 591 592 593
3 594 218 595
3 597 596 218
3 219 220 1
3 221 220 219
3 221 45 220
3 102 221 44
3 222 221 102
3 222 45 221
3 222 133 45
3 223 133 222
3 223 6 133
3 172 103 5
3 224 103 172
3 224 46 103
3 105 224 20
3 225 224 105
3 225 46 224
3 225 223 46
3 226 223 225
3 226 6 223
3 226 189 6
3 227 189 226
3 227 29 189
3 107 227 47
3 228 227 107
3 228 29 227
3 228 83 29
3 229 83 228
3 229 598 600
3 600 599 83
3 598 599 600
3 110 601 603
3 603 602 49
3 601 602 603
3 230 604 606
3 606 605 110
3 604 605 606
3 230 607 608
3 230 609 611
3 609 141 610
3 609 610 611
3 231 141 230
3 231 8 141
3 175 111 7
3 232 111 175
3 232 50 111
3 113 232 22
3 233 232 113
3 233 50 232
3 233 231 50
3 234 231 233
3 234 8 231
3 234 197 8
3 235 197 234
3 235 33 197
3 115 235 51
3 236 235 115
3 236 33 235
3 236 87 33
3 219 87 236
3 219 1 87
3 117 612 613
3 615 614 117
3 237 616 617
3 237 618 619
3 119 237 52
3 620 237 621
3 622 621 119
3 620 621 622
3 624 623 237
3 179 120 9
3 238 120 179
3 238 625 627
3 627 626 120
3 625 626 627
3 122 238 24
3 239 238 122
3 239 628 630
3 630 629 238
3 628 629 630
3 239 631 632
3 634 633 239
3 635 205 636
3 240 637 639
3 637 205 638
3 637 638 639
3 240 37 205
3 124 240 53
3 241 240 124
3 241 37 240
3 241 91 37
3 242 91 241
3 242 3 91
3 243 244 2
3 245 244 243
3 245 56 244
3 127 245 55
3 246 245 127
3 246 56 245
3 246 161 56
3 247 161 246
3 247 12 161
3 184 128 11
3 248 128 184
3 248 57 128
3 129 248 26
3 249 248 129
3 249 57 248
3 249 247 57
3 250 247 249
3 250 12 247
3 250 212 12
3 251 212 250
3 251 41 212
3 131 251 58
3 252 251 131
3 252 41 251
3 252 98 41
3 640 98 641
3 642 641 252
3 640 641 642
3 643 4 644
3 645 644 98
3 643 644 645
3 647 646 4
3 649 648 27
3 187 650 652
3 652 651 13
3 650 651 652
3 654 653 187
3 220 82 1
3 655 82 656
3 657 656 220
3 655 656 657
3 659 658 82
3 661 660 45
3 190 134 6
3 253 134 190
3 253 662 664
3 664 663 134
3 662 663 664
3 136 253 30
3 665 253 666
3 667 666 136
3 665 666 667
3 669 668 253
3 194 670 672
3 672 671 14
3 670 671 672
3 674 673 194
3 676 675 32
3 254 255 0
3 256 255 254
3 256 59 255
3 677 256 678
3 257 679 681
3 679 256 680
3 679 680 681
3 257 59 256
3 257 153 59
3 258 153 257
3 258 15 153
3 259 682 683
3 259 684 685
3 259 686 688
3 686 258 687
3 686 687 688
3 260 258 259
3 260 15 258
3 260 207 15
3 261 207 260
3 261 38 207
3 139 261 60
3 262 261 139
3 262 38 261
3 262 95 38
3 263 95 262
3 263 2 95
3 198 142 8
3 264 142 198
3 264 689 691
3 691 690 142
3 689 690 691
3 144 264 34
3 265 264 144
3 265 692 694
3 694 693 264
3 692 693 694
3 265 695 696
3 266 697 699
3 699 698 265
3 697 698 699
3 266 700 701
3 266 702 704
3 702 140 703
3 702 703 704
3 267 140 266
3 267 61 140
3 146 267 62
3 268 267 146
3 268 61 267
3 268 263 61
3 269 263 268
3 269 2 263
3 269 243 2
3 270 243 269
3 270 55 243
3 148 270 63
3 271 270 148
3 271 55 270
3 271 126 55
3 272 126 271
3 272 11 126
3 202 149 16
3 273 149 202
3 273 64 149
3 151 273 36
3 274 273 151
3 274 64 273
3 274 272 64
3 275 272 274
3 275 11 272
3 275 183 11
3 705 183 706
3 707 706 275
3 705 706 707
3 709 708 183
3 711 710 65
3 712 77 713
3 254 714 716
3 714 77 715
3 714 715 716
3 254 0 77
3 717 108 718
3 717 718 719
3 720 108 721
3 722 48 723
3 724 723 108
3 722 723 724
3 725 48 726
3 727 229 728
3 729 728 48
3 727 728 729
3 730 229 731
3 733 732 229
3 255 76 0
3 276 76 255
3 276 25 76
3 154 276 59
3 277 276 154
3 277 25 276
3 277 182 25
3 278 182 277
3 278 10 182
3 208 155 15
3 279 155 208
3 279 66 155
3 157 279 39
3 280 279 157
3 280 66 279
3 280 278 66
3 281 278 280
3 281 10 278
3 281 125 10
3 282 125 281
3 282 54 125
3 159 282 67
3 283 282 159
3 283 54 282
3 283 242 54
3 284 242 283
3 284 3 242
3 244 97 2
3 285 97 244
3 285 40 97
3 162 285 56
3 286 285 162
3 286 40 285
3 286 211 40
3 287 211 286
3 287 17 211
3 213 163 12
3 288 163 213
3 288 69 163
3 165 288 42
3 289 288 165
3 289 69 288
3 289 287 69
3 290 287 289
3 290 17 287
3 290 160 17
3 291 160 290
3 291 68 160
3 167 291 70
3 292 291 167
3 292 68 291
3 292 284 68
3 293 284 292
3 293 3 284
3 293 94 3
3 294 94 293
3 294 734 736
3 736 735 94
3 734 735 736
3 169 294 71
3 295 294 169
3 295 737 739
3 739 738 294
3 737 738 739
3 295 740 741
3 743 742 295
3 217 170 18
3 296 170 217
3 296 72 170
3 744 296 745
3 746 296 747
3 748 72 749
3 750 749 296
3 748 749 750
3 752 751 72
3 754 753 4
