ply
format ascii 1.0
element vertex 268
property float x
property float y
property float z
element face 236
property list uchar int vertex_index
end_header
4.524652 45.870422 -51.033966
10.278909 43.411259 -47.006283
14.753637 37.472233 -41.211712
14.112998 37.87606 -36.165794
-0.016295 41.389221 -54.516262
9.624811 41.331745 -51.713696
15.168272 33.333366 -33.039062
3.286331 42.012886 -54.213032
8.445346 47.990509 -45.073193
12.710616 40.868866 -44.33905
7.50898 45.082863 -49.285118
6.429564 42.011696 -53.356174
1.047975 39.422447 -55.68964
15.005258 30.74239 -29.151543
2.878182 46.250477 -51.574654
2.185599 44.054649 -53.053989
3.775328 43.984558 -52.704578
13.597275 39.701786 -40.23275
12.679545 41.495243 -41.716728
13.775928 39.296471 -42.827259
15.719032 33.477089 -35.578976
9.34791 45.623825 -45.851059
7.931114 46.618904 -47.215084
8.950401 44.399063 -48.139172
8.03511 41.830597 -52.555729
7.583994 40.459362 -54.631912
5.906688 40.485771 -55.13279
5.107872 47.787689 -49.309052
13.473065 39.925804 -37.71941
14.408243 37.745361 -38.713966
-1.108314 43.656319 -53.496468
11.314211 41.552402 -48.12801
9.949978 42.393517 -49.420147
11.093491 40.729912 -50.544327
14.265712 35.725758 -32.272511
14.674098 33.170597 -30.636385
15.651365 30.838766 -31.55899
0.551196 43.646591 -53.465019
1.639277 41.785622 -54.41877
2.628823 39.942478 -55.657734
7.8072 50.463821 -44.219887
10.58864 44.338852 -44.620419
11.690456 43.031929 -43.130093
11.587182 42.231335 -45.594341
12.686348 40.303417 -46.844608
14.708333 35.613155 -34.691128
15.190147 35.565742 -37.361382
15.617129 35.519581 -39.741993
7.114876 49.111855 -46.24007
6.618838 47.388573 -48.193325
6.055964 45.597881 -50.203308
8.464456 43.146034 -50.429066
6.974022 43.558678 -51.382603
5.405552 43.828838 -52.142864
4.869245 42.025818 -53.914089
4.238549 40.151749 -55.607819
0.797917 38.18131 -56.274938
1.567961 38.548872 -56.370653
3.701417 46.060449 -51.30431
3.215172 47.321787 -50.801321
4.038407 47.13176 -50.530977
14.858767 37.43784 -42.595411
14.369913 38.349958 -43.403185
14.264782 38.384352 -42.019486
8.152764 39.812123 -55.306486
8.397386 40.366383 -54.268332
7.310562 39.783343 -55.576813
8.152764 39.812123 -55.306486
5.392978 48.823824 -48.376359
4.644398 49.104982 -48.897728
13.793031 38.900932 -36.942602
13.347786 40.207407 -36.517634
13.667753 39.182535 -35.740825
-0.764506 41.116836 -54.518006
-1.310516 42.250386 -54.008108
-0.562304 42.52277 -54.006365
11.845616 40.232282 -49.957434
11.203851 41.141157 -49.336168
11.955976 40.643528 -48.749276
14.4156 33.296307 -29.522305
14.27775 34.501297 -30.280893
15.844123 29.624192 -30.804763
15.328311 30.790578 -30.355266
15.521069 29.576004 -29.60104
16.245155 29.727792 -32.014326
15.844123 29.624192 -30.804763
0.874534 44.898395 -52.814787
0.02587 44.890245 -52.98375
10.671598 44.874265 -43.465599
10.141976 45.549335 -44.151579
15.773134 34.496172 -37.71883
15.45459 34.521416 -36.470179
16.037577 33.451845 -36.827627
15.986625 34.473091 -38.909136
15.403638 35.542662 -38.551687
15.773134 34.496172 -37.71883
4.795062 39.462273 -56.267092
5.072618 40.31876 -55.370305
5.629131 39.629284 -56.029578
3.959853 39.258885 -56.320633
4.795062 39.462273 -56.267092
13.929202 38.078773 -34.958319
13.667753 39.182535 -35.740825
0.296511 39.137769 -55.631475
-0.235625 40.121156 -55.044787
0.51584 40.405834 -55.102951
0.296511 39.137769 -55.631475
0.797917 38.18131 -56.274938
14.738724 30.737808 -28.097336
14.58118 32.082203 -28.779884
15.196091 29.497593 -28.551527
14.738724 30.737808 -28.097336
15.521069 29.576004 -29.60104
15.196091 29.497593 -28.551527
2.431481 47.370604 -51.177159
3.215172 47.321787 -50.801321
2.038028 46.200339 -51.869605
2.431481 47.370604 -51.177159
2.53189 45.152563 -52.314322
1.691736 45.102424 -52.609272
2.038028 46.200339 -51.869605
13.13841 40.598515 -40.974739
12.687127 41.694615 -40.516832
13.145992 40.797886 -39.774843
13.816928 39.140194 -44.130392
13.284273 39.926391 -44.886288
13.243272 40.082668 -43.583154
13.816928 39.140194 -44.130392
14.369913 38.349958 -43.403185
16.002672 32.285376 -34.776457
15.443652 33.405227 -34.309019
15.727292 32.213515 -33.5065
16.380064 32.372808 -36.08016
16.002672 32.285376 -34.776457
16.037577 33.451845 -36.827627
16.380064 32.372808 -36.08016
8.622943 41.052 -53.23024
8.82996 41.581171 -52.134712
9.417794 40.802574 -52.809224
7.809552 41.144979 -53.59382
8.622943 41.052 -53.23024
8.397386 40.366383 -54.268332
6.471909 39.796547 -55.827252
6.745341 40.472566 -54.882351
7.310562 39.783343 -55.576813
5.629131 39.629284 -56.029578
6.471909 39.796547 -55.827252
4.330017 48.090393 -49.66852
4.644398 49.104982 -48.897728
4.816262 46.829055 -50.171509
4.038407 47.13176 -50.530977
4.330017 48.090393 -49.66852
13.039479 41.238722 -37.273508
13.347786 40.207407 -36.517634
13.083887 40.909895 -38.518173
13.039479 41.238722 -37.273508
13.53517 39.813795 -38.97608
13.145992 40.797886 -39.774843
13.083887 40.909895 -38.518173
-1.887822 43.402859 -53.552304
-1.656972 44.840723 -53.108931
-1.887822 43.402859 -53.552304
-1.310516 42.250386 -54.008108
-0.764506 41.116836 -54.518006
-0.235625 40.121156 -55.044787
11.702186 39.963093 -51.266755
11.845616 40.232282 -49.957434
10.939019 40.322611 -51.714329
11.702186 39.963093 -51.266755
10.204679 40.623527 -52.299014
10.359151 41.030828 -51.129012
10.939019 40.322611 -51.714329
9.417794 40.802574 -52.809224
10.204679 40.623527 -52.299014
14.073557 35.778878 -31.098956
13.883634 37.073746 -31.873724
14.469905 34.448177 -31.454448
14.073557 35.778878 -31.098956
14.27775 34.501297 -30.280893
14.839678 31.956494 -29.893964
14.4156 33.296307 -29.522305
14.58118 32.082203 -28.779884
15.968839 30.966215 -32.766464
15.727292 32.213515 -33.5065
15.409819 32.086066 -32.299026
15.968839 30.966215 -32.766464
16.245155 29.727792 -32.014326
-0.803885 44.89511 -52.999474
-1.656972 44.840723 -53.108931
-0.278559 43.651455 -53.480744
-0.803885 44.89511 -52.999474
0.02587 44.890245 -52.98375
1.368397 43.85062 -53.259504
0.874534 44.898395 -52.814787
1.691736 45.102424 -52.609272
2.358385 38.808887 -56.3547
1.567961 38.548872 -56.370653
1.838399 39.682462 -55.673687
8.072314 51.244703 -43.247333
7.443276 51.84152 -43.986194
8.389187 49.845301 -43.584188
8.072314 51.244703 -43.247333
8.70826 48.608644 -44.010841
8.126273 49.227165 -44.64654
8.389187 49.845301 -43.584188
9.070329 47.375164 -44.377966
8.70826 48.608644 -44.010841
9.521611 46.191822 -44.766899
8.896628 46.807167 -45.462126
9.070329 47.375164 -44.377966
9.968275 44.981338 -45.235739
9.521611 46.191822 -44.766899
10.141976 45.549335 -44.151579
12.217433 42.665756 -41.238796
12.687127 41.694615 -40.516832
11.722889 43.434099 -41.945479
12.217433 42.665756 -41.238796
12.185 42.263586 -42.423411
11.222506 44.220804 -42.720437
11.722889 43.434099 -41.945479
11.139548 43.68539 -43.875256
10.671598 44.874265 -43.465599
11.222506 44.220804 -42.720437
12.642044 40.019035 -48.107574
11.955976 40.643528 -48.749276
12.00028 40.927909 -47.486309
13.272139 39.643667 -46.139066
12.698482 40.586141 -45.591829
13.284273 39.926391 -44.886288
13.298686 39.463619 -47.436844
13.272139 39.643667 -46.139066
12.642044 40.019035 -48.107574
13.298686 39.463619 -47.436844
14.00556 37.003622 -33.011677
13.883634 37.073746 -31.873724
14.22687 36.947321 -34.220985
14.00556 37.003622 -33.011677
14.487023 35.669456 -33.48182
14.410666 36.744608 -35.428461
13.929202 38.078773 -34.958319
14.22687 36.947321 -34.220985
16.264284 34.597403 -40.326366
15.986625 34.473091 -38.909136
15.790714 35.579489 -41.097605
16.264284 34.597403 -40.326366
15.358968 36.555815 -41.832465
15.185383 36.495907 -40.476852
15.790714 35.579489 -41.097605
14.858767 37.43784 -42.595411
15.358968 36.555815 -41.832465
7.11297 51.041922 -44.877325
7.443276 51.84152 -43.986194
6.766808 50.365938 -45.887417
7.11297 51.041922 -44.877325
7.461038 49.787838 -45.229979
6.396481 49.485907 -46.841868
6.766808 50.365938 -45.887417
6.148461 48.624266 -47.818495
6.396481 49.485907 -46.841868
6.866857 48.250214 -47.216698
5.863355 47.588131 -48.751188
5.392978 48.823824 -48.376359
6.148461 48.624266 -47.818495
3.15499 39.154249 -56.345591
3.433686 40.047114 -55.632776
3.959853 39.258885 -56.320633
2.358385 38.808887 -56.3547
3.15499 39.154249 -56.345591
3 57 56 12
3 0 58 60
3 58 14 59
3 58 59 60
3 0 16 14
3 2 19 17
3 2 61 63
3 63 62 19
3 61 62 63
3 1 23 21
3 64 25 65
3 67 66 25
3 68 27 69
3 3 70 72
3 70 28 71
3 70 71 72
3 3 29 28
3 4 73 75
3 75 74 30
3 73 74 75
3 76 33 77
3 78 77 31
3 76 77 78
3 79 35 80
3 81 36 82
3 83 82 13
3 81 82 83
3 85 84 36
3 86 37 87
3 7 38 15
3 7 39 38
3 88 41 89
3 9 42 18
3 9 43 42
3 9 44 43
3 6 45 34
3 90 46 91
3 92 91 20
3 90 91 92
3 93 47 94
3 95 94 46
3 93 94 95
3 8 48 40
3 10 49 22
3 10 50 49
3 5 51 32
3 11 52 24
3 11 53 52
3 11 54 53
3 96 55 97
3 98 97 26
3 96 97 98
3 100 99 55
3 101 3 102
3 12 103 105
3 105 104 4
3 103 104 105
3 107 106 12
3 108 13 109
3 110 13 111
3 113 112 13
3 14 114 115
3 14 116 117
3 14 118 120
3 118 15 119
3 118 119 120
3 16 15 14
3 16 7 15
3 17 121 123
3 121 18 122
3 121 122 123
3 19 18 17
3 19 9 18
3 19 124 126
3 126 125 9
3 124 125 126
3 128 127 19
3 129 20 130
3 131 130 6
3 129 130 131
3 132 20 133
3 135 134 20
3 21 22 8
3 23 22 21
3 23 10 22
3 136 24 137
3 138 137 5
3 136 137 138
3 25 139 141
3 139 24 140
3 139 140 141
3 25 11 24
3 25 26 11
3 142 26 143
3 144 143 25
3 142 143 144
3 146 145 26
3 27 147 148
3 27 149 151
3 149 0 150
3 149 150 151
3 28 152 153
3 28 154 155
3 28 156 158
3 156 17 157
3 156 157 158
3 29 17 28
3 29 2 17
3 30 159 160
3 162 161 30
3 164 163 4
3 31 32 1
3 33 32 31
3 33 5 32
3 165 33 166
3 167 33 168
3 169 5 170
3 171 170 33
3 169 170 171
3 173 172 5
3 174 34 175
3 35 176 178
3 176 34 177
3 176 177 178
3 35 6 34
3 13 179 181
3 179 35 180
3 179 180 181
3 36 35 13
3 36 6 35
3 36 182 184
3 184 183 6
3 182 183 184
3 186 185 36
3 187 30 188
3 37 189 191
3 189 30 190
3 189 190 191
3 37 4 30
3 15 192 194
3 192 37 193
3 192 193 194
3 38 37 15
3 38 4 37
3 38 12 4
3 39 12 38
3 39 195 197
3 197 196 12
3 195 196 197
3 198 40 199
3 200 40 201
3 202 8 203
3 204 203 40
3 202 203 204
3 205 8 206
3 207 21 208
3 209 208 8
3 207 208 209
3 41 210 212
3 210 21 211
3 210 211 212
3 41 1 21
3 18 213 214
3 42 215 217
3 217 216 18
3 215 216 217
3 42 218 219
3 42 220 222
3 220 41 221
3 220 221 222
3 43 41 42
3 43 1 41
3 43 31 1
3 44 31 43
3 44 223 225
3 225 224 31
3 223 224 225
3 226 44 227
3 228 227 9
3 226 227 228
3 229 44 230
3 232 231 44
3 34 233 234
3 45 235 237
3 237 236 34
3 235 236 237
3 45 238 240
3 238 3 239
3 238 239 240
3 20 45 6
3 46 45 20
3 46 3 45
3 46 29 3
3 47 29 46
3 47 2 29
3 241 47 242
3 243 47 244
3 245 2 246
3 247 246 47
3 245 246 247
3 249 248 2
3 40 250 251
3 48 252 254
3 254 253 40
3 252 253 254
3 48 255 256
3 22 48 8
3 49 48 22
3 49 257 259
3 259 258 48
3 257 258 259
3 49 260 262
3 260 27 261
3 260 261 262
3 50 27 49
3 50 0 27
3 32 23 1
3 51 23 32
3 51 10 23
3 24 51 5
3 52 51 24
3 52 10 51
3 52 50 10
3 53 50 52
3 53 0 50
3 53 16 0
3 54 16 53
3 54 7 16
3 26 54 11
3 55 54 26
3 55 7 54
3 55 39 7
3 263 39 264
3 265 264 55
3 263 264 265
3 267 266 39
