ply
format ascii 1.0
element vertex 447
property float x
property float y
property float z
element face 510
property list uchar int vertex_index
end_header
2.772925 53.295296 40.94252
17.895477 64.619911 12.352779
6.620765 72.068352 24.347418
15.545517 49.600792 29.705029
-2.797316 65.352928 37.504208
-0.616333 75.333694 28.217207
4.639659 63.473644 33.201981
11.13856 60.794109 27.928234
9.640492 51.981979 36.104591
21.163944 53.710583 13.145351
12.715467 68.488533 19.161516
16.405222 57.49765 21.21616
-0.995671 53.621956 43.1618
-3.645874 59.935993 41.414646
0.043891 59.379417 39.296467
0.977802 64.63871 35.303284
3.585368 58.496078 37.335484
7.248049 57.525135 34.905457
6.282763 52.775482 38.682827
19.483099 59.180523 12.902103
3.064672 73.832497 26.388384
7.73339 75.665054 19.652119
10.884827 73.916153 17.168015
9.907735 70.402336 21.76927
13.288664 55.283989 28.989338
13.818754 59.17453 24.915638
15.866565 53.824894 25.49358
18.331011 52.021599 21.678217
18.074366 48.392963 25.652281
-4.649387 76.607101 30.181841
-1.681242 70.492157 33.056473
1.943679 69.417961 31.088472
5.615512 68.122589 28.789047
8.972822 66.391785 26.423014
7.969782 62.232349 30.847391
10.345449 56.417439 32.306252
12.647458 50.984779 33.203598
23.050562 48.48608 12.924674
11.846977 77.165237 12.562086
13.65187 72.085953 14.476553
15.388117 66.703796 15.835566
11.901978 64.852631 23.516342
14.640801 62.874943 20.349319
17.030182 61.089516 16.930931
18.847372 55.616779 17.283394
20.730972 50.227123 17.38242
0.939901 53.449768 42.046135
-0.363103 56.355904 41.299503
1.328945 56.392353 40.174896
1.814823 59.050095 38.275482
3.173221 55.901985 39.194542
4.986129 55.704956 37.978622
4.620506 53.005905 39.817142
18.662889 61.807434 12.78803
4.916491 72.769989 25.533154
3.683187 75.801208 23.946602
5.414763 74.938408 22.991135
7.174154 73.817123 22.100567
8.816171 73.157921 20.712919
8.319313 71.170967 23.1637
14.377128 52.338749 29.535007
14.651973 54.405891 27.349312
15.72296 51.636135 27.663019
16.948404 50.991817 25.735163
16.830929 48.95187 27.795416
-3.251546 62.785667 39.454231
-4.074984 68.573799 36.176128
-3.595396 71.095634 33.974743
-2.197493 67.973274 35.288067
2.813831 64.114365 34.260818
1.532218 67.017975 33.221889
3.256516 66.541252 32.177532
3.79015 68.804443 29.983435
5.047449 65.884651 31.082947
6.808168 65.169563 29.882969
6.423561 62.848652 32.007828
8.442872 54.737892 35.561707
8.884858 56.978691 33.606014
10.026667 54.071087 34.319233
11.446793 53.790157 32.794846
11.224832 51.502258 34.657021
22.119396 50.978294 13.045856
-2.545314 75.93869 29.189056
10.321774 78.124031 13.78713
11.809834 71.334511 18.1448
12.247072 73.091507 15.875098
13.202243 70.38752 16.723618
14.568734 69.374229 15.192149
14.044523 67.697006 17.528881
9.984353 63.749069 27.213377
10.465732 65.714195 24.971588
11.448722 62.919182 25.77997
15.14249 58.24839 23.187777
14.201027 61.118164 22.612343
15.511042 60.143635 20.872066
15.845042 62.066593 18.630064
16.654057 59.436184 19.072697
17.960876 58.314373 17.111954
17.623932 56.614166 19.284441
19.404268 49.486614 21.46723
19.531454 51.296856 19.429926
20.588539 48.612297 19.327236
21.789268 47.80331 16.99942
-2.771922 54.036572 44.049236
-4.09962 56.99638 43.343479
-2.22358 56.749752 42.273209
-1.826321 59.516697 40.461002
-1.349187 62.263542 38.491196
-0.817108 64.84304 36.464054
0.584199 61.955715 37.343876
2.404748 61.529709 36.296314
4.088666 61.086746 35.288773
5.864047 60.633701 34.092121
5.433973 58.130749 36.117096
6.821411 55.186333 36.79314
8.058584 52.14901 37.539295
20.264006 56.498508 13.118517
1.183114 74.64106 27.347393
9.907187 76.377686 16.145573
9.397507 74.762405 18.423923
10.43482 72.136993 19.465961
11.334292 69.536621 20.459448
12.161753 57.876724 28.707989
12.496318 59.90617 26.566629
13.55574 57.181293 27.015272
14.791891 56.509033 25.329725
16.125931 55.577118 23.445669
17.316078 54.764942 21.565342
17.116594 52.772636 23.771135
18.212313 50.214405 23.635725
-3.162588 73.528503 31.724024
-1.2533 73.014755 30.720366
-0.338419 67.566696 34.238331
0.168724 69.937057 32.093739
0.66948 72.349106 29.762285
2.545964 71.634216 28.779043
4.365752 70.956322 27.675219
6.149832 70.0569 26.629183
7.798764 69.170364 25.543804
7.42448 67.164009 27.641493
8.536771 64.179085 28.712107
9.59185 61.50301 29.469809
7.558249 59.827915 33.026428
9.132602 59.296848 31.68132
10.640636 58.76812 30.187794
11.843157 55.789501 30.786556
13.041798 53.041462 31.122534
14.193273 50.222996 31.49765
0.378345 50.818493 43.741356
2.277631 50.476902 42.741653
4.059948 50.45644 41.592628
11.346951 75.661568 14.814235
12.743223 74.689827 13.593894
14.140377 73.564171 12.293097
15.070229 70.964607 12.928622
15.865228 68.421341 13.538893
16.697044 65.572571 14.126828
9.329759 68.565308 24.153357
10.826189 67.695328 22.803965
12.305777 66.623505 21.403866
12.851006 61.875103 24.38674
13.277419 63.751167 22.126251
13.72681 65.593605 19.827503
15.017192 64.788162 18.085503
16.246204 63.865547 16.379568
17.491898 62.754623 14.634254
18.279747 60.105305 14.956531
19.165285 57.413158 15.049315
20.02894 54.66489 15.205
18.544113 53.824547 19.552589
19.72547 52.919746 17.466169
20.838013 52.100079 15.378165
21.866518 49.571938 15.036122
22.913879 46.960453 14.870406
5.78974 49.952286 40.635483
18.471995 64.108671 11.480733
18.121315 65.440514 11.251162
18.279183 63.213673 12.570404
18.855701 62.702433 11.698358
18.471995 64.108671 11.480733
-3.753777 65.659035 37.95639
-3.980892 64.375404 38.931402
-3.024431 64.069298 38.479219
-3.43615 66.963363 36.840168
-4.392611 67.26947 37.29235
-3.753777 65.659035 37.95639
21.729971 53.208416 12.101018
21.314464 54.564899 12.057941
21.64167 52.344438 13.095603
22.207697 51.842271 12.05127
21.729971 53.208416 12.101018
-1.324728 76.756145 27.465301
-2.289219 77.058643 27.951226
-1.580823 75.636192 28.703131
9.584583 78.528324 14.339053
9.8419 79.288276 13.165324
20.512813 47.747423 20.388442
19.996403 49.049456 20.397233
19.920677 48.184582 21.458439
21.129227 47.314734 19.249056
20.512813 47.747423 20.388442
20.074134 58.596954 11.931124
19.667462 59.989933 11.866986
19.873552 57.839516 13.01031
20.464588 57.255947 12.039331
20.074134 58.596954 11.931124
2.418899 75.261235 25.650312
1.47812 75.665516 26.129817
2.123893 74.236778 26.867888
3.076481 77.189788 23.157204
4.028479 76.713752 22.68678
7.187965 77.022583 18.905175
6.932231 76.17635 20.068115
8.001769 76.487885 18.49072
7.187965 77.022583 18.905175
8.565448 75.213729 19.038021
8.833828 76.03656 17.876622
8.001769 76.487885 18.49072
18.675651 48.005518 24.623027
18.744625 48.916239 23.614749
18.14334 49.303684 24.644003
-4.557402 59.926771 42.021179
-4.784275 58.456964 42.985596
-3.872747 58.466187 42.379063
1.067432 49.28528 44.066843
0.180638 49.280016 44.594149
2.017075 49.114485 43.566992
1.327988 50.647697 43.241505
1.067432 49.28528 44.066843
2.948513 49.052332 43.025368
2.017075 49.114485 43.566992
23.666913 47.97373 11.747225
23.177594 49.235912 11.850051
23.594738 47.255381 12.729594
23.666913 47.97373 11.747225
-5.384858 78.131458 29.320122
-5.590303 76.869216 30.635454
12.013806 77.951011 11.475421
11.363955 78.328254 12.044092
12.519453 76.675376 11.98207
12.013806 77.951011 11.475421
22.866782 46.144241 15.875352
22.351574 47.381882 15.934913
22.304476 46.56567 16.93986
23.464893 45.739481 14.722838
22.866782 46.144241 15.875352
5.573338 48.709319 41.438225
4.924844 50.204363 41.114055
4.708442 48.961396 41.916798
19.257357 61.303388 11.809949
18.855701 62.702433 11.698358
19.072994 60.493978 12.845066
19.667462 59.989933 11.866986
19.257357 61.303388 11.809949
4.894267 76.282353 22.209046
4.028479 76.713752 22.68678
4.548975 75.369808 23.468868
5.772917 75.813027 21.737623
4.894267 76.282353 22.209046
6.652613 75.252384 21.29234
5.772917 75.813027 21.737623
6.294458 74.377765 22.545851
7.453772 74.741088 20.876343
6.932231 76.17635 20.068115
6.652613 75.252384 21.29234
-4.102087 62.854352 39.98275
-4.299251 61.429516 40.962958
-3.44871 61.36083 40.434438
-4.102087 62.854352 39.98275
-3.980892 64.375404 38.931402
-5.074528 68.72068 36.762863
-4.392611 67.26947 37.29235
-4.829033 69.986538 35.658294
-5.074528 68.72068 36.762863
-3.83519 69.834716 35.075435
-4.589239 71.247456 34.557602
-4.829033 69.986538 35.658294
22.712011 50.482019 11.910642
22.207697 51.842271 12.05127
22.584979 49.732187 12.985265
23.177594 49.235912 11.850051
22.712011 50.482019 11.910642
-3.335182 77.391449 28.453681
-4.387218 77.725654 28.950073
-3.597351 76.272896 29.685448
-3.335182 77.391449 28.453681
-2.289219 77.058643 27.951226
10.601354 78.807651 12.656613
9.8419 79.288276 13.165324
11.084376 77.644634 13.174608
11.363955 78.328254 12.044092
10.601354 78.807651 12.656613
21.729591 46.91024 18.085148
21.188904 48.207803 18.163328
21.129227 47.314734 19.249056
22.304476 46.56567 16.93986
21.729591 46.91024 18.085148
-3.435771 55.516476 43.696358
-4.346787 55.491812 44.286064
-3.682937 54.011908 44.638942
20.864495 55.958862 12.044524
20.464588 57.255947 12.039331
20.713975 55.104546 13.131934
21.314464 54.564899 12.057941
20.864495 55.958862 12.044524
0.55011 76.105748 26.520488
-0.349614 76.452065 26.955396
0.28339 74.987377 27.7823
0.55011 76.105748 26.520488
1.47812 75.665516 26.129817
2.728156 76.24559 24.429422
2.418899 75.261235 25.650312
3.37393 74.816853 25.167493
2.728156 76.24559 24.429422
3.076481 77.189788 23.157204
9.088668 76.8442 16.737447
9.377289 77.655151 15.518275
9.652347 75.570045 17.284748
9.088668 76.8442 16.737447
8.833828 76.03656 17.876622
19.340602 48.552344 22.530501
18.80829 49.85051 22.551478
18.744625 48.916239 23.614749
19.920677 48.184582 21.458439
19.340602 48.552344 22.530501
17.479297 66.019356 12.149501
18.121315 65.440514 11.251162
-5.072026 57.046311 43.953873
-4.346787 55.491812 44.286064
-5.072026 57.046311 43.953873
-4.784275 58.456964 42.985596
-4.557402 59.926771 42.021179
-4.299251 61.429516 40.962958
-4.869687 75.294262 31.464768
-5.590303 76.869216 30.635454
-4.342692 72.538528 33.361219
-4.589239 71.247456 34.557602
-4.126288 73.754963 32.23586
-4.342692 72.538528 33.361219
-3.378992 72.312069 32.849384
-3.905988 75.067802 30.952932
-4.869687 75.294262 31.464768
-4.126288 73.754963 32.23586
-3.030509 52.490618 44.977562
-3.682937 54.011908 44.638942
-2.08651 52.382622 44.453672
-3.030509 52.490618 44.977562
-1.198384 52.175314 44.009954
-1.883796 53.829264 43.605518
-2.08651 52.382622 44.453672
-0.511376 50.773583 44.299733
0.180638 49.280016 44.594149
-0.308663 52.220225 43.451578
-1.198384 52.175314 44.009954
-0.511376 50.773583 44.299733
3.839672 49.042101 42.450855
3.168789 50.466671 42.167141
2.948513 49.052332 43.025368
4.708442 48.961396 41.916798
3.839672 49.042101 42.450855
-5.384858 78.131458 29.320122
-4.387218 77.725654 28.950073
-1.324728 76.756145 27.465301
-0.349614 76.452065 26.955396
10.11448 77.250858 14.966351
9.584583 78.528324 14.339053
9.377289 77.655151 15.518275
12.967576 75.437671 12.497974
12.519453 76.675376 11.98207
12.2951 75.927532 13.07799
13.666153 74.874843 11.847575
12.967576 75.437671 12.497974
13.4418 74.126999 12.943496
14.293092 74.495743 11.131038
13.666153 74.874843 11.847575
14.787064 73.180382 11.460483
14.293092 74.495743 11.131038
15.25199 71.8806 11.778246
14.787064 73.180382 11.460483
14.605303 72.264389 12.61086
15.720682 70.513301 12.06301
15.25199 71.8806 11.778246
16.118182 69.241669 12.368146
15.720682 70.513301 12.06301
15.467728 69.692974 13.233757
16.464172 67.920071 12.742558
16.118182 69.241669 12.368146
16.88008 66.495686 13.036525
16.464172 67.920071 12.742558
16.281136 66.996956 13.83286
17.296261 65.096241 13.239804
17.479297 66.019356 12.149501
16.88008 66.495686 13.036525
23.526397 46.492567 13.70246
23.594738 47.255381 12.729594
22.982221 47.723267 13.89754
23.526397 46.492567 13.70246
23.464893 45.739481 14.722838
6.453133 48.60042 40.851509
5.573338 48.709319 41.438225
6.672178 49.887833 39.979765
6.453133 48.60042 40.851509
6.91869 51.299431 39.003437
6.036252 51.363884 39.659155
6.672178 49.887833 39.979765
7.8066 50.986195 38.431671
7.170673 52.462246 38.111061
6.91869 51.299431 39.003437
8.682317 50.849384 37.730683
7.8066 50.986195 38.431671
9.473271 50.765869 37.01333
8.849538 52.065494 36.821943
8.682317 50.849384 37.730683
10.258365 50.568281 36.334601
9.473271 50.765869 37.01333
11.050535 50.328421 35.610816
10.432662 51.742119 35.380806
10.258365 50.568281 36.334601
11.827058 50.069789 34.876352
11.050535 50.328421 35.610816
12.538371 49.81105 34.149641
11.936145 51.243519 33.930309
11.827058 50.069789 34.876352
13.301437 49.555803 33.302546
12.538371 49.81105 34.149641
14.074344 49.174912 32.449572
13.420365 50.603887 32.350624
13.301437 49.555803 33.302546
14.751109 48.87476 31.625902
14.074344 49.174912 32.449572
15.427231 48.563658 30.729591
14.869395 49.911894 30.60134
14.751109 48.87476 31.625902
16.073222 48.292812 29.80873
15.427231 48.563658 30.729591
16.715928 47.968351 28.853924
16.188223 49.276331 28.750222
16.073222 48.292812 29.80873
17.356891 47.71929 27.795473
16.715928 47.968351 28.853924
17.97861 47.439836 26.723906
17.452648 48.672416 26.723848
17.356891 47.71929 27.795473
18.628925 47.034359 25.663166
17.97861 47.439836 26.723906
18.675651 48.005518 24.623027
18.628925 47.034359 25.663166
3 0 48 46
3 0 50 48
3 0 52 50
3 1 175 176
3 1 177 179
3 177 53 178
3 177 178 179
3 2 56 54
3 2 57 56
3 2 59 57
3 3 62 60
3 3 64 62
3 4 180 182
3 182 181 65
3 180 181 182
3 4 183 185
3 183 66 184
3 183 184 185
3 4 68 66
3 6 71 69
3 6 73 71
3 6 75 73
3 8 78 76
3 8 80 78
3 9 186 187
3 9 188 190
3 188 81 189
3 188 189 190
3 5 191 193
3 193 192 82
3 191 192 193
3 194 83 195
3 10 86 84
3 10 88 86
3 7 91 89
3 11 94 92
3 11 96 94
3 11 98 96
3 196 101 197
3 198 197 99
3 196 197 198
3 200 199 101
3 12 105 103
3 14 106 47
3 14 107 106
3 14 109 107
3 16 110 49
3 16 111 110
3 16 113 111
3 18 114 51
3 18 115 114
3 19 201 202
3 19 203 205
3 203 116 204
3 203 204 205
3 20 206 208
3 208 207 117
3 206 207 208
3 210 209 55
3 21 211 212
3 21 213 214
3 21 215 217
3 215 119 216
3 215 216 217
3 23 120 58
3 23 121 120
3 24 124 122
3 26 125 61
3 26 126 125
3 26 128 126
3 28 129 63
3 28 218 220
3 220 219 129
3 218 219 220
3 13 221 223
3 223 222 104
3 221 222 223
3 30 130 67
3 30 131 130
3 15 132 108
3 31 133 70
3 31 134 133
3 31 135 134
3 32 136 72
3 32 137 136
3 32 139 137
3 34 140 74
3 34 141 140
3 17 142 112
3 35 143 77
3 35 144 143
3 35 145 144
3 36 146 79
3 36 147 146
3 224 148 225
3 226 149 227
3 228 227 148
3 226 227 228
3 230 229 149
3 37 231 232
3 37 233 234
3 29 235 236
3 38 237 238
3 38 239 240
3 22 151 118
3 39 152 85
3 39 153 152
3 39 154 153
3 40 155 87
3 40 156 155
3 33 157 138
3 41 158 90
3 41 159 158
3 25 160 123
3 42 161 93
3 42 162 161
3 42 163 162
3 43 164 95
3 43 165 164
3 43 166 165
3 44 167 97
3 44 168 167
3 27 169 127
3 45 170 100
3 45 171 170
3 45 172 171
3 241 173 242
3 243 242 102
3 241 242 243
3 245 244 173
3 246 174 247
3 248 247 150
3 246 247 248
3 46 47 12
3 48 47 46
3 48 14 47
3 48 49 14
3 50 49 48
3 50 16 49
3 50 51 16
3 52 51 50
3 52 18 51
3 53 249 250
3 53 251 253
3 251 19 252
3 251 252 253
3 54 55 20
3 56 55 54
3 56 254 256
3 256 255 55
3 254 255 256
3 56 257 258
3 57 259 261
3 261 260 56
3 259 260 261
3 57 262 264
3 262 21 263
3 262 263 264
3 57 58 21
3 59 58 57
3 59 23 58
3 60 61 24
3 62 61 60
3 62 26 61
3 62 63 26
3 64 63 62
3 64 28 63
3 65 265 267
3 267 266 13
3 265 266 267
3 269 268 65
3 66 270 271
3 66 272 273
3 66 274 276
3 274 67 275
3 274 275 276
3 68 67 66
3 68 30 67
3 69 70 15
3 71 70 69
3 71 31 70
3 71 72 31
3 73 72 71
3 73 32 72
3 73 74 32
3 75 74 73
3 75 34 74
3 76 77 17
3 78 77 76
3 78 35 77
3 78 79 35
3 80 79 78
3 80 36 79
3 81 277 278
3 81 279 281
3 279 37 280
3 279 280 281
3 82 282 284
3 284 283 29
3 282 283 284
3 286 285 82
3 83 287 288
3 83 289 291
3 289 38 290
3 289 290 291
3 84 85 22
3 86 85 84
3 86 39 85
3 86 87 39
3 88 87 86
3 88 40 87
3 89 90 33
3 91 90 89
3 91 41 90
3 92 93 25
3 94 93 92
3 94 42 93
3 94 95 42
3 96 95 94
3 96 43 95
3 96 97 43
3 98 97 96
3 98 44 97
3 99 100 27
3 101 100 99
3 101 45 100
3 101 102 45
3 292 102 293
3 294 293 101
3 292 293 294
3 296 295 102
3 103 297 299
3 297 104 298
3 297 298 299
3 105 104 103
3 105 13 104
3 47 105 12
3 106 105 47
3 106 13 105
3 106 65 13
3 107 65 106
3 107 4 65
3 107 108 4
3 109 108 107
3 109 15 108
3 49 109 14
3 110 109 49
3 110 15 109
3 110 69 15
3 111 69 110
3 111 6 69
3 111 112 6
3 113 112 111
3 113 17 112
3 51 113 16
3 114 113 51
3 114 17 113
3 114 76 17
3 115 76 114
3 115 8 76
3 116 300 301
3 116 302 304
3 302 9 303
3 302 303 304
3 117 305 307
3 307 306 5
3 305 306 307
3 309 308 117
3 55 310 312
3 312 311 20
3 310 311 312
3 314 313 55
3 315 118 316
3 119 317 319
3 317 118 318
3 317 318 319
3 119 22 118
3 58 119 21
3 120 119 58
3 120 22 119
3 120 84 22
3 121 84 120
3 121 10 84
3 122 123 7
3 124 123 122
3 124 25 123
3 61 124 24
3 125 124 61
3 125 25 124
3 125 92 25
3 126 92 125
3 126 11 92
3 126 127 11
3 128 127 126
3 128 27 127
3 63 128 26
3 129 128 63
3 129 27 128
3 129 99 27
3 320 99 321
3 322 321 129
3 320 321 322
3 324 323 99
3 325 1 326
3 104 327 328
3 330 329 104
3 332 331 13
3 333 29 334
3 67 335 336
3 130 337 339
3 339 338 67
3 337 338 339
3 130 340 342
3 340 29 341
3 340 341 342
3 130 82 29
3 131 82 130
3 131 5 82
3 108 68 4
3 132 68 108
3 132 30 68
3 70 132 15
3 133 132 70
3 133 30 132
3 133 131 30
3 134 131 133
3 134 5 131
3 134 117 5
3 135 117 134
3 135 20 117
3 72 135 31
3 136 135 72
3 136 20 135
3 136 54 20
3 137 54 136
3 137 2 54
3 137 138 2
3 139 138 137
3 139 33 138
3 74 139 32
3 140 139 74
3 140 33 139
3 140 89 33
3 141 89 140
3 141 7 89
3 112 75 6
3 142 75 112
3 142 34 75
3 77 142 17
3 143 142 77
3 143 34 142
3 143 141 34
3 144 141 143
3 144 7 141
3 144 122 7
3 145 122 144
3 145 24 122
3 79 145 35
3 146 145 79
3 146 24 145
3 146 60 24
3 147 60 146
3 147 3 60
3 343 103 344
3 345 103 346
3 347 12 348
3 349 348 103
3 347 348 349
3 148 350 351
3 148 352 354
3 352 12 353
3 352 353 354
3 148 46 12
3 149 46 148
3 149 0 46
3 149 150 0
3 355 150 356
3 357 356 149
3 355 356 357
3 359 358 150
3 361 360 29
3 363 362 5
3 118 364 366
3 364 83 365
3 364 365 366
3 151 83 118
3 151 38 83
3 85 151 22
3 152 151 85
3 152 38 151
3 152 367 369
3 369 368 38
3 367 368 369
3 153 370 372
3 372 371 152
3 370 371 372
3 153 373 374
3 153 375 376
3 154 377 379
3 379 378 153
3 377 378 379
3 154 380 381
3 87 154 39
3 155 154 87
3 155 382 384
3 384 383 154
3 382 383 384
3 155 385 386
3 156 387 389
3 389 388 155
3 387 388 389
3 156 390 392
3 390 1 391
3 390 391 392
3 138 59 2
3 157 59 138
3 157 23 59
3 90 157 33
3 158 157 90
3 158 23 157
3 158 121 23
3 159 121 158
3 159 10 121
3 123 91 7
3 160 91 123
3 160 41 91
3 93 160 25
3 161 160 93
3 161 41 160
3 161 159 41
3 162 159 161
3 162 10 159
3 162 88 10
3 163 88 162
3 163 40 88
3 95 163 42
3 164 163 95
3 164 40 163
3 164 156 40
3 165 156 164
3 165 1 156
3 165 53 1
3 166 53 165
3 166 19 53
3 97 166 43
3 167 166 97
3 167 19 166
3 167 116 19
3 168 116 167
3 168 9 116
3 127 98 11
3 169 98 127
3 169 44 98
3 100 169 27
3 170 169 100
3 170 44 169
3 170 168 44
3 171 168 170
3 171 9 168
3 171 81 9
3 172 81 171
3 172 37 81
3 102 172 45
3 173 172 102
3 173 37 172
3 173 393 395
3 395 394 37
3 393 394 395
3 397 396 173
3 150 52 0
3 174 52 150
3 174 18 52
3 398 174 399
3 400 174 401
3 402 18 403
3 404 403 174
3 402 403 404
3 405 115 406
3 407 406 18
3 405 406 407
3 408 115 409
3 410 8 411
3 412 411 115
3 410 411 412
3 413 8 414
3 415 80 416
3 417 416 8
3 415 416 417
3 418 80 419
3 420 36 421
3 422 421 80
3 420 421 422
3 423 36 424
3 425 147 426
3 427 426 36
3 425 426 427
3 428 147 429
3 430 3 431
3 432 431 147
3 430 431 432
3 433 3 434
3 435 64 436
3 437 436 3
3 435 436 437
3 438 64 439
3 440 28 441
3 442 441 64
3 440 441 442
3 443 28 444
3 446 445 28
