ply
format ascii 1.0
element vertex 548
property float x
property float y
property float z
element face 600
property list uchar int vertex_index
end_header
6.100946 -75.283157 -43.880764
18.294693 -79.099602 -34.138062
-2.884538 -57.549728 -44.318584
-10.660212 -48.886456 -38.201885
-10.898592 -61.805645 -38.74511
-4.579156 -45.625961 -44.407036
12.78373 -78.711784 -40.601032
23.351063 -66.266602 -40.207859
17.538254 -63.814774 -45.53101
11.57533 -58.518627 -48.21051
-9.450857 -73.842491 -39.524006
0.713821 -67.793343 -44.556896
-7.791169 -47.397781 -41.401192
9.357569 -77.631927 -42.586498
15.070443 -71.774887 -43.054119
12.07366 -69.544136 -44.953602
14.557706 -61.259823 -47.250092
8.918941 -67.015022 -46.026371
-7.038153 -59.72694 -41.725544
-10.48 -67.909874 -39.049583
-6.058072 -65.70858 -41.930836
-4.316864 -71.051247 -42.32341
-1.217598 -62.793388 -44.502861
3.956108 -58.907135 -46.86668
1.827839 -54.057178 -46.934647
-13.646776 -55.960278 -35.294994
-14.111869 -62.310497 -35.530373
-10.865894 -55.092682 -38.526669
-7.708489 -53.701511 -41.493649
-3.911883 -51.66251 -44.358181
0.247922 -48.342819 -47.145363
15.724746 -79.268028 -37.808018
20.89072 -72.819649 -37.405621
18.223669 -72.564224 -40.608006
20.662912 -65.208527 -43.268372
19.818455 -55.50359 -48.069241
15.772902 -84.417488 -30.613451
10.871836 -90.258865 -31.135477
13.322678 -85.230133 -34.579205
3.606487 -82.558197 -41.735592
0.3017 -79.968269 -42.357159
-14.207091 -68.971558 -35.942856
-13.712633 -75.351883 -36.547565
-12.593347 -81.036415 -37.18689
-2.482189 -76.163712 -42.414017
3.291743 -71.915138 -44.489082
6.355738 -63.151051 -46.654583
9.086836 -54.36895 -48.939476
25.675638 -66.314034 -36.640617
7.825049 -76.527367 -43.333401
10.56821 -73.654907 -43.818645
9.038397 -72.532494 -44.469589
10.450859 -68.557266 -45.524544
7.514924 -71.139153 -44.974503
-4.952558 -58.433407 -43.106968
-6.567098 -62.842327 -41.830254
-4.338158 -61.447243 -43.186855
-3.738294 -64.447723 -43.215878
-1.985681 -60.041 -44.487419
0.281168 -58.451004 -45.666817
-0.543482 -55.513336 -45.700871
20.720789 -75.858078 -33.741543
-12.212186 -52.471405 -36.671833
-12.287104 -55.396145 -36.939537
-10.743895 -51.842186 -38.40757
-6.277355 -46.531689 -42.886848
-7.81196 -50.458946 -41.431019
-6.174724 -49.634254 -42.884407
-5.872509 -52.672245 -42.954582
-4.352693 -48.686481 -44.341534
-2.356387 -47.093464 -45.8587
-2.776134 -44.15942 -45.93425
14.104653 -79.459236 -39.193298
16.965193 -76.102577 -39.1703
15.561638 -75.856743 -40.522499
16.277065 -67.905556 -44.289001
17.833305 -68.504852 -43.249786
19.188473 -64.567314 -44.462936
21.752913 -61.467236 -44.564247
20.308739 -60.582439 -45.759605
21.207172 -56.640972 -47.092377
18.651875 -59.67635 -46.809402
13.107967 -59.764748 -47.85656
15.721155 -56.883976 -48.479774
14.286835 -55.33313 -49.066299
12.794396 -53.827404 -49.474178
14.468409 -86.810509 -28.714935
12.129522 -87.799576 -32.93549
11.803939 -85.410103 -36.327053
5.044264 -83.893776 -41.000378
-12.57311 -62.12352 -37.176888
-14.073483 -65.492851 -35.855618
-12.482464 -65.465096 -37.4123
-9.975579 -70.915695 -39.321178
-12.150687 -71.692177 -37.772743
-11.570338 -74.66349 -38.146584
-13.214932 -78.23436 -36.884254
-11.003132 -77.717873 -38.388958
-8.51925 -76.390923 -39.88578
-1.767084 -69.530838 -43.500706
-3.341725 -73.530006 -42.455215
-0.726491 -71.994148 -43.539921
0.462739 -74.060356 -43.546906
1.858765 -69.923691 -44.553291
4.643038 -67.717415 -45.502201
3.480265 -65.586159 -45.637703
5.346334 -54.23542 -48.111568
6.537027 -56.510445 -47.976276
2.568639 -46.480339 -48.576138
22.131191 -69.608421 -38.824654
23.457764 -69.416603 -37.023201
24.700874 -66.093849 -38.592308
-9.248404 -48.113167 -39.834526
11.077769 -78.214661 -41.728046
13.952519 -75.369492 -41.808002
12.319004 -74.536743 -42.935032
13.432566 -70.904671 -44.077538
14.756147 -67.011429 -45.197376
16.07761 -62.680134 -46.445267
13.234561 -65.571053 -46.069195
11.658593 -64.270844 -46.667229
10.219929 -62.859901 -47.082733
-8.953876 -60.792675 -40.333176
-10.671221 -64.756172 -38.942528
-8.627194 -63.77634 -40.466354
-8.433457 -67.033607 -40.459522
-7.640601 -69.857513 -40.786942
-6.866558 -72.703033 -41.002407
-5.288561 -68.683594 -42.095444
-2.73891 -67.025787 -43.398121
-0.212936 -65.21833 -44.587593
2.329852 -63.322826 -45.686634
1.329421 -60.747746 -45.742386
2.913883 -56.455856 -46.951649
4.288744 -51.982033 -48.205414
-15.145644 -59.127144 -33.76886
-15.379721 -62.259693 -33.958847
-13.839079 -58.964676 -35.468739
-12.401284 -58.601009 -37.116325
-10.959164 -58.574551 -38.6105
-9.333726 -51.29047 -39.937172
-9.3461 -54.693581 -40.041553
-9.319484 -57.93121 -40.090019
-7.503763 -56.722126 -41.554264
-5.520941 -55.718002 -42.979004
-3.252798 -54.292408 -44.473579
-1.245034 -52.795891 -45.727772
-1.860472 -49.915653 -45.785557
-0.379221 -45.598507 -47.266052
17.074371 -79.283714 -36.062885
19.596809 -76.135895 -35.698902
18.401325 -76.066238 -37.588867
19.596748 -72.76506 -39.125645
20.896448 -69.208794 -40.546619
16.507362 -72.452957 -41.924126
19.383648 -68.94989 -42.006378
22.121918 -65.613342 -41.906467
23.15094 -61.921021 -43.360939
17.203476 -58.245487 -47.758862
18.349556 -54.115433 -48.961815
-14.754063 -55.711182 -33.705235
-13.321709 -52.480186 -35.183395
-11.812364 -49.03389 -36.709999
17.057547 -81.844757 -32.392143
12.091396 -89.700005 -29.071993
13.408051 -87.339493 -30.926413
14.644856 -84.907761 -32.638752
15.774158 -82.30912 -34.406845
14.483971 -82.356888 -36.290154
12.903685 -82.582596 -37.805027
11.377005 -82.268143 -39.248398
9.775888 -81.722946 -40.488293
8.013296 -81.259827 -41.411434
6.502487 -80.271851 -42.19986
4.861599 -78.962578 -42.846264
1.809579 -81.559692 -42.088547
3.09022 -77.789627 -43.170517
-15.57011 -65.808731 -34.196873
-12.503695 -68.695885 -37.471157
-14.117677 -72.37484 -36.164967
-15.713305 -75.570984 -34.790451
-15.413129 -78.752327 -35.115692
-14.735068 -81.560982 -35.619049
-5.963199 -75.064865 -41.228783
-1.057669 -78.030159 -42.496735
1.907869 -75.723915 -43.51627
4.644066 -73.825943 -44.235687
6.029855 -69.629295 -45.288635
7.349791 -65.45446 -46.315037
8.904506 -60.930973 -47.459866
5.006652 -61.259529 -46.732525
7.638885 -58.757885 -47.749413
10.28518 -56.344437 -48.65358
1.061433 -51.084671 -47.081593
3.364985 -49.24321 -48.377678
21.942652 -72.878937 -35.506855
19.507741 -77.47884 -33.939802
20.080554 -77.248184 -32.895477
18.867506 -78.868946 -33.093737
13.828332 -87.874909 -27.786876
15.0135 -86.330536 -27.666638
6.585159 -53.245824 -48.632711
6.065169 -52.031505 -48.763343
-0.644864 -44.211468 -47.328901
-1.367804 -46.345985 -46.562376
-1.633447 -44.958946 -46.625225
0.328808 -43.360106 -48.071037
-0.644864 -44.211468 -47.328901
23.024817 -59.758654 -44.642786
22.320971 -59.483265 -45.223183
21.080592 -53.922196 -48.263784
21.77495 -54.490887 -47.775352
20.512814 -56.072281 -47.580809
20.303776 -53.322535 -48.765324
21.080592 -53.922196 -48.263784
17.570782 -53.345559 -49.343052
17.035356 -55.499704 -48.720794
16.256582 -54.72983 -49.102031
18.830669 -52.05027 -49.59536
17.570782 -53.345559 -49.343052
-15.266478 -55.70742 -32.90285
-15.436577 -57.316149 -32.986907
-13.113824 -50.818609 -35.192112
-13.830909 -52.42045 -34.428447
-12.359151 -49.095461 -35.955414
-12.567037 -50.757038 -35.946697
-13.113824 -50.818609 -35.192112
16.997912 -82.779209 -30.443718
16.305889 -84.01643 -29.631597
16.415225 -83.131123 -31.502797
17.640234 -81.492843 -31.333064
16.997912 -82.779209 -30.443718
10.2575 -91.358074 -30.194045
9.494313 -91.724044 -31.154582
11.481616 -89.979435 -30.103735
10.86728 -91.078644 -29.162303
10.2575 -91.358074 -30.194045
11.517854 -84.017212 -37.813278
12.353812 -83.99635 -37.06604
10.967981 -85.430966 -37.074291
10.754514 -83.859985 -38.534964
12.140345 -82.425369 -38.526713
11.517854 -84.017212 -37.813278
8.337054 -83.179565 -40.302931
9.156068 -83.442966 -39.776797
7.455758 -82.948006 -40.764502
8.894592 -81.491387 -40.949863
8.337054 -83.179565 -40.302931
1.05564 -80.763981 -42.222853
0.256672 -82.620956 -41.656904
-0.497267 -81.825244 -41.791211
-14.971246 -69.042519 -35.148936
-14.904442 -67.303166 -35.105317
-14.140287 -67.232204 -35.899237
-14.97478 -70.671872 -35.274641
-14.971246 -69.042519 -35.148936
-13.391369 -82.630417 -36.525492
-14.46223 -82.8927 -35.741571
-13.664207 -81.298699 -36.402969
-12.275651 -82.368565 -37.276213
-13.391369 -82.630417 -36.525492
-3.797516 -76.868935 -41.863947
-4.227284 -75.552082 -41.884546
-2.911957 -74.846859 -42.434616
-3.264678 -78.096153 -41.88122
-3.797516 -76.868935 -41.863947
-1.769929 -77.096936 -42.455376
-2.552418 -79.029377 -41.922579
-3.264678 -78.096153 -41.88122
10.325311 -53.095138 -49.41709
10.924484 -54.082882 -49.274141
9.686008 -55.356693 -48.796528
4.059038 -46.991415 -49.108869
2.966812 -47.861774 -48.476908
3.660865 -45.60998 -49.2081
4.527774 -48.253958 -49.004537
4.059038 -46.991415 -49.108869
25.00448 -67.945412 -35.824179
23.895543 -69.496696 -36.01547
24.566701 -67.865319 -36.831909
26.093979 -66.308781 -35.651727
25.00448 -67.945412 -35.824179
21.208968 -75.601448 -32.799689
20.080554 -77.248184 -32.895477
21.88628 -74.174912 -33.590748
21.208968 -75.601448 -32.799689
-1.843321 -43.491924 -46.663
-1.633447 -44.958946 -46.625225
-2.56626 -45.626442 -45.896475
21.598885 -59.040866 -45.820861
22.320971 -59.483265 -45.223183
21.030826 -61.024838 -45.161926
20.757956 -58.611705 -46.425991
22.048101 -57.070133 -46.487247
21.598885 -59.040866 -45.820861
15.539422 -53.954407 -49.395294
16.256582 -54.72983 -49.102031
15.003995 -56.108553 -48.773037
14.869749 -53.104261 -49.69986
15.539422 -53.954407 -49.395294
14.123529 -52.351399 -49.903799
14.869749 -53.104261 -49.69986
13.540616 -54.580267 -49.270239
13.382271 -51.564377 -50.120302
14.123529 -52.351399 -49.903799
15.653642 -85.212941 -28.682339
15.0135 -86.330536 -27.666638
15.120655 -85.613999 -29.664193
16.305889 -84.01643 -29.631597
15.653642 -85.212941 -28.682339
10.085984 -90.585918 -32.035783
9.494313 -91.724044 -31.154582
10.714827 -89.356274 -32.935789
11.500679 -89.029221 -32.035483
10.085984 -90.585918 -32.035783
11.291443 -88.100437 -33.796059
10.714827 -89.356274 -32.935789
11.888021 -86.815716 -34.617916
12.7261 -86.514854 -33.757348
11.291443 -88.100437 -33.796059
11.128652 -86.905701 -35.49184
12.563308 -85.320118 -35.453129
11.888021 -86.815716 -34.617916
10.421778 -86.874062 -36.285371
11.128652 -86.905701 -35.49184
10.967981 -85.430966 -37.074291
10.421778 -86.874062 -36.285371
4.468047 -85.554856 -40.351501
5.971242 -84.264981 -40.558974
3.633154 -85.035065 -40.738766
4.468047 -85.554856 -40.351501
2.914265 -84.367275 -41.106373
4.325375 -83.225987 -41.367985
3.633154 -85.035065 -40.738766
-1.178454 -80.837581 -41.89189
-0.497267 -81.825244 -41.791211
-10.568096 -78.936264 -38.560461
-11.363204 -80.595535 -37.959427
-11.79824 -79.377144 -37.787924
-9.326155 -78.272789 -39.308872
-10.568096 -78.936264 -38.560461
-9.761191 -77.054398 -39.137369
-8.087815 -77.709049 -39.984535
-9.326155 -78.272789 -39.308872
7.180506 -54.383337 -48.565065
5.941681 -55.372932 -48.043922
6.585159 -53.245824 -48.632711
8.45541 -53.31259 -49.046665
7.811932 -55.439697 -48.457876
7.180506 -54.383337 -48.565065
9.608942 -52.211294 -49.534155
8.45541 -53.31259 -49.046665
2.097799 -45.280144 -48.592484
1.408281 -47.411579 -47.860751
0.93744 -46.211383 -47.877096
3.170443 -44.318329 -49.296816
2.097799 -45.280144 -48.592484
3.660865 -45.60998 -49.2081
3.170443 -44.318329 -49.296816
-9.219545 -46.624012 -39.734331
-9.954308 -48.499811 -39.018205
-9.925448 -47.010656 -38.91801
-8.541291 -46.284117 -40.526024
-9.219545 -46.624012 -39.734331
-7.812673 -45.926424 -41.309357
-8.519787 -47.755474 -40.617859
-8.541291 -46.284117 -40.526024
-7.020583 -45.415313 -42.163605
-7.812673 -45.926424 -41.309357
-6.263676 -44.982267 -42.906433
-7.034262 -46.964735 -42.14402
-7.020583 -45.415313 -42.163605
-5.505769 -44.575175 -43.664057
-6.263676 -44.982267 -42.906433
-4.65667 -44.12231 -44.42415
-5.428256 -46.078825 -43.646942
-5.505769 -44.575175 -43.664057
-3.832511 -43.522041 -45.192829
-4.65667 -44.12231 -44.42415
5.536374 -50.904812 -48.810266
6.065169 -52.031505 -48.763343
4.817539 -53.108727 -48.158491
24.552271 -64.492213 -40.224085
23.915014 -64.389346 -41.0173
-15.262683 -60.693418 -33.863853
-15.977415 -62.353292 -33.126207
-15.860377 -60.787018 -33.031214
0.623868 -44.839227 -47.937441
0.93744 -46.211383 -47.877096
-0.065649 -46.970663 -47.205708
0.623868 -44.839227 -47.937441
0.328808 -43.360106 -48.071037
-2.930999 -42.78877 -45.956436
-3.677645 -44.892691 -45.170643
-3.832511 -43.522041 -45.192829
-2.045033 -42.042541 -46.742885
-2.930999 -42.78877 -45.956436
-1.843321 -43.491924 -46.663
-2.045033 -42.042541 -46.742885
23.300441 -64.062715 -41.866603
23.915014 -64.389346 -41.0173
22.736491 -65.939972 -41.057163
23.814952 -62.216555 -42.59384
23.300441 -64.062715 -41.866603
22.636429 -63.767182 -42.633703
24.407711 -60.296309 -43.318699
23.814952 -62.216555 -42.59384
23.723831 -59.985546 -44.041132
22.451926 -61.694129 -43.962593
23.024817 -59.758654 -44.642786
24.407711 -60.296309 -43.318699
23.723831 -59.985546 -44.041132
22.491242 -55.123678 -47.173748
22.048101 -57.070133 -46.487247
22.491242 -55.123678 -47.173748
21.77495 -54.490887 -47.775352
19.569327 -52.628456 -49.211611
20.303776 -53.322535 -48.765324
19.084005 -54.809511 -48.515528
19.569327 -52.628456 -49.211611
18.830669 -52.05027 -49.59536
-15.632368 -59.02413 -33.018719
-15.860377 -60.787018 -33.031214
-14.949853 -57.419163 -33.737048
-15.632368 -59.02413 -33.018719
-15.436577 -57.316149 -32.986907
-14.547086 -54.035948 -33.689368
-15.266478 -55.70742 -32.90285
-14.037886 -54.095684 -34.444315
-14.547086 -54.035948 -33.689368
-13.830909 -52.42045 -34.428447
-11.670237 -47.468668 -36.662241
-12.359151 -49.095461 -35.955414
-11.124956 -47.395952 -37.399366
-11.670237 -47.468668 -36.662241
-10.548879 -47.322236 -38.145309
-11.236288 -48.960173 -37.455942
-11.124956 -47.395952 -37.399366
-9.925448 -47.010656 -38.91801
-10.548879 -47.322236 -38.145309
18.248933 -80.241523 -32.220777
17.640234 -81.492843 -31.333064
17.67612 -80.47218 -33.265102
18.867506 -78.868946 -33.093737
18.248933 -80.241523 -32.220777
11.455033 -90.745743 -28.068127
10.86728 -91.078644 -29.162303
12.639826 -89.319657 -27.965405
11.455033 -90.745743 -28.068127
13.279902 -88.255257 -28.893464
13.828332 -87.874909 -27.786876
12.639826 -89.319657 -27.965405
9.956627 -83.715565 -39.156849
10.754514 -83.859985 -38.534964
10.576446 -81.995544 -39.868346
9.956627 -83.715565 -39.156849
9.156068 -83.442966 -39.776797
6.52878 -82.576802 -41.205906
7.455758 -82.948006 -40.764502
5.971242 -84.264981 -40.558974
2.033352 -83.797852 -41.351883
2.914265 -84.367275 -41.106373
1.134898 -83.298599 -41.52836
0.256672 -82.620956 -41.656904
2.708033 -82.058944 -41.91207
2.033352 -83.797852 -41.351883
1.134898 -83.298599 -41.52836
-16.095855 -63.976602 -33.250507
-15.977415 -62.353292 -33.126207
-16.191049 -65.751121 -33.36952
-16.095855 -63.976602 -33.250507
-15.474915 -64.034212 -34.07786
-16.34757 -67.363468 -33.405785
-16.191049 -65.751121 -33.36952
-15.652755 -67.461106 -34.275944
-14.821796 -65.650791 -35.026246
-14.904442 -67.303166 -35.105317
-16.34757 -67.363468 -33.405785
-15.652755 -67.461106 -34.275944
-14.930073 -72.373513 -35.385696
-14.97478 -70.671872 -35.274641
-14.162384 -70.673199 -36.053911
-15.727887 -73.971585 -34.698438
-14.930073 -72.373513 -35.385696
-14.915491 -73.972912 -35.477709
-16.483085 -75.572452 -33.978739
-15.727887 -73.971585 -34.698438
-16.43681 -77.259552 -34.112781
-16.483085 -75.572452 -33.978739
-16.286722 -78.850223 -34.275402
-16.43681 -77.259552 -34.112781
-15.563217 -77.161655 -34.953072
-16.090269 -80.265839 -34.485658
-16.286722 -78.850223 -34.275402
-15.751238 -81.670166 -34.737337
-16.090269 -80.265839 -34.485658
-15.074098 -80.156655 -35.36737
-15.506034 -83.061432 -34.911668
-15.751238 -81.670166 -34.737337
-15.506034 -83.061432 -34.911668
-14.46223 -82.8927 -35.741571
-12.275651 -82.368565 -37.276213
-11.363204 -80.595535 -37.959427
-6.809789 -77.04602 -40.656036
-8.087815 -77.709049 -39.984535
-7.241224 -75.727894 -40.557282
-5.538021 -76.319512 -41.27133
-4.652462 -74.297436 -41.841999
-4.227284 -75.552082 -41.884546
-6.809789 -77.04602 -40.656036
-5.538021 -76.319512 -41.27133
-1.858138 -79.868527 -41.961678
-2.552418 -79.029377 -41.922579
-0.377984 -78.999214 -42.426947
-1.178454 -80.837581 -41.89189
-1.858138 -79.868527 -41.961678
12.179092 -52.824365 -49.684441
11.539788 -55.085921 -49.063879
10.924484 -54.082882 -49.274141
13.382271 -51.564377 -50.120302
12.179092 -52.824365 -49.684441
10.325311 -53.095138 -49.41709
9.608942 -52.211294 -49.534155
4.989654 -49.623369 -48.918405
3.826865 -50.612622 -48.291546
4.527774 -48.253958 -49.004537
5.536374 -50.904812 -48.810266
4.989654 -49.623369 -48.918405
22.497211 -72.685341 -34.473404
21.88628 -74.174912 -33.590748
21.33172 -74.368507 -34.624199
23.137987 -71.227863 -35.257297
22.700208 -71.14777 -36.265028
23.895543 -69.496696 -36.01547
22.497211 -72.685341 -34.473404
23.137987 -71.227863 -35.257297
25.227176 -64.405836 -39.416309
24.025968 -66.180226 -39.400084
24.552271 -64.492213 -40.224085
25.787487 -64.543556 -38.456631
25.227176 -64.405836 -39.416309
26.274869 -64.653649 -37.480785
25.188256 -66.203942 -37.616462
25.787487 -64.543556 -38.456631
26.724702 -64.723702 -36.498193
26.274869 -64.653649 -37.480785
26.093979 -66.308781 -35.651727
26.724702 -64.723702 -36.498193
3 0 51 49
3 0 53 51
3 2 56 54
3 2 58 56
3 2 60 58
3 1 196 198
3 196 61 197
3 196 197 198
3 3 64 62
3 5 67 65
3 5 69 67
3 5 71 69
3 6 74 72
3 8 77 75
3 8 79 77
3 8 81 79
3 9 84 82
3 9 85 84
3 199 86 200
3 4 92 90
3 10 95 93
3 10 97 95
3 10 98 97
3 11 101 99
3 11 103 101
3 11 105 103
3 202 201 106
3 7 111 109
3 13 115 113
3 15 116 50
3 15 117 116
3 15 119 117
3 17 120 52
3 17 121 120
3 18 124 122
3 20 125 55
3 20 126 125
3 20 128 126
3 22 129 57
3 22 130 129
3 22 132 130
3 24 133 59
3 24 134 133
3 25 137 135
3 27 138 63
3 27 139 138
3 12 140 112
3 28 141 66
3 28 142 141
3 28 143 142
3 29 144 68
3 29 145 144
3 29 147 145
3 203 148 204
3 205 204 70
3 203 204 205
3 207 206 148
3 31 151 149
3 33 152 73
3 33 153 152
3 14 154 114
3 34 155 76
3 34 156 155
3 34 157 156
3 209 208 78
3 35 210 212
3 212 211 80
3 210 211 212
3 35 213 214
3 16 158 118
3 215 159 216
3 217 216 83
3 215 216 217
3 219 218 159
3 220 160 221
3 222 161 223
3 224 162 225
3 226 225 161
3 224 225 226
3 36 227 228
3 36 229 231
3 229 163 230
3 229 230 231
3 37 232 233
3 37 234 236
3 234 164 235
3 234 235 236
3 37 165 164
3 38 166 87
3 38 167 166
3 38 168 167
3 237 169 238
3 239 238 88
3 237 238 239
3 240 170 241
3 242 241 169
3 240 241 242
3 243 171 244
3 245 172 246
3 247 246 171
3 245 246 247
3 39 173 89
3 39 174 173
3 40 248 250
3 248 175 249
3 248 249 250
3 40 176 175
3 26 177 136
3 41 251 253
3 253 252 91
3 251 252 253
3 41 254 255
3 19 178 123
3 42 179 94
3 42 180 179
3 42 181 180
3 43 182 96
3 43 256 258
3 258 257 182
3 256 257 258
3 43 259 260
3 21 183 127
3 44 261 263
3 263 262 100
3 261 262 263
3 44 264 265
3 44 266 268
3 266 184 267
3 266 267 268
3 45 185 102
3 45 186 185
3 45 187 186
3 46 188 104
3 46 189 188
3 23 190 131
3 47 191 107
3 47 192 191
3 47 269 271
3 271 270 192
3 269 270 271
3 30 193 146
3 272 194 273
3 274 273 108
3 272 273 274
3 276 275 194
3 32 195 150
3 48 277 279
3 279 278 110
3 277 278 279
3 48 280 281
3 49 50 13
3 51 50 49
3 51 15 50
3 51 52 15
3 53 52 51
3 53 17 52
3 54 55 18
3 56 55 54
3 56 20 55
3 56 57 20
3 58 57 56
3 58 22 57
3 58 59 22
3 60 59 58
3 60 24 59
3 61 282 283
3 61 284 285
3 62 63 25
3 64 63 62
3 64 27 63
3 65 66 12
3 67 66 65
3 67 28 66
3 67 68 28
3 69 68 67
3 69 29 68
3 69 70 29
3 71 70 69
3 71 286 288
3 288 287 70
3 286 287 288
3 72 73 31
3 74 73 72
3 74 33 73
3 75 76 14
3 77 76 75
3 77 34 76
3 77 78 34
3 79 78 77
3 79 289 291
3 291 290 78
3 289 290 291
3 79 292 294
3 292 80 293
3 292 293 294
3 81 80 79
3 81 35 80
3 82 83 16
3 84 83 82
3 84 295 297
3 297 296 83
3 295 296 297
3 84 298 299
3 85 300 302
3 302 301 84
3 300 301 302
3 85 303 304
3 86 305 306
3 86 307 309
3 307 36 308
3 307 308 309
3 310 37 311
3 312 87 313
3 314 313 37
3 312 313 314
3 315 87 316
3 317 38 318
3 319 318 87
3 317 318 319
3 320 88 321
3 322 321 38
3 320 321 322
3 323 88 324
3 326 325 88
3 327 89 328
3 329 89 330
3 331 39 332
3 333 332 89
3 331 332 333
3 334 40 335
3 90 91 26
3 92 91 90
3 92 41 91
3 93 94 19
3 95 94 93
3 95 42 94
3 95 96 42
3 97 96 95
3 97 43 96
3 97 336 338
3 338 337 43
3 336 337 338
3 98 339 341
3 341 340 97
3 339 340 341
3 98 342 343
3 99 100 21
3 101 100 99
3 101 44 100
3 101 102 44
3 103 102 101
3 103 45 102
3 103 104 45
3 105 104 103
3 105 46 104
3 106 107 23
3 344 107 345
3 346 345 106
3 344 345 346
3 347 47 348
3 349 348 107
3 347 348 349
3 351 350 47
3 352 108 353
3 354 353 30
3 352 353 354
3 355 108 356
3 358 357 108
3 109 110 32
3 111 110 109
3 111 48 110
3 359 112 360
3 361 360 3
3 359 360 361
3 362 112 363
3 364 12 365
3 366 365 112
3 364 365 366
3 367 12 368
3 369 65 370
3 371 370 12
3 369 370 371
3 372 65 373
3 374 5 375
3 376 375 65
3 374 375 376
3 378 377 5
3 113 114 6
3 115 114 113
3 115 14 114
3 50 115 13
3 116 115 50
3 116 14 115
3 116 75 14
3 117 75 116
3 117 8 75
3 117 118 8
3 119 118 117
3 119 16 118
3 52 119 15
3 120 119 52
3 120 16 119
3 120 82 16
3 121 82 120
3 121 9 82
3 122 123 4
3 124 123 122
3 124 19 123
3 55 124 18
3 125 124 55
3 125 19 124
3 125 93 19
3 126 93 125
3 126 10 93
3 126 127 10
3 128 127 126
3 128 21 127
3 57 128 20
3 129 128 57
3 129 21 128
3 129 99 21
3 130 99 129
3 130 11 99
3 130 131 11
3 132 131 130
3 132 23 131
3 59 132 22
3 133 132 59
3 133 23 132
3 133 106 23
3 134 106 133
3 134 379 381
3 381 380 106
3 379 380 381
3 383 382 7
3 135 384 386
3 384 136 385
3 384 385 386
3 137 136 135
3 137 26 136
3 63 137 25
3 138 137 63
3 138 26 137
3 138 90 26
3 139 90 138
3 139 4 90
3 112 64 3
3 140 64 112
3 140 27 64
3 66 140 12
3 141 140 66
3 141 27 140
3 141 139 27
3 142 139 141
3 142 4 139
3 142 122 4
3 143 122 142
3 143 18 122
3 68 143 28
3 144 143 68
3 144 18 143
3 144 54 18
3 145 54 144
3 145 2 54
3 145 146 2
3 147 146 145
3 147 30 146
3 70 147 29
3 148 147 70
3 148 30 147
3 148 387 389
3 389 388 30
3 387 388 389
3 391 390 148
3 392 71 393
3 394 393 5
3 392 393 394
3 395 71 396
3 398 397 71
3 149 150 1
3 151 150 149
3 151 32 150
3 73 151 31
3 152 151 73
3 152 32 151
3 152 109 32
3 153 109 152
3 153 7 109
3 114 74 6
3 154 74 114
3 154 33 74
3 76 154 14
3 155 154 76
3 155 33 154
3 155 153 33
3 156 153 155
3 156 7 153
3 156 399 401
3 401 400 7
3 399 400 401
3 157 402 404
3 404 403 156
3 402 403 404
3 157 405 406
3 78 157 34
3 407 157 408
3 409 408 78
3 407 408 409
3 411 410 157
3 80 412 413
3 415 414 80
3 118 81 8
3 158 81 118
3 158 35 81
3 83 158 16
3 159 158 83
3 159 35 158
3 159 416 418
3 418 417 35
3 416 417 418
3 420 419 159
3 421 135 422
3 160 423 425
3 423 135 424
3 423 424 425
3 160 25 135
3 426 160 427
3 161 428 430
3 428 160 429
3 428 429 430
3 161 25 160
3 161 62 25
3 162 62 161
3 162 3 62
3 431 162 432
3 433 162 434
3 435 3 436
3 437 436 162
3 435 436 437
3 439 438 3
3 163 440 441
3 163 442 444
3 442 1 443
3 442 443 444
3 164 445 446
3 164 447 448
3 164 449 451
3 449 86 450
3 449 450 451
3 165 86 164
3 165 36 86
3 87 165 37
3 166 165 87
3 166 36 165
3 166 163 36
3 167 163 166
3 167 1 163
3 167 149 1
3 168 149 167
3 168 31 149
3 88 168 38
3 169 168 88
3 169 31 168
3 169 72 31
3 170 72 169
3 170 6 72
3 452 170 453
3 171 454 456
3 454 170 455
3 454 455 456
3 171 6 170
3 171 113 6
3 172 113 171
3 172 13 113
3 89 457 459
3 457 172 458
3 457 458 459
3 173 172 89
3 173 13 172
3 173 49 13
3 174 49 173
3 174 0 49
3 460 39 461
3 175 462 463
3 175 464 466
3 464 39 465
3 464 465 466
3 175 174 39
3 176 174 175
3 176 0 174
3 136 467 468
3 177 469 471
3 471 470 136
3 469 470 471
3 177 472 473
3 91 177 26
3 474 177 475
3 476 475 91
3 474 475 476
3 478 477 177
3 123 92 4
3 178 92 123
3 178 41 92
3 94 178 19
3 179 178 94
3 179 41 178
3 179 479 481
3 481 480 41
3 479 480 481
3 180 482 484
3 484 483 179
3 482 483 484
3 180 485 486
3 180 487 488
3 181 489 491
3 491 490 180
3 489 490 491
3 181 492 493
3 96 181 42
3 182 181 96
3 182 494 496
3 496 495 181
3 494 495 496
3 182 497 498
3 500 499 182
3 502 501 43
3 127 98 10
3 183 98 127
3 183 503 505
3 505 504 98
3 503 504 505
3 100 183 21
3 506 183 507
3 508 507 100
3 506 507 508
3 510 509 183
3 184 511 512
3 184 513 515
3 513 40 514
3 513 514 515
3 102 184 44
3 185 184 102
3 185 40 184
3 185 176 40
3 186 176 185
3 186 0 176
3 186 53 0
3 187 53 186
3 187 17 53
3 104 187 45
3 188 187 104
3 188 17 187
3 188 121 17
3 189 121 188
3 189 9 121
3 131 105 11
3 190 105 131
3 190 46 105
3 107 190 23
3 191 190 107
3 191 46 190
3 191 189 46
3 192 189 191
3 192 9 189
3 192 85 9
3 516 85 517
3 518 517 192
3 516 517 518
3 520 519 85
3 522 521 47
3 146 60 2
3 193 60 146
3 193 24 60
3 108 193 30
3 194 193 108
3 194 24 193
3 194 134 24
3 523 134 524
3 525 524 194
3 523 524 525
3 527 526 134
3 150 61 1
3 195 61 150
3 195 528 530
3 530 529 61
3 528 529 530
3 110 195 32
3 531 195 532
3 533 532 110
3 531 532 533
3 535 534 195
3 536 111 537
3 538 537 7
3 536 537 538
3 539 111 540
3 541 48 542
3 543 542 111
3 541 542 543
3 544 48 545
3 547 546 48
