ply
format ascii 1.0
element vertex 395
property float x
property float y
property float z
element face 434
property list uchar int vertex_index
end_header
-35.148685 -51.245071 -27.766279
-26.910576 -64.305252 -8.372621
-35.921806 -44.491837 -14.046764
-23.434107 -68.189117 2.256902
-30.044308 -63.542824 -25.920618
-26.16873 -69.683281 -16.480824
-31.18865 -58.61401 -18.369013
-27.804794 -59.345737 -0.554578
-31.47887 -54.424015 -11.121252
-35.57563 -47.552517 -20.673944
-21.167767 -72.875641 3.310316
-32.758831 -57.428562 -26.790991
-34.465233 -53.197868 -31.339155
-24.687418 -69.210152 -7.316487
-26.578667 -66.990463 -12.278324
-28.738447 -64.17382 -17.287855
-29.037773 -61.590431 -13.45422
-31.862354 -52.531033 -7.57927
-33.832214 -49.320915 -12.608516
-33.499035 -51.362915 -15.948343
-35.681534 -45.983227 -17.415184
-20.604429 -75.891136 -1.407728
-22.825748 -71.328384 -2.093705
-25.041176 -66.465782 -3.106242
-25.286636 -72.691429 -20.801014
-28.115068 -66.955353 -21.320532
-30.784777 -61.12011 -22.07172
-33.197727 -55.278038 -22.870277
-25.523722 -63.850594 0.951156
-27.224144 -61.765274 -4.371099
-29.549377 -57.050438 -5.947886
-29.250834 -59.189922 -9.70512
-31.318205 -56.413811 -14.626274
-33.379097 -53.253422 -19.32214
-35.463818 -49.272774 -24.088095
-33.942715 -54.462208 -27.123306
-33.631279 -55.437778 -29.039963
-34.820553 -52.351643 -29.500898
-25.824518 -66.69178 -7.78218
-25.572514 -68.256645 -9.837978
-26.767792 -65.634895 -10.377374
-27.874857 -64.123062 -12.791249
-27.957811 -62.919647 -10.810432
-33.947487 -48.668701 -10.916031
-34.85994 -46.992928 -13.231608
-34.744446 -47.742161 -14.988701
-35.724926 -45.328278 -15.586422
-19.360601 -78.345985 -1.518396
-22.292559 -70.593559 2.820699
-22.039837 -72.002251 0.664657
-23.096376 -69.747475 0.236805
-23.936007 -68.84201 -2.417841
-24.156891 -67.475502 -0.369687
-25.140789 -71.032036 -14.042127
-24.808214 -72.492218 -16.137518
-24.398344 -73.952454 -18.342054
-25.74135 -71.234505 -18.450218
-26.673094 -69.918694 -20.954063
-27.111065 -68.483971 -19.006399
-29.998699 -61.371464 -17.831785
-29.7635 -62.674927 -19.559109
-31.028357 -59.831558 -20.177551
-32.04491 -58.132584 -22.427734
-32.221142 -56.993488 -20.706776
-27.064957 -60.321053 2.053508
-25.982422 -62.377029 2.786768
-26.651953 -61.633167 0.027815
-26.343327 -62.820045 -1.650876
-27.469418 -60.544846 -2.435566
-31.72308 -53.292042 -9.432466
-30.714506 -54.773899 -6.808947
-30.498817 -55.755482 -8.501895
-29.268639 -58.28627 -7.685504
-30.336708 -56.810436 -10.266831
-30.293507 -57.760975 -12.108358
-31.433958 -55.294388 -12.920373
-34.553684 -49.537491 -18.354401
-33.441826 -52.253677 -17.567581
-34.502491 -50.423134 -20.022093
-34.444359 -51.336449 -21.720293
-35.460522 -48.580826 -22.295874
-36.429035 -46.440403 -24.646891
-36.447803 -45.722897 -22.897539
-20.033356 -75.11702 3.520921
-21.579556 -71.124039 5.596
-22.674105 -68.971252 4.933665
-31.48805 -60.379627 -26.314247
-32.283028 -58.659229 -28.523071
-33.189003 -56.380711 -30.763264
-23.494173 -71.814697 -6.932064
-24.406713 -70.741112 -9.309509
-25.366468 -69.643768 -11.882596
-26.446341 -68.233246 -14.375341
-27.498121 -66.902679 -16.956282
-27.681551 -65.540276 -14.774952
-28.92729 -62.841854 -15.386307
-30.07925 -60.206444 -15.849923
-33.110058 -50.059345 -8.365663
-32.86216 -50.922955 -10.074214
-32.638969 -51.884476 -11.707279
-32.576855 -52.701698 -13.52943
-33.656586 -50.261898 -14.223347
-34.616089 -48.663845 -16.656553
-35.584335 -46.84227 -19.007212
-36.543446 -44.836372 -21.408543
-20.898453 -74.385269 0.905352
-21.766212 -73.589355 -1.781114
-22.586876 -72.834953 -4.4345
-23.758347 -70.290161 -4.794774
-24.845863 -67.858307 -5.179274
-25.958611 -65.366013 -5.667358
-26.197165 -71.210236 -23.115429
-27.709776 -68.186378 -23.302074
-29.06962 -65.351624 -23.529198
-28.457611 -65.597954 -19.283871
-29.463448 -64.012138 -21.461712
-30.472883 -62.3451 -24.020983
-31.813005 -59.274349 -24.318327
-33.02095 -56.367771 -24.794743
-34.227577 -53.277561 -25.314302
-23.761057 -66.742531 4.370765
-24.87199 -64.540718 3.5732
-24.435722 -66.085373 1.665049
-25.267893 -65.114494 -1.084869
-26.112339 -64.086197 -3.595548
-26.999849 -63.088367 -6.25663
-28.968538 -57.189857 -1.460869
-30.962704 -53.863853 -4.906942
-29.803232 -56.032501 -4.097448
-28.608139 -58.344563 -3.369593
-28.35718 -59.437767 -5.130463
-28.185335 -60.604271 -7.107281
-28.015427 -61.777596 -8.78892
-29.101971 -60.414169 -11.476011
-30.170952 -58.98251 -13.921995
-31.240749 -57.52845 -16.436089
-32.425392 -53.816139 -15.16246
-32.39452 -54.798153 -17.017008
-32.283913 -55.955547 -18.79664
-33.373547 -54.095325 -21.153658
-34.388844 -52.241985 -23.57583
-35.326813 -50.272568 -25.85429
-36.346443 -47.313549 -26.512373
-35.390873 -45.742382 -13.639186
-34.971847 -46.58516 -12.420067
-35.502781 -45.334614 -12.827644
-36.337044 -43.580576 -15.222217
-36.238604 -43.998796 -15.992047
-35.823366 -44.910057 -14.816593
-29.758184 -64.141709 -26.859647
-29.284618 -65.128155 -25.749912
-21.744165 -70.387916 6.673236
-21.161314 -71.497273 6.895408
-22.291439 -69.311523 6.342068
-22.126831 -70.047646 5.264833
-21.744165 -70.387916 6.673236
-34.225714 -53.57271 -32.255206
-33.587599 -55.164131 -31.96726
-33.827118 -54.789289 -31.051209
-33.660826 -48.945896 -8.762549
-33.240908 -49.68957 -7.453612
-36.133927 -45.032774 -18.57446
-36.085327 -45.462295 -19.370474
-35.632935 -46.412748 -18.211198
-20.39371 -76.773315 -2.650405
-19.771796 -78.00074 -2.705738
-19.982515 -77.118561 -1.463062
-20.988185 -75.61425 -2.758896
-20.39371 -76.773315 -2.650405
-24.528484 -74.135318 -20.655625
-24.084338 -74.765831 -19.426144
-24.84249 -73.321942 -19.571534
-24.952473 -73.460399 -21.900745
-24.528484 -74.135318 -20.655625
-25.7419 -71.950832 -21.958222
-25.407738 -72.719803 -23.057953
-24.952473 -73.460399 -21.900745
-23.938581 -66.079983 5.373966
-23.39814 -67.110401 5.755148
-29.56771 -56.10176 -1.892144
-29.174345 -56.679321 -0.592686
-31.412529 -53.197443 -6.243106
-31.585871 -52.706308 -5.391878
-32.035696 -52.039898 -6.728042
-36.860489 -45.358561 -25.820881
-36.889155 -44.984976 -24.952639
-36.979343 -43.76226 -22.463161
-36.978371 -43.482073 -21.670314
-34.515621 -47.423046 -11.262278
-34.079541 -48.250574 -10.037733
-34.403714 -47.830815 -12.073819
-34.515621 -47.423046 -11.262278
-34.971847 -46.58516 -12.420067
-36.146212 -44.445538 -16.739955
-36.124516 -44.773013 -17.654336
-35.70323 -45.655752 -16.500803
-36.146212 -44.445538 -16.739955
-36.238604 -43.998796 -15.992047
-18.900116 -78.643505 -0.127373
-18.677817 -79.487133 -1.356424
-19.504638 -77.593338 -0.247108
-18.900116 -78.643505 -0.127373
-20.126551 -76.365914 -0.191774
-19.982515 -77.118561 -1.463062
-19.504638 -77.593338 -0.247108
-24.500842 -72.398083 -14.001057
-24.676681 -71.577961 -12.817954
-24.334554 -73.128174 -15.048752
-24.500842 -72.398083 -14.001057
-24.974502 -71.762127 -15.089823
-24.137342 -73.858692 -16.09283
-24.334554 -73.128174 -15.048752
-24.603279 -73.222336 -17.239786
-23.932408 -74.58881 -17.195099
-24.137342 -73.858692 -16.09283
-26.523689 -61.349041 2.420138
-26.172897 -61.798416 3.774863
-26.714165 -60.770428 3.408233
-36.898539 -44.626223 -24.077963
-36.889155 -44.984976 -24.952639
-36.438419 -46.08165 -23.772215
-19.64848 -75.310577 4.855861
-19.445963 -76.170628 3.632309
-20.233567 -74.260101 4.683309
-19.64848 -75.310577 4.855861
-20.800772 -73.139412 4.578006
-20.600562 -73.99633 3.415618
-20.233567 -74.260101 4.683309
-21.006667 -72.263611 5.720849
-21.161314 -71.497273 6.895408
-21.373662 -71.99984 4.453158
-20.800772 -73.139412 4.578006
-21.006667 -72.263611 5.720849
-31.197302 -61.044782 -27.323317
-30.475431 -62.626381 -27.126502
-30.766179 -61.961225 -26.117432
-31.594791 -60.184584 -28.427729
-31.197302 -61.044782 -27.323317
-31.885539 -59.519428 -27.418659
-32.065109 -59.039096 -29.541251
-31.594791 -60.184584 -28.427729
-32.518096 -57.899838 -30.661347
-32.065109 -59.039096 -29.541251
-32.736016 -57.51997 -29.643168
-32.876086 -56.854408 -31.7139
-32.518096 -57.899838 -30.661347
-32.876086 -56.854408 -31.7139
-33.587599 -55.164131 -31.96726
-23.360948 -72.552093 -8.013856
-22.881648 -73.095172 -6.752014
-23.817217 -72.015301 -9.202579
-23.360948 -72.552093 -8.013856
-23.950443 -71.277905 -8.120786
-24.309643 -71.432499 -10.451645
-23.817217 -72.015301 -9.202579
-24.78952 -70.883827 -11.738189
-24.309643 -71.432499 -10.451645
-24.886591 -70.19244 -10.596052
-25.253629 -70.337902 -12.962362
-24.676681 -71.577961 -12.817954
-24.78952 -70.883827 -11.738189
-27.31149 -59.71164 2.92125
-26.714165 -60.770428 3.408233
-27.639458 -59.26651 1.665541
-27.31149 -59.71164 2.92125
-28.009377 -58.778852 0.361498
-27.434876 -59.833395 0.749465
-27.639458 -59.26651 1.665541
-32.659548 -50.804054 -7.121239
-33.240908 -49.68957 -7.453612
-32.486206 -51.295189 -7.972466
-32.035696 -52.039898 -6.728042
-32.659548 -50.804054 -7.121239
-33.528773 -49.364023 -9.640847
-33.660826 -48.945896 -8.762549
-34.079541 -48.250574 -10.037733
-36.564883 -44.459346 -20.57114
-36.06389 -45.839321 -20.207878
-36.085327 -45.462295 -19.370474
-36.978371 -43.482073 -21.670314
-36.564883 -44.459346 -20.57114
-36.133927 -45.032774 -18.57446
-36.124516 -44.773013 -17.654336
-19.070352 -79.295883 -2.688916
-18.677817 -79.487133 -1.356424
-19.070352 -79.295883 -2.688916
-19.771796 -78.00074 -2.705738
-19.841015 -75.978856 2.272551
-19.445963 -76.170628 3.632309
-20.273564 -75.61298 0.964767
-19.841015 -75.978856 2.272551
-20.465905 -74.751144 2.213137
-20.751441 -75.138203 -0.251188
-20.126551 -76.365914 -0.191774
-20.273564 -75.61298 0.964767
-21.569077 -74.463359 -2.945589
-20.988185 -75.61425 -2.758896
-21.18532 -74.740246 -1.594421
-21.979408 -74.086158 -4.272282
-21.569077 -74.463359 -2.945589
-22.176544 -73.212154 -3.107807
-22.427999 -73.6053 -5.503232
-21.979408 -74.086158 -4.272282
-23.040525 -72.324825 -5.683282
-22.881648 -73.095172 -6.752014
-22.427999 -73.6053 -5.503232
-36.020052 -44.129998 -13.173872
-35.502781 -45.334614 -12.827644
-36.418825 -43.212217 -14.387401
-36.020052 -44.129998 -13.173872
-29.758184 -64.141709 -26.859647
-30.475431 -62.626381 -27.126502
-35.567158 -50.152004 -28.859482
-35.670282 -49.721415 -27.965809
-23.658009 -75.387196 -18.312052
-23.932408 -74.58881 -17.195099
-23.658009 -75.387196 -18.312052
-24.084338 -74.765831 -19.426144
-25.838122 -71.93026 -24.141291
-25.407738 -72.719803 -23.057953
-26.608723 -70.461163 -24.17748
-25.838122 -71.93026 -24.141291
-27.365029 -68.949234 -24.270803
-26.608723 -70.461163 -24.17748
-26.953471 -69.698307 -23.208751
-28.117352 -67.449932 -24.44064
-27.365029 -68.949234 -24.270803
-28.797274 -66.032555 -24.554202
-28.117352 -67.449932 -24.44064
-28.389698 -66.769001 -23.415636
-29.556964 -64.447224 -24.724908
-29.284618 -65.128155 -25.749912
-28.797274 -66.032555 -24.554202
-22.854664 -68.224761 6.036599
-22.291439 -69.311523 6.342068
-23.217581 -67.856892 4.652215
-22.854664 -68.224761 6.036599
-23.39814 -67.110401 5.755148
-25.607215 -62.855406 4.120891
-26.172897 -61.798416 3.774863
-25.051999 -63.93725 4.514107
-25.607215 -62.855406 4.120891
-25.427206 -63.458873 3.179984
-24.494048 -64.979076 4.975184
-25.051999 -63.93725 4.514107
-24.316524 -65.641625 3.971982
-23.938581 -66.079983 5.373966
-24.494048 -64.979076 4.975184
-28.591248 -57.700912 -0.091647
-29.174345 -56.679321 -0.592686
-28.386666 -58.267797 -1.007723
-28.009377 -58.778852 0.361498
-28.591248 -57.700912 -0.091647
-31.206897 -53.287408 -4.067431
-31.585871 -52.706308 -5.391878
-30.564793 -54.438758 -3.615181
-31.206897 -53.287408 -4.067431
-29.985057 -55.523083 -3.210433
-30.564793 -54.438758 -3.615181
-30.382968 -54.948177 -4.502195
-29.385885 -56.611179 -2.779158
-29.56771 -56.10176 -1.892144
-29.985057 -55.523083 -3.210433
-35.759346 -49.235163 -27.009815
-35.670282 -49.721415 -27.965809
-35.237749 -50.75882 -26.810285
-36.269161 -47.755654 -27.338856
-35.759346 -49.235163 -27.009815
-35.836628 -48.793059 -26.183332
-36.783657 -46.142555 -27.671757
-36.269161 -47.755654 -27.338856
-36.819193 -45.795134 -26.753622
-36.387739 -46.876976 -25.579632
-36.860489 -45.358561 -25.820881
-36.783657 -46.142555 -27.671757
-36.819193 -45.795134 -26.753622
-36.931522 -44.205523 -23.207659
-36.495625 -45.279635 -22.153041
-36.979343 -43.76226 -22.463161
-36.898539 -44.626223 -24.077963
-36.931522 -44.205523 -23.207659
-36.337044 -43.580576 -15.222217
-36.418825 -43.212217 -14.387401
-35.403092 -50.70529 -29.726792
-34.984619 -51.798357 -28.633589
-35.567158 -50.152004 -28.859482
-35.2602 -51.09989 -30.665899
-35.403092 -50.70529 -29.726792
-35.082541 -51.523003 -31.585028
-34.642893 -52.774755 -30.420026
-35.2602 -51.09989 -30.665899
-34.857675 -51.931662 -32.5498
-35.082541 -51.523003 -31.585028
-34.225714 -53.57271 -32.255206
-34.857675 -51.931662 -32.5498
3 0 37 35
3 1 40 38
3 1 42 40
3 2 143 145
3 143 44 144
3 143 144 145
3 2 46 44
3 2 146 148
3 148 147 46
3 146 147 148
3 3 50 48
3 3 52 50
3 4 149 150
3 5 54 53
3 5 56 54
3 5 58 56
3 6 61 59
3 6 63 61
3 7 66 64
3 7 68 66
3 8 71 69
3 8 73 71
3 8 75 73
3 9 78 76
3 9 80 78
3 9 82 80
3 151 84 152
3 153 85 154
3 155 154 84
3 153 154 155
3 11 87 86
3 12 88 36
3 12 156 158
3 158 157 88
3 156 157 158
3 13 90 89
3 14 91 39
3 14 92 91
3 14 94 92
3 16 95 41
3 16 96 95
3 159 97 160
3 18 98 43
3 18 99 98
3 18 101 99
3 20 102 45
3 20 103 102
3 20 161 163
3 163 162 103
3 161 162 163
3 21 164 166
3 166 165 47
3 164 165 166
3 21 167 168
3 10 105 83
3 22 106 49
3 22 107 106
3 22 108 107
3 23 109 51
3 23 110 109
3 24 169 171
3 171 170 55
3 169 170 171
3 24 172 173
3 24 174 176
3 174 111 175
3 174 175 176
3 25 112 57
3 25 113 112
3 15 114 93
3 26 115 60
3 26 116 115
3 26 117 116
3 27 118 62
3 27 119 118
3 177 120 178
3 28 121 65
3 28 122 121
3 28 123 122
3 29 124 67
3 29 125 124
3 179 126 180
3 17 181 183
3 181 127 182
3 181 182 183
3 30 128 70
3 30 129 128
3 30 130 129
3 31 131 72
3 31 132 131
3 31 133 132
3 32 134 74
3 32 135 134
3 19 136 100
3 33 137 77
3 33 138 137
3 33 139 138
3 34 140 79
3 34 141 140
3 34 142 141
3 185 184 81
3 187 186 104
3 35 36 11
3 37 36 35
3 37 12 36
3 38 39 13
3 40 39 38
3 40 14 39
3 40 41 14
3 42 41 40
3 42 16 41
3 188 43 189
3 44 190 192
3 190 43 191
3 190 191 192
3 44 18 43
3 44 45 18
3 46 45 44
3 46 20 45
3 46 193 195
3 195 194 20
3 193 194 195
3 197 196 46
3 198 47 199
3 200 47 201
3 202 21 203
3 204 203 47
3 202 203 204
3 48 49 10
3 50 49 48
3 50 22 49
3 50 51 22
3 52 51 50
3 52 23 51
3 53 205 206
3 54 207 209
3 209 208 53
3 207 208 209
3 54 210 211
3 54 212 214
3 212 55 213
3 212 213 214
3 56 55 54
3 56 24 55
3 56 57 24
3 58 57 56
3 58 25 57
3 59 60 15
3 61 60 59
3 61 26 60
3 61 62 26
3 63 62 61
3 63 27 62
3 64 215 217
3 215 65 216
3 215 216 217
3 66 65 64
3 66 28 65
3 66 67 28
3 68 67 66
3 68 29 67
3 69 70 17
3 71 70 69
3 71 30 70
3 71 72 30
3 73 72 71
3 73 31 72
3 73 74 31
3 75 74 73
3 75 32 74
3 76 77 19
3 78 77 76
3 78 33 77
3 78 79 33
3 80 79 78
3 80 34 79
3 80 81 34
3 82 81 80
3 82 218 220
3 220 219 81
3 218 219 220
3 221 83 222
3 223 83 224
3 225 10 226
3 227 226 83
3 225 226 227
3 84 228 229
3 84 230 232
3 230 10 231
3 230 231 232
3 84 48 10
3 85 48 84
3 85 3 48
3 86 233 235
3 235 234 4
3 233 234 235
3 87 236 238
3 238 237 86
3 236 237 238
3 87 239 240
3 36 87 11
3 88 87 36
3 88 241 243
3 243 242 87
3 241 242 243
3 88 244 245
3 247 246 88
3 89 248 249
3 90 250 252
3 252 251 89
3 250 251 252
3 90 253 254
3 39 90 13
3 91 90 39
3 91 255 257
3 257 256 90
3 255 256 257
3 91 258 260
3 258 53 259
3 258 259 260
3 92 53 91
3 92 5 53
3 92 93 5
3 94 93 92
3 94 15 93
3 41 94 14
3 95 94 41
3 95 15 94
3 95 59 15
3 96 59 95
3 96 6 59
3 261 64 262
3 263 64 264
3 265 7 266
3 267 266 64
3 265 266 267
3 97 268 269
3 97 270 272
3 270 17 271
3 270 271 272
3 43 273 275
3 273 97 274
3 273 274 275
3 98 97 43
3 98 17 97
3 98 69 17
3 99 69 98
3 99 8 69
3 99 100 8
3 101 100 99
3 101 19 100
3 45 101 18
3 102 101 45
3 102 19 101
3 102 76 19
3 103 76 102
3 103 9 76
3 103 104 9
3 276 104 277
3 278 277 103
3 276 277 278
3 280 279 104
3 282 281 20
3 47 283 284
3 286 285 47
3 83 287 288
3 105 289 291
3 291 290 83
3 289 290 291
3 105 292 294
3 292 21 293
3 292 293 294
3 49 105 10
3 106 105 49
3 106 21 105
3 106 295 297
3 297 296 21
3 295 296 297
3 107 298 300
3 300 299 106
3 298 299 300
3 107 301 302
3 107 303 305
3 303 89 304
3 303 304 305
3 108 89 107
3 108 13 89
3 51 108 22
3 109 108 51
3 109 13 108
3 109 38 13
3 110 38 109
3 110 1 38
3 306 2 307
3 309 308 2
3 311 310 4
3 313 312 0
3 55 314 315
3 317 316 55
3 111 318 319
3 111 320 321
3 57 111 24
3 112 111 57
3 112 322 324
3 324 323 111
3 322 323 324
3 112 325 326
3 113 327 329
3 329 328 112
3 327 328 329
3 113 330 332
3 330 4 331
3 330 331 332
3 93 58 5
3 114 58 93
3 114 25 58
3 60 114 15
3 115 114 60
3 115 25 114
3 115 113 25
3 116 113 115
3 116 4 113
3 116 86 4
3 117 86 116
3 117 11 86
3 62 117 26
3 118 117 62
3 118 11 117
3 118 35 11
3 119 35 118
3 119 0 35
3 333 85 334
3 120 335 337
3 335 85 336
3 335 336 337
3 120 3 85
3 65 338 339
3 121 340 342
3 342 341 65
3 340 341 342
3 121 343 344
3 121 345 347
3 345 120 346
3 345 346 347
3 122 120 121
3 122 3 120
3 122 52 3
3 123 52 122
3 123 23 52
3 67 123 28
3 124 123 67
3 124 23 123
3 124 110 23
3 125 110 124
3 125 1 110
3 126 348 349
3 126 350 352
3 350 7 351
3 350 351 352
3 127 353 354
3 127 355 356
3 70 127 17
3 128 127 70
3 128 357 359
3 359 358 127
3 357 358 359
3 128 360 362
3 360 126 361
3 360 361 362
3 129 126 128
3 129 7 126
3 129 68 7
3 130 68 129
3 130 29 68
3 72 130 30
3 131 130 72
3 131 29 130
3 131 125 29
3 132 125 131
3 132 1 125
3 132 42 1
3 133 42 132
3 133 16 42
3 74 133 31
3 134 133 74
3 134 16 133
3 134 96 16
3 135 96 134
3 135 6 96
3 100 75 8
3 136 75 100
3 136 32 75
3 77 136 19
3 137 136 77
3 137 32 136
3 137 135 32
3 138 135 137
3 138 6 135
3 138 63 6
3 139 63 138
3 139 27 63
3 79 139 33
3 140 139 79
3 140 27 139
3 140 119 27
3 141 119 140
3 141 0 119
3 141 363 365
3 365 364 0
3 363 364 365
3 142 366 368
3 368 367 141
3 366 367 368
3 142 369 370
3 81 142 34
3 371 142 372
3 373 372 81
3 371 372 373
3 375 374 142
3 104 82 9
3 376 82 377
3 378 377 104
3 376 377 378
3 380 379 82
3 382 381 2
3 383 37 384
3 385 384 0
3 383 384 385
3 386 37 387
3 388 12 389
3 390 389 37
3 388 389 390
3 391 12 392
3 394 393 12
