ply
format ascii 1.0
element vertex 584
property float x
property float y
property float z
element face 644
property list uchar int vertex_index
end_header
-11.479445 -64.831635 -47.242298
-28.260529 -58.536919 -41.27541
5.284311 -63.261143 -42.738468
7.855089 -79.010498 -40.830818
-2.374292 -65.592621 -45.792557
-3.60207 -49.729492 -48.395729
-11.001259 -77.69043 -43.186172
-20.003159 -73.459061 -39.426769
-20.432407 -62.292732 -45.57317
14.103431 -74.049858 -36.925785
10.640833 -58.37178 -39.203419
-6.426416 -72.700928 -45.408051
-1.73701 -73.077301 -44.709534
-6.781259 -65.37056 -46.860241
-7.210773 -57.835186 -48.236122
-10.728344 -83.214699 -40.653412
-27.455664 -64.111351 -37.338749
-23.553974 -71.020821 -36.75145
-24.212152 -66.239059 -40.191845
-20.290768 -68.04528 -42.717564
-24.452887 -60.613495 -43.740314
6.49202 -71.121994 -41.80257
11.434577 -77.039612 -38.915081
9.716108 -69.168526 -39.992256
12.324917 -66.329567 -38.05328
8.233278 -61.277424 -41.027729
6.755357 -53.280136 -42.250496
4.000534 -55.181374 -43.922779
-31.134493 -56.880272 -38.177956
3.534955 -79.681328 -42.491314
2.698662 -72.485641 -43.400784
1.789033 -64.980858 -44.320984
0.615734 -56.685314 -45.567657
-3.047069 -57.825245 -46.971611
-7.676212 -49.933796 -49.852737
-6.004094 -79.255928 -43.774742
-11.123042 -71.487617 -45.373695
-15.45074 -80.579834 -38.731098
-15.622813 -75.745621 -41.756474
-16.037224 -69.874748 -44.38171
-16.001539 -63.777351 -46.796658
-24.603632 -54.302795 -47.051357
-20.528307 -55.74474 -48.374836
15.535528 -59.183659 -34.183075
12.844696 -84.257057 -37.918404
15.753562 -81.571762 -35.857796
17.90452 -78.139366 -33.665016
16.036272 -70.574142 -34.921654
14.101505 -62.792057 -36.221325
12.265871 -54.922184 -37.46051
8.745481 -50.29435 -40.653225
-0.235076 -48.601665 -46.975304
-8.868196 -68.909569 -46.30875
-6.791616 -68.867119 -46.21933
-9.180356 -65.132454 -47.167278
-9.184661 -61.739174 -47.874416
-11.580535 -61.177593 -48.155846
-8.191621 -86.659058 -40.068016
-10.70395 -85.386665 -39.319492
-27.955988 -61.265732 -39.365978
-26.014793 -64.966705 -38.878242
-26.261349 -62.28437 -40.814106
-24.486235 -63.327522 -41.995358
-26.525261 -59.457088 -42.575001
5.79713 -67.195511 -42.30468
8.152143 -70.190788 -40.939384
7.41484 -66.076859 -41.446491
9.032491 -65.401031 -40.448307
6.889623 -62.222946 -41.857174
6.08135 -58.24662 -42.497791
4.610614 -59.388432 -43.298958
-30.67576 -59.337101 -36.144382
1.41458 -80.154213 -43.014462
-2.082812 -69.388306 -45.260876
0.418884 -72.727486 -44.168541
0.225655 -69.180878 -44.571678
2.212024 -68.793121 -43.858849
-0.218069 -65.318939 -45.091198
-0.825509 -61.315094 -45.719376
-2.788043 -61.6273 -46.394554
-7.463145 -53.843575 -49.023716
-8.279974 -81.535057 -42.534279
-5.947546 -82.149307 -42.86507
-8.486318 -78.594826 -43.583405
-8.754559 -75.393188 -44.576591
-11.018495 -74.744629 -44.306595
-21.872114 -72.139557 -38.23156
-17.620592 -77.24292 -39.08226
-15.707624 -78.035034 -40.314842
-17.891094 -74.590431 -40.698994
-20.45392 -65.017265 -44.231689
-18.276924 -68.963867 -43.602409
-18.264578 -66.098114 -44.965599
-16.089151 -66.884857 -45.59623
-18.385418 -62.720352 -46.366329
16.974285 -60.902557 -32.555092
16.530275 -63.120056 -33.477154
8.310672 -82.360535 -40.418266
10.970663 -85.010719 -38.942871
10.376194 -81.530396 -39.447105
12.805209 -75.720886 -37.979942
13.670065 -79.520462 -37.423168
14.787045 -77.714539 -36.527515
16.854282 -79.923065 -34.833282
16.058691 -76.370216 -35.361721
16.937239 -74.364693 -34.345654
15.206796 -72.57811 -35.888271
11.432717 -62.536251 -38.662495
13.266739 -64.676933 -37.165009
12.364466 -60.653931 -37.767826
13.277717 -58.938858 -36.74316
11.526135 -56.698471 -38.331581
10.574135 -52.792248 -39.027271
9.57785 -54.305981 -40.006474
4.737559 -50.149864 -43.826588
-1.617856 -53.342098 -46.987194
0.150432 -52.655785 -46.237511
-1.917423 -49.201855 -47.723881
-3.833673 -76.211472 -44.519989
-1.334983 -76.621651 -44.116459
-4.078916 -72.765564 -45.184956
-4.40976 -69.274391 -45.808556
-4.524995 -65.826317 -46.346069
-4.761484 -61.883659 -46.963612
-7.070065 -61.655396 -47.549168
-8.20812 -84.202438 -41.370625
-10.759895 -80.605408 -41.999779
-25.186029 -69.679245 -35.170147
-25.492178 -67.613564 -37.080029
-23.955524 -68.619019 -38.528343
-22.135139 -69.681572 -39.941753
-20.021545 -71.015076 -41.135414
-22.331778 -67.049156 -41.599251
-22.326283 -64.477661 -43.189476
-22.552197 -61.458302 -44.69466
7.065114 -74.978462 -41.381111
9.519958 -77.758293 -40.027882
8.949964 -74.299194 -40.414776
10.490581 -73.084496 -39.506184
11.982602 -71.8498 -38.478333
13.176112 -70.139008 -37.504005
11.101586 -67.688019 -39.028275
10.254048 -63.871845 -39.600864
9.51198 -59.884964 -40.130661
8.62503 -55.781155 -40.805847
7.523223 -57.318996 -41.592793
5.480403 -54.257038 -43.079388
3.339926 -51.178654 -44.645798
-5.726311 -46.193874 -49.924606
-4.021502 -45.531746 -49.334194
-29.367493 -60.368397 -37.83234
-29.808474 -57.623482 -39.846882
5.690963 -79.178207 -41.764179
0.749159 -76.46859 -43.667942
3.0146 -76.006126 -43.01355
5.238058 -75.62394 -42.181332
4.533722 -71.737343 -42.697124
4.048013 -67.947609 -43.123352
3.546649 -63.962856 -43.591965
2.891646 -60.128643 -44.161541
1.186299 -61.042957 -44.903793
-1.16364 -57.328369 -46.30019
-3.508082 -53.624573 -47.743881
-5.180735 -57.659626 -47.708118
-5.352994 -53.984669 -48.355747
-5.622126 -50.166546 -49.115814
-3.694414 -79.411659 -43.815746
-6.333854 -75.93679 -44.650303
-8.734094 -72.284569 -45.465984
-11.303862 -68.182198 -46.338673
-13.015305 -84.052261 -38.391628
-13.297605 -81.798569 -39.779968
-13.215068 -79.517677 -41.229565
-13.465159 -76.723671 -42.534504
-17.968643 -71.898132 -42.258404
-15.807659 -72.784645 -43.167927
-13.412255 -74.007286 -43.773075
-13.564655 -70.854942 -44.958305
-13.637247 -67.76506 -46.036343
-13.858095 -64.278328 -47.124767
-31.441904 -54.230297 -40.327305
-29.998646 -54.906998 -41.900837
-28.408316 -55.693676 -43.200932
-26.649887 -56.603527 -44.298943
-24.652098 -57.444839 -45.385246
-22.596664 -58.327919 -46.249352
-22.653791 -54.869938 -47.838688
-20.533926 -59.068707 -46.975609
-18.277325 -59.673912 -47.617489
-16.049492 -60.083256 -48.06144
-13.781921 -60.974552 -48.12307
17.342272 -58.575344 -31.637726
15.989229 -57.094936 -33.310432
14.560484 -55.176296 -34.868374
15.112394 -86.497345 -36.323627
12.087263 -80.644897 -38.478718
14.424596 -83.097122 -36.891537
16.539288 -85.125084 -35.252239
17.752005 -72.461334 -33.237125
16.935999 -68.805519 -33.74292
14.235209 -68.660728 -36.519436
15.155871 -66.813507 -35.48703
15.914079 -65.019348 -34.471607
14.948956 -61.156322 -35.134014
13.968444 -57.097164 -35.796661
13.024535 -53.338371 -36.469334
11.393695 -51.048897 -38.063885
9.663605 -48.875103 -39.71817
7.74319 -51.684963 -41.522549
2.522916 -56.273613 -44.648689
1.799828 -52.060284 -45.44521
1.335036 -48.027939 -46.187626
-10.617539 -86.472981 -38.587263
-9.464175 -87.013172 -39.053028
0.163281 -79.973194 -43.27344
1.445494 -81.760822 -42.738321
-19.81326 -74.705204 -38.605726
-20.747737 -74.045452 -38.008122
-20.937636 -72.799309 -38.829165
-18.811875 -75.35099 -39.254514
-18.621976 -76.597133 -38.433471
-19.81326 -74.705204 -38.605726
16.985505 -64.844689 -33.143709
17.244905 -63.85672 -32.627519
4.417285 -48.160944 -44.206347
3.770365 -48.651399 -44.607468
-9.333186 -59.739355 -48.293777
-10.396202 -59.6782 -48.43564
-26.473921 -65.862458 -37.209389
-26.284498 -66.952008 -36.260005
-27.26624 -65.200901 -36.389364
-5.802058 -44.110899 -50.407419
-6.661374 -44.272588 -50.715929
4.814234 -81.184162 -41.894968
3.732672 -81.439361 -42.21146
4.612959 -79.429767 -42.127747
5.892238 -80.932602 -41.531401
4.814234 -81.184162 -41.894968
-7.683034 -48.041319 -50.258904
-6.655991 -48.157694 -49.890442
-6.649169 -50.050171 -49.484275
-4.717202 -80.991059 -43.364313
-4.688928 -82.437748 -42.909477
-5.97582 -80.702618 -43.319906
-4.849254 -79.333793 -43.795244
-3.562362 -81.068924 -43.384815
-4.717202 -80.991059 -43.364313
-23.364095 -72.128181 -35.76001
-24.180122 -71.457393 -34.969358
-24.370002 -70.350033 -35.960798
-15.24345 -81.786903 -37.933319
-16.450412 -80.012322 -38.070519
-14.233023 -82.316047 -38.561363
-14.025733 -83.523117 -37.763584
-15.24345 -81.786903 -37.933319
-31.579448 -52.768772 -41.374939
-32.22972 -52.486004 -40.584349
-30.857819 -53.107123 -42.161705
-30.720275 -54.568647 -41.114071
-31.579448 -52.768772 -41.374939
-28.432634 -54.256203 -44.111563
-29.267578 -53.88934 -43.513546
-27.55342 -54.711128 -44.660568
-27.529101 -56.148601 -43.749938
-28.432634 -54.256203 -44.111563
-24.627865 -55.873817 -46.218302
-25.595729 -55.516333 -45.761364
-25.571496 -53.945311 -46.59442
-21.591049 -55.307339 -48.106762
-22.564403 -53.204994 -48.606448
-21.501662 -53.642395 -48.874522
-16.056988 -58.441284 -48.586489
-17.164228 -58.170454 -48.468184
-14.923203 -58.886933 -48.617304
-14.915707 -60.528904 -48.092255
-16.056988 -58.441284 -48.586489
-13.840937 -59.110208 -48.634236
-14.923203 -58.886933 -48.617304
17.796771 -60.488451 -31.279018
17.952782 -59.380268 -30.803292
13.115067 -85.943482 -37.654896
12.178051 -86.320312 -38.16713
11.90768 -84.633888 -38.430638
13.978545 -85.377201 -37.121015
14.248916 -87.063626 -36.857507
13.115067 -85.943482 -37.654896
16.756711 -82.481598 -34.995525
17.149573 -84.258259 -34.692747
16.146425 -83.348423 -35.555018
18.314658 -79.74181 -33.345703
17.789539 -80.633659 -33.929836
17.379401 -79.031216 -34.249149
18.780524 -78.841949 -32.705285
18.314658 -79.74181 -33.345703
18.274323 -77.045567 -33.131332
18.780524 -78.841949 -32.705285
8.379695 -48.419379 -40.956721
8.838757 -47.709755 -40.489193
9.204543 -49.584727 -40.185698
-3.08939 -45.489095 -48.900745
-4.071053 -43.636553 -49.74912
-11.594139 -59.39741 -48.576355
-10.396202 -59.6782 -48.43564
-10.382598 -61.458383 -48.015131
-8.20801 -87.649369 -39.42729
-6.885127 -88.333466 -39.708746
-9.447786 -86.022862 -39.693754
-8.20801 -87.649369 -39.42729
-9.464175 -87.013172 -39.053028
-31.187627 -58.874083 -35.262199
-30.378816 -60.509856 -35.153406
-31.485007 -57.610472 -36.37121
-31.187627 -58.874083 -35.262199
-31.714374 -56.382057 -37.387997
-30.905127 -58.108686 -37.161169
-31.485007 -57.610472 -36.37121
2.672484 -81.675804 -42.473034
1.445494 -81.760822 -42.738321
2.474768 -79.91777 -42.752888
3.732672 -81.439361 -42.21146
2.672484 -81.675804 -42.473034
-8.467939 -53.87887 -49.257973
-7.336959 -55.839381 -48.629919
-8.341753 -55.874675 -48.864176
-8.546786 -51.897436 -49.703003
-8.467939 -53.87887 -49.257973
-8.653319 -49.942547 -50.117514
-7.569679 -51.888686 -49.438226
-8.546786 -51.897436 -49.703003
-8.666683 -48.004868 -50.57109
-8.653319 -49.942547 -50.117514
-7.11376 -81.842182 -42.699675
-5.813279 -83.572509 -42.352339
-6.979492 -83.265384 -42.186943
-21.706866 -73.277843 -37.343687
-22.547796 -72.718475 -36.603632
-22.713044 -71.580189 -37.491505
-21.706866 -73.277843 -37.343687
-20.747737 -74.045452 -38.008122
-17.535339 -78.343864 -38.246099
-18.621976 -76.597133 -38.433471
-16.535666 -78.911377 -38.906679
-16.450412 -80.012322 -38.070519
-17.535339 -78.343864 -38.246099
-25.598358 -52.276646 -47.466557
-25.571496 -53.945311 -46.59442
-20.432628 -54.040999 -49.075676
-21.501662 -53.642395 -48.874522
-19.403635 -56.001196 -48.624882
-20.432628 -54.040999 -49.075676
17.466909 -62.747971 -32.166488
17.612777 -61.652057 -31.737702
16.75228 -62.011307 -33.016123
17.466909 -62.747971 -32.166488
17.244905 -63.85672 -32.627519
9.640667 -83.685627 -39.680568
9.844141 -85.300049 -39.448822
8.514146 -83.974956 -40.18652
5.330445 -49.603323 -43.428348
6.339344 -51.168459 -42.640303
5.746458 -51.715 -43.038542
5.330445 -49.603323 -43.428348
4.417285 -48.160944 -44.206347
-2.584328 -76.416562 -44.318224
-1.2115 -78.206913 -43.824438
-2.460845 -78.001824 -44.026203
-8.275888 -59.697466 -48.131153
-8.127363 -61.697285 -47.711792
-9.333186 -59.739355 -48.293777
-8.346242 -57.787361 -48.474631
-7.140419 -59.745291 -47.892645
-8.275888 -59.697466 -48.131153
-8.341753 -55.874675 -48.864176
-8.346242 -57.787361 -48.474631
-6.941332 -87.106141 -40.364877
-6.885127 -88.333466 -39.708746
-6.949582 -85.877831 -41.016182
-6.941332 -87.106141 -40.364877
-8.19987 -85.430748 -40.71932
-6.943566 -84.599075 -41.605116
-6.949582 -85.877831 -41.016182
-8.244047 -82.868747 -41.952452
-6.979492 -83.265384 -42.186943
-6.943566 -84.599075 -41.605116
-26.131423 -67.984848 -35.305064
-25.855837 -69.12389 -34.260847
-25.339104 -68.646404 -36.125088
-26.131423 -67.984848 -35.305064
-26.284498 -66.952008 -36.260005
3.071549 -49.165795 -45.017073
3.770365 -48.651399 -44.607468
4.038742 -50.664259 -44.236193
-4.949653 -43.779835 -50.112213
-4.873907 -45.86281 -49.6294
-5.802058 -44.110899 -50.407419
-4.071053 -43.636553 -49.74912
-4.949653 -43.779835 -50.112213
-28.193051 -63.397175 -36.635765
-27.26624 -65.200901 -36.389364
-29.8031 -61.01005 -36.038581
-30.378816 -60.509856 -35.153406
-29.148966 -61.525698 -36.88256
-29.8031 -61.01005 -36.038581
-30.021626 -59.852749 -36.988361
-28.411578 -62.239874 -37.585544
-28.193051 -63.397175 -36.635765
-29.148966 -61.525698 -36.88256
7.202093 -82.523765 -40.858444
8.514146 -83.974956 -40.18652
7.000818 -80.769371 -41.091223
7.202093 -82.523765 -40.858444
5.892238 -80.932602 -41.531401
0.039798 -78.387932 -43.565461
0.163281 -79.973194 -43.27344
-1.2115 -78.206913 -43.824438
-6.708083 -46.171358 -50.294838
-5.674219 -48.18021 -49.52021
-6.655991 -48.157694 -49.890442
-6.661374 -44.272588 -50.715929
-6.708083 -46.171358 -50.294838
-7.683034 -48.041319 -50.258904
-8.666683 -48.004868 -50.57109
-4.618848 -83.850135 -42.464329
-5.813279 -83.572509 -42.352339
-4.618848 -83.850135 -42.464329
-4.688928 -82.437748 -42.909477
-2.347031 -81.206188 -43.331045
-3.562362 -81.068924 -43.384815
-2.391215 -79.601917 -43.674081
-2.347031 -81.206188 -43.331045
-3.764044 -77.811566 -44.167867
-2.460845 -78.001824 -44.026203
-2.391215 -79.601917 -43.674081
-24.948559 -70.748802 -34.123712
-25.855837 -69.12389 -34.260847
-24.948559 -70.748802 -34.123712
-24.180122 -71.457393 -34.969358
-23.364095 -72.128181 -35.76001
-22.547796 -72.718475 -36.603632
-12.936134 -85.105309 -37.567255
-14.025733 -83.523117 -37.763584
-11.773217 -85.805779 -38.123331
-12.936134 -85.105309 -37.567255
-11.859628 -84.719463 -38.85556
-10.617539 -86.472981 -38.587263
-11.773217 -85.805779 -38.123331
-31.967153 -55.022316 -38.484694
-31.714374 -56.382057 -37.387997
-32.120858 -53.697328 -39.559368
-32.22972 -52.486004 -40.584349
-31.288199 -55.555284 -39.252631
-31.967153 -55.022316 -38.484694
-32.120858 -53.697328 -39.559368
-30.062742 -53.496001 -42.863499
-30.857819 -53.107123 -42.161705
-29.203481 -55.300337 -42.550885
-30.062742 -53.496001 -42.863499
-29.267578 -53.88934 -43.513546
-26.594623 -55.095676 -45.218212
-27.55342 -54.711128 -44.660568
-25.650993 -57.024183 -44.842095
-26.594623 -55.095676 -45.218212
-25.595729 -55.516333 -45.761364
-24.582729 -52.600071 -47.885666
-25.598358 -52.276646 -47.466557
-23.607808 -52.883642 -48.279331
-22.564403 -53.204994 -48.606448
-23.628712 -54.586366 -47.445023
-24.582729 -52.600071 -47.885666
-23.607808 -52.883642 -48.279331
-18.278144 -57.965782 -48.246208
-19.402816 -57.709326 -47.996162
-19.403635 -56.001196 -48.624882
-17.163409 -59.878584 -47.839464
-18.278144 -57.965782 -48.246208
-17.164228 -58.170454 -48.468184
-12.740244 -59.211729 -48.650623
-12.681228 -61.076073 -48.139458
-13.840937 -59.110208 -48.634236
-11.594139 -59.39741 -48.576355
-12.740244 -59.211729 -48.650623
17.505129 -57.550985 -31.220542
17.952782 -59.380268 -30.803292
16.860422 -56.650787 -32.036024
17.505129 -57.550985 -31.220542
17.158279 -59.738951 -32.096409
17.796771 -60.488451 -31.279018
17.612777 -61.652057 -31.737702
16.183901 -55.910584 -32.872377
16.860422 -56.650787 -32.036024
16.665751 -57.83514 -32.474079
15.502755 -55.159525 -33.681478
16.183901 -55.910584 -32.872377
14.788383 -54.200204 -34.46045
15.502755 -55.159525 -33.681478
15.274857 -56.135616 -34.089403
14.046316 -53.276996 -35.264505
14.788383 -54.200204 -34.46045
11.100178 -86.659057 -38.72178
9.844141 -85.300049 -39.448822
11.100178 -86.659057 -38.72178
12.178051 -86.320312 -38.16713
15.40297 -88.048989 -36.017513
14.248916 -87.063626 -36.857507
16.182366 -87.365333 -35.457779
15.40297 -88.048989 -36.017513
16.895813 -86.679203 -34.922084
16.182366 -87.365333 -35.457779
15.825841 -85.811215 -35.787933
17.551168 -85.874855 -34.339441
16.895813 -86.679203 -34.922084
17.551168 -85.874855 -34.339441
17.149573 -84.258259 -34.692747
17.307071 -81.65725 -34.483268
16.756711 -82.481598 -34.995525
16.303922 -80.747413 -35.345539
17.307071 -81.65725 -34.483268
17.789539 -80.633659 -33.929836
17.790682 -75.15823 -33.471652
18.274323 -77.045567 -33.131332
17.42088 -76.252029 -34.005335
18.198065 -74.20655 -32.917387
17.790682 -75.15823 -33.471652
17.344622 -73.413014 -33.79139
18.522712 -73.140915 -32.340965
18.198065 -74.20655 -32.917387
18.062233 -71.358738 -32.690677
18.522712 -73.140915 -32.340965
17.65423 -69.530831 -32.943575
18.062233 -71.358738 -32.690677
17.344002 -70.633426 -33.490022
17.188367 -67.68742 -33.276592
17.65423 -69.530831 -32.943575
16.677407 -65.794334 -33.640936
17.188367 -67.68742 -33.276592
16.425039 -66.912433 -34.107264
16.222177 -64.069702 -33.97438
16.985505 -64.844689 -33.143709
16.677407 -65.794334 -33.640936
13.278341 -52.358034 -36.064986
14.046316 -53.276996 -35.264505
13.79251 -54.257334 -35.668854
12.49338 -51.271801 -36.865305
13.278341 -52.358034 -36.064986
11.67796 -50.127064 -37.662581
12.49338 -51.271801 -36.865305
12.209115 -52.193634 -37.26661
10.877434 -49.141754 -38.469972
11.67796 -50.127064 -37.662581
10.01239 -48.054857 -39.297115
10.877434 -49.141754 -38.469972
10.52865 -49.962 -38.891027
9.182589 -46.861168 -40.114179
10.01239 -48.054857 -39.297115
9.182589 -46.861168 -40.114179
8.838757 -47.709755 -40.489193
6.83326 -50.370873 -42.276329
7.249274 -52.48255 -41.886522
6.339344 -51.168459 -42.640303
7.349277 -49.709173 -41.875153
6.83326 -50.370873 -42.276329
7.850423 -49.013867 -41.440491
8.244336 -50.989657 -41.087887
7.349277 -49.709173 -41.875153
8.379695 -48.419379 -40.956721
7.850423 -49.013867 -41.440491
2.069103 -47.590437 -45.787987
3.071549 -49.165795 -45.017073
2.337481 -49.603296 -45.416712
-2.037351 -47.32415 -48.095589
-2.969463 -47.3668 -48.529038
-3.08939 -45.489095 -48.900745
-1.196177 -47.024055 -47.7213
-1.07625 -48.90176 -47.349592
-2.037351 -47.32415 -48.095589
-0.403325 -46.614998 -47.376292
-1.196177 -47.024055 -47.7213
0.381731 -46.328135 -46.982453
0.54998 -48.314802 -46.581465
-0.403325 -46.614998 -47.376292
1.138764 -46.100674 -46.573553
0.381731 -46.328135 -46.982453
2.069103 -47.590437 -45.787987
1.138764 -46.100674 -46.573553
3 0 54 52
3 0 56 54
3 212 58 213
3 1 61 59
3 1 63 61
3 2 66 64
3 2 68 66
3 2 70 68
3 214 72 215
3 4 75 73
3 4 77 75
3 4 79 77
3 6 83 81
3 6 85 83
3 7 216 218
3 218 217 86
3 216 217 218
3 7 219 221
3 219 87 220
3 219 220 221
3 7 89 87
3 8 92 90
3 8 94 92
3 222 96 223
3 3 99 97
3 9 102 100
3 9 104 102
3 9 106 104
3 10 109 107
3 10 111 109
3 10 113 111
3 225 224 114
3 5 117 115
3 11 120 118
3 13 121 53
3 13 122 121
3 13 124 122
3 227 226 55
3 15 125 57
3 15 126 125
3 16 228 230
3 228 128 229
3 228 229 230
3 18 129 60
3 18 130 129
3 18 132 130
3 20 133 62
3 20 134 133
3 21 137 135
3 23 138 65
3 23 139 138
3 23 141 139
3 25 142 67
3 25 143 142
3 25 145 143
3 27 146 69
3 27 147 146
3 232 231 148
3 28 150 71
3 28 151 150
3 29 233 234
3 29 235 237
3 235 152 236
3 235 236 237
3 12 153 119
3 30 154 74
3 30 155 154
3 30 156 155
3 31 157 76
3 31 158 157
3 31 160 158
3 33 161 78
3 33 162 161
3 14 163 123
3 34 164 80
3 34 165 164
3 34 238 240
3 240 239 165
3 238 239 240
3 35 241 243
3 243 242 82
3 241 242 243
3 35 244 246
3 244 166 245
3 244 245 246
3 35 167 166
3 36 168 84
3 36 169 168
3 17 247 249
3 249 248 127
3 247 248 249
3 37 250 251
3 37 252 254
3 252 170 253
3 252 253 254
3 37 171 170
3 38 172 88
3 38 173 172
3 19 174 131
3 39 175 91
3 39 176 175
3 39 177 176
3 40 178 93
3 40 179 178
3 255 180 256
3 257 181 258
3 259 258 180
3 257 258 259
3 260 182 261
3 262 183 263
3 264 263 182
3 262 263 264
3 41 265 267
3 265 184 266
3 265 266 267
3 41 185 184
3 42 268 270
3 268 186 269
3 268 269 270
3 42 187 186
3 42 188 187
3 271 189 272
3 273 190 274
3 275 274 189
3 273 274 275
3 277 276 190
3 278 191 279
3 43 192 95
3 43 193 192
3 44 280 282
3 282 281 98
3 280 281 282
3 44 283 285
3 283 194 284
3 283 284 285
3 22 195 136
3 45 196 101
3 45 197 196
3 45 286 288
3 288 287 197
3 286 287 288
3 46 289 291
3 291 290 103
3 289 290 291
3 46 292 293
3 46 294 295
3 47 198 105
3 47 199 198
3 24 200 140
3 48 201 108
3 48 202 201
3 48 203 202
3 49 204 110
3 49 205 204
3 49 206 205
3 50 207 112
3 50 296 298
3 298 297 207
3 296 297 298
3 26 208 144
3 32 209 159
3 51 210 116
3 51 211 210
3 300 299 149
3 52 53 11
3 54 53 52
3 54 13 53
3 54 55 13
3 56 55 54
3 56 301 303
3 303 302 55
3 301 302 303
3 304 57 305
3 58 306 308
3 306 57 307
3 306 307 308
3 58 15 57
3 59 60 16
3 61 60 59
3 61 18 60
3 61 62 18
3 63 62 61
3 63 20 62
3 64 65 21
3 66 65 64
3 66 23 65
3 66 67 23
3 68 67 66
3 68 25 67
3 68 69 25
3 70 69 68
3 70 27 69
3 309 71 310
3 311 71 312
3 313 28 314
3 315 314 71
3 313 314 315
3 72 316 317
3 72 318 320
3 318 29 319
3 318 319 320
3 73 74 12
3 75 74 73
3 75 30 74
3 75 76 30
3 77 76 75
3 77 31 76
3 77 78 31
3 79 78 77
3 79 33 78
3 321 80 322
3 323 322 14
3 321 322 323
3 324 80 325
3 326 34 327
3 328 327 80
3 326 327 328
3 330 329 34
3 81 331 333
3 331 82 332
3 331 332 333
3 83 82 81
3 83 35 82
3 83 84 35
3 85 84 83
3 85 36 84
3 86 334 336
3 336 335 17
3 334 335 336
3 338 337 86
3 87 339 340
3 87 341 343
3 341 37 342
3 341 342 343
3 87 88 37
3 89 88 87
3 89 38 88
3 90 91 19
3 92 91 90
3 92 39 91
3 92 93 39
3 94 93 92
3 94 40 93
3 344 41 345
3 346 42 347
3 349 348 42
3 350 95 351
3 96 352 354
3 352 95 353
3 352 353 354
3 96 43 95
3 97 355 357
3 355 98 356
3 355 356 357
3 99 98 97
3 99 44 98
3 100 101 22
3 102 101 100
3 102 45 101
3 102 103 45
3 104 103 102
3 104 46 103
3 104 105 46
3 106 105 104
3 106 47 105
3 107 108 24
3 109 108 107
3 109 48 108
3 109 110 48
3 111 110 109
3 111 49 110
3 111 112 49
3 113 112 111
3 113 50 112
3 114 358 360
3 360 359 26
3 358 359 360
3 362 361 114
3 115 116 32
3 117 116 115
3 117 51 116
3 118 363 365
3 363 119 364
3 363 364 365
3 120 119 118
3 120 12 119
3 53 120 11
3 121 120 53
3 121 12 120
3 121 73 12
3 122 73 121
3 122 4 73
3 122 123 4
3 124 123 122
3 124 14 123
3 55 124 13
3 366 124 367
3 368 367 55
3 366 367 368
3 369 14 370
3 371 370 124
3 369 370 371
3 373 372 14
3 57 374 375
3 125 376 378
3 378 377 57
3 376 377 378
3 125 379 380
3 125 381 383
3 381 81 382
3 381 382 383
3 126 81 125
3 126 6 81
3 384 127 385
3 128 386 388
3 386 127 387
3 386 387 388
3 128 17 127
3 60 128 16
3 129 128 60
3 129 17 128
3 129 86 17
3 130 86 129
3 130 7 86
3 130 131 7
3 132 131 130
3 132 19 131
3 62 132 18
3 133 132 62
3 133 19 132
3 133 90 19
3 134 90 133
3 134 8 90
3 135 136 3
3 137 136 135
3 137 22 136
3 65 137 21
3 138 137 65
3 138 22 137
3 138 100 22
3 139 100 138
3 139 9 100
3 139 140 9
3 141 140 139
3 141 24 140
3 67 141 23
3 142 141 67
3 142 24 141
3 142 107 24
3 143 107 142
3 143 10 107
3 143 144 10
3 145 144 143
3 145 26 144
3 69 145 25
3 146 145 69
3 146 26 145
3 146 114 26
3 147 114 146
3 147 389 391
3 391 390 114
3 389 390 391
3 148 149 5
3 392 149 393
3 394 393 148
3 392 393 394
3 396 395 149
3 397 16 398
3 71 399 400
3 150 401 403
3 403 402 71
3 401 402 403
3 150 404 406
3 404 16 405
3 404 405 406
3 150 59 16
3 151 59 150
3 151 1 59
3 407 97 408
3 152 409 411
3 409 97 410
3 409 410 411
3 152 3 97
3 119 412 414
3 412 72 413
3 412 413 414
3 153 72 119
3 153 29 72
3 74 153 12
3 154 153 74
3 154 29 153
3 154 152 29
3 155 152 154
3 155 3 152
3 155 135 3
3 156 135 155
3 156 21 135
3 76 156 30
3 157 156 76
3 157 21 156
3 157 64 21
3 158 64 157
3 158 2 64
3 158 159 2
3 160 159 158
3 160 32 159
3 78 160 31
3 161 160 78
3 161 32 160
3 161 115 32
3 162 115 161
3 162 5 115
3 123 79 4
3 163 79 123
3 163 33 79
3 80 163 14
3 164 163 80
3 164 33 163
3 164 162 33
3 165 162 164
3 165 5 162
3 165 148 5
3 415 148 416
3 417 416 165
3 415 416 417
3 419 418 148
3 421 420 34
3 82 422 423
3 425 424 82
3 166 426 427
3 166 428 429
3 166 430 432
3 430 118 431
3 430 431 432
3 167 118 166
3 167 11 118
3 84 167 35
3 168 167 84
3 168 11 167
3 168 52 11
3 169 52 168
3 169 0 52
3 127 433 434
3 436 435 127
3 438 437 17
3 170 439 440
3 170 441 442
3 170 443 445
3 443 58 444
3 443 444 445
3 171 58 170
3 171 15 58
3 88 171 37
3 172 171 88
3 172 15 171
3 172 126 15
3 173 126 172
3 173 6 126
3 131 89 7
3 174 89 131
3 174 38 89
3 91 174 19
3 175 174 91
3 175 38 174
3 175 173 38
3 176 173 175
3 176 6 173
3 176 85 6
3 177 85 176
3 177 36 85
3 93 177 39
3 178 177 93
3 178 36 177
3 178 169 36
3 179 169 178
3 179 0 169
3 446 28 447
3 180 448 449
3 180 450 452
3 450 28 451
3 450 451 452
3 180 151 28
3 181 151 180
3 181 1 151
3 453 181 454
3 182 455 457
3 455 181 456
3 455 456 457
3 182 1 181
3 182 63 1
3 183 63 182
3 183 20 63
3 458 183 459
3 184 460 462
3 460 183 461
3 460 461 462
3 184 20 183
3 184 134 20
3 185 134 184
3 185 8 134
3 463 41 464
3 186 465 466
3 186 467 469
3 467 41 468
3 467 468 469
3 186 185 41
3 187 185 186
3 187 8 185
3 187 94 8
3 188 94 187
3 188 40 94
3 470 188 471
3 472 471 42
3 470 471 472
3 189 473 475
3 473 188 474
3 473 474 475
3 189 40 188
3 189 179 40
3 190 179 189
3 190 0 179
3 190 56 0
3 476 56 477
3 478 477 190
3 476 477 478
3 480 479 56
3 191 481 482
3 191 483 484
3 95 485 487
3 485 191 486
3 485 486 487
3 192 191 95
3 192 488 490
3 490 489 191
3 488 489 490
3 192 491 492
3 193 493 495
3 495 494 192
3 493 494 495
3 193 496 497
3 98 498 499
3 501 500 98
3 194 502 503
3 194 504 505
3 136 99 3
3 195 99 136
3 195 44 99
3 101 195 22
3 196 195 101
3 196 44 195
3 196 194 44
3 197 194 196
3 197 506 508
3 508 507 194
3 506 507 508
3 197 509 510
3 512 511 197
3 103 513 515
3 515 514 45
3 513 514 515
3 517 516 103
3 105 518 520
3 520 519 46
3 518 519 520
3 198 521 523
3 523 522 105
3 521 522 523
3 198 524 525
3 198 526 527
3 199 528 530
3 530 529 198
3 528 529 530
3 199 531 532
3 140 106 9
3 200 106 140
3 200 47 106
3 108 200 24
3 201 200 108
3 201 47 200
3 201 199 47
3 202 199 201
3 202 533 535
3 535 534 199
3 533 534 535
3 202 536 538
3 536 96 537
3 536 537 538
3 203 96 202
3 203 43 96
3 110 203 48
3 204 203 110
3 204 43 203
3 204 193 43
3 205 193 204
3 205 539 541
3 541 540 193
3 539 540 541
3 205 542 543
3 206 544 546
3 546 545 205
3 544 545 546
3 206 547 548
3 112 206 49
3 207 206 112
3 207 549 551
3 551 550 206
3 549 550 551
3 207 552 553
3 555 554 207
3 144 113 10
3 208 113 144
3 208 50 113
3 556 208 557
3 558 557 26
3 556 557 558
3 559 208 560
3 561 50 562
3 563 562 208
3 561 562 563
3 565 564 50
3 159 70 2
3 209 70 159
3 209 27 70
3 116 209 32
3 210 209 116
3 210 27 209
3 210 147 27
3 211 147 210
3 211 566 568
3 568 567 147
3 566 567 568
3 149 117 5
3 569 117 570
3 571 570 149
3 569 570 571
3 572 51 573
3 574 573 117
3 572 573 574
3 575 51 576
3 577 211 578
3 579 578 51
3 577 578 579
3 580 211 581
3 583 582 211
