ply
format ascii 1.0
element vertex 243
property float x
property float y
property float z
element face 217
property list uchar int vertex_index
end_header
28.533028 -61.504387 -13.996135
28.818604 -64.21405 -23.774693
27.310711 -65.971901 -32.64283
26.428782 -66.695969 -14.689404
28.79034 -63.010532 -18.92079
26.161314 -68.709404 -19.651012
20.525904 -77.855659 -29.94315
24.612293 -71.583359 -29.260714
23.051771 -72.491745 -33.439953
30.919535 -57.397522 -18.386124
31.341959 -58.419144 -23.069662
31.486425 -58.970665 -27.654343
17.835657 -82.692017 -26.305971
28.381254 -65.161041 -28.466724
25.118294 -69.510941 -14.986058
26.361528 -67.674324 -17.223398
25.020105 -70.415031 -17.520441
19.440319 -78.63829 -32.049412
21.697147 -75.344818 -31.857836
29.460131 -58.944942 -13.856179
30.585606 -56.897415 -15.929866
29.718985 -59.498585 -16.146528
28.915182 -63.507545 -21.381483
30.085854 -60.717442 -20.909515
30.20652 -61.174026 -23.327293
31.472141 -58.726345 -25.380272
30.090298 -61.829971 -25.682331
16.838875 -83.615372 -28.649744
26.019854 -68.759766 -30.991749
26.555178 -68.389397 -28.781849
27.933546 -65.568123 -30.609177
29.669582 -62.488285 -30.12262
27.59812 -63.993546 -14.462627
28.760384 -62.161102 -16.622694
27.584227 -64.969154 -16.877981
27.585575 -65.736107 -19.255476
27.512278 -66.462296 -21.622158
21.216982 -77.353386 -27.787317
22.627337 -74.680618 -29.676561
23.922586 -72.077438 -31.328295
25.260424 -69.219391 -33.002384
29.892931 -60.219364 -18.530512
31.104031 -58.034031 -20.593882
19.11277 -80.487709 -28.066036
18.222921 -81.14093 -30.273985
23.880695 -71.270729 -12.723876
27.329134 -67.171562 -24.081055
26.960142 -67.912994 -26.504644
28.639805 -64.779701 -26.185272
29.96419 -62.160965 -27.965006
31.237741 -59.410698 -29.917873
24.333321 -69.57679 -35.00774
24.36768 -71.391468 -16.497545
25.069199 -69.962986 -16.25325
24.416775 -70.939423 -15.230353
20.080554 -77.248184 -32.895477
18.867506 -78.868946 -33.093737
28.260915 -64.363928 -32.469195
28.572333 -64.162039 -31.452368
27.622129 -65.770012 -31.626003
31.321407 -56.073637 -18.234451
31.154443 -55.823583 -17.006321
30.75257 -57.147469 -17.157995
31.462199 -56.361592 -19.354173
31.321407 -56.073637 -18.234451
31.840348 -57.014803 -22.879805
31.721384 -56.822246 -21.641915
31.222995 -58.226588 -21.831772
31.949022 -57.171251 -24.024392
31.840348 -57.014803 -22.879805
32.09513 -57.525034 -27.449169
32.087988 -57.402874 -26.312134
31.479283 -58.848505 -26.517308
32.101901 -57.583446 -28.602797
32.09513 -57.525034 -27.449169
18.336818 -82.078518 -25.076491
17.251525 -83.642827 -25.357131
18.929105 -81.10389 -26.025678
18.336818 -82.078518 -25.076491
18.474214 -81.589863 -27.186003
19.567661 -80.001735 -26.90571
18.929105 -81.10389 -26.025678
16.997912 -82.779209 -30.443718
17.530898 -82.378151 -29.461864
16.305889 -84.01643 -29.631597
17.640234 -81.492843 -31.333064
16.997912 -82.779209 -30.443718
23.933481 -70.772438 -11.464196
24.542615 -69.898278 -12.611004
26.503804 -68.703907 -24.321949
26.619096 -68.399902 -23.096835
24.911797 -71.272221 -28.120525
23.952846 -72.849186 -28.337703
31.075943 -59.507874 -31.009893
30.453661 -60.949491 -30.020246
30.291863 -61.046667 -31.112267
31.851611 -57.954729 -30.851468
31.075943 -59.507874 -31.009893
25.00448 -67.945412 -35.824179
23.895543 -69.496696 -36.01547
26.093979 -66.308781 -35.651727
25.422821 -67.940159 -34.835289
25.00448 -67.945412 -35.824179
21.208968 -75.601448 -32.799689
20.568733 -76.991554 -31.953624
20.080554 -77.248184 -32.895477
21.88628 -74.174912 -33.590748
22.374459 -73.918282 -32.648894
21.208968 -75.601448 -32.799689
30.022869 -57.921178 -14.893023
30.408455 -56.669773 -14.736603
29.845717 -57.693537 -13.699759
16.697124 -84.27129 -26.462156
17.251525 -83.642827 -25.357131
16.198733 -84.732968 -27.634042
17.337266 -83.153695 -27.477857
16.697124 -84.27129 -26.462156
15.653642 -85.212941 -28.682339
16.198733 -84.732968 -27.634042
15.0135 -86.330536 -27.666638
16.305889 -84.01643 -29.631597
15.653642 -85.212941 -28.682339
29.440351 -62.62212 -31.209089
28.801564 -64.028204 -30.365899
28.572333 -64.162039 -31.452368
30.291863 -61.046667 -31.112267
29.440351 -62.62212 -31.209089
22.25519 -75.7342 -27.601005
21.660587 -76.813645 -26.640208
22.960368 -74.397816 -28.545626
22.25519 -75.7342 -27.601005
21.922159 -76.017002 -28.731939
23.619815 -73.131989 -29.468637
23.952846 -72.849186 -28.337703
22.960368 -74.397816 -28.545626
30.942744 -55.671695 -15.831271
30.408455 -56.669773 -14.736603
30.942744 -55.671695 -15.831271
31.154443 -55.823583 -17.006321
31.554447 -56.679846 -20.458052
31.462199 -56.361592 -19.354173
31.011783 -57.715777 -19.490003
31.554447 -56.679846 -20.458052
31.721384 -56.822246 -21.641915
32.014112 -57.324852 -25.179697
31.949022 -57.171251 -24.024392
31.40705 -58.572744 -24.224967
32.014112 -57.324852 -25.179697
32.087988 -57.402874 -26.312134
20.619767 -78.434574 -26.766351
21.660587 -76.813645 -26.640208
20.164876 -78.920547 -27.926676
20.619767 -78.434574 -26.766351
19.567661 -80.001735 -26.90571
18.248933 -80.241523 -32.220777
18.83162 -79.88961 -31.161698
17.640234 -81.492843 -31.333064
18.867506 -78.868946 -33.093737
18.248933 -80.241523 -32.220777
29.349403 -58.585707 -12.674948
29.845717 -57.693537 -13.699759
28.917427 -59.845176 -12.754357
29.349403 -58.585707 -12.674948
28.453876 -61.124899 -12.824336
28.99658 -60.224665 -13.926157
28.917427 -59.845176 -12.754357
27.98481 -62.376328 -12.925761
28.453876 -61.124899 -12.824336
27.517356 -63.620907 -13.159007
28.065574 -62.748967 -14.229381
27.98481 -62.376328 -12.925761
26.995942 -64.898877 -13.284568
27.517356 -63.620907 -13.159007
26.411273 -66.250088 -13.397956
27.013451 -65.344758 -14.576016
26.995942 -64.898877 -13.284568
25.816659 -67.610897 -13.593768
26.411273 -66.250088 -13.397956
25.161414 -69.018383 -13.742095
25.773538 -68.103455 -14.837731
25.816659 -67.610897 -13.593768
24.499494 -70.390835 -13.854967
25.161414 -69.018383 -13.742095
24.542615 -69.898278 -12.611004
23.797975 -71.819317 -14.099262
24.416775 -70.939423 -15.230353
24.499494 -70.390835 -13.854967
23.263361 -72.12402 -11.58471
23.933481 -70.772438 -11.464196
23.198323 -72.637439 -12.976716
23.263361 -72.12402 -11.58471
22.580989 -73.49073 -11.83755
23.797975 -71.819317 -14.099262
23.198323 -72.637439 -12.976716
24.22672 -71.935882 -17.708496
24.36768 -71.391468 -16.497545
24.821412 -71.044799 -18.723069
24.22672 -71.935882 -17.708496
25.392017 -70.191986 -19.788355
25.59071 -69.562218 -18.585726
24.821412 -71.044799 -18.723069
26.035186 -69.168823 -20.881814
25.392017 -70.191986 -19.788355
26.710668 -68.045269 -21.867387
26.836796 -67.58585 -20.636585
26.035186 -69.168823 -20.881814
27.420706 -66.816929 -22.851606
26.710668 -68.045269 -21.867387
26.619096 -68.399902 -23.096835
25.883239 -69.67524 -27.881092
24.911797 -71.272221 -28.120525
25.583736 -69.986378 -29.021282
26.085721 -69.437038 -26.742489
25.883239 -69.67524 -27.881092
26.75766 -68.151196 -27.643247
26.319308 -69.074623 -25.533743
26.085721 -69.437038 -26.742489
27.144638 -67.542278 -25.292849
26.503804 -68.703907 -24.321949
26.319308 -69.074623 -25.533743
31.977559 -57.803463 -29.734561
32.101901 -57.583446 -28.602797
31.362083 -59.190681 -28.786108
32.591429 -56.347494 -30.668157
31.977559 -57.803463 -29.734561
31.851611 -57.954729 -30.851468
22.497211 -72.685341 -34.473404
21.88628 -74.174912 -33.590748
23.137987 -71.227863 -35.257297
23.895543 -69.496696 -36.01547
23.692546 -71.034267 -34.223847
22.497211 -72.685341 -34.473404
23.137987 -71.227863 -35.257297
25.886372 -67.76146 -33.832611
24.796872 -69.39809 -34.005062
25.422821 -67.940159 -34.835289
26.911516 -66.137715 -33.652834
26.285567 -67.595646 -32.822607
25.886372 -67.76146 -33.832611
27.90036 -64.555844 -33.501566
26.911516 -66.137715 -33.652834
28.260915 -64.363928 -32.469195
27.90036 -64.555844 -33.501566
3 52 16 53
3 54 53 14
3 52 53 54
3 56 55 17
3 0 21 19
3 1 24 22
3 1 26 24
3 2 30 28
3 2 57 59
3 59 58 30
3 57 58 59
3 3 34 32
3 5 35 15
3 5 36 35
3 6 38 37
3 8 39 18
3 8 40 39
3 9 60 62
3 62 61 20
3 60 61 62
3 9 63 64
3 4 41 33
3 10 42 23
3 10 65 67
3 67 66 42
3 65 66 67
3 10 68 69
3 11 70 72
3 72 71 25
3 70 71 72
3 11 73 74
3 12 75 76
3 12 77 78
3 12 79 81
3 79 43 80
3 79 80 81
3 82 44 83
3 84 83 27
3 82 83 84
3 86 85 44
3 87 45 88
3 89 46 90
3 7 91 92
3 13 47 29
3 13 48 47
3 13 49 48
3 93 50 94
3 95 94 31
3 93 94 95
3 97 96 50
3 98 51 99
3 102 101 51
3 100 101 102
3 14 15 3
3 16 15 14
3 16 5 15
3 17 18 6
3 103 18 104
3 105 104 17
3 103 104 105
3 106 8 107
3 108 107 18
3 106 107 108
3 19 109 111
3 109 20 110
3 109 110 111
3 21 20 19
3 21 9 20
3 22 23 4
3 24 23 22
3 24 10 23
3 24 25 10
3 26 25 24
3 26 11 25
3 112 12 113
3 114 27 115
3 116 115 12
3 114 115 116
3 117 27 118
3 117 118 119
3 121 120 27
3 28 29 7
3 30 29 28
3 30 13 29
3 30 31 13
3 122 31 123
3 124 123 30
3 122 123 124
3 126 125 31
3 32 33 0
3 34 33 32
3 34 4 33
3 15 34 3
3 35 34 15
3 35 4 34
3 35 22 4
3 36 22 35
3 36 1 22
3 37 127 128
3 38 129 131
3 131 130 37
3 129 130 131
3 38 132 134
3 132 7 133
3 132 133 134
3 18 38 6
3 39 38 18
3 39 7 38
3 39 28 7
3 40 28 39
3 40 2 28
3 20 135 136
3 138 137 20
3 33 21 0
3 41 21 33
3 41 9 21
3 23 41 4
3 42 41 23
3 42 9 41
3 42 139 141
3 141 140 9
3 139 140 141
3 143 142 42
3 25 144 146
3 146 145 10
3 144 145 146
3 148 147 25
3 149 37 150
3 43 151 153
3 151 37 152
3 151 152 153
3 43 6 37
3 27 43 12
3 44 43 27
3 44 6 43
3 44 17 6
3 154 17 155
3 156 155 44
3 154 155 156
3 158 157 17
3 159 19 160
3 161 19 162
3 163 0 164
3 165 164 19
3 163 164 165
3 166 0 167
3 168 32 169
3 170 169 0
3 168 169 170
3 171 32 172
3 173 3 174
3 175 174 32
3 173 174 175
3 176 3 177
3 178 14 179
3 180 179 3
3 178 179 180
3 45 181 183
3 181 14 182
3 181 182 183
3 45 184 186
3 186 185 14
3 184 185 186
3 187 45 188
3 189 45 190
3 189 190 191
3 193 192 45
3 194 16 195
3 196 16 197
3 198 5 199
3 200 199 16
3 198 199 200
3 201 5 202
3 203 36 204
3 205 204 5
3 203 204 205
3 46 206 208
3 206 36 207
3 206 207 208
3 46 1 36
3 29 209 211
3 211 210 7
3 209 210 211
3 47 212 214
3 214 213 29
3 212 213 214
3 47 215 216
3 47 217 219
3 217 46 218
3 217 218 219
3 48 46 47
3 48 1 46
3 48 26 1
3 49 26 48
3 49 11 26
3 31 49 13
3 50 49 31
3 50 11 49
3 50 220 222
3 222 221 11
3 220 221 222
3 225 224 50
3 223 224 225
3 226 8 227
3 51 228 229
3 51 230 232
3 230 8 231
3 230 231 232
3 51 40 8
3 233 40 234
3 235 234 51
3 233 234 235
3 236 2 237
3 238 237 40
3 236 237 238
3 239 2 240
3 242 241 2
