ply
format ascii 1.0
element vertex 292
property float x
property float y
property float z
element face 284
property list uchar int vertex_index
end_header
13.501556 38.421734 -31.474936
11.195627 47.344051 -37.70937
13.67175 27.895699 -18.814072
14.912522 27.145908 -13.550119
13.085152 39.913818 -23.335815
12.51213 43.311134 -34.526249
12.694709 41.893986 -39.316936
13.709452 33.954002 -17.791292
14.030133 27.68243 -15.970418
13.568707 40.304974 -20.181709
13.306085 34.046883 -20.892105
14.157102 33.422016 -28.408224
10.754557 45.409679 -42.31078
11.673503 49.071606 -33.52227
12.545908 44.287266 -30.171745
12.793027 45.591999 -26.41678
13.097261 39.026192 -27.194925
13.483118 33.680874 -24.39291
13.898439 28.210323 -22.114229
13.051982 40.908585 -33.058899
13.222508 40.48901 -35.315857
13.745407 38.281487 -33.750843
14.081804 33.776695 -16.498722
13.614765 37.237362 -19.005957
14.47219 30.733225 -27.043129
10.410015 48.865124 -39.333252
10.025327 47.871605 -41.544857
11.017369 46.19891 -40.058113
13.992917 25.258516 -19.420515
13.983003 24.938477 -17.911606
14.413662 27.303732 -14.695873
14.315395 24.488134 -15.277479
11.971468 49.855591 -31.454344
12.158311 46.828617 -31.764126
12.342095 47.666908 -29.722593
13.191743 43.185295 -23.10483
13.08612 46.094166 -24.625647
12.952221 42.782806 -24.904093
12.842831 42.257931 -26.730568
13.033535 39.306168 -25.194252
13.298717 36.382107 -25.751148
13.174754 36.724144 -23.8939
13.448314 31.084757 -19.836517
13.499709 30.885698 -21.448067
13.702745 28.073009 -20.35244
14.158882 25.588919 -21.094669
11.909719 45.354458 -36.201923
11.863657 44.54018 -38.366383
12.605894 42.55164 -36.827606
13.572618 30.777111 -18.271828
13.793329 27.625618 -17.288006
13.821352 30.66926 -16.865604
14.228806 30.786993 -15.532023
14.744718 30.535023 -14.345993
13.546597 43.51091 -21.481443
13.284135 40.110252 -21.601994
13.189446 36.950405 -22.125866
13.334272 37.024239 -20.501499
13.44189 33.943466 -19.247715
13.881401 35.831997 -29.9254
8.971174 49.22678 -42.94849
9.695312 46.759819 -43.682739
11.755322 43.836269 -40.760864
14.102258 24.637968 -16.50844
11.414926 48.254848 -35.605137
12.010753 46.119595 -33.988762
12.53229 43.677353 -32.297432
12.941226 41.205299 -30.805103
12.960763 48.701199 -26.068371
12.605118 48.210068 -27.880659
12.60769 45.030544 -28.322273
12.838402 41.797192 -28.66954
13.247703 38.849426 -29.310736
13.505356 36.31636 -27.752357
13.763568 33.635963 -26.409342
14.006728 30.851791 -25.037498
13.326328 33.840443 -22.609909
13.684813 30.832005 -23.157097
14.238689 28.304108 -23.896578
14.493759 25.688774 -22.734564
14.929557 29.493011 -27.49732
14.63506 29.411565 -26.4531
14.804884 25.567313 -13.769588
14.555454 25.646225 -14.342465
14.663092 27.22482 -14.122996
15.042816 25.477832 -13.197716
14.804884 25.567313 -13.769588
12.145789 50.352648 -30.51617
11.955749 51.454361 -31.360335
12.331102 49.258307 -29.650294
12.156782 48.761249 -30.588468
12.145789 50.352648 -30.51617
13.347786 40.207407 -36.517634
13.667753 39.182535 -35.740825
14.431401 32.309995 -15.389632
14.155305 32.281844 -16.015373
14.3579 33.804845 -15.872981
14.689357 32.18401 -14.796616
14.486762 30.661008 -14.939008
14.431401 32.309995 -15.389632
13.557652 41.907942 -20.831576
13.773692 43.572258 -20.730021
13.784747 41.96929 -20.080154
14.4156 33.296307 -29.522305
14.27775 34.501297 -30.280893
14.019251 34.627007 -29.166812
9.213773 49.8724 -41.875725
8.654301 50.626182 -42.611635
10.671598 44.874265 -43.465599
10.141976 45.549335 -44.151579
10.224934 46.084749 -42.996759
14.416398 23.122584 -15.584152
14.519611 22.972086 -14.951942
11.383571 50.204102 -34.279421
11.593421 50.612042 -33.289825
11.544214 48.663227 -34.563704
11.254282 49.795722 -35.320854
11.383571 50.204102 -34.279421
14.48925 24.359689 -21.410463
14.319047 24.347516 -20.630868
13.929202 38.078773 -34.958319
13.667753 39.182535 -35.740825
13.483957 39.385249 -34.53335
14.053121 35.477323 -17.033441
13.895628 33.865348 -17.145007
13.866945 35.565977 -17.679725
14.319786 35.396679 -16.375355
14.053121 35.477323 -17.033441
14.3579 33.804845 -15.872981
14.319786 35.396679 -16.375355
13.784511 40.422764 -19.472879
13.784747 41.96929 -20.080154
13.80754 38.888958 -18.885002
13.591736 38.771168 -19.593833
13.784511 40.422764 -19.472879
13.819602 37.207657 -18.287058
13.80754 38.888958 -18.885002
13.866945 35.565977 -17.679725
13.662109 35.595682 -18.398624
13.819602 37.207657 -18.287058
14.738724 30.737808 -28.097336
14.58118 32.082203 -28.779884
14.314646 32.077621 -27.725676
14.738724 30.737808 -28.097336
14.929557 29.493011 -27.49732
10.217671 48.368364 -40.439054
9.74085 49.194813 -41.173908
9.933194 49.691572 -40.068106
12.687127 41.694615 -40.516832
13.145992 40.797886 -39.774843
14.186107 23.95004 -19.051786
14.236065 24.182315 -19.793791
14.18115 23.79002 -18.297332
14.186107 23.95004 -19.051786
13.98796 25.098496 -18.666061
14.174774 23.641346 -17.587362
14.18115 23.79002 -18.297332
14.506321 24.238426 -14.633268
14.364529 25.895933 -14.986676
14.555454 25.646225 -14.342465
14.519611 22.972086 -14.951942
14.506321 24.238426 -14.633268
11.742403 51.004034 -32.255862
11.955749 51.454361 -31.360335
11.822485 49.463599 -32.488307
11.593421 50.612042 -33.289825
11.742403 51.004034 -32.255862
13.138931 44.63973 -23.865239
13.303021 46.315918 -23.733201
13.355832 44.861483 -22.972792
14.236065 24.182315 -19.793791
14.319047 24.347516 -20.630868
14.0759 25.423718 -20.257592
13.039479 41.238722 -37.273508
12.914201 41.520325 -36.071731
13.347786 40.207407 -36.517634
13.083887 40.909895 -38.518173
12.650301 42.222813 -38.072271
13.039479 41.238722 -37.273508
13.145992 40.797886 -39.774843
13.083887 40.909895 -38.518173
13.791948 45.137402 -21.359243
13.773692 43.572258 -20.730021
13.533259 45.02429 -22.161099
13.791948 45.137402 -21.359243
13.36917 43.348103 -22.293136
13.355832 44.861483 -22.972792
13.533259 45.02429 -22.161099
14.073557 35.778878 -31.098956
13.883634 37.073746 -31.873724
13.691479 37.126866 -30.700168
14.073557 35.778878 -31.098956
14.27775 34.501297 -30.280893
14.4156 33.296307 -29.522305
14.58118 32.082203 -28.779884
8.389187 49.845301 -43.584188
8.654301 50.626182 -42.611635
8.70826 48.608644 -44.010841
8.389187 49.845301 -43.584188
9.498251 48.549193 -42.246673
9.213773 49.8724 -41.875725
9.74085 49.194813 -41.173908
9.070329 47.375164 -44.377966
8.70826 48.608644 -44.010841
9.333243 47.993299 -43.315614
9.521611 46.191822 -44.766899
9.070329 47.375164 -44.377966
9.521611 46.191822 -44.766899
10.141976 45.549335 -44.151579
12.217433 42.665756 -41.238796
12.225015 42.865127 -40.0389
12.687127 41.694615 -40.516832
11.722889 43.434099 -41.945479
12.217433 42.665756 -41.238796
11.222506 44.220804 -42.720437
11.254939 44.622974 -41.535822
11.722889 43.434099 -41.945479
10.671598 44.874265 -43.465599
11.222506 44.220804 -42.720437
14.00556 37.003622 -33.011677
13.623482 38.35161 -32.61289
13.883634 37.073746 -31.873724
14.22687 36.947321 -34.220985
14.00556 37.003622 -33.011677
13.929202 38.078773 -34.958319
14.22687 36.947321 -34.220985
14.234402 23.491091 -16.885779
14.174774 23.641346 -17.587362
14.042631 24.788222 -17.210023
14.30983 23.197501 -16.199632
14.208827 24.563051 -15.892959
14.416398 23.122584 -15.584152
14.234402 23.491091 -16.885779
14.30983 23.197501 -16.199632
15.011533 32.060957 -14.233885
14.689357 32.18401 -14.796616
15.050189 30.379651 -13.821634
15.011533 32.060957 -14.233885
15.13409 28.685094 -13.423697
14.82862 28.840466 -13.948056
15.050189 30.379651 -13.821634
15.214768 26.838247 -13.018019
15.13409 28.685094 -13.423697
15.042816 25.477832 -13.197716
15.214768 26.838247 -13.018019
10.161286 50.371973 -39.02863
9.933194 49.691572 -40.068106
10.566854 49.506911 -38.251497
10.161286 50.371973 -39.02863
10.959661 48.746374 -37.439556
10.802821 48.104588 -38.521311
10.566854 49.506911 -38.251497
11.06931 49.201773 -36.38744
11.254282 49.795722 -35.320854
11.305276 47.79945 -36.657253
10.959661 48.746374 -37.439556
11.06931 49.201773 -36.38744
13.245362 47.663004 -24.512918
13.303021 46.315918 -23.733201
13.182683 48.966521 -25.234279
13.245362 47.663004 -24.512918
13.023442 47.397683 -25.347009
13.133328 50.41821 -26.002624
13.182683 48.966521 -25.234279
12.867664 50.097987 -26.877119
13.133328 50.41821 -26.002624
12.689841 49.852421 -27.783263
12.867664 50.097987 -26.877119
12.78294 48.455634 -26.974515
12.462613 49.529887 -28.729327
12.689841 49.852421 -27.783263
12.473606 47.938488 -28.801626
12.331102 49.258307 -29.650294
12.462613 49.529887 -28.729327
14.40233 29.470848 -25.450284
14.63506 29.411565 -26.4531
14.239459 30.792508 -26.040313
14.51831 28.197007 -24.879824
14.40233 29.470848 -25.450284
14.122709 29.577949 -24.467038
14.627868 27.041254 -24.257685
14.51831 28.197007 -24.879824
14.755403 25.733587 -23.676678
14.627868 27.041254 -24.257685
14.366224 26.996441 -23.315571
14.883465 24.577401 -23.102752
14.755403 25.733587 -23.676678
14.656689 24.409616 -22.23041
14.326321 25.638846 -21.914617
14.48925 24.359689 -21.410463
14.883465 24.577401 -23.102752
14.656689 24.409616 -22.23041
3 0 21 19
3 81 80 24
3 1 27 25
3 2 29 28
3 3 82 84
3 84 83 30
3 82 83 84
3 3 85 86
3 87 32 88
3 89 34 90
3 91 90 32
3 89 90 91
3 4 37 35
3 4 39 37
3 4 41 39
3 2 44 42
3 2 28 44
3 5 48 46
3 93 92 20
3 7 51 49
3 94 52 95
3 96 95 22
3 94 95 96
3 97 53 98
3 99 98 52
3 97 98 99
3 9 100 102
3 100 54 101
3 100 101 102
3 9 55 54
3 9 57 55
3 7 58 23
3 7 49 58
3 11 103 105
3 105 104 59
3 103 104 105
3 106 60 107
3 12 61 26
3 12 108 110
3 110 109 61
3 108 109 110
3 6 62 47
3 8 63 50
3 112 111 31
3 13 113 114
3 13 115 117
3 115 64 116
3 115 116 117
3 13 65 64
3 14 66 33
3 14 67 66
3 15 68 36
3 15 69 68
3 15 70 69
3 16 71 38
3 16 72 71
3 16 73 72
3 17 74 40
3 17 75 74
3 10 76 56
3 18 77 43
3 18 78 77
3 18 79 78
3 119 118 45
3 19 20 5
3 21 20 19
3 21 120 122
3 122 121 20
3 120 121 122
3 123 22 124
3 125 124 7
3 123 124 125
3 126 22 127
3 129 128 22
3 130 9 131
3 132 23 133
3 134 133 9
3 132 133 134
3 135 23 136
3 137 7 138
3 139 138 23
3 137 138 139
3 24 140 142
3 142 141 11
3 140 141 142
3 144 143 24
3 25 145 147
3 145 26 146
3 145 146 147
3 27 26 25
3 27 12 26
3 149 148 6
3 28 150 151
3 29 152 154
3 154 153 28
3 152 153 154
3 29 155 156
3 30 31 8
3 157 31 158
3 159 158 30
3 157 158 159
3 161 160 31
3 32 162 163
3 32 164 166
3 164 13 165
3 164 165 166
3 32 33 13
3 34 33 32
3 34 14 33
3 35 167 169
3 167 36 168
3 167 168 169
3 37 36 35
3 37 15 36
3 37 38 15
3 39 38 37
3 39 16 38
3 39 40 16
3 41 40 39
3 41 17 40
3 42 43 10
3 44 43 42
3 44 18 43
3 44 45 18
3 28 45 44
3 28 170 172
3 172 171 45
3 170 171 172
3 46 47 1
3 48 47 46
3 48 6 47
3 20 48 5
3 173 48 174
3 175 174 20
3 173 174 175
3 176 6 177
3 178 177 48
3 176 177 178
3 180 179 6
3 49 50 2
3 51 50 49
3 51 8 50
3 22 51 7
3 52 51 22
3 52 8 51
3 52 30 8
3 53 30 52
3 53 3 30
3 54 181 182
3 54 183 184
3 54 185 187
3 185 35 186
3 185 186 187
3 55 35 54
3 55 4 35
3 55 56 4
3 57 56 55
3 57 10 56
3 23 57 9
3 58 57 23
3 58 10 57
3 58 42 10
3 49 42 58
3 49 2 42
3 59 188 190
3 190 189 0
3 188 189 190
3 192 191 59
3 194 193 11
3 60 195 196
3 60 197 198
3 26 199 201
3 199 60 200
3 199 200 201
3 61 60 26
3 61 202 204
3 204 203 60
3 202 203 204
3 61 205 206
3 208 207 61
3 47 27 1
3 62 27 47
3 62 12 27
3 209 62 210
3 211 210 6
3 209 210 211
3 212 62 213
3 214 12 215
3 216 215 62
3 214 215 216
3 218 217 12
3 219 21 220
3 221 220 0
3 219 220 221
3 222 21 223
3 225 224 21
3 50 29 2
3 63 29 50
3 63 226 228
3 228 227 29
3 226 227 228
3 31 63 8
3 229 63 230
3 231 230 31
3 229 230 231
3 233 232 63
3 234 53 235
3 236 53 237
3 238 3 239
3 240 239 53
3 238 239 240
3 241 3 242
3 244 243 3
3 245 25 246
3 247 25 248
3 249 1 250
3 251 250 25
3 249 250 251
3 64 252 253
3 64 254 256
3 254 1 255
3 254 255 256
3 64 46 1
3 65 46 64
3 65 5 46
3 33 65 13
3 66 65 33
3 66 5 65
3 66 19 5
3 67 19 66
3 67 0 19
3 36 257 258
3 68 259 261
3 261 260 36
3 259 260 261
3 68 262 263
3 68 264 265
3 69 266 268
3 268 267 68
3 266 267 268
3 69 269 270
3 69 271 273
3 271 34 272
3 271 272 273
3 70 34 69
3 70 14 34
3 38 70 15
3 71 70 38
3 71 14 70
3 71 67 14
3 72 67 71
3 72 0 67
3 72 59 0
3 73 59 72
3 73 11 59
3 40 73 16
3 74 73 40
3 74 11 73
3 74 24 11
3 75 24 74
3 75 274 276
3 276 275 24
3 274 275 276
3 56 41 4
3 76 41 56
3 76 17 41
3 43 76 10
3 77 76 43
3 77 17 76
3 77 75 17
3 78 75 77
3 78 277 279
3 279 278 75
3 277 278 279
3 78 280 281
3 79 282 284
3 284 283 78
3 282 283 284
3 79 285 286
3 45 79 18
3 287 79 288
3 289 288 45
3 287 288 289
3 291 290 79
