ply
format ascii 1.0
element vertex 692
property float x
property float y
property float z
element face 825
property list uchar int vertex_index
end_header
-28.602507 -65.920486 36.229939
-27.10483 -67.478142 16.068674
-19.871721 -72.490143 43.486786
-5.722984 -67.227837 41.802414
-29.774479 -57.993149 31.315214
-28.787457 -61.92807 45.882385
-3.972895 -58.469627 49.106659
-10.946134 -61.736351 51.844704
-21.210505 -79.171959 33.463261
-14.572083 -79.125267 33.509022
-25.805563 -75.150398 30.607677
-26.160282 -76.479179 20.275085
-28.03867 -67.500488 26.213343
-29.183393 -57.954983 21.899961
-18.33329 -64.591072 52.649193
-24.778221 -64.926498 50.720867
-25.530487 -71.182884 40.819328
0.92308 -63.87709 40.094517
-12.71275 -70.515373 43.31123
-7.500654 -76.321724 32.397793
-22.267767 -81.665016 28.337236
-19.213346 -82.871529 28.87532
-27.254704 -70.736298 33.502243
-27.186232 -71.533005 28.54269
-28.358358 -66.904778 31.189766
-29.500776 -58.169167 26.656122
-28.794918 -64.116425 41.209087
-27.365702 -66.726562 43.638107
-27.450619 -68.836082 38.652119
-25.669622 -73.511909 35.689827
-26.733471 -72.109802 18.019768
-4.842277 -62.830578 45.80241
-1.584526 -61.135429 44.642342
-2.450021 -65.509705 41.037338
0.086642 -68.3535 36.095123
-3.185448 -70.02317 36.593952
-19.139317 -68.671478 48.209095
-15.552811 -67.608131 48.338341
-16.403156 -71.796692 43.706959
-12.325427 -82.169365 28.294405
-11.126423 -77.789787 33.235561
-8.725245 -80.77961 27.671162
-29.602507 -60.966717 38.415878
-29.338963 -62.195393 33.672211
-29.717545 -59.292084 43.195126
-27.495924 -62.643124 14.008441
-7.389727 -60.056969 50.680229
-8.371797 -64.588928 46.899712
-20.553358 -76.095184 38.432064
-17.085375 -75.789398 38.830719
-18.067144 -79.544472 33.856762
-15.77446 -82.959206 28.738903
-24.516602 -79.347961 27.132442
-26.005247 -76.137749 25.402536
-27.011244 -72.024323 23.33754
-27.640337 -67.697929 21.258211
-29.034275 -62.748367 28.869493
-28.623516 -63.022011 23.921667
-28.141218 -62.854691 19.084496
-21.784885 -65.093491 52.151749
-22.548067 -68.917809 47.400333
-27.156559 -63.751041 48.706894
-25.262922 -68.29998 45.836895
-22.883074 -72.427246 42.484241
-23.352295 -75.392448 37.391472
-23.961836 -77.504768 32.460396
-0.618121 -56.726761 47.35984
1.657303 -59.540157 43.228012
-14.625076 -63.464069 52.407978
-11.96083 -66.174911 47.853359
-9.239885 -68.9048 42.713127
-13.670806 -74.877716 38.531464
-10.118249 -73.35791 38.042549
-6.62315 -71.690514 37.327232
-4.105926 -74.659256 31.812731
-27.952379 -68.373123 35.005302
-27.867884 -68.901192 32.527355
-28.474863 -66.551651 33.750736
-28.709627 -65.111176 38.793655
-28.15036 -66.5504 40.027294
-28.10721 -67.402405 37.564877
-27.380623 -69.78875 36.160297
-26.940302 -69.719925 17.068439
-26.535654 -72.099159 15.409951
-26.642878 -69.809082 14.371812
-5.339077 -65.069008 43.875973
-3.64112 -64.126526 43.45977
-4.069048 -66.328079 41.454247
-2.825884 -67.824974 38.810081
-4.499793 -68.605858 39.237713
-19.401293 -70.689301 45.778355
-17.724972 -70.412354 45.842007
-18.133938 -72.344025 43.540707
-10.492888 -81.550278 27.938648
-29.687147 -60.161186 40.777538
-27.796902 -59.985283 13.052801
-10.554981 -59.596272 53.624821
-8.729846 -58.755337 52.988178
-9.124631 -60.896992 51.292633
-7.942528 -62.329384 48.920181
-9.695065 -63.227631 49.389919
-20.803604 -77.702332 35.964352
-19.252731 -77.791847 36.286945
-19.80546 -79.419273 33.80827
-17.552744 -82.983521 28.955221
-25.164316 -77.242729 28.814245
-25.377007 -77.762466 26.289383
-25.961351 -75.578758 27.928917
-27.670776 -69.536629 27.495474
-27.127031 -71.757034 26.03393
-27.532621 -69.739754 24.867619
-27.337755 -69.985413 22.210352
-27.839197 -67.747047 23.763311
-29.577793 -60.194817 32.444962
-29.185572 -62.575993 31.25708
-29.431812 -60.464771 30.14222
-29.353325 -58.096703 24.320105
-29.107189 -60.535385 25.339033
-28.889631 -60.596878 22.876955
-28.384274 -63.009075 21.450785
-28.676815 -60.399147 20.454853
-28.374746 -60.446899 17.898106
-28.961426 -57.953453 19.538214
-24.567312 -62.997822 53.08112
-23.091639 -63.20327 53.75592
-23.404781 -65.031052 51.598312
-22.101427 -67.112885 49.768055
-23.633835 -67.010666 49.138748
-28.776846 -60.339012 48.348656
-27.970818 -61.348274 49.785313
-28.066473 -62.87923 47.437378
-26.537905 -68.934959 42.28474
-26.443089 -67.481247 44.938541
-25.48942 -69.767761 43.283867
-24.192715 -70.396027 44.19281
-24.291119 -71.900208 41.812126
-23.191874 -73.878952 40.033314
-24.493496 -73.293114 39.18861
-25.713755 -74.439308 33.170269
-24.766788 -75.597748 34.140316
-24.973513 -76.488029 31.461447
-24.218695 -78.498596 29.833664
-2.204402 -57.590469 48.195568
-0.340647 -62.544109 42.325829
0.009629 -60.285374 44.02211
-0.219428 -70.686188 33.695244
-16.512545 -64.065353 52.647175
-14.232531 -69.217361 45.774632
-13.6903 -67.030113 47.998688
-12.453207 -68.373131 45.671066
-10.673467 -67.712334 45.189198
-11.040236 -69.785843 43.032719
-15.798584 -77.48806 36.175701
-15.407821 -75.505203 38.612282
-14.190204 -76.982956 36.11969
-9.261563 -77.132431 32.727119
-10.593147 -75.697128 35.497101
-8.84486 -74.729744 35.396297
-8.335876 -72.651764 37.532784
-7.092287 -74.093018 34.818417
-5.297802 -73.13707 34.569084
-5.776534 -75.293129 32.326939
-12.298614 -60.42757 54.05497
-21.727722 -80.47393 30.934984
-20.170624 -81.06424 31.199398
-20.794811 -82.484001 28.622799
-26.534666 -72.959213 32.146915
-26.556456 -73.493111 29.477661
-27.213539 -71.239037 31.006371
-27.80196 -69.164452 29.982622
-28.209944 -67.223579 28.685516
-29.652269 -58.015366 28.983232
-29.835043 -55.613552 27.966753
-25.841846 -62.853233 51.9678
-28.821056 -63.13007 43.41647
-28.136206 -64.297234 44.93417
-28.156054 -65.537857 42.47316
-27.416162 -67.920746 41.093758
-26.552547 -70.223785 39.706352
-25.620424 -72.398727 38.279945
-26.570711 -71.24482 37.243465
-26.553862 -72.147499 34.811256
-26.4706 -74.491005 19.142654
-26.372902 -74.545952 16.516396
-4.395566 -60.681412 47.509483
-2.685172 -59.787037 46.803921
-3.163903 -61.96822 45.218433
-1.958954 -63.391449 42.819084
-0.773399 -64.702675 40.564842
0.476265 -65.991692 38.325935
-1.150059 -66.85099 38.608452
-1.460013 -69.14872 36.309372
-1.845142 -71.315514 34.110947
-18.69577 -66.618393 50.509529
-16.938101 -66.080368 50.635765
-17.345589 -68.355492 48.184452
-15.929305 -69.825226 45.910271
-14.521011 -71.288521 43.454159
-13.327129 -80.679749 30.842916
-12.882489 -78.554131 33.372471
-11.544154 -79.984764 30.693941
-9.843955 -79.256058 30.459898
-8.052697 -78.673782 29.861231
-6.21966 -77.74305 29.618355
-6.826114 -80.000664 27.222263
-29.163788 -63.400738 37.445541
-29.046408 -63.994637 34.975864
-29.50528 -61.517818 36.147663
-29.714577 -59.804523 34.806263
-29.307812 -59.367317 46.984295
-30.034285 -55.562275 46.252338
-29.736725 -58.10981 45.527504
-29.330214 -60.617458 44.633774
-29.326223 -61.637291 42.292782
-29.251083 -62.645981 39.910995
-27.300743 -65.053291 15.115637
-5.182352 -56.966248 51.482174
-6.905667 -57.947392 52.180565
-5.653317 -59.271156 49.909569
-6.142193 -61.508984 48.230862
-6.655888 -63.681149 46.45784
-7.080192 -65.995308 44.305054
-20.115114 -74.396591 40.921841
-18.581909 -74.215431 41.189804
-18.82251 -76.142403 38.608135
-17.52762 -77.734879 36.312519
-16.317732 -79.253639 33.979866
-18.567173 -81.198189 31.479797
-16.902758 -81.284607 31.317228
-15.201579 -81.054123 31.184784
-14.075393 -82.622734 28.596853
-26.113455 -76.304993 22.822184
-26.572725 -73.854897 26.939716
-26.562105 -74.144814 24.441723
-26.547974 -74.27076 21.709572
-26.874857 -72.177559 20.597673
-27.165051 -69.917183 19.763887
-27.386251 -67.665489 18.70187
-28.877802 -64.615341 32.615101
-28.756262 -64.766357 30.11334
-28.547903 -65.205307 27.664165
-29.299442 -60.460529 27.902658
-28.860239 -62.824394 26.460106
-28.362129 -65.268654 25.071623
-28.150269 -65.235474 22.545858
-27.863617 -65.430779 20.047216
-27.609507 -65.189278 17.596529
-27.851858 -62.656292 16.556379
-28.087679 -60.316784 15.503299
-21.419052 -63.193371 54.246979
-20.135925 -64.838882 52.603619
-20.473244 -66.877083 50.339535
-20.800903 -68.962494 47.852615
-21.151836 -70.73114 45.584869
-26.976286 -62.121475 51.094059
-26.101 -64.454834 49.716686
-27.282763 -65.26255 46.273514
-26.320345 -66.004326 47.342014
-25.065826 -66.659531 48.287601
-23.944139 -68.828072 46.601543
-22.756718 -70.644844 45.044254
-21.45846 -72.572342 43.068378
-21.713186 -74.34481 40.461906
-22.043541 -75.89325 37.946022
-22.264828 -77.383438 35.387093
-24.613525 -74.575928 36.6008
-23.608389 -76.581779 34.919628
-22.70363 -78.513542 32.965874
-23.130354 -79.599373 30.403156
-23.528969 -80.608307 27.781389
0.812096 -55.843021 46.603157
-1.063422 -58.846138 46.14082
0.466159 -58.134438 45.320099
1.883126 -57.235317 44.676998
-14.177405 -61.254612 54.387077
-12.749248 -62.58902 52.212494
-15.078797 -65.578766 50.387611
-13.302971 -64.886627 50.145267
-11.394122 -64.001419 49.832386
-10.23255 -65.530006 47.325211
-8.818787 -66.785461 44.825813
-7.359666 -68.174019 42.059933
-16.741077 -73.852409 41.245571
-14.968526 -73.330811 41.167606
-13.229609 -72.627785 41.07391
-12.359307 -76.351517 35.87159
-11.888392 -74.127274 38.355362
-11.453719 -71.967125 40.707901
-9.579579 -71.111313 40.3573
-7.878522 -70.291695 39.993683
-6.055955 -69.44706 39.514614
-4.890086 -70.954628 36.825226
-3.549613 -72.252602 34.273819
-2.346673 -73.751511 31.595955
-4.474331 -76.885437 29.342562
-27.606915 -59.952287 11.794539
-27.961589 -58.779541 12.623003
-25.988426 -77.618675 19.430132
-25.934047 -77.487262 20.747583
-3.088648 -58.030048 48.651114
-2.802332 -56.910024 49.300747
-3.686578 -57.349604 49.756293
1.058418 -62.758524 41.002411
0.426555 -62.092033 42.118067
0.291216 -63.2106 41.210173
1.671423 -63.398634 39.978648
1.058418 -62.758524 41.002411
1.491323 -64.580906 39.007962
1.671423 -63.398634 39.978648
0.380513 -71.292706 32.595733
-0.486667 -71.778046 32.605826
-17.422918 -64.328213 52.648184
-17.247947 -63.264082 53.702474
-18.15832 -63.526941 53.703483
-12.936543 -59.691143 55.135166
-11.996448 -59.309951 54.88747
-29.957321 -54.392421 28.623414
-29.883775 -55.644872 29.115814
-26.332772 -61.627077 52.62162
-25.713805 -61.889103 53.152132
-26.396273 -73.17065 14.620413
-26.422779 -71.985233 14.061931
-29.867611 -58.523159 35.389972
-29.788843 -59.425815 36.028309
-29.815377 -58.686712 34.226146
-29.867611 -58.523159 35.389972
-29.508424 -58.121967 47.359019
-29.283493 -58.654871 48.117832
-30.129614 -54.897312 45.579641
-30.115864 -54.361854 46.608655
-29.727135 -58.700947 44.361315
-29.886959 -57.381878 44.817405
-29.877369 -57.973015 43.651217
-27.20692 -63.777323 13.179142
-27.10933 -64.982406 13.73274
-27.398333 -63.848208 14.562039
-5.705756 -56.288704 52.517941
-4.846163 -55.859793 52.053028
-24.671452 -79.653709 25.836478
-24.236221 -80.370029 26.178838
-25.776585 -77.20377 24.51596
-25.462466 -78.016129 24.959384
-25.691127 -76.950108 25.845959
-26.059351 -76.221371 24.11236
-25.830689 -77.287392 23.225784
-25.776585 -77.20377 24.51596
-28.398958 -59.108854 16.326351
-28.231212 -60.381842 16.700702
-28.542491 -59.173912 17.523754
-28.258411 -59.036698 15.072654
-28.398958 -59.108854 16.326351
-24.236221 -80.370029 26.178838
-23.742404 -81.000202 26.503311
-24.022785 -79.978134 27.456916
-0.445348 -55.59639 47.972019
-1.217749 -56.027325 48.453111
0.096988 -56.284891 46.981499
0.269761 -55.15452 47.593677
-0.445348 -55.59639 47.972019
2.373711 -59.013306 43.007855
2.486622 -57.860886 43.732348
1.770215 -58.387737 43.952505
0.90312 -67.893089 36.035488
1.097931 -66.712185 37.150894
0.281454 -67.172596 37.210529
-14.401241 -62.359341 53.397527
-15.135245 -61.60017 54.510324
-15.35908 -62.704898 53.520775
-4.710406 -78.026962 28.084294
-5.346996 -77.314244 29.480459
-5.58307 -78.455769 28.222191
-21.899822 -82.653724 27.219511
-22.55981 -82.145527 27.063757
-26.476391 -70.840194 13.542862
-26.422779 -71.985233 14.061931
-26.589266 -70.954121 14.890881
-10.86254 -82.640618 26.726228
-11.409157 -81.859822 28.116526
-11.778809 -82.950161 26.904106
-9.922159 -82.336479 26.495494
-10.86254 -82.640618 26.726228
-9.038338 -81.951145 26.361751
-9.609067 -81.164944 27.804905
-9.922159 -82.336479 26.495494
-8.096963 -81.506421 26.248422
-9.038338 -81.951145 26.361751
-29.732807 -60.006912 37.833117
-29.77729 -59.676487 38.987385
-29.855402 -58.518867 42.542997
-29.877369 -57.973015 43.651217
-29.840203 -58.953418 41.334204
-29.702346 -59.726635 41.986332
-29.855402 -58.518867 42.542997
-29.819609 -59.273722 40.168215
-29.840203 -58.953418 41.334204
-29.77729 -59.676487 38.987385
-29.644827 -60.563952 39.596708
-29.819609 -59.273722 40.168215
-27.467622 -61.216265 12.269089
-27.317133 -62.545186 12.74691
-27.646413 -61.314204 13.530621
-27.467622 -61.216265 12.269089
-27.606915 -59.952287 11.794539
-9.642413 -59.175804 53.3065
-9.296403 -58.008449 54.101423
-10.20897 -58.428917 54.419745
-17.952526 -83.817795 27.697485
-18.383045 -82.927525 28.91527
-18.782827 -83.761799 27.657534
-17.118046 -83.822201 27.721679
-17.952526 -83.817795 27.697485
-16.228904 -83.810044 27.61352
-16.663602 -82.971363 28.847062
-17.118046 -83.822201 27.721679
-15.344777 -83.773022 27.464064
-16.228904 -83.810044 27.61352
-28.835831 -57.927189 18.343809
-28.542491 -59.173912 17.523754
-28.668086 -59.200176 18.71816
-23.829476 -63.100546 53.41852
-23.634206 -62.133372 54.56315
-24.372042 -62.030648 54.22575
-28.373832 -60.843643 49.066985
-28.308764 -60.10079 50.258633
-28.711778 -59.596159 49.540304
-2.01089 -56.459179 48.870976
-2.802332 -56.910024 49.300747
-1.411261 -57.158615 47.777704
-1.217749 -56.027325 48.453111
-2.01089 -56.459179 48.870976
0.601693 -60.962665 42.966207
-0.165509 -61.414741 43.173969
0.426555 -62.092033 42.118067
1.42553 -60.590057 42.569159
0.833466 -59.912765 43.625061
0.601693 -60.962665 42.966207
2.214678 -60.174808 42.28836
1.42553 -60.590057 42.569159
0.590122 -70.195904 33.710638
0.743156 -69.02956 34.910578
-0.066393 -69.519844 34.895184
0.590122 -70.195904 33.710638
0.380513 -71.292706 32.595733
-16.302815 -63.005541 53.640373
-17.247947 -63.264082 53.702474
-15.56881 -63.764711 52.527576
-15.35908 -62.704898 53.520775
-16.302815 -63.005541 53.640373
-11.124631 -58.894302 54.672396
-10.20897 -58.428917 54.419745
-11.426797 -60.011921 53.839895
-11.124631 -58.894302 54.672396
-11.996448 -59.309951 54.88747
-21.163345 -83.063217 27.362293
-21.531289 -82.074509 28.480018
-21.899822 -82.653724 27.219511
-20.42257 -83.397991 27.466932
-21.163345 -83.063217 27.362293
-19.631838 -83.591755 27.593193
-20.004078 -82.677765 28.74906
-20.42257 -83.397991 27.466932
-18.782827 -83.761799 27.657534
-19.631838 -83.591755 27.593193
-29.792388 -56.845779 29.624053
-29.713374 -58.004258 30.149223
-29.853493 -56.834671 30.790044
-29.743656 -56.814459 28.474992
-29.792388 -56.845779 29.624053
-29.883775 -55.644872 29.115814
-29.933879 -54.284698 27.517057
-29.957321 -54.392421 28.623414
-29.791692 -55.542841 26.887974
-29.933879 -54.284698 27.517057
-29.624558 -56.820649 26.232658
-29.66791 -56.89136 27.311438
-29.791692 -55.542841 26.887974
-29.550833 -56.784416 25.06465
-29.42705 -58.132935 25.488114
-29.624558 -56.820649 26.232658
-29.475987 -56.877156 23.864676
-29.550833 -56.784416 25.06465
-29.39102 -56.806296 22.654604
-29.268359 -58.025843 23.110033
-29.475987 -56.877156 23.864676
-29.325902 -56.7258 21.503355
-29.39102 -56.806296 22.654604
-25.076538 -61.961398 53.708792
-24.372042 -62.030648 54.22575
-25.204579 -62.925528 52.52446
-25.076538 -61.961398 53.708792
-25.713805 -61.889103 53.152132
-26.304561 -75.634068 18.377937
-26.149403 -76.628154 18.944153
-26.315441 -75.485092 19.708869
-26.255713 -75.661541 17.064808
-26.304561 -75.634068 18.377937
-26.421751 -74.518479 17.829525
-26.253501 -75.551655 15.7222
-26.255713 -75.661541 17.064808
-26.314898 -74.394047 15.173636
-26.454278 -73.322555 15.963173
-26.396273 -73.17065 14.620413
-26.253501 -75.551655 15.7222
-26.314898 -74.394047 15.173636
-1.299524 -72.092709 32.813677
-0.486667 -71.778046 32.605826
-1.032285 -71.000851 33.903096
-5.886297 -79.584576 27.024145
-5.58307 -78.455769 28.222191
-6.522887 -78.871857 28.420309
-7.147398 -81.116948 26.023972
-7.775679 -80.390137 27.446713
-8.096963 -81.506421 26.248422
-6.233956 -80.696197 25.866117
-7.147398 -81.116948 26.023972
-5.886297 -79.584576 27.024145
-6.233956 -80.696197 25.866117
-29.684194 -60.282463 36.699009
-29.553894 -61.242267 37.281771
-29.732807 -60.006912 37.833117
-29.609928 -60.66117 35.476963
-29.684194 -60.282463 36.699009
-29.788843 -59.425815 36.028309
-29.746986 -58.881859 33.045496
-29.646185 -59.99967 33.625613
-29.815377 -58.686712 34.226146
-29.845329 -57.781025 32.480622
-29.676136 -59.093983 31.880088
-29.746986 -58.881859 33.045496
-29.916192 -56.637112 31.954684
-29.845329 -57.781025 32.480622
-29.853493 -56.834671 30.790044
-29.916192 -56.637112 31.954684
-29.01801 -59.140718 48.800012
-28.711778 -59.596159 49.540304
-29.042329 -59.853164 47.666476
-29.01801 -59.140718 48.800012
-29.283493 -58.654871 48.117832
-30.009749 -54.960155 47.328714
-30.115864 -54.361854 46.608655
-29.871661 -56.219446 46.99304
-30.009749 -54.960155 47.328714
-30.035739 -56.10811 45.179823
-30.129614 -54.897312 45.579641
-29.885505 -56.836043 45.889921
-30.035739 -56.10811 45.179823
-29.886959 -57.381878 44.817405
-29.722881 -57.493214 46.630623
-29.871661 -56.219446 46.99304
-29.885505 -56.836043 45.889921
-29.522268 -58.738563 46.255899
-29.508424 -58.121967 47.359019
-29.722881 -57.493214 46.630623
-27.043816 -66.182804 14.291656
-26.94586 -67.395229 14.768174
-27.202787 -66.265716 15.592156
-27.043816 -66.182804 14.291656
-27.10933 -64.982406 13.73274
-27.20692 -63.777323 13.179142
-27.317133 -62.545186 12.74691
-4.291307 -56.597914 50.94405
-4.846163 -55.859793 52.053028
-4.577623 -57.717938 50.294416
-3.686578 -57.349604 49.756293
-4.291307 -56.597914 50.94405
-8.356502 -57.667946 53.636449
-9.296403 -58.008449 54.101423
-7.444413 -57.263973 53.232643
-8.356502 -57.667946 53.636449
-7.817756 -58.351365 52.584372
-6.567413 -56.779276 52.867136
-7.444413 -57.263973 53.232643
-6.044009 -57.45682 51.83137
-5.705756 -56.288704 52.517941
-6.567413 -56.779276 52.867136
-14.495244 -83.604786 27.39304
-14.924926 -82.79097 28.667878
-15.344777 -83.773022 27.464064
-13.574835 -83.43378 27.236083
-14.495244 -83.604786 27.39304
-12.699852 -83.207096 27.084859
-13.20041 -82.39605 28.445629
-13.574835 -83.43378 27.236083
-11.778809 -82.950161 26.904106
-12.699852 -83.207096 27.084859
-25.101654 -78.860962 25.414949
-24.671452 -79.653709 25.836478
-24.946804 -78.555214 26.710912
-25.101654 -78.860962 25.414949
-25.462466 -78.016129 24.959384
-25.910634 -77.40017 22.021133
-25.830689 -77.287392 23.225784
-26.136868 -76.392086 21.548634
-25.934047 -77.487262 20.747583
-25.910634 -77.40017 22.021133
-28.113022 -58.870947 13.847405
-27.94229 -60.151033 14.27805
-28.258411 -59.036698 15.072654
-27.961589 -58.779541 12.623003
-28.113022 -58.870947 13.847405
-29.214918 -56.725035 20.322482
-29.072409 -57.954218 20.719088
-29.325902 -56.7258 21.503355
-29.131781 -56.666113 19.151617
-29.214918 -56.725035 20.322482
-28.835831 -57.927189 18.343809
-29.131781 -56.666113 19.151617
-18.979892 -63.75929 53.611834
-18.15832 -63.526941 53.703483
-22.85528 -62.247221 54.817644
-23.634206 -62.133372 54.56315
-22.018987 -62.242272 55.063174
-22.85528 -62.247221 54.817644
-22.255346 -63.198321 54.00145
-21.168869 -62.103745 55.359814
-22.018987 -62.242272 55.063174
-20.522773 -63.06044 54.410727
-21.168869 -62.103745 55.359814
-19.88121 -63.883195 53.589047
-20.522773 -63.06044 54.410727
-20.777489 -64.016126 53.425299
-19.234608 -64.714977 52.626406
-18.979892 -63.75929 53.611834
-19.88121 -63.883195 53.589047
-27.888711 -60.558226 50.926426
-28.308764 -60.10079 50.258633
-27.391445 -60.944826 51.580799
-27.888711 -60.558226 50.926426
-27.473552 -61.734875 50.439686
-26.899992 -61.261198 52.18475
-27.391445 -60.944826 51.580799
-26.409066 -62.487354 51.530929
-26.332772 -61.627077 52.62162
-26.899992 -61.261198 52.18475
-23.19041 -81.617172 26.785833
-22.55981 -82.145527 27.063757
-22.898368 -81.136662 28.059313
-23.19041 -81.617172 26.785833
-23.742404 -81.000202 26.503311
-25.988426 -77.618675 19.430132
-26.149403 -76.628154 18.944153
-26.714884 -68.560699 13.919743
-26.873854 -68.643612 15.220243
-26.94586 -67.395229 14.768174
-26.504875 -69.64291 13.073963
-26.714884 -68.560699 13.919743
-26.476391 -70.840194 13.542862
-26.504875 -69.64291 13.073963
1.024051 -54.744949 47.072756
0.269761 -55.15452 47.593677
1.573533 -55.446884 46.111468
1.024051 -54.744949 47.072756
2.109047 -56.143032 45.148388
1.573533 -55.446884 46.111468
1.347611 -56.539169 45.640078
2.623741 -56.812935 44.274473
2.109047 -56.143032 45.148388
2.623741 -56.812935 44.274473
2.486622 -57.860886 43.732348
2.373711 -59.013306 43.007855
2.214678 -60.174808 42.28836
1.267915 -65.638206 38.123671
1.491323 -64.580906 39.007962
0.699673 -64.934391 39.210226
1.267915 -65.638206 38.123671
1.097931 -66.712185 37.150894
0.90312 -67.893089 36.035488
0.743156 -69.02956 34.910578
-14.793909 -60.482198 55.431475
-15.135245 -61.60017 54.510324
-13.875939 -60.104664 55.30122
-14.793909 -60.482198 55.431475
-13.23801 -60.841091 54.221024
-12.936543 -59.691143 55.135166
-13.875939 -60.104664 55.30122
-1.550289 -73.310708 31.556181
-1.299524 -72.092709 32.813677
-2.095908 -72.533513 32.853451
-3.879555 -77.575688 28.022954
-4.710406 -78.026962 28.084294
-3.630528 -76.426338 29.277394
-3.879555 -77.575688 28.022954
-3.446325 -75.313248 30.512478
-4.290128 -75.772346 30.577647
-3.630528 -76.426338 29.277394
-2.566699 -74.859375 30.40409
-3.2263 -74.205383 31.704343
-3.446325 -75.313248 30.512478
-1.698218 -74.478641 30.248362
-2.566699 -74.859375 30.40409
-1.550289 -73.310708 31.556181
-1.698218 -74.478641 30.248362
3 0 77 75
3 0 80 78
3 0 75 80
3 1 84 82
3 3 87 85
3 3 89 87
3 2 92 90
3 296 295 95
3 7 98 96
3 7 100 98
3 8 103 101
3 10 107 105
3 12 110 108
3 12 112 110
3 4 115 113
3 13 118 116
3 13 120 118
3 13 122 120
3 15 125 123
3 15 127 125
3 5 130 128
3 16 133 131
3 16 135 133
3 16 137 135
3 10 140 138
3 10 105 140
3 11 297 298
3 6 299 301
3 299 142 300
3 299 300 301
3 17 302 304
3 304 303 143
3 302 303 304
3 17 305 306
3 17 307 308
3 310 309 145
3 14 311 313
3 311 146 312
3 311 312 313
3 18 149 147
3 18 151 149
3 9 154 152
3 19 157 155
3 19 159 157
3 19 161 159
3 314 162 315
3 20 165 163
3 22 168 166
3 24 169 76
3 24 170 169
3 316 172 317
3 318 173 319
3 26 176 174
3 28 177 79
3 28 178 177
3 28 180 178
3 22 181 81
3 22 166 181
3 30 183 182
3 321 320 83
3 31 186 184
3 33 187 86
3 33 188 187
3 33 190 188
3 35 191 88
3 35 192 191
3 36 195 193
3 38 196 91
3 38 197 196
3 39 200 198
3 41 201 93
3 41 202 201
3 41 204 202
3 42 207 205
3 322 208 323
3 325 324 208
3 326 209 327
3 328 210 329
3 44 330 332
3 330 211 331
3 330 331 332
3 44 212 211
3 44 213 212
3 42 214 94
3 42 205 214
3 45 333 335
3 335 334 215
3 333 334 335
3 336 216 337
3 46 217 97
3 46 218 217
3 46 219 218
3 47 220 99
3 47 221 220
3 48 224 222
3 50 225 102
3 50 226 225
3 21 227 164
3 51 228 104
3 51 229 228
3 51 230 229
3 52 338 339
3 53 340 342
3 342 341 106
3 340 341 342
3 53 343 345
3 343 231 344
3 343 344 345
3 23 232 167
3 54 233 109
3 54 234 233
3 54 235 234
3 55 236 111
3 55 237 236
3 43 238 206
3 56 239 114
3 56 240 239
3 25 241 171
3 57 242 117
3 57 243 242
3 57 244 243
3 58 245 119
3 58 246 245
3 58 247 246
3 346 248 347
3 348 347 121
3 346 347 348
3 350 349 248
3 59 249 124
3 59 250 249
3 59 251 250
3 60 252 126
3 60 253 252
3 61 254 129
3 61 255 254
3 27 256 175
3 62 257 132
3 62 258 257
3 62 259 258
3 63 260 134
3 63 261 260
3 63 262 261
3 64 263 136
3 64 264 263
3 29 265 179
3 65 266 139
3 65 267 266
3 65 268 267
3 52 269 141
3 52 351 353
3 353 352 269
3 351 352 353
3 66 354 355
3 66 356 358
3 356 270 357
3 356 357 358
3 32 271 185
3 67 272 144
3 67 273 272
3 67 359 361
3 361 360 273
3 359 360 361
3 34 362 364
3 364 363 189
3 362 363 364
3 68 365 367
3 365 274 366
3 365 366 367
3 68 275 274
3 37 276 194
3 69 277 148
3 69 278 277
3 69 279 278
3 70 280 150
3 70 281 280
3 49 282 223
3 71 283 153
3 71 284 283
3 40 285 199
3 72 286 156
3 72 287 286
3 72 288 287
3 73 289 158
3 73 290 289
3 73 291 290
3 74 292 160
3 74 293 292
3 368 294 369
3 370 369 203
3 368 369 370
3 372 371 20
3 75 76 22
3 77 76 75
3 77 24 76
3 78 79 26
3 80 79 78
3 80 28 79
3 80 81 28
3 75 81 80
3 75 22 81
3 82 83 30
3 84 83 82
3 84 373 375
3 375 374 83
3 373 374 375
3 85 86 31
3 87 86 85
3 87 33 86
3 87 88 33
3 89 88 87
3 89 35 88
3 90 91 36
3 92 91 90
3 92 38 91
3 376 93 377
3 378 377 39
3 376 377 378
3 379 93 380
3 381 41 382
3 383 382 93
3 381 382 383
3 385 384 41
3 387 386 42
3 388 44 389
3 390 94 391
3 392 391 44
3 390 391 392
3 393 94 394
3 395 42 396
3 397 396 94
3 395 396 397
3 95 398 400
3 400 399 45
3 398 399 400
3 402 401 95
3 96 403 405
3 403 97 404
3 403 404 405
3 98 97 96
3 98 46 97
3 98 99 46
3 100 99 98
3 100 47 99
3 101 102 48
3 103 102 101
3 103 50 102
3 406 104 407
3 408 407 21
3 406 407 408
3 409 104 410
3 411 51 412
3 413 412 104
3 411 412 413
3 415 414 51
3 105 106 52
3 107 106 105
3 107 53 106
3 108 109 23
3 110 109 108
3 110 54 109
3 110 111 54
3 112 111 110
3 112 55 111
3 113 114 43
3 115 114 113
3 115 56 114
3 116 117 25
3 118 117 116
3 118 57 117
3 118 119 57
3 120 119 118
3 120 58 119
3 120 121 58
3 122 121 120
3 122 416 418
3 418 417 121
3 416 417 418
3 123 419 421
3 419 124 420
3 419 420 421
3 125 124 123
3 125 59 124
3 125 126 59
3 127 126 125
3 127 60 126
3 128 422 424
3 422 129 423
3 422 423 424
3 130 129 128
3 130 61 129
3 131 132 27
3 133 132 131
3 133 62 132
3 133 134 62
3 135 134 133
3 135 63 134
3 135 136 63
3 137 136 135
3 137 64 136
3 138 139 29
3 140 139 138
3 140 65 139
3 140 141 65
3 105 141 140
3 105 52 141
3 142 425 426
3 142 427 429
3 427 66 428
3 427 428 429
3 143 144 32
3 430 144 431
3 432 431 143
3 430 431 432
3 433 67 434
3 435 434 144
3 433 434 435
3 437 436 67
3 145 438 440
3 440 439 34
3 438 439 440
3 442 441 145
3 146 443 444
3 146 445 447
3 445 68 446
3 445 446 447
3 147 148 37
3 149 148 147
3 149 69 148
3 149 150 69
3 151 150 149
3 151 70 150
3 152 153 49
3 154 153 152
3 154 71 153
3 155 156 40
3 157 156 155
3 157 72 156
3 157 158 72
3 159 158 157
3 159 73 158
3 159 160 73
3 161 160 159
3 161 74 160
3 448 96 449
3 162 450 452
3 450 96 451
3 450 451 452
3 162 7 96
3 163 164 8
3 165 164 163
3 165 21 164
3 453 165 454
3 455 454 20
3 453 454 455
3 456 165 457
3 458 21 459
3 460 459 165
3 458 459 460
3 462 461 21
3 166 167 10
3 168 167 166
3 168 23 167
3 76 168 22
3 169 168 76
3 169 23 168
3 169 108 23
3 170 108 169
3 170 12 108
3 463 171 464
3 465 464 4
3 463 464 465
3 172 466 468
3 466 171 467
3 466 467 468
3 172 25 171
3 469 172 470
3 471 172 472
3 473 25 474
3 475 474 172
3 473 474 475
3 476 116 477
3 478 477 25
3 476 477 478
3 479 116 480
3 481 13 482
3 483 482 116
3 481 482 483
3 485 484 13
3 486 123 487
3 173 488 490
3 488 123 489
3 488 489 490
3 173 15 123
3 174 175 5
3 176 175 174
3 176 27 175
3 79 176 26
3 177 176 79
3 177 27 176
3 177 131 27
3 178 131 177
3 178 16 131
3 178 179 16
3 180 179 178
3 180 29 179
3 81 180 28
3 181 180 81
3 181 29 180
3 181 138 29
3 166 138 181
3 166 10 138
3 182 491 493
3 493 492 11
3 491 492 493
3 183 494 496
3 496 495 182
3 494 495 496
3 183 497 498
3 83 183 30
3 499 183 500
3 501 500 83
3 499 500 501
3 503 502 183
3 184 185 6
3 186 185 184
3 186 32 185
3 86 186 31
3 187 186 86
3 187 32 186
3 187 143 32
3 188 143 187
3 188 17 143
3 188 189 17
3 190 189 188
3 190 34 189
3 88 190 33
3 191 190 88
3 191 34 190
3 191 145 34
3 192 145 191
3 192 504 506
3 506 505 145
3 504 505 506
3 193 194 14
3 195 194 193
3 195 37 194
3 91 195 36
3 196 195 91
3 196 37 195
3 196 147 37
3 197 147 196
3 197 18 147
3 198 199 9
3 200 199 198
3 200 40 199
3 93 200 39
3 201 200 93
3 201 40 200
3 201 155 40
3 202 155 201
3 202 19 155
3 202 203 19
3 204 203 202
3 204 507 509
3 509 508 203
3 507 508 509
3 510 204 511
3 512 511 41
3 510 511 512
3 513 204 514
3 516 515 204
3 205 206 0
3 207 206 205
3 207 43 206
3 517 207 518
3 519 518 42
3 517 518 519
3 208 520 522
3 520 207 521
3 520 521 522
3 208 43 207
3 208 113 43
3 523 113 524
3 525 524 208
3 523 524 525
3 526 4 527
3 528 527 113
3 526 527 528
3 529 4 530
3 532 531 4
3 533 128 534
3 209 535 537
3 535 128 536
3 535 536 537
3 209 5 128
3 210 538 539
3 210 540 541
3 542 210 543
3 211 544 546
3 544 210 545
3 544 545 546
3 211 547 549
3 549 548 210
3 547 548 549
3 211 550 552
3 550 209 551
3 550 551 552
3 212 209 211
3 212 5 209
3 212 174 5
3 213 174 212
3 213 26 174
3 94 213 44
3 214 213 94
3 214 26 213
3 214 78 26
3 205 78 214
3 205 0 78
3 215 553 555
3 555 554 1
3 553 554 555
3 557 556 215
3 559 558 45
3 216 560 561
3 216 562 564
3 562 6 563
3 562 563 564
3 97 565 566
3 217 567 569
3 569 568 97
3 567 568 569
3 217 570 571
3 217 572 574
3 572 216 573
3 572 573 574
3 218 216 217
3 218 6 216
3 218 184 6
3 219 184 218
3 219 31 184
3 99 219 46
3 220 219 99
3 220 31 219
3 220 85 31
3 221 85 220
3 221 3 85
3 222 223 2
3 224 223 222
3 224 49 223
3 102 224 48
3 225 224 102
3 225 49 224
3 225 152 49
3 226 152 225
3 226 9 152
3 164 103 8
3 227 103 164
3 227 50 103
3 104 227 21
3 228 227 104
3 228 50 227
3 228 226 50
3 229 226 228
3 229 9 226
3 229 198 9
3 230 198 229
3 230 39 198
3 575 230 576
3 577 576 51
3 575 576 577
3 578 230 579
3 580 39 581
3 582 581 230
3 580 581 582
3 584 583 39
3 106 585 587
3 587 586 52
3 585 586 587
3 589 588 106
3 231 590 591
3 231 592 594
3 592 11 593
3 592 593 594
3 167 107 10
3 232 107 167
3 232 53 107
3 109 232 23
3 233 232 109
3 233 53 232
3 233 231 53
3 234 231 233
3 234 11 231
3 234 182 11
3 235 182 234
3 235 30 182
3 111 235 54
3 236 235 111
3 236 30 235
3 236 82 30
3 237 82 236
3 237 1 82
3 206 77 0
3 238 77 206
3 238 24 77
3 114 238 43
3 239 238 114
3 239 24 238
3 239 170 24
3 240 170 239
3 240 12 170
3 171 115 4
3 241 115 171
3 241 56 115
3 117 241 25
3 242 241 117
3 242 56 241
3 242 240 56
3 243 240 242
3 243 12 240
3 243 112 12
3 244 112 243
3 244 55 112
3 119 244 57
3 245 244 119
3 245 55 244
3 245 237 55
3 246 237 245
3 246 1 237
3 246 215 1
3 247 215 246
3 247 45 215
3 121 247 58
3 248 247 121
3 248 45 247
3 248 95 45
3 595 95 596
3 597 596 248
3 595 596 597
3 599 598 95
3 600 122 601
3 602 601 13
3 600 601 602
3 603 122 604
3 606 605 122
3 607 14 608
3 124 609 610
3 249 611 613
3 613 612 124
3 611 612 613
3 249 614 615
3 249 616 617
3 250 618 620
3 620 619 249
3 618 619 620
3 250 621 623
3 621 14 622
3 621 622 623
3 250 193 14
3 251 193 250
3 251 36 193
3 126 251 59
3 252 251 126
3 252 36 251
3 252 90 36
3 253 90 252
3 253 2 90
3 129 624 625
3 254 626 628
3 628 627 129
3 626 627 628
3 254 629 630
3 254 631 633
3 631 173 632
3 631 632 633
3 255 173 254
3 255 15 173
3 175 130 5
3 256 130 175
3 256 61 130
3 132 256 27
3 257 256 132
3 257 61 256
3 257 255 61
3 258 255 257
3 258 15 255
3 258 127 15
3 259 127 258
3 259 60 127
3 134 259 62
3 260 259 134
3 260 60 259
3 260 253 60
3 261 253 260
3 261 2 253
3 261 222 2
3 262 222 261
3 262 48 222
3 136 262 63
3 263 262 136
3 263 48 262
3 263 101 48
3 264 101 263
3 264 8 101
3 179 137 16
3 265 137 179
3 265 64 137
3 139 265 29
3 266 265 139
3 266 64 265
3 266 264 64
3 267 264 266
3 267 8 264
3 267 163 8
3 268 163 267
3 268 20 163
3 141 268 65
3 269 268 141
3 269 20 268
3 269 634 636
3 636 635 20
3 634 635 636
3 638 637 269
3 640 639 11
3 641 84 642
3 643 642 1
3 641 642 643
3 644 84 645
3 647 646 84
3 270 648 649
3 270 650 651
3 185 142 6
3 271 142 185
3 271 66 142
3 144 271 32
3 272 271 144
3 272 66 271
3 272 270 66
3 273 270 272
3 273 652 654
3 654 653 270
3 652 653 654
3 273 655 656
3 658 657 273
3 660 659 67
3 189 661 663
3 663 662 17
3 661 662 663
3 665 664 189
3 667 666 34
3 274 668 669
3 274 670 671
3 274 672 674
3 672 162 673
3 672 673 674
3 275 162 274
3 275 7 162
3 194 146 14
3 276 146 194
3 276 68 146
3 148 276 37
3 277 276 148
3 277 68 276
3 277 275 68
3 278 275 277
3 278 7 275
3 278 100 7
3 279 100 278
3 279 47 100
3 150 279 69
3 280 279 150
3 280 47 279
3 280 221 47
3 281 221 280
3 281 3 221
3 223 92 2
3 282 92 223
3 282 38 92
3 153 282 49
3 283 282 153
3 283 38 282
3 283 197 38
3 284 197 283
3 284 18 197
3 199 154 9
3 285 154 199
3 285 71 154
3 156 285 40
3 286 285 156
3 286 71 285
3 286 284 71
3 287 284 286
3 287 18 284
3 287 151 18
3 288 151 287
3 288 70 151
3 158 288 72
3 289 288 158
3 289 70 288
3 289 281 70
3 290 281 289
3 290 3 281
3 290 89 3
3 291 89 290
3 291 35 89
3 160 291 73
3 292 291 160
3 292 35 291
3 292 192 35
3 293 192 292
3 293 675 677
3 677 676 192
3 675 676 677
3 203 161 19
3 294 161 203
3 294 74 161
3 678 294 679
3 680 294 681
3 682 74 683
3 684 683 294
3 682 683 684
3 685 293 686
3 687 686 74
3 685 686 687
3 688 293 689
3 691 690 293
