ply
format ascii 1.0
element vertex 503
property float x
property float y
property float z
element face 485
property list uchar int vertex_index
end_header
33.974335 -22.29842 20.886658
27.849581 -41.851936 -12.872649
19.460794 -35.967686 -27.964001
36.028435 -6.34866 20.218523
36.584541 -19.749786 12.602581
34.187229 -32.794403 3.863836
33.552994 -34.407307 12.772553
24.56238 -39.256119 -20.639332
29.683142 -43.779404 -4.638562
35.04092 -14.470881 20.673992
36.592594 -13.051272 16.618452
35.382965 -21.024178 16.931101
35.064598 -27.582048 12.72595
34.119644 -28.335255 16.925949
26.425766 -40.592293 -16.819839
32.34119 -39.297249 3.805891
32.148197 -38.313004 -0.512878
30.064226 -44.973446 -0.532168
36.918377 1.750181 19.392809
37.607395 -5.061646 15.995049
35.783794 -26.365383 8.231239
34.03297 -33.631683 8.427565
32.309242 -40.169319 8.41226
17.379654 -39.698597 -30.032179
35.152084 -0.16879 23.39883
34.314442 -8.517431 23.879028
22.304073 -37.809669 -24.249537
20.021055 -42.115612 -26.681282
32.687004 -35.680317 17.051748
30.59948 -36.461582 -9.410638
31.60796 -37.355885 -4.930292
28.899755 -42.872055 -8.89602
34.538067 -18.34815 20.77087
35.274223 -17.809429 18.846045
34.692825 -21.749527 18.908791
34.73103 -24.898167 16.96513
34.103897 -25.384352 18.983583
28.593338 -38.528828 -13.215096
27.804094 -38.048683 -15.235498
27.163055 -41.378143 -14.843853
31.32476 -42.702011 3.757414
31.226494 -42.228409 1.576911
30.261072 -45.361206 1.60872
36.519794 -2.231184 19.773752
37.360729 -1.626348 17.576582
36.850452 -5.786882 18.123135
36.668915 -16.519329 14.627357
37.2668 -12.634413 14.349133
37.237011 -16.156733 12.232774
36.255363 -23.172352 10.584237
34.280399 -31.208855 12.734976
34.679066 -30.474985 10.570134
33.800491 -34.192635 10.489032
33.128117 -37.121815 8.262529
32.987156 -37.430534 10.656374
35.588245 4.089708 22.948879
34.652756 3.149009 24.949825
33.858635 -12.534002 24.092846
25.96694 -36.745113 -19.158575
24.817108 -36.063927 -21.155403
23.503078 -35.47237 -23.144209
23.508736 -38.429657 -22.456171
32.842556 -32.652042 19.113817
30.910721 -41.131069 -2.717758
31.876879 -37.905079 -2.869771
30.609795 -40.639442 -4.934379
30.182789 -40.336754 -7.057629
29.285952 -43.479084 -6.765782
28.032038 -45.88628 -8.684818
28.399048 -46.370453 -6.626885
35.548183 -10.457225 20.473856
36.368538 -9.688763 18.458696
35.845146 -13.73609 18.682959
36.014523 -17.027275 16.808023
36.026768 -20.309496 14.842434
35.84901 -23.669178 12.725397
35.340073 -24.210604 14.869024
34.640163 -27.89234 14.850358
33.878143 -31.536198 14.973412
26.953741 -37.466881 -17.167065
25.590096 -39.868164 -18.698154
33.239834 -36.181519 3.735108
33.23756 -35.520096 1.552463
32.233849 -38.932079 1.574798
31.095629 -41.676731 -0.613701
29.956615 -44.245342 -2.515646
28.981041 -47.177509 -2.681294
27.063635 -45.088772 -12.591047
26.57453 -44.282005 -14.490727
38.112263 6.804276 16.650806
37.755436 2.623369 17.183393
38.079365 -0.801874 15.505771
37.134258 -9.078538 16.306681
37.806602 -8.445017 14.121718
35.076248 -29.608335 5.951861
35.454254 -27.067793 10.472225
34.896698 -30.17745 8.222679
34.147388 -33.241547 6.058037
33.252544 -36.559887 6.121084
32.293114 -39.961349 6.009466
18.357813 -37.887463 -29.013542
18.001717 -34.755802 -29.690416
16.834236 -36.595184 -30.77832
36.450951 5.077491 21.00316
36.096584 0.986935 21.357466
35.660236 -3.235806 21.731068
34.718185 -4.339013 23.723812
35.182095 -7.412165 22.083214
34.728619 -11.332889 22.303534
34.241215 -15.307996 22.489481
33.755188 -19.083277 22.637241
20.872143 -36.836746 -26.209419
25.869738 -43.650383 -16.520096
25.108717 -43.010796 -18.400393
24.245596 -42.421883 -20.226137
23.278286 -41.553505 -22.078821
22.204939 -40.920933 -23.828941
21.047274 -39.852859 -25.578518
19.787031 -38.892834 -27.262495
18.81596 -41.002125 -28.281618
33.444683 -26.202557 20.78684
33.480991 -29.148462 18.969831
33.378864 -32.166977 16.990089
33.107018 -35.242306 14.893708
32.729095 -37.932598 12.786251
30.000816 -35.972889 -11.42217
29.126173 -39.433975 -11.248112
33.074371 -35.082874 -0.702487
31.087751 -37.172451 -7.172688
29.813156 -39.562599 -9.12514
28.426571 -42.382648 -10.863597
27.581997 -45.493073 -10.652847
30.355604 -45.490656 2.690176
30.792916 -44.031609 2.683067
30.887448 -44.161058 3.764523
29.817449 -46.797497 1.591485
30.355604 -45.490656 2.690176
19.356305 -34.523783 -28.273987
20.128301 -34.913355 -27.366224
36.781199 -19.65963 11.424581
37.107433 -17.863104 11.239677
36.910776 -17.95326 12.417677
36.419952 -21.461069 11.593409
36.61661 -21.370914 10.415408
36.781199 -19.65963 11.424581
34.405109 4.663747 25.650089
34.850701 5.299564 24.711131
34.18968 -32.479092 2.794718
34.670702 -30.930372 3.831184
26.484729 -46.226431 -13.370503
26.720883 -46.531948 -12.397679
37.336906 2.186775 18.288101
37.530388 4.34819 18.04025
37.111858 3.911596 19.144959
37.934507 -4.742728 14.915067
38.170493 -2.612842 14.670428
37.84338 -2.93176 15.75041
37.809394 -10.319035 13.131203
37.536701 -10.539715 14.235425
37.539494 -12.413733 13.24491
38.097896 -8.2055 12.930626
37.809394 -10.319035 13.131203
35.858311 -26.186093 7.052183
36.16872 -24.573222 8.214643
35.430021 -27.986859 7.09155
35.504537 -27.807569 5.912494
35.858311 -26.186093 7.052183
31.880268 -41.541311 7.247794
31.872204 -41.437326 6.046397
32.301178 -40.065334 7.210863
36.171093 6.690785 21.799284
36.597448 7.281244 20.794604
34.516313 -6.428222 23.80142
34.278877 -4.843003 24.616802
34.077005 -6.932212 24.69441
33.800039 -15.742039 23.460424
34.049925 -13.920999 23.291164
33.60875 -14.355042 24.262106
33.557026 -17.62968 23.534304
33.998201 -17.195636 22.563361
33.800039 -15.742039 23.460424
22.241982 -36.295578 -24.613922
22.841485 -35.126928 -24.061257
22.903575 -36.641019 -23.696873
21.588108 -37.323207 -25.229478
21.526018 -35.809117 -25.593863
22.241982 -36.295578 -24.613922
25.621495 -45.241833 -16.235912
26.222134 -43.966194 -15.505411
25.97389 -45.557643 -15.221227
24.572986 -44.24046 -19.007511
24.943255 -44.58581 -18.073065
24.141426 -43.946003 -19.920383
24.677156 -42.71634 -19.313265
24.572986 -44.24046 -19.007511
22.762287 -42.772299 -22.64777
23.215854 -43.16728 -21.793094
22.225614 -42.456013 -23.52283
22.741613 -41.237219 -22.953881
22.762287 -42.772299 -22.64777
20.534165 -40.984235 -26.1299
21.105313 -41.510666 -25.28806
20.592203 -42.642042 -25.839442
33.147804 -27.982988 20.885032
33.092877 -26.538681 21.768486
33.165958 -29.455941 19.976527
33.462837 -27.675509 19.878335
33.147804 -27.982988 20.885032
32.321936 -39.669403 12.691537
32.56382 -38.232422 13.821575
32.440155 -39.33363 11.649497
32.321936 -39.669403 12.691537
38.467757 7.321241 15.522786
38.315061 5.233202 15.779656
30.300148 -36.217236 -10.416404
30.706465 -34.656039 -10.467657
31.005797 -34.900385 -9.461892
32.221108 -35.988581 -3.915231
32.355567 -36.263178 -2.884971
31.742419 -37.630482 -3.900031
32.0446 -35.773184 -5.00695
32.221108 -35.988581 -3.915231
31.347856 -37.264168 -6.05149
31.784495 -35.681467 -6.128148
32.0446 -35.773184 -5.00695
27.407531 -47.158665 -9.531224
27.595244 -47.371032 -8.576833
17.806375 -33.316977 -30.075674
17.198927 -34.168825 -30.584295
28.198716 -38.288755 -14.225297
28.540878 -36.751329 -14.347913
28.9355 -36.991402 -13.337712
29.705177 -46.596691 0.506916
29.606753 -46.402811 -0.563527
30.162649 -45.167326 0.538276
29.705177 -46.596691 0.506916
29.817449 -46.797497 1.591485
37.524599 -14.174892 12.186731
37.539494 -12.413733 13.24491
37.251906 -14.395573 13.290954
37.453193 -15.895869 11.112578
37.524599 -14.174892 12.186731
37.453193 -15.895869 11.112578
37.107433 -17.863104 11.239677
36.404505 -22.976706 9.391142
36.61661 -21.370914 10.415408
36.019579 -24.768867 9.407738
36.16872 -24.573222 8.214643
36.404505 -22.976706 9.391142
16.615649 -39.057209 -30.905369
16.963555 -40.7192 -30.51596
35.318445 5.769913 23.710658
35.73974 6.196893 22.772143
35.1205 3.619358 23.949352
35.318445 5.769913 23.710658
34.850701 5.299564 24.711131
33.880106 -8.869573 24.790851
34.077005 -6.932212 24.69441
33.642669 -7.284353 25.606233
33.652203 -10.877858 24.897759
34.086539 -10.525716 23.985937
33.880106 -8.869573 24.790851
33.430441 -12.811015 25.027452
33.652203 -10.877858 24.897759
33.180555 -14.632055 25.196711
33.60875 -14.355042 24.262106
33.430441 -12.811015 25.027452
26.079645 -35.262308 -19.477071
26.674392 -35.537104 -18.41446
25.504729 -34.921715 -20.475485
26.079645 -35.262308 -19.477071
25.392024 -36.40452 -20.156989
24.874969 -34.596132 -21.487788
25.504729 -34.921715 -20.475485
24.160093 -35.768148 -22.149806
24.217954 -34.300354 -22.482191
24.874969 -34.596132 -21.487788
20.176806 -43.737215 -26.343132
20.592203 -42.642042 -25.839442
19.582909 -43.189222 -27.208131
20.176806 -43.737215 -26.343132
32.559077 -33.090878 20.038466
32.84674 -31.207731 20.04852
32.52714 -34.494488 19.09158
32.559077 -33.090878 20.038466
32.449364 -36.008625 18.060546
32.76478 -34.166179 18.082783
32.52714 -34.494488 19.09158
31.295595 -35.139005 -8.360046
31.005797 -34.900385 -9.461892
27.778748 -47.613119 -7.547866
27.595244 -47.371032 -8.576833
28.215543 -46.128366 -7.655851
28.11345 -36.429222 -15.399804
28.540878 -36.751329 -14.347913
27.688274 -36.138321 -16.365587
28.11345 -36.429222 -15.399804
27.378918 -37.757782 -16.201282
27.167793 -35.897987 -17.418705
27.688274 -36.138321 -16.365587
26.460341 -37.105997 -18.16282
26.674392 -35.537104 -18.41446
27.167793 -35.897987 -17.418705
29.33101 -45.541483 -3.554215
29.194273 -45.308514 -4.615673
29.819879 -44.012373 -3.577104
28.843223 -47.007566 -3.637039
29.33101 -45.541483 -3.554215
29.468828 -45.711426 -2.59847
28.374575 -48.467334 -3.627602
28.843223 -47.007566 -3.637039
29.065161 -47.504842 -1.63809
29.522634 -46.075478 -1.606731
29.606753 -46.402811 -0.563527
28.513383 -48.656284 -2.664745
29.065161 -47.504842 -1.63809
28.597503 -48.983617 -1.621541
28.374575 -48.467334 -3.627602
28.513383 -48.656284 -2.664745
26.240177 -45.823048 -14.320343
26.819083 -44.685389 -13.540887
26.484729 -46.226431 -13.370503
25.97389 -45.557643 -15.221227
26.240177 -45.823048 -14.320343
37.708801 6.438643 17.773957
37.868355 8.674152 17.469924
37.93385 4.713823 16.917099
37.708801 6.438643 17.773957
37.530388 4.34819 18.04025
38.136648 3.142749 16.04595
38.315061 5.233202 15.779656
37.93385 4.713823 16.917099
38.298613 1.430128 15.207139
38.136648 3.142749 16.04595
37.9174 0.910747 16.344582
38.390152 -0.492304 14.442421
38.298613 1.430128 15.207139
38.390152 -0.492304 14.442421
38.170493 -2.612842 14.670428
38.034111 -6.434413 13.978402
37.934507 -4.742728 14.915067
37.706998 -6.753331 15.058383
38.034111 -6.434413 13.978402
38.097896 -8.2055 12.930626
35.115212 -29.337338 4.875196
35.504537 -27.807569 5.912494
34.631738 -31.201369 4.907849
34.670702 -30.930372 3.831184
35.115212 -29.337338 4.875196
31.388027 -42.807657 4.920371
31.808937 -41.33168 4.88344
31.872204 -41.437326 6.046397
30.887448 -44.161058 3.764523
31.388027 -42.807657 4.920371
16.615187 -35.088516 -31.128247
17.198927 -34.168825 -30.584295
17.417977 -35.675493 -30.234368
16.342941 -37.505503 -31.27844
17.106945 -38.14689 -30.40525
16.615649 -39.057209 -30.905369
16.093604 -35.980372 -31.596578
16.342941 -37.505503 -31.27844
16.615187 -35.088516 -31.128247
16.093604 -35.980372 -31.596578
36.878146 5.575251 19.950134
36.597448 7.281244 20.794604
36.684664 3.413836 20.197985
37.111858 3.911596 19.144959
36.878146 5.575251 19.950134
36.019598 4.5836 21.976019
36.171093 6.690785 21.799284
35.73974 6.196893 22.772143
34.187033 2.541183 25.898859
34.405109 4.663747 25.650089
34.424513 0.980245 25.164707
34.187033 2.541183 25.898859
34.674177 -0.678655 24.389209
34.90242 1.490109 24.174328
34.424513 0.980245 25.164707
34.457228 -2.763766 24.5517
34.278877 -4.843003 24.616802
34.935135 -2.253901 23.561321
34.674177 -0.678655 24.389209
34.457228 -2.763766 24.5517
23.568593 -34.015349 -23.409973
24.217954 -34.300354 -22.482191
23.568593 -34.015349 -23.409973
22.841485 -35.126928 -24.061257
20.833976 -35.347885 -26.488933
21.526018 -35.809117 -25.593863
20.166469 -36.402216 -27.08671
20.128301 -34.913355 -27.366224
20.833976 -35.347885 -26.488933
25.323765 -44.905603 -17.132917
25.621495 -45.241833 -16.235912
25.489227 -43.33059 -17.460245
25.323765 -44.905603 -17.132917
24.943255 -44.58581 -18.073065
23.699509 -43.601469 -20.866751
24.141426 -43.946003 -19.920383
23.761941 -41.987694 -21.152479
23.699509 -43.601469 -20.866751
23.215854 -43.16728 -21.793094
21.684145 -42.044702 -24.413272
22.225614 -42.456013 -23.52283
21.626106 -40.386896 -24.70373
21.684145 -42.044702 -24.413272
21.105313 -41.510666 -25.28806
18.980362 -42.632479 -28.008299
19.418508 -41.558869 -27.48145
19.582909 -43.189222 -27.208131
18.372965 -41.979878 -28.80415
18.980362 -42.632479 -28.008299
18.537367 -43.610231 -28.530831
17.654812 -41.328114 -29.679431
18.097807 -40.350361 -29.156899
18.372965 -41.979878 -28.80415
16.963555 -40.7192 -30.51596
17.654812 -41.328114 -29.679431
33.354439 -19.516777 23.552917
33.557026 -17.62968 23.534304
33.497557 -21.082828 22.676977
33.354439 -19.516777 23.552917
33.60713 -22.6904 21.801685
33.864762 -20.690849 21.76195
33.497557 -21.082828 22.676977
33.342304 -24.642468 21.751776
33.092877 -26.538681 21.768486
33.709509 -24.250488 20.836749
33.60713 -22.6904 21.801685
33.342304 -24.642468 21.751776
33.161774 -30.900252 19.041824
33.165958 -29.455941 19.976527
32.84674 -31.207731 20.04852
32.359501 -37.409388 16.974142
32.449364 -36.008625 18.060546
32.542774 -37.106282 15.954324
32.359501 -37.409388 16.974142
32.752781 -36.887276 14.875304
32.897011 -35.461312 15.972728
32.542774 -37.106282 15.954324
32.918056 -36.587452 13.83998
32.752781 -36.887276 14.875304
32.56382 -38.232422 13.821575
32.569186 -39.082598 10.584559
32.858125 -37.681566 11.721312
32.440155 -39.33363 11.649497
32.230228 -40.45199 9.462502
32.648199 -38.799926 9.534317
32.569186 -39.082598 10.584559
31.856065 -41.823332 8.337317
32.230228 -40.45199 9.462502
31.880268 -41.541311 7.247794
31.856065 -41.823332 8.337317
38.263552 9.134942 16.304668
37.868355 8.674152 17.469924
38.263552 9.134942 16.304668
38.467757 7.321241 15.522786
30.348767 -34.352118 -11.60647
30.706465 -34.656039 -10.467657
29.639239 -35.713432 -12.441249
30.348767 -34.352118 -11.60647
29.297077 -37.250858 -12.318633
28.9355 -36.991402 -13.337712
29.639239 -35.713432 -12.441249
33.714846 -33.841938 1.639031
34.18968 -32.479092 2.794718
33.712395 -34.15725 2.70815
33.633251 -33.623327 0.511556
33.714846 -33.841938 1.639031
33.155966 -35.301485 0.424988
33.514457 -33.502798 -0.713801
33.633251 -33.623327 0.511556
32.954313 -34.852075 -1.801329
32.475625 -36.493977 -1.786129
32.355567 -36.263178 -2.884971
33.514457 -33.502798 -0.713801
32.954313 -34.852075 -1.801329
31.539731 -35.49444 -7.241072
31.784495 -35.681467 -6.128148
30.843615 -36.817017 -8.291663
31.295595 -35.139005 -8.360046
31.539731 -35.49444 -7.241072
26.980063 -46.734099 -11.428579
26.720883 -46.531948 -12.397679
27.322816 -45.290923 -11.621947
27.18251 -46.962061 -10.515238
27.807018 -45.689677 -9.668833
27.407531 -47.158665 -9.531224
26.980063 -46.734099 -11.428579
27.18251 -46.962061 -10.515238
28.552226 -46.604039 -5.609834
29.041095 -45.074928 -5.632723
29.194273 -45.308514 -4.615673
27.938764 -47.840071 -6.580999
28.552226 -46.604039 -5.609834
27.778748 -47.613119 -7.547866
27.938764 -47.840071 -6.580999
18.626767 -33.917841 -29.137194
19.356305 -34.523783 -28.273987
18.731255 -35.361744 -28.827208
18.626767 -33.917841 -29.137194
17.806375 -33.316977 -30.075674
3 0 34 32
3 0 36 34
3 1 39 37
3 132 42 133
3 134 133 40
3 132 133 134
3 136 135 42
3 2 137 138
3 3 45 43
3 4 48 46
3 4 139 141
3 141 140 48
3 139 140 141
3 4 142 144
3 142 49 143
3 142 143 144
3 6 52 50
3 6 54 52
3 145 56 146
3 7 59 58
3 7 61 59
3 5 147 148
3 8 65 63
3 8 67 65
3 8 69 67
3 9 72 70
3 11 73 33
3 11 74 73
3 11 76 74
3 13 77 35
3 13 78 77
3 14 79 38
3 14 80 79
3 15 83 81
3 17 84 41
3 17 85 84
3 17 86 85
3 150 149 87
3 18 151 153
3 151 90 152
3 151 152 153
3 19 91 44
3 19 154 156
3 156 155 91
3 154 155 156
3 10 92 71
3 157 93 158
3 159 158 47
3 157 158 159
3 161 160 93
3 20 162 163
3 20 164 166
3 164 94 165
3 164 165 166
3 12 95 75
3 21 96 51
3 21 97 96
3 21 98 97
3 22 99 53
3 22 167 169
3 169 168 99
3 167 168 169
3 23 102 100
3 170 103 171
3 24 104 55
3 24 105 104
3 25 172 174
3 172 106 173
3 172 173 174
3 25 107 106
3 25 108 107
3 175 109 176
3 177 176 57
3 175 176 177
3 178 110 179
3 180 179 109
3 178 179 180
3 26 181 183
3 183 182 60
3 181 182 183
3 26 184 186
3 184 111 185
3 184 185 186
3 187 112 188
3 189 188 88
3 187 188 189
3 190 113 191
3 192 114 193
3 194 193 113
3 192 193 194
3 195 115 196
3 197 116 198
3 199 198 115
3 197 198 199
3 27 200 202
3 200 117 201
3 200 201 202
3 27 118 117
3 27 119 118
3 203 120 204
3 205 121 206
3 207 206 120
3 205 206 207
3 28 122 62
3 28 123 122
3 208 124 209
3 211 210 124
3 213 212 89
3 29 214 216
3 214 125 215
3 214 215 216
3 29 126 125
3 16 127 82
3 30 217 219
3 219 218 64
3 217 218 219
3 30 220 221
3 30 222 224
3 222 128 223
3 222 223 224
3 31 129 66
3 31 130 129
3 31 131 130
3 226 225 68
3 228 227 101
3 32 33 9
3 34 33 32
3 34 11 33
3 34 35 11
3 36 35 34
3 36 13 35
3 37 229 231
3 229 38 230
3 229 230 231
3 39 38 37
3 39 14 38
3 40 41 15
3 42 41 40
3 42 17 41
3 42 232 234
3 234 233 17
3 232 233 234
3 236 235 42
3 43 44 18
3 45 44 43
3 45 19 44
3 46 47 10
3 48 47 46
3 48 237 239
3 239 238 47
3 237 238 239
3 48 240 241
3 243 242 48
3 49 244 245
3 49 246 248
3 246 20 247
3 246 247 248
3 50 51 12
3 52 51 50
3 52 21 51
3 52 53 21
3 54 53 52
3 54 22 53
3 250 249 23
3 251 55 252
3 56 253 255
3 253 55 254
3 253 254 255
3 56 24 55
3 256 25 257
3 256 257 258
3 259 57 260
3 261 260 25
3 259 260 261
3 262 57 263
3 266 265 57
3 264 265 266
3 58 267 268
3 59 269 271
3 271 270 58
3 269 270 271
3 59 272 273
3 59 274 276
3 274 60 275
3 274 275 276
3 61 60 59
3 61 26 60
3 277 27 278
3 280 279 27
3 281 62 282
3 283 62 284
3 285 28 286
3 287 286 62
3 285 286 287
3 288 29 289
3 63 64 16
3 65 64 63
3 65 30 64
3 65 66 30
3 67 66 65
3 67 31 66
3 67 68 31
3 69 68 67
3 69 290 292
3 292 291 68
3 290 291 292
3 70 71 3
3 72 71 70
3 72 10 71
3 33 72 9
3 73 72 33
3 73 10 72
3 73 46 10
3 74 46 73
3 74 4 46
3 74 75 4
3 76 75 74
3 76 12 75
3 35 76 11
3 77 76 35
3 77 12 76
3 77 50 12
3 78 50 77
3 78 6 50
3 38 293 294
3 79 295 297
3 297 296 38
3 295 296 297
3 79 298 299
3 79 300 302
3 300 58 301
3 300 301 302
3 80 58 79
3 80 7 58
3 81 82 5
3 83 82 81
3 83 16 82
3 41 83 15
3 84 83 41
3 84 16 83
3 84 63 16
3 85 63 84
3 85 8 63
3 85 303 305
3 305 304 8
3 303 304 305
3 86 306 308
3 308 307 85
3 306 307 308
3 86 309 310
3 311 86 312
3 313 312 17
3 311 312 313
3 314 86 315
3 314 315 316
3 318 317 86
3 87 88 1
3 319 88 320
3 321 320 87
3 319 320 321
3 323 322 88
3 324 89 325
3 90 326 328
3 326 89 327
3 326 327 328
3 90 329 331
3 331 330 89
3 329 330 331
3 44 90 18
3 91 90 44
3 91 332 334
3 334 333 90
3 332 333 334
3 91 335 336
3 338 337 91
3 71 45 3
3 92 45 71
3 92 19 45
3 47 92 10
3 93 92 47
3 93 19 92
3 93 339 341
3 341 340 19
3 339 340 341
3 343 342 93
3 94 344 345
3 94 346 348
3 346 5 347
3 346 347 348
3 75 49 4
3 95 49 75
3 95 20 49
3 51 95 12
3 96 95 51
3 96 20 95
3 96 94 20
3 97 94 96
3 97 5 94
3 97 81 5
3 98 81 97
3 98 15 81
3 53 98 21
3 99 98 53
3 99 15 98
3 99 40 15
3 349 40 350
3 351 350 99
3 349 350 351
3 353 352 40
3 100 101 2
3 102 101 100
3 102 354 356
3 356 355 101
3 354 355 356
3 357 102 358
3 359 358 23
3 357 358 359
3 360 102 361
3 363 362 102
3 103 364 365
3 103 366 368
3 366 18 367
3 366 367 368
3 55 369 371
3 369 103 370
3 369 370 371
3 104 103 55
3 104 18 103
3 104 43 18
3 105 43 104
3 105 3 43
3 372 56 373
3 374 56 375
3 376 24 377
3 378 377 56
3 376 377 378
3 106 379 380
3 106 381 383
3 381 24 382
3 381 382 383
3 106 105 24
3 107 105 106
3 107 3 105
3 107 70 3
3 108 70 107
3 108 9 70
3 57 108 25
3 109 108 57
3 109 9 108
3 109 32 9
3 110 32 109
3 110 0 32
3 60 384 385
3 387 386 60
3 111 388 389
3 111 390 392
3 390 2 391
3 390 391 392
3 88 39 1
3 112 39 88
3 112 14 39
3 393 112 394
3 113 395 397
3 395 112 396
3 395 396 397
3 113 14 112
3 113 80 14
3 114 80 113
3 114 7 80
3 398 114 399
3 115 400 402
3 400 114 401
3 400 401 402
3 115 7 114
3 115 61 7
3 116 61 115
3 116 26 61
3 403 116 404
3 117 405 407
3 405 116 406
3 405 406 407
3 117 26 116
3 117 111 26
3 118 111 117
3 118 2 111
3 118 100 2
3 119 100 118
3 119 23 100
3 408 119 409
3 410 409 27
3 408 409 410
3 411 119 412
3 411 412 413
3 414 23 415
3 416 415 119
3 414 415 416
3 418 417 23
3 419 110 420
3 421 110 422
3 423 0 424
3 425 424 110
3 423 424 425
3 120 426 427
3 120 428 430
3 428 0 429
3 428 429 430
3 120 36 0
3 121 36 120
3 121 13 36
3 62 431 433
3 431 121 432
3 431 432 433
3 122 121 62
3 122 13 121
3 122 78 13
3 123 78 122
3 123 6 78
3 434 28 435
3 436 28 437
3 438 123 439
3 440 439 28
3 438 439 440
3 124 441 443
3 441 123 442
3 441 442 443
3 124 6 123
3 124 54 6
3 444 54 445
3 446 445 124
3 444 445 446
3 447 22 448
3 449 448 54
3 447 448 449
3 450 22 451
3 453 452 22
3 89 454 455
3 457 456 89
3 125 458 459
3 125 460 461
3 125 462 464
3 462 37 463
3 462 463 464
3 126 37 125
3 126 1 37
3 82 465 467
3 467 466 5
3 465 466 467
3 127 468 470
3 470 469 82
3 468 469 470
3 127 471 472
3 64 127 16
3 473 127 474
3 475 474 64
3 473 474 475
3 477 476 127
3 128 478 479
3 128 480 482
3 480 29 481
3 480 481 482
3 66 128 30
3 129 128 66
3 129 29 128
3 129 126 29
3 130 126 129
3 130 1 126
3 130 87 1
3 131 87 130
3 131 483 485
3 485 484 87
3 483 484 485
3 68 131 31
3 486 131 487
3 488 487 68
3 486 487 488
3 490 489 131
3 491 69 492
3 493 492 8
3 491 492 493
3 494 69 495
3 497 496 69
3 101 498 500
3 500 499 2
3 498 499 500
3 502 501 101
