ply
format ascii 1.0
element vertex 297
property float x
property float y
property float z
element face 289
property list uchar int vertex_index
end_header
-23.801796 -75.73098 -24.93902
-26.525644 -68.568535 -33.351547
-16.699186 -87.438637 -24.742283
-20.49402 -80.815392 -15.950026
-17.260712 -86.223274 -16.134195
-24.212572 -72.123886 -11.593782
-20.419228 -81.585022 -24.612211
-17.735985 -84.950386 -28.597164
-21.546309 -78.879913 -28.829062
-27.020281 -69.71209 -25.239531
-25.24227 -72.467911 -29.306633
-28.725277 -65.931786 -29.777025
-30.081873 -61.68261 -34.16243
-13.161286 -92.410057 -24.550459
-15.479136 -89.400826 -20.750246
-18.990723 -84.002075 -20.336899
-22.270189 -78.361687 -20.566206
-21.576744 -77.507957 -11.250175
-23.466471 -75.225166 -16.048143
-22.805727 -75.110214 -32.780777
-19.36871 -78.088364 -35.99559
-22.061691 -78.789375 -24.89603
-20.983366 -80.336464 -26.762617
-22.836901 -77.193268 -26.902905
-28.524927 -66.713486 -25.579205
-27.889668 -67.928131 -27.433449
-29.472061 -64.740593 -27.798676
-18.95899 -83.458916 -15.939848
-18.098349 -85.250694 -18.31801
-19.756573 -82.496338 -18.181595
-20.609509 -81.291611 -20.531338
-21.376698 -79.673676 -18.294071
-23.860895 -73.76413 -13.959987
-14.88046 -90.0868 -24.597361
-13.488619 -91.648651 -26.313354
-15.464643 -88.898247 -26.535988
-18.171942 -83.524422 -30.48822
-25.828165 -70.749535 -31.333752
-24.076193 -73.876152 -31.039982
-24.711088 -71.818359 -33.077278
-21.541618 -74.41613 -36.455814
-19.62336 -75.951347 -37.784683
-19.556377 -81.894287 -13.496325
-23.227722 -73.28949 -9.095648
-18.572491 -84.563293 -24.67745
-17.390522 -86.03418 -26.690254
-19.258316 -83.137505 -26.677191
-19.703693 -81.884903 -28.687464
-20.111769 -80.44722 -30.721659
-27.076817 -66.290451 -35.43998
-25.47908 -72.650284 -25.167152
-24.614773 -74.049385 -27.11591
-26.256977 -71.038399 -27.305737
-27.043203 -69.189377 -29.427713
-27.694691 -67.326027 -31.563051
-29.451536 -63.838959 -32.085968
-28.311872 -65.162735 -33.786018
-28.930439 -62.682999 -35.932781
-14.292293 -91.062042 -22.634031
-16.106276 -88.497108 -22.745331
-16.39819 -87.891342 -18.571758
-17.226692 -86.814911 -20.653742
-17.901941 -85.776772 -22.669811
-19.640358 -82.988014 -22.549618
-21.429829 -79.961403 -22.591484
-23.077425 -77.052628 -22.796791
-21.099041 -79.178955 -13.748535
-22.891453 -74.902313 -11.432194
-22.572348 -76.335442 -13.744386
-22.028019 -78.00238 -15.958669
-22.917675 -76.821938 -18.282049
-23.770332 -75.579208 -20.510235
-24.618311 -74.22937 -23.000477
-15.801844 -87.85743 -28.402931
-23.453619 -75.655548 -28.98407
-22.215635 -77.058083 -30.799023
-20.813833 -78.362366 -32.625305
-23.174215 -73.235542 -34.76857
-21.209282 -76.468407 -34.567261
-19.039383 -79.952682 -34.305588
-29.758184 -64.141709 -26.859647
-28.998494 -65.72704 -26.688941
-29.284618 -65.128155 -25.749912
-17.334916 -84.309899 -31.314085
-18.391695 -82.662128 -31.493232
-19.81326 -74.705204 -38.605726
-20.747737 -74.045452 -38.008122
-18.621976 -76.597133 -38.433471
-19.81326 -74.705204 -38.605726
-19.1242 -82.35672 -12.441304
-18.823557 -83.165283 -13.661555
-26.284498 -66.952008 -36.260005
-27.26624 -65.200901 -36.389364
-29.766705 -62.760784 -33.124199
-30.224302 -62.293859 -32.161892
-30.539471 -61.215685 -33.200123
-14.885715 -90.231434 -21.692138
-13.99134 -91.446766 -21.653493
-14.584762 -90.616158 -20.711601
-16.829451 -87.057308 -17.352976
-16.012593 -88.285736 -17.472013
-16.443854 -87.451702 -16.253232
-20.895395 -78.812591 -11.277936
-21.120558 -77.987651 -10.029655
-21.337893 -78.343456 -12.499355
-20.656543 -79.64809 -12.527116
-20.895395 -78.812591 -11.277936
-24.528484 -74.135318 -20.655625
-24.084338 -74.765831 -19.426144
-24.952473 -73.460399 -21.900745
-24.194322 -74.904289 -21.755356
-24.528484 -74.135318 -20.655625
-25.407738 -72.719803 -23.057953
-24.952473 -73.460399 -21.900745
-12.460401 -93.165512 -25.249013
-12.322695 -93.474025 -24.431629
-12.761999 -92.358086 -27.042349
-13.704131 -91.101097 -27.200277
-23.364095 -72.128181 -35.76001
-24.180122 -71.457393 -34.969358
-18.212826 -79.841335 -35.891571
-18.048163 -80.773494 -35.04657
-19.204047 -79.020523 -35.150589
-30.890684 -60.046837 -34.271223
-30.539471 -61.215685 -33.200123
-31.187627 -58.874083 -35.262199
-30.378816 -60.509856 -35.153406
-30.890684 -60.046837 -34.271223
-15.073094 -89.876236 -19.708663
-14.584762 -90.616158 -20.711601
-21.798084 -76.648266 -10.078326
-21.120558 -77.987651 -10.029655
-24.500842 -72.398083 -14.001057
-24.036734 -72.944008 -12.776884
-24.676681 -71.577961 -12.817954
-24.334554 -73.128174 -15.048752
-24.500842 -72.398083 -14.001057
-24.137342 -73.858692 -16.09283
-23.663683 -74.494648 -15.004065
-24.334554 -73.128174 -15.048752
-23.932408 -74.58881 -17.195099
-24.137342 -73.858692 -16.09283
-14.692143 -89.725895 -27.311594
-13.704131 -91.101097 -27.200277
-14.476631 -90.273449 -26.424671
-17.140981 -85.074119 -30.402634
-16.923002 -85.787102 -29.457107
-17.953964 -84.237404 -29.542692
-17.140981 -85.074119 -30.402634
-17.334916 -84.309899 -31.314085
-21.706866 -73.277843 -37.343687
-22.547796 -72.718475 -36.603632
-20.582489 -75.183739 -37.120249
-21.706866 -73.277843 -37.343687
-20.747737 -74.045452 -38.008122
-18.536723 -77.698078 -37.597311
-18.409398 -78.766587 -36.702765
-19.496035 -77.019856 -36.890136
-17.535339 -78.343864 -38.246099
-18.536723 -77.698078 -37.597311
-18.621976 -76.597133 -38.433471
-16.879834 -86.56311 -14.980519
-16.443854 -87.451702 -16.253232
-17.675725 -85.329777 -14.980489
-16.879834 -86.56311 -14.980519
-18.524864 -83.947598 -14.883316
-18.109851 -84.841095 -16.037021
-17.675725 -85.329777 -14.980489
-19.257683 -82.676602 -14.718087
-18.524864 -83.947598 -14.883316
-18.823557 -83.165283 -13.661555
-23.360948 -72.552093 -8.013856
-22.748423 -73.832569 -7.833806
-22.881648 -73.095172 -6.752014
-23.817217 -72.015301 -9.202579
-23.360948 -72.552093 -8.013856
-24.309643 -71.432499 -10.451645
-23.720147 -72.706688 -10.344715
-23.817217 -72.015301 -9.202579
-24.78952 -70.883827 -11.738189
-24.309643 -71.432499 -10.451645
-24.676681 -71.577961 -12.817954
-24.78952 -70.883827 -11.738189
-19.361608 -81.123527 -31.609952
-18.391695 -82.662128 -31.493232
-19.141855 -81.985821 -30.60494
-26.131423 -67.984848 -35.305064
-25.855837 -69.12389 -34.260847
-26.80123 -67.429493 -34.395764
-26.131423 -67.984848 -35.305064
-26.284498 -66.952008 -36.260005
-30.189307 -63.225266 -28.065531
-29.758184 -64.141709 -26.859647
-30.475431 -62.626381 -27.126502
-29.884044 -63.739176 -28.987952
-30.189307 -63.225266 -28.065531
-29.510652 -64.334772 -29.977127
-29.098669 -65.33619 -28.78785
-29.884044 -63.739176 -28.987952
-29.873781 -63.288359 -31.131599
-30.224302 -62.293859 -32.161892
-29.088406 -64.885373 -30.931497
-29.510652 -64.334772 -29.977127
-29.873781 -63.288359 -31.131599
-28.193051 -63.397175 -36.635765
-27.26624 -65.200901 -36.389364
-28.003628 -64.486725 -35.68638
-29.8031 -61.01005 -36.038581
-29.506156 -62.182805 -35.047606
-30.378816 -60.509856 -35.153406
-29.148966 -61.525698 -36.88256
-29.8031 -61.01005 -36.038581
-28.193051 -63.397175 -36.635765
-29.148966 -61.525698 -36.88256
-12.863475 -92.861671 -23.629131
-12.322695 -93.474025 -24.431629
-13.428978 -92.187664 -22.670918
-13.99134 -91.446766 -21.653493
-13.72679 -91.73605 -23.592245
-12.863475 -92.861671 -23.629131
-13.428978 -92.187664 -22.670918
-15.532621 -89.121494 -18.619419
-16.012593 -88.285736 -17.472013
-15.938663 -88.646084 -19.661002
-15.073094 -89.876236 -19.708663
-15.532621 -89.121494 -18.619419
-19.885211 -81.005757 -12.401011
-19.1242 -82.35672 -12.441304
-20.327709 -80.536621 -13.62243
-19.885211 -81.005757 -12.401011
-20.656543 -79.64809 -12.527116
-22.623573 -74.539032 -9.001062
-22.748423 -73.832569 -7.833806
-22.455438 -75.345444 -10.169335
-22.623573 -74.539032 -9.001062
-23.059587 -74.095901 -10.263921
-22.234099 -76.205135 -11.341185
-21.798084 -76.648266 -10.078326
-22.455438 -75.345444 -10.169335
-23.658009 -75.387196 -18.312052
-23.192073 -76.023552 -17.165096
-23.932408 -74.58881 -17.195099
-23.344003 -76.200573 -19.396142
-23.658009 -75.387196 -18.312052
-24.084338 -74.765831 -19.426144
-25.838122 -71.93026 -24.141291
-25.048696 -73.439827 -24.083815
-25.407738 -72.719803 -23.057953
-26.608723 -70.461163 -24.17748
-26.249681 -71.181187 -25.203342
-25.838122 -71.93026 -24.141291
-27.365029 -68.949234 -24.270803
-26.608723 -70.461163 -24.17748
-28.117352 -67.449932 -24.44064
-27.772604 -68.212788 -25.409368
-27.365029 -68.949234 -24.270803
-28.797274 -66.032555 -24.554202
-28.117352 -67.449932 -24.44064
-29.284618 -65.128155 -25.749912
-28.797274 -66.032555 -24.554202
-12.624067 -92.784809 -26.13046
-12.460401 -93.165512 -25.249013
-13.324953 -92.029354 -25.431907
-12.624067 -92.784809 -26.13046
-12.761999 -92.358086 -27.042349
-14.860743 -89.205487 -28.245065
-14.692143 -89.725895 -27.311594
-15.633243 -88.377838 -27.469459
-15.955932 -87.240623 -29.35999
-16.768915 -86.403908 -28.500048
-16.923002 -85.787102 -29.457107
-14.973174 -88.675358 -29.184024
-15.955932 -87.240623 -29.35999
-14.860743 -89.205487 -28.245065
-14.973174 -88.675358 -29.184024
-19.71264 -80.0811 -32.561775
-19.361608 -81.123527 -31.609952
-20.462801 -79.404793 -31.673482
-24.948559 -70.748802 -34.123712
-25.618366 -70.193447 -33.214412
-25.855837 -69.12389 -34.260847
-23.942652 -72.52695 -33.922924
-24.948559 -70.748802 -34.123712
-24.180122 -71.457393 -34.969358
-22.357917 -73.825836 -35.612192
-23.364095 -72.128181 -35.76001
-22.547796 -72.718475 -36.603632
-18.825415 -80.876259 -33.401916
-19.71264 -80.0811 -32.561775
-19.926608 -79.157524 -33.465446
-17.928047 -81.688755 -34.136431
-17.71408 -82.612332 -33.23276
-18.825415 -80.876259 -33.401916
-17.928047 -81.688755 -34.136431
-18.048163 -80.773494 -35.04657
-18.212826 -79.841335 -35.891571
-18.409398 -78.766587 -36.702765
3 0 23 21
3 80 26 81
3 82 81 24
3 80 81 82
3 3 29 27
3 3 31 29
3 2 35 33
3 84 83 36
3 1 39 37
3 85 41 86
3 88 87 41
3 89 42 90
3 6 46 44
3 8 47 22
3 8 48 47
3 92 91 49
3 9 52 50
3 11 53 25
3 11 54 53
3 12 93 95
3 93 55 94
3 93 94 95
3 12 56 55
3 12 57 56
3 14 96 98
3 96 58 97
3 96 97 98
3 14 59 58
3 4 99 101
3 99 60 100
3 99 100 101
3 15 61 28
3 15 62 61
3 15 63 62
3 16 64 30
3 16 65 64
3 17 102 103
3 17 104 106
3 104 66 105
3 104 105 106
3 5 67 43
3 18 68 32
3 18 69 68
3 18 70 69
3 107 71 108
3 109 72 110
3 111 110 71
3 109 110 111
3 113 112 72
3 13 114 115
3 117 116 34
3 7 73 45
3 10 74 51
3 19 75 38
3 19 76 75
3 118 77 119
3 20 78 40
3 20 79 78
3 20 120 122
3 122 121 79
3 120 121 122
3 21 22 6
3 23 22 21
3 23 8 22
3 24 25 9
3 26 25 24
3 26 11 25
3 123 12 124
3 127 126 12
3 125 126 127
3 128 14 129
3 27 28 4
3 29 28 27
3 29 15 28
3 29 30 15
3 31 30 29
3 31 16 30
3 130 17 131
3 132 32 133
3 134 133 5
3 132 133 134
3 135 32 136
3 137 18 138
3 139 138 32
3 137 138 139
3 141 140 18
3 33 34 13
3 35 34 33
3 35 142 144
3 144 143 34
3 142 143 144
3 36 145 147
3 147 146 7
3 145 146 147
3 149 148 36
3 37 38 10
3 39 38 37
3 39 19 38
3 150 40 151
3 41 152 154
3 152 40 153
3 152 153 154
3 41 20 40
3 41 155 157
3 157 156 20
3 155 156 157
3 160 159 41
3 158 159 160
3 161 4 162
3 163 4 164
3 165 27 166
3 167 166 4
3 165 166 167
3 42 168 170
3 168 27 169
3 168 169 170
3 42 3 27
3 171 43 172
3 171 172 173
3 174 43 175
3 176 5 177
3 178 177 43
3 176 177 178
3 179 5 180
3 182 181 5
3 44 45 2
3 46 45 44
3 46 7 45
3 22 46 6
3 47 46 22
3 47 7 46
3 47 36 7
3 48 36 47
3 48 183 185
3 185 184 36
3 183 184 185
3 49 186 188
3 188 187 1
3 186 187 188
3 190 189 49
3 50 51 0
3 52 51 50
3 52 10 51
3 25 52 9
3 53 52 25
3 53 10 52
3 53 37 10
3 54 37 53
3 54 1 37
3 191 26 192
3 191 192 193
3 194 26 195
3 196 11 197
3 198 197 26
3 196 197 198
3 55 199 200
3 55 201 203
3 201 11 202
3 201 202 203
3 55 54 11
3 56 54 55
3 56 1 54
3 56 49 1
3 57 49 56
3 57 204 206
3 206 205 49
3 204 205 206
3 207 57 208
3 209 208 12
3 207 208 209
3 210 57 211
3 213 212 57
3 214 13 215
3 58 216 217
3 58 218 220
3 218 13 219
3 218 219 220
3 58 33 13
3 59 33 58
3 59 2 33
3 60 221 222
3 60 223 225
3 223 14 224
3 223 224 225
3 28 60 4
3 61 60 28
3 61 14 60
3 61 59 14
3 62 59 61
3 62 2 59
3 62 44 2
3 63 44 62
3 63 6 44
3 30 63 15
3 64 63 30
3 64 6 63
3 64 21 6
3 65 21 64
3 65 0 21
3 226 42 227
3 66 228 230
3 228 42 229
3 228 229 230
3 66 3 42
3 43 231 232
3 67 233 235
3 235 234 43
3 233 234 235
3 67 236 238
3 236 17 237
3 236 237 238
3 32 67 5
3 68 67 32
3 68 17 67
3 68 66 17
3 69 66 68
3 69 3 66
3 69 31 3
3 70 31 69
3 70 16 31
3 239 70 240
3 241 240 18
3 239 240 241
3 71 242 244
3 242 70 243
3 242 243 244
3 71 16 70
3 71 65 16
3 72 65 71
3 72 0 65
3 72 50 0
3 245 50 246
3 247 246 72
3 245 246 247
3 248 9 249
3 250 249 50
3 248 249 250
3 251 9 252
3 253 24 254
3 255 254 9
3 253 254 255
3 256 24 257
3 259 258 24
3 34 260 262
3 262 261 13
3 260 261 262
3 264 263 34
3 45 35 2
3 73 35 45
3 73 265 267
3 267 266 35
3 265 266 267
3 268 73 269
3 270 269 7
3 268 269 270
3 271 73 272
3 274 273 73
3 51 23 0
3 74 23 51
3 74 8 23
3 38 74 10
3 75 74 38
3 75 8 74
3 75 48 8
3 76 48 75
3 76 275 277
3 277 276 48
3 275 276 277
3 278 39 279
3 280 279 1
3 278 279 280
3 77 281 283
3 281 39 282
3 281 282 283
3 77 19 39
3 40 284 286
3 284 77 285
3 284 285 286
3 78 77 40
3 78 19 77
3 78 76 19
3 79 76 78
3 79 287 289
3 289 288 76
3 287 288 289
3 79 290 292
3 290 291 292
3 294 293 79
3 296 295 20
