ply
format ascii 1.0
element vertex 405
property float x
property float y
property float z
element face 432
property list uchar int vertex_index
end_header
-1.288523 30.260149 53.570263
12.876076 31.030441 43.515469
19.046858 30.594528 36.38472
0.758372 42.165726 47.515606
8.013113 41.775982 43.099159
5.774394 30.873129 49.107857
20.437086 46.882549 21.449648
14.580656 40.85466 37.192436
20.079683 39.249615 29.300928
-2.765766 41.644817 49.801121
-0.18109 36.045143 50.63409
3.306156 36.336552 48.521873
2.217687 30.846048 51.288765
10.467188 36.233299 43.619461
11.28931 41.332458 40.54697
13.842508 35.881111 40.566532
19.754797 34.95771 32.890675
22.667292 38.101746 24.796415
1.047362 25.134327 54.009514
16.083902 30.618898 40.262428
-1.924144 47.765381 46.568802
1.756518 47.752068 44.39233
5.356935 47.466351 42.240967
4.313901 41.889858 45.554981
6.910278 36.361706 46.260399
9.409134 31.010269 46.495052
22.819685 45.32803 16.880299
8.900389 47.05732 39.706284
12.049823 46.320259 37.007191
15.046732 45.4566 33.668957
16.927521 35.536198 36.942368
17.397396 40.208748 33.512035
17.741404 44.423916 29.831848
20.230137 43.173023 25.597252
-2.529289 33.033375 53.230003
-2.017225 35.894512 51.769825
-0.761123 33.229218 52.100395
1.078981 33.390003 50.975025
0.466789 30.34971 52.497681
11.620174 33.529312 43.72385
12.20854 36.119041 42.113556
13.337984 33.351231 42.169456
-1.043934 41.755119 48.73101
-2.355607 44.672344 48.226334
-0.610096 44.798622 47.136482
-0.01707 47.741539 45.446941
1.285083 44.978718 45.954868
3.19169 44.839027 44.894741
2.587378 42.009319 46.532074
4.623231 33.583103 48.827213
5.138613 36.198353 47.478867
6.441901 33.436329 47.730656
8.144506 33.617252 46.481953
7.619519 30.915119 47.847588
2.807128 25.189001 52.895023
21.669914 46.01717 19.170876
6.761874 44.509434 42.714851
7.116526 47.248554 41.067535
8.363266 44.504532 41.498569
12.887854 41.260262 38.961357
11.678641 43.82394 38.848984
13.273825 43.508499 37.268364
13.547051 45.922371 35.448135
14.763262 43.361774 35.457031
17.541767 30.589653 38.459106
16.465105 33.072056 38.75161
17.973392 32.961952 36.775166
19.924852 37.143898 31.152813
18.593918 37.665192 33.163345
18.862528 39.684113 31.326647
17.675871 42.362255 31.547384
18.898741 41.967701 29.531708
18.975166 43.989799 27.671665
20.112038 41.31028 27.54147
-3.283696 38.718636 51.365707
-1.529684 38.777988 50.287312
0.321558 38.994133 49.126522
2.070436 39.053871 48.106884
1.54898 36.165264 49.599243
2.933554 33.510651 49.859951
4.009546 30.700018 50.275337
19.276936 47.618073 23.593773
9.20853 38.912663 43.482811
9.620565 41.62191 41.893131
10.87817 38.855186 42.114273
12.559792 38.753567 40.570126
14.151381 38.459232 38.991692
19.367809 32.825218 34.766609
21.068817 34.634079 30.777164
21.237959 36.729221 28.937635
21.314346 38.843121 27.069035
-0.149673 27.532938 53.904953
14.5213 30.627312 42.011719
-4.162342 44.769539 49.292774
-3.679669 47.639046 47.699631
-3.289096 50.944664 45.905888
-1.401097 50.728672 44.858109
3.619395 47.627762 43.309082
4.971613 44.664822 43.865101
6.219596 41.827263 44.356365
3.913468 39.004585 47.056412
5.688412 39.152855 45.894855
7.510586 39.000839 44.722752
8.754783 36.131393 45.028294
10.005816 33.583794 45.070351
11.206761 30.746857 45.125923
1.607832 27.885952 52.721222
3.321573 27.938553 51.662224
5.155605 28.205122 50.421669
6.963823 28.122286 49.244255
8.747081 28.173721 47.946194
10.513288 28.207781 46.55928
12.297276 28.203026 45.030243
7.554616 49.82338 39.324047
9.30605 49.549759 37.92207
10.037165 44.112137 40.273758
10.529931 46.587906 38.451008
10.876238 49.154583 36.56461
12.429284 48.637321 35.095684
13.955415 48.126827 33.401493
15.308945 47.526524 31.754154
14.92924 33.312458 40.488174
15.475688 35.763268 38.734589
15.724091 38.184692 37.181252
18.385803 35.337345 34.903198
17.228119 37.864231 35.227669
15.969618 40.533665 35.502396
16.2272 42.787987 33.67741
16.390676 44.97414 31.861778
16.600927 46.984833 29.912432
17.882854 46.48671 27.79553
19.183483 45.675755 25.674051
20.307207 45.041752 23.612707
21.397306 40.660374 25.257153
21.460382 42.527191 23.30278
21.48505 44.399174 21.335657
22.745335 43.555611 19.014759
-1.908906 31.646762 53.400133
-2.80771 31.573741 53.975536
-2.187328 30.187128 54.145666
20.512813 47.747423 20.388442
19.920677 48.184582 21.458439
21.0535 46.44986 20.310262
21.129227 47.314734 19.249056
20.512813 47.747423 20.388442
-3.579153 37.246645 52.158285
-4.174679 38.703345 51.930428
18.675651 48.005518 24.623027
18.744625 48.916239 23.614749
21.774046 34.416516 29.615874
21.617483 33.427847 30.605579
21.858617 35.464087 28.696109
21.153388 35.68165 29.857399
21.774046 34.416516 29.615874
21.869453 36.553747 27.806213
21.858617 35.464087 28.696109
-3.464054 43.207178 49.546948
-4.355041 43.279697 50.067285
-3.656753 41.717337 50.321459
1.067432 49.28528 44.066843
0.180638 49.280016 44.594149
0.869724 47.746803 44.919635
2.017075 49.114485 43.566992
1.067432 49.28528 44.066843
2.687956 47.689915 43.850706
2.948513 49.052332 43.025368
2.017075 49.114485 43.566992
3.938778 26.66563 51.688772
3.06435 26.563777 52.278624
3.681556 25.290855 52.305172
4.855795 26.798915 51.068495
4.238589 28.071838 51.041947
3.938778 26.66563 51.688772
7.49256 26.842415 49.265282
6.61644 26.755806 49.910362
8.384189 26.868133 48.616251
7.855452 28.148004 48.595225
7.49256 26.842415 49.265282
11.079809 26.901929 46.482325
10.146255 26.872872 47.260317
11.971803 26.899552 45.717806
11.405282 28.205404 45.794761
11.079809 26.901929 46.482325
12.830391 26.912369 44.935367
11.971803 26.899552 45.717806
22.866782 46.144241 15.875352
22.304476 46.56567 16.93986
23.417796 44.92327 15.727784
23.464893 45.739481 14.722838
22.866782 46.144241 15.875352
5.573338 48.709319 41.438225
4.708442 48.961396 41.916798
22.060226 42.220709 22.150931
22.074501 41.25108 23.119142
22.07256 43.1567 21.16737
21.472716 43.463183 22.319218
22.060226 42.220709 22.150931
22.702703 42.734919 20.006921
22.115192 43.977393 20.175208
22.07256 43.1567 21.16737
-3.390562 32.87331 53.827066
-2.80771 31.573741 53.975536
-3.201949 34.404015 53.090433
-3.390562 32.87331 53.827066
-2.273257 34.463943 52.499914
-2.945917 35.834583 52.360344
-3.201949 34.404015 53.090433
2.436128 23.925461 53.528997
1.927245 25.161664 53.452269
1.556245 23.898124 54.086242
3.330842 23.899969 52.956692
2.436128 23.925461 53.528997
3.681556 25.290855 52.305172
3.330842 23.899969 52.956692
21.729591 46.91024 18.085148
21.129227 47.314734 19.249056
22.244799 45.6726 18.025588
22.304476 46.56567 16.93986
21.729591 46.91024 18.085148
22.677956 39.038357 23.86596
23.335493 37.845578 23.563413
-3.915718 40.254246 51.103752
-4.174679 38.703345 51.930428
-3.024731 40.181726 50.583414
-3.656753 41.717337 50.321459
-3.915718 40.254246 51.103752
-2.65046 37.306574 51.567766
-3.579153 37.246645 52.158285
-2.945917 35.834583 52.360344
19.340602 48.552344 22.530501
18.744625 48.916239 23.614749
19.857011 47.250311 22.52171
19.920677 48.184582 21.458439
19.340602 48.552344 22.530501
19.955807 31.550441 34.527348
19.207334 31.709873 35.575665
19.795331 30.435096 35.336403
20.095934 32.585291 33.718458
19.955807 31.550441 34.527348
20.289428 33.651537 32.780491
19.561303 33.891464 33.828642
20.095934 32.585291 33.718458
20.946438 33.489722 31.723736
21.617483 33.427847 30.605579
20.411807 34.795895 31.83392
20.289428 33.651537 32.780491
20.946438 33.489722 31.723736
21.907647 37.610697 26.871913
21.276153 37.786171 28.003335
21.869453 36.553747 27.806213
22.58412 37.240009 25.735603
21.990819 38.472433 25.932725
21.907647 37.610697 26.871913
23.28343 36.928156 24.5614
22.58412 37.240009 25.735603
23.335493 37.845578 23.563413
23.28343 36.928156 24.5614
-1.564966 28.846245 54.272085
-2.187328 30.187128 54.145666
-0.995541 27.48264 54.43943
-0.719098 28.896543 53.737608
-1.564966 28.846245 54.272085
-0.467591 26.193994 54.574627
-0.995541 27.48264 54.43943
0.130926 24.994688 54.626908
0.448844 26.333633 53.957234
-0.467591 26.193994 54.574627
0.643918 23.815552 54.694677
0.130926 24.994688 54.626908
1.556245 23.898124 54.086242
0.643918 23.815552 54.694677
14.185192 29.44576 42.77524
13.698688 30.828876 42.763594
13.36258 29.647324 43.527115
15.078625 29.423614 41.842574
14.185192 29.44576 42.77524
15.859926 29.419407 40.967928
15.302601 30.623105 41.137073
15.078625 29.423614 41.842574
16.668148 29.350814 40.047712
15.859926 29.419407 40.967928
17.397081 29.336191 39.146051
16.812835 30.604275 39.360767
16.668148 29.350814 40.047712
18.105896 29.424153 38.200691
17.397081 29.336191 39.146051
18.858441 29.426591 37.163498
18.294313 30.59209 37.421913
18.105896 29.424153 38.200691
19.57266 29.378647 36.186974
18.858441 29.426591 37.163498
19.795331 30.435096 35.336403
19.57266 29.378647 36.186974
-5.00009 44.653227 49.876951
-4.355041 43.279697 50.067285
-4.821241 46.309763 49.017414
-5.00009 44.653227 49.876951
-4.579904 47.744517 48.220843
-4.821241 46.309763 49.017414
-3.921005 46.204293 48.496202
-4.337386 49.24279 47.364119
-4.579904 47.744517 48.220843
-4.1421 50.8956 46.467247
-4.337386 49.24279 47.364119
-3.484382 49.291855 46.802759
-3.941524 52.465954 45.567268
-4.1421 50.8956 46.467247
-3.030509 52.490618 44.977562
-3.941524 52.465954 45.567268
-2.08651 52.382622 44.453672
-3.030509 52.490618 44.977562
-2.345096 50.836668 45.381998
-1.198384 52.175314 44.009954
-2.08651 52.382622 44.453672
-0.511376 50.773583 44.299733
-0.709083 49.235106 45.152525
0.180638 49.280016 44.594149
-1.198384 52.175314 44.009954
-0.511376 50.773583 44.299733
3.839672 49.042101 42.450855
2.948513 49.052332 43.025368
4.488165 47.547056 42.775025
4.708442 48.961396 41.916798
3.839672 49.042101 42.450855
5.712331 26.797224 50.499069
4.855795 26.798915 51.068495
6.059714 28.163704 49.832962
5.712331 26.797224 50.499069
6.61644 26.755806 49.910362
9.263152 26.855843 47.953773
8.384189 26.868133 48.616251
9.630184 28.190751 47.252737
9.263152 26.855843 47.953773
10.146255 26.872872 47.260317
13.07318 28.233617 44.284502
13.36258 29.647324 43.527115
12.586676 29.616734 44.272856
13.07318 28.233617 44.284502
12.830391 26.912369 44.935367
6.453133 48.60042 40.851509
5.573338 48.709319 41.438225
6.236731 47.357453 41.654251
6.672178 49.887833 39.979765
6.453133 48.60042 40.851509
7.335571 48.535967 40.195791
6.91869 51.299431 39.003437
6.672178 49.887833 39.979765
7.8066 50.986195 38.431671
6.91869 51.299431 39.003437
8.682317 50.849384 37.730683
7.8066 50.986195 38.431671
8.430333 49.68657 38.623058
9.473271 50.765869 37.01333
8.682317 50.849384 37.730683
10.258365 50.568281 36.334601
9.473271 50.765869 37.01333
10.091144 49.352171 37.24334
11.050535 50.328421 35.610816
10.258365 50.568281 36.334601
11.827058 50.069789 34.876352
11.050535 50.328421 35.610816
11.652761 48.895952 35.830147
12.538371 49.81105 34.149641
11.827058 50.069789 34.876352
13.301437 49.555803 33.302546
12.538371 49.81105 34.149641
13.19235 48.382074 34.248588
14.074344 49.174912 32.449572
13.301437 49.555803 33.302546
14.751109 48.87476 31.625902
14.074344 49.174912 32.449572
14.63218 47.826676 32.577824
15.427231 48.563658 30.729591
14.751109 48.87476 31.625902
16.073222 48.292812 29.80873
15.427231 48.563658 30.729591
15.954936 47.255679 30.833293
16.715928 47.968351 28.853924
16.073222 48.292812 29.80873
17.356891 47.71929 27.795473
16.715928 47.968351 28.853924
17.24189 46.735771 28.853981
17.97861 47.439836 26.723906
17.356891 47.71929 27.795473
18.628925 47.034359 25.663166
17.97861 47.439836 26.723906
18.533168 46.081232 26.73479
19.23021 46.646914 24.633912
18.675651 48.005518 24.623027
18.628925 47.034359 25.663166
22.042963 40.317671 24.096329
22.032299 39.38106 25.026784
22.677956 39.038357 23.86596
21.428844 41.593783 24.279967
22.042963 40.317671 24.096329
22.074501 41.25108 23.119142
23.372942 42.349155 18.758392
22.702703 42.734919 20.006921
23.390645 43.166609 17.772514
23.372942 42.349155 18.758392
23.427819 44.052819 16.705285
22.78251 44.44182 17.947529
23.390645 43.166609 17.772514
23.417796 44.92327 15.727784
23.427819 44.052819 16.705285
3 0 137 139
3 137 34 138
3 137 138 139
3 0 36 34
3 0 38 36
3 1 41 39
3 3 44 42
3 3 46 44
3 3 48 46
3 5 51 49
3 5 53 51
3 6 140 141
3 6 142 144
3 142 55 143
3 142 143 144
3 4 58 56
3 7 61 59
3 7 63 61
3 2 66 64
3 8 69 67
3 8 71 69
3 8 73 71
3 145 74 146
3 10 75 35
3 10 76 75
3 10 78 76
3 12 79 37
3 12 80 79
3 147 81 148
3 13 84 82
3 15 85 40
3 15 86 85
3 149 88 150
3 151 89 152
3 153 152 88
3 151 152 153
3 155 154 89
3 9 156 158
3 156 93 157
3 156 157 158
3 20 94 43
3 20 95 94
3 20 96 95
3 21 159 161
3 161 160 45
3 159 160 161
3 21 162 163
3 21 164 166
3 164 97 165
3 164 165 166
3 23 98 47
3 23 99 98
3 11 100 77
3 24 101 50
3 24 102 101
3 24 103 102
3 25 104 52
3 25 105 104
3 18 106 91
3 167 107 168
3 169 168 54
3 167 168 169
3 170 108 171
3 172 171 107
3 170 171 172
3 173 109 174
3 175 110 176
3 177 176 109
3 175 176 177
3 178 111 179
3 180 112 181
3 182 181 111
3 180 181 182
3 184 183 112
3 26 185 186
3 26 187 189
3 187 188 189
3 22 190 191
3 27 113 57
3 27 114 113
3 14 115 83
3 28 116 60
3 28 117 116
3 28 118 117
3 29 119 62
3 29 120 119
3 19 121 92
3 30 122 65
3 30 123 122
3 16 124 87
3 31 125 68
3 31 126 125
3 31 127 126
3 32 128 70
3 32 129 128
3 32 130 129
3 33 131 72
3 33 132 131
3 17 133 90
3 192 134 193
3 194 135 195
3 196 195 134
3 194 195 196
3 197 136 198
3 199 198 135
3 197 198 199
3 34 200 201
3 34 202 203
3 34 204 206
3 204 35 205
3 204 205 206
3 36 35 34
3 36 10 35
3 36 37 10
3 38 37 36
3 38 12 37
3 39 40 13
3 41 40 39
3 41 15 40
3 42 43 9
3 44 43 42
3 44 20 43
3 44 45 20
3 46 45 44
3 46 21 45
3 46 47 21
3 48 47 46
3 48 23 47
3 49 50 11
3 51 50 49
3 51 24 50
3 51 52 24
3 53 52 51
3 53 25 52
3 207 54 208
3 209 208 18
3 207 208 209
3 210 54 211
3 213 212 54
3 55 214 215
3 55 216 218
3 216 26 217
3 216 217 218
3 56 57 22
3 58 57 56
3 58 27 57
3 59 60 14
3 61 60 59
3 61 28 60
3 61 62 28
3 63 62 61
3 63 29 62
3 64 65 19
3 66 65 64
3 66 30 65
3 67 68 16
3 69 68 67
3 69 31 68
3 69 70 31
3 71 70 69
3 71 32 70
3 71 72 32
3 73 72 71
3 73 33 72
3 220 219 17
3 74 221 222
3 74 223 225
3 223 9 224
3 223 224 225
3 35 226 228
3 226 74 227
3 226 227 228
3 75 74 35
3 75 9 74
3 75 42 9
3 76 42 75
3 76 3 42
3 76 77 3
3 78 77 76
3 78 11 77
3 37 78 10
3 79 78 37
3 79 11 78
3 79 49 11
3 80 49 79
3 80 5 49
3 81 229 230
3 81 231 233
3 231 6 232
3 231 232 233
3 82 83 4
3 84 83 82
3 84 14 83
3 40 84 13
3 85 84 40
3 85 14 84
3 85 59 14
3 86 59 85
3 86 7 59
3 234 87 235
3 236 235 2
3 234 235 236
3 237 87 238
3 239 16 240
3 241 240 87
3 239 240 241
3 88 242 243
3 88 244 246
3 244 16 245
3 244 245 246
3 88 67 16
3 89 67 88
3 89 8 67
3 89 90 8
3 247 90 248
3 249 248 89
3 247 248 249
3 250 17 251
3 252 251 90
3 250 251 252
3 253 17 254
3 256 255 17
3 257 0 258
3 259 91 260
3 261 260 0
3 259 260 261
3 262 91 263
3 264 18 265
3 266 265 91
3 264 265 266
3 267 18 268
3 270 269 18
3 271 92 272
3 273 272 1
3 271 272 273
3 274 92 275
3 276 19 277
3 278 277 92
3 276 277 278
3 279 19 280
3 281 64 282
3 283 282 19
3 281 282 283
3 284 64 285
3 286 2 287
3 288 287 64
3 286 287 288
3 289 2 290
3 292 291 2
3 93 293 294
3 93 295 296
3 43 93 9
3 94 93 43
3 94 297 299
3 299 298 93
3 297 298 299
3 94 300 301
3 95 302 304
3 304 303 94
3 302 303 304
3 95 305 306
3 95 307 308
3 96 309 311
3 311 310 95
3 309 310 311
3 96 312 313
3 45 96 20
3 314 96 315
3 316 315 45
3 314 315 316
3 318 317 96
3 97 319 320
3 97 321 323
3 321 22 322
3 321 322 323
3 47 97 21
3 98 97 47
3 98 22 97
3 98 56 22
3 99 56 98
3 99 4 56
3 77 48 3
3 100 48 77
3 100 23 48
3 50 100 11
3 101 100 50
3 101 23 100
3 101 99 23
3 102 99 101
3 102 4 99
3 102 82 4
3 103 82 102
3 103 13 82
3 52 103 24
3 104 103 52
3 104 13 103
3 104 39 13
3 105 39 104
3 105 1 39
3 91 38 0
3 106 38 91
3 106 12 38
3 54 106 18
3 107 106 54
3 107 12 106
3 107 80 12
3 108 80 107
3 108 5 80
3 324 108 325
3 109 326 328
3 326 108 327
3 326 327 328
3 109 5 108
3 109 53 5
3 110 53 109
3 110 25 53
3 329 110 330
3 111 331 333
3 331 110 332
3 331 332 333
3 111 25 110
3 111 105 25
3 112 105 111
3 112 1 105
3 112 334 336
3 336 335 1
3 334 335 336
3 338 337 112
3 57 339 341
3 341 340 22
3 339 340 341
3 113 342 344
3 344 343 57
3 342 343 344
3 113 345 346
3 113 347 348
3 114 349 351
3 351 350 113
3 349 350 351
3 114 352 353
3 83 58 4
3 115 58 83
3 115 27 58
3 60 115 14
3 116 115 60
3 116 27 115
3 116 114 27
3 117 114 116
3 117 354 356
3 356 355 114
3 354 355 356
3 117 357 358
3 118 359 361
3 361 360 117
3 359 360 361
3 118 362 363
3 62 118 28
3 119 118 62
3 119 364 366
3 366 365 118
3 364 365 366
3 119 367 368
3 120 369 371
3 371 370 119
3 369 370 371
3 120 372 373
3 92 41 1
3 121 41 92
3 121 15 41
3 65 121 19
3 122 121 65
3 122 15 121
3 122 86 15
3 123 86 122
3 123 7 86
3 87 66 2
3 124 66 87
3 124 30 66
3 68 124 16
3 125 124 68
3 125 30 124
3 125 123 30
3 126 123 125
3 126 7 123
3 126 63 7
3 127 63 126
3 127 29 63
3 70 127 31
3 128 127 70
3 128 29 127
3 128 120 29
3 129 120 128
3 129 374 376
3 376 375 120
3 374 375 376
3 129 377 378
3 130 379 381
3 381 380 129
3 379 380 381
3 130 382 383
3 72 130 32
3 131 130 72
3 131 384 386
3 386 385 130
3 384 385 386
3 131 387 389
3 387 81 388
3 387 388 389
3 132 81 131
3 132 6 81
3 90 73 8
3 133 73 90
3 133 33 73
3 390 133 391
3 392 391 17
3 390 391 392
3 134 393 395
3 393 133 394
3 393 394 395
3 134 33 133
3 134 132 33
3 135 132 134
3 135 6 132
3 135 55 6
3 136 55 135
3 136 26 55
3 396 136 397
3 398 136 399
3 400 26 401
3 402 401 136
3 400 401 402
3 404 403 26
