ply
format ascii 1.0
element vertex 322
property float x
property float y
property float z
element face 315
property list uchar int vertex_index
end_header
28.180948 92.57077 12.471737
10.599897 99.449577 7.455632
17.824593 98.703148 13.343709
2.545226 95.914993 4.384449
28.396069 98.416046 -3.272506
23.855566 101.607872 5.430252
31.153576 86.814835 3.556382
4.156519 94.127647 9.295656
6.596077 98.236145 5.362895
23.743395 104.235001 -2.298258
20.759415 104.214119 2.059986
28.309875 96.03196 4.603518
29.931341 93.184647 0.159759
29.764082 90.300026 7.888847
13.714798 102.92942 3.439349
17.541553 102.484367 6.416369
14.27821 99.659882 10.040358
5.32098 100.30748 -0.426163
9.585421 102.109344 1.176534
26.268929 100.830505 1.092946
26.379438 97.563194 9.060271
21.023331 100.831024 9.643587
23.979219 97.781746 13.209804
5.875546 95.027107 9.840781
20.425798 105.501152 -1.680492
18.972343 104.90979 0.746774
28.294104 94.375656 8.452763
29.118237 93.275108 6.121077
29.004311 91.698639 10.022696
12.117036 101.259338 5.530342
14.217066 101.46244 6.789361
12.493215 99.66201 8.734569
3.752653 98.083168 2.011795
8.535782 98.930542 6.300978
8.149196 100.191422 3.521379
10.180657 100.882446 4.408236
11.711999 102.75399 2.054606
23.70966 103.109146 1.626022
25.091763 102.641777 -0.502287
25.098886 101.36116 3.435683
26.343267 99.273842 5.197129
25.183867 99.748482 7.280786
17.751642 100.840256 9.650537
19.37429 101.783241 8.066544
19.407272 99.829994 11.7201
30.534344 90.174057 2.109618
30.730909 91.037697 -1.726781
9.061477 97.631599 9.020728
10.844901 97.808792 10.382954
3.456579 95.14045 6.853616
4.661551 97.221985 4.814498
5.336663 96.201233 7.371848
7.265352 97.09684 8.060978
2.357841 93.040573 8.819763
23.373016 105.318649 -6.126326
22.05892 105.491425 -3.620948
22.255428 104.426651 -0.028684
22.375437 102.983498 3.979505
28.326242 97.46582 0.536774
29.197159 95.999825 -1.616287
29.152367 94.730598 2.407557
29.872583 91.827614 3.945793
30.469627 88.700523 5.666759
15.347579 104.267288 1.451608
17.298697 104.049088 2.857849
15.781756 102.88018 4.891172
15.974777 101.152542 8.40045
16.162729 99.366463 11.60649
6.815951 102.234093 -2.881204
5.970698 99.287056 2.614665
7.440195 101.253609 0.399438
9.09626 103.161514 -2.021607
11.343106 103.901825 -1.145968
13.361618 104.212311 0.10965
27.320368 100.877922 -5.133183
24.965971 103.758636 -4.540796
26.305901 101.902153 -2.938935
27.393543 99.82914 -1.266325
27.413408 98.547676 2.693875
27.381765 97.004234 6.812072
27.37553 95.14917 10.775277
19.162457 103.453186 4.478634
20.929718 102.626572 5.926332
22.5688 101.335854 7.676122
21.091383 98.702736 13.499908
22.509047 99.484375 11.446802
23.949528 99.806824 9.343621
25.226284 97.977135 10.958426
26.27285 95.796043 12.830091
18.017656 105.107796 0.085716
18.815698 105.525536 -1.210238
3.14894 96.99908 3.198122
2.72809 97.434399 1.814214
2.124376 96.350311 3.000541
1.440883 95.169426 4.186184
1.984197 94.872177 5.402865
2.124376 96.350311 3.000541
1.440883 95.169426 4.186184
28.85343 97.585667 -4.368785
28.389978 98.853214 -5.233549
31.223569 87.422612 1.731119
30.913953 89.102223 1.007737
30.84396 88.494446 2.833
31.492618 85.777825 2.559296
31.223569 87.422612 1.731119
9.203786 96.818447 10.401805
8.314113 96.653194 9.81181
7.416051 96.385815 9.331936
6.570449 96.061973 8.950879
6.721148 95.350948 10.221837
8.314113 96.653194 9.81181
8.163415 97.364219 8.540853
7.416051 96.385815 9.331936
3.25718 93.58411 9.057709
2.76373 92.544441 10.023678
3.663069 93.087978 10.261624
21.208195 105.981915 -4.559665
21.947311 105.94767 -5.686093
11.718466 97.802796 11.109486
10.932008 96.859611 11.875652
4.877091 100.658333 -1.964542
4.216591 99.698662 -0.726515
6.068466 101.270786 -1.653683
5.624577 101.62164 -3.192063
4.877091 100.658333 -1.964542
26.726378 101.900276 -6.042542
27.340081 101.175468 -7.130641
21.064008 97.612263 15.24204
20.294326 98.228222 14.330373
23.244133 98.63306 12.328303
22.48715 98.389175 13.370212
23.222237 97.537861 14.251713
26.255629 94.713268 14.708307
25.706078 95.862442 13.840712
26.7637 94.516326 13.740586
26.255629 94.713268 14.708307
30.003063 93.586365 -1.688606
29.635972 94.993954 -2.57663
29.56425 94.592236 -0.728264
30.765808 91.579575 -3.627493
31.088638 90.035717 -2.794354
5.327552 94.0708 10.668494
5.016032 94.577377 9.568219
4.468038 93.621071 10.395932
6.08651 94.404766 10.97728
5.327552 94.0708 10.668494
6.721148 95.350948 10.221837
6.08651 94.404766 10.97728
4.468038 93.621071 10.395932
3.663069 93.087978 10.261624
19.542426 105.821217 -2.423871
20.391634 105.986778 -3.589437
19.69907 105.205471 -0.466859
19.542426 105.821217 -2.423871
18.815698 105.525536 -1.210238
3.432428 98.586506 0.492464
2.72809 97.434399 1.814214
4.536816 99.195324 0.792816
4.216591 99.698662 -0.726515
3.432428 98.586506 0.492464
23.922322 96.70932 15.053969
23.222237 97.537861 14.251713
24.559263 96.855294 14.030569
23.922322 96.70932 15.053969
31.012236 89.534042 -0.910463
30.632627 90.605877 0.191419
30.913953 89.102223 1.007737
31.088638 90.035717 -2.794354
31.012236 89.534042 -0.910463
10.095498 96.907044 11.082918
9.953189 97.720195 9.701841
9.203786 96.818447 10.401805
10.932008 96.859611 11.875652
10.095498 96.907044 11.082918
1.866866 91.834388 9.990315
2.76373 92.544441 10.023678
1.398659 92.252151 8.825322
1.866866 91.834388 9.990315
1.890505 93.434967 7.620522
1.398659 92.252151 8.825322
2.439874 94.484905 6.637448
1.890505 93.434967 7.620522
2.90721 94.090511 7.83669
3.000903 95.527721 5.619032
1.984197 94.872177 5.402865
2.439874 94.484905 6.637448
22.60436 105.861282 -6.938782
23.328421 105.625527 -8.091466
22.559765 106.16816 -8.903923
22.715968 105.405037 -4.873637
22.60436 105.861282 -6.938782
21.947311 105.94767 -5.686093
21.242359 105.496289 -2.65072
21.208195 105.981915 -4.559665
20.391634 105.986778 -3.589437
18.660931 98.228428 14.252274
17.811948 97.549804 15.091536
16.323138 104.158188 2.154729
17.180833 104.677445 1.141253
16.205274 104.786544 0.438132
12.542623 98.729404 10.285294
11.669058 98.735401 9.558761
11.718466 97.802796 11.109486
13.435121 98.728341 10.938188
13.385713 99.660946 9.387463
12.542623 98.729404 10.285294
14.336142 98.682003 11.643372
13.435121 98.728341 10.938188
15.278401 98.535293 12.426438
15.22047 99.513172 10.823424
14.336142 98.682003 11.643372
16.158145 98.323097 13.243703
15.278401 98.535293 12.426438
16.989077 97.99144 14.112312
16.993661 99.034806 12.4751
16.158145 98.323097 13.243703
17.811948 97.549804 15.091536
16.989077 97.99144 14.112312
6.374008 102.505547 -4.39991
5.624577 101.62164 -3.192063
7.613737 103.084965 -4.088431
6.374008 102.505547 -4.39991
8.753891 103.548676 -3.658632
7.613737 103.084965 -4.088431
7.956105 102.697803 -2.451405
9.902123 103.964401 -3.251661
8.753891 103.548676 -3.658632
11.025546 104.334556 -2.813842
9.902123 103.964401 -3.251661
10.219683 103.531669 -1.583788
12.113757 104.567616 -2.213706
11.025546 104.334556 -2.813842
13.123012 104.722859 -1.585897
12.113757 104.567616 -2.213706
12.352362 104.057068 -0.518159
14.200544 104.808632 -0.893555
13.123012 104.722859 -1.585897
15.193524 104.83612 -0.222576
14.200544 104.808632 -0.893555
14.354598 104.2398 0.780629
16.205274 104.786544 0.438132
15.193524 104.83612 -0.222576
28.579034 91.103839 13.158095
28.180286 91.457607 14.341711
27.852127 100.084152 -6.163887
27.340081 101.175468 -7.130641
27.858218 99.646984 -4.202844
28.389978 98.853214 -5.233549
27.852127 100.084152 -6.163887
24.067673 104.968365 -7.304066
23.328421 105.625527 -8.091466
24.86415 104.188358 -6.511302
24.067673 104.968365 -7.304066
24.169494 104.538642 -5.333561
25.54918 103.340633 -5.746349
24.86415 104.188358 -6.511302
26.219145 102.412391 -4.945418
25.54918 103.340633 -5.746349
25.635936 102.830394 -3.739866
26.813134 101.390038 -4.036059
26.726378 101.900276 -6.042542
26.219145 102.412391 -4.945418
18.13552 104.479439 1.802312
18.017656 105.107796 0.085716
17.180833 104.677445 1.141253
19.45227 98.791851 13.440469
18.615932 99.266571 12.531904
18.660931 98.228428 14.252274
20.249327 99.266365 12.610004
19.45227 98.791851 13.440469
20.294326 98.228222 14.330373
21.778319 97.998356 14.396765
21.064008 97.612263 15.24204
21.800215 99.093556 12.473355
21.778319 97.998356 14.396765
22.48715 98.389175 13.370212
25.182795 96.952988 12.904879
24.602752 97.879441 12.084115
24.559263 96.855294 14.030569
25.749567 96.886589 11.894258
25.182795 96.952988 12.904879
25.706078 95.862442 13.840712
27.315041 94.19289 12.71318
26.82419 95.472606 11.802684
26.7637 94.516326 13.740586
27.71775 92.90369 13.561409
27.778239 93.85997 11.623507
27.315041 94.19289 12.71318
28.180286 91.457607 14.341711
27.71775 92.90369 13.561409
29.253975 96.377556 -3.540676
28.85343 97.585667 -4.368785
28.796614 97.207935 -2.444396
29.253975 96.377556 -3.540676
29.635972 94.993954 -2.57663
30.402847 92.51289 -2.631876
30.003063 93.586365 -1.688606
30.331125 92.111172 -0.783511
30.402847 92.51289 -2.631876
30.765808 91.579575 -3.627493
28.990716 90.667774 11.933575
28.59263 92.134704 11.247217
28.579034 91.103839 13.158095
29.32938 90.099945 10.95907
28.990716 90.667774 11.933575
29.709266 89.400638 9.892145
29.384197 90.999333 8.955772
29.32938 90.099945 10.95907
30.053863 88.699044 8.71256
29.709266 89.400638 9.892145
30.406636 87.899292 7.601516
30.116854 89.500275 6.777803
30.053863 88.699044 8.71256
30.715835 87.092422 6.576108
30.406636 87.899292 7.601516
31.05781 86.149579 5.520919
30.811602 87.757679 4.611571
30.715835 87.092422 6.576108
31.395268 85.145218 4.444144
31.05781 86.149579 5.520919
31.492618 85.777825 2.559296
31.395268 85.145218 4.444144
3 89 25 90
3 0 28 26
3 1 31 29
3 3 91 93
3 91 32 92
3 91 92 93
3 1 35 33
3 1 29 35
3 3 94 95
3 3 96 97
3 5 39 37
3 5 41 39
3 2 44 42
3 4 98 99
3 6 100 102
3 102 101 45
3 100 101 102
3 6 103 104
3 106 105 47
3 7 51 49
3 107 52 108
3 109 108 23
3 107 108 109
3 110 47 111
3 112 111 52
3 110 111 112
3 7 113 115
3 113 53 114
3 113 114 115
3 7 49 53
3 116 55 117
3 10 56 24
3 10 57 56
3 11 60 58
3 13 61 27
3 13 62 61
3 14 65 63
3 16 66 30
3 16 67 66
3 119 118 48
3 17 120 121
3 17 122 124
3 122 68 123
3 122 123 124
3 8 69 50
3 18 70 34
3 18 71 70
3 18 72 71
3 14 73 36
3 14 63 73
3 125 74 126
3 9 75 54
3 19 76 38
3 19 77 76
3 19 78 77
3 20 79 40
3 20 80 79
3 15 81 64
3 21 82 43
3 21 83 82
3 127 84 128
3 22 129 131
3 129 85 130
3 129 130 131
3 22 86 85
3 22 87 86
3 132 88 133
3 135 134 88
3 12 136 138
3 138 137 59
3 136 137 138
3 140 139 46
3 141 23 142
3 143 142 7
3 141 142 143
3 144 23 145
3 147 146 23
3 148 7 149
3 150 24 151
3 25 152 154
3 152 24 153
3 152 153 154
3 25 10 24
3 26 27 11
3 28 27 26
3 28 13 27
3 29 30 14
3 31 30 29
3 31 16 30
3 32 155 156
3 32 157 159
3 157 17 158
3 157 158 159
3 33 34 8
3 35 34 33
3 35 18 34
3 35 36 18
3 29 36 35
3 29 14 36
3 37 38 9
3 39 38 37
3 39 19 38
3 39 40 19
3 41 40 39
3 41 20 40
3 42 43 15
3 44 43 42
3 44 21 43
3 160 22 161
3 163 162 22
3 45 46 12
3 164 46 165
3 166 165 45
3 164 165 166
3 168 167 46
3 47 48 1
3 169 48 170
3 171 170 47
3 169 170 171
3 173 172 48
3 49 50 3
3 51 50 49
3 51 8 50
3 23 51 7
3 52 51 23
3 52 8 51
3 52 33 8
3 47 33 52
3 47 1 33
3 53 174 175
3 53 176 177
3 53 178 179
3 49 180 182
3 182 181 53
3 180 181 182
3 49 183 185
3 183 3 184
3 183 184 185
3 186 54 187
3 186 187 188
3 55 189 191
3 189 54 190
3 189 190 191
3 55 9 54
3 24 192 194
3 192 55 193
3 192 193 194
3 56 55 24
3 56 9 55
3 56 37 9
3 57 37 56
3 57 5 37
3 196 195 2
3 58 59 4
3 60 59 58
3 60 12 59
3 27 60 11
3 61 60 27
3 61 12 60
3 61 45 12
3 62 45 61
3 62 6 45
3 63 197 199
3 197 64 198
3 197 198 199
3 65 64 63
3 65 15 64
3 30 65 14
3 66 65 30
3 66 15 65
3 66 42 15
3 67 42 66
3 67 2 42
3 48 31 1
3 200 31 201
3 202 201 48
3 200 201 202
3 203 16 204
3 205 204 31
3 203 204 205
3 206 16 207
3 208 67 209
3 210 209 16
3 208 209 210
3 211 67 212
3 213 2 214
3 215 214 67
3 213 214 215
3 217 216 2
3 68 218 219
3 68 220 221
3 50 32 3
3 69 32 50
3 69 17 32
3 34 69 8
3 70 69 34
3 70 17 69
3 70 68 17
3 71 68 70
3 71 222 224
3 224 223 68
3 222 223 224
3 71 225 226
3 72 227 229
3 229 228 71
3 227 228 229
3 72 230 231
3 36 72 18
3 73 72 36
3 73 232 234
3 234 233 72
3 232 233 234
3 73 235 236
3 63 237 239
3 239 238 73
3 237 238 239
3 63 240 241
3 243 242 0
3 74 244 245
3 74 246 248
3 246 4 247
3 246 247 248
3 54 249 250
3 75 251 253
3 253 252 54
3 251 252 253
3 75 254 255
3 38 75 9
3 76 75 38
3 76 256 258
3 258 257 75
3 256 257 258
3 76 259 261
3 259 74 260
3 259 260 261
3 77 74 76
3 77 4 74
3 77 58 4
3 78 58 77
3 78 11 58
3 40 78 19
3 79 78 40
3 79 11 78
3 79 26 11
3 80 26 79
3 80 0 26
3 64 262 264
3 262 25 263
3 262 263 264
3 81 25 64
3 81 10 25
3 43 81 15
3 82 81 43
3 82 10 81
3 82 57 10
3 83 57 82
3 83 5 57
3 265 44 266
3 267 266 2
3 265 266 267
3 84 268 270
3 268 44 269
3 268 269 270
3 84 21 44
3 271 84 272
3 85 273 275
3 273 84 274
3 273 274 275
3 85 21 84
3 85 83 21
3 86 83 85
3 86 5 83
3 86 41 5
3 87 41 86
3 87 20 41
3 276 87 277
3 278 277 22
3 276 277 278
3 88 279 281
3 279 87 280
3 279 280 281
3 88 20 87
3 88 80 20
3 282 80 283
3 284 283 88
3 282 283 284
3 285 0 286
3 287 286 80
3 285 286 287
3 289 288 0
3 59 290 292
3 292 291 4
3 290 291 292
3 294 293 59
3 46 295 297
3 297 296 12
3 295 296 297
3 299 298 46
3 300 28 301
3 302 301 0
3 300 301 302
3 303 28 304
3 305 13 306
3 307 306 28
3 305 306 307
3 308 13 309
3 310 62 311
3 312 311 13
3 310 311 312
3 313 62 314
3 315 6 316
3 317 316 62
3 315 316 317
3 318 6 319
3 321 320 6
