ply
format ascii 1.0
element vertex 514
property float x
property float y
property float z
element face 487
property list uchar int vertex_index
end_header
-14.461926 -37.684673 -31.60664
0.5548 -5.926605 -56.475021
-18.20752 -47.9744 -26.23209
0.692506 6.22479 -60.777744
4.192447 1.464197 -64.315552
4.485586 14.074 -67.914154
-5.337533 -24.225563 -43.484829
-2.785696 -12.322133 -49.095417
-1.334594 14.104218 -59.297119
-1.043272 8.319516 -58.451939
0.57362 12.087274 -62.043568
2.446621 10.212641 -64.662262
2.406734 15.91398 -65.41259
-16.313063 -42.887398 -29.143559
-14.497495 -43.310581 -31.828531
-12.360336 -43.123436 -34.952835
-12.124 -37.494144 -34.596733
-0.708675 -3.489205 -55.087608
-0.993494 -9.481371 -52.675064
-1.829467 -15.735155 -49.787899
0.018994 -12.405716 -53.646061
-16.692936 -37.491707 -28.869761
-0.692715 2.551516 -57.214432
0.772224 0.269692 -58.9641
2.216322 -2.296621 -60.43998
2.399963 4.149558 -62.92609
4.38378 7.966296 -66.592293
-1.498043 19.74719 -59.575962
4.844291 19.568981 -68.420563
-9.778469 -31.729252 -37.428913
-3.780631 -18.347557 -46.353893
-3.150345 -22.178856 -46.874313
-0.504737 15.734521 -60.81749
-0.281643 12.974821 -60.781788
0.469333 14.934111 -62.306496
1.41134 13.951179 -63.712711
1.424315 16.70512 -63.967033
-15.399191 -40.21529 -30.382389
-15.369299 -42.909 -30.515291
-14.267151 -40.308304 -31.905655
-13.224238 -40.284054 -33.331291
-13.271041 -37.643181 -33.109188
-0.015407 -4.694543 -55.878014
-0.787547 -6.344474 -53.994648
-0.187276 -7.91672 -54.538074
-0.496717 -10.981037 -53.115528
0.418395 -9.149856 -55.229706
0.903224 -11.004333 -55.503853
1.20045 -7.611361 -57.026817
-17.585287 -39.911659 -27.494249
-0.113117 7.395361 -59.737381
-0.800292 5.47125 -57.994781
0.005394 4.44487 -59.029335
0.057973 1.479851 -58.127918
0.785864 3.281712 -60.006958
1.565351 2.026477 -60.917099
1.537877 5.146084 -61.881367
3.377861 12.09609 -66.312279
3.367403 8.98342 -65.647995
4.455795 10.946624 -67.375572
5.571274 9.674022 -68.190063
5.65862 12.701612 -68.883423
-2.514461 18.148014 -58.118401
-2.616371 21.089003 -58.136883
-11.090792 -32.299232 -35.805538
-6.506559 -25.276848 -41.836567
-7.478789 -28.212496 -40.424713
-6.295749 -27.279675 -42.038826
-2.482432 -9.556389 -50.341003
-4.281425 -16.791893 -45.977463
-3.208428 -15.245732 -47.76619
-1.477997 -17.583488 -50.072868
-2.454705 -19.042572 -48.278233
3.149287 -0.463107 -62.391533
3.034404 -3.895882 -60.985645
-1.145014 11.215862 -59.024288
-0.222057 10.189709 -60.297729
0.626379 9.057108 -61.456264
1.510337 8.154598 -62.701817
1.445093 11.017087 -63.275806
2.325157 12.973505 -64.991356
3.400791 15.018707 -66.71579
-17.327513 -45.275162 -27.653221
-17.442654 -48.30669 -27.639412
-16.471994 -45.820679 -29.056816
-15.623482 -46.100319 -30.447001
-13.381064 -43.062782 -33.441982
-12.135638 -40.041344 -34.828419
-10.946214 -37.21376 -36.165707
-1.537685 -5.207825 -53.158585
-1.573426 -8.037682 -52.165604
-1.817818 -10.925265 -50.918324
-2.253404 -13.882366 -49.485233
-1.377998 -12.684284 -51.175453
-0.899588 -14.219607 -51.647255
-18.940317 -47.174927 -24.895828
-19.069723 -44.234013 -24.900324
-18.19297 -44.984974 -26.26166
-17.361866 -42.627998 -27.619337
-16.518526 -40.274891 -28.890738
-15.593947 -37.627205 -30.208632
-0.692816 -0.332175 -56.21563
0.013434 -1.643433 -56.97023
0.746679 -2.78056 -57.868763
1.387166 -4.405021 -58.402397
1.477161 -1.032351 -59.718678
2.356532 0.976919 -61.804794
3.266929 2.66871 -63.646534
2.386391 7.18167 -63.8139
3.356908 5.936368 -64.806267
4.261058 4.704139 -65.493065
5.339029 6.420121 -67.097672
-1.483024 16.944586 -59.438869
-0.5073 18.595163 -60.999119
3.510202 17.694641 -66.9524
4.708848 16.839224 -68.357475
6.06612 18.47094 -69.673103
5.887183 15.655773 -69.449387
-14.655306 -35.192177 -31.49086
-13.32722 -35.126633 -33.051865
-12.131828 -34.964134 -34.501732
-10.962366 -34.786701 -35.972473
-9.77703 -34.288868 -37.512875
-8.517778 -31.086393 -39.054737
-4.487835 -21.337162 -44.937225
-2.73509 -16.902384 -48.139992
-3.434168 -20.203009 -46.609863
-4.228986 -23.34951 -45.141541
2.099387 -5.73664 -59.052517
0.446334 16.268959 -62.364165
-0.017702 15.334316 -61.561993
-0.040701 16.669163 -61.619661
0.923825 17.154463 -63.194433
0.946824 15.819616 -63.136764
0.446334 16.268959 -62.364165
-3.209969 21.836117 -57.485422
-3.139603 20.391727 -57.496628
-18.249379 -49.338656 -26.247371
-18.616696 -49.062691 -25.47206
-5.269553 -25.363986 -43.546192
-5.748661 -26.891042 -42.82319
-5.816641 -25.752619 -42.761827
-3.119619 -11.605848 -48.868819
-2.967987 -10.222976 -49.491612
-2.634064 -10.939261 -49.71821
-3.312214 -13.087121 -48.185983
-3.119619 -11.605848 -48.868819
-2.997062 -13.783932 -48.430803
-3.52358 -14.548921 -47.52137
-3.312214 -13.087121 -48.185983
-1.809199 -19.251283 -49.329109
-1.270791 -18.432495 -50.290363
4.12329 -0.293576 -63.590526
3.60171 -1.257228 -62.628517
3.670867 0.500545 -63.353543
-1.239804 12.66004 -59.160703
-1.640769 11.698232 -58.38248
-1.735559 13.142411 -58.518896
-14.583196 -44.709335 -31.891503
-15.146189 -46.104204 -31.200738
-15.060488 -44.70545 -31.137766
-13.93928 -43.186681 -32.635257
-14.02498 -44.585436 -32.698228
-14.583196 -44.709335 -31.891503
-1.12318 -4.348515 -54.123097
-1.482744 -3.668395 -53.780512
-1.06824 -2.809086 -54.745024
-0.230984 -14.130643 -52.839138
-0.690276 -15.037588 -51.839735
-0.440297 -13.312662 -52.646658
0.25874 -13.383492 -53.803583
-0.230984 -14.130643 -52.839138
1.188772 -11.838646 -55.699772
1.363046 -10.125144 -56.4829
-19.33356 -46.767378 -24.219037
-19.316682 -48.266106 -24.116781
-19.709926 -47.858557 -23.43999
-18.709319 -43.260099 -25.550768
-19.175065 -42.899242 -24.916207
-18.270943 -43.63558 -26.231436
-18.631346 -44.609493 -25.580992
-18.709319 -43.260099 -25.550768
-17.85539 -42.457092 -26.910274
-17.777418 -43.806486 -26.940499
-18.270943 -43.63558 -26.231436
-1.399808 7.403214 -57.62619
-1.527281 8.885117 -57.861428
-1.120345 3.119034 -56.721502
-1.174134 4.578901 -57.111677
-0.746503 4.011383 -57.604607
-1.081908 1.726957 -56.307656
-1.120345 3.119034 -56.721502
-0.692765 1.109671 -56.715031
-1.081958 0.285112 -55.808255
-1.081908 1.726957 -56.307656
6.125001 8.948276 -68.448734
6.224318 10.503519 -68.899326
-17.554846 -49.929743 -27.636755
-17.073004 -48.566114 -28.324053
-12.481887 -44.633157 -35.030983
-13.039422 -44.686596 -34.202227
4.177246 18.631811 -67.686481
3.584326 19.054774 -66.953179
4.251371 19.991944 -67.68726
6.690576 17.857655 -70.16647
6.817868 19.324015 -70.211182
6.601108 16.450072 -70.054611
5.976652 17.063356 -69.561245
6.690576 17.857655 -70.16647
6.518438 15.025602 -69.883362
6.601108 16.450072 -70.054611
-14.816529 -33.924504 -31.448457
-15.290478 -35.05806 -30.775067
-12.873474 -33.742144 -33.653904
-13.521956 -33.94331 -32.911301
-12.275778 -33.660894 -34.378838
-12.729524 -35.045383 -33.776798
-12.873474 -33.742144 -33.653904
-7.960348 -30.818885 -39.804907
-7.998283 -29.649445 -39.739725
-7.440853 -29.381936 -40.489895
-8.560344 -32.422722 -39.070966
-7.960348 -30.818885 -39.804907
-4.347975 -18.974491 -45.479868
-4.598372 -18.196659 -45.291653
-4.031028 -17.569725 -46.165678
-4.134233 -19.84236 -45.645559
-4.701577 -20.469293 -44.771534
-4.347975 -18.974491 -45.479868
-3.612495 -23.816837 -46.091241
-4.151815 -24.402164 -45.224855
-3.689666 -22.764183 -46.007927
2.947046 -5.6167 -60.250349
3.458144 -4.677945 -61.188318
1.511659 -8.428658 -57.244383
1.363046 -10.125144 -56.4829
1.051837 -9.307847 -56.265335
-18.089962 -39.708233 -26.845207
-17.967101 -41.098923 -26.847731
-17.718394 -38.594034 -27.482046
-18.089962 -39.708233 -26.845207
-17.272218 -37.384058 -28.169802
-17.139111 -38.701683 -28.182005
-17.718394 -38.594034 -27.482046
6.267991 12.017314 -69.246006
6.224318 10.503519 -68.899326
5.614947 11.187817 -68.536743
-3.088647 18.921232 -57.487387
-3.003651 17.318501 -57.415579
-2.565416 19.618509 -58.127642
-3.088647 18.921232 -57.487387
-3.139603 20.391727 -57.496628
-11.818776 -43.046438 -35.725856
-11.721376 -41.507318 -35.630163
4.921899 20.91998 -68.302109
4.251371 19.991944 -67.68726
-11.27621 -31.101401 -35.679075
-11.75526 -32.328444 -35.030741
-10.58847 -30.867256 -36.476812
-11.27621 -31.101401 -35.679075
-9.932309 -30.582266 -37.2885
-10.434631 -32.014242 -36.617226
-10.58847 -30.867256 -36.476812
-6.992674 -26.744672 -41.13064
-7.606407 -27.169579 -40.32181
-7.120292 -25.701754 -41.027737
-6.849334 -28.915526 -41.296951
-7.440853 -29.381936 -40.489895
-6.887269 -27.746085 -41.231769
-6.296641 -28.546993 -42.063242
-6.849334 -28.915526 -41.296951
-6.296641 -28.546993 -42.063242
-5.748661 -26.891042 -42.82319
-2.917436 -8.879739 -50.000258
-2.423144 -8.158006 -50.883541
-2.917436 -8.879739 -50.000258
-2.967987 -10.222976 -49.491612
-4.060078 -15.322001 -46.627007
-4.658345 -15.976712 -45.734963
-3.744927 -16.018813 -46.871826
-4.060078 -15.322001 -46.627007
-3.52358 -14.548921 -47.52137
-2.297553 -19.980825 -48.431792
-1.966351 -18.31303 -49.17555
-1.809199 -19.251283 -49.329109
-2.645373 -21.548966 -47.729832
-2.802525 -20.610714 -47.576273
-2.297553 -19.980825 -48.431792
-3.025552 -23.220121 -47.014259
-2.645373 -21.548966 -47.729832
3.544268 -2.973616 -61.925573
3.091845 -2.179495 -61.688589
3.60171 -1.257228 -62.628517
3.458144 -4.677945 -61.188318
3.544268 -2.973616 -61.925573
-1.578152 10.33329 -58.147602
-1.640769 11.698232 -58.38248
-1.094143 9.767689 -58.738113
-1.527281 8.885117 -57.861428
-1.578152 10.33329 -58.147602
-16.587674 -47.323109 -29.032755
-17.073004 -48.566114 -28.324053
-16.957324 -47.063685 -28.348114
-16.163418 -47.462929 -29.727847
-16.587674 -47.323109 -29.032755
-16.047738 -45.960499 -29.751908
-15.762382 -47.679596 -30.460225
-16.163418 -47.462929 -29.727847
-15.762382 -47.679596 -30.460225
-15.146189 -46.104204 -31.200738
-13.549786 -44.656269 -33.4468
-14.02498 -44.585436 -32.698228
-12.8707 -43.093109 -34.197409
-13.039422 -44.686596 -34.202227
-13.549786 -44.656269 -33.4468
-11.609027 -39.966273 -35.567955
-11.721376 -41.507318 -35.630163
-12.247987 -41.58239 -34.890627
-11.014315 -38.552481 -36.236599
-11.609027 -39.966273 -35.567955
-11.540926 -38.627552 -35.497063
-10.376054 -37.015857 -36.939056
-11.014315 -38.552481 -36.236599
-6.710139 -24.289679 -41.690901
-7.120292 -25.701754 -41.027737
-6.104826 -23.780508 -42.510685
-6.710139 -24.289679 -41.690901
-5.520313 -23.254866 -43.334816
-5.922046 -24.751206 -42.660698
-6.104826 -23.780508 -42.510685
-1.906287 -4.51941 -52.864418
-1.482744 -3.668395 -53.780512
-1.95077 -5.983724 -52.292332
-1.906287 -4.51941 -52.864418
-1.968641 -7.398653 -51.795842
-1.95077 -5.983724 -52.292332
-1.555556 -6.622753 -52.662095
-2.027929 -8.797035 -51.253304
-2.423144 -8.158006 -50.883541
-1.968641 -7.398653 -51.795842
-0.97948 -16.719528 -51.052542
-1.188792 -15.901547 -50.860062
-0.690276 -15.037588 -51.839735
-1.270791 -18.432495 -50.290363
-0.97948 -16.719528 -51.052542
0.700855 -12.682801 -54.732479
0.25874 -13.383492 -53.803583
0.461109 -11.705025 -54.574957
0.700855 -12.682801 -54.732479
1.188772 -11.838646 -55.699772
4.675012 0.69108 -64.506451
4.762188 2.320952 -65.176445
-18.983095 -48.662954 -24.803929
-19.316682 -48.266106 -24.116781
-18.573918 -47.574663 -25.563959
-18.616696 -49.062691 -25.47206
-18.983095 -48.662954 -24.803929
-19.495711 -43.960211 -24.254635
-19.175065 -42.899242 -24.916207
-19.398263 -45.296921 -24.221285
-19.824252 -45.023119 -23.575596
-19.495711 -43.960211 -24.254635
-19.00502 -45.70447 -24.898076
-19.33356 -46.767378 -24.219037
-19.398263 -45.296921 -24.221285
-17.473577 -41.269829 -27.556793
-17.85539 -42.457092 -26.910274
-17.967101 -41.098923 -26.847731
-1.278318 5.979081 -57.397611
-1.399808 7.403214 -57.62619
-0.921782 6.895383 -58.22336
-1.278318 5.979081 -57.397611
-1.174134 4.578901 -57.111677
-1.06031 -1.230571 -55.309034
-1.081958 0.285112 -55.808255
-0.700746 -1.91069 -55.651619
-1.06824 -2.809086 -54.745024
-1.06031 -1.230571 -55.309034
4.796494 3.940923 -65.765202
4.762188 2.320952 -65.176445
4.226752 3.084168 -64.904308
5.335479 4.798914 -66.567505
4.796494 3.940923 -65.765202
4.800044 5.56213 -66.295368
5.938192 5.777181 -67.385071
5.335479 4.798914 -66.567505
6.008878 7.321326 -67.902538
5.455151 8.047072 -67.643867
6.125001 8.948276 -68.448734
5.938192 5.777181 -67.385071
6.008878 7.321326 -67.902538
-1.865959 14.628101 -58.607664
-1.735559 13.142411 -58.518896
-2.455892 16.649999 -58.018305
-3.003651 17.318501 -57.415579
-1.940173 16.048285 -58.678539
-2.455892 16.649999 -58.018305
-1.998742 17.5463 -58.778635
-1.408809 15.524402 -59.367994
-1.865959 14.628101 -58.607664
-1.940173 16.048285 -58.678539
-0.041982 18.099484 -61.710476
-0.040701 16.669163 -61.619661
-0.506018 17.164842 -60.908304
-17.866947 -49.504801 -26.951033
-18.249379 -49.338656 -26.247371
-17.825087 -48.140545 -26.935751
-17.866947 -49.504801 -26.951033
-17.554846 -49.929743 -27.636755
-12.481887 -44.633157 -35.030983
-11.818776 -43.046438 -35.725856
-2.674547 22.546689 -58.038648
-3.209969 21.836117 -57.485422
-2.140883 21.789479 -58.713663
-2.674547 22.546689 -58.038648
-1.581719 21.118573 -59.433203
-2.057207 20.418097 -58.856422
-2.140883 21.789479 -58.713663
-1.040851 20.602264 -60.19985
-1.581719 21.118573 -59.433203
-0.54548 20.02625 -60.911428
-1.002671 19.171177 -60.28754
-1.040851 20.602264 -60.19985
-0.035622 19.53004 -61.692776
-0.54548 20.02625 -60.911428
-0.041982 18.099484 -61.710476
-0.035622 19.53004 -61.692776
1.432358 18.057039 -63.968542
0.923825 17.154463 -63.194433
1.941701 17.720335 -64.734879
1.432358 18.057039 -63.968542
2.432911 17.324765 -65.457657
1.915525 16.30955 -64.689811
1.941701 17.720335 -64.734879
2.984645 18.215096 -66.227562
3.584326 19.054774 -66.953179
2.958468 16.80431 -66.182495
2.432911 17.324765 -65.457657
2.984645 18.215096 -66.227562
5.559574 20.356599 -69.019634
4.921899 20.91998 -68.302109
6.170488 19.807578 -69.645905
6.922237 20.660654 -70.183983
6.817868 19.324015 -70.211182
5.455205 19.01996 -69.046833
5.559574 20.356599 -69.019634
6.170488 19.807578 -69.645905
6.404156 13.548522 -69.60038
5.772901 14.178693 -69.166405
6.518438 15.025602 -69.883362
6.267991 12.017314 -69.246006
6.404156 13.548522 -69.60038
-16.960458 -36.190462 -28.722087
-17.272218 -37.384058 -28.169802
-16.309293 -36.207825 -29.464517
-16.960458 -36.190462 -28.722087
-15.759799 -36.275574 -30.133952
-16.143442 -37.559456 -29.539197
-16.309293 -36.207825 -29.464517
-15.124626 -36.409691 -30.849746
-15.759799 -36.275574 -30.133952
-15.290478 -35.05806 -30.775067
-14.185999 -33.976082 -32.130798
-14.816529 -33.924504 -31.448457
-13.991263 -35.159405 -32.271363
-14.185999 -33.976082 -32.130798
-13.521956 -33.94331 -32.911301
-11.61131 -33.631683 -35.153635
-12.275778 -33.660894 -34.378838
-11.75526 -32.328444 -35.030741
-9.791462 -35.553411 -37.61264
-10.376054 -37.015857 -36.939056
-10.361622 -35.751314 -36.839291
-9.230649 -30.294272 -38.148043
-9.932309 -30.582266 -37.2885
-8.080809 -28.535895 -39.645942
-7.606407 -27.169579 -40.32181
-8.600304 -29.972843 -38.960954
-8.080809 -28.535895 -39.645942
-7.998283 -29.649445 -39.739725
-9.148124 -31.407823 -38.241825
-9.230649 -30.294272 -38.148043
-8.600304 -29.972843 -38.960954
-9.189971 -34.02396 -38.300035
-9.147404 -32.68763 -38.283806
-8.560344 -32.422722 -39.070966
-9.791462 -35.553411 -37.61264
-9.189971 -34.02396 -38.300035
-4.880527 -17.31891 -45.12562
-4.658345 -15.976712 -45.734963
-4.880527 -17.31891 -45.12562
-4.598372 -18.196659 -45.291653
-5.095464 -21.810665 -44.061014
-4.701577 -20.469293 -44.771534
-4.912684 -22.781363 -44.211027
-5.520313 -23.254866 -43.334816
-5.095464 -21.810665 -44.061014
-4.715279 -24.925959 -44.374548
-5.269553 -25.363986 -43.546192
-4.783259 -23.787537 -44.313185
-4.715279 -24.925959 -44.374548
-4.151815 -24.402164 -45.224855
-3.612495 -23.816837 -46.091241
-3.025552 -23.220121 -47.014259
1.961127 -7.491297 -58.257233
1.511659 -8.428658 -57.244383
1.649919 -6.674001 -58.039667
2.479538 -6.537078 -59.283785
2.566896 -4.816261 -60.019081
2.947046 -5.6167 -60.250349
1.961127 -7.491297 -58.257233
2.479538 -6.537078 -59.283785
4.12329 -0.293576 -63.590526
4.675012 0.69108 -64.506451
3 129 34 130
3 131 130 32
3 129 130 131
3 132 36 133
3 134 133 34
3 132 133 134
3 0 39 37
3 0 41 39
3 1 44 42
3 1 46 44
3 1 48 46
3 3 52 50
3 3 54 52
3 3 56 54
3 5 59 57
3 5 61 59
3 135 63 136
3 2 137 138
3 6 67 65
3 6 139 141
3 141 140 67
3 139 140 141
3 7 142 144
3 144 143 68
3 142 143 144
3 7 145 146
3 7 147 149
3 147 70 148
3 147 148 149
3 151 150 71
3 4 152 154
3 154 153 73
3 152 153 154
3 8 155 157
3 155 75 156
3 155 156 157
3 10 76 33
3 10 77 76
3 10 79 77
3 12 80 35
3 12 81 80
3 13 84 82
3 14 85 38
3 14 158 160
3 160 159 85
3 158 159 160
3 14 161 163
3 161 86 162
3 161 162 163
3 16 87 40
3 16 88 87
3 17 164 166
3 164 89 165
3 164 165 166
3 18 90 43
3 18 91 90
3 18 93 91
3 20 94 45
3 20 167 169
3 169 168 94
3 167 168 169
3 20 170 171
3 173 172 47
3 174 95 175
3 174 175 176
3 177 96 178
3 179 97 180
3 181 180 96
3 179 180 181
3 182 98 183
3 184 183 97
3 182 183 184
3 21 99 49
3 21 100 99
3 9 185 186
3 22 187 189
3 189 188 51
3 187 188 189
3 22 190 191
3 22 192 194
3 192 101 193
3 192 193 194
3 23 102 53
3 23 103 102
3 23 105 103
3 25 106 55
3 25 107 106
3 11 108 78
3 26 109 58
3 26 110 109
3 26 111 110
3 196 195 60
3 27 112 62
3 27 113 112
3 198 197 83
3 15 199 200
3 28 201 203
3 201 114 202
3 201 202 203
3 28 115 114
3 204 116 205
3 206 117 207
3 208 207 116
3 206 207 208
3 210 209 117
3 211 118 212
3 213 119 214
3 215 120 216
3 217 216 119
3 215 216 217
3 29 121 64
3 29 122 121
3 218 123 219
3 220 219 66
3 218 219 220
3 222 221 123
3 30 223 225
3 225 224 69
3 223 224 225
3 30 226 228
3 226 124 227
3 226 227 228
3 19 125 92
3 31 126 72
3 31 127 126
3 31 229 231
3 231 230 127
3 229 230 231
3 24 128 104
3 233 232 74
3 32 33 8
3 34 33 32
3 34 10 33
3 34 35 10
3 36 35 34
3 36 12 35
3 37 38 13
3 39 38 37
3 39 14 38
3 39 40 14
3 41 40 39
3 41 16 40
3 42 43 17
3 44 43 42
3 44 18 43
3 44 45 18
3 46 45 44
3 46 20 45
3 46 47 20
3 48 47 46
3 48 234 236
3 236 235 47
3 234 235 236
3 237 49 238
3 239 49 240
3 241 21 242
3 243 242 49
3 241 242 243
3 50 51 9
3 52 51 50
3 52 22 51
3 52 53 22
3 54 53 52
3 54 23 53
3 54 55 23
3 56 55 54
3 56 25 55
3 57 58 11
3 59 58 57
3 59 26 58
3 59 60 26
3 61 60 59
3 61 244 246
3 246 245 60
3 244 245 246
3 247 62 248
3 63 249 251
3 249 62 250
3 249 250 251
3 63 27 62
3 253 252 15
3 254 28 255
3 256 64 257
3 258 64 259
3 260 29 261
3 262 261 64
3 260 261 262
3 65 263 265
3 263 66 264
3 263 264 265
3 67 66 65
3 67 266 268
3 268 267 66
3 266 267 268
3 67 269 270
3 272 271 67
3 68 273 274
3 276 275 68
3 277 69 278
3 70 279 281
3 279 69 280
3 279 280 281
3 70 30 69
3 71 72 19
3 282 72 283
3 284 283 71
3 282 283 284
3 285 31 286
3 287 286 72
3 285 286 287
3 289 288 31
3 73 74 24
3 290 74 291
3 292 291 73
3 290 291 292
3 294 293 74
3 75 295 296
3 75 297 299
3 297 9 298
3 297 298 299
3 33 75 8
3 76 75 33
3 76 9 75
3 76 50 9
3 77 50 76
3 77 3 50
3 77 78 3
3 79 78 77
3 79 11 78
3 35 79 10
3 80 79 35
3 80 11 79
3 80 57 11
3 81 57 80
3 81 5 57
3 82 83 2
3 84 83 82
3 84 300 302
3 302 301 83
3 300 301 302
3 38 84 13
3 85 84 38
3 85 303 305
3 305 304 84
3 303 304 305
3 85 306 307
3 309 308 85
3 86 310 311
3 86 312 314
3 312 15 313
3 312 313 314
3 40 86 14
3 87 86 40
3 87 15 86
3 87 315 317
3 317 316 15
3 315 316 317
3 88 318 320
3 320 319 87
3 318 319 320
3 88 321 322
3 323 65 324
3 325 65 326
3 327 6 328
3 329 328 65
3 327 328 329
3 89 330 331
3 89 332 333
3 43 89 17
3 90 89 43
3 90 334 336
3 336 335 89
3 334 335 336
3 90 337 339
3 337 68 338
3 337 338 339
3 91 68 90
3 91 7 68
3 91 92 7
3 93 92 91
3 93 19 92
3 45 93 18
3 94 93 45
3 94 19 93
3 94 71 19
3 340 71 341
3 342 341 94
3 340 341 342
3 344 343 71
3 47 345 347
3 347 346 20
3 345 346 347
3 349 348 47
3 351 350 4
3 95 352 353
3 95 354 356
3 354 2 355
3 354 355 356
3 96 357 358
3 96 359 361
3 359 360 361
3 96 362 364
3 362 95 363
3 362 363 364
3 97 95 96
3 97 2 95
3 97 82 2
3 98 82 97
3 98 13 82
3 49 365 367
3 365 98 366
3 365 366 367
3 99 98 49
3 99 13 98
3 99 37 13
3 100 37 99
3 100 0 37
3 51 368 370
3 370 369 9
3 368 369 370
3 372 371 51
3 101 373 374
3 101 375 377
3 375 17 376
3 375 376 377
3 53 101 22
3 102 101 53
3 102 17 101
3 102 42 17
3 103 42 102
3 103 1 42
3 103 104 1
3 105 104 103
3 105 24 104
3 55 105 23
3 106 105 55
3 106 24 105
3 106 73 24
3 107 73 106
3 107 4 73
3 78 56 3
3 108 56 78
3 108 25 56
3 58 108 11
3 109 108 58
3 109 25 108
3 109 107 25
3 110 107 109
3 110 4 107
3 110 378 380
3 380 379 4
3 378 379 380
3 111 381 383
3 383 382 110
3 381 382 383
3 111 384 385
3 60 111 26
3 386 111 387
3 388 387 60
3 386 387 388
3 390 389 111
3 391 8 392
3 62 393 394
3 112 395 397
3 397 396 62
3 395 396 397
3 112 398 400
3 398 8 399
3 398 399 400
3 112 32 8
3 113 32 112
3 113 401 403
3 403 402 32
3 401 402 403
3 83 404 406
3 406 405 2
3 404 405 406
3 408 407 83
3 410 409 15
3 411 63 412
3 413 63 414
3 415 27 416
3 417 416 63
3 415 416 417
3 418 27 419
3 420 113 421
3 422 421 27
3 420 421 422
3 423 113 424
3 426 425 113
3 427 36 428
3 429 36 430
3 431 12 432
3 433 432 36
3 431 432 433
3 114 434 435
3 114 436 438
3 436 12 437
3 436 437 438
3 114 81 12
3 115 81 114
3 115 5 81
3 439 28 440
3 116 441 443
3 441 442 443
3 116 444 446
3 444 28 445
3 444 445 446
3 116 115 28
3 117 115 116
3 117 5 115
3 117 61 5
3 447 61 448
3 449 448 117
3 447 448 449
3 451 450 61
3 452 21 453
3 454 21 455
3 456 100 457
3 458 457 21
3 456 457 458
3 118 459 461
3 459 100 460
3 459 460 461
3 118 0 100
3 462 118 463
3 119 464 466
3 464 118 465
3 464 465 466
3 119 0 118
3 119 41 0
3 120 41 119
3 120 16 41
3 64 467 469
3 467 120 468
3 467 468 469
3 121 120 64
3 121 16 120
3 121 88 16
3 122 88 121
3 122 470 472
3 472 471 88
3 470 471 472
3 473 29 474
3 66 475 476
3 123 477 479
3 479 478 66
3 477 478 479
3 123 480 482
3 480 29 481
3 480 481 482
3 123 122 29
3 483 122 484
3 485 484 123
3 483 484 485
3 487 486 122
3 69 488 489
3 491 490 69
3 124 492 493
3 124 494 496
3 494 6 495
3 494 495 496
3 92 70 7
3 125 70 92
3 125 30 70
3 72 125 19
3 126 125 72
3 126 30 125
3 126 124 30
3 127 124 126
3 127 6 124
3 127 497 499
3 499 498 6
3 497 498 499
3 501 500 127
3 503 502 31
3 104 48 1
3 128 48 104
3 128 504 506
3 506 505 48
3 504 505 506
3 74 128 24
3 507 128 508
3 509 508 74
3 507 508 509
3 511 510 128
3 513 512 4
