ply
format ascii 1.0
element vertex 758
property float x
property float y
property float z
element face 831
property list uchar int vertex_index
end_header
31.200109 -9.470311 2.799803
15.157025 36.98386 -52.012749
23.752235 23.350485 -38.523067
25.076122 7.595218 -22.21653
25.195616 -3.933396 -8.002165
17.589762 29.067917 -34.95266
19.173136 20.260698 -28.658756
35.688683 -16.099583 7.158749
32.872856 -14.245028 -0.198012
20.39777 31.158201 -45.793301
19.537027 13.339046 -22.03451
24.891895 1.17836 -14.593688
30.806204 -4.644537 -14.712835
27.312773 -7.615458 -2.496353
31.179241 -10.439335 -7.2523
25.133251 15.203015 -30.633701
16.698603 23.728895 -27.252743
17.205872 19.597523 -24.599867
20.485817 25.994606 -37.014313
19.068977 30.151377 -40.286522
22.353867 27.379463 -42.285053
24.794682 -1.468041 -11.107872
27.859087 -1.779743 -14.568269
27.882368 -4.733864 -10.970621
29.097589 -8.859453 0.043888
34.601757 -15.723945 -3.056746
31.869938 -12.611794 -3.758626
34.039494 -13.558611 -7.037203
33.759628 -10.97555 -10.860397
12.59774 39.734653 -49.370541
12.026461 38.521164 -54.48978
22.09338 10.308691 -22.046072
22.196037 13.67132 -25.934597
25.190578 11.195137 -26.316114
16.03688 28.409618 -30.050537
18.485043 24.561495 -31.728247
21.553907 21.4835 -33.383591
33.540459 -12.99951 4.96361
31.589365 -12.18079 1.587435
34.271439 -15.51045 3.398383
35.544403 -17.517063 0.938881
36.887379 -19.003666 -2.309286
28.120338 4.992857 -22.296413
28.331184 8.843018 -26.606977
33.605072 -9.759936 5.907718
35.444199 -13.19312 8.483019
15.036742 37.395069 -46.593624
16.356121 33.426601 -38.076279
17.287556 34.05043 -43.662697
17.862413 34.577801 -49.20908
19.42083 10.597263 -18.446175
22.067844 7.229806 -18.330969
22.02552 4.36117 -14.669696
25.033373 4.244755 -18.36076
27.960791 1.498735 -18.365065
30.99024 -1.366521 -18.518305
33.666615 -4.397654 -18.617477
26.013191 -6.003912 -5.181726
30.083166 -11.06216 -1.414209
28.889065 -9.394645 -4.435842
28.183262 -7.255598 -7.658573
30.803797 -7.71546 -10.905394
33.587582 -7.826108 -14.707968
19.41856 16.504137 -25.31613
21.974676 17.406845 -29.618822
24.695646 19.155222 -34.581291
28.282274 12.854434 -30.941963
27.865175 16.952135 -35.228767
22.127918 24.477425 -37.709782
21.522276 26.53911 -39.544903
23.159948 25.330137 -40.40004
24.792486 24.195648 -41.06308
23.59919 -1.038158 -9.763303
25.054792 -2.841982 -9.5476
26.32527 -3.197081 -10.933547
26.535955 -4.550164 -9.331366
30.042128 -7.529512 1.723456
28.852932 -7.266866 0.418169
30.049597 -9.160564 1.349257
35.517715 -16.313976 -4.778018
34.207371 -14.636628 -5.00782
35.28548 -15.271496 -6.610488
13.874243 38.234241 -50.724979
12.310881 39.196274 -51.989182
13.622409 37.866772 -53.434055
23.542295 8.99267 -22.197321
23.689213 10.612522 -24.189125
25.195612 9.322715 -24.258615
17.874529 21.921776 -28.00028
17.591269 24.055183 -29.463293
18.955683 22.252005 -30.242022
19.951641 22.910383 -32.544498
20.363384 20.796787 -30.988771
34.597965 -14.53118 5.980788
33.775177 -14.327919 4.152181
34.995167 -15.913502 5.250151
36.623131 -19.084919 1.413575
36.21851 -18.290365 -0.689253
37.236782 -19.971041 -0.11782
29.693041 3.773641 -22.517412
29.784473 5.586611 -24.49283
34.483902 -11.519187 7.115443
13.857929 38.983917 -45.433525
14.963898 37.403446 -43.979111
16.286312 31.093664 -33.973938
17.041096 31.268528 -36.581345
19.673874 30.770187 -43.016453
18.255657 32.183098 -42.130978
18.746679 32.601986 -44.820572
17.642385 34.316444 -46.448692
19.180346 32.95718 -47.511467
19.393126 9.331918 -16.686668
20.717873 8.831404 -18.373735
20.591246 7.576759 -16.548811
23.405874 1.365841 -12.841656
22.040707 3.119056 -13.042845
23.363482 2.762305 -14.566969
23.367144 4.276382 -16.430588
24.812096 2.716088 -16.330843
26.383698 2.873666 -18.251097
26.451361 1.266361 -16.501534
29.373497 -3.200797 -14.666385
29.338476 -1.524053 -16.51383
30.805223 -3.023487 -16.528172
32.346436 -2.797054 -18.600826
32.232407 -4.465924 -16.673977
26.78105 -6.240563 -1.963985
25.607763 -4.326816 -2.676103
25.948631 -5.71925 -3.201591
25.222698 -4.96742 -4.345128
26.619293 -6.903749 -3.809939
32.256557 -13.396688 0.906861
30.848818 -11.75307 0.082574
31.564018 -12.756776 -0.827969
31.508467 -11.596935 -5.538148
30.4086 -11.010021 -4.191706
29.923933 -9.922524 -5.790039
28.414881 -8.335271 -5.990682
29.6283 -8.854866 -7.348307
29.421282 -7.615558 -9.056066
30.975056 -9.175795 -9.036223
33.571262 -9.379892 -12.751411
9.210777 40.273403 -53.904751
18.354805 14.938001 -21.885479
18.336597 16.342569 -23.419025
19.545048 14.855602 -23.757275
23.640038 14.344808 -28.217287
22.097754 15.480796 -27.749407
23.489656 16.203379 -30.049482
23.444567 18.113663 -32.052517
24.927778 17.060698 -32.470375
29.877695 9.597982 -28.822672
28.442745 10.880837 -28.912834
29.869276 11.8139 -31.2337
27.570478 19.007421 -37.418026
16.946207 21.581692 -25.874153
18.066757 19.874098 -26.443823
18.961226 27.323032 -35.820499
18.435442 29.503881 -37.663242
19.873419 28.010212 -38.629059
20.641115 28.693207 -41.273342
21.372601 29.350899 -44.002613
23.334837 0.252174 -11.221595
24.839849 -0.275582 -12.727106
26.389563 -0.293051 -14.619729
26.27965 -1.764397 -12.708573
27.749031 -3.256641 -12.6768
29.304518 -4.767179 -12.730738
27.789053 -6.859637 -0.784133
28.072483 -8.140725 -1.245636
33.676079 -15.017994 -1.527719
32.385506 -13.5397 -2.06269
33.315483 -14.221663 -3.342432
32.974293 -13.207182 -5.24352
32.648708 -12.046646 -7.03265
32.476601 -10.776908 -8.957334
33.82056 -12.356906 -8.801375
10.784547 39.91531 -52.884331
20.737499 11.751369 -21.96261
20.848688 13.333374 -23.914371
22.188324 11.844989 -23.914734
23.618986 12.468911 -26.167717
25.122061 13.186759 -28.426937
16.838945 28.616817 -32.469662
16.438026 25.968742 -28.694178
17.184593 26.491869 -31.005571
18.141506 26.72366 -33.374405
19.605026 25.02919 -34.290104
21.080328 23.621603 -35.096451
22.698002 22.433542 -36.001812
32.382736 -11.299597 3.888986
31.366171 -11.063798 2.338961
32.570992 -12.70157 3.249016
32.972843 -13.893157 2.492497
33.598473 -14.994964 1.623011
35.426258 -17.043583 4.213107
34.816689 -16.51 2.268439
34.249893 -15.858527 0.266155
35.019402 -16.654537 -1.026852
35.773666 -17.280024 -2.687052
36.611908 -18.003956 -4.394805
26.689072 6.252254 -22.3011
26.638733 8.186471 -24.367916
28.270779 6.897289 -24.46884
29.80393 7.603901 -26.628431
31.364119 -7.722754 3.158725
32.598072 -7.843662 4.543016
32.435707 -9.658294 4.369891
33.452827 -11.48678 5.502007
34.431271 -13.109122 6.596252
35.455261 -14.740139 7.80905
13.911024 38.623821 -48.029079
15.231706 37.125206 -49.344135
17.672783 31.764908 -39.391171
16.911438 33.675224 -40.91074
15.9643 35.639397 -42.453217
16.313305 35.678055 -45.214493
16.396404 35.895073 -47.85957
16.595188 35.844021 -50.612274
18.330015 13.661294 -20.298004
19.455776 11.952368 -20.239605
20.721228 10.285841 -20.187672
22.089954 8.756927 -20.207632
23.512123 7.274281 -20.174498
20.740295 6.164931 -14.92329
22.014275 5.853314 -16.552505
23.572025 5.627775 -18.305048
24.989634 6.010427 -20.336126
26.540987 4.523632 -20.254681
28.115641 3.211416 -20.381588
29.578751 1.85161 -20.393539
27.868387 -0.180769 -16.403662
29.518801 0.063115 -18.43416
31.132612 0.487781 -20.603096
25.556522 -5.021492 -6.597411
30.345932 -10.543356 0.849554
29.375591 -9.933532 -0.651549
28.608027 -9.299617 -2.007066
30.904634 -11.92305 -2.469889
29.386044 -10.233929 -2.937976
27.9527 -8.562702 -3.430776
27.374329 -7.683801 -4.762673
27.064228 -6.834277 -6.236911
26.577856 -5.607552 -7.682651
27.896688 -6.002172 -9.213383
29.258173 -6.261288 -10.759839
30.753246 -6.234203 -12.756239
32.307041 -9.35221 -10.833715
32.244331 -7.85813 -12.732289
32.194767 -6.216066 -14.653023
33.528778 -6.137852 -16.554354
17.253048 18.051128 -23.205515
18.221628 17.973936 -24.891226
19.295418 18.317987 -26.954556
20.789867 15.005111 -25.654247
20.659441 16.802553 -27.355831
20.503557 18.676767 -29.04557
21.793085 19.39608 -31.466534
23.047857 20.258156 -33.946384
24.226883 21.341768 -36.61134
26.886471 10.049119 -26.619652
26.734922 11.924504 -28.529984
26.71191 13.946425 -30.733755
29.745249 13.908037 -33.478275
28.19692 14.872567 -33.133556
26.560402 16.035738 -32.92276
26.268265 18.065527 -34.958107
25.893593 20.148279 -37.048664
25.44245 22.292202 -39.251328
25.125204 -3.387689 -8.774883
24.459018 -2.513184 -8.946036
24.529431 -3.058891 -8.173319
35.833117 -16.061765 -6.559049
35.401598 -15.792736 -5.694253
35.949234 -16.583005 -5.642814
35.707906 -15.376636 -7.610121
35.833117 -16.061765 -6.559049
37.071583 -19.868496 1.804255
36.826266 -19.397965 2.571093
37.378408 -20.311557 1.038558
36.929957 -19.52798 0.647877
37.071583 -19.868496 1.804255
37.632942 -20.801102 0.25015
37.378408 -20.311557 1.038558
30.471342 4.021314 -23.544422
30.424169 3.098477 -22.557835
14.858767 37.43784 -42.595411
14.369913 38.349958 -43.403185
20.612345 31.463307 -47.278652
20.003633 32.362797 -48.137736
19.789058 32.05769 -46.652384
19.396691 8.729069 -15.834084
18.847862 9.725854 -15.963529
19.995752 7.851489 -15.765156
19.992186 8.454339 -16.617739
19.396691 8.729069 -15.834084
8.152764 39.812123 -55.306486
8.397386 40.366383 -54.268332
8.966155 39.719143 -54.942905
30.596525 11.164769 -31.225293
29.873486 10.705941 -30.028186
30.600735 10.056809 -30.019779
17.07604 20.589607 -25.23701
16.569515 21.485694 -24.975138
16.699348 20.493609 -24.337995
22.722681 27.823379 -43.753526
22.232048 28.809096 -44.612307
21.863234 28.365181 -43.143833
11.845616 40.232282 -49.957434
11.955976 40.643528 -48.749276
11.213334 38.754851 -54.868089
10.592377 39.451923 -54.065365
11.405504 39.218237 -53.687055
15.844123 29.624192 -30.804763
15.521069 29.576004 -29.60104
16.437912 28.513217 -31.260099
16.245155 29.727792 -32.014326
15.844123 29.624192 -30.804763
16.568314 24.848819 -27.973461
16.066751 25.901308 -27.669612
16.197039 24.781385 -26.948895
35.964266 -17.821862 4.653854
35.73538 -17.228595 5.217547
35.180546 -17.013531 1.60366
35.413052 -17.320535 2.610921
35.776909 -17.824067 1.946142
37.214304 -19.361061 -3.198611
37.076569 -18.861206 -4.24137
36.749644 -18.503811 -3.352046
30.563688 6.981734 -26.713489
29.794201 6.595256 -25.560631
30.553959 5.97309 -25.645688
30.578573 7.977654 -27.772596
30.563688 6.981734 -26.713489
31.510903 -6.733737 3.20686
30.815899 -6.714106 2.544261
33.101572 -8.801799 5.225367
33.210161 -7.763042 5.252171
33.713661 -8.721179 5.934522
15.773134 34.496172 -37.71883
16.037577 33.451845 -36.827627
15.986625 34.473091 -38.909136
15.773134 34.496172 -37.71883
17.956285 34.640417 -50.62488
17.322672 35.273527 -51.326477
17.2288 35.210911 -49.910677
17.791719 14.01991 -19.537534
17.805345 14.555063 -20.29277
18.858248 11.521733 -18.545833
18.832514 10.94672 -17.675623
19.438303 11.274815 -19.34289
18.875721 12.199286 -19.442548
18.858248 11.521733 -18.545833
21.402178 4.653479 -13.978576
21.409772 4.032421 -13.16515
22.033113 3.740113 -13.856271
21.382908 5.263051 -14.796493
20.759566 5.555359 -14.105373
21.402178 4.653479 -13.978576
31.73799 -1.176494 -19.57181
31.809176 -0.249342 -20.614206
31.061426 -0.43937 -19.560701
33.711258 -3.406226 -19.689244
33.051169 -2.605926 -19.680919
33.006525 -3.597354 -18.609152
34.30855 -4.277675 -19.664656
33.711258 -3.406226 -19.689244
25.022389 -3.238617 -3.049034
25.126791 -3.968796 -3.251177
25.34999 -5.111311 -5.386023
24.954744 -4.593064 -4.967723
25.617945 -5.485666 -4.763427
25.784857 -5.512702 -5.889569
25.121656 -4.6201 -6.093865
25.34999 -5.111311 -5.386023
17.28909 17.349381 -22.525264
16.836078 18.179612 -22.442375
30.374523 14.361287 -34.647247
30.525325 13.294355 -33.549524
28.031047 15.912351 -34.181162
28.833595 15.423661 -34.385335
28.667722 16.463445 -35.432941
26.505381 20.634304 -38.349348
26.732036 19.57785 -37.233345
27.343824 20.063875 -38.534029
26.27981 21.706266 -39.45068
25.668022 21.22024 -38.149996
26.505381 20.634304 -38.349348
25.942916 22.792213 -40.576792
26.27981 21.706266 -39.45068
16.77883 19.6125 -23.736042
16.699348 20.493609 -24.337995
23.564869 25.805349 -41.755667
23.161828 26.830012 -42.698173
22.756908 26.3548 -41.342546
24.381138 25.238104 -42.087187
23.564869 25.805349 -41.755667
23.976217 24.762892 -40.73156
25.210622 24.730269 -42.484112
24.381138 25.238104 -42.087187
23.731217 -1.611272 -9.053888
23.051293 -0.648475 -9.191783
24.326991 -1.94007 -9.655451
23.731217 -1.611272 -9.053888
24.459018 -2.513184 -8.946036
29.44753 -7.398189 1.070813
28.900793 -6.391391 0.55571
29.495391 -6.522714 1.208353
35.202011 -14.625508 -7.678402
34.579018 -13.769065 -7.89176
34.662487 -14.415054 -6.823846
35.202011 -14.625508 -7.678402
35.707906 -15.376636 -7.610121
15.711903 28.331207 -29.001024
15.521069 29.576004 -29.60104
15.196091 29.497593 -28.551527
36.316273 -18.607995 2.183489
36.826266 -19.397965 2.571093
36.083767 -18.300991 1.176228
35.776909 -17.824067 1.946142
36.316273 -18.607995 2.183489
37.501087 -20.348062 -0.952018
37.326386 -19.864374 -2.047751
37.062081 -19.487353 -1.213553
37.897247 -21.178123 -0.584048
37.501087 -20.348062 -0.952018
37.632942 -20.801102 0.25015
30.517058 4.927799 -24.532131
29.738757 4.680126 -23.505121
30.471342 4.021314 -23.544422
30.553959 5.97309 -25.645688
30.517058 4.927799 -24.532131
34.138756 -9.671763 6.650746
33.713661 -8.721179 5.934522
34.578171 -10.551388 7.254608
34.044487 -10.639561 6.51158
34.138756 -9.671763 6.650746
35.006579 -11.430143 7.993307
34.578171 -10.551388 7.254608
35.486727 -12.26711 8.677095
34.96405 -12.356154 7.799231
35.006579 -11.430143 7.993307
13.816928 39.140194 -44.130392
13.284273 39.926391 -44.886288
14.410913 38.193681 -44.706318
13.816928 39.140194 -44.130392
14.369913 38.349958 -43.403185
16.002672 32.285376 -34.776457
15.727292 32.213515 -33.5065
16.380064 32.372808 -36.08016
16.002672 32.285376 -34.776457
16.663704 31.181096 -35.277642
16.698608 32.347564 -37.328812
16.037577 33.451845 -36.827627
16.380064 32.372808 -36.08016
19.350354 33.118132 -48.89736
18.691387 33.928442 -49.746167
18.52138 33.767491 -48.360274
19.350354 33.118132 -48.89736
20.003633 32.362797 -48.137736
18.818662 10.314047 -16.79587
18.847862 9.725854 -15.963529
19.406978 9.96459 -17.566422
18.832514 10.94672 -17.675623
18.818662 10.314047 -16.79587
22.723291 2.242449 -12.942251
22.032594 2.578078 -12.257627
22.715178 1.70147 -12.157033
26.194406 -5.283689 -2.320044
26.10223 -4.556354 -2.132958
26.688873 -5.513227 -1.776899
25.297225 -4.665013 -3.513921
25.126791 -3.968796 -3.251177
25.778197 -5.023033 -2.938847
25.585665 -5.343335 -3.773359
24.934258 -4.289098 -4.085689
25.297225 -4.665013 -3.513921
34.251161 -10.238307 -12.780848
33.665445 -10.177721 -11.805904
34.345344 -11.036136 -11.835341
34.216409 -9.438881 -13.749928
34.251161 -10.238307 -12.780848
34.22457 -8.661989 -14.728206
33.579422 -8.603 -13.729689
34.216409 -9.438881 -13.749928
34.192612 -7.814862 -15.666533
34.22457 -8.661989 -14.728206
8.622943 41.052 -53.23024
9.417794 40.802574 -52.809224
8.622943 41.052 -53.23024
8.397386 40.366383 -54.268332
18.345701 15.640285 -22.652252
17.830865 16.495102 -22.632019
17.839968 15.792818 -21.865246
28.510303 17.446646 -36.482492
28.667722 16.463445 -35.432941
28.362954 18.47429 -37.577122
27.717827 17.979778 -36.323397
28.510303 17.446646 -36.482492
28.109985 19.528495 -38.683234
28.362954 18.47429 -37.577122
27.343824 20.063875 -38.534029
28.109985 19.528495 -38.683234
16.328069 23.63344 -26.299053
16.197039 24.781385 -26.948895
16.451871 22.559838 -25.609758
16.569515 21.485694 -24.975138
16.822405 22.655293 -26.563448
16.328069 23.63344 -26.299053
16.451871 22.559838 -25.609758
35.866592 -16.756595 6.690368
36.17951 -16.892973 7.70203
21.662677 29.729031 -45.47948
21.175262 30.632681 -46.374825
20.885185 30.25455 -44.897957
21.662677 29.729031 -45.47948
22.232048 28.809096 -44.612307
22.722681 27.823379 -43.753526
23.161828 26.830012 -42.698173
22.891851 -0.071776 -9.874429
23.051293 -0.648475 -9.191783
22.759674 0.573389 -10.603575
22.891851 -0.071776 -9.874429
23.467014 -0.392992 -10.492449
22.679659 1.144637 -11.347003
22.759674 0.573389 -10.603575
23.370356 0.809008 -12.031626
22.715178 1.70147 -12.157033
22.679659 1.144637 -11.347003
28.277888 -6.286691 -0.042203
28.900793 -6.391391 0.55571
27.745949 -6.083077 -0.643354
28.277888 -6.286691 -0.042203
28.320992 -7.063251 -0.182982
27.192875 -5.822764 -1.186973
27.745949 -6.083077 -0.643354
27.285052 -6.5501 -1.374059
26.688873 -5.513227 -1.776899
27.192875 -5.822764 -1.186973
34.469551 -13.168212 -8.773846
33.930027 -12.957759 -7.919289
34.579018 -13.769065 -7.89176
34.385362 -12.494308 -9.715291
34.469551 -13.168212 -8.773846
34.354896 -11.80363 -10.744802
33.790094 -11.666228 -9.830886
34.385362 -12.494308 -9.715291
34.345344 -11.036136 -11.835341
34.354896 -11.80363 -10.744802
11.702186 39.963093 -51.266755
11.845616 40.232282 -49.957434
12.454311 39.465463 -50.679862
10.939019 40.322611 -51.714329
11.702186 39.963093 -51.266755
11.547714 39.555792 -52.436757
10.204679 40.623527 -52.299014
10.939019 40.322611 -51.714329
9.997662 40.094357 -53.394541
9.417794 40.802574 -52.809224
10.204679 40.623527 -52.299014
9.805492 39.63097 -54.575575
9.997662 40.094357 -53.394541
10.592377 39.451923 -54.065365
8.966155 39.719143 -54.942905
9.805492 39.63097 -54.575575
15.968839 30.966215 -32.766464
15.727292 32.213515 -33.5065
16.562628 29.855241 -33.2218
15.968839 30.966215 -32.766464
16.245155 29.727792 -32.014326
15.912475 27.110769 -28.322845
16.066751 25.901308 -27.669612
16.237453 27.18918 -29.372357
15.711903 28.331207 -29.001024
15.912475 27.110769 -28.322845
24.666736 -3.54883 -7.454722
24.529431 -3.058891 -8.173319
35.519835 -16.663555 5.736069
35.341925 -16.006542 6.20445
35.866592 -16.756595 6.690368
35.210712 -16.478542 4.731629
35.519835 -16.663555 5.736069
35.73538 -17.228595 5.217547
35.717836 -17.587327 3.583255
35.964266 -17.821862 4.653854
35.121473 -16.776792 3.240773
35.717836 -17.587327 3.583255
35.413052 -17.320535 2.610921
36.49633 -17.427995 -5.451207
35.949234 -16.583005 -5.642814
36.064812 -17.158966 -4.586412
36.95603 -18.243218 -5.380943
36.49633 -17.427995 -5.451207
36.95603 -18.243218 -5.380943
37.076569 -18.861206 -4.24137
37.214304 -19.361061 -3.198611
37.326386 -19.864374 -2.047751
15.09684 36.854473 -53.303423
15.856324 36.409878 -52.711529
30.615455 8.974694 -28.869717
29.840812 8.600941 -27.725552
30.578573 7.977654 -27.772596
30.600735 10.056809 -30.019779
30.615455 8.974694 -28.869717
30.154904 -6.617485 1.826627
29.495391 -6.522714 1.208353
30.703124 -7.626133 2.441091
30.154904 -6.617485 1.826627
30.815899 -6.714106 2.544261
32.835716 -6.878579 4.634339
33.210161 -7.763042 5.252171
32.127879 -6.794191 3.899006
32.835716 -6.878579 4.634339
31.981096 -7.783208 3.850871
31.510903 -6.733737 3.20686
32.127879 -6.794191 3.899006
35.910623 -13.123224 9.444381
35.486727 -12.26711 8.677095
35.886048 -14.00379 9.143688
35.910623 -13.123224 9.444381
36.352472 -13.933895 10.105049
35.891579 -14.777299 8.806703
35.44973 -13.966629 8.146035
35.886048 -14.00379 9.143688
35.942781 -15.538894 8.439037
35.891579 -14.777299 8.806703
36.059492 -16.218615 8.113886
35.571972 -15.419861 7.483899
35.942781 -15.538894 8.439037
36.17951 -16.892973 7.70203
36.059492 -16.218615 8.113886
12.642044 40.019035 -48.107574
11.955976 40.643528 -48.749276
13.272139 39.643667 -46.139066
13.284273 39.926391 -44.886288
13.298686 39.463619 -47.436844
13.272139 39.643667 -46.139066
13.884476 38.803869 -46.731302
13.254382 39.179237 -48.69981
12.642044 40.019035 -48.107574
13.298686 39.463619 -47.436844
16.264284 34.597403 -40.326366
15.986625 34.473091 -38.909136
16.63378 33.550912 -39.49351
15.790714 35.579489 -41.097605
16.264284 34.597403 -40.326366
16.437869 34.657311 -41.681978
15.358968 36.555815 -41.832465
15.790714 35.579489 -41.097605
15.464099 36.521422 -43.216164
14.858767 37.43784 -42.595411
15.358968 36.555815 -41.832465
16.575405 35.839958 -52.011291
15.856324 36.409878 -52.711529
15.876107 36.41394 -51.312511
16.575405 35.839958 -52.011291
17.322672 35.273527 -51.326477
17.956285 34.640417 -50.62488
18.691387 33.928442 -49.746167
20.612345 31.463307 -47.278652
21.175262 30.632681 -46.374825
17.81774 15.193416 -21.086508
17.839968 15.792818 -21.865246
18.34241 14.299647 -21.091741
17.81774 15.193416 -21.086508
17.805345 14.555063 -20.29277
18.312841 13.053749 -19.471747
17.791719 14.01991 -19.537534
18.892896 12.806831 -20.268805
18.312841 13.053749 -19.471747
18.875721 12.199286 -19.442548
21.45048 3.464342 -12.39057
22.032594 2.578078 -12.257627
21.45048 3.464342 -12.39057
21.409772 4.032421 -13.16515
20.131158 6.560408 -14.201144
20.759566 5.555359 -14.105373
20.070276 7.145575 -14.952395
20.131158 6.560408 -14.201144
20.665771 6.870845 -15.736051
19.995752 7.851489 -15.765156
20.070276 7.145575 -14.952395
30.367024 2.137461 -21.495899
30.424169 3.098477 -22.557835
29.635896 2.812626 -21.455475
31.143955 1.455547 -21.600677
30.367024 2.137461 -21.495899
30.355682 1.169695 -20.498317
31.835791 0.71045 -21.606918
31.143955 1.455547 -21.600677
31.835791 0.71045 -21.606918
31.809176 -0.249342 -20.614206
32.416089 -1.89176 -19.61307
31.73799 -1.176494 -19.57181
31.668338 -2.081787 -18.559566
32.416089 -1.89176 -19.61307
33.051169 -2.605926 -19.680919
25.565128 -3.513743 -2.523313
26.10223 -4.556354 -2.132958
24.979754 -2.425543 -2.896244
25.565128 -3.513743 -2.523313
25.022389 -3.238617 -3.049034
24.574906 -3.962553 -4.657832
24.934258 -4.289098 -4.085689
24.574906 -3.962553 -4.657832
24.954744 -4.593064 -4.967723
24.847189 -4.092878 -6.752345
25.121656 -4.6201 -6.093865
25.376069 -4.477444 -7.299788
24.666736 -3.54883 -7.454722
24.847189 -4.092878 -6.752345
34.16321 -6.970734 -16.589726
33.55818 -6.98198 -15.631161
34.192612 -7.814862 -15.666533
34.185129 -6.08098 -17.593082
34.16321 -6.970734 -16.589726
34.819561 -6.913862 -17.628454
34.254047 -5.210881 -18.624643
33.597696 -5.267753 -17.585915
34.185129 -6.08098 -17.593082
34.30855 -4.277675 -19.664656
34.254047 -5.210881 -18.624643
14.329531 37.295929 -54.014076
14.389717 37.425316 -52.723402
15.09684 36.854473 -53.303423
13.522719 37.595247 -54.688659
14.329531 37.295929 -54.014076
14.229841 37.024405 -55.268681
12.724745 37.922443 -55.216522
12.824435 38.193968 -53.961917
13.522719 37.595247 -54.688659
11.831169 38.160562 -55.642532
12.724745 37.922443 -55.216522
11.213334 38.754851 -54.868089
11.831169 38.160562 -55.642532
16.802419 18.839303 -23.038866
16.836078 18.179612 -22.442375
17.22946 18.824326 -23.902691
16.77883 19.6125 -23.736042
16.802419 18.839303 -23.038866
17.794823 17.196849 -23.31227
17.28909 17.349381 -22.525264
17.830865 16.495102 -22.632019
30.587339 12.247287 -32.427236
30.596525 11.164769 -31.225293
29.807263 12.860969 -32.355987
30.587339 12.247287 -32.427236
30.525325 13.294355 -33.549524
29.60776 14.941396 -34.557695
30.374523 14.361287 -34.647247
28.971084 14.390302 -33.305915
29.60776 14.941396 -34.557695
28.833595 15.423661 -34.385335
25.617934 23.743936 -41.482668
25.117468 23.243925 -40.157204
25.942916 22.792213 -40.576792
25.210622 24.730269 -42.484112
25.617934 23.743936 -41.482668
3 2 70 68
3 2 71 70
3 4 269 271
3 269 73 270
3 269 270 271
3 4 75 73
3 0 78 76
3 272 81 273
3 274 273 79
3 272 273 274
3 276 275 81
3 1 84 82
3 3 87 85
3 6 90 88
3 6 92 90
3 7 95 93
3 277 96 278
3 279 98 280
3 281 280 96
3 279 280 281
3 283 282 98
3 285 284 99
3 286 103 287
3 5 105 104
3 9 108 106
3 9 110 108
3 9 288 290
3 290 289 110
3 288 289 290
3 291 111 292
3 293 113 294
3 295 294 111
3 293 294 295
3 11 116 114
3 11 118 116
3 11 120 118
3 12 123 121
3 12 125 123
3 13 128 126
3 13 130 128
3 8 133 131
3 14 136 134
3 14 138 136
3 14 140 138
3 298 297 142
3 296 297 298
3 10 145 143
3 15 148 146
3 15 150 148
3 299 153 300
3 301 300 151
3 299 300 301
3 17 302 304
3 302 155 303
3 302 303 304
3 17 156 155
3 18 159 157
3 20 160 69
3 20 161 160
3 20 305 307
3 307 306 161
3 305 306 307
3 21 162 72
3 21 163 162
3 21 165 163
3 23 166 74
3 23 167 166
3 24 168 77
3 24 169 168
3 25 172 170
3 27 173 80
3 27 174 173
3 27 176 174
3 29 308 309
3 30 177 83
3 30 310 312
3 312 311 177
3 310 311 312
3 31 180 178
3 33 181 86
3 33 182 181
3 34 313 314
3 34 315 317
3 315 183 316
3 315 316 317
3 16 318 320
3 318 184 319
3 318 319 320
3 35 185 89
3 35 186 185
3 35 187 186
3 36 188 91
3 36 189 188
3 37 192 190
3 39 193 94
3 39 194 193
3 321 195 322
3 40 323 325
3 323 196 324
3 323 324 325
3 40 197 196
3 40 198 197
3 41 199 97
3 41 200 199
3 41 326 328
3 328 327 200
3 326 327 328
3 42 203 201
3 329 204 330
3 331 330 100
3 329 330 331
3 333 332 204
3 334 205 335
3 44 336 338
3 336 206 337
3 336 337 338
3 44 207 206
3 44 208 207
3 45 209 101
3 45 210 209
3 46 211 102
3 46 212 211
3 47 339 340
3 47 341 342
3 19 213 158
3 48 214 107
3 48 215 214
3 48 216 215
3 49 217 109
3 49 218 217
3 49 343 345
3 345 344 218
3 343 344 345
3 346 219 347
3 50 348 349
3 50 350 352
3 350 220 351
3 350 351 352
3 50 221 220
3 51 222 112
3 51 223 222
3 52 353 355
3 355 354 115
3 353 354 355
3 52 356 358
3 356 224 357
3 356 357 358
3 52 225 224
3 53 226 117
3 53 227 226
3 53 228 227
3 54 229 119
3 54 230 229
3 22 231 164
3 55 232 122
3 55 233 232
3 55 359 361
3 361 360 233
3 359 360 361
3 56 362 364
3 364 363 124
3 362 363 364
3 56 365 366
3 368 367 127
3 57 369 371
3 371 370 129
3 369 370 371
3 57 372 374
3 372 234 373
3 372 373 374
3 38 235 191
3 58 236 132
3 58 237 236
3 26 238 171
3 59 239 135
3 59 240 239
3 59 241 240
3 60 242 137
3 60 243 242
3 60 244 243
3 61 245 139
3 61 246 245
3 28 247 175
3 62 248 141
3 62 249 248
3 62 250 249
3 375 251 376
3 63 252 144
3 63 253 252
3 32 254 179
3 64 255 147
3 64 256 255
3 64 257 256
3 65 258 149
3 65 259 258
3 43 260 202
3 66 261 152
3 66 262 261
3 377 263 378
3 67 379 381
3 379 264 380
3 379 380 381
3 67 265 264
3 67 266 265
3 382 267 383
3 384 383 154
3 382 383 384
3 385 268 386
3 387 386 267
3 385 386 387
3 389 388 268
3 390 17 391
3 68 69 18
3 70 69 68
3 70 20 69
3 70 392 394
3 394 393 20
3 392 393 394
3 71 395 397
3 397 396 70
3 395 396 397
3 71 398 399
3 400 72 401
3 73 402 404
3 402 72 403
3 402 403 404
3 73 21 72
3 73 74 21
3 75 74 73
3 75 23 74
3 76 405 407
3 405 77 406
3 405 406 407
3 78 77 76
3 78 24 77
3 79 80 25
3 81 80 79
3 81 27 80
3 81 408 410
3 410 409 27
3 408 409 410
3 412 411 81
3 82 83 29
3 84 83 82
3 84 30 83
3 85 86 31
3 87 86 85
3 87 33 86
3 413 34 414
3 413 414 415
3 88 89 16
3 90 89 88
3 90 35 89
3 90 91 35
3 92 91 90
3 92 36 91
3 93 94 37
3 95 94 93
3 95 39 94
3 96 416 417
3 96 418 420
3 418 40 419
3 418 419 420
3 96 97 40
3 98 97 96
3 98 41 97
3 98 421 423
3 423 422 41
3 421 422 423
3 426 425 98
3 424 425 426
3 99 100 42
3 427 100 428
3 429 428 99
3 427 428 429
3 431 430 100
3 432 44 433
3 434 101 435
3 436 435 44
3 434 435 436
3 437 101 438
3 439 45 440
3 441 440 101
3 439 440 441
3 442 102 443
3 103 444 446
3 444 102 445
3 444 445 446
3 103 46 102
3 104 447 448
3 105 449 451
3 451 450 104
3 449 450 451
3 105 452 454
3 452 47 453
3 452 453 454
3 106 107 19
3 108 107 106
3 108 48 107
3 108 109 48
3 110 109 108
3 110 49 109
3 110 455 457
3 457 456 49
3 455 456 457
3 459 458 110
3 111 460 461
3 111 462 464
3 462 50 463
3 462 463 464
3 111 112 50
3 113 112 111
3 113 51 112
3 114 465 467
3 465 115 466
3 465 466 467
3 116 115 114
3 116 52 115
3 116 117 52
3 118 117 116
3 118 53 117
3 118 119 53
3 120 119 118
3 120 54 119
3 121 122 22
3 123 122 121
3 123 55 122
3 123 124 55
3 125 124 123
3 125 56 124
3 126 468 470
3 468 127 469
3 468 469 470
3 128 127 126
3 128 471 473
3 473 472 127
3 471 472 473
3 128 474 476
3 474 129 475
3 474 475 476
3 130 129 128
3 130 57 129
3 131 132 38
3 133 132 131
3 133 58 132
3 134 135 26
3 136 135 134
3 136 59 135
3 136 137 59
3 138 137 136
3 138 60 137
3 138 139 60
3 140 139 138
3 140 61 139
3 477 141 478
3 479 478 28
3 477 478 479
3 480 141 481
3 482 62 483
3 484 483 141
3 482 483 484
3 486 485 62
3 142 487 488
3 490 489 142
3 143 491 493
3 491 144 492
3 491 492 493
3 145 144 143
3 145 63 144
3 146 147 32
3 148 147 146
3 148 64 147
3 148 149 64
3 150 149 148
3 150 65 149
3 151 152 43
3 153 152 151
3 153 66 152
3 494 67 495
3 496 154 497
3 498 497 67
3 496 497 498
3 499 154 500
3 502 501 154
3 503 16 504
3 155 505 506
3 155 507 509
3 507 16 508
3 507 508 509
3 155 88 16
3 156 88 155
3 156 6 88
3 511 510 7
3 157 158 5
3 159 158 157
3 159 19 158
3 69 159 18
3 160 159 69
3 160 19 159
3 160 106 19
3 161 106 160
3 161 9 106
3 161 512 514
3 514 513 9
3 512 513 514
3 516 515 161
3 518 517 20
3 72 519 520
3 162 521 523
3 523 522 72
3 521 522 523
3 162 524 525
3 162 526 528
3 526 114 527
3 526 527 528
3 163 114 162
3 163 11 114
3 163 164 11
3 165 164 163
3 165 22 164
3 74 165 21
3 166 165 74
3 166 22 165
3 166 121 22
3 167 121 166
3 167 12 121
3 77 529 530
3 168 531 533
3 533 532 77
3 531 532 533
3 168 534 535
3 168 536 538
3 536 126 537
3 536 537 538
3 169 126 168
3 169 13 126
3 170 171 8
3 172 171 170
3 172 26 171
3 80 172 25
3 173 172 80
3 173 26 172
3 173 134 26
3 174 134 173
3 174 14 134
3 174 175 14
3 176 175 174
3 176 28 175
3 539 176 540
3 541 540 27
3 539 540 541
3 542 176 543
3 544 28 545
3 546 545 176
3 544 545 546
3 548 547 28
3 83 549 551
3 551 550 29
3 549 550 551
3 177 552 554
3 554 553 83
3 552 553 554
3 177 555 556
3 177 557 559
3 557 142 558
3 557 558 559
3 560 142 561
3 562 561 177
3 560 561 562
3 564 563 142
3 178 179 10
3 180 179 178
3 180 32 179
3 86 180 31
3 181 180 86
3 181 32 180
3 181 146 32
3 182 146 181
3 182 15 146
3 565 104 566
3 183 567 569
3 567 104 568
3 567 568 569
3 183 5 104
3 184 570 571
3 184 572 574
3 572 34 573
3 572 573 574
3 89 184 16
3 185 184 89
3 185 34 184
3 185 183 34
3 186 183 185
3 186 5 183
3 186 157 5
3 187 157 186
3 187 18 157
3 91 187 35
3 188 187 91
3 188 18 187
3 188 68 18
3 189 68 188
3 189 2 68
3 575 4 576
3 190 191 0
3 192 191 190
3 192 38 191
3 94 192 37
3 193 192 94
3 193 38 192
3 193 131 38
3 194 131 193
3 194 8 131
3 577 95 578
3 579 578 7
3 577 578 579
3 195 580 582
3 580 95 581
3 580 581 582
3 195 39 95
3 583 195 584
3 196 585 587
3 585 195 586
3 585 586 587
3 196 39 195
3 196 194 39
3 197 194 196
3 197 8 194
3 197 170 8
3 198 170 197
3 198 25 170
3 97 198 40
3 199 198 97
3 199 25 198
3 199 79 25
3 200 79 199
3 200 588 590
3 590 589 79
3 588 589 590
3 200 591 592
3 594 593 200
3 596 595 41
3 598 597 1
3 201 202 3
3 203 202 201
3 203 43 202
3 100 203 42
3 204 203 100
3 204 43 203
3 204 151 43
3 599 151 600
3 601 600 204
3 599 600 601
3 603 602 151
3 604 76 605
3 205 606 608
3 606 76 607
3 606 607 608
3 205 0 76
3 206 609 610
3 206 611 612
3 206 613 615
3 613 205 614
3 613 614 615
3 207 205 206
3 207 0 205
3 207 190 0
3 208 190 207
3 208 37 190
3 101 208 44
3 209 208 101
3 209 37 208
3 209 93 37
3 210 93 209
3 210 7 93
3 616 45 617
3 618 45 619
3 618 619 620
3 621 210 622
3 623 622 45
3 621 622 623
3 624 210 625
3 626 7 627
3 628 627 210
3 626 627 628
3 630 629 7
3 631 29 632
3 102 633 634
3 211 635 637
3 637 636 102
3 635 636 637
3 211 638 640
3 638 29 639
3 638 639 640
3 211 82 29
3 212 82 211
3 212 1 82
3 158 105 5
3 213 105 158
3 213 47 105
3 107 213 19
3 214 213 107
3 214 47 213
3 214 641 643
3 643 642 47
3 641 642 643
3 215 644 646
3 646 645 214
3 644 645 646
3 215 647 648
3 215 649 651
3 649 103 650
3 649 650 651
3 216 103 215
3 216 46 103
3 109 216 48
3 217 216 109
3 217 46 216
3 217 212 46
3 218 212 217
3 218 1 212
3 218 652 654
3 654 653 1
3 652 653 654
3 656 655 218
3 658 657 49
3 660 659 9
3 661 143 662
3 219 663 665
3 663 143 664
3 663 664 665
3 219 10 143
3 666 219 667
3 220 668 670
3 668 219 669
3 668 669 670
3 220 10 219
3 220 178 10
3 221 178 220
3 221 31 178
3 112 221 50
3 222 221 112
3 222 31 221
3 222 85 31
3 223 85 222
3 223 3 85
3 115 671 672
3 674 673 115
3 224 675 676
3 224 677 678
3 224 679 681
3 679 113 680
3 679 680 681
3 225 113 224
3 225 51 113
3 117 225 52
3 226 225 117
3 226 51 225
3 226 223 51
3 227 223 226
3 227 3 223
3 227 201 3
3 228 201 227
3 228 42 201
3 119 228 53
3 229 228 119
3 229 42 228
3 229 99 42
3 230 99 229
3 230 682 684
3 684 683 99
3 682 683 684
3 164 120 11
3 231 120 164
3 231 54 120
3 122 231 22
3 232 231 122
3 232 54 231
3 232 230 54
3 233 230 232
3 233 685 687
3 687 686 230
3 685 686 687
3 233 688 689
3 691 690 233
3 124 692 694
3 694 693 55
3 692 693 694
3 696 695 124
3 127 697 698
3 701 700 127
3 699 700 701
3 129 702 703
3 705 704 129
3 234 706 707
3 234 708 710
3 708 4 709
3 708 709 710
3 191 78 0
3 235 78 191
3 235 24 78
3 132 235 38
3 236 235 132
3 236 24 235
3 236 169 24
3 237 169 236
3 237 13 169
3 171 133 8
3 238 133 171
3 238 58 133
3 135 238 26
3 239 238 135
3 239 58 238
3 239 237 58
3 240 237 239
3 240 13 237
3 240 130 13
3 241 130 240
3 241 57 130
3 137 241 59
3 242 241 137
3 242 57 241
3 242 234 57
3 243 234 242
3 243 4 234
3 243 75 4
3 244 75 243
3 244 23 75
3 139 244 60
3 245 244 139
3 245 23 244
3 245 167 23
3 246 167 245
3 246 12 167
3 175 140 14
3 247 140 175
3 247 61 140
3 141 247 28
3 248 247 141
3 248 61 247
3 248 246 61
3 249 246 248
3 249 12 246
3 249 125 12
3 250 125 249
3 250 56 125
3 711 250 712
3 713 712 62
3 711 712 713
3 714 250 715
3 714 715 716
3 717 56 718
3 719 718 250
3 717 718 719
3 721 720 56
3 722 84 723
3 724 723 1
3 722 723 724
3 725 84 726
3 725 726 727
3 728 30 729
3 730 729 84
3 728 729 730
3 731 30 732
3 734 733 30
3 251 735 736
3 251 737 739
3 737 17 738
3 737 738 739
3 144 740 742
3 740 251 741
3 740 741 742
3 252 251 144
3 252 17 251
3 252 156 17
3 253 156 252
3 253 6 156
3 179 145 10
3 254 145 179
3 254 63 145
3 147 254 32
3 255 254 147
3 255 63 254
3 255 253 63
3 256 253 255
3 256 6 253
3 256 92 6
3 257 92 256
3 257 36 92
3 149 257 64
3 258 257 149
3 258 36 257
3 258 189 36
3 259 189 258
3 259 2 189
3 202 87 3
3 260 87 202
3 260 33 87
3 152 260 43
3 261 260 152
3 261 33 260
3 261 182 33
3 262 182 261
3 262 15 182
3 743 153 744
3 263 745 747
3 745 153 746
3 745 746 747
3 263 66 153
3 748 263 749
3 264 750 752
3 750 263 751
3 750 751 752
3 264 66 263
3 264 262 66
3 265 262 264
3 265 15 262
3 265 150 15
3 266 150 265
3 266 65 150
3 154 266 67
3 267 266 154
3 267 65 266
3 267 259 65
3 268 259 267
3 268 2 259
3 268 71 2
3 753 71 754
3 755 754 268
3 753 754 755
3 757 756 71
