ply
format ascii 1.0
element vertex 464
property float x
property float y
property float z
element face 484
property list uchar int vertex_index
end_header
34.795044 -36.857624 -13.649459
31.58814 -51.494995 -13.479476
33.814747 -53.44556 -31.289806
33.183807 -52.805302 -22.322746
33.373386 -42.90332 -13.601711
30.897354 -49.327156 -4.97667
28.102551 -58.23151 -4.486025
24.297163 -67.919022 -4.944333
20.574669 -72.51284 4.569932
35.058037 -42.929989 -21.266586
31.253023 -47.924278 -1.173066
28.278776 -56.313053 0.146767
26.649162 -60.759274 0.300434
26.374979 -62.98727 -4.653075
24.662785 -65.631401 0.201448
19.874063 -75.303246 -1.072033
32.514034 -47.054504 -13.291624
34.040043 -43.068382 -17.2066
33.332237 -47.530376 -17.410475
33.652588 -53.451992 -26.78924
35.262997 -47.817394 -26.242903
35.800137 -47.716244 -30.580038
30.231304 -56.442131 -13.543339
32.361008 -52.2812 -17.821411
34.109482 -39.504513 -13.61298
32.082386 -46.348438 -9.447665
31.072186 -50.452892 -9.29704
29.787685 -52.010712 -0.289427
29.590221 -53.695114 -4.74908
29.824432 -54.966801 -9.120174
28.262833 -59.882462 -9.312933
26.314438 -64.999603 -9.599839
23.986267 -70.274147 -10.204516
22.40696 -70.498367 -0.337894
21.837481 -73.062729 -5.538847
34.617058 -39.241421 -16.973299
34.372074 -47.62191 -21.768732
25.639484 -63.287445 0.378612
32.115883 -49.137062 -13.435522
32.928036 -47.180859 -15.389422
32.488434 -49.543736 -15.549121
33.875134 -53.294289 -29.137644
34.762749 -50.665962 -28.673958
34.937756 -50.459248 -30.915874
34.867279 -50.468887 -33.101627
31.513727 -47.3419 -5.386721
32.043388 -45.913734 -7.599627
31.478485 -47.914127 -7.34429
31.586897 -48.357826 -9.34177
30.960705 -49.824585 -7.218238
30.06706 -51.071472 1.809088
29.301073 -53.11821 2.091855
28.165508 -57.254055 -2.153021
28.956207 -54.948971 -2.384809
28.899969 -55.843697 -4.553214
29.645582 -54.441776 -6.957314
28.918768 -56.671711 -6.682129
29.069157 -57.390244 -9.083043
28.190847 -58.96751 -6.92787
25.409473 -65.406517 -4.883193
26.341249 -63.922256 -6.998149
25.26054 -66.537827 -7.203038
25.197897 -67.621689 -9.871778
24.231867 -68.898323 -7.550781
21.846624 -70.173531 4.972294
22.696543 -69.189064 2.528476
21.562107 -71.407028 2.258693
19.409288 -76.884033 -3.807233
20.849422 -74.229485 -3.268512
20.471882 -75.726028 -6.122604
21.600725 -74.320671 -8.326447
33.726524 -41.185062 -13.572376
34.323765 -39.399567 -15.319323
33.998981 -41.149937 -15.398705
34.549812 -42.952297 -19.265934
34.761391 -41.073116 -19.008463
35.319946 -40.655113 -21.045349
32.751274 -52.694912 -20.068754
33.420067 -50.082481 -20.037844
33.864891 -50.170601 -22.109339
35.798466 -45.175678 -25.975214
31.036873 -48.583954 -2.968326
28.526299 -55.198452 2.386975
27.468784 -58.536415 0.388858
27.318892 -59.640644 -2.074916
27.315126 -60.511124 -4.632484
26.436592 -61.991863 -2.075879
25.494534 -64.399117 -2.320018
24.428825 -66.871887 -2.407298
32.945705 -44.910931 -13.389242
33.661594 -43.051765 -15.408386
33.280804 -45.080322 -15.270889
33.729881 -45.20015 -17.349735
34.201775 -45.326469 -19.358442
33.493698 -53.11409 -24.656767
34.256916 -50.38591 -24.345158
34.627213 -50.378166 -26.628357
35.597969 -47.762669 -28.443401
30.970978 -53.945793 -13.560876
31.902992 -52.041344 -15.532432
31.299883 -54.445976 -15.732675
31.72328 -54.749752 -18.082777
32.004864 -55.325661 -20.322222
32.338737 -55.610462 -22.689949
32.556084 -55.923359 -24.979122
32.703835 -56.079403 -27.243996
32.717377 -56.196228 -29.55125
34.495388 -37.951038 -13.650172
34.087154 -39.26313 -12.117823
33.60141 -41.046379 -11.848516
33.135853 -42.89138 -11.677826
32.605293 -44.3512 -9.710897
32.696949 -44.722195 -11.491427
32.227291 -46.811134 -11.371207
31.746944 -48.918152 -11.237309
31.255428 -51.096436 -11.331319
30.512604 -49.967323 -0.698046
30.328341 -50.742004 -2.762786
29.06691 -54.101727 -0.217705
29.628977 -52.905994 -2.571822
30.259054 -51.497097 -4.920266
30.32128 -52.11837 -7.050738
30.457748 -52.737713 -9.148277
30.719194 -53.261513 -11.41512
30.042284 -55.627754 -11.38423
29.238674 -58.226471 -11.493718
28.374723 -60.745411 -11.652536
27.326298 -61.372906 -6.927444
27.316889 -62.388599 -9.248597
27.436592 -63.248268 -11.855387
26.393763 -65.804207 -12.106509
25.204535 -68.525826 -12.498131
23.563042 -68.031914 0.163398
23.33033 -69.306404 -2.736254
21.134085 -72.937271 -0.519289
22.098629 -71.802597 -2.900734
23.128531 -70.454185 -5.245671
22.969828 -71.560829 -7.829396
22.646027 -72.97731 -10.445544
34.648949 -37.799778 -15.182579
34.890781 -37.580521 -16.762087
34.361252 -41.017754 -17.183666
35.026573 -38.991577 -18.824459
32.927887 -49.832092 -17.704081
33.811558 -47.757442 -19.560122
34.781052 -45.191364 -21.580708
34.887379 -47.66172 -24.0954
35.304779 -45.272381 -23.802423
35.648449 -42.693424 -23.475861
34.867178 -36.684424 -14.282743
34.999204 -36.197611 -14.039678
29.030081 -53.716278 3.35456
29.450218 -52.653761 3.202008
20.81093 -71.732589 5.909756
20.157274 -72.820034 5.798334
21.210646 -71.343186 4.771113
21.446907 -70.562935 6.110937
20.81093 -71.732589 5.909756
19.758367 -77.017002 -6.394742
19.940585 -76.305031 -4.964918
19.227069 -77.596004 -5.237057
20.323695 -76.358784 -7.451628
19.758367 -77.017002 -6.394742
35.443371 -41.708706 -22.117863
35.574326 -40.571268 -22.007245
35.188992 -41.792551 -21.155968
31.474908 -47.295956 -2.355516
31.610209 -46.974564 -1.38574
31.144948 -48.254116 -2.070696
31.366833 -47.625794 -3.253145
31.474908 -47.295956 -2.355516
27.058973 -59.647844 0.344646
27.133819 -59.164101 1.521149
26.724007 -60.27553 1.476937
36.177893 -46.222096 -30.379928
36.076809 -46.245308 -29.31161
35.699053 -47.739457 -29.511719
36.300444 -46.04965 -31.453795
36.177893 -46.222096 -30.379928
31.321407 -56.073637 -18.234451
31.154443 -55.823583 -17.006321
31.462199 -56.361592 -19.354173
31.864072 -55.037706 -19.2025
31.321407 -56.073637 -18.234451
31.840348 -57.014803 -22.879805
31.721384 -56.822246 -21.641915
31.949022 -57.171251 -24.024392
32.447411 -55.76691 -23.834536
31.840348 -57.014803 -22.879805
32.09513 -57.525034 -27.449169
32.087988 -57.402874 -26.312134
32.101901 -57.583446 -28.602797
32.710606 -56.137816 -28.397623
32.09513 -57.525034 -27.449169
34.113928 -39.179447 -11.351
34.300798 -38.533395 -12.218976
33.350907 -41.80336 -10.927499
33.60882 -40.915343 -11.072506
33.118128 -42.72586 -10.842154
33.368631 -41.968879 -11.763171
33.350907 -41.80336 -10.927499
23.933481 -70.772438 -11.464196
24.542615 -69.898278 -12.611004
24.595401 -69.399986 -11.351323
20.504074 -74.120259 -0.795661
20.715139 -73.358757 0.61143
20.085127 -74.541744 0.335058
21.953833 -74.337185 -10.745418
22.123376 -73.64899 -9.385995
21.431182 -75.008865 -9.685869
22.580989 -73.49073 -11.83755
21.953833 -74.337185 -10.745418
34.932467 -38.250016 -17.764885
35.069328 -37.419565 -17.659279
34.753919 -38.410971 -16.867693
35.251857 -38.873937 -19.736918
34.893982 -40.032347 -18.916461
35.119267 -39.914707 -19.828919
35.374056 -37.847263 -19.648963
35.251857 -38.873937 -19.736918
35.719736 -43.964693 -24.642802
35.551623 -45.22403 -24.888818
35.966579 -43.916342 -25.729197
35.891571 -42.675214 -24.479521
35.476614 -43.982903 -23.639142
35.719736 -43.964693 -24.642802
36.033943 -41.42799 -24.326431
35.891571 -42.675214 -24.479521
31.414017 -47.562306 -0.178934
31.610209 -46.974564 -1.38574
26.25399 -61.458708 1.508935
26.724007 -60.27553 1.476937
25.749151 -62.722793 1.548023
26.144323 -62.023359 0.339523
26.25399 -61.458708 1.508935
25.240285 -63.919323 1.614518
25.749151 -62.722793 1.548023
24.751936 -65.091301 1.525936
25.151134 -64.459423 0.29003
25.240285 -63.919323 1.614518
35.429326 -48.959925 -31.85778
35.860516 -47.588423 -31.689862
35.368946 -49.087746 -30.747956
35.394087 -48.964745 -32.950657
35.429326 -48.959925 -31.85778
34.902518 -50.464067 -32.00875
35.397819 -48.762294 -34.003746
35.394087 -48.964745 -32.950657
30.408455 -56.669773 -14.736603
29.845717 -57.693537 -13.699759
31.778557 -46.627817 -6.493174
32.086838 -45.66533 -6.633214
31.822007 -46.379413 -5.52676
29.833212 -51.630392 3.060625
30.258891 -50.574091 2.766736
29.684067 -52.094841 1.950471
29.833212 -51.630392 3.060625
29.450218 -52.653761 3.202008
22.049772 -69.452549 6.279596
21.446907 -70.562935 6.110937
22.463079 -68.985466 5.01392
22.049772 -69.452549 6.279596
22.271583 -69.681297 3.750385
22.888038 -68.493233 3.792011
22.463079 -68.985466 5.01392
20.888117 -75.656105 -8.553549
21.036304 -75.023349 -7.224526
20.323695 -76.358784 -7.451628
21.431182 -75.008865 -9.685869
20.888117 -75.656105 -8.553549
35.398544 -39.705706 -20.847363
35.119267 -39.914707 -19.828919
35.040669 -40.864114 -20.026906
35.69713 -39.414627 -21.91666
35.398544 -39.705706 -20.847363
35.69713 -39.414627 -21.91666
35.574326 -40.571268 -22.007245
36.004711 -45.096075 -27.025144
35.530732 -46.496536 -26.109058
35.736977 -46.416933 -27.158989
36.202826 -43.832808 -26.774395
36.004711 -45.096075 -27.025144
35.966579 -43.916342 -25.729197
36.202826 -43.832808 -26.774395
31.60526 -47.004767 -4.462343
31.822007 -46.379413 -5.52676
31.2753 -47.962927 -4.177523
31.60526 -47.004767 -4.462343
31.366833 -47.625794 -3.253145
28.201588 -55.882485 3.625714
28.642694 -54.756399 3.50212
28.101091 -56.334078 2.510248
28.201588 -55.882485 3.625714
27.977329 -56.891379 1.390144
28.402538 -55.755752 1.266871
28.101091 -56.334078 2.510248
27.572333 -58.003059 1.511189
27.133819 -59.164101 1.521149
27.87378 -57.424734 0.267813
27.977329 -56.891379 1.390144
27.572333 -58.003059 1.511189
19.949136 -73.577244 4.390522
20.157274 -72.820034 5.798334
20.435431 -73.146541 3.15604
19.949136 -73.577244 4.390522
19.412416 -75.673684 0.217776
20.085127 -74.541744 0.335058
19.199042 -76.438847 -1.194253
19.412416 -75.673684 0.217776
18.966655 -77.229241 -2.561853
19.641675 -76.093639 -2.439633
19.199042 -76.438847 -1.194253
18.714916 -78.063964 -4.026423
18.966655 -77.229241 -2.561853
19.227069 -77.596004 -5.237057
18.714916 -78.063964 -4.026423
35.904463 -46.389571 -28.259238
35.736977 -46.416933 -27.158989
35.430483 -47.790031 -27.343152
35.904463 -46.389571 -28.259238
36.076809 -46.245308 -29.31161
36.300444 -46.04965 -31.453795
35.860516 -47.588423 -31.689862
30.942744 -55.671695 -15.831271
30.765594 -55.444054 -14.638007
30.408455 -56.669773 -14.736603
31.511581 -54.597864 -16.907726
30.942744 -55.671695 -15.831271
31.154443 -55.823583 -17.006321
31.554447 -56.679846 -20.458052
31.462199 -56.361592 -19.354173
32.171801 -55.468061 -21.506085
31.554447 -56.679846 -20.458052
31.721384 -56.822246 -21.641915
32.014112 -57.324852 -25.179697
31.949022 -57.171251 -24.024392
32.629959 -56.001381 -26.111559
32.014112 -57.324852 -25.179697
32.087988 -57.402874 -26.312134
34.504915 -37.877349 -12.98515
34.645216 -37.404331 -13.649815
34.654743 -37.330642 -12.984794
34.291271 -38.607084 -12.883997
34.504915 -37.877349 -12.98515
34.300798 -38.533395 -12.218976
33.851692 -40.023718 -11.20716
34.113928 -39.179447 -11.351
33.844282 -40.154754 -11.983169
33.851692 -40.023718 -11.20716
33.60882 -40.915343 -11.072506
32.336992 -44.930262 -7.780591
32.086838 -45.66533 -6.633214
32.617945 -44.148995 -8.836226
32.336992 -44.930262 -7.780591
32.324341 -45.132467 -8.655262
32.852848 -43.45577 -9.85869
32.617945 -44.148995 -8.836226
32.870573 -43.62129 -10.694361
33.118128 -42.72586 -10.842154
32.852848 -43.45577 -9.85869
31.037046 -48.515476 0.044284
31.414017 -47.562306 -0.178934
30.444065 -50.089073 1.535361
30.258891 -50.574091 2.766736
30.666837 -49.536998 0.281794
30.444065 -50.089073 1.535361
30.289832 -50.519397 0.555521
30.882813 -48.945801 -0.935556
31.037046 -48.515476 0.044284
30.666837 -49.536998 0.281794
28.913686 -54.158331 2.239415
29.030081 -53.716278 3.35456
28.642694 -54.756399 3.50212
29.349403 -58.585707 -12.674948
29.845717 -57.693537 -13.699759
29.734989 -57.334301 -12.518528
28.917427 -59.845176 -12.754357
29.349403 -58.585707 -12.674948
28.806698 -59.485941 -11.573127
28.453876 -61.124899 -12.824336
28.917427 -59.845176 -12.754357
27.98481 -62.376328 -12.925761
28.453876 -61.124899 -12.824336
27.905658 -61.99684 -11.753961
27.517356 -63.620907 -13.159007
27.98481 -62.376328 -12.925761
26.995942 -64.898877 -13.284568
27.517356 -63.620907 -13.159007
26.915177 -64.526238 -11.980948
26.411273 -66.250088 -13.397956
26.995942 -64.898877 -13.284568
25.816659 -67.610897 -13.593768
26.411273 -66.250088 -13.397956
25.799149 -67.165017 -12.30232
25.161414 -69.018383 -13.742095
25.816659 -67.610897 -13.593768
25.161414 -69.018383 -13.742095
24.542615 -69.898278 -12.611004
24.248541 -66.209896 1.51189
24.751936 -65.091301 1.525936
23.26542 -67.988728 2.675404
22.888038 -68.493233 3.792011
23.69867 -67.410153 1.492865
23.26542 -67.988728 2.675404
23.129793 -68.610489 1.345937
24.112913 -66.831658 0.182423
24.248541 -66.209896 1.51189
23.69867 -67.410153 1.492865
20.92915 -72.593636 2.000421
21.068388 -71.959934 3.414312
20.435431 -73.146541 3.15604
21.348096 -72.172149 0.869702
20.92915 -72.593636 2.000421
20.715139 -73.358757 0.61143
23.263361 -72.12402 -11.58471
23.933481 -70.772438 -11.464196
23.316147 -71.625729 -10.32503
23.263361 -72.12402 -11.58471
22.580989 -73.49073 -11.83755
34.654743 -37.330642 -12.984794
34.882845 -36.606549 -13.255211
34.882845 -36.606549 -13.255211
34.999204 -36.197611 -14.039678
34.71735 -37.23113 -14.283099
34.867178 -36.684424 -14.282743
34.645216 -37.404331 -13.649815
34.794131 -37.155501 -15.049302
34.71735 -37.23113 -14.283099
34.572169 -37.875408 -14.416376
34.91874 -36.921839 -15.874576
34.794131 -37.155501 -15.049302
35.039655 -36.81221 -16.66433
34.91874 -36.921839 -15.874576
34.769865 -37.69015 -15.972333
35.177286 -36.63246 -17.459134
35.039655 -36.81221 -16.66433
35.177286 -36.63246 -17.459134
35.069328 -37.419565 -17.659279
35.137224 -38.125093 -18.690465
34.932467 -38.250016 -17.764885
34.821815 -39.116499 -17.898879
35.137224 -38.125093 -18.690465
35.374056 -37.847263 -19.648963
35.738577 -41.590423 -23.222501
35.443371 -41.708706 -22.117863
35.353243 -42.811706 -22.371223
35.738577 -41.590423 -23.222501
36.033943 -41.42799 -24.326431
31.977559 -57.803463 -29.734561
32.101901 -57.583446 -28.602797
32.591429 -56.347494 -30.668157
31.977559 -57.803463 -29.734561
33.140114 -54.97216 -31.537434
33.266062 -54.820894 -30.420528
32.591429 -56.347494 -30.668157
33.730818 -53.441774 -32.333665
33.140114 -54.97216 -31.537434
34.257084 -51.953437 -33.239576
34.341013 -51.957223 -32.195717
33.730818 -53.441774 -32.333665
34.779841 -50.343694 -34.215479
34.257084 -51.953437 -33.239576
35.397819 -48.762294 -34.003746
34.779841 -50.343694 -34.215479
3 0 149 150
3 1 40 38
3 2 43 41
3 2 44 43
3 5 47 45
3 5 49 47
3 151 51 152
3 6 54 52
3 6 56 54
3 6 58 56
3 7 61 59
3 7 63 61
3 8 153 154
3 8 155 157
3 155 64 156
3 155 156 157
3 8 66 64
3 158 69 159
3 160 159 67
3 158 159 160
3 162 161 69
3 4 73 71
3 9 76 74
3 9 163 165
3 165 164 76
3 163 164 165
3 3 79 77
3 10 166 167
3 10 168 170
3 168 81 169
3 168 169 170
3 12 171 173
3 171 83 172
3 171 172 173
3 12 84 83
3 12 86 84
3 14 87 37
3 14 88 87
3 16 91 89
3 18 92 39
3 18 93 92
3 19 96 94
3 21 97 42
3 21 174 176
3 176 175 97
3 174 175 176
3 21 177 178
3 22 100 98
3 179 101 180
3 181 102 182
3 183 182 101
3 181 182 183
3 184 103 185
3 186 104 187
3 188 187 103
3 186 187 188
3 189 105 190
3 191 106 192
3 193 192 105
3 191 192 193
3 194 108 195
3 196 109 197
3 198 110 199
3 200 199 109
3 198 199 200
3 25 111 46
3 25 112 111
3 25 113 112
3 26 114 48
3 26 115 114
3 27 116 50
3 27 117 116
3 11 118 82
3 28 119 53
3 28 120 119
3 28 121 120
3 29 122 55
3 29 123 122
3 29 124 123
3 30 125 57
3 30 126 125
3 13 127 85
3 31 128 60
3 31 129 128
3 31 130 129
3 32 131 62
3 32 201 203
3 203 202 131
3 201 202 203
3 33 132 65
3 33 133 132
3 15 204 206
3 204 134 205
3 204 205 206
3 34 135 68
3 34 136 135
3 34 137 136
3 207 138 208
3 209 208 70
3 207 208 209
3 211 210 138
3 24 139 107
3 35 140 72
3 35 212 214
3 214 213 140
3 212 213 214
3 17 141 90
3 215 142 216
3 217 216 75
3 215 216 217
3 219 218 142
3 23 143 99
3 36 144 78
3 36 145 144
3 20 146 95
3 220 147 221
3 222 221 80
3 220 221 222
3 223 148 224
3 225 224 147
3 223 224 225
3 227 226 148
3 228 10 229
3 230 12 231
3 232 37 233
3 234 233 12
3 232 233 234
3 235 37 236
3 237 14 238
3 239 238 37
3 237 238 239
3 38 39 16
3 40 39 38
3 40 18 39
3 41 42 19
3 43 42 41
3 43 21 42
3 43 240 242
3 242 241 21
3 240 241 242
3 44 243 245
3 245 244 43
3 243 244 245
3 44 246 247
3 249 248 22
3 45 250 252
3 250 46 251
3 250 251 252
3 47 46 45
3 47 25 46
3 47 48 25
3 49 48 47
3 49 26 48
3 253 50 254
3 51 255 257
3 255 50 256
3 255 256 257
3 51 27 50
3 52 53 11
3 54 53 52
3 54 28 53
3 54 55 28
3 56 55 54
3 56 29 55
3 56 57 29
3 58 57 56
3 58 30 57
3 59 60 13
3 61 60 59
3 61 31 60
3 61 62 31
3 63 62 61
3 63 32 62
3 64 258 259
3 64 260 261
3 64 262 264
3 262 65 263
3 262 263 264
3 66 65 64
3 66 33 65
3 67 68 15
3 69 68 67
3 69 34 68
3 69 70 34
3 265 70 266
3 267 266 69
3 265 266 267
3 269 268 70
3 71 72 24
3 73 72 71
3 73 35 72
3 74 75 17
3 76 75 74
3 76 270 272
3 272 271 75
3 270 271 272
3 76 273 274
3 276 275 76
3 77 78 23
3 79 78 77
3 79 36 78
3 277 80 278
3 279 278 20
3 277 278 279
3 280 80 281
3 283 282 80
3 284 45 285
3 81 286 288
3 286 45 287
3 286 287 288
3 81 5 45
3 289 82 290
3 291 82 292
3 293 11 294
3 295 294 82
3 293 294 295
3 83 296 297
3 83 298 300
3 298 11 299
3 298 299 300
3 83 52 11
3 84 52 83
3 84 6 52
3 84 85 6
3 86 85 84
3 86 13 85
3 37 86 12
3 87 86 37
3 87 13 86
3 87 59 13
3 88 59 87
3 88 7 59
3 301 8 302
3 304 303 8
3 305 15 306
3 307 15 308
3 309 67 310
3 311 310 15
3 309 310 311
3 312 67 313
3 315 314 67
3 89 90 4
3 91 90 89
3 91 17 90
3 39 91 16
3 92 91 39
3 92 17 91
3 92 74 17
3 93 74 92
3 93 9 74
3 94 95 3
3 96 95 94
3 96 20 95
3 42 96 19
3 97 96 42
3 97 20 96
3 97 316 318
3 318 317 20
3 316 317 318
3 320 319 97
3 322 321 21
3 98 99 1
3 100 99 98
3 100 23 99
3 323 100 324
3 325 324 22
3 323 324 325
3 101 326 328
3 326 100 327
3 326 327 328
3 101 23 100
3 101 77 23
3 102 77 101
3 102 3 77
3 329 102 330
3 103 331 333
3 331 102 332
3 331 332 333
3 103 3 102
3 103 94 3
3 104 94 103
3 104 19 94
3 334 104 335
3 105 336 338
3 336 104 337
3 336 337 338
3 105 19 104
3 105 41 19
3 106 41 105
3 106 2 41
3 339 107 340
3 341 340 0
3 339 340 341
3 108 342 344
3 342 107 343
3 342 343 344
3 108 24 107
3 345 108 346
3 109 347 349
3 347 108 348
3 347 348 349
3 109 24 108
3 109 71 24
3 110 71 109
3 110 4 71
3 46 350 351
3 111 352 354
3 354 353 46
3 352 353 354
3 111 355 356
3 111 357 359
3 357 110 358
3 357 358 359
3 112 110 111
3 112 4 110
3 112 89 4
3 113 89 112
3 113 16 89
3 48 113 25
3 114 113 48
3 114 16 113
3 114 38 16
3 115 38 114
3 115 1 38
3 360 10 361
3 50 362 363
3 116 364 366
3 366 365 50
3 364 365 366
3 116 367 369
3 367 10 368
3 367 368 369
3 116 81 10
3 117 81 116
3 117 5 81
3 82 370 372
3 370 51 371
3 370 371 372
3 118 51 82
3 118 27 51
3 53 118 11
3 119 118 53
3 119 27 118
3 119 117 27
3 120 117 119
3 120 5 117
3 120 49 5
3 121 49 120
3 121 26 49
3 55 121 28
3 122 121 55
3 122 26 121
3 122 115 26
3 123 115 122
3 123 1 115
3 123 98 1
3 124 98 123
3 124 22 98
3 57 124 29
3 125 124 57
3 125 22 124
3 125 373 375
3 375 374 22
3 373 374 375
3 126 376 378
3 378 377 125
3 376 377 378
3 126 379 380
3 85 58 6
3 127 58 85
3 127 30 58
3 60 127 13
3 128 127 60
3 128 30 127
3 128 126 30
3 129 126 128
3 129 381 383
3 383 382 126
3 381 382 383
3 129 384 385
3 130 386 388
3 388 387 129
3 386 387 388
3 130 389 390
3 62 130 31
3 131 130 62
3 131 391 393
3 393 392 130
3 391 392 393
3 131 394 395
3 397 396 131
3 398 14 399
3 65 400 401
3 132 402 404
3 404 403 65
3 402 403 404
3 132 405 407
3 405 14 406
3 405 406 407
3 132 88 14
3 133 88 132
3 133 7 88
3 408 66 409
3 410 409 8
3 408 409 410
3 134 411 413
3 411 66 412
3 411 412 413
3 134 33 66
3 68 134 15
3 135 134 68
3 135 33 134
3 135 133 33
3 136 133 135
3 136 7 133
3 136 63 7
3 137 63 136
3 137 32 63
3 70 137 34
3 138 137 70
3 138 32 137
3 138 414 416
3 416 415 32
3 414 415 416
3 418 417 138
3 419 0 420
3 421 0 422
3 107 423 425
3 425 424 0
3 423 424 425
3 139 426 428
3 428 427 107
3 426 427 428
3 139 429 430
3 72 139 24
3 140 139 72
3 140 431 433
3 433 432 139
3 431 432 433
3 140 434 435
3 437 436 140
3 90 73 4
3 141 73 90
3 141 35 73
3 75 141 17
3 142 141 75
3 142 35 141
3 142 438 440
3 440 439 35
3 438 439 440
3 442 441 142
3 99 40 1
3 143 40 99
3 143 18 40
3 78 143 23
3 144 143 78
3 144 18 143
3 144 93 18
3 145 93 144
3 145 9 93
3 95 79 3
3 146 79 95
3 146 36 79
3 80 146 20
3 147 146 80
3 147 36 146
3 147 145 36
3 148 145 147
3 148 9 145
3 148 443 445
3 445 444 9
3 443 444 445
3 447 446 148
3 448 106 449
3 450 106 451
3 452 2 453
3 454 453 106
3 452 453 454
3 455 2 456
3 457 44 458
3 459 458 2
3 457 458 459
3 460 44 461
3 463 462 44
