ply
format ascii 1.0
element vertex 635
property float x
property float y
property float z
element face 753
property list uchar int vertex_index
end_header
17.062969 105.305801 -0.575343
-1.238522 98.245697 -6.819683
12.588191 105.789536 -27.833925
-8.816068 78.96788 13.594213
-17.404055 80.443306 -5.76663
8.411523 103.935837 -5.295657
-1.356327 86.498276 13.510772
-5.845136 89.410683 3.454483
21.892311 105.857269 -24.42738
19.729342 100.79081 -36.641636
-14.229426 88.202614 -16.397032
-5.166464 97.577583 -17.938803
1.44423 100.907555 -28.542181
5.280593 104.559265 -17.699146
15.134345 107.876694 -15.206799
-18.926823 70.604568 3.840284
-13.478993 80.568687 3.90679
-10.268914 90.251869 -6.762197
0.439478 91.46373 8.83088
20.35747 106.472404 -5.498381
-3.058753 98.472717 -12.488165
-0.068096 101.372604 -17.994732
1.902848 101.947395 -12.238676
12.884407 105.233406 -3.281443
11.842654 106.533417 -9.919051
16.247776 107.174866 -7.996902
19.636169 107.620972 -12.664471
-12.183507 74.567581 13.566277
-14.350509 75.378815 8.80468
-11.219787 79.803566 8.980708
-3.719533 93.989616 -1.438025
-8.092038 90.160362 -1.751182
-5.889757 94.488991 -6.922797
-7.972806 94.286812 -12.374844
7.092803 103.794754 -28.62331
5.247106 100.621185 -33.545586
11.170377 102.871704 -33.568802
-18.380177 75.601257 -0.814751
0.738994 97.389542 -1.089141
3.489361 101.404915 -6.326842
-5.136065 83.063683 13.382799
-7.492592 84.265625 8.705955
-3.648046 88.138855 8.493389
-1.742771 92.876678 3.718219
17.612066 106.482368 -26.575649
16.391996 104.017227 -32.65955
20.844637 103.924156 -31.065535
-16.042833 84.701599 -11.064426
-3.750025 97.448509 -27.959652
-1.883642 99.942245 -23.337965
3.362089 103.244049 -23.393318
8.792567 105.853737 -22.905666
6.984588 104.742287 -11.446501
10.54855 106.822289 -16.619987
13.905029 107.424782 -21.618961
18.616478 107.674088 -19.998938
-19.37941 65.467125 7.841538
-17.036226 70.457016 8.570286
-16.426048 75.67144 4.099341
-15.516346 80.815224 -0.942544
-9.794367 85.288223 3.641474
-12.149324 85.521606 -1.226156
-14.263101 85.347298 -6.130548
-12.406383 89.59362 -11.75801
-10.015993 93.122688 -17.214546
-0.051842 97.705978 -33.101227
14.928373 100.281105 -37.932785
-20.726587 60.261856 9.073582
18.659054 106.141281 -3.167251
-2.125009 98.48909 -9.705277
-0.712253 100.206894 -12.430669
0.29399 100.197754 -9.470554
15.03947 105.404953 -1.896761
14.575011 106.348656 -5.514352
16.72995 106.406319 -4.367941
18.44463 107.002647 -6.776042
-10.543666 76.75531 13.688595
-11.771672 77.12442 11.354138
-10.037725 79.383888 11.344782
-2.516292 96.220543 -4.153698
-4.859214 94.26622 -4.154461
-3.596316 96.393684 -6.823238
-4.594728 96.513161 -9.66145
9.803625 104.900963 -28.323803
9.071972 103.503822 -31.185469
11.865109 104.496346 -30.763054
-17.989077 78.022072 -3.317284
1.703526 96.785629 1.616633
3.112203 99.089844 -1.026867
-3.295361 84.898491 13.294837
-4.426321 85.598259 11.003052
-2.486033 87.403915 10.982794
1.423168 93.829361 6.421281
-0.594569 92.165184 6.446232
0.336539 94.423859 3.98792
-0.496335 95.22821 1.330866
19.986107 106.284775 -25.660662
19.385883 105.353096 -28.921421
21.530464 104.929199 -28.01405
-15.059965 86.722534 -13.672577
-6.216718 96.772263 -20.459303
-4.628001 97.885994 -23.178078
-3.622553 98.856285 -20.787525
2.521458 103.016357 -17.794071
1.767259 102.569687 -20.613472
4.430274 104.092789 -20.553782
6.050222 104.63369 -23.321138
6.996816 105.365433 -20.364178
5.932065 102.777 -5.918616
5.15592 103.178726 -8.888484
7.515206 104.336975 -8.348886
13.414931 107.368561 -12.586471
11.055572 106.749619 -13.203153
12.842025 107.477516 -16.048254
12.287004 107.315025 -19.20952
14.787679 107.818268 -18.524023
16.389408 107.693611 -21.168833
16.972057 107.983215 -17.53544
21.545986 106.970299 -11.546319
21.138018 107.266403 -15.293294
-17.314692 67.766129 10.619112
-16.03356 70.14019 11.066213
-13.960202 77.878494 6.553362
-15.464056 75.539444 6.372009
-15.016711 78.169014 4.021979
-16.053892 78.252274 1.573659
-14.510001 80.793091 1.438338
-6.75682 86.838791 6.096199
-8.727987 84.715866 6.234512
-7.93691 87.244423 3.651928
-9.292903 90.098412 -4.08612
-10.224376 87.786148 -1.392698
-11.291151 87.947632 -4.019037
-13.192331 85.623749 -3.823788
-12.376511 87.809937 -6.44909
-13.346812 87.592995 -8.863025
-11.366384 89.959152 -9.116126
-6.742817 95.921799 -15.074112
-9.080788 93.735703 -14.842319
-7.642972 95.438034 -17.782761
-8.752362 94.484741 -20.031054
-1.110627 99.300171 -28.346409
-2.042501 97.695381 -30.528759
0.726873 99.462341 -30.915972
7.298891 99.955025 -35.906097
4.478444 98.679283 -35.761742
6.528544 97.620369 -38.219666
17.952484 102.635765 -34.687275
15.484035 102.305481 -35.396034
17.440857 100.708763 -37.343697
-19.212296 67.999542 5.816834
-20.300423 65.405754 5.454865
-20.0445 68.04705 3.524442
0.588178 88.360733 13.307867
-0.591574 88.973686 11.127234
1.375891 90.628204 11.160867
-13.005133 89.847382 -19.110861
-14.8115 87.427322 -18.72315
21.835703 106.403915 -7.751238
-4.247229 98.040581 -15.295433
-2.57043 99.612152 -18.156494
-1.724841 99.971481 -15.334179
0.942195 101.774918 -14.978737
3.573378 103.404945 -14.928534
10.707986 104.767288 -4.481716
10.091319 105.381149 -7.65489
12.475616 106.062828 -6.726413
14.110758 107.042809 -9.195177
15.750998 107.678322 -11.663932
17.473017 107.942818 -14.013098
17.938797 107.598602 -10.290941
20.053936 107.178444 -9.138577
-14.742029 72.673141 11.039263
-13.31117 74.947395 11.22308
-12.779871 77.798431 8.84324
-12.3066 80.43084 6.300754
-4.945193 91.700172 0.922323
-7.095622 89.640976 1.027769
-5.968351 92.065132 -1.545491
-7.100202 92.314774 -4.288916
-8.184419 92.319946 -6.741756
-9.305774 92.222504 -9.509598
-7.085246 94.338135 -9.583746
-5.553524 96.42305 -12.360616
4.208638 102.413971 -28.699276
3.397239 100.948097 -31.1707
6.264174 102.328651 -31.298338
8.225972 101.878937 -33.646107
10.216945 101.115303 -35.806828
-18.720509 73.087997 1.530401
-19.805124 70.604294 1.414076
-19.657835 72.836617 -0.902528
-0.224565 97.895088 -3.886913
1.19871 99.909302 -6.478389
2.015805 99.449287 -3.687173
4.433203 101.009186 -3.502922
-6.924756 81.056648 13.606935
-8.217258 81.646675 11.14152
-6.303894 83.655212 11.145347
-5.670479 86.013107 8.814453
-4.801167 88.712227 6.087492
-1.537338 89.840431 8.742799
-2.656881 90.571968 6.186952
-3.810238 91.255196 3.461417
-2.805229 93.472557 1.078287
-1.566891 95.746933 -1.405931
15.130195 106.283897 -27.345306
14.568471 105.085083 -30.387762
17.048246 105.38475 -29.751913
18.720436 104.106354 -31.989363
20.414314 102.456688 -33.973618
-16.827204 82.567375 -8.34859
-2.837345 98.796211 -25.805704
-0.290463 100.570267 -25.917879
-0.999856 100.756645 -20.881685
0.710434 101.670441 -23.426765
2.437822 102.215584 -26.092787
5.321473 103.714584 -26.216627
7.8895 104.960037 -25.757811
10.675424 106.015945 -25.392666
2.674007 101.760498 -9.2959
4.535974 103.495995 -11.90514
6.078831 104.741547 -14.575558
9.398023 105.727036 -10.643668
8.68903 105.919647 -14.049932
7.895255 105.799881 -17.292286
9.812066 106.532898 -19.799406
11.427188 106.798454 -22.332752
13.227603 106.752792 -24.801723
15.770249 107.161621 -24.186796
18.224152 107.200233 -23.473938
20.257277 106.956154 -22.379871
19.103346 107.818481 -16.242113
20.690374 107.262383 -18.962648
-19.648514 62.690746 9.725365
-18.454214 65.419121 10.182817
-18.271191 68.019882 8.142931
-18.094088 70.410156 6.152202
-15.79103 72.959892 8.619195
-16.836473 72.961288 6.344156
-17.711185 73.206223 4.005167
-17.461275 75.620483 1.661041
-17.055504 78.129333 -0.772265
-16.541508 80.628731 -3.382732
-9.450929 82.142036 8.704691
-10.582528 82.582207 6.307483
-11.649879 83.06958 3.745895
-9.048421 87.701782 1.001194
-10.918272 85.498833 1.289219
-12.778604 83.232353 1.328067
-13.879245 83.254913 -1.07785
-14.934045 83.131546 -3.455997
-15.906651 82.933846 -5.89324
-15.218306 85.109543 -8.712429
-14.229665 87.305679 -11.434115
-13.271132 89.146286 -14.324279
-10.285757 91.943306 -11.97864
-11.221808 91.511009 -14.537437
-12.174157 90.764694 -16.807575
-10.907909 92.284859 -19.553406
-7.632069 78.2118 16.042938
-5.867499 80.24575 15.890703
-4.005965 82.185776 15.79767
2.598469 99.2202 -33.460999
13.799642 103.601845 -33.165607
12.985301 101.749649 -35.839367
12.10609 99.773903 -38.056664
-20.480145 62.999729 7.23628
-20.289038 60.160992 10.342227
-20.848569 58.929821 9.953205
18.017656 105.107796 0.085716
18.815698 105.525536 -1.210238
17.861012 105.723541 -1.871297
-18.065261 79.196453 -5.75729
-18.357772 77.985836 -4.532617
-17.696566 79.232689 -4.541957
2.72809 97.434399 1.814214
2.124376 96.350311 3.000541
1.440883 95.169426 4.186184
0.879853 94.12661 5.2046
1.984197 94.872177 5.402865
2.124376 96.350311 3.000541
1.020033 95.604744 2.802277
1.440883 95.169426 4.186184
-15.064529 86.996357 -16.192592
-15.479799 86.256317 -14.830365
-14.644696 87.462574 -15.034804
22.258243 106.66932 -12.725993
22.414907 106.451352 -10.801463
-15.516831 70.019565 12.231365
-16.183211 68.819282 12.048303
7.926672 98.259537 -38.172534
6.913718 98.787697 -37.062882
8.311846 99.426865 -37.015749
7.547329 97.093776 -39.16972
7.926672 98.259537 -38.172534
1.874026 90.210018 12.281743
0.982034 89.494468 12.234367
1.48017 89.076282 13.355242
-13.314442 89.327938 -20.224373
-12.315519 90.571759 -20.501797
21.208195 105.981915 -4.559665
21.947311 105.94767 -5.686093
21.096587 106.438159 -6.624809
-12.747339 74.757488 12.394678
-13.487358 73.520694 12.442158
-12.923527 73.330787 13.613757
4.877091 100.658333 -1.964542
3.772703 100.049515 -2.264895
4.216591 99.698662 -0.726515
5.624577 101.62164 -3.192063
4.877091 100.658333 -1.964542
-16.829073 83.390972 -10.924613
-17.221259 82.32386 -9.566695
-16.435018 83.634487 -9.706508
-15.63891 86.126937 -18.348978
-15.129494 86.788452 -19.652763
21.64962 106.885151 -18.262238
20.914196 107.264393 -17.127971
21.873442 106.887161 -16.42756
21.534759 106.760331 -20.027299
21.64962 106.885151 -18.262238
-18.014605 65.149617 11.472865
-18.599756 64.054163 11.096583
-9.132499 94.025131 -21.222386
-8.012576 95.087219 -21.390934
-7.041676 77.857307 17.169571
-7.946341 76.801212 17.193593
-6.15939 78.874282 17.093453
-6.749784 79.228775 15.966821
-7.041676 77.857307 17.169571
-3.315567 81.81099 17.002274
-4.30816 80.876308 16.967824
-3.073336 83.086125 15.772787
-3.315567 81.81099 17.002274
-4.204092 96.614857 -29.011934
-5.006383 96.424484 -27.811051
-1.450969 96.792072 -32.839274
-2.446298 96.786773 -31.55304
-1.047172 97.70068 -31.814993
-0.517582 96.678264 -34.033566
-1.450969 96.792072 -32.839274
3.117726 97.938438 -35.651619
4.150842 97.620754 -36.764363
-20.84374 64.070086 5.184311
-20.717213 65.404572 4.254169
-20.368113 69.214519 1.268134
-20.236587 70.414417 0.288883
-21.242302 58.970934 8.791096
-20.848569 58.929821 9.953205
-21.112949 60.314923 7.936167
-21.242302 58.970934 8.791096
19.542426 105.821217 -2.423871
20.391634 105.986778 -3.589437
19.508262 106.306843 -4.332816
19.542426 105.821217 -2.423871
18.815698 105.525536 -1.210238
-18.613715 76.694172 -3.241367
-18.809264 75.483765 -1.990101
-18.184627 76.811665 -2.066018
-18.613715 76.694172 -3.241367
-18.357772 77.985836 -4.532617
3.432428 98.586506 0.492464
2.407865 97.937736 0.294883
2.72809 97.434399 1.814214
4.216591 99.698662 -0.726515
3.432428 98.586506 0.492464
-15.90877 85.41793 -13.491988
-16.400205 84.407463 -12.187912
-15.551399 85.712066 -12.368502
-15.90877 85.41793 -13.491988
-15.479799 86.256317 -14.830365
-5.42236 97.329128 -21.81869
-5.950395 96.787846 -22.964446
-6.744753 96.23098 -21.605058
22.054258 106.817372 -14.59948
21.342002 107.118351 -13.419806
22.258243 106.66932 -12.725993
21.873442 106.887161 -16.42756
22.054258 106.817372 -14.59948
-16.823777 67.632252 11.824752
-17.444844 66.323121 11.691012
-16.674126 68.953159 10.842662
-16.823777 67.632252 11.824752
-16.183211 68.819282 12.048303
-6.744753 96.23098 -21.605058
-8.012576 95.087219 -21.390934
-7.48454 95.628502 -20.245179
5.175892 97.091297 -37.993324
4.150842 97.620754 -36.764363
5.503494 98.149826 -36.990704
6.097518 96.471405 -39.08424
5.175892 97.091297 -37.993324
6.097518 96.471405 -39.08424
7.547329 97.093776 -39.16972
-20.589251 66.72522 3.288957
-20.717213 65.404572 4.254169
-20.172461 66.726402 4.489654
2.272755 91.338256 11.19423
1.874026 90.210018 12.281743
1.866866 91.834388 9.990315
2.272755 91.338256 11.19423
1.398659 92.252151 8.825322
0.907685 91.045967 9.995874
1.866866 91.834388 9.990315
1.890505 93.434967 7.620522
0.931323 92.646546 7.626081
1.398659 92.252151 8.825322
2.439874 94.484905 6.637448
1.890505 93.434967 7.620522
1.984197 94.872177 5.402865
2.439874 94.484905 6.637448
22.652401 105.071045 -25.571422
22.821786 105.403225 -23.910725
-14.217625 88.117908 -20.030518
-13.908317 88.637352 -18.917006
-13.314442 89.327938 -20.224373
-15.129494 86.788452 -19.652763
-14.217625 88.117908 -20.030518
22.60436 105.861282 -6.938782
22.559765 106.16816 -8.903923
22.60436 105.861282 -6.938782
21.947311 105.94767 -5.686093
21.208195 105.981915 -4.559665
20.391634 105.986778 -3.589437
22.559765 106.16816 -8.903923
22.414907 106.451352 -10.801463
21.690844 106.687107 -9.648779
-14.202788 72.383567 12.35025
-14.871066 71.286041 12.21789
-14.026599 73.810268 11.131172
-14.202788 72.383567 12.35025
-13.487358 73.520694 12.442158
9.770872 100.007004 -36.966115
8.311846 99.426865 -37.015749
8.757918 100.535164 -35.856463
19.470453 99.691421 -37.951889
20.529648 99.643425 -37.580284
-20.162943 71.530579 -0.869419
-20.236587 70.414417 0.288883
-19.731479 71.720455 0.255774
-19.448093 74.101444 -2.03399
-19.019006 74.218937 -0.858639
-18.809264 75.483765 -1.990101
-20.048995 72.689625 -2.051506
-19.448093 74.101444 -2.03399
-20.162943 71.530579 -0.869419
-20.048995 72.689625 -2.051506
17.180833 104.677445 1.141253
16.205274 104.786544 0.438132
6.374008 102.505547 -4.39991
5.182634 101.893093 -4.710769
5.624577 101.62164 -3.192063
7.613737 103.084965 -4.088431
7.171794 103.356419 -5.607137
6.374008 102.505547 -4.39991
8.753891 103.548676 -3.658632
7.613737 103.084965 -4.088431
9.902123 103.964401 -3.251661
9.559755 104.351562 -4.888687
8.753891 103.548676 -3.658632
11.025546 104.334556 -2.813842
9.902123 103.964401 -3.251661
12.113757 104.567616 -2.213706
11.796197 105.000347 -3.881579
11.025546 104.334556 -2.813842
13.123012 104.722859 -1.585897
12.113757 104.567616 -2.213706
14.200544 104.808632 -0.893555
13.961938 105.31918 -2.589102
13.123012 104.722859 -1.585897
15.193524 104.83612 -0.222576
14.200544 104.808632 -0.893555
16.205274 104.786544 0.438132
16.051219 105.355377 -1.236052
15.193524 104.83612 -0.222576
22.471477 104.60701 -27.364757
21.711388 105.393234 -26.220715
22.652401 105.071045 -25.571422
22.247785 104.106346 -29.045828
22.471477 104.60701 -27.364757
21.904871 103.603825 -30.57157
21.187551 104.426677 -29.539793
22.247785 104.106346 -29.045828
21.675536 102.972717 -32.05301
21.904871 103.603825 -30.57157
21.460375 102.238983 -33.507052
20.629475 103.190422 -32.519576
21.675536 102.972717 -32.05301
21.191825 101.342568 -35.048077
21.460375 102.238983 -33.507052
20.849339 100.509628 -36.382086
20.071828 101.623749 -35.307627
21.191825 101.342568 -35.048077
20.529648 99.643425 -37.580284
20.849339 100.509628 -36.382086
-17.494239 81.372402 -8.260841
-17.782664 80.310368 -6.969861
-17.115629 81.505341 -7.05761
-17.494239 81.372402 -8.260841
-17.221259 82.32386 -9.566695
-16.829073 83.390972 -10.924613
-16.400205 84.407463 -12.187912
-15.355567 86.608711 -17.355652
-15.064529 86.996357 -16.192592
-14.520463 87.814968 -17.560091
-15.355567 86.608711 -17.355652
-15.63891 86.126937 -18.348978
18.017656 105.107796 0.085716
17.180833 104.677445 1.141253
-4.674433 97.059948 -26.703965
-5.006383 96.424484 -27.811051
-5.113421 97.27869 -24.313178
-5.950395 96.787846 -22.964446
-4.218093 97.733799 -25.626991
-5.113421 97.27869 -24.313178
-3.732673 98.341103 -24.491891
-3.293685 98.12236 -26.882678
-4.674433 97.059948 -26.703965
-4.218093 97.733799 -25.626991
21.318211 106.607216 -21.73591
20.473825 107.109268 -20.67126
21.534759 106.760331 -20.027299
22.135728 106.057773 -22.759664
21.074794 106.406712 -23.403626
21.318211 106.607216 -21.73591
22.821786 105.403225 -23.910725
22.135728 106.057773 -22.759664
-19.196906 62.689976 10.867857
-19.750002 61.375436 10.668119
-19.051364 64.054934 9.954091
-19.196906 62.689976 10.867857
-18.599756 64.054163 11.096583
-17.884453 66.592625 10.400965
-18.014605 65.149617 11.472865
-17.444844 66.323121 11.691012
-15.387795 71.406666 11.052738
-15.516831 70.019565 12.231365
-14.871066 71.286041 12.21789
-11.266907 91.790497 -20.72307
-12.315519 90.571759 -20.501797
-11.956521 91.06612 -19.332133
-10.210272 92.92519 -20.983562
-9.830136 93.3848 -19.79223
-9.132499 94.025131 -21.222386
-11.266907 91.790497 -20.72307
-10.210272 92.92519 -20.983562
-12.340013 73.202526 14.746966
-12.923527 73.330787 13.613757
-11.59325 74.276336 14.802956
-12.340013 73.202526 14.746966
-10.773329 75.370201 14.864115
-11.363587 75.661445 13.627436
-11.59325 74.276336 14.802956
-9.944986 76.488018 14.844534
-10.773329 75.370201 14.864115
-9.081187 77.594303 14.797343
-9.679867 77.861595 13.641404
-9.944986 76.488018 14.844534
-8.489187 77.216263 16.021705
-7.946341 76.801212 17.193593
-8.224068 78.58984 14.818575
-9.081187 77.594303 14.797343
-8.489187 77.216263 16.021705
-5.238927 79.906295 17.01434
-6.15939 78.874282 17.093453
-4.936732 81.215763 15.844186
-5.238927 79.906295 17.01434
-4.30816 80.876308 16.967824
-2.718034 84.442482 14.521371
-3.650663 83.542134 14.546253
-3.073336 83.086125 15.772787
-1.748518 85.242375 14.629338
-2.325844 85.698384 13.402804
-2.718034 84.442482 14.521371
-0.742997 86.205143 14.556836
-1.748518 85.242375 14.629338
0.229256 87.136371 14.455383
-0.384075 87.429505 13.409319
-0.742997 86.205143 14.556836
1.127528 87.972904 14.375628
0.229256 87.136371 14.455383
1.48017 89.076282 13.355242
1.127528 87.972904 14.375628
-3.350329 96.738293 -30.296488
-4.204092 96.614857 -29.011934
-2.896263 97.571945 -29.244205
-3.350329 96.738293 -30.296488
-2.446298 96.786773 -31.55304
2.177739 98.208897 -34.501248
3.538456 98.949742 -34.61137
3.117726 97.938438 -35.651619
0.852584 97.451786 -34.321362
1.273313 98.463089 -33.281113
2.177739 98.208897 -34.501248
-0.517582 96.678264 -34.033566
0.852584 97.451786 -34.321362
10.715445 99.336304 -38.091032
9.770872 100.007004 -36.966115
11.161518 100.444603 -36.931746
18.326211 99.650398 -38.30292
18.585099 100.749786 -36.992666
19.470453 99.691421 -37.951889
17.050693 99.593502 -38.573752
18.326211 99.650398 -38.30292
15.79445 99.379673 -38.868296
16.184615 100.494934 -37.638241
17.050693 99.593502 -38.573752
14.495885 99.208427 -38.995838
15.79445 99.379673 -38.868296
13.084744 98.954826 -39.057778
13.517232 100.027504 -37.994725
14.495885 99.208427 -38.995838
11.726869 98.519337 -39.210831
13.084744 98.954826 -39.057778
10.715445 99.336304 -38.091032
11.726869 98.519337 -39.210831
-20.187551 61.476301 9.399473
-20.289038 60.160992 10.342227
-19.750002 61.375436 10.668119
-20.989728 61.683859 7.017516
-21.112949 60.314923 7.936167
-20.603366 61.630792 8.154931
-20.933602 62.867073 6.075019
-20.390284 64.202742 6.345572
-20.84374 64.070086 5.184311
-20.989728 61.683859 7.017516
-20.933602 62.867073 6.075019
-20.4878 67.935897 2.323317
-19.924812 69.325672 2.469259
-20.368113 69.214519 1.268134
-20.589251 66.72522 3.288957
-20.4878 67.935897 2.323317
-18.065261 79.196453 -5.75729
-17.782664 80.310368 -6.969861
3 268 67 269
3 0 270 272
3 272 271 68
3 270 271 272
3 1 71 69
3 0 74 72
3 0 68 74
3 3 78 76
3 1 81 79
3 1 69 81
3 2 85 83
3 4 273 275
3 275 274 86
3 273 274 275
3 277 276 87
3 6 91 89
3 278 94 279
3 280 279 92
3 278 279 280
3 281 87 282
3 283 282 94
3 281 282 283
3 8 98 96
3 10 284 286
3 286 285 99
3 284 285 286
3 11 102 100
3 13 105 103
3 13 107 105
3 5 110 108
3 14 113 111
3 14 115 113
3 14 117 115
3 288 287 118
3 289 121 290
3 16 124 122
3 16 126 124
3 7 129 127
3 17 132 130
3 17 134 132
3 17 136 134
3 11 139 137
3 11 100 139
3 12 143 141
3 291 146 292
3 293 292 144
3 291 292 293
3 295 294 146
3 9 149 147
3 15 152 150
3 296 155 297
3 298 297 153
3 296 297 298
3 300 299 156
3 19 301 303
3 303 302 158
3 301 302 303
3 20 161 159
3 22 162 70
3 22 163 162
3 23 166 164
3 25 167 73
3 25 168 167
3 25 170 168
3 19 171 75
3 19 158 171
3 27 304 306
3 304 173 305
3 304 305 306
3 29 174 77
3 29 175 174
3 30 178 176
3 32 179 80
3 32 180 179
3 32 182 180
3 20 183 82
3 20 159 183
3 34 186 184
3 36 187 84
3 36 188 187
3 37 191 189
3 38 194 192
3 307 195 308
3 309 308 88
3 307 308 309
3 311 310 195
3 40 198 196
3 42 199 90
3 42 200 199
3 18 201 154
3 43 202 93
3 43 203 202
3 43 204 203
3 38 205 95
3 38 192 205
3 44 208 206
3 46 209 97
3 46 210 209
3 47 312 314
3 314 313 211
3 312 313 314
3 316 315 157
3 49 212 101
3 49 213 212
3 21 214 160
3 50 215 104
3 50 216 215
3 50 217 216
3 51 218 106
3 51 219 218
3 39 220 193
3 52 221 109
3 52 222 221
3 24 223 165
3 53 224 112
3 53 225 224
3 53 226 225
3 54 227 114
3 54 228 227
3 54 229 228
3 55 230 116
3 55 231 230
3 26 232 169
3 317 233 318
3 319 318 119
3 317 318 319
3 321 320 233
3 322 235 323
3 57 236 120
3 57 237 236
3 28 238 172
3 58 239 123
3 58 240 239
3 58 241 240
3 59 242 125
3 59 243 242
3 41 244 197
3 60 245 128
3 60 246 245
3 31 247 177
3 61 248 131
3 61 249 248
3 61 250 249
3 62 251 133
3 62 252 251
3 62 253 252
3 63 254 135
3 63 255 254
3 33 256 181
3 64 257 138
3 64 258 257
3 64 259 258
3 325 324 140
3 326 260 327
3 328 261 329
3 330 329 260
3 328 329 330
3 331 262 332
3 334 333 262
3 48 335 336
3 65 337 339
3 339 338 142
3 337 338 339
3 65 340 341
3 35 263 185
3 343 342 145
3 45 264 207
3 66 265 148
3 66 266 265
3 56 267 234
3 345 344 151
3 347 346 190
3 67 348 349
3 67 350 351
3 68 352 354
3 354 353 19
3 352 353 354
3 356 355 68
3 69 70 20
3 71 70 69
3 71 22 70
3 72 73 23
3 74 73 72
3 74 25 73
3 74 75 25
3 68 75 74
3 68 19 75
3 76 77 27
3 78 77 76
3 78 29 77
3 79 80 30
3 81 80 79
3 81 32 80
3 81 82 32
3 69 82 81
3 69 20 82
3 83 84 34
3 85 84 83
3 85 36 84
3 86 357 359
3 359 358 37
3 357 358 359
3 361 360 86
3 87 88 38
3 362 88 363
3 364 363 87
3 362 363 364
3 366 365 88
3 89 90 40
3 91 90 89
3 91 42 90
3 92 93 18
3 94 93 92
3 94 43 93
3 94 95 43
3 87 95 94
3 87 38 95
3 96 97 44
3 98 97 96
3 98 46 97
3 99 367 369
3 369 368 47
3 367 368 369
3 371 370 99
3 100 372 374
3 372 101 373
3 372 373 374
3 102 101 100
3 102 49 101
3 103 104 21
3 105 104 103
3 105 50 104
3 105 106 50
3 107 106 105
3 107 51 106
3 108 109 39
3 110 109 108
3 110 52 109
3 111 112 24
3 113 112 111
3 113 53 112
3 113 114 53
3 115 114 113
3 115 54 114
3 115 116 54
3 117 116 115
3 117 55 116
3 118 119 26
3 375 119 376
3 377 376 118
3 375 376 377
3 379 378 119
3 380 120 381
3 121 382 384
3 382 120 383
3 382 383 384
3 121 57 120
3 122 123 28
3 124 123 122
3 124 58 123
3 124 125 58
3 126 125 124
3 126 59 125
3 127 128 41
3 129 128 127
3 129 60 128
3 130 131 31
3 132 131 130
3 132 61 131
3 132 133 61
3 134 133 132
3 134 62 133
3 134 135 62
3 136 135 134
3 136 63 135
3 137 138 33
3 139 138 137
3 139 64 138
3 139 140 64
3 100 140 139
3 100 385 387
3 387 386 140
3 385 386 387
3 141 142 48
3 143 142 141
3 143 65 142
3 144 145 35
3 146 145 144
3 146 388 390
3 390 389 145
3 388 389 390
3 146 391 392
3 394 393 146
3 147 148 45
3 149 148 147
3 149 66 148
3 150 151 56
3 152 151 150
3 152 395 397
3 397 396 151
3 395 396 397
3 153 154 6
3 155 154 153
3 155 18 154
3 398 155 399
3 400 155 401
3 402 18 403
3 404 403 155
3 402 403 404
3 405 92 406
3 407 406 18
3 405 406 407
3 408 92 409
3 411 410 92
3 413 412 8
3 156 157 10
3 414 157 415
3 416 415 156
3 414 415 416
3 418 417 157
3 158 419 420
3 422 421 158
3 424 423 19
3 159 160 11
3 161 160 159
3 161 21 160
3 70 161 20
3 162 161 70
3 162 21 161
3 162 103 21
3 163 103 162
3 163 13 103
3 164 165 5
3 166 165 164
3 166 24 165
3 73 166 23
3 167 166 73
3 167 24 166
3 167 111 24
3 168 111 167
3 168 14 111
3 168 169 14
3 170 169 168
3 170 26 169
3 75 170 25
3 171 170 75
3 171 26 170
3 171 118 26
3 158 118 171
3 158 425 427
3 427 426 118
3 425 426 427
3 428 172 429
3 173 430 432
3 430 172 431
3 430 431 432
3 173 28 172
3 77 173 27
3 174 173 77
3 174 28 173
3 174 122 28
3 175 122 174
3 175 16 122
3 176 177 7
3 178 177 176
3 178 31 177
3 80 178 30
3 179 178 80
3 179 31 178
3 179 130 31
3 180 130 179
3 180 17 130
3 180 181 17
3 182 181 180
3 182 33 181
3 82 182 32
3 183 182 82
3 183 33 182
3 183 137 33
3 159 137 183
3 159 11 137
3 184 185 12
3 186 185 184
3 186 35 185
3 84 186 34
3 187 186 84
3 187 35 186
3 187 144 35
3 188 144 187
3 188 433 435
3 435 434 144
3 433 434 435
3 437 436 9
3 189 190 15
3 191 190 189
3 191 438 440
3 440 439 190
3 438 439 440
3 441 191 442
3 443 442 37
3 441 442 443
3 444 191 445
3 447 446 191
3 449 448 0
3 192 193 1
3 194 193 192
3 194 39 193
3 88 194 38
3 195 194 88
3 195 39 194
3 195 108 39
3 450 108 451
3 452 451 195
3 450 451 452
3 453 5 454
3 455 454 108
3 453 454 455
3 456 5 457
3 458 164 459
3 460 459 5
3 458 459 460
3 461 164 462
3 463 23 464
3 465 464 164
3 463 464 465
3 466 23 467
3 468 72 469
3 470 469 23
3 468 469 470
3 471 72 472
3 473 0 474
3 475 474 72
3 473 474 475
3 196 197 3
3 198 197 196
3 198 41 197
3 90 198 40
3 199 198 90
3 199 41 198
3 199 127 41
3 200 127 199
3 200 7 127
3 154 91 6
3 201 91 154
3 201 42 91
3 93 201 18
3 202 201 93
3 202 42 201
3 202 200 42
3 203 200 202
3 203 7 200
3 203 176 7
3 204 176 203
3 204 30 176
3 95 204 43
3 205 204 95
3 205 30 204
3 205 79 30
3 192 79 205
3 192 1 79
3 206 207 2
3 208 207 206
3 208 45 207
3 97 208 44
3 209 208 97
3 209 45 208
3 209 147 45
3 210 147 209
3 210 9 147
3 476 98 477
3 478 477 8
3 476 477 478
3 479 98 480
3 481 46 482
3 483 482 98
3 481 482 483
3 484 46 485
3 486 210 487
3 488 487 46
3 486 487 488
3 489 210 490
3 491 9 492
3 493 492 210
3 491 492 493
3 495 494 9
3 211 496 498
3 498 497 4
3 496 497 498
3 500 499 211
3 502 501 47
3 157 503 505
3 505 504 10
3 503 504 505
3 507 506 157
3 509 508 0
3 510 48 511
3 101 512 513
3 212 514 516
3 516 515 101
3 514 515 516
3 212 517 519
3 517 48 518
3 517 518 519
3 212 141 48
3 213 141 212
3 213 12 141
3 160 102 11
3 214 102 160
3 214 49 102
3 104 214 21
3 215 214 104
3 215 49 214
3 215 213 49
3 216 213 215
3 216 12 213
3 216 184 12
3 217 184 216
3 217 34 184
3 106 217 50
3 218 217 106
3 218 34 217
3 218 83 34
3 219 83 218
3 219 2 83
3 193 71 1
3 220 71 193
3 220 22 71
3 109 220 39
3 221 220 109
3 221 22 220
3 221 163 22
3 222 163 221
3 222 13 163
3 165 110 5
3 223 110 165
3 223 52 110
3 112 223 24
3 224 223 112
3 224 52 223
3 224 222 52
3 225 222 224
3 225 13 222
3 225 107 13
3 226 107 225
3 226 51 107
3 114 226 53
3 227 226 114
3 227 51 226
3 227 219 51
3 228 219 227
3 228 2 219
3 228 206 2
3 229 206 228
3 229 44 206
3 116 229 54
3 230 229 116
3 230 44 229
3 230 96 44
3 231 96 230
3 231 8 96
3 169 117 14
3 232 117 169
3 232 55 117
3 119 232 26
3 233 232 119
3 233 55 232
3 233 231 55
3 520 231 521
3 522 521 233
3 520 521 522
3 523 8 524
3 525 524 231
3 523 524 525
3 527 526 8
3 528 234 529
3 235 530 532
3 530 234 531
3 530 531 532
3 235 56 234
3 120 533 535
3 533 235 534
3 533 534 535
3 236 235 120
3 236 56 235
3 236 150 56
3 237 150 236
3 237 15 150
3 172 536 538
3 536 121 537
3 536 537 538
3 238 121 172
3 238 57 121
3 123 238 28
3 239 238 123
3 239 57 238
3 239 237 57
3 240 237 239
3 240 15 237
3 240 189 15
3 241 189 240
3 241 37 189
3 125 241 58
3 242 241 125
3 242 37 241
3 242 86 37
3 243 86 242
3 243 4 86
3 197 78 3
3 244 78 197
3 244 29 78
3 128 244 41
3 245 244 128
3 245 29 244
3 245 175 29
3 246 175 245
3 246 16 175
3 177 129 7
3 247 129 177
3 247 60 129
3 131 247 31
3 248 247 131
3 248 60 247
3 248 246 60
3 249 246 248
3 249 16 246
3 249 126 16
3 250 126 249
3 250 59 126
3 133 250 61
3 251 250 133
3 251 59 250
3 251 243 59
3 252 243 251
3 252 4 243
3 252 211 4
3 253 211 252
3 253 47 211
3 135 253 62
3 254 253 135
3 254 47 253
3 254 99 47
3 255 99 254
3 255 10 99
3 181 136 17
3 256 136 181
3 256 63 136
3 138 256 33
3 257 256 138
3 257 63 256
3 257 255 63
3 258 255 257
3 258 10 255
3 258 156 10
3 259 156 258
3 259 539 541
3 541 540 156
3 539 540 541
3 140 259 64
3 542 259 543
3 544 543 140
3 542 543 544
3 546 545 259
3 547 27 548
3 549 27 550
3 551 76 552
3 553 552 27
3 551 552 553
3 554 76 555
3 556 3 557
3 558 557 76
3 556 557 558
3 260 559 560
3 260 561 563
3 561 3 562
3 561 562 563
3 260 196 3
3 261 196 260
3 261 40 196
3 564 261 565
3 262 566 568
3 566 261 567
3 566 567 568
3 262 40 261
3 262 89 40
3 569 89 570
3 571 570 262
3 569 570 571
3 572 6 573
3 574 573 89
3 572 573 574
3 575 6 576
3 577 153 578
3 579 578 6
3 577 578 579
3 580 153 581
3 583 582 153
3 142 584 586
3 586 585 48
3 584 585 586
3 588 587 142
3 185 143 12
3 263 143 185
3 263 65 143
3 145 263 35
3 589 263 590
3 591 590 145
3 589 590 591
3 592 65 593
3 594 593 263
3 592 593 594
3 596 595 65
3 207 85 2
3 264 85 207
3 264 36 85
3 148 264 45
3 265 264 148
3 265 36 264
3 265 188 36
3 266 188 265
3 266 597 599
3 599 598 188
3 597 598 599
3 600 149 601
3 602 601 9
3 600 601 602
3 603 149 604
3 605 66 606
3 607 606 149
3 605 606 607
3 608 66 609
3 610 266 611
3 612 611 66
3 610 611 612
3 613 266 614
3 616 615 266
3 234 617 619
3 617 67 618
3 617 618 619
3 267 67 234
3 267 620 622
3 622 621 67
3 620 621 622
3 151 267 56
3 623 267 624
3 625 624 151
3 623 624 625
3 627 626 267
3 190 152 15
3 628 152 629
3 630 629 190
3 628 629 630
3 632 631 152
3 634 633 4
