ply
format ascii 1.0
element vertex 380
property float x
property float y
property float z
element face 407
property list uchar int vertex_index
end_header
-8.31771 55.473354 -37.535313
-13.316051 36.363949 -35.584911
-14.550202 26.169161 -19.842663
-10.017678 46.865871 -36.082592
-12.704807 40.438828 -21.537243
-10.309491 55.793217 -31.664524
-14.154989 31.395214 -27.198954
-11.489249 44.129005 -28.53546
-8.984982 51.662094 -36.743618
-8.93571 47.995613 -39.415958
-14.88412 23.433418 -16.638063
-14.313872 28.910019 -23.300066
-12.452987 47.555382 -22.91923
-12.071302 42.363285 -24.894495
-11.580011 49.105259 -26.374393
-10.789449 50.360813 -29.872423
-11.38198 55.44355 -28.254183
-11.487615 41.542786 -35.49815
-10.439343 43.210075 -39.474957
-14.758267 28.065895 -14.86841
-13.977738 30.601898 -17.48362
-13.420637 33.027588 -20.512766
-13.481248 38.18961 -18.552414
-9.247067 56.001606 -34.891094
-16.009592 28.638962 -31.392138
-13.849681 33.982151 -31.40609
-12.987142 35.406891 -23.904795
-12.598077 37.648617 -27.662374
-12.160514 39.632729 -31.681627
-10.87678 45.556858 -32.174492
-9.941852 51.027637 -33.450451
-8.603057 53.853657 -37.120415
-8.456818 52.171177 -38.188198
-8.085259 54.195 -38.482601
-14.432503 33.811165 -35.726913
-14.087134 34.980064 -37.828056
-14.667913 24.926197 -18.144371
-14.43209 27.537416 -21.575338
-12.41248 50.859859 -23.85203
-11.985545 48.271912 -24.674063
-11.9248 51.694824 -25.55138
-11.474218 52.196907 -27.179245
-11.900061 54.910618 -26.570856
-10.702951 44.231075 -35.751167
-11.056221 42.303848 -37.519855
-10.256232 44.763855 -37.676701
-8.195582 48.569675 -41.183437
-8.936642 46.276489 -41.133022
-14.557589 31.872013 -15.358909
-14.336168 29.296797 -16.126179
-14.089011 33.171097 -16.597887
-13.69401 34.360935 -17.905735
-15.140961 28.375967 -27.197815
-16.102434 27.15029 -29.202421
-14.987549 29.965441 -29.308411
-14.826483 31.343603 -31.318218
-13.973822 32.790565 -29.121758
-12.99744 36.742798 -21.007111
-13.169099 34.40115 -22.106884
-12.721889 37.845955 -22.613056
-11.7729 43.236679 -26.778606
-12.242721 39.791214 -26.202906
-11.991109 40.859646 -28.036385
-12.383564 38.709053 -29.627024
-11.729009 41.802876 -30.012817
-11.444731 42.641838 -31.962002
-11.181571 44.964134 -30.371693
-10.539385 53.083946 -30.709732
-10.361786 50.750168 -31.731165
-10.062067 53.429501 -32.453697
-9.599533 53.652729 -34.033096
-9.79201 56.000435 -33.276203
-9.453408 49.429028 -36.335682
-9.540197 47.329403 -37.79604
-8.913242 49.895042 -38.0014
-8.340654 50.296677 -39.55389
-15.170922 26.961756 -25.035849
-14.266035 30.064302 -25.205132
-12.510109 43.87429 -22.249516
-12.387616 41.246075 -23.143606
-12.146056 44.878746 -23.823683
-11.784695 45.678055 -25.576559
-11.446898 46.704472 -27.250359
-11.111233 47.228924 -29.075972
-11.18947 49.643135 -28.10586
-11.029347 52.671524 -28.855457
-10.837894 55.692764 -29.99136
-12.317601 38.992512 -35.639534
-12.942736 37.409317 -37.630112
-11.900513 39.956127 -37.527935
-11.385362 40.809872 -39.515213
-10.721015 41.648434 -41.436886
-9.621359 45.615093 -39.436447
-9.749341 43.958996 -41.310238
-15.524339 22.861252 -13.246079
-15.273086 26.399645 -13.702236
-15.042773 24.304506 -14.480832
-14.694542 25.637678 -15.617998
-14.382858 26.967554 -16.972878
-14.138363 28.22607 -18.481714
-13.93973 29.476204 -20.112247
-13.671797 31.883804 -18.950274
-13.317772 35.478882 -19.463528
-13.058972 39.278133 -20.050997
-12.927786 43.048447 -20.683096
-11.906801 57.967453 -27.65444
-11.330428 58.436722 -29.33025
-10.674875 58.336212 -31.077101
-8.735191 55.741337 -36.353699
-17.225269 26.036341 -31.201534
-15.891695 29.970045 -33.542442
-14.70295 32.543152 -33.55238
-13.624011 35.2132 -33.606567
-13.724003 31.004671 -21.839811
-13.57262 32.240467 -23.577852
-13.448875 33.382374 -25.448629
-12.456399 38.970131 -24.406326
-12.780246 36.62899 -25.876959
-13.296394 34.551006 -27.325846
-13.150291 35.645256 -29.339624
-12.922072 36.854191 -31.382977
-12.701741 37.820717 -33.564117
-11.857535 40.618622 -33.568779
-11.092814 43.566322 -33.79401
-10.468621 46.25811 -34.202938
-10.73413 47.95631 -30.97842
-10.359898 48.356289 -32.8629
-9.925537 48.920334 -34.65696
-9.472488 51.556232 -35.077194
-9.078972 53.773941 -35.700096
-14.914136 24.483712 -19.631842
-14.972991 23.86223 -18.782696
-14.609058 25.547679 -18.993517
-14.907813 25.124336 -20.529898
-14.914136 24.483712 -19.631842
-14.491146 26.853288 -20.709001
-14.848757 25.808464 -21.396235
-14.907813 25.124336 -20.529898
-12.174961 52.908343 -25.212513
-12.16864 51.277341 -24.701705
-12.418801 52.49086 -24.362838
-12.162592 54.516239 -25.722251
-11.91243 53.302721 -26.061118
-12.174961 52.908343 -25.212513
-8.177764 47.631647 -42.03109
-7.803512 48.765514 -41.986148
-14.511302 33.665458 -15.612011
-14.806565 33.012262 -15.02748
-14.277013 34.315 -16.231499
-14.3233 32.521555 -15.978398
-14.511302 33.665458 -15.612011
-14.028105 35.043288 -16.854727
-14.277013 34.315 -16.231499
-8.113843 51.376993 -39.604614
-8.398736 51.233927 -38.871044
-8.171925 52.314244 -38.921768
-7.968619 50.576443 -40.365351
-8.113843 51.376993 -39.604614
-15.190857 21.715492 -16.470864
-15.011727 22.735964 -15.92731
-14.742397 27.935887 -24.167957
-15.209711 26.18786 -24.054108
-14.781186 27.161991 -23.186217
-9.369736 44.258549 -42.161473
-9.342992 45.117742 -41.22163
-8.963386 45.417295 -42.072864
-9.852483 43.156544 -42.291191
-9.369736 44.258549 -42.161473
-15.687754 24.074454 -12.965406
-15.778415 22.230712 -12.751119
-15.015676 27.23277 -14.285323
-15.190565 28.306392 -13.943933
-14.933155 29.139517 -14.527021
-13.174046 44.20575 -20.243424
-13.158987 42.379881 -19.92093
-12.916291 44.789727 -21.023573
-13.174046 44.20575 -20.243424
-13.250082 36.807459 -38.754465
-12.665375 37.972347 -38.653816
-12.236422 59.265389 -27.427036
-12.192599 57.652008 -26.824093
-11.253442 59.765656 -29.990234
-11.624054 59.652768 -29.064535
-10.925666 59.715401 -30.863659
-11.002651 58.386467 -30.203675
-11.253442 59.765656 -29.990234
-16.553511 28.141094 -32.467946
-17.16135 26.839783 -32.372644
-16.617431 27.337651 -31.296836
-15.950644 29.304503 -32.46729
-16.494563 28.806635 -33.543098
-16.553511 28.141094 -32.467946
-7.986146 53.326155 -39.06897
-8.171925 52.314244 -38.921768
-8.271038 53.183088 -38.3354
-14.851511 33.286652 -36.859497
-15.004114 32.641722 -35.707414
-14.678826 33.871101 -37.910068
-14.851511 33.286652 -36.859497
-14.259819 34.395615 -36.777484
-14.448652 34.511145 -39.047973
-14.678826 33.871101 -37.910068
-15.023706 23.163857 -18.032871
-15.131809 22.417468 -17.279716
-14.776017 24.179807 -17.391217
-15.023706 23.163857 -18.032871
-14.972991 23.86223 -18.782696
-14.840295 26.47569 -22.323853
-14.848757 25.808464 -21.396235
-14.372981 28.223717 -22.437702
-14.781186 27.161991 -23.186217
-14.840295 26.47569 -22.323853
-8.548293 46.485054 -42.005882
-8.566112 47.423082 -41.158229
-8.177764 47.631647 -42.03109
-8.963386 45.417295 -42.072864
-8.548293 46.485054 -42.005882
-14.832816 31.042576 -14.77227
-14.806565 33.012262 -15.02748
-14.657928 29.968954 -15.11366
-14.933155 29.139517 -14.527021
-14.832816 31.042576 -14.77227
-13.830605 35.638206 -17.508651
-13.89151 33.766016 -17.251811
-14.028105 35.043288 -16.854727
-13.724224 37.552544 -17.831991
-13.587629 36.275272 -18.229074
-13.830605 35.638206 -17.508651
-15.621697 27.763129 -28.200118
-16.141689 26.348141 -28.131005
-15.660952 26.96098 -27.128702
-7.896083 49.712942 -41.180124
-8.268118 49.433176 -40.368663
-7.968619 50.576443 -40.365351
-7.803512 48.765514 -41.986148
-7.896083 49.712942 -41.180124
-15.190857 21.715492 -16.470864
-15.131809 22.417468 -17.279716
-15.696279 25.473228 -25.035918
-15.209711 26.18786 -24.054108
-15.675932 26.253874 -26.047719
-15.696279 25.473228 -25.035918
-15.155942 27.668861 -26.116832
-15.660952 26.96098 -27.128702
-15.675932 26.253874 -26.047719
-12.144263 39.245753 -38.602728
-12.665375 37.972347 -38.653816
-12.421625 38.682722 -37.579023
-11.886688 39.672625 -39.596367
-12.144263 39.245753 -38.602728
-11.642938 40.382999 -38.521574
-11.56867 40.137206 -40.624342
-11.886688 39.672625 -39.596367
-11.236496 40.556487 -41.585178
-11.56867 40.137206 -40.624342
-11.053189 41.229153 -40.47605
-10.886249 40.896742 -42.582752
-11.236496 40.556487 -41.585178
-10.33832 42.001263 -42.354515
-10.235178 42.803715 -41.373562
-9.852483 43.156544 -42.291191
-10.886249 40.896742 -42.582752
-10.33832 42.001263 -42.354515
-15.697717 21.088161 -13.016538
-15.778415 22.230712 -12.751119
-15.498323 21.750355 -13.587969
-15.697717 21.088161 -13.016538
-15.484616 27.732856 -13.457939
-15.190565 28.306392 -13.943933
-15.562127 25.84365 -13.193485
-15.484616 27.732856 -13.457939
-15.398712 24.630448 -13.474158
-15.687754 24.074454 -12.965406
-15.562127 25.84365 -13.193485
-15.25754 22.471982 -14.205346
-15.498323 21.750355 -13.587969
-15.283556 23.582879 -13.863456
-15.091054 23.171508 -14.848695
-15.25754 22.471982 -14.205346
-14.916939 23.838093 -15.417278
-15.091054 23.171508 -14.848695
-14.868658 24.971092 -15.049415
-14.789331 24.535548 -16.128031
-15.011727 22.735964 -15.92731
-14.916939 23.838093 -15.417278
-13.703598 39.392125 -18.133722
-13.724224 37.552544 -17.831991
-13.435719 39.950463 -18.855589
-13.703598 39.392125 -18.133722
-13.224581 40.494724 -19.604881
-13.27011 38.733871 -19.301705
-13.435719 39.950463 -18.855589
-12.993379 41.16329 -20.367047
-13.224581 40.494724 -19.604881
-13.158987 42.379881 -19.92093
-12.707453 45.202648 -21.806783
-12.718947 43.461369 -21.466306
-12.916291 44.789727 -21.023573
-12.678892 47.043194 -22.14164
-12.481548 45.714836 -22.584373
-12.707453 45.202648 -21.806783
-12.697672 48.933476 -22.603921
-12.678892 47.043194 -22.14164
-12.677419 50.585714 -23.070321
-12.432734 49.207621 -23.38563
-12.697672 48.933476 -22.603921
-12.730655 52.244673 -23.522199
-12.677419 50.585714 -23.070321
-12.418801 52.49086 -24.362838
-12.730655 52.244673 -23.522199
-13.822281 35.592833 -38.853437
-13.514935 36.194691 -37.729084
-13.250082 36.807459 -38.754465
-14.448652 34.511145 -39.047973
-13.822281 35.592833 -38.853437
-8.103388 55.865486 -38.019806
-8.328911 56.388506 -37.399786
-12.189229 56.12359 -26.282301
-12.162592 54.516239 -25.722251
-11.903431 56.439036 -27.112648
-12.189229 56.12359 -26.282301
-12.192599 57.652008 -26.824093
-11.91224 59.418133 -28.22663
-12.236422 59.265389 -27.427036
-11.618614 58.202088 -28.492345
-11.91224 59.418133 -28.22663
-11.624054 59.652768 -29.064535
-10.563415 59.570388 -31.701362
-10.925666 59.715401 -30.863659
-10.361098 58.403736 -31.94901
-10.563415 59.570388 -31.701362
-10.178406 57.132238 -32.242722
-10.492183 57.064715 -31.370812
-10.361098 58.403736 -31.94901
-9.919666 57.235848 -33.048561
-10.05075 55.896826 -32.470364
-10.178406 57.132238 -32.242722
-9.642196 57.106959 -33.780077
-9.919666 57.235848 -33.048561
-9.369725 57.107544 -34.587523
-9.519538 56.001021 -34.083649
-9.642196 57.106959 -33.780077
-9.06259 56.943745 -35.386106
-9.369725 57.107544 -34.587523
-8.806652 56.81361 -36.117409
-8.991129 55.871471 -35.622397
-9.06259 56.943745 -35.386106
-8.537651 56.522498 -36.808979
-8.806652 56.81361 -36.117409
-8.328911 56.388506 -37.399786
-8.52645 55.607346 -36.944506
-8.537651 56.522498 -36.808979
-16.709004 25.783009 -29.124026
-16.141689 26.348141 -28.131005
-17.270421 25.226035 -30.123582
-16.709004 25.783009 -29.124026
-16.663851 26.593315 -30.201977
-17.910597 24.876162 -31.324101
-17.270421 25.226035 -30.123582
-17.863327 25.703705 -32.481817
-17.910597 24.876162 -31.324101
-17.863327 25.703705 -32.481817
-17.16135 26.839783 -32.372644
-16.380036 29.591206 -34.719204
-16.494563 28.806635 -33.543098
-15.73371 30.721162 -34.615179
-16.380036 29.591206 -34.719204
-15.139337 32.007716 -34.620148
-15.73371 30.721162 -34.615179
-15.297322 31.256598 -33.547411
-14.567726 33.177159 -34.639646
-15.004114 32.641722 -35.707414
-15.139337 32.007716 -34.620148
-7.987163 55.226309 -38.49345
-8.201484 54.834177 -38.008957
-8.103388 55.865486 -38.019806
-7.798332 54.501182 -39.10907
-7.987163 55.226309 -38.49345
-7.986146 53.326155 -39.06897
-7.798332 54.501182 -39.10907
3 0 33 31
3 1 35 34
3 2 130 132
3 132 131 36
3 130 131 132
3 2 133 134
3 2 135 137
3 135 37 136
3 135 136 137
3 138 40 139
3 140 139 38
3 138 139 140
3 141 42 142
3 143 142 40
3 141 142 143
3 3 45 43
3 145 144 46
3 146 48 147
3 148 50 149
3 150 149 48
3 148 149 150
3 152 151 50
3 6 54 52
3 6 56 54
3 4 59 57
3 7 62 60
3 7 64 62
3 7 66 64
3 5 69 67
3 5 71 69
3 8 74 72
3 153 75 154
3 155 154 32
3 153 154 155
3 157 156 75
3 10 158 159
3 11 160 162
3 160 76 161
3 160 161 162
3 11 77 76
3 12 80 78
3 14 81 39
3 14 82 81
3 14 84 82
3 16 85 41
3 16 86 85
3 17 89 87
3 18 90 44
3 18 91 90
3 9 92 73
3 163 93 164
3 165 164 47
3 163 164 165
3 167 166 93
3 168 94 169
3 19 170 172
3 170 95 171
3 170 171 172
3 19 96 95
3 19 97 96
3 20 98 49
3 20 99 98
3 20 101 99
3 22 102 51
3 22 103 102
3 173 104 174
3 176 175 104
3 178 177 88
3 179 105 180
3 181 106 182
3 183 107 184
3 185 184 106
3 183 184 185
3 24 109 53
3 24 186 188
3 188 187 109
3 186 187 188
3 24 189 191
3 189 110 190
3 189 190 191
3 25 111 55
3 25 112 111
3 21 113 100
3 26 114 58
3 26 115 114
3 13 116 79
3 27 117 61
3 27 118 117
3 27 119 118
3 28 120 63
3 28 121 120
3 28 122 121
3 29 123 65
3 29 124 123
3 15 125 83
3 30 126 68
3 30 127 126
3 30 128 127
3 23 129 70
3 23 108 129
3 31 32 8
3 33 32 31
3 33 192 194
3 194 193 32
3 192 193 194
3 34 195 196
3 35 197 199
3 199 198 34
3 197 198 199
3 35 200 201
3 36 202 204
3 204 203 10
3 202 203 204
3 206 205 36
3 37 207 208
3 37 209 211
3 209 11 210
3 209 210 211
3 38 39 12
3 40 39 38
3 40 14 39
3 40 41 14
3 42 41 40
3 42 16 41
3 43 44 17
3 45 44 43
3 45 18 44
3 46 47 9
3 212 47 213
3 214 213 46
3 212 213 214
3 216 215 47
3 48 217 218
3 48 219 221
3 219 19 220
3 219 220 221
3 48 49 19
3 50 49 48
3 50 20 49
3 50 51 20
3 222 51 223
3 224 223 50
3 222 223 224
3 225 22 226
3 227 226 51
3 225 226 227
3 52 228 230
3 228 53 229
3 228 229 230
3 54 53 52
3 54 24 53
3 54 55 24
3 56 55 54
3 56 25 55
3 57 58 21
3 59 58 57
3 59 26 58
3 60 61 13
3 62 61 60
3 62 27 61
3 62 63 27
3 64 63 62
3 64 28 63
3 64 65 28
3 66 65 64
3 66 29 65
3 67 68 15
3 69 68 67
3 69 30 68
3 69 70 30
3 71 70 69
3 71 23 70
3 72 73 3
3 74 73 72
3 74 9 73
3 32 74 8
3 75 74 32
3 75 9 74
3 75 46 9
3 231 46 232
3 233 232 75
3 231 232 233
3 235 234 46
3 237 236 10
3 76 238 239
3 76 240 241
3 76 242 244
3 242 52 243
3 242 243 244
3 77 52 76
3 77 6 52
3 78 79 4
3 80 79 78
3 80 13 79
3 39 80 12
3 81 80 39
3 81 13 80
3 81 60 13
3 82 60 81
3 82 7 60
3 82 83 7
3 84 83 82
3 84 15 83
3 41 84 14
3 85 84 41
3 85 15 84
3 85 67 15
3 86 67 85
3 86 5 67
3 87 88 1
3 89 88 87
3 89 245 247
3 247 246 88
3 245 246 247
3 44 89 17
3 90 89 44
3 90 248 250
3 250 249 89
3 248 249 250
3 90 251 252
3 91 253 255
3 255 254 90
3 253 254 255
3 91 256 257
3 73 45 3
3 92 45 73
3 92 18 45
3 47 92 9
3 93 92 47
3 93 18 92
3 93 91 18
3 258 91 259
3 260 259 93
3 258 259 260
3 262 261 91
3 94 263 264
3 94 265 266
3 95 267 268
3 95 269 270
3 95 271 273
3 271 94 272
3 271 272 273
3 96 94 95
3 96 274 276
3 276 275 94
3 274 275 276
3 96 277 278
3 97 279 281
3 281 280 96
3 279 280 281
3 97 282 284
3 282 10 283
3 282 283 284
3 49 97 19
3 98 97 49
3 98 10 97
3 98 36 10
3 99 36 98
3 99 2 36
3 99 100 2
3 101 100 99
3 101 21 100
3 51 101 20
3 102 101 51
3 102 21 101
3 102 57 21
3 103 57 102
3 103 4 57
3 285 22 286
3 287 22 288
3 289 103 290
3 291 290 22
3 289 290 291
3 104 292 294
3 292 103 293
3 292 293 294
3 104 4 103
3 104 78 4
3 295 78 296
3 297 296 104
3 295 296 297
3 298 12 299
3 300 299 78
3 298 299 300
3 301 12 302
3 303 38 304
3 305 304 12
3 303 304 305
3 306 38 307
3 309 308 38
3 88 35 1
3 310 35 311
3 312 311 88
3 310 311 312
3 314 313 35
3 316 315 0
3 317 42 318
3 105 319 321
3 319 42 320
3 319 320 321
3 105 16 42
3 322 105 323
3 106 324 326
3 324 105 325
3 324 325 326
3 106 16 105
3 106 86 16
3 107 86 106
3 107 5 86
3 327 107 328
3 329 107 330
3 331 5 332
3 333 332 107
3 331 332 333
3 334 71 335
3 336 335 5
3 334 335 336
3 337 71 338
3 339 23 340
3 341 340 71
3 339 340 341
3 342 23 343
3 344 108 345
3 346 345 23
3 344 345 346
3 347 108 348
3 349 0 350
3 351 350 108
3 349 350 351
3 53 352 353
3 109 354 356
3 356 355 53
3 354 355 356
3 109 357 358
3 109 359 360
3 362 361 109
3 110 363 364
3 110 365 366
3 55 110 24
3 111 110 55
3 111 367 369
3 369 368 110
3 367 368 369
3 111 370 372
3 370 34 371
3 370 371 372
3 112 34 111
3 112 1 34
3 100 37 2
3 113 37 100
3 113 11 37
3 58 113 21
3 114 113 58
3 114 11 113
3 114 77 11
3 115 77 114
3 115 6 77
3 79 59 4
3 116 59 79
3 116 26 59
3 61 116 13
3 117 116 61
3 117 26 116
3 117 115 26
3 118 115 117
3 118 6 115
3 118 56 6
3 119 56 118
3 119 25 56
3 63 119 27
3 120 119 63
3 120 25 119
3 120 112 25
3 121 112 120
3 121 1 112
3 121 87 1
3 122 87 121
3 122 17 87
3 65 122 28
3 123 122 65
3 123 17 122
3 123 43 17
3 124 43 123
3 124 3 43
3 83 66 7
3 125 66 83
3 125 29 66
3 68 125 15
3 126 125 68
3 126 29 125
3 126 124 29
3 127 124 126
3 127 3 124
3 127 72 3
3 128 72 127
3 128 8 72
3 70 128 30
3 129 128 70
3 129 8 128
3 129 31 8
3 108 31 129
3 108 0 31
3 373 33 374
3 375 374 0
3 373 374 375
3 376 33 377
3 379 378 33
