ply
format ascii 1.0
element vertex 1052
property float x
property float y
property float z
element face 1160
property list uchar int vertex_index
end_header
-5.021052 -33.927101 -44.134991
9.554511 8.075827 -70.306602
6.733288 -21.913244 -57.417297
16.068132 -40.252865 -53.615582
27.748724 -50.834244 -46.198147
19.218931 23.310106 -72.269218
3.057129 -39.254333 -50.354649
0.38532 -28.850594 -50.804909
21.987591 -46.646782 -50.853413
-14.979403 -49.184036 -32.005592
-9.805895 -36.817955 -37.712406
10.864136 20.285072 -72.447449
15.264122 -0.494245 -68.806
-1.063585 -19.281502 -50.507858
3.276666 -12.904658 -58.049446
8.444925 -5.943151 -64.610107
13.444701 -14.923699 -62.546486
6.784005 -49.827591 -49.415119
10.959805 -31.836931 -55.518749
18.9021 -22.793791 -60.080601
32.113583 -52.85273 -39.548855
-7.698593 -41.340847 -41.149689
-4.828001 -39.383305 -44.439568
-1.714025 -37.096523 -47.613861
-2.378853 -31.628777 -47.489765
-16.703354 -48.825539 -29.008694
7.805839 22.812798 -70.49559
1.010359 -16.184998 -54.27874
1.822868 -9.245955 -57.461948
6.537355 5.13424 -67.67247
6.177349 -2.114428 -64.755943
8.979717 1.260642 -67.753761
11.687537 -3.086766 -67.057777
12.4468 4.107905 -69.988068
5.09691 -30.57962 -53.699284
7.097048 -35.729259 -53.045143
8.777035 -26.831591 -56.532738
12.412229 -23.045351 -59.037655
10.117143 -18.293949 -60.231071
25.664482 -58.671597 -43.276459
28.083681 -59.535767 -39.85675
30.091444 -52.281441 -43.113457
33.972427 -45.630245 -42.836975
31.950472 -44.540043 -46.210323
29.502285 -42.636364 -49.250134
19.035744 -43.696529 -52.434822
23.585749 -37.930248 -53.811813
20.670744 -34.879635 -55.424686
21.786877 -26.258224 -58.631618
17.777033 -31.291735 -56.784306
-19.747822 -52.296391 -23.178526
23.614697 23.210972 -70.383331
6.877362 11.333016 -69.608589
-0.910508 -42.824429 -47.39175
1.570055 -34.047184 -50.684971
3.416296 -25.558735 -54.17783
22.88903 -57.499294 -45.882118
24.780582 -49.137985 -48.799194
16.792009 -52.575684 -49.724289
13.970145 -49.30135 -50.766426
-18.598183 -53.901291 -26.079086
-17.352793 -55.226883 -29.075733
-15.778894 -55.703659 -32.100464
-12.905939 -49.157032 -35.200829
-10.15792 -42.502815 -38.007824
-7.408796 -35.598553 -40.959377
7.315032 17.244371 -70.659836
10.216121 14.571643 -71.984024
14.843111 22.177109 -73.008018
13.973381 16.75271 -73.140541
13.206937 10.791758 -72.094757
-7.402918 -30.551376 -40.555077
-5.095305 -28.862911 -43.810589
-2.741199 -26.643578 -47.294666
-0.313185 -23.653267 -50.944824
2.110324 -20.65889 -54.440292
4.820261 -17.243498 -57.919807
3.881884 -5.460009 -61.390991
5.750049 -9.19916 -61.632618
7.778534 -13.745371 -61.080441
10.916636 -10.413039 -63.747574
14.284958 -7.527386 -65.832588
16.96113 -11.658252 -64.498337
11.473126 -45.518597 -51.529053
4.75309 -44.73962 -49.840061
9.055471 -40.765041 -52.2798
13.364879 -36.351845 -54.576813
14.957343 -27.261711 -57.975075
16.020559 -19.132427 -61.28178
19.495026 -15.325809 -63.141148
30.914145 -59.605049 -32.101913
29.768562 -59.855511 -36.145889
33.204552 -53.543365 -35.559166
35.270535 -46.513367 -39.087589
26.598454 -40.485027 -51.795784
-6.363271 -37.759575 -42.57954
-6.305643 -40.581055 -42.797871
-4.982109 -36.600807 -44.26125
-3.586921 -35.580498 -45.891552
-3.727951 -32.854588 -45.798321
8.0249 6.475955 -69.068947
7.794404 3.257789 -67.860863
9.354028 4.651549 -69.147461
10.673654 2.726273 -68.988991
10.917172 6.120985 -70.228783
5.924092 -26.152817 -55.529606
6.920376 -28.525734 -55.208832
7.669884 -24.310488 -56.989151
9.391181 -22.519838 -58.330372
8.420417 -20.092274 -58.878487
26.647997 -54.892033 -44.751038
27.936766 -55.461929 -43.235565
28.972239 -51.470539 -44.816891
31.052164 -48.578938 -44.585232
30.044765 -47.461239 -46.259705
30.759689 -43.622879 -47.815693
28.563442 -47.008072 -47.655571
17.474382 -42.163548 -53.025089
19.749537 -39.361832 -53.879433
18.372089 -37.687775 -54.528343
19.111776 -33.531048 -55.993645
16.889463 -35.846832 -55.13018
-0.568431 -32.889679 -49.21014
-0.108983 -35.705635 -49.13435
0.971148 -31.293394 -50.835293
2.553969 -29.582937 -52.443626
1.894538 -27.229998 -52.526093
15.452662 -50.875393 -50.33342
-19.025873 -50.150982 -24.712029
-19.126862 -52.905552 -24.699474
-18.291239 -50.702911 -26.262653
-15.901281 -49.258873 -30.47345
-16.954227 -51.942314 -29.091892
-16.19173 -52.327755 -30.584137
-16.595594 -55.446129 -30.604361
-15.362678 -52.463013 -32.058372
-14.340109 -52.360714 -33.6735
-13.970863 -49.172031 -33.610291
-11.082416 -39.891201 -36.307491
-11.277216 -42.96944 -36.498878
-9.95146 -39.502735 -37.862514
-8.691544 -38.927059 -39.553383
-8.608869 -36.270897 -39.339989
9.221377 21.485275 -71.599068
7.569617 20.17709 -70.74926
8.882803 18.921959 -71.63134
8.69834 15.990751 -71.439857
10.420907 17.503395 -72.324684
17.401596 25.209332 -72.052246
15.163807 24.641239 -72.421852
16.943966 22.896322 -72.802017
16.07946 17.664856 -73.290001
-6.297534 -29.814312 -42.087658
-5.201573 -26.502409 -43.607555
-2.140401 -20.919077 -48.58535
-2.90076 -24.261385 -47.154205
-1.784299 -22.756624 -48.974686
-1.544715 -25.140055 -49.096497
-0.687689 -21.315855 -50.789398
2.104189 -14.575431 -56.173569
1.487695 -18.462677 -54.328495
2.724533 -16.728132 -56.225857
3.439029 -19.156656 -56.151154
3.994829 -15.186477 -57.963272
4.054132 -2.051349 -62.865501
7.292809 -4.068388 -64.737686
5.946186 -5.674436 -63.17345
7.051794 -7.766675 -63.087414
6.617887 -11.627822 -61.270111
8.208015 -9.972773 -62.825352
9.387981 -12.095975 -62.482315
9.734975 -8.125635 -64.279411
13.381606 -1.463587 -68.128799
12.980823 -5.151319 -66.547867
14.679812 -3.811411 -67.43058
16.010542 -6.296233 -66.612495
16.575172 -2.989737 -67.982727
7.823985 -52.256229 -49.153854
10.131048 -50.053638 -50.128834
9.148494 -47.508476 -50.554096
1.626958 -44.079948 -48.608829
3.772247 -42.156319 -50.017494
8.989397 -33.63028 -54.349937
8.071516 -38.321777 -52.650246
10.039312 -36.126534 -53.899845
11.209859 -38.490673 -53.485329
12.14874 -34.195538 -55.040752
14.310564 -31.876041 -56.226074
12.971775 -29.731743 -56.721954
12.915442 -18.960501 -60.768799
14.202544 -21.045616 -60.21114
14.753943 -16.991606 -61.949707
16.494299 -15.100729 -63.000267
15.222467 -13.234303 -63.593697
29.211119 -62.755955 -32.295559
30.093027 -56.348267 -39.716576
28.983376 -59.813484 -38.020496
30.925734 -56.414246 -38.01152
31.53533 -56.73315 -35.927208
32.668713 -53.413391 -37.57449
34.277332 -50.089268 -37.394257
33.75457 -49.838402 -39.248631
34.698872 -42.052441 -44.408627
35.478233 -42.485828 -42.677288
32.23307 -35.250206 -50.98349
23.248127 -48.191212 -49.844685
25.695551 -44.89365 -50.263573
24.275347 -43.633789 -51.353214
20.240353 -24.694677 -59.335796
22.19533 -21.965256 -60.320168
20.625593 -20.488239 -61.016075
19.223537 -18.788105 -61.705647
-9.190685 -45.134857 -39.634136
-7.834178 -44.455067 -41.217522
-6.249998 -43.432846 -42.926018
-4.734184 -42.61866 -44.441265
-3.085865 -41.418121 -45.978622
-3.351477 -38.434525 -45.984768
-2.123996 -34.419418 -47.523533
-1.040462 -30.320833 -49.117676
-14.668897 -46.108089 -31.954475
-13.718508 -46.249756 -33.451618
9.572066 24.084385 -71.215691
11.039246 22.782238 -72.168518
18.692289 20.966219 -72.863876
-0.480963 -15.855569 -52.032215
-0.047427 -17.916796 -52.328354
0.498485 -14.361269 -53.961105
1.474319 -12.67296 -55.895691
2.475217 -10.87838 -57.806614
5.33193 3.177706 -66.037338
5.157576 -0.082036 -64.69735
6.478463 1.576932 -66.388847
7.532007 -0.42677 -66.330643
8.725087 -2.221824 -66.269264
9.991348 -4.330706 -65.966614
10.34918 -0.630186 -67.59919
11.988064 0.549106 -68.581657
13.79915 1.719429 -69.416504
4.105123 -34.789661 -51.997036
4.989758 -37.714027 -51.639008
6.013562 -33.152027 -53.363853
7.829635 -31.351505 -54.661076
9.879539 -29.056679 -56.134983
11.817808 -27.253681 -57.324623
10.654131 -24.766039 -57.904034
11.196833 -20.739254 -59.606697
11.776877 -16.582741 -61.442326
24.478964 -62.512089 -41.82674
25.753479 -62.717823 -40.240311
26.857952 -59.341408 -41.616245
29.065042 -56.003696 -41.545025
31.159212 -52.723843 -41.343784
33.086769 -49.243927 -41.248978
32.193409 -48.775024 -43.048676
32.99527 -45.163841 -44.604057
33.869907 -41.162849 -46.160355
32.765583 -40.539299 -47.751808
31.615898 -39.444412 -49.350616
30.186077 -38.551544 -50.804634
20.384369 -45.476707 -51.637829
22.72595 -42.260281 -52.346973
21.284252 -40.844341 -53.166439
21.971169 -36.479103 -54.676167
22.788231 -32.036945 -56.244526
21.209846 -30.685802 -56.955624
19.799265 -29.040844 -57.651985
18.299976 -26.990986 -58.415894
-19.693048 -49.357285 -23.337734
19.677979 25.5063 -71.343193
21.82028 25.535286 -70.382034
21.445377 23.458736 -71.435089
6.678727 8.22253 -68.707405
8.190425 9.906129 -70.115952
1.036837 -41.121704 -48.876022
-1.313932 -39.925663 -47.551521
0.330239 -38.432556 -48.95723
2.220126 -36.747993 -50.483742
3.319237 -32.153351 -52.267712
4.274629 -27.901854 -54.049484
4.993495 -23.817327 -55.781727
24.296722 -58.050072 -44.721325
25.414186 -53.960155 -46.145168
26.203585 -50.21788 -47.537449
23.775311 -53.606384 -47.255119
22.342728 -52.340801 -48.458328
20.789097 -51.141479 -49.461407
19.311781 -49.985107 -50.228905
17.920269 -48.198322 -51.028065
16.504154 -46.522827 -51.641525
15.112739 -44.835297 -52.132511
-17.667038 -51.552795 -27.634098
-17.988943 -54.584671 -27.579657
-12.603438 -46.142879 -35.109131
-11.528109 -45.903446 -36.614483
-10.437547 -45.758015 -38.088734
-9.018455 -42.021435 -39.499084
-7.593148 -38.433243 -41.005962
-6.199083 -34.804794 -42.581364
7.149692 14.395432 -70.317337
8.454092 12.992461 -70.915245
9.820934 11.402649 -71.260742
13.103064 23.788528 -72.47612
12.756059 21.28813 -72.873337
16.593758 20.325466 -73.208191
14.364849 19.696732 -73.22686
12.357868 18.475513 -72.93972
12.005651 15.68692 -72.69294
11.597817 12.632896 -72.122688
11.283685 9.559198 -71.33812
12.674148 7.654695 -71.167068
14.195891 5.378591 -70.734406
15.61688 2.816735 -70.036163
17.037081 0.259995 -69.222221
-8.602911 -33.759052 -39.087196
-7.353154 -33.072819 -40.792984
-6.247518 -32.245003 -42.315331
-5.051833 -31.228228 -43.973289
-4.074644 -25.454817 -45.30817
-3.875439 -27.66745 -45.605007
-3.864786 -30.350607 -45.628448
-2.595378 -29.043751 -47.385132
-1.291693 -27.587633 -49.169716
0.023568 -26.220226 -50.917969
0.441343 -19.838053 -52.652508
0.874867 -22.144991 -52.70406
1.340593 -24.798794 -52.602962
2.711498 -23.288736 -54.272991
4.232501 -21.392334 -56.069374
5.702363 -19.705376 -57.63929
2.859688 -7.337517 -59.515053
3.578204 -9.159481 -59.692738
5.013029 -3.787439 -63.144722
4.749162 -7.263549 -61.558277
4.426479 -11.031843 -59.842384
5.309532 -13.267262 -59.73978
6.282584 -15.681278 -59.488796
7.269623 -17.940706 -59.176003
8.836547 -16.204605 -60.580193
10.497057 -14.3471 -61.963619
12.12452 -12.723837 -63.139534
11.341002 -6.665893 -65.465897
12.573281 -8.974834 -64.839996
13.922001 -11.152685 -64.230782
15.66815 -9.80503 -65.109627
11.563787 -51.821327 -49.894703
12.638331 -47.501801 -51.156498
13.798998 -42.640766 -52.68235
5.690564 -47.264706 -49.631397
5.99103 -40.263908 -51.386536
6.947749 -42.643188 -51.129894
8.008877 -45.365128 -50.787418
10.374434 -42.868744 -52.036835
12.544366 -40.742317 -53.073925
14.77583 -38.104649 -54.203793
15.605727 -33.777695 -55.739498
16.272509 -29.468578 -57.336975
16.972197 -25.328871 -58.958233
13.692744 -25.160751 -58.527248
15.570946 -23.24168 -59.58844
17.411747 -21.276392 -60.585995
17.77096 -17.200422 -62.270393
18.130806 -13.523439 -63.827457
32.465481 -56.49876 -31.785063
26.51232 -66.303528 -34.662838
26.8741 -62.993263 -38.320953
27.773767 -63.133369 -36.35577
28.490009 -63.139786 -34.360302
30.408901 -59.820995 -34.103825
32.181725 -56.450386 -33.902142
33.646889 -53.437988 -33.377525
34.692402 -50.218502 -35.32933
35.637718 -46.967823 -37.01186
36.566429 -43.428593 -38.566628
34.667152 -46.217312 -40.98391
36.129211 -42.935974 -40.690201
27.282223 -46.018707 -48.951443
27.968506 -41.832039 -50.542313
28.772173 -37.487926 -52.105415
25.120913 -39.449203 -52.779079
-18.249379 -49.338656 -26.247371
-18.658556 -50.426946 -25.487341
-18.616696 -49.062691 -25.47206
-5.269553 -25.363986 -43.546192
-5.748661 -26.891042 -42.82319
-1.601993 -20.10029 -49.546604
-1.809199 -19.251283 -49.329109
-1.270791 -18.432495 -50.290363
4.12329 -0.293576 -63.590526
3.60171 -1.257228 -62.628517
7.303995 -51.04191 -49.284486
6.585159 -53.245824 -48.632711
6.065169 -52.031505 -48.763343
28.260915 -64.363928 -32.469195
28.572333 -64.162039 -31.452368
35.467675 -40.320069 -44.353024
35.123306 -39.946123 -45.210042
32.505901 -33.140613 -51.789812
31.562563 -34.736727 -51.691536
-14.583196 -44.709335 -31.891503
-15.146189 -46.104204 -31.200738
-14.02498 -44.585436 -32.698228
-14.583196 -44.709335 -31.891503
10.52966 24.630993 -71.431622
9.71254 25.285796 -70.836796
11.26325 23.97992 -71.908035
10.305656 23.433312 -71.692104
10.52966 24.630993 -71.431622
-0.230984 -14.130643 -52.839138
-0.690276 -15.037588 -51.839735
0.25874 -13.383492 -53.803583
0.008761 -15.108419 -52.99666
-0.230984 -14.130643 -52.839138
1.648594 -10.959457 -56.67882
1.188772 -11.838646 -55.699772
1.363046 -10.125144 -56.4829
-19.709926 -47.858557 -23.43999
-20.041954 -48.874487 -22.676595
-19.316682 -48.266106 -24.116781
-19.709926 -47.858557 -23.43999
19.840119 26.532004 -70.701267
18.801496 26.424246 -71.126453
22.717489 24.373129 -70.382683
22.892658 25.394179 -69.765541
23.789867 24.232022 -69.766189
23.330959 22.219712 -70.835491
22.246299 22.343593 -71.36137
22.530037 23.334854 -70.90921
6.778045 9.777773 -69.157997
6.125001 8.948276 -68.448734
6.224318 10.503519 -68.899326
-0.644864 -44.211468 -47.328901
-1.633447 -44.958946 -46.625225
0.063165 -41.973067 -48.133886
0.328808 -43.360106 -48.071037
-0.644864 -44.211468 -47.328901
23.592876 -57.774683 -45.301721
23.024817 -59.758654 -44.642786
22.320971 -59.483265 -45.223183
21.080592 -53.922196 -48.263784
21.77495 -54.490887 -47.775352
20.303776 -53.322535 -48.765324
21.565913 -51.74114 -48.959868
21.080592 -53.922196 -48.263784
17.570782 -53.345559 -49.343052
16.256582 -54.72983 -49.102031
18.051895 -51.280395 -49.976597
18.830669 -52.05027 -49.59536
17.570782 -53.345559 -49.343052
-19.801792 -53.742939 -23.168605
-20.051307 -53.229475 -22.434617
-19.009819 -55.014906 -25.293709
-19.274158 -54.517037 -24.603902
-18.862522 -53.403422 -25.38928
-18.765122 -55.482963 -26.048997
-19.009819 -55.014906 -25.293709
-17.185196 -50.189167 -28.321396
-17.554846 -49.929743 -27.636755
-17.073004 -48.566114 -28.324053
-17.861283 -56.392336 -28.303415
-18.179358 -56.07123 -27.555377
-17.670868 -54.905777 -28.327695
-17.577628 -56.787503 -29.051832
-17.861283 -56.392336 -28.303415
-16.439459 -57.249947 -31.327326
-16.847809 -57.121181 -30.579275
-16.187244 -55.574894 -31.352412
-15.948992 -57.312387 -32.184521
-16.439459 -57.249947 -31.327326
-15.266478 -55.70742 -32.90285
-15.948992 -57.312387 -32.184521
-13.113824 -50.818609 -35.192112
-13.830909 -52.42045 -34.428447
-13.623024 -50.758873 -34.437164
-12.359151 -49.095461 -35.955414
-13.113824 -50.818609 -35.192112
-12.481887 -44.633157 -35.030983
-13.160973 -46.196317 -34.280375
-13.039422 -44.686596 -34.202227
7.040348 21.978507 -70.057148
7.125103 23.273232 -69.847286
6.690576 17.857655 -70.16647
6.817868 19.324015 -70.211182
7.442324 18.710731 -70.704548
6.601108 16.450072 -70.054611
6.690576 17.857655 -70.16647
7.232362 15.819902 -70.488586
6.518438 15.025602 -69.883362
6.601108 16.450072 -70.054611
17.443797 19.256152 -73.158657
17.643023 20.645843 -73.036034
18.493062 19.576529 -72.9865
12.402377 11.712327 -72.108722
12.54848 13.146173 -72.417393
13.35304 12.225604 -72.403427
15.177975 5.749532 -70.936223
14.401563 6.963077 -71.227574
15.888469 4.468604 -70.587101
14.906385 4.097663 -70.385285
15.177975 5.749532 -70.936223
18.019948 0.614019 -69.342472
17.341405 1.891145 -69.785076
17.694645 -0.9182 -68.809631
18.019948 0.614019 -69.342472
-7.960348 -30.818885 -39.804907
-7.440853 -29.381936 -40.489895
-8.002914 -32.155214 -39.821136
-8.560344 -32.422722 -39.070966
-7.960348 -30.818885 -39.804907
-3.612495 -23.816837 -46.091241
-4.151815 -24.402164 -45.224855
3.370786 -6.398763 -60.453022
2.947046 -5.6167 -60.250349
3.458144 -4.677945 -61.188318
16.651689 -7.392539 -66.231887
16.880956 -5.72671 -66.916183
10.325311 -53.095138 -49.41709
10.924484 -54.082882 -49.274141
4.059038 -46.991415 -49.108869
3.660865 -45.60998 -49.2081
5.221827 -46.002163 -49.735729
4.527774 -48.253958 -49.004537
4.059038 -46.991415 -49.108869
17.705317 -11.011301 -64.833828
18.290154 -11.943894 -64.498388
17.545968 -12.590846 -64.162897
31.075943 -59.507874 -31.009893
30.291863 -61.046667 -31.112267
31.689813 -58.051904 -31.943488
31.851611 -57.954729 -30.851468
31.075943 -59.507874 -31.009893
26.093979 -66.308781 -35.651727
25.422821 -67.940159 -34.835289
36.48244 -41.071438 -41.568281
35.803722 -42.710901 -41.683745
36.156952 -40.846365 -42.561825
36.707434 -41.436723 -40.492657
36.48244 -41.071438 -41.568281
22.780538 -24.931665 -59.042564
22.557558 -27.121356 -58.194315
23.146021 -20.610461 -60.744009
22.331944 -19.985961 -61.110777
20.241784 -14.219065 -63.586344
20.218333 -16.01489 -62.847895
19.541277 -13.587601 -63.866411
20.241784 -14.219065 -63.586344
1.511659 -8.428658 -57.244383
1.363046 -10.125144 -56.4829
24.622716 23.116162 -69.700428
23.789867 24.232022 -69.766189
24.434927 22.019438 -70.228767
24.622716 23.116162 -69.700428
6.267991 12.017314 -69.246006
6.224318 10.503519 -68.899326
-1.843321 -43.491924 -46.663
-1.633447 -44.958946 -46.625225
21.598885 -59.040866 -45.820861
22.320971 -59.483265 -45.223183
22.048101 -57.070133 -46.487247
21.598885 -59.040866 -45.820861
15.539422 -53.954407 -49.395294
16.256582 -54.72983 -49.102031
14.869749 -53.104261 -49.69986
16.122335 -51.725538 -50.028854
15.539422 -53.954407 -49.395294
14.123529 -52.351399 -49.903799
14.869749 -53.104261 -49.69986
13.382271 -51.564377 -50.120302
14.711403 -50.088372 -50.549923
14.123529 -52.351399 -49.903799
-11.179816 -41.430321 -36.403184
-11.818776 -43.046438 -35.725856
-11.721376 -41.507318 -35.630163
16.282702 24.925286 -72.237049
15.448334 25.757061 -71.957508
16.567228 26.041108 -71.772705
16.89286 16.46905 -73.162628
17.186647 17.925847 -73.199562
15.808729 16.166328 -73.164395
16.89286 16.46905 -73.162628
14.755689 15.710255 -73.089664
15.026421 17.208783 -73.215271
15.808729 16.166328 -73.164395
13.736262 15.206081 -72.926319
14.755689 15.710255 -73.089664
14.181435 11.22375 -72.303108
13.35304 12.225604 -72.403427
13.907086 9.669661 -71.907749
14.181435 11.22375 -72.303108
-6.849334 -28.915526 -41.296951
-7.440853 -29.381936 -40.489895
-6.296641 -28.546993 -42.063242
-6.850226 -30.182844 -41.321367
-6.849334 -28.915526 -41.296951
-5.749553 -28.158361 -42.847606
-6.296641 -28.546993 -42.063242
-5.748661 -26.891042 -42.82319
-2.297553 -19.980825 -48.431792
-1.809199 -19.251283 -49.329109
-2.645373 -21.548966 -47.729832
-2.297553 -19.980825 -48.431792
-2.520581 -22.590231 -47.869777
-3.025552 -23.220121 -47.014259
-2.645373 -21.548966 -47.729832
3.544268 -2.973616 -61.925573
3.60171 -1.257228 -62.628517
3.968008 -3.755679 -62.128246
3.458144 -4.677945 -61.188318
3.544268 -2.973616 -61.925573
17.163272 -4.073462 -67.601299
16.880956 -5.72671 -66.916183
16.292857 -4.642985 -67.297611
7.180506 -54.383337 -48.565065
6.585159 -53.245824 -48.632711
8.45541 -53.31259 -49.046665
7.180506 -54.383337 -48.565065
8.977517 -51.154933 -49.641344
9.608942 -52.211294 -49.534155
8.45541 -53.31259 -49.046665
2.097799 -45.280144 -48.592484
0.93744 -46.211383 -47.877096
3.170443 -44.318329 -49.296816
2.097799 -45.280144 -48.592484
2.699603 -43.118133 -49.313161
4.262669 -43.447969 -49.928777
3.660865 -45.60998 -49.2081
3.170443 -44.318329 -49.296816
29.440351 -62.62212 -31.209089
28.572333 -64.162039 -31.452368
30.062632 -61.180502 -32.198736
30.291863 -61.046667 -31.112267
29.440351 -62.62212 -31.209089
35.857355 -40.536762 -43.487354
35.088553 -42.269134 -43.542957
35.467675 -40.320069 -44.353024
36.156952 -40.846365 -42.561825
35.857355 -40.536762 -43.487354
33.104188 -33.692593 -51.023584
32.834686 -35.850077 -50.166185
33.104188 -33.692593 -51.023584
32.505901 -33.140613 -51.789812
24.724792 -36.441114 -54.094801
23.909599 -35.776032 -54.580118
21.547076 -19.247453 -61.458731
22.331944 -19.985961 -61.110777
21.410461 -21.226748 -60.668121
20.783617 -18.596106 -61.785359
21.547076 -19.247453 -61.458731
20.082589 -17.746039 -62.130145
20.783617 -18.596106 -61.785359
19.924565 -19.638172 -61.360861
19.359282 -17.056957 -62.423398
20.218333 -16.01489 -62.847895
20.082589 -17.746039 -62.130145
-9.219545 -46.624012 -39.734331
-9.925448 -47.010656 -38.91801
-8.541291 -46.284117 -40.526024
-9.219545 -46.624012 -39.734331
-8.512431 -44.794962 -40.425829
-7.812673 -45.926424 -41.309357
-8.541291 -46.284117 -40.526024
-7.020583 -45.415313 -42.163605
-7.812673 -45.926424 -41.309357
-7.042088 -43.943956 -42.07177
-6.263676 -44.982267 -42.906433
-7.020583 -45.415313 -42.163605
-5.505769 -44.575175 -43.664057
-6.263676 -44.982267 -42.906433
-5.492091 -43.025753 -43.683642
-4.65667 -44.12231 -44.42415
-5.505769 -44.575175 -43.664057
-3.910025 -42.01839 -45.209944
-3.832511 -43.522041 -45.192829
-4.65667 -44.12231 -44.42415
-16.587674 -47.323109 -29.032755
-17.073004 -48.566114 -28.324053
-16.163418 -47.462929 -29.727847
-16.587674 -47.323109 -29.032755
-15.762382 -47.679596 -30.460225
-16.302318 -49.042206 -29.741072
-16.163418 -47.462929 -29.727847
-15.285089 -47.683481 -31.213963
-15.762382 -47.679596 -30.460225
-15.146189 -46.104204 -31.200738
-13.549786 -44.656269 -33.4468
-14.193703 -46.178922 -32.703046
-14.02498 -44.585436 -32.698228
-13.039422 -44.686596 -34.202227
-13.549786 -44.656269 -33.4468
-11.609027 -39.966273 -35.567955
-11.721376 -41.507318 -35.630163
-11.014315 -38.552481 -36.236599
-11.609027 -39.966273 -35.567955
-10.376054 -37.015857 -36.939056
-10.444156 -38.354578 -37.009949
-11.014315 -38.552481 -36.236599
7.933073 23.968693 -70.237881
7.125103 23.273232 -69.847286
8.816187 24.604487 -70.597931
9.71254 25.285796 -70.836796
8.688952 23.448591 -70.855641
7.933073 23.968693 -70.237881
8.816187 24.604487 -70.597931
19.812131 20.978144 -72.549804
18.95561 22.138162 -72.566547
20.075452 22.150088 -72.252476
19.531366 19.73598 -72.761444
19.812131 20.978144 -72.549804
18.493062 19.576529 -72.9865
19.531366 19.73598 -72.761444
-0.97948 -16.719528 -51.052542
-0.690276 -15.037588 -51.839735
-0.772274 -17.568535 -51.270037
-1.270791 -18.432495 -50.290363
-0.97948 -16.719528 -51.052542
0.700855 -12.682801 -54.732479
0.25874 -13.383492 -53.803583
0.986402 -13.517114 -54.928398
0.700855 -12.682801 -54.732479
1.188772 -11.838646 -55.699772
5.244753 1.547835 -65.367344
4.675012 0.69108 -64.506451
4.762188 2.320952 -65.176445
5.536374 -50.904812 -48.810266
6.065169 -52.031505 -48.763343
25.116222 -62.614956 -41.033525
24.552271 -64.492213 -40.224085
23.915014 -64.389346 -41.0173
34.708824 -39.501328 -46.085906
35.123306 -39.946123 -45.210042
34.28439 -41.607645 -45.284491
34.197659 -39.151405 -46.987458
34.708824 -39.501328 -46.085906
33.645497 -38.83963 -47.783184
34.197659 -39.151405 -46.987458
33.317745 -40.851074 -46.956081
33.100943 -38.494623 -48.550344
33.645497 -38.83963 -47.783184
32.5261 -37.94718 -49.349749
33.100943 -38.494623 -48.550344
32.190741 -39.991855 -48.551212
31.924484 -37.347309 -50.167053
32.834686 -35.850077 -50.166185
32.5261 -37.94718 -49.349749
30.539067 -36.387396 -51.602108
31.562563 -34.736727 -51.691536
31.209573 -36.900875 -50.894062
23.10231 -35.050459 -55.012295
23.909599 -35.776032 -54.580118
22.778459 -37.204676 -54.24399
23.510841 -32.82938 -55.796475
23.10231 -35.050459 -55.012295
22.3797 -34.258024 -55.460346
23.814265 -30.578757 -56.627251
23.510841 -32.82938 -55.796475
23.058234 -30.010717 -57.000768
23.814265 -30.578757 -56.627251
22.269042 -29.335145 -57.356318
23.058234 -30.010717 -57.000768
21.999038 -31.361373 -56.600075
21.498362 -28.472013 -57.793621
22.557558 -27.121356 -58.194315
22.269042 -29.335145 -57.356318
-20.024418 -51.753369 -22.535145
-20.051307 -53.229475 -22.434617
-19.997031 -50.283816 -22.614749
-20.041954 -48.874487 -22.676595
-19.720435 -50.826838 -23.25813
-20.024418 -51.753369 -22.535145
-19.997031 -50.283816 -22.614749
-18.983095 -48.662954 -24.803929
-19.359461 -49.754133 -24.024881
-19.316682 -48.266106 -24.116781
-18.616696 -49.062691 -25.47206
-18.983095 -48.662954 -24.803929
17.663305 26.275762 -71.48098
16.567228 26.041108 -71.772705
18.539788 25.357816 -71.69772
17.663305 26.275762 -71.48098
18.801496 26.424246 -71.126453
22.013376 26.406636 -69.702713
22.892658 25.394179 -69.765541
20.911269 26.546498 -70.220687
22.013376 26.406636 -69.702713
20.74913 25.520793 -70.862614
19.840119 26.532004 -70.701267
20.911269 26.546498 -70.220687
21.188675 22.224403 -71.835411
20.075452 22.150088 -72.252476
20.332154 23.384421 -71.852154
21.188675 22.224403 -71.835411
22.246299 22.343593 -71.36137
23.330959 22.219712 -70.835491
24.434927 22.019438 -70.228767
4.796494 3.940923 -65.765202
4.762188 2.320952 -65.176445
5.335479 4.798914 -66.567505
4.796494 3.940923 -65.765202
5.938192 5.777181 -67.385071
5.934642 4.155973 -66.854904
5.335479 4.798914 -66.567505
6.008878 7.321326 -67.902538
6.125001 8.948276 -68.448734
6.608041 6.678385 -68.189937
5.938192 5.777181 -67.385071
6.008878 7.321326 -67.902538
0.623868 -44.839227 -47.937441
0.93744 -46.211383 -47.877096
1.331897 -42.600826 -48.742425
0.623868 -44.839227 -47.937441
0.328808 -43.360106 -48.071037
-2.930999 -42.78877 -45.956436
-3.832511 -43.522041 -45.192829
-2.045033 -42.042541 -46.742885
-2.930999 -42.78877 -45.956436
-2.199899 -40.671892 -46.765072
-1.11222 -41.375046 -47.471636
-1.843321 -43.491924 -46.663
-2.045033 -42.042541 -46.742885
23.300441 -64.062715 -41.866603
23.915014 -64.389346 -41.0173
23.814952 -62.216555 -42.59384
23.300441 -64.062715 -41.866603
24.407711 -60.296309 -43.318699
25.071723 -60.591843 -42.5516
23.814952 -62.216555 -42.59384
23.723831 -59.985546 -44.041132
23.024817 -59.758654 -44.642786
24.980602 -58.360834 -43.998892
24.407711 -60.296309 -43.318699
23.723831 -59.985546 -44.041132
22.491242 -55.123678 -47.173748
23.332171 -55.552839 -46.568618
22.048101 -57.070133 -46.487247
23.059019 -52.973592 -47.856724
22.491242 -55.123678 -47.173748
21.77495 -54.490887 -47.775352
19.569327 -52.628456 -49.211611
20.303776 -53.322535 -48.765324
20.050439 -50.563293 -49.845156
19.569327 -52.628456 -49.211611
18.830669 -52.05027 -49.59536
-19.491312 -54.047519 -23.929079
-19.801792 -53.742939 -23.168605
-19.437342 -52.600971 -23.939
-19.491312 -54.047519 -23.929079
-19.274158 -54.517037 -24.603902
-17.866947 -49.504801 -26.951033
-18.249379 -49.338656 -26.247371
-17.979139 -51.127853 -26.948376
-17.866947 -49.504801 -26.951033
-17.554846 -49.929743 -27.636755
-18.460502 -55.824653 -26.799283
-18.765122 -55.482963 -26.048997
-18.293563 -54.242981 -26.829372
-18.460502 -55.824653 -26.799283
-18.179358 -56.07123 -27.555377
-17.199029 -56.897126 -29.816146
-17.577628 -56.787503 -29.051832
-16.974193 -55.336506 -29.840047
-17.199029 -56.897126 -29.816146
-16.847809 -57.121181 -30.579275
-14.547086 -54.035948 -33.689368
-15.266478 -55.70742 -32.90285
-15.059501 -54.032187 -32.886982
-14.547086 -54.035948 -33.689368
-13.830909 -52.42045 -34.428447
-11.940327 -44.556159 -35.804004
-12.481887 -44.633157 -35.030983
-11.818776 -43.046438 -35.725856
-11.670237 -47.468668 -36.662241
-12.359151 -49.095461 -35.955414
-12.217024 -47.530239 -35.907656
-11.124956 -47.395952 -37.399366
-11.670237 -47.468668 -36.662241
-10.982828 -45.830731 -37.351608
-10.548879 -47.322236 -38.145309
-11.124956 -47.395952 -37.399366
-9.814116 -45.446436 -38.861435
-9.925448 -47.010656 -38.91801
-10.548879 -47.322236 -38.145309
6.922237 20.660654 -70.183983
7.040348 21.978507 -70.057148
7.687728 21.494944 -70.622425
6.922237 20.660654 -70.183983
6.817868 19.324015 -70.211182
6.404156 13.548522 -69.60038
6.518438 15.025602 -69.883362
7.013527 12.864224 -69.962963
6.267991 12.017314 -69.246006
6.404156 13.548522 -69.60038
14.364342 25.47715 -72.046276
15.448334 25.757061 -71.957508
13.333971 25.050795 -72.07341
14.364342 25.47715 -72.046276
14.133436 24.214883 -72.448986
12.295159 24.483064 -72.061836
13.333971 25.050795 -72.07341
12.071155 23.285383 -72.322319
11.26325 23.97992 -71.908035
12.295159 24.483064 -72.061836
16.336609 18.995161 -73.249096
17.443797 19.256152 -73.158657
17.186647 17.925847 -73.199562
12.752397 14.673186 -72.702518
12.989516 16.219815 -72.916741
13.736262 15.206081 -72.926319
11.801734 14.159908 -72.407814
12.752397 14.673186 -72.702518
12.54848 13.146173 -72.417393
13.640691 8.101129 -71.443905
12.940542 9.223226 -71.630912
13.907086 9.669661 -71.907749
13.435019 6.516643 -70.950737
13.640691 8.101129 -71.443905
14.401563 6.963077 -71.227574
16.631304 3.169516 -70.192047
15.888469 4.468604 -70.587101
16.326981 1.538365 -69.629192
16.631304 3.169516 -70.192047
17.341405 1.891145 -69.785076
17.46369 -2.543066 -68.189884
16.806126 -1.364871 -68.602474
17.694645 -0.9182 -68.809631
17.163272 -4.073462 -67.601299
17.46369 -2.543066 -68.189884
-9.791462 -35.553411 -37.61264
-10.376054 -37.015857 -36.939056
-9.189971 -34.02396 -38.300035
-8.560344 -32.422722 -39.070966
-9.204403 -35.288503 -38.399801
-9.791462 -35.553411 -37.61264
-9.189971 -34.02396 -38.300035
-4.715279 -24.925959 -44.374548
-5.269553 -25.363986 -43.546192
-4.638108 -25.978613 -44.457862
-4.715279 -24.925959 -44.374548
-4.151815 -24.402164 -45.224855
-3.487702 -24.858101 -46.231187
-3.612495 -23.816837 -46.091241
-3.025552 -23.220121 -47.014259
1.961127 -7.491297 -58.257233
1.511659 -8.428658 -57.244383
2.479538 -6.537078 -59.283785
2.947046 -5.6167 -60.250349
2.341278 -8.291736 -58.488501
1.961127 -7.491297 -58.257233
2.479538 -6.537078 -59.283785
4.605854 -1.066693 -63.781425
4.12329 -0.293576 -63.590526
4.675012 0.69108 -64.506451
16.480494 -9.146938 -65.480454
15.839346 -8.050631 -65.861061
16.651689 -7.392539 -66.231887
17.126984 -10.073549 -65.174809
16.31464 -10.731641 -64.803982
16.480494 -9.146938 -65.480454
17.705317 -11.011301 -64.833828
17.126984 -10.073549 -65.174809
12.179092 -52.824365 -49.684441
10.924484 -54.082882 -49.274141
12.766966 -50.561338 -50.330565
13.382271 -51.564377 -50.120302
12.179092 -52.824365 -49.684441
10.847417 -50.937483 -50.011769
10.325311 -53.095138 -49.41709
9.608942 -52.211294 -49.534155
4.989654 -49.623369 -48.918405
4.527774 -48.253958 -49.004537
6.237284 -48.546149 -49.523258
5.536374 -50.904812 -48.810266
4.989654 -49.623369 -48.918405
18.859167 -12.686415 -64.209566
19.541277 -13.587601 -63.866411
18.812916 -14.424624 -63.484302
18.859167 -12.686415 -64.209566
18.290154 -11.943894 -64.498388
32.591429 -56.347494 -30.668157
31.851611 -57.954729 -30.851468
33.140114 -54.97216 -31.537434
32.591429 -56.347494 -30.668157
25.886372 -67.76146 -33.832611
25.422821 -67.940159 -34.835289
26.911516 -66.137715 -33.652834
25.886372 -67.76146 -33.832611
25.227176 -64.405836 -39.416309
24.552271 -64.492213 -40.224085
25.787487 -64.543556 -38.456631
25.227176 -64.405836 -39.416309
26.313789 -62.855543 -39.280632
26.274869 -64.653649 -37.480785
25.787487 -64.543556 -38.456631
26.724702 -64.723702 -36.498193
26.274869 -64.653649 -37.480785
27.323933 -63.063316 -37.338362
27.143043 -64.718448 -35.509304
26.093979 -66.308781 -35.651727
26.724702 -64.723702 -36.498193
27.90036 -64.555844 -33.501566
26.911516 -66.137715 -33.652834
27.501165 -64.721657 -34.51157
28.850564 -62.947871 -33.32793
28.260915 -64.363928 -32.469195
27.90036 -64.555844 -33.501566
33.730818 -53.441774 -32.333665
33.140114 -54.97216 -31.537434
33.056185 -54.968374 -32.581294
34.257084 -51.953437 -33.239576
33.730818 -53.441774 -32.333665
34.779841 -50.343694 -34.215479
34.257084 -51.953437 -33.239576
34.169646 -51.828245 -34.353427
35.310381 -48.637102 -35.117598
34.779841 -50.343694 -34.215479
35.783039 -47.011763 -35.958862
35.310381 -48.637102 -35.117598
35.16506 -48.593163 -36.170595
36.226813 -45.342263 -36.819521
35.783039 -47.011763 -35.958862
36.691168 -43.572648 -37.596905
36.226813 -45.342263 -36.819521
36.102074 -45.198208 -37.789244
37.086424 -41.836331 -38.431601
36.691168 -43.572648 -37.596905
36.926043 -41.683033 -39.43087
36.34782 -43.182283 -39.628415
36.707434 -41.436723 -40.492657
37.086424 -41.836331 -38.431601
36.926043 -41.683033 -39.43087
29.832115 -35.855587 -52.252499
30.539067 -36.387396 -51.602108
29.479125 -38.019735 -51.455025
25.492373 -37.200592 -53.578434
24.353331 -38.689725 -53.295446
24.724792 -36.441114 -54.094801
26.253201 -37.775175 -53.063574
25.492373 -37.200592 -53.578434
26.991971 -38.293087 -52.571926
25.859684 -39.967115 -52.287431
26.253201 -37.775175 -53.063574
28.078831 -36.794536 -52.726742
27.685313 -38.986477 -51.950599
26.991971 -38.293087 -52.571926
29.116385 -35.364154 -52.875732
28.078831 -36.794536 -52.726742
29.832115 -35.855587 -52.252499
29.116385 -35.364154 -52.875732
22.984765 -22.785181 -59.886839
22.780538 -24.931665 -59.042564
21.991104 -24.11174 -59.475893
22.984765 -22.785181 -59.886839
23.146021 -20.610461 -60.744009
3 0 97 95
3 0 99 97
3 1 102 100
3 1 104 102
3 2 107 105
3 2 109 107
3 4 112 110
3 4 114 112
3 4 116 114
3 3 119 117
3 3 121 119
3 7 124 122
3 7 126 124
3 380 130 381
3 382 381 128
3 380 381 382
3 9 133 131
3 9 135 133
3 9 137 135
3 10 140 138
3 10 142 140
3 11 145 143
3 11 147 145
3 5 150 148
3 383 153 384
3 13 385 387
3 385 154 386
3 385 386 387
3 13 156 154
3 13 158 156
3 14 161 159
3 14 163 161
3 388 164 389
3 15 167 165
3 15 169 167
3 15 171 169
3 12 174 172
3 12 176 174
3 17 390 392
3 390 177 391
3 390 391 392
3 17 179 177
3 6 181 180
3 18 184 182
3 18 186 184
3 18 188 186
3 16 191 189
3 16 193 191
3 393 194 394
3 20 197 195
3 20 199 197
3 20 201 199
3 396 395 202
3 398 397 204
3 8 207 205
3 19 210 208
3 19 211 210
3 21 213 212
3 22 214 96
3 22 215 214
3 22 217 215
3 24 218 98
3 24 219 218
3 399 220 400
3 402 401 220
3 403 222 404
3 405 223 406
3 407 406 222
3 405 406 407
3 408 225 409
3 410 227 411
3 412 411 225
3 410 411 412
3 28 413 415
3 413 228 414
3 413 414 415
3 28 229 228
3 29 232 230
3 31 233 101
3 31 234 233
3 31 236 234
3 33 237 103
3 33 238 237
3 34 241 239
3 36 242 106
3 36 243 242
3 36 245 243
3 38 246 108
3 38 247 246
3 39 250 248
3 41 251 111
3 41 252 251
3 41 254 252
3 43 255 113
3 43 256 255
3 43 257 256
3 44 258 115
3 44 259 258
3 45 262 260
3 47 263 118
3 47 264 263
3 47 265 264
3 49 266 120
3 49 267 266
3 416 268 417
3 419 418 268
3 420 269 421
3 51 422 424
3 422 270 423
3 422 423 424
3 51 271 270
3 51 425 427
3 427 426 271
3 425 426 427
3 52 428 430
3 428 272 429
3 428 429 430
3 52 273 272
3 53 431 432
3 53 433 435
3 433 274 434
3 433 434 435
3 23 275 216
3 54 276 123
3 54 277 276
3 54 278 277
3 55 279 125
3 55 280 279
3 56 436 438
3 436 281 437
3 436 437 438
3 56 282 281
3 56 284 282
3 439 285 440
3 441 286 442
3 443 442 285
3 441 442 443
3 58 444 445
3 58 446 448
3 446 287 447
3 446 447 448
3 58 288 287
3 59 289 127
3 59 290 289
3 50 449 450
3 60 451 453
3 453 452 129
3 451 452 453
3 60 454 455
3 25 456 458
3 456 291 457
3 456 457 458
3 61 292 132
3 61 459 461
3 461 460 292
3 459 460 461
3 61 462 463
3 62 464 466
3 466 465 134
3 464 465 466
3 62 467 468
3 62 469 470
3 63 471 473
3 473 472 136
3 471 472 473
3 63 474 475
3 476 293 477
3 478 477 221
3 476 477 478
3 64 294 139
3 64 295 294
3 64 296 295
3 65 297 141
3 65 298 297
3 26 479 480
3 66 481 483
3 483 482 144
3 481 482 483
3 66 484 485
3 66 486 488
3 486 299 487
3 486 487 488
3 67 300 146
3 67 301 300
3 68 302 149
3 68 303 302
3 489 304 490
3 491 490 224
3 489 490 491
3 69 305 151
3 69 306 305
3 69 307 306
3 70 492 494
3 492 308 493
3 492 493 494
3 70 309 308
3 70 310 309
3 495 311 496
3 497 312 498
3 499 498 311
3 497 498 499
3 500 313 501
3 503 502 313
3 71 504 505
3 71 506 508
3 506 314 507
3 506 507 508
3 71 315 314
3 72 316 152
3 72 317 316
3 509 318 510
3 73 319 155
3 73 320 319
3 73 321 320
3 74 322 157
3 74 323 322
3 27 324 226
3 75 325 160
3 75 326 325
3 75 327 326
3 76 328 162
3 76 329 328
3 77 511 513
3 511 330 512
3 511 512 513
3 77 331 330
3 30 332 231
3 78 333 166
3 78 334 333
3 78 335 334
3 79 336 168
3 79 337 336
3 79 338 337
3 80 339 170
3 80 340 339
3 32 341 235
3 81 342 173
3 81 343 342
3 81 344 343
3 515 514 175
3 516 345 517
3 83 346 178
3 83 347 346
3 84 518 519
3 84 520 522
3 520 348 521
3 520 521 522
3 35 349 240
3 85 350 183
3 85 351 350
3 85 352 351
3 86 353 185
3 86 354 353
3 86 355 354
3 87 356 187
3 87 357 356
3 37 358 244
3 88 359 190
3 88 360 359
3 88 361 360
3 82 362 192
3 82 523 525
3 525 524 362
3 523 524 525
3 90 526 527
3 90 528 530
3 528 363 529
3 528 529 530
3 531 364 532
3 40 365 249
3 91 366 196
3 91 367 366
3 91 368 367
3 92 369 198
3 92 370 369
3 92 371 370
3 93 372 200
3 93 373 372
3 42 374 253
3 533 375 534
3 535 534 203
3 533 534 535
3 537 536 375
3 57 376 283
3 94 377 206
3 94 378 377
3 46 379 261
3 48 538 539
3 541 540 209
3 89 542 543
3 89 544 545
3 95 96 21
3 97 96 95
3 97 22 96
3 97 98 22
3 99 98 97
3 99 24 98
3 546 28 547
3 100 101 29
3 102 101 100
3 102 31 101
3 102 103 31
3 104 103 102
3 104 33 103
3 105 106 34
3 107 106 105
3 107 36 106
3 107 108 36
3 109 108 107
3 109 38 108
3 110 111 39
3 112 111 110
3 112 41 111
3 112 113 41
3 114 113 112
3 114 43 113
3 114 115 43
3 116 115 114
3 116 44 115
3 117 118 45
3 119 118 117
3 119 47 118
3 119 120 47
3 121 120 119
3 121 49 120
3 548 51 549
3 551 550 51
3 552 52 553
3 554 53 555
3 122 123 23
3 124 123 122
3 124 54 123
3 124 125 54
3 126 125 124
3 126 55 125
3 556 56 557
3 559 558 56
3 560 58 561
3 562 127 563
3 564 563 58
3 562 563 564
3 565 127 566
3 567 59 568
3 569 568 127
3 567 568 569
3 128 129 50
3 130 129 128
3 130 60 129
3 131 132 25
3 133 132 131
3 133 61 132
3 133 134 61
3 135 134 133
3 135 62 134
3 135 136 62
3 137 136 135
3 137 63 136
3 138 570 572
3 570 139 571
3 570 571 572
3 140 139 138
3 140 64 139
3 140 141 64
3 142 141 140
3 142 65 141
3 143 144 26
3 145 144 143
3 145 66 144
3 145 146 66
3 147 146 145
3 147 67 146
3 148 573 575
3 573 149 574
3 573 574 575
3 150 149 148
3 150 68 149
3 576 151 577
3 578 151 579
3 580 69 581
3 582 581 151
3 580 581 582
3 584 583 69
3 585 70 586
3 588 587 70
3 589 71 590
3 591 152 592
3 593 592 71
3 591 592 593
3 153 594 596
3 594 152 595
3 594 595 596
3 153 72 152
3 154 597 598
3 154 599 600
3 154 601 603
3 601 155 602
3 601 602 603
3 156 155 154
3 156 73 155
3 156 157 73
3 158 157 156
3 158 74 157
3 159 160 27
3 161 160 159
3 161 75 160
3 161 162 75
3 163 162 161
3 163 76 162
3 164 604 605
3 164 606 608
3 606 77 607
3 606 607 608
3 165 166 30
3 167 166 165
3 167 78 166
3 167 168 78
3 169 168 167
3 169 79 168
3 169 170 79
3 171 170 169
3 171 80 170
3 172 173 32
3 174 173 172
3 174 81 173
3 174 175 81
3 176 175 174
3 176 609 611
3 611 610 175
3 609 610 611
3 177 612 613
3 177 614 615
3 177 616 618
3 616 178 617
3 616 617 618
3 179 178 177
3 179 83 178
3 180 619 620
3 181 621 623
3 623 622 180
3 621 622 623
3 181 624 626
3 624 84 625
3 624 625 626
3 182 183 35
3 184 183 182
3 184 85 183
3 184 185 85
3 186 185 184
3 186 86 185
3 186 187 86
3 188 187 186
3 188 87 187
3 189 190 37
3 191 190 189
3 191 88 190
3 191 192 88
3 193 192 191
3 193 82 192
3 194 627 628
3 194 629 631
3 629 90 630
3 629 630 631
3 195 196 40
3 197 196 195
3 197 91 196
3 197 198 91
3 199 198 197
3 199 92 198
3 199 200 92
3 201 200 199
3 201 93 200
3 202 203 42
3 632 203 633
3 634 633 202
3 632 633 634
3 636 635 203
3 204 637 638
3 640 639 204
3 205 206 57
3 207 206 205
3 207 94 206
3 642 641 46
3 208 209 48
3 210 209 208
3 210 643 645
3 645 644 209
3 643 644 645
3 210 646 647
3 211 648 650
3 650 649 210
3 648 649 650
3 211 651 653
3 651 89 652
3 651 652 653
3 212 654 655
3 213 656 658
3 658 657 212
3 656 657 658
3 213 659 660
3 96 213 21
3 214 213 96
3 214 661 663
3 663 662 213
3 661 662 663
3 214 664 665
3 215 666 668
3 668 667 214
3 666 667 668
3 215 669 670
3 215 671 673
3 671 216 672
3 671 672 673
3 217 216 215
3 217 23 216
3 98 217 22
3 218 217 98
3 218 23 217
3 218 122 23
3 219 122 218
3 219 7 122
3 674 25 675
3 676 25 677
3 678 131 679
3 680 679 25
3 678 679 680
3 220 681 683
3 681 131 682
3 681 682 683
3 220 9 131
3 220 221 9
3 684 221 685
3 686 685 220
3 684 685 686
3 688 687 221
3 689 138 690
3 691 138 692
3 693 10 694
3 695 694 138
3 693 694 695
3 696 26 697
3 222 698 699
3 222 700 702
3 700 26 701
3 700 701 702
3 222 143 26
3 223 143 222
3 223 11 143
3 703 224 704
3 705 704 5
3 703 704 705
3 706 224 707
3 709 708 224
3 225 710 711
3 225 712 714
3 712 13 713
3 712 713 714
3 225 226 13
3 227 226 225
3 227 27 226
3 715 227 716
3 228 717 719
3 717 227 718
3 717 718 719
3 228 27 227
3 228 159 27
3 229 159 228
3 229 14 159
3 230 720 722
3 720 231 721
3 720 721 722
3 232 231 230
3 232 30 231
3 101 232 29
3 233 232 101
3 233 30 232
3 233 165 30
3 234 165 233
3 234 15 165
3 234 235 15
3 236 235 234
3 236 32 235
3 103 236 31
3 237 236 103
3 237 32 236
3 237 172 32
3 238 172 237
3 238 12 172
3 723 17 724
3 239 240 6
3 241 240 239
3 241 35 240
3 106 241 34
3 242 241 106
3 242 35 241
3 242 182 35
3 243 182 242
3 243 18 182
3 243 244 18
3 245 244 243
3 245 37 244
3 108 245 36
3 246 245 108
3 246 37 245
3 246 189 37
3 247 189 246
3 247 16 189
3 248 725 727
3 725 249 726
3 725 726 727
3 250 249 248
3 250 40 249
3 111 250 39
3 251 250 111
3 251 40 250
3 251 195 40
3 252 195 251
3 252 20 195
3 252 253 20
3 254 253 252
3 254 42 253
3 113 254 41
3 255 254 113
3 255 42 254
3 255 202 42
3 256 202 255
3 256 728 730
3 730 729 202
3 728 729 730
3 256 731 732
3 257 733 735
3 735 734 256
3 733 734 735
3 257 736 737
3 115 257 43
3 258 257 115
3 258 738 740
3 740 739 257
3 738 739 740
3 258 741 743
3 741 204 742
3 741 742 743
3 259 204 258
3 259 744 746
3 746 745 204
3 744 745 746
3 260 261 8
3 262 261 260
3 262 46 261
3 118 262 45
3 263 262 118
3 263 46 262
3 263 747 749
3 749 748 46
3 747 748 749
3 264 750 752
3 752 751 263
3 750 751 752
3 264 753 754
3 264 755 756
3 265 757 759
3 759 758 264
3 757 758 759
3 265 760 762
3 760 48 761
3 760 761 762
3 120 265 47
3 266 265 120
3 266 48 265
3 266 208 48
3 267 208 266
3 267 19 208
3 763 50 764
3 268 765 766
3 268 767 769
3 767 50 768
3 767 768 769
3 268 128 50
3 770 128 771
3 772 771 268
3 770 771 772
3 774 773 128
3 775 148 776
3 269 777 779
3 777 148 778
3 777 778 779
3 269 5 148
3 270 780 781
3 270 782 783
3 270 784 786
3 784 269 785
3 784 785 786
3 271 269 270
3 271 5 269
3 271 787 789
3 789 788 5
3 787 788 789
3 791 790 271
3 793 792 51
3 794 230 795
3 796 230 797
3 798 29 799
3 800 799 230
3 798 799 800
3 272 801 802
3 272 803 805
3 803 29 804
3 803 804 805
3 272 100 29
3 273 100 272
3 273 1 100
3 806 180 807
3 274 808 810
3 808 180 809
3 808 809 810
3 274 6 180
3 216 811 812
3 275 813 815
3 815 814 216
3 813 814 815
3 275 816 818
3 816 53 817
3 816 817 818
3 123 275 23
3 276 275 123
3 276 53 275
3 276 274 53
3 277 274 276
3 277 6 274
3 277 239 6
3 278 239 277
3 278 34 239
3 125 278 54
3 279 278 125
3 279 34 278
3 279 105 34
3 280 105 279
3 280 2 105
3 819 248 820
3 821 248 822
3 823 39 824
3 825 824 248
3 823 824 825
3 281 826 827
3 281 828 830
3 828 39 829
3 828 829 830
3 281 110 39
3 282 110 281
3 282 4 110
3 282 283 4
3 284 283 282
3 284 57 283
3 831 284 832
3 833 832 56
3 831 832 833
3 285 834 836
3 834 284 835
3 834 835 836
3 285 57 284
3 285 205 57
3 286 205 285
3 286 8 205
3 837 286 838
3 287 839 841
3 839 286 840
3 839 840 841
3 287 8 286
3 287 260 8
3 288 260 287
3 288 45 260
3 127 288 58
3 289 288 127
3 289 45 288
3 289 117 45
3 290 117 289
3 290 3 117
3 129 842 844
3 844 843 50
3 842 843 844
3 846 845 129
3 847 130 848
3 291 849 851
3 849 130 850
3 849 850 851
3 291 60 130
3 132 291 25
3 292 291 132
3 292 60 291
3 292 852 854
3 854 853 60
3 852 853 854
3 856 855 292
3 134 857 859
3 859 858 61
3 857 858 859
3 861 860 134
3 136 862 864
3 864 863 62
3 862 863 864
3 866 865 136
3 221 137 9
3 293 137 221
3 293 63 137
3 139 867 869
3 867 293 868
3 867 868 869
3 294 293 139
3 294 63 293
3 294 870 872
3 872 871 63
3 870 871 872
3 295 873 875
3 875 874 294
3 873 874 875
3 295 876 877
3 295 878 880
3 878 212 879
3 878 879 880
3 296 212 295
3 296 21 212
3 141 296 64
3 297 296 141
3 297 21 296
3 297 95 21
3 298 95 297
3 298 0 95
3 144 881 883
3 883 882 26
3 881 882 883
3 885 884 144
3 299 886 887
3 299 888 890
3 888 52 889
3 888 889 890
3 146 299 66
3 300 299 146
3 300 52 299
3 300 273 52
3 301 273 300
3 301 1 273
3 149 891 892
3 302 893 895
3 895 894 149
3 893 894 895
3 302 896 897
3 302 898 900
3 898 223 899
3 898 899 900
3 303 223 302
3 303 11 223
3 224 150 5
3 304 150 224
3 304 68 150
3 151 901 903
3 901 304 902
3 901 902 903
3 305 304 151
3 305 68 304
3 305 303 68
3 306 303 305
3 306 11 303
3 306 147 11
3 307 147 306
3 307 67 147
3 904 307 905
3 906 905 69
3 904 905 906
3 308 907 909
3 907 307 908
3 907 908 909
3 308 67 307
3 308 301 67
3 309 301 308
3 309 1 301
3 309 104 1
3 310 104 309
3 310 33 104
3 910 310 911
3 912 911 70
3 910 911 912
3 311 913 915
3 913 310 914
3 913 914 915
3 311 33 310
3 311 238 33
3 312 238 311
3 312 12 238
3 916 312 917
3 313 918 920
3 918 312 919
3 918 919 920
3 313 12 312
3 313 176 12
3 921 176 922
3 923 922 313
3 921 922 923
3 925 924 176
3 926 10 927
3 314 928 929
3 314 930 932
3 930 10 931
3 930 931 932
3 314 142 10
3 315 142 314
3 315 65 142
3 152 315 71
3 316 315 152
3 316 65 315
3 316 298 65
3 317 298 316
3 317 0 298
3 933 153 934
3 318 935 937
3 935 153 936
3 935 936 937
3 318 72 153
3 155 938 940
3 938 318 939
3 938 939 940
3 319 318 155
3 319 72 318
3 319 317 72
3 320 317 319
3 320 0 317
3 320 99 0
3 321 99 320
3 321 24 99
3 157 321 73
3 322 321 157
3 322 24 321
3 322 219 24
3 323 219 322
3 323 7 219
3 226 158 13
3 324 158 226
3 324 74 158
3 160 324 27
3 325 324 160
3 325 74 324
3 325 323 74
3 326 323 325
3 326 7 323
3 326 126 7
3 327 126 326
3 327 55 126
3 162 327 75
3 328 327 162
3 328 55 327
3 328 280 55
3 329 280 328
3 329 2 280
3 941 28 942
3 330 943 944
3 330 945 947
3 945 28 946
3 945 946 947
3 330 229 28
3 331 229 330
3 331 14 229
3 231 948 950
3 948 164 949
3 948 949 950
3 332 164 231
3 332 77 164
3 166 332 30
3 333 332 166
3 333 77 332
3 333 331 77
3 334 331 333
3 334 14 331
3 334 163 14
3 335 163 334
3 335 76 163
3 168 335 78
3 336 335 168
3 336 76 335
3 336 329 76
3 337 329 336
3 337 2 329
3 337 109 2
3 338 109 337
3 338 38 109
3 170 338 79
3 339 338 170
3 339 38 338
3 339 247 38
3 340 247 339
3 340 16 247
3 235 171 15
3 341 171 235
3 341 80 171
3 173 341 32
3 342 341 173
3 342 80 341
3 342 340 80
3 343 340 342
3 343 16 340
3 343 193 16
3 344 193 343
3 344 82 193
3 175 344 81
3 951 344 952
3 953 952 175
3 951 952 953
3 954 82 955
3 956 955 344
3 954 955 956
3 958 957 82
3 345 959 960
3 345 961 963
3 961 59 962
3 961 962 963
3 178 964 966
3 964 345 965
3 964 965 966
3 346 345 178
3 346 59 345
3 346 290 59
3 347 290 346
3 347 3 290
3 348 967 968
3 348 969 971
3 969 17 970
3 969 970 971
3 240 181 6
3 349 181 240
3 349 84 181
3 183 349 35
3 350 349 183
3 350 84 349
3 350 348 84
3 351 348 350
3 351 17 348
3 351 179 17
3 352 179 351
3 352 83 179
3 185 352 85
3 353 352 185
3 353 83 352
3 353 347 83
3 354 347 353
3 354 3 347
3 354 121 3
3 355 121 354
3 355 49 121
3 187 355 86
3 356 355 187
3 356 49 355
3 356 267 49
3 357 267 356
3 357 19 267
3 244 188 18
3 358 188 244
3 358 87 188
3 190 358 37
3 359 358 190
3 359 87 358
3 359 357 87
3 360 357 359
3 360 19 357
3 360 211 19
3 361 211 360
3 361 89 211
3 192 361 88
3 362 361 192
3 362 89 361
3 362 972 974
3 974 973 89
3 972 973 974
3 976 975 362
3 363 977 978
3 363 979 980
3 364 981 982
3 364 983 984
3 249 985 986
3 365 987 989
3 989 988 249
3 987 988 989
3 365 990 991
3 196 365 40
3 366 365 196
3 366 992 994
3 994 993 365
3 992 993 994
3 366 995 997
3 995 364 996
3 995 996 997
3 367 364 366
3 367 998 1000
3 1000 999 364
3 998 999 1000
3 367 1001 1003
3 1001 194 1002
3 1001 1002 1003
3 368 194 367
3 368 90 194
3 198 368 91
3 369 368 198
3 369 90 368
3 369 363 90
3 370 363 369
3 370 1004 1006
3 1006 1005 363
3 1004 1005 1006
3 370 1007 1008
3 371 1009 1011
3 1011 1010 370
3 1009 1010 1011
3 371 1012 1013
3 200 371 92
3 372 371 200
3 372 1014 1016
3 1016 1015 371
3 1014 1015 1016
3 372 1017 1018
3 373 1019 1021
3 1021 1020 372
3 1019 1020 1021
3 373 1022 1023
3 253 201 20
3 374 201 253
3 374 93 201
3 203 374 42
3 375 374 203
3 375 93 374
3 375 373 93
3 1024 373 1025
3 1026 1025 375
3 1024 1025 1026
3 1028 1027 373
3 283 116 4
3 376 116 283
3 376 44 116
3 206 376 57
3 377 376 206
3 377 44 376
3 377 259 44
3 378 259 377
3 378 1029 1031
3 1031 1030 259
3 1029 1030 1031
3 261 207 8
3 379 207 261
3 379 94 207
3 1032 379 1033
3 1034 1033 46
3 1032 1033 1034
3 1035 379 1036
3 1037 94 1038
3 1039 1038 379
3 1037 1038 1039
3 1040 378 1041
3 1042 1041 94
3 1040 1041 1042
3 1043 378 1044
3 1046 1045 378
3 209 1047 1049
3 1049 1048 48
3 1047 1048 1049
3 1051 1050 209
