ply
format ascii 1.0
element vertex 241
property float x
property float y
property float z
element face 243
property list uchar int vertex_index
end_header
-5.613364 29.445332 -65.26532
-12.573693 32.623173 -62.722458
-12.739565 26.946716 -70.018173
-9.004798 31.590166 -64.582909
-12.680813 30.251247 -66.763519
-8.919678 28.421505 -68.008133
-8.889956 24.448641 -70.466385
-5.532343 25.623814 -67.884689
-15.863613 32.509529 -59.865494
-19.703669 30.309891 -61.035988
-16.276468 30.807854 -64.501144
-12.458892 34.373253 -58.26487
-9.267519 34.117668 -60.625797
-5.706524 32.66906 -62.033184
-2.597654 30.445036 -62.140545
-7.352966 30.672647 -65.084328
-8.943569 29.970074 -66.526947
-7.186428 29.008818 -66.648842
-7.218365 27.17724 -68.096611
-5.5672 27.562731 -66.713638
-14.305949 32.703053 -61.365078
-16.169575 31.733356 -62.217945
-14.411837 31.782902 -63.637661
-12.583318 28.692995 -68.550491
-14.509259 29.236872 -67.777687
-14.554895 27.679468 -69.364845
-7.238864 23.039619 -70.159256
-9.054275 22.265598 -71.293602
-13.98726 34.11198 -56.655563
-12.241705 35.248821 -55.766846
-7.749679 36.2658 -57.319202
-9.220572 35.221821 -58.588303
-7.5314 34.965149 -59.390568
-7.453078 33.576668 -61.430126
-5.860105 34.298153 -60.150463
-2.758374 32.393452 -60.719402
-19.95941 29.574038 -63.234303
-21.681076 29.032627 -61.324738
-10.902794 32.170929 -63.934532
-12.658879 31.53684 -64.807098
-10.763557 30.917862 -65.82135
-10.74777 29.439669 -67.591156
-10.875863 27.769714 -69.153633
-10.822744 25.840139 -70.425613
-9.025895 26.606947 -69.386292
-7.291544 25.264931 -69.272079
-5.583963 23.604103 -68.831749
-17.565969 31.96435 -58.008965
-19.390017 30.850161 -58.604221
-17.876892 31.420053 -60.425117
-17.992445 30.70216 -62.93919
-18.275803 29.677982 -65.117088
-14.553565 30.61414 -65.822937
-16.411142 29.593161 -66.607941
-10.803935 23.755224 -71.386749
-10.85291 21.289162 -72.113335
-15.752689 33.057411 -57.290756
-14.060684 33.48555 -59.088245
-12.59411 33.488411 -60.651485
-10.776276 35.353924 -57.327274
-10.947515 34.379139 -59.522717
-10.877607 33.371216 -61.723644
-9.188635 32.93042 -62.644218
-7.342142 32.189598 -63.275566
-5.643952 31.074911 -63.729546
-4.330753 33.483559 -60.551334
-4.091657 31.703722 -62.163853
-3.984968 29.878252 -63.691528
-4.028709 27.951927 -65.179375
-3.932946 25.998453 -66.306038
-4.082232 23.895779 -67.427719
-21.199478 29.686329 -59.019997
-13.702236 26.366855 -70.366509
-14.609901 26.733232 -70.039845
-13.64723 27.313092 -69.691509
-12.751152 25.917873 -70.620365
-13.702236 26.366855 -70.366509
-7.279724 21.860936 -70.487274
-6.431664 22.22009 -69.847347
-12.200146 35.641913 -54.487502
-12.991256 35.005434 -54.951407
-6.806372 35.401838 -58.805537
-7.64054 35.615474 -58.354885
-6.915511 36.052164 -57.769853
-5.970724 35.06834 -59.185484
-6.695752 34.631651 -59.770516
-6.806372 35.401838 -58.805537
-20.995069 28.859685 -63.38018
-20.177534 28.998542 -64.261225
-16.462229 28.87258 -67.505443
-15.460201 29.415017 -67.192814
-15.511287 28.694436 -68.090317
-17.388185 29.046549 -66.806832
-16.462229 28.87258 -67.505443
-9.929537 20.605174 -71.934143
-9.953592 21.77738 -71.703469
-9.030219 21.093392 -71.524277
-10.878794 20.113018 -72.29126
-9.929537 20.605174 -71.934143
-15.560175 33.347721 -55.955928
-16.444896 32.74674 -56.395933
-9.999845 35.887878 -56.797463
-10.750553 35.848532 -56.116602
-3.57606 33.898508 -59.84052
-4.375105 34.342024 -59.670221
-3.262734 27.072729 -64.968357
-3.329035 28.151364 -64.40538
-3.214853 26.095992 -65.531689
-3.980828 26.97519 -65.742706
-3.262734 27.072729 -64.968357
-3.376651 22.892059 -67.026577
-3.340724 24.019618 -66.616318
-4.090024 22.738937 -67.807525
-3.376651 22.892059 -67.026577
-22.466506 28.658177 -60.128653
-22.66093 28.327598 -61.336794
-15.534105 27.915734 -68.883895
-15.511287 28.694436 -68.090317
-14.532077 28.45817 -68.571266
-15.571495 27.087353 -69.615818
-15.534105 27.915734 -68.883895
-15.6265 26.141116 -70.290818
-15.571495 27.087353 -69.615818
-14.609901 26.733232 -70.039845
-8.187429 21.473925 -71.054447
-8.14657 22.652608 -70.726429
-7.279724 21.860936 -70.487274
-9.030219 21.093392 -71.524277
-8.187429 21.473925 -71.054447
-13.864034 34.437014 -55.395765
-14.67746 33.875006 -55.638332
-13.114482 34.680401 -56.211205
-13.864034 34.437014 -55.395765
-12.991256 35.005434 -54.951407
-8.485126 35.74381 -57.953753
-9.221993 35.821827 -57.427977
-8.486547 36.343817 -56.793426
-2.0604 32.742472 -60.032742
-2.789871 33.353454 -59.924554
-1.983935 31.685847 -60.692452
-2.0604 32.742472 -60.032742
-1.903576 30.711638 -61.403023
-2.678014 31.419244 -61.429974
-1.983935 31.685847 -60.692452
-21.855902 28.58898 -62.425398
-20.820243 29.303333 -62.279521
-20.995069 28.859685 -63.38018
-22.66093 28.327598 -61.336794
-21.855902 28.58898 -62.425398
-5.604213 22.502331 -69.183594
-6.431664 22.22009 -69.847347
-6.411414 23.321861 -69.495503
-7.759781 36.931766 -56.255323
-8.486547 36.343817 -56.793426
-6.959186 36.813623 -56.78063
-7.759781 36.931766 -56.255323
-6.915511 36.052164 -57.769853
-6.959186 36.813623 -56.78063
-18.477993 31.407255 -58.306593
-19.18446 31.042913 -57.284217
-18.272436 31.600008 -56.98659
-19.335731 29.050514 -65.202618
-20.177534 28.998542 -64.261225
-19.117607 29.62601 -64.175695
-18.320515 29.08896 -66.061405
-17.343473 29.635571 -65.862515
-17.388185 29.046549 -66.806832
-19.335731 29.050514 -65.202618
-18.320515 29.08896 -66.061405
-11.792741 25.364584 -70.824085
-12.751152 25.917873 -70.620365
-11.781154 26.393428 -70.221893
-11.783337 24.322127 -71.304653
-11.792741 25.364584 -70.824085
-10.813339 24.797681 -70.906181
-11.742759 23.208904 -71.729523
-11.783337 24.322127 -71.304653
-11.767246 21.975873 -72.092816
-11.742759 23.208904 -71.729523
-10.828422 22.522193 -71.750042
-11.846855 20.707364 -72.38498
-11.767246 21.975873 -72.092816
-11.872739 19.53122 -72.562905
-11.846855 20.707364 -72.38498
-10.878794 20.113018 -72.29126
-17.351537 32.200209 -56.755038
-18.272436 31.600008 -56.98659
-16.659329 32.51088 -57.649861
-17.351537 32.200209 -56.755038
-16.444896 32.74674 -56.395933
-14.869974 33.584696 -56.97316
-15.560175 33.347721 -55.955928
-14.67746 33.875006 -55.638332
-11.483268 35.79598 -55.336388
-12.200146 35.641913 -54.487502
-11.50899 35.301372 -56.54706
-11.483268 35.79598 -55.336388
-10.750553 35.848532 -56.116602
-9.998424 35.287872 -57.957789
-9.999845 35.887878 -56.797463
-9.221993 35.821827 -57.427977
-5.139781 34.749321 -59.469786
-5.970724 35.06834 -59.185484
-5.095429 33.890856 -60.350898
-5.139781 34.749321 -59.469786
-4.375105 34.342024 -59.670221
-3.544563 32.938506 -60.635368
-3.57606 33.898508 -59.84052
-2.789871 33.353454 -59.924554
-1.87915 29.638725 -62.036894
-1.903576 30.711638 -61.403023
-2.613507 29.397918 -62.885965
-1.87915 29.638725 -62.036894
-3.307164 29.114526 -63.661457
-3.291311 30.161644 -62.916037
-2.613507 29.397918 -62.885965
-4.006838 28.91509 -64.435451
-3.307164 29.114526 -63.661457
-3.329035 28.151364 -64.40538
-3.266081 25.070954 -66.055477
-3.214853 26.095992 -65.531689
-4.007589 24.947116 -66.866878
-3.266081 25.070954 -66.055477
-3.340724 24.019618 -66.616318
-4.840889 22.5931 -68.50954
-4.833098 23.749941 -68.129734
-4.090024 22.738937 -67.807525
-5.604213 22.502331 -69.183594
-4.840889 22.5931 -68.50954
-20.07153 30.460186 -57.551062
-19.18446 31.042913 -57.284217
-20.97626 29.87827 -57.758949
-20.07153 30.460186 -57.551062
-20.294747 30.268245 -58.812109
-21.909421 29.237203 -57.862065
-20.97626 29.87827 -57.758949
-22.225707 28.985028 -58.976282
-21.440277 29.359478 -60.172368
-22.466506 28.658177 -60.128653
-21.909421 29.237203 -57.862065
-22.225707 28.985028 -58.976282
3 0 17 15
3 0 19 17
3 1 22 20
3 2 25 23
3 2 72 74
3 74 73 25
3 72 73 74
3 2 75 76
3 78 77 26
3 79 29 80
3 81 32 82
3 83 82 30
3 81 82 83
3 84 34 85
3 86 85 32
3 84 85 86
3 88 87 36
3 3 40 38
3 5 41 16
3 5 42 41
3 5 44 42
3 7 45 18
3 7 46 45
3 8 49 47
3 10 50 21
3 10 51 50
3 4 52 39
3 89 53 90
3 91 90 24
3 89 90 91
3 93 92 53
3 6 54 43
3 94 55 95
3 96 95 27
3 94 95 96
3 98 97 55
3 99 56 100
3 11 57 28
3 11 58 57
3 101 59 102
3 12 60 31
3 12 61 60
3 12 62 61
3 13 63 33
3 13 64 63
3 103 65 104
3 14 66 35
3 14 67 66
3 105 68 106
3 107 69 108
3 109 108 68
3 107 108 109
3 110 70 111
3 113 112 70
3 9 71 48
3 115 114 37
3 15 16 3
3 17 16 15
3 17 5 16
3 17 18 5
3 19 18 17
3 19 7 18
3 20 21 8
3 22 21 20
3 22 10 21
3 23 24 4
3 25 24 23
3 25 116 118
3 118 117 24
3 116 117 118
3 25 119 120
3 123 122 25
3 121 122 123
3 26 27 6
3 124 27 125
3 126 125 26
3 124 125 126
3 128 127 27
3 129 28 130
3 29 131 133
3 131 28 132
3 131 132 133
3 29 11 28
3 30 134 136
3 134 31 135
3 134 135 136
3 32 31 30
3 32 12 31
3 32 33 12
3 34 33 32
3 34 13 33
3 137 35 138
3 139 35 140
3 141 14 142
3 143 142 35
3 141 142 143
3 36 37 9
3 144 37 145
3 146 145 36
3 144 145 146
3 148 147 37
3 38 39 1
3 40 39 38
3 40 4 39
3 16 40 3
3 41 40 16
3 41 4 40
3 41 23 4
3 42 23 41
3 42 2 23
3 42 43 2
3 44 43 42
3 44 6 43
3 18 44 5
3 45 44 18
3 45 6 44
3 45 26 6
3 46 26 45
3 46 149 151
3 151 150 26
3 149 150 151
3 152 30 153
3 154 30 155
3 157 156 30
3 47 158 160
3 158 48 159
3 158 159 160
3 49 48 47
3 49 9 48
3 21 49 8
3 50 49 21
3 50 9 49
3 50 36 9
3 51 36 50
3 51 161 163
3 163 162 36
3 161 162 163
3 39 22 1
3 52 22 39
3 52 10 22
3 24 52 4
3 53 52 24
3 53 10 52
3 53 51 10
3 164 51 165
3 166 165 53
3 164 165 166
3 168 167 51
3 43 169 171
3 171 170 2
3 169 170 171
3 54 172 174
3 174 173 43
3 172 173 174
3 54 175 176
3 27 54 6
3 55 54 27
3 55 177 179
3 179 178 54
3 177 178 179
3 55 180 181
3 184 183 55
3 182 183 184
3 185 47 186
3 56 187 189
3 187 47 188
3 187 188 189
3 56 8 47
3 28 190 192
3 190 56 191
3 190 191 192
3 57 56 28
3 57 8 56
3 57 20 8
3 58 20 57
3 58 1 20
3 193 29 194
3 59 195 197
3 195 29 196
3 195 196 197
3 59 11 29
3 31 198 200
3 198 59 199
3 198 199 200
3 60 59 31
3 60 11 59
3 60 58 11
3 61 58 60
3 61 1 58
3 61 38 1
3 62 38 61
3 62 3 38
3 33 62 12
3 63 62 33
3 63 3 62
3 63 15 3
3 64 15 63
3 64 0 15
3 201 34 202
3 65 203 205
3 203 34 204
3 203 204 205
3 65 13 34
3 35 206 208
3 206 65 207
3 206 207 208
3 66 65 35
3 66 13 65
3 66 64 13
3 67 64 66
3 67 0 64
3 209 14 210
3 211 14 212
3 213 67 214
3 215 214 14
3 213 214 215
3 68 216 218
3 216 67 217
3 216 217 218
3 68 0 67
3 68 19 0
3 69 19 68
3 69 7 19
3 219 69 220
3 70 221 223
3 221 69 222
3 221 222 223
3 70 7 69
3 70 46 7
3 224 46 225
3 226 225 70
3 224 225 226
3 228 227 46
3 48 229 230
3 71 231 233
3 233 232 48
3 231 232 233
3 71 234 235
3 37 71 9
3 236 71 237
3 238 237 37
3 236 237 238
3 240 239 71
