ply
format ascii 1.0
element vertex 339
property float x
property float y
property float z
element face 356
property list uchar int vertex_index
end_header
-36.557617 42.758991 13.262677
-33.291344 73.481575 0.537523
-33.532192 53.716431 17.899597
-35.186871 58.668724 6.534682
-32.45055 67.327248 12.862076
-32.110786 49.336823 27.60648
-34.208519 38.426914 23.43647
-32.471657 57.825024 20.05521
-33.026588 60.67437 15.170556
-32.068691 63.995361 17.948811
-32.734913 51.45232 22.900045
-34.269394 66.130615 3.451054
-35.851204 60.519714 0.547992
-34.785595 68.031776 -2.786148
-35.184544 69.514633 -9.318459
-35.353409 41.0303 18.477612
-34.938328 48.759846 15.631475
-35.998081 50.823803 9.877137
-34.34026 56.329849 12.579843
-33.668316 63.569801 9.510971
-32.922848 70.542595 6.844294
-32.258957 41.879307 30.228645
-33.103737 36.12841 28.220528
-33.002907 44.06916 25.624708
-33.934837 46.416031 20.752296
-31.841394 74.121269 10.596179
-32.074619 77.532578 4.520561
-32.059753 59.679497 21.148384
-32.282318 60.846745 18.971643
-31.919054 62.262733 20.215927
-32.19762 56.759335 22.341602
-33.779652 69.733574 2.130028
-34.483131 67.409515 0.391394
-33.994034 71.017067 -1.224492
-34.181366 72.063904 -4.449552
-33.460625 74.762535 -2.785229
-35.958332 42.015713 15.884727
-36.09848 37.874977 17.419367
-36.722713 38.899921 14.766443
-34.221359 51.1777 16.801624
-34.710873 52.580669 13.892052
-33.955055 54.86956 15.324269
-32.766502 63.832394 14.006853
-33.363518 61.897423 12.537248
-33.035122 65.381203 11.222381
-33.277695 67.044838 8.309391
-32.671528 68.987038 9.991183
-32.212242 45.657539 28.884216
-32.599705 42.964024 27.973616
-32.512333 46.802696 26.628277
-33.140511 52.37257 20.456516
-33.278557 48.913948 21.958454
-33.730389 50.156349 19.382532
-34.428158 47.462101 18.328541
-35.608166 54.83622 8.173018
-36.443279 51.745476 7.013088
-36.016811 55.671703 5.318001
-33.632324 37.474831 25.791687
-33.615372 33.347279 27.124163
-34.20145 34.277328 24.890013
-31.505192 77.338593 9.74626
-31.959337 75.844315 7.711316
-31.617996 79.007774 6.462151
-32.94088 56.094173 18.898537
-33.268238 57.308662 16.53821
-32.734447 59.307972 17.640991
-32.503494 62.373699 16.595057
-32.258316 65.558235 15.536892
-32.403915 50.362328 25.264143
-32.29969 53.709064 23.78437
-32.636791 54.691875 21.321169
-34.737549 62.44305 4.921658
-35.518196 59.787434 3.513445
-35.043137 63.467766 1.906961
-35.299477 64.301941 -0.962934
-35.584816 64.990303 -4.337529
-34.977951 68.880943 -5.902857
-34.41774 72.690659 -7.875782
-34.804298 39.583126 20.976297
-34.839672 35.465405 22.444736
-35.747314 45.881504 14.417443
-36.279102 46.773212 11.757179
-35.461063 49.940109 12.799889
-35.156357 53.710651 11.174404
-34.786663 57.3582 9.725929
-33.653137 58.43943 13.957865
-33.999691 59.994453 11.086966
-34.400726 61.121853 8.0884
-33.986855 64.9468 6.433579
-33.538647 68.445084 5.283829
-33.093952 72.117279 3.831921
-32.261749 38.046082 31.517256
-32.657864 34.99699 30.411398
-32.641483 39.055695 29.270721
-33.073154 40.093494 26.989906
-33.570919 41.297684 24.55513
-32.868919 47.866913 24.327827
-33.451134 45.243771 23.215956
-34.097458 42.479687 22.118971
-34.615002 43.445538 19.831594
-35.166645 44.852615 17.142178
-36.808544 47.618462 8.846822
-31.93811 44.413944 31.236496
-31.991251 68.846451 14.543989
-32.137383 70.892334 11.648635
-32.3508 72.380524 8.681271
-32.477814 74.219971 5.663456
-32.629986 75.747681 2.471565
-31.645729 80.918961 3.300825
-32.190273 79.06958 1.252796
-32.795948 76.941513 -0.644983
-31.86231 61.588316 21.100916
-31.989404 60.971115 20.682156
-31.932659 60.296698 21.567144
-31.932659 60.296698 21.567144
-31.96358 59.186924 22.151912
-36.823433 43.212638 11.901789
-36.962719 41.135101 12.623929
-36.962719 41.135101 12.623929
-37.045267 39.205566 13.375813
-36.640165 40.829456 14.01456
-31.330936 78.906376 9.242292
-31.306713 77.916569 10.893279
-31.387338 79.740966 7.600238
-31.561594 78.173183 8.104205
-31.330936 78.906376 9.242292
-32.1158 54.826569 24.214242
-32.165763 53.222806 24.933212
-34.047482 74.136017 -7.051665
-34.299553 72.377281 -6.162667
-33.929294 73.822639 -5.33855
-34.117515 74.572082 -8.698527
-34.047482 74.136017 -7.051665
-35.404848 38.854112 19.251487
-35.130293 38.130526 20.50083
-35.078854 40.306713 19.726954
-36.141903 35.745209 18.124685
-36.478338 36.187017 16.848492
-36.830099 50.199641 6.485183
-36.642437 52.232441 5.473405
-36.07955 58.672911 1.458355
-35.913046 58.30677 2.941082
-35.6847 60.153574 2.030718
-35.577166 67.808651 -10.038068
-35.46826 67.659599 -8.412789
-33.095249 33.980832 28.810172
-32.872312 33.415122 29.905606
-32.8808 35.5627 29.315963
-33.60646 31.320661 27.621376
-33.922211 31.718944 26.520443
-34.83867 33.380146 23.088889
-35.1956 33.918273 21.837649
-31.794993 45.871817 31.721193
-31.808042 44.038923 32.411428
-31.901631 46.344324 30.581216
-31.794993 45.871817 31.721193
-31.793405 69.488354 15.520815
-31.910373 67.952866 15.885262
-31.775974 73.095722 12.155201
-31.632869 74.722859 11.702122
-31.989389 72.506801 11.122407
-31.923969 71.481255 12.681429
-31.775974 73.095722 12.155201
-31.418764 82.527145 2.743978
-31.398473 81.684116 4.454565
-31.171508 83.292301 3.897718
-32.262974 79.64077 -0.371285
-31.968926 80.687061 0.588862
-32.565811 78.576737 -1.320174
-32.493111 78.005547 0.303907
-32.262974 79.64077 -0.371285
-32.881338 77.497169 -2.344977
-32.565811 78.576737 -1.320174
-32.032514 57.726843 22.748521
-32.064766 56.351704 23.492859
-32.128687 58.219416 21.744993
-32.032514 57.726843 22.748521
-31.96358 59.186924 22.151912
-33.568924 75.171955 -4.506388
-33.929294 73.822639 -5.33855
-33.820995 73.413219 -3.61739
-36.790454 36.699489 15.52203
-36.478338 36.187017 16.848492
-36.410596 38.387449 16.092905
-37.103691 37.286659 14.14357
-36.790454 36.699489 15.52203
-37.103691 37.286659 14.14357
-37.045267 39.205566 13.375813
-36.429203 54.195555 4.625861
-36.642437 52.232441 5.473405
-36.230045 53.70859 6.165544
-36.265362 58.926622 -0.112037
-35.973627 60.992588 -1.051242
-35.288828 69.676388 -11.054408
-34.900652 71.357727 -10.288867
-34.21525 32.183968 25.403368
-33.922211 31.718944 26.520443
-33.908411 33.812303 26.007088
-31.464768 76.331521 11.277163
-31.306713 77.916569 10.893279
-31.673293 75.729931 10.171219
-31.632869 74.722859 11.702122
-31.464768 76.331521 11.277163
-32.217876 51.549438 25.673099
-32.257351 49.849576 26.435312
-32.071312 51.036686 26.844267
-32.351802 52.035696 24.524256
-32.217876 51.549438 25.673099
-32.165763 53.222806 24.933212
-32.248655 55.2342 23.062986
-32.1158 54.826569 24.214242
-32.064766 56.351704 23.492859
-35.697764 62.883702 -1.806706
-35.973627 60.992588 -1.051242
-35.575341 62.410827 -0.207471
-35.840433 63.227882 -3.494003
-35.697764 62.883702 -1.806706
-35.442146 64.646122 -2.650231
-35.984041 63.412109 -5.107467
-35.840433 63.227882 -3.494003
-35.668396 65.397434 -5.922324
-35.984041 63.412109 -5.107467
-35.364964 67.342754 -6.704987
-35.668396 65.397434 -5.922324
-35.281383 66.935623 -5.120193
-35.081248 69.197788 -7.610658
-35.46826 67.659599 -8.412789
-35.364964 67.342754 -6.704987
-34.51725 72.94574 -9.567528
-34.900652 71.357727 -10.288867
-34.801142 71.102646 -8.597121
-34.51725 72.94574 -9.567528
-34.117515 74.572082 -8.698527
-35.14798 36.071665 21.235049
-34.821985 37.524265 21.710516
-35.130293 38.130526 20.50083
-35.1956 33.918273 21.837649
-35.14798 36.071665 21.235049
-35.777383 37.276451 18.722365
-35.404848 38.854112 19.251487
-35.725944 39.452638 17.94849
-35.777383 37.276451 18.722365
-36.141903 35.745209 18.124685
-32.459806 36.521536 30.964327
-32.452616 34.416241 31.523394
-32.254559 35.940787 32.076324
-36.684176 45.219749 11.149041
-36.823433 43.212638 11.901789
-36.41836 44.766102 12.509928
-36.948897 45.642374 9.693862
-36.684176 45.219749 11.149041
-36.543823 47.195837 10.302001
-37.219538 46.026607 8.167685
-36.948897 45.642374 9.693862
-37.012732 48.136133 7.40205
-36.625912 49.681969 7.929955
-36.830099 50.199641 6.485183
-37.219538 46.026607 8.167685
-37.012732 48.136133 7.40205
-36.162353 56.248905 3.84336
-35.767504 57.729568 4.415723
-35.913046 58.30677 2.941082
-36.429203 54.195555 4.625861
-36.162353 56.248905 3.84336
-36.07955 58.672911 1.458355
-36.265362 58.926622 -0.112037
-35.577166 67.808651 -10.038068
-35.288828 69.676388 -11.054408
-32.624056 33.071203 30.972928
-32.452616 34.416241 31.523394
-32.624056 33.071203 30.972928
-32.872312 33.415122 29.905606
-33.351067 32.590266 28.261989
-33.095249 33.980832 28.810172
-33.359555 34.737845 27.672345
-33.351067 32.590266 28.261989
-33.60646 31.320661 27.621376
-34.519559 32.786108 24.311528
-34.520561 34.871366 23.667375
-34.83867 33.380146 23.088889
-34.21525 32.183968 25.403368
-34.519559 32.786108 24.311528
-32.099739 37.31156 32.66608
-32.254559 35.940787 32.076324
-32.101235 39.330486 32.086923
-32.099739 37.31156 32.66608
-32.099839 41.247099 31.442618
-32.260353 39.962694 30.872951
-32.101235 39.330486 32.086923
-31.939415 42.514418 31.946543
-31.808042 44.038923 32.411428
-32.098534 43.146625 30.732571
-32.099839 41.247099 31.442618
-31.939415 42.514418 31.946543
-32.038697 46.966121 29.405076
-32.075176 45.035742 30.060356
-31.901631 46.344324 30.581216
-31.987969 48.805763 28.766208
-32.161514 47.497181 28.245348
-32.038697 46.966121 29.405076
-31.954703 50.583822 27.999835
-31.987969 48.805763 28.766208
-32.071312 51.036686 26.844267
-31.954703 50.583822 27.999835
-31.781884 62.608452 21.003782
-31.86231 61.588316 21.100916
-31.823882 63.555301 19.962884
-31.781884 62.608452 21.003782
-31.898701 64.421616 18.829326
-31.993873 63.129047 19.082369
-31.823882 63.555301 19.962884
-31.949094 65.527321 17.587673
-31.898701 64.421616 18.829326
-32.043906 66.308757 16.381713
-32.163504 64.776798 16.742852
-31.949094 65.527321 17.587673
-32.124783 67.202343 15.04044
-32.043906 66.308757 16.381713
-31.910373 67.952866 15.885262
-31.850902 70.458313 14.129106
-31.793405 69.488354 15.520815
-32.064317 69.869393 13.096312
-31.850902 70.458313 14.129106
-31.923969 71.481255 12.681429
-31.384607 80.728523 6.035228
-31.387338 79.740966 7.600238
-31.631863 79.963368 4.881488
-31.384607 80.728523 6.035228
-31.398473 81.684116 4.454565
-31.696655 81.611752 1.612876
-31.418764 82.527145 2.743978
-31.918001 79.99427 2.27681
-31.696655 81.611752 1.612876
-31.968926 80.687061 0.588862
-33.213677 76.40768 -3.4151
-33.128287 75.852024 -1.715106
-32.881338 77.497169 -2.344977
-33.568924 75.171955 -4.506388
-33.213677 76.40768 -3.4151
3 111 29 112
3 113 112 27
3 111 112 113
3 114 27 115
3 0 116 117
3 1 33 31
3 1 35 33
3 0 38 36
3 0 118 120
3 120 119 38
3 118 119 120
3 2 41 39
3 4 44 42
3 4 46 44
3 5 49 47
3 2 52 50
3 2 39 52
3 3 56 54
3 6 59 57
3 121 60 122
3 123 62 124
3 125 124 60
3 123 124 125
3 7 65 63
3 9 66 28
3 9 67 66
3 126 69 127
3 7 70 30
3 7 63 70
3 11 73 71
3 13 74 32
3 13 75 74
3 13 76 75
3 128 77 129
3 130 129 34
3 128 129 130
3 132 131 77
3 15 133 135
3 135 134 78
3 133 134 135
3 137 136 37
3 16 82 80
3 18 83 40
3 18 84 83
3 8 85 64
3 19 86 43
3 19 87 86
3 19 88 87
3 20 89 45
3 20 90 89
3 21 93 91
3 23 94 48
3 23 95 94
3 10 96 68
3 24 97 51
3 24 98 97
3 24 99 98
3 16 100 53
3 16 80 100
3 17 101 81
3 139 138 55
3 12 140 142
3 142 141 72
3 140 141 142
3 14 143 144
3 22 145 147
3 147 146 92
3 145 146 147
3 149 148 58
3 151 150 79
3 152 102 153
3 155 154 102
3 156 103 157
3 25 158 159
3 25 160 162
3 160 104 161
3 160 161 162
3 25 105 104
3 26 106 61
3 26 107 106
3 163 108 164
3 163 164 165
3 166 109 167
3 168 110 169
3 170 169 109
3 168 169 170
3 172 171 110
3 27 28 7
3 29 28 27
3 29 9 28
3 173 30 174
3 27 175 177
3 175 30 176
3 175 176 177
3 27 7 30
3 31 32 11
3 33 32 31
3 33 13 32
3 33 34 13
3 35 34 33
3 35 178 180
3 180 179 34
3 178 179 180
3 36 37 15
3 38 37 36
3 38 181 183
3 183 182 37
3 181 182 183
3 38 184 185
3 187 186 38
3 39 40 16
3 41 40 39
3 41 18 40
3 42 43 8
3 44 43 42
3 44 19 43
3 44 45 19
3 46 45 44
3 46 20 45
3 47 48 21
3 49 48 47
3 49 23 48
3 50 51 10
3 52 51 50
3 52 24 51
3 52 53 24
3 39 53 52
3 39 16 53
3 54 55 17
3 56 55 54
3 56 188 190
3 190 189 55
3 188 189 190
3 192 191 12
3 194 193 14
3 57 58 22
3 59 58 57
3 59 195 197
3 197 196 58
3 195 196 197
3 60 198 199
3 60 200 202
3 200 25 201
3 200 201 202
3 60 61 25
3 62 61 60
3 62 26 61
3 63 64 2
3 65 64 63
3 65 8 64
3 28 65 7
3 66 65 28
3 66 8 65
3 66 42 8
3 67 42 66
3 67 4 42
3 203 68 204
3 205 204 5
3 203 204 205
3 69 206 208
3 206 68 207
3 206 207 208
3 69 10 68
3 30 209 211
3 209 69 210
3 209 210 211
3 70 69 30
3 70 10 69
3 70 50 10
3 63 50 70
3 63 2 50
3 71 72 3
3 73 72 71
3 73 12 72
3 32 73 11
3 74 73 32
3 74 12 73
3 74 212 214
3 214 213 12
3 212 213 214
3 75 215 217
3 217 216 74
3 215 216 217
3 75 218 219
3 75 220 221
3 76 222 224
3 224 223 75
3 222 223 224
3 76 225 227
3 225 14 226
3 225 226 227
3 34 76 13
3 77 76 34
3 77 14 76
3 77 228 230
3 230 229 14
3 228 229 230
3 232 231 77
3 78 79 6
3 233 79 234
3 235 234 78
3 233 234 235
3 237 236 79
3 37 238 240
3 240 239 15
3 238 239 240
3 242 241 37
3 80 81 0
3 82 81 80
3 82 17 81
3 40 82 16
3 83 82 40
3 83 17 82
3 83 54 17
3 84 54 83
3 84 3 54
3 64 41 2
3 85 41 64
3 85 18 41
3 43 85 8
3 86 85 43
3 86 18 85
3 86 84 18
3 87 84 86
3 87 3 84
3 87 71 3
3 88 71 87
3 88 11 71
3 45 88 19
3 89 88 45
3 89 11 88
3 89 31 11
3 90 31 89
3 90 1 31
3 91 243 245
3 243 92 244
3 243 244 245
3 93 92 91
3 93 22 92
3 48 93 21
3 94 93 48
3 94 22 93
3 94 57 22
3 95 57 94
3 95 6 57
3 68 49 5
3 96 49 68
3 96 23 49
3 51 96 10
3 97 96 51
3 97 23 96
3 97 95 23
3 98 95 97
3 98 6 95
3 98 78 6
3 99 78 98
3 99 15 78
3 53 99 24
3 100 99 53
3 100 15 99
3 100 36 15
3 80 36 100
3 80 0 36
3 81 246 248
3 248 247 0
3 246 247 248
3 101 249 251
3 251 250 81
3 249 250 251
3 101 252 253
3 55 101 17
3 254 101 255
3 256 255 55
3 254 255 256
3 258 257 101
3 72 56 3
3 259 56 260
3 261 260 72
3 259 260 261
3 263 262 56
3 265 264 12
3 267 266 14
3 92 268 269
3 271 270 92
3 58 272 274
3 274 273 22
3 272 273 274
3 276 275 58
3 79 59 6
3 277 59 278
3 279 278 79
3 277 278 279
3 281 280 59
3 282 91 283
3 284 91 285
3 286 21 287
3 288 287 91
3 286 287 288
3 102 289 290
3 102 291 293
3 291 21 292
3 291 292 293
3 102 47 21
3 294 47 295
3 296 295 102
3 294 295 296
3 297 5 298
3 299 298 47
3 297 298 299
3 300 5 301
3 303 302 5
3 304 29 305
3 306 29 307
3 308 9 309
3 310 309 29
3 308 309 310
3 311 9 312
3 313 67 314
3 315 314 9
3 313 314 315
3 103 316 318
3 316 67 317
3 316 317 318
3 103 4 67
3 319 103 320
3 104 321 323
3 321 103 322
3 321 322 323
3 104 4 103
3 104 46 4
3 105 46 104
3 105 20 46
3 61 105 25
3 106 105 61
3 106 20 105
3 106 90 20
3 107 90 106
3 107 1 90
3 324 62 325
3 108 326 328
3 326 62 327
3 326 327 328
3 108 26 62
3 329 108 330
3 109 331 333
3 331 108 332
3 331 332 333
3 109 26 108
3 109 107 26
3 110 107 109
3 110 1 107
3 110 35 1
3 334 35 335
3 336 335 110
3 334 335 336
3 338 337 35
