ply
format ascii 1.0
element vertex 464
property float x
property float y
property float z
element face 516
property list uchar int vertex_index
end_header
-8.736671 93.161316 -27.075119
-10.057684 75.500885 -36.069984
-19.035164 72.169449 -20.290688
-10.481638 85.392593 -33.229332
-3.703894 82.724983 -41.263294
-1.485542 93.430611 -36.870361
-19.792305 77.683273 -14.415194
-15.894688 83.499794 -24.074327
-15.100258 75.685143 -28.206007
-9.898586 89.508171 -30.724237
-6.402965 89.594193 -35.379047
-5.412499 93.887039 -32.055031
-11.625905 91.296135 -21.892733
-15.447488 86.149582 -20.582376
-12.888869 88.368561 -25.769384
-13.47189 84.828743 -28.69005
1.092664 85.593727 -43.327217
-0.041718 79.493652 -44.523949
-19.976002 75.00563 -5.379596
-19.889597 75.147667 -17.594931
-12.712161 76.065399 -32.195244
-13.857501 71.04628 -29.240585
-10.54792 80.51181 -34.97044
-7.383429 79.283424 -38.865128
-7.174828 84.725716 -37.473694
-2.726098 88.356682 -39.56776
2.232996 91.40303 -41.03204
-18.947313 79.363457 -10.289655
-17.477592 83.075348 -15.45489
-18.043848 81.064522 -19.243126
-18.006306 78.039391 -22.133999
-17.197039 74.412445 -24.261696
-15.81554 79.889969 -26.579479
-13.309158 80.754715 -30.896868
-7.272789 95.689697 -22.750813
-4.278085 76.959099 -42.077862
3.82324 96.562225 -37.766983
7.675148 93.81398 -41.953545
-21.057508 73.776772 -9.677334
-15.834935 70.027657 -25.490309
-14.122559 65.401917 -26.403276
-9.512152 91.356277 -28.906168
-7.774937 91.817268 -31.359959
-7.143313 93.667824 -29.568913
-10.221039 92.374077 -24.534462
-12.314219 89.958305 -23.974653
-10.992281 90.791183 -26.385466
-11.364575 89.269501 -28.195992
3.534416 86.81102 -44.062176
2.880333 83.728889 -44.886951
-19.238352 75.366272 -3.165451
-18.726467 77.9496 -5.747951
-19.539656 73.771912 -19.087435
-20.376101 72.277168 -16.960701
-18.387766 70.473465 -21.258465
-11.407918 75.885155 -34.179047
-12.217752 73.75795 -32.703129
-10.990214 73.304268 -34.569389
-10.507637 83.142448 -34.255684
-8.98012 82.595497 -36.327492
-8.749706 85.267235 -35.498844
-4.080266 91.517609 -36.20298
-4.651441 89.119644 -37.483986
-2.302559 91.007637 -38.193501
-0.423398 89.877251 -40.333939
0.176132 92.401253 -39.035789
-16.757576 84.113327 -13.311398
-15.899633 85.7901 -15.988153
-15.780288 84.865997 -22.404896
-16.879234 83.636909 -19.857021
-17.064867 82.335747 -21.575705
-18.172026 79.57122 -20.67626
-17.073925 80.878639 -23.104769
-17.031721 79.02137 -24.219194
-15.966636 81.755737 -25.396528
-12.027311 85.355888 -30.924883
-13.482472 82.954926 -29.825516
-12.11084 83.121323 -32.001137
-11.923061 80.913383 -32.987633
-5.590317 80.994759 -40.208088
-5.787256 78.26725 -40.57375
-3.882011 79.795349 -41.885803
1.548251 77.462692 -45.803909
-0.655558 76.240364 -44.781601
5.666492 95.322441 -39.948814
-19.503975 78.535561 -12.486132
-20.097431 76.639847 -10.106323
-20.504131 75.72982 -11.886512
-16.185335 75.188866 -26.230818
-16.596291 72.157242 -24.902761
-15.597353 72.993469 -26.860346
-13.129295 68.877228 -29.736654
-14.034595 68.285751 -27.86471
-13.329105 65.981529 -28.137232
-10.223072 87.588699 -32.07922
-8.608879 87.626839 -34.254837
-8.076806 89.902832 -33.068192
-5.918275 91.831856 -33.902725
-3.462886 93.82486 -34.548588
-13.62375 88.808495 -21.337885
-14.156043 87.475716 -23.24012
-14.561402 85.909584 -24.896545
-14.70355 84.298325 -26.449383
-13.270989 86.703285 -27.27462
-11.82733 87.308884 -29.647316
-1.361966 84.248878 -42.386864
-1.863152 81.314461 -42.960861
0.412305 82.667572 -43.95816
2.197864 80.630165 -45.436699
3.963081 78.495941 -46.713665
-20.440155 72.542633 -3.200483
-21.048994 72.20459 -5.339927
-19.922279 76.517921 -16.225636
-20.649185 74.835785 -13.918686
-20.643553 73.647041 -15.44956
-13.930139 75.958214 -30.218752
-14.500572 73.472946 -28.846483
-13.448523 73.615318 -30.652956
-12.807647 71.415421 -31.171829
-10.35761 78.054276 -35.581688
-8.823518 77.389091 -37.54858
-8.942876 80.084793 -37.020748
-7.203148 82.117836 -38.389534
-5.339705 83.958374 -39.515793
-6.780218 87.277794 -36.57077
-5.014595 86.543365 -38.665421
-3.215183 85.468063 -40.632065
-0.870078 87.050667 -41.546886
1.655059 88.654442 -42.267807
4.238458 89.870667 -42.945858
-18.161274 80.177429 -8.173092
-17.615314 82.080345 -10.7848
-18.23192 81.389519 -12.86313
-18.725861 80.464859 -14.731366
-16.46632 84.826553 -17.974806
-17.829313 82.198723 -17.43203
-18.979362 79.450531 -16.801128
-19.095219 78.149376 -18.410395
-18.984482 76.753433 -19.848265
-18.622671 75.226868 -21.243061
-18.145788 73.387741 -22.273649
-17.650948 76.341919 -23.383801
-16.643517 77.278847 -25.406734
-15.545347 77.727608 -27.468924
-14.767299 82.417023 -27.663015
-14.641724 80.258514 -28.730673
-14.280143 78.287498 -29.660641
-13.028385 78.348747 -31.703077
-11.715031 78.448624 -33.678337
-7.845289 94.711861 -25.117792
-6.262741 95.400459 -27.662449
-5.598841 96.671387 -25.448278
-9.512635 93.565521 -22.413719
-2.194504 78.213852 -43.428162
-4.658158 95.781204 -30.064217
-2.850095 95.878166 -32.57732
-0.983322 95.650551 -34.965904
1.757009 97.197594 -35.541496
1.0037 95.031097 -37.347298
2.860618 93.976059 -39.542622
4.922545 92.819748 -41.498955
6.675768 91.000839 -43.347797
-19.490252 77.321014 -7.840934
-20.556442 74.631485 -7.637829
-21.540514 71.646935 -7.466649
-21.306416 72.873886 -11.701124
-21.84729 70.908112 -9.436472
-17.506281 71.493088 -23.115316
-16.764822 69.329475 -23.680523
-15.923971 67.337746 -24.243851
-14.860387 70.702179 -27.392378
-14.941196 67.892677 -26.115395
-9.395574 75.096477 -36.930053
-9.909384 74.118438 -36.202959
4.476019 85.875305 -44.810057
4.803147 87.405682 -44.337971
-18.065261 79.196453 -5.75729
-18.357772 77.985836 -4.532617
-19.480909 71.460388 -19.246578
-19.733155 72.26162 -18.644952
-19.28741 72.970681 -19.689062
-19.152792 70.691761 -19.802986
-19.480909 71.460388 -19.246578
-18.711465 71.321457 -20.774577
-18.829093 69.843769 -20.286875
-19.152792 70.691761 -19.802986
-9.909384 74.118438 -36.202959
-10.375649 73.02013 -35.452662
-10.523949 74.402576 -35.319687
-15.064529 86.996357 -16.192592
-15.479799 86.256317 -14.830365
1.241767 75.86055 -45.912987
2.440611 76.321526 -46.433044
-12.908107 66.127575 -29.013339
-13.2292 67.429378 -28.936943
-12.808203 67.575424 -29.81305
-12.967788 64.763162 -28.298908
-12.908107 66.127575 -29.013339
-12.624827 90.052315 -21.615309
-13.314442 89.327938 -20.224373
-12.315519 90.571759 -20.501797
3.417757 81.156868 -45.836893
2.539098 82.179527 -45.161825
3.758991 82.70623 -45.562019
4.300365 80.089756 -46.475376
3.080472 79.563053 -46.075182
3.417757 81.156868 -45.836893
5.202856 78.89352 -47.093498
4.300365 80.089756 -46.475376
-20.735207 71.55714 -15.96056
-20.541663 70.760857 -16.612379
-12.249667 71.358688 -32.111082
-12.5127 72.586685 -31.937479
-11.95472 72.529953 -32.876732
-12.498303 70.173813 -31.322226
-12.249667 71.358688 -32.111082
-16.829073 83.390972 -10.924613
-17.221259 82.32386 -9.566695
-15.956904 85.488067 -19.278591
-15.63891 86.126937 -18.348978
-15.129494 86.788452 -19.652763
-8.392712 94.627609 -22.582266
-9.132499 94.025131 -21.222386
-8.012576 95.087219 -21.390934
-7.363919 77.877529 -39.072096
-8.083963 76.930363 -38.413822
-8.103473 78.336257 -38.206854
-5.083033 76.113502 -41.470585
-5.837619 76.767578 -40.718529
-5.032671 77.613174 -41.325806
-4.302411 75.425098 -42.249102
-5.083033 76.113502 -41.470585
-1.645596 75.73558 -44.192189
-0.893388 74.729233 -44.852078
-4.204092 96.614857 -29.011934
-5.46045 95.590832 -28.863333
-5.006383 96.424484 -27.811051
-1.450969 96.792072 -32.839274
-2.446298 96.786773 -31.55304
-0.517582 96.678264 -34.033566
-1.916708 95.764358 -33.771612
-1.450969 96.792072 -32.839274
2.790125 96.879909 -36.65424
3.117726 97.938438 -35.651619
4.150842 97.620754 -36.764363
-21.327545 72.336681 -12.506395
-20.977801 73.854836 -12.809905
-20.998929 73.317631 -13.615177
-22.163007 69.444988 -9.367441
-21.892125 70.442193 -10.370165
-22.079493 69.857289 -8.360597
-22.163007 69.444988 -9.367441
-14.55605 65.231506 -25.570141
-14.965369 66.476887 -25.426201
-14.531878 66.647297 -26.259335
-14.123075 63.976816 -25.722254
-14.55605 65.231506 -25.570141
4.148978 84.334239 -45.222445
3.207374 85.269954 -44.474564
4.476019 85.875305 -44.810057
3.758991 82.70623 -45.562019
4.148978 84.334239 -45.222445
-18.613715 76.694172 -3.241367
-18.809264 75.483765 -1.990101
-18.982409 76.657936 -4.456701
-18.613715 76.694172 -3.241367
-18.357772 77.985836 -4.532617
-20.151377 71.514248 -17.581585
-19.957878 73.02454 -18.024068
-19.733155 72.26162 -18.644952
-20.541663 70.760857 -16.612379
-20.151377 71.514248 -17.581585
-18.439178 68.931873 -20.707127
-18.829093 69.843769 -20.286875
-17.995936 69.508145 -21.633835
-18.439178 68.931873 -20.707127
-11.340951 72.303112 -33.809862
-11.95472 72.529953 -32.876732
-11.603983 73.531109 -33.636259
-10.773947 72.069423 -34.70218
-11.340951 72.303112 -33.809862
-10.773947 72.069423 -34.70218
-10.375649 73.02013 -35.452662
-15.90877 85.41793 -13.491988
-16.400205 84.407463 -12.187912
-16.328605 84.951713 -14.649776
-15.90877 85.41793 -13.491988
-15.479799 86.256317 -14.830365
-5.950395 96.787846 -22.964446
-6.744753 96.23098 -21.605058
-6.744753 96.23098 -21.605058
-8.012576 95.087219 -21.390934
0.139863 75.249386 -45.401832
0.446347 76.851528 -45.292755
1.241767 75.86055 -45.912987
-0.893388 74.729233 -44.852078
0.139863 75.249386 -45.401832
5.175892 97.091297 -37.993324
4.150842 97.620754 -36.764363
6.097518 96.471405 -39.08424
4.744866 95.942333 -38.857899
5.175892 97.091297 -37.993324
7.116303 95.944812 -40.034294
6.097518 96.471405 -39.08424
8.120631 95.190582 -41.036659
6.67082 94.56821 -40.951179
7.116303 95.944812 -40.034294
-13.340561 64.489739 -27.421289
-13.737288 64.199933 -26.55431
-13.725832 65.691723 -27.270254
-13.340561 64.489739 -27.421289
-12.967788 64.763162 -28.298908
-14.217625 88.117908 -20.030518
-13.314442 89.327938 -20.224373
-14.535619 87.479039 -20.96013
-15.129494 86.788452 -19.652763
-14.217625 88.117908 -20.030518
3.648026 76.83815 -46.887923
2.440611 76.321526 -46.433044
2.755666 77.979317 -46.258787
4.80724 77.195355 -47.291334
3.648026 76.83815 -46.887923
4.80724 77.195355 -47.291334
5.202856 78.89352 -47.093498
-19.448093 74.101444 -2.03399
-18.809264 75.483765 -1.990101
-20.048995 72.689625 -2.051506
-19.448093 74.101444 -2.03399
-19.839253 73.954453 -3.182967
-20.554103 71.383587 -2.018397
-20.048995 72.689625 -2.051506
-20.923189 71.176872 -3.150057
-20.554103 71.383587 -2.018397
-21.227609 71.00785 -4.219779
-20.923189 71.176872 -3.150057
-20.744574 72.373611 -4.270205
-21.471957 70.900101 -5.327935
-21.227609 71.00785 -4.219779
-20.996113 72.723259 -14.380613
-20.998929 73.317631 -13.615177
-20.646369 74.241413 -14.684123
-20.868933 72.242076 -15.204989
-20.509827 72.962105 -16.20513
-20.735207 71.55714 -15.96056
-20.996113 72.723259 -14.380613
-20.868933 72.242076 -15.204989
-12.659128 68.904717 -30.604638
-12.968471 70.146324 -30.454242
-12.498303 70.173813 -31.322226
-12.808203 67.575424 -29.81305
-12.659128 68.904717 -30.604638
5.155168 88.935505 -43.779812
4.803147 87.405682 -44.337971
3.886437 88.340844 -43.504017
-17.494239 81.372402 -8.260841
-17.782664 80.310368 -6.969861
-17.888294 81.128887 -9.478946
-17.494239 81.372402 -8.260841
-17.221259 82.32386 -9.566695
-17.186445 83.096836 -12.048099
-16.829073 83.390972 -10.924613
-16.400205 84.407463 -12.187912
-15.355567 86.608711 -17.355652
-15.064529 86.996357 -16.192592
-16.182976 85.308326 -16.981479
-15.355567 86.608711 -17.355652
-15.63891 86.126937 -18.348978
-4.674433 97.059948 -26.703965
-5.006383 96.424484 -27.811051
-5.930791 96.035923 -26.555363
-5.113421 97.27869 -24.313178
-6.435815 96.180542 -24.099545
-5.950395 96.787846 -22.964446
-4.218093 97.733799 -25.626991
-5.113421 97.27869 -24.313178
-4.674433 97.059948 -26.703965
-4.218093 97.733799 -25.626991
-11.266907 91.790497 -20.72307
-12.315519 90.571759 -20.501797
-10.210272 92.92519 -20.983562
-9.132499 94.025131 -21.222386
-10.56927 92.430828 -22.153226
-11.266907 91.790497 -20.72307
-10.210272 92.92519 -20.983562
-8.778491 76.040581 -37.669352
-9.395574 75.096477 -36.930053
-9.440601 76.444988 -36.809282
-8.778491 76.040581 -37.669352
-8.083963 76.930363 -38.413822
-6.565832 77.369442 -39.926407
-7.363919 77.877529 -39.072096
-6.585342 78.775337 -39.719439
-6.565832 77.369442 -39.926407
-5.837619 76.767578 -40.718529
-2.415069 76.722324 -43.515469
-1.425031 77.227108 -44.104882
-1.645596 75.73558 -44.192189
-3.45686 76.094948 -42.840319
-3.236294 77.586476 -42.753012
-2.415069 76.722324 -43.515469
-4.302411 75.425098 -42.249102
-3.45686 76.094948 -42.840319
-3.350329 96.738293 -30.296488
-4.204092 96.614857 -29.011934
-3.754126 95.829685 -31.320768
-3.350329 96.738293 -30.296488
-2.446298 96.786773 -31.55304
2.177739 98.208897 -34.501248
3.117726 97.938438 -35.651619
0.852584 97.451786 -34.321362
2.177739 98.208897 -34.501248
0.386844 96.424072 -35.2537
-0.517582 96.678264 -34.033566
0.852584 97.451786 -34.321362
6.373823 89.500591 -43.980781
5.155168 88.935505 -43.779812
5.457113 90.435753 -43.146828
9.040056 94.353325 -41.996598
8.120631 95.190582 -41.036659
8.603027 92.878795 -42.841164
9.040056 94.353325 -41.996598
8.103337 91.472225 -43.53829
7.175458 92.407409 -42.650671
8.603027 92.878795 -42.841164
7.639692 90.053772 -44.149038
8.103337 91.472225 -43.53829
6.373823 89.500591 -43.980781
7.639692 90.053772 -44.149038
-18.44387 79.063514 -6.960522
-18.065261 79.196453 -5.75729
-17.782664 80.310368 -6.969861
-21.717717 70.621274 -6.391296
-21.471957 70.900101 -5.327935
-21.294754 71.925762 -6.403288
-21.621688 71.42508 -11.502491
-21.327545 72.336681 -12.506395
-21.576853 71.890999 -10.568798
-21.621688 71.42508 -11.502491
-21.892125 70.442193 -10.370165
-21.926105 70.2267 -7.375686
-21.693902 71.277524 -8.45156
-22.079493 69.857289 -8.360597
-21.717717 70.621274 -6.391296
-21.926105 70.2267 -7.375686
-17.555194 70.017956 -22.562261
-17.995936 69.508145 -21.633835
-17.947024 70.983277 -22.186891
-17.184464 68.936149 -22.844864
-17.555194 70.017956 -22.562261
-17.135551 70.411282 -23.39792
-16.780199 67.801246 -23.041846
-17.184464 68.936149 -22.844864
-16.359773 66.805382 -23.32351
-16.780199 67.801246 -23.041846
-16.344396 68.33361 -23.962187
-15.888216 65.858593 -23.63153
-16.359773 66.805382 -23.32351
-15.456756 66.199421 -24.490429
-15.432583 67.615212 -25.179623
-14.965369 66.476887 -25.426201
-15.888216 65.858593 -23.63153
-15.456756 66.199421 -24.490429
-14.123075 63.976816 -25.722254
-13.737288 64.199933 -26.55431
3 0 43 41
3 0 46 44
3 0 41 46
3 1 172 173
3 175 174 48
3 176 51 177
3 2 178 180
3 180 179 52
3 178 179 180
3 2 181 182
3 2 183 185
3 183 54 184
3 183 184 185
3 1 57 55
3 1 186 188
3 188 187 57
3 186 187 188
3 3 60 58
3 5 63 61
3 5 65 63
3 189 67 190
3 7 70 68
3 7 72 70
3 7 74 72
3 3 77 75
3 3 58 77
3 4 81 79
3 192 191 82
3 6 87 85
3 8 90 88
3 193 93 194
3 195 194 91
3 193 194 195
3 197 196 93
3 9 96 94
3 11 97 42
3 11 98 97
3 12 198 200
3 198 99 199
3 198 199 200
3 14 100 45
3 14 101 100
3 14 103 101
3 9 104 47
3 9 94 104
3 16 107 105
3 201 108 202
3 203 202 49
3 201 202 203
3 204 109 205
3 206 205 108
3 204 205 206
3 208 207 109
3 18 110 50
3 18 111 110
3 19 114 112
3 210 209 53
3 20 117 115
3 211 118 212
3 213 212 56
3 211 212 213
3 215 214 118
3 22 121 119
3 24 122 59
3 24 123 122
3 10 124 95
3 25 125 62
3 25 126 125
3 25 127 126
3 26 128 64
3 26 129 128
3 216 131 217
3 28 132 66
3 28 133 132
3 13 218 220
3 218 134 219
3 218 219 220
3 29 135 69
3 29 136 135
3 29 137 136
3 30 138 71
3 30 139 138
3 30 141 139
3 32 142 73
3 32 143 142
3 15 144 102
3 33 145 76
3 33 146 145
3 33 147 146
3 22 148 78
3 22 119 148
3 34 151 149
3 34 221 223
3 221 152 222
3 221 222 223
3 34 149 152
3 23 224 226
3 226 225 120
3 224 225 226
3 35 227 229
3 229 228 80
3 227 228 229
3 35 230 231
3 17 153 106
3 233 232 83
3 234 154 235
3 236 235 150
3 234 235 236
3 237 155 238
3 239 156 240
3 241 240 155
3 239 240 241
3 36 242 244
3 242 157 243
3 242 243 244
3 36 158 157
3 36 159 158
3 37 160 84
3 37 161 160
3 27 162 130
3 38 163 86
3 38 164 163
3 245 165 246
3 247 246 113
3 245 246 247
3 248 166 249
3 251 250 166
3 31 167 140
3 39 168 89
3 39 169 168
3 21 170 116
3 40 171 92
3 40 252 254
3 254 253 171
3 252 253 254
3 40 255 256
3 41 42 9
3 43 42 41
3 43 11 42
3 44 45 12
3 46 45 44
3 46 14 45
3 46 47 14
3 41 47 46
3 41 9 47
3 48 49 16
3 257 49 258
3 259 258 48
3 257 258 259
3 261 260 49
3 262 50 263
3 51 264 266
3 264 50 265
3 264 265 266
3 51 18 50
3 52 53 19
3 267 53 268
3 269 268 52
3 267 268 269
3 271 270 53
3 54 272 273
3 54 274 275
3 55 56 20
3 57 56 55
3 57 276 278
3 278 277 56
3 276 277 278
3 57 279 280
3 282 281 57
3 58 59 22
3 60 59 58
3 60 24 59
3 61 62 10
3 63 62 61
3 63 25 62
3 63 64 25
3 65 64 63
3 65 26 64
3 283 66 284
3 67 285 287
3 285 66 286
3 285 286 287
3 67 28 66
3 68 69 13
3 70 69 68
3 70 29 69
3 70 71 29
3 72 71 70
3 72 30 71
3 72 73 30
3 74 73 72
3 74 32 73
3 75 76 15
3 77 76 75
3 77 33 76
3 77 78 33
3 58 78 77
3 58 22 78
3 289 288 34
3 290 34 291
3 79 80 23
3 81 80 79
3 81 35 80
3 82 83 17
3 292 83 293
3 294 293 82
3 292 293 294
3 296 295 83
3 297 36 298
3 299 84 300
3 301 300 36
3 299 300 301
3 302 84 303
3 304 37 305
3 306 305 84
3 304 305 306
3 85 86 27
3 87 86 85
3 87 38 86
3 88 89 31
3 90 89 88
3 90 39 89
3 91 92 21
3 93 92 91
3 93 40 92
3 93 307 309
3 309 308 40
3 307 308 309
3 311 310 93
3 94 95 3
3 96 95 94
3 96 10 95
3 42 96 9
3 97 96 42
3 97 10 96
3 97 61 10
3 98 61 97
3 98 5 61
3 99 312 313
3 99 314 316
3 314 13 315
3 314 315 316
3 45 99 12
3 100 99 45
3 100 13 99
3 100 68 13
3 101 68 100
3 101 7 68
3 101 102 7
3 103 102 101
3 103 15 102
3 47 103 14
3 104 103 47
3 104 15 103
3 104 75 15
3 94 75 104
3 94 3 75
3 105 106 4
3 107 106 105
3 107 17 106
3 49 107 16
3 108 107 49
3 108 17 107
3 108 82 17
3 109 82 108
3 109 317 319
3 319 318 82
3 317 318 319
3 109 320 321
3 323 322 109
3 50 324 325
3 110 326 328
3 328 327 50
3 326 327 328
3 110 329 330
3 110 331 332
3 111 333 335
3 335 334 110
3 333 334 335
3 111 336 337
3 112 113 6
3 114 113 112
3 114 338 340
3 340 339 113
3 338 339 340
3 53 114 19
3 341 114 342
3 343 342 53
3 341 342 343
3 345 344 114
3 115 116 8
3 117 116 115
3 117 21 116
3 56 117 20
3 118 117 56
3 118 21 117
3 118 91 21
3 346 91 347
3 348 347 118
3 346 347 348
3 350 349 91
3 119 120 1
3 121 120 119
3 121 23 120
3 59 121 22
3 122 121 59
3 122 23 121
3 122 79 23
3 123 79 122
3 123 4 79
3 95 60 3
3 124 60 95
3 124 24 60
3 62 124 10
3 125 124 62
3 125 24 124
3 125 123 24
3 126 123 125
3 126 4 123
3 126 105 4
3 127 105 126
3 127 16 105
3 64 127 25
3 128 127 64
3 128 16 127
3 128 48 16
3 129 48 128
3 129 351 353
3 353 352 48
3 351 352 353
3 354 130 355
3 131 356 358
3 356 130 357
3 356 357 358
3 131 27 130
3 66 359 361
3 359 131 360
3 359 360 361
3 132 131 66
3 132 27 131
3 132 85 27
3 133 85 132
3 133 6 85
3 362 67 363
3 134 364 366
3 364 67 365
3 364 365 366
3 134 28 67
3 69 134 13
3 135 134 69
3 135 28 134
3 135 133 28
3 136 133 135
3 136 6 133
3 136 112 6
3 137 112 136
3 137 19 112
3 71 137 29
3 138 137 71
3 138 19 137
3 138 52 19
3 139 52 138
3 139 2 52
3 139 140 2
3 141 140 139
3 141 31 140
3 73 141 30
3 142 141 73
3 142 31 141
3 142 88 31
3 143 88 142
3 143 8 88
3 102 74 7
3 144 74 102
3 144 32 74
3 76 144 15
3 145 144 76
3 145 32 144
3 145 143 32
3 146 143 145
3 146 8 143
3 146 115 8
3 147 115 146
3 147 20 115
3 78 147 33
3 148 147 78
3 148 20 147
3 148 55 20
3 119 55 148
3 119 1 55
3 149 150 0
3 151 150 149
3 151 367 369
3 369 368 150
3 367 368 369
3 370 151 371
3 372 371 34
3 370 371 372
3 373 151 374
3 376 375 151
3 377 12 378
3 152 379 380
3 152 381 383
3 381 12 382
3 381 382 383
3 152 44 12
3 149 44 152
3 149 0 44
3 120 384 386
3 386 385 1
3 384 385 386
3 388 387 120
3 80 389 391
3 391 390 23
3 389 390 391
3 393 392 80
3 106 81 4
3 153 81 106
3 153 35 81
3 83 153 17
3 394 153 395
3 396 395 83
3 394 395 396
3 397 35 398
3 399 398 153
3 397 398 399
3 401 400 35
3 150 43 0
3 154 43 150
3 154 11 43
3 402 154 403
3 155 404 406
3 404 154 405
3 404 405 406
3 155 11 154
3 155 98 11
3 156 98 155
3 156 5 98
3 157 407 408
3 157 409 410
3 157 411 413
3 411 156 412
3 411 412 413
3 158 156 157
3 158 5 156
3 158 65 5
3 159 65 158
3 159 26 65
3 84 159 36
3 160 159 84
3 160 26 159
3 160 129 26
3 161 129 160
3 161 414 416
3 416 415 129
3 414 415 416
3 417 37 418
3 419 37 420
3 421 161 422
3 423 422 37
3 421 422 423
3 424 161 425
3 427 426 161
3 130 428 430
3 428 51 429
3 428 429 430
3 162 51 130
3 162 18 51
3 86 162 27
3 163 162 86
3 163 18 162
3 163 111 18
3 164 111 163
3 164 431 433
3 433 432 111
3 431 432 433
3 113 87 6
3 165 87 113
3 165 38 87
3 434 165 435
3 166 436 438
3 436 165 437
3 436 437 438
3 166 38 165
3 166 164 38
3 439 164 440
3 441 440 166
3 439 440 441
3 443 442 164
3 140 54 2
3 167 54 140
3 167 444 446
3 446 445 54
3 444 445 446
3 89 167 31
3 168 167 89
3 168 447 449
3 449 448 167
3 447 448 449
3 168 450 451
3 169 452 454
3 454 453 168
3 452 453 454
3 169 455 456
3 116 90 8
3 170 90 116
3 170 39 90
3 92 170 21
3 171 170 92
3 171 39 170
3 171 169 39
3 457 169 458
3 459 458 171
3 457 458 459
3 461 460 169
3 463 462 40
