ply
format ascii 1.0
element vertex 636
property float x
property float y
property float z
element face 761
property list uchar int vertex_index
end_header
25.29129 43.441563 12.326591
21.813738 63.687004 -16.440695
25.823698 54.93568 -2.441801
14.57519 40.555191 -17.374008
22.26025 36.877525 -9.669761
18.19656 53.280712 -17.263811
17.85008 39.389153 -12.964732
22.180426 50.754559 -12.457651
25.648823 49.074089 4.82505
28.418846 42.980377 -2.256566
17.848545 65.371368 -22.929783
14.636176 53.064007 -22.716206
24.743767 59.897377 -9.635037
23.501099 66.900566 -4.069428
25.855656 47.091255 -7.729711
27.097025 33.681446 -6.503922
20.23797 58.714775 -17.024744
20.22164 52.321171 -14.792441
22.100956 57.598915 -14.359391
25.490911 46.317787 8.302843
27.613411 43.819984 4.249182
21.144222 69.751343 -18.868103
19.962627 64.853264 -19.624519
18.133541 59.228004 -19.883966
23.462406 69.560326 -8.521947
22.004171 72.667267 -5.432322
14.633996 33.832996 -15.24724
19.938396 38.36356 -11.271214
17.843542 32.29187 -11.312805
19.956491 31.024811 -9.837499
22.465805 29.823826 -8.515133
25.505648 57.589821 -6.076673
25.29887 53.709343 -8.520334
26.376532 51.378014 -5.463036
28.344809 38.882763 -4.846082
12.78918 57.141319 -29.257292
14.6113 46.744373 -19.787746
13.519922 46.53767 -22.840754
16.216801 47.156544 -17.219398
16.022404 40.050598 -14.947287
17.969681 46.319054 -14.927681
20.058363 45.267227 -12.837152
22.270069 43.819027 -10.88036
25.842941 51.926197 1.16939
27.085135 48.761185 -2.233202
27.439148 46.279339 0.972162
29.191891 40.838833 0.668763
15.74374 64.860641 -26.065336
14.371665 58.862766 -26.065094
16.239489 59.5797 -22.878349
16.312969 53.503117 -19.834763
22.793184 68.1567 -15.019608
23.444799 62.07901 -13.172264
23.931454 66.326996 -11.21015
24.578157 63.837189 -7.104511
24.718067 60.80286 -3.03244
21.730453 69.415443 -0.605554
23.175997 63.549538 0.362579
24.440023 57.893322 0.902806
23.973482 54.639217 4.943289
23.447901 51.613113 8.915195
16.006306 33.133785 -13.100468
23.84799 55.637146 -11.456809
24.129107 49.017929 -10.119138
24.454746 42.271545 -9.008092
27.329922 45.01899 -5.0907
26.468983 40.559093 -7.078228
24.734915 35.230785 -8.099723
13.305892 52.13522 -25.936878
21.125063 61.201984 -16.737223
21.220482 58.145012 -15.628071
22.015499 60.7728 -15.353154
25.414719 44.83984 10.268475
26.59181 43.675014 8.145424
21.599535 66.680138 -17.512644
20.690273 67.344292 -19.248234
20.946884 64.289825 -17.968859
20.151924 61.73027 -18.236612
14.024439 37.177952 -17.568159
14.557769 37.016663 -16.251987
21.075941 37.710609 -10.471559
19.998117 34.848824 -10.518187
21.101271 33.993126 -9.788115
21.158579 30.271452 -9.147262
22.289156 33.329746 -9.106336
25.733603 56.20327 -4.331831
25.933788 54.456272 -5.802798
26.215628 53.331757 -4.092022
13.137113 60.561111 -29.457836
14.55934 43.637192 -18.582399
14.000788 43.633606 -19.9786
14.000315 40.540554 -18.764048
17.163034 50.274097 -17.262556
17.076397 46.846458 -16.039871
18.148699 49.876629 -15.999745
21.20487 51.486485 -13.590063
20.123447 48.835987 -13.790211
21.206051 48.044014 -12.649862
21.207581 44.649414 -11.825382
22.258392 47.512661 -11.642811
25.75794 50.542355 2.933995
26.635607 49.058334 1.014436
26.615812 47.76823 2.809225
28.521675 42.351337 2.343
18.599554 68.173264 -22.812336
16.781414 65.304855 -24.55039
16.071316 62.239033 -24.396055
17.105888 62.588253 -22.8846
18.242468 56.297394 -18.46217
17.229429 56.566132 -19.915546
17.234175 53.539322 -18.546772
16.208885 50.32951 -18.556698
22.897411 70.22448 -14.117613
23.431639 67.295532 -13.10251
23.405365 69.321976 -12.02045
23.500755 68.439308 -6.245171
24.067451 66.672348 -7.703443
24.133745 65.414291 -5.550584
24.706625 62.312469 -5.007114
24.121096 63.888676 -3.470352
20.887943 72.195625 -1.133323
22.860447 62.008644 2.52011
23.782919 60.824291 0.675362
23.560894 59.037178 2.768548
24.256138 56.173096 2.895938
23.213331 57.409275 4.956363
22.652393 54.298683 8.803704
22.295998 52.706249 11.056684
23.304626 49.985744 10.775428
22.255438 71.197891 -16.089308
16.893179 39.708092 -13.898707
15.942882 36.462589 -13.99973
16.83197 36.395668 -13.062675
24.170631 61.02132 -11.371693
23.6609 58.803326 -12.277047
24.405993 57.766575 -10.653813
25.624657 50.511749 -7.989911
24.853962 51.222992 -9.371945
25.034159 48.063473 -8.920063
24.288727 45.724792 -9.540741
25.20896 44.752117 -8.517473
27.732899 45.849308 -2.318344
27.299459 47.206047 -3.806404
27.92128 43.944172 -3.747542
27.896463 36.440971 -5.762179
27.419052 39.749889 -6.020877
26.802599 37.018089 -6.770744
25.695454 38.120605 -7.692201
25.883461 34.538639 -7.352156
24.926086 31.752016 -7.653121
14.530756 56.009827 -24.395248
13.796035 55.35516 -25.859201
13.933605 52.487541 -24.181986
19.274225 55.957729 -17.104431
19.195576 52.60083 -15.918395
20.250637 55.406349 -15.817501
21.28142 54.877392 -14.525978
22.164471 54.113285 -13.334833
25.541544 47.688591 6.624672
26.595728 46.453068 4.529945
26.637396 44.989647 6.256862
27.712917 42.465958 5.992639
20.25951 70.234413 -20.601553
19.679983 67.94249 -21.056145
18.911671 65.160439 -21.273045
18.087669 62.308872 -21.302843
19.118572 62.019691 -19.743494
19.175457 59.066166 -18.465439
22.812881 71.22551 -6.984861
22.793062 69.727173 -4.551284
18.88308 39.078072 -12.118745
17.812559 35.799919 -12.104878
18.848093 35.138111 -11.249489
18.894434 31.728544 -10.534172
25.170849 58.918949 -7.917707
25.017904 56.92128 -9.05599
25.541145 55.70171 -7.372662
25.88072 52.512695 -7.047668
26.251516 49.322342 -6.706703
29.169872 39.820263 -2.44979
28.577095 40.818111 -3.642381
12.479255 54.114399 -29.418653
14.675196 50.075207 -21.179207
13.996055 49.674023 -22.688522
14.037299 46.763893 -21.237043
15.297237 43.942677 -17.320148
15.247519 40.469807 -16.144688
16.062157 43.697437 -16.119675
16.900276 43.126747 -14.943327
17.849234 42.844849 -13.937879
19.125355 49.364151 -14.855288
18.941742 45.75832 -13.874448
18.902458 42.333397 -12.931304
20.046642 41.930634 -12.006659
21.078001 41.173645 -11.157403
22.225979 40.227104 -10.253781
25.907213 53.351974 -0.747345
26.445721 51.878365 -2.456095
26.563311 50.461506 -0.655454
27.328457 47.39851 -0.724955
28.073044 44.601231 -0.691259
27.569986 44.956432 2.591153
28.338732 43.436836 0.719962
28.923843 41.594913 -0.906583
14.669551 64.575035 -27.821325
14.066859 61.309525 -27.727379
15.066796 61.957108 -26.045341
15.245916 59.124676 -24.425308
15.393492 56.284443 -22.760935
17.190121 59.602352 -21.389267
16.315296 56.561348 -21.286615
15.425617 53.316936 -21.234964
15.403001 50.227158 -19.809736
15.327348 46.926277 -18.480412
22.408735 65.903801 -15.823695
22.671997 63.033802 -14.824418
23.14957 65.354378 -14.131769
23.832544 64.105309 -12.270168
24.377455 63.223869 -10.375321
23.816147 68.023674 -9.889353
24.358086 64.941948 -9.179673
24.786156 61.96793 -8.530132
25.068977 60.671001 -6.629877
25.217356 59.31554 -4.6238
25.280773 57.793556 -2.707179
21.004425 73.870972 -3.523258
21.9235 71.047134 -2.971161
22.726398 68.061905 -2.34466
22.449692 66.577461 -0.03487
23.383797 65.244812 -1.840881
24.019148 62.354603 -1.482679
24.580065 59.489479 -1.038467
25.201517 56.475124 -0.761632
25.178875 54.721115 1.029742
24.961784 53.310257 3.044455
24.77495 51.813755 4.952556
22.878527 55.92963 6.947329
23.761009 53.094528 6.795432
24.591503 50.364723 6.814883
24.462074 48.882603 8.607644
24.283264 47.46138 10.569777
24.138914 46.024681 12.534514
21.473686 71.918747 -18.142233
22.012341 68.92379 -16.965525
24.015907 44.518509 14.575269
15.205111 37.062614 -15.140425
15.278348 33.586891 -14.121778
15.355659 30.224279 -13.297274
16.836117 32.61171 -12.16998
22.84177 59.913532 -13.880247
22.976723 56.695415 -12.957232
23.104712 53.379608 -12.06764
24.643721 54.490063 -9.946038
24.046196 52.396137 -10.687588
23.201443 50.218281 -11.319223
23.297346 46.77972 -10.604115
23.365755 43.119675 -9.959093
23.448404 39.736423 -9.408023
26.766167 50.195015 -3.817081
26.838831 48.254715 -5.250027
26.653486 46.243656 -6.372164
27.841303 41.950832 -4.943255
27.026741 42.897949 -6.214925
26.161036 43.87616 -7.373199
25.472124 41.543915 -8.075027
24.567543 38.737659 -8.550353
23.47188 36.136311 -8.90751
23.663521 32.660614 -8.366446
23.781929 29.182272 -7.875296
13.513748 57.972019 -27.653648
13.123526 54.824585 -27.536762
12.774565 51.494774 -27.685867
13.404604 49.231842 -24.400188
25.940866 42.891863 11.136922
26.00258 43.591002 10.107864
25.353005 44.140702 11.297533
25.924655 42.226288 12.087843
25.940866 42.891863 11.136922
13.376942 62.141119 -29.468367
12.891666 61.851039 -30.347636
17.670902 66.620979 -23.670807
18.046406 68.021927 -23.612083
18.224049 66.772316 -22.87106
17.314979 65.338111 -23.740087
17.137336 66.587723 -24.48111
17.670902 66.620979 -23.670807
23.08627 70.722416 -12.492992
23.151388 69.773228 -13.069032
22.832293 71.173668 -13.541574
22.700485 61.139253 3.598118
22.358144 62.58469 3.427766
23.050708 59.65352 3.722337
23.21067 60.522911 2.644329
22.700485 61.139253 3.598118
22.876926 58.839569 4.816244
23.387113 58.223226 3.862455
23.050708 59.65352 3.722337
21.729971 53.208416 12.101018
21.880491 54.062732 11.013607
21.314464 54.564899 12.057941
22.207697 51.842271 12.05127
21.729971 53.208416 12.101018
22.832293 71.173668 -13.541574
22.547446 71.735805 -14.655602
26.640127 32.390042 -6.723209
26.033344 32.818638 -7.147325
26.490243 34.110043 -6.928039
27.765087 41.783266 6.879808
27.152363 43.070486 7.069031
27.204534 42.387794 7.956201
28.278162 41.224282 5.851797
27.765087 41.783266 6.879808
20.701866 69.992878 -19.734828
20.405659 71.476502 -20.408551
20.848015 71.234967 -19.541826
22.408526 71.946388 -6.208592
22.355641 72.754601 -7.394841
21.951286 73.475479 -6.618571
14.431401 32.309995 -15.389632
14.3579 33.804845 -15.872981
14.689357 32.18401 -14.796616
14.431401 32.309995 -15.389632
19.438481 29.45938 -9.83524
18.907452 29.811246 -10.183577
19.425463 31.376677 -10.185835
20.048492 29.249662 -9.496156
19.438481 29.45938 -9.83524
21.903132 28.355221 -8.529491
21.249519 28.579034 -8.845555
21.812192 30.047639 -8.831198
22.540629 27.948889 -8.217075
21.903132 28.355221 -8.529491
29.180517 38.767345 -3.071785
29.567395 38.304873 -2.425173
12.436438 56.824347 -30.196649
12.56051 58.47045 -30.191014
12.634218 55.627859 -29.337972
12.281475 55.310886 -30.27733
12.436438 56.824347 -30.196649
13.773692 43.572258 -20.730021
13.784747 41.96929 -20.080154
29.465762 39.82317 -0.177965
29.331739 40.20121 -0.965639
29.057867 41.216873 -0.11891
15.518363 66.247268 -26.945894
16.052313 66.374966 -26.130599
15.206646 64.717838 -26.943331
14.981269 66.104466 -27.823889
15.518363 66.247268 -26.945894
23.639277 68.792 -9.20565
23.473014 69.587128 -10.296848
23.296143 70.355454 -9.613146
20.45927 74.468109 -2.663971
20.499639 75.280556 -3.914583
22.812844 65.0635 0.163854
22.289955 65.722637 1.137269
22.653108 64.208675 1.335993
22.317068 56.494291 7.964671
22.482169 57.344328 6.93548
23.666913 47.97373 11.747225
23.793945 48.723562 10.672602
23.177594 49.235912 11.850051
23.594738 47.255381 12.729594
24.211089 46.743031 11.552145
23.666913 47.97373 11.747225
21.492732 73.066002 -17.735925
21.118614 73.339821 -18.759659
23.417796 44.92327 15.727784
23.464893 45.739481 14.722838
24.419098 28.767144 -7.55289
24.354008 30.467144 -7.764208
24.991177 30.052016 -7.441802
23.901003 27.428774 -7.599789
24.419098 28.767144 -7.55289
26.591125 43.008589 9.046339
26.003265 44.257427 9.20695
26.00258 43.591002 10.107864
27.204534 42.387794 7.956201
26.591125 43.008589 9.046339
21.534603 74.034489 -5.730662
21.951286 73.475479 -6.618571
14.053121 35.477323 -17.033441
13.866945 35.565977 -17.679725
14.319786 35.396679 -16.375355
14.053121 35.477323 -17.033441
14.291104 37.097307 -16.910073
14.595883 35.42483 -15.749613
14.3579 33.804845 -15.872981
14.319786 35.396679 -16.375355
12.734477 60.180346 -30.291286
12.891666 61.851039 -30.347636
12.963147 58.851215 -29.357564
12.56051 58.47045 -30.191014
12.734477 60.180346 -30.291286
13.784511 40.422764 -19.472879
13.784747 41.96929 -20.080154
14.000552 42.08708 -19.371324
13.80754 38.888958 -18.885002
13.784511 40.422764 -19.472879
13.819602 37.207657 -18.287058
13.80754 38.888958 -18.885002
14.012377 38.859253 -18.166103
13.866945 35.565977 -17.679725
13.819602 37.207657 -18.287058
28.611525 41.741612 3.199349
28.067543 43.085661 3.296091
28.157393 42.475935 4.15244
29.028509 41.001802 2.285431
28.611525 41.741612 3.199349
29.363617 40.24555 1.448313
28.856783 41.595085 1.505882
29.028509 41.001802 2.285431
29.688768 39.397175 0.576781
29.363617 40.24555 1.448313
18.327435 69.505596 -23.614049
18.89067 69.464901 -22.688799
18.327435 69.505596 -23.614049
18.046406 68.021927 -23.612083
16.57115 66.597072 -25.373126
17.137336 66.587723 -24.48111
16.262577 65.082748 -25.307863
16.052313 66.374966 -26.130599
16.57115 66.597072 -25.373126
20.336161 72.824219 -0.345199
20.401029 73.630436 -1.469004
20.749989 71.373974 0.093069
20.336161 72.824219 -0.345199
21.171244 69.983882 0.356953
21.309198 70.805534 -0.869439
20.749989 71.373974 0.093069
22.495333 63.438228 2.414759
22.358144 62.58469 3.427766
23.018222 62.779091 1.441345
22.653108 64.208675 1.335993
22.495333 63.438228 2.414759
22.058689 54.858949 9.887117
22.204002 55.678817 8.892858
22.474196 53.502466 9.930194
22.058689 54.858949 9.887117
21.880491 54.062732 11.013607
22.712011 50.482019 11.910642
22.800312 51.345996 10.916056
22.207697 51.842271 12.05127
23.177594 49.235912 11.850051
22.712011 50.482019 11.910642
22.22646 72.222511 -15.64145
21.883608 72.705574 -16.709463
22.576425 70.711185 -15.103461
22.22646 72.222511 -15.64145
22.547446 71.735805 -14.655602
17.380698 30.702067 -11.355436
17.868142 30.476928 -10.949545
25.554657 31.425327 -7.297808
25.404774 33.145328 -7.502638
26.033344 32.818638 -7.147325
24.991177 30.052016 -7.441802
25.554657 31.425327 -7.297808
13.303021 46.315918 -23.733201
13.355832 44.861483 -22.972792
28.207147 41.798922 5.024169
28.157393 42.475935 4.15244
27.663164 43.142971 5.12091
28.207147 41.798922 5.024169
28.278162 41.224282 5.851797
19.933612 71.681259 -21.352499
20.405659 71.476502 -20.408551
19.720648 70.495475 -21.583407
19.933612 71.681259 -21.352499
19.430885 69.349514 -21.810704
19.720648 70.495475 -21.583407
19.969746 69.088452 -20.828849
19.139769 68.057877 -21.934241
18.89067 69.464901 -22.688799
19.430885 69.349514 -21.810704
23.072105 71.048992 -8.840077
23.296143 70.355454 -9.613146
22.747343 71.881585 -8.071535
22.355641 72.754601 -7.394841
23.137644 70.392918 -7.753404
23.072105 71.048992 -8.840077
22.747343 71.881585 -8.071535
18.393588 30.195265 -10.560229
17.868142 30.476928 -10.949545
18.368988 32.010207 -10.923489
18.393588 30.195265 -10.560229
18.907452 29.811246 -10.183577
20.649536 28.872983 -9.151038
20.048492 29.249662 -9.496156
20.557535 30.648131 -9.49238
20.649536 28.872983 -9.151038
21.249519 28.579034 -8.845555
28.884128 39.266269 -3.66808
28.873483 40.319187 -3.046086
29.180517 38.767345 -3.071785
28.767986 38.298595 -4.269931
28.460952 39.850437 -4.244231
28.884128 39.266269 -3.66808
28.622314 37.173186 -4.795301
28.767986 38.298595 -4.269931
28.398141 35.952289 -5.253349
28.120636 37.661867 -5.30413
28.622314 37.173186 -4.795301
28.089236 34.787077 -5.677682
28.398141 35.952289 -5.253349
27.689517 33.407314 -6.048554
27.496744 35.061208 -6.13305
28.089236 34.787077 -5.677682
27.341303 32.075546 -6.297751
27.689517 33.407314 -6.048554
12.209643 53.583765 -30.342489
12.281475 55.310886 -30.27733
12.399682 52.482052 -29.498324
12.209643 53.583765 -30.342489
13.791948 45.137402 -21.359243
14.019044 45.19875 -20.607822
13.773692 43.572258 -20.730021
13.533259 45.02429 -22.161099
13.77861 46.650782 -22.038899
13.791948 45.137402 -21.359243
13.355832 44.861483 -22.972792
13.533259 45.02429 -22.161099
29.454753 39.313885 -1.737242
29.046858 40.707588 -1.678187
29.331739 40.20121 -0.965639
29.567395 38.304873 -2.425173
29.454753 39.313885 -1.737242
29.465762 39.82317 -0.177965
29.688768 39.397175 0.576781
14.417272 65.693238 -28.638556
14.981269 66.104466 -27.823889
14.143161 64.148081 -28.650111
14.417272 65.693238 -28.638556
14.368205 62.94228 -27.774352
13.841815 62.515326 -28.603138
14.143161 64.148081 -28.650111
23.267623 70.236278 -11.362397
23.08627 70.722416 -12.492992
23.610756 68.672825 -10.954902
23.267623 70.236278 -11.362397
23.473014 69.587128 -10.296848
21.03473 74.636342 -4.776129
20.499639 75.280556 -3.914583
21.504298 73.269119 -4.47779
21.534603 74.034489 -5.730662
21.03473 74.636342 -4.776129
20.946184 73.033299 -2.328291
20.45927 74.468109 -2.663971
20.401029 73.630436 -1.469004
21.598095 68.504146 0.606875
21.171244 69.983882 0.356953
21.957715 67.085155 0.892217
22.289955 65.722637 1.137269
22.090072 67.996452 -0.320212
21.598095 68.504146 0.606875
21.957715 67.085155 0.892217
22.64957 58.08415 5.939997
22.876926 58.839569 4.816244
23.045929 56.669453 5.951846
22.64957 58.08415 5.939997
22.482169 57.344328 6.93548
22.76546 55.114156 7.875516
22.317068 56.494291 7.964671
22.204002 55.678817 8.892858
21.012747 72.318669 -19.178891
21.118614 73.339821 -18.759659
21.308954 70.835045 -18.505168
20.848015 71.234967 -19.541826
21.012747 72.318669 -19.178891
21.864562 71.558319 -17.11577
21.492732 73.066002 -17.735925
21.883608 72.705574 -16.709463
23.526397 46.492567 13.70246
23.594738 47.255381 12.729594
24.07741 45.271595 13.554892
23.526397 46.492567 13.70246
23.464893 45.739481 14.722838
24.025931 43.648058 15.55277
23.417796 44.92327 15.727784
24.656928 43.240509 14.3553
24.025931 43.648058 15.55277
25.294619 42.702036 13.230961
24.653599 43.980036 13.45093
24.656928 43.240509 14.3553
25.924655 42.226288 12.087843
25.294619 42.702036 13.230961
15.011533 32.060957 -14.233885
14.689357 32.18401 -14.796616
14.956172 33.709944 -14.684509
15.050189 30.379651 -13.821634
15.011533 32.060957 -14.233885
15.317003 31.905585 -13.709526
15.13409 28.685094 -13.423697
15.050189 30.379651 -13.821634
16.876985 30.861987 -11.784023
17.33983 32.45179 -11.741392
17.380698 30.702067 -11.355436
16.431007 31.11554 -12.260549
16.876985 30.861987 -11.784023
16.016101 31.376578 -12.725793
16.421211 32.872748 -12.635224
16.431007 31.11554 -12.260549
15.690777 29.921824 -12.824196
15.680982 31.679032 -13.198871
16.016101 31.376578 -12.725793
15.436337 28.377432 -12.891597
15.690777 29.921824 -12.824196
15.13409 28.685094 -13.423697
15.436337 28.377432 -12.891597
23.198691 27.628112 -7.897156
22.540629 27.948889 -8.217075
23.123867 29.503049 -8.195215
23.198691 27.628112 -7.897156
23.901003 27.428774 -7.599789
26.640127 32.390042 -6.723209
27.341303 32.075546 -6.297751
13.601986 60.935318 -28.592607
13.376942 62.141119 -29.468367
13.841815 62.515326 -28.603138
12.547337 51.17224 -28.631931
12.399682 52.482052 -29.498324
12.62691 52.804586 -28.55226
13.245362 47.663004 -24.512918
13.462263 47.884756 -23.620471
13.303021 46.315918 -23.733201
13.182683 48.966521 -25.234279
13.245362 47.663004 -24.512918
13.133328 50.41821 -26.002624
13.355248 50.683531 -25.168533
13.182683 48.966521 -25.234279
12.867664 50.097987 -26.877119
13.040229 51.814997 -26.811372
13.133328 50.41821 -26.002624
12.689841 49.852421 -27.783263
12.867664 50.097987 -26.877119
12.547337 51.17224 -28.631931
12.689841 49.852421 -27.783263
3 1 71 69
3 0 273 275
3 275 274 72
3 273 274 275
3 0 276 277
3 1 76 74
3 1 69 76
3 3 79 78
3 4 82 80
3 4 84 82
3 2 87 85
3 278 88 279
3 3 91 89
3 3 78 91
3 5 94 92
3 7 97 95
3 7 99 97
3 8 102 100
3 10 280 282
3 282 281 104
3 280 281 282
3 10 283 285
3 283 105 284
3 283 284 285
3 10 107 105
3 5 110 108
3 5 92 110
3 286 114 287
3 288 287 112
3 286 287 288
3 13 117 115
3 13 119 117
3 289 121 290
3 291 123 292
3 293 292 121
3 291 292 293
3 294 125 295
3 296 295 123
3 294 295 296
3 297 127 298
3 297 298 299
3 301 300 127
3 302 112 303
3 6 132 130
3 12 135 133
3 14 138 136
3 14 140 138
3 9 143 141
3 15 146 144
3 15 148 146
3 15 304 306
3 306 305 148
3 304 305 306
3 11 152 150
3 16 155 153
3 18 156 70
3 18 157 156
3 19 160 158
3 307 161 308
3 309 308 73
3 307 308 309
3 311 310 161
3 21 312 314
3 312 162 313
3 312 313 314
3 22 163 75
3 22 164 163
3 22 166 164
3 16 167 77
3 16 153 167
3 25 315 317
3 315 168 316
3 315 316 317
3 25 169 168
3 26 318 319
3 26 320 321
3 27 172 170
3 29 173 81
3 29 322 324
3 324 323 173
3 322 323 324
3 29 325 326
3 30 327 329
3 329 328 83
3 327 328 329
3 30 330 331
3 31 176 174
3 33 177 86
3 33 178 177
3 333 332 179
3 35 334 335
3 35 336 338
3 336 181 337
3 336 337 338
3 36 184 182
3 340 339 90
3 38 187 185
3 40 188 93
3 40 189 188
3 17 190 154
3 41 191 96
3 41 192 191
3 41 193 192
3 42 194 98
3 42 195 194
3 43 198 196
3 45 199 101
3 45 200 199
3 20 201 159
3 46 202 103
3 46 203 202
3 46 341 343
3 343 342 203
3 341 342 343
3 47 344 345
3 47 346 348
3 346 204 347
3 346 347 348
3 47 206 204
3 49 207 106
3 49 208 207
3 23 209 165
3 50 210 109
3 50 211 210
3 50 212 211
3 38 213 111
3 38 185 213
3 51 216 214
3 53 217 113
3 53 218 217
3 24 349 351
3 349 219 350
3 349 350 351
3 54 220 116
3 54 221 220
3 54 222 221
3 55 223 118
3 55 224 223
3 352 225 353
3 56 226 120
3 56 227 226
3 57 354 356
3 354 228 355
3 354 355 356
3 57 229 228
3 57 230 229
3 58 231 122
3 58 232 231
3 58 233 232
3 59 234 124
3 59 235 234
3 357 236 358
3 60 237 126
3 60 238 237
3 60 239 238
3 359 240 360
3 361 360 128
3 359 360 361
3 362 241 363
3 364 363 240
3 362 363 364
3 365 242 366
3 51 243 129
3 51 214 243
3 367 244 368
3 39 245 186
3 61 246 131
3 61 247 246
3 28 248 171
3 52 249 215
3 62 250 134
3 62 251 250
3 32 252 175
3 63 253 137
3 63 254 253
3 63 255 254
3 64 256 139
3 64 257 256
3 44 258 197
3 65 259 142
3 65 260 259
3 34 261 180
3 66 262 145
3 66 263 262
3 66 264 263
3 67 265 147
3 67 266 265
3 67 267 266
3 369 268 370
3 371 370 149
3 369 370 371
3 373 372 268
3 48 269 205
3 68 270 151
3 68 271 270
3 37 272 183
3 69 70 16
3 71 70 69
3 71 18 70
3 72 73 19
3 374 73 375
3 376 375 72
3 374 375 376
3 378 377 73
3 74 75 21
3 76 75 74
3 76 22 75
3 76 77 22
3 69 77 76
3 69 16 77
3 379 25 380
3 78 381 382
3 79 383 385
3 385 384 78
3 383 384 385
3 79 386 388
3 386 26 387
3 386 387 388
3 80 81 27
3 82 81 80
3 82 29 81
3 82 83 29
3 84 83 82
3 84 30 83
3 85 86 31
3 87 86 85
3 87 33 86
3 88 389 390
3 88 391 393
3 391 35 392
3 391 392 393
3 89 90 36
3 91 90 89
3 91 394 396
3 396 395 90
3 394 395 396
3 91 397 398
3 78 399 401
3 401 400 91
3 399 400 401
3 78 402 403
3 92 93 38
3 94 93 92
3 94 40 93
3 95 96 17
3 97 96 95
3 97 41 96
3 97 98 41
3 99 98 97
3 99 42 98
3 100 101 43
3 102 101 100
3 102 45 101
3 404 103 405
3 406 405 20
3 404 405 406
3 407 103 408
3 409 46 410
3 411 410 103
3 409 410 411
3 413 412 46
3 104 414 415
3 417 416 104
3 105 418 419
3 105 420 422
3 420 47 421
3 420 421 422
3 105 106 47
3 107 106 105
3 107 49 106
3 108 109 23
3 110 109 108
3 110 50 109
3 110 111 50
3 92 111 110
3 92 38 111
3 112 113 51
3 114 113 112
3 114 53 113
3 115 116 24
3 117 116 115
3 117 54 116
3 117 118 54
3 119 118 117
3 119 55 118
3 423 120 424
3 425 120 426
3 427 56 428
3 429 428 120
3 427 428 429
3 121 430 431
3 121 432 434
3 432 57 433
3 432 433 434
3 121 122 57
3 123 122 121
3 123 58 122
3 123 124 58
3 125 124 123
3 125 59 124
3 435 126 436
3 127 437 439
3 437 126 438
3 437 438 439
3 127 60 126
3 127 128 60
3 440 128 441
3 442 441 127
3 440 441 442
3 444 443 128
3 445 129 446
3 112 447 449
3 447 129 448
3 447 448 449
3 112 51 129
3 130 131 39
3 132 131 130
3 132 61 131
3 451 450 28
3 133 134 52
3 135 134 133
3 135 62 134
3 136 137 32
3 138 137 136
3 138 63 137
3 138 139 63
3 140 139 138
3 140 64 139
3 141 142 44
3 143 142 141
3 143 65 142
3 144 145 34
3 146 145 144
3 146 66 145
3 146 147 66
3 148 147 146
3 148 67 147
3 148 149 67
3 452 149 453
3 454 453 148
3 452 453 454
3 456 455 149
3 150 151 48
3 152 151 150
3 152 68 151
3 458 457 37
3 153 154 5
3 155 154 153
3 155 17 154
3 70 155 16
3 156 155 70
3 156 17 155
3 156 95 17
3 157 95 156
3 157 7 95
3 158 159 8
3 160 159 158
3 160 20 159
3 73 160 19
3 161 160 73
3 161 20 160
3 161 459 461
3 461 460 20
3 459 460 461
3 463 462 161
3 162 464 465
3 162 466 467
3 75 162 21
3 163 162 75
3 163 468 470
3 470 469 162
3 468 469 470
3 163 471 473
3 471 104 472
3 471 472 473
3 164 104 163
3 164 10 104
3 164 165 10
3 166 165 164
3 166 23 165
3 77 166 22
3 167 166 77
3 167 23 166
3 167 108 23
3 153 108 167
3 153 5 108
3 474 24 475
3 168 476 477
3 168 478 480
3 478 24 479
3 478 479 480
3 168 115 24
3 169 115 168
3 169 13 115
3 170 171 6
3 172 171 170
3 172 28 171
3 81 172 27
3 173 172 81
3 173 28 172
3 173 481 483
3 483 482 28
3 481 482 483
3 485 484 173
3 83 486 488
3 488 487 29
3 486 487 488
3 490 489 83
3 174 175 12
3 176 175 174
3 176 32 175
3 86 176 31
3 177 176 86
3 177 32 176
3 177 136 32
3 178 136 177
3 178 14 136
3 179 180 9
3 491 180 492
3 493 492 179
3 491 492 493
3 494 34 495
3 496 495 180
3 494 495 496
3 497 34 498
3 499 144 500
3 501 500 34
3 499 500 501
3 502 144 503
3 504 15 505
3 506 505 144
3 504 505 506
3 508 507 15
3 181 509 510
3 181 511 512
3 182 183 11
3 184 183 182
3 184 37 183
3 90 184 36
3 513 184 514
3 515 514 90
3 513 514 515
3 516 37 517
3 518 517 184
3 516 517 518
3 520 519 37
3 185 186 3
3 187 186 185
3 187 39 186
3 93 187 38
3 188 187 93
3 188 39 187
3 188 130 39
3 189 130 188
3 189 6 130
3 154 94 5
3 190 94 154
3 190 40 94
3 96 190 17
3 191 190 96
3 191 40 190
3 191 189 40
3 192 189 191
3 192 6 189
3 192 170 6
3 193 170 192
3 193 27 170
3 98 193 41
3 194 193 98
3 194 27 193
3 194 80 27
3 195 80 194
3 195 4 80
3 196 197 2
3 198 197 196
3 198 44 197
3 101 198 43
3 199 198 101
3 199 44 198
3 199 141 44
3 200 141 199
3 200 9 141
3 159 102 8
3 201 102 159
3 201 45 102
3 103 201 20
3 202 201 103
3 202 45 201
3 202 200 45
3 203 200 202
3 203 9 200
3 203 179 9
3 521 179 522
3 523 522 203
3 521 522 523
3 525 524 179
3 527 526 46
3 204 528 529
3 204 530 531
3 204 532 534
3 532 205 533
3 532 533 534
3 206 205 204
3 206 48 205
3 106 206 47
3 207 206 106
3 207 48 206
3 207 150 48
3 208 150 207
3 208 11 150
3 165 107 10
3 209 107 165
3 209 49 107
3 109 209 23
3 210 209 109
3 210 49 209
3 210 208 49
3 211 208 210
3 211 11 208
3 211 182 11
3 212 182 211
3 212 36 182
3 111 212 50
3 213 212 111
3 213 36 212
3 213 89 36
3 185 89 213
3 185 3 89
3 214 215 1
3 216 215 214
3 216 52 215
3 113 216 51
3 217 216 113
3 217 52 216
3 217 133 52
3 218 133 217
3 218 12 133
3 535 114 536
3 219 537 539
3 537 114 538
3 537 538 539
3 219 53 114
3 116 219 24
3 220 219 116
3 220 53 219
3 220 218 53
3 221 218 220
3 221 12 218
3 221 174 12
3 222 174 221
3 222 31 174
3 118 222 54
3 223 222 118
3 223 31 222
3 223 85 31
3 224 85 223
3 224 2 85
3 225 540 541
3 225 542 544
3 542 25 543
3 542 543 544
3 120 545 547
3 545 225 546
3 545 546 547
3 226 225 120
3 226 25 225
3 226 169 25
3 227 169 226
3 227 13 169
3 548 56 549
3 228 550 551
3 228 552 554
3 552 56 553
3 552 553 554
3 228 227 56
3 229 227 228
3 229 13 227
3 229 119 13
3 230 119 229
3 230 55 119
3 122 230 57
3 231 230 122
3 231 55 230
3 231 224 55
3 232 224 231
3 232 2 224
3 232 196 2
3 233 196 232
3 233 43 196
3 124 233 58
3 234 233 124
3 234 43 233
3 234 100 43
3 235 100 234
3 235 8 100
3 555 125 556
3 236 557 559
3 557 125 558
3 557 558 559
3 236 59 125
3 126 560 562
3 560 236 561
3 560 561 562
3 237 236 126
3 237 59 236
3 237 235 59
3 238 235 237
3 238 8 235
3 238 158 8
3 239 158 238
3 239 19 158
3 128 239 60
3 240 239 128
3 240 19 239
3 240 72 19
3 241 72 240
3 241 0 72
3 242 563 564
3 242 565 567
3 565 21 566
3 565 566 567
3 129 568 570
3 568 242 569
3 568 569 570
3 243 242 129
3 243 21 242
3 243 74 21
3 214 74 243
3 214 1 74
3 571 241 572
3 244 573 575
3 573 241 574
3 573 574 575
3 244 0 241
3 576 244 577
3 578 244 579
3 580 0 581
3 582 581 244
3 580 581 582
3 584 583 0
3 186 79 3
3 245 79 186
3 245 26 79
3 131 245 39
3 246 245 131
3 246 26 245
3 246 585 587
3 587 586 26
3 585 586 587
3 247 588 590
3 590 589 246
3 588 589 590
3 247 591 592
3 171 132 6
3 248 132 171
3 248 61 132
3 593 248 594
3 595 594 28
3 593 594 595
3 596 248 597
3 598 61 599
3 600 599 248
3 598 599 600
3 601 247 602
3 603 602 61
3 601 602 603
3 604 247 605
3 607 606 247
3 215 71 1
3 249 71 215
3 249 18 71
3 134 249 52
3 250 249 134
3 250 18 249
3 250 157 18
3 251 157 250
3 251 7 157
3 175 135 12
3 252 135 175
3 252 62 135
3 137 252 32
3 253 252 137
3 253 62 252
3 253 251 62
3 254 251 253
3 254 7 251
3 254 99 7
3 255 99 254
3 255 42 99
3 139 255 63
3 256 255 139
3 256 42 255
3 256 195 42
3 257 195 256
3 257 4 195
3 197 87 2
3 258 87 197
3 258 33 87
3 142 258 44
3 259 258 142
3 259 33 258
3 259 178 33
3 260 178 259
3 260 14 178
3 180 143 9
3 261 143 180
3 261 65 143
3 145 261 34
3 262 261 145
3 262 65 261
3 262 260 65
3 263 260 262
3 263 14 260
3 263 140 14
3 264 140 263
3 264 64 140
3 147 264 66
3 265 264 147
3 265 64 264
3 265 257 64
3 266 257 265
3 266 4 257
3 266 84 4
3 267 84 266
3 267 30 84
3 149 267 67
3 268 267 149
3 268 30 267
3 268 608 610
3 610 609 30
3 608 609 610
3 612 611 268
3 614 613 15
3 205 615 617
3 615 88 616
3 615 616 617
3 269 88 205
3 269 35 88
3 151 269 48
3 270 269 151
3 270 35 269
3 270 181 35
3 271 181 270
3 271 618 620
3 620 619 181
3 618 619 620
3 183 152 11
3 272 152 183
3 272 68 152
3 621 272 622
3 623 622 37
3 621 622 623
3 624 272 625
3 626 68 627
3 628 627 272
3 626 627 628
3 629 271 630
3 631 630 68
3 629 630 631
3 632 271 633
3 635 634 271
