ply
format ascii 1.0
element vertex 338
property float x
property float y
property float z
element face 374
property list uchar int vertex_index
end_header
38.660393 -21.086172 -20.764055
36.380753 -16.852034 -6.507609
36.822697 -30.017202 -17.420744
38.870361 -24.007097 -4.993856
38.699265 -11.912525 -22.589125
39.358784 -14.646382 -28.838461
35.991665 -11.142068 -14.883523
38.590031 -18.491417 -14.244009
38.27319 -26.724535 -12.04682
38.979164 -16.440439 -21.809299
39.200912 -12.937631 -25.961899
38.987022 -17.896172 -24.853689
36.059704 -14.158927 -10.740893
37.644947 -14.679832 -14.687207
37.809105 -17.789799 -10.319066
38.781376 -25.249872 -8.702762
37.868092 -25.734804 -19.164539
38.325089 -22.942066 -23.246016
37.375072 -27.781973 -21.241798
38.041851 -20.273306 -5.96818
37.741196 -7.587218 -22.998518
38.868446 -8.19951 -26.670033
38.862869 -20.04495 -27.236816
35.922901 -7.678783 -18.743267
37.612267 -11.309304 -18.784641
38.600147 -15.393791 -18.451145
38.840137 -19.530712 -17.806454
38.701488 -21.524841 -9.684702
38.772884 -22.542479 -13.309687
38.424934 -23.9746 -16.601873
37.535172 -28.265974 -15.061727
38.898949 -18.626755 -21.409594
39.015438 -17.069101 -23.441835
38.803974 -19.61915 -22.797113
35.118542 -13.979519 -8.746316
36.130333 -15.481776 -8.609755
36.991531 -15.927976 -10.468889
37.113861 -17.211685 -8.466282
37.367466 -27.927017 -18.249331
37.624691 -26.599373 -20.255714
37.09026 -28.874237 -19.35195
37.765392 -20.725082 -1.786217
38.283955 -9.759882 -22.708874
38.394009 -7.950801 -24.80813
38.767132 -9.963393 -24.696024
39.305946 -13.665163 -27.421621
39.34132 -11.107085 -28.092665
39.466919 -11.886971 -29.487829
38.155174 -24.218174 -24.248474
38.580772 -21.511299 -25.200821
34.931061 -11.096721 -12.810285
34.861557 -9.49787 -14.748445
34.797642 -7.803616 -16.625099
35.989265 -9.511005 -16.853666
36.876781 -9.482458 -18.823893
36.888897 -11.299736 -16.780018
38.222229 -16.536608 -14.573031
38.205067 -15.031516 -16.570059
38.588722 -16.931231 -16.467796
38.80941 -17.551416 -18.067526
38.781326 -19.13043 -15.930923
38.553699 -22.049608 -5.499816
38.456425 -20.946489 -7.781563
38.769421 -22.776157 -7.240995
38.566353 -25.949528 -10.518477
38.765919 -23.907677 -11.171582
38.597328 -24.572464 -12.883604
38.631142 -23.290468 -15.084424
38.321812 -25.481667 -14.314978
38.031174 -26.115572 -15.882854
37.917114 -27.474802 -13.631995
36.526966 -31.061703 -18.298977
38.922375 -14.132987 -22.313416
38.994064 -12.331867 -24.251995
39.07917 -14.664902 -23.881716
39.152298 -15.451954 -25.394253
39.168949 -16.248566 -26.807207
34.950165 -12.63171 -10.629207
36.002617 -12.730323 -12.777512
36.903255 -12.849313 -14.855183
36.952183 -14.516895 -12.631934
37.701874 -16.275755 -12.48885
38.247204 -18.078711 -12.216242
38.879215 -24.543865 -6.995698
37.821873 -28.757908 -11.375665
38.298359 -23.489765 -20.050932
38.508873 -21.873497 -22.107817
38.099689 -24.274487 -21.295282
37.860794 -25.488867 -22.2701
36.836147 -30.063553 -20.116169
37.300152 -18.482481 -6.367082
37.541229 -19.718456 -4.087935
38.21508 -21.376331 -3.752578
38.705925 -23.161985 -3.271034
39.113323 -10.54634 -26.389301
39.227375 -8.816063 -28.346569
38.720242 -20.289082 -24.252766
38.937119 -18.775337 -26.243244
39.158726 -17.341446 -28.185211
39.409534 -15.68781 -30.211329
36.952774 -7.651976 -20.919136
37.652149 -9.509863 -20.831108
38.23177 -11.478628 -20.787504
37.664886 -13.156949 -16.769403
38.197777 -13.28347 -18.66684
38.628239 -13.674539 -20.47822
38.853249 -15.77449 -20.255489
38.897976 -18.032892 -19.79837
38.777336 -20.388376 -19.383179
37.897369 -19.031822 -8.195492
38.365135 -19.676401 -9.966309
38.621288 -19.999729 -11.913419
38.826336 -23.29183 -9.343863
38.791271 -21.965832 -11.579908
38.774078 -20.583303 -13.754495
38.791397 -21.232306 -15.551147
38.715446 -21.67263 -17.253586
38.53072 -22.578989 -18.67268
38.152603 -24.816299 -17.992172
37.689419 -27.004026 -17.164463
37.15218 -29.136955 -16.314533
37.394699 -29.52298 -12.895824
36.975624 -30.286966 -14.315654
36.594162 -31.123703 -15.45218
35.833117 -16.061765 -6.559049
35.949234 -16.583005 -5.642814
36.255543 -16.166905 -7.558682
35.707906 -15.376636 -7.610121
35.833117 -16.061765 -6.559049
39.454487 -13.800477 -29.815676
39.508555 -12.420772 -30.14036
39.412852 -13.266676 -29.163145
38.32873 -23.469338 -25.254762
38.113468 -24.844566 -24.748225
37.536999 -27.224496 -22.234316
37.77986 -26.077943 -22.748468
37.617933 -26.63542 -21.755949
36.545543 -31.185402 -19.50808
36.681556 -30.562628 -19.207573
36.390953 -31.684477 -18.599485
37.214304 -19.361061 -3.198611
37.076569 -18.861206 -4.24137
38.311981 -21.87812 -2.55692
37.990236 -21.050707 -2.769398
38.087137 -21.552495 -1.573739
38.557403 -22.770947 -2.316148
38.460503 -22.269158 -3.511806
38.311981 -21.87812 -2.55692
37.788843 -6.717472 -23.958533
37.369985 -6.667478 -22.949894
38.662431 -7.098705 -26.737923
38.425213 -6.97435 -25.806971
38.631227 -8.075156 -25.739081
38.921351 -7.274218 -27.68817
38.662431 -7.098705 -26.737923
39.350502 -9.031517 -29.254759
39.284348 -9.961574 -28.219617
39.407475 -10.177028 -29.127807
39.273388 -7.828333 -29.337851
39.350502 -9.031517 -29.254759
39.429296 -16.439758 -30.726886
39.285917 -17.142752 -29.762617
39.524591 -14.999904 -31.183385
39.429296 -16.439758 -30.726886
35.382191 -6.851446 -18.687538
34.819561 -6.913862 -17.628454
35.360272 -7.7412 -17.684183
35.968252 -6.783184 -19.755227
35.382191 -6.851446 -18.687538
36.437838 -7.66538 -19.831201
36.483188 -6.769781 -20.843162
35.968252 -6.783184 -19.755227
37.334637 -30.130533 -11.783961
37.608286 -29.140444 -12.135744
37.548223 -29.747996 -11.023881
36.683096 -31.262215 -13.882694
36.902851 -30.849226 -13.272492
36.492365 -31.680584 -14.450957
36.784893 -30.705334 -14.883917
36.683096 -31.262215 -13.882694
36.310184 -32.075871 -14.974038
36.492365 -31.680584 -14.450957
35.202011 -14.625508 -7.678402
34.579018 -13.769065 -7.89176
35.624437 -14.730647 -8.678036
35.202011 -14.625508 -7.678402
35.707906 -15.376636 -7.610121
37.501087 -20.348062 -0.952018
37.326386 -19.864374 -2.047751
37.897247 -21.178123 -0.584048
37.501087 -20.348062 -0.952018
38.087137 -21.552495 -1.573739
37.897247 -21.178123 -0.584048
39.470274 -10.566971 -29.825389
39.407475 -10.177028 -29.127807
39.40412 -11.497028 -28.790247
39.547796 -11.035538 -30.542966
39.470274 -10.566971 -29.825389
39.547796 -11.035538 -30.542966
39.508555 -12.420772 -30.14036
38.541528 -22.115901 -25.730935
38.367973 -22.864736 -24.724648
38.32873 -23.469338 -25.254762
38.682577 -21.382727 -26.748933
38.721821 -20.778125 -26.218819
38.541528 -22.115901 -25.730935
34.251161 -10.238307 -12.780848
34.345344 -11.036136 -11.835341
34.216409 -9.438881 -13.749928
34.251161 -10.238307 -12.780848
34.896309 -10.297296 -13.779365
34.22457 -8.661989 -14.728206
34.216409 -9.438881 -13.749928
34.8296 -8.650743 -15.686772
34.192612 -7.814862 -15.666533
34.22457 -8.661989 -14.728206
36.39547 -31.540806 -17.343037
36.674831 -30.539453 -17.85986
36.543335 -31.018555 -16.90392
36.252609 -32.046486 -17.719943
36.39547 -31.540806 -17.343037
36.116596 -32.66926 -18.020451
36.390953 -31.684477 -18.599485
36.252609 -32.046486 -17.719943
34.469551 -13.168212 -8.773846
34.579018 -13.769065 -7.89176
34.385362 -12.494308 -9.715291
34.469551 -13.168212 -8.773846
35.034353 -13.305615 -9.687762
34.354896 -11.80363 -10.744802
34.385362 -12.494308 -9.715291
34.940613 -11.864216 -11.719746
34.345344 -11.036136 -11.835341
34.354896 -11.80363 -10.744802
38.911857 -25.173605 -5.805997
38.874788 -24.275481 -5.994777
38.907431 -24.905221 -4.805076
38.837272 -25.528984 -6.7069
38.911857 -25.173605 -5.805997
38.788353 -25.881988 -7.560431
38.830296 -24.896869 -7.84923
38.837272 -25.528984 -6.7069
38.662424 -26.242044 -8.456516
38.788353 -25.881988 -7.560431
38.554913 -26.591873 -9.364374
38.673865 -25.5997 -9.61062
38.662424 -26.242044 -8.456516
38.394747 -26.978763 -10.116228
38.554913 -26.591873 -9.364374
38.248165 -27.366267 -10.880399
38.419771 -26.337032 -11.282649
38.394747 -26.978763 -10.116228
38.022507 -28.382953 -10.544821
38.047531 -27.741222 -11.711243
38.248165 -27.366267 -10.880399
37.792687 -29.301248 -10.308504
38.022507 -28.382953 -10.544821
37.548223 -29.747996 -11.023881
37.792687 -29.301248 -10.308504
37.92705 -25.442597 -23.737655
38.007984 -24.853521 -23.259287
37.77986 -26.077943 -22.748468
38.113468 -24.844566 -24.748225
37.92705 -25.442597 -23.737655
36.728845 -30.7363 -20.429668
36.545543 -31.185402 -19.50808
37.005067 -29.576 -21.044193
36.728845 -30.7363 -20.429668
37.27453 -28.435209 -21.607007
37.105609 -28.922763 -20.678984
37.005067 -29.576 -21.044193
37.536999 -27.224496 -22.234316
37.27453 -28.435209 -21.607007
36.49633 -17.427995 -5.451207
35.949234 -16.583005 -5.642814
36.95603 -18.243218 -5.380943
36.840452 -17.667257 -6.437346
36.49633 -17.427995 -5.451207
37.42069 -19.100468 -5.227508
36.95603 -18.243218 -5.380943
37.076569 -18.861206 -4.24137
37.653311 -20.221769 -2.937076
37.214304 -19.361061 -3.198611
37.326386 -19.864374 -2.047751
38.792055 -23.695603 -2.052164
38.557403 -22.770947 -2.316148
38.842739 -24.116852 -2.954003
38.792055 -23.695603 -2.052164
38.924957 -24.539408 -3.815414
38.788143 -23.584541 -4.132445
38.842739 -24.116852 -2.954003
38.907431 -24.905221 -4.805076
38.924957 -24.539408 -3.815414
38.11525 -6.899263 -24.863338
37.788843 -6.717472 -23.958533
38.067602 -7.76901 -23.903324
38.11525 -6.899263 -24.863338
38.425213 -6.97435 -25.806971
39.100815 -7.582495 -28.526438
38.921351 -7.274218 -27.68817
39.047911 -8.507786 -27.508301
39.100815 -7.582495 -28.526438
39.273388 -7.828333 -29.337851
38.857565 -20.670269 -27.750784
38.682577 -21.382727 -26.748933
39.012585 -19.321322 -28.27536
38.857565 -20.670269 -27.750784
39.007281 -19.946641 -28.789327
39.160513 -17.96957 -28.749558
39.010798 -18.693198 -27.711013
39.012585 -19.321322 -28.27536
39.28413 -16.514628 -29.19827
39.160513 -17.96957 -28.749558
39.285917 -17.142752 -29.762617
39.479862 -14.321192 -30.502111
39.454487 -13.800477 -29.815676
39.384159 -15.167096 -29.524895
39.479862 -14.321192 -30.502111
39.524591 -14.999904 -31.183385
34.16321 -6.970734 -16.589726
34.192612 -7.814862 -15.666533
34.16321 -6.970734 -16.589726
34.819561 -6.913862 -17.628454
36.975774 -6.699857 -21.910203
36.483188 -6.769781 -20.843162
37.346985 -7.619597 -21.958827
37.369985 -6.667478 -22.949894
36.975774 -6.699857 -21.910203
37.112389 -30.467233 -12.562577
37.334637 -30.130533 -11.783961
37.185162 -29.904973 -13.605739
37.112389 -30.467233 -12.562577
36.902851 -30.849226 -13.272492
36.429068 -31.571806 -15.919638
36.543335 -31.018555 -16.90392
36.708429 -30.570453 -16.436462
36.429068 -31.571806 -15.919638
36.310184 -32.075871 -14.974038
3 0 33 31
3 1 124 125
3 1 126 128
3 126 35 127
3 126 127 128
3 1 37 35
3 2 40 38
3 4 44 42
3 5 47 45
3 5 129 131
3 131 130 47
3 129 130 131
3 133 132 48
3 6 51 50
3 6 53 51
3 6 55 53
3 7 58 56
3 7 60 58
3 3 63 61
3 8 66 64
3 8 68 66
3 8 70 68
3 9 74 72
3 11 75 32
3 11 76 75
3 12 77 34
3 12 78 77
3 12 80 78
3 14 81 36
3 14 82 81
3 16 87 85
3 18 88 39
3 18 134 136
3 136 135 88
3 134 135 136
3 137 89 138
3 139 138 71
3 137 138 139
3 140 91 141
3 142 92 143
3 144 143 41
3 142 143 144
3 145 93 146
3 147 146 92
3 145 146 147
3 20 148 149
3 21 150 152
3 152 151 43
3 150 151 152
3 21 153 154
3 10 94 73
3 155 95 156
3 157 156 46
3 155 156 157
3 159 158 95
3 17 96 86
3 22 97 49
3 22 98 97
3 160 99 161
3 163 162 99
3 23 164 166
3 166 165 52
3 164 165 166
3 23 167 168
3 23 169 171
3 169 100 170
3 169 170 171
3 24 101 54
3 24 102 101
3 13 103 79
3 25 104 57
3 25 105 104
3 25 106 105
3 26 107 59
3 26 108 107
3 19 109 90
3 27 110 62
3 27 111 110
3 15 112 83
3 28 113 65
3 28 114 113
3 28 115 114
3 29 116 67
3 29 117 116
3 29 118 117
3 30 119 69
3 30 120 119
3 172 121 173
3 174 173 84
3 172 173 174
3 175 122 176
3 177 123 178
3 179 178 122
3 177 178 179
3 181 180 123
3 31 32 9
3 33 32 31
3 33 11 32
3 182 34 183
3 35 184 186
3 184 34 185
3 184 185 186
3 35 12 34
3 35 36 12
3 37 36 35
3 37 14 36
3 38 39 16
3 40 39 38
3 40 18 39
3 187 41 188
3 189 41 190
3 192 191 41
3 42 43 20
3 44 43 42
3 44 21 43
3 45 46 10
3 47 46 45
3 47 193 195
3 195 194 46
3 193 194 195
3 47 196 197
3 199 198 47
3 48 49 17
3 200 49 201
3 202 201 48
3 200 201 202
3 203 22 204
3 205 204 49
3 203 204 205
3 50 206 207
3 51 208 210
3 210 209 50
3 208 209 210
3 51 211 212
3 51 213 215
3 213 52 214
3 213 214 215
3 53 52 51
3 53 23 52
3 53 54 23
3 55 54 53
3 55 24 54
3 56 57 13
3 58 57 56
3 58 25 57
3 58 59 25
3 60 59 58
3 60 26 59
3 61 62 19
3 63 62 61
3 63 27 62
3 64 65 15
3 66 65 64
3 66 28 65
3 66 67 28
3 68 67 66
3 68 29 67
3 68 69 29
3 70 69 68
3 70 30 69
3 216 71 217
3 218 217 2
3 216 217 218
3 219 71 220
3 223 222 71
3 221 222 223
3 72 73 4
3 74 73 72
3 74 10 73
3 32 74 9
3 75 74 32
3 75 10 74
3 75 45 10
3 76 45 75
3 76 5 45
3 34 224 225
3 77 226 228
3 228 227 34
3 226 227 228
3 77 229 230
3 77 231 233
3 231 50 232
3 231 232 233
3 78 50 77
3 78 6 50
3 78 79 6
3 80 79 78
3 80 13 79
3 36 80 12
3 81 80 36
3 81 13 80
3 81 56 13
3 82 56 81
3 82 7 56
3 234 83 235
3 236 235 3
3 234 235 236
3 237 83 238
3 239 15 240
3 241 240 83
3 239 240 241
3 242 15 243
3 244 64 245
3 246 245 15
3 244 245 246
3 247 64 248
3 249 8 250
3 251 250 64
3 249 250 251
3 252 84 253
3 254 253 8
3 252 253 254
3 255 84 256
3 258 257 84
3 85 86 0
3 87 86 85
3 87 17 86
3 39 87 16
3 88 87 39
3 88 17 87
3 88 48 17
3 259 48 260
3 261 260 88
3 259 260 261
3 263 262 48
3 71 40 2
3 89 40 71
3 89 18 40
3 264 89 265
3 266 89 267
3 268 18 269
3 270 269 89
3 268 269 270
3 272 271 18
3 273 1 274
3 275 90 276
3 277 276 1
3 275 276 277
3 91 278 280
3 278 90 279
3 278 279 280
3 91 19 90
3 41 281 283
3 281 91 282
3 281 282 283
3 92 91 41
3 92 19 91
3 92 61 19
3 93 61 92
3 93 3 61
3 284 93 285
3 286 93 287
3 288 3 289
3 290 289 93
3 288 289 290
3 292 291 3
3 43 293 295
3 295 294 20
3 293 294 295
3 297 296 43
3 73 44 4
3 94 44 73
3 94 21 44
3 46 94 10
3 95 94 46
3 95 21 94
3 95 298 300
3 300 299 21
3 298 299 300
3 302 301 95
3 86 33 0
3 96 33 86
3 96 11 33
3 49 96 17
3 97 96 49
3 97 11 96
3 97 76 11
3 98 76 97
3 98 5 76
3 303 22 304
3 305 22 306
3 305 306 307
3 308 98 309
3 310 309 22
3 308 309 310
3 99 311 313
3 311 98 312
3 311 312 313
3 99 5 98
3 99 314 316
3 316 315 5
3 314 315 316
3 318 317 99
3 52 319 320
3 322 321 52
3 100 323 324
3 100 325 327
3 325 20 326
3 325 326 327
3 54 100 23
3 101 100 54
3 101 20 100
3 101 42 20
3 102 42 101
3 102 4 42
3 79 55 6
3 103 55 79
3 103 24 55
3 57 103 13
3 104 103 57
3 104 24 103
3 104 102 24
3 105 102 104
3 105 4 102
3 105 72 4
3 106 72 105
3 106 9 72
3 59 106 25
3 107 106 59
3 107 9 106
3 107 31 9
3 108 31 107
3 108 0 31
3 90 37 1
3 109 37 90
3 109 14 37
3 62 109 19
3 110 109 62
3 110 14 109
3 110 82 14
3 111 82 110
3 111 7 82
3 83 63 3
3 112 63 83
3 112 27 63
3 65 112 15
3 113 112 65
3 113 27 112
3 113 111 27
3 114 111 113
3 114 7 111
3 114 60 7
3 115 60 114
3 115 26 60
3 67 115 28
3 116 115 67
3 116 26 115
3 116 108 26
3 117 108 116
3 117 0 108
3 117 85 0
3 118 85 117
3 118 16 85
3 69 118 29
3 119 118 69
3 119 16 118
3 119 38 16
3 120 38 119
3 120 2 38
3 84 70 8
3 121 70 84
3 121 30 70
3 328 121 329
3 122 330 332
3 330 121 331
3 330 331 332
3 122 30 121
3 122 120 30
3 123 120 122
3 123 2 120
3 123 333 335
3 335 334 2
3 333 334 335
3 337 336 123
