ply
format ascii 1.0
element vertex 515
property float x
property float y
property float z
element face 475
property list uchar int vertex_index
end_header
37.620655 11.782402 20.172951
38.735832 3.83157 21.969328
39.374695 15.777584 12.507691
28.686516 20.817019 -4.745104
34.4482 19.220753 -0.701542
38.353561 17.856066 5.136202
35.011791 12.890176 23.267584
36.054867 8.890241 24.051184
36.537464 15.778339 19.132441
31.658659 19.966854 -2.9762
36.607903 23.018932 4.004755
37.525612 21.748247 7.494498
39.259712 16.97678 8.620244
39.632809 10.24356 17.425463
38.396996 7.827852 21.048834
36.718647 5.029549 24.866568
38.845718 14.024404 16.234385
15.551583 20.460873 -12.190374
16.806643 19.147751 -10.227717
18.472181 18.176514 -8.689671
20.740166 17.124336 -7.336986
23.358868 15.938428 -6.108847
26.35968 14.932059 -4.804254
29.64995 14.371533 -3.264957
32.714741 13.963493 -1.440982
35.647717 13.823578 0.923218
36.686092 18.63166 1.968557
38.001537 13.48786 3.795793
39.574043 13.127286 6.955619
40.371372 12.674108 10.559235
33.646076 13.254998 24.818609
34.211685 11.236676 25.21018
32.953354 15.119183 24.642256
34.464272 14.912031 22.781305
38.77549 11.018592 18.668819
39.101471 9.199796 19.108885
38.082069 9.857946 20.553003
35.097527 7.439917 25.990871
36.466309 7.056085 24.358355
35.435848 5.49936 26.411337
37.13953 13.710794 19.669008
37.762783 14.876745 17.71513
38.319092 12.916172 18.211321
39.315796 11.998301 16.892113
14.697246 23.988718 -13.989057
15.17311 23.809757 -12.845312
16.414507 22.440378 -10.907844
17.251343 22.165356 -10.062655
17.563465 18.670429 -9.429261
18.160326 21.506798 -9.304261
20.396177 20.431572 -7.968085
21.703032 19.992001 -7.365677
22.038139 16.492252 -6.7021
22.990953 19.388012 -6.7912
25.937727 18.148092 -5.513575
27.512602 17.930315 -4.853378
27.984238 14.677717 -4.08987
29.108881 17.384121 -4.059056
33.124584 19.70632 -1.88588
32.256737 16.95969 -2.24197
33.690865 16.805107 -1.192468
34.172058 13.979621 -0.394431
35.06953 16.323895 0.047039
37.528019 20.49111 4.512877
36.748119 21.125988 2.839202
37.610821 18.431486 3.562331
37.427723 16.051382 2.857065
38.301151 15.6707 4.331423
38.892254 13.270468 5.3536
39.015087 15.498898 5.958756
39.41391 16.452065 10.516756
39.898827 14.757511 9.587754
40.001225 14.322165 11.442293
39.926449 13.71503 13.287246
36.370213 12.395561 21.692293
36.892139 10.43741 22.071922
35.642265 10.879211 23.567268
34.684502 9.386571 25.573992
35.155865 16.347582 20.85634
35.891891 14.353545 21.139109
30.167566 20.243294 -3.912253
37.166775 22.388481 5.790702
38.096012 19.9062 6.221335
38.82793 17.734013 6.834398
38.447937 19.397167 8.01763
38.639324 18.756636 9.777163
38.715355 17.829386 11.794136
39.281406 7.23893 19.678061
38.545399 5.741583 21.667519
37.301697 8.518085 22.467073
37.573486 6.456353 22.997978
37.737198 4.365922 23.566948
36.963448 2.874968 25.316425
38.461407 17.163076 13.797648
37.111107 16.872108 17.223616
38.205379 16.06027 15.730075
39.144371 15.118092 14.315808
39.685421 12.9955 15.069182
40.070057 11.091269 15.710295
15.767008 23.129362 -11.799821
16.122335 19.636623 -11.166677
19.196918 20.92815 -8.613367
19.543169 17.598213 -7.979899
22.342155 13.183116 -6.067821
23.658747 12.65385 -5.446149
24.422136 18.702602 -6.163783
24.749077 15.417619 -5.504853
25.206629 12.259515 -4.762065
26.781961 11.805683 -4.033105
28.422337 11.721244 -3.298103
29.967579 11.415853 -2.482389
30.702097 17.141705 -3.205956
31.181591 14.241516 -2.431258
35.907787 23.569632 2.388891
35.943939 21.364697 1.39703
35.590714 19.016365 0.528894
36.309967 16.278839 1.359302
36.948921 13.610269 2.359555
39.545502 15.242943 7.710538
40.084522 12.970192 8.74171
33.184139 12.480826 25.79298
32.913088 13.38862 25.648092
32.566727 14.320712 25.559916
32.144847 15.249125 25.58796
32.913088 13.38862 25.648092
33.299715 14.187091 24.730432
32.566727 14.320712 25.559916
34.743332 5.652866 27.200896
35.266688 6.469639 26.201104
34.574171 6.623145 26.990663
34.954324 4.663864 27.349306
34.743332 5.652866 27.200896
14.804884 25.567313 -13.769588
14.555454 25.646225 -14.342465
15.042816 25.477832 -13.197716
14.935178 23.899237 -13.417185
14.804884 25.567313 -13.769588
17.622235 23.518189 -9.976714
17.149287 23.859799 -10.379143
18.076727 23.18891 -9.597517
17.705835 21.836077 -9.683458
17.622235 23.518189 -9.976714
22.272208 21.386215 -7.361147
21.598248 21.666064 -7.657502
22.916168 21.08422 -7.073909
22.346992 19.690006 -7.078438
22.272208 21.386215 -7.361147
27.919155 20.947527 -5.105818
28.479411 22.434105 -5.023544
28.099559 19.373667 -4.799241
27.332198 19.504175 -5.159956
27.919155 20.947527 -5.105818
39.109462 3.537338 21.220576
39.077356 4.569354 21.028697
33.908589 9.588206 26.407294
34.448093 10.311623 25.392086
33.67218 10.513258 26.225389
34.218377 8.650227 26.490733
33.908589 9.588206 26.407294
34.374918 16.57177 21.816168
34.779781 17.283178 20.742645
37.346193 22.068364 6.6426
36.80934 23.299756 6.452699
36.988758 22.979639 7.304597
38.238882 19.411307 10.551253
38.17918 19.9159 9.542979
38.276898 18.947682 11.55974
38.67734 18.293011 10.785649
38.238882 19.411307 10.551253
39.754242 9.339374 17.648276
39.951985 9.840784 16.882368
37.970068 17.61285 14.53959
38.106537 18.149941 13.511809
36.824286 16.325223 18.178028
36.43565 17.312548 18.038334
36.148829 16.765663 18.992747
39.951985 9.840784 16.882368
40.170609 10.264639 16.024784
39.851433 10.667414 16.567879
15.561125 19.227483 -12.495384
15.315043 20.736918 -12.768619
15.793468 18.789288 -11.919816
15.80301 17.555898 -12.224826
15.561125 19.227483 -12.495384
16.000357 24.64859 -11.676683
15.642012 24.829974 -12.14287
16.688306 17.806693 -10.419642
16.346152 18.051129 -10.889122
16.464489 19.392187 -10.697197
17.016744 17.576537 -9.942315
16.688306 17.806693 -10.419642
18.235483 16.78093 -8.751845
17.781125 17.027887 -9.12164
18.017823 18.423471 -9.059466
18.691876 16.520067 -8.370656
18.235483 16.78093 -8.751845
19.696109 22.426831 -8.595136
19.118749 22.672675 -8.910956
20.320643 15.773568 -7.364779
19.722145 16.010507 -7.686236
20.141667 17.361275 -7.658442
20.908455 15.44145 -7.023321
20.320643 15.773568 -7.364779
25.03594 20.126327 -6.149777
24.293804 20.478758 -6.478759
32.209187 12.604038 -1.461993
31.442611 12.74305 -1.957131
31.948166 14.102505 -1.93612
33.023109 12.546366 -0.920956
32.209187 12.604038 -1.461993
35.224318 12.516611 0.814423
34.486489 12.594633 0.155599
34.909887 13.901599 0.264394
35.922049 12.450377 1.471821
35.224318 12.516611 0.814423
36.257845 23.294282 3.196823
35.743555 24.551562 2.979488
36.093613 24.276212 3.78742
37.713085 12.308688 3.589899
37.186777 12.369893 2.871779
37.475229 13.549065 3.077674
38.228174 12.285905 4.316453
37.713085 12.308688 3.589899
39.459497 12.051614 6.706561
39.118603 12.123205 5.905551
39.233148 13.198877 6.15461
39.79665 12.060202 7.543557
39.459497 12.051614 6.706561
40.410377 11.781551 10.166586
40.266953 11.929593 9.257824
40.227947 12.82215 9.650472
40.530218 11.671038 11.016318
40.410377 11.781551 10.166586
33.466943 11.471665 25.988765
33.928881 12.245837 25.014395
33.184139 12.480826 25.79298
33.67218 10.513258 26.225389
33.466943 11.471665 25.988765
32.570282 16.053978 24.594727
32.144847 15.249125 25.58796
33.273663 15.95757 23.709126
32.570282 16.053978 24.594727
33.708813 15.015607 23.71178
34.029122 15.853994 22.778651
33.273663 15.95757 23.709126
37.110411 22.558853 8.241764
36.988758 22.979639 7.304597
37.622324 21.411705 8.401647
37.110411 22.558853 8.241764
35.606182 4.432615 26.612603
36.247581 4.19771 25.840218
36.077247 5.264455 25.638953
35.606182 4.432615 26.612603
34.954324 4.663864 27.349306
14.506321 24.238426 -14.633268
14.555454 25.646225 -14.342465
14.710537 22.722378 -14.307731
14.519611 22.972086 -14.951942
14.506321 24.238426 -14.633268
14.887874 22.50084 -13.66796
14.710537 22.722378 -14.307731
15.125806 22.41136 -13.096087
14.887874 22.50084 -13.66796
14.935178 23.899237 -13.417185
15.362347 22.135315 -12.517843
15.315043 20.736918 -12.768619
15.125806 22.41136 -13.096087
16.73087 23.99731 -10.801738
16.324107 24.304098 -11.230695
16.832925 22.302867 -10.48525
16.73087 23.99731 -10.801738
17.149287 23.859799 -10.379143
20.94482 21.88585 -7.958706
20.295738 22.178542 -8.272495
21.049605 20.211786 -7.666881
20.94482 21.88585 -7.958706
21.598248 21.666064 -7.657502
26.54476 19.613063 -5.490054
25.793735 19.849072 -5.824673
26.725164 18.039203 -5.183477
26.54476 19.613063 -5.490054
27.332198 19.504175 -5.159956
40.221922 13.307529 11.886558
40.406996 12.4835 11.445029
40.186298 13.498137 11.000764
40.184534 13.003961 12.809034
40.221922 13.307529 11.886558
39.963837 14.018598 12.364769
40.12286 12.792128 13.646043
40.184534 13.003961 12.809034
34.424889 7.6769 26.699172
34.891014 8.413244 25.782432
34.218377 8.650227 26.490733
34.574171 6.623145 26.990663
34.424889 7.6769 26.699172
35.458029 17.050285 19.854696
34.779781 17.283178 20.742645
35.846665 16.06296 19.994391
36.148829 16.765663 18.992747
35.458029 17.050285 19.854696
34.810068 15.629807 21.818822
34.374918 16.57177 21.816168
34.029122 15.853994 22.778651
29.20041 22.141108 -4.606891
28.479411 22.434105 -5.023544
29.940935 21.854245 -4.190466
29.427041 20.530156 -4.328679
29.20041 22.141108 -4.606891
30.626895 21.677524 -3.739556
29.940935 21.854245 -4.190466
31.372442 21.539305 -3.27153
30.913113 20.105074 -3.444227
30.626895 21.677524 -3.739556
32.067254 21.361043 -2.729029
31.372442 21.539305 -3.27153
32.800216 21.230776 -2.183869
32.391621 19.836587 -2.43104
32.067254 21.361043 -2.729029
33.427509 20.94303 -1.605226
32.800216 21.230776 -2.183869
34.089317 20.700247 -1.013057
33.786392 19.463537 -1.293711
33.427509 20.94303 -1.605226
36.368675 23.920497 4.668405
36.093613 24.276212 3.78742
36.648111 23.605272 5.561379
36.80934 23.299756 6.452699
36.887339 22.703706 4.897728
36.368675 23.920497 4.668405
36.648111 23.605272 5.561379
38.083487 20.236165 8.663213
37.986775 20.572707 7.756064
37.622324 21.411705 8.401647
38.543631 19.076901 8.897396
38.083487 20.236165 8.663213
38.17918 19.9159 9.542979
38.788227 2.72253 22.152656
38.374218 3.07209 22.876952
39.488573 8.817493 18.489987
39.754242 9.339374 17.648276
39.36714 9.721678 18.267174
39.578541 7.837059 18.774574
39.488573 8.817493 18.489987
39.191438 8.219363 19.393473
39.627972 6.893852 19.026837
39.578541 7.837059 18.774574
39.350143 6.273034 19.883063
39.627972 6.893852 19.026837
38.98214 5.52436 20.877792
39.350143 6.273034 19.883063
38.913403 6.490257 20.67279
38.640616 4.786577 21.818424
39.077356 4.569354 21.028697
38.98214 5.52436 20.877792
37.874901 3.339266 23.675762
38.374218 3.07209 22.876952
38.236515 4.098746 22.768138
37.488026 2.593789 24.5505
37.874901 3.339266 23.675762
37.350323 3.620445 24.441686
37.043435 1.840837 25.523219
37.488026 2.593789 24.5505
36.369982 3.120419 26.065147
36.841048 3.952259 25.091496
36.247581 4.19771 25.840218
36.486241 2.136785 26.255434
36.369982 3.120419 26.065147
37.043435 1.840837 25.523219
36.486241 2.136785 26.255434
38.233511 18.483096 12.510053
38.276898 18.947682 11.55974
38.588381 17.496231 12.795892
38.233511 18.483096 12.510053
38.106537 18.149941 13.511809
36.667425 17.943494 17.069409
36.43565 17.312548 18.038334
37.294918 17.467366 16.252574
36.667425 17.943494 17.069409
37.842054 17.061447 15.505803
37.294918 17.467366 16.252574
37.658243 16.466189 16.476845
38.333393 16.611673 14.763862
37.970068 17.61285 14.53959
37.842054 17.061447 15.505803
40.002346 12.432363 14.537011
40.12286 12.792128 13.646043
39.805935 13.355265 14.178214
40.194664 11.480248 14.857567
40.002346 12.432363 14.537011
39.877739 12.043385 15.389738
40.320118 10.570692 15.26996
40.194664 11.480248 14.857567
40.320118 10.570692 15.26996
40.170609 10.264639 16.024784
15.345063 25.170172 -12.665616
15.042816 25.477832 -13.197716
15.214768 26.838247 -13.018019
15.470059 23.46956 -12.322567
15.345063 25.170172 -12.665616
15.642012 24.829974 -12.14287
16.090758 22.78487 -11.353832
16.000357 24.64859 -11.676683
16.324107 24.304098 -11.230695
16.078844 18.377164 -11.407967
15.793468 18.789288 -11.919816
15.836959 20.048748 -11.678525
16.078844 18.377164 -11.407967
16.346152 18.051129 -10.889122
17.395155 17.337876 -9.543088
17.016744 17.576537 -9.942315
17.185054 18.90909 -9.828489
17.395155 17.337876 -9.543088
17.781125 17.027887 -9.12164
18.600454 22.961999 -9.256403
18.076727 23.18891 -9.597517
18.678622 21.217474 -8.958814
18.600454 22.961999 -9.256403
19.118749 22.672675 -8.910956
19.796548 20.679861 -8.290726
19.696109 22.426831 -8.595136
20.295738 22.178542 -8.272495
19.22737 16.230916 -8.01577
18.691876 16.520067 -8.370656
19.007675 17.887363 -8.334785
19.22737 16.230916 -8.01577
19.722145 16.010507 -7.686236
21.557442 15.125408 -6.705878
20.908455 15.44145 -7.023321
21.389153 16.808294 -7.019543
21.70945 13.47084 -6.388739
21.557442 15.125408 -6.705878
22.190147 14.837684 -6.384961
21.946139 11.772678 -6.045327
21.70945 13.47084 -6.388739
22.591971 11.620943 -5.714207
21.946139 11.772678 -6.045327
23.250267 11.35631 -5.403371
22.591971 11.620943 -5.714207
23.000451 12.918483 -5.756985
23.952921 11.146369 -5.059709
23.250267 11.35631 -5.403371
23.578212 20.821462 -6.792467
22.916168 21.08422 -7.073909
23.706544 19.045307 -6.477491
23.578212 20.821462 -6.792467
24.293804 20.478758 -6.478759
25.179931 18.425347 -5.838679
25.03594 20.126327 -6.149777
25.793735 19.849072 -5.824673
24.726862 10.949202 -4.717667
23.952921 11.146369 -5.059709
24.432688 12.456682 -5.104107
25.472341 10.684868 -4.346187
24.726862 10.949202 -4.717667
26.260006 10.457952 -3.981707
25.472341 10.684868 -4.346187
25.994295 12.032599 -4.397585
27.060899 10.403405 -3.614834
26.260006 10.457952 -3.981707
27.881087 10.361186 -3.247333
27.060899 10.403405 -3.614834
27.602149 11.763464 -3.665604
28.662321 10.163185 -2.829464
27.881087 10.361186 -3.247333
29.434942 10.01049 -2.421607
28.662321 10.163185 -2.829464
29.194958 11.568549 -2.890246
30.237253 10.068289 -2.013095
29.434942 10.01049 -2.421607
30.835605 11.330218 -1.982696
30.574585 12.828685 -2.456824
31.442611 12.74305 -1.957131
30.237253 10.068289 -2.013095
30.835605 11.330218 -1.982696
33.751768 12.55443 -0.397681
33.023109 12.546366 -0.920956
33.443399 13.971557 -0.917706
33.751768 12.55443 -0.397681
34.486489 12.594633 0.155599
34.653948 20.431887 -0.399844
34.089317 20.700247 -1.013057
35.392257 24.91153 2.178603
35.743555 24.551562 2.979488
35.494855 23.752305 1.623244
35.392257 24.91153 2.178603
35.512932 22.649838 1.127313
35.494855 23.752305 1.623244
35.925863 22.467164 1.892961
35.401817 21.503859 0.649442
35.512932 22.649838 1.127313
35.225205 20.329693 0.215373
35.401817 21.503859 0.649442
35.767326 20.190531 0.962962
35.019457 19.118559 -0.086324
34.653948 20.431887 -0.399844
35.225205 20.329693 0.215373
36.572651 12.343723 2.18999
35.922049 12.450377 1.471821
36.298319 13.716924 1.641386
36.572651 12.343723 2.18999
37.186777 12.369893 2.871779
38.673533 12.177209 5.095357
38.228174 12.285905 4.316453
38.446895 13.379164 4.574696
38.673533 12.177209 5.095357
39.118603 12.123205 5.905551
40.05189 11.981656 8.436602
39.79665 12.060202 7.543557
39.829283 13.048739 7.848664
40.05189 11.981656 8.436602
40.266953 11.929593 9.257824
40.530218 11.671038 11.016318
40.406996 12.4835 11.445029
39.109462 3.537338 21.220576
38.788227 2.72253 22.152656
3 121 120 30
3 122 32 123
3 124 30 125
3 126 125 32
3 124 125 126
3 0 36 34
3 127 39 128
3 129 128 37
3 127 128 129
3 131 130 39
3 0 42 40
3 0 34 42
3 132 44 133
3 134 45 135
3 136 135 44
3 134 135 136
3 137 47 138
3 139 49 140
3 141 140 47
3 139 140 141
3 142 51 143
3 144 53 145
3 146 145 51
3 144 145 146
3 3 147 148
3 3 149 151
3 149 55 150
3 149 150 151
3 3 57 55
3 4 60 58
3 4 62 60
3 5 65 63
3 5 67 65
3 5 69 67
3 2 72 70
3 2 73 72
3 1 152 153
3 6 76 74
3 154 77 155
3 156 155 31
3 154 155 156
3 158 157 77
3 159 78 160
3 6 79 33
3 6 74 79
3 11 161 163
3 161 81 162
3 161 162 163
3 11 82 81
3 11 84 82
3 164 85 165
3 166 86 167
3 168 167 85
3 166 167 168
3 13 169 170
3 14 87 35
3 14 88 87
3 7 89 75
3 15 90 38
3 15 91 90
3 15 92 91
3 171 93 172
3 8 173 175
3 173 94 174
3 173 174 175
3 16 95 41
3 16 96 95
3 16 97 96
3 13 98 43
3 13 176 178
3 178 177 98
3 176 177 178
3 17 179 180
3 17 181 183
3 181 182 183
3 184 99 185
3 18 100 46
3 18 186 188
3 188 187 100
3 186 187 188
3 18 189 190
3 19 191 193
3 193 192 48
3 191 192 193
3 19 194 195
3 196 101 197
3 20 102 50
3 20 198 200
3 200 199 102
3 198 199 200
3 20 201 202
3 21 103 52
3 21 104 103
3 203 105 204
3 22 106 54
3 22 107 106
3 22 108 107
3 23 109 56
3 23 110 109
3 9 111 80
3 24 112 59
3 24 205 207
3 207 206 112
3 205 206 207
3 24 208 209
3 25 210 212
3 212 211 61
3 210 211 212
3 25 213 214
3 10 215 217
3 215 113 216
3 215 216 217
3 26 114 64
3 26 115 114
3 26 116 115
3 27 117 66
3 27 218 220
3 220 219 117
3 218 219 220
3 27 221 222
3 28 223 225
3 225 224 68
3 223 224 225
3 28 226 227
3 12 118 83
3 29 119 71
3 29 228 230
3 230 229 119
3 228 229 230
3 29 231 232
3 30 31 6
3 233 31 234
3 235 234 30
3 233 234 235
3 237 236 31
3 32 238 239
3 32 240 241
3 32 242 244
3 242 33 243
3 242 243 244
3 30 33 32
3 30 6 33
3 245 11 246
3 248 247 11
3 34 35 13
3 36 35 34
3 36 14 35
3 37 38 7
3 39 38 37
3 39 15 38
3 39 249 251
3 251 250 15
3 249 250 251
3 253 252 39
3 40 41 8
3 42 41 40
3 42 16 41
3 42 43 16
3 34 43 42
3 34 13 43
3 44 254 255
3 44 256 258
3 256 257 258
3 44 259 260
3 45 261 263
3 263 262 44
3 261 262 263
3 45 264 266
3 264 17 265
3 264 265 266
3 267 46 268
3 47 269 271
3 269 46 270
3 269 270 271
3 47 18 46
3 47 48 18
3 49 48 47
3 49 19 48
3 272 50 273
3 51 274 276
3 274 50 275
3 274 275 276
3 51 20 50
3 51 52 20
3 53 52 51
3 53 21 52
3 277 54 278
3 55 279 281
3 279 54 280
3 279 280 281
3 55 22 54
3 55 56 22
3 57 56 55
3 57 23 56
3 58 59 9
3 60 59 58
3 60 24 59
3 60 61 24
3 62 61 60
3 62 25 61
3 63 64 10
3 65 64 63
3 65 26 64
3 65 66 26
3 67 66 65
3 67 27 66
3 67 68 27
3 69 68 67
3 69 28 68
3 70 71 12
3 72 71 70
3 72 29 71
3 72 282 284
3 284 283 29
3 282 283 284
3 73 285 287
3 287 286 72
3 285 286 287
3 73 288 289
3 74 75 0
3 76 75 74
3 76 7 75
3 31 76 6
3 77 76 31
3 77 7 76
3 77 37 7
3 290 37 291
3 292 291 77
3 290 291 292
3 294 293 37
3 78 295 296
3 78 297 299
3 297 8 298
3 297 298 299
3 33 300 302
3 300 78 301
3 300 301 302
3 79 78 33
3 79 8 78
3 79 40 8
3 74 40 79
3 74 0 40
3 303 3 304
3 305 80 306
3 307 306 3
3 305 306 307
3 308 80 309
3 310 9 311
3 312 311 80
3 310 311 312
3 313 9 314
3 315 58 316
3 317 316 9
3 315 316 317
3 318 58 319
3 320 4 321
3 322 321 58
3 320 321 322
3 323 10 324
3 81 325 326
3 81 327 329
3 327 10 328
3 327 328 329
3 81 63 10
3 82 63 81
3 82 5 63
3 82 83 5
3 84 83 82
3 84 12 83
3 330 84 331
3 332 331 11
3 330 331 332
3 85 333 335
3 333 84 334
3 333 334 335
3 85 12 84
3 85 70 12
3 86 70 85
3 86 2 70
3 337 336 1
3 35 338 340
3 340 339 13
3 338 339 340
3 87 341 343
3 343 342 35
3 341 342 343
3 87 344 345
3 87 346 347
3 88 348 350
3 350 349 87
3 348 349 350
3 88 351 353
3 351 1 352
3 351 352 353
3 75 36 0
3 89 36 75
3 89 14 36
3 38 89 7
3 90 89 38
3 90 14 89
3 90 88 14
3 91 88 90
3 91 1 88
3 91 354 356
3 356 355 1
3 354 355 356
3 92 357 359
3 359 358 91
3 357 358 359
3 92 360 361
3 362 92 363
3 364 363 15
3 362 363 364
3 365 92 366
3 368 367 92
3 369 86 370
3 93 371 373
3 371 86 372
3 371 372 373
3 93 2 86
3 94 374 375
3 94 376 377
3 41 94 8
3 95 94 41
3 95 378 380
3 380 379 94
3 378 379 380
3 95 381 383
3 381 93 382
3 381 382 383
3 96 93 95
3 96 2 93
3 96 73 2
3 97 73 96
3 97 384 386
3 386 385 73
3 384 385 386
3 43 97 16
3 98 97 43
3 98 387 389
3 389 388 97
3 387 388 389
3 98 390 391
3 393 392 98
3 394 45 395
3 394 395 396
3 99 397 399
3 397 45 398
3 397 398 399
3 99 17 45
3 46 400 402
3 400 99 401
3 400 401 402
3 100 99 46
3 100 17 99
3 100 403 405
3 405 404 17
3 403 404 405
3 407 406 100
3 48 408 410
3 410 409 18
3 408 409 410
3 412 411 48
3 413 49 414
3 101 415 417
3 415 49 416
3 415 416 417
3 101 19 49
3 50 418 420
3 418 101 419
3 418 419 420
3 102 101 50
3 102 19 101
3 102 421 423
3 423 422 19
3 421 422 423
3 425 424 102
3 52 426 428
3 428 427 20
3 426 427 428
3 103 429 431
3 431 430 52
3 429 430 431
3 103 432 433
3 103 434 435
3 104 436 438
3 438 437 103
3 436 437 438
3 104 439 440
3 441 53 442
3 105 443 445
3 443 53 444
3 443 444 445
3 105 21 53
3 54 446 448
3 446 105 447
3 446 447 448
3 106 105 54
3 106 21 105
3 106 104 21
3 107 104 106
3 107 449 451
3 451 450 104
3 449 450 451
3 107 452 453
3 108 454 456
3 456 455 107
3 454 455 456
3 108 457 458
3 56 108 22
3 109 108 56
3 109 459 461
3 461 460 108
3 459 460 461
3 109 462 463
3 110 464 466
3 466 465 109
3 464 465 466
3 110 467 468
3 80 57 3
3 111 57 80
3 111 23 57
3 59 111 9
3 112 111 59
3 112 23 111
3 112 110 23
3 469 110 470
3 471 470 112
3 469 470 471
3 473 472 110
3 61 474 476
3 476 475 24
3 474 475 476
3 478 477 61
3 479 4 480
3 113 481 482
3 113 483 484
3 64 113 10
3 114 113 64
3 114 485 487
3 487 486 113
3 485 486 487
3 114 488 489
3 115 490 492
3 492 491 114
3 490 491 492
3 115 493 495
3 493 4 494
3 493 494 495
3 115 62 4
3 116 62 115
3 116 25 62
3 66 116 26
3 117 116 66
3 117 25 116
3 117 496 498
3 498 497 25
3 496 497 498
3 500 499 117
3 68 501 503
3 503 502 27
3 501 502 503
3 505 504 68
3 83 69 5
3 118 69 83
3 118 28 69
3 71 118 12
3 119 118 71
3 119 28 118
3 119 506 508
3 508 507 28
3 506 507 508
3 510 509 119
3 512 511 29
3 514 513 1
