ply
format ascii 1.0
element vertex 517
property float x
property float y
property float z
element face 615
property list uchar int vertex_index
end_header
-20.597038 56.571087 -52.50872
-16.595654 83.526215 -49.506371
-30.611696 69.632652 -46.147949
-22.337431 46.181484 -51.025429
-21.332802 93.462311 -44.220913
-33.795647 56.244007 -41.198788
-33.341354 75.063507 -37.426144
-20.012562 69.454704 -52.144062
-14.560674 57.515198 -52.515133
-30.697407 90.228012 -31.624605
-28.706581 86.888481 -42.093388
-25.055664 79.681992 -49.069157
-25.850475 62.889072 -50.949558
-28.943462 50.868393 -47.705826
-21.577196 52.104603 -51.983803
-19.109072 44.969933 -51.817654
-18.617989 50.932861 -52.412769
-34.917202 68.163582 -34.550934
-33.97094 76.510277 -31.939093
-18.638378 76.660782 -51.205383
-15.996691 70.912514 -51.843071
-14.241638 77.431602 -50.645477
-29.904785 89.053482 -37.215813
-26.991142 93.517403 -39.120998
-19.110708 88.902191 -47.415741
-23.522257 86.866959 -47.134373
-21.012814 82.302345 -49.673672
-22.671362 74.920593 -51.055756
-32.42952 63.566265 -43.809952
-31.657909 53.53941 -44.877621
-30.280018 60.490906 -47.194698
-27.666294 57.595451 -49.557453
-28.404991 66.675323 -49.020493
-14.247037 89.571785 -46.991291
-23.249777 96.923592 -40.110111
-18.676067 98.734833 -40.557354
-16.452955 94.610764 -44.293018
-35.321484 58.492195 -36.699036
-34.001522 65.843948 -39.480652
-32.269669 72.866165 -42.119499
-20.68285 62.491962 -52.508183
-18.054266 57.040169 -52.658085
-17.41732 63.821037 -52.496895
-31.039124 90.894226 -25.287542
-32.598289 84.309639 -28.890684
-32.133373 83.3592 -34.851295
-31.384478 81.168968 -40.056366
-30.016071 78.717819 -44.45285
-25.562683 90.640617 -43.494026
-27.206093 83.300789 -46.130955
-28.182354 75.359734 -47.9063
-25.863533 71.487724 -50.358673
-23.283575 67.167809 -51.824818
-23.079561 59.685081 -52.059589
-25.895142 48.411285 -49.641113
-24.643322 54.417309 -51.110401
-15.302791 51.102924 -52.604153
-21.11426 54.738537 -52.313644
-20.133144 51.60804 -52.252316
-19.71702 54.120792 -52.486156
-17.703928 80.101288 -50.471878
-16.419544 77.287651 -50.970776
-15.440136 80.587608 -50.176067
-17.890198 86.257317 -48.620796
-20.09494 85.710426 -48.649761
-18.944002 82.881767 -49.726387
-19.79674 79.563545 -50.563419
-31.577841 66.644127 -45.045513
-31.404972 61.827423 -45.670513
-30.552885 65.232376 -46.748466
-29.485106 63.615936 -48.097626
-29.551622 68.24826 -47.719936
-17.329863 44.579933 -52.124805
-12.603254 92.252396 -45.335529
-11.595066 89.381859 -46.545349
-15.01938 97.131622 -42.300606
-13.905245 94.855202 -43.93668
-15.225194 92.284286 -45.708687
-34.151325 71.680458 -36.113361
-34.518795 66.985619 -37.162266
-33.681412 70.661423 -38.744751
-33.156902 69.159531 -41.030712
-32.859203 74.029388 -39.906822
-20.51082 65.98732 -52.372585
-19.204786 63.52113 -52.547768
-18.746387 66.951729 -52.365822
-14.792461 67.752106 -51.988842
-29.850863 93.454826 -29.419441
-30.048615 93.733665 -26.372389
-30.907759 90.682816 -28.455841
-31.899035 87.508064 -27.225965
-31.665115 87.548599 -30.278858
-32.454483 83.789116 -31.878056
-31.489246 86.859924 -33.18557
-29.418186 87.949234 -39.762043
-30.698605 85.154221 -38.842518
-30.142876 84.170174 -41.155159
-30.755745 80.010902 -42.406883
-29.452816 82.9328 -43.336586
-22.311386 95.365593 -42.255848
-24.555365 93.867325 -41.886459
-23.506897 92.304016 -43.93277
-24.209164 83.406372 -48.273109
-25.43652 85.156822 -46.79446
-26.166262 81.65609 -47.712025
-27.828863 79.51149 -47.026817
-26.731749 77.809975 -48.526932
-27.162319 73.579201 -49.179077
-25.608418 75.594452 -49.787273
-21.256119 72.265289 -51.724701
-23.052486 70.927223 -51.534691
-21.791897 68.428589 -52.051323
-22.002832 64.836464 -52.242771
-34.353283 52.212273 -39.777328
-33.359783 51.035824 -41.765717
-30.303427 52.015213 -46.454716
-30.843588 48.212837 -45.219345
-27.439455 49.706005 -48.791588
-26.836586 60.294838 -50.306664
-26.137745 55.924522 -50.458809
-25.388365 58.749348 -51.084885
-24.00839 57.364517 -51.628372
-24.500025 61.359173 -51.584633
-16.463722 57.499294 -52.629559
-16.736147 54.21265 -52.63261
-15.060726 54.326794 -52.605286
-22.036623 49.441422 -51.560146
-20.702631 45.310886 -51.448853
-20.414408 48.658459 -51.917789
-18.854639 48.045109 -52.165565
-17.155005 47.761784 -52.373627
-34.508564 72.389793 -33.329777
-33.704193 75.948235 -34.729973
-19.454309 73.165588 -51.749004
-18.007521 70.331665 -52.066078
-17.39435 73.825668 -51.613766
-15.109642 74.331345 -51.293175
-29.588701 92.863602 -32.506279
-30.313948 89.881638 -34.451759
-28.527514 91.650818 -38.057587
-28.03425 90.255226 -40.537834
-20.265886 91.250801 -45.978428
-22.430431 90.285347 -45.815041
-21.435217 88.13504 -47.318184
-22.24263 84.809906 -48.5163
-23.097467 81.217133 -49.474411
-23.885691 77.43206 -50.179352
-21.931053 78.844131 -50.428631
-20.797884 76.183769 -51.175865
-33.133934 59.662987 -42.609592
-32.836365 54.718456 -43.078747
-32.177246 58.52346 -44.411606
-31.028494 56.986603 -46.074013
-29.819754 56.030151 -47.457172
-28.428303 54.349796 -48.631424
-29.044476 58.864475 -48.460003
-28.277042 62.035664 -49.263485
-27.147003 64.775856 -50.114426
-15.497743 86.701103 -48.348122
-20.999273 98.112167 -40.357063
-20.145819 96.195175 -42.522987
-16.212727 99.074623 -40.524075
-17.751139 96.693954 -42.628643
-18.91604 94.121338 -44.429047
-17.876764 91.734528 -46.05962
-16.618853 89.411392 -47.282467
-34.615643 57.237495 -39.110779
-35.25922 63.284641 -35.534424
-34.696388 62.077545 -38.153152
-33.958977 61.173302 -40.554428
-33.265236 64.722099 -41.82132
-32.374424 68.388268 -43.19455
-31.477873 71.563553 -44.273594
-20.693769 59.257397 -52.546005
-19.528019 56.859062 -52.608227
-19.387884 59.997948 -52.63105
-17.786699 60.42408 -52.627686
-15.93224 60.771633 -52.522594
-16.816013 67.202805 -52.257717
-15.50826 64.194756 -52.328018
-31.933914 87.771843 -24.080988
-33.326473 80.520325 -30.377703
-33.114132 79.918732 -33.483505
-32.779079 79.39679 -36.185535
-31.070963 86.431595 -36.045578
-31.785322 82.527405 -37.48278
-32.404797 78.361816 -38.746632
-31.910189 77.132614 -41.122429
-31.255253 75.833107 -43.312508
-30.436171 74.330063 -45.33255
-25.256083 95.369896 -39.691845
-26.362024 92.229599 -41.334232
-27.189426 88.999664 -42.853165
-24.546358 88.903976 -45.449787
-26.350424 87.074554 -45.037495
-27.971298 85.25827 -44.24707
-28.701893 81.325821 -45.289219
-29.175785 76.996353 -46.324474
-29.49456 72.511276 -47.109055
-28.424501 71.041679 -48.533184
-27.253 69.452614 -49.720451
-26.008495 67.115936 -50.721592
-24.320526 73.254951 -50.812355
-24.655886 69.056564 -51.210629
-24.613167 65.261009 -51.484943
-23.394396 63.319344 -51.967876
-21.971491 61.288757 -52.345383
-21.735699 57.949486 -52.357056
-32.149155 49.742466 -43.664944
-26.866133 53.019619 -49.671776
-25.240274 51.435596 -50.459206
-23.615648 50.338448 -51.091991
-23.154848 53.490417 -51.631927
-22.482819 55.892414 -52.056259
-18.354422 54.032494 -52.586632
-17.035984 51.080112 -52.544601
-15.586492 47.777466 -52.5168
-13.599918 51.173706 -52.600082
-13.879304 47.696445 -52.615723
-21.619493 44.026673 -50.964733
-22.520927 44.536631 -50.697005
-16.56419 42.765473 -52.116985
-16.493122 44.404871 -52.238625
-11.24168 92.055252 -45.085188
-11.886775 93.411648 -44.450235
-12.537771 94.713051 -43.750811
-13.111971 95.94954 -42.955633
-11.886775 93.411648 -44.450235
-13.25425 93.553799 -44.636105
-12.537771 94.713051 -43.750811
-29.177693 49.001886 -47.165825
-29.857675 49.575297 -46.54027
-29.623444 51.441803 -47.080271
-28.365886 48.377915 -47.782833
-29.177693 49.001886 -47.165825
-28.191458 50.287199 -48.248707
-27.613882 47.79672 -48.325714
-28.365886 48.377915 -47.782833
-34.239752 74.450035 -32.634435
-34.597519 72.851474 -31.887715
-34.328707 74.911717 -31.192374
-13.568148 76.003345 -50.748689
-14.00215 74.453217 -51.072539
-14.67564 75.881473 -50.969326
-28.893933 94.102837 -33.05489
-29.118271 94.370132 -31.512452
-29.35061 92.625698 -33.936174
-28.893933 94.102837 -33.05489
-27.759328 92.584111 -38.589292
-28.081286 93.129567 -37.252205
-27.3131 94.062859 -37.783911
-19.157091 43.304062 -51.607473
-19.95387 43.474539 -51.423073
-19.905852 45.14041 -51.633253
-13.593549 88.126797 -47.472135
-14.218902 86.691456 -48.150551
-14.87239 88.136444 -47.669706
-10.901861 87.915832 -46.941621
-10.224543 89.262265 -46.184297
-19.83767 98.4235 -40.457208
-20.39657 99.310169 -39.256689
-19.234967 99.621502 -39.356834
-14.925632 99.081508 -40.427569
-15.457994 100.018551 -39.442515
-14.170899 100.025436 -39.346008
-35.27195 55.858456 -37.112766
-35.643828 56.556429 -35.818241
-34.968564 57.864845 -37.904908
-34.91903 55.231105 -38.318638
-35.27195 55.858456 -37.112766
-35.088211 65.724112 -35.042679
-35.451346 63.773363 -34.257174
-35.280337 66.212834 -33.765428
-14.462716 64.456921 -52.170609
-15.15036 65.973431 -52.15843
-14.104817 66.235596 -52.00102
-14.800446 62.701525 -52.3254
-14.462716 64.456921 -52.170609
-30.625503 92.325142 -24.145071
-30.130249 93.744861 -24.687494
-30.543869 92.313946 -25.829966
-31.092507 90.848022 -23.632857
-30.625503 92.325142 -24.145071
-31.486519 89.333034 -24.684265
-31.539903 89.286831 -23.02958
-31.092507 90.848022 -23.632857
-32.667797 84.312657 -27.372822
-32.31817 85.911869 -26.540463
-32.248662 85.908851 -28.058324
-33.032882 82.529373 -28.170968
-32.667797 84.312657 -27.372822
-32.962381 82.414982 -29.634194
-33.396974 80.634716 -28.914478
-33.032882 82.529373 -28.170968
-24.25293 96.146744 -39.900978
-24.697058 96.780075 -38.721458
-23.693905 97.556923 -38.930592
-31.013127 46.349888 -44.651266
-30.311619 45.787529 -45.356956
-25.194167 46.182991 -49.6669
-26.006809 46.562191 -49.252241
-24.988143 47.798821 -50.038107
-25.194167 46.182991 -49.6669
-12.713317 51.122886 -52.575204
-13.360305 52.817873 -52.54883
-13.119105 46.106786 -52.666207
-12.97951 47.806779 -52.642713
-13.974283 46.00975 -52.58285
-13.119105 46.106786 -52.666207
-34.052067 76.779312 -30.396315
-34.328707 74.911717 -31.192374
-26.483284 95.027352 -38.187914
-27.3131 94.062859 -37.783911
-17.43629 42.978923 -51.954195
-18.325895 43.173924 -51.800619
-18.219468 44.774933 -51.971229
-17.43629 42.978923 -51.954195
-16.56419 42.765473 -52.116985
-10.737586 90.619984 -45.690098
-12.09916 90.817127 -45.940439
-11.24168 92.055252 -45.085188
-10.224543 89.262265 -46.184297
-10.737586 90.619984 -45.690098
-17.975798 99.815617 -39.468107
-19.234967 99.621502 -39.356834
-18.534698 100.702286 -38.267588
-13.669039 97.08775 -42.137596
-14.328958 98.110008 -41.315834
-14.462312 95.993412 -43.118643
-13.669039 97.08775 -42.137596
-13.111971 95.94954 -42.955633
-35.613598 59.022682 -35.333651
-35.643828 56.556429 -35.818241
-14.353063 69.562584 -51.735117
-15.394576 69.33231 -51.915957
-14.955178 71.142788 -51.662232
-13.690967 67.868454 -51.78594
-14.353063 69.562584 -51.735117
-14.104817 66.235596 -52.00102
-13.690967 67.868454 -51.78594
-29.949739 93.594245 -27.895915
-29.475394 95.020145 -26.954989
-29.376517 94.880725 -28.478516
-34.106491 49.749842 -40.05079
-34.61358 50.172359 -38.996426
-33.609741 49.161617 -41.044985
-34.106491 49.749842 -40.05079
-33.856533 51.624049 -40.771523
-32.999967 48.410948 -42.004788
-33.609741 49.161617 -41.044985
-30.127756 47.674109 -45.922584
-30.573507 50.114025 -45.83703
-29.857675 49.575297 -46.54027
-30.311619 45.787529 -45.356956
-30.127756 47.674109 -45.922584
-26.778966 47.209551 -48.827478
-27.613882 47.79672 -48.325714
-26.667299 49.058645 -49.21635
-26.006809 46.562191 -49.252241
-26.778966 47.209551 -48.827478
-16.405693 45.995796 -52.363035
-16.493122 44.404871 -52.238625
-17.242434 46.170858 -52.249216
-35.098459 68.457844 -33.057265
-35.280337 66.212834 -33.765428
-34.89414 70.570949 -32.446687
-34.597519 72.851474 -31.887715
-34.712883 70.276688 -33.940355
-35.098459 68.457844 -33.057265
-34.89414 70.570949 -32.446687
-14.511653 72.852204 -51.387283
-14.955178 71.142788 -51.662232
-15.553166 72.621929 -51.568123
-14.511653 72.852204 -51.387283
-14.00215 74.453217 -51.072539
-29.249353 94.665744 -29.969033
-29.376517 94.880725 -28.478516
-29.719782 93.159214 -30.96286
-29.249353 94.665744 -29.969033
-29.118271 94.370132 -31.512452
-29.713233 91.134716 -34.908915
-29.951324 91.37262 -33.479019
-29.35061 92.625698 -33.936174
-29.508651 90.720638 -36.290942
-30.109367 89.46756 -35.833786
-29.713233 91.134716 -34.908915
-28.820016 92.019306 -36.711828
-28.081286 93.129567 -37.252205
-29.21615 90.35215 -37.6367
-29.508651 90.720638 -36.290942
-28.820016 92.019306 -36.711828
-13.840682 55.988619 -52.506355
-13.632264 57.796064 -52.411681
-20.802093 43.591374 -51.176445
-21.619493 44.026673 -50.964733
-21.520031 45.746185 -51.237141
-20.802093 43.591374 -51.176445
-19.95387 43.474539 -51.423073
-19.157091 43.304062 -51.607473
-18.325895 43.173924 -51.800619
-14.857183 85.168812 -48.773926
-15.406139 83.581367 -49.353051
-16.046698 85.113659 -48.927246
-14.857183 85.168812 -48.773926
-14.218902 86.691456 -48.150551
-12.267563 88.031834 -47.249164
-13.593549 88.126797 -47.472135
-12.921052 89.476822 -46.76832
-12.267563 88.031834 -47.249164
-10.901861 87.915832 -46.941621
-22.616391 98.205056 -39.137678
-23.693905 97.556923 -38.930592
-21.491138 98.799343 -39.261154
-20.39657 99.310169 -39.256689
-22.124525 97.517879 -40.233587
-22.616391 98.205056 -39.137678
-21.491138 98.799343 -39.261154
-16.744129 99.985512 -39.451468
-15.457994 100.018551 -39.442515
-17.444397 98.904728 -40.540714
-17.975798 99.815617 -39.468107
-16.744129 99.985512 -39.451468
-15.616053 98.103122 -41.41234
-14.925632 99.081508 -40.427569
-14.328958 98.110008 -41.315834
-34.78785 52.718495 -38.651912
-34.61358 50.172359 -38.996426
-35.048147 50.678581 -37.87101
-34.484463 54.724884 -39.444053
-34.78785 52.718495 -38.651912
-34.91903 55.231105 -38.318638
-35.582466 61.418905 -34.751345
-35.451346 63.773363 -34.257174
-35.290352 60.888418 -36.11673
-35.613598 59.022682 -35.333651
-35.582466 61.418905 -34.751345
-15.012436 60.989964 -52.422687
-15.72025 62.483194 -52.425306
-14.800446 62.701525 -52.3254
-14.326653 59.361746 -52.418957
-15.246457 59.143416 -52.518863
-15.012436 60.989964 -52.422687
-13.632264 57.796064 -52.411681
-14.326653 59.361746 -52.418957
-14.82838 82.112064 -49.687899
-16.017895 82.056911 -49.841219
-15.406139 83.581367 -49.353051
-14.22828 80.604359 -49.96455
-14.82838 82.112064 -49.687899
-13.629031 79.026355 -50.199255
-14.840887 79.009605 -50.410772
-14.22828 80.604359 -49.96455
-13.048773 77.484676 -50.380509
-13.629031 79.026355 -50.199255
-13.568148 76.003345 -50.748689
-13.048773 77.484676 -50.380509
-29.632707 94.99939 -25.296747
-29.475394 95.020145 -26.954989
-29.632707 94.99939 -25.296747
-30.130249 93.744861 -24.687494
-31.957647 87.691483 -22.317131
-31.539903 89.286831 -23.02958
-32.339889 86.109493 -23.313164
-31.957647 87.691483 -22.317131
-32.33561 86.043758 -24.967975
-31.916474 87.639954 -25.653477
-32.31817 85.911869 -26.540463
-32.339889 86.109493 -23.313164
-32.33561 86.043758 -24.967975
-33.729833 78.784336 -29.61562
-33.396974 80.634716 -28.914478
-33.648707 78.515301 -31.158398
-34.052067 76.779312 -30.396315
-33.729833 78.784336 -29.61562
-25.615755 95.953598 -38.473337
-24.697058 96.780075 -38.721458
-26.123613 94.443649 -39.406422
-26.483284 95.027352 -38.187914
-25.615755 95.953598 -38.473337
-32.394654 47.764269 -42.954401
-32.999967 48.410948 -42.004788
-32.754469 50.389145 -42.715331
-31.665911 47.114702 -43.874066
-31.496372 48.977652 -44.442144
-31.013127 46.349888 -44.651266
-32.394654 47.764269 -42.954401
-31.665911 47.114702 -43.874066
-23.209287 46.68392 -50.730265
-22.520927 44.536631 -50.697005
-24.660709 49.310976 -50.447153
-24.988143 47.798821 -50.038107
-25.567708 49.92344 -50.050159
-23.848396 48.762402 -50.763546
-24.660709 49.310976 -50.447153
-24.427961 50.887022 -50.775599
-22.97654 48.259966 -51.05871
-23.209287 46.68392 -50.730265
-23.848396 48.762402 -50.763546
-15.621436 46.003637 -52.434622
-16.405693 45.995796 -52.363035
-16.370748 47.769625 -52.445214
-14.090709 54.394417 -52.551432
-14.8107 55.920996 -52.560209
-13.840682 55.988619 -52.506355
-14.330322 52.75025 -52.602684
-14.090709 54.394417 -52.551432
-13.360305 52.817873 -52.54883
-12.839817 49.54541 -52.634893
-12.713317 51.122886 -52.575204
-13.739611 49.435075 -52.607903
-12.839817 49.54541 -52.634893
-12.97951 47.806779 -52.642713
-14.827877 46.05026 -52.533388
-14.732898 47.736955 -52.566262
-13.974283 46.00975 -52.58285
-15.621436 46.003637 -52.434622
-14.827877 46.05026 -52.533388
3 0 59 57
3 1 62 60
3 1 65 63
3 1 60 65
3 2 69 67
3 2 71 69
3 3 219 220
3 222 221 72
3 224 223 73
3 225 76 226
3 227 73 228
3 229 228 76
3 227 228 229
3 6 80 78
3 6 82 80
3 7 85 83
3 9 89 87
3 9 91 89
3 9 93 91
3 10 96 94
3 10 98 96
3 4 101 99
3 11 104 102
3 11 106 104
3 11 108 106
3 7 111 109
3 7 83 111
3 5 114 113
3 13 230 232
3 232 231 115
3 230 231 232
3 13 233 234
3 13 235 237
3 235 117 236
3 235 236 237
3 12 120 118
3 12 122 120
3 8 125 123
3 14 128 126
3 16 129 58
3 16 130 129
3 18 238 240
3 238 131 239
3 238 239 240
3 18 132 131
3 19 135 133
3 21 136 61
3 21 241 243
3 243 242 136
3 241 242 243
3 244 137 245
3 247 246 137
3 23 248 250
3 248 139 249
3 248 249 250
3 23 140 139
3 24 143 141
3 26 144 64
3 26 145 144
3 26 147 145
3 19 148 66
3 19 133 148
3 28 151 149
3 30 152 68
3 30 153 152
3 30 155 153
3 32 156 70
3 32 157 156
3 15 251 253
3 253 252 127
3 251 252 253
3 33 254 256
3 256 255 158
3 254 255 256
3 258 257 74
3 35 259 261
3 259 159 260
3 259 260 261
3 35 160 159
3 262 161 263
3 262 263 264
3 36 162 75
3 36 163 162
3 36 164 163
3 33 165 77
3 33 158 165
3 37 265 266
3 37 267 269
3 267 166 268
3 267 268 269
3 17 270 272
3 270 167 271
3 270 271 272
3 38 168 79
3 38 169 168
3 38 170 169
3 39 171 81
3 39 172 171
3 40 175 173
3 42 176 84
3 42 177 176
3 20 178 134
3 273 179 274
3 275 274 86
3 273 274 275
3 277 276 179
3 43 278 280
3 280 279 88
3 278 279 280
3 43 281 282
3 43 283 285
3 283 180 284
3 283 284 285
3 44 286 288
3 288 287 90
3 286 287 288
3 44 289 290
3 44 291 293
3 291 181 292
3 291 292 293
3 45 182 92
3 45 183 182
3 22 184 138
3 46 185 95
3 46 186 185
3 46 187 186
3 47 188 97
3 47 189 188
3 34 294 296
3 294 190 295
3 294 295 296
3 48 191 100
3 48 192 191
3 25 193 142
3 49 194 103
3 49 195 194
3 49 196 195
3 50 197 105
3 50 198 197
3 50 199 198
3 51 200 107
3 51 201 200
3 27 202 146
3 52 203 110
3 52 204 203
3 52 205 204
3 40 206 112
3 40 173 206
3 29 208 150
3 298 297 116
3 54 299 300
3 54 301 302
3 31 209 154
3 55 210 119
3 55 211 210
3 55 212 211
3 53 213 121
3 53 207 213
3 41 214 174
3 56 215 124
3 56 216 215
3 303 217 304
3 305 218 306
3 308 307 218
3 57 58 14
3 59 58 57
3 59 16 58
3 309 18 310
3 60 61 19
3 62 61 60
3 62 21 61
3 311 23 312
3 63 64 24
3 65 64 63
3 65 26 64
3 65 66 26
3 60 66 65
3 60 19 66
3 67 68 28
3 69 68 67
3 69 30 68
3 69 70 30
3 71 70 69
3 71 32 70
3 72 313 315
3 315 314 15
3 313 314 315
3 317 316 72
3 73 74 33
3 318 74 319
3 320 319 73
3 318 319 320
3 322 321 74
3 323 35 324
3 323 324 325
3 326 75 327
3 76 328 330
3 328 75 329
3 328 329 330
3 76 36 75
3 76 77 36
3 73 77 76
3 73 33 77
3 331 37 332
3 78 79 17
3 80 79 78
3 80 38 79
3 80 81 38
3 82 81 80
3 82 39 81
3 83 84 40
3 85 84 83
3 85 42 84
3 333 86 334
3 335 334 20
3 333 334 335
3 336 86 337
3 339 338 86
3 87 340 342
3 340 88 341
3 340 341 342
3 89 88 87
3 89 43 88
3 89 90 43
3 91 90 89
3 91 44 90
3 91 92 44
3 93 92 91
3 93 45 92
3 94 95 22
3 96 95 94
3 96 46 95
3 96 97 46
3 98 97 96
3 98 47 97
3 99 100 34
3 101 100 99
3 101 48 100
3 102 103 25
3 104 103 102
3 104 49 103
3 104 105 49
3 106 105 104
3 106 50 105
3 106 107 50
3 108 107 106
3 108 51 107
3 109 110 27
3 111 110 109
3 111 52 110
3 111 112 52
3 83 112 111
3 83 40 112
3 113 343 344
3 114 345 347
3 347 346 113
3 345 346 347
3 114 348 349
3 115 116 29
3 350 116 351
3 352 351 115
3 350 351 352
3 354 353 116
3 117 355 356
3 117 357 359
3 357 54 358
3 357 358 359
3 118 119 31
3 120 119 118
3 120 55 119
3 120 121 55
3 122 121 120
3 122 53 121
3 123 124 41
3 125 124 123
3 125 56 124
3 126 127 3
3 128 127 126
3 128 15 127
3 58 128 14
3 129 128 58
3 129 15 128
3 129 72 15
3 130 72 129
3 130 360 362
3 362 361 72
3 360 361 362
3 363 17 364
3 131 365 366
3 131 367 369
3 367 17 368
3 367 368 369
3 131 78 17
3 132 78 131
3 132 6 78
3 133 134 7
3 135 134 133
3 135 20 134
3 61 135 19
3 136 135 61
3 136 20 135
3 136 370 372
3 372 371 20
3 370 371 372
3 374 373 136
3 375 87 376
3 137 377 379
3 377 87 378
3 377 378 379
3 137 9 87
3 137 138 9
3 380 138 381
3 382 381 137
3 380 381 382
3 383 22 384
3 385 384 138
3 383 384 385
3 139 386 387
3 139 388 390
3 388 22 389
3 388 389 390
3 139 94 22
3 140 94 139
3 140 10 94
3 141 142 4
3 143 142 141
3 143 25 142
3 64 143 24
3 144 143 64
3 144 25 143
3 144 102 25
3 145 102 144
3 145 11 102
3 145 146 11
3 147 146 145
3 147 27 146
3 66 147 26
3 148 147 66
3 148 27 147
3 148 109 27
3 133 109 148
3 133 7 109
3 149 150 5
3 151 150 149
3 151 29 150
3 68 151 28
3 152 151 68
3 152 29 151
3 152 115 29
3 153 115 152
3 153 13 115
3 153 154 13
3 155 154 153
3 155 31 154
3 70 155 30
3 156 155 70
3 156 31 155
3 156 118 31
3 157 118 156
3 157 12 118
3 392 391 8
3 127 393 395
3 395 394 3
3 393 394 395
3 397 396 127
3 399 398 15
3 158 400 402
3 402 401 1
3 400 401 402
3 404 403 158
3 74 405 407
3 407 406 33
3 405 406 407
3 409 408 74
3 410 34 411
3 159 412 413
3 159 414 416
3 414 34 415
3 414 415 416
3 159 99 34
3 160 99 159
3 160 4 99
3 161 417 418
3 161 419 421
3 419 35 420
3 419 420 421
3 75 422 424
3 422 161 423
3 422 423 424
3 162 161 75
3 162 35 161
3 162 160 35
3 163 160 162
3 163 4 160
3 163 141 4
3 164 141 163
3 164 24 141
3 77 164 36
3 165 164 77
3 165 24 164
3 165 63 24
3 158 63 165
3 158 1 63
3 425 113 426
3 425 426 427
3 166 428 430
3 428 113 429
3 428 429 430
3 166 5 113
3 167 431 432
3 167 433 435
3 433 37 434
3 433 434 435
3 79 167 17
3 168 167 79
3 168 37 167
3 168 166 37
3 169 166 168
3 169 5 166
3 169 149 5
3 170 149 169
3 170 28 149
3 81 170 38
3 171 170 81
3 171 28 170
3 171 67 28
3 172 67 171
3 172 2 67
3 173 174 0
3 175 174 173
3 175 41 174
3 84 175 40
3 176 175 84
3 176 41 175
3 176 123 41
3 177 123 176
3 177 8 123
3 134 85 7
3 178 85 134
3 178 42 85
3 86 178 20
3 179 178 86
3 179 42 178
3 179 177 42
3 436 177 437
3 438 437 179
3 436 437 438
3 439 8 440
3 441 440 177
3 439 440 441
3 443 442 8
3 444 62 445
3 446 445 1
3 444 445 446
3 447 62 448
3 449 21 450
3 451 450 62
3 449 450 451
3 452 21 453
3 455 454 21
3 88 456 457
3 459 458 88
3 180 460 461
3 180 462 463
3 90 180 43
3 464 180 465
3 466 465 90
3 464 465 466
3 468 467 180
3 181 469 470
3 181 471 473
3 471 18 472
3 471 472 473
3 92 181 44
3 182 181 92
3 182 18 181
3 182 132 18
3 183 132 182
3 183 6 132
3 138 93 9
3 184 93 138
3 184 45 93
3 95 184 22
3 185 184 95
3 185 45 184
3 185 183 45
3 186 183 185
3 186 6 183
3 186 82 6
3 187 82 186
3 187 39 82
3 97 187 46
3 188 187 97
3 188 39 187
3 188 172 39
3 189 172 188
3 189 2 172
3 190 474 475
3 190 476 478
3 476 23 477
3 476 477 478
3 100 190 34
3 191 190 100
3 191 23 190
3 191 140 23
3 192 140 191
3 192 10 140
3 142 101 4
3 193 101 142
3 193 48 101
3 103 193 25
3 194 193 103
3 194 48 193
3 194 192 48
3 195 192 194
3 195 10 192
3 195 98 10
3 196 98 195
3 196 47 98
3 105 196 49
3 197 196 105
3 197 47 196
3 197 189 47
3 198 189 197
3 198 2 189
3 198 71 2
3 199 71 198
3 199 32 71
3 107 199 50
3 200 199 107
3 200 32 199
3 200 157 32
3 201 157 200
3 201 12 157
3 146 108 11
3 202 108 146
3 202 51 108
3 110 202 27
3 203 202 110
3 203 51 202
3 203 201 51
3 204 201 203
3 204 12 201
3 204 122 12
3 205 122 204
3 205 53 122
3 112 205 52
3 206 205 112
3 206 53 205
3 206 207 53
3 173 207 206
3 173 0 207
3 150 114 5
3 208 114 150
3 208 479 481
3 481 480 114
3 479 480 481
3 116 208 29
3 482 208 483
3 484 483 116
3 482 483 484
3 486 485 208
3 487 3 488
3 154 117 13
3 209 117 154
3 209 54 117
3 119 209 31
3 210 209 119
3 210 54 209
3 210 489 491
3 491 490 54
3 489 490 491
3 211 492 494
3 494 493 210
3 492 493 494
3 211 495 497
3 495 3 496
3 495 496 497
3 211 126 3
3 212 126 211
3 212 14 126
3 121 212 55
3 213 212 121
3 213 14 212
3 213 57 14
3 207 57 213
3 207 0 57
3 174 59 0
3 214 59 174
3 214 16 59
3 124 214 41
3 215 214 124
3 215 16 214
3 215 130 16
3 216 130 215
3 216 498 500
3 500 499 130
3 498 499 500
3 501 125 502
3 503 502 8
3 501 502 503
3 217 504 506
3 504 125 505
3 504 505 506
3 217 56 125
3 507 217 508
3 218 509 511
3 509 217 510
3 509 510 511
3 218 56 217
3 218 216 56
3 512 216 513
3 514 513 218
3 512 513 514
3 516 515 216
