ply
format ascii 1.0
element vertex 483
property float x
property float y
property float z
element face 500
property list uchar int vertex_index
end_header
-10.136556 -96.101494 -24.153463
-16.923676 -84.235611 -6.667034
-8.513668 -83.872902 12.558245
-22.269123 -74.375648 -6.571964
-12.81342 -85.705833 3.303697
-13.840785 -91.124298 -16.600214
-0.860119 -88.189552 11.685755
-5.231377 -92.470871 2.063604
-9.650433 -93.303276 -7.509133
-5.68495 -99.692657 -17.844793
-18.611448 -81.799835 -32.498245
-6.981666 -98.920975 -25.467503
-10.333289 -95.218246 -27.273064
-15.43937 -87.889053 -11.663017
-18.692022 -82.819153 -11.386282
-2.512331 -83.379791 16.673834
-4.713886 -86.16597 12.079474
-2.975256 -90.765991 6.865397
-6.977102 -88.232773 7.362405
-14.92994 -85.290909 -1.648702
-11.503941 -89.4888 -2.310582
-13.506767 -88.99572 -7.00481
-11.770905 -92.605118 -12.236908
-17.995033 -80.628281 -1.194451
-19.734228 -79.358368 -6.266637
-10.72578 -85.30603 7.878253
-11.830182 -94.147476 -20.831543
0.869652 -84.819092 16.625425
2.842339 -89.746735 11.812254
1.037653 -92.742287 6.815278
-0.877334 -95.174011 1.728468
-3.098207 -96.638985 -3.307269
-9.366228 -89.221115 2.598867
-7.495318 -93.331299 -2.881298
-5.188231 -97.323906 -8.227094
-7.724574 -96.77198 -12.776852
-9.897928 -95.744087 -17.114305
-8.186522 -97.99427 -21.458412
-13.919643 -90.553543 -28.0872
-8.793118 -97.379295 -24.736748
-8.593131 -97.250694 -26.489508
-10.147416 -95.859627 -25.582176
-16.191671 -86.120514 -9.189253
-17.197733 -85.249146 -11.439381
-17.778072 -83.631805 -9.00803
-5.46796 -83.770775 14.733373
-6.579157 -85.109772 12.291476
-5.810007 -87.393089 9.641006
-7.784057 -86.066032 9.971106
-15.955028 -84.790207 -4.081941
-14.280503 -87.138245 -4.401417
-15.308077 -86.640648 -6.876408
-14.517137 -88.476433 -9.349261
-12.856139 -92.695045 -18.73209
-13.690388 -91.83149 -20.672955
-14.667053 -90.351646 -18.66708
-21.084185 -76.838303 -6.55312
-20.664371 -78.467346 -8.809135
-22.019423 -75.788574 -8.906476
-1.769449 -85.707054 14.268
-0.821582 -84.061943 16.670765
-0.006705 -86.547577 14.150608
1.869632 -87.352249 14.181757
0.935863 -88.965958 11.70663
1.971608 -91.258972 9.385991
0.058957 -90.535652 9.194467
-4.177681 -91.708298 4.430247
-2.111796 -92.980072 4.203487
-3.034714 -93.994408 1.721347
-4.229148 -94.595551 -0.676305
-11.933471 -85.395096 5.75528
-10.113287 -87.196007 5.338229
-11.094454 -87.535011 2.99401
-10.588598 -91.422569 -4.880975
-9.537365 -91.54068 -2.727271
-8.407208 -93.600471 -5.313007
-6.333125 -95.406502 -5.585343
-7.437289 -95.417274 -7.892432
-6.438117 -97.133102 -10.424944
-8.690336 -95.097504 -10.144952
-12.880303 -91.884872 -14.484056
-10.976186 -94.13591 -14.854177
-11.845257 -93.596695 -16.887865
-11.037823 -94.843597 -18.976793
-6.155303 -99.767136 -21.715399
-7.025052 -98.853783 -19.673719
-16.11002 -86.623817 -30.317049
-16.497889 -85.095375 -32.13995
-4.874846 -100.550201 -25.970016
-6.557737 -98.907082 -27.301277
-8.375423 -96.938271 -28.266239
-10.192053 -94.709595 -29.121645
-14.658983 -89.571884 -14.212287
-15.626995 -88.68013 -16.372269
-16.498955 -86.902946 -13.826844
-18.090738 -84.436279 -13.826784
-3.629466 -84.743813 14.498324
-2.751555 -87.216164 11.864134
-1.918549 -89.532265 9.317228
-3.944591 -88.329216 9.645768
-4.951408 -89.536736 7.150014
-6.127394 -90.357445 4.744124
-13.900772 -85.562469 0.866377
-12.137626 -87.661209 0.489213
-13.25526 -87.402382 -1.82315
-12.554434 -89.232475 -4.532724
-11.637207 -91.1791 -7.156346
-10.784862 -92.979858 -9.893472
-12.750072 -90.692184 -9.482378
-13.651198 -90.270187 -11.783888
-17.418554 -82.518929 -3.849376
-18.393295 -81.802353 -6.45655
-18.780102 -80.245781 -3.859435
-20.182991 -77.655495 -3.893081
-21.371941 -75.337364 -4.110065
-9.60905 -84.732674 10.231458
-11.393857 -83.16468 10.630816
-12.437106 -83.487488 8.49643
-13.557265 -83.683075 5.934038
-14.570761 -83.650391 3.487957
-15.580495 -83.423569 0.944062
-16.57884 -82.908867 -1.362831
-10.919381 -95.279625 -22.723444
-11.484104 -94.537994 -24.312798
-12.565663 -93.313286 -22.707804
-19.28845 -81.063736 -8.965045
-20.214045 -80.117226 -11.305697
2.716361 -85.579887 16.733273
3.718962 -88.028122 14.412292
-0.97543 -91.817787 6.775949
0.134193 -93.974648 4.415334
-8.916321 -86.812859 7.618987
-8.268197 -88.781715 5.003623
-7.294092 -90.936905 2.330425
-10.340299 -89.623627 -0.00715
-8.426311 -91.33004 -0.159474
-6.306195 -93.081047 -0.462017
-5.406333 -95.01371 -3.131775
-4.093763 -97.124725 -5.794477
-6.584841 -98.44722 -15.408655
-9.792207 -94.793877 -12.626728
-8.827577 -96.366295 -15.101625
-7.928549 -97.71228 -17.48843
-9.04154 -96.961189 -19.35338
-10.047502 -96.143867 -21.125828
-9.255457 -97.035355 -22.988289
-5.428558 -100.34082 -23.980165
-7.476624 -98.672089 -23.432261
-11.759515 -93.920967 -25.947567
-12.035379 -93.06752 -27.771343
-12.107747 -92.233589 -29.659866
-14.144505 -89.493286 -29.965118
-7.936577 -83.318805 13.729226
-8.841542 -82.699119 13.922728
-7.546412 -84.491337 12.42486
-6.969322 -83.937241 13.595841
-7.936577 -83.318805 13.729226
-5.216474 -100.21112 -18.889411
-4.453164 -100.633174 -17.95101
-6.355001 -99.27322 -18.759256
-5.886525 -99.791684 -19.803874
-5.216474 -100.21112 -18.889411
-17.554668 -83.447605 -32.319097
-17.334916 -84.309899 -31.314085
-18.391695 -82.662128 -31.493232
-17.71408 -82.612332 -33.23276
-16.6573 -84.260102 -33.053612
-17.554668 -83.447605 -32.319097
-19.1242 -82.35672 -12.441304
-18.823557 -83.165283 -13.661555
-18.39138 -83.627716 -12.606533
-20.39371 -76.773315 -2.650405
-19.771796 -78.00074 -2.705738
-20.988185 -75.61425 -2.758896
-20.777466 -76.49643 -4.001573
-20.39371 -76.773315 -2.650405
-11.707342 -82.100018 11.935777
-10.828821 -82.840237 11.78621
-13.268313 -82.635822 8.535101
-12.773374 -82.457035 9.781009
-13.828393 -82.733616 7.253905
-12.997186 -83.585282 7.215234
-13.268313 -82.635822 8.535101
-15.37755 -82.583493 3.538877
-14.868229 -82.733242 4.727899
-15.882417 -82.470081 2.26693
-15.075628 -83.53698 2.21601
-15.37755 -82.583493 3.538877
-17.286936 -81.768574 -1.278641
-16.845637 -82.008758 -0.058038
-17.553733 -80.868465 0.026152
-13.99134 -91.446766 -21.653493
-14.584762 -90.616158 -20.711601
-16.012593 -88.285736 -17.472013
-16.443854 -87.451702 -16.253232
-20.895395 -78.812591 -11.277936
-20.439208 -79.292286 -10.057416
-21.120558 -77.987651 -10.029655
-20.656543 -79.64809 -12.527116
-20.895395 -78.812591 -11.277936
-2.036466 -82.535839 17.851868
-2.897293 -82.149036 17.913359
0.49602 -83.575279 17.857078
-0.349597 -83.196705 17.879748
0.024035 -84.440517 16.648095
1.343278 -83.979526 17.833267
0.49602 -83.575279 17.857078
1.793006 -85.199489 16.679349
2.266633 -84.359924 17.887191
1.343278 -83.979526 17.833267
3.793203 -90.000599 12.053892
4.231515 -89.141292 13.353912
3.280651 -88.887428 13.112273
3.470627 -90.883305 10.738567
3.793203 -90.000599 12.053892
2.132053 -93.146431 6.950864
2.599031 -92.404774 8.236221
1.50463 -92.00063 8.100634
1.667235 -93.823864 5.685794
2.132053 -93.146431 6.950864
0.198418 -95.651367 1.83516
0.704181 -95.051685 3.178593
-0.37157 -94.57433 3.071901
-0.249909 -96.216011 0.506072
0.198418 -95.651367 1.83516
-1.909946 -97.359047 -3.336391
-2.550149 -96.367169 -2.132491
-2.488312 -97.640572 -4.643977
-1.909946 -97.359047 -3.336391
-4.101722 -98.153481 -8.389641
-3.554488 -98.05389 -7.173332
-4.640997 -97.224315 -7.010785
-4.646869 -98.197605 -9.555529
-4.101722 -98.153481 -8.389641
-6.620494 -97.718288 -12.866763
-5.977266 -97.898849 -11.690809
-7.081345 -96.952541 -11.600898
-7.154707 -97.6096 -14.092754
-6.050628 -98.555909 -14.182664
-6.620494 -97.718288 -12.866763
-4.695096 -100.905288 -23.125113
-4.210364 -101.214485 -24.230807
-12.460401 -93.165512 -25.249013
-11.62181 -94.22948 -25.130183
-12.322695 -93.474025 -24.431629
-12.977511 -91.810531 -27.929271
-12.761999 -92.358086 -27.042349
-13.704131 -91.101097 -27.200277
-14.308619 -88.778087 -30.902272
-15.127263 -88.058551 -30.141084
-15.291376 -87.343353 -31.078238
-13.296623 -90.176494 -30.735446
-14.308619 -88.778087 -30.902272
-6.413723 -83.267742 14.81679
-5.851925 -82.565544 16.014184
-6.023559 -84.440274 13.512424
-6.413723 -83.267742 14.81679
-6.969322 -83.937241 13.595841
-18.900116 -78.643505 -0.127373
-18.677817 -79.487133 -1.356424
-18.217332 -79.784653 0.0346
-18.217332 -79.784653 0.0346
-17.553733 -80.868465 0.026152
-15.073094 -89.876236 -19.708663
-14.584762 -90.616158 -20.711601
-14.178721 -91.091568 -19.670018
-21.798084 -76.648266 -10.078326
-21.120558 -77.987651 -10.029655
-21.341897 -77.12796 -8.857805
-2.518403 -95.04488 0.381817
-1.439712 -95.634681 0.385377
-1.956024 -94.58421 1.724908
-3.11562 -95.345451 -0.817009
-2.518403 -95.04488 0.381817
-3.631931 -94.29498 0.522521
-3.663678 -95.617268 -1.991787
-2.550149 -96.367169 -2.132491
-3.11562 -95.345451 -0.817009
-5.45165 -100.24836 -20.824714
-5.058469 -100.618447 -21.99273
-6.590177 -99.31046 -20.694559
-5.45165 -100.24836 -20.824714
-5.886525 -99.791684 -19.803874
-14.692143 -89.725895 -27.311594
-13.704131 -91.101097 -27.200277
-17.140981 -85.074119 -30.402634
-16.923002 -85.787102 -29.457107
-16.303954 -85.859596 -31.228499
-17.140981 -85.074119 -30.402634
-17.334916 -84.309899 -31.314085
-15.485311 -86.579132 -31.989688
-15.291376 -87.343353 -31.078238
-16.303954 -85.859596 -31.228499
-15.640017 -85.785996 -32.874956
-15.485311 -86.579132 -31.989688
-15.640017 -85.785996 -32.874956
-16.6573 -84.260102 -33.053612
-4.648242 -100.488556 -26.983516
-3.686333 -101.33358 -26.298766
-5.489688 -99.666996 -27.649146
-4.648242 -100.488556 -26.983516
-5.716292 -99.728642 -26.635647
-6.385226 -98.740242 -28.255789
-5.489688 -99.666996 -27.649146
-7.294068 -97.755837 -28.73827
-6.385226 -98.740242 -28.255789
-7.46658 -97.922676 -27.783758
-8.322999 -96.60109 -29.208008
-7.294068 -97.755837 -28.73827
-9.231314 -95.486751 -29.635711
-8.322999 -96.60109 -29.208008
-9.283738 -95.823933 -28.693942
-10.250058 -94.192295 -30.058787
-9.231314 -95.486751 -29.635711
-16.879834 -86.56311 -14.980519
-16.443854 -87.451702 -16.253232
-16.062975 -87.791538 -15.099556
-17.675725 -85.329777 -14.980489
-16.879834 -86.56311 -14.980519
-17.294846 -85.669612 -13.826814
-18.524864 -83.947598 -14.883316
-17.675725 -85.329777 -14.980489
-18.524864 -83.947598 -14.883316
-18.823557 -83.165283 -13.661555
-22.748423 -73.832569 -7.833806
-22.881648 -73.095172 -6.752014
-3.443214 -82.89479 16.8111
-2.897293 -82.149036 17.913359
-4.921029 -83.090283 15.84087
-5.851925 -82.565544 16.014184
-4.001781 -83.576802 15.723345
-4.921029 -83.090283 15.84087
-4.548713 -84.257294 14.615849
-3.070899 -84.061802 15.586079
-3.443214 -82.89479 16.8111
-4.001781 -83.576802 15.723345
-5.054918 -99.953834 -16.747674
-4.453164 -100.633174 -17.95101
-19.361608 -81.123527 -31.609952
-18.391695 -82.662128 -31.493232
-19.070352 -79.295883 -2.688916
-18.387567 -80.437031 -2.526943
-18.677817 -79.487133 -1.356424
-19.481547 -78.950638 -3.876258
-19.070352 -79.295883 -2.688916
-19.771796 -78.00074 -2.705738
-21.569077 -74.463359 -2.945589
-20.988185 -75.61425 -2.758896
-21.979408 -74.086158 -4.272282
-21.569077 -74.463359 -2.945589
-22.427999 -73.6053 -5.503232
-21.820532 -74.856506 -5.341014
-21.979408 -74.086158 -4.272282
-22.881648 -73.095172 -6.752014
-22.427999 -73.6053 -5.503232
-9.388727 -83.194347 12.749924
-8.841542 -82.699119 13.922728
-9.936418 -83.624234 11.586531
-9.061359 -84.302788 11.394851
-9.388727 -83.194347 12.749924
-10.501454 -83.948677 10.431137
-9.936418 -83.624234 11.586531
-10.828821 -82.840237 11.78621
-12.25175 -82.295631 10.848202
-11.707342 -82.100018 11.935777
-11.915482 -83.326084 9.563623
-12.25175 -82.295631 10.848202
-12.773374 -82.457035 9.781009
-14.361481 -82.749584 5.95094
-13.828393 -82.733616 7.253905
-14.064013 -83.666733 4.710998
-14.361481 -82.749584 5.95094
-14.868229 -82.733242 4.727899
-16.346464 -82.266109 1.095409
-15.882417 -82.470081 2.26693
-16.079667 -83.166218 -0.209384
-16.346464 -82.266109 1.095409
-16.845637 -82.008758 -0.058038
-12.863475 -92.861671 -23.629131
-12.322695 -93.474025 -24.431629
-12.024884 -93.92564 -23.510301
-13.428978 -92.187664 -22.670918
-13.128025 -92.572388 -21.690379
-13.99134 -91.446766 -21.653493
-12.863475 -92.861671 -23.629131
-13.428978 -92.187664 -22.670918
-15.532621 -89.121494 -18.619419
-15.147024 -89.515888 -17.519675
-16.012593 -88.285736 -17.472013
-15.073094 -89.876236 -19.708663
-15.532621 -89.121494 -18.619419
-19.885211 -81.005757 -12.401011
-19.1242 -82.35672 -12.441304
-19.453034 -81.468189 -11.345989
-19.885211 -81.005757 -12.401011
-20.656543 -79.64809 -12.527116
-22.623573 -74.539032 -9.001062
-22.144273 -75.082111 -7.73922
-22.748423 -73.832569 -7.833806
-22.455438 -75.345444 -10.169335
-22.623573 -74.539032 -9.001062
-21.798084 -76.648266 -10.078326
-22.455438 -75.345444 -10.169335
-1.191091 -82.876915 17.850333
-2.036466 -82.535839 17.851868
-1.666956 -83.720867 16.6723
-1.191091 -82.876915 17.850333
-0.349597 -83.196705 17.879748
3.089954 -84.590023 18.096866
2.266633 -84.359924 17.887191
3.61365 -85.857029 16.937721
3.089954 -84.590023 18.096866
4.11495 -87.081146 15.77723
3.61365 -85.857029 16.937721
3.217662 -86.804004 15.572783
4.649259 -88.277244 14.672501
4.11495 -87.081146 15.77723
4.649259 -88.277244 14.672501
4.231515 -89.141292 13.353912
3.035262 -91.639423 9.525436
3.470627 -90.883305 10.738567
2.406973 -90.502854 10.599123
3.035262 -91.639423 9.525436
2.599031 -92.404774 8.236221
1.215505 -94.440044 4.485822
1.667235 -93.823864 5.685794
0.585923 -93.358468 5.615306
1.215505 -94.440044 4.485822
0.704181 -95.051685 3.178593
-0.249909 -96.216011 0.506072
-1.439712 -95.634681 0.385377
-2.98609 -97.883442 -5.887581
-2.488312 -97.640572 -4.643977
-3.595985 -96.881855 -4.550873
-2.98609 -97.883442 -5.887581
-3.554488 -98.05389 -7.173332
-5.271812 -98.102203 -10.654454
-4.646869 -98.197605 -9.555529
-5.813174 -97.228504 -9.326019
-5.271812 -98.102203 -10.654454
-5.977266 -97.898849 -11.690809
-5.504864 -99.331116 -15.529605
-6.050628 -98.555909 -14.182664
-6.134895 -99.069939 -16.626724
-5.054918 -99.953834 -16.747674
-5.504864 -99.331116 -15.529605
-3.933508 -101.319176 -25.225732
-3.686333 -101.33358 -26.298766
-5.151702 -100.44551 -24.975091
-3.933508 -101.319176 -25.225732
-4.210364 -101.214485 -24.230807
-5.79193 -100.053978 -22.847782
-4.695096 -100.905288 -23.125113
-5.058469 -100.618447 -21.99273
-12.624067 -92.784809 -26.13046
-12.460401 -93.165512 -25.249013
-11.897447 -93.494244 -26.859455
-12.624067 -92.784809 -26.13046
-12.761999 -92.358086 -27.042349
-11.207905 -92.954292 -30.327897
-10.250058 -94.192295 -30.058787
-11.1499 -93.471592 -29.390756
-14.860743 -89.205487 -28.245065
-14.692143 -89.725895 -27.311594
-15.955932 -87.240623 -29.35999
-16.923002 -85.787102 -29.457107
-14.973174 -88.675358 -29.184024
-15.955932 -87.240623 -29.35999
-15.127263 -88.058551 -30.141084
-14.032074 -90.023415 -29.026159
-14.860743 -89.205487 -28.245065
-14.973174 -88.675358 -29.184024
-12.278244 -91.546646 -30.58282
-13.126126 -90.863438 -29.812492
-13.296623 -90.176494 -30.735446
-11.207905 -92.954292 -30.327897
-12.278244 -91.546646 -30.58282
-19.71264 -80.0811 -32.561775
-19.361608 -81.123527 -31.609952
-18.825415 -80.876259 -33.401916
-19.71264 -80.0811 -32.561775
-17.71408 -82.612332 -33.23276
-18.825415 -80.876259 -33.401916
3 0 41 39
3 1 44 42
3 2 152 153
3 2 154 156
3 154 46 155
3 154 155 156
3 2 48 46
3 1 51 49
3 1 42 51
3 5 55 53
3 3 58 56
3 6 61 59
3 6 63 61
3 6 65 63
3 7 68 66
3 7 69 68
3 4 72 70
3 8 75 73
3 8 77 75
3 8 79 77
3 5 82 80
3 5 53 82
3 9 157 158
3 9 159 161
3 159 85 160
3 159 160 161
3 10 162 164
3 162 87 163
3 162 163 164
3 10 165 167
3 167 166 87
3 165 166 167
3 11 89 88
3 12 90 40
3 12 91 90
3 13 94 92
3 14 95 43
3 14 168 170
3 170 169 95
3 168 169 170
3 16 96 45
3 16 97 96
3 16 99 97
3 18 100 47
3 18 101 100
3 19 104 102
3 21 105 50
3 21 106 105
3 21 108 106
3 13 109 52
3 13 92 109
3 23 112 110
3 171 113 172
3 173 114 174
3 175 174 113
3 173 174 175
3 176 116 177
3 178 117 179
3 180 118 181
3 182 181 117
3 180 181 182
3 183 119 184
3 185 120 186
3 187 186 119
3 185 186 187
3 23 188 190
3 188 121 189
3 188 189 190
3 23 110 121
3 26 124 122
3 192 191 54
3 194 193 93
3 24 125 111
3 195 126 196
3 197 196 57
3 195 196 197
3 199 198 126
3 15 200 201
3 27 202 204
3 204 203 60
3 202 203 204
3 27 205 206
3 27 207 209
3 207 127 208
3 207 208 209
3 28 128 62
3 28 210 212
3 212 211 128
3 210 211 212
3 28 213 214
3 29 215 217
3 217 216 64
3 215 216 217
3 29 218 219
3 17 129 98
3 30 130 67
3 30 220 222
3 222 221 130
3 220 221 222
3 30 223 224
3 31 225 226
3 31 227 228
3 25 131 115
3 32 132 71
3 32 133 132
3 20 134 103
3 33 135 74
3 33 136 135
3 33 137 136
3 34 138 76
3 34 229 231
3 231 230 138
3 229 230 231
3 34 232 233
3 35 234 236
3 236 235 78
3 234 235 236
3 35 237 239
3 237 139 238
3 237 238 239
3 22 140 107
3 36 141 81
3 36 142 141
3 36 143 142
3 26 144 83
3 26 122 144
3 240 146 241
3 37 147 84
3 37 145 147
3 242 148 243
3 244 243 123
3 242 243 244
3 38 245 247
3 245 149 246
3 245 246 247
3 38 150 149
3 248 151 249
3 250 249 86
3 248 249 250
3 252 251 151
3 39 40 11
3 41 40 39
3 41 12 40
3 42 43 13
3 44 43 42
3 44 14 43
3 253 45 254
3 46 255 257
3 255 45 256
3 255 256 257
3 46 16 45
3 46 47 16
3 48 47 46
3 48 18 47
3 49 50 19
3 51 50 49
3 51 21 50
3 51 52 21
3 42 52 51
3 42 13 52
3 260 259 23
3 258 259 260
3 261 23 262
3 53 54 26
3 55 54 53
3 55 263 265
3 265 264 54
3 263 264 265
3 56 57 24
3 58 57 56
3 58 266 268
3 268 267 57
3 266 267 268
3 59 60 15
3 61 60 59
3 61 27 60
3 61 62 27
3 63 62 61
3 63 28 62
3 63 64 28
3 65 64 63
3 65 29 64
3 66 67 17
3 68 67 66
3 68 30 67
3 68 269 271
3 271 270 30
3 269 270 271
3 69 272 274
3 274 273 68
3 272 273 274
3 69 275 277
3 275 31 276
3 275 276 277
3 70 71 25
3 72 71 70
3 72 32 71
3 73 74 20
3 75 74 73
3 75 33 74
3 75 76 33
3 77 76 75
3 77 34 76
3 77 78 34
3 79 78 77
3 79 35 78
3 80 81 22
3 82 81 80
3 82 36 81
3 82 83 36
3 53 83 82
3 53 26 83
3 278 84 279
3 85 280 282
3 280 84 281
3 280 281 282
3 85 37 84
3 283 38 284
3 285 86 286
3 87 287 289
3 287 86 288
3 287 288 289
3 87 290 292
3 292 291 86
3 290 291 292
3 87 293 294
3 296 295 87
3 88 297 298
3 89 299 301
3 301 300 88
3 299 300 301
3 89 302 303
3 40 89 11
3 90 89 40
3 90 304 306
3 306 305 89
3 304 305 306
3 90 307 308
3 91 309 311
3 311 310 90
3 309 310 311
3 91 312 313
3 92 93 5
3 94 93 92
3 94 314 316
3 316 315 93
3 314 315 316
3 43 94 13
3 95 94 43
3 95 317 319
3 319 318 94
3 317 318 319
3 95 320 321
3 323 322 95
3 325 324 3
3 326 15 327
3 45 328 329
3 96 330 332
3 332 331 45
3 330 331 332
3 96 333 335
3 333 15 334
3 333 334 335
3 96 59 15
3 97 59 96
3 97 6 59
3 97 98 6
3 99 98 97
3 99 17 98
3 47 99 16
3 100 99 47
3 100 17 99
3 100 66 17
3 101 66 100
3 101 7 66
3 102 103 4
3 104 103 102
3 104 20 103
3 50 104 19
3 105 104 50
3 105 20 104
3 105 73 20
3 106 73 105
3 106 8 73
3 106 107 8
3 108 107 106
3 108 22 107
3 52 108 21
3 109 108 52
3 109 22 108
3 109 80 22
3 92 80 109
3 92 5 80
3 336 9 337
3 338 10 339
3 110 111 1
3 112 111 110
3 112 24 111
3 340 112 341
3 342 341 23
3 340 341 342
3 113 343 345
3 343 112 344
3 343 344 345
3 113 24 112
3 113 56 24
3 114 56 113
3 114 3 56
3 346 114 347
3 348 114 349
3 350 3 351
3 352 351 114
3 350 351 352
3 354 353 3
3 355 2 356
3 357 115 358
3 359 358 2
3 357 358 359
3 116 360 362
3 360 115 361
3 360 361 362
3 116 25 115
3 363 116 364
3 117 365 367
3 365 116 366
3 365 366 367
3 117 25 116
3 117 70 25
3 118 70 117
3 118 4 70
3 368 118 369
3 119 370 372
3 370 118 371
3 370 371 372
3 119 4 118
3 119 102 4
3 120 102 119
3 120 19 102
3 373 120 374
3 121 375 377
3 375 120 376
3 375 376 377
3 121 19 120
3 121 49 19
3 110 49 121
3 110 1 49
3 122 123 0
3 124 123 122
3 124 378 380
3 380 379 123
3 378 379 380
3 54 124 26
3 381 124 382
3 383 382 54
3 381 382 383
3 385 384 124
3 93 55 5
3 386 55 387
3 388 387 93
3 386 387 388
3 390 389 55
3 111 44 1
3 125 44 111
3 125 14 44
3 57 125 24
3 126 125 57
3 126 14 125
3 126 391 393
3 393 392 14
3 391 392 393
3 395 394 126
3 396 58 397
3 398 397 3
3 396 397 398
3 399 58 400
3 402 401 58
3 60 403 405
3 405 404 15
3 403 404 405
3 407 406 60
3 127 408 409
3 127 410 411
3 62 127 27
3 128 127 62
3 128 412 414
3 414 413 127
3 412 413 414
3 128 415 416
3 418 417 128
3 64 419 421
3 421 420 28
3 419 420 421
3 423 422 64
3 98 65 6
3 129 65 98
3 129 29 65
3 67 129 17
3 130 129 67
3 130 29 129
3 130 424 426
3 426 425 29
3 424 425 426
3 428 427 130
3 430 429 30
3 115 48 2
3 131 48 115
3 131 18 48
3 71 131 25
3 132 131 71
3 132 18 131
3 132 101 18
3 133 101 132
3 133 7 101
3 103 72 4
3 134 72 103
3 134 32 72
3 74 134 20
3 135 134 74
3 135 32 134
3 135 133 32
3 136 133 135
3 136 7 133
3 136 69 7
3 137 69 136
3 137 31 69
3 76 137 33
3 138 137 76
3 138 31 137
3 138 431 433
3 433 432 31
3 431 432 433
3 435 434 138
3 78 436 438
3 438 437 34
3 436 437 438
3 440 439 78
3 139 441 442
3 139 443 445
3 443 9 444
3 443 444 445
3 107 79 8
3 140 79 107
3 140 35 79
3 81 140 22
3 141 140 81
3 141 35 140
3 141 139 35
3 142 139 141
3 142 9 139
3 142 85 9
3 143 85 142
3 143 37 85
3 83 143 36
3 144 143 83
3 144 37 143
3 144 145 37
3 122 145 144
3 122 0 145
3 446 88 447
3 146 448 450
3 448 88 449
3 448 449 450
3 146 11 88
3 84 451 453
3 451 146 452
3 451 452 453
3 147 146 84
3 147 11 146
3 147 39 11
3 145 39 147
3 145 0 39
3 123 41 0
3 148 41 123
3 148 12 41
3 454 148 455
3 149 456 458
3 456 148 457
3 456 457 458
3 149 12 148
3 149 91 12
3 150 91 149
3 150 459 461
3 461 460 91
3 459 460 461
3 462 38 463
3 86 464 465
3 151 466 468
3 468 467 86
3 466 467 468
3 151 469 471
3 469 38 470
3 469 470 471
3 151 150 38
3 472 150 473
3 474 473 151
3 472 473 474
3 476 475 150
3 477 10 478
3 479 10 480
3 482 481 10
