ply
format ascii 1.0
element vertex 448
property float x
property float y
property float z
element face 456
property list uchar int vertex_index
end_header
-34.18716 77.499817 -25.796505
-28.191431 98.320961 -8.323021
-24.928791 99.192078 -35.163021
-36.351521 60.144604 -31.192137
-33.959553 77.062492 -12.891117
-31.234392 86.993767 -4.567086
-31.235207 90.390343 -18.456007
-22.576712 105.612068 -11.253939
-27.055216 100.734612 -22.803242
-35.574638 70.367165 -22.593025
-35.457634 69.480873 -28.675949
-33.677223 75.581375 -6.227548
-30.087791 90.252747 0.399149
-29.891226 93.225853 -6.740716
-31.247177 89.223572 -11.676188
-29.761171 94.916649 -13.747066
-22.590214 103.598114 -30.169764
-23.940172 104.269562 -23.868807
-26.190983 100.515488 -29.119143
-28.902172 96.306625 -27.53759
-28.199165 95.342072 -33.6035
-20.71277 101.779076 -35.843704
-35.508774 70.194176 -16.176226
-34.187653 77.497581 -19.48634
-31.191799 84.13533 2.187132
-32.335674 80.21196 -1.995365
-32.538803 82.57341 -9.055329
-32.68074 83.913574 -15.570352
-32.745865 84.447144 -22.545341
-25.819763 102.556076 -9.871043
-24.996895 103.887115 -17.172585
-27.634859 100.13266 -15.615764
-29.43395 96.069962 -20.741846
-34.890678 73.986931 -24.34586
-35.543648 70.065887 -25.655914
-34.841473 73.665375 -27.369709
-34.686474 73.313156 -30.445654
-34.133194 77.048347 -28.853537
-28.383247 97.200294 -4.716271
-29.271254 94.541412 -3.85189
-29.122097 95.839363 -7.546119
-29.841146 94.161324 -10.336623
-28.9489 96.910995 -11.244501
-23.777267 101.570938 -32.816078
-24.47732 102.228279 -29.776485
-25.623453 100.024551 -32.15765
-27.228264 98.114716 -31.419777
-26.630388 97.501846 -34.455513
-27.635059 94.608315 -36.446823
-25.975426 96.5373 -37.254829
-19.793867 100.508171 -38.156315
-36.509228 55.601166 -32.375877
-35.966171 54.620663 -34.937447
-35.905712 59.553169 -33.968266
-34.61676 73.200821 -11.259274
-35.393112 69.838142 -12.790357
-34.784767 73.469559 -14.453613
-34.888248 73.727974 -17.778685
-34.135521 77.162216 -16.212961
-30.68117 88.58683 -2.089137
-30.65638 87.240173 1.490965
-31.227541 85.534882 -1.079377
-31.74758 82.304543 -0.075073
-31.815359 83.670433 -3.468129
-32.431824 81.552254 -5.53518
-31.864925 84.913979 -6.835826
-31.26123 89.895996 -15.231659
-31.944111 86.792412 -13.786769
-32.034924 87.046097 -17.084789
-32.763802 84.132759 -19.0762
-31.981379 87.611122 -20.553274
-23.301147 104.657318 -7.729038
-24.30595 104.279129 -10.759935
-25.628262 102.612305 -23.419018
-24.487991 104.205803 -20.620895
-26.103565 102.432358 -19.919018
-26.456966 102.081276 -16.579311
-27.378613 100.541702 -19.301983
-28.545197 98.289848 -18.310982
-28.267782 98.697502 -21.573591
-36.176731 65.555428 -26.903728
-35.9856 64.801605 -30.033173
-35.643471 64.262085 -32.979923
-35.279716 68.752106 -31.563597
-33.817291 76.453506 -9.521272
-29.549059 91.426003 3.078372
-29.440935 93.044365 -0.557809
-30.03511 91.660103 -3.095836
-30.585087 90.249191 -5.616631
-31.256498 88.148743 -8.048297
-30.568569 91.309402 -9.096872
-30.568253 92.089966 -12.779449
-30.45368 92.963181 -16.238792
-21.272257 105.127174 -27.813042
-21.98761 105.520851 -24.582285
-23.243948 104.119331 -27.112719
-24.972294 102.677475 -26.673868
-26.589895 100.807762 -26.142269
-28.041761 98.617287 -25.154776
-27.64246 98.558647 -28.34086
-28.647842 95.876663 -30.518625
-29.112518 92.387794 -35.36607
-20.34606 104.578529 -30.620634
-21.644857 102.881653 -33.087387
-22.874008 100.711655 -35.600418
-24.138033 98.190254 -37.751072
-21.983004 99.486519 -38.165245
-35.222416 53.224716 -37.526497
-35.638351 69.997482 -19.442211
-34.931229 73.866295 -21.120197
-34.250401 77.399956 -22.715309
-30.169155 88.488731 4.002756
-32.966728 78.052826 -4.044972
-33.074097 79.263992 -7.509731
-33.220184 80.033051 -11.078829
-31.925508 85.92318 -10.396338
-32.60186 83.451263 -12.414474
-33.367363 80.396904 -14.372346
-33.413883 80.909744 -17.580669
-33.510769 80.913261 -21.020777
-33.511574 80.956146 -24.280287
-27.112648 100.584839 -9.323615
-22.731104 105.55513 -21.274733
-23.286501 105.403076 -17.691072
-23.823429 104.950417 -14.090109
-25.387838 103.392891 -13.572492
-26.758141 101.503143 -12.844742
-28.005812 99.184555 -11.978016
-28.785885 97.65596 -14.880081
-29.578115 95.711296 -17.214941
-30.426867 93.232895 -19.496382
-29.216799 96.265114 -24.221106
-30.211882 93.756058 -23.0026
-31.145891 90.801819 -21.978172
-32.737305 84.315674 -25.854961
-33.467476 80.749107 -27.451252
-36.644987 58.295741 -30.374759
-36.504864 60.534628 -29.699199
-36.430374 57.872885 -31.784007
-36.723841 56.024022 -30.966629
-36.644987 58.295741 -30.374759
-22.93893 105.134693 -9.491489
-22.406739 105.19022 -7.907823
-22.044522 105.667595 -9.670274
-35.905712 68.306134 -23.252957
-35.938575 68.326886 -21.655053
-34.597519 72.851474 -31.887715
-34.328707 74.911717 -31.192374
-34.047482 74.136017 -7.051665
-33.929294 73.822639 -5.33855
-33.747257 76.01744 -7.87441
-34.117515 74.572082 -8.698527
-34.047482 74.136017 -7.051665
-29.053384 94.316498 -0.842468
-29.119579 93.617638 0.87104
-28.893933 94.102837 -33.05489
-29.118271 94.370132 -31.512452
-28.423504 95.609367 -32.061062
-28.655842 93.864933 -34.484785
-29.35061 92.625698 -33.936174
-28.893933 94.102837 -33.05489
-28.081286 93.129567 -37.252205
-27.3131 94.062859 -37.783911
-19.126669 104.863002 -30.765887
-19.644092 105.252644 -29.313443
-21.178813 102.330365 -34.465546
-20.512473 103.291184 -33.209255
-20.04643 102.739895 -34.587413
-20.39657 99.310169 -39.256689
-19.234967 99.621502 -39.356834
-35.27195 55.858456 -37.112766
-35.594294 53.92269 -36.231972
-35.643828 56.556429 -35.818241
-34.91903 55.231105 -38.318638
-35.27195 55.858456 -37.112766
-35.451346 63.773363 -34.257174
-35.280337 66.212834 -33.765428
-35.825819 68.274372 -15.224106
-35.767988 68.096355 -13.531171
-35.450943 70.016159 -14.483291
-35.891903 68.240002 -16.843734
-35.825819 68.274372 -15.224106
-35.573563 70.095829 -17.809219
-35.956692 68.141655 -18.476726
-35.891903 68.240002 -16.843734
-30.928954 84.899147 3.487681
-30.661244 86.451569 3.139597
-30.92409 85.687751 1.839049
-31.171508 83.292301 3.897718
-30.928954 84.899147 3.487681
-31.418764 82.527145 2.743978
-31.171508 83.292301 3.897718
-32.262974 79.64077 -0.371285
-31.968926 80.687061 0.588862
-32.041627 81.258252 -1.035219
-32.565811 78.576737 -1.320174
-32.262974 79.64077 -0.371285
-32.651201 79.132393 -3.020168
-32.881338 77.497169 -2.344977
-32.565811 78.576737 -1.320174
-26.013905 102.060204 -8.211702
-25.306342 102.941006 -8.50482
-26.466206 101.570458 -9.597329
-26.660348 101.074585 -7.937988
-26.013905 102.060204 -8.211702
-30.625503 92.325142 -24.145071
-30.130249 93.744861 -24.687494
-31.092507 90.848022 -23.632857
-30.678886 92.278938 -22.490386
-30.625503 92.325142 -24.145071
-31.539903 89.286831 -23.02958
-31.092507 90.848022 -23.632857
-32.667797 84.312657 -27.372822
-32.31817 85.911869 -26.540463
-33.032882 82.529373 -28.170968
-33.10239 82.53239 -26.653106
-32.667797 84.312657 -27.372822
-33.396974 80.634716 -28.914478
-33.032882 82.529373 -28.170968
-24.697058 96.780075 -38.721458
-23.693905 97.556923 -38.930592
-34.052067 76.779312 -30.396315
-34.328707 74.911717 -31.192374
-34.409834 75.180752 -29.649596
-33.568924 75.171955 -4.506388
-33.929294 73.822639 -5.33855
-28.82725 95.870853 -4.28408
-28.968544 95.065022 -2.489509
-28.524541 96.394463 -2.921699
-26.483284 95.027352 -38.187914
-27.3131 94.062859 -37.783911
-26.805242 95.572808 -36.850826
-19.491749 102.11258 -35.925985
-20.04643 102.739895 -34.587413
-19.032298 101.477127 -37.08229
-20.253318 101.143624 -37.00001
-19.491749 102.11258 -35.925985
-18.534698 100.702286 -38.267588
-19.032298 101.477127 -37.08229
-19.234967 99.621502 -39.356834
-18.534698 100.702286 -38.267588
-36.797552 53.51333 -31.514246
-36.723841 56.024022 -30.966629
-36.501938 53.025858 -32.8736
-36.797552 53.51333 -31.514246
-36.2377 55.110914 -33.656662
-36.23041 52.535607 -34.154385
-36.501938 53.025858 -32.8736
-35.613598 59.022682 -35.333651
-35.643828 56.556429 -35.818241
-35.935941 57.086916 -34.452856
-35.004936 71.519482 -12.024815
-35.288828 69.676388 -11.054408
-34.900652 71.357727 -10.288867
-22.668695 104.734783 -6.231508
-22.406739 105.19022 -7.907823
-23.511394 104.132824 -5.827176
-22.668695 104.734783 -6.231508
-24.047034 103.991626 -7.433817
-23.511394 104.132824 -5.827176
-24.549436 103.802532 -8.949266
-24.047034 103.991626 -7.433817
-23.803548 104.468223 -9.244487
-25.062856 103.417603 -10.315489
-25.306342 102.941006 -8.50482
-24.549436 103.802532 -8.949266
-29.475394 95.020145 -26.954989
-29.376517 94.880725 -28.478516
-35.890217 68.155495 -24.784402
-35.905712 68.306134 -23.252957
-35.559143 70.216526 -24.12447
-36.206758 65.900265 -25.408309
-35.890217 68.155495 -24.784402
-35.860189 67.810658 -26.279821
-36.506052 63.599957 -26.064011
-36.206758 65.900265 -25.408309
-36.417469 63.24004 -27.554994
-36.506052 63.599957 -26.064011
-36.321903 62.863129 -29.119717
-36.417469 63.24004 -27.554994
-36.081165 65.178517 -28.468451
-36.16856 62.473104 -30.612655
-36.504864 60.534628 -29.699199
-36.321903 62.863129 -29.119717
-35.098459 68.457844 -33.057265
-35.280337 66.212834 -33.765428
-35.461593 66.507095 -32.27176
-34.89414 70.570949 -32.446687
-34.983095 71.032631 -31.004626
-34.597519 72.851474 -31.887715
-35.098459 68.457844 -33.057265
-34.89414 70.570949 -32.446687
-34.51725 72.94574 -9.567528
-34.900652 71.357727 -10.288867
-34.217025 74.827164 -10.390273
-34.51725 72.94574 -9.567528
-34.117515 74.572082 -8.698527
-29.173641 92.808457 2.68913
-29.266325 91.905937 4.462917
-29.494997 92.235184 1.260282
-29.173641 92.808457 2.68913
-29.119579 93.617638 0.87104
-29.356094 93.792889 -2.204849
-29.053384 94.316498 -0.842468
-28.968544 95.065022 -2.489509
-21.701059 106.06617 -11.489404
-22.044522 105.667595 -9.670274
-21.629933 105.324012 -26.197663
-20.933055 105.960895 -24.763219
-20.575378 105.764057 -26.378597
-29.249353 94.665744 -29.969033
-29.376517 94.880725 -28.478516
-28.775007 96.091644 -29.028108
-29.249353 94.665744 -29.969033
-29.118271 94.370132 -31.512452
-29.713233 91.134716 -34.908915
-29.35061 92.625698 -33.936174
-29.508651 90.720638 -36.290942
-29.713233 91.134716 -34.908915
-28.820016 92.019306 -36.711828
-28.373788 93.498054 -35.906447
-28.081286 93.129567 -37.252205
-29.508651 90.720638 -36.290942
-28.820016 92.019306 -36.711828
-28.02208 97.697376 -3.391185
-28.524541 96.394463 -2.921699
-27.863048 98.403171 -5.22704
-28.02208 97.697376 -3.391185
-27.767139 98.963505 -7.030415
-28.287339 97.760627 -6.519646
-27.863048 98.403171 -5.22704
-20.10719 105.526966 -27.909647
-20.575378 105.764057 -26.378597
-20.809159 104.852851 -29.216838
-20.10719 105.526966 -27.909647
-19.644092 105.252644 -29.313443
-19.863075 104.139622 -31.975879
-19.126669 104.863002 -30.765887
-20.995458 103.730091 -31.854011
-19.863075 104.139622 -31.975879
-20.512473 103.291184 -33.209255
-22.616391 98.205056 -39.137678
-23.693905 97.556923 -38.930592
-23.060519 98.838386 -37.958158
-21.491138 98.799343 -39.261154
-20.888435 99.997345 -38.16078
-20.39657 99.310169 -39.256689
-22.616391 98.205056 -39.137678
-21.491138 98.799343 -39.261154
-35.860363 52.004559 -35.424768
-36.23041 52.535607 -34.154385
-35.488486 51.306585 -36.719293
-35.860363 52.004559 -35.424768
-35.594294 53.92269 -36.231972
-35.048147 50.678581 -37.87101
-35.488486 51.306585 -36.719293
-34.78785 52.718495 -38.651912
-35.048147 50.678581 -37.87101
-34.78785 52.718495 -38.651912
-34.91903 55.231105 -38.318638
-35.582466 61.418905 -34.751345
-35.774591 61.907627 -33.474094
-35.451346 63.773363 -34.257174
-35.613598 59.022682 -35.333651
-35.582466 61.418905 -34.751345
-35.68145 67.970405 -11.774017
-35.288828 69.676388 -11.054408
-35.68145 67.970405 -11.774017
-35.767988 68.096355 -13.531171
-35.970432 68.142044 -20.079646
-35.956692 68.141655 -18.476726
-35.606494 70.182323 -21.017618
-35.938575 68.326886 -21.655053
-35.970432 68.142044 -20.079646
-29.612614 90.493298 4.823088
-29.266325 91.905937 4.462917
-29.922662 89.024662 5.28528
-29.612614 90.493298 4.823088
-29.859107 89.957367 3.540564
-30.188021 87.636536 5.68543
-29.922662 89.024662 5.28528
-30.417632 87.075848 4.395492
-30.412768 87.864452 2.74686
-30.661244 86.451569 3.139597
-30.188021 87.636536 5.68543
-30.417632 87.075848 4.395492
-31.696655 81.611752 1.612876
-31.418764 82.527145 2.743978
-31.46969 83.219936 1.056029
-31.696655 81.611752 1.612876
-31.968926 80.687061 0.588862
-33.213677 76.40768 -3.4151
-32.881338 77.497169 -2.344977
-33.321976 76.8171 -5.13626
-33.568924 75.171955 -4.506388
-33.213677 76.40768 -3.4151
-27.227748 100.095444 -7.530712
-26.660348 101.074585 -7.937988
-27.65204 99.4529 -8.823318
-27.767139 98.963505 -7.030415
-27.227748 100.095444 -7.530712
-22.322855 105.886463 -13.0072
-21.701059 106.06617 -11.489404
-21.337342 106.07257 -23.014671
-20.933055 105.960895 -24.763219
-21.709089 106.08971 -21.360895
-21.337342 106.07257 -23.014671
-22.359357 105.537991 -22.928509
-22.063668 106.041065 -19.735504
-21.709089 106.08971 -21.360895
-22.341367 105.965038 -17.943673
-22.063668 106.041065 -19.735504
-23.008803 105.479103 -19.482903
-22.67775 105.781967 -16.225766
-22.341367 105.965038 -17.943673
-22.946213 105.555638 -14.425285
-22.67775 105.781967 -16.225766
-23.554965 105.176747 -15.89059
-23.200071 105.281242 -12.672024
-22.322855 105.886463 -13.0072
-22.946213 105.555638 -14.425285
-29.632707 94.99939 -25.296747
-29.059486 96.285869 -25.879348
-29.475394 95.020145 -26.954989
-29.71434 95.010586 -23.611853
-29.632707 94.99939 -25.296747
-30.130249 93.744861 -24.687494
-31.957647 87.691483 -22.317131
-31.563635 89.20647 -21.265723
-31.539903 89.286831 -23.02958
-32.339889 86.109493 -23.313164
-32.363622 86.029133 -21.549307
-31.957647 87.691483 -22.317131
-32.33561 86.043758 -24.967975
-32.31817 85.911869 -26.540463
-32.741585 84.381409 -24.200151
-32.339889 86.109493 -23.313164
-32.33561 86.043758 -24.967975
-33.729833 78.784336 -29.61562
-33.800335 78.898727 -28.152394
-33.396974 80.634716 -28.914478
-34.052067 76.779312 -30.396315
-33.729833 78.784336 -29.61562
-25.615755 95.953598 -38.473337
-25.056729 97.363777 -37.50295
-24.697058 96.780075 -38.721458
-26.483284 95.027352 -38.187914
-25.615755 95.953598 -38.473337
3 0 35 33
3 0 37 35
3 1 40 38
3 1 42 40
3 2 45 43
3 2 47 45
3 2 49 47
3 3 136 137
3 3 138 140
3 138 51 139
3 138 139 140
3 3 53 51
3 4 56 54
3 4 58 56
3 5 61 59
3 5 63 61
3 5 65 63
3 6 68 66
3 6 70 68
3 7 141 143
3 141 71 142
3 141 142 143
3 7 72 71
3 8 75 73
3 8 77 75
3 8 79 77
3 9 144 145
3 10 80 34
3 10 81 80
3 10 83 81
3 147 146 36
3 11 148 149
3 11 150 152
3 150 84 151
3 150 151 152
3 153 86 154
3 13 87 39
3 13 88 87
3 13 90 88
3 15 91 41
3 15 92 91
3 16 95 93
3 18 96 44
3 18 97 96
3 18 99 97
3 20 100 46
3 20 155 157
3 157 156 100
3 155 156 157
3 20 158 160
3 158 101 159
3 158 159 160
3 162 161 48
3 163 102 164
3 21 165 167
3 165 103 166
3 165 166 167
3 21 104 103
3 21 106 104
3 169 168 50
3 170 107 171
3 172 171 52
3 170 171 172
3 174 173 107
3 176 175 82
3 22 177 179
3 179 178 55
3 177 178 179
3 22 180 181
3 22 182 184
3 182 108 183
3 182 183 184
3 23 109 57
3 23 110 109
3 12 111 85
3 24 185 187
3 187 186 60
3 185 186 187
3 24 188 189
3 24 190 191
3 25 192 194
3 194 193 62
3 192 193 194
3 25 195 196
3 25 197 199
3 197 112 198
3 197 198 199
3 26 113 64
3 26 114 113
3 14 115 89
3 27 116 67
3 27 117 116
3 27 118 117
3 28 119 69
3 28 120 119
3 29 200 201
3 29 202 204
3 202 121 203
3 202 203 204
3 17 122 94
3 30 123 74
3 30 124 123
3 30 125 124
3 31 126 76
3 31 127 126
3 31 128 127
3 32 129 78
3 32 130 129
3 19 131 98
3 205 132 206
3 207 133 208
3 209 208 132
3 207 208 209
3 211 210 133
3 212 134 213
3 214 135 215
3 216 215 134
3 214 215 216
3 218 217 135
3 220 219 105
3 33 34 9
3 35 34 33
3 35 10 34
3 35 36 10
3 37 36 35
3 37 221 223
3 223 222 36
3 221 222 223
3 224 11 225
3 38 226 228
3 226 39 227
3 226 227 228
3 40 39 38
3 40 13 39
3 40 41 13
3 42 41 40
3 42 15 41
3 43 44 16
3 45 44 43
3 45 18 44
3 45 46 18
3 47 46 45
3 47 20 46
3 47 48 20
3 49 48 47
3 49 229 231
3 231 230 48
3 229 230 231
3 232 21 233
3 234 50 235
3 236 235 21
3 234 235 236
3 237 50 238
3 240 239 50
3 51 241 242
3 51 243 244
3 51 245 247
3 245 52 246
3 245 246 247
3 53 52 51
3 53 248 250
3 250 249 52
3 248 249 250
3 54 251 253
3 251 55 252
3 251 252 253
3 56 55 54
3 56 22 55
3 56 57 22
3 58 57 56
3 58 23 57
3 59 60 12
3 61 60 59
3 61 24 60
3 61 62 24
3 63 62 61
3 63 25 62
3 63 64 25
3 65 64 63
3 65 26 64
3 66 67 14
3 68 67 66
3 68 27 67
3 68 69 27
3 70 69 68
3 70 28 69
3 71 254 255
3 71 256 257
3 71 258 259
3 72 260 262
3 262 261 71
3 260 261 262
3 72 263 265
3 263 29 264
3 263 264 265
3 73 74 17
3 75 74 73
3 75 30 74
3 75 76 30
3 77 76 75
3 77 31 76
3 77 78 31
3 79 78 77
3 79 32 78
3 267 266 19
3 34 268 270
3 270 269 9
3 268 269 270
3 80 271 273
3 273 272 34
3 271 272 273
3 80 274 275
3 80 276 277
3 81 278 280
3 280 279 80
3 278 279 280
3 81 281 283
3 281 3 282
3 281 282 283
3 81 82 3
3 83 82 81
3 83 284 286
3 286 285 82
3 284 285 286
3 36 83 10
3 287 83 288
3 289 288 36
3 287 288 289
3 291 290 83
3 292 54 293
3 84 294 296
3 294 54 295
3 294 295 296
3 84 4 54
3 297 85 298
3 86 299 301
3 299 85 300
3 299 300 301
3 86 12 85
3 39 302 304
3 302 86 303
3 302 303 304
3 87 86 39
3 87 12 86
3 87 59 12
3 88 59 87
3 88 5 59
3 88 89 5
3 90 89 88
3 90 14 89
3 41 90 13
3 91 90 41
3 91 14 90
3 91 66 14
3 92 66 91
3 92 6 66
3 305 7 306
3 93 307 309
3 307 94 308
3 307 308 309
3 95 94 93
3 95 17 94
3 44 95 16
3 96 95 44
3 96 17 95
3 96 73 17
3 97 73 96
3 97 8 73
3 97 98 8
3 99 98 97
3 99 19 98
3 46 99 18
3 100 99 46
3 100 19 99
3 100 310 312
3 312 311 19
3 310 311 312
3 314 313 100
3 101 315 316
3 101 317 318
3 48 101 20
3 319 101 320
3 321 320 48
3 319 320 321
3 323 322 101
3 324 38 325
3 326 38 327
3 328 1 329
3 330 329 38
3 328 329 330
3 331 93 332
3 102 333 335
3 333 93 334
3 333 334 335
3 102 16 93
3 336 102 337
3 103 338 340
3 338 102 339
3 338 339 340
3 103 16 102
3 103 43 16
3 104 43 103
3 104 2 43
3 104 105 2
3 106 105 104
3 106 341 343
3 343 342 105
3 341 342 343
3 50 106 21
3 344 106 345
3 346 345 50
3 344 345 346
3 348 347 106
3 52 349 350
3 107 351 353
3 353 352 52
3 351 352 353
3 107 354 355
3 107 356 357
3 359 358 107
3 82 53 3
3 360 53 361
3 362 361 82
3 360 361 362
3 364 363 53
3 55 365 366
3 368 367 55
3 108 369 370
3 108 371 373
3 371 9 372
3 371 372 373
3 57 108 22
3 109 108 57
3 109 9 108
3 109 33 9
3 110 33 109
3 110 0 33
3 85 374 375
3 111 376 378
3 378 377 85
3 376 377 378
3 111 379 380
3 60 111 12
3 381 111 382
3 383 382 60
3 381 382 383
3 385 384 111
3 62 386 388
3 388 387 24
3 386 387 388
3 390 389 62
3 112 391 392
3 112 393 395
3 393 11 394
3 393 394 395
3 64 112 25
3 113 112 64
3 113 11 112
3 113 84 11
3 114 84 113
3 114 4 84
3 89 65 5
3 115 65 89
3 115 26 65
3 67 115 14
3 116 115 67
3 116 26 115
3 116 114 26
3 117 114 116
3 117 4 114
3 117 58 4
3 118 58 117
3 118 23 58
3 69 118 27
3 119 118 69
3 119 23 118
3 119 110 23
3 120 110 119
3 120 0 110
3 121 396 397
3 121 398 400
3 398 1 399
3 398 399 400
3 401 7 402
3 94 403 404
3 122 405 407
3 407 406 94
3 405 406 407
3 122 408 409
3 74 122 17
3 123 122 74
3 123 410 412
3 412 411 122
3 410 411 412
3 123 413 414
3 124 415 417
3 417 416 123
3 415 416 417
3 124 418 420
3 418 7 419
3 418 419 420
3 124 72 7
3 125 72 124
3 125 29 72
3 76 125 30
3 126 125 76
3 126 29 125
3 126 121 29
3 127 121 126
3 127 1 121
3 127 42 1
3 128 42 127
3 128 15 42
3 78 128 31
3 129 128 78
3 129 15 128
3 129 92 15
3 130 92 129
3 130 6 92
3 98 79 8
3 131 79 98
3 131 32 79
3 421 131 422
3 423 422 19
3 421 422 423
3 132 424 426
3 424 131 425
3 424 425 426
3 132 32 131
3 132 130 32
3 133 130 132
3 133 6 130
3 133 70 6
3 427 70 428
3 429 428 133
3 427 428 429
3 430 28 431
3 432 431 70
3 430 431 432
3 134 433 434
3 134 435 437
3 435 28 436
3 435 436 437
3 134 120 28
3 135 120 134
3 135 0 120
3 135 37 0
3 438 37 439
3 440 439 135
3 438 439 440
3 442 441 37
3 105 49 2
3 443 49 444
3 445 444 105
3 443 444 445
3 447 446 49
