ply
format ascii 1.0
element vertex 575
property float x
property float y
property float z
element face 617
property list uchar int vertex_index
end_header
24.74509 29.723717 27.637377
35.715122 24.628529 10.689259
31.475224 31.034256 -2.273648
29.044535 21.139059 26.407442
29.871418 38.420071 3.787259
34.468109 28.166361 3.428074
30.55789 33.826382 10.943452
25.3361 36.978184 19.961866
30.528389 28.022379 18.640472
34.859829 19.846241 18.602417
17.993128 24.871023 -9.890773
22.841383 22.780428 -7.356618
27.817257 41.100574 7.766978
30.257576 36.26186 7.253824
27.853693 38.504406 11.617403
25.195086 33.401226 23.831646
27.864557 32.384258 19.404081
27.546375 29.142345 23.115299
30.736271 17.376837 26.219358
32.030979 20.748652 22.330256
33.593971 16.795958 22.775997
20.195299 23.925512 -8.576906
29.964918 36.789482 -2.400556
29.441832 32.465351 -4.554312
27.885345 27.209789 -5.75702
30.521465 26.198639 -4.016378
32.962555 25.090183 -1.823469
35.303745 26.627508 6.899845
37.83844 20.065977 11.325344
27.007992 25.292892 26.887321
31.180286 35.166187 0.414581
33.170441 29.583319 0.37122
32.12756 33.379108 3.48278
32.858303 31.357233 6.942034
33.302227 29.14222 10.467776
22.66007 41.914227 20.999083
25.324266 40.386204 16.007477
28.024189 35.55518 15.30321
30.642467 31.12365 14.780383
33.194679 26.780291 14.496835
29.841433 24.90353 22.649263
32.844326 23.885817 18.435104
35.616108 22.363123 14.530934
37.478729 18.062624 15.281532
16.233707 26.167818 -11.553545
25.056267 28.352016 -7.230484
25.649744 21.550053 -6.135771
35.081924 23.934978 0.857596
26.590441 42.342163 9.947253
27.756599 39.944672 9.751551
26.55802 41.011013 11.849094
24.990744 31.538469 25.816002
26.395304 31.212152 23.451984
26.140554 29.302877 25.496548
31.33634 15.379067 26.533663
32.18721 16.988773 24.547197
30.676645 33.95483 -2.428037
29.832157 34.892223 -3.563532
30.496992 31.662214 -3.477297
29.922716 29.357824 -4.388476
31.162056 28.606112 -3.270078
31.74761 25.602261 -3.006675
32.273247 27.990829 -2.074192
35.598045 25.601166 8.830927
36.451904 24.211031 7.114697
36.69521 23.369459 8.989029
37.719036 21.075163 9.308796
36.827374 22.333782 10.996354
28.701376 41.131886 4.055698
29.535343 39.652267 2.227862
30.185646 37.955517 0.484799
30.603271 36.957443 2.013422
31.69459 34.265141 1.931859
30.967407 35.927238 3.689492
30.432119 35.033619 9.133104
31.580847 33.809319 6.913429
31.795898 32.664734 8.79279
33.162876 30.221233 8.640646
31.990807 31.370298 10.710517
24.003695 37.589409 22.330412
22.68862 39.974968 22.935505
23.932426 39.516399 20.476406
24.000549 41.1427 18.502024
25.306509 38.686592 18.093269
26.628702 37.96558 15.689597
26.628475 36.387714 17.632967
29.213427 30.204437 18.953478
29.215391 31.831379 17.1441
30.586222 29.701946 16.678055
31.922529 28.927633 14.648003
31.956768 27.378263 16.48867
28.041208 23.218369 26.620659
28.433296 25.078291 24.782841
29.455662 23.080395 24.578438
33.487041 20.27401 20.473635
32.392159 22.434404 20.484482
33.889709 21.725994 18.594809
34.307655 23.049641 16.531269
35.343327 21.10425 16.538914
36.615669 20.233486 14.799624
36.223743 19.014879 16.915203
17.892742 28.661987 -10.586285
16.917854 29.112263 -11.398066
17.047232 25.554241 -10.695632
21.493464 23.340128 -7.949327
26.183228 31.098637 -6.942495
28.272305 24.051191 -5.301985
26.826921 24.562695 -6.036682
27.151794 21.078035 -5.466533
33.836128 28.922537 1.775246
34.143215 26.74966 0.519183
34.876728 26.253429 1.968316
28.843407 39.982605 5.710956
30.054192 37.441982 5.436491
29.010548 38.693619 7.476652
29.095125 37.476833 9.361247
29.154686 36.203232 11.302219
23.899567 35.754566 24.326385
25.275505 35.239658 21.913715
26.637714 34.614929 19.62747
26.528027 32.945034 21.580694
27.757915 30.790161 21.229279
29.060081 28.648096 20.795425
29.915092 19.18767 26.305815
30.499741 21.116968 24.328094
31.425591 19.088272 24.301588
32.884773 18.779787 22.455362
34.403698 18.218773 20.62895
35.760193 17.752987 18.853052
18.920471 27.893948 -9.832981
19.040581 24.4172 -9.208545
20.140493 27.474514 -9.154814
21.340458 26.886616 -8.543849
22.615452 26.073952 -7.919016
29.191162 37.714428 -3.693779
28.899818 35.463608 -4.74452
28.282009 33.133183 -5.593186
27.585581 30.469646 -6.09158
28.779995 29.75717 -5.275954
29.274269 26.623016 -4.899852
29.714304 23.465197 -4.468679
31.086224 23.111755 -3.56686
32.475849 22.755232 -2.481858
33.730434 22.179741 -1.324572
34.973698 27.363728 5.02496
35.579323 25.533493 3.570084
36.129448 24.822063 5.332055
25.860256 27.393917 27.355734
25.538952 25.393175 29.131512
26.5354 23.231735 28.855194
27.476776 21.207249 28.593082
28.378426 19.357443 28.298918
29.739634 38.807507 -1.024694
30.599052 35.994801 -1.063262
31.432573 33.247475 -1.129291
32.363743 30.345507 -0.980085
32.100056 32.542568 0.270615
32.751022 31.640266 1.77333
33.354568 30.668737 3.371721
31.368156 34.749283 5.191111
32.576122 32.296741 5.109304
33.71627 29.985693 5.169672
34.119175 28.970583 6.831814
34.443295 27.863047 8.61166
34.503075 26.915628 10.575847
24.035954 42.777607 16.53027
25.297949 41.962509 14.13533
26.53105 39.580761 13.838868
27.904617 37.132904 13.463628
29.224674 34.834663 13.20492
27.963408 34.094341 17.269646
29.378687 33.2309 15.039097
30.668861 32.489822 12.786793
32.018734 30.1747 12.628874
33.279926 28.001469 12.523939
34.569027 25.656631 12.591704
27.363726 27.242218 24.951536
28.776726 26.928774 22.803534
30.272945 26.397703 20.673859
30.947502 22.775278 22.507015
31.348289 24.436226 20.53615
31.640278 26.027943 18.553425
33.135429 25.289465 16.432346
34.44437 24.472116 14.584446
35.744198 23.462873 12.667699
36.811012 21.264696 12.920585
37.751667 19.136806 13.225969
16.025896 29.61937 -12.351117
15.517015 26.530586 -12.485919
24.020077 25.675276 -7.324283
26.460953 27.921152 -6.540779
25.395061 25.009134 -6.695793
24.165472 22.254913 -6.793735
33.211548 27.579367 -0.81033
34.054726 24.666908 -0.527078
34.859695 21.643021 -0.098147
25.940866 42.891863 11.136922
26.00258 43.591002 10.107864
25.924655 42.226288 12.087843
26.57423 41.676588 10.898173
25.940866 42.891863 11.136922
24.139093 30.828698 27.911221
24.074787 29.73601 28.776625
24.867917 30.631093 26.726689
24.26192 31.736073 27.000534
24.139093 30.828698 27.911221
32.144847 15.249125 25.58796
31.758219 14.450654 26.505619
17.622235 23.518189 -9.976714
17.149287 23.859799 -10.379143
17.52018 25.212632 -10.293202
18.076727 23.18891 -9.597517
17.622235 23.518189 -9.976714
22.272208 21.386215 -7.361147
21.598248 21.666064 -7.657502
22.167423 23.060278 -7.652973
22.916168 21.08422 -7.073909
22.272208 21.386215 -7.361147
26.640127 32.390042 -6.723209
26.033344 32.818638 -7.147325
27.919155 20.947527 -5.105818
27.712049 22.564613 -5.384259
28.479411 22.434105 -5.023544
27.332198 19.504175 -5.159956
27.919155 20.947527 -5.105818
27.765087 41.783266 6.879808
27.204534 42.387794 7.956201
28.330332 40.54159 6.738967
28.278162 41.224282 5.851797
27.765087 41.783266 6.879808
24.547327 34.577896 24.079015
23.845756 34.853436 25.222921
24.493516 33.676766 24.975552
34.374918 16.57177 21.816168
34.779781 17.283178 20.742645
33.998835 17.507365 21.702473
19.438481 29.45938 -9.83524
18.907452 29.811246 -10.183577
20.048492 29.249662 -9.496156
19.530482 27.684231 -9.493897
19.438481 29.45938 -9.83524
21.903132 28.355221 -8.529491
21.249519 28.579034 -8.845555
22.540629 27.948889 -8.217075
21.977955 26.480284 -8.231433
21.903132 28.355221 -8.529491
29.57804 37.251955 -3.047168
29.180517 38.767345 -3.071785
29.567395 38.304873 -2.425173
36.80934 23.299756 6.452699
36.988758 22.979639 7.304597
38.238882 19.411307 10.551253
38.17918 19.9159 9.542979
37.778738 20.57057 10.31707
38.276898 18.947682 11.55974
38.238882 19.411307 10.551253
24.766733 25.549182 30.235879
25.012224 26.516463 29.293308
26.221066 22.263792 29.807223
25.791458 23.326706 29.900821
26.691754 21.251549 29.676167
27.006088 22.219492 28.724138
26.221066 22.263792 29.807223
27.972611 18.412268 29.28219
27.55675 19.3723 29.403139
28.755049 18.343159 28.306424
27.972611 18.412268 29.28219
29.465762 39.82317 -0.177965
29.331739 40.20121 -0.965639
22.060226 42.220709 22.150931
22.074501 41.25108 23.119142
22.674345 40.944598 21.967294
22.07256 43.1567 21.16737
22.060226 42.220709 22.150931
22.702703 42.734919 20.006921
22.07256 43.1567 21.16737
37.970068 17.61285 14.53959
38.106537 18.149941 13.511809
37.615198 18.599715 14.25375
36.43565 17.312548 18.038334
36.148829 16.765663 18.992747
16.000357 24.64859 -11.676683
15.642012 24.829974 -12.14287
15.875361 26.349202 -12.019732
19.696109 22.426831 -8.595136
19.118749 22.672675 -8.910956
19.61794 24.171356 -8.892726
24.419098 28.767144 -7.55289
24.991177 30.052016 -7.441802
24.538172 27.013646 -7.277384
23.901003 27.428774 -7.599789
24.419098 28.767144 -7.55289
25.03594 20.126327 -6.149777
24.293804 20.478758 -6.478759
24.907608 21.902483 -6.464753
35.743555 24.551562 2.979488
36.093613 24.276212 3.78742
26.591125 43.008589 9.046339
26.00258 43.591002 10.107864
27.203849 41.721368 8.857115
27.204534 42.387794 7.956201
26.591125 43.008589 9.046339
24.391344 32.745387 25.96773
24.26192 31.736073 27.000534
25.092915 32.469848 24.823824
24.493516 33.676766 24.975552
24.391344 32.745387 25.96773
32.570282 16.053978 24.594727
31.761775 16.18392 25.54043
32.144847 15.249125 25.58796
33.273663 15.95757 23.709126
32.890591 16.892365 23.661597
32.570282 16.053978 24.594727
34.029122 15.853994 22.778651
33.273663 15.95757 23.709126
37.110411 22.558853 8.241764
36.988758 22.979639 7.304597
36.573557 23.790245 8.051863
37.207123 22.222311 9.148912
37.622324 21.411705 8.401647
37.110411 22.558853 8.241764
28.611525 41.741612 3.199349
28.157393 42.475935 4.15244
29.028509 41.001802 2.285431
28.611525 41.741612 3.199349
29.11836 40.392077 3.14178
29.363617 40.24555 1.448313
29.028509 41.001802 2.285431
29.860495 38.803892 1.35633
29.688768 39.397175 0.576781
29.363617 40.24555 1.448313
23.346158 38.782189 22.632959
22.677956 39.038357 23.86596
23.335493 37.845578 23.563413
17.405298 28.887125 -10.992176
17.380698 30.702067 -11.355436
17.868142 30.476928 -10.949545
16.73087 23.99731 -10.801738
16.324107 24.304098 -11.230695
16.64047 25.86103 -11.124588
16.73087 23.99731 -10.801738
17.149287 23.859799 -10.379143
20.94482 21.88585 -7.958706
20.295738 22.178542 -8.272495
20.844381 23.63282 -8.263116
20.94482 21.88585 -7.958706
21.598248 21.666064 -7.657502
25.554657 31.425327 -7.297808
26.033344 32.818638 -7.147325
25.619747 29.725327 -7.086489
24.991177 30.052016 -7.441802
25.554657 31.425327 -7.297808
26.54476 19.613063 -5.490054
25.793735 19.849072 -5.824673
26.400769 21.314044 -5.801152
26.54476 19.613063 -5.490054
27.332198 19.504175 -5.159956
28.207147 41.798922 5.024169
28.157393 42.475935 4.15244
28.772391 40.557246 4.883327
28.207147 41.798922 5.024169
28.278162 41.224282 5.851797
23.200257 36.066419 25.500588
23.845756 34.853436 25.222921
23.28343 36.928156 24.5614
23.200257 36.066419 25.500588
23.951631 36.671988 23.328398
23.335493 37.845578 23.563413
23.28343 36.928156 24.5614
35.458029 17.050285 19.854696
35.081946 17.98588 19.741001
34.779781 17.283178 20.742645
36.148829 16.765663 18.992747
35.458029 17.050285 19.854696
34.374918 16.57177 21.816168
34.029122 15.853994 22.778651
18.393588 30.195265 -10.560229
17.868142 30.476928 -10.949545
18.406606 28.277968 -10.209633
18.393588 30.195265 -10.560229
18.907452 29.811246 -10.183577
20.649536 28.872983 -9.151038
20.048492 29.249662 -9.496156
20.740476 27.180565 -8.849331
20.649536 28.872983 -9.151038
21.249519 28.579034 -8.845555
28.884128 39.266269 -3.66808
29.180517 38.767345 -3.071785
28.767986 38.298595 -4.269931
28.884128 39.266269 -3.66808
28.622314 37.173186 -4.795301
28.767986 38.298595 -4.269931
29.04549 36.589018 -4.21915
28.398141 35.952289 -5.253349
28.622314 37.173186 -4.795301
28.089236 34.787077 -5.677682
28.398141 35.952289 -5.253349
28.590913 34.298395 -5.168853
27.689517 33.407314 -6.048554
28.089236 34.787077 -5.677682
27.933795 31.801414 -5.842383
27.341303 32.075546 -6.297751
27.689517 33.407314 -6.048554
29.20041 22.141108 -4.606891
28.479411 22.434105 -5.023544
28.993305 23.758194 -4.885332
29.940935 21.854245 -4.190466
29.20041 22.141108 -4.606891
30.626895 21.677524 -3.739556
29.940935 21.854245 -4.190466
30.400264 23.288476 -4.017769
31.372442 21.539305 -3.27153
30.626895 21.677524 -3.739556
32.067254 21.361043 -2.729029
31.372442 21.539305 -3.27153
31.781036 22.933493 -3.024359
32.800216 21.230776 -2.183869
32.067254 21.361043 -2.729029
33.427509 20.94303 -1.605226
32.800216 21.230776 -2.183869
33.103141 22.467486 -1.903215
34.089317 20.700247 -1.013057
33.427509 20.94303 -1.605226
36.368675 23.920497 4.668405
36.093613 24.276212 3.78742
35.854385 25.177778 4.45107
36.648111 23.605272 5.561379
36.290676 24.516547 6.223376
36.80934 23.299756 6.452699
36.368675 23.920497 4.668405
36.648111 23.605272 5.561379
38.083487 20.236165 8.663213
37.622324 21.411705 8.401647
38.083487 20.236165 8.663213
38.17918 19.9159 9.542979
24.615293 28.681734 28.54624
24.074787 29.73601 28.776625
25.172877 27.516834 28.405419
25.302673 28.558817 27.496555
24.615293 28.681734 28.54624
25.699604 26.393546 28.243623
25.172877 27.516834 28.405419
25.012224 26.516463 29.293308
25.293234 24.407426 30.038979
24.766733 25.549182 30.235879
26.037176 24.312455 28.993353
25.293234 24.407426 30.038979
25.791458 23.326706 29.900821
27.105925 20.297203 29.550221
26.691754 21.251549 29.676167
27.927601 20.282346 28.446
27.105925 20.297203 29.550221
27.55675 19.3723 29.403139
29.523382 18.258273 27.309873
29.146759 19.272557 27.302366
28.755049 18.343159 28.306424
29.933971 17.352856 27.266644
30.325682 18.282253 26.262586
29.523382 18.258273 27.309873
30.288722 16.439777 27.26612
29.933971 17.352856 27.266644
30.588757 15.440891 27.423273
31.036305 16.377952 26.376511
30.288722 16.439777 27.26612
30.967507 14.534923 27.407997
30.588757 15.440891 27.423273
31.758219 14.450654 26.505619
30.967507 14.534923 27.407997
29.454753 39.313885 -1.737242
29.331739 40.20121 -0.965639
29.852276 37.798495 -1.712625
29.567395 38.304873 -2.425173
29.454753 39.313885 -1.737242
29.96264 38.381512 -0.269948
29.465762 39.82317 -0.177965
29.688768 39.397175 0.576781
22.042963 40.317671 24.096329
22.677956 39.038357 23.86596
22.042963 40.317671 24.096329
22.074501 41.25108 23.119142
23.372942 42.349155 18.758392
22.702703 42.734919 20.006921
23.330309 41.528464 19.750553
23.390645 43.166609 17.772514
23.372942 42.349155 18.758392
24.018251 41.960154 17.516147
23.427819 44.052819 16.705285
23.390645 43.166609 17.772514
24.025931 43.648058 15.55277
23.417796 44.92327 15.727784
23.427819 44.052819 16.705285
24.656928 43.240509 14.3553
24.025931 43.648058 15.55277
24.666951 42.370058 15.3328
25.294619 42.702036 13.230961
24.656928 43.240509 14.3553
25.927985 41.486761 12.992212
25.924655 42.226288 12.087843
25.294619 42.702036 13.230961
38.233511 18.483096 12.510053
38.276898 18.947682 11.55974
37.795053 19.601391 12.275657
38.233511 18.483096 12.510053
38.106537 18.149941 13.511809
36.667425 17.943494 17.069409
35.991968 18.383933 17.884128
36.43565 17.312548 18.038334
37.294918 17.467366 16.252574
36.851236 18.538752 16.098368
36.667425 17.943494 17.069409
37.842054 17.061447 15.505803
37.294918 17.467366 16.252574
37.970068 17.61285 14.53959
37.842054 17.061447 15.505803
16.876985 30.861987 -11.784023
17.380698 30.702067 -11.355436
16.431007 31.11554 -12.260549
16.876985 30.861987 -11.784023
16.471875 29.365817 -11.874592
16.016101 31.376578 -12.725793
16.431007 31.11554 -12.260549
15.690777 29.921824 -12.824196
16.016101 31.376578 -12.725793
15.436337 28.377432 -12.891597
15.690777 29.921824 -12.824196
15.771456 28.074978 -12.418518
15.214768 26.838247 -13.018019
15.13409 28.685094 -13.423697
15.436337 28.377432 -12.891597
15.345063 25.170172 -12.665616
15.214768 26.838247 -13.018019
15.345063 25.170172 -12.665616
15.642012 24.829974 -12.14287
16.000357 24.64859 -11.676683
16.324107 24.304098 -11.230695
18.600454 22.961999 -9.256403
18.076727 23.18891 -9.597517
18.516855 24.644112 -9.549659
18.600454 22.961999 -9.256403
19.118749 22.672675 -8.910956
19.696109 22.426831 -8.595136
20.295738 22.178542 -8.272495
23.198691 27.628112 -7.897156
22.540629 27.948889 -8.217075
23.317765 25.874614 -7.62165
23.198691 27.628112 -7.897156
23.901003 27.428774 -7.599789
26.884405 30.784142 -6.517038
26.640127 32.390042 -6.723209
27.341303 32.075546 -6.297751
23.578212 20.821462 -6.792467
22.916168 21.08422 -7.073909
23.503428 22.517671 -7.075176
23.578212 20.821462 -6.792467
24.293804 20.478758 -6.478759
25.03594 20.126327 -6.149777
25.793735 19.849072 -5.824673
34.653948 20.431887 -0.399844
34.089317 20.700247 -1.013057
34.295065 21.911381 -0.71136
35.392257 24.91153 2.178603
35.228026 25.893461 2.7692
35.743555 24.551562 2.979488
35.494855 23.752305 1.623244
34.979326 25.094203 1.412956
35.392257 24.91153 2.178603
35.512932 22.649838 1.127313
35.494855 23.752305 1.623244
35.401817 21.503859 0.649442
34.97081 22.789 0.379725
35.512932 22.649838 1.127313
35.225205 20.329693 0.215373
35.401817 21.503859 0.649442
34.653948 20.431887 -0.399844
35.225205 20.329693 0.215373
3 196 48 197
3 198 50 199
3 200 199 48
3 198 199 200
3 0 201 202
3 0 203 205
3 203 51 204
3 203 204 205
3 0 53 51
3 207 206 54
3 2 58 56
3 2 60 58
3 2 62 60
3 1 65 63
3 1 67 65
3 4 69 68
3 4 71 69
3 4 73 71
3 6 76 74
3 6 78 76
3 7 81 79
3 7 83 81
3 7 85 83
3 8 88 86
3 8 90 88
3 3 93 91
3 9 96 94
3 9 98 96
3 9 100 98
3 10 103 101
3 10 208 210
3 210 209 103
3 208 209 210
3 10 211 212
3 11 213 215
3 215 214 104
3 213 214 215
3 11 216 217
3 218 105 219
3 220 108 221
3 222 221 106
3 220 221 222
3 224 223 108
3 5 111 109
3 12 225 226
3 12 227 229
3 227 112 228
3 227 228 229
3 12 114 112
3 14 115 49
3 14 116 115
3 15 230 232
3 230 117 231
3 230 231 232
3 15 118 117
3 15 120 118
3 17 121 52
3 17 122 121
3 18 125 123
3 20 126 55
3 20 127 126
3 20 233 235
3 235 234 127
3 233 234 235
3 236 129 237
3 238 131 239
3 240 239 129
3 238 239 240
3 241 132 242
3 243 133 244
3 245 244 132
3 243 244 245
3 22 246 248
3 246 134 247
3 246 247 248
3 23 135 57
3 23 136 135
3 23 138 136
3 25 139 59
3 25 140 139
3 25 141 140
3 26 142 61
3 26 143 142
3 27 146 144
3 250 249 64
3 28 251 253
3 253 252 66
3 251 252 253
3 28 254 255
3 256 148 257
3 258 149 259
3 260 150 261
3 262 261 149
3 260 261 262
3 263 151 264
3 266 265 151
3 267 152 268
3 30 153 70
3 30 154 153
3 30 156 154
3 32 157 72
3 32 158 157
3 13 159 113
3 33 160 75
3 33 161 160
3 33 162 161
3 34 163 77
3 34 164 163
3 35 269 271
3 271 270 80
3 269 270 271
3 35 272 273
3 35 274 275
3 36 165 82
3 36 166 165
3 36 167 166
3 37 168 84
3 37 169 168
3 16 170 119
3 38 171 87
3 38 172 171
3 38 173 172
3 39 174 89
3 39 175 174
3 29 176 147
3 40 177 92
3 40 178 177
3 19 179 124
3 41 180 95
3 41 181 180
3 41 182 181
3 42 183 97
3 42 184 183
3 42 185 184
3 43 186 99
3 43 276 278
3 278 277 186
3 276 277 278
3 280 279 128
3 44 187 102
3 44 188 187
3 44 281 283
3 283 282 188
3 281 282 283
3 21 284 286
3 286 285 130
3 284 285 286
3 45 287 288
3 45 289 291
3 289 189 290
3 289 290 291
3 24 190 137
3 46 191 107
3 46 192 191
3 46 292 294
3 294 293 192
3 292 293 294
3 31 193 155
3 47 194 110
3 47 195 194
3 296 295 145
3 48 297 298
3 48 299 301
3 299 12 300
3 299 300 301
3 48 49 12
3 50 49 48
3 50 14 49
3 51 302 303
3 51 304 306
3 304 15 305
3 304 305 306
3 51 52 15
3 53 52 51
3 53 17 52
3 54 55 18
3 307 55 308
3 309 308 54
3 307 308 309
3 310 20 311
3 312 311 55
3 310 311 312
3 314 313 20
3 56 57 22
3 58 57 56
3 58 23 57
3 58 59 23
3 60 59 58
3 60 25 59
3 60 61 25
3 62 61 60
3 62 26 61
3 63 64 27
3 65 64 63
3 65 315 317
3 317 316 64
3 315 316 317
3 65 318 320
3 318 66 319
3 318 319 320
3 67 66 65
3 67 28 66
3 68 321 322
3 69 323 325
3 325 324 68
3 323 324 325
3 69 326 327
3 69 328 330
3 328 70 329
3 328 329 330
3 71 70 69
3 71 30 70
3 71 72 30
3 73 72 71
3 73 32 72
3 74 75 13
3 76 75 74
3 76 33 75
3 76 77 33
3 78 77 76
3 78 34 77
3 79 331 333
3 331 80 332
3 331 332 333
3 81 80 79
3 81 35 80
3 81 82 35
3 83 82 81
3 83 36 82
3 83 84 36
3 85 84 83
3 85 37 84
3 86 87 16
3 88 87 86
3 88 38 87
3 88 89 38
3 90 89 88
3 90 39 89
3 91 92 29
3 93 92 91
3 93 40 92
3 94 95 19
3 96 95 94
3 96 41 95
3 96 97 41
3 98 97 96
3 98 42 97
3 98 99 42
3 100 99 98
3 100 43 99
3 101 334 336
3 334 102 335
3 334 335 336
3 103 102 101
3 103 44 102
3 103 337 339
3 339 338 44
3 337 338 339
3 341 340 103
3 104 342 344
3 344 343 21
3 342 343 344
3 346 345 104
3 105 347 348
3 105 349 351
3 349 45 350
3 349 350 351
3 106 107 24
3 108 107 106
3 108 46 107
3 108 352 354
3 354 353 46
3 352 353 354
3 356 355 108
3 109 110 31
3 111 110 109
3 111 47 110
3 357 68 358
3 112 359 361
3 359 68 360
3 359 360 361
3 112 4 68
3 112 113 4
3 114 113 112
3 114 13 113
3 49 114 12
3 115 114 49
3 115 13 114
3 115 74 13
3 116 74 115
3 116 6 74
3 117 362 363
3 117 364 365
3 117 366 368
3 366 79 367
3 366 367 368
3 118 79 117
3 118 7 79
3 118 119 7
3 120 119 118
3 120 16 119
3 52 120 15
3 121 120 52
3 121 16 120
3 121 86 16
3 122 86 121
3 122 8 86
3 123 124 3
3 125 124 123
3 125 19 124
3 55 125 18
3 126 125 55
3 126 19 125
3 126 94 19
3 127 94 126
3 127 9 94
3 127 128 9
3 369 128 370
3 371 370 127
3 369 370 371
3 373 372 128
3 375 374 20
3 376 101 377
3 129 378 380
3 378 101 379
3 378 379 380
3 129 10 101
3 129 130 10
3 131 130 129
3 131 21 130
3 381 131 382
3 132 383 385
3 383 131 384
3 383 384 385
3 132 21 131
3 132 104 21
3 133 104 132
3 133 11 104
3 134 386 387
3 134 388 389
3 57 134 22
3 135 134 57
3 135 390 392
3 392 391 134
3 390 391 392
3 135 393 394
3 136 395 397
3 397 396 135
3 395 396 397
3 136 398 399
3 136 400 402
3 400 137 401
3 400 401 402
3 138 137 136
3 138 24 137
3 59 138 23
3 139 138 59
3 139 24 138
3 139 106 24
3 140 106 139
3 140 403 405
3 405 404 106
3 403 404 405
3 140 406 407
3 141 408 410
3 410 409 140
3 408 409 410
3 141 411 412
3 61 141 25
3 142 141 61
3 142 413 415
3 415 414 141
3 413 414 415
3 142 416 417
3 143 418 420
3 420 419 142
3 418 419 420
3 143 421 422
3 144 145 5
3 146 145 144
3 146 423 425
3 425 424 145
3 423 424 425
3 64 146 27
3 426 146 427
3 428 427 64
3 426 427 428
3 430 429 146
3 66 431 432
3 434 433 66
3 435 0 436
3 437 147 438
3 439 438 0
3 437 438 439
3 148 440 442
3 440 147 441
3 440 441 442
3 148 29 147
3 443 148 444
3 149 445 447
3 445 148 446
3 445 446 447
3 149 29 148
3 149 91 29
3 150 91 149
3 150 3 91
3 448 150 449
3 151 450 452
3 450 150 451
3 450 451 452
3 151 3 150
3 151 123 3
3 453 123 454
3 455 454 151
3 453 454 455
3 456 18 457
3 458 457 123
3 456 457 458
3 459 18 460
3 461 54 462
3 463 462 18
3 461 462 463
3 464 54 465
3 467 466 54
3 152 468 469
3 152 470 472
3 470 22 471
3 470 471 472
3 70 473 475
3 473 152 474
3 473 474 475
3 153 152 70
3 153 22 152
3 153 56 22
3 154 56 153
3 154 2 56
3 154 155 2
3 156 155 154
3 156 31 155
3 72 156 30
3 157 156 72
3 157 31 156
3 157 109 31
3 158 109 157
3 158 5 109
3 113 73 4
3 159 73 113
3 159 32 73
3 75 159 13
3 160 159 75
3 160 32 159
3 160 158 32
3 161 158 160
3 161 5 158
3 161 144 5
3 162 144 161
3 162 27 144
3 77 162 33
3 163 162 77
3 163 27 162
3 163 63 27
3 164 63 163
3 164 1 63
3 80 476 477
3 479 478 80
3 82 480 482
3 482 481 35
3 480 481 482
3 165 483 485
3 485 484 82
3 483 484 485
3 165 486 487
3 165 488 490
3 488 489 490
3 166 491 493
3 493 492 165
3 491 492 493
3 166 494 495
3 166 496 498
3 496 50 497
3 496 497 498
3 167 50 166
3 167 14 50
3 84 167 36
3 168 167 84
3 168 14 167
3 168 116 14
3 169 116 168
3 169 6 116
3 119 85 7
3 170 85 119
3 170 37 85
3 87 170 16
3 171 170 87
3 171 37 170
3 171 169 37
3 172 169 171
3 172 6 169
3 172 78 6
3 173 78 172
3 173 34 78
3 89 173 38
3 174 173 89
3 174 34 173
3 174 164 34
3 175 164 174
3 175 1 164
3 147 53 0
3 176 53 147
3 176 17 53
3 92 176 29
3 177 176 92
3 177 17 176
3 177 122 17
3 178 122 177
3 178 8 122
3 124 93 3
3 179 93 124
3 179 40 93
3 95 179 19
3 180 179 95
3 180 40 179
3 180 178 40
3 181 178 180
3 181 8 178
3 181 90 8
3 182 90 181
3 182 39 90
3 97 182 41
3 183 182 97
3 183 39 182
3 183 175 39
3 184 175 183
3 184 1 175
3 184 67 1
3 185 67 184
3 185 28 67
3 99 185 42
3 186 185 99
3 186 28 185
3 186 499 501
3 501 500 28
3 499 500 501
3 503 502 186
3 128 100 9
3 504 100 505
3 506 505 128
3 504 505 506
3 507 43 508
3 509 508 100
3 507 508 509
3 510 43 511
3 513 512 43
3 102 514 515
3 187 516 518
3 518 517 102
3 516 517 518
3 187 519 520
3 187 521 522
3 188 523 525
3 525 524 187
3 523 524 525
3 188 526 528
3 526 527 528
3 188 529 530
3 532 531 188
3 534 533 44
3 130 535 537
3 537 536 10
3 535 536 537
3 539 538 130
3 541 540 21
3 542 133 543
3 189 544 546
3 544 133 545
3 544 545 546
3 189 11 133
3 137 547 549
3 547 105 548
3 547 548 549
3 190 105 137
3 190 45 105
3 107 190 24
3 191 190 107
3 191 45 190
3 191 189 45
3 192 189 191
3 192 11 189
3 192 550 552
3 552 551 11
3 550 551 552
3 554 553 192
3 556 555 46
3 155 62 2
3 193 62 155
3 193 26 62
3 110 193 31
3 194 193 110
3 194 26 193
3 194 143 26
3 195 143 194
3 195 557 559
3 559 558 143
3 557 558 559
3 145 111 5
3 560 111 561
3 562 561 145
3 560 561 562
3 563 47 564
3 565 564 111
3 563 564 565
3 566 47 567
3 568 195 569
3 570 569 47
3 568 569 570
3 571 195 572
3 574 573 195
