ply
format ascii 1.0
element vertex 845
property float x
property float y
property float z
element face 1050
property list uchar int vertex_index
end_header
16.432404 -64.17524 54.93803
27.714834 -72.507332 22.778091
24.286526 -71.609108 42.028896
11.678028 -75.885155 35.820042
24.940538 -52.997837 59.136059
4.670106 -58.680721 49.567585
20.49147 -68.245033 49.833622
18.380379 -75.978767 39.37735
14.339238 -69.500122 46.93486
20.732758 -60.03981 58.181152
25.263338 -62.508976 51.216633
2.110692 -64.498116 39.853569
27.412006 -70.543121 13.062035
28.724304 -63.149235 31.996122
28.832853 -61.562199 21.985123
26.680336 -73.189728 32.563766
22.234663 -80.497627 31.315216
27.834448 -53.673588 50.338791
27.722185 -63.710159 41.981747
14.69006 -56.870785 60.655956
10.890731 -62.018345 53.351788
7.936269 -53.129108 58.811436
8.055037 -67.669212 43.143166
5.486824 -73.89801 32.404224
18.26668 -66.259018 52.76046
17.45923 -69.539162 48.370213
15.568207 -66.695 51.522911
18.413855 -62.53651 56.683956
20.879425 -64.223534 54.285172
-2.084158 -58.167946 41.223392
-4.728964 -56.80302 39.593399
27.743368 -71.547562 17.988255
28.257017 -68.030876 27.363279
28.862461 -62.504292 26.923777
28.324148 -67.326286 22.463676
28.166286 -66.154556 17.680223
25.681789 -72.774918 37.222168
24.846321 -77.120102 32.403664
23.304192 -76.120277 36.762051
14.918705 -76.318474 37.641666
17.161051 -79.616432 33.89843
13.787008 -79.894897 31.921806
26.675606 -53.468975 55.069038
24.913929 -67.165825 46.775677
26.739248 -63.246151 46.769405
26.33005 -68.156731 42.116184
27.339298 -68.443413 37.334591
7.756983 -60.571022 51.49498
9.367559 -64.854622 48.350254
6.32924 -63.176182 46.669785
3.744562 -69.108902 36.384705
28.732792 -48.110203 44.358139
22.479637 -70.25695 46.032742
21.540104 -74.38279 40.961971
19.529839 -72.156036 44.837795
16.365402 -72.94574 43.211971
13.018601 -72.568825 41.593388
23.130701 -56.867283 58.88142
25.266077 -57.632584 55.438908
23.352598 -61.472198 54.973217
23.075033 -65.933945 50.74984
1.742105 -56.81662 47.408707
3.302722 -61.310558 44.841393
0.618425 -59.817719 42.918186
-0.614758 -62.902882 38.594528
28.945072 -58.312206 36.407356
29.167225 -57.76825 31.349592
29.288984 -56.790134 26.33618
27.376463 -72.999916 27.772379
26.784288 -77.556808 22.937258
25.959841 -77.775291 27.685669
23.997551 -81.664444 27.09391
20.451853 -78.329552 35.679592
19.365253 -82.404976 29.99732
28.305798 -48.627792 49.285706
28.522139 -53.71851 45.426003
26.859201 -58.316387 51.048435
27.921341 -58.594204 46.291359
28.561804 -58.557541 41.407265
28.339329 -63.708008 37.095585
27.90407 -68.599739 32.416153
15.808282 -61.018963 57.704586
13.999671 -63.363956 54.51091
12.607941 -59.595135 57.257446
9.450603 -57.788517 56.233891
6.109036 -55.930386 54.278427
4.639749 -51.139187 56.734016
3.098417 -54.001369 52.121067
22.51951 -52.224876 62.370819
20.245985 -55.642456 61.58358
17.933725 -58.641098 59.942913
12.589016 -66.023926 50.214123
11.08876 -68.795135 45.039532
9.842236 -71.69191 39.76606
5.085143 -66.146446 41.46019
6.773019 -70.696617 37.716133
8.52766 -75.002335 34.021393
7.240499 -78.642372 28.189003
17.264593 -65.134422 54.037521
16.93854 -66.6231 52.15398
16.047138 -65.34108 53.452461
17.324144 -63.55529 55.722572
18.419367 -64.451363 54.798214
-4.090697 -55.110725 41.373875
27.785528 -71.940094 20.470724
27.493624 -74.128632 18.1068
27.446394 -74.593628 20.561893
27.981812 -70.340004 25.131062
28.316702 -67.740898 24.874815
28.043243 -69.969566 22.731548
28.053967 -69.338737 20.323252
24.98608 -72.391205 39.579639
24.620121 -74.522942 37.075699
23.840202 -73.913193 39.363663
13.341187 -76.092697 36.894279
14.317424 -78.078178 34.784927
12.72064 -77.894867 33.921165
12.068871 -79.752792 30.897408
11.107236 -77.680634 32.892879
26.529091 -51.052658 56.913658
25.85898 -53.222546 57.293301
24.619848 -69.472687 44.394302
25.682417 -67.605728 44.621712
25.395712 -69.962967 42.175507
25.963625 -70.566513 39.805344
6.249022 -59.585224 50.688816
7.020667 -61.802212 49.184559
5.474431 -60.95731 48.140423
28.873472 -50.678719 42.333374
21.499338 -69.273994 48.020172
21.068401 -71.452019 45.356308
20.093483 -70.175491 47.450195
15.968526 -69.638184 47.714577
16.92461 -71.166138 45.949745
15.250311 -71.227173 45.09457
14.740462 -72.998413 42.264549
13.71288 -71.06459 44.274975
21.966784 -58.542141 58.626263
23.217649 -59.22274 57.023659
22.072147 -60.767433 56.760094
20.724804 -66.310394 52.079693
21.982157 -65.084045 52.669312
21.855293 -67.177055 50.388916
22.942799 -68.058113 48.398029
0.332965 -55.727257 46.466721
1.117296 -58.229454 45.134766
-0.213718 -57.454926 44.106083
-2.765731 -59.795334 39.222961
-1.425658 -60.524986 39.922115
27.141903 -69.89386 10.633625
26.762018 -71.943413 8.196752
27.071428 -72.614098 10.744187
28.852219 -60.89566 34.204121
29.07366 -58.034328 33.895462
28.967436 -60.585323 31.697472
28.85973 -62.139477 24.461693
29.092655 -59.618111 26.779736
29.082445 -59.394901 24.278992
29.082375 -58.719154 21.919432
28.782576 -60.883495 19.707829
27.807405 -68.159996 15.377547
27.989412 -65.488487 15.223612
27.575174 -67.670181 13.002362
27.068974 -73.195366 30.126804
26.749966 -75.398102 27.850327
26.314598 -75.529846 30.098759
23.622629 -78.937874 31.950346
24.382702 -79.352196 29.897579
23.193382 -81.093323 29.289858
20.007986 -75.383087 40.143154
21.050337 -76.41555 38.251579
19.411304 -77.254799 37.500988
16.502794 -81.543114 30.968794
18.221245 -81.100464 31.941833
27.691601 -51.300526 52.415611
28.116327 -51.116455 49.950459
28.437021 -51.091862 47.335972
28.23024 -53.651379 47.885414
25.290047 -60.084316 53.397079
26.130737 -58.063416 53.280041
26.147215 -60.467514 51.206535
27.31741 -63.403099 44.397038
27.384182 -61.020126 46.663071
27.857027 -61.14856 44.174286
28.27607 -58.772209 43.767483
28.204493 -61.189163 41.786865
28.485855 -61.071999 39.345081
28.069023 -63.679211 39.660591
26.966612 -70.948082 35.125805
27.655256 -68.541573 34.95528
27.345997 -70.974586 32.607273
27.648724 -70.791229 30.143713
15.191581 -59.05788 59.138313
14.2494 -60.401413 57.55938
13.651821 -58.328087 59.024517
10.261029 -56.52042 58.141308
8.594851 -55.561333 57.419716
7.733644 -56.962761 55.202408
7.04935 -54.631176 56.600178
3.101084 -50.193905 55.519745
3.814339 -52.649036 54.36977
2.332708 -51.599873 53.243702
1.615778 -52.943901 50.96701
21.452549 -53.981216 62.059902
19.907444 -53.36729 63.115276
17.487728 -56.498398 61.49004
16.266991 -57.788757 60.432243
16.794348 -59.87973 58.900528
12.518379 -62.868801 53.909702
13.263254 -64.692093 52.444378
11.656575 -64.066681 51.764019
8.645674 -66.158691 45.828033
10.281526 -66.836487 46.824024
9.557757 -68.330299 44.011551
10.402909 -70.244057 42.33353
8.865372 -69.725021 41.353081
2.771521 -63.023186 42.259857
4.172067 -63.763878 43.177143
3.632219 -65.37075 40.632786
4.599687 -71.522408 34.388474
5.207861 -69.812035 37.094978
6.054552 -72.096024 35.174061
7.600712 -72.810463 35.902248
6.952146 -74.357109 33.271484
7.788525 -76.704086 31.126209
6.260625 -76.21743 30.309311
26.155169 -79.989098 22.830153
19.390842 -67.320381 51.327785
18.946566 -69.052246 49.145981
18.015371 -67.901855 50.668999
16.508627 -68.136482 50.012142
15.032201 -68.12838 49.296638
19.560932 -61.464592 57.424484
20.854696 -62.185196 56.274212
19.637228 -63.53833 55.484417
19.628933 -65.452568 53.474083
-1.50993 -56.536327 43.264156
-2.843528 -55.789146 42.267876
-3.402325 -57.54533 40.336868
27.634056 -70.922333 15.590124
27.299255 -73.083023 13.181357
27.424364 -73.741058 15.487224
28.519361 -65.556999 29.764923
28.821426 -62.820694 29.415474
28.595884 -65.25531 27.115742
28.603825 -65.007935 24.64439
28.593557 -64.380913 22.230312
28.523876 -63.799145 19.839268
28.305191 -66.529747 20.197311
27.970797 -68.749069 17.833529
26.216026 -73.050072 34.946735
25.837784 -75.322212 32.457912
25.283312 -74.965332 34.796513
24.102518 -76.695366 34.647915
22.777054 -78.32428 34.038589
16.623911 -76.289703 38.514732
17.624338 -77.770927 36.66296
15.998035 -78.027756 35.760777
15.524218 -79.856697 32.955212
27.183386 -51.332848 54.635117
27.340254 -53.767235 52.594093
25.136112 -64.995247 48.858097
26.044601 -62.837547 49.178532
25.925777 -65.232697 46.876442
26.5767 -65.673866 44.510601
27.1105 -65.857735 42.277912
27.523054 -66.164787 39.803696
26.872868 -68.354156 39.825356
26.580921 -70.578445 37.601952
13.075321 -56.085518 60.495441
9.293464 -61.419674 52.339397
10.12611 -63.479935 50.888546
8.551419 -62.700169 50.018517
7.75123 -63.836823 47.671803
7.156419 -65.432716 44.935837
1.543501 -66.141716 37.482212
3.001542 -66.879715 38.178204
23.402464 -71.019966 44.078362
23.003269 -73.071487 41.651382
22.068514 -72.326141 43.549217
20.639816 -73.387001 42.828854
19.025797 -74.057648 42.17675
18.578142 -70.755157 46.833214
17.944468 -72.61573 44.157188
17.364433 -74.536026 41.278133
15.643588 -74.705345 40.351604
13.927128 -74.4627 39.624069
12.353611 -74.160782 38.796143
24.008158 -54.960102 59.213253
25.139433 -55.258514 57.361847
24.282928 -57.302963 57.233517
24.319942 -59.612141 55.377415
24.333054 -62.077751 53.175335
22.10701 -62.89838 54.802792
23.212736 -63.726753 52.963909
24.282867 -64.320137 51.003143
24.086519 -66.501152 48.881466
23.839714 -68.788689 46.452255
3.18239 -57.685677 48.557384
3.956151 -59.93346 47.234764
2.47939 -59.019939 46.189068
1.994005 -60.643177 43.838779
1.307463 -62.014061 41.552662
-0.722458 -59.141491 41.924492
-0.057124 -61.35656 40.627605
0.738224 -63.701683 39.190033
29.061798 -59.94986 29.170074
29.250128 -57.08886 28.844936
28.384418 -63.342419 17.405649
27.595676 -72.758392 25.239506
27.31609 -74.929398 23.018444
27.087708 -75.25589 25.297344
26.457298 -77.631538 25.329838
25.709627 -79.851471 25.177261
25.429712 -77.6147 29.949814
25.047709 -79.884171 27.388542
22.469343 -75.261581 38.976089
21.937334 -77.447205 36.16058
21.314936 -79.518303 33.498306
18.804428 -79.036453 34.941174
19.790344 -80.33165 32.937149
20.821154 -81.620491 30.664577
28.541145 -48.365376 46.850014
28.682125 -50.824818 44.815487
28.753481 -53.50156 43.062057
26.053839 -55.729103 55.20673
26.820015 -55.906693 53.004513
27.420404 -56.132057 50.681976
26.850355 -60.667114 49.017159
27.415514 -58.489223 48.866985
27.894262 -56.205181 48.361614
28.269634 -56.289055 45.915871
28.556826 -56.223564 43.506905
28.800938 -55.918354 40.967556
28.775084 -58.513683 38.91497
28.698582 -61.082005 36.640793
28.559927 -63.558174 34.442791
27.908291 -66.057983 37.328983
28.177523 -66.064812 34.689548
28.358829 -65.974945 32.282394
28.138306 -68.24939 29.836685
27.832354 -70.742462 27.602472
16.115211 -62.805408 56.189976
15.380139 -63.893032 54.7812
14.845807 -62.223171 56.192638
13.309369 -61.588451 55.857857
11.784833 -60.859032 55.394093
12.01999 -57.417652 58.75827
11.031136 -58.772213 56.772446
10.07387 -59.977947 54.697021
8.48388 -59.154308 53.855518
6.888089 -58.23254 52.933582
5.359908 -57.2393 52.008415
6.324593 -52.149757 57.898441
5.374015 -53.529408 55.601074
4.50279 -54.914963 53.184757
3.876505 -56.354721 50.897739
2.391811 -55.327087 49.8186
1.022139 -54.418518 48.699615
24.75124 -50.542702 60.851288
23.853519 -52.606361 60.855217
22.829082 -54.565102 60.703091
21.808355 -56.215614 60.403908
20.62011 -57.74712 59.989334
19.060244 -57.195728 60.870457
19.409729 -59.276123 59.261234
18.171904 -60.679729 58.321301
17.11524 -61.874371 57.26236
14.734464 -65.157585 52.960621
14.129432 -66.584511 50.753635
13.439178 -67.919281 48.436275
11.020004 -65.436592 49.43721
11.862854 -67.322723 47.822891
12.652705 -69.209808 45.982849
12.085433 -70.710449 43.371273
11.368999 -72.230507 40.577988
10.763442 -73.831932 37.784592
4.778052 -62.343323 45.623634
5.631723 -64.57196 44.077896
6.485581 -66.804276 42.358986
4.461299 -67.553093 39.012798
5.88597 -68.384827 39.638493
7.309548 -68.989166 40.53371
8.262441 -71.149246 38.782673
9.144264 -73.275574 36.910271
10.078845 -75.419998 34.984585
9.461475 -77.225548 32.022507
8.871815 -79.019836 29.159241
5.616795 -77.96032 27.632008
27.045923 -77.154572 20.677631
25.399759 -53.110191 58.21468
25.782958 -52.03092 58.147452
25.323737 -51.918565 59.068831
28.955512 -50.613118 41.067253
28.908968 -51.984484 41.445825
-0.578908 -56.20785 44.742647
0.059624 -56.591092 45.286402
-0.305566 -55.344015 45.922966
-2.347622 -61.007984 38.605638
-3.026216 -60.662201 38.323471
22.080075 -81.486007 29.978918
22.559434 -81.783856 28.966239
22.714022 -80.795475 30.302537
17.078879 -82.337475 29.971312
16.242167 -82.540127 29.47608
8.26556 -54.34522 58.115576
9.106205 -54.90106 58.449463
8.776915 -53.684948 59.145323
2.369287 -49.707981 54.902386
2.735722 -48.953884 56.011347
1.985099 -50.410965 53.764364
2.716896 -50.896889 54.381723
2.369287 -49.707981 54.902386
1.560053 -51.080782 52.565401
1.985099 -50.410965 53.764364
19.708945 -52.0988 63.889273
20.475613 -52.498783 63.384208
15.478525 -57.329771 60.5441
16.079442 -56.649056 61.204006
15.290976 -56.190069 61.315863
26.055822 -81.037353 21.597618
25.790467 -81.010166 22.80086
-3.23448 -54.495041 42.7731
-2.561406 -54.979321 43.261464
-4.384305 -57.996696 39.074814
-3.720985 -58.367851 39.446549
-4.065645 -57.174175 39.965134
27.366698 -75.191742 16.872001
27.338757 -75.487946 18.132521
14.331163 -80.820171 30.961189
15.199768 -80.801071 31.477892
14.655613 -79.875797 32.438509
13.479427 -80.768929 30.527513
14.331163 -80.820171 30.961189
11.756542 -80.707923 29.378746
11.29744 -79.619331 30.448132
1.949095 -67.295177 36.619024
1.239181 -66.955509 36.339678
28.739263 -46.738905 43.965807
28.657732 -46.914372 45.241604
-0.245063 -64.134867 37.758821
0.431428 -64.534267 38.056574
0.061733 -63.302283 38.89228
26.627719 -72.847015 7.086714
26.785177 -73.229699 8.304434
27.164504 -74.180999 11.964223
27.234068 -74.443623 13.10692
29.032337 -56.955362 36.12235
28.962282 -57.051386 37.403732
29.199231 -56.517376 32.352582
29.152448 -56.650415 33.625517
29.120442 -57.901289 32.622527
29.242413 -56.287543 31.238618
29.199231 -56.517376 32.352582
29.347062 -55.555076 27.402938
29.327634 -55.704439 28.657316
29.269556 -56.939497 27.590558
29.384462 -55.318272 26.236906
29.347062 -55.555076 27.402938
28.09046 -64.113661 15.032964
27.859046 -65.216999 13.943137
24.372758 -81.843311 25.978777
24.897837 -80.953175 26.126093
24.52263 -80.774307 27.241226
23.8709 -82.723557 25.727283
24.372758 -81.843311 25.978777
19.889741 -82.992218 28.985176
20.617692 -82.599975 29.318804
20.093204 -82.012733 30.330948
28.2394 -47.44879 50.117605
28.146024 -48.730482 50.525745
28.348543 -47.270679 48.975302
28.2394 -47.44879 50.117605
28.423471 -48.496584 48.06786
28.466217 -47.139471 47.757456
28.348543 -47.270679 48.975302
11.672803 -56.305938 59.414635
12.547656 -56.751585 59.626856
12.200468 -55.639871 60.28322
5.06305 -50.397949 57.809253
4.255033 -49.884456 57.238504
5.482171 -51.644472 57.316228
5.905472 -50.903234 58.391466
5.06305 -50.397949 57.809253
0.573745 -53.17799 49.178459
1.318958 -53.681209 49.833313
0.870565 -52.440681 50.312157
0.32686 -53.924591 48.13512
0.573745 -53.17799 49.178459
24.604106 -49.364376 61.687614
25.131842 -49.527216 60.744032
23.04658 -51.252234 62.429334
22.407445 -51.00424 63.129986
23.186515 -52.415619 61.613018
23.713584 -51.442976 61.671534
23.04658 -51.252234 62.429334
7.68274 -79.761699 27.163588
8.498398 -79.950432 27.648708
8.056157 -78.831104 28.674122
4.834614 -77.702877 27.309286
5.195853 -76.733529 28.735827
-4.47588 -53.904758 41.760239
-3.858064 -54.15583 42.326099
-4.790094 -54.67511 40.937282
-4.47588 -53.904758 41.760239
-5.109228 -55.521257 40.047044
-4.40983 -55.956873 40.483637
-4.790094 -54.67511 40.937282
27.315143 -75.720444 19.360068
27.338757 -75.487946 18.132521
27.470009 -74.36113 19.334347
10.816623 -78.583252 31.445868
11.29744 -79.619331 30.448132
11.588054 -78.716713 31.895143
26.118013 -50.945976 57.95763
26.447437 -49.928972 57.730793
26.194035 -52.137602 57.103479
26.118013 -50.945976 57.95763
25.782958 -52.03092 58.147452
28.888013 -49.27881 42.073841
28.817673 -47.994552 43.086224
28.803132 -49.394461 43.345757
28.888013 -49.27881 42.073841
28.955512 -50.613118 41.067253
-1.677586 -61.37281 38.955215
-2.095695 -60.16016 39.572538
-2.347622 -61.007984 38.605638
-1.272136 -62.561758 38.291422
-1.020208 -61.713934 39.258321
-1.677586 -61.37281 38.955215
-0.948922 -63.750441 37.517995
-1.272136 -62.561758 38.291422
26.95196 -70.918637 9.415188
26.795358 -70.553116 8.260351
26.985301 -69.52834 9.478787
26.939882 -73.565041 9.578152
26.785177 -73.229699 8.304434
26.916723 -72.278756 9.47047
29.198353 -57.899465 24.180502
29.301623 -56.597082 25.209096
29.185714 -58.092517 25.307586
29.198318 -57.561592 23.000722
29.198353 -57.899465 24.180502
29.08241 -59.057028 23.099212
29.220681 -57.168243 21.803953
29.198318 -57.561592 23.000722
29.070206 -58.370359 20.754822
29.220681 -57.168243 21.803953
28.920306 -59.452529 19.64902
29.070206 -58.370359 20.754822
28.932475 -59.801325 20.813631
28.718972 -60.657011 18.468975
28.920306 -59.452529 19.64902
27.651927 -66.307846 12.832512
27.859046 -65.216999 13.943137
27.782293 -66.579334 14.112987
27.4238 -67.384807 11.766653
27.651927 -66.307846 12.832512
27.207165 -68.496647 10.582285
27.4238 -67.384807 11.766653
27.358539 -68.782021 11.817994
26.985301 -69.52834 9.478787
27.207165 -68.496647 10.582285
22.991064 -82.226204 27.8533
23.393149 -82.511764 26.755326
23.595467 -81.378884 28.191884
22.991064 -82.226204 27.8533
22.559434 -81.783856 28.966239
17.938105 -82.11615 30.457832
17.36202 -81.321789 31.455313
17.078879 -82.337475 29.971312
18.510109 -82.768406 29.485575
18.793249 -81.75272 30.969576
17.938105 -82.11615 30.457832
19.118283 -83.416401 28.566255
18.510109 -82.768406 29.485575
27.838925 -50.066849 52.090698
27.62979 -50.089291 53.293293
28.051288 -49.974813 50.858122
27.838925 -50.066849 52.090698
27.903964 -51.20849 51.183035
28.211062 -49.872124 49.618082
28.146024 -48.730482 50.525745
28.051288 -49.974813 50.858122
9.939294 -55.380604 58.810259
10.793323 -55.857323 59.106154
9.42794 -56.040876 57.780512
9.939294 -55.380604 58.810259
9.106205 -54.90106 58.449463
3.485701 -49.411816 56.631369
2.735722 -48.953884 56.011347
3.870417 -50.666546 56.12688
4.255033 -49.884456 57.238504
3.485701 -49.411816 56.631369
1.201588 -51.752796 51.427055
1.974243 -52.271887 52.105356
1.560053 -51.080782 52.565401
0.870565 -52.440681 50.312157
1.201588 -51.752796 51.427055
21.781645 -51.927576 63.01198
22.407445 -51.00424 63.129986
21.248165 -52.805746 62.856521
21.98603 -53.103046 62.215361
21.781645 -51.927576 63.01198
20.679997 -53.674253 62.587589
21.248165 -52.805746 62.856521
20.475613 -52.498783 63.384208
16.68981 -56.003876 61.732905
17.284973 -55.333912 62.24441
16.87736 -57.143577 60.961141
16.68981 -56.003876 61.732905
16.079442 -56.649056 61.204006
26.363014 -79.800945 21.727601
26.677574 -78.584801 21.781153
26.469729 -78.772953 22.883705
26.363014 -79.800945 21.727601
26.055822 -81.037353 21.597618
-1.894607 -55.352911 43.759603
-1.227014 -55.74855 44.321683
-2.176729 -56.162737 42.766016
-1.894607 -55.352911 43.759603
-2.561406 -54.979321 43.261464
-3.467112 -55.449936 41.820875
-3.23448 -54.495041 42.7731
-3.858064 -54.15583 42.326099
-3.402688 -59.492853 38.889595
-3.084028 -58.670332 39.779915
-3.720985 -58.367851 39.446549
-3.026216 -60.662201 38.323471
-3.402688 -59.492853 38.889595
27.296622 -74.77264 14.259853
27.234068 -74.443623 13.10692
27.361809 -73.41204 14.33429
27.332068 -74.997955 15.562213
27.458994 -73.934845 16.797012
27.366698 -75.191742 16.872001
27.296622 -74.77264 14.259853
27.332068 -74.997955 15.562213
15.689056 -81.64428 30.484683
16.013506 -80.699905 31.962003
15.199768 -80.801071 31.477892
16.242167 -82.540127 29.47608
15.689056 -81.64428 30.484683
12.620359 -80.697876 30.015314
13.479427 -80.768929 30.527513
12.92794 -79.823845 31.409607
12.620359 -80.697876 30.015314
11.756542 -80.707923 29.378746
26.793911 -49.913099 56.65563
26.447437 -49.928972 57.730793
27.121059 -50.053194 55.51636
26.793911 -49.913099 56.65563
26.856238 -51.192753 55.774388
27.375683 -50.105452 54.403046
27.121059 -50.053194 55.51636
27.437493 -51.316687 53.525364
27.62979 -50.089291 53.293293
27.375683 -50.105452 54.403046
13.592948 -55.31123 61.296322
13.882691 -56.478151 60.575699
14.400317 -55.703863 61.376579
12.740716 -54.922324 61.155682
13.592948 -55.31123 61.296322
12.200468 -55.639871 60.28322
12.740716 -54.922324 61.155682
8.464793 -52.515537 59.763461
8.776915 -53.684948 59.145323
14.400317 -55.703863 61.376579
15.290976 -56.190069 61.315863
2.678116 -67.664177 36.96702
2.272521 -66.510716 37.830208
1.949095 -67.295177 36.619024
3.049626 -68.778771 36.07027
3.373052 -67.994309 37.281454
2.678116 -67.664177 36.96702
3.440399 -69.98616 35.074137
3.049626 -68.778771 36.07027
3.867962 -71.192914 34.076021
4.172125 -70.315655 35.386589
3.440399 -69.98616 35.074137
4.260116 -72.34507 33.106987
3.867962 -71.192914 34.076021
4.703685 -73.532871 32.114862
5.043256 -72.710209 33.396349
4.260116 -72.34507 33.106987
5.130868 -74.702373 31.121935
4.703685 -73.532871 32.114862
28.739263 -46.738905 43.965807
28.817673 -47.994552 43.086224
-0.861824 -56.995627 43.685119
-0.578908 -56.20785 44.742647
-1.227014 -55.74855 44.321683
0.834067 -65.754284 37.202663
1.140862 -64.9217 38.336123
0.431428 -64.534267 38.056574
1.239181 -66.955509 36.339678
0.834067 -65.754284 37.202663
-0.245063 -64.134867 37.758821
-0.948922 -63.750441 37.517995
26.585968 -71.501889 7.020601
26.795358 -70.553116 8.260351
26.585968 -71.501889 7.020601
26.627719 -72.847015 7.086714
27.05059 -73.946537 10.745638
27.185341 -72.84856 11.962772
27.164504 -74.180999 11.964223
26.939882 -73.565041 9.578152
27.05059 -73.946537 10.745638
29.096631 -56.816423 34.866404
29.032337 -56.955362 36.12235
29.009366 -58.173267 35.151409
29.096631 -56.816423 34.866404
29.152448 -56.650415 33.625517
29.283865 -55.947847 29.98629
29.242413 -56.287543 31.238618
29.208676 -57.428555 30.097264
29.283865 -55.947847 29.98629
29.327634 -55.704439 28.657316
29.384462 -55.318272 26.236906
29.301623 -56.597082 25.209096
28.519894 -61.886473 17.317886
28.718972 -60.657011 18.468975
28.583497 -62.112957 18.556739
28.287964 -63.040627 16.123983
28.186915 -64.415453 16.31463
28.09046 -64.113661 15.032964
28.519894 -61.886473 17.317886
28.287964 -63.040627 16.123983
25.567695 -80.941353 23.974414
25.790467 -81.010166 22.80086
25.932398 -79.920285 24.003707
25.228796 -80.936825 25.020453
25.378668 -79.867821 26.282902
24.897837 -80.953175 26.126093
25.567695 -80.941353 23.974414
25.228796 -80.936825 25.020453
23.8709 -82.723557 25.727283
23.393149 -82.511764 26.755326
21.37332 -82.047439 29.653599
22.080075 -81.486007 29.978918
21.527909 -81.059059 30.989897
21.37332 -82.047439 29.653599
20.617692 -82.599975 29.318804
19.889741 -82.992218 28.985176
19.118283 -83.416401 28.566255
28.561909 -47.041958 46.487542
28.466217 -47.139471 47.757456
28.636969 -48.237789 45.604077
28.657732 -46.914372 45.241604
28.561909 -47.041958 46.487542
28.848973 -53.395905 41.810167
28.908968 -51.984484 41.445825
28.813477 -52.090139 42.697716
28.872701 -54.604302 40.762917
28.848973 -53.395905 41.810167
28.777209 -54.709957 42.014807
28.890215 -55.85446 39.683832
28.872701 -54.604302 40.762917
28.877288 -57.152124 38.657539
28.890215 -55.85446 39.683832
28.788011 -57.216019 39.941263
28.860078 -58.412945 37.661163
28.962282 -57.051386 37.403732
28.877288 -57.152124 38.657539
11.14051 -56.969036 58.449789
11.672803 -56.305938 59.414635
10.793323 -55.857323 59.106154
7.593024 -51.93573 59.38097
8.464793 -52.515537 59.763461
6.787186 -51.446055 58.924473
5.905472 -50.903234 58.391466
7.130431 -52.639432 58.354939
7.593024 -51.93573 59.38097
6.787186 -51.446055 58.924473
-0.017727 -54.578961 47.018673
0.677552 -55.072888 47.583168
0.32686 -53.924591 48.13512
-0.305566 -55.344015 45.922966
-0.017727 -54.578961 47.018673
25.229088 -50.690998 59.926445
25.131842 -49.527216 60.744032
24.845889 -51.770269 59.993673
25.323737 -51.918565 59.068831
25.229088 -50.690998 59.926445
24.162445 -50.411147 61.669569
24.604106 -49.364376 61.687614
24.30238 -51.574531 60.853252
24.162445 -50.411147 61.669569
23.713584 -51.442976 61.671534
19.095519 -53.009115 63.494913
19.708945 -52.0988 63.889273
19.275384 -54.16762 62.771377
19.095519 -53.009115 63.494913
19.444654 -55.305203 62.005529
20.076715 -54.504873 62.349428
19.275384 -54.16762 62.771377
18.065526 -55.733173 61.958759
17.284973 -55.333912 62.24441
18.851784 -56.081839 61.648968
18.065526 -55.733173 61.958759
18.273986 -56.847063 61.180249
19.653115 -56.419092 61.227018
19.444654 -55.305203 62.005529
18.851784 -56.081839 61.648968
9.993742 -78.355709 31.010682
10.816623 -78.583252 31.445868
10.284356 -77.453091 32.457693
9.698912 -79.252853 29.579049
9.993742 -78.355709 31.010682
9.166645 -78.122692 30.590874
9.332054 -80.189182 28.042824
9.698912 -79.252853 29.579049
9.332054 -80.189182 28.042824
8.498398 -79.950432 27.648708
5.517768 -75.862083 30.074479
5.873724 -75.05772 31.356768
5.130868 -74.702373 31.121935
5.93871 -77.088875 28.97066
5.517768 -75.862083 30.074479
5.195853 -76.733529 28.735827
5.290373 -78.919727 26.227438
4.834614 -77.702877 27.309286
6.064132 -79.178608 26.519754
5.290373 -78.919727 26.227438
6.875984 -79.519634 26.798252
6.428647 -78.301346 27.910505
6.064132 -79.178608 26.519754
7.68274 -79.761699 27.163588
6.875984 -79.519634 26.798252
-5.38206 -56.483576 39.225984
-5.109228 -55.521257 40.047044
-5.070909 -57.674917 38.745655
-5.38206 -56.483576 39.225984
-4.384305 -57.996696 39.074814
-5.070909 -57.674917 38.745655
27.114907 -77.000916 19.417937
27.315143 -75.720444 19.360068
27.246158 -75.8741 20.619762
26.808391 -78.383682 20.651339
26.915105 -77.35569 21.807445
26.677574 -78.584801 21.781153
26.929147 -78.313541 19.45111
26.808391 -78.383682 20.651339
27.114907 -77.000916 19.417937
26.929147 -78.313541 19.45111
3 0 100 98
3 0 98 101
3 1 106 104
3 1 109 107
3 1 104 109
3 2 113 111
3 3 116 114
3 3 118 116
3 4 390 392
3 390 120 391
3 390 391 392
3 2 123 121
3 2 111 123
3 5 127 125
3 394 393 128
3 6 131 129
3 8 134 132
3 8 136 134
3 9 139 137
3 6 142 140
3 6 129 142
3 395 146 396
3 397 396 144
3 395 396 397
3 399 398 147
3 12 151 149
3 13 154 152
3 14 157 155
3 14 158 157
3 14 159 158
3 12 162 160
3 12 149 162
3 15 165 163
3 16 168 166
3 16 400 402
3 402 401 168
3 400 401 402
3 7 171 169
3 404 403 172
3 17 175 174
3 17 177 175
3 10 180 178
3 18 183 181
3 18 185 183
3 18 187 185
3 15 190 188
3 15 163 190
3 19 194 192
3 21 405 407
3 405 196 406
3 405 406 407
3 21 198 196
3 408 199 409
3 410 201 411
3 412 411 199
3 410 411 412
3 414 413 201
3 415 204 416
3 19 417 419
3 417 206 418
3 417 418 419
3 19 192 206
3 20 210 208
3 22 213 211
3 22 215 213
3 11 218 216
3 23 221 219
3 23 223 221
3 23 225 223
3 421 420 226
3 24 229 227
3 26 230 99
3 26 231 230
3 27 234 232
3 24 235 102
3 24 227 235
3 422 237 423
3 30 238 103
3 30 424 426
3 426 425 238
3 424 425 426
3 31 241 239
3 428 427 105
3 32 244 242
3 34 245 108
3 34 246 245
3 34 248 246
3 31 249 110
3 31 239 249
3 36 252 250
3 38 253 112
3 38 254 253
3 39 257 255
3 41 258 115
3 41 429 431
3 431 430 258
3 429 430 431
3 41 432 433
3 435 434 117
3 42 259 119
3 42 260 259
3 43 263 261
3 45 264 122
3 45 265 264
3 45 267 265
3 36 268 124
3 36 250 268
3 47 272 270
3 49 273 126
3 49 274 273
3 437 436 275
3 51 438 439
3 52 279 277
3 54 280 130
3 54 281 280
3 25 282 228
3 55 283 133
3 55 284 283
3 55 285 284
3 56 286 135
3 56 287 286
3 57 290 288
3 59 291 138
3 59 292 291
3 28 293 233
3 60 294 141
3 60 295 294
3 60 296 295
3 52 297 143
3 52 277 297
3 61 300 298
3 63 301 145
3 63 302 301
3 29 303 236
3 64 304 148
3 64 305 304
3 64 440 442
3 442 441 305
3 440 441 442
3 444 443 150
3 446 445 240
3 65 447 448
3 66 449 451
3 451 450 153
3 449 450 451
3 66 452 453
3 33 306 243
3 67 307 156
3 67 454 456
3 456 455 307
3 454 455 456
3 67 457 458
3 35 308 247
3 460 459 161
3 68 311 309
3 70 312 164
3 70 313 312
3 37 314 251
3 71 315 167
3 71 461 463
3 463 462 315
3 461 462 463
3 71 464 465
3 53 316 278
3 72 317 170
3 72 318 317
3 40 319 256
3 73 320 173
3 73 321 320
3 73 466 468
3 468 467 321
3 466 467 468
3 74 469 470
3 74 471 472
3 74 473 475
3 473 322 474
3 473 474 475
3 75 323 176
3 75 324 323
3 58 325 289
3 76 326 179
3 76 327 326
3 44 328 262
3 77 329 182
3 77 330 329
3 77 331 330
3 78 332 184
3 78 333 332
3 78 334 333
3 79 335 186
3 79 336 335
3 46 337 266
3 80 338 189
3 80 339 338
3 80 340 339
3 68 341 191
3 68 309 341
3 81 344 342
3 83 345 193
3 83 346 345
3 476 347 477
3 478 477 269
3 476 477 478
3 84 348 195
3 84 349 348
3 84 350 349
3 85 351 197
3 85 352 351
3 86 479 480
3 86 481 483
3 481 353 482
3 481 482 483
3 86 354 353
3 87 355 200
3 87 356 355
3 87 357 356
3 484 358 485
3 486 485 202
3 484 485 486
3 488 487 358
3 489 359 490
3 88 491 492
3 88 493 495
3 493 360 494
3 493 494 495
3 88 361 360
3 89 362 203
3 89 363 362
3 90 364 205
3 90 365 364
3 90 366 365
3 81 367 207
3 81 342 367
3 82 368 343
3 91 369 209
3 91 370 369
3 48 371 271
3 92 372 212
3 92 373 372
3 92 374 373
3 93 375 214
3 93 376 375
3 62 377 299
3 94 378 217
3 94 379 378
3 50 380 276
3 95 381 220
3 95 382 381
3 95 383 382
3 96 384 222
3 96 385 384
3 96 386 385
3 97 387 224
3 97 496 498
3 498 497 387
3 496 497 498
3 499 388 500
3 69 389 310
3 98 99 24
3 100 99 98
3 100 26 99
3 101 102 27
3 98 102 101
3 98 24 102
3 501 103 502
3 503 103 504
3 505 30 506
3 507 506 103
3 505 506 507
3 104 105 31
3 106 105 104
3 106 508 510
3 510 509 105
3 508 509 510
3 107 108 32
3 109 108 107
3 109 34 108
3 109 110 34
3 104 110 109
3 104 31 110
3 111 112 36
3 113 112 111
3 113 38 112
3 114 115 39
3 116 115 114
3 116 41 115
3 116 117 41
3 118 117 116
3 118 511 513
3 513 512 117
3 511 512 513
3 514 119 515
3 120 516 518
3 516 119 517
3 516 517 518
3 120 42 119
3 121 122 43
3 123 122 121
3 123 45 122
3 123 124 45
3 111 124 123
3 111 36 124
3 125 126 47
3 127 126 125
3 127 49 126
3 128 519 521
3 521 520 51
3 519 520 521
3 523 522 128
3 129 130 52
3 131 130 129
3 131 54 130
3 132 133 25
3 134 133 132
3 134 55 133
3 134 135 55
3 136 135 134
3 136 56 135
3 137 138 57
3 139 138 137
3 139 59 138
3 140 141 28
3 142 141 140
3 142 60 141
3 142 143 60
3 129 143 142
3 129 52 143
3 144 145 61
3 146 145 144
3 146 63 145
3 147 148 29
3 524 148 525
3 526 525 147
3 524 525 526
3 527 64 528
3 529 528 148
3 527 528 529
3 531 530 64
3 149 532 534
3 532 150 533
3 532 533 534
3 151 150 149
3 151 535 537
3 537 536 150
3 535 536 537
3 152 153 65
3 154 153 152
3 154 66 153
3 155 156 33
3 157 156 155
3 157 67 156
3 157 538 540
3 540 539 67
3 538 539 540
3 158 541 543
3 543 542 157
3 541 542 543
3 158 544 545
3 158 546 547
3 159 548 550
3 550 549 158
3 548 549 550
3 159 551 552
3 160 161 35
3 162 161 160
3 162 553 555
3 555 554 161
3 553 554 555
3 162 556 557
3 149 558 560
3 560 559 162
3 558 559 560
3 149 561 562
3 163 164 68
3 165 164 163
3 165 70 164
3 166 167 37
3 168 167 166
3 168 71 167
3 168 563 565
3 565 564 71
3 563 564 565
3 567 566 168
3 169 170 53
3 171 170 169
3 171 72 170
3 172 173 40
3 568 173 569
3 570 569 172
3 568 569 570
3 571 73 572
3 573 572 173
3 571 572 573
3 575 574 73
3 174 576 577
3 175 578 580
3 580 579 174
3 578 579 580
3 175 581 583
3 581 74 582
3 581 582 583
3 175 176 74
3 177 176 175
3 177 75 176
3 178 179 58
3 180 179 178
3 180 76 179
3 181 182 44
3 183 182 181
3 183 77 182
3 183 184 77
3 185 184 183
3 185 78 184
3 185 186 78
3 187 186 185
3 187 79 186
3 188 189 46
3 190 189 188
3 190 80 189
3 190 191 80
3 163 191 190
3 163 68 191
3 192 193 81
3 194 193 192
3 194 83 193
3 584 195 585
3 196 586 588
3 586 195 587
3 586 587 588
3 196 84 195
3 196 197 84
3 198 197 196
3 198 85 197
3 199 589 590
3 199 591 593
3 591 86 592
3 591 592 593
3 199 200 86
3 201 200 199
3 201 87 200
3 201 202 87
3 594 202 595
3 596 595 201
3 594 595 596
3 598 597 202
3 599 88 600
3 601 203 602
3 603 602 88
3 601 602 603
3 204 604 606
3 604 203 605
3 604 605 606
3 204 89 203
3 607 205 608
3 206 609 611
3 609 205 610
3 609 610 611
3 206 90 205
3 206 207 90
3 192 207 206
3 192 81 207
3 208 209 82
3 210 209 208
3 210 91 209
3 211 212 48
3 213 212 211
3 213 92 212
3 213 214 92
3 215 214 213
3 215 93 214
3 216 217 62
3 218 217 216
3 218 94 217
3 219 220 50
3 221 220 219
3 221 95 220
3 221 222 95
3 223 222 221
3 223 96 222
3 223 224 96
3 225 224 223
3 225 97 224
3 226 612 614
3 614 613 69
3 612 613 614
3 616 615 226
3 227 228 6
3 229 228 227
3 229 25 228
3 99 229 24
3 230 229 99
3 230 25 229
3 230 132 25
3 231 132 230
3 231 8 132
3 232 233 9
3 234 233 232
3 234 28 233
3 102 234 27
3 235 234 102
3 235 28 234
3 235 140 28
3 227 140 235
3 227 6 140
3 617 236 618
3 237 619 621
3 619 236 620
3 619 620 621
3 237 29 236
3 103 622 624
3 622 237 623
3 622 623 624
3 238 237 103
3 238 29 237
3 238 147 29
3 625 147 626
3 627 626 238
3 625 626 627
3 629 628 147
3 239 240 12
3 241 240 239
3 241 630 632
3 632 631 240
3 630 631 632
3 105 241 31
3 633 241 634
3 635 634 105
3 633 634 635
3 637 636 241
3 242 243 13
3 244 243 242
3 244 33 243
3 108 244 32
3 245 244 108
3 245 33 244
3 245 155 33
3 246 155 245
3 246 14 155
3 246 247 14
3 248 247 246
3 248 35 247
3 110 248 34
3 249 248 110
3 249 35 248
3 249 160 35
3 239 160 249
3 239 12 160
3 250 251 15
3 252 251 250
3 252 37 251
3 112 252 36
3 253 252 112
3 253 37 252
3 253 166 37
3 254 166 253
3 254 16 166
3 255 256 7
3 257 256 255
3 257 40 256
3 115 257 39
3 258 257 115
3 258 40 257
3 258 172 40
3 638 172 639
3 640 639 258
3 638 639 640
3 642 641 172
3 117 643 645
3 645 644 41
3 643 644 645
3 647 646 117
3 119 648 649
3 259 650 652
3 652 651 119
3 650 651 652
3 259 653 654
3 259 655 657
3 655 174 656
3 655 656 657
3 260 174 259
3 260 17 174
3 261 262 10
3 263 262 261
3 263 44 262
3 122 263 43
3 264 263 122
3 264 44 263
3 264 181 44
3 265 181 264
3 265 18 181
3 265 266 18
3 267 266 265
3 267 46 266
3 124 267 45
3 268 267 124
3 268 46 267
3 268 188 46
3 250 188 268
3 250 15 188
3 658 269 659
3 660 659 19
3 658 659 660
3 661 269 662
3 664 663 269
3 665 21 666
3 667 19 668
3 270 271 20
3 272 271 270
3 272 48 271
3 126 272 47
3 273 272 126
3 273 48 272
3 273 211 48
3 274 211 273
3 274 22 211
3 275 276 11
3 669 276 670
3 671 670 275
3 669 670 671
3 672 50 673
3 674 673 276
3 672 673 674
3 675 50 676
3 677 219 678
3 679 678 50
3 677 678 679
3 680 219 681
3 682 23 683
3 684 683 219
3 682 683 684
3 686 685 23
3 688 687 51
3 277 278 2
3 279 278 277
3 279 53 278
3 130 279 52
3 280 279 130
3 280 53 279
3 280 169 53
3 281 169 280
3 281 7 169
3 228 131 6
3 282 131 228
3 282 54 131
3 133 282 25
3 283 282 133
3 283 54 282
3 283 281 54
3 284 281 283
3 284 7 281
3 284 255 7
3 285 255 284
3 285 39 255
3 135 285 55
3 286 285 135
3 286 39 285
3 286 114 39
3 287 114 286
3 287 3 114
3 288 289 4
3 290 289 288
3 290 58 289
3 138 290 57
3 291 290 138
3 291 58 290
3 291 178 58
3 292 178 291
3 292 10 178
3 233 139 9
3 293 139 233
3 293 59 139
3 141 293 28
3 294 293 141
3 294 59 293
3 294 292 59
3 295 292 294
3 295 10 292
3 295 261 10
3 296 261 295
3 296 43 261
3 143 296 60
3 297 296 143
3 297 43 296
3 297 121 43
3 277 121 297
3 277 2 121
3 298 299 5
3 300 299 298
3 300 62 299
3 145 300 61
3 301 300 145
3 301 62 300
3 301 216 62
3 302 216 301
3 302 11 216
3 236 689 691
3 689 146 690
3 689 690 691
3 303 146 236
3 303 63 146
3 148 303 29
3 304 303 148
3 304 63 303
3 304 302 63
3 305 302 304
3 305 11 302
3 305 275 11
3 692 275 693
3 694 693 305
3 692 693 694
3 696 695 275
3 698 697 64
3 150 699 700
3 702 701 150
3 240 151 12
3 703 151 704
3 705 704 240
3 703 704 705
3 707 706 151
3 153 708 710
3 710 709 65
3 708 709 710
3 712 711 153
3 243 154 13
3 306 154 243
3 306 66 154
3 156 306 33
3 307 306 156
3 307 66 306
3 307 713 715
3 715 714 66
3 713 714 715
3 717 716 307
3 719 718 67
3 247 159 14
3 308 159 247
3 308 720 722
3 722 721 159
3 720 721 722
3 161 308 35
3 723 308 724
3 725 724 161
3 723 724 725
3 727 726 308
3 309 310 1
3 311 310 309
3 311 69 310
3 164 311 68
3 312 311 164
3 312 69 311
3 312 226 69
3 313 226 312
3 313 728 730
3 730 729 226
3 728 729 730
3 251 165 15
3 314 165 251
3 314 70 165
3 167 314 37
3 315 314 167
3 315 70 314
3 315 313 70
3 731 313 732
3 733 732 315
3 731 732 733
3 735 734 313
3 737 736 71
3 278 113 2
3 316 113 278
3 316 38 113
3 170 316 53
3 317 316 170
3 317 38 316
3 317 254 38
3 318 254 317
3 318 16 254
3 256 171 7
3 319 171 256
3 319 72 171
3 173 319 40
3 320 319 173
3 320 72 319
3 320 318 72
3 321 318 320
3 321 16 318
3 321 738 740
3 740 739 16
3 738 739 740
3 742 741 321
3 744 743 73
3 322 745 746
3 322 747 749
3 747 51 748
3 747 748 749
3 176 322 74
3 323 322 176
3 323 51 322
3 323 128 51
3 324 128 323
3 324 750 752
3 752 751 128
3 750 751 752
3 289 120 4
3 325 120 289
3 325 42 120
3 179 325 58
3 326 325 179
3 326 42 325
3 326 260 42
3 327 260 326
3 327 17 260
3 262 180 10
3 328 180 262
3 328 76 180
3 182 328 44
3 329 328 182
3 329 76 328
3 329 327 76
3 330 327 329
3 330 17 327
3 330 177 17
3 331 177 330
3 331 75 177
3 184 331 77
3 332 331 184
3 332 75 331
3 332 324 75
3 333 324 332
3 333 753 755
3 755 754 324
3 753 754 755
3 333 756 757
3 334 758 760
3 760 759 333
3 758 759 760
3 334 761 763
3 761 65 762
3 761 762 763
3 186 334 78
3 335 334 186
3 335 65 334
3 335 152 65
3 336 152 335
3 336 13 152
3 266 187 18
3 337 187 266
3 337 79 187
3 189 337 46
3 338 337 189
3 338 79 337
3 338 336 79
3 339 336 338
3 339 13 336
3 339 242 13
3 340 242 339
3 340 32 242
3 191 340 80
3 341 340 191
3 341 32 340
3 341 107 32
3 309 107 341
3 309 1 107
3 342 343 0
3 344 343 342
3 344 82 343
3 193 344 81
3 345 344 193
3 345 82 344
3 345 208 82
3 346 208 345
3 346 20 208
3 269 194 19
3 347 194 269
3 347 83 194
3 195 764 766
3 764 347 765
3 764 765 766
3 348 347 195
3 348 83 347
3 348 346 83
3 349 346 348
3 349 20 346
3 349 270 20
3 350 270 349
3 350 47 270
3 197 350 84
3 351 350 197
3 351 47 350
3 351 125 47
3 352 125 351
3 352 5 125
3 767 21 768
3 353 769 770
3 353 771 773
3 771 21 772
3 771 772 773
3 353 198 21
3 354 198 353
3 354 85 198
3 200 354 86
3 355 354 200
3 355 85 354
3 355 352 85
3 356 352 355
3 356 5 352
3 356 298 5
3 357 298 356
3 357 61 298
3 202 357 87
3 358 357 202
3 358 61 357
3 358 144 61
3 774 144 775
3 776 775 358
3 774 775 776
3 778 777 144
3 359 779 780
3 359 781 783
3 781 4 782
3 781 782 783
3 784 359 785
3 360 786 788
3 786 359 787
3 786 787 788
3 360 4 359
3 360 288 4
3 361 288 360
3 361 57 288
3 203 361 88
3 362 361 203
3 362 57 361
3 362 137 57
3 363 137 362
3 363 9 137
3 789 204 790
3 791 204 792
3 793 89 794
3 795 794 204
3 793 794 795
3 205 796 797
3 364 798 800
3 800 799 205
3 798 799 800
3 364 801 803
3 801 89 802
3 801 802 803
3 364 363 89
3 365 363 364
3 365 9 363
3 365 232 9
3 366 232 365
3 366 27 232
3 207 366 90
3 367 366 207
3 367 27 366
3 367 101 27
3 342 101 367
3 342 0 101
3 343 100 0
3 368 100 343
3 368 26 100
3 209 368 82
3 369 368 209
3 369 26 368
3 369 231 26
3 370 231 369
3 370 8 231
3 271 210 20
3 371 210 271
3 371 91 210
3 212 371 48
3 372 371 212
3 372 91 371
3 372 370 91
3 373 370 372
3 373 8 370
3 373 136 8
3 374 136 373
3 374 56 136
3 214 374 92
3 375 374 214
3 375 56 374
3 375 287 56
3 376 287 375
3 376 3 287
3 299 127 5
3 377 127 299
3 377 49 127
3 217 377 62
3 378 377 217
3 378 49 377
3 378 274 49
3 379 274 378
3 379 22 274
3 276 218 11
3 380 218 276
3 380 94 218
3 220 380 50
3 381 380 220
3 381 94 380
3 381 379 94
3 382 379 381
3 382 22 379
3 382 215 22
3 383 215 382
3 383 93 215
3 222 383 95
3 384 383 222
3 384 93 383
3 384 376 93
3 385 376 384
3 385 3 376
3 385 118 3
3 386 118 385
3 386 804 806
3 806 805 118
3 804 805 806
3 224 386 96
3 387 386 224
3 387 807 809
3 809 808 386
3 807 808 809
3 387 810 811
3 813 812 387
3 814 225 815
3 816 815 23
3 814 815 816
3 388 817 819
3 817 225 818
3 817 818 819
3 388 97 225
3 820 388 821
3 822 388 823
3 824 97 825
3 826 825 388
3 824 825 826
3 828 827 97
3 829 30 830
3 831 30 832
3 834 833 30
3 310 106 1
3 389 106 310
3 389 835 837
3 837 836 106
3 835 836 837
3 838 389 839
3 840 839 69
3 838 839 840
3 841 389 842
3 844 843 389
