ply
format ascii 1.0
element vertex 619
property float x
property float y
property float z
element face 728
property list uchar int vertex_index
end_header
24.92609 -100.037758 -20.229496
21.678465 -61.216187 -22.449066
24.818962 -79.691856 -13.258354
18.45204 -103.946091 -3.958584
26.487488 -90.444237 -15.990846
24.322453 -82.119453 -21.67474
23.773378 -92.018265 -26.208733
18.276472 -105.967598 -24.5306
9.72654 -101.70636 -34.078468
23.079554 -69.604469 -11.6112
26.631023 -85.29509 -5.963315
26.934315 -95.853271 -8.393005
24.624594 -98.461449 0.070719
23.142195 -104.366394 -12.520055
14.941969 -107.783859 -16.144697
22.973444 -71.862831 -18.526463
21.651636 -70.981628 -25.821669
26.274145 -95.402832 -17.99958
25.596479 -91.889832 -21.205015
24.640099 -96.555099 -23.492872
13.528371 -106.939674 -25.92083
14.586184 -104.587967 -29.646275
9.205939 -104.803146 -30.733791
27.026905 -87.196182 -1.725302
27.163862 -90.702621 -7.055215
27.058867 -92.673782 -2.755681
24.234276 -101.702904 -6.162905
21.167955 -104.700188 -8.145055
19.496836 -106.79863 -14.569916
17.028271 -106.424858 -10.203042
23.785191 -74.527031 -12.193254
23.01053 -71.058464 -14.940533
23.841936 -76.165886 -16.041286
23.034094 -77.107491 -23.987877
19.932846 -69.351608 -29.514053
22.295982 -61.916527 -19.107161
25.891626 -85.159317 -14.361892
24.79644 -81.357147 -17.443401
25.498833 -86.598953 -19.195702
24.453213 -87.295349 -23.877806
22.277687 -103.571602 -22.544117
22.422377 -100.465149 -25.781202
19.093189 -103.11158 -27.829737
14.676105 -100.97435 -32.834839
23.874666 -72.334259 -8.446026
24.722569 -77.336357 -9.134855
25.792233 -82.600449 -9.825167
26.707603 -88.163063 -11.018839
26.991951 -93.527588 -12.454642
26.320213 -98.535095 -14.314841
26.165855 -97.614792 -4.314251
25.665848 -100.558197 -10.154267
24.42108 -102.791206 -16.447166
21.233299 -105.860313 -18.66185
16.937471 -107.568161 -20.446619
12.322142 -106.703316 -11.825753
22.672415 -66.352478 -13.902068
22.536127 -66.991173 -17.153362
22.274584 -67.03492 -20.700199
23.684824 -76.913788 -19.951464
22.627277 -72.012764 -22.16721
21.553137 -65.976151 -24.119213
20.265797 -64.835007 -27.601389
25.77878 -97.833405 -19.022995
25.588938 -96.102707 -20.803358
24.935934 -98.263878 -21.820751
11.427529 -106.036369 -28.50857
21.880541 -58.955822 -21.582985
21.196968 -60.445435 -24.081841
27.139688 -90.079353 -2.124676
20.254152 -102.991234 -2.767775
21.687775 -103.301338 -4.961048
19.922195 -104.413567 -5.92662
19.287006 -105.742355 -9.257984
17.887228 -105.275253 -7.047871
24.255747 -76.990784 -12.745765
23.779856 -75.282082 -14.137389
24.314659 -77.987106 -14.773687
22.483257 -62.184807 -17.453663
26.256819 -87.833664 -15.236049
25.758171 -85.94075 -16.741385
26.05024 -88.586464 -17.584772
24.819696 -92.006485 -23.725983
25.107235 -89.637054 -22.48848
24.285315 -89.647827 -24.907574
23.597586 -87.086685 -26.113365
23.187029 -89.526337 -27.297705
20.431604 -104.984276 -23.481007
20.734703 -103.627914 -25.213091
18.623301 -104.671608 -26.434956
12.353367 -103.371925 -31.928507
14.672652 -102.852257 -31.416559
12.271796 -101.504158 -33.551876
12.226271 -99.25325 -34.971485
9.905636 -99.776924 -35.409241
24.347418 -73.558434 -6.766995
24.253269 -74.808784 -8.765543
24.723906 -75.919601 -7.03142
26.532558 -83.583504 -3.498438
26.176357 -82.481491 -5.580122
25.7642 -81.430748 -7.64863
26.260563 -83.990944 -7.807304
26.312401 -85.363281 -10.275331
26.678411 -86.687164 -8.497791
27.162439 -93.310249 -7.789117
27.127131 -92.087715 -9.596391
27.04854 -94.785172 -10.381851
26.797827 -96.099472 -13.346253
26.752047 -97.100227 -11.267365
25.571447 -96.328346 1.015232
26.247904 -95.871208 -1.175417
25.536695 -97.980087 -1.934592
23.734009 -103.188828 -9.287918
25.043999 -101.222252 -8.113061
24.541506 -102.64785 -11.375639
25.183088 -101.762085 -13.319915
23.931252 -103.660934 -14.399288
23.006205 -104.487144 -17.447533
22.433266 -105.173286 -15.510783
17.310493 -107.468399 -15.398019
18.415262 -107.327644 -17.437475
16.044741 -107.845985 -18.464344
14.37619 -107.895363 -21.248823
13.42686 -107.992859 -19.013405
22.962181 -67.42173 -11.192253
22.785126 -65.876648 -12.404061
22.829357 -68.121658 -12.884032
22.994762 -71.477303 -16.759771
22.749258 -69.250977 -16.155132
22.685596 -69.285141 -17.883476
22.422615 -66.839958 -18.945271
22.610788 -69.46579 -19.546381
24.646191 -81.977905 -19.592815
24.236 -79.307182 -18.96134
24.035446 -79.525429 -20.840357
22.349369 -74.245453 -24.971119
22.820606 -74.555046 -23.137064
22.252926 -71.824875 -23.977264
22.096279 -69.123871 -23.136951
21.619335 -68.585159 -24.901207
20.947493 -65.359962 -25.954071
20.955416 -67.951385 -26.764933
20.750521 -99.855156 -28.508131
22.35165 -98.340294 -27.162373
26.477417 -92.897148 -17.07659
26.111721 -91.18853 -18.731955
25.981268 -93.780464 -19.729366
25.279114 -94.225632 -22.286333
24.331425 -94.36721 -24.793861
16.027714 -106.562744 -25.414045
16.425116 -105.468903 -27.246523
13.95665 -105.944893 -27.936756
11.883516 -104.849754 -30.338013
9.572403 -103.416359 -32.48661
26.895561 -86.396889 -3.860899
26.962374 -87.95137 -6.546398
27.126305 -89.107498 -4.306539
27.188408 -91.813026 -5.017727
27.027109 -94.42112 -5.610729
24.54723 -100.052689 -3.000256
23.286032 -101.731056 -3.791811
22.904221 -103.242096 -6.956967
22.284239 -104.642845 -10.274902
21.422829 -105.772491 -13.576972
20.497671 -105.875801 -11.390107
18.386219 -106.750832 -12.320333
16.066742 -107.24939 -13.173309
23.369423 -71.996368 -11.843823
23.025728 -70.452995 -13.304033
23.356945 -72.821869 -13.599148
23.373747 -73.548676 -15.503492
23.392805 -74.139633 -17.323059
23.827129 -82.248169 -23.88983
23.689411 -79.701042 -22.909239
23.129898 -79.455345 -24.970608
22.432802 -76.75029 -25.944645
21.699568 -73.621979 -26.770357
20.88813 -70.281097 -27.716372
20.837076 -72.731453 -28.57575
22.262434 -59.287651 -19.842857
22.028135 -61.669128 -20.825319
25.385006 -82.446083 -13.836744
24.879379 -80.742195 -15.280395
25.359591 -83.363365 -15.988868
25.191723 -83.933449 -18.254292
24.947195 -84.596085 -20.477362
25.684935 -89.328575 -20.071075
25.124239 -87.19249 -21.448473
24.471474 -84.773056 -22.745085
23.814219 -84.750809 -24.946613
23.796885 -102.05513 -21.159481
23.879354 -100.399162 -22.955843
22.501827 -102.089134 -24.149933
20.865332 -101.896362 -26.907009
19.074936 -101.285568 -29.398853
16.819601 -103.935768 -28.989017
17.087143 -102.220505 -30.405256
17.01005 -100.263794 -31.79397
23.249338 -68.804237 -9.798018
23.602764 -69.868744 -8.255421
23.451944 -71.060791 -10.032616
23.808937 -73.607468 -10.363334
24.27257 -76.097084 -10.665072
24.784079 -78.682365 -11.173794
25.235527 -78.676849 -7.304607
25.265337 -80.00486 -9.424381
25.306534 -81.199303 -11.668547
25.852554 -83.869362 -12.120321
26.337124 -86.743469 -12.783817
26.65601 -89.435318 -13.504561
26.98752 -89.356857 -8.984128
26.954466 -90.819214 -11.504936
26.798281 -92.006508 -14.297077
26.731493 -94.523392 -15.17169
26.386234 -97.052277 -16.242144
25.774025 -99.399857 -17.144178
26.74749 -93.399796 -0.384517
26.733213 -95.1558 -3.282437
26.637119 -96.874474 -6.46164
25.299795 -99.779839 -5.046141
25.965693 -99.175934 -7.179214
26.455929 -98.28186 -9.258206
26.146322 -99.507339 -12.164742
25.544622 -100.791 -15.200022
24.821405 -101.476311 -18.31216
23.440439 -103.458214 -19.440237
21.866934 -104.903526 -20.552517
19.904066 -106.070992 -21.734905
20.569849 -106.426666 -16.545891
19.268938 -106.883797 -19.464859
17.777386 -106.945442 -22.409737
15.389393 -107.419662 -23.281807
15.670832 -105.798248 -8.123006
14.698797 -106.734512 -11.087778
13.546637 -107.389473 -13.99631
10.937304 -107.192818 -14.754261
12.207331 -107.740791 -16.830616
22.762991 -68.611504 -14.490761
22.595652 -66.713501 -15.548032
22.502085 -64.47168 -16.554726
22.38938 -64.559486 -18.143795
22.220098 -64.348541 -19.86335
21.963045 -64.051598 -21.558155
24.324558 -78.733459 -16.800289
23.841221 -76.802422 -18.017645
23.309227 -74.348724 -19.263735
23.419891 -77.0495 -22.028513
23.147339 -74.629135 -21.235176
22.841238 -71.91671 -20.420378
22.410927 -69.385307 -21.413363
21.974867 -66.4216 -22.380699
21.573425 -63.47839 -23.282867
21.061031 -62.961296 -24.969612
20.096495 -66.996529 -28.57312
23.744007 -98.67025 -24.539373
23.402798 -96.584869 -26.133774
23.055128 -94.144424 -27.335508
21.532407 -59.690123 -22.881847
21.633445 -58.55994 -22.448807
21.779503 -60.086005 -22.016025
21.437717 -60.830811 -23.265453
21.291658 -59.304747 -23.698235
21.532407 -59.690123 -22.881847
19.353096 -103.468662 -3.36318
19.540689 -102.699131 -1.78291
18.639634 -103.176559 -2.378315
22.560592 -62.2505 -16.618346
22.629775 -61.027363 -16.944983
24.597422 -74.054455 -5.770864
24.431348 -72.830082 -5.76078
24.785666 -75.235039 -5.903077
24.535662 -74.739018 -6.899207
24.597422 -74.054455 -5.770864
24.705406 -97.502518 1.553455
24.149949 -98.418442 1.167666
25.09802 -97.394897 0.542975
25.178833 -96.435967 2.025711
24.705406 -97.502518 1.553455
20.668405 -98.749756 -29.130184
19.821291 -99.41592 -29.712323
26.910497 -85.868424 -1.481515
26.987799 -86.378246 -0.480083
26.961233 -86.796536 -2.7931
26.844825 -85.468777 -2.549314
26.910497 -85.868424 -1.481515
22.669452 -101.755989 -2.848606
23.397164 -100.951862 -2.302194
23.150604 -80.822506 -25.446933
23.478513 -80.851757 -24.430219
23.499219 -82.218918 -24.906544
22.03461 -76.466106 -26.884754
22.439408 -78.019471 -26.411402
21.667994 -74.901951 -27.29761
22.066185 -75.186135 -26.357501
22.03461 -76.466106 -26.884754
21.236747 -74.456688 -28.200306
21.268322 -73.176716 -27.673054
21.667994 -74.901951 -27.29761
22.279208 -60.602089 -19.475009
22.401488 -59.460924 -18.997374
22.418262 -60.775362 -18.629525
23.264758 -85.710667 -26.585589
23.0516 -86.819615 -27.187356
14.684787 -99.92041 -33.418663
15.85176 -99.565132 -32.898229
15.843077 -100.619072 -32.314405
12.297722 -98.143822 -35.449096
11.064804 -98.347915 -35.807941
23.365671 -68.222504 -8.957743
23.218552 -67.636463 -9.656872
23.738715 -71.101502 -8.350724
23.821538 -70.464123 -7.416603
23.957489 -71.69688 -7.511906
25.479928 -79.308605 -6.340035
25.245997 -77.980293 -6.221398
26.521638 -93.701744 0.615565
26.733897 -92.465832 0.990487
13.612435 -107.721802 -22.639429
13.140165 -107.872002 -21.62566
14.965412 -105.320541 -7.023411
16.046306 -105.186844 -6.580728
13.510469 -106.718914 -11.456765
14.001599 -106.298755 -9.943417
12.813271 -106.283158 -10.312405
10.243457 -107.278759 -16.068393
9.664502 -106.918362 -14.916052
10.87847 -107.552746 -17.106571
11.572318 -107.466804 -15.792438
10.243457 -107.278759 -16.068393
11.514294 -107.769764 -18.256737
10.87847 -107.552746 -17.106571
22.706682 -65.246109 -13.603088
22.763038 -65.008194 -12.854084
22.728771 -66.114563 -13.153064
22.640688 -65.41219 -14.40383
22.706682 -65.246109 -13.603088
20.306861 -63.520344 -27.178304
20.647709 -63.782821 -26.354645
20.606645 -65.097485 -26.77773
19.894167 -63.038407 -27.995829
20.306861 -63.520344 -27.178304
22.667985 -96.308521 -27.373518
22.877224 -97.462581 -26.648073
22.142411 -97.186234 -27.887817
22.49415 -95.088299 -27.974385
23.228963 -95.364646 -26.734641
22.667985 -96.308521 -27.373518
11.120354 -106.450435 -27.531083
12.47795 -106.488022 -27.2147
12.170775 -106.902088 -26.237213
10.067131 -105.929241 -28.682541
11.120354 -106.450435 -27.531083
8.956336 -105.312629 -29.795151
10.316734 -105.419758 -29.621181
10.067131 -105.929241 -28.682541
21.820153 -57.383032 -21.936485
22.058764 -57.67877 -21.112099
21.820153 -57.383032 -21.936485
21.633445 -58.55994 -22.448807
20.982183 -58.925854 -24.537011
21.291658 -59.304747 -23.698235
20.870621 -60.134726 -24.953183
20.982183 -58.925854 -24.537011
27.045564 -87.762123 -0.660503
26.987799 -86.378246 -0.480083
27.101956 -89.203709 -0.86019
27.083296 -88.637767 -1.924989
27.045564 -87.762123 -0.660503
27.070943 -90.539089 -1.020098
27.101956 -89.203709 -0.86019
27.030532 -91.836303 -1.3356
27.099277 -91.376567 -2.440179
27.070943 -90.539089 -1.020098
20.482081 -102.187935 -1.270277
19.540689 -102.699131 -1.78291
21.153512 -102.386078 -2.336587
20.482081 -102.187935 -1.270277
20.970963 -103.146286 -3.864412
21.870323 -102.54113 -3.433224
21.153512 -102.386078 -2.336587
22.5119 -60.909502 -17.802777
22.629775 -61.027363 -16.944983
22.389619 -62.050667 -18.280412
22.418262 -60.775362 -18.629525
22.5119 -60.909502 -17.802777
22.846321 -88.03944 -27.779526
23.0516 -86.819615 -27.187356
23.392308 -88.306511 -26.705535
9.904487 -98.609752 -36.02682
11.064804 -98.347915 -35.807941
11.065953 -99.515087 -35.190363
24.193865 -72.308968 -6.67239
24.431348 -72.830082 -5.76078
24.111042 -72.946347 -7.60651
23.957489 -71.69688 -7.511906
24.193865 -72.308968 -6.67239
26.323686 -82.214989 -3.402069
26.505709 -82.738919 -2.288825
26.145585 -81.663983 -4.442911
26.323686 -82.214989 -3.402069
26.354458 -83.032498 -4.53928
25.950343 -81.210926 -5.477793
26.145585 -81.663983 -4.442911
25.970278 -81.956119 -6.614376
25.744264 -80.685554 -6.512047
25.950343 -81.210926 -5.477793
25.59724 -95.373272 2.452268
25.178833 -96.435967 2.025711
25.933616 -95.16602 1.31544
25.59724 -95.373272 2.452268
25.909675 -96.099777 -0.080093
26.271845 -94.93745 0.220115
25.933616 -95.16602 1.31544
12.665499 -107.920749 -20.507951
13.140165 -107.872002 -21.62566
13.901525 -107.944111 -20.131114
11.587571 -106.181816 -10.671098
12.813271 -106.283158 -10.312405
22.873654 -66.649189 -11.798157
22.880886 -65.560242 -11.610639
22.969413 -66.332783 -11.004734
19.535489 -67.68195 -29.852621
19.363619 -68.745571 -30.346446
21.468969 -97.992325 -28.457305
21.551085 -99.097725 -27.835252
20.668405 -98.749756 -29.130184
22.142411 -97.186234 -27.887817
21.468969 -97.992325 -28.457305
26.663323 -84.062084 -2.368084
26.505709 -82.738919 -2.288825
26.71406 -84.990196 -3.679669
26.663323 -84.062084 -2.368084
26.844825 -85.468777 -2.549314
24.066446 -99.317059 -0.370929
24.149949 -98.418442 1.167666
24.027763 -100.112679 -1.906416
24.585912 -99.257069 -1.464768
24.066446 -99.317059 -0.370929
23.916631 -100.891873 -3.396033
24.027763 -100.112679 -1.906416
23.397164 -100.951862 -2.302194
22.486903 -102.516197 -4.37643
22.669452 -101.755989 -2.848606
21.870323 -102.54113 -3.433224
22.787956 -79.371998 -25.924383
23.150604 -80.822506 -25.446933
22.78135 -78.102818 -25.457626
22.787956 -79.371998 -25.924383
22.439408 -78.019471 -26.411402
20.696305 -73.947186 -29.141523
21.236747 -74.456688 -28.200306
20.300359 -72.282742 -29.469435
20.696305 -73.947186 -29.141523
19.848244 -70.592819 -29.938587
20.384961 -71.04153 -29.044902
20.300359 -72.282742 -29.469435
19.363619 -68.745571 -30.346446
19.848244 -70.592819 -29.938587
22.452811 -58.012743 -19.389487
22.401488 -59.460924 -18.997374
22.24971 -57.844684 -20.242036
22.452811 -58.012743 -19.389487
22.071487 -59.121736 -20.712921
22.058764 -57.67877 -21.112099
22.24971 -57.844684 -20.242036
17.742171 -103.518067 -2.899031
18.639634 -103.176559 -2.378315
17.43691 -104.260765 -4.498517
17.742171 -103.518067 -2.899031
23.492764 -83.470238 -25.434936
23.499219 -82.218918 -24.906544
23.820674 -83.499489 -24.418222
23.373074 -84.542729 -26.002212
23.705903 -85.918747 -25.529989
23.264758 -85.710667 -26.585589
23.492764 -83.470238 -25.434936
23.373074 -84.542729 -26.002212
18.983499 -100.131126 -30.157684
19.821291 -99.41592 -29.712323
19.912729 -100.570362 -28.953492
17.951056 -99.620239 -31.355243
18.983499 -100.131126 -30.157684
18.042493 -100.774681 -30.596412
16.839842 -99.07705 -32.490628
17.951056 -99.620239 -31.355243
16.839842 -99.07705 -32.490628
15.85176 -99.565132 -32.898229
13.45987 -99.05986 -34.486986
14.684787 -99.92041 -33.418663
13.451188 -100.1138 -33.903162
13.45987 -99.05986 -34.486986
12.297722 -98.143822 -35.449096
7.937548 -104.605232 -30.854062
8.956336 -105.312629 -29.795151
8.08377 -103.998997 -31.726832
7.937548 -104.605232 -30.854062
8.267002 -103.305603 -32.603241
9.389171 -104.109752 -31.6102
8.08377 -103.998997 -31.726832
8.365974 -102.483986 -33.459333
8.267002 -103.305603 -32.603241
8.443043 -101.628986 -34.255262
9.649472 -102.56136 -33.282539
8.365974 -102.483986 -33.459333
8.52675 -100.661049 -35.005261
8.443043 -101.628986 -34.255262
8.616298 -99.696331 -35.670647
9.816088 -100.741642 -34.743854
8.52675 -100.661049 -35.005261
8.678604 -98.607155 -36.294557
8.616298 -99.696331 -35.670647
9.904487 -98.609752 -36.02682
8.678604 -98.607155 -36.294557
23.074973 -66.94521 -10.353989
22.969413 -66.332783 -11.004734
23.10576 -68.112983 -10.495135
23.074973 -66.94521 -10.353989
23.218552 -67.636463 -9.656872
23.732866 -69.232849 -7.364161
23.821538 -70.464123 -7.416603
23.542384 -68.754757 -8.186444
23.732866 -69.232849 -7.364161
23.426051 -69.33649 -9.02672
23.365671 -68.222504 -8.957743
23.542384 -68.754757 -8.186444
24.990186 -76.601669 -6.084805
24.785666 -75.235039 -5.903077
24.979717 -77.298225 -7.168013
24.990186 -76.601669 -6.084805
25.245997 -77.980293 -6.221398
25.499864 -80.053798 -7.476618
25.479928 -79.308605 -6.340035
25.744264 -80.685554 -6.512047
26.874843 -92.19931 -0.150018
26.733897 -92.465832 0.990487
26.903178 -93.036789 -1.570099
27.030532 -91.836303 -1.3356
26.874843 -92.19931 -0.150018
26.497697 -94.635502 -0.779967
26.521638 -93.701744 0.615565
26.271845 -94.93745 0.220115
14.119036 -107.483952 -23.655921
14.882791 -107.657512 -22.265315
13.612435 -107.721802 -22.639429
13.188526 -107.243957 -24.975433
14.458882 -107.179668 -24.601318
14.119036 -107.483952 -23.655921
12.170775 -106.902088 -26.237213
13.188526 -107.243957 -24.975433
17.154504 -104.925346 -6.04316
18.169634 -104.610672 -5.503227
17.43691 -104.260765 -4.498517
16.77903 -105.536751 -7.585439
17.154504 -104.925346 -6.04316
16.046306 -105.186844 -6.580728
14.487617 -105.830624 -8.461032
14.965412 -105.320541 -7.023411
15.184815 -106.26638 -9.605392
14.487617 -105.830624 -8.461032
14.001599 -106.298755 -9.943417
11.04291 -106.521241 -12.131563
11.587571 -106.181816 -10.671098
10.350492 -106.765991 -13.595816
9.664502 -106.918362 -14.916052
11.629723 -106.948067 -13.290007
11.04291 -106.521241 -12.131563
10.350492 -106.765991 -13.595816
12.124059 -107.895798 -19.348132
12.817096 -107.866825 -17.92201
11.514294 -107.769764 -18.256737
12.665499 -107.920749 -20.507951
12.124059 -107.895798 -19.348132
22.84509 -64.789785 -12.135434
22.880886 -65.560242 -11.610639
22.84509 -64.789785 -12.135434
22.763038 -65.008194 -12.854084
22.602307 -65.592701 -15.226812
22.640688 -65.41219 -14.40383
22.634034 -66.532989 -14.72505
22.555523 -64.47179 -15.730159
22.602307 -65.592701 -15.226812
22.548869 -65.592591 -16.051379
22.570006 -63.393937 -16.168877
22.555523 -64.47179 -15.730159
22.492671 -63.328243 -17.004194
22.560592 -62.2505 -16.618346
22.570006 -63.393937 -16.168877
20.802652 -61.392657 -25.397068
20.870621 -60.134726 -24.953183
21.128999 -61.703366 -24.525727
20.704478 -62.583489 -25.862416
21.004262 -64.160629 -25.461841
20.647709 -63.782821 -26.354645
20.802652 -61.392657 -25.397068
20.704478 -62.583489 -25.862416
19.617314 -66.50441 -29.382154
20.014671 -68.174069 -29.043586
19.535489 -67.68195 -29.852621
19.73607 -65.395893 -28.90735
19.617314 -66.50441 -29.382154
19.820721 -64.315133 -28.421484
20.181146 -65.915768 -28.087255
19.73607 -65.395893 -28.90735
19.894167 -63.038407 -27.995829
19.820721 -64.315133 -28.421484
22.251435 -93.857971 -28.560014
22.49415 -95.088299 -27.974385
22.741119 -92.854767 -27.975451
22.251435 -93.857971 -28.560014
23.100245 -91.791687 -27.412064
23.414253 -93.081345 -26.77212
22.741119 -92.854767 -27.975451
22.80707 -90.545723 -27.95655
23.480204 -90.772301 -26.753219
23.100245 -91.791687 -27.412064
22.53015 -89.187603 -28.386112
22.80707 -90.545723 -27.95655
22.846321 -88.03944 -27.779526
22.53015 -89.187603 -28.386112
3 0 65 63
3 1 257 259
3 259 258 67
3 257 258 259
3 1 260 262
3 260 68 261
3 260 261 262
3 3 263 265
3 263 70 264
3 263 264 265
3 3 72 70
3 3 74 72
3 2 77 75
3 266 78 267
3 4 81 79
3 6 84 82
3 6 86 84
3 7 89 87
3 8 92 90
3 8 94 92
3 268 95 269
3 270 97 271
3 272 271 95
3 270 271 272
3 10 99 98
3 10 101 99
3 10 103 101
3 11 106 104
3 11 108 106
3 12 273 274
3 12 275 277
3 275 109 276
3 275 276 277
3 12 111 109
3 13 114 112
3 13 116 114
3 13 118 116
3 14 121 119
3 14 123 121
3 9 126 124
3 15 129 127
3 15 131 129
3 5 134 132
3 16 137 135
3 16 139 137
3 16 141 139
3 279 278 142
3 17 146 144
3 19 147 64
3 19 148 147
3 20 151 149
3 22 152 66
3 22 153 152
3 23 280 281
3 23 282 284
3 282 154 283
3 282 283 284
3 23 156 154
3 25 157 69
3 25 158 157
3 285 160 286
3 27 161 71
3 27 162 161
3 27 164 162
3 29 165 73
3 29 166 165
3 30 169 167
3 32 170 76
3 32 171 170
3 287 174 288
3 289 288 172
3 287 288 289
3 290 175 291
3 292 176 293
3 294 293 175
3 292 293 294
3 295 178 296
3 297 296 176
3 295 296 297
3 35 298 300
3 298 179 299
3 298 299 300
3 35 180 179
3 36 183 181
3 38 184 80
3 38 185 184
3 18 186 145
3 39 187 83
3 39 188 187
3 39 189 188
3 302 301 85
3 40 192 190
3 42 193 88
3 42 194 193
3 21 195 150
3 43 196 91
3 43 197 196
3 43 303 305
3 305 304 197
3 303 304 305
3 307 306 93
3 308 198 309
3 44 310 312
3 310 199 311
3 310 311 312
3 44 200 199
3 44 201 200
3 45 202 96
3 45 203 202
3 313 204 314
3 46 205 100
3 46 206 205
3 46 207 206
3 47 208 102
3 47 209 208
3 24 210 155
3 48 211 105
3 48 212 211
3 48 213 212
3 49 214 107
3 49 215 214
3 315 216 316
3 50 217 110
3 50 218 217
3 26 219 159
3 51 220 113
3 51 221 220
3 51 222 221
3 52 223 115
3 52 224 223
3 52 225 224
3 53 226 117
3 53 227 226
3 28 228 163
3 54 229 120
3 54 230 229
3 54 231 230
3 318 317 122
3 319 232 320
3 55 321 323
3 321 233 322
3 321 322 323
3 55 234 233
3 324 235 325
3 326 236 327
3 328 327 235
3 326 327 328
3 330 329 236
3 56 331 333
3 333 332 125
3 331 332 333
3 56 334 335
3 31 237 168
3 57 238 128
3 57 239 238
3 57 240 239
3 58 241 130
3 58 242 241
3 37 243 182
3 59 244 133
3 59 245 244
3 33 246 173
3 60 247 136
3 60 248 247
3 60 249 248
3 61 250 138
3 61 251 250
3 61 252 251
3 62 336 338
3 338 337 140
3 336 337 338
3 62 339 340
3 34 253 177
3 41 254 191
3 341 255 342
3 343 342 143
3 341 342 343
3 344 256 345
3 346 345 255
3 344 345 346
3 63 64 17
3 65 64 63
3 65 19 64
3 347 66 348
3 349 348 20
3 347 348 349
3 350 66 351
3 352 22 353
3 354 353 66
3 352 353 354
3 67 355 356
3 358 357 67
3 68 359 360
3 68 361 362
3 363 23 364
3 365 69 366
3 367 366 23
3 365 366 367
3 368 69 369
3 370 25 371
3 372 371 69
3 370 371 372
3 70 373 374
3 70 375 376
3 70 377 379
3 377 71 378
3 377 378 379
3 72 71 70
3 72 27 71
3 72 73 27
3 74 73 72
3 74 29 73
3 75 76 30
3 77 76 75
3 77 32 76
3 78 380 381
3 78 382 384
3 382 35 383
3 382 383 384
3 79 80 36
3 81 80 79
3 81 38 80
3 82 83 18
3 84 83 82
3 84 39 83
3 84 85 39
3 86 85 84
3 86 385 387
3 387 386 85
3 385 386 387
3 87 88 40
3 89 88 87
3 89 42 88
3 90 91 21
3 92 91 90
3 92 43 91
3 92 93 43
3 94 93 92
3 94 388 390
3 390 389 93
3 388 389 390
3 95 391 392
3 95 393 395
3 393 44 394
3 393 394 395
3 95 96 44
3 97 96 95
3 97 45 96
3 98 396 397
3 99 398 400
3 400 399 98
3 398 399 400
3 99 401 402
3 99 403 405
3 403 100 404
3 403 404 405
3 101 100 99
3 101 46 100
3 101 102 46
3 103 102 101
3 103 47 102
3 104 105 24
3 106 105 104
3 106 48 105
3 106 107 48
3 108 107 106
3 108 49 107
3 109 406 407
3 109 408 409
3 109 410 412
3 410 110 411
3 410 411 412
3 111 110 109
3 111 50 110
3 112 113 26
3 114 113 112
3 114 51 113
3 114 115 51
3 116 115 114
3 116 52 115
3 116 117 52
3 118 117 116
3 118 53 117
3 119 120 28
3 121 120 119
3 121 54 120
3 121 122 54
3 123 122 121
3 123 413 415
3 415 414 122
3 413 414 415
3 416 55 417
3 124 418 420
3 418 125 419
3 418 419 420
3 126 125 124
3 126 56 125
3 127 128 31
3 129 128 127
3 129 57 128
3 129 130 57
3 131 130 129
3 131 58 130
3 132 133 37
3 134 133 132
3 134 59 133
3 135 136 33
3 137 136 135
3 137 60 136
3 137 138 60
3 139 138 137
3 139 61 138
3 139 140 61
3 141 140 139
3 141 62 140
3 422 421 34
3 142 143 41
3 423 143 424
3 425 424 142
3 423 424 425
3 427 426 143
3 144 145 4
3 146 145 144
3 146 18 145
3 64 146 17
3 147 146 64
3 147 18 146
3 147 82 18
3 148 82 147
3 148 6 82
3 149 150 7
3 151 150 149
3 151 21 150
3 66 151 20
3 152 151 66
3 152 21 151
3 152 90 21
3 153 90 152
3 153 8 90
3 428 98 429
3 154 430 432
3 430 98 431
3 430 431 432
3 154 10 98
3 154 155 10
3 156 155 154
3 156 24 155
3 69 156 23
3 157 156 69
3 157 24 156
3 157 104 24
3 158 104 157
3 158 11 104
3 433 12 434
3 435 159 436
3 437 436 12
3 435 436 437
3 160 438 440
3 438 159 439
3 438 439 440
3 160 26 159
3 71 441 443
3 441 160 442
3 441 442 443
3 161 160 71
3 161 26 160
3 161 112 26
3 162 112 161
3 162 13 112
3 162 163 13
3 164 163 162
3 164 28 163
3 73 164 27
3 165 164 73
3 165 28 164
3 165 119 28
3 166 119 165
3 166 14 119
3 167 168 9
3 169 168 167
3 169 31 168
3 76 169 30
3 170 169 76
3 170 31 169
3 170 127 31
3 171 127 170
3 171 15 127
3 172 173 5
3 174 173 172
3 174 33 173
3 444 174 445
3 175 446 448
3 446 174 447
3 446 447 448
3 175 33 174
3 175 135 33
3 176 135 175
3 176 16 135
3 176 177 16
3 178 177 176
3 178 34 177
3 449 178 450
3 451 178 452
3 453 34 454
3 455 454 178
3 453 454 455
3 457 456 34
3 179 458 459
3 179 460 461
3 179 462 464
3 462 67 463
3 462 463 464
3 180 67 179
3 180 1 67
3 465 3 466
3 468 467 3
3 181 182 2
3 183 182 181
3 183 37 182
3 80 183 36
3 184 183 80
3 184 37 183
3 184 132 37
3 185 132 184
3 185 5 132
3 145 81 4
3 186 81 145
3 186 38 81
3 83 186 18
3 187 186 83
3 187 38 186
3 187 185 38
3 188 185 187
3 188 5 185
3 188 172 5
3 189 172 188
3 189 469 471
3 471 470 172
3 469 470 471
3 85 189 39
3 472 189 473
3 474 473 85
3 472 473 474
3 476 475 189
3 190 191 0
3 192 191 190
3 192 41 191
3 88 192 40
3 193 192 88
3 193 41 192
3 193 142 41
3 194 142 193
3 194 477 479
3 479 478 142
3 477 478 479
3 150 89 7
3 195 89 150
3 195 42 89
3 91 195 21
3 196 195 91
3 196 42 195
3 196 194 42
3 197 194 196
3 197 480 482
3 482 481 194
3 480 481 482
3 197 483 484
3 486 485 197
3 93 487 489
3 489 488 43
3 487 488 489
3 491 490 93
3 492 22 493
3 494 22 495
3 496 153 497
3 498 497 22
3 496 497 498
3 499 153 500
3 501 8 502
3 503 502 153
3 501 502 503
3 504 8 505
3 506 94 507
3 508 507 8
3 506 507 508
3 509 94 510
3 512 511 94
3 513 124 514
3 198 515 517
3 515 124 516
3 515 516 517
3 198 9 124
3 199 518 519
3 199 520 521
3 199 522 524
3 522 198 523
3 522 523 524
3 200 198 199
3 200 9 198
3 200 167 9
3 201 167 200
3 201 30 167
3 96 201 44
3 202 201 96
3 202 30 201
3 202 75 30
3 203 75 202
3 203 2 75
3 525 97 526
3 204 527 529
3 527 97 528
3 527 528 529
3 204 45 97
3 100 530 532
3 530 204 531
3 530 531 532
3 205 204 100
3 205 45 204
3 205 203 45
3 206 203 205
3 206 2 203
3 206 181 2
3 207 181 206
3 207 36 181
3 102 207 46
3 208 207 102
3 208 36 207
3 208 79 36
3 209 79 208
3 209 4 79
3 155 103 10
3 210 103 155
3 210 47 103
3 105 210 24
3 211 210 105
3 211 47 210
3 211 209 47
3 212 209 211
3 212 4 209
3 212 144 4
3 213 144 212
3 213 17 144
3 107 213 48
3 214 213 107
3 214 17 213
3 214 63 17
3 215 63 214
3 215 0 63
3 216 533 534
3 216 535 537
3 535 25 536
3 535 536 537
3 110 538 540
3 538 216 539
3 538 539 540
3 217 216 110
3 217 25 216
3 217 158 25
3 218 158 217
3 218 11 158
3 159 111 12
3 219 111 159
3 219 50 111
3 113 219 26
3 220 219 113
3 220 50 219
3 220 218 50
3 221 218 220
3 221 11 218
3 221 108 11
3 222 108 221
3 222 49 108
3 115 222 51
3 223 222 115
3 223 49 222
3 223 215 49
3 224 215 223
3 224 0 215
3 224 190 0
3 225 190 224
3 225 40 190
3 117 225 52
3 226 225 117
3 226 40 225
3 226 87 40
3 227 87 226
3 227 7 87
3 163 118 13
3 228 118 163
3 228 53 118
3 120 228 28
3 229 228 120
3 229 53 228
3 229 227 53
3 230 227 229
3 230 7 227
3 230 149 7
3 231 149 230
3 231 20 149
3 122 231 54
3 541 231 542
3 543 542 122
3 541 542 543
3 544 20 545
3 546 545 231
3 544 545 546
3 548 547 20
3 549 74 550
3 551 550 3
3 549 550 551
3 232 552 554
3 552 74 553
3 552 553 554
3 232 29 74
3 555 232 556
3 233 557 559
3 557 232 558
3 557 558 559
3 233 29 232
3 233 166 29
3 234 166 233
3 234 14 166
3 560 55 561
3 235 562 563
3 235 564 566
3 564 55 565
3 564 565 566
3 235 234 55
3 236 234 235
3 236 14 234
3 236 123 14
3 567 123 568
3 569 568 236
3 567 568 569
3 571 570 123
3 125 572 573
3 575 574 125
3 168 126 9
3 237 126 168
3 237 56 126
3 128 237 31
3 238 237 128
3 238 56 237
3 238 576 578
3 578 577 56
3 576 577 578
3 239 579 581
3 581 580 238
3 579 580 581
3 239 582 583
3 239 584 586
3 584 78 585
3 584 585 586
3 240 78 239
3 240 35 78
3 130 240 57
3 241 240 130
3 241 35 240
3 241 180 35
3 242 180 241
3 242 1 180
3 182 77 2
3 243 77 182
3 243 32 77
3 133 243 37
3 244 243 133
3 244 32 243
3 244 171 32
3 245 171 244
3 245 15 171
3 173 134 5
3 246 134 173
3 246 59 134
3 136 246 33
3 247 246 136
3 247 59 246
3 247 245 59
3 248 245 247
3 248 15 245
3 248 131 15
3 249 131 248
3 249 58 131
3 138 249 60
3 250 249 138
3 250 58 249
3 250 242 58
3 251 242 250
3 251 1 242
3 251 68 1
3 252 68 251
3 252 587 589
3 589 588 68
3 587 588 589
3 140 252 61
3 590 252 591
3 592 591 140
3 590 591 592
3 594 593 252
3 177 141 16
3 253 141 177
3 253 62 141
3 595 253 596
3 597 596 34
3 595 596 597
3 598 253 599
3 600 62 601
3 602 601 253
3 600 601 602
3 604 603 62
3 191 65 0
3 254 65 191
3 254 19 65
3 143 254 41
3 255 254 143
3 255 19 254
3 255 148 19
3 256 148 255
3 256 6 148
3 605 256 606
3 607 256 608
3 609 6 610
3 611 610 256
3 609 610 611
3 612 86 613
3 614 613 6
3 612 613 614
3 615 86 616
3 618 617 86
