ply
format ascii 1.0
element vertex 411
property float x
property float y
property float z
element face 431
property list uchar int vertex_index
end_header
-30.491217 -46.420429 9.835872
-30.386616 -47.858967 27.739241
-30.183189 -55.922695 40.520325
-30.276159 -47.993801 36.287872
-28.126276 -57.573799 12.193204
-30.635908 -47.285416 18.872149
-31.356112 -36.445007 25.68078
-32.956169 -34.974724 17.389816
-30.362463 -51.368496 42.145111
-30.319075 -52.294109 38.163376
-30.267128 -47.834332 40.105358
-30.224943 -54.232349 44.906944
-29.148973 -52.14209 10.88497
-27.506269 -56.934261 7.429695
-30.165236 -45.762459 5.272201
-30.079599 -53.171291 29.280075
-29.960217 -52.998615 24.748381
-29.784655 -52.946308 20.254616
-30.509933 -47.707867 23.257046
-32.097111 -29.785362 25.104902
-32.176178 -35.558521 21.661152
-33.21207 -28.946411 21.177011
-30.020645 -57.241795 35.973682
-30.223713 -52.850487 33.920994
-30.302925 -48.042149 32.147114
-28.710236 -57.900925 17.149403
-29.49917 -52.713528 15.486745
-30.679102 -46.768402 14.420677
-30.167894 -43.077381 34.789783
-30.411425 -42.904785 30.736109
-30.799004 -42.204433 26.575027
-31.236755 -42.032249 22.291868
-31.670443 -41.552063 18.071678
-31.98892 -40.977417 13.571249
-30.333302 -49.242241 42.779156
-30.335917 -49.628315 41.022503
-30.263813 -47.717602 41.96595
-30.353584 -50.44109 43.97818
-29.81595 -49.258118 10.487147
-28.942884 -51.813686 8.667343
-29.615316 -48.98634 8.086806
-30.403902 -45.936172 7.601927
-30.235735 -50.42305 28.5399
-30.032715 -52.955845 27.067362
-30.230976 -50.356098 26.32477
-30.210363 -50.440346 23.997688
-30.449162 -47.762844 25.501717
-32.50341 -26.281773 24.918062
-32.637669 -29.472332 23.16316
-29.952072 -58.386257 39.558891
-29.863108 -59.047108 37.250355
-30.12254 -56.531944 38.196186
-30.314716 -50.212364 37.236263
-30.280941 -52.483871 36.034592
-30.293415 -50.321072 35.040688
-30.262503 -50.666271 32.835613
-30.285158 -47.957752 34.184811
-30.217972 -55.188141 42.665703
-30.037193 -56.653946 44.107307
-29.993259 -57.745651 41.890869
-27.416929 -59.919292 10.536277
-30.165369 -50.241531 19.427572
-29.6658 -52.810631 17.867956
-30.09849 -50.175407 17.228275
-30.035139 -49.872124 14.922357
-30.633883 -47.24295 16.592897
-30.272791 -42.730141 32.779762
-31.000599 -36.465061 27.701996
-30.769859 -39.570644 28.159216
-31.04574 -39.33374 26.191507
-31.011803 -42.168171 24.450638
-31.353497 -39.173161 24.081451
-32.56155 -35.495132 19.4387
-31.983608 -38.639599 19.914385
-32.298904 -38.327686 17.66518
-31.873751 -41.183186 15.821004
-32.563076 -38.006104 15.449482
-30.316832 -53.533024 41.33992
-30.280542 -54.096565 39.200172
-30.347885 -51.804626 40.182812
-30.329823 -50.065395 39.161098
-30.275316 -48.068306 38.295181
-30.329931 -52.821808 43.505791
-28.596312 -54.951279 11.621951
-27.824711 -57.347683 9.902024
-28.349817 -54.554131 9.242258
-28.060974 -54.191154 6.848154
-29.932507 -55.676193 30.264874
-29.748341 -55.47213 25.809195
-29.598648 -55.657608 23.409246
-29.46841 -55.496616 21.106749
-29.883635 -52.993202 22.540712
-30.201477 -50.31797 21.73934
-30.559633 -47.643017 21.05372
-31.728361 -33.061836 25.321177
-31.757275 -35.869675 23.760973
-32.188328 -32.63118 23.46032
-32.673912 -32.449375 21.348959
-33.130039 -32.09296 19.384472
-29.916178 -57.568901 33.64603
-30.226477 -54.57914 37.030453
-30.150579 -55.067974 34.952785
-30.057905 -55.281075 32.594154
-30.151346 -53.091888 31.587477
-30.239628 -50.648235 30.756084
-30.334015 -48.013992 29.931549
-28.429142 -57.756611 14.642009
-29.302137 -55.378773 18.76502
-29.085026 -55.301586 16.332142
-28.827875 -55.227039 13.889509
-29.333282 -52.429737 13.12332
-29.935953 -49.58049 12.663248
-30.588783 -46.69524 12.111073
-30.165064 -45.818546 39.348103
-30.182003 -45.60516 37.489235
-30.22035 -45.60955 35.570644
-30.274158 -45.449593 33.487556
-30.346823 -45.449844 31.409485
-30.441898 -45.438625 29.255987
-30.514158 -39.822083 30.176548
-30.584259 -42.559952 28.684519
-30.563721 -45.215839 27.17293
-30.698893 -45.06546 25.03688
-30.845306 -44.892605 22.889452
-30.991978 -44.696461 20.723072
-31.673717 -38.829308 22.057241
-31.486727 -41.621368 20.2006
-31.10754 -44.571426 18.478754
-31.251373 -44.145069 16.241928
-31.271137 -44.085789 13.96193
-31.283676 -43.799919 11.731889
-32.063736 -40.670712 11.358313
-31.297733 -43.296104 9.458395
-31.21649 -42.962482 7.27678
-30.260061 -47.648777 42.638827
-30.298558 -48.479922 42.372553
-30.294806 -48.411096 43.045429
-30.294806 -48.411096 43.045429
-30.311969 -48.828363 43.587492
-32.723702 -24.607007 24.765512
-32.391272 -24.789296 25.716144
-32.822322 -26.131335 23.905708
-32.723702 -24.607007 24.765512
-27.771603 -58.746545 11.36474
-27.606915 -59.952287 11.794539
-27.961589 -58.779541 12.623003
-31.178356 -36.455034 26.691388
-31.141322 -35.045618 27.434006
-31.319078 -35.035591 26.423398
-28.371749 -52.812528 6.537837
-28.501929 -53.00242 7.757748
-28.812704 -51.623795 7.447431
-27.87107 -54.109834 5.64886
-28.371749 -52.812528 6.537837
-29.633104 -47.063061 4.352463
-29.793581 -47.158806 5.52438
-30.090536 -45.473669 4.198134
-29.633104 -47.063061 4.352463
-29.957321 -54.392421 28.623414
-29.883775 -55.644872 29.115814
-30.006053 -54.423742 29.772475
-31.828446 -30.097598 26.038444
-31.999343 -28.332563 25.923656
-31.912736 -31.423599 25.21304
-31.644071 -31.735835 26.146582
-31.828446 -30.097598 26.038444
-29.867611 -58.523159 35.389972
-29.788843 -59.425815 36.028309
-29.941876 -58.144452 36.612018
-29.968411 -57.405348 34.809856
-29.815377 -58.686712 34.226146
-29.867611 -58.523159 35.389972
-30.129614 -54.897312 45.579641
-30.211193 -53.696891 45.935958
-29.886959 -57.381878 44.817405
-29.877369 -57.973015 43.651217
-27.289538 -58.262277 7.773266
-27.448759 -58.468989 9.009431
-27.66549 -57.140972 8.665859
-28.398958 -59.108854 16.326351
-28.542491 -59.173912 17.523754
-28.569689 -57.828768 15.895706
-28.258411 -59.036698 15.072654
-28.398958 -59.108854 16.326351
-30.094982 -44.640203 39.110981
-30.07804 -44.754425 40.031563
-30.103451 -44.53351 38.181547
-30.173534 -45.711853 38.418669
-30.094982 -44.640203 39.110981
-30.123059 -43.131701 35.846021
-30.081544 -41.918932 35.473421
-30.194122 -44.343466 35.180214
-30.149287 -44.397785 36.236452
-30.123059 -43.131701 35.846021
-30.594476 -38.347387 29.869746
-30.442416 -38.51223 30.880254
-32.083759 -40.459086 10.235693
-32.483825 -39.004576 11.225078
-31.700758 -41.771782 9.285734
-31.680734 -41.983408 10.408354
-32.083759 -40.459086 10.235693
-31.660137 -41.604971 8.194926
-31.257112 -43.129293 8.367587
-31.700758 -41.771782 9.285734
-30.32211 -49.427788 44.187004
-30.328915 -49.990565 44.923369
-30.343443 -49.841666 43.378668
-30.32211 -49.427788 44.187004
-30.311969 -48.828363 43.587492
-29.14892 -50.210121 7.157163
-28.812704 -51.623795 7.447431
-29.2791 -50.400013 8.377074
-29.518621 -48.770747 6.931683
-29.14892 -50.210121 7.157163
-29.912914 -47.245662 6.689243
-29.518621 -48.770747 6.931683
-30.009609 -47.461256 7.844366
-30.284569 -45.849316 6.437064
-29.793581 -47.158806 5.52438
-29.912914 -47.245662 6.689243
-32.202493 -26.580769 25.830236
-32.391272 -24.789296 25.716144
-32.300261 -28.033568 25.011482
-31.999343 -28.332563 25.923656
-32.202493 -26.580769 25.830236
-32.889452 -27.726615 23.028257
-32.57054 -27.877053 24.040611
-32.822322 -26.131335 23.905708
-33.176653 -27.463655 22.035182
-32.924869 -29.209372 22.170085
-32.889452 -27.726615 23.028257
-29.90759 -58.716683 38.404623
-29.732807 -60.006912 37.833117
-29.77729 -59.676487 38.987385
-29.855402 -58.518867 42.542997
-29.877369 -57.973015 43.651217
-30.015226 -57.199798 42.999088
-29.840203 -58.953418 41.334204
-29.855402 -58.518867 42.542997
-29.819609 -59.273722 40.168215
-29.840203 -58.953418 41.334204
-29.972665 -58.065954 40.72488
-29.77729 -59.676487 38.987385
-29.819609 -59.273722 40.168215
-27.277636 -61.183269 11.010828
-27.606915 -59.952287 11.794539
-27.111773 -60.987352 9.808656
-27.277636 -61.183269 11.010828
-27.093962 -58.154677 6.561806
-27.326312 -56.782533 6.229131
-28.835831 -57.927189 18.343809
-28.542491 -59.173912 17.523754
-30.151634 -41.740051 34.431452
-30.081544 -41.918932 35.473421
-30.204082 -41.566431 33.426441
-30.220343 -42.903761 33.784773
-30.151634 -41.740051 34.431452
-30.293539 -41.481366 32.402734
-30.204082 -41.566431 33.426441
-30.362856 -41.568687 31.380908
-30.342108 -42.817463 31.757935
-30.293539 -41.481366 32.402734
-30.924114 -35.107147 28.47231
-31.141322 -35.045618 27.434006
-30.837696 -36.668876 28.632469
-30.924114 -35.107147 28.47231
-30.885229 -38.017853 27.930606
-30.722326 -38.221668 28.86108
-30.837696 -36.668876 28.632469
-30.271338 -53.050855 45.163138
-30.211193 -53.696891 45.935958
-30.335658 -51.155226 44.698756
-30.328915 -49.990565 44.923369
-30.323831 -52.345585 44.462561
-30.335658 -51.155226 44.698756
-30.341757 -51.631449 43.741985
-30.277437 -53.527079 44.206367
-30.271338 -53.050855 45.163138
-30.323831 -52.345585 44.462561
-27.603665 -55.41098 5.93836
-27.326312 -56.782533 6.229131
-27.783622 -55.562708 7.138924
-27.603665 -55.41098 5.93836
-27.87107 -54.109834 5.64886
-29.792388 -56.845779 29.624053
-29.853493 -56.834671 30.790044
-29.792388 -56.845779 29.624053
-29.883775 -55.644872 29.115814
-29.933879 -54.284698 27.517057
-29.957321 -54.392421 28.623414
-30.056157 -53.063568 28.173718
-29.791692 -55.542841 26.887974
-29.933879 -54.284698 27.517057
-29.890528 -54.213988 26.438278
-29.624558 -56.820649 26.232658
-29.791692 -55.542841 26.887974
-29.550833 -56.784416 25.06465
-29.624558 -56.820649 26.232658
-29.475987 -56.877156 23.864676
-29.550833 -56.784416 25.06465
-29.673495 -55.564869 24.60922
-29.39102 -56.806296 22.654604
-29.475987 -56.877156 23.864676
-29.533529 -55.577112 22.257998
-29.325902 -56.7258 21.503355
-29.39102 -56.806296 22.654604
-31.505203 -33.344006 26.243596
-31.644071 -31.735835 26.146582
-31.542237 -34.753422 25.500978
-31.319078 -35.035591 26.423398
-31.505203 -33.344006 26.243596
-29.684194 -60.282463 36.699009
-29.732807 -60.006912 37.833117
-29.684194 -60.282463 36.699009
-29.788843 -59.425815 36.028309
-29.746986 -58.881859 33.045496
-29.815377 -58.686712 34.226146
-29.845329 -57.781025 32.480622
-29.746986 -58.881859 33.045496
-29.916192 -56.637112 31.954684
-29.845329 -57.781025 32.480622
-29.987042 -56.424988 33.120092
-29.995206 -55.478634 31.429514
-29.853493 -56.834671 30.790044
-29.916192 -56.637112 31.954684
-30.035739 -56.10811 45.179823
-30.129614 -54.897312 45.579641
-30.131068 -55.443147 44.507126
-30.035739 -56.10811 45.179823
-29.886959 -57.381878 44.817405
-27.244868 -59.754793 9.326557
-27.62082 -58.633488 10.219151
-27.448759 -58.468989 9.009431
-27.111773 -60.987352 9.808656
-27.244868 -59.754793 9.326557
-27.289538 -58.262277 7.773266
-27.093962 -58.154677 6.561806
-28.113022 -58.870947 13.847405
-28.258411 -59.036698 15.072654
-28.277709 -57.665205 13.417606
-27.961589 -58.779541 12.623003
-28.113022 -58.870947 13.847405
-29.214918 -56.725035 20.322482
-29.325902 -56.7258 21.503355
-29.131781 -56.666113 19.151617
-29.214918 -56.725035 20.322482
-29.385273 -55.437695 19.935885
-29.006186 -56.639849 17.957211
-28.835831 -57.927189 18.343809
-29.131781 -56.666113 19.151617
-30.203509 -46.853495 42.452566
-30.260061 -47.648777 42.638827
-30.204614 -46.782429 41.601833
-30.203509 -46.853495 42.452566
-30.206272 -46.840794 40.671537
-30.26547 -47.775967 41.035654
-30.204614 -46.782429 41.601833
-30.15524 -45.832901 40.29291
-30.07804 -44.754425 40.031563
-30.216096 -46.826439 39.726731
-30.206272 -46.840794 40.671537
-30.15524 -45.832901 40.29291
-30.130114 -44.39559 37.195747
-30.103451 -44.53351 38.181547
-30.201177 -45.607355 36.529939
-30.130114 -44.39559 37.195747
-30.149287 -44.397785 36.236452
-30.414223 -40.027337 31.101127
-30.442416 -38.51223 30.880254
-30.462792 -41.363434 30.456328
-30.362856 -41.568687 31.380908
-30.414223 -40.027337 31.101127
-30.642008 -39.696364 29.167882
-30.594476 -38.347387 29.869746
-30.722326 -38.221668 28.86108
-33.504953 -27.112093 21.047653
-33.176653 -27.463655 22.035182
-33.476748 -28.74018 20.198565
-33.504953 -27.112093 21.047653
-33.435732 -30.313454 19.302295
-33.171054 -30.519686 20.280741
-33.476748 -28.74018 20.198565
-33.35588 -31.851225 18.377639
-33.435732 -30.313454 19.302295
-33.268946 -33.292108 17.380311
-33.043104 -33.533842 18.387144
-33.35588 -31.851225 18.377639
-33.11096 -34.848152 16.330644
-33.268946 -33.292108 17.380311
-32.914414 -36.363843 15.360477
-32.759623 -36.490414 16.419649
-33.11096 -34.848152 16.330644
-32.663925 -37.84244 14.365406
-32.914414 -36.363843 15.360477
-32.376847 -39.328097 13.426289
-32.275998 -39.49176 14.510365
-32.663925 -37.84244 14.365406
-32.414255 -39.174744 12.319821
-32.483825 -39.004576 11.225078
-32.026328 -40.824065 12.464781
-32.376847 -39.328097 13.426289
-32.414255 -39.174744 12.319821
-31.657208 -41.378218 7.13844
-31.660137 -41.604971 8.194926
-31.136702 -42.842415 6.22161
-31.657208 -41.378218 7.13844
-30.611075 -44.242403 5.219321
-30.690863 -44.362471 6.27449
-31.136702 -42.842415 6.22161
-30.090536 -45.473669 4.198134
-30.611075 -44.242403 5.219321
3 134 36 135
3 136 135 34
3 134 135 136
3 137 34 138
3 0 40 38
3 0 41 40
3 1 44 42
3 1 46 44
3 139 47 140
3 142 141 47
3 2 51 49
3 3 54 52
3 3 56 54
3 2 59 57
3 2 49 59
3 4 143 145
3 143 60 144
3 143 144 145
3 5 63 61
3 5 65 63
3 6 146 148
3 146 67 147
3 146 147 148
3 6 69 67
3 6 71 69
3 7 74 72
3 7 76 74
3 8 79 77
3 10 80 35
3 10 81 80
3 8 82 37
3 8 77 82
3 12 85 83
3 149 86 150
3 151 150 39
3 149 150 151
3 153 152 86
3 14 154 155
3 14 156 157
3 15 158 160
3 160 159 87
3 158 159 160
3 16 88 43
3 16 89 88
3 16 91 89
3 18 92 45
3 18 93 92
3 19 161 162
3 19 163 165
3 163 94 164
3 163 164 165
3 19 96 94
3 21 97 48
3 21 98 97
3 22 166 168
3 168 167 50
3 166 167 168
3 22 169 171
3 169 99 170
3 169 170 171
3 9 100 78
3 23 101 53
3 23 102 101
3 23 103 102
3 24 104 55
3 24 105 104
3 11 172 173
3 175 174 58
3 13 176 178
3 178 177 84
3 176 177 178
3 25 179 180
3 25 181 183
3 181 106 182
3 181 182 183
3 17 107 90
3 26 108 62
3 26 109 108
3 26 110 109
3 27 111 64
3 27 112 111
3 184 113 185
3 186 114 187
3 188 187 113
3 186 187 188
3 28 189 190
3 28 191 193
3 191 115 192
3 191 192 193
3 28 116 115
3 29 117 66
3 29 118 117
3 194 119 195
3 30 120 68
3 30 121 120
3 30 122 121
3 31 123 70
3 31 124 123
3 20 125 95
3 32 126 73
3 32 127 126
3 32 128 127
3 33 129 75
3 33 130 129
3 196 131 197
3 198 132 199
3 200 199 131
3 198 199 200
3 201 133 202
3 203 202 132
3 201 202 203
3 34 35 8
3 36 35 34
3 36 10 35
3 204 37 205
3 34 206 208
3 206 37 207
3 206 207 208
3 34 8 37
3 38 39 12
3 40 39 38
3 40 209 211
3 211 210 39
3 209 210 211
3 40 212 213
3 41 214 216
3 216 215 40
3 214 215 216
3 41 217 219
3 217 14 218
3 217 218 219
3 42 43 15
3 44 43 42
3 44 16 43
3 44 45 16
3 46 45 44
3 46 18 45
3 47 220 221
3 47 222 224
3 222 19 223
3 222 223 224
3 47 48 19
3 225 48 226
3 227 226 47
3 225 226 227
3 228 21 229
3 230 229 48
3 228 229 230
3 49 231 233
3 231 50 232
3 231 232 233
3 51 50 49
3 51 22 50
3 52 53 9
3 54 53 52
3 54 23 53
3 54 55 23
3 56 55 54
3 56 24 55
3 57 58 11
3 59 58 57
3 59 234 236
3 236 235 58
3 234 235 236
3 59 237 238
3 49 239 241
3 241 240 59
3 239 240 241
3 49 242 243
3 60 244 245
3 60 246 247
3 249 248 13
3 250 25 251
3 61 62 17
3 63 62 61
3 63 26 62
3 63 64 26
3 65 64 63
3 65 27 64
3 252 28 253
3 254 66 255
3 256 255 28
3 254 255 256
3 257 66 258
3 259 29 260
3 261 260 66
3 259 260 261
3 67 262 263
3 67 264 265
3 67 266 268
3 266 68 267
3 266 267 268
3 69 68 67
3 69 30 68
3 69 70 30
3 71 70 69
3 71 31 70
3 72 73 20
3 74 73 72
3 74 32 73
3 74 75 32
3 76 75 74
3 76 33 75
3 77 78 2
3 79 78 77
3 79 9 78
3 35 79 8
3 80 79 35
3 80 9 79
3 80 52 9
3 81 52 80
3 81 3 52
3 269 11 270
3 37 271 272
3 82 273 275
3 275 274 37
3 273 274 275
3 82 276 278
3 276 11 277
3 276 277 278
3 82 57 11
3 77 57 82
3 77 2 57
3 83 84 4
3 85 84 83
3 85 13 84
3 39 85 12
3 86 85 39
3 86 13 85
3 86 279 281
3 281 280 13
3 279 280 281
3 283 282 86
3 87 284 285
3 287 286 87
3 43 288 290
3 290 289 15
3 288 289 290
3 88 291 293
3 293 292 43
3 291 292 293
3 88 294 295
3 88 296 297
3 89 298 300
3 300 299 88
3 298 299 300
3 89 301 302
3 89 303 305
3 303 90 304
3 303 304 305
3 91 90 89
3 91 17 90
3 45 91 16
3 92 91 45
3 92 17 91
3 92 61 17
3 93 61 92
3 93 5 61
3 94 306 307
3 94 308 310
3 308 6 309
3 308 309 310
3 94 95 6
3 96 95 94
3 96 20 95
3 48 96 19
3 97 96 48
3 97 20 96
3 97 72 20
3 98 72 97
3 98 7 72
3 50 311 312
3 314 313 50
3 99 315 316
3 99 317 318
3 78 51 2
3 100 51 78
3 100 22 51
3 53 100 9
3 101 100 53
3 101 22 100
3 101 99 22
3 102 99 101
3 102 319 321
3 321 320 99
3 319 320 321
3 102 322 324
3 322 87 323
3 322 323 324
3 103 87 102
3 103 15 87
3 55 103 23
3 104 103 55
3 104 15 103
3 104 42 15
3 105 42 104
3 105 1 42
3 58 325 327
3 327 326 11
3 325 326 327
3 329 328 58
3 84 60 4
3 330 60 331
3 332 331 84
3 330 331 332
3 334 333 60
3 336 335 13
3 106 337 338
3 106 339 341
3 339 4 340
3 339 340 341
3 90 342 343
3 107 344 346
3 346 345 90
3 344 345 346
3 107 347 349
3 347 25 348
3 347 348 349
3 62 107 17
3 108 107 62
3 108 25 107
3 108 106 25
3 109 106 108
3 109 4 106
3 109 83 4
3 110 83 109
3 110 12 83
3 64 110 26
3 111 110 64
3 111 12 110
3 111 38 12
3 112 38 111
3 112 0 38
3 350 36 351
3 352 36 353
3 354 10 355
3 356 355 36
3 354 355 356
3 113 357 358
3 113 359 361
3 359 10 360
3 359 360 361
3 113 81 10
3 114 81 113
3 114 3 81
3 362 114 363
3 115 364 366
3 364 114 365
3 364 365 366
3 115 3 114
3 115 56 3
3 116 56 115
3 116 24 56
3 66 116 28
3 117 116 66
3 117 24 116
3 117 105 24
3 118 105 117
3 118 1 105
3 119 367 368
3 119 369 371
3 369 29 370
3 369 370 371
3 68 372 374
3 372 119 373
3 372 373 374
3 120 119 68
3 120 29 119
3 120 118 29
3 121 118 120
3 121 1 118
3 121 46 1
3 122 46 121
3 122 18 46
3 70 122 30
3 123 122 70
3 123 18 122
3 123 93 18
3 124 93 123
3 124 5 93
3 95 71 6
3 125 71 95
3 125 31 71
3 73 125 20
3 126 125 73
3 126 31 125
3 126 124 31
3 127 124 126
3 127 5 124
3 127 65 5
3 128 65 127
3 128 27 65
3 75 128 32
3 129 128 75
3 129 27 128
3 129 112 27
3 130 112 129
3 130 0 112
3 375 21 376
3 377 21 378
3 379 98 380
3 381 380 21
3 379 380 381
3 382 98 383
3 384 7 385
3 386 385 98
3 384 385 386
3 387 7 388
3 389 76 390
3 391 390 7
3 389 390 391
3 392 76 393
3 394 33 395
3 396 395 76
3 394 395 396
3 131 397 398
3 131 399 401
3 399 33 400
3 399 400 401
3 131 130 33
3 132 130 131
3 132 0 130
3 132 41 0
3 133 41 132
3 133 14 41
3 402 133 403
3 404 133 405
3 406 14 407
3 408 407 133
3 406 407 408
3 410 409 14
