ply
format ascii 1.0
element vertex 651
property float x
property float y
property float z
element face 746
property list uchar int vertex_index
end_header
10.774954 83.594551 6.69945
5.583107 97.017273 -12.214788
-3.452244 93.456955 9.530544
-14.250804 107.228745 -12.825541
14.445807 75.427315 9.96898
4.764969 88.263931 8.058882
0.553652 97.086395 -1.984386
-10.101385 106.223206 -25.129707
-19.8785 106.40094 -24.944153
-15.78131 102.652748 -36.086388
1.058252 101.061424 -23.831718
11.057216 93.048004 -21.014462
-8.896947 102.263573 -0.979315
-4.306807 103.732971 -13.232364
-6.305811 86.78952 21.062933
1.826442 82.94294 18.219578
8.847392 78.932617 14.890977
12.542088 80.05941 8.303547
8.259385 85.666 7.341908
6.732028 89.677719 3.153274
-7.368177 103.862915 -30.361727
-13.043454 105.180893 -30.8752
-10.569942 102.141289 -35.742069
3.64982 99.410561 -17.989058
6.241457 97.362473 -22.545189
8.46483 95.451172 -16.885666
-10.633781 100.062721 5.46731
-6.204497 98.078629 4.732738
2.998762 97.405975 -7.049831
-1.788754 100.818565 -7.56439
0.762241 100.637291 -12.829229
-1.705058 102.951408 -18.854324
0.557608 79.485023 23.221088
4.373772 77.626297 21.426958
5.526759 81.022331 16.526861
-16.114195 106.123756 -6.081548
-18.753176 107.126221 -12.092445
10.009239 93.006241 -11.346598
0.839647 91.035126 8.539913
-1.572343 95.620453 3.829599
2.676294 92.911423 3.20684
-12.246848 107.284279 -19.295313
-17.111832 107.651215 -18.909557
-15.270865 107.01149 -25.316885
-17.907278 105.147476 -30.911139
-1.953897 101.583389 -29.390995
3.790611 98.149498 -28.013096
12.87429 90.963318 -15.439209
-13.343428 103.618004 0.006995
-11.49277 105.328522 -6.764976
-4.045904 99.911873 -1.638051
-6.788849 103.487556 -7.16234
-9.507905 106.035065 -13.050268
-7.143116 105.672546 -19.207327
-4.509726 104.152023 -24.537779
-5.011624 90.478188 15.327094
-3.541291 81.029999 25.091055
-2.212769 85.006035 19.639391
-0.868327 88.412331 14.104456
3.28132 85.930092 13.025321
6.779299 83.847816 11.695386
10.006962 81.570091 10.373031
-21.396233 106.527 -18.196274
11.66708 83.432129 5.424038
12.719615 81.597313 6.071642
11.595548 82.09893 7.371646
10.472222 84.971916 5.134821
9.708656 84.534256 6.950962
9.100993 86.337059 5.135484
-8.941618 103.16851 -33.155777
4.674606 98.309418 -15.122577
5.993382 97.584122 -17.507332
7.044124 96.33815 -14.565714
-5.669964 94.525024 10.135188
-7.145299 96.924911 7.738959
-4.841628 95.8041 7.243711
4.290121 97.328453 -9.70747
1.853644 99.145378 -9.879713
3.203295 98.869141 -12.464159
2.130537 100.195976 -15.44931
6.131071 76.687645 20.484112
-15.295194 106.829514 -9.582942
-17.462738 106.821983 -9.129094
-16.491907 107.391235 -12.767406
2.812233 89.783691 8.143847
1.727223 92.034599 5.919994
3.753846 90.633141 5.652465
-10.98574 106.855499 -22.183645
-13.617695 107.342049 -22.288857
-12.627364 106.754204 -25.308369
-14.470529 104.100708 -33.549335
-15.539567 105.367554 -30.869761
-16.923794 104.087448 -33.514896
-19.380089 103.700714 -33.331123
-18.270729 102.446083 -36.008266
-17.27553 100.8964 -38.37886
-0.388195 101.460205 -26.676207
0.957488 99.945847 -28.814053
2.376076 99.737564 -26.163784
8.662881 95.326889 -21.735262
7.672751 95.841316 -24.42885
11.431129 92.135765 -13.470309
-9.815529 101.195312 2.428046
-12.07534 102.044968 2.697087
-11.144073 103.065781 -0.52765
-12.507321 104.629211 -3.458325
-10.177107 103.942085 -3.887727
-0.590106 96.495262 0.902868
-2.892811 97.868103 1.206901
-1.822066 98.554924 -1.704334
-3.145847 102.407333 -10.181986
-4.344572 102.232368 -7.27825
-5.602423 103.766838 -10.294111
-8.078795 104.918137 -10.231667
-6.967606 105.026344 -13.177876
-8.282625 105.960846 -16.110426
-5.700906 104.841408 -16.019863
-0.450736 102.217918 -21.361708
-3.158997 103.746643 -21.718027
-1.71022 102.688194 -24.39225
-3.296084 103.022484 -27.115334
-8.43644 87.476044 21.963139
-7.190258 91.349472 16.105892
-5.7109 88.724495 18.225868
-4.12505 78.844208 27.718306
-2.033124 78.178596 26.713396
1.185716 81.208328 20.802431
-0.906036 82.196053 21.642979
-0.089078 83.929642 18.93688
-1.541867 86.746109 16.915091
0.568092 85.716293 16.140884
1.19695 87.316444 13.436546
2.423549 84.701073 15.502277
7.292968 79.932961 15.719049
6.202913 82.426689 14.128376
7.859835 81.453804 13.300328
8.467397 82.725288 11.003293
9.362027 80.452522 12.543518
10.880933 79.491272 11.526097
-21.512331 105.723122 -8.086608
-18.592743 107.213753 -22.065153
-19.350254 107.267334 -18.802067
-20.687073 106.62429 -21.447056
13.783451 79.510582 6.740267
13.508827 77.908142 9.069861
6.636407 87.004822 7.544157
5.626786 89.166649 5.558418
7.483928 87.704926 5.326361
8.512897 88.229614 2.929996
-8.767202 105.202621 -27.80497
-11.428704 105.827972 -28.185436
-10.202994 104.645866 -30.750227
-11.727486 103.776726 -33.437042
-13.297431 102.573509 -35.952209
-14.703261 100.962479 -38.360954
-12.096566 100.834015 -38.044739
2.260232 100.470398 -20.985882
3.755376 99.230537 -23.340868
4.843101 98.598312 -20.452192
7.438644 96.493607 -19.556255
9.819503 94.340294 -18.988575
-8.328163 99.162636 4.961709
-7.459674 100.318283 1.737917
1.631386 97.475784 -4.653481
-0.740985 99.055695 -4.556604
0.597768 99.166367 -7.246492
-0.602256 100.871452 -10.199875
-1.821407 102.277092 -12.926523
-3.173112 103.554344 -16.07494
-0.593562 102.015839 -15.770028
1.018442 101.249886 -18.343803
-6.962847 84.820869 23.810541
-0.082894 77.570435 25.693584
1.773126 76.689972 24.912241
2.469775 78.578369 22.367807
3.126667 80.353386 19.824308
3.708586 82.054733 17.312267
4.911148 79.415123 18.97781
6.64254 78.380112 18.158232
8.270149 77.310715 17.329321
-16.923082 105.190201 -2.602957
-18.355494 106.039505 -5.71835
-19.65238 106.4664 -8.773315
-20.825405 106.520271 -11.724869
6.555377 95.426476 -9.302908
7.926784 94.961082 -11.666227
8.661835 93.535225 -9.004654
-1.187114 92.143326 9.117673
-2.573023 94.672615 6.639364
-0.347087 93.30706 6.333482
0.484347 94.228683 3.744597
1.566431 95.04332 0.765487
4.818071 91.204506 3.264663
3.812587 93.374107 0.737813
2.736655 95.539291 -2.028476
5.189482 95.708412 -6.94359
-13.340814 107.402908 -16.071182
-15.548182 107.641785 -15.989787
-14.778327 107.648026 -19.307344
-16.147934 107.489075 -22.185415
-17.55088 106.967392 -24.907179
-14.062482 106.258865 -28.092289
-16.556877 106.271347 -28.155016
-18.942123 105.926758 -28.006252
5.013209 97.894302 -25.462906
9.251848 94.342728 -14.107973
10.812897 93.189552 -16.179844
11.96735 92.162842 -18.216333
-14.288987 102.496696 3.315806
-15.463747 103.950287 0.459207
-14.780407 105.031548 -2.94998
-13.90711 105.866531 -6.344568
-12.937025 106.465446 -9.790439
-3.920547 97.023315 4.089413
-5.188413 99.148323 1.485453
-6.406403 101.156212 -1.393279
-3.010367 100.507744 -4.596641
-5.324234 101.723465 -4.269065
-7.752947 102.951042 -4.164104
-9.120686 104.508347 -7.003357
-10.510173 105.786362 -9.888243
-11.892569 106.761131 -12.921429
-10.89912 106.854927 -16.272644
-9.601955 106.580948 -19.296072
-8.488485 106.081032 -22.373625
-4.453127 104.439682 -18.943151
-5.787967 105.022491 -21.987133
-7.260579 105.316849 -24.831129
-5.951679 104.226471 -27.417257
-4.642682 102.817795 -29.964161
-6.460823 93.025856 13.12436
-4.266675 92.051147 12.436203
-6.12033 79.655815 28.458403
-5.566209 81.829582 25.87793
-4.916452 83.935883 23.143642
-1.462436 80.204498 24.231943
-2.933303 83.07666 22.434431
-4.263173 85.97094 20.308167
-3.640879 87.88858 17.438261
-3.028234 89.527245 14.736745
-2.147366 90.899696 11.963951
-0.092427 89.817741 11.361245
1.95076 88.599976 10.860655
3.883756 87.339317 10.444316
4.316193 83.61731 14.811766
5.075334 84.939316 12.300048
5.847999 86.037994 9.919147
7.506027 84.886627 9.425334
9.105663 83.693428 8.932027
10.38411 82.79409 8.336391
11.282804 80.910957 9.319105
12.180635 78.736786 10.388757
13.191929 76.185516 11.402054
-17.919142 107.53241 -15.599532
-19.981339 107.070564 -15.239723
-22.068998 106.160858 -14.760461
15.111877 74.977002 9.151692
14.614706 76.245224 8.808497
14.939778 74.111954 10.298424
15.111877 74.977002 9.151692
10.543183 93.387664 -22.329704
9.346016 94.527107 -22.690104
9.860049 94.187446 -21.374862
11.606526 92.311279 -21.91102
10.543183 93.387664 -22.329704
-7.148444 88.206703 20.039825
-8.213758 88.549965 20.489928
-7.371125 87.132782 21.513036
-6.008356 87.757008 19.6444
-6.850988 89.174191 18.621292
-7.148444 88.206703 20.039825
-1.324728 76.756145 27.465301
-2.289219 77.058643 27.951226
9.584583 78.528324 14.339053
9.8419 79.288276 13.165324
9.104709 79.692569 13.717247
-22.406739 105.19022 -7.907823
-22.044522 105.667595 -9.670274
9.295527 87.413692 3.044253
8.806945 87.283336 4.03274
9.589575 86.467415 4.146997
9.058366 88.278244 1.927784
9.295527 87.413692 3.044253
-7.257438 83.687588 25.233815
-7.979585 84.99054 24.399536
2.418899 75.261235 25.650312
1.47812 75.665516 26.129817
3.421773 78.102333 21.897382
3.076481 77.189788 23.157204
4.028479 76.713752 22.68678
7.187965 77.022583 18.905175
6.386806 77.533879 19.321172
6.932231 76.17635 20.068115
8.001769 76.487885 18.49072
7.456345 77.845414 17.743777
7.187965 77.022583 18.905175
8.833828 76.03656 17.876622
8.001769 76.487885 18.49072
8.040909 93.644165 -7.792333
7.608606 94.480851 -9.153781
6.98768 94.58979 -7.94146
4.327355 93.602672 -0.540423
4.835135 92.524929 0.803477
3.789388 94.685265 -1.923567
3.274621 94.456699 -0.645331
4.327355 93.602672 -0.540423
3.300934 95.652484 -3.253498
3.789388 94.685265 -1.923567
6.304733 94.730759 -6.761801
5.675314 94.780693 -5.585462
6.98768 94.58979 -7.94146
5.872429 95.567444 -8.123249
6.304733 94.730759 -6.761801
-19.126669 104.863002 -30.765887
-19.644092 105.252644 -29.313443
-18.424701 105.537117 -29.458695
-20.512473 103.291184 -33.209255
-20.04643 102.739895 -34.587413
-15.457994 100.018551 -39.442515
-14.170899 100.025436 -39.346008
-1.252247 100.715408 -30.414773
-2.544419 101.337936 -30.744681
3.080684 98.147438 -29.339411
1.664122 99.045613 -29.73989
2.374049 99.047673 -28.413575
4.34629 97.31559 -28.91085
3.080684 98.147438 -29.339411
6.983344 96.076042 -25.837325
8.183866 95.081963 -25.402383
-11.751701 100.420749 5.693366
-11.063371 99.388389 7.054708
-2.544419 101.337936 -30.744681
-3.888812 101.95514 -31.031264
-3.29829 102.200592 -29.677578
-5.384858 78.131458 29.320122
-6.325774 78.393574 29.773735
12.013806 77.951011 11.475421
11.530784 79.114029 10.957427
11.363955 78.328254 12.044092
12.519453 76.675376 11.98207
12.686282 77.461151 10.895405
12.013806 77.951011 11.475421
12.193347 82.514721 5.74784
12.741836 82.3727 4.936307
12.215568 83.290108 4.612506
10.978694 84.959747 4.272748
10.275189 85.784843 4.146666
11.576123 84.189853 4.417357
10.978694 84.959747 4.272748
11.069651 84.202022 5.279429
12.215568 83.290108 4.612506
11.576123 84.189853 4.417357
10.275189 85.784843 4.146666
9.589575 86.467415 4.146997
9.786608 85.654487 5.135153
-7.507333 102.737198 -32.895457
-8.154898 103.515713 -31.758752
-6.720612 103.0844 -31.498432
-8.348282 102.358643 -34.175272
-7.507333 102.737198 -32.895457
-9.162444 101.845032 -35.468418
-9.75578 102.654899 -34.448923
-8.348282 102.358643 -34.175272
-9.847316 101.220554 -36.687842
-9.162444 101.845032 -35.468418
-6.407631 95.724967 8.937074
-7.530316 96.262207 9.179574
-6.792649 95.062264 10.377688
4.894267 76.282353 22.209046
4.028479 76.713752 22.68678
5.772917 75.813027 21.737623
5.252422 77.156971 20.955535
4.894267 76.282353 22.209046
6.652613 75.252384 21.29234
5.772917 75.813027 21.737623
6.932231 76.17635 20.068115
6.652613 75.252384 21.29234
6.294855 90.676735 2.011207
7.256761 89.904499 1.922363
-19.491749 102.11258 -35.925985
-20.04643 102.739895 -34.587413
-18.825409 103.073398 -34.669694
-19.032298 101.477127 -37.08229
-19.491749 102.11258 -35.925985
-18.534698 100.702286 -38.267588
-19.032298 101.477127 -37.08229
-17.773129 101.671242 -37.193563
-17.975798 99.815617 -39.468107
-18.534698 100.702286 -38.267588
8.85095 94.784321 -24.036898
8.167816 95.584103 -23.082056
9.346016 94.527107 -22.690104
8.183866 95.081963 -25.402383
8.85095 94.784321 -24.036898
11.773041 91.456684 -12.143263
10.720184 92.571003 -12.408454
11.062096 91.891922 -11.081408
12.41205 91.022415 -13.122818
11.773041 91.456684 -12.143263
13.13363 90.436192 -14.107268
12.15271 91.549542 -14.454759
12.41205 91.022415 -13.122818
-9.236724 88.786404 21.004525
-9.498165 87.755146 22.436793
-9.236724 88.786404 21.004525
-8.213758 88.549965 20.489928
-7.590668 90.486679 17.561304
-8.332687 91.780762 16.489689
-6.450579 90.036984 17.16588
-7.590668 90.486679 17.561304
-6.850988 89.174191 18.621292
-3.335182 77.391449 28.453681
-4.387218 77.725654 28.950073
-3.079087 78.511402 27.215851
-3.335182 77.391449 28.453681
-2.289219 77.058643 27.951226
10.601354 78.807651 12.656613
10.12148 79.971897 12.034807
9.8419 79.288276 13.165324
11.363955 78.328254 12.044092
10.601354 78.807651 12.656613
-21.774287 105.267685 -6.410293
-20.865597 105.640041 -6.561926
-21.774287 105.267685 -6.410293
-22.406739 105.19022 -7.907823
13.358071 81.288231 5.261496
12.741836 82.3727 4.936307
13.889989 80.244866 5.595808
13.358071 81.288231 5.261496
13.251533 80.553947 6.405954
14.418293 79.062153 6.040605
13.889989 80.244866 5.595808
14.283528 78.286857 7.19414
14.418293 79.062153 6.040605
14.146216 77.485637 8.358937
14.283528 78.286857 7.19414
13.646139 78.709362 7.905064
13.977317 76.667728 9.51942
14.614706 76.245224 8.808497
14.146216 77.485637 8.358937
8.147196 89.180447 1.810723
7.256761 89.904499 1.922363
7.622463 88.953666 3.041635
8.147196 89.180447 1.810723
9.058366 88.278244 1.927784
-12.867551 99.961204 -39.1879
-14.170899 100.025436 -39.346008
-13.399914 100.898247 -38.202846
-10.610627 100.566917 -37.839177
-11.333254 101.487652 -36.893404
-9.847316 101.220554 -36.687842
-11.459256 99.836372 -38.97726
-10.610627 100.566917 -37.839177
-12.867551 99.961204 -39.1879
-11.459256 99.836372 -38.97726
-9.981903 98.985382 6.814757
-11.063371 99.388389 7.054708
-8.237661 97.416477 7.950582
-7.530316 96.262207 9.179574
-8.829093 98.53534 6.561956
-8.237661 97.416477 7.950582
-7.736731 98.043774 6.350334
-9.480972 99.612679 5.21451
-9.981903 98.985382 6.814757
-8.829093 98.53534 6.561956
-8.716382 86.318127 23.475835
-9.498165 87.755146 22.436793
-7.699643 86.148457 22.88684
-8.716382 86.318127 23.475835
-7.979585 84.99054 24.399536
0.55011 76.105748 26.520488
-0.349614 76.452065 26.955396
0.845116 77.130203 25.302913
0.55011 76.105748 26.520488
1.47812 75.665516 26.129817
2.728156 76.24559 24.429422
2.418899 75.261235 25.650312
2.12145 77.63417 23.640024
2.728156 76.24559 24.429422
3.076481 77.189788 23.157204
9.088668 76.8442 16.737447
9.377289 77.655151 15.518275
8.55877 78.121666 16.110149
9.088668 76.8442 16.737447
8.833828 76.03656 17.876622
-17.888182 105.102074 -2.364607
-17.24688 104.59322 -0.80896
-18.604388 105.526726 -3.922303
-17.888182 105.102074 -2.364607
-17.639288 105.614853 -4.160654
-19.287179 105.798233 -5.377797
-18.604388 105.526726 -3.922303
-19.935622 106.01168 -6.905279
-19.287179 105.798233 -5.377797
-19.003937 106.252952 -7.245833
-20.582355 106.094761 -8.429962
-20.865597 105.640041 -6.561926
-19.935622 106.01168 -6.905279
-21.701059 106.06617 -11.489404
-22.044522 105.667595 -9.670274
-21.168868 106.121696 -9.905739
-20.933055 105.960895 -24.763219
-20.575378 105.764057 -26.378597
9.132627 92.654278 -7.75073
8.040909 93.644165 -7.792333
9.739321 92.483807 -8.874661
9.132627 92.654278 -7.75073
10.413023 92.219314 -10.045633
9.335537 93.270733 -10.175626
9.739321 92.483807 -8.874661
11.062096 91.891922 -11.081408
10.413023 92.219314 -10.045633
5.337877 91.440129 2.066902
5.775049 90.441113 3.208969
6.294855 90.676735 2.011207
4.315329 92.289306 2.001238
5.337877 91.440129 2.066902
4.835135 92.524929 0.803477
2.7483 96.620731 -4.566
2.18402 96.507538 -3.340979
3.300934 95.652484 -3.253498
3.431988 96.585826 -5.764176
2.315074 97.440879 -5.851656
2.7483 96.620731 -4.566
4.527348 95.737045 -5.711055
5.675314 94.780693 -5.585462
4.094122 96.557193 -6.996711
3.431988 96.585826 -5.764176
4.527348 95.737045 -5.711055
-20.10719 105.526966 -27.909647
-20.575378 105.764057 -26.378597
-19.410311 106.163849 -26.475203
-20.10719 105.526966 -27.909647
-19.644092 105.252644 -29.313443
-19.863075 104.139622 -31.975879
-19.126669 104.863002 -30.765887
-18.643684 104.424095 -32.121131
-19.863075 104.139622 -31.975879
-20.512473 103.291184 -33.209255
-16.744129 99.985512 -39.451468
-15.989396 100.92944 -38.369907
-15.457994 100.018551 -39.442515
-17.975798 99.815617 -39.468107
-16.744129 99.985512 -39.451468
0.203445 99.896637 -30.126302
-1.252247 100.715408 -30.414773
-0.498204 100.764618 -29.102524
0.203445 99.896637 -30.126302
1.664122 99.045613 -29.73989
5.653574 97.102535 -26.354353
6.34298 96.867809 -24.945878
6.983344 96.076042 -25.837325
5.042274 97.230133 -27.629448
4.40191 98.0219 -26.738001
5.653574 97.102535 -26.354353
4.34629 97.31559 -28.91085
5.042274 97.230133 -27.629448
13.837047 89.777085 -14.95465
13.13363 90.436192 -14.107268
13.476534 90.354595 -16.38041
13.837047 89.777085 -14.95465
13.023063 90.954357 -17.768972
12.42082 91.56308 -16.827771
13.476534 90.354595 -16.38041
12.584974 91.450943 -19.156984
13.023063 90.954357 -17.768972
12.129907 91.893524 -20.556049
11.512283 92.605423 -19.615398
12.584974 91.450943 -19.156984
11.606526 92.311279 -21.91102
12.129907 91.893524 -20.556049
-12.47248 101.411873 4.308255
-11.751701 100.420749 5.693366
-11.354561 101.053844 4.082199
-13.579303 101.637737 4.617615
-12.47248 101.411873 4.308255
-13.182164 102.270832 3.006447
-14.612075 101.784546 4.993426
-13.579303 101.637737 4.617615
-15.3536 102.606487 3.593307
-14.612075 101.784546 4.993426
-15.94098 103.333282 2.165008
-15.3536 102.606487 3.593307
-14.876367 103.223491 1.887506
-16.517213 103.973263 0.722123
-15.94098 103.333282 2.165008
-16.193414 104.570244 -1.071875
-17.24688 104.59322 -0.80896
-16.517213 103.973263 0.722123
-5.357865 102.56184 -31.299649
-6.720612 103.0844 -31.498432
-6.005429 103.340355 -30.162944
-5.357865 102.56184 -31.299649
-3.888812 101.95514 -31.031264
-7.878023 92.627484 14.928378
-8.332687 91.780762 16.489689
-7.513305 93.465676 13.437612
-7.878023 92.627484 14.928378
-6.825541 92.187664 14.615126
-7.188078 94.31268 11.872274
-7.513305 93.465676 13.437612
-6.065394 93.77544 11.629774
-6.792649 95.062264 10.377688
-7.188078 94.31268 11.872274
-7.107271 79.91737 28.929713
-6.325774 78.393574 29.773735
-6.83618 81.105061 27.557746
-7.107271 79.91737 28.929713
-5.12269 79.250011 28.088355
-5.384858 78.131458 29.320122
-4.387218 77.725654 28.950073
-6.559119 82.191944 26.267509
-6.83618 81.105061 27.557746
-5.843269 80.742699 27.168166
-6.264528 83.325226 24.844235
-7.257438 83.687588 25.233815
-6.559119 82.191944 26.267509
-1.058009 77.874516 26.20349
-1.324728 76.756145 27.465301
-0.349614 76.452065 26.955396
9.584583 78.528324 14.339053
9.377289 77.655151 15.518275
12.967576 75.437671 12.497974
12.519453 76.675376 11.98207
13.666153 74.874843 11.847575
12.967576 75.437671 12.497974
14.293092 74.495743 11.131038
13.818868 75.806415 10.685517
13.666153 74.874843 11.847575
14.939778 74.111954 10.298424
14.293092 74.495743 11.131038
-22.322855 105.886463 -13.0072
-21.701059 106.06617 -11.489404
-21.447201 106.340564 -13.242665
-21.337342 106.07257 -23.014671
-20.282787 106.512615 -23.195605
-20.933055 105.960895 -24.763219
-21.709089 106.08971 -21.360895
-21.337342 106.07257 -23.014671
-22.063668 106.041065 -19.735504
-21.041653 106.575645 -19.821665
-21.709089 106.08971 -21.360895
-22.341367 105.965038 -17.943673
-22.063668 106.041065 -19.735504
-22.67775 105.781967 -16.225766
-21.732616 106.343929 -16.478367
-22.341367 105.965038 -17.943673
-22.946213 105.555638 -14.425285
-22.67775 105.781967 -16.225766
-22.322855 105.886463 -13.0072
-22.946213 105.555638 -14.425285
3 0 65 63
3 0 63 66
3 0 66 67
3 1 72 70
3 2 75 73
3 1 78 76
3 1 70 78
3 3 83 81
3 4 256 257
3 4 258 259
3 5 86 84
3 7 89 87
3 9 92 90
3 9 94 92
3 9 95 94
3 10 98 96
3 11 260 262
3 262 261 99
3 260 261 262
3 11 263 264
3 12 104 102
3 12 106 104
3 6 109 107
3 13 112 110
3 13 114 112
3 13 116 114
3 10 119 117
3 10 96 119
3 14 265 267
3 267 266 121
3 265 266 267
3 14 268 270
3 268 123 269
3 268 269 270
3 271 125 272
3 15 128 126
3 15 130 128
3 15 132 130
3 16 135 133
3 16 137 135
3 16 273 275
3 275 274 137
3 273 274 275
3 277 276 139
3 8 142 140
3 17 143 64
3 17 144 143
3 18 147 145
3 278 148 279
3 280 279 68
3 278 279 280
3 282 281 148
3 20 151 149
3 22 152 69
3 22 153 152
3 22 155 153
3 23 158 156
3 25 159 71
3 25 160 159
3 27 161 74
3 27 162 161
3 28 165 163
3 30 166 77
3 30 167 166
3 30 169 167
3 23 170 79
3 23 156 170
3 283 171 284
3 285 173 286
3 33 287 289
3 287 174 288
3 287 288 289
3 33 175 174
3 33 177 175
3 290 178 291
3 292 291 80
3 290 291 292
3 293 179 294
3 295 294 178
3 293 294 295
3 297 296 179
3 35 181 180
3 36 182 82
3 36 183 182
3 298 186 299
3 300 299 184
3 298 299 300
3 38 189 187
3 40 190 85
3 40 191 190
3 19 192 146
3 301 193 302
3 303 194 304
3 305 304 193
3 303 304 305
3 307 306 194
3 308 195 309
3 310 184 311
3 312 311 195
3 310 311 312
3 41 198 196
3 43 199 88
3 43 200 199
3 21 201 150
3 44 202 91
3 44 203 202
3 44 313 315
3 315 314 203
3 313 314 315
3 317 316 93
3 319 318 154
3 45 320 321
3 46 322 324
3 324 323 97
3 322 323 324
3 46 325 326
3 24 204 157
3 328 327 100
3 37 205 185
3 47 206 101
3 47 207 206
3 26 329 330
3 48 208 103
3 48 209 208
3 48 210 209
3 49 211 105
3 49 212 211
3 39 213 188
3 50 214 108
3 50 215 214
3 29 216 164
3 51 217 111
3 51 218 217
3 51 219 218
3 52 220 113
3 52 221 220
3 52 222 221
3 53 223 115
3 53 224 223
3 31 225 168
3 54 226 118
3 54 227 226
3 54 228 227
3 45 229 120
3 45 331 333
3 333 332 229
3 331 332 333
3 55 230 122
3 55 231 230
3 334 232 335
3 56 233 124
3 56 234 233
3 32 235 172
3 57 236 127
3 57 237 236
3 57 238 237
3 58 239 129
3 58 240 239
3 58 241 240
3 59 242 131
3 59 243 242
3 34 244 176
3 60 245 134
3 60 246 245
3 60 247 246
3 61 248 136
3 61 249 248
3 61 250 249
3 336 251 337
3 338 337 138
3 336 337 338
3 339 252 340
3 341 340 251
3 339 340 341
3 42 253 197
3 62 254 141
3 62 255 254
3 63 342 344
3 342 64 343
3 342 343 344
3 65 64 63
3 65 17 64
3 66 345 346
3 63 347 349
3 349 348 66
3 347 348 349
3 63 350 351
3 67 68 18
3 66 68 67
3 66 352 354
3 354 353 68
3 352 353 354
3 355 69 356
3 357 356 20
3 355 356 357
3 358 69 359
3 360 22 361
3 362 361 69
3 360 361 362
3 364 363 22
3 70 71 23
3 72 71 70
3 72 25 71
3 73 365 367
3 365 74 366
3 365 366 367
3 75 74 73
3 75 27 74
3 76 77 28
3 78 77 76
3 78 30 77
3 78 79 30
3 70 79 78
3 70 23 79
3 368 33 369
3 370 80 371
3 372 371 33
3 370 371 372
3 373 80 374
3 376 375 80
3 81 82 35
3 83 82 81
3 83 36 82
3 84 85 38
3 86 85 84
3 86 40 85
3 378 377 19
3 87 88 41
3 89 88 87
3 89 43 88
3 90 91 21
3 92 91 90
3 92 44 91
3 92 93 44
3 94 93 92
3 94 379 381
3 381 380 93
3 379 380 381
3 94 382 383
3 95 384 386
3 386 385 94
3 384 385 386
3 95 387 388
3 96 97 45
3 98 97 96
3 98 46 97
3 99 100 24
3 389 100 390
3 391 390 99
3 389 390 391
3 393 392 100
3 394 101 395
3 396 395 37
3 394 395 396
3 397 101 398
3 399 47 400
3 401 400 101
3 399 400 401
3 102 103 26
3 104 103 102
3 104 48 103
3 104 105 48
3 106 105 104
3 106 49 105
3 107 108 39
3 109 108 107
3 109 50 108
3 110 111 29
3 112 111 110
3 112 51 111
3 112 113 51
3 114 113 112
3 114 52 113
3 114 115 52
3 116 115 114
3 116 53 115
3 117 118 31
3 119 118 117
3 119 54 118
3 119 120 54
3 96 120 119
3 96 45 120
3 121 402 403
3 405 404 121
3 406 122 407
3 123 408 410
3 408 122 409
3 408 409 410
3 123 55 122
3 411 124 412
3 125 413 415
3 413 124 414
3 413 414 415
3 125 56 124
3 126 127 32
3 128 127 126
3 128 57 127
3 128 129 57
3 130 129 128
3 130 58 129
3 130 131 58
3 132 131 130
3 132 59 131
3 133 134 34
3 135 134 133
3 135 60 134
3 135 136 60
3 137 136 135
3 137 61 136
3 137 138 61
3 416 138 417
3 418 417 137
3 416 417 418
3 420 419 138
3 139 421 422
3 424 423 139
3 140 141 42
3 142 141 140
3 142 62 141
3 64 425 426
3 143 427 429
3 429 428 64
3 427 428 429
3 143 430 431
3 143 432 433
3 144 434 436
3 436 435 143
3 434 435 436
3 144 437 439
3 437 4 438
3 437 438 439
3 145 146 5
3 147 146 145
3 147 19 146
3 68 147 18
3 148 147 68
3 148 19 147
3 148 440 442
3 442 441 19
3 440 441 442
3 444 443 148
3 149 150 7
3 151 150 149
3 151 21 150
3 69 151 20
3 152 151 69
3 152 21 151
3 152 90 21
3 153 90 152
3 153 9 90
3 153 154 9
3 155 154 153
3 155 445 447
3 447 446 154
3 445 446 447
3 448 155 449
3 450 449 22
3 448 449 450
3 451 155 452
3 454 453 155
3 156 157 10
3 158 157 156
3 158 24 157
3 71 158 23
3 159 158 71
3 159 24 158
3 159 99 24
3 160 99 159
3 160 11 99
3 455 26 456
3 74 457 458
3 161 459 461
3 461 460 74
3 459 460 461
3 161 462 464
3 462 26 463
3 462 463 464
3 161 102 26
3 162 102 161
3 162 12 102
3 163 164 6
3 165 164 163
3 165 29 164
3 77 165 28
3 166 165 77
3 166 29 165
3 166 110 29
3 167 110 166
3 167 13 110
3 167 168 13
3 169 168 167
3 169 31 168
3 79 169 30
3 170 169 79
3 170 31 169
3 170 117 31
3 156 117 170
3 156 10 117
3 465 121 466
3 171 467 469
3 467 121 468
3 467 468 469
3 171 14 121
3 470 172 471
3 173 472 474
3 472 172 473
3 472 473 474
3 173 32 172
3 475 173 476
3 174 477 479
3 477 173 478
3 477 478 479
3 174 32 173
3 174 126 32
3 175 126 174
3 175 15 126
3 175 176 15
3 177 176 175
3 177 34 176
3 80 177 33
3 178 177 80
3 178 34 177
3 178 133 34
3 179 133 178
3 179 16 133
3 179 480 482
3 482 481 16
3 480 481 482
3 484 483 179
3 180 485 486
3 181 487 489
3 489 488 180
3 487 488 489
3 181 490 491
3 82 181 35
3 182 181 82
3 182 492 494
3 494 493 181
3 492 493 494
3 182 495 497
3 495 139 496
3 495 496 497
3 183 139 182
3 183 498 500
3 500 499 139
3 498 499 500
3 502 501 8
3 184 185 1
3 186 185 184
3 186 37 185
3 503 186 504
3 505 186 506
3 507 37 508
3 509 508 186
3 507 508 509
3 511 510 37
3 187 188 2
3 189 188 187
3 189 39 188
3 85 189 38
3 190 189 85
3 190 39 189
3 190 107 39
3 191 107 190
3 191 6 107
3 146 86 5
3 192 86 146
3 192 40 86
3 512 192 513
3 514 513 19
3 512 513 514
3 193 515 517
3 515 192 516
3 515 516 517
3 193 40 192
3 193 191 40
3 194 191 193
3 194 6 191
3 194 163 6
3 518 163 519
3 520 519 194
3 518 519 520
3 521 28 522
3 523 522 163
3 521 522 523
3 195 524 525
3 195 526 528
3 526 28 527
3 526 527 528
3 195 76 28
3 184 76 195
3 184 1 76
3 196 197 3
3 198 197 196
3 198 42 197
3 88 198 41
3 199 198 88
3 199 42 198
3 199 140 42
3 200 140 199
3 200 8 140
3 150 89 7
3 201 89 150
3 201 43 89
3 91 201 21
3 202 201 91
3 202 43 201
3 202 200 43
3 203 200 202
3 203 8 200
3 203 529 531
3 531 530 8
3 529 530 531
3 533 532 203
3 93 534 536
3 536 535 44
3 534 535 536
3 538 537 93
3 154 95 9
3 539 95 540
3 541 540 154
3 539 540 541
3 543 542 95
3 97 544 546
3 546 545 45
3 544 545 546
3 548 547 97
3 157 98 10
3 204 98 157
3 204 46 98
3 100 204 24
3 549 204 550
3 551 550 100
3 549 550 551
3 552 46 553
3 554 553 204
3 552 553 554
3 556 555 46
3 185 72 1
3 205 72 185
3 205 25 72
3 101 205 37
3 206 205 101
3 206 25 205
3 206 160 25
3 207 160 206
3 207 11 160
3 557 47 558
3 559 47 560
3 561 207 562
3 563 562 47
3 561 562 563
3 564 207 565
3 566 11 567
3 568 567 207
3 566 567 568
3 570 569 11
3 103 571 573
3 573 572 26
3 571 572 573
3 208 574 576
3 576 575 103
3 574 575 576
3 208 577 578
3 208 579 580
3 209 581 583
3 583 582 208
3 581 582 583
3 209 584 585
3 209 586 588
3 586 180 587
3 586 587 588
3 210 180 209
3 210 35 180
3 105 210 48
3 211 210 105
3 211 35 210
3 211 81 35
3 212 81 211
3 212 3 81
3 188 75 2
3 213 75 188
3 213 27 75
3 108 213 39
3 214 213 108
3 214 27 213
3 214 162 27
3 215 162 214
3 215 12 162
3 164 109 6
3 216 109 164
3 216 50 109
3 111 216 29
3 217 216 111
3 217 50 216
3 217 215 50
3 218 215 217
3 218 12 215
3 218 106 12
3 219 106 218
3 219 49 106
3 113 219 51
3 220 219 113
3 220 49 219
3 220 212 49
3 221 212 220
3 221 3 212
3 221 196 3
3 222 196 221
3 222 41 196
3 115 222 52
3 223 222 115
3 223 41 222
3 223 87 41
3 224 87 223
3 224 7 87
3 168 116 13
3 225 116 168
3 225 53 116
3 118 225 31
3 226 225 118
3 226 53 225
3 226 224 53
3 227 224 226
3 227 7 224
3 227 149 7
3 228 149 227
3 228 20 149
3 120 228 54
3 229 228 120
3 229 20 228
3 229 589 591
3 591 590 20
3 589 590 591
3 593 592 229
3 122 594 595
3 230 596 598
3 598 597 122
3 596 597 598
3 230 599 600
3 230 601 603
3 601 73 602
3 601 602 603
3 231 73 230
3 231 2 73
3 232 604 605
3 232 606 607
3 124 608 610
3 608 232 609
3 608 609 610
3 233 232 124
3 233 611 613
3 613 612 232
3 611 612 613
3 233 614 616
3 614 171 615
3 614 615 616
3 234 171 233
3 234 14 171
3 172 617 619
3 617 125 618
3 617 618 619
3 235 125 172
3 235 56 125
3 127 235 32
3 236 235 127
3 236 56 235
3 236 234 56
3 237 234 236
3 237 14 234
3 237 123 14
3 238 123 237
3 238 55 123
3 129 238 57
3 239 238 129
3 239 55 238
3 239 231 55
3 240 231 239
3 240 2 231
3 240 187 2
3 241 187 240
3 241 38 187
3 131 241 58
3 242 241 131
3 242 38 241
3 242 84 38
3 243 84 242
3 243 5 84
3 176 132 15
3 244 132 176
3 244 59 132
3 134 244 34
3 245 244 134
3 245 59 244
3 245 243 59
3 246 243 245
3 246 5 243
3 246 145 5
3 247 145 246
3 247 18 145
3 136 247 60
3 248 247 136
3 248 18 247
3 248 67 18
3 249 67 248
3 249 0 67
3 249 65 0
3 250 65 249
3 250 17 65
3 138 250 61
3 251 250 138
3 251 17 250
3 251 144 17
3 252 144 251
3 252 4 144
3 621 620 16
3 622 252 623
3 624 252 625
3 626 4 627
3 628 627 252
3 626 627 628
3 630 629 4
3 197 83 3
3 253 83 197
3 253 36 83
3 141 253 42
3 254 253 141
3 254 36 253
3 254 183 36
3 255 183 254
3 255 631 633
3 633 632 183
3 631 632 633
3 634 142 635
3 636 635 8
3 634 635 636
3 637 142 638
3 639 62 640
3 641 640 142
3 639 640 641
3 642 62 643
3 644 255 645
3 646 645 62
3 644 645 646
3 647 255 648
3 650 649 255
