ply
format ascii 1.0
element vertex 598
property float x
property float y
property float z
element face 656
property list uchar int vertex_index
end_header
36.065392 -3.958213 -22.754787
28.26264 27.20348 -59.803776
35.68412 13.021398 -40.643482
21.461481 32.598507 -57.033588
27.592367 22.52809 -67.409126
31.155298 2.423312 -22.598259
31.323774 10.515637 -31.216887
36.314487 4.436263 -31.36919
27.139935 26.753401 -49.446556
39.06052 -4.407369 -30.761827
30.172199 18.961533 -40.243797
33.257011 20.920465 -50.398163
39.056801 3.654367 -39.396439
37.864445 11.328607 -49.129837
24.819929 30.307535 -58.82198
24.841261 29.23443 -63.631645
24.309872 26.913759 -67.612785
28.169298 25.463573 -64.078575
33.933887 -0.501202 -22.882032
34.022701 3.543026 -26.971903
36.272453 0.144758 -27.04652
23.535549 29.11179 -47.937122
25.628757 25.264891 -43.905144
33.764751 12.056868 -35.815296
31.003796 14.814538 -35.816219
33.186848 16.357342 -40.675858
32.081856 20.481802 -45.632496
34.809586 16.952263 -45.351124
39.689362 -5.626554 -34.194141
39.166794 -0.439111 -35.024719
39.80204 -1.97151 -38.386097
39.241756 5.328503 -47.527035
18.174948 34.692867 -54.702488
31.323446 6.359568 -26.798546
34.145264 7.819004 -31.529163
36.223347 8.682455 -35.931675
21.105536 32.249378 -51.638092
24.444733 30.107424 -53.467571
28.016815 27.499903 -54.807323
37.891689 -3.79317 -26.985806
39.473629 -9.246971 -30.162949
39.733501 -11.464527 -32.766491
27.11717 21.120329 -39.650032
28.991682 23.039219 -44.991119
30.309902 24.260178 -50.319519
31.108263 24.364326 -55.254452
38.032433 0.354752 -31.305647
37.960762 4.618433 -35.609089
37.688942 8.684451 -40.118023
39.71801 1.69249 -42.938225
38.674141 7.659093 -44.143322
37.068424 12.683347 -44.991104
35.771782 16.751451 -50.117832
26.644581 28.814739 -59.327736
24.930401 29.908401 -61.259338
26.590982 28.381725 -61.695366
26.612595 27.476673 -63.82317
28.368721 26.414793 -61.979412
35.048824 -2.153079 -22.819033
35.100693 -0.08709 -24.892624
36.156525 -1.968967 -24.820013
23.96979 26.28056 -43.111294
34.873283 12.644075 -38.348499
33.610828 14.195745 -38.303562
34.513691 14.686526 -40.58057
34.027916 16.761116 -42.916431
35.286999 15.029488 -42.971657
39.772346 -3.799506 -36.357098
19.77137 33.657955 -55.924847
17.993196 34.640892 -57.482471
19.690882 33.605919 -58.493752
20.444698 29.082575 -68.550247
26.055609 24.890894 -67.530785
23.965036 25.253073 -69.149048
25.630735 23.021351 -69.017525
31.249643 4.268987 -24.571432
35.238686 4.071806 -29.183372
33.994183 5.675642 -29.091719
35.248001 6.07329 -31.246416
35.224247 8.380394 -33.713692
36.25148 6.502391 -33.454865
19.520361 33.279083 -50.283253
20.826921 31.768414 -48.764004
25.335667 27.941116 -48.726913
24.018782 29.699642 -50.655056
25.779295 28.540768 -51.40139
26.261774 28.852722 -54.177841
27.499695 27.381243 -52.20269
39.628674 -10.184104 -31.598103
39.55019 -12.954573 -30.792892
30.682852 16.92709 -38.10511
29.47027 15.974754 -35.637115
29.15543 17.941158 -37.736217
28.649492 20.049568 -39.948441
28.060644 22.197983 -42.322823
29.681162 21.013882 -42.633266
32.711151 20.826969 -47.965885
31.26717 22.414845 -47.969303
31.887993 22.646435 -50.486523
30.810888 24.408564 -52.798141
32.320835 22.635763 -52.855694
38.571499 -4.105939 -28.91596
37.963009 -1.703144 -29.136063
38.605675 -2.010624 -30.950518
39.12801 1.654471 -37.156528
38.659149 2.193056 -35.41048
38.563271 4.292141 -37.520283
37.849144 6.674798 -37.806622
38.455853 6.255133 -39.792427
40.021442 -1.352817 -42.249008
39.929806 0.289625 -44.534058
38.599258 8.555174 -48.398968
39.002342 6.680133 -46.001133
38.319923 9.59756 -46.606171
37.94397 10.274027 -44.609318
37.517048 12.198298 -47.145767
36.526844 14.670394 -47.416
36.907532 14.12241 -49.539879
23.022448 31.584591 -58.010227
22.898943 29.957058 -65.220886
22.481474 28.788553 -67.371223
24.589342 28.294838 -65.711327
26.314247 26.347883 -65.898613
28.029886 24.004044 -65.861229
32.538971 0.933119 -22.610739
32.722466 2.965865 -24.839523
33.901363 1.535102 -24.833057
35.18721 1.902536 -26.955925
36.269218 2.354233 -29.188488
21.952753 30.107162 -46.956348
23.091494 28.267294 -45.222
24.718578 27.21603 -46.022583
26.396519 26.119425 -46.656605
32.650681 11.256026 -33.478893
31.305401 12.680673 -33.620773
32.454174 13.596669 -35.990265
32.161419 15.727716 -38.318634
31.727131 17.739569 -40.512348
31.274662 19.729752 -42.881111
32.679634 18.43145 -43.070904
33.485889 18.743303 -45.362541
34.104614 18.980986 -47.839012
39.416431 -5.006894 -32.378754
39.120331 -2.47509 -32.785381
39.501888 -3.062325 -34.635574
39.526165 -1.126144 -36.718086
39.501915 0.905959 -38.929512
39.727844 1.96823 -46.802261
39.385361 3.733069 -49.147839
38.776932 7.224813 -50.055038
38.043625 10.341326 -51.008358
16.555622 35.835896 -53.410309
15.036654 36.725086 -54.594097
16.494011 35.626175 -56.203762
22.206472 27.277985 -69.023392
31.353216 8.351406 -28.916761
32.716305 5.039026 -26.92169
32.802326 7.153602 -29.19853
32.775536 9.145329 -31.287979
34.038021 9.959105 -33.737476
35.080387 10.547648 -36.014198
35.994194 10.819489 -38.185658
18.050156 34.703033 -52.04068
19.604113 33.615543 -53.083702
21.304331 32.533337 -54.34753
22.440695 30.727903 -49.877087
22.71752 31.211882 -52.552174
23.000557 31.443354 -55.191277
24.69289 30.338682 -56.196888
26.424349 29.062464 -56.939674
28.154449 27.557304 -57.399586
36.998775 -5.747737 -22.90127
37.076973 -3.905299 -24.830223
37.836491 -5.847726 -24.918547
38.456417 -5.997899 -26.805813
38.974255 -6.348927 -28.706306
39.319401 -6.840602 -30.329134
39.590675 -7.554633 -32.113312
39.769859 -8.52382 -33.60651
32.485741 -0.986466 -20.625315
33.755901 -2.414797 -20.761011
34.950485 -4.157696 -20.711836
34.84148 -6.024108 -18.631809
36.013603 -5.887586 -20.767187
26.443382 23.292225 -41.902256
27.3039 24.197001 -44.512939
28.077101 24.924236 -47.07983
30.59458 21.821684 -45.383121
29.767454 23.754198 -47.734127
28.678703 25.59798 -49.838909
29.119646 26.027224 -52.463493
29.58095 26.042662 -55.046715
29.719604 25.937794 -57.551781
37.16066 -1.762079 -27.041119
37.226337 0.374337 -29.223364
37.232185 2.406663 -31.238033
38.66357 0.13867 -33.247948
38.024361 2.519563 -33.472557
37.194698 4.598034 -33.430904
37.134815 6.796008 -35.798359
37.027355 8.87444 -38.171623
36.726265 11.040267 -40.449669
39.796055 -0.178334 -40.525814
39.437416 2.803349 -41.245583
39.556938 3.39852 -45.274948
39.273781 4.742528 -43.526001
38.890358 5.802878 -41.797958
38.22707 8.310385 -42.066349
37.445396 10.731502 -42.626221
36.45153 12.931658 -42.768494
36.00407 14.971145 -45.288967
35.409595 16.933207 -47.795048
34.608498 18.852898 -50.088833
33.71003 20.643906 -52.675484
20.653756 29.757418 -67.571396
19.565729 29.847634 -68.173141
27.439834 21.485965 -68.002522
26.459018 21.732596 -68.806721
26.611551 22.774721 -68.213325
31.20247 3.34615 -23.584846
30.471342 4.021314 -23.544422
30.424169 3.098477 -22.557835
20.612345 31.463307 -47.278652
20.003633 32.362797 -48.137736
39.454487 -13.800477 -29.815676
39.508555 -12.420772 -30.14036
30.596525 11.164769 -31.225293
30.600735 10.056809 -30.019779
39.995659 -0.451287 -45.30596
40.063393 -1.282577 -44.154919
23.952188 30.822744 -59.720816
23.053447 31.461272 -59.31494
23.921188 30.946063 -58.416104
23.965052 30.004492 -63.316979
24.009622 30.341477 -62.130825
24.885831 29.571416 -62.445492
23.870102 29.595744 -64.426265
22.993893 30.365806 -64.111599
23.965052 30.004492 -63.316979
22.722681 27.823379 -43.753526
22.232048 28.809096 -44.612307
39.400637 2.90332 -49.912144
39.606661 1.9816 -48.752394
38.506937 7.941334 -51.277639
38.831873 6.326455 -50.840817
38.140283 9.49959 -51.754299
38.410279 8.783069 -50.531698
38.506937 7.941334 -51.277639
37.702553 11.146052 -52.235265
38.140283 9.49959 -51.754299
17.114263 34.972199 -58.161876
17.932472 34.465929 -58.802366
22.892658 25.394179 -69.765541
23.789867 24.232022 -69.766189
30.563688 6.981734 -26.713489
30.553959 5.97309 -25.645688
31.338331 7.355487 -27.857654
30.578573 7.977654 -27.772596
30.563688 6.981734 -26.713489
17.956285 34.640417 -50.62488
17.322672 35.273527 -51.326477
37.788843 -6.717472 -23.958533
37.417633 -5.797731 -23.909909
37.369985 -6.667478 -22.949894
38.662431 -7.098705 -26.737923
38.425213 -6.97435 -25.806971
38.921351 -7.274218 -27.68817
38.715336 -6.173413 -27.756059
38.662431 -7.098705 -26.737923
39.350502 -9.031517 -29.254759
39.407475 -10.177028 -29.127807
39.396515 -8.043786 -30.246042
39.273388 -7.828333 -29.337851
39.350502 -9.031517 -29.254759
39.82847 -10.54939 -33.887749
39.846649 -9.079036 -34.307758
39.75168 -9.994174 -33.186501
31.73799 -1.176494 -19.57181
31.809176 -0.249342 -20.614206
33.711258 -3.406226 -19.689244
33.051169 -2.605926 -19.680919
34.30855 -4.277675 -19.664656
34.353193 -3.286246 -20.736424
33.711258 -3.406226 -19.689244
35.382191 -6.851446 -18.687538
34.819561 -6.913862 -17.628454
35.968252 -6.783184 -19.755227
35.427542 -5.955847 -19.699498
35.382191 -6.851446 -18.687538
36.483188 -6.769781 -20.843162
35.968252 -6.783184 -19.755227
14.229841 37.024405 -55.268681
14.869979 36.534284 -55.962986
30.374523 14.361287 -34.647247
30.525325 13.294355 -33.549524
31.154598 13.747606 -34.718496
28.833595 15.423661 -34.385335
28.667722 16.463445 -35.432941
26.505381 20.634304 -38.349348
27.343824 20.063875 -38.534029
26.27981 21.706266 -39.45068
26.505381 20.634304 -38.349348
26.780276 22.206277 -40.776144
25.942916 22.792213 -40.576792
26.27981 21.706266 -39.45068
33.88695 20.331713 -53.779325
34.347434 19.542057 -52.580635
33.147917 21.520826 -53.908279
33.88695 20.331713 -53.779325
23.564869 25.805349 -41.755667
23.161828 26.830012 -42.698173
24.381138 25.238104 -42.087187
23.564869 25.805349 -41.755667
25.210622 24.730269 -42.484112
24.799273 25.772725 -43.508219
24.381138 25.238104 -42.087187
39.830867 -5.261078 -35.998424
39.730854 -4.71303 -35.27562
39.789376 -6.174602 -34.916946
39.88254 -4.436374 -37.071936
39.830867 -5.261078 -35.998424
39.897386 -3.522376 -38.086436
39.787193 -2.885508 -37.371598
39.88254 -4.436374 -37.071936
18.781315 33.948442 -59.308007
17.932472 34.465929 -58.802366
18.842039 34.123406 -57.988112
19.33837 29.133409 -69.018375
19.565729 29.847634 -68.173141
20.223478 28.320142 -69.304794
19.33837 29.133409 -69.018375
24.622716 23.116162 -69.700428
23.789867 24.232022 -69.766189
24.797885 24.137212 -69.083286
25.442946 21.924627 -69.545864
24.434927 22.019438 -70.228767
24.622716 23.116162 -69.700428
25.442946 21.924627 -69.545864
26.459018 21.732596 -68.806721
30.517058 4.927799 -24.532131
30.471342 4.021314 -23.544422
31.286544 5.314278 -25.684989
30.553959 5.97309 -25.645688
30.517058 4.927799 -24.532131
19.350354 33.118132 -48.89736
18.691387 33.928442 -49.746167
20.173641 32.523748 -49.523629
19.350354 33.118132 -48.89736
20.003633 32.362797 -48.137736
39.470274 -10.566971 -29.825389
39.407475 -10.177028 -29.127807
39.547796 -11.035538 -30.542966
39.551152 -9.715537 -30.880526
39.470274 -10.566971 -29.825389
39.589432 -11.569339 -31.195497
39.547796 -11.035538 -30.542966
39.508555 -12.420772 -30.14036
28.510303 17.446646 -36.482492
28.667722 16.463445 -35.432941
29.31285 16.957956 -36.686666
28.362954 18.47429 -37.577122
28.510303 17.446646 -36.482492
28.109985 19.528495 -38.683234
28.362954 18.47429 -37.577122
28.902461 18.995363 -38.842329
27.883331 20.584949 -39.799237
27.343824 20.063875 -38.534029
28.109985 19.528495 -38.683234
40.109211 -2.103798 -43.012394
40.122425 -2.909149 -41.865757
39.975624 -0.531596 -43.391533
40.109211 -2.103798 -43.012394
40.063393 -1.282577 -44.154919
22.180654 32.061226 -58.861871
21.400171 32.568184 -58.373552
22.241965 32.091549 -57.521907
22.180654 32.061226 -58.861871
23.053447 31.461272 -59.31494
24.007424 30.623176 -60.939495
23.952188 30.822744 -59.720816
24.875165 30.107968 -60.040659
24.007424 30.623176 -60.939495
24.009622 30.341477 -62.130825
21.984009 30.670575 -64.936512
22.993893 30.365806 -64.111599
21.880879 30.19466 -65.906715
21.984009 30.670575 -64.936512
22.690208 29.372805 -66.296054
21.672144 29.610408 -66.981884
21.880879 30.19466 -65.906715
21.662677 29.729031 -45.47948
21.175262 30.632681 -46.374825
22.522123 29.187228 -46.089174
21.662677 29.729031 -45.47948
22.232048 28.809096 -44.612307
23.530642 27.273927 -44.166647
22.722681 27.823379 -43.753526
23.161828 26.830012 -42.698173
39.777902 1.099181 -47.579605
39.894678 0.388016 -46.440061
39.556602 2.850649 -47.97505
39.777902 1.099181 -47.579605
39.606661 1.9816 -48.752394
39.136088 4.580583 -50.387217
39.400637 2.90332 -49.912144
39.081147 5.478941 -49.601439
39.136088 4.580583 -50.387217
38.831873 6.326455 -50.840817
37.612135 11.794816 -51.307642
37.522545 12.288456 -50.368381
37.954035 10.834967 -50.069097
37.612135 11.794816 -51.307642
37.702553 11.146052 -52.235265
15.796138 36.280491 -54.002203
15.09684 36.854473 -53.303423
15.856324 36.409878 -52.711529
15.598657 35.984829 -56.767818
14.869979 36.534284 -55.962986
15.765332 36.17563 -55.398929
16.364671 35.46484 -57.522522
17.243603 35.133533 -56.843116
17.114263 34.972199 -58.161876
15.598657 35.984829 -56.767818
16.364671 35.46484 -57.522522
20.514871 33.07189 -59.103634
20.576181 33.102213 -57.76367
21.400171 32.568184 -58.373552
19.620936 33.430411 -59.86363
20.514871 33.07189 -59.103634
18.781315 33.948442 -59.308007
19.620936 33.430411 -59.86363
21.463086 28.935564 -67.960735
20.653756 29.757418 -67.571396
21.672144 29.610408 -66.981884
21.104365 27.417847 -69.541367
20.223478 28.320142 -69.304794
21.325585 28.18028 -68.78682
22.013376 26.406636 -69.702713
23.085754 26.265529 -69.08622
22.892658 25.394179 -69.765541
21.104365 27.417847 -69.541367
22.013376 26.406636 -69.702713
30.615455 8.974694 -28.869717
30.578573 7.977654 -27.772596
31.338495 9.433522 -30.066824
30.600735 10.056809 -30.019779
30.615455 8.974694 -28.869717
16.575405 35.839958 -52.011291
15.856324 36.409878 -52.711529
17.302889 35.269464 -52.725494
16.575405 35.839958 -52.011291
17.322672 35.273527 -51.326477
18.785259 33.991058 -51.161967
17.956285 34.640417 -50.62488
18.691387 33.928442 -49.746167
21.389837 30.937788 -47.860176
20.612345 31.463307 -47.278652
21.175262 30.632681 -46.374825
38.11525 -6.899263 -24.863338
37.788843 -6.717472 -23.958533
38.146454 -5.922813 -25.86218
38.11525 -6.899263 -24.863338
38.425213 -6.97435 -25.806971
39.100815 -7.582495 -28.526438
38.921351 -7.274218 -27.68817
39.146828 -6.594765 -29.51772
39.100815 -7.582495 -28.526438
39.273388 -7.828333 -29.337851
39.829624 -7.623235 -34.623131
39.789376 -6.174602 -34.916946
39.72961 -7.075187 -33.900326
39.829624 -7.623235 -34.623131
39.846649 -9.079036 -34.307758
39.479862 -14.321192 -30.502111
39.454487 -13.800477 -29.815676
39.594919 -13.633286 -31.474167
39.479862 -14.321192 -30.502111
39.524591 -14.999904 -31.183385
39.686574 -12.888263 -32.460966
39.641846 -12.20955 -31.779691
39.594919 -13.633286 -31.474167
39.801593 -12.032681 -33.473039
39.686574 -12.888263 -32.460966
39.82847 -10.54939 -33.887749
39.801593 -12.032681 -33.473039
30.367024 2.137461 -21.495899
30.424169 3.098477 -22.557835
31.143955 1.455547 -21.600677
30.367024 2.137461 -21.495899
31.835791 0.71045 -21.606918
31.847134 1.678216 -22.604499
31.143955 1.455547 -21.600677
32.512356 -0.026673 -21.618027
31.835791 0.71045 -21.606918
31.809176 -0.249342 -20.614206
32.416089 -1.89176 -19.61307
31.73799 -1.176494 -19.57181
33.120821 -1.700632 -20.693163
32.416089 -1.89176 -19.61307
33.051169 -2.605926 -19.680919
34.185129 -6.08098 -17.593082
34.819561 -6.913862 -17.628454
34.254047 -5.210881 -18.624643
34.185129 -6.08098 -17.593082
34.895983 -5.090902 -19.671823
34.30855 -4.277675 -19.664656
34.254047 -5.210881 -18.624643
36.975774 -6.699857 -21.910203
36.506189 -5.817661 -21.834229
36.483188 -6.769781 -20.843162
37.369985 -6.667478 -22.949894
36.975774 -6.699857 -21.910203
14.329531 37.295929 -54.014076
15.09684 36.854473 -53.303423
14.329531 37.295929 -54.014076
14.229841 37.024405 -55.268681
30.587339 12.247287 -32.427236
30.596525 11.164769 -31.225293
31.314588 11.598155 -32.41883
30.587339 12.247287 -32.427236
30.525325 13.294355 -33.549524
29.60776 14.941396 -34.557695
30.374523 14.361287 -34.647247
30.237033 15.394646 -35.726667
29.60776 14.941396 -34.557695
28.833595 15.423661 -34.385335
25.617934 23.743936 -41.482668
25.942916 22.792213 -40.576792
26.036069 24.278558 -42.9037
25.210622 24.730269 -42.484112
25.617934 23.743936 -41.482668
39.919147 -2.5164 -39.23095
39.897386 -3.522376 -38.086436
40.028848 -2.207053 -41.162405
40.122425 -2.909149 -41.865757
39.916155 -1.619812 -40.300808
40.028848 -2.207053 -41.162405
39.908749 -0.765575 -41.387411
39.799048 -1.074922 -39.455956
39.919147 -2.5164 -39.23095
39.916155 -1.619812 -40.300808
39.828825 1.128928 -45.66816
39.995659 -0.451287 -45.30596
39.894678 0.388016 -46.440061
37.044089 13.685358 -50.573403
37.385989 12.725509 -49.334858
37.522545 12.288456 -50.368381
36.552119 14.997763 -50.762159
37.044089 13.685358 -50.573403
35.984244 16.312283 -51.051136
36.339657 15.43693 -49.828856
36.552119 14.997763 -50.762159
35.37831 17.59583 -51.301809
35.984244 16.312283 -51.051136
34.796667 18.646553 -51.287309
35.19014 17.802174 -50.103333
35.37831 17.59583 -51.301809
34.159264 19.748402 -51.382159
34.796667 18.646553 -51.287309
34.347434 19.542057 -52.580635
32.45332 22.516754 -53.998385
33.015433 21.639834 -52.765589
33.147917 21.520826 -53.908279
31.847034 23.381035 -55.197764
31.714549 23.500045 -54.055073
32.45332 22.516754 -53.998385
31.172338 24.215545 -56.419634
31.847034 23.381035 -55.197764
30.478008 25.00228 -57.568298
30.413933 25.15106 -56.403116
31.172338 24.215545 -56.419634
29.828401 25.612372 -58.662348
30.478008 25.00228 -57.568298
29.099919 26.245216 -59.788345
28.991122 26.570637 -58.677779
29.828401 25.612372 -58.662348
29.15296 25.850872 -60.876164
28.31568 26.809137 -60.891594
29.099919 26.245216 -59.788345
29.181287 25.387438 -61.900961
29.15296 25.850872 -60.876164
29.081575 24.911828 -62.950542
28.26901 25.939183 -63.028993
29.181287 25.387438 -61.900961
28.986198 24.369715 -63.909802
29.081575 24.911828 -62.950542
28.916491 23.63995 -64.801129
28.099592 24.733809 -64.969902
28.986198 24.369715 -63.909802
28.807847 22.779737 -65.694988
28.916491 23.63995 -64.801129
28.589087 22.04176 -66.468937
27.811127 23.266067 -66.635177
28.807847 22.779737 -65.694988
28.442844 21.129347 -67.120964
28.589087 22.04176 -66.468937
27.439834 21.485965 -68.002522
28.442844 21.129347 -67.120964
3 1 55 53
3 1 57 55
3 0 60 58
3 2 64 62
3 2 66 64
3 3 70 68
3 214 71 215
3 4 74 72
3 4 216 218
3 218 217 74
3 216 217 218
3 5 219 221
3 219 75 220
3 219 220 221
3 7 78 76
3 7 80 78
3 222 82 223
3 8 85 83
3 8 87 85
3 224 89 225
3 6 226 227
3 10 92 90
3 10 93 92
3 10 95 93
3 11 98 96
3 11 100 98
3 9 103 101
3 12 106 104
3 12 108 106
3 228 110 229
3 13 113 111
3 13 115 113
3 13 117 115
3 14 230 232
3 232 231 118
3 230 231 232
3 15 233 235
3 235 234 54
3 233 234 235
3 15 236 238
3 236 119 237
3 236 237 238
3 15 121 119
3 17 122 56
3 17 123 122
3 18 126 124
3 20 127 59
3 20 128 127
3 239 130 240
3 22 131 61
3 22 132 131
3 23 135 133
3 25 136 63
3 25 137 136
3 25 139 137
3 27 140 65
3 27 141 140
3 28 144 142
3 30 145 67
3 30 146 145
3 241 148 242
3 243 149 244
3 245 150 246
3 247 246 149
3 245 246 247
3 249 248 150
3 32 153 151
3 251 250 69
3 16 154 120
3 253 252 73
3 33 254 255
3 33 256 258
3 256 155 257
3 256 257 258
3 19 156 125
3 34 157 77
3 34 158 157
3 34 159 158
3 35 160 79
3 35 161 160
3 259 162 260
3 36 163 81
3 36 164 163
3 21 165 129
3 37 166 84
3 37 167 166
3 37 168 167
3 38 169 86
3 38 170 169
3 261 173 262
3 263 262 171
3 261 262 263
3 264 174 265
3 266 175 267
3 268 267 174
3 266 267 268
3 40 269 270
3 40 271 273
3 271 176 272
3 271 272 273
3 40 177 176
3 41 178 88
3 41 274 276
3 276 275 178
3 274 275 276
3 277 179 278
3 279 180 280
3 281 181 282
3 283 282 180
3 281 282 283
3 284 182 285
3 286 183 287
3 288 287 182
3 286 287 288
3 290 289 183
3 292 291 152
3 24 293 295
3 295 294 134
3 293 294 295
3 297 296 91
3 42 298 299
3 42 300 301
3 42 302 304
3 302 184 303
3 302 303 304
3 43 185 94
3 43 186 185
3 26 187 138
3 44 188 97
3 44 189 188
3 44 190 189
3 45 191 99
3 45 192 191
3 39 193 172
3 46 194 102
3 46 195 194
3 29 196 143
3 47 197 105
3 47 198 197
3 47 199 198
3 48 200 107
3 48 201 200
3 49 202 109
3 49 203 202
3 31 204 147
3 50 205 112
3 50 206 205
3 50 207 206
3 51 208 114
3 51 209 208
3 51 210 209
3 52 211 116
3 52 212 211
3 305 213 306
3 308 307 213
3 53 54 14
3 55 54 53
3 55 15 54
3 55 56 15
3 57 56 55
3 57 17 56
3 58 59 18
3 60 59 58
3 60 20 59
3 309 61 310
3 311 61 312
3 313 22 314
3 315 314 61
3 313 314 315
3 62 63 23
3 64 63 62
3 64 25 63
3 64 65 25
3 66 65 64
3 66 27 65
3 316 67 317
3 318 317 28
3 316 317 318
3 319 67 320
3 321 30 322
3 323 322 67
3 321 322 323
3 68 69 32
3 70 69 68
3 70 324 326
3 326 325 69
3 324 325 326
3 71 327 328
3 71 329 330
3 72 73 16
3 74 73 72
3 74 331 333
3 333 332 73
3 331 332 333
3 74 334 336
3 334 335 336
3 338 337 74
3 75 339 340
3 75 341 343
3 341 33 342
3 341 342 343
3 76 77 19
3 78 77 76
3 78 34 77
3 78 79 34
3 80 79 78
3 80 35 79
3 344 81 345
3 82 346 348
3 346 81 347
3 346 347 348
3 82 36 81
3 83 84 21
3 85 84 83
3 85 37 84
3 85 86 37
3 87 86 85
3 87 38 86
3 349 40 350
3 351 88 352
3 353 352 40
3 351 352 353
3 89 354 356
3 354 88 355
3 354 355 356
3 89 41 88
3 90 91 24
3 92 91 90
3 92 357 359
3 359 358 91
3 357 358 359
3 92 360 361
3 93 362 364
3 364 363 92
3 362 363 364
3 93 365 367
3 365 42 366
3 365 366 367
3 93 94 42
3 95 94 93
3 95 43 94
3 96 97 26
3 98 97 96
3 98 44 97
3 98 99 44
3 100 99 98
3 100 45 99
3 101 102 39
3 103 102 101
3 103 46 102
3 104 105 29
3 106 105 104
3 106 47 105
3 106 107 47
3 108 107 106
3 108 48 107
3 368 109 369
3 110 370 372
3 370 109 371
3 370 371 372
3 110 49 109
3 111 112 31
3 113 112 111
3 113 50 112
3 113 114 50
3 115 114 113
3 115 51 114
3 115 116 51
3 117 116 115
3 117 52 116
3 118 373 375
3 375 374 3
3 373 374 375
3 377 376 118
3 54 378 380
3 380 379 14
3 378 379 380
3 382 381 54
3 119 383 384
3 119 385 386
3 119 387 389
3 387 120 388
3 387 388 389
3 121 120 119
3 121 16 120
3 56 121 15
3 122 121 56
3 122 16 121
3 122 72 16
3 123 72 122
3 123 4 72
3 124 125 5
3 126 125 124
3 126 19 125
3 59 126 18
3 127 126 59
3 127 19 126
3 127 76 19
3 128 76 127
3 128 7 76
3 390 129 391
3 130 392 394
3 392 129 393
3 392 393 394
3 130 21 129
3 61 395 397
3 395 130 396
3 395 396 397
3 131 130 61
3 131 21 130
3 131 83 21
3 132 83 131
3 132 8 83
3 133 134 6
3 135 134 133
3 135 24 134
3 63 135 23
3 136 135 63
3 136 24 135
3 136 90 24
3 137 90 136
3 137 10 90
3 137 138 10
3 139 138 137
3 139 26 138
3 65 139 25
3 140 139 65
3 140 26 139
3 140 96 26
3 141 96 140
3 141 11 96
3 142 143 9
3 144 143 142
3 144 29 143
3 67 144 28
3 145 144 67
3 145 29 144
3 145 104 29
3 146 104 145
3 146 12 104
3 398 147 399
3 148 400 402
3 400 147 401
3 400 401 402
3 148 31 147
3 403 148 404
3 149 405 407
3 405 148 406
3 405 406 407
3 149 31 148
3 149 111 31
3 150 111 149
3 150 13 111
3 150 408 410
3 410 409 13
3 408 409 410
3 412 411 150
3 151 413 415
3 413 152 414
3 413 414 415
3 153 152 151
3 153 416 418
3 418 417 152
3 416 417 418
3 69 153 32
3 419 153 420
3 421 420 69
3 419 420 421
3 423 422 153
3 424 70 425
3 426 425 3
3 424 425 426
3 427 70 428
3 430 429 70
3 120 431 433
3 431 71 432
3 431 432 433
3 154 71 120
3 154 434 436
3 436 435 71
3 434 435 436
3 73 154 16
3 437 154 438
3 439 438 73
3 437 438 439
3 441 440 154
3 155 442 443
3 155 444 446
3 444 6 445
3 444 445 446
3 125 75 5
3 156 75 125
3 156 33 75
3 77 156 19
3 157 156 77
3 157 33 156
3 157 155 33
3 158 155 157
3 158 6 155
3 158 133 6
3 159 133 158
3 159 23 133
3 79 159 34
3 160 159 79
3 160 23 159
3 160 62 23
3 161 62 160
3 161 2 62
3 447 151 448
3 162 449 451
3 449 151 450
3 449 450 451
3 162 32 151
3 81 452 454
3 452 162 453
3 452 453 454
3 163 162 81
3 163 32 162
3 163 68 32
3 164 68 163
3 164 3 68
3 129 455 457
3 455 82 456
3 455 456 457
3 165 82 129
3 165 36 82
3 84 165 21
3 166 165 84
3 166 36 165
3 166 164 36
3 167 164 166
3 167 3 164
3 167 118 3
3 168 118 167
3 168 14 118
3 86 168 37
3 169 168 86
3 169 14 168
3 169 53 14
3 170 53 169
3 170 1 53
3 171 172 0
3 173 172 171
3 173 39 172
3 458 173 459
3 174 460 462
3 460 173 461
3 460 461 462
3 174 39 173
3 174 101 39
3 175 101 174
3 175 9 101
3 463 175 464
3 176 465 467
3 465 175 466
3 465 466 467
3 176 9 175
3 176 142 9
3 177 142 176
3 177 28 142
3 88 177 40
3 178 177 88
3 178 28 177
3 178 468 470
3 470 469 28
3 468 469 470
3 472 471 178
3 473 89 474
3 475 89 476
3 475 476 477
3 478 41 479
3 480 479 89
3 478 479 480
3 481 41 482
3 484 483 41
3 485 5 486
3 487 5 488
3 489 124 490
3 491 490 5
3 489 490 491
3 179 492 494
3 492 124 493
3 492 493 494
3 179 18 124
3 495 179 496
3 180 497 499
3 497 179 498
3 497 498 499
3 180 18 179
3 180 58 18
3 181 58 180
3 181 0 58
3 182 500 501
3 182 502 503
3 182 504 506
3 504 181 505
3 504 505 506
3 183 181 182
3 183 0 181
3 183 171 0
3 507 171 508
3 509 508 183
3 507 508 509
3 511 510 171
3 152 512 513
3 515 514 152
3 134 516 518
3 518 517 6
3 516 517 518
3 520 519 134
3 91 521 523
3 523 522 24
3 521 522 523
3 525 524 91
3 184 526 527
3 184 528 530
3 528 22 529
3 528 529 530
3 94 184 42
3 185 184 94
3 185 22 184
3 185 132 22
3 186 132 185
3 186 8 132
3 138 95 10
3 187 95 138
3 187 43 95
3 97 187 26
3 188 187 97
3 188 43 187
3 188 186 43
3 189 186 188
3 189 8 186
3 189 87 8
3 190 87 189
3 190 38 87
3 99 190 44
3 191 190 99
3 191 38 190
3 191 170 38
3 192 170 191
3 192 1 170
3 172 60 0
3 193 60 172
3 193 20 60
3 102 193 39
3 194 193 102
3 194 20 193
3 194 128 20
3 195 128 194
3 195 7 128
3 143 103 9
3 196 103 143
3 196 46 103
3 105 196 29
3 197 196 105
3 197 46 196
3 197 195 46
3 198 195 197
3 198 7 195
3 198 80 7
3 199 80 198
3 199 35 80
3 107 199 47
3 200 199 107
3 200 35 199
3 200 161 35
3 201 161 200
3 201 2 161
3 531 30 532
3 109 533 534
3 202 535 537
3 537 536 109
3 535 536 537
3 202 538 540
3 538 30 539
3 538 539 540
3 202 146 30
3 203 146 202
3 203 12 146
3 147 541 543
3 541 110 542
3 541 542 543
3 204 110 147
3 204 49 110
3 112 204 31
3 205 204 112
3 205 49 204
3 205 203 49
3 206 203 205
3 206 12 203
3 206 108 12
3 207 108 206
3 207 48 108
3 114 207 50
3 208 207 114
3 208 48 207
3 208 201 48
3 209 201 208
3 209 2 201
3 209 66 2
3 210 66 209
3 210 27 66
3 116 210 51
3 211 210 116
3 211 27 210
3 211 141 27
3 212 141 211
3 212 11 141
3 544 117 545
3 546 545 13
3 544 545 546
3 547 117 548
3 549 52 550
3 551 550 117
3 549 550 551
3 552 52 553
3 554 212 555
3 556 555 52
3 554 555 556
3 213 557 559
3 557 212 558
3 557 558 559
3 213 11 212
3 213 100 11
3 560 100 561
3 562 561 213
3 560 561 562
3 563 45 564
3 565 564 100
3 563 564 565
3 566 45 567
3 568 192 569
3 570 569 45
3 568 569 570
3 571 192 572
3 573 1 574
3 575 574 192
3 573 574 575
3 576 57 577
3 578 577 1
3 576 577 578
3 579 57 580
3 581 17 582
3 583 582 57
3 581 582 583
3 584 17 585
3 586 123 587
3 588 587 17
3 586 587 588
3 589 123 590
3 591 4 592
3 593 592 123
3 591 592 593
3 594 4 595
3 597 596 4
