ply
format ascii 1.0
element vertex 313
property float x
property float y
property float z
element face 304
property list uchar int vertex_index
end_header
37.624447 10.544029 18.289042
30.94385 0.618132 33.173206
30.966967 24.270493 37.74786
32.203079 16.492239 31.775785
35.085522 22.957891 24.228546
34.157463 6.178484 26.350353
31.626787 8.658274 32.541512
33.103733 11.610577 29.139971
32.4566 3.316996 29.83807
33.340748 -2.160655 27.106377
38.015926 19.480251 16.780144
31.714117 28.251171 34.318779
32.524269 24.414171 31.127384
31.429522 20.733162 34.758701
30.968338 12.994728 35.266632
30.386303 5.579342 35.850773
36.639591 25.99419 19.743813
36.407673 17.352676 21.344315
33.569168 19.921293 28.230526
34.742176 14.527452 25.422823
35.891235 8.304079 22.595407
29.755688 -2.044101 36.436649
31.279842 4.621838 32.905293
31.999023 6.104523 31.266014
31.671221 2.139767 31.537239
32.062157 -0.645029 30.195448
31.31938 -1.99023 31.764099
37.859798 15.050875 17.577141
31.32386 26.212425 36.036102
31.616838 24.455755 34.411282
31.159384 22.520613 36.249889
30.723713 9.296974 35.430477
30.216513 7.676479 37.06995
35.11837 27.411501 23.611044
35.860329 29.046059 21.317299
35.843483 24.493118 22.105255
36.587288 21.537012 20.524124
35.751942 20.044323 22.801483
32.388767 20.456524 31.463072
33.050346 22.510324 29.583685
32.85339 18.357513 30.085608
33.614166 9.112801 27.794525
33.90274 13.304283 27.351217
34.502827 10.314893 25.866264
35.36071 11.837755 23.961527
35.048645 7.450119 24.472437
33.839569 -5.346993 25.509792
29.343702 -3.272704 37.97263
34.426075 25.511326 25.686646
31.934114 12.559452 32.169918
32.598618 13.891927 30.529612
32.337688 9.879803 30.849415
32.793201 7.48669 29.528374
33.300213 5.007346 28.132797
33.72131 1.933358 26.847893
32.878807 0.731918 28.543056
32.516121 -3.379696 28.741219
32.624004 28.533714 30.732756
32.08036 26.395029 32.689529
31.963526 22.449471 32.927387
31.77742 18.513315 33.244919
31.56094 14.820942 33.530117
31.298695 11.020617 33.823273
30.970203 7.145331 34.204693
30.62731 3.040165 34.517227
37.30534 6.073011 18.897108
37.41547 26.994364 17.344936
37.375111 22.577785 18.248087
37.243191 18.451206 19.085691
37.011692 13.972909 19.938313
33.128735 26.385094 29.226027
33.71307 24.094635 27.699345
34.293129 21.369091 26.345594
33.325253 15.786341 28.803053
34.121449 17.264151 26.887569
34.968086 18.708443 24.807878
35.577694 15.728464 23.445679
36.209389 12.78537 21.964367
36.743946 9.484996 20.586048
34.19627 -1.188519 25.379589
29.809156 6.149021 38.713535
29.91934 3.963557 37.359928
30.072447 1.530368 36.077888
30.287107 -0.819685 34.836479
30.578007 -3.20159 33.514999
38.019644 11.004818 17.123787
38.13732 13.258242 16.767836
37.742123 12.797452 17.933091
30.147092 8.623287 37.731144
30.350367 9.499185 36.96463
34.405109 4.663747 25.650089
34.850701 5.299564 24.711131
34.603054 6.814302 25.411395
29.17624 -3.897396 38.827225
29.306556 -2.146532 38.63513
34.123058 26.915717 26.367605
34.441145 27.732456 25.357062
32.111866 -3.918584 29.582626
32.289139 -2.012363 29.468333
31.884884 -2.551251 30.309741
32.317465 -5.322223 28.877103
32.111866 -3.918584 29.582626
38.392545 19.835573 15.534156
38.056189 21.548548 16.363186
31.897239 27.3231 33.504154
32.137374 28.490448 32.492584
31.954253 29.418519 33.307209
31.0874 14.92812 35.1602
30.856981 14.059607 35.946602
31.264639 13.907835 34.398375
31.3837 15.841227 34.291942
31.0874 14.92812 35.1602
37.530388 4.34819 18.04025
37.111858 3.911596 19.144959
36.641852 28.176844 19.286164
36.25222 29.702778 20.072907
36.24996 27.520125 20.530556
37.02753 26.494277 18.544374
37.029791 28.676931 18.086726
36.641852 28.176844 19.286164
36.171093 6.690785 21.799284
36.597448 7.281244 20.794604
36.317591 8.894538 21.590727
34.278877 -4.843003 24.616802
34.077005 -6.932212 24.69441
29.679572 4.382417 38.823623
29.667419 5.526092 39.518257
29.734664 3.289685 38.14682
29.864248 5.056289 38.036732
29.679572 4.382417 38.823623
29.914068 -0.256866 36.257269
29.849974 0.958982 36.874075
29.691595 -0.828252 37.053455
30.395556 -5.177031 33.676645
30.266157 -3.815764 34.347147
30.734583 -4.552679 32.855098
30.395556 -5.177031 33.676645
31.513495 -3.223851 31.094067
31.884884 -2.551251 30.309741
31.690768 -1.31763 30.979774
38.239086 15.459458 16.387249
38.31715 17.674146 15.988751
37.937862 17.265563 17.178643
38.239086 15.459458 16.387249
38.13732 13.258242 16.767836
30.72628 12.158309 36.062971
30.856981 14.059607 35.946602
30.603967 10.309432 36.144894
30.846025 11.145851 35.348555
30.72628 12.158309 36.062971
30.470113 8.486726 36.250214
30.603967 10.309432 36.144894
30.350367 9.499185 36.96463
35.48935 28.22878 22.464171
35.507875 30.326597 22.037622
35.136896 29.509318 23.184494
35.318445 5.769913 23.710658
35.73974 6.196893 22.772143
35.46994 7.877099 23.533922
35.318445 5.769913 23.710658
34.850701 5.299564 24.711131
33.406389 -5.852535 26.378973
33.590159 -3.753824 26.308084
33.156978 -4.259366 27.177265
33.642669 -7.284353 25.606233
33.406389 -5.852535 26.378973
34.077005 -6.932212 24.69441
33.642669 -7.284353 25.606233
29.485602 -1.442554 37.821446
29.306556 -2.146532 38.63513
29.549695 -2.658403 37.204639
29.691595 -0.828252 37.053455
29.485602 -1.442554 37.821446
30.874637 22.36144 37.794464
30.809297 23.124259 38.526264
34.787292 28.682544 24.319261
35.136896 29.509318 23.184494
34.772222 26.461413 24.648845
34.787292 28.682544 24.319261
34.441145 27.732456 25.357062
32.744665 -4.868887 27.994687
33.156978 -4.259366 27.177265
32.928434 -2.770176 27.923798
32.744665 -4.868887 27.994687
32.317465 -5.322223 28.877103
38.392545 19.835573 15.534156
38.31715 17.674146 15.988751
32.409197 29.55979 31.514198
32.667013 30.583723 30.461897
32.352182 27.464371 31.711143
32.409197 29.55979 31.514198
32.137374 28.490448 32.492584
30.970845 21.4865 37.045479
31.063175 23.395553 36.998874
30.874637 22.36144 37.794464
31.064772 20.669356 36.339846
30.970845 21.4865 37.045479
31.199841 19.77563 35.594251
31.294453 21.626888 35.504295
31.064772 20.669356 36.339846
31.317991 18.797337 34.906234
31.199841 19.77563 35.594251
31.49194 17.687413 34.149344
31.603471 19.623238 34.00181
31.317991 18.797337 34.906234
31.66918 16.667129 33.387518
31.49194 17.687413 34.149344
31.3837 15.841227 34.291942
37.708801 6.438643 17.773957
37.868355 8.674152 17.469924
37.464894 8.30852 18.593075
37.708801 6.438643 17.773957
37.530388 4.34819 18.04025
35.883074 31.142308 20.777302
35.507875 30.326597 22.037622
35.883074 31.142308 20.777302
36.25222 29.702778 20.072907
37.391627 29.239322 16.866188
37.029791 28.676931 18.086726
37.742327 27.556203 16.211683
37.391627 29.239322 16.866188
37.755961 25.305605 16.645582
37.742327 27.556203 16.211683
37.735781 23.097316 17.097158
37.755961 25.305605 16.645582
37.395291 24.786074 17.796512
37.695518 21.029018 17.514116
38.056189 21.548548 16.363186
37.735781 23.097316 17.097158
32.922043 29.479461 29.686088
32.667013 30.583723 30.461897
33.174408 28.405151 28.932724
32.922043 29.479461 29.686088
32.876369 27.459404 29.979391
33.474389 27.352601 28.137296
33.174408 28.405151 28.932724
33.766556 26.207372 27.373955
33.474389 27.352601 28.137296
33.420902 25.239864 28.462686
34.069572 24.802981 26.692996
34.123058 26.915717 26.367605
33.766556 26.207372 27.373955
36.878146 5.575251 19.950134
37.024643 7.779003 19.741578
36.597448 7.281244 20.794604
37.111858 3.911596 19.144959
36.878146 5.575251 19.950134
36.171093 6.690785 21.799284
35.73974 6.196893 22.772143
34.187033 2.541183 25.898859
34.405109 4.663747 25.650089
33.939386 4.055921 26.599123
34.424513 0.980245 25.164707
34.187033 2.541183 25.898859
33.95879 0.372419 26.113741
34.674177 -0.678655 24.389209
34.424513 0.980245 25.164707
34.457228 -2.763766 24.5517
34.017919 -3.267756 25.444691
34.278877 -4.843003 24.616802
34.674177 -0.678655 24.389209
34.457228 -2.763766 24.5517
31.780191 30.318929 34.10759
31.954253 29.418519 33.307209
32.020327 31.486277 33.096019
31.584949 29.122879 35.085994
31.780191 30.318929 34.10759
31.38982 28.103506 35.944656
31.518988 27.231798 35.177441
31.584949 29.122879 35.085994
31.2132 26.975752 36.888589
31.38982 28.103506 35.944656
31.034753 26.004787 37.744468
31.145414 25.241459 36.891981
31.2132 26.975752 36.888589
30.890049 24.887592 38.561544
31.034753 26.004787 37.744468
30.809297 23.124259 38.526264
30.890049 24.887592 38.561544
29.791881 7.188514 39.339828
29.667419 5.526092 39.518257
29.943413 7.859558 38.552937
29.791881 7.188514 39.339828
30.012835 6.91275 37.891742
30.147092 8.623287 37.731144
29.943413 7.859558 38.552937
29.773421 2.175577 37.515095
29.734664 3.289685 38.14682
29.995894 2.746962 36.718908
29.773421 2.175577 37.515095
29.849974 0.958982 36.874075
29.184069 -5.16974 38.25022
29.17624 -3.897396 38.827225
29.391379 -4.493106 37.3974
29.184069 -5.16974 38.25022
29.597372 -3.878805 36.62941
29.549695 -2.658403 37.204639
29.391379 -4.493106 37.3974
29.854998 -3.237019 35.807972
29.597372 -3.878805 36.62941
30.120708 -2.624811 35.007887
30.021397 -1.431893 35.636564
29.854998 -3.237019 35.807972
30.432557 -2.010638 34.175739
30.120708 -2.624811 35.007887
30.266157 -3.815764 34.347147
31.105269 -3.946999 31.979648
30.948693 -2.59591 32.639549
30.734583 -4.552679 32.855098
31.513495 -3.223851 31.094067
31.105269 -3.946999 31.979648
38.019644 11.004818 17.123787
37.868355 8.674152 17.469924
3 1 24 22
3 1 26 24
3 0 85 87
3 87 86 27
3 85 86 87
3 2 30 28
3 88 32 89
3 4 35 33
3 4 37 35
3 3 40 38
3 5 43 41
3 5 45 43
3 5 90 92
3 92 91 45
3 90 91 92
3 93 47 94
3 95 48 96
3 6 51 49
3 8 52 23
3 8 53 52
3 8 55 53
3 97 56 98
3 99 98 25
3 97 98 99
3 101 100 56
3 10 102 103
3 11 104 106
3 104 58 105
3 104 105 106
3 13 59 29
3 13 60 59
3 14 107 108
3 14 109 111
3 109 61 110
3 109 110 111
3 14 62 61
3 15 63 31
3 15 64 63
3 113 112 65
3 16 114 116
3 116 115 34
3 114 115 116
3 16 117 119
3 117 66 118
3 117 118 119
3 16 67 66
3 17 68 36
3 17 69 68
3 12 70 57
3 18 71 39
3 18 72 71
3 7 73 50
3 19 74 42
3 19 75 74
3 19 76 75
3 20 77 44
3 20 78 77
3 20 120 122
3 122 121 78
3 120 121 122
3 9 79 54
3 124 123 46
3 125 80 126
3 127 81 128
3 129 128 80
3 127 128 129
3 21 130 132
3 130 82 131
3 130 131 132
3 21 83 82
3 133 84 134
3 136 135 84
3 22 23 6
3 24 23 22
3 24 8 23
3 24 25 8
3 26 25 24
3 26 137 139
3 139 138 25
3 137 138 139
3 27 140 142
3 142 141 10
3 140 141 142
3 144 143 27
3 28 29 11
3 30 29 28
3 30 13 29
3 145 14 146
3 147 31 148
3 149 148 14
3 147 148 149
3 32 150 152
3 150 31 151
3 150 151 152
3 32 15 31
3 33 153 155
3 153 34 154
3 153 154 155
3 35 34 33
3 35 16 34
3 35 36 16
3 37 36 35
3 37 17 36
3 38 39 12
3 40 39 38
3 40 18 39
3 41 42 7
3 43 42 41
3 43 19 42
3 43 44 19
3 45 44 43
3 45 20 44
3 45 156 158
3 158 157 20
3 156 157 158
3 160 159 45
3 161 46 162
3 163 162 9
3 161 162 163
3 164 46 165
3 167 166 46
3 47 168 169
3 47 170 172
3 170 21 171
3 170 171 172
3 174 173 2
3 175 33 176
3 48 177 179
3 177 33 178
3 177 178 179
3 48 4 33
3 49 50 3
3 51 50 49
3 51 7 50
3 23 51 6
3 52 51 23
3 52 7 51
3 52 41 7
3 53 41 52
3 53 5 41
3 53 54 5
3 55 54 53
3 55 9 54
3 25 55 8
3 56 55 25
3 56 9 55
3 56 180 182
3 182 181 9
3 180 181 182
3 184 183 56
3 186 185 10
3 187 57 188
3 58 189 191
3 189 57 190
3 189 190 191
3 58 12 57
3 29 58 11
3 59 58 29
3 59 12 58
3 59 38 12
3 60 38 59
3 60 3 38
3 192 30 193
3 194 193 2
3 192 193 194
3 195 30 196
3 197 13 198
3 199 198 30
3 197 198 199
3 200 13 201
3 202 60 203
3 204 203 13
3 202 203 204
3 61 205 207
3 205 60 206
3 205 206 207
3 61 3 60
3 61 49 3
3 62 49 61
3 62 6 49
3 31 62 14
3 63 62 31
3 63 6 62
3 63 22 6
3 64 22 63
3 64 1 22
3 65 208 210
3 210 209 0
3 208 209 210
3 212 211 65
3 34 213 214
3 216 215 34
3 66 217 218
3 66 219 220
3 66 221 222
3 67 223 225
3 225 224 66
3 223 224 225
3 67 226 228
3 226 10 227
3 226 227 228
3 36 67 16
3 68 67 36
3 68 10 67
3 68 27 10
3 69 27 68
3 69 0 27
3 57 229 230
3 70 231 233
3 233 232 57
3 231 232 233
3 70 234 235
3 39 70 12
3 71 70 39
3 71 236 238
3 238 237 70
3 236 237 238
3 71 239 241
3 239 48 240
3 239 240 241
3 72 48 71
3 72 4 48
3 50 40 3
3 73 40 50
3 73 18 40
3 42 73 7
3 74 73 42
3 74 18 73
3 74 72 18
3 75 72 74
3 75 4 72
3 75 37 4
3 76 37 75
3 76 17 37
3 44 76 19
3 77 76 44
3 77 17 76
3 77 69 17
3 78 69 77
3 78 0 69
3 78 65 0
3 242 65 243
3 244 243 78
3 242 243 244
3 246 245 65
3 248 247 20
3 54 249 251
3 251 250 5
3 249 250 251
3 79 252 254
3 254 253 54
3 252 253 254
3 79 255 256
3 46 79 9
3 257 79 258
3 259 258 46
3 257 258 259
3 261 260 79
3 262 11 263
3 262 263 264
3 265 11 266
3 267 28 268
3 269 268 11
3 267 268 269
3 270 28 271
3 272 2 273
3 274 273 28
3 272 273 274
3 275 2 276
3 278 277 2
3 80 279 280
3 80 281 282
3 80 283 285
3 283 32 284
3 283 284 285
3 81 32 80
3 81 15 32
3 286 81 287
3 82 288 290
3 288 81 289
3 288 289 290
3 82 15 81
3 82 64 15
3 83 64 82
3 83 1 64
3 291 47 292
3 293 47 294
3 295 21 296
3 297 296 47
3 295 296 297
3 298 21 299
3 300 83 301
3 302 301 21
3 300 301 302
3 84 303 305
3 303 83 304
3 303 304 305
3 84 1 83
3 84 26 1
3 306 26 307
3 308 307 84
3 306 307 308
3 310 309 26
3 312 311 0
