ply
format ascii 1.0
element vertex 1024
property float x
property float y
property float z
element face 1348
property list uchar int vertex_index
end_header
5.290642 92.216187 13.272218
26.639883 70.671349 40.601261
10.067377 30.895485 59.100849
17.241879 88.481178 26.429325
13.464132 60.684536 47.224503
23.912971 41.333057 59.708942
30.472607 42.362617 45.787014
31.849077 64.573425 23.87517
10.891241 91.560295 18.951277
7.788511 67.332054 39.135071
17.190144 36.660641 60.863956
27.726677 82.772102 27.465693
30.568661 79.642288 18.666004
29.994617 69.269089 32.433414
31.050484 54.319225 35.71843
29.248367 57.094955 44.529713
23.766169 93.142593 20.609886
22.603289 81.540802 34.195953
3.70708 83.655731 21.84166
9.629138 80.467567 29.711304
15.572306 75.611443 37.837547
20.756092 67.568146 45.687832
11.58322 45.422916 53.960278
18.800379 52.153141 54.454544
25.302156 56.435669 51.494339
28.528067 43.112137 54.152588
30.595066 27.906807 44.907108
32.941936 72.365532 10.272032
34.214092 56.881264 16.166777
32.560143 48.555038 27.728998
31.362972 38.762562 37.228123
7.56675 95.674789 10.602893
11.019115 95.910431 13.368349
7.819668 92.088432 15.740464
2.372161 89.791832 13.402618
27.339041 77.199799 33.976131
29.052467 76.544792 29.915596
28.689432 70.431641 36.670193
29.615101 63.474812 38.719845
28.132362 64.028877 42.967911
17.74247 93.887482 20.233046
21.036634 96.52179 16.984173
20.654341 91.345406 23.935469
23.233923 87.686874 27.64477
20.07905 85.626686 30.277863
2.732856 78.019577 26.680838
6.66969 82.372482 25.617872
5.749183 76.443893 30.475183
10.646885 64.421936 43.072845
11.619124 71.370583 38.772312
14.463529 68.461357 42.717411
18.233772 71.834801 42.045895
17.248285 64.646339 46.734131
7.005913 34.673969 55.622032
7.723667 41.629936 53.114834
10.773339 37.818066 56.781925
20.825638 39.075706 60.907578
18.020927 44.327724 57.94212
21.50547 46.917931 57.516838
22.245171 54.575745 53.630432
24.603424 48.86882 55.966789
27.021833 49.838367 53.440254
26.522596 42.786217 57.421917
31.322397 72.039345 21.430927
31.673914 76.602852 14.312936
32.336483 68.95459 17.239071
33.6036 64.767365 13.428356
32.904518 61.193199 19.751404
33.356209 53.039417 22.095692
32.290665 56.735413 25.835651
30.73052 48.642803 41.014053
31.294359 46.519501 36.75882
30.93746 40.963337 41.387493
30.930998 33.516884 41.230583
30.669041 34.928204 45.512894
14.562564 95.625549 16.362837
14.295361 90.617554 22.478405
4.8117 69.820679 35.215446
6.691823 59.850239 43.241848
9.502278 56.702152 46.943981
13.686233 33.484062 60.324448
28.0429 87.978294 20.164181
29.601048 86.273933 15.777377
29.357176 81.699738 23.057699
30.274109 74.944382 25.670599
30.952482 67.331841 28.164421
31.432478 59.617039 30.021313
30.606441 61.991219 34.378498
30.293638 55.967052 40.258217
30.042868 49.750031 45.35067
3.179906 31.598673 54.430809
26.238409 93.630493 16.586523
25.985991 88.520096 24.172861
25.474577 82.893356 31.138166
24.786049 76.540604 37.687458
0.993602 85.150833 17.672796
4.716454 88.632858 17.153891
7.439555 87.762665 20.552694
10.442877 86.482727 24.33975
13.534868 84.834038 28.199711
8.756617 74.270538 34.522747
12.811666 78.454735 33.74456
16.443193 82.217316 32.439625
19.291204 79.042831 36.438156
21.76564 74.61866 40.395939
23.95067 69.768822 43.559746
8.595276 49.129765 50.233746
12.349298 52.986034 50.809872
14.429952 41.210674 57.595078
15.156991 48.975937 54.454567
16.067297 56.692272 50.973591
19.671362 59.796673 50.500294
22.987696 62.325924 48.976692
26.002436 63.920647 46.21191
27.654219 57.169048 48.389713
28.852419 50.323898 49.709888
29.727634 43.25272 50.186577
29.519718 36.241673 54.135689
30.288801 35.973797 49.768784
30.462147 28.692947 48.996712
30.870945 83.606308 11.19802
32.09594 79.942139 7.022026
33.461067 75.197563 3.536027
34.353146 67.700417 6.714783
35.130203 59.750206 10.012327
32.703709 40.775536 29.105204
31.753067 51.637165 31.526861
31.90472 43.915268 32.701447
31.890848 36.093418 33.641811
31.239506 31.352039 37.541355
30.696148 26.334587 41.186329
6.297473 93.782425 12.113779
7.773152 94.001816 13.195059
6.416703 92.254768 14.279999
4.779557 93.114494 11.496208
4.022714 91.217377 13.288063
3.169619 92.048309 11.227593
27.04418 73.959648 37.362019
28.041399 73.807358 35.527981
27.787405 70.754005 38.647259
28.377851 67.412186 39.921215
27.466974 67.584808 41.695854
17.544418 91.222351 23.437271
19.271191 92.897774 21.896442
18.922411 89.935532 25.373259
20.385666 88.464729 27.26717
18.677933 87.033226 28.505241
4.197884 77.33223 28.48649
3.739152 74.126709 30.965315
12.012352 62.412579 45.251472
12.612301 66.321564 43.081066
13.984997 64.491982 45.148262
15.849061 66.467873 44.866364
15.353656 62.608768 47.130798
8.456666 32.664135 57.379272
8.925774 36.306503 56.203167
10.356116 34.121422 58.028389
22.45113 40.063217 60.531898
21.00334 43.000813 59.264133
22.632895 44.120937 58.765167
23.087065 48.196697 56.79554
24.227844 44.998734 57.973442
25.611471 45.839302 56.816925
25.296021 41.849304 58.843903
31.6078 68.452057 22.537807
31.786015 70.769287 19.314226
32.093548 66.768097 20.578653
32.643833 65.211922 18.36676
32.353054 62.863583 21.804214
32.602707 59.042576 22.764908
32.082947 60.540768 25.012024
30.590176 45.375763 43.56641
30.861052 44.84491 41.255482
30.720057 41.85854 43.561237
30.793612 38.228134 43.470036
30.600122 38.5765 45.777542
10.992865 93.854187 16.150442
12.725959 95.773544 14.903667
12.685988 93.59256 17.787674
14.36972 93.19088 19.439243
12.595929 91.18634 20.68054
8.052547 58.374023 45.026508
7.695685 54.807209 46.759365
27.907249 85.544609 23.742525
28.780554 84.945908 21.526844
28.605797 82.426186 25.228889
29.555267 72.983734 31.264612
29.726202 75.820549 27.739059
30.129038 72.190956 29.137686
30.649975 71.162643 26.925875
30.488699 68.516289 30.248528
30.779179 64.676605 31.378698
30.311342 65.649094 33.590752
29.424122 60.238209 41.789108
30.006798 59.874058 39.36055
29.844749 56.667618 42.312252
30.181055 52.830696 42.835403
29.700029 53.230717 45.124859
4.719132 29.736618 56.129658
22.46739 95.072281 18.68054
22.465254 97.293976 15.293622
23.865425 95.636894 16.898134
25.139307 95.928841 14.851333
25.113838 93.497261 18.717726
26.179287 91.117432 20.430824
24.913403 90.888199 22.560463
22.980381 84.799828 30.849701
24.508057 85.561295 29.217396
24.086994 82.363457 32.788532
25.240976 79.823853 34.374916
23.79228 79.091759 36.02924
1.88303 81.841339 22.154863
2.35418 84.507408 19.710264
2.893601 86.984566 17.382212
4.119692 86.23568 19.386654
5.976477 88.17852 18.823112
5.495142 85.66082 21.22859
8.127953 81.573311 27.538622
8.490949 84.411446 24.991545
10.084864 83.681168 26.94165
12.05064 85.76355 26.258385
11.552681 82.711281 28.953894
6.208213 68.65889 37.070263
6.767687 72.109055 34.840973
8.197563 70.795898 36.872688
13.624142 73.407646 38.475132
12.21334 75.028351 36.26524
14.208841 77.063965 35.831284
14.63519 80.480385 33.067184
15.956764 79.049141 35.103279
17.9499 80.800789 34.43013
17.443676 77.458427 37.201378
19.596695 70.012932 43.781494
20.059713 73.624146 41.12817
21.312105 71.271637 43.02919
22.964991 72.497551 41.866009
22.452126 68.685387 44.819233
9.560267 43.580814 53.464615
8.144618 45.291553 51.737812
10.029976 47.163666 52.12928
10.424411 51.005096 50.545856
11.872036 49.322258 52.319
15.384819 34.985981 60.674305
13.945792 37.178848 59.015976
15.766531 38.850292 59.319027
18.368343 48.215153 56.261185
16.606318 46.909149 56.161499
17.120462 50.693062 54.571632
15.714282 53.00235 52.756325
17.443081 54.737278 52.638809
17.881754 58.588825 50.685654
19.152771 55.989571 52.533936
23.866753 55.706459 52.665394
22.619844 58.374756 51.449707
24.154636 59.618816 50.256111
24.589478 63.218376 47.760178
25.61047 60.109272 49.040073
26.85129 60.610199 47.427322
26.536659 57.032387 50.027145
27.831722 46.569897 53.879097
27.997679 50.178318 51.739891
28.665092 46.919853 51.972179
29.321768 46.746326 50.109886
29.22546 43.132969 52.203281
29.973026 35.855957 52.064503
30.201754 32.622238 51.579746
30.418928 32.389004 49.408195
30.147425 83.055138 17.064205
30.227188 85.339157 13.247881
30.741886 81.673805 14.883754
32.260311 74.632767 12.354632
31.890514 78.426666 10.583602
32.544037 76.073418 8.778028
32.732857 77.826698 5.196697
33.203629 73.990273 6.787739
33.906593 71.448586 5.263692
33.601963 70.149796 8.529138
33.916985 60.921635 14.81
34.31427 62.520214 11.654436
34.689579 58.310608 13.111275
34.99276 54.349854 14.454491
34.514038 52.482162 17.468895
32.921223 50.957901 25.042547
33.51025 48.905571 23.218172
33.062977 46.979771 25.860565
33.188625 43.059196 26.50919
32.666012 44.4963 28.419321
31.240984 57.153038 32.784798
31.613525 55.659618 30.781
31.398861 53.255241 33.482925
31.34561 42.675419 37.093815
31.574762 45.573544 34.688011
31.598787 41.480503 35.171253
31.901049 39.945992 33.306053
31.61072 37.474434 35.328384
31.54776 33.670586 35.651218
31.323364 35.101177 37.414192
30.751291 30.795567 43.123661
30.827354 29.780224 41.291004
30.636467 27.18502 43.009834
9.346096 96.005295 11.782881
9.36148 94.113617 14.446612
9.318926 91.966774 17.172279
27.526613 79.999382 30.87081
28.441395 79.78038 28.691748
28.293423 76.806175 32.125366
28.881763 73.558182 33.355122
29.378805 70.193306 34.469402
29.808989 66.592789 35.513626
29.19121 67.056984 37.716175
28.958305 63.924114 40.858414
28.71302 60.670959 43.860603
17.799303 96.396461 16.839363
19.497269 97.753708 15.160838
19.420107 95.388763 18.628363
20.946259 94.088722 20.434729
22.304773 92.597343 22.115948
23.444134 90.510246 24.232214
21.971952 89.772896 25.673441
21.763588 86.704292 29.14444
21.328085 83.732597 32.254925
3.211356 80.824638 24.340796
5.212799 83.00473 23.796669
4.763595 80.24984 26.183411
6.277532 79.494972 28.100616
7.6658 78.524033 30.057125
9.157479 65.620346 41.267078
9.681625 69.199081 39.096321
11.14467 67.852219 41.060005
12.991599 69.915848 40.761414
15.035342 71.937622 40.466705
16.873585 73.773094 39.987232
16.359945 69.961983 42.652847
17.783924 68.320442 44.455418
19.052952 66.171562 46.343796
5.494751 36.468529 53.892765
5.850236 40.023136 52.595844
7.329755 38.149105 54.3727
9.218007 39.943199 54.848919
11.062984 41.55048 55.363552
19.033253 37.863338 61.032494
17.501488 40.41291 59.455235
19.336258 41.526554 59.598175
19.721338 45.698059 57.835682
20.121695 49.630043 56.043522
20.50411 53.651192 54.063251
21.768339 50.978947 55.537575
23.437906 51.84103 54.886623
24.937212 52.694706 53.816536
26.233408 53.155685 52.562576
25.897583 49.505184 54.798561
26.781363 46.351143 55.484398
27.641663 43.105534 55.848003
31.005356 75.903992 19.869202
31.142365 77.974968 16.600548
31.518454 74.304588 17.861752
32.052788 72.600029 15.810389
32.632568 70.848091 13.696326
33.242649 68.567703 12.145799
32.957657 66.808472 15.299694
33.241608 62.945156 16.740982
33.531307 59.018608 17.952675
33.803638 54.910789 19.138382
33.142883 57.202606 20.944916
32.75444 55.101254 24.041624
32.434551 52.683464 26.861944
30.901291 51.528233 38.291008
31.211794 50.42654 36.1828
31.028534 47.523483 38.832474
31.097042 43.647392 39.248676
31.141369 39.904278 39.293568
31.127577 36.511639 39.385529
30.955481 37.241348 41.410362
30.808249 34.563686 43.273815
30.667236 31.343918 45.153996
12.592032 97.796799 11.836019
14.394074 97.704124 13.246385
16.153561 97.279732 14.880915
16.100378 94.809967 18.328938
16.0604 92.371582 21.403152
15.673729 89.534676 24.505558
3.234044 70.822159 33.310036
5.737008 65.023788 39.303631
5.168313 61.316643 41.315613
7.103216 63.581764 41.206841
8.647472 61.98283 43.279053
10.159177 60.52993 45.181244
11.559645 58.691505 47.188713
11.922412 31.941486 59.862724
13.470432 29.976007 61.494442
28.179623 90.344444 16.211685
28.977121 89.636909 13.844454
28.876999 87.34729 17.861406
29.530214 83.981392 19.369381
30.009823 80.643303 20.959986
29.231726 79.077095 26.580297
29.89826 78.310966 24.253931
30.484657 77.034615 22.204678
30.836662 73.514023 23.468794
31.135826 69.808472 24.772621
31.408892 66.19046 25.782341
31.632082 62.177799 27.046124
31.215698 63.800949 28.945726
31.033939 61.022903 32.072838
30.862011 58.045933 35.092854
30.184278 62.665504 36.47633
30.459419 58.946365 37.316589
30.669638 55.341755 38.067551
30.547527 52.309162 40.659473
30.426701 49.090969 43.19648
30.27651 46.071793 45.716095
3.656868 34.921234 53.372196
5.165376 32.955929 55.134693
6.709293 31.268299 56.800236
8.296515 29.118692 58.640232
27.254551 93.23661 14.651082
27.27747 90.804192 18.418861
27.08707 88.373764 22.274601
26.916876 85.727203 25.917362
24.673443 88.321503 25.969114
25.821466 85.850945 27.563906
26.707436 82.991058 29.360683
26.497929 80.118752 32.621994
26.162823 77.07267 35.90287
25.785217 73.899399 39.032486
1.666878 87.585075 15.443388
3.480835 89.197807 15.294015
4.975977 90.632568 14.979084
6.242092 90.421425 16.404991
7.607267 90.028549 18.075323
9.227858 89.604782 19.930048
7.032876 85.179665 23.029539
8.901155 87.141983 22.434937
10.83539 89.065567 21.822519
12.456595 88.554054 23.578854
13.924811 87.794334 25.381454
15.484394 86.726219 27.436607
5.143047 73.122421 32.847996
7.12847 75.269112 32.516979
9.212802 77.357475 32.232796
10.200458 72.700645 36.786869
10.767974 76.172661 34.343437
11.300366 79.525215 31.769608
13.2218 81.741074 31.01095
15.071468 83.695343 30.272118
16.950748 85.414459 29.535727
18.323143 84.014435 31.490515
19.740873 82.471771 33.368931
21.021471 80.445648 35.400532
18.74777 75.427979 39.374954
20.508995 76.894447 38.504929
22.092371 78.162033 37.377861
23.325935 76.019279 38.907768
24.384912 73.278061 40.646492
25.350368 70.505447 42.103954
6.266258 43.499073 51.316196
6.809772 47.236534 49.94318
7.224986 51.076218 48.364807
9.114509 52.94619 48.689621
11.068623 54.992661 48.921001
12.888312 56.773376 49.128761
12.150188 35.751419 58.510559
12.673644 39.632179 57.226124
12.951509 43.32011 55.783695
16.259041 42.946289 57.802197
14.830202 45.071285 56.100536
13.309015 47.102287 54.275158
13.754645 50.993275 52.680649
14.163237 54.826912 50.960136
14.713467 58.655216 49.15329
16.609615 60.702393 48.921551
18.521315 62.240051 48.73217
20.170942 63.636208 48.239063
20.933617 57.300678 52.116966
21.398298 61.148357 49.881302
21.835659 64.999123 47.429062
23.468096 65.928871 46.475498
25.000813 66.817024 45.058453
26.327169 67.399254 43.437016
27.113947 64.194191 44.683292
27.869452 60.754978 45.732193
28.485352 57.303082 46.627754
27.346399 53.720444 50.89418
28.314774 53.624565 49.205151
29.07741 53.748287 47.145393
29.522726 50.024632 47.669449
29.874023 46.494892 47.921177
30.1618 42.618332 48.074772
28.355286 39.426018 56.192577
29.040051 39.806496 54.307301
29.63509 39.664402 52.21233
30.048145 39.386372 50.19577
30.37373 39.043175 47.926186
30.506517 35.397221 47.692326
30.565966 31.938389 47.276466
30.546026 28.601784 46.984776
29.654449 88.501251 11.895443
30.343645 87.098061 9.536273
30.962044 85.484322 7.485457
31.295498 80.136314 12.838277
31.474987 81.909981 9.015697
31.636959 83.475601 5.331906
34.171696 72.804245 1.848241
34.645592 69.061966 3.506626
35.079632 65.143478 5.31889
33.960979 66.508125 10.029053
34.719131 63.827847 8.499495
35.536598 61.230743 6.772254
34.004265 50.755569 20.384428
31.821188 58.395523 27.964907
31.993425 54.408241 28.768351
32.145844 50.250378 29.468658
31.505018 49.19825 34.233006
31.827974 47.799973 32.287781
32.221157 46.444588 30.211084
32.262672 42.39674 30.901253
32.267792 38.344173 31.508736
32.257374 34.568691 31.899698
31.846264 32.386688 33.8964
31.45578 29.994587 35.85321
31.102539 27.73908 37.741077
31.061262 32.583473 39.420605
30.944555 28.875786 39.460152
30.813131 25.504692 39.375229
30.562967 23.178312 40.884739
2.721506 73.046219 31.106192
2.984212 74.532478 30.032972
6.732314 53.797073 46.646704
6.977146 55.477671 45.913759
30.153959 30.971196 52.446558
30.034537 32.556454 52.747282
30.261697 30.811779 51.3782
30.153959 30.971196 52.446558
30.536634 26.206491 44.707731
30.557335 25.845598 43.759094
30.615766 27.545914 43.958471
8.456423 95.840042 11.192887
9.203786 96.818447 10.401805
8.314113 96.653194 9.81181
7.416051 96.385815 9.331936
6.721148 95.350948 10.221837
8.314113 96.653194 9.81181
7.416051 96.385815 9.331936
1.874026 90.210018 12.281743
1.48017 89.076282 13.355242
2.76373 92.544441 10.023678
3.663069 93.087978 10.261624
2.019213 78.50399 25.616377
1.802887 77.123268 26.758546
2.972106 79.422107 25.510817
2.258462 79.90652 24.446356
2.019213 78.50399 25.616377
11.805573 96.853615 12.602184
11.718466 97.802796 11.109486
10.932008 96.859611 11.875652
4.718297 63.930524 39.324283
5.043715 65.654014 38.387158
5.930068 60.583441 42.27873
5.019925 59.617554 42.23039
5.78168 58.884352 43.193508
13.300058 28.255108 61.988426
12.477642 29.220451 61.181896
2.442463 32.522765 53.604189
2.247008 30.80453 54.175894
3.418387 33.259954 53.901503
2.680944 34.184045 53.074883
2.442463 32.522765 53.604189
6.527216 29.614573 57.314925
5.714213 30.502458 56.464947
5.532135 28.848733 56.979636
7.320827 28.53977 58.234922
7.502904 30.193495 57.720234
6.527216 29.614573 57.314925
21.064008 97.612263 15.24204
20.294326 98.228222 14.330373
20.266951 97.137749 16.072505
22.48715 98.389175 13.370212
23.222237 97.537861 14.251713
26.255629 94.713268 14.708307
25.706078 95.862442 13.840712
25.688858 94.779667 15.718928
26.74648 93.433551 15.618803
26.7637 94.516326 13.740586
26.255629 94.713268 14.708307
0.084066 84.259487 17.781001
0.750358 83.871235 18.881178
0.431968 85.531421 16.637847
0.084066 84.259487 17.781001
1.33024 86.367954 16.558092
0.768606 86.748542 15.523143
0.431968 85.531421 16.637847
28.252271 37.741709 57.099699
27.893016 39.390976 57.009237
29.220647 36.211291 55.158335
29.460267 34.511155 55.045267
29.279885 38.024085 54.221495
28.980814 37.993702 55.244141
29.220647 36.211291 55.158335
32.185257 80.686375 5.236199
31.955767 82.453106 4.391139
31.86645 81.70887 6.176966
33.229056 77.030853 2.640786
32.864951 78.34542 3.471122
33.096962 76.51213 4.366362
33.591135 75.82156 1.711247
33.229056 77.030853 2.640786
33.816381 74.000904 2.692134
33.946449 74.624901 0.867354
33.591135 75.82156 1.711247
35.555927 58.364649 9.185595
35.759124 59.104917 7.565558
35.3334 60.490474 8.392291
33.840812 47.839669 22.321432
33.595186 46.858318 23.621327
32.960814 39.800168 28.254257
33.203271 40.941997 26.956249
32.946167 41.917366 27.807197
32.712922 38.696812 29.410612
32.960814 39.800168 28.254257
5.327552 94.0708 10.668494
4.468038 93.621071 10.395932
6.08651 94.404766 10.97728
5.327552 94.0708 10.668494
5.538515 93.448459 11.804993
6.932111 94.728607 11.358336
6.721148 95.350948 10.221837
6.08651 94.404766 10.97728
4.468038 93.621071 10.395932
3.663069 93.087978 10.261624
3.974588 92.581401 11.361901
2.481065 76.478913 27.890733
1.802887 77.123268 26.758546
3.213579 76.135239 28.793559
3.46537 77.675904 27.583664
2.481065 76.478913 27.890733
3.968518 75.729469 29.725903
3.213579 76.135239 28.793559
2.984212 74.532478 30.032972
6.475214 57.999185 44.155
5.78168 58.884352 43.193508
7.155577 57.261077 45.047331
7.372185 59.112131 44.134178
6.475214 57.999185 44.155
7.874116 56.590616 45.892937
7.155577 57.261077 45.047331
6.977146 55.477671 45.913759
3.055366 29.913263 55.015425
2.247008 30.80453 54.175894
3.824979 28.982235 55.864849
3.949519 30.667645 55.280234
3.055366 29.913263 55.015425
4.589514 28.128554 56.655926
3.824979 28.982235 55.864849
5.532135 28.848733 56.979636
4.589514 28.128554 56.655926
23.922322 96.70932 15.053969
23.222237 97.537861 14.251713
23.16534 96.465435 16.095878
24.502366 95.782868 15.874733
24.559263 96.855294 14.030569
23.922322 96.70932 15.053969
1.195072 82.216488 21.122211
0.902021 80.867676 22.280288
1.430647 83.549522 19.899912
1.195072 82.216488 21.122211
2.118605 83.174374 20.932564
1.673891 84.829121 18.69153
0.750358 83.871235 18.881178
1.430647 83.549522 19.899912
29.69352 34.366171 54.025253
29.460267 34.511155 55.045267
29.920174 34.173313 52.98966
29.746372 36.048815 53.100096
29.69352 34.366171 54.025253
30.08739 34.239097 51.822125
29.920174 34.173313 52.98966
30.034537 32.556454 52.747282
30.370284 30.695162 50.292425
30.310341 32.505621 50.493971
30.261697 30.811779 51.3782
30.391894 28.847133 50.086683
30.440538 30.540976 49.202454
30.370284 30.695162 50.292425
35.103766 56.94973 12.280105
35.324078 57.669529 10.730632
34.909891 59.030407 11.561801
35.255356 54.969353 12.951714
35.103766 56.94973 12.280105
34.841169 56.330231 13.782883
35.409286 52.884541 13.706276
35.255356 54.969353 12.951714
35.125039 52.195723 15.1751
35.409286 52.884541 13.706276
34.885677 51.261877 16.682302
35.125039 52.195723 15.1751
34.753399 53.416008 15.961693
34.603214 50.414555 18.140813
34.885677 51.261877 16.682302
33.37155 45.895418 24.942524
33.595186 46.858318 23.621327
33.286614 47.942671 24.539369
33.125801 45.019483 26.184877
33.434373 43.935131 25.266837
33.37155 45.895418 24.942524
30.567395 25.526845 42.855345
30.597236 25.101629 41.943592
30.666308 26.759804 42.098081
30.567395 25.526845 42.855345
30.557335 25.845598 43.759094
10.095498 96.907044 11.082918
9.203786 96.818447 10.401805
10.182605 95.957863 12.575615
10.932008 96.859611 11.875652
10.095498 96.907044 11.082918
2.272755 91.338256 11.19423
1.874026 90.210018 12.281743
2.77089 90.920071 12.315106
1.866866 91.834388 9.990315
2.272755 91.338256 11.19423
2.76373 92.544441 10.023678
18.648286 97.075085 16.0001
18.660931 98.228428 14.252274
17.811948 97.549804 15.091536
1.594299 80.414871 23.353389
0.902021 80.867676 22.280288
2.547193 81.332988 23.24783
1.594299 80.414871 23.353389
2.258462 79.90652 24.446356
5.672493 38.245832 53.244304
4.964075 39.240025 52.370908
4.786333 37.462721 53.019369
12.542623 98.729404 10.285294
11.718466 97.802796 11.109486
13.435121 98.728341 10.938188
12.542623 98.729404 10.285294
14.336142 98.682003 11.643372
13.435121 98.728341 10.938188
13.493053 97.750462 12.541202
15.278401 98.535293 12.426438
14.336142 98.682003 11.643372
16.158145 98.323097 13.243703
15.278401 98.535293 12.426438
15.273817 97.491928 14.06365
16.989077 97.99144 14.112312
16.158145 98.323097 13.243703
16.976432 96.838097 15.860139
17.811948 97.549804 15.091536
16.989077 97.99144 14.112312
2.256162 69.828648 33.368494
2.468952 71.393944 32.278552
3.062043 69.295533 34.347712
2.256162 69.828648 33.368494
3.850871 68.794792 35.300416
4.022872 70.321419 34.262741
3.062043 69.295533 34.347712
4.58106 68.05246 36.343065
3.850871 68.794792 35.300416
5.279317 67.471565 37.270473
5.509956 69.239784 36.142854
4.58106 68.05246 36.343065
5.972611 66.841339 38.186947
5.279317 67.471565 37.270473
5.043715 65.654014 38.387158
4.209569 60.249359 41.317659
4.061181 58.55027 42.232437
5.019925 59.617554 42.23039
4.433949 62.076952 40.330275
4.209569 60.249359 41.317659
5.452661 63.170215 40.309622
4.718297 63.930524 39.324283
4.433949 62.076952 40.330275
11.703632 30.20319 60.366037
10.994895 31.418486 59.481786
10.776115 29.68019 59.985099
12.696422 30.958747 60.678583
11.703632 30.20319 60.366037
12.477642 29.220451 61.181896
14.250573 28.825503 62.300472
13.300058 28.255108 61.988426
14.398647 30.632132 61.756487
14.250573 28.825503 62.300472
14.506547 32.38616 61.17149
13.578333 31.730035 60.909445
14.398647 30.632132 61.756487
15.35584 33.137119 61.346418
14.535526 34.235022 60.499376
14.506547 32.38616 61.17149
16.171107 33.939945 61.434175
15.35584 33.137119 61.346418
17.07377 34.777275 61.529001
16.287481 35.823311 60.769131
16.171107 33.939945 61.434175
17.925406 35.408766 61.607197
17.07377 34.777275 61.529001
18.84696 36.010115 61.691465
18.111698 37.261989 60.948225
17.925406 35.408766 61.607197
19.738302 36.422958 61.743504
18.84696 36.010115 61.691465
20.634495 37.029142 61.681046
19.929445 38.469522 60.970036
19.738302 36.422958 61.743504
21.458691 37.647323 61.496712
20.634495 37.029142 61.681046
22.271437 38.141079 61.308872
21.638384 39.569462 60.719738
21.458691 37.647323 61.496712
23.075488 38.705507 60.970163
22.271437 38.141079 61.308872
23.806408 39.340427 60.558685
23.18205 40.698137 60.12042
23.075488 38.705507 60.970163
24.488366 39.678306 60.143438
23.806408 39.340427 60.558685
28.578372 89.990677 15.02807
28.579034 91.103839 13.158095
28.180286 91.457607 14.341711
2.898453 35.821951 52.52869
2.680944 34.184045 53.074883
3.867392 36.689073 52.759085
2.898453 35.821951 52.52869
4.57581 35.694881 53.63248
4.786333 37.462721 53.019369
3.867392 36.689073 52.759085
8.100834 27.441291 59.119646
7.320827 28.53977 58.234922
9.05482 28.120266 59.478117
8.100834 27.441291 59.119646
9.940251 29.008662 59.708425
9.181946 30.007089 58.87054
9.05482 28.120266 59.478117
10.776115 29.68019 59.985099
9.940251 29.008662 59.708425
19.45227 98.791851 13.440469
18.660931 98.228428 14.252274
19.45227 98.791851 13.440469
20.294326 98.228222 14.330373
21.778319 97.998356 14.396765
21.064008 97.612263 15.24204
21.750944 96.907883 16.138897
21.778319 97.998356 14.396765
22.48715 98.389175 13.370212
25.182795 96.952988 12.904879
24.559263 96.855294 14.030569
25.182795 96.952988 12.904879
25.706078 95.862442 13.840712
27.315041 94.19289 12.71318
26.7637 94.516326 13.740586
27.71775 92.90369 13.561409
27.315041 94.19289 12.71318
27.717087 91.790527 15.431383
28.180286 91.457607 14.341711
27.71775 92.90369 13.561409
1.127528 87.972904 14.375628
0.229256 87.136371 14.455383
0.768606 86.748542 15.523143
2.01952 88.688454 14.423003
1.48017 89.076282 13.355242
1.127528 87.972904 14.375628
3.486598 72.474434 32.137676
2.721506 73.046219 31.106192
2.468952 71.393944 32.278552
5.117528 40.984102 51.70173
4.964075 39.240025 52.370908
5.325539 42.722071 51.061906
5.117528 40.984102 51.70173
6.058247 41.761105 51.95602
5.603353 44.556145 50.401262
5.325539 42.722071 51.061906
5.87511 46.424875 49.714754
5.603353 44.556145 50.401262
6.538015 45.367804 50.629688
6.094945 48.224256 49.002573
5.87511 46.424875 49.714754
6.302553 50.144098 48.213386
6.094945 48.224256 49.002573
7.017379 49.156376 49.153993
6.496964 51.931578 47.449424
6.302553 50.144098 48.213386
7.460336 52.941713 47.562086
6.732314 53.797073 46.646704
6.496964 51.931578 47.449424
25.179891 39.93643 59.710918
24.604496 41.59118 59.276422
24.488366 39.678306 60.143438
25.835831 40.375986 59.047049
25.179891 39.93643 59.710918
26.449119 40.844442 58.336056
25.909309 42.31776 58.13291
25.835831 40.375986 59.047049
26.976671 41.071075 57.623907
26.449119 40.844442 58.336056
27.536205 41.230734 56.83695
27.08213 42.945875 56.63496
26.976671 41.071075 57.623907
27.998475 41.265776 56.02029
27.536205 41.230734 56.83695
27.893016 39.390976 57.009237
28.638431 37.803463 56.186779
28.252271 37.741709 57.099699
28.697668 39.616257 55.249939
28.638431 37.803463 56.186779
28.980814 37.993702 55.244141
30.414848 27.072283 49.708185
30.391894 28.847133 50.086683
30.449556 27.048237 48.697197
30.414848 27.072283 49.708185
30.491495 27.002655 47.691229
30.504086 28.647365 47.990744
30.449556 27.048237 48.697197
30.511037 26.962736 46.689126
30.491495 27.002655 47.691229
30.535557 26.615247 45.650292
30.570546 28.254295 45.945942
30.511037 26.962736 46.689126
30.536634 26.206491 44.707731
30.535557 26.615247 45.650292
28.990716 90.667774 11.933575
28.579034 91.103839 13.158095
29.32938 90.099945 10.95907
28.990716 90.667774 11.933575
29.315785 89.06908 12.869948
29.709266 89.400638 9.892145
29.32938 90.099945 10.95907
30.053863 88.699044 8.71256
29.709266 89.400638 9.892145
29.999047 87.799656 10.715858
30.406636 87.899292 7.601516
30.053863 88.699044 8.71256
30.715835 87.092422 6.576108
30.406636 87.899292 7.601516
30.652845 86.291191 8.510865
31.05781 86.149579 5.520919
30.715835 87.092422 6.576108
31.395268 85.145218 4.444144
31.05781 86.149579 5.520919
31.299501 84.479962 6.408682
31.73431 84.108207 3.447058
31.492618 85.777825 2.559296
31.395268 85.145218 4.444144
31.73431 84.108207 3.447058
31.955767 82.453106 4.391139
32.503715 79.628654 4.323535
32.185257 80.686375 5.236199
32.414399 78.884418 6.109362
32.503715 79.628654 4.323535
32.864951 78.34542 3.471122
34.3372 73.253818 0.011891
33.946449 74.624901 0.867354
34.573757 71.410862 1.010868
34.3372 73.253818 0.011891
34.810705 69.539722 1.84006
34.573757 71.410862 1.010868
34.408644 70.933105 2.677433
35.069853 67.504722 2.781369
34.810705 69.539722 1.84006
35.286873 65.545479 3.6875
35.069853 67.504722 2.781369
34.862612 67.102722 4.412758
35.499554 63.688646 4.552092
35.286873 65.545479 3.6875
35.728037 61.732278 5.278774
35.499554 63.688646 4.552092
35.308115 63.187111 6.045572
35.967392 59.752874 6.005938
35.728037 61.732278 5.278774
35.967392 59.752874 6.005938
35.759124 59.104917 7.565558
35.555927 58.364649 9.185595
35.324078 57.669529 10.730632
34.348327 49.551258 19.598579
34.603214 50.414555 18.140813
34.259152 51.618865 18.926662
34.08782 48.764668 20.90456
33.757257 49.83057 21.8013
33.840812 47.839669 22.321432
34.348327 49.551258 19.598579
34.08782 48.764668 20.90456
33.468139 41.815578 25.774373
33.434373 43.935131 25.266837
33.468139 41.815578 25.774373
33.203271 40.941997 26.956249
32.494963 37.48113 30.612378
32.712922 38.696812 29.410612
32.485751 39.559855 30.30697
32.489754 35.59339 30.807859
32.494963 37.48113 30.612378
32.262583 36.456432 31.704217
32.483698 33.601212 31.045368
32.489754 35.59339 30.807859
32.225881 32.577279 32.097668
32.483698 33.601212 31.045368
32.020327 31.486277 33.096019
32.225881 32.577279 32.097668
32.051819 33.477689 32.898049
31.780191 30.318929 34.10759
32.020327 31.486277 33.096019
31.584949 29.122879 35.085994
31.780191 30.318929 34.10759
31.651022 31.190638 34.874805
31.38982 28.103506 35.944656
31.584949 29.122879 35.085994
31.2132 26.975752 36.888589
31.38982 28.103506 35.944656
31.279159 28.866833 36.797143
31.034753 26.004787 37.744468
31.2132 26.975752 36.888589
30.890049 24.887592 38.561544
31.034753 26.004787 37.744468
30.957835 26.621886 38.558153
30.73238 23.741358 39.339948
30.890049 24.887592 38.561544
30.607298 22.578168 40.094704
30.73238 23.741358 39.339948
30.688049 24.341502 40.129984
30.474436 21.527826 40.854388
30.607298 22.578168 40.094704
30.530645 23.523491 41.792797
30.629558 24.756449 41.035534
30.597236 25.101629 41.943592
30.455819 21.991053 41.602625
30.530645 23.523491 41.792797
30.474436 21.527826 40.854388
30.455819 21.991053 41.602625
3 0 133 131
3 0 131 134
3 0 134 135
3 1 139 137
3 1 141 139
3 3 144 142
3 3 146 144
3 525 148 526
3 4 151 149
3 4 153 151
3 2 156 154
3 5 159 157
3 5 161 159
3 5 163 161
3 7 166 164
3 7 168 166
3 7 170 168
3 6 173 171
3 6 175 173
3 8 178 176
3 8 180 178
3 527 182 528
3 11 185 183
3 13 188 186
3 13 190 188
3 13 192 190
3 15 195 193
3 15 197 195
3 16 201 199
3 16 203 201
3 16 205 203
3 17 208 206
3 17 210 208
3 18 212 211
3 18 214 212
3 18 216 214
3 19 219 217
3 19 221 219
3 9 224 222
3 20 227 225
3 20 229 227
3 20 231 229
3 21 234 232
3 21 236 234
3 22 239 237
3 22 241 239
3 10 244 242
3 23 247 245
3 23 249 247
3 23 251 249
3 24 254 252
3 24 256 254
3 24 258 256
3 25 261 259
3 25 263 261
3 529 265 530
3 532 531 265
3 12 269 267
3 27 272 270
3 27 274 272
3 27 276 274
3 28 279 277
3 28 280 279
3 28 281 280
3 29 284 282
3 29 286 284
3 14 289 287
3 30 292 290
3 30 294 292
3 30 296 294
3 26 299 297
3 26 533 535
3 535 534 299
3 533 534 535
3 31 536 538
3 536 300 537
3 536 537 538
3 33 301 132
3 33 302 301
3 31 539 540
3 31 541 542
3 34 543 544
3 546 545 136
3 35 305 303
3 37 306 138
3 37 307 306
3 37 309 307
3 39 310 140
3 39 311 310
3 40 314 312
3 42 315 143
3 42 316 315
3 42 318 316
3 44 319 145
3 44 320 319
3 45 547 548
3 45 549 551
3 549 321 550
3 549 550 551
3 45 323 321
3 47 324 147
3 47 325 324
3 48 328 326
3 50 329 150
3 50 330 329
3 50 332 330
3 52 333 152
3 52 334 333
3 53 337 335
3 55 338 155
3 55 339 338
3 56 342 340
3 58 343 158
3 58 344 343
3 58 346 344
3 60 347 160
3 60 348 347
3 60 350 348
3 62 351 162
3 62 352 351
3 63 355 353
3 65 356 165
3 65 357 356
3 65 359 357
3 67 360 167
3 67 361 360
3 67 363 361
3 69 364 169
3 69 365 364
3 70 368 366
3 72 369 172
3 72 370 369
3 72 372 370
3 74 373 174
3 74 374 373
3 32 552 554
3 552 375 553
3 552 553 554
3 75 376 177
3 75 377 376
3 75 378 377
3 76 379 179
3 76 380 379
3 555 382 556
3 78 557 559
3 557 383 558
3 557 558 559
3 78 384 383
3 78 385 384
3 79 386 181
3 79 387 386
3 560 389 561
3 81 392 390
3 83 393 184
3 83 394 393
3 36 395 304
3 84 396 187
3 84 397 396
3 84 398 397
3 85 399 189
3 85 400 399
3 85 402 400
3 87 403 191
3 87 404 403
3 38 405 308
3 88 406 194
3 88 407 406
3 88 408 407
3 89 409 196
3 89 410 409
3 90 562 563
3 90 564 566
3 564 411 565
3 564 565 566
3 90 412 411
3 567 413 568
3 569 568 198
3 567 568 569
3 570 414 571
3 572 571 413
3 570 571 572
3 41 573 575
3 575 574 313
3 573 574 575
3 577 576 200
3 91 578 580
3 580 579 202
3 578 579 580
3 91 581 583
3 581 415 582
3 581 582 583
3 91 416 415
3 92 417 204
3 92 418 417
3 43 419 317
3 93 420 207
3 93 421 420
3 93 422 421
3 94 423 209
3 94 424 423
3 95 584 585
3 95 586 587
3 95 588 590
3 588 425 589
3 588 589 590
3 96 426 213
3 96 427 426
3 96 428 427
3 97 429 215
3 97 430 429
3 46 431 322
3 98 432 218
3 98 433 432
3 98 434 433
3 99 435 220
3 99 436 435
3 77 437 381
3 100 438 223
3 100 439 438
3 49 440 327
3 101 441 226
3 101 442 441
3 101 443 442
3 102 444 228
3 102 445 444
3 102 446 445
3 103 447 230
3 103 448 447
3 51 449 331
3 104 450 233
3 104 451 450
3 104 452 451
3 105 453 235
3 105 454 453
3 54 455 336
3 106 456 238
3 106 457 456
3 106 458 457
3 107 459 240
3 107 460 459
3 80 461 388
3 108 462 243
3 108 463 462
3 57 464 341
3 109 465 246
3 109 466 465
3 109 467 466
3 110 468 248
3 110 469 468
3 110 470 469
3 111 471 250
3 111 472 471
3 59 473 345
3 112 474 253
3 112 475 474
3 112 476 475
3 113 477 255
3 113 478 477
3 113 479 478
3 114 480 257
3 114 481 480
3 61 482 349
3 115 483 260
3 115 484 483
3 115 485 484
3 116 486 262
3 116 487 486
3 591 488 592
3 117 593 594
3 117 595 597
3 595 489 596
3 595 596 597
3 117 490 489
3 118 491 264
3 118 492 491
3 118 493 492
3 119 494 266
3 119 495 494
3 82 496 391
3 120 497 268
3 120 498 497
3 64 499 354
3 121 500 271
3 121 501 500
3 121 598 600
3 600 599 501
3 598 599 600
3 122 601 603
3 603 602 273
3 601 602 603
3 122 604 605
3 122 606 608
3 606 502 607
3 606 607 608
3 123 503 275
3 123 504 503
3 66 505 358
3 124 506 278
3 124 507 506
3 124 609 611
3 611 610 507
3 609 610 611
3 68 508 362
3 613 612 283
3 125 614 616
3 616 615 285
3 614 615 616
3 125 617 618
3 86 509 401
3 126 510 288
3 126 511 510
3 71 512 367
3 127 513 291
3 127 514 513
3 127 515 514
3 128 516 293
3 128 517 516
3 128 518 517
3 129 519 295
3 129 520 519
3 73 521 371
3 130 522 298
3 130 523 522
3 130 524 523
3 131 132 31
3 133 132 131
3 133 33 132
3 134 619 620
3 131 621 623
3 623 622 134
3 621 622 623
3 131 624 626
3 624 31 625
3 624 625 626
3 135 136 34
3 134 136 135
3 134 627 629
3 629 628 136
3 627 628 629
3 137 138 35
3 139 138 137
3 139 37 138
3 139 140 37
3 141 140 139
3 141 39 140
3 142 143 40
3 144 143 142
3 144 42 143
3 144 145 42
3 146 145 144
3 146 44 145
3 630 45 631
3 632 147 633
3 634 633 45
3 632 633 634
3 148 635 637
3 635 147 636
3 635 636 637
3 148 47 147
3 149 150 48
3 151 150 149
3 151 50 150
3 151 152 50
3 153 152 151
3 153 52 152
3 154 155 53
3 156 155 154
3 156 55 155
3 157 158 56
3 159 158 157
3 159 58 158
3 159 160 58
3 161 160 159
3 161 60 160
3 161 162 60
3 163 162 161
3 163 62 162
3 164 165 63
3 166 165 164
3 166 65 165
3 166 167 65
3 168 167 166
3 168 67 167
3 168 169 67
3 170 169 168
3 170 69 169
3 171 172 70
3 173 172 171
3 173 72 172
3 173 174 72
3 175 174 173
3 175 74 174
3 176 177 32
3 178 177 176
3 178 75 177
3 178 179 75
3 180 179 178
3 180 76 179
3 638 78 639
3 640 181 641
3 642 641 78
3 640 641 642
3 182 643 645
3 643 181 644
3 643 644 645
3 182 79 181
3 183 184 81
3 185 184 183
3 185 83 184
3 186 187 36
3 188 187 186
3 188 84 187
3 188 189 84
3 190 189 188
3 190 85 189
3 190 191 85
3 192 191 190
3 192 87 191
3 193 194 38
3 195 194 193
3 195 88 194
3 195 196 88
3 197 196 195
3 197 89 196
3 646 90 647
3 648 198 649
3 650 649 90
3 648 649 650
3 651 198 652
3 654 653 198
3 199 200 41
3 201 200 199
3 201 655 657
3 657 656 200
3 655 656 657
3 201 658 660
3 658 202 659
3 658 659 660
3 203 202 201
3 203 91 202
3 203 204 91
3 205 204 203
3 205 92 204
3 206 207 43
3 208 207 206
3 208 93 207
3 208 209 93
3 210 209 208
3 210 94 209
3 211 661 662
3 212 663 665
3 665 664 211
3 663 664 665
3 212 666 668
3 666 95 667
3 666 667 668
3 212 213 95
3 214 213 212
3 214 96 213
3 214 215 96
3 216 215 214
3 216 97 215
3 217 218 46
3 219 218 217
3 219 98 218
3 219 220 98
3 221 220 219
3 221 99 220
3 222 223 77
3 224 223 222
3 224 100 223
3 225 226 49
3 227 226 225
3 227 101 226
3 227 228 101
3 229 228 227
3 229 102 228
3 229 230 102
3 231 230 229
3 231 103 230
3 232 233 51
3 234 233 232
3 234 104 233
3 234 235 104
3 236 235 234
3 236 105 235
3 237 238 54
3 239 238 237
3 239 106 238
3 239 240 106
3 241 240 239
3 241 107 240
3 242 243 80
3 244 243 242
3 244 108 243
3 245 246 57
3 247 246 245
3 247 109 246
3 247 248 109
3 249 248 247
3 249 110 248
3 249 250 110
3 251 250 249
3 251 111 250
3 252 253 59
3 254 253 252
3 254 112 253
3 254 255 112
3 256 255 254
3 256 113 255
3 256 257 113
3 258 257 256
3 258 114 257
3 259 260 61
3 261 260 259
3 261 115 260
3 261 262 115
3 263 262 261
3 263 116 262
3 669 117 670
3 671 264 672
3 673 672 117
3 671 672 673
3 265 674 676
3 674 264 675
3 674 675 676
3 265 118 264
3 265 266 118
3 677 266 678
3 679 678 265
3 677 678 679
3 680 119 681
3 682 681 266
3 680 681 682
3 267 268 82
3 269 268 267
3 269 120 268
3 270 271 64
3 272 271 270
3 272 121 271
3 272 273 121
3 274 273 272
3 274 122 273
3 274 275 122
3 276 275 274
3 276 123 275
3 277 278 66
3 279 278 277
3 279 124 278
3 279 683 685
3 685 684 124
3 683 684 685
3 280 686 688
3 688 687 279
3 686 687 688
3 280 689 690
3 280 691 692
3 281 693 695
3 695 694 280
3 693 694 695
3 281 696 697
3 282 283 68
3 284 283 282
3 284 698 700
3 700 699 283
3 698 699 700
3 284 701 703
3 701 285 702
3 701 702 703
3 286 285 284
3 286 125 285
3 287 288 86
3 289 288 287
3 289 126 288
3 290 291 71
3 292 291 290
3 292 127 291
3 292 293 127
3 294 293 292
3 294 128 293
3 294 295 128
3 296 295 294
3 296 129 295
3 297 298 73
3 299 298 297
3 299 130 298
3 299 704 706
3 706 705 130
3 704 705 706
3 708 707 299
3 300 709 710
3 300 711 713
3 711 32 712
3 711 712 713
3 132 300 31
3 301 300 132
3 301 32 300
3 301 176 32
3 302 176 301
3 302 8 176
3 136 714 716
3 716 715 34
3 714 715 716
3 719 718 136
3 717 718 719
3 303 304 11
3 305 304 303
3 305 36 304
3 138 305 35
3 306 305 138
3 306 36 305
3 306 186 36
3 307 186 306
3 307 13 186
3 307 308 13
3 309 308 307
3 309 38 308
3 140 309 37
3 310 309 140
3 310 38 309
3 310 193 38
3 311 193 310
3 311 15 193
3 312 720 722
3 720 313 721
3 720 721 722
3 314 313 312
3 314 41 313
3 143 314 40
3 315 314 143
3 315 41 314
3 315 199 41
3 316 199 315
3 316 16 199
3 316 317 16
3 318 317 316
3 318 43 317
3 145 318 42
3 319 318 145
3 319 43 318
3 319 206 43
3 320 206 319
3 320 17 206
3 723 211 724
3 321 725 727
3 725 211 726
3 725 726 727
3 321 18 211
3 321 322 18
3 323 322 321
3 323 46 322
3 147 323 45
3 324 323 147
3 324 46 323
3 324 217 46
3 325 217 324
3 325 19 217
3 326 327 9
3 328 327 326
3 328 49 327
3 150 328 48
3 329 328 150
3 329 49 328
3 329 225 49
3 330 225 329
3 330 20 225
3 330 331 20
3 332 331 330
3 332 51 331
3 152 332 50
3 333 332 152
3 333 51 332
3 333 232 51
3 334 232 333
3 334 21 232
3 335 728 730
3 728 336 729
3 728 729 730
3 337 336 335
3 337 54 336
3 155 337 53
3 338 337 155
3 338 54 337
3 338 237 54
3 339 237 338
3 339 22 237
3 340 341 10
3 342 341 340
3 342 57 341
3 158 342 56
3 343 342 158
3 343 57 342
3 343 245 57
3 344 245 343
3 344 23 245
3 344 345 23
3 346 345 344
3 346 59 345
3 160 346 58
3 347 346 160
3 347 59 346
3 347 252 59
3 348 252 347
3 348 24 252
3 348 349 24
3 350 349 348
3 350 61 349
3 162 350 60
3 351 350 162
3 351 61 350
3 351 259 61
3 352 259 351
3 352 25 259
3 353 354 12
3 355 354 353
3 355 64 354
3 165 355 63
3 356 355 165
3 356 64 355
3 356 270 64
3 357 270 356
3 357 27 270
3 357 358 27
3 359 358 357
3 359 66 358
3 167 359 65
3 360 359 167
3 360 66 359
3 360 277 66
3 361 277 360
3 361 28 277
3 361 362 28
3 363 362 361
3 363 68 362
3 169 363 67
3 364 363 169
3 364 68 363
3 364 282 68
3 365 282 364
3 365 29 282
3 366 367 14
3 368 367 366
3 368 71 367
3 172 368 70
3 369 368 172
3 369 71 368
3 369 290 71
3 370 290 369
3 370 30 290
3 370 371 30
3 372 371 370
3 372 73 371
3 174 372 72
3 373 372 174
3 373 73 372
3 373 297 73
3 374 297 373
3 374 26 297
3 375 731 732
3 375 733 734
3 177 375 32
3 376 375 177
3 376 735 737
3 737 736 375
3 735 736 737
3 376 738 739
3 377 740 742
3 742 741 376
3 740 741 742
3 377 743 744
3 377 745 747
3 745 312 746
3 745 746 747
3 378 312 377
3 378 40 312
3 179 378 75
3 379 378 179
3 379 40 378
3 379 142 40
3 380 142 379
3 380 3 142
3 748 381 749
3 750 381 751
3 752 77 753
3 754 753 381
3 752 753 754
3 755 77 756
3 757 222 758
3 759 758 77
3 757 758 759
3 382 760 762
3 760 222 761
3 760 761 762
3 382 9 222
3 383 763 765
3 763 764 765
3 383 766 767
3 383 768 770
3 768 382 769
3 768 769 770
3 384 382 383
3 384 9 382
3 384 326 9
3 385 326 384
3 385 48 326
3 181 385 78
3 386 385 181
3 386 48 385
3 386 149 48
3 387 149 386
3 387 4 149
3 771 388 772
3 773 772 2
3 771 772 773
3 389 774 776
3 774 388 775
3 774 775 776
3 389 80 388
3 777 389 778
3 779 389 780
3 781 80 782
3 783 782 389
3 781 782 783
3 784 242 785
3 786 785 80
3 784 785 786
3 787 242 788
3 789 10 790
3 791 790 242
3 789 790 791
3 792 10 793
3 794 340 795
3 796 795 10
3 794 795 796
3 797 340 798
3 799 56 800
3 801 800 340
3 799 800 801
3 802 56 803
3 804 157 805
3 806 805 56
3 804 805 806
3 807 157 808
3 809 5 810
3 811 810 157
3 809 810 811
3 813 812 5
3 390 814 816
3 814 391 815
3 814 815 816
3 392 391 390
3 392 82 391
3 184 392 81
3 393 392 184
3 393 82 392
3 393 267 82
3 394 267 393
3 394 12 267
3 304 185 11
3 395 185 304
3 395 83 185
3 187 395 36
3 396 395 187
3 396 83 395
3 396 394 83
3 397 394 396
3 397 12 394
3 397 353 12
3 398 353 397
3 398 63 353
3 189 398 84
3 399 398 189
3 399 63 398
3 399 164 63
3 400 164 399
3 400 7 164
3 400 401 7
3 402 401 400
3 402 86 401
3 191 402 85
3 403 402 191
3 403 86 402
3 403 287 86
3 404 287 403
3 404 14 287
3 308 192 13
3 405 192 308
3 405 87 192
3 194 405 38
3 406 405 194
3 406 87 405
3 406 404 87
3 407 404 406
3 407 14 404
3 407 366 14
3 408 366 407
3 408 70 366
3 196 408 88
3 409 408 196
3 409 70 408
3 409 171 70
3 410 171 409
3 410 6 171
3 411 817 818
3 411 819 820
3 411 821 823
3 821 335 822
3 821 822 823
3 412 335 411
3 412 53 335
3 198 412 90
3 413 412 198
3 413 53 412
3 413 154 53
3 414 154 413
3 414 2 154
3 824 414 825
3 826 414 827
3 828 2 829
3 830 829 414
3 828 829 830
3 832 831 2
3 313 833 834
3 836 835 313
3 200 837 839
3 839 838 41
3 837 838 839
3 841 840 200
3 202 842 843
3 845 844 202
3 415 846 847
3 415 848 849
3 415 850 852
3 850 390 851
3 850 851 852
3 416 390 415
3 416 81 390
3 204 416 91
3 417 416 204
3 417 81 416
3 417 183 81
3 418 183 417
3 418 11 183
3 317 205 16
3 419 205 317
3 419 92 205
3 207 419 43
3 420 419 207
3 420 92 419
3 420 418 92
3 421 418 420
3 421 11 418
3 421 303 11
3 422 303 421
3 422 35 303
3 209 422 93
3 423 422 209
3 423 35 422
3 423 137 35
3 424 137 423
3 424 1 137
3 425 853 855
3 853 854 855
3 425 856 858
3 856 34 857
3 856 857 858
3 213 425 95
3 426 425 213
3 426 34 425
3 426 135 34
3 427 135 426
3 427 0 135
3 427 133 0
3 428 133 427
3 428 33 133
3 215 428 96
3 429 428 215
3 429 33 428
3 429 302 33
3 430 302 429
3 430 8 302
3 322 216 18
3 431 216 322
3 431 97 216
3 218 431 46
3 432 431 218
3 432 97 431
3 432 430 97
3 433 430 432
3 433 8 430
3 433 180 8
3 434 180 433
3 434 76 180
3 220 434 98
3 435 434 220
3 435 76 434
3 435 380 76
3 436 380 435
3 436 3 380
3 381 859 861
3 859 148 860
3 859 860 861
3 437 148 381
3 437 47 148
3 223 437 77
3 438 437 223
3 438 47 437
3 438 325 47
3 439 325 438
3 439 19 325
3 327 224 9
3 440 224 327
3 440 100 224
3 226 440 49
3 441 440 226
3 441 100 440
3 441 439 100
3 442 439 441
3 442 19 439
3 442 221 19
3 443 221 442
3 443 99 221
3 228 443 101
3 444 443 228
3 444 99 443
3 444 436 99
3 445 436 444
3 445 3 436
3 445 146 3
3 446 146 445
3 446 44 146
3 230 446 102
3 447 446 230
3 447 44 446
3 447 320 44
3 448 320 447
3 448 17 320
3 331 231 20
3 449 231 331
3 449 103 231
3 233 449 51
3 450 449 233
3 450 103 449
3 450 448 103
3 451 448 450
3 451 17 448
3 451 210 17
3 452 210 451
3 452 94 210
3 235 452 104
3 453 452 235
3 453 94 452
3 453 424 94
3 454 424 453
3 454 1 424
3 336 862 863
3 455 864 866
3 866 865 336
3 864 865 866
3 455 867 868
3 238 455 54
3 456 455 238
3 456 869 871
3 871 870 455
3 869 870 871
3 456 872 873
3 457 874 876
3 876 875 456
3 874 875 876
3 457 877 878
3 457 879 881
3 879 182 880
3 879 880 881
3 458 182 457
3 458 79 182
3 240 458 106
3 459 458 240
3 459 79 458
3 459 387 79
3 460 387 459
3 460 4 387
3 388 156 2
3 461 156 388
3 461 55 156
3 243 461 80
3 462 461 243
3 462 55 461
3 462 339 55
3 463 339 462
3 463 22 339
3 341 244 10
3 464 244 341
3 464 108 244
3 246 464 57
3 465 464 246
3 465 108 464
3 465 463 108
3 466 463 465
3 466 22 463
3 466 241 22
3 467 241 466
3 467 107 241
3 248 467 109
3 468 467 248
3 468 107 467
3 468 460 107
3 469 460 468
3 469 4 460
3 469 153 4
3 470 153 469
3 470 52 153
3 250 470 110
3 471 470 250
3 471 52 470
3 471 334 52
3 472 334 471
3 472 21 334
3 345 251 23
3 473 251 345
3 473 111 251
3 253 473 59
3 474 473 253
3 474 111 473
3 474 472 111
3 475 472 474
3 475 21 472
3 475 236 21
3 476 236 475
3 476 105 236
3 255 476 112
3 477 476 255
3 477 105 476
3 477 454 105
3 478 454 477
3 478 1 454
3 478 141 1
3 479 141 478
3 479 39 141
3 257 479 113
3 480 479 257
3 480 39 479
3 480 311 39
3 481 311 480
3 481 15 311
3 349 258 24
3 482 258 349
3 482 114 258
3 260 482 61
3 483 482 260
3 483 114 482
3 483 481 114
3 484 481 483
3 484 15 481
3 484 197 15
3 485 197 484
3 485 89 197
3 262 485 115
3 486 485 262
3 486 89 485
3 486 410 89
3 487 410 486
3 487 6 410
3 882 163 883
3 884 883 5
3 882 883 884
3 885 163 886
3 887 62 888
3 889 888 163
3 887 888 889
3 890 62 891
3 892 352 893
3 894 893 62
3 892 893 894
3 488 895 897
3 895 352 896
3 895 896 897
3 488 25 352
3 898 488 899
3 489 900 902
3 900 488 901
3 900 901 902
3 489 25 488
3 489 263 25
3 490 263 489
3 490 116 263
3 264 490 117
3 491 490 264
3 491 116 490
3 491 487 116
3 492 487 491
3 492 6 487
3 492 175 6
3 493 175 492
3 493 74 175
3 266 493 118
3 494 493 266
3 494 74 493
3 494 374 74
3 495 374 494
3 495 26 374
3 903 119 904
3 905 119 906
3 907 495 908
3 909 908 119
3 907 908 909
3 910 495 911
3 912 26 913
3 914 913 495
3 912 913 914
3 916 915 26
3 391 917 918
3 496 919 921
3 921 920 391
3 919 920 921
3 496 922 923
3 268 496 82
3 497 496 268
3 497 924 926
3 926 925 496
3 924 925 926
3 497 927 928
3 498 929 931
3 931 930 497
3 929 930 931
3 498 932 933
3 354 269 12
3 499 269 354
3 499 120 269
3 271 499 64
3 500 499 271
3 500 120 499
3 500 498 120
3 501 498 500
3 501 934 936
3 936 935 498
3 934 935 936
3 501 937 939
3 937 938 939
3 941 940 501
3 273 942 944
3 944 943 121
3 942 943 944
3 946 945 273
3 502 947 948
3 502 949 950
3 275 502 122
3 503 502 275
3 503 951 953
3 953 952 502
3 951 952 953
3 503 954 955
3 504 956 958
3 958 957 503
3 956 957 958
3 504 959 960
3 358 276 27
3 505 276 358
3 505 123 276
3 278 505 66
3 506 505 278
3 506 123 505
3 506 504 123
3 507 504 506
3 507 961 963
3 963 962 504
3 961 962 963
3 507 964 965
3 967 966 507
3 969 968 124
3 362 281 28
3 508 281 362
3 508 970 972
3 972 971 281
3 970 971 972
3 283 508 68
3 973 508 974
3 975 974 283
3 973 974 975
3 977 976 508
3 285 978 979
3 981 980 285
3 401 170 7
3 509 170 401
3 509 69 170
3 288 509 86
3 510 509 288
3 510 69 509
3 510 365 69
3 511 365 510
3 511 29 365
3 367 289 14
3 512 289 367
3 512 126 289
3 291 512 71
3 513 512 291
3 513 126 512
3 513 511 126
3 514 511 513
3 514 29 511
3 514 286 29
3 515 286 514
3 515 125 286
3 293 515 127
3 516 515 293
3 516 125 515
3 516 982 984
3 984 983 125
3 982 983 984
3 517 985 987
3 987 986 516
3 985 986 987
3 517 988 989
3 517 990 991
3 518 992 994
3 994 993 517
3 992 993 994
3 518 995 996
3 295 518 128
3 519 518 295
3 519 997 999
3 999 998 518
3 997 998 999
3 519 1000 1001
3 520 1002 1004
3 1004 1003 519
3 1002 1003 1004
3 520 1005 1006
3 371 296 30
3 521 296 371
3 521 129 296
3 298 521 73
3 522 521 298
3 522 129 521
3 522 520 129
3 523 520 522
3 523 1007 1009
3 1009 1008 520
3 1007 1008 1009
3 523 1010 1011
3 524 1012 1014
3 1014 1013 523
3 1012 1013 1014
3 524 1015 1016
3 1017 524 1018
3 1019 1018 130
3 1017 1018 1019
3 1020 524 1021
3 1023 1022 524
