ply
format ascii 1.0
element vertex 298
property float x
property float y
property float z
element face 282
property list uchar int vertex_index
end_header
-6.723172 41.9921 -50.233326
-11.051484 40.14505 -43.728619
-7.411442 48.961353 -42.78886
-2.717985 50.479538 -48.14571
-7.887032 52.45731 -39.655338
-15.575725 31.472279 -35.687916
-14.810169 34.042225 -40.267891
-9.174723 41.433815 -47.086212
-11.662385 37.875607 -48.197468
-9.322148 38.728363 -51.628181
-12.388013 38.535378 -39.677521
-8.99013 44.558102 -43.012707
-7.0645 45.324532 -46.380054
-13.58235 36.124573 -44.329529
-6.220437 53.947021 -42.580463
-5.363359 50.002552 -45.636826
-4.644026 45.961372 -48.896469
-1.652936 45.98177 -50.938408
-3.835075 41.994678 -52.429771
-15.270519 32.762138 -37.992081
-8.031091 41.745293 -48.788715
-9.16335 40.095531 -49.378063
-7.974351 40.239117 -50.975651
-6.601257 40.393776 -52.200508
-8.159945 46.693619 -42.878742
-8.138738 44.941982 -44.707764
-7.223319 47.072838 -44.588829
-11.751978 39.464539 -41.733471
-12.988426 37.199242 -41.910824
-12.313851 38.0256 -44.003769
-13.090317 36.186699 -49.04068
-6.726932 55.661461 -41.135189
-3.28116 52.929668 -46.708748
-4.594753 52.520145 -45.457058
-4.107501 50.37516 -46.933315
-4.969986 47.993504 -47.258339
-3.659826 48.19965 -48.44323
0.414855 43.155273 -52.975048
-0.02398 45.60894 -51.751545
-1.165741 43.70528 -52.341877
-2.673777 43.862019 -51.659565
-2.282872 41.716785 -53.22506
-3.559211 40.005867 -54.176983
-7.596584 50.856209 -41.176811
-16.868378 29.212368 -35.895966
-16.580814 30.560791 -38.049179
-16.182898 31.903732 -40.397114
-15.521549 33.326523 -42.682533
-10.149753 40.910599 -45.420994
-11.384958 38.885056 -45.963177
-10.302217 39.628517 -47.728668
-10.535795 38.438168 -49.948914
-9.955624 42.354092 -43.272144
-9.128735 42.856636 -44.975639
-8.041819 43.408039 -46.659672
-6.907622 43.542763 -48.345188
-13.557428 36.205601 -39.878819
-14.224134 35.185528 -42.27549
-14.936294 34.322075 -44.814251
-12.722005 37.019463 -46.477886
-14.05138 35.385147 -46.908142
-17.097431 27.643225 -33.543755
-7.511405 54.807365 -39.735538
-7.134723 53.262539 -41.090168
-6.790332 51.456131 -42.59586
-5.809237 51.926022 -44.05735
-6.495904 49.493874 -44.213169
-6.167493 47.600155 -45.962772
-5.939326 45.754436 -47.639462
-5.564865 43.915035 -49.570824
-0.504276 48.137936 -50.495422
-2.16398 48.163864 -49.574581
-3.172145 46.031532 -50.03083
-4.209932 43.96579 -50.681431
-5.369144 41.944572 -51.52702
-5.091911 40.360626 -53.25835
-7.785694 47.827486 -42.833801
-8.177764 47.631647 -42.03109
-7.803512 48.765514 -41.986148
-0.986663 42.502764 -53.062195
-0.375443 43.430277 -52.658462
-0.196365 42.22776 -53.378781
-1.545228 41.508516 -53.503787
-1.724306 42.711033 -52.783468
-0.986663 42.502764 -53.062195
-2.135178 40.621155 -54.0176
-1.545228 41.508516 -53.503787
-8.113843 51.376993 -39.604614
-8.171925 52.314244 -38.921768
-7.741808 51.656759 -40.416075
-7.968619 50.576443 -40.365351
-8.113843 51.376993 -39.604614
-9.97521 38.065027 -51.998962
-10.582033 37.919929 -51.159329
-9.928971 38.583265 -50.788547
-9.353101 38.103269 -52.820518
-9.97521 38.065027 -51.998962
-9.369736 44.258549 -42.161473
-8.963386 45.417295 -42.072864
-9.472877 43.456097 -43.142426
-9.852483 43.156544 -42.291191
-9.369736 44.258549 -42.161473
-12.972721 37.37049 -39.77817
-13.250082 36.807459 -38.754465
-12.665375 37.972347 -38.653816
-14.289303 35.053942 -48.270229
-13.570849 35.785923 -47.974411
-13.808772 35.454718 -49.336499
-14.8064 34.555329 -47.239863
-14.289303 35.053942 -48.270229
-16.553511 28.141094 -32.467946
-17.16135 26.839783 -32.372644
-16.494563 28.806635 -33.543098
-16.553511 28.141094 -32.467946
-7.377942 55.967367 -39.766506
-7.700236 55.532491 -39.119918
-4.184848 39.307579 -54.67049
-3.392101 39.035965 -55.042803
-7.986146 53.326155 -39.06897
-8.171925 52.314244 -38.921768
-14.851511 33.286652 -36.859497
-15.423122 32.117209 -36.839999
-15.004114 32.641722 -35.707414
-14.678826 33.871101 -37.910068
-14.851511 33.286652 -36.859497
-14.448652 34.511145 -39.047973
-15.040344 33.402181 -39.129986
-14.678826 33.871101 -37.910068
-7.983128 39.56819 -51.977396
-8.657027 38.812813 -52.303661
-8.64825 39.48374 -51.301916
-7.296581 39.64552 -52.589824
-7.983128 39.56819 -51.977396
-7.287804 40.316446 -51.588079
-6.498983 39.663136 -53.170336
-7.296581 39.64552 -52.589824
-8.548293 46.485054 -42.005882
-8.177764 47.631647 -42.03109
-8.575038 45.625861 -42.945724
-8.963386 45.417295 -42.072864
-8.548293 46.485054 -42.005882
-12.49211 36.560681 -49.873362
-12.376351 37.031153 -48.619074
-11.778144 37.405135 -49.451756
-13.267364 35.813643 -50.313654
-12.49211 36.560681 -49.873362
-13.808772 35.454718 -49.336499
-13.267364 35.813643 -50.313654
-6.597421 56.925754 -41.110805
-6.985706 56.394415 -40.466331
-6.278674 56.036173 -41.815247
-6.597421 56.925754 -41.110805
-6.025426 55.178953 -42.537883
-6.473685 54.804241 -41.857826
-6.278674 56.036173 -41.815247
-3.937956 52.724907 -46.082903
-4.314283 53.736331 -45.361694
-3.657487 53.941093 -45.987539
0.195437 44.382106 -52.363297
0.822572 45.433866 -52.032269
1.041989 44.207033 -52.64402
-2.773347 39.765695 -54.493561
-2.921041 40.861326 -53.701021
-2.135178 40.621155 -54.0176
-3.392101 39.035965 -55.042803
-2.773347 39.765695 -54.493561
-7.896083 49.712942 -41.180124
-7.968619 50.576443 -40.365351
-7.504013 49.908781 -41.982836
-7.803512 48.765514 -41.986148
-7.896083 49.712942 -41.180124
-17.4497 28.833211 -37.104853
-17.593151 28.078235 -35.966797
-17.305919 29.507422 -38.18146
-17.4497 28.833211 -37.104853
-16.724596 29.886579 -36.972572
-17.113599 30.244231 -39.39209
-17.305919 29.507422 -38.18146
-16.914642 30.915701 -40.566057
-17.113599 30.244231 -39.39209
-16.381856 31.232261 -39.223146
-16.609193 31.640363 -41.678719
-16.914642 30.915701 -40.566057
-16.278519 32.351758 -42.821428
-16.609193 31.640363 -41.678719
-15.852224 32.615127 -41.539823
-15.936291 32.980448 -43.953158
-16.278519 32.351758 -42.821428
-11.214849 37.686415 -50.327478
-11.778144 37.405135 -49.451756
-11.09909 38.156887 -49.073191
-11.214849 37.686415 -50.327478
-10.582033 37.919929 -51.159329
-9.353101 38.103269 -52.820518
-8.657027 38.812813 -52.303661
-2.935358 54.312206 -46.594544
-3.657487 53.941093 -45.987539
-2.59582 53.079569 -47.237978
-2.935358 54.312206 -46.594544
-2.314232 51.854503 -47.956459
-2.999573 51.704603 -47.427229
-2.59582 53.079569 -47.237978
1.258515 42.828997 -53.190747
1.041989 44.207033 -52.64402
0.582531 41.897575 -53.592207
1.258515 42.828997 -53.190747
-0.196365 42.22776 -53.378781
0.582531 41.897575 -53.592207
-12.144263 39.245753 -38.602728
-12.665375 37.972347 -38.653816
-11.886688 39.672625 -39.596367
-12.144263 39.245753 -38.602728
-11.56867 40.137206 -40.624342
-12.069996 38.999959 -40.705496
-11.886688 39.672625 -39.596367
-11.236496 40.556487 -41.585178
-11.56867 40.137206 -40.624342
-10.886249 40.896742 -42.582752
-11.401731 39.804794 -42.731045
-11.236496 40.556487 -41.585178
-10.33832 42.001263 -42.354515
-9.852483 43.156544 -42.291191
-10.503554 41.249571 -43.500382
-10.886249 40.896742 -42.582752
-10.33832 42.001263 -42.354515
-13.822281 35.592833 -38.853437
-13.250082 36.807459 -38.754465
-14.183798 35.123913 -40.073355
-14.448652 34.511145 -39.047973
-13.822281 35.592833 -38.853437
-15.643663 33.478224 -45.019016
-15.936291 32.980448 -43.953158
-15.228922 33.824299 -43.748392
-15.248857 34.023792 -46.192917
-14.493837 34.853611 -45.861196
-14.8064 34.555329 -47.239863
-15.643663 33.478224 -45.019016
-15.248857 34.023792 -46.192917
-17.799408 26.507147 -33.652927
-17.16135 26.839783 -32.372644
-17.707678 27.293663 -34.790691
-17.799408 26.507147 -33.652927
-16.982905 28.427796 -34.71986
-17.593151 28.078235 -35.966797
-17.707678 27.293663 -34.790691
-16.380036 29.591206 -34.719204
-16.982905 28.427796 -34.71986
-16.494563 28.806635 -33.543098
-15.73371 30.721162 -34.615179
-16.222051 30.342323 -35.791941
-16.380036 29.591206 -34.719204
-15.139337 32.007716 -34.620148
-15.73371 30.721162 -34.615179
-15.004114 32.641722 -35.707414
-15.139337 32.007716 -34.620148
-7.798332 54.501182 -39.10907
-7.700236 55.532491 -39.119918
-7.699218 53.632337 -39.695438
-7.986146 53.326155 -39.06897
-7.798332 54.501182 -39.10907
-7.119168 55.234413 -40.435363
-7.377942 55.967367 -39.766506
-6.985706 56.394415 -40.466331
-5.714341 54.251926 -43.259394
-6.025426 55.178953 -42.537883
-4.901499 53.538488 -44.697691
-4.314283 53.736331 -45.361694
-5.508741 53.241427 -43.997837
-4.901499 53.538488 -44.697691
-5.201995 52.223084 -44.757204
-6.014837 52.936521 -43.318906
-5.714341 54.251926 -43.259394
-5.508741 53.241427 -43.997837
-1.981267 50.556455 -48.634514
-2.314232 51.854503 -47.956459
0.562201 46.79515 -51.473324
0.822572 45.433866 -52.032269
0.322053 48.059649 -50.845263
0.562201 46.79515 -51.473324
-0.264128 46.873438 -51.123483
-0.020936 49.446045 -50.245125
0.322053 48.059649 -50.845263
-0.874412 49.385655 -49.80937
-0.020936 49.446045 -50.245125
-1.704264 49.398618 -49.34895
-0.874412 49.385655 -49.80937
-1.334128 48.1509 -50.035001
-2.440983 49.321701 -48.860146
-1.981267 50.556455 -48.634514
-1.704264 49.398618 -49.34895
-5.74431 39.646561 -53.699257
-6.498983 39.663136 -53.170336
-5.846584 40.377201 -52.729429
-4.951197 39.484959 -54.211174
-4.325561 40.183247 -53.717666
-4.184848 39.307579 -54.67049
-5.74431 39.646561 -53.699257
-4.951197 39.484959 -54.211174
3 0 22 20
3 0 23 22
3 2 76 78
3 76 24 77
3 76 77 78
3 2 26 24
3 1 29 27
3 3 34 32
3 3 36 34
3 79 39 80
3 81 80 37
3 79 80 81
3 82 41 83
3 84 83 39
3 82 83 84
3 86 85 41
3 4 87 88
3 4 89 91
3 89 43 90
3 89 90 91
3 5 45 44
3 6 46 19
3 6 47 46
3 7 50 48
3 9 51 21
3 9 92 94
3 94 93 51
3 92 93 94
3 9 95 96
3 11 97 98
3 11 99 101
3 99 52 100
3 99 100 101
3 11 53 52
3 12 54 25
3 12 55 54
3 10 102 104
3 102 56 103
3 102 103 104
3 13 57 28
3 13 58 57
3 8 59 49
3 105 60 106
3 107 106 30
3 105 106 107
3 109 108 60
3 110 61 111
3 113 112 61
3 114 62 115
3 14 63 31
3 14 64 63
3 15 65 33
3 15 66 65
3 15 67 66
3 16 68 35
3 16 69 68
3 17 70 38
3 17 71 70
3 17 72 71
3 18 73 40
3 18 74 73
3 18 75 74
3 117 116 42
3 118 4 119
3 120 19 121
3 122 121 5
3 120 121 122
3 123 19 124
3 125 6 126
3 127 126 19
3 125 126 127
3 20 21 7
3 22 21 20
3 22 9 21
3 22 128 130
3 130 129 9
3 128 129 130
3 23 131 133
3 133 132 22
3 131 132 133
3 23 134 135
3 24 136 137
3 24 138 140
3 138 11 139
3 138 139 140
3 24 25 11
3 26 25 24
3 26 12 25
3 27 28 10
3 29 28 27
3 29 13 28
3 141 30 142
3 143 142 8
3 141 142 143
3 144 30 145
3 147 146 30
3 148 31 149
3 150 31 151
3 152 14 153
3 154 153 31
3 152 153 154
3 32 155 157
3 155 33 156
3 155 156 157
3 34 33 32
3 34 15 33
3 34 35 15
3 36 35 34
3 36 16 35
3 37 158 160
3 158 38 159
3 158 159 160
3 39 38 37
3 39 17 38
3 39 40 17
3 41 40 39
3 41 18 40
3 41 42 18
3 161 42 162
3 163 162 41
3 161 162 163
3 165 164 42
3 43 166 167
3 43 168 170
3 168 2 169
3 168 169 170
3 44 171 172
3 45 173 175
3 175 174 44
3 173 174 175
3 45 176 177
3 19 45 5
3 46 45 19
3 46 178 180
3 180 179 45
3 178 179 180
3 46 181 182
3 47 183 185
3 185 184 46
3 183 184 185
3 47 186 187
3 48 49 1
3 50 49 48
3 50 8 49
3 21 50 7
3 51 50 21
3 51 8 50
3 51 188 190
3 190 189 8
3 188 189 190
3 192 191 51
3 194 193 9
3 195 32 196
3 197 32 198
3 199 3 200
3 201 200 32
3 199 200 201
3 202 37 203
3 204 37 205
3 207 206 37
3 208 10 209
3 210 10 211
3 212 27 213
3 214 213 10
3 212 213 214
3 215 27 216
3 217 1 218
3 219 218 27
3 217 218 219
3 52 220 221
3 52 222 224
3 222 1 223
3 222 223 224
3 52 48 1
3 53 48 52
3 53 7 48
3 25 53 11
3 54 53 25
3 54 7 53
3 54 20 7
3 55 20 54
3 55 0 20
3 56 225 226
3 56 227 229
3 227 6 228
3 227 228 229
3 28 56 10
3 57 56 28
3 57 6 56
3 57 47 6
3 58 47 57
3 58 230 232
3 232 231 47
3 230 231 232
3 49 29 1
3 59 29 49
3 59 13 29
3 30 59 8
3 60 59 30
3 60 13 59
3 60 58 13
3 233 58 234
3 235 234 60
3 233 234 235
3 237 236 58
3 61 238 239
3 61 240 241
3 61 242 244
3 242 44 243
3 242 243 244
3 245 44 246
3 247 246 61
3 245 246 247
3 248 5 249
3 250 249 44
3 248 249 250
3 251 5 252
3 254 253 5
3 62 255 256
3 62 257 259
3 257 4 258
3 257 258 259
3 31 260 262
3 260 62 261
3 260 261 262
3 63 62 31
3 63 4 62
3 63 43 4
3 64 43 63
3 64 2 43
3 263 14 264
3 33 265 266
3 65 267 269
3 269 268 33
3 267 268 269
3 65 270 272
3 270 14 271
3 270 271 272
3 65 64 14
3 66 64 65
3 66 2 64
3 66 26 2
3 67 26 66
3 67 12 26
3 35 67 15
3 68 67 35
3 68 12 67
3 68 55 12
3 69 55 68
3 69 0 55
3 273 3 274
3 38 275 276
3 70 277 279
3 279 278 38
3 277 278 279
3 70 280 281
3 70 282 283
3 71 284 286
3 286 285 70
3 284 285 286
3 71 287 289
3 287 3 288
3 287 288 289
3 71 36 3
3 72 36 71
3 72 16 36
3 40 72 17
3 73 72 40
3 73 16 72
3 73 69 16
3 74 69 73
3 74 0 69
3 74 23 0
3 75 23 74
3 75 290 292
3 292 291 23
3 290 291 292
3 42 75 18
3 293 75 294
3 295 294 42
3 293 294 295
3 297 296 75
