ply
format ascii 1.0
element vertex 512
property float x
property float y
property float z
element face 563
property list uchar int vertex_index
end_header
-39.887543 -9.875766 17.442411
-32.272938 -11.64097 3.306092
-35.9617 -26.133116 28.038187
-38.687088 -17.925934 23.372663
-38.888065 -27.122202 20.65299
-39.089279 -19.2829 15.5522
-26.577215 -10.427498 -1.859916
-31.323875 -18.532808 0.788782
-37.724838 -11.030354 9.859914
-34.568386 -17.171589 30.226391
-35.84803 -19.806217 7.61036
-39.469349 -13.722162 20.557068
-39.403805 -18.560732 19.41765
-39.522457 -14.608348 16.496391
-24.386044 -8.930233 -4.160193
-26.773281 -13.144411 -3.152482
-31.572929 -17.354996 33.193035
-36.243324 -12.852661 28.019257
-34.111988 -30.241373 29.79229
-36.447426 -30.660276 26.655968
-39.033596 -27.726284 16.483807
-35.261257 -11.593972 6.446991
-36.566586 -15.621774 8.857738
-34.111698 -15.771411 5.478236
-33.79435 -22.282486 2.2928
-37.534077 -22.070984 25.833212
-37.864346 -26.530298 24.575151
-38.844193 -22.633142 22.173441
-39.218647 -23.187757 18.161631
-38.668499 -23.611755 13.996209
-29.304708 -11.236243 0.609689
-31.386702 -15.47874 2.30196
-28.784342 -14.43709 -0.559285
-39.317024 -10.597344 13.572127
-24.647291 -5.649778 -3.235133
-33.341839 -25.722837 30.962534
-32.525536 -21.384548 32.033207
-35.329678 -21.521862 29.179651
-37.020378 -17.393944 26.95224
-38.327488 -13.280492 24.375765
-39.296646 -9.174217 21.479223
-38.058491 -31.188473 22.824379
-38.503643 -15.289291 12.627016
-37.837139 -19.796106 11.522815
-37.399246 -23.690491 9.939051
-33.564194 -19.393545 4.071786
-35.640377 -23.294975 5.93857
-39.718502 -11.837421 19.031565
-39.637115 -14.215826 18.606501
-39.730106 -12.209197 16.986084
-23.564173 -8.003903 -5.246374
-24.712479 -10.161271 -4.82541
-35.010761 -28.216078 29.0287
-35.34708 -30.422169 28.32653
-36.233891 -28.438181 27.369995
-33.826714 -11.80646 4.871937
-34.537464 -13.718301 5.903963
-33.062881 -13.764697 4.250332
-38.140842 -19.951672 24.687527
-38.308403 -22.235041 24.050444
-38.79776 -20.291265 22.749598
-39.35944 -19.052141 17.500528
-39.309227 -21.020544 18.939812
-39.209419 -21.198494 16.887642
-39.04834 -23.56502 16.091923
-38.856182 -21.53237 14.804499
-27.860304 -10.773549 -0.663524
-28.959278 -12.931924 0.128313
-27.687988 -12.417455 -1.140467
-23.513973 -5.140196 -4.1873
-33.113293 -17.069723 31.76046
-32.022503 -19.268055 32.642525
-33.522507 -19.216194 31.252176
-33.96682 -21.260942 30.69396
-35.010826 -19.320288 29.659266
-36.232296 -19.529894 28.097467
-35.916359 -17.240068 28.580067
-37.062805 -10.979344 26.626848
-37.384838 -13.214697 26.240795
-38.02216 -11.087657 24.898745
-38.85907 -11.292706 22.937923
-38.567795 -9.088853 23.520342
-38.480988 -27.037663 22.649084
-37.94487 -29.035078 23.840443
-38.526859 -29.260691 21.768925
-38.641602 -10.721183 11.644296
-38.882057 -13.008667 13.056209
-38.102535 -13.186568 11.181181
-36.153458 -17.845276 8.291886
-37.217979 -17.757687 10.149066
-36.908157 -19.880304 9.522492
-37.534077 -21.865908 10.667974
-36.655296 -21.841465 8.699372
-31.259195 -17.146523 1.614359
-32.410866 -17.416765 3.106375
-32.411606 -18.944067 2.444937
-34.712738 -22.859249 4.077953
-35.771843 -24.813768 4.989667
-36.546833 -25.30401 6.851077
-39.141983 -15.910425 21.919804
-39.180862 -18.140242 21.420494
-39.463734 -16.183969 19.972607
-39.514156 -16.617331 18.027859
-39.313419 -17.033855 16.140057
-25.398506 -9.768581 -3.036196
-26.515675 -11.848907 -2.438535
-25.551357 -11.118936 -3.642823
-32.567375 -15.22015 32.367931
-34.169044 -15.088203 30.692123
-35.506401 -15.01609 29.102032
-34.969368 -12.910287 29.710611
-34.430595 -32.403721 29.144529
-35.61599 -32.623672 27.558664
-39.066467 -27.432222 18.478931
-38.871777 -29.433189 19.659883
-36.551285 -11.358864 8.077324
-37.090702 -13.385955 9.361156
-35.813534 -13.70689 7.515121
-35.325741 -15.840899 7.049081
-34.9263 -17.827847 6.441706
-32.530987 -20.305357 1.537039
-36.817551 -23.971249 26.954861
-36.948658 -26.406559 26.478876
-37.720352 -24.333048 25.226372
-38.409298 -24.726877 23.396025
-38.876781 -24.81563 21.510685
-39.187435 -20.566414 20.809017
-39.155468 -22.962925 20.183773
-39.117088 -25.107819 19.48085
-39.121532 -25.490145 17.340338
-38.906857 -25.669554 15.152436
-38.501541 -25.622202 13.015118
-30.754431 -11.493968 1.89565
-31.758404 -13.63683 2.888806
-30.348524 -13.492285 1.471506
-30.04224 -15.079229 0.813171
-30.08293 -16.512751 0.17903
-27.713703 -13.847642 -1.844419
-28.992355 -15.869181 -1.288948
-22.55933 -5.830946 -5.68811
-39.747852 -10.168484 15.470473
-37.31469 -8.964628 8.52673
-34.539333 -9.502354 5.163629
-33.105808 -9.551111 3.754355
-31.554363 -9.447032 2.363051
-29.88961 -9.218182 0.975712
-28.326319 -9.003892 -0.269947
-26.821987 -8.642361 -1.478315
-26.032995 -6.19749 -2.179746
-25.547182 -8.127142 -2.550659
-24.383558 -7.478839 -3.612376
-23.349073 -6.641452 -4.671977
-33.746616 -27.867846 30.404148
-34.757381 -25.83016 29.546099
-30.468786 -19.505219 33.922337
-32.96217 -23.562462 31.473465
-34.35857 -23.44669 30.151482
-35.617489 -23.898157 28.677389
-36.521732 -21.721981 27.575733
-37.325432 -19.682699 26.3699
-38.00322 -17.641809 25.115156
-36.651661 -15.079846 27.516552
-37.706184 -15.333272 25.731506
-38.5467 -15.458604 23.86264
-39.01186 -13.617016 22.522699
-39.411591 -11.579511 21.058716
-39.745064 -9.537573 19.430042
-37.24128 -28.543011 25.601276
-37.308609 -30.953743 24.914085
-39.441463 -12.649778 15.002096
-39.124599 -15.109071 14.545974
-38.833981 -17.368103 14.075858
-37.648308 -15.616595 10.76101
-38.122288 -17.571466 12.066286
-38.562859 -19.613943 13.510547
-38.26804 -21.847353 12.656407
-38.109238 -23.834982 11.932865
-37.966583 -25.831114 10.919712
-32.769588 -15.81768 3.863409
-33.688171 -17.626854 4.758682
-34.727791 -19.613762 5.824079
-33.551556 -20.864407 3.218842
-34.67329 -21.300322 5.086529
-35.734314 -21.6884 6.912224
-36.571487 -23.653303 7.89894
-23.850033 -8.631683 -5.605625
-23.256771 -7.540335 -5.796828
-37.836285 -9.996816 25.145476
-37.542482 -11.0335 25.762797
-37.356607 -9.942659 26.009527
-38.109102 -8.997414 24.456274
-38.294978 -10.088255 24.209544
-37.836285 -9.996816 25.145476
-35.8484 -25.455176 4.336206
-35.37388 -24.541024 4.027195
-36.18683 -25.739234 5.347675
-35.8484 -25.455176 4.336206
-25.346909 -11.200563 -4.611817
-25.033895 -10.691128 -5.238328
-33.089636 -14.215068 31.831506
-32.342228 -14.226907 32.623655
-33.89047 -14.149095 30.993603
-33.368209 -15.154177 31.530027
-33.089636 -14.215068 31.831506
-34.290633 -13.060137 30.502847
-34.569206 -13.999245 30.201367
-33.89047 -14.149095 30.993603
-34.271291 -31.322547 29.468409
-33.786963 -32.306601 29.822073
-33.627659 -31.225426 30.145954
-36.512848 -31.862252 26.248626
-36.09713 -32.84395 26.699974
-36.031708 -31.641974 27.107316
-39.011494 -28.756774 17.05238
-39.027929 -28.609743 18.049942
-39.050032 -27.579253 17.481369
-29.177451 -16.399498 -1.729639
-28.525571 -15.472126 -1.965429
-29.613533 -16.797189 -1.025129
-29.177451 -16.399498 -1.729639
-22.092771 -4.619185 -5.921591
-22.541593 -5.13808 -5.416708
-37.095816 -7.912195 7.840084
-37.668104 -7.714404 8.653937
-36.641785 -9.092477 7.628756
-37.095816 -7.912195 7.840084
-34.241167 -8.310209 4.551162
-35.004427 -8.287222 5.3258
-33.524405 -8.334588 3.846525
-33.82257 -9.526733 4.458992
-34.241167 -8.310209 4.551162
-31.161182 -8.304 1.834219
-31.981172 -8.338569 2.489466
-30.328806 -8.189575 1.14055
-30.721986 -9.332607 1.669382
-31.161182 -8.304 1.834219
-27.944388 -7.8785 -0.660457
-28.750363 -7.995401 -0.078038
-27.192222 -7.697734 -1.264641
-27.574153 -8.823127 -0.874131
-27.944388 -7.8785 -0.660457
-25.340143 -5.923634 -2.707439
-25.659551 -5.037102 -2.549036
-24.966698 -4.763246 -3.076729
-22.936464 -5.543333 -4.908641
-23.431523 -5.890824 -4.429638
-23.018914 -4.792705 -4.666303
-22.541593 -5.13808 -5.416708
-22.954201 -6.236199 -5.180044
-22.936464 -5.543333 -4.908641
-33.544228 -26.795341 30.683341
-32.988247 -27.862602 31.061054
-32.785858 -26.790097 31.340247
-31.020857 -18.430107 33.557686
-30.23397 -18.556493 34.232089
-30.786041 -17.481381 33.867438
-31.769249 -21.389926 32.654424
-31.517733 -20.331679 32.959083
-32.27402 -20.326301 32.337866
-31.97033 -22.444342 32.388386
-31.769249 -21.389926 32.654424
-32.743853 -22.473505 31.753336
-32.188647 -23.533299 32.108515
-31.97033 -22.444342 32.388386
-37.739313 -32.138815 23.390514
-37.364372 -32.02145 24.435367
-37.68355 -31.071108 23.869232
-38.698502 -30.422062 20.24924
-38.833052 -30.57189 19.219015
-36.901013 -25.366111 7.847099
-36.921368 -26.2271 7.340468
-24.424186 -9.710367 -5.395143
-24.138326 -9.082587 -5.035892
-23.850033 -8.631683 -5.605625
-25.033895 -10.691128 -5.238328
-24.424186 -9.710367 -5.395143
-38.991123 -28.692864 15.972874
-38.921965 -27.668833 15.377072
-27.416035 -14.109741 -2.897196
-27.034085 -13.663089 -3.573359
-24.263579 -4.401478 -3.578079
-24.966698 -4.763246 -3.076729
-23.696919 -4.146687 -4.054163
-24.080632 -5.394987 -3.711216
-24.263579 -4.401478 -3.578079
-23.085465 -3.86774 -4.524487
-23.696919 -4.146687 -4.054163
-23.018914 -4.792705 -4.666303
-23.085465 -3.86774 -4.524487
-32.551868 -25.724469 31.615407
-32.785858 -26.790097 31.340247
-34.844328 -23.563764 3.571338
-34.253544 -22.570867 3.185377
-34.385134 -23.275383 2.678762
-35.24229 -23.836509 4.53381
-34.844328 -23.563764 3.571338
-35.37388 -24.541024 4.027195
-36.574326 -25.984355 6.27838
-36.159338 -25.058889 5.920372
-36.18683 -25.739234 5.347675
-36.921368 -26.2271 7.340468
-36.574326 -25.984355 6.27838
-25.766348 -11.679395 -4.020523
-25.131918 -10.640103 -4.234116
-25.346909 -11.200563 -4.611817
-26.37731 -12.692132 -3.775353
-26.162319 -12.131673 -3.397652
-25.766348 -11.679395 -4.020523
-27.034085 -13.663089 -3.573359
-26.37731 -12.692132 -3.775353
-31.299897 -16.405343 33.514782
-30.786041 -17.481381 33.867438
-31.79712 -15.33792 33.10223
-32.342228 -14.226907 32.623655
-32.070152 -16.287573 32.780483
-31.299897 -16.405343 33.514782
-31.79712 -15.33792 33.10223
-34.695419 -11.942028 29.993217
-34.290633 -13.060137 30.502847
-35.369087 -11.898117 29.127009
-34.695419 -11.942028 29.993217
-36.006065 -11.869304 28.281332
-35.606346 -12.881474 28.864934
-35.369087 -11.898117 29.127009
-36.415805 -10.932645 27.585127
-36.653064 -11.916002 27.323052
-36.006065 -11.869304 28.281332
-36.82156 -9.954503 26.900892
-36.415805 -10.932645 27.585127
-37.356607 -9.942659 26.009527
-36.82156 -9.954503 26.900892
-33.933815 -33.362578 29.525681
-33.786963 -32.306601 29.822073
-34.561605 -33.504364 28.77111
-33.933815 -33.362578 29.525681
-35.154303 -33.614339 27.978177
-34.561605 -33.504364 28.77111
-35.023292 -32.513696 28.351596
-35.697458 -33.771766 27.134802
-35.154303 -33.614339 27.978177
-35.697458 -33.771766 27.134802
-36.09713 -32.84395 26.699974
-38.930584 -29.610226 18.640418
-38.969122 -28.432705 19.069407
-39.027929 -28.609743 18.049942
-38.833052 -30.57189 19.219015
-38.930584 -29.610226 18.640418
-39.011494 -28.756774 17.05238
-38.991123 -28.692864 15.972874
-32.04756 -19.967664 0.693206
-31.927431 -19.419083 1.16291
-31.444004 -19.08139 0.319077
-32.718817 -20.920764 1.072272
-32.04756 -19.967664 0.693206
-33.350499 -21.909329 1.450153
-33.162669 -21.293921 1.91492
-32.718817 -20.920764 1.072272
-34.00774 -22.921537 1.794555
-33.350499 -21.909329 1.450153
-34.385134 -23.275383 2.678762
-34.00774 -22.921537 1.794555
-38.858595 -26.640469 14.711386
-38.921965 -27.668833 15.377072
-38.970227 -26.697919 15.818122
-38.655937 -26.616793 13.642727
-38.858595 -26.640469 14.711386
-38.704199 -25.645878 14.083777
-38.468897 -26.655865 12.561152
-38.655937 -26.616793 13.642727
-27.886246 -14.461357 -2.243165
-27.243492 -13.496026 -2.498451
-27.416035 -14.109741 -2.897196
-28.353029 -14.858411 -1.566683
-27.886246 -14.461357 -2.243165
-28.525571 -15.472126 -1.965429
-30.158821 -17.118974 -0.291139
-29.537643 -16.190966 -0.554959
-29.613533 -16.797189 -1.025129
-30.779293 -18.129002 0.013736
-30.703403 -17.522779 0.483906
-30.158821 -17.118974 -0.291139
-31.444004 -19.08139 0.319077
-30.779293 -18.129002 0.013736
-22.228153 -5.311098 -6.176852
-22.75435 -6.453857 -6.017696
-22.228153 -5.311098 -6.176852
-22.092771 -4.619185 -5.921591
-39.87318 -8.948556 15.727337
-39.817698 -10.022125 16.456442
-39.943026 -8.802198 16.713306
-39.74031 -9.089306 14.751018
-39.87318 -8.948556 15.727337
-39.524896 -9.303736 13.801845
-39.532438 -10.382914 14.5213
-39.74031 -9.089306 14.751018
-39.236768 -9.516106 12.835273
-39.524896 -9.303736 13.801845
-38.899057 -9.578025 11.871357
-38.979313 -10.659263 12.608211
-39.236768 -9.516106 12.835273
-38.477301 -9.705668 10.915541
-38.899057 -9.578025 11.871357
-38.018919 -9.860254 10.02335
-38.18322 -10.875768 10.752105
-38.477301 -9.705668 10.915541
-37.813845 -8.827391 9.356758
-37.668104 -7.714404 8.653937
-37.519764 -9.997491 9.193322
-38.018919 -9.860254 10.02335
-37.813845 -8.827391 9.356758
-36.260082 -10.289595 7.404053
-36.932987 -10.161746 8.302027
-36.641785 -9.092477 7.628756
-35.615068 -10.407149 6.588887
-35.906271 -11.476418 7.262158
-36.260082 -10.289595 7.404053
-35.254106 -9.36134 5.947206
-35.004427 -8.287222 5.3258
-34.900295 -10.548163 5.80531
-35.615068 -10.407149 6.588887
-35.254106 -9.36134 5.947206
-32.756895 -8.390609 3.185118
-33.524405 -8.334588 3.846525
-32.330086 -9.499071 3.058703
-32.756895 -8.390609 3.185118
-31.981172 -8.338569 2.489466
-29.532009 -8.102545 0.544791
-30.328806 -8.189575 1.14055
-29.107965 -9.111037 0.352882
-29.532009 -8.102545 0.544791
-28.750363 -7.995401 -0.078038
-26.436142 -5.193669 -2.041866
-25.659551 -5.037102 -2.549036
-26.797725 -6.475299 -1.615357
-26.436142 -5.193669 -2.041866
-26.427491 -7.419925 -1.829031
-27.192222 -7.697734 -1.264641
-26.797725 -6.475299 -1.615357
-22.75435 -6.453857 -6.017696
-23.256771 -7.540335 -5.796828
-23.061751 -6.917424 -5.467242
-33.457601 -30.104934 30.422717
-33.627659 -31.225426 30.145954
-33.274916 -28.91817 30.728646
-32.988247 -27.862602 31.061054
-33.929302 -29.054609 30.098219
-33.457601 -30.104934 30.422717
-33.274916 -28.91817 30.728646
-29.715682 -19.63363 34.497883
-30.23397 -18.556493 34.232089
-29.925564 -20.614485 34.18869
-29.715682 -19.63363 34.497883
-30.740874 -20.450261 33.59899
-31.245645 -19.386637 33.282431
-31.517733 -20.331679 32.959083
-29.925564 -20.614485 34.18869
-30.740874 -20.450261 33.59899
-32.362034 -24.644281 31.870872
-32.188647 -23.533299 32.108515
-33.152005 -24.642649 31.218
-32.551868 -25.724469 31.615407
-32.362034 -24.644281 31.870872
-38.417309 -7.956015 23.713735
-38.109102 -8.997414 24.456274
-38.814787 -7.987106 22.772806
-38.417309 -7.956015 23.713735
-39.179213 -8.029788 21.752246
-38.93222 -9.131535 22.499783
-38.814787 -7.987106 22.772806
-39.481321 -8.141898 20.726337
-39.179213 -8.029788 21.752246
-39.70553 -8.323576 19.701746
-39.520855 -9.355895 20.454633
-39.481321 -8.141898 20.726337
-39.866642 -8.476183 18.640794
-39.70553 -8.323576 19.701746
-39.937882 -8.64528 17.646979
-39.816304 -9.70667 18.436227
-39.866642 -8.476183 18.640794
-39.943026 -8.802198 16.713306
-39.937882 -8.64528 17.646979
-36.943439 -32.008986 25.377685
-36.512848 -31.862252 26.248626
-36.878017 -30.807009 25.785027
-36.943439 -32.008986 25.377685
-37.364372 -32.02145 24.435367
-38.526043 -30.335814 21.303762
-38.699318 -29.34694 20.714404
-38.698502 -30.422062 20.24924
-38.291859 -31.299704 21.831488
-38.292675 -30.224582 22.296652
-38.526043 -30.335814 21.303762
-38.049137 -32.253577 22.383444
-38.291859 -31.299704 21.831488
-37.739313 -32.138815 23.390514
-38.049137 -32.253577 22.383444
-38.201418 -26.760321 11.513449
-38.468897 -26.655865 12.561152
-38.234062 -25.726658 11.967415
-36.913339 -24.540757 8.371031
-36.55916 -24.478656 7.375008
-36.901013 -25.366111 7.847099
-37.327219 -24.559351 9.391087
-36.985366 -23.671897 8.918995
-36.913339 -24.540757 8.371031
-37.610888 -25.629663 9.881417
-37.682914 -24.760803 10.429381
-37.327219 -24.559351 9.391087
-37.943745 -26.646653 10.459881
-37.610888 -25.629663 9.881417
-38.201418 -26.760321 11.513449
-37.943745 -26.646653 10.459881
3 0 49 47
3 186 185 50
3 2 54 52
3 1 57 55
3 3 60 58
3 5 63 61
3 5 65 63
3 6 68 66
3 9 72 70
3 9 74 72
3 9 76 74
3 187 79 188
3 189 188 77
3 187 188 189
3 190 81 191
3 192 191 79
3 190 191 192
3 4 84 82
3 8 87 85
3 10 90 88
3 10 92 90
3 7 95 93
3 193 97 194
3 196 195 97
3 11 101 99
3 13 102 48
3 13 103 102
3 14 106 104
3 198 197 51
3 199 107 200
3 201 108 202
3 203 202 107
3 201 202 203
3 204 110 205
3 206 205 108
3 204 205 206
3 18 207 209
3 207 111 208
3 207 208 209
3 19 112 53
3 19 210 212
3 212 211 112
3 210 211 212
3 20 213 215
3 215 214 113
3 213 214 215
3 21 117 115
3 23 118 56
3 23 119 118
3 25 123 121
3 27 124 59
3 27 125 124
3 12 126 100
3 28 127 62
3 28 128 127
3 28 129 128
3 29 130 64
3 29 131 130
3 30 134 132
3 32 135 67
3 32 136 135
3 15 137 105
3 216 138 217
3 219 218 138
3 221 220 139
3 222 141 223
3 225 224 141
3 226 142 227
3 228 143 229
3 230 229 142
3 228 229 230
3 231 144 232
3 233 145 234
3 235 234 144
3 233 234 235
3 236 146 237
3 238 147 239
3 240 239 146
3 238 239 240
3 34 241 243
3 241 148 242
3 241 242 243
3 34 149 148
3 34 150 149
3 244 151 245
3 246 245 69
3 244 245 246
3 247 139 248
3 249 248 151
3 247 248 249
3 35 250 252
3 250 152 251
3 250 251 252
3 35 153 152
3 16 253 255
3 253 154 254
3 253 254 255
3 36 256 258
3 258 257 71
3 256 257 258
3 36 259 260
3 36 261 263
3 261 155 262
3 261 262 263
3 37 156 73
3 37 157 156
3 37 158 157
3 38 159 75
3 38 160 159
3 17 161 109
3 39 162 78
3 39 163 162
3 39 164 163
3 40 165 80
3 40 166 165
3 26 167 122
3 41 168 83
3 41 264 266
3 266 265 168
3 264 265 266
3 268 267 114
3 33 169 140
3 42 170 86
3 42 171 170
3 22 172 116
3 43 173 89
3 43 174 173
3 43 175 174
3 44 176 91
3 44 177 176
3 31 178 133
3 45 179 94
3 45 180 179
3 24 181 120
3 46 182 96
3 46 183 182
3 46 184 183
3 270 269 98
3 47 48 11
3 49 48 47
3 49 13 48
3 50 51 14
3 271 51 272
3 273 272 50
3 271 272 273
3 275 274 51
3 52 53 18
3 54 53 52
3 54 19 53
3 277 276 20
3 55 56 21
3 57 56 55
3 57 23 56
3 58 59 25
3 60 59 58
3 60 27 59
3 61 62 12
3 63 62 61
3 63 28 62
3 63 64 28
3 65 64 63
3 65 29 64
3 66 67 30
3 68 67 66
3 68 32 67
3 279 278 15
3 280 34 281
3 282 69 283
3 284 283 34
3 282 283 284
3 285 69 286
3 288 287 69
3 289 35 290
3 70 71 16
3 72 71 70
3 72 36 71
3 72 73 36
3 74 73 72
3 74 37 73
3 74 75 37
3 76 75 74
3 76 38 75
3 77 78 17
3 79 78 77
3 79 39 78
3 79 80 39
3 81 80 79
3 81 40 80
3 82 83 26
3 84 83 82
3 84 41 83
3 85 86 33
3 87 86 85
3 87 42 86
3 88 89 22
3 90 89 88
3 90 43 89
3 90 91 43
3 92 91 90
3 92 44 91
3 93 94 31
3 95 94 93
3 95 45 94
3 291 96 292
3 293 292 24
3 291 292 293
3 97 294 296
3 294 96 295
3 294 295 296
3 97 46 96
3 97 98 46
3 297 98 298
3 299 298 97
3 297 298 299
3 301 300 98
3 99 100 3
3 101 100 99
3 101 12 100
3 48 101 11
3 102 101 48
3 102 12 101
3 102 61 12
3 103 61 102
3 103 5 61
3 104 105 6
3 106 105 104
3 106 15 105
3 51 106 14
3 302 106 303
3 304 303 51
3 302 303 304
3 305 15 306
3 307 306 106
3 305 306 307
3 309 308 15
3 310 16 311
3 107 312 313
3 107 314 316
3 314 16 315
3 314 315 316
3 107 70 16
3 108 70 107
3 108 9 70
3 108 109 9
3 110 109 108
3 110 17 109
3 317 110 318
3 319 110 320
3 321 17 322
3 323 322 110
3 321 322 323
3 324 77 325
3 326 325 17
3 324 325 326
3 327 77 328
3 330 329 77
3 111 331 332
3 111 333 334
3 53 111 18
3 112 111 53
3 112 335 337
3 337 336 111
3 335 336 337
3 112 338 339
3 341 340 112
3 113 114 4
3 342 114 343
3 344 343 113
3 342 343 344
3 346 345 114
3 348 347 20
3 115 116 8
3 117 116 115
3 117 22 116
3 56 117 21
3 118 117 56
3 118 22 117
3 118 88 22
3 119 88 118
3 119 10 88
3 349 120 350
3 351 350 7
3 349 350 351
3 352 120 353
3 354 24 355
3 356 355 120
3 354 355 356
3 357 24 358
3 360 359 24
3 121 122 2
3 123 122 121
3 123 26 122
3 59 123 25
3 124 123 59
3 124 26 123
3 124 82 26
3 125 82 124
3 125 4 82
3 100 60 3
3 126 60 100
3 126 27 60
3 62 126 12
3 127 126 62
3 127 27 126
3 127 125 27
3 128 125 127
3 128 4 125
3 128 113 4
3 129 113 128
3 129 20 113
3 64 129 28
3 130 129 64
3 130 20 129
3 130 361 363
3 363 362 20
3 361 362 363
3 131 364 366
3 366 365 130
3 364 365 366
3 131 367 368
3 132 133 1
3 134 133 132
3 134 31 133
3 67 134 30
3 135 134 67
3 135 31 134
3 135 93 31
3 136 93 135
3 136 7 93
3 105 68 6
3 137 68 105
3 137 32 68
3 369 137 370
3 371 370 15
3 369 370 371
3 138 372 374
3 372 137 373
3 372 373 374
3 138 32 137
3 138 136 32
3 375 136 376
3 377 376 138
3 375 376 377
3 378 7 379
3 380 379 136
3 378 379 380
3 382 381 7
3 139 383 384
3 386 385 139
3 387 140 388
3 389 388 0
3 387 388 389
3 390 140 391
3 392 33 393
3 394 393 140
3 392 393 394
3 395 33 396
3 397 85 398
3 399 398 33
3 397 398 399
3 400 85 401
3 402 8 403
3 404 403 85
3 402 403 404
3 141 405 406
3 141 407 409
3 407 8 408
3 407 408 409
3 141 115 8
3 410 115 411
3 412 411 141
3 410 411 412
3 413 21 414
3 415 414 115
3 413 414 415
3 142 416 417
3 142 418 420
3 418 21 419
3 418 419 420
3 142 55 21
3 143 55 142
3 143 1 55
3 421 143 422
3 144 423 425
3 423 143 424
3 423 424 425
3 144 1 143
3 144 132 1
3 145 132 144
3 145 30 132
3 426 145 427
3 146 428 430
3 428 145 429
3 428 429 430
3 146 30 145
3 146 66 30
3 147 66 146
3 147 6 66
3 148 431 432
3 148 433 434
3 148 435 437
3 435 147 436
3 435 436 437
3 149 147 148
3 149 6 147
3 149 104 6
3 150 104 149
3 150 14 104
3 69 150 34
3 151 150 69
3 151 14 150
3 151 50 14
3 139 50 151
3 139 438 440
3 440 439 50
3 438 439 440
3 441 18 442
3 152 443 444
3 152 445 447
3 445 18 446
3 445 446 447
3 152 52 18
3 153 52 152
3 153 2 52
3 154 448 449
3 154 450 451
3 71 154 16
3 452 154 453
3 454 453 71
3 452 453 454
3 456 455 154
3 155 457 458
3 155 459 461
3 459 35 460
3 459 460 461
3 73 155 36
3 156 155 73
3 156 35 155
3 156 153 35
3 157 153 156
3 157 2 153
3 157 121 2
3 158 121 157
3 158 25 121
3 75 158 37
3 159 158 75
3 159 25 158
3 159 58 25
3 160 58 159
3 160 3 58
3 109 76 9
3 161 76 109
3 161 38 76
3 78 161 17
3 162 161 78
3 162 38 161
3 162 160 38
3 163 160 162
3 163 3 160
3 163 99 3
3 164 99 163
3 164 11 99
3 80 164 39
3 165 164 80
3 165 11 164
3 165 47 11
3 166 47 165
3 166 0 47
3 462 81 463
3 464 81 465
3 466 40 467
3 468 467 81
3 466 467 468
3 469 40 470
3 471 166 472
3 473 472 40
3 471 472 473
3 474 166 475
3 476 0 477
3 478 477 166
3 476 477 478
3 480 479 0
3 122 54 2
3 167 54 122
3 167 19 54
3 83 167 26
3 168 167 83
3 168 19 167
3 168 481 483
3 483 482 19
3 481 482 483
3 485 484 168
3 114 84 4
3 486 84 487
3 488 487 114
3 486 487 488
3 489 41 490
3 491 490 84
3 489 490 491
3 492 41 493
3 495 494 41
3 140 49 0
3 169 49 140
3 169 13 49
3 86 169 33
3 170 169 86
3 170 13 169
3 170 103 13
3 171 103 170
3 171 5 103
3 116 87 8
3 172 87 116
3 172 42 87
3 89 172 22
3 173 172 89
3 173 42 172
3 173 171 42
3 174 171 173
3 174 5 171
3 174 65 5
3 175 65 174
3 175 29 65
3 91 175 43
3 176 175 91
3 176 29 175
3 176 131 29
3 177 131 176
3 177 496 498
3 498 497 131
3 496 497 498
3 133 57 1
3 178 57 133
3 178 23 57
3 94 178 31
3 179 178 94
3 179 23 178
3 179 119 23
3 180 119 179
3 180 10 119
3 120 95 7
3 181 95 120
3 181 45 95
3 96 181 24
3 182 181 96
3 182 45 181
3 182 180 45
3 183 180 182
3 183 10 180
3 183 92 10
3 184 92 183
3 184 44 92
3 98 184 46
3 499 184 500
3 501 500 98
3 499 500 501
3 502 44 503
3 504 503 184
3 502 503 504
3 505 177 506
3 507 506 44
3 505 506 507
3 508 177 509
3 511 510 177
