ply
format ascii 1.0
element vertex 313
property float x
property float y
property float z
element face 325
property list uchar int vertex_index
end_header
-30.713982 0.982061 37.034676
-36.23748 9.134612 22.224791
-31.746517 17.371428 35.794411
-33.031971 5.460977 30.197823
-34.010738 21.842196 27.896503
-36.924149 26.342411 18.664936
-30.634657 12.808062 43.459309
-31.062031 -4.783832 34.048012
-32.094318 25.579681 34.408314
-32.758366 19.700006 31.897202
-33.008766 27.836756 30.41053
-35.551529 32.37114 21.230562
-36.858196 34.499058 16.277618
-34.581547 7.238447 26.394041
-33.881847 -0.840453 27.112886
-31.25313 9.058376 36.724728
-31.724203 3.075271 33.616119
-32.305763 11.24941 32.994881
-33.61861 13.569678 29.25742
-35.156616 15.878875 25.115519
-34.22905 30.090609 25.916723
-35.463085 24.337927 23.412035
-36.68354 17.651649 20.810091
-30.584408 6.844875 40.238327
-31.030048 15.023879 39.612534
-32.339787 -2.895125 30.671637
-30.39678 -2.917398 37.327747
-30.856787 -1.848989 35.557312
-32.527699 26.724077 32.399586
-32.590248 31.145416 31.534458
-35.402538 7.960333 24.353237
-35.094261 4.144715 24.786983
-35.959099 4.940047 22.644814
-31.536505 13.148685 36.20414
-31.748755 10.124889 34.817223
-31.984037 14.237522 34.45472
-33.330856 20.785135 30.010496
-33.182995 16.678503 30.558676
-33.821568 17.732832 28.689884
-34.382908 14.681535 27.205223
-34.598923 18.684998 26.48266
-36.208061 29.287645 20.117735
-35.502934 28.251904 22.501852
-36.240479 25.162737 21.003225
-36.095592 21.114414 22.096098
-36.844265 21.805738 19.820078
-37.420799 18.519325 18.524448
-37.536598 22.802845 17.497717
-30.605324 10.003095 41.822029
-30.826298 10.948667 39.908375
-30.796247 13.972543 41.51749
-32.349209 4.462821 31.945576
-32.03685 0.095722 32.082966
-32.719318 1.282753 30.41268
-31.926065 21.50906 35.219501
-32.225174 18.449554 33.822376
-32.383118 22.555559 33.23835
-32.93681 23.900707 31.101353
-33.527012 25.062069 29.014273
-35.456287 36.677925 20.025362
-36.185326 33.61544 18.830004
-36.886074 30.528727 17.616112
-33.802521 6.377413 28.292767
-33.464645 2.348757 28.648386
-34.312912 3.144311 26.624941
-34.733311 -0.145039 25.118982
-37.035564 9.996158 20.026669
-36.695507 5.698514 20.723604
-30.997379 5.054575 36.900528
-31.178507 2.142331 35.340202
-31.465117 6.247111 35.179447
-32.029522 7.25785 33.363129
-32.677113 8.495512 31.545563
-32.550957 15.409631 32.511745
-32.94318 12.717268 31.139961
-33.333179 9.489513 29.813833
-34.132011 10.58772 27.770657
-34.923599 11.390144 25.748039
-35.675121 12.315855 23.801481
-33.086761 31.833254 29.399815
-33.597549 29.294043 28.118589
-34.165836 26.089657 26.893724
-34.837669 31.294888 23.733042
-34.82325 27.160337 24.742907
-34.750034 22.899487 25.655468
-35.364052 20.143208 24.256754
-35.906666 16.700529 23.053345
-36.45636 13.346634 21.68523
-30.635956 4.013829 38.557949
-30.894884 8.135766 38.406925
-31.142513 12.218417 38.093201
-31.334286 16.04488 37.776043
-30.977898 18.124397 41.061596
-31.215443 19.151419 39.165947
-31.547438 20.14679 37.111942
-31.700987 24.276085 36.486202
-31.407162 -0.915004 33.805126
-31.671911 -4.034406 32.304489
-33.077763 -2.083049 28.907782
-32.70652 -5.990943 29.131945
-32.418808 32.490454 32.084924
-32.385036 30.340222 32.603853
-30.54487 10.709135 43.577537
-30.58987 12.217568 44.418888
-30.619991 11.405579 42.640669
-30.530203 9.306652 42.758898
-30.54487 10.709135 43.577537
-30.88819 -6.73409 34.168362
-30.785403 -5.304077 34.949015
-31.165677 -6.355301 33.351536
-30.88819 -6.73409 34.168362
-35.404848 38.854112 19.251487
-35.130293 38.130526 20.50083
-36.521761 34.057249 17.553811
-36.141903 35.745209 18.124685
-36.478338 36.187017 16.848492
-37.231033 32.931515 15.581703
-37.244972 30.94635 16.250951
-36.872135 32.513892 16.946865
-35.117186 0.30186 24.220143
-34.913786 1.999838 24.952982
-35.297661 2.446737 24.054144
-34.953837 -1.800501 24.306654
-35.117186 0.30186 24.220143
-37.258674 8.120376 19.248165
-37.405656 10.384489 18.91268
-33.095249 33.980832 28.810172
-32.872312 33.415122 29.905606
-33.9133 29.692326 27.017656
-33.60646 31.320661 27.621376
-33.922211 31.718944 26.520443
-35.194599 31.833014 22.481802
-34.83867 33.380146 23.088889
-35.1956 33.918273 21.837649
-36.976517 16.020311 20.063185
-36.862927 13.867804 20.500755
-36.56995 15.499142 21.247661
-37.723541 16.804627 17.70783
-37.790407 18.877067 17.27142
-30.457811 4.834674 40.352602
-30.47737 6.251724 41.193735
-30.610182 5.429352 39.398138
-30.483586 3.419151 39.512413
-30.457811 4.834674 40.352602
-30.948813 19.484559 41.928538
-30.885889 17.423152 42.029921
-31.295378 21.175626 38.865177
-31.163464 20.606039 39.934977
-31.461375 21.673312 37.838175
-31.381441 19.649104 38.138945
-31.295378 21.175626 38.865177
-31.53815 23.737959 37.525305
-31.624212 22.211437 36.799072
-31.461375 21.673312 37.838175
-32.149597 -4.943938 30.778518
-31.81566 -5.513579 31.594944
-32.005849 -3.464765 31.488063
-32.886265 -7.629318 28.370555
-33.098921 -5.560715 28.235827
-32.503452 -8.030728 29.257749
-32.886265 -7.629318 28.370555
-36.518394 3.46032 20.953595
-36.922055 3.916859 19.870475
-30.452777 -4.37086 36.588882
-30.247025 -4.764903 37.470139
-30.68278 -3.836655 35.703665
-30.452777 -4.37086 36.588882
-30.626784 -2.383193 36.44253
-30.959409 -3.31641 34.802662
-30.785403 -5.304077 34.949015
-30.68278 -3.836655 35.703665
-32.353762 28.129553 33.036417
-32.311008 26.151879 33.40395
-32.137072 27.557355 34.040781
-32.558974 28.934747 31.967022
-32.353762 28.129553 33.036417
-32.385036 30.340222 32.603853
-36.790454 36.699489 15.52203
-36.478338 36.187017 16.848492
-37.171432 35.086227 14.899158
-36.790454 36.699489 15.52203
-35.73008 2.844403 22.983059
-35.297661 2.446737 24.054144
-35.52668 4.542381 23.715899
-34.21525 32.183968 25.403368
-33.922211 31.718944 26.520443
-37.848306 21.018828 16.758054
-37.790407 18.877067 17.27142
-37.478699 20.661085 18.011083
-30.487828 7.830834 41.985586
-30.530203 9.306652 42.758898
-30.594866 8.423985 41.030178
-30.47737 6.251724 41.193735
-30.487828 7.830834 41.985586
-33.686584 -2.98547 27.226297
-34.096441 -2.567575 26.299447
-35.14798 36.071665 21.235049
-35.130293 38.130526 20.50083
-35.503908 34.524532 20.627962
-35.1956 33.918273 21.837649
-35.14798 36.071665 21.235049
-35.777383 37.276451 18.722365
-35.404848 38.854112 19.251487
-35.820807 35.146682 19.427683
-35.777383 37.276451 18.722365
-36.141903 35.745209 18.124685
-37.246309 28.878763 16.917233
-37.265346 26.785605 17.441645
-36.905112 28.435569 18.140524
-37.246309 28.878763 16.917233
-37.244972 30.94635 16.250951
-37.231033 32.931515 15.581703
-37.171432 35.086227 14.899158
-30.658273 14.234713 44.229755
-30.58987 12.217568 44.418888
-30.714268 14.764985 43.228777
-30.658273 14.234713 44.229755
-34.522173 -2.219868 25.302495
-34.096441 -2.567575 26.299447
-34.307579 -0.492746 26.115934
-34.522173 -2.219868 25.302495
-34.953837 -1.800501 24.306654
-37.088646 5.971554 19.596633
-36.865536 7.847336 20.375136
-37.258674 8.120376 19.248165
-36.922055 3.916859 19.870475
-37.088646 5.971554 19.596633
-32.624056 33.071203 30.972928
-32.418808 32.490454 32.084924
-32.452616 34.416241 31.523394
-32.838504 31.489335 30.467137
-32.624056 33.071203 30.972928
-32.872312 33.415122 29.905606
-33.351067 32.590266 28.261989
-33.095249 33.980832 28.810172
-33.342155 30.563648 28.759202
-33.351067 32.590266 28.261989
-33.60646 31.320661 27.621376
-34.519559 32.786108 24.311528
-34.83867 33.380146 23.088889
-34.53336 30.692749 24.824883
-34.21525 32.183968 25.403368
-34.519559 32.786108 24.311528
-37.152529 12.192566 19.671474
-36.745962 11.671396 20.85595
-36.862927 13.867804 20.500755
-37.405656 10.384489 18.91268
-37.152529 12.192566 19.671474
-37.345146 16.454149 18.920364
-36.976517 16.020311 20.063185
-37.05217 18.085487 19.667269
-37.345146 16.454149 18.920364
-37.723541 16.804627 17.70783
-37.571571 25.015822 16.858035
-37.230373 24.572628 18.081327
-37.265346 26.785605 17.441645
-37.885908 23.275987 16.206956
-37.571571 25.015822 16.858035
-37.848306 21.018828 16.758054
-37.885908 23.275987 16.206956
-30.220577 -3.508896 38.20533
-30.247025 -4.764903 37.470139
-30.370306 -1.50706 38.055182
-30.220577 -3.508896 38.20533
-30.528907 0.442669 37.908646
-30.555381 -0.967669 37.181212
-30.370306 -1.50706 38.055182
-30.489894 1.958554 38.670282
-30.483586 3.419151 39.512413
-30.674969 2.497945 37.796312
-30.528907 0.442669 37.908646
-30.489894 1.958554 38.670282
-30.795063 15.347225 42.257868
-30.715452 13.390303 42.488399
-30.714268 14.764985 43.228777
-30.887073 16.04847 41.289543
-30.795063 15.347225 42.257868
-30.885889 17.423152 42.029921
-31.044691 20.092527 40.882801
-30.948813 19.484559 41.928538
-31.096671 18.637908 40.113771
-31.044691 20.092527 40.882801
-31.163464 20.606039 39.934977
-31.60546 25.808463 37.141922
-31.53815 23.737959 37.525305
-31.755308 26.377032 36.126221
-31.60546 25.808463 37.141922
-31.951974 27.02883 35.087277
-31.897652 24.927883 35.447258
-31.755308 26.377032 36.126221
-32.137072 27.557355 34.040781
-31.951974 27.02883 35.087277
-31.470617 -5.980588 32.479774
-31.165677 -6.355301 33.351536
-31.366971 -4.409119 33.17625
-31.470617 -5.980588 32.479774
-31.81566 -5.513579 31.594944
-33.284543 -3.606768 28.123745
-33.479805 -1.461751 28.010334
-33.686584 -2.98547 27.226297
-32.892141 -4.036996 29.019863
-33.284543 -3.606768 28.123745
-33.098921 -5.560715 28.235827
-32.332964 -6.491848 30.008672
-32.149597 -4.943938 30.778518
-32.523153 -4.443034 29.901791
-32.332964 -6.491848 30.008672
-32.503452 -8.030728 29.257749
-36.150191 3.081087 21.9142
-36.327303 5.31928 21.684209
-36.518394 3.46032 20.953595
-35.73008 2.844403 22.983059
-36.150191 3.081087 21.9142
3 0 27 26
3 100 29 101
3 1 32 30
3 2 35 33
3 4 38 36
3 4 40 38
3 5 43 41
3 5 45 43
3 5 47 45
3 6 102 103
3 6 104 106
3 104 48 105
3 104 105 106
3 6 50 48
3 3 53 51
3 7 107 108
3 7 109 110
3 8 56 54
3 10 57 28
3 10 58 57
3 111 59 112
3 12 113 115
3 113 60 114
3 113 114 115
3 12 61 60
3 12 116 118
3 118 117 61
3 116 117 118
3 13 64 62
3 119 65 120
3 121 120 31
3 119 120 121
3 123 122 65
3 125 124 66
3 15 70 68
3 17 71 34
3 17 72 71
3 9 73 55
3 18 74 37
3 18 75 74
3 18 76 75
3 19 77 39
3 19 78 77
3 126 79 127
3 20 128 130
3 128 80 129
3 128 129 130
3 20 81 80
3 11 131 133
3 131 82 132
3 131 132 133
3 21 83 42
3 21 84 83
3 21 85 84
3 22 86 44
3 22 87 86
3 22 134 136
3 136 135 87
3 134 135 136
3 138 137 46
3 23 139 140
3 23 141 143
3 141 88 142
3 141 142 143
3 23 89 88
3 24 90 49
3 24 91 90
3 144 92 145
3 146 93 147
3 148 94 149
3 150 149 93
3 148 149 150
3 151 95 152
3 153 152 94
3 151 152 153
3 16 96 69
3 25 97 52
3 25 154 156
3 156 155 97
3 154 155 156
3 14 98 63
3 157 99 158
3 160 159 99
3 162 161 67
3 26 163 164
3 27 165 167
3 167 166 26
3 165 166 167
3 27 168 170
3 168 7 169
3 168 169 170
3 171 28 172
3 173 172 8
3 171 172 173
3 29 174 176
3 174 28 175
3 174 175 176
3 29 10 28
3 177 12 178
3 180 179 12
3 30 31 13
3 32 31 30
3 32 181 183
3 183 182 31
3 181 182 183
3 33 34 15
3 35 34 33
3 35 17 34
3 36 37 9
3 38 37 36
3 38 18 37
3 38 39 18
3 40 39 38
3 40 19 39
3 184 20 185
3 41 42 11
3 43 42 41
3 43 21 42
3 43 44 21
3 45 44 43
3 45 22 44
3 45 46 22
3 47 46 45
3 47 186 188
3 188 187 46
3 186 187 188
3 48 189 190
3 48 191 193
3 191 23 192
3 191 192 193
3 48 49 23
3 50 49 48
3 50 24 49
3 51 52 16
3 53 52 51
3 53 25 52
3 195 194 14
3 54 55 2
3 56 55 54
3 56 9 55
3 28 56 8
3 57 56 28
3 57 9 56
3 57 36 9
3 58 36 57
3 58 4 36
3 59 196 197
3 59 198 200
3 198 11 199
3 198 199 200
3 201 59 202
3 60 203 205
3 203 59 204
3 203 204 205
3 60 11 59
3 60 41 11
3 61 41 60
3 61 5 41
3 61 206 208
3 208 207 5
3 206 207 208
3 210 209 61
3 212 211 12
3 213 6 214
3 216 215 6
3 62 63 3
3 64 63 62
3 64 14 63
3 31 64 13
3 65 64 31
3 65 14 64
3 65 217 219
3 219 218 14
3 217 218 219
3 221 220 65
3 66 67 1
3 222 67 223
3 224 223 66
3 222 223 224
3 226 225 67
3 68 69 0
3 70 69 68
3 70 16 69
3 34 70 15
3 71 70 34
3 71 16 70
3 71 51 16
3 72 51 71
3 72 3 51
3 55 35 2
3 73 35 55
3 73 17 35
3 37 73 9
3 74 73 37
3 74 17 73
3 74 72 17
3 75 72 74
3 75 3 72
3 75 62 3
3 76 62 75
3 76 13 62
3 39 76 18
3 77 76 39
3 77 13 76
3 77 30 13
3 78 30 77
3 78 1 30
3 227 29 228
3 227 228 229
3 79 230 232
3 230 29 231
3 230 231 232
3 79 10 29
3 233 79 234
3 80 235 237
3 235 79 236
3 235 236 237
3 80 10 79
3 80 58 10
3 81 58 80
3 81 4 58
3 82 238 239
3 82 240 242
3 240 20 241
3 240 241 242
3 42 82 11
3 83 82 42
3 83 20 82
3 83 81 20
3 84 81 83
3 84 4 81
3 84 40 4
3 85 40 84
3 85 19 40
3 44 85 21
3 86 85 44
3 86 19 85
3 86 78 19
3 87 78 86
3 87 1 78
3 87 66 1
3 243 66 244
3 245 244 87
3 243 244 245
3 247 246 66
3 46 248 250
3 250 249 22
3 248 249 250
3 252 251 46
3 253 47 254
3 255 254 5
3 253 254 255
3 256 47 257
3 259 258 47
3 260 26 261
3 262 26 263
3 264 0 265
3 266 265 26
3 264 265 266
3 88 267 268
3 88 269 271
3 269 0 270
3 269 270 271
3 88 68 0
3 89 68 88
3 89 15 68
3 49 89 23
3 90 89 49
3 90 15 89
3 90 33 15
3 91 33 90
3 91 2 33
3 272 50 273
3 274 273 6
3 272 273 274
3 92 275 277
3 275 50 276
3 275 276 277
3 92 24 50
3 278 92 279
3 93 280 282
3 280 92 281
3 280 281 282
3 93 24 92
3 93 91 24
3 94 91 93
3 94 2 91
3 94 54 2
3 95 54 94
3 95 8 54
3 283 95 284
3 285 95 286
3 287 8 288
3 289 288 95
3 287 288 289
3 291 290 8
3 69 27 0
3 96 27 69
3 96 7 27
3 52 96 16
3 97 96 52
3 97 7 96
3 97 292 294
3 294 293 7
3 292 293 294
3 296 295 97
3 63 53 3
3 98 53 63
3 98 25 53
3 297 98 298
3 299 298 14
3 297 298 299
3 99 300 302
3 300 98 301
3 300 301 302
3 99 25 98
3 99 303 305
3 305 304 25
3 303 304 305
3 307 306 99
3 67 32 1
3 308 32 309
3 310 309 67
3 308 309 310
3 312 311 32
