ply
format ascii 1.0
element vertex 244
property float x
property float y
property float z
element face 216
property list uchar int vertex_index
end_header
-28.231169 -42.448837 -7.817873
-21.414686 -44.609932 -20.934381
-29.665609 -45.022064 0.893556
-23.57983 -50.269066 -14.246882
-28.682524 -51.433903 6.227519
-28.027819 -50.727699 1.476557
-26.526525 -48.546951 -7.228508
-25.644426 -46.731396 -11.254107
-24.646072 -44.633011 -14.858837
-19.726803 -46.359829 -23.542246
-27.363962 -49.751171 -2.853372
-29.122988 -43.636818 -3.538475
-22.59761 -47.702843 -17.680405
-23.413813 -42.187668 -18.33728
-29.421925 -48.555153 5.77656
-27.35634 -45.478973 -7.568209
-26.104271 -47.614788 -9.338272
-26.860823 -44.770969 -9.600348
-26.374763 -43.894638 -11.49216
-27.69615 -41.721016 -9.89005
-21.169771 -47.306866 -20.684996
-20.39086 -48.391689 -22.015455
-20.511677 -45.737732 -22.247477
-28.856169 -47.863987 1.298712
-27.679983 -50.365341 -0.690929
-28.51902 -47.341007 -1.08619
-28.168922 -46.760807 -3.344713
-29.44873 -44.238781 -1.357478
-23.054817 -49.287075 -16.01166
-24.022171 -43.482483 -16.673548
-21.789347 -41.923893 -21.09049
-20.827066 -43.087223 -22.293118
-27.681166 -54.028515 4.449567
-27.368944 -53.489162 2.086105
-28.357233 -51.157097 3.851241
-29.100971 -48.363663 3.432726
-30.015837 -45.184879 3.124067
-24.969206 -49.623562 -10.963132
-24.585949 -48.516155 -12.722729
-24.099234 -47.448914 -14.513776
-25.178089 -45.666363 -13.096697
-25.838125 -42.848392 -13.386092
-26.988255 -53.105354 -0.256154
-26.594152 -52.66378 -2.557842
-26.94754 -49.314831 -4.988434
-27.745502 -46.292774 -5.47237
-28.718391 -43.120125 -5.615512
-22.025377 -46.256817 -19.335556
-23.509621 -46.331577 -16.359138
-22.960104 -44.861694 -18.075373
-22.36241 -43.467953 -19.659748
-22.8202 -40.856026 -19.82066
-23.349832 -51.752182 -14.115247
-23.765457 -50.919848 -13.379217
-23.137566 -51.092867 -15.005854
-23.349832 -51.752182 -14.115247
-23.317324 -49.77807 -15.129271
-22.875059 -50.601872 -15.888243
-23.137566 -51.092867 -15.005854
-21.518161 -41.125763 -21.724824
-22.018835 -40.746629 -21.106336
-28.371749 -52.812528 6.537837
-28.812704 -51.623795 7.447431
-28.181845 -52.731209 5.338543
-27.87107 -54.109834 5.64886
-28.371749 -52.812528 6.537837
-29.633104 -47.063061 4.352463
-29.261448 -48.459408 4.604643
-29.793581 -47.158806 5.52438
-30.090536 -45.473669 4.198134
-29.558404 -46.774271 3.278397
-29.633104 -47.063061 4.352463
-25.973916 -49.554125 -8.071897
-26.206124 -49.877063 -7.025526
-26.488677 -41.801592 -12.653261
-26.106444 -43.371515 -12.439126
-26.756996 -42.324714 -11.706295
-26.199213 -41.379779 -13.533174
-26.488677 -41.801592 -12.653261
-19.709926 -47.858557 -23.43999
-20.041954 -48.874487 -22.676595
-20.058832 -47.375759 -22.77885
-19.33356 -46.767378 -24.219037
-19.709926 -47.858557 -23.43999
-20.374383 -43.386816 -22.951032
-20.55607 -42.070688 -22.933322
-26.781173 -50.95084 -3.790559
-26.396268 -52.407145 -3.642794
-26.979057 -51.207476 -2.705607
-27.155751 -49.533001 -3.920903
-26.572961 -50.73267 -4.85809
-26.781173 -50.95084 -3.790559
-22.161815 -48.444401 -18.36415
-22.402761 -49.160651 -17.586505
-22.311493 -46.97983 -18.507981
-21.875699 -47.721388 -19.191726
-22.161815 -48.444401 -18.36415
-29.14892 -50.210121 7.157163
-28.812704 -51.623795 7.447431
-29.518621 -48.770747 6.931683
-29.052225 -49.994528 6.00204
-29.14892 -50.210121 7.157163
-29.912914 -47.245662 6.689243
-29.518621 -48.770747 6.931683
-29.793581 -47.158806 5.52438
-29.912914 -47.245662 6.689243
-27.41769 -41.237904 -10.90524
-26.756996 -42.324714 -11.706295
-27.035457 -42.807827 -10.691105
-20.780316 -47.849277 -21.350226
-20.674165 -49.28273 -21.267647
-21.06362 -48.740319 -20.602418
-22.631365 -49.952766 -16.752133
-22.875059 -50.601872 -15.888243
-22.826214 -48.494959 -16.846032
-22.402761 -49.160651 -17.586505
-22.631365 -49.952766 -16.752133
-24.608995 -42.685412 -15.955324
-24.334122 -44.057747 -15.766192
-24.920946 -43.260676 -15.047968
-24.30708 -42.161011 -16.773105
-24.608995 -42.685412 -15.955324
-24.002901 -41.513604 -17.604971
-23.717992 -42.835076 -17.505414
-24.30708 -42.161011 -16.773105
-23.701532 -40.9236 -18.374425
-24.002901 -41.513604 -17.604971
-21.03702 -41.707428 -22.326138
-21.308206 -42.505558 -21.691804
-21.518161 -41.125763 -21.724824
-20.55607 -42.070688 -22.933322
-21.03702 -41.707428 -22.326138
-27.413761 -55.329661 4.739066
-27.87107 -54.109834 5.64886
-27.20924 -55.224592 3.540659
-27.413761 -55.329661 4.739066
-27.525055 -53.758838 3.267836
-27.053129 -54.954916 2.358928
-27.20924 -55.224592 3.540659
-25.762789 -49.088043 -9.126779
-25.973916 -49.554125 -8.071897
-26.315398 -48.080869 -8.28339
-25.195256 -50.09243 -9.939208
-25.762789 -49.088043 -9.126779
-25.536738 -48.619175 -10.150702
-24.705143 -51.049248 -10.71816
-25.195256 -50.09243 -9.939208
-24.460145 -50.597095 -11.737341
-24.705143 -51.049248 -10.71816
-24.268517 -50.043392 -12.61714
-24.460145 -50.597095 -11.737341
-24.777577 -49.069858 -11.84293
-24.08289 -49.392611 -13.484806
-23.765457 -50.919848 -13.379217
-24.268517 -50.043392 -12.61714
-25.516973 -42.368366 -14.311596
-24.920946 -43.260676 -15.047968
-25.242099 -43.740702 -14.122464
-25.516973 -42.368366 -14.311596
-26.199213 -41.379779 -13.533174
-20.345937 -49.801018 -21.953609
-20.674165 -49.28273 -21.267647
-20.345937 -49.801018 -21.953609
-20.041954 -48.874487 -22.676595
-20.216689 -44.71207 -22.928211
-20.669371 -44.412478 -22.270297
-20.374383 -43.386816 -22.951032
-19.824252 -45.023119 -23.575596
-20.11924 -46.04878 -22.894861
-20.216689 -44.71207 -22.928211
-19.398263 -45.296921 -24.221285
-19.824252 -45.023119 -23.575596
-19.33356 -46.767378 -24.219037
-19.398263 -45.296921 -24.221285
-26.888081 -54.675705 1.213222
-27.053129 -54.954916 2.358928
-26.697736 -54.483801 0.042093
-26.888081 -54.675705 1.213222
-27.178599 -53.297258 0.914975
-26.497664 -54.275751 -1.123282
-26.697736 -54.483801 0.042093
-26.300613 -54.054964 -2.274126
-26.497664 -54.275751 -1.123282
-26.791204 -52.884567 -1.406998
-26.090916 -53.795351 -3.442666
-26.300613 -54.054964 -2.274126
-26.090916 -53.795351 -3.442666
-26.396268 -52.407145 -3.642794
-26.416632 -50.261004 -5.905489
-26.572961 -50.73267 -4.85809
-26.737032 -48.930891 -6.108471
-26.206124 -49.877063 -7.025526
-26.416632 -50.261004 -5.905489
-30.536376 -43.953613 4.145253
-30.090536 -45.473669 4.198134
-30.473648 -43.644051 3.007402
-30.536376 -43.953613 4.145253
-30.298534 -43.562643 1.892147
-29.840723 -45.103471 2.008812
-30.473648 -43.644051 3.007402
-30.166466 -43.376984 0.770895
-30.298534 -43.562643 1.892147
-30.058026 -42.985342 -0.354622
-29.55717 -44.630423 -0.231961
-30.166466 -43.376984 0.770895
-29.914015 -42.708051 -1.494019
-30.058026 -42.985342 -0.354622
-29.751143 -42.40707 -2.584517
-29.285859 -43.937799 -2.447977
-29.914015 -42.708051 -1.494019
-29.559513 -42.156791 -3.708926
-29.751143 -42.40707 -2.584517
-29.357214 -41.898445 -4.747444
-28.92069 -43.378472 -4.576994
-29.559513 -42.156791 -3.708926
-29.172697 -41.525492 -5.822574
-29.357214 -41.898445 -4.747444
-28.929086 -41.189848 -6.923755
-28.47478 -42.784481 -6.716692
-29.172697 -41.525492 -5.822574
-28.671722 -40.878901 -7.994509
-28.929086 -41.189848 -6.923755
-28.404212 -40.51499 -9.030597
-27.963659 -42.084926 -8.853962
-28.671722 -40.878901 -7.994509
-28.143566 -40.093491 -10.049055
-28.404212 -40.51499 -9.030597
-27.41769 -41.237904 -10.90524
-28.143566 -40.093491 -10.049055
-21.447896 -48.246412 -19.866446
-21.06362 -48.740319 -20.602418
-21.597574 -46.781841 -20.010276
-21.447896 -48.246412 -19.866446
-21.875699 -47.721388 -19.191726
-22.534261 -40.212696 -20.471421
-22.018835 -40.746629 -21.106336
-22.304773 -41.38996 -20.455575
-23.404726 -40.257779 -19.116115
-23.117007 -41.521847 -19.07897
-23.701532 -40.9236 -18.374425
-23.085718 -39.631952 -19.853895
-23.404726 -40.257779 -19.116115
-22.534261 -40.212696 -20.471421
-23.085718 -39.631952 -19.853895
3 0 17 15
3 0 19 17
3 1 22 20
3 2 25 23
3 2 27 25
3 3 52 53
3 3 54 55
3 3 56 58
3 56 28 57
3 56 57 58
3 60 59 30
3 4 61 62
3 4 63 65
3 63 32 64
3 63 64 65
3 4 34 32
3 66 35 67
3 68 67 14
3 66 67 68
3 69 36 70
3 71 70 35
3 69 70 71
3 6 72 73
3 7 37 16
3 7 38 37
3 7 40 38
3 74 41 75
3 76 75 18
3 74 75 76
3 78 77 41
3 9 79 81
3 81 80 21
3 79 80 81
3 9 82 83
3 85 84 31
3 5 42 33
3 10 43 24
3 10 86 88
3 88 87 43
3 86 87 88
3 10 89 91
3 89 44 90
3 89 90 91
3 11 45 26
3 11 46 45
3 12 92 93
3 12 94 96
3 94 47 95
3 94 95 96
3 8 48 39
3 13 49 29
3 13 50 49
3 13 51 50
3 97 4 98
3 99 14 100
3 101 100 4
3 99 100 101
3 102 14 103
3 105 104 14
3 15 16 6
3 17 16 15
3 17 7 16
3 17 18 7
3 19 18 17
3 19 106 108
3 108 107 18
3 106 107 108
3 20 109 111
3 109 21 110
3 109 110 111
3 22 21 20
3 22 9 21
3 23 24 5
3 25 24 23
3 25 10 24
3 25 26 10
3 27 26 25
3 27 11 26
3 28 112 113
3 28 114 116
3 114 12 115
3 114 115 116
3 117 29 118
3 119 118 8
3 117 118 119
3 120 29 121
3 122 13 123
3 124 123 29
3 122 123 124
3 126 125 13
3 30 31 1
3 127 31 128
3 129 128 30
3 127 128 129
3 131 130 31
3 32 132 133
3 32 134 135
3 32 136 138
3 136 33 137
3 136 137 138
3 34 33 32
3 34 5 33
3 14 34 4
3 35 34 14
3 35 5 34
3 35 23 5
3 36 23 35
3 36 2 23
3 16 139 141
3 141 140 6
3 139 140 141
3 37 142 144
3 144 143 16
3 142 143 144
3 37 145 146
3 37 147 148
3 38 149 151
3 151 150 37
3 149 150 151
3 38 152 154
3 152 3 153
3 152 153 154
3 38 39 3
3 40 39 38
3 40 8 39
3 18 40 7
3 41 40 18
3 41 8 40
3 41 155 157
3 157 156 8
3 155 156 157
3 159 158 41
3 21 160 161
3 163 162 21
3 31 22 1
3 164 22 165
3 166 165 31
3 164 165 166
3 167 9 168
3 169 168 22
3 167 168 169
3 170 9 171
3 173 172 9
3 33 174 175
3 42 176 178
3 178 177 33
3 176 177 178
3 42 179 180
3 24 42 5
3 43 42 24
3 43 181 183
3 183 182 42
3 181 182 183
3 43 184 185
3 187 186 43
3 44 188 189
3 44 190 192
3 190 6 191
3 190 191 192
3 26 44 10
3 45 44 26
3 45 6 44
3 45 15 6
3 46 15 45
3 46 0 15
3 193 36 194
3 195 36 196
3 197 2 198
3 199 198 36
3 197 198 199
3 200 2 201
3 202 27 203
3 204 203 2
3 202 203 204
3 205 27 206
3 207 11 208
3 209 208 27
3 207 208 209
3 210 11 211
3 212 46 213
3 214 213 11
3 212 213 214
3 215 46 216
3 217 0 218
3 219 218 46
3 217 218 219
3 220 0 221
3 222 19 223
3 224 223 0
3 222 223 224
3 225 19 226
3 228 227 19
3 229 20 230
3 47 231 233
3 231 20 232
3 231 232 233
3 47 1 20
3 39 28 3
3 48 28 39
3 48 12 28
3 29 48 8
3 49 48 29
3 49 12 48
3 49 47 12
3 50 47 49
3 50 1 47
3 50 30 1
3 51 30 50
3 51 234 236
3 236 235 30
3 234 235 236
3 237 51 238
3 239 238 13
3 237 238 239
3 240 51 241
3 243 242 51
