ply
format ascii 1.0
element vertex 540
property float x
property float y
property float z
element face 590
property list uchar int vertex_index
end_header
-1.929541 45.242123 45.438396
-23.578011 39.386906 22.603563
-26.061005 29.149607 26.539948
-9.640119 38.556789 43.594139
-14.665742 43.935627 36.078884
5.768942 52.786938 46.534042
-3.694092 32.370285 50.033188
4.077915 38.456913 52.145973
-21.216518 49.666595 17.918818
-20.608797 36.295681 31.915516
-18.378927 47.556782 27.370935
-16.412539 58.567551 21.310192
-5.926403 41.623585 44.707417
-8.669576 44.878292 41.224606
-4.920356 48.371723 42.02282
-1.168199 51.781273 42.624737
2.918591 55.88118 43.009815
1.899612 48.904453 45.998989
-7.407825 29.216814 48.941814
-4.299783 26.105581 52.034351
-0.634149 28.781446 53.23756
-22.366194 44.364166 20.420612
-21.513599 30.79443 33.737633
-18.643772 34.369404 36.273705
-13.578707 49.660172 33.608532
-16.728571 45.936859 31.820663
-15.570231 51.660728 29.143379
-17.230291 53.083824 24.679205
-14.596293 57.398819 25.856632
-24.885511 34.216049 24.657089
-13.242057 35.355911 42.051838
-15.640004 37.768421 38.424778
-12.3351 41.262295 40.054142
-11.300931 47.370781 37.59655
-10.45032 32.454414 45.575375
-6.765344 35.325352 46.970512
-2.851631 38.578918 47.936779
1.014585 41.88649 48.752083
0.105205 35.04467 51.168327
-20.399378 54.953178 14.927234
-24.147127 27.387575 31.218624
-23.248837 32.653839 29.39975
-22.0868 38.164299 27.425068
-17.792118 40.157444 34.162186
-19.465733 42.030052 29.861626
-20.934267 43.386276 25.314398
-19.818083 48.673485 22.842939
-18.840611 54.17387 19.834064
4.940448 45.613216 49.486328
-3.884628 43.420078 45.125164
-5.308304 44.920055 43.523788
-3.531424 46.817989 43.703037
-3.063158 50.137714 42.29425
-1.55773 48.465431 44.094528
0.408483 50.525097 44.266365
0.069624 47.078587 45.763798
-22.976398 41.791706 21.58036
-13.049191 52.861027 31.938391
-14.550749 50.805798 31.443377
-14.070861 53.823551 29.748749
-14.986986 54.509731 27.702885
-27.462757 27.58983 25.071375
-25.493702 31.679733 25.616064
-11.499596 36.89056 42.89019
-12.777934 38.331814 41.110794
-11.075046 39.948502 41.81665
-8.254289 47.978268 39.866787
-9.906941 46.265175 39.488983
-9.611558 49.368752 37.948372
-10.787144 50.555126 36.119289
4.343906 54.36002 44.769352
4.871537 57.918465 43.145168
6.258606 56.148132 45.068153
-12.175183 30.876917 44.806248
-10.705033 29.38188 46.531406
-5.591647 30.604479 49.582253
-7.113036 32.193527 48.012016
-5.267342 33.714653 48.560066
-4.742188 36.960464 47.522144
-3.252731 35.471275 49.033482
-1.215314 37.012188 49.571491
-1.73673 33.693947 50.643253
1.314111 30.010387 53.920979
-22.479349 47.383091 16.677761
-23.166224 47.745907 14.193177
-21.971304 49.911903 15.431138
-21.552689 52.537239 13.972322
-20.823156 52.28371 16.349052
-23.573658 23.801998 33.998005
-24.603308 24.830154 31.880199
-23.206198 26.423315 33.309799
-21.077406 33.479263 32.899811
-22.379307 31.830736 31.609312
-21.909054 34.592663 30.632204
-22.663532 35.37912 28.503769
-21.325523 37.388939 29.722715
-15.116285 40.78178 37.411957
-16.709974 39.114819 36.354881
-16.211285 41.833809 35.400024
-17.55962 46.880398 29.616255
-18.114237 44.042576 30.875494
-18.883419 44.91795 28.652472
-20.226538 42.811153 27.563253
-19.693636 45.489162 26.324953
-20.399063 46.112186 23.952032
-19.11972 48.123642 25.144903
-16.757318 55.8965 23.061951
-18.030899 53.671181 22.307909
-17.66353 56.379192 20.589684
-18.50535 56.911953 18.061516
2.627248 40.169594 50.500893
2.941888 43.63324 49.139252
4.38482 41.945068 50.807617
-26.466944 26.876129 27.446764
-7.77784 40.296764 44.114891
-9.141292 41.725643 42.467167
-7.235183 43.360115 43.019768
-6.840066 46.412754 41.747162
0.853056 53.884022 42.776367
2.458714 52.443241 44.565216
3.915337 50.599277 46.433369
-5.93175 27.601414 50.478905
-3.982207 29.115671 51.122269
-2.128729 30.453552 51.705112
-2.478567 27.385332 52.672256
-0.779496 25.847166 54.256134
-21.71291 47.148453 19.208242
-21.844641 28.222618 34.565258
-20.140375 32.455135 35.044941
-19.656942 35.458336 34.103889
-14.12292 46.784561 34.905136
-15.800562 44.771656 34.057034
-15.263539 47.710091 32.746677
-16.130737 48.880867 30.503874
-17.019032 49.625351 28.283195
-17.817059 50.229504 26.09672
-16.449862 52.443848 26.863903
-15.933756 55.179516 25.393349
-15.41745 58.204418 23.641695
-14.917303 33.47612 41.239449
-16.031225 34.861897 39.404922
-14.454158 36.496365 40.355389
-13.96101 39.452309 39.403286
-13.563077 42.463844 38.189884
-10.466995 43.006302 40.779888
-11.762097 44.254425 38.967781
-13.025334 45.443451 37.01498
-12.459031 48.532131 35.687256
-11.981493 51.622692 34.139011
-13.523326 32.469231 43.009708
-11.754478 33.914539 43.958572
-10.01752 35.438282 44.686325
-9.00474 30.858402 47.244423
-8.599343 33.74041 46.407124
-8.270103 37.011707 45.258682
-6.29335 38.507889 45.893505
-4.414669 40.261528 46.26112
-2.38323 41.810608 46.7635
-0.471351 43.679413 47.039501
-0.85981 40.252407 48.365814
0.691017 38.509178 50.051971
2.140039 36.722668 51.685184
-0.169845 31.829023 52.31041
1.705021 33.446857 52.777569
-21.229401 55.003696 12.518824
-25.537012 25.908606 29.714712
-25.112934 28.442318 28.835098
-22.797722 29.114998 32.521145
-23.77146 30.043585 30.221676
-24.683611 30.975441 27.822014
-24.031651 33.570709 27.08147
-23.455763 36.102264 26.142515
-22.901264 38.781448 24.920216
-17.16032 36.054554 37.433578
-18.18766 37.250668 35.341316
-19.157974 38.323917 33.135468
-17.236401 43.014862 33.119633
-18.659649 41.19593 32.019234
-19.985907 39.091743 31.103298
-20.738852 40.100838 28.773323
-21.566948 40.62722 26.407824
-22.213827 41.340885 24.084423
-21.616917 43.978474 22.920649
-21.061977 46.632187 21.621941
-20.486423 49.24461 20.443571
-18.544508 50.930195 23.760773
-19.257769 51.530872 21.385586
-20.056347 51.920414 18.862295
-19.578426 54.722042 17.390099
1.41974 45.104652 47.521084
3.377638 47.141907 47.775352
5.380119 49.211979 48.061966
-23.937022 39.620045 21.407246
-24.262842 38.419548 21.913997
-23.277204 40.589306 22.091962
-23.636216 40.822445 20.895645
-23.937022 39.620045 21.407246
-13.284116 54.826049 30.056607
-13.560026 53.342289 30.84357
-12.773281 54.344787 31.151429
-13.815379 55.291277 28.918695
-13.284116 54.826049 30.056607
-26.460669 29.569834 25.403999
-27.161544 28.789946 24.669713
-26.761881 28.369718 25.805661
-25.777354 30.41467 26.078006
-26.177017 30.834897 24.942058
-26.460669 29.569834 25.403999
-8.701167 50.171238 38.228235
-8.932924 48.67351 38.907579
-8.022533 49.475996 39.187443
-9.288139 50.989365 37.233237
-8.701167 50.171238 38.228235
6.732314 53.797073 46.646704
6.977146 55.477671 45.913759
6.013774 54.467535 45.801097
-10.932129 27.901636 46.864099
-11.570818 28.688859 46.079237
-22.745991 25.905333 34.270731
-23.389928 25.112656 33.653902
-22.929721 24.594674 34.614834
-16.83325 58.849474 20.12462
-17.458745 57.755295 19.764365
-17.038035 57.473371 20.949938
-16.225058 60.060399 20.307928
-16.83325 58.849474 20.12462
-26.674063 25.598119 27.914513
-27.16277 26.029413 26.787826
-5.642427 48.999653 41.188288
-6.602282 48.020168 41.050459
-5.880211 47.392239 41.884991
-4.656324 50.002392 41.315875
-5.642427 48.999653 41.188288
-1.828672 52.644469 41.724913
-2.776152 51.822689 41.559669
-2.115679 50.959494 42.459494
-0.926775 53.549387 41.802777
-1.828672 52.644469 41.724913
-0.157571 52.832648 42.700552
0.083852 54.600762 41.878591
-0.926775 53.549387 41.802777
-5.115766 26.853497 51.256628
-6.077051 26.181166 50.877294
-5.261068 25.43325 51.655017
-1.008098 24.382198 54.635006
-1.751739 25.192945 53.903797
-0.053333 24.865953 55.043858
-1.008098 24.382198 54.635006
-22.688009 44.608707 19.21273
-23.005308 43.356077 19.760779
-22.039552 45.75631 19.814427
-22.361368 46.000851 18.606545
-22.688009 44.608707 19.21273
-19.392073 33.41227 35.659323
-19.612268 32.045848 36.038381
-18.863967 33.002983 36.652763
-14.338513 58.929006 24.939622
-14.749092 59.331806 23.832153
-15.006871 57.801619 24.749164
-25.219434 34.609745 23.510043
-25.568814 33.393917 23.925953
-24.533962 35.556039 24.168474
-25.219434 34.609745 23.510043
-11.122598 52.577156 34.403782
-11.384318 51.088909 35.12915
-10.525423 52.043373 35.393921
-11.698635 53.17733 33.34856
-11.122598 52.577156 34.403782
3.084708 57.531628 42.16476
2.100264 56.646042 42.035132
5.019925 59.617554 42.23039
5.78168 58.884352 43.193508
-13.687587 30.883781 43.465255
-14.344472 31.601439 42.560247
-8.206283 30.037608 48.093119
-9.135748 29.446085 47.660443
-8.33729 28.625291 48.509138
2.442463 32.522765 53.604189
1.509566 31.728622 53.349274
2.247008 30.80453 54.175894
2.680944 34.184045 53.074883
2.442463 32.522765 53.604189
-23.508874 47.880902 12.987281
-22.90643 49.02295 13.586644
-20.293171 56.152397 14.080431
-20.708182 56.177656 12.876227
-20.814389 54.978437 13.723029
-18.892896 57.160946 16.835253
-18.297446 58.337057 17.218738
-4.472709 24.67394 52.415433
-5.261068 25.43325 51.655017
-3.511882 25.322152 52.792906
-4.472709 24.67394 52.415433
-23.310409 42.069847 20.340653
-23.636216 40.822445 20.895645
-22.671296 43.077936 21.000486
-23.005308 43.356077 19.760779
-23.310409 42.069847 20.340653
-18.121714 33.708031 37.313524
-18.863967 33.002983 36.652763
-14.273441 55.634367 27.895763
-14.528924 54.166641 28.725817
-13.815379 55.291277 28.918695
-14.078094 57.078911 26.972636
-14.791639 55.954275 26.779758
-14.273441 55.634367 27.895763
-13.86099 58.519109 26.081041
-14.078094 57.078911 26.972636
-27.864472 27.986441 23.962389
-28.133288 26.782469 24.451844
-27.864472 27.986441 23.962389
-27.161544 28.789946 24.669713
-25.872909 32.125759 24.405441
-26.177017 30.834897 24.942058
-25.189607 32.947891 25.136577
-25.568814 33.393917 23.925953
-25.872909 32.125759 24.405441
-9.875932 51.582552 36.318695
-10.199351 49.961939 37.033831
-9.288139 50.989365 37.233237
-10.525423 52.043373 35.393921
-9.875932 51.582552 36.318695
6.475214 57.999185 44.155
5.78168 58.884352 43.193508
5.565072 57.033299 44.106661
7.155577 57.261077 45.047331
6.475214 57.999185 44.155
7.155577 57.261077 45.047331
6.977146 55.477671 45.913759
-12.305893 29.436377 45.216658
-13.013515 30.087623 44.363525
-11.440108 30.129399 45.668827
-12.305893 29.436377 45.216658
-11.570818 28.688859 46.079237
1.154888 28.536349 54.39461
0.339981 29.395916 53.57927
0.180758 27.921878 54.0529
2.122469 29.11912 54.760509
1.154888 28.536349 54.39461
2.247008 30.80453 54.175894
2.122469 29.11912 54.760509
-22.822786 47.564499 15.435469
-23.413221 46.505703 14.887925
-23.069784 46.324295 16.130216
-22.308971 50.105947 14.205624
-22.90643 49.02295 13.586644
-22.568764 48.828905 14.812158
-21.761997 51.224571 14.70173
-22.099663 51.418616 13.476216
-22.308971 50.105947 14.205624
-24.088483 24.316076 32.939102
-24.720619 23.535296 32.328547
-24.205794 23.021218 33.38745
-17.879655 58.021675 18.500281
-18.08444 56.645573 19.3256
-17.458745 57.755295 19.764365
-18.297446 58.337057 17.218738
-17.879655 58.021675 18.500281
-27.660676 26.386263 25.600131
-28.133288 26.782469 24.451844
-26.964851 27.232979 26.25907
-27.660676 26.386263 25.600131
-27.16277 26.029413 26.787826
-7.309394 48.802926 40.110271
-7.547178 47.195511 40.806975
-6.602282 48.020168 41.050459
-8.022533 49.475996 39.187443
-7.309394 48.802926 40.110271
-3.727725 50.885387 41.451589
-4.656324 50.002392 41.315875
-3.991757 49.254719 42.158535
-3.727725 50.885387 41.451589
-2.776152 51.822689 41.559669
1.067497 55.647463 41.918408
0.083852 54.600762 41.878591
1.885824 54.882601 42.893091
2.100264 56.646042 42.035132
1.067497 55.647463 41.918408
-7.588408 27.771109 49.328024
-8.33729 28.625291 48.509138
-6.850371 26.963408 50.096569
-6.077051 26.181166 50.877294
-6.669787 28.409114 49.710359
-7.588408 27.771109 49.328024
-6.850371 26.963408 50.096569
-2.601274 25.962027 53.111858
-3.389175 26.745456 52.353303
-3.511882 25.322152 52.792906
-1.629031 26.616249 53.464195
-2.601274 25.962027 53.111858
-1.751739 25.192945 53.903797
0.108085 26.454739 54.562187
0.180758 27.921878 54.0529
-0.706822 27.314306 53.746847
0.108085 26.454739 54.562187
-0.053333 24.865953 55.043858
-22.744587 46.11817 17.341304
-23.069784 46.324295 16.130216
-22.096129 47.265772 17.943002
-22.744587 46.11817 17.341304
-22.361368 46.000851 18.606545
-21.371485 27.624375 35.558712
-22.065213 26.804984 34.89846
-21.166118 29.01233 35.220888
-21.371485 27.624375 35.558712
-21.000597 30.298236 34.807075
-21.67912 29.508524 34.151446
-21.166118 29.01233 35.220888
-20.313985 31.128588 35.460729
-19.612268 32.045848 36.038381
-20.826987 31.624782 34.391287
-21.000597 30.298236 34.807075
-20.313985 31.128588 35.460729
-15.255219 59.612699 22.658044
-15.752763 59.794266 21.492292
-15.914994 58.385984 22.475943
-15.255219 59.612699 22.658044
-14.749092 59.331806 23.832153
-14.338513 58.929006 24.939622
-13.86099 58.519109 26.081041
4.964075 39.240025 52.370908
4.786333 37.462721 53.019369
-23.880212 38.141468 23.141711
-24.262842 38.419548 21.913997
-15.474264 34.169009 40.322186
-16.272358 33.39086 39.78828
-15.715397 32.697972 40.705544
-12.232484 53.796498 32.24825
-12.515342 52.24186 33.038701
-11.698635 53.17733 33.34856
-12.773281 54.344787 31.151429
-12.232484 53.796498 32.24825
4.061181 58.55027 42.232437
3.084708 57.531628 42.16476
3.895064 56.899822 43.077492
4.061181 58.55027 42.232437
5.019925 59.617554 42.23039
-23.65268 22.542335 34.416334
-24.205794 23.021218 33.38745
-22.969231 23.292876 35.10343
-23.65268 22.542335 34.416334
-22.929721 24.594674 34.614834
-22.969231 23.292876 35.10343
-15.04146 32.104883 41.675117
-15.715397 32.697972 40.705544
-14.220315 32.972676 42.124578
-15.04146 32.104883 41.675117
-14.344472 31.601439 42.560247
-12.849255 31.673074 43.907978
-13.687587 30.883781 43.465255
-13.013515 30.087623 44.363525
-9.985894 28.707824 47.303934
-10.932129 27.901636 46.864099
-9.854886 30.120141 46.887914
-9.985894 28.707824 47.303934
-9.135748 29.446085 47.660443
2.898453 35.821951 52.52869
1.92253 35.084762 52.231376
2.680944 34.184045 53.074883
3.867392 36.689073 52.759085
3.108977 37.58979 51.915578
2.898453 35.821951 52.52869
4.786333 37.462721 53.019369
3.867392 36.689073 52.759085
-23.765427 46.68376 13.605832
-23.413221 46.505703 14.887925
-23.765427 46.68376 13.605832
-23.508874 47.880902 12.987281
-21.919306 52.62191 12.795604
-22.099663 51.418616 13.476216
-21.757662 53.855138 12.068855
-21.919306 52.62191 12.795604
-21.391045 53.770467 13.245573
-21.637334 55.040065 11.29313
-21.757662 53.855138 12.068855
-21.099977 56.300741 11.675826
-21.50791 56.33711 10.450132
-21.637334 55.040065 11.29313
-21.099977 56.300741 11.675826
-20.708182 56.177656 12.876227
-25.262949 24.051544 31.222195
-24.720619 23.535296 32.328547
-25.729801 24.59077 30.139451
-25.262949 24.051544 31.222195
-25.07016 25.36938 30.797455
-26.209097 25.114358 29.048486
-25.729801 24.59077 30.139451
-26.001978 26.392367 28.580738
-26.674063 25.598119 27.914513
-26.209097 25.114358 29.048486
-22.525419 27.322966 33.937528
-22.745991 25.905333 34.270731
-22.065213 26.804984 34.89846
-23.819088 36.499147 24.911187
-24.533962 35.556039 24.168474
-24.170637 35.159156 25.399802
-23.541839 37.838739 24.300038
-23.819088 36.499147 24.911187
-23.178514 37.441856 25.531365
-23.239638 39.084177 23.76189
-23.880212 38.141468 23.141711
-23.541839 37.838739 24.300038
-16.815441 33.954278 38.879133
-16.272358 33.39086 39.78828
-17.379988 34.550606 37.893461
-16.815441 33.954278 38.879133
-16.595772 35.458225 38.41925
-17.902046 35.211979 36.853641
-18.121714 33.708031 37.313524
-17.379988 34.550606 37.893461
-19.429434 56.06599 16.499544
-19.041888 55.816997 17.725808
-18.892896 57.160946 16.835253
-19.839909 56.181559 15.268112
-19.988902 54.83761 16.158666
-19.429434 56.06599 16.499544
-20.293171 56.152397 14.080431
-19.839909 56.181559 15.268112
-16.225058 60.060399 20.307928
-15.752763 59.794266 21.492292
5.117528 40.984102 51.70173
4.231368 40.200991 51.476795
4.964075 39.240025 52.370908
5.325539 42.722071 51.061906
5.117528 40.984102 51.70173
5.603353 44.556145 50.401262
4.662634 43.779142 50.146973
5.325539 42.722071 51.061906
5.87511 46.424875 49.714754
5.603353 44.556145 50.401262
6.094945 48.224256 49.002573
5.160284 47.412598 48.774147
5.87511 46.424875 49.714754
6.302553 50.144098 48.213386
6.094945 48.224256 49.002573
6.496964 51.931578 47.449424
5.57453 50.999459 47.298004
6.302553 50.144098 48.213386
6.732314 53.797073 46.646704
6.496964 51.931578 47.449424
3 0 51 49
3 0 53 51
3 0 55 53
3 1 192 193
3 1 194 196
3 194 56 195
3 194 195 196
3 197 59 198
3 199 198 57
3 197 198 199
3 201 200 59
3 2 202 204
3 204 203 61
3 202 203 204
3 2 205 207
3 205 62 206
3 205 206 207
3 3 65 63
3 208 68 209
3 210 209 66
3 208 209 210
3 212 211 68
3 5 72 70
3 5 213 215
3 215 214 72
3 213 214 215
3 216 74 217
3 6 77 75
3 6 79 77
3 6 81 79
3 8 85 83
3 8 87 85
3 218 90 219
3 220 219 88
3 218 219 220
3 9 93 91
3 9 95 93
3 4 98 96
3 10 101 99
3 10 103 101
3 10 105 103
3 11 108 106
3 11 221 223
3 223 222 108
3 221 222 223
3 11 224 225
3 7 112 110
3 226 113 227
3 12 116 114
3 14 117 50
3 14 228 230
3 230 229 117
3 228 229 230
3 14 231 232
3 15 233 235
3 235 234 52
3 233 234 235
3 15 236 237
3 15 238 240
3 238 118 239
3 238 239 240
3 17 119 54
3 17 120 119
3 19 241 243
3 241 121 242
3 241 242 243
3 19 122 121
3 19 124 122
3 244 125 245
3 247 246 125
3 21 248 249
3 21 250 252
3 250 126 251
3 250 251 252
3 23 253 255
3 253 128 254
3 253 254 255
3 23 129 128
3 24 132 130
3 26 133 58
3 26 134 133
3 26 136 134
3 28 137 60
3 28 138 137
3 28 256 258
3 258 257 138
3 256 257 258
3 29 259 260
3 29 261 262
3 30 141 139
3 32 142 64
3 32 143 142
3 13 144 115
3 33 145 67
3 33 146 145
3 33 147 146
3 263 148 264
3 265 264 69
3 263 264 265
3 267 266 148
3 16 268 269
3 271 270 71
3 272 149 273
3 34 150 73
3 34 151 150
3 18 274 276
3 274 152 275
3 274 275 276
3 35 153 76
3 35 154 153
3 35 155 154
3 36 156 78
3 36 157 156
3 36 159 157
3 38 160 80
3 38 161 160
3 20 162 123
3 277 163 278
3 279 278 82
3 277 278 279
3 281 280 163
3 283 282 84
3 39 164 86
3 39 284 286
3 286 285 164
3 284 285 286
3 40 165 89
3 40 166 165
3 22 167 127
3 41 168 92
3 41 169 168
3 41 170 169
3 42 171 94
3 42 172 171
3 31 173 140
3 43 174 97
3 43 175 174
3 25 176 131
3 44 177 100
3 44 178 177
3 44 179 178
3 45 180 102
3 45 181 180
3 45 182 181
3 46 183 104
3 46 184 183
3 27 185 135
3 47 186 107
3 47 187 186
3 47 188 187
3 288 287 109
3 37 189 158
3 48 190 111
3 48 191 190
3 49 50 12
3 51 50 49
3 51 14 50
3 51 52 14
3 53 52 51
3 53 15 52
3 53 54 15
3 55 54 53
3 55 17 54
3 289 19 290
3 292 291 19
3 56 293 294
3 56 295 297
3 295 21 296
3 295 296 297
3 298 23 299
3 57 58 24
3 59 58 57
3 59 26 58
3 59 60 26
3 300 60 301
3 302 301 59
3 300 301 302
3 303 28 304
3 305 304 60
3 303 304 305
3 307 306 28
3 61 308 309
3 311 310 61
3 62 312 313
3 62 314 316
3 314 29 315
3 314 315 316
3 63 64 30
3 65 64 63
3 65 32 64
3 66 67 13
3 68 67 66
3 68 33 67
3 68 69 33
3 317 69 318
3 319 318 68
3 317 318 319
3 321 320 69
3 70 71 16
3 72 71 70
3 72 322 324
3 324 323 71
3 322 323 324
3 72 325 326
3 328 327 72
3 329 73 330
3 74 331 333
3 331 73 332
3 331 332 333
3 74 34 73
3 75 76 18
3 77 76 75
3 77 35 76
3 77 78 35
3 79 78 77
3 79 36 78
3 79 80 36
3 81 80 79
3 81 38 80
3 334 82 335
3 336 335 20
3 334 335 336
3 337 82 338
3 340 339 82
3 83 341 343
3 341 84 342
3 341 342 343
3 85 84 83
3 85 344 346
3 346 345 84
3 344 345 346
3 85 347 349
3 347 86 348
3 347 348 349
3 87 86 85
3 87 39 86
3 88 350 352
3 350 89 351
3 350 351 352
3 90 89 88
3 90 40 89
3 91 92 22
3 93 92 91
3 93 41 92
3 93 94 41
3 95 94 93
3 95 42 94
3 96 97 31
3 98 97 96
3 98 43 97
3 99 100 25
3 101 100 99
3 101 44 100
3 101 102 44
3 103 102 101
3 103 45 102
3 103 104 45
3 105 104 103
3 105 46 104
3 106 107 27
3 108 107 106
3 108 47 107
3 108 109 47
3 353 109 354
3 355 354 108
3 353 354 355
3 357 356 109
3 110 111 37
3 112 111 110
3 112 48 111
3 358 61 359
3 113 360 362
3 360 61 361
3 360 361 362
3 113 2 61
3 114 115 3
3 116 115 114
3 116 13 115
3 50 116 12
3 117 116 50
3 117 13 116
3 117 66 13
3 363 66 364
3 365 364 117
3 363 364 365
3 367 366 66
3 52 368 370
3 370 369 14
3 368 369 370
3 372 371 52
3 118 373 374
3 118 375 377
3 375 16 376
3 375 376 377
3 54 118 15
3 119 118 54
3 119 16 118
3 119 70 16
3 120 70 119
3 120 5 70
3 378 18 379
3 121 380 381
3 121 382 384
3 382 18 383
3 382 383 384
3 121 75 18
3 122 75 121
3 122 6 75
3 122 123 6
3 124 123 122
3 124 20 123
3 385 124 386
3 387 386 19
3 385 386 387
3 125 388 390
3 388 124 389
3 388 389 390
3 125 20 124
3 125 391 393
3 393 392 20
3 391 392 393
3 395 394 125
3 396 83 397
3 126 398 400
3 398 83 399
3 398 399 400
3 126 8 83
3 401 127 402
3 403 127 404
3 405 22 406
3 407 406 127
3 405 406 407
3 128 408 409
3 128 410 412
3 410 22 411
3 410 411 412
3 128 91 22
3 129 91 128
3 129 9 91
3 130 131 4
3 132 131 130
3 132 25 131
3 58 132 24
3 133 132 58
3 133 25 132
3 133 99 25
3 134 99 133
3 134 10 99
3 134 135 10
3 136 135 134
3 136 27 135
3 60 136 26
3 137 136 60
3 137 27 136
3 137 106 27
3 138 106 137
3 138 11 106
3 138 413 415
3 415 414 11
3 413 414 415
3 417 416 138
3 419 418 28
3 421 420 7
3 422 1 423
3 139 424 426
3 424 140 425
3 424 425 426
3 141 140 139
3 141 31 140
3 64 141 30
3 142 141 64
3 142 31 141
3 142 96 31
3 143 96 142
3 143 4 96
3 115 65 3
3 144 65 115
3 144 32 65
3 67 144 13
3 145 144 67
3 145 32 144
3 145 143 32
3 146 143 145
3 146 4 143
3 146 130 4
3 147 130 146
3 147 24 130
3 69 147 33
3 148 147 69
3 148 24 147
3 148 57 24
3 427 57 428
3 429 428 148
3 427 428 429
3 431 430 57
3 71 432 434
3 434 433 16
3 432 433 434
3 436 435 71
3 437 88 438
3 439 88 440
3 442 441 88
3 443 139 444
3 149 445 447
3 445 139 446
3 445 446 447
3 149 30 139
3 73 448 450
3 448 149 449
3 448 449 450
3 150 149 73
3 150 30 149
3 150 63 30
3 151 63 150
3 151 3 63
3 451 74 452
3 152 453 455
3 453 74 454
3 453 454 455
3 152 34 74
3 76 152 18
3 153 152 76
3 153 34 152
3 153 151 34
3 154 151 153
3 154 3 151
3 154 114 3
3 155 114 154
3 155 12 114
3 78 155 35
3 156 155 78
3 156 12 155
3 156 49 12
3 157 49 156
3 157 0 49
3 157 158 0
3 159 158 157
3 159 37 158
3 80 159 36
3 160 159 80
3 160 37 159
3 160 110 37
3 161 110 160
3 161 7 110
3 123 81 6
3 162 81 123
3 162 38 81
3 82 162 20
3 163 162 82
3 163 38 162
3 163 161 38
3 456 161 457
3 458 457 163
3 456 457 458
3 459 7 460
3 461 460 161
3 459 460 461
3 463 462 7
3 84 464 465
3 467 466 84
3 86 468 469
3 164 470 472
3 472 471 86
3 470 471 472
3 164 473 474
3 164 475 477
3 475 476 477
3 479 478 164
3 89 480 481
3 165 482 484
3 484 483 89
3 482 483 484
3 165 485 486
3 165 487 489
3 487 113 488
3 487 488 489
3 166 113 165
3 166 2 113
3 127 490 492
3 490 90 491
3 490 491 492
3 167 90 127
3 167 40 90
3 92 167 22
3 168 167 92
3 168 40 167
3 168 166 40
3 169 166 168
3 169 2 166
3 169 62 2
3 170 62 169
3 170 29 62
3 94 170 41
3 171 170 94
3 171 29 170
3 171 493 495
3 495 494 29
3 493 494 495
3 172 496 498
3 498 497 171
3 496 497 498
3 172 499 501
3 499 1 500
3 499 500 501
3 140 502 503
3 173 504 506
3 506 505 140
3 504 505 506
3 173 507 509
3 507 23 508
3 507 508 509
3 97 173 31
3 174 173 97
3 174 23 173
3 174 129 23
3 175 129 174
3 175 9 129
3 131 98 4
3 176 98 131
3 176 43 98
3 100 176 25
3 177 176 100
3 177 43 176
3 177 175 43
3 178 175 177
3 178 9 175
3 178 95 9
3 179 95 178
3 179 42 95
3 102 179 44
3 180 179 102
3 180 42 179
3 180 172 42
3 181 172 180
3 181 1 172
3 181 56 1
3 182 56 181
3 182 21 56
3 104 182 45
3 183 182 104
3 183 21 182
3 183 126 21
3 184 126 183
3 184 8 126
3 135 105 10
3 185 105 135
3 185 46 105
3 107 185 27
3 186 185 107
3 186 46 185
3 186 184 46
3 187 184 186
3 187 8 184
3 187 87 8
3 188 87 187
3 188 39 87
3 109 188 47
3 510 188 511
3 512 511 109
3 510 511 512
3 513 39 514
3 515 514 188
3 513 514 515
3 517 516 39
3 519 518 11
3 158 55 0
3 189 55 158
3 189 17 55
3 111 189 37
3 190 189 111
3 190 17 189
3 190 120 17
3 191 120 190
3 191 5 120
3 520 112 521
3 522 521 7
3 520 521 522
3 523 112 524
3 525 48 526
3 527 526 112
3 525 526 527
3 528 48 529
3 530 191 531
3 532 531 48
3 530 531 532
3 533 191 534
3 535 5 536
3 537 536 191
3 535 536 537
3 539 538 5
