ply
format ascii 1.0
element vertex 438
property float x
property float y
property float z
element face 370
property list uchar int vertex_index
end_header
-34.725315 -7.571092 23.840374
-35.602772 -20.777082 16.563877
-25.853567 -39.158489 -15.450316
-22.248323 -39.569366 -21.122183
-20.285074 -41.054153 -23.573526
-21.331852 -36.277668 -23.335026
-35.50106 0.74876 23.321304
-27.139229 -40.754791 -11.920429
-18.348915 -42.286186 -26.201212
-36.339832 -6.114251 19.843159
-35.37492 -14.186156 20.383707
-34.325211 -21.748318 20.748053
-34.236252 -28.302549 17.057055
-33.542397 -34.348831 13.058416
-32.103783 -40.247459 9.113073
-31.976341 -39.533031 4.897191
-31.59189 -38.552734 0.196476
-24.474083 -37.103031 -18.702137
-22.763803 -37.246151 -21.136366
-21.791363 -37.93544 -22.261726
-33.141235 -25.980898 22.893354
-19.675491 -39.015839 -24.841257
-19.280407 -41.564472 -24.932091
-18.594637 -39.504807 -26.196165
-34.299377 -11.689994 24.005854
-36.163795 -17.076633 16.495277
-36.095798 -13.570411 18.345694
-35.520538 -17.522486 18.630461
-34.856617 -18.194395 20.51557
-35.003426 -21.184126 18.679302
-34.383114 -25.014132 18.85804
-34.924133 -24.47003 16.92919
-34.319214 -30.903509 12.927932
-33.740959 -33.97316 10.878396
-32.903915 -37.33844 11.091843
-32.976528 -36.975956 8.874529
-32.097927 -39.793953 7.000101
-32.983574 -36.608402 6.775462
-25.19582 -41.88834 -15.2371
-24.591988 -40.839539 -16.872663
-23.989252 -39.659531 -18.41157
-25.21361 -38.065289 -17.103437
-21.246975 -40.327633 -22.359158
-20.759981 -38.443581 -23.519991
-20.251902 -36.640984 -24.613415
-35.174362 -3.455963 23.494326
-36.097767 -20.507984 14.453678
-35.405663 -24.292044 14.653295
-26.560301 -39.911167 -13.680256
-19.9217 -43.686409 -23.608946
-36.341282 1.222127 21.183586
-35.985363 -2.566291 21.548225
-35.533501 -6.735352 21.929586
-35.83765 -10.104767 20.270731
-35.051994 -11.009907 22.204809
-34.598415 -14.952834 22.358053
-34.155319 -18.428497 22.522778
-33.62463 -22.282011 22.766977
-33.797836 -25.277775 20.918295
-33.741425 -28.533949 19.220119
-33.581722 -31.609491 17.370806
-34.716797 -27.750952 14.890108
-33.979107 -31.31171 15.137114
-33.265751 -34.721581 15.271471
-32.764774 -37.678776 13.28133
-31.056915 -42.722347 5.16644
-30.931459 -42.103222 2.890738
-31.822947 -39.077507 2.585059
-30.667322 -41.731903 0.648234
-30.379299 -41.177322 -1.630559
-29.996037 -40.676765 -3.879376
-29.627003 -39.930859 -6.029637
-29.112274 -39.308964 -8.171144
-28.590982 -38.465965 -10.208059
-28.015779 -37.714199 -12.046179
-27.232885 -37.052235 -14.035019
-23.792509 -36.152569 -20.075718
-23.351236 -38.407879 -19.887129
-22.552661 -36.569399 -21.636398
-22.97374 -36.392685 -21.134922
-33.042614 -24.456569 23.753158
-32.822322 -26.131335 23.905708
-32.723702 -24.607007 24.765512
-18.809557 -38.250282 -26.13248
-19.135064 -39.260323 -25.518711
-19.349984 -38.005798 -25.455025
-18.223069 -38.390608 -26.833004
-18.809557 -38.250282 -26.13248
-34.308628 -8.011918 24.786788
-34.518175 -5.932894 24.663191
-34.512346 -9.630543 23.923114
-34.095659 -10.071369 24.869528
-34.308628 -8.011918 24.786788
-33.803785 -33.774374 9.770689
-34.144008 -32.289462 10.817301
-33.42157 -35.275772 8.768755
-33.358744 -35.474558 9.876463
-33.803785 -33.774374 9.770689
-33.425092 -35.091995 7.719221
-32.980051 -36.792179 7.824995
-33.42157 -35.275772 8.768755
-21.747649 -39.948499 -21.740671
-21.518161 -41.125763 -21.724824
-22.018835 -40.746629 -21.106336
-35.117186 0.30186 24.220143
-35.297661 2.446737 24.054144
-35.337711 -1.353602 23.407815
-34.953837 -1.800501 24.306654
-35.117186 0.30186 24.220143
-36.35017 -20.033328 13.452257
-36.40826 -18.531075 14.436833
-35.973715 -22.062432 13.53576
-36.35017 -20.033328 13.452257
-26.488677 -41.801592 -12.653261
-26.756996 -42.324714 -11.706295
-26.849765 -40.332979 -12.800342
-26.199213 -41.379779 -13.533174
-26.488677 -41.801592 -12.653261
-20.103387 -42.370281 -23.591236
-20.374383 -43.386816 -22.951032
-20.55607 -42.070688 -22.933322
-18.709319 -43.260099 -25.550768
-19.175065 -42.899242 -24.916207
-18.814661 -41.925329 -25.566651
-18.270943 -43.63558 -26.231436
-18.709319 -43.260099 -25.550768
-17.85539 -42.457092 -26.910274
-18.270943 -43.63558 -26.231436
-36.744942 1.678665 20.100465
-36.518394 3.46032 20.953595
-36.162598 -4.340271 20.695692
-36.392864 -2.250889 20.470316
-36.570099 -4.024869 19.617784
-34.895063 -27.596967 13.816701
-35.06123 -26.021498 14.771701
-35.239497 -25.867513 13.698294
-32.083759 -40.459086 10.235693
-32.483825 -39.004576 11.225078
-32.503849 -38.792949 10.102458
-31.700758 -41.771782 9.285734
-32.083759 -40.459086 10.235693
-31.660137 -41.604971 8.194926
-31.700758 -41.771782 9.285734
-31.707418 -38.81512 1.390768
-32.274581 -37.491672 2.364574
-32.159053 -37.229286 1.170283
-30.485976 -39.072371 -3.985436
-30.65126 -39.344406 -2.95771
-30.301459 -38.699417 -5.060567
-29.81152 -40.303812 -4.954506
-30.485976 -39.072371 -3.985436
-29.583818 -37.680855 -8.297213
-29.817197 -38.057436 -7.272832
-29.323172 -37.259355 -9.31567
-28.851628 -38.887465 -9.189602
-29.583818 -37.680855 -8.297213
-28.351365 -36.279305 -12.263442
-28.75134 -36.514385 -11.230809
-27.959918 -35.948323 -13.257862
-27.624332 -37.383217 -13.040599
-28.351365 -36.279305 -12.263442
-22.06644 -36.914043 -22.199078
-22.277583 -37.590795 -21.699046
-22.552661 -36.569399 -21.636398
-21.836685 -36.085157 -22.735727
-21.561608 -37.106554 -22.798376
-22.06644 -36.914043 -22.199078
-32.889452 -27.726615 23.028257
-32.822322 -26.131335 23.905708
-33.176653 -27.463655 22.035182
-32.889452 -27.726615 23.028257
-35.73008 2.844403 22.983059
-35.297661 2.446737 24.054144
-27.41769 -41.237904 -10.90524
-26.756996 -42.324714 -11.706295
-18.089962 -39.708233 -26.845207
-17.967101 -41.098923 -26.847731
-18.471776 -40.895497 -26.198689
-18.089962 -39.708233 -26.845207
-18.223069 -38.390608 -26.833004
-33.899309 -12.045165 24.939101
-34.095659 -10.071369 24.869528
-34.052103 -13.545101 24.185132
-33.899309 -12.045165 24.939101
-36.710788 -5.721646 18.810282
-36.570099 -4.024869 19.617784
-36.129796 -15.323522 17.420486
-36.428488 -13.275524 17.289488
-36.462486 -15.028635 16.36428
-34.433136 -30.754637 11.84207
-34.696272 -29.173246 12.835613
-34.030086 -32.438334 11.903164
-34.433136 -30.754637 11.84207
-34.144008 -32.289462 10.817301
-32.066851 -36.930955 0.036865
-32.159053 -37.229286 1.170283
-31.449186 -38.282391 -0.919784
-32.066851 -36.930955 0.036865
-24.608995 -42.685412 -15.955324
-24.920946 -43.260676 -15.047968
-24.30708 -42.161011 -16.773105
-24.608995 -42.685412 -15.955324
-24.893904 -41.36394 -16.054882
-24.002901 -41.513604 -17.604971
-24.30708 -42.161011 -16.773105
-24.29062 -40.249535 -17.642117
-23.701532 -40.9236 -18.374425
-24.002901 -41.513604 -17.604971
-21.03702 -41.707428 -22.326138
-21.518161 -41.125763 -21.724824
-20.766025 -40.690893 -22.966342
-20.55607 -42.070688 -22.933322
-21.03702 -41.707428 -22.326138
-19.63819 -36.818371 -25.341105
-19.349984 -38.005798 -25.455025
-19.963697 -37.828412 -24.727336
-34.742699 -3.87533 24.490167
-34.522173 -2.219868 25.302495
-34.953837 -1.800501 24.306654
-34.949838 -5.513528 23.66735
-34.518175 -5.932894 24.663191
-34.742699 -3.87533 24.490167
-36.441274 -16.815399 15.457633
-36.462486 -15.028635 16.36428
-36.130781 -18.792309 15.474478
-36.441274 -16.815399 15.457633
-36.40826 -18.531075 14.436833
-35.627663 -23.954462 13.635568
-35.751715 -22.400014 14.553486
-35.973715 -22.062432 13.53576
-35.239497 -25.867513 13.698294
-35.627663 -23.954462 13.635568
-25.516973 -42.368366 -14.311596
-24.920946 -43.260676 -15.047968
-25.878061 -40.899754 -14.458678
-25.516973 -42.368366 -14.311596
-26.199213 -41.379779 -13.533174
-20.216689 -44.71207 -22.928211
-20.374383 -43.386816 -22.951032
-19.824252 -45.023119 -23.575596
-20.216689 -44.71207 -22.928211
-19.495711 -43.960211 -24.254635
-19.601053 -42.62544 -24.270519
-19.175065 -42.899242 -24.916207
-19.824252 -45.023119 -23.575596
-19.495711 -43.960211 -24.254635
-17.85539 -42.457092 -26.910274
-17.967101 -41.098923 -26.847731
-36.150191 3.081087 21.9142
-36.518394 3.46032 20.953595
-35.921171 0.985443 22.252445
-35.73008 2.844403 22.983059
-36.150191 3.081087 21.9142
-36.570824 -0.35668 20.287997
-36.744942 1.678665 20.100465
-36.163322 -0.672082 21.365905
-36.570824 -0.35668 20.287997
-36.392864 -2.250889 20.470316
-36.485012 -7.766011 18.951276
-36.710788 -5.721646 18.810282
-36.362995 -11.494091 18.202544
-36.428488 -13.275524 17.289488
-36.233921 -9.761268 19.165062
-36.362995 -11.494091 18.202544
-35.966724 -11.837589 19.308213
-36.088741 -8.109509 20.056945
-36.485012 -7.766011 18.951276
-36.233921 -9.761268 19.165062
-34.201622 -15.176521 23.361232
-34.052103 -13.545101 24.185132
-34.448896 -13.321414 23.181953
-33.980074 -16.914352 23.443594
-34.201622 -15.176521 23.361232
-34.376867 -16.690666 22.440416
-33.779731 -18.944691 23.426046
-33.980074 -16.914352 23.443594
-33.514387 -20.871448 23.548145
-33.779731 -18.944691 23.426046
-33.889975 -20.355254 22.644877
-33.284312 -22.607126 23.68997
-33.514387 -20.871448 23.548145
-33.382933 -24.131455 22.830165
-33.042614 -24.456569 23.753158
-33.284312 -22.607126 23.68997
-33.504953 -27.112093 21.047653
-33.176653 -27.463655 22.035182
-33.469535 -25.629337 21.905825
-33.476748 -28.74018 20.198565
-33.504953 -27.112093 21.047653
-33.76963 -26.905862 20.069207
-33.435732 -30.313454 19.302295
-33.476748 -28.74018 20.198565
-33.35588 -31.851225 18.377639
-33.435732 -30.313454 19.302295
-33.661574 -30.07172 18.295462
-33.268946 -33.292108 17.380311
-33.35588 -31.851225 18.377639
-34.518006 -29.32723 13.90902
-34.895063 -27.596967 13.816701
-34.696272 -29.173246 12.835613
-33.11096 -34.848152 16.330644
-33.268946 -33.292108 17.380311
-33.423737 -33.165536 16.321138
-32.914414 -36.363843 15.360477
-33.11096 -34.848152 16.330644
-32.663925 -37.84244 14.365406
-32.914414 -36.363843 15.360477
-33.015263 -36.200178 14.276401
-32.376847 -39.328097 13.426289
-32.663925 -37.84244 14.365406
-32.414255 -39.174744 12.319821
-32.834345 -37.508608 12.186587
-32.483825 -39.004576 11.225078
-32.376847 -39.328097 13.426289
-32.414255 -39.174744 12.319821
-31.657208 -41.378218 7.13844
-31.660137 -41.604971 8.194926
-32.100855 -40.020706 8.056587
-31.136702 -42.842415 6.22161
-31.657208 -41.378218 7.13844
-31.577421 -41.25815 6.08327
-30.611075 -44.242403 5.219321
-31.136702 -42.842415 6.22161
-30.536376 -43.953613 4.145253
-30.090536 -45.473669 4.198134
-30.611075 -44.242403 5.219321
-30.473648 -43.644051 3.007402
-30.536376 -43.953613 4.145253
-30.994187 -42.412785 4.028589
-30.298534 -43.562643 1.892147
-30.473648 -43.644051 3.007402
-33.463184 -34.847931 6.701992
-33.425092 -35.091995 7.719221
-32.941067 -36.442043 5.653458
-33.463184 -34.847931 6.701992
-32.437451 -37.904358 4.714322
-32.479957 -38.070717 5.836327
-32.941067 -36.442043 5.653458
-32.360754 -37.676595 3.558257
-32.274581 -37.491672 2.364574
-31.899644 -39.305269 3.741125
-32.437451 -37.904358 4.714322
-32.360754 -37.676595 3.558257
-30.166466 -43.376984 0.770895
-30.298534 -43.562643 1.892147
-30.799391 -41.917563 1.769486
-30.058026 -42.985342 -0.354622
-30.166466 -43.376984 0.770895
-29.914015 -42.708051 -1.494019
-30.058026 -42.985342 -0.354622
-30.523311 -41.454612 -0.491163
-29.751143 -42.40707 -2.584517
-29.914015 -42.708051 -1.494019
-30.84289 -39.594684 -1.833302
-30.985594 -39.865028 -0.717041
-31.449186 -38.282391 -0.919784
-30.187668 -40.927043 -2.754968
-30.84289 -39.594684 -1.833302
-30.65126 -39.344406 -2.95771
-29.559513 -42.156791 -3.708926
-29.751143 -42.40707 -2.584517
-30.187668 -40.927043 -2.754968
-29.357214 -41.898445 -4.747444
-29.559513 -42.156791 -3.708926
-29.172697 -41.525492 -5.822574
-29.357214 -41.898445 -4.747444
-29.81152 -40.303812 -4.954506
-28.929086 -41.189848 -6.923755
-29.172697 -41.525492 -5.822574
-30.074562 -38.368384 -6.202078
-30.301459 -38.699417 -5.060567
-29.369639 -39.619912 -7.10039
-30.074562 -38.368384 -6.202078
-29.817197 -38.057436 -7.272832
-28.671722 -40.878901 -7.994509
-28.929086 -41.189848 -6.923755
-29.369639 -39.619912 -7.10039
-28.404212 -40.51499 -9.030597
-28.671722 -40.878901 -7.994509
-28.143566 -40.093491 -10.049055
-28.404212 -40.51499 -9.030597
-28.851628 -38.887465 -9.189602
-27.865105 -39.610378 -11.064244
-27.41769 -41.237904 -10.90524
-28.143566 -40.093491 -10.049055
-29.038942 -36.890268 -10.311749
-29.323172 -37.259355 -9.31567
-28.30338 -38.090082 -11.127119
-29.038942 -36.890268 -10.311749
-28.75134 -36.514385 -11.230809
-27.572693 -35.606659 -14.210902
-27.959918 -35.948323 -13.257862
-26.882899 -36.616478 -14.908877
-27.572693 -35.606659 -14.210902
-26.19324 -37.669605 -15.616526
-26.543226 -38.105362 -14.742667
-26.882899 -36.616478 -14.908877
-25.873261 -37.123005 -16.443086
-25.533589 -38.611889 -16.276877
-26.19324 -37.669605 -15.616526
-25.489974 -36.747509 -17.260209
-25.873261 -37.123005 -16.443086
-25.12021 -36.26638 -18.059559
-24.843846 -37.58416 -17.902787
-25.489974 -36.747509 -17.260209
-24.723789 -35.889691 -18.826356
-25.12021 -36.26638 -18.059559
-24.383002 -35.414459 -19.513146
-24.133296 -36.6278 -19.388928
-24.723789 -35.889691 -18.826356
-23.925582 -35.228651 -20.231423
-24.383002 -35.414459 -19.513146
-23.488093 -35.845894 -20.604598
-23.925582 -35.228651 -20.231423
-22.534261 -40.212696 -20.471421
-22.018835 -40.746629 -21.106336
-23.404726 -40.257779 -19.116115
-23.701532 -40.9236 -18.374425
-23.085718 -39.631952 -19.853895
-23.404726 -40.257779 -19.116115
-23.670244 -39.033705 -19.149349
-22.799779 -38.988623 -20.504656
-22.534261 -40.212696 -20.471421
-23.085718 -39.631952 -19.853895
-23.488093 -35.845894 -20.604598
-22.97374 -36.392685 -21.134922
-23.278156 -36.69936 -20.606042
-21.721347 -35.225988 -23.144678
-21.836685 -36.085157 -22.735727
-21.145077 -35.371037 -23.811886
-21.721347 -35.225988 -23.144678
-20.605103 -35.552695 -24.45108
-20.791877 -36.459326 -23.974221
-21.145077 -35.371037 -23.811886
-19.987018 -35.638817 -25.169837
-20.605103 -35.552695 -24.45108
-19.63819 -36.818371 -25.341105
-19.987018 -35.638817 -25.169837
3 79 78 18
3 80 20 81
3 80 81 82
3 83 23 84
3 85 84 21
3 83 84 85
3 87 86 23
3 0 88 89
3 0 90 92
3 90 24 91
3 90 91 92
3 1 27 25
3 1 29 27
3 1 31 29
3 93 33 94
3 95 35 96
3 97 96 33
3 95 96 97
3 98 37 99
3 100 99 35
3 98 99 100
3 2 39 38
3 2 41 39
3 3 101 103
3 101 42 102
3 101 102 103
3 5 43 19
3 5 44 43
3 6 104 105
3 6 106 108
3 106 45 107
3 106 107 108
3 109 46 110
3 112 111 46
3 7 113 114
3 7 115 117
3 115 48 116
3 115 116 117
3 4 118 120
3 118 49 119
3 118 119 120
3 8 121 123
3 123 122 22
3 121 122 123
3 8 124 125
3 8 126 127
3 128 50 129
3 9 130 132
3 130 51 131
3 130 131 132
3 9 52 51
3 10 53 26
3 10 54 53
3 10 55 54
3 11 56 28
3 11 57 56
3 11 58 57
3 12 59 30
3 12 60 59
3 133 61 134
3 135 134 47
3 133 134 135
3 13 62 32
3 13 63 62
3 13 64 63
3 14 136 138
3 138 137 34
3 136 137 138
3 14 139 140
3 14 141 142
3 15 65 36
3 15 66 65
3 16 143 145
3 143 67 144
3 143 144 145
3 16 68 67
3 16 69 68
3 146 70 147
3 148 71 149
3 150 149 70
3 148 149 150
3 151 72 152
3 153 73 154
3 155 154 72
3 153 154 155
3 156 74 157
3 158 75 159
3 160 159 74
3 158 159 160
3 17 77 40
3 17 76 77
3 18 19 3
3 161 19 162
3 163 162 18
3 161 162 163
3 164 5 165
3 166 165 19
3 164 165 166
3 20 167 168
3 20 169 170
3 171 6 172
3 173 7 174
3 21 22 4
3 23 22 21
3 23 8 22
3 23 175 177
3 177 176 8
3 175 176 177
3 179 178 23
3 24 180 181
3 24 182 183
3 184 9 185
3 25 186 188
3 186 26 187
3 186 187 188
3 27 26 25
3 27 10 26
3 27 28 10
3 29 28 27
3 29 11 28
3 29 30 11
3 31 30 29
3 31 12 30
3 189 32 190
3 33 191 193
3 191 32 192
3 191 192 193
3 33 13 32
3 33 34 13
3 35 34 33
3 35 14 34
3 35 36 14
3 37 36 35
3 37 15 36
3 194 16 195
3 197 196 16
3 38 198 199
3 39 200 202
3 202 201 38
3 200 201 202
3 39 203 204
3 39 205 207
3 205 40 206
3 205 206 207
3 41 40 39
3 41 17 40
3 42 208 209
3 42 210 212
3 210 4 211
3 210 211 212
3 19 42 3
3 43 42 19
3 43 4 42
3 43 21 4
3 44 21 43
3 44 213 215
3 215 214 21
3 213 214 215
3 45 216 218
3 216 217 218
3 45 219 221
3 219 0 220
3 219 220 221
3 222 25 223
3 46 224 226
3 224 25 225
3 224 225 226
3 46 1 25
3 46 47 1
3 227 47 228
3 229 228 46
3 227 228 229
3 231 230 47
3 232 38 233
3 48 234 236
3 234 38 235
3 234 235 236
3 48 2 38
3 49 237 238
3 49 239 240
3 22 49 4
3 241 49 242
3 243 242 22
3 241 242 243
3 245 244 49
3 247 246 8
3 50 248 249
3 50 250 252
3 250 6 251
3 250 251 252
3 253 50 254
3 51 255 257
3 255 50 256
3 255 256 257
3 51 6 50
3 51 45 6
3 52 45 51
3 52 0 45
3 258 9 259
3 26 260 261
3 53 262 264
3 264 263 26
3 262 263 264
3 53 265 267
3 265 9 266
3 265 266 267
3 53 52 9
3 54 52 53
3 54 0 52
3 54 24 0
3 55 24 54
3 55 268 270
3 270 269 24
3 268 269 270
3 28 55 10
3 56 55 28
3 56 271 273
3 273 272 55
3 271 272 273
3 56 274 275
3 57 276 278
3 278 277 56
3 276 277 278
3 57 279 280
3 57 281 283
3 281 20 282
3 281 282 283
3 58 20 57
3 58 284 286
3 286 285 20
3 284 285 286
3 30 58 11
3 59 58 30
3 59 287 289
3 289 288 58
3 287 288 289
3 59 290 291
3 60 292 294
3 294 293 59
3 292 293 294
3 60 295 296
3 47 31 1
3 61 31 47
3 61 12 31
3 32 297 299
3 297 61 298
3 297 298 299
3 62 61 32
3 62 12 61
3 62 60 12
3 63 60 62
3 63 300 302
3 302 301 60
3 300 301 302
3 63 303 304
3 64 305 307
3 307 306 63
3 305 306 307
3 64 308 309
3 34 64 13
3 310 64 311
3 312 311 34
3 310 311 312
3 314 313 64
3 36 315 317
3 317 316 14
3 315 316 317
3 65 318 320
3 320 319 36
3 318 319 320
3 65 321 322
3 65 323 325
3 323 324 325
3 66 326 328
3 328 327 65
3 326 327 328
3 66 329 330
3 331 37 332
3 333 37 334
3 335 15 336
3 337 336 37
3 335 336 337
3 67 338 339
3 67 340 342
3 340 15 341
3 340 341 342
3 67 66 15
3 68 66 67
3 68 343 345
3 345 344 66
3 343 344 345
3 68 346 347
3 69 348 350
3 350 349 68
3 348 349 350
3 69 351 352
3 353 69 354
3 355 354 16
3 353 354 355
3 70 356 358
3 356 69 357
3 356 357 358
3 70 359 361
3 361 360 69
3 359 360 361
3 70 362 363
3 71 364 366
3 366 365 70
3 364 365 366
3 71 367 368
3 369 71 370
3 72 371 373
3 371 71 372
3 371 372 373
3 72 374 376
3 376 375 71
3 374 375 376
3 72 377 378
3 73 379 381
3 381 380 72
3 379 380 381
3 73 382 384
3 382 7 383
3 382 383 384
3 385 73 386
3 74 387 389
3 387 73 388
3 387 388 389
3 74 7 73
3 74 48 7
3 75 48 74
3 75 2 48
3 390 75 391
3 392 75 393
3 394 2 395
3 396 395 75
3 394 395 396
3 397 41 398
3 399 398 2
3 397 398 399
3 400 41 401
3 402 17 403
3 404 403 41
3 402 403 404
3 405 17 406
3 407 76 408
3 409 408 17
3 407 408 409
3 410 76 411
3 413 412 76
3 414 3 415
3 40 416 417
3 77 418 420
3 420 419 40
3 418 419 420
3 77 421 423
3 421 3 422
3 421 422 423
3 77 18 3
3 76 18 77
3 76 424 426
3 426 425 18
3 424 425 426
3 427 5 428
3 429 5 430
3 431 44 432
3 433 432 5
3 431 432 433
3 434 44 435
3 437 436 44
