ply
format ascii 1.0
element vertex 157
property float x
property float y
property float z
element face 119
property list uchar int vertex_index
end_header
-22.991539 39.44389 -49.630043
-19.286303 38.206821 -50.896542
-34.873878 48.132446 -38.215523
-32.640152 45.786072 -42.243858
-29.77965 43.362221 -45.494568
-26.397219 40.976101 -47.930923
-22.704422 42.891777 -50.36858
-21.12929 38.579838 -50.291779
-20.901556 41.871861 -50.904037
-33.859699 47.287411 -40.324253
-29.411924 47.13538 -46.625824
-28.156557 42.225521 -46.811428
-27.788309 45.887436 -47.85984
-26.118477 44.713097 -48.863369
-19.205109 41.638191 -51.397293
-35.754555 49.388454 -35.91209
-31.182667 44.486938 -44.083187
-24.732088 40.187469 -48.843742
-24.493193 43.954697 -49.692688
-24.081144 47.186356 -50.435101
-21.619493 44.026673 -50.964733
-21.802989 42.381819 -50.636308
-22.520927 44.536631 -50.697005
-29.177693 49.001886 -47.165825
-29.857675 49.575297 -46.54027
-28.365886 48.377915 -47.782833
-28.600116 46.511408 -47.242832
-29.177693 49.001886 -47.165825
-27.613882 47.79672 -48.325714
-28.365886 48.377915 -47.782833
-22.091135 37.343249 -49.647604
-22.951798 37.596914 -49.284378
-19.321948 36.451135 -50.604433
-20.243442 36.637644 -50.302052
-20.207797 38.39333 -50.594161
-18.426082 36.316486 -50.897383
-19.321948 36.451135 -50.604433
-19.157091 43.304062 -51.607473
-19.95387 43.474539 -51.423073
-36.124601 49.919502 -34.641706
-36.007212 47.39192 -35.049498
-34.532465 45.680227 -38.5968
-35.093397 46.127561 -37.428209
-32.810488 43.942431 -41.591328
-33.420261 44.6931 -40.631525
-33.249926 46.536741 -41.284056
-32.116594 43.29397 -42.482123
-32.810488 43.942431 -41.591328
-30.481158 43.92458 -44.788877
-31.013127 46.349888 -44.651266
-30.311619 45.787529 -45.356956
-29.946426 41.531363 -44.890119
-30.647934 42.093721 -44.184429
-30.481158 43.92458 -44.788877
-29.11381 40.920975 -45.590706
-29.946426 41.531363 -44.890119
-26.54578 39.269836 -47.439199
-27.425449 39.894547 -46.879452
-27.276888 41.600811 -47.371175
-25.587436 38.66433 -47.964862
-26.54578 39.269836 -47.439199
-25.564653 40.581785 -48.387332
-24.754871 38.270014 -48.421272
-25.587436 38.66433 -47.964862
-25.194167 46.182991 -49.6669
-25.305835 44.333897 -49.278028
-26.006809 46.562191 -49.252241
-24.988143 47.798821 -50.038107
-24.287168 45.570526 -50.063895
-25.194167 46.182991 -49.6669
-34.106491 49.749842 -40.05079
-34.366788 47.709929 -39.269888
-34.61358 50.172359 -38.996426
-33.609741 49.161617 -41.044985
-34.106491 49.749842 -40.05079
-32.999967 48.410948 -42.004788
-33.249926 46.536741 -41.284056
-33.609741 49.161617 -41.044985
-30.127756 47.674109 -45.922584
-29.857675 49.575297 -46.54027
-29.595787 45.248801 -46.060196
-30.311619 45.787529 -45.356956
-30.127756 47.674109 -45.922584
-26.778966 47.209551 -48.827478
-26.953393 45.300266 -48.361604
-27.613882 47.79672 -48.325714
-26.006809 46.562191 -49.252241
-26.778966 47.209551 -48.827478
-21.16001 36.911223 -49.978472
-22.091135 37.343249 -49.647604
-22.060415 39.011864 -49.960911
-21.16001 36.911223 -49.978472
-20.243442 36.637644 -50.302052
-20.802093 43.591374 -51.176445
-21.619493 44.026673 -50.964733
-20.053332 41.755026 -51.150665
-20.802093 43.591374 -51.176445
-19.95387 43.474539 -51.423073
-18.373913 41.508052 -51.590439
-19.157091 43.304062 -51.607473
-18.369039 39.784624 -51.392912
-18.373913 41.508052 -51.590439
-18.409636 38.068939 -51.142536
-19.245706 39.922506 -51.146918
-18.369039 39.784624 -51.392912
-18.426082 36.316486 -50.897383
-18.409636 38.068939 -51.142536
-35.533736 46.755566 -36.276493
-36.007212 47.39192 -35.049498
-35.314217 48.76045 -37.063806
-35.093397 46.127561 -37.428209
-35.533736 46.755566 -36.276493
-35.860363 52.004559 -35.424768
-36.124601 49.919502 -34.641706
-35.488486 51.306585 -36.719293
-35.860363 52.004559 -35.424768
-35.048147 50.678581 -37.87101
-35.314217 48.76045 -37.063806
-35.488486 51.306585 -36.719293
-34.61358 50.172359 -38.996426
-35.048147 50.678581 -37.87101
-34.025375 45.25771 -39.651165
-34.532465 45.680227 -38.5968
-34.366788 47.709929 -39.269888
-34.025375 45.25771 -39.651165
-33.420261 44.6931 -40.631525
-32.394654 47.764269 -42.954401
-32.999967 48.410948 -42.004788
-31.665911 47.114702 -43.874066
-31.013127 46.349888 -44.651266
-31.911409 45.136505 -43.163522
-32.394654 47.764269 -42.954401
-31.665911 47.114702 -43.874066
-31.387851 42.644403 -43.401787
-32.116594 43.29397 -42.482123
-31.911409 45.136505 -43.163522
-31.387851 42.644403 -43.401787
-30.647934 42.093721 -44.184429
-28.302263 40.352625 -46.249136
-29.11381 40.920975 -45.590706
-28.968103 42.793871 -46.152998
-28.302263 40.352625 -46.249136
-27.425449 39.894547 -46.879452
-23.822073 37.968704 -48.891227
-24.754871 38.270014 -48.421272
-23.861814 39.81568 -49.236892
-22.951798 37.596914 -49.284378
-23.822073 37.968704 -48.891227
-23.209287 46.68392 -50.730265
-22.520927 44.536631 -50.697005
-23.392783 45.039067 -50.401841
-24.660709 49.310976 -50.447153
-24.988143 47.798821 -50.038107
-23.848396 48.762402 -50.763546
-24.660709 49.310976 -50.447153
-23.209287 46.68392 -50.730265
-23.848396 48.762402 -50.763546
3 20 8 21
3 22 21 6
3 20 21 22
3 23 10 24
3 25 12 26
3 27 26 10
3 25 26 27
3 29 28 12
3 0 30 31
3 1 32 34
3 34 33 7
3 32 33 34
3 1 35 36
3 37 14 38
3 39 15 40
3 2 41 42
3 3 43 45
3 45 44 9
3 43 44 45
3 3 46 47
3 4 48 50
3 48 16 49
3 48 49 50
3 4 51 53
3 53 52 16
3 51 52 53
3 4 54 55
3 5 56 58
3 58 57 11
3 56 57 58
3 5 59 60
3 5 61 63
3 61 17 62
3 61 62 63
3 64 18 65
3 66 65 13
3 64 65 66
3 67 19 68
3 69 68 18
3 67 68 69
3 6 7 0
3 8 7 6
3 8 1 7
3 70 9 71
3 72 71 2
3 70 71 72
3 73 9 74
3 75 3 76
3 77 76 9
3 75 76 77
3 10 78 79
3 10 80 82
3 80 4 81
3 80 81 82
3 10 11 4
3 12 11 10
3 12 5 11
3 12 13 5
3 83 13 84
3 85 84 12
3 83 84 85
3 87 86 13
3 7 88 90
3 90 89 0
3 88 89 90
3 92 91 7
3 93 8 94
3 14 95 97
3 95 8 96
3 95 96 97
3 14 1 8
3 98 14 99
3 100 14 101
3 102 1 103
3 104 103 14
3 102 103 104
3 106 105 1
3 15 107 108
3 15 109 111
3 109 2 110
3 109 110 111
3 112 15 113
3 114 15 115
3 116 2 117
3 118 117 15
3 116 117 118
3 120 119 2
3 9 121 123
3 123 122 2
3 121 122 123
3 125 124 9
3 126 3 127
3 16 128 129
3 16 130 132
3 130 3 131
3 130 131 132
3 16 133 135
3 135 134 3
3 133 134 135
3 137 136 16
3 11 138 140
3 140 139 4
3 138 139 140
3 142 141 11
3 17 143 144
3 17 145 147
3 145 0 146
3 145 146 147
3 13 17 5
3 18 17 13
3 18 0 17
3 18 6 0
3 19 6 18
3 19 148 150
3 150 149 6
3 148 149 150
3 151 19 152
3 153 19 154
3 156 155 19
