ply
format ascii 1.0
element vertex 912
property float x
property float y
property float z
element face 1024
property list uchar int vertex_index
end_header
9.250692 -27.66485 69.416451
28.037899 -33.74474 54.355572
-13.444104 -5.583815 53.716228
-25.656282 2.004882 38.759708
12.478655 -47.428043 65.574913
23.470007 -33.060814 69.955742
-5.975513 -8.720084 60.081825
10.853793 -37.379246 68.559677
15.050969 -20.887747 71.988647
22.335506 -22.68425 72.505722
17.015711 -30.723555 71.735626
18.231579 -40.954174 69.235191
-17.074604 -9.923631 50.445908
-23.304344 -6.056851 43.01664
-19.728189 -1.793596 46.5956
6.450805 -18.903114 68.273613
0.930298 -24.648548 64.645668
-2.355528 -16.310614 63.068176
-10.279991 -13.33072 57.117859
-29.328829 -2.925539 35.483978
27.063559 -34.268852 63.492409
24.060066 -43.365578 65.353676
10.018279 -32.296524 69.203278
6.194461 -30.772802 67.259232
12.201186 -24.379021 70.932053
16.271194 -25.750792 72.141357
13.210488 -29.227009 70.964294
14.061083 -34.075321 70.521507
28.130913 -27.950592 52.507671
-15.32816 -7.635264 52.20636
-18.472258 -5.743446 48.670406
-16.645546 -3.842841 50.318901
4.622661 -14.690897 67.109901
2.100766 -17.52976 65.845985
0.05856 -13.699946 64.465988
-9.762907 -7.400892 57.115112
-8.182179 -11.029363 58.768543
-11.818105 -9.552151 55.685341
-13.818842 -11.541497 53.866314
-24.591703 -2.16434 41.001171
-26.350458 -4.527247 39.222931
-27.593018 -0.284941 37.033257
-3.107689 -23.138647 61.768482
-1.636421 -27.32695 61.932156
22.977661 -27.907335 71.531151
25.451115 -28.699968 69.379601
27.087461 -29.049854 66.117683
25.666807 -33.993824 67.149429
25.768969 -38.886993 64.759315
23.686153 -38.414261 67.880417
15.37199 -44.299522 67.829086
18.834322 -46.071259 67.136925
16.174751 -49.428185 65.606544
-1.946435 -9.957125 62.864754
-28.584064 3.661356 34.775482
11.60846 -42.551586 67.283546
19.800669 -26.83787 72.406815
20.39797 -32.041473 71.476814
20.951933 -37.31424 69.914566
17.602711 -35.632572 70.825378
14.540233 -39.155506 69.433479
-18.75754 -12.080532 48.184189
-20.184536 -8.030369 46.84584
-21.572147 -3.962539 44.887562
-22.68766 0.009833 42.780327
-17.736687 0.138093 48.252892
8.003241 -23.092482 69.060722
4.984214 -26.03278 67.187477
3.637497 -21.690853 66.697556
-0.566206 -20.422434 64.097946
-4.608126 -18.862267 61.311089
-4.096773 -12.471462 61.771294
-6.380361 -14.853403 60.241791
-8.608837 -17.311333 58.185379
-12.207928 -15.780277 54.97765
-15.574081 -13.885017 51.661964
10.701446 -19.774296 70.336578
-24.939297 -8.575743 40.991421
-27.827583 -7.241013 37.620865
-30.669878 1.110159 33.004108
-32.384689 -1.839841 31.609257
2.286068 -29.100935 64.79628
27.776018 -34.278877 59.093758
27.095875 -39.093163 60.675316
21.347628 -42.243301 67.961082
9.657459 -29.92576 69.368813
8.094339 -31.601 68.282234
7.615064 -29.239046 68.366302
10.730081 -26.122356 70.230598
12.711747 -26.589966 71.013191
11.338125 -28.445066 70.312271
11.663272 -30.88213 70.16745
28.087137 -31.003412 53.330231
28.068043 -30.49844 51.027451
-14.325812 -6.734282 53.080093
-16.005411 -5.740169 51.287971
-15.091003 -4.616881 52.005634
2.348571 -14.202653 65.826057
1.336809 -12.335898 65.093689
-11.630713 -6.550906 55.46246
-10.886035 -8.411018 56.358734
-12.593658 -7.5484 54.783222
-13.536139 -8.693867 54.050419
-25.158028 -0.132185 39.900829
-26.073078 -1.186904 39.040951
-26.61162 0.789429 37.945309
-4.219498 -24.296053 60.473698
23.253036 -30.446123 70.825569
24.282211 -28.334387 70.641205
24.480156 -30.88887 69.778831
25.551821 -31.390188 68.345825
24.666958 -33.496426 68.730278
24.733261 -36.133259 67.648193
23.60623 -35.646805 68.991928
13.88667 -45.809517 66.843369
15.626675 -46.889503 66.764778
14.352724 -48.390678 65.768257
11.137199 -39.919727 67.969154
9.690183 -41.486115 66.679596
9.25404 -38.974094 67.265373
16.71133 -28.233364 72.009361
18.11401 -26.207205 72.406105
18.480324 -28.869686 72.13443
20.2057 -29.4296 72.003906
18.808329 -31.434774 71.739502
18.972761 -33.936562 71.218048
17.365141 -33.023335 71.380501
12.344261 -35.812584 69.577049
14.252918 -36.47707 70.065048
12.797435 -38.319321 69.131393
13.061337 -40.877033 68.45385
-17.99966 -10.857734 49.30534
-19.608368 -10.109841 47.434814
-18.710043 -8.86497 48.588909
-19.10976 -3.848452 47.688995
-19.978714 -4.911425 46.868382
-20.642876 -2.869097 45.781349
-22.087601 -1.938328 43.926159
-21.233364 -0.735934 44.646893
7.302739 -20.975733 68.736748
5.903917 -22.398846 67.969055
5.011898 -20.2104 67.518341
-0.055641 -17.077515 64.544807
0.716143 -18.99696 65.007751
-1.310424 -18.294603 63.722385
-2.603709 -19.647612 62.730942
-3.367976 -17.650076 62.337585
-3.986542 -9.373013 61.497089
-2.880992 -11.201332 62.43573
-4.990967 -10.626152 60.999325
-9.206841 -12.264906 58.029545
-7.306658 -12.920019 59.532433
-8.319482 -14.156042 58.74173
-7.414637 -16.145144 59.358921
-9.389677 -15.330118 57.757591
-10.492409 -16.529173 56.557407
-11.298416 -14.481406 56.098488
-15.46633 -10.773527 52.182983
-14.723811 -12.738173 52.822937
-16.432583 -11.908026 51.018505
-17.211483 -13.021854 49.894863
7.730459 -17.177382 68.856735
8.642591 -19.339022 69.380676
9.565445 -21.539623 69.8433
-22.620766 -8.189086 43.858841
-24.129532 -7.325039 42.024906
-27.797604 -3.743091 37.413353
-27.20137 -5.781036 38.307129
-28.685287 -5.101746 36.512836
-29.496031 -6.492712 35.671638
-30.176403 -4.372593 34.68779
-30.012764 4.606352 32.741772
-29.656277 2.487712 33.840786
-31.127628 3.257195 31.819195
-33.032337 0.256819 30.306257
-33.831886 -1.443014 29.697317
2.987437 -25.49345 65.96386
3.705869 -27.607056 66.135704
1.659659 -26.852983 64.794403
-2.792339 -28.65642 60.371159
-0.881011 -29.491747 61.954826
27.066669 -31.635185 64.899933
27.525721 -31.762981 62.85297
27.845558 -31.619434 60.625179
27.508293 -34.212402 61.320164
27.490269 -36.847427 59.774918
27.070208 -36.774841 62.043396
24.938717 -41.156399 65.179604
25.869675 -41.365993 63.360565
19.568209 -38.964138 69.741058
21.157667 -39.718491 69.01757
19.830875 -41.520363 68.786888
20.481045 -46.572083 66.467361
10.418554 -34.84922 68.932266
8.922039 -36.50087 67.755219
8.626163 -34.012512 68.142784
13.746856 -22.61878 71.550163
15.600353 -23.281176 72.104431
14.227066 -25.01852 71.630379
14.720747 -27.437532 71.618263
15.227751 -29.797535 71.511787
15.549167 -32.424999 71.202896
13.713937 -31.657307 70.823273
12.035583 -33.260529 69.952545
28.06838 -27.506666 50.058075
-16.198978 -8.767027 51.388569
-17.85651 -7.806304 49.537407
-16.996922 -6.727878 50.384911
-17.63125 -4.712039 49.441284
-18.20281 -2.777744 48.477234
5.598297 -16.709829 67.747467
4.220347 -18.107895 67.059425
3.302582 -16.104002 66.477386
1.139028 -15.60587 65.219322
-1.035664 -15.101476 63.886333
-7.871964 -8.063481 58.645023
-7.026975 -9.891636 59.506657
-8.964153 -9.139044 57.982838
-9.976187 -10.288774 57.300949
-11.037487 -11.319578 56.466217
-12.117716 -12.490448 55.484058
-12.820098 -10.621434 54.838493
-14.546019 -9.623602 53.131271
-23.990551 -4.035083 42.011433
-24.735605 -5.293153 41.230644
-25.494242 -3.275497 40.09745
-26.902946 -2.400342 38.275745
-28.397739 -1.689829 36.37101
-1.145104 -23.856407 63.215073
-0.443895 -26.003723 63.318314
-2.321599 -25.227522 61.92123
-3.424433 -26.41268 60.544487
-4.4732 -27.857178 58.931114
22.641756 -25.429808 72.08638
24.083059 -25.698977 71.336075
25.374023 -26.14506 70.156586
26.354404 -29.123198 67.83474
26.458313 -31.493044 66.657822
26.466431 -34.14962 65.415817
26.490282 -36.749908 64.06797
25.728992 -36.468384 65.963333
24.831472 -38.508743 66.521278
23.871548 -40.786049 66.707535
16.710608 -42.736744 68.593399
18.447296 -43.522812 68.257782
17.119181 -45.280342 67.600494
17.394876 -47.732807 66.505257
-12.357462 -4.62617 54.486282
-14.064338 -3.649436 52.774223
0.253382 -10.444942 64.251869
-0.784424 -8.702324 63.388729
-2.864041 -8.157091 62.022125
-4.921658 -7.667364 60.61483
-7.012122 -6.911443 59.06052
-8.805903 -6.194323 57.630947
-10.582122 -5.531173 56.133087
-26.175886 4.152781 37.507023
-27.156082 3.018948 36.683731
-27.563742 4.951307 35.59177
-28.940929 5.816559 33.634178
12.067972 -44.955959 66.53109
10.685493 -46.332832 65.208481
10.184985 -44.042004 65.961716
17.504419 -23.688576 72.504318
19.338915 -24.213633 72.664932
21.07308 -24.732113 72.543159
21.418846 -27.382944 72.137962
21.854265 -30.031796 71.542015
22.080082 -32.540104 70.871613
22.227577 -35.102646 70.078606
20.769035 -34.595531 70.771851
19.322493 -36.400261 70.556793
17.792866 -38.323841 70.099922
15.923082 -34.897648 70.801674
16.049955 -37.384018 70.225945
16.419531 -40.045631 69.49633
15.039695 -41.631454 68.756134
13.603518 -43.427547 67.729187
-21.111113 -9.067391 45.674351
-21.775188 -7.021937 44.913425
-19.44536 -6.798332 47.673561
-20.954952 -5.927223 45.839794
-22.486408 -4.94255 43.92194
-23.111065 -2.897388 42.898781
-23.675613 -1.0293 41.863903
-24.173019 1.025972 40.777699
-15.615915 -2.798885 51.125626
-17.272726 -1.824614 49.241806
-18.785587 -0.732902 47.37748
-19.265511 1.121618 46.355354
-20.238674 0.13413 45.554272
-21.711861 1.136384 43.612709
-23.209318 2.153458 41.593987
-24.689402 3.246147 39.542625
8.677804 -25.296757 69.306206
7.177042 -26.845795 68.394928
6.485673 -24.693045 68.181412
4.411833 -23.868971 67.033417
2.227671 -23.229713 65.71701
2.889791 -19.544424 66.314796
1.540835 -20.955282 65.447517
0.250177 -22.475195 64.457634
-1.739019 -21.749323 63.11211
-3.771062 -21.0903 61.640579
-0.792782 -11.798322 63.787647
-1.996694 -13.088625 63.169727
-3.126308 -14.31417 62.520771
-6.181719 -11.819803 60.295216
-5.245758 -13.76646 61.060059
-4.34127 -15.598263 61.715309
-5.450345 -16.851803 60.853302
-6.69507 -18.20665 59.711975
-13.032259 -13.651428 54.489845
-13.906028 -14.769119 53.368004
12.953919 -20.326439 71.265518
11.657907 -22.054146 70.761589
10.182471 -23.75736 70.091553
-25.617426 -6.473927 40.217026
-26.385202 -7.906486 39.298328
-27.181 -9.335608 38.31152
-28.656925 -8.542049 36.670902
-28.118328 1.682735 35.913975
-29.095337 0.317899 35.100601
-29.999214 -1.005925 34.325455
-32.068516 1.82036 31.088835
-31.468325 -0.388482 32.411896
-30.860443 -2.400672 33.571327
5.747869 -28.289658 67.377586
4.204246 -29.79439 66.084068
2.791122 -31.383696 64.644318
0.36775 -28.146624 63.464005
1.07404 -30.515877 63.425255
28.080204 -31.362169 55.747768
28.015436 -31.537476 58.182598
27.943745 -34.180363 56.756813
27.760424 -36.75037 57.603882
26.519604 -39.244465 62.724415
22.449047 -37.767563 69.063545
22.512407 -40.350483 68.047554
22.800034 -42.753662 66.84333
20.116426 -44.051941 67.702774
21.663071 -44.847187 66.688225
28.056413 -33.55055 53.063553
28.081032 -32.179887 52.550883
28.062518 -32.374076 53.842901
1.890551 -11.568475 65.323021
2.430296 -12.557099 65.72649
11.816755 -48.200737 64.838345
12.746432 -48.599796 65.076782
12.746432 -48.599796 65.076782
13.683466 -49.081114 65.173454
13.415689 -47.909361 65.671585
15.973854 -21.111966 72.230103
15.622386 -19.899871 72.147708
-31.295343 4.232156 31.285191
-30.570196 3.931774 32.280484
-30.73791 4.906735 31.74648
-34.570583 -1.215202 28.649231
-34.14282 -0.331883 29.002377
-35.000256 -2.029242 28.261901
-34.261558 -2.257054 29.309987
-34.570583 -1.215202 28.649231
-2.438469 -29.770843 60.313277
-3.29052 -29.467646 59.505167
22.825711 -21.542645 72.450615
22.01298 -21.376777 72.66275
24.594423 -43.542044 64.518457
25.033749 -42.437455 64.431421
24.499392 -42.260988 65.26664
24.133419 -44.628158 64.674227
24.594423 -43.542044 64.518457
6.455816 -31.949056 67.202869
7.405755 -32.363155 67.714371
7.1444 -31.186901 67.770733
5.458411 -31.453782 66.612488
6.455816 -31.949056 67.202869
28.099646 -27.728629 51.282873
28.122803 -26.282122 50.844015
28.15407 -26.504086 52.068813
28.059985 -30.216356 49.755553
28.080273 -31.649929 50.168957
5.686348 -14.904701 67.67873
5.206376 -13.936604 67.357288
5.110479 -15.700363 67.428684
6.174167 -15.914167 67.997513
5.686348 -14.904701 67.67873
-4.355868 -26.026553 59.753418
-3.821966 -25.354367 60.509092
-4.753401 -24.96824 59.718024
-4.880252 -26.748803 58.946731
-3.948817 -27.134929 59.7378
-4.355868 -26.026553 59.753418
25.880962 -27.597076 69.09636
25.842416 -26.319622 69.484852
25.412569 -27.422514 69.768093
25.90276 -28.911583 68.60717
26.332606 -27.808691 68.323929
25.880962 -27.597076 69.09636
17.017755 -49.831684 65.423752
17.627817 -48.983995 65.873108
16.784813 -48.580496 66.055901
16.426184 -50.625214 64.984856
17.017755 -49.831684 65.423752
-12.714105 -3.648341 53.958536
-11.840616 -4.09894 54.800852
-0.362077 -7.878132 63.503084
0.28413 -8.81286 64.033636
-3.405545 -7.228399 61.508642
-2.397876 -7.490295 62.195345
-4.434354 -6.983536 60.804994
-3.892849 -7.912228 61.318478
-3.405545 -7.228399 61.508642
-7.439393 -5.988084 58.573562
-6.469309 -6.360453 59.325561
-8.336284 -5.629524 57.858776
-7.909013 -6.552883 58.345733
-7.439393 -5.988084 58.573562
-10.952946 -4.551442 55.624254
-10.103262 -4.941841 56.382563
-11.840616 -4.09894 54.800852
-11.469792 -5.078672 55.309685
-10.952946 -4.551442 55.624254
-27.06808 5.589224 35.977146
-26.869814 4.552044 36.549397
-26.374152 5.18996 36.934772
-29.175339 6.868105 32.968803
-28.461861 6.440076 34.001123
-29.687546 6.229805 32.570779
-29.175339 6.868105 32.968803
9.024424 -42.227629 65.965874
8.760105 -40.960138 66.277302
8.212873 -37.252322 67.104394
7.978343 -36.041048 67.276707
-19.586473 -11.62225 47.231036
-19.154694 -12.63729 47.550145
-15.184106 -2.252393 51.401331
-14.840127 -3.22416 51.949924
-14.408317 -2.677669 52.225629
-17.504706 -0.84326 48.747349
-16.789164 -1.389884 49.61845
-17.021144 -0.408531 49.123993
-19.984092 1.647422 45.410692
-19.497327 2.129094 45.80961
-20.470674 1.153678 45.010151
-19.752092 0.627874 45.954813
-19.984092 1.647422 45.410692
-21.207267 1.654805 44.03937
-20.975268 0.635257 44.58349
-20.470674 1.153678 45.010151
-23.443431 3.23735 40.999207
-22.69254 2.656424 42.0469
-24.183473 3.783695 39.973526
-23.94936 2.699803 40.568306
-23.443431 3.23735 40.999207
-24.913358 4.255486 38.965941
-24.183473 3.783695 39.973526
-5.169946 -19.532327 60.743012
-4.751413 -20.646344 60.907757
-4.189594 -19.976284 61.475834
-8.125208 -18.359419 58.415209
-7.168325 -18.807077 59.178507
-7.651953 -17.758992 58.948677
-9.085536 -17.93556 57.596994
-8.125208 -18.359419 58.415209
-11.783414 -16.804066 55.168518
-10.925655 -17.178514 55.958396
-11.350169 -16.154725 55.767528
-12.648004 -16.319254 54.360205
-11.783414 -16.804066 55.168518
-15.126677 -14.929956 51.914165
-14.292651 -15.372007 52.767185
-14.740054 -14.327068 52.514984
-15.976679 -14.494305 51.014581
-15.126677 -14.929956 51.914165
-18.404795 -13.119681 48.368189
-17.631767 -13.590342 49.223526
-17.984511 -12.551193 49.039526
-19.154694 -12.63729 47.550145
-18.404795 -13.119681 48.368189
11.391458 -18.96314 70.60318
10.323585 -18.684635 70.131477
11.827683 -20.050368 70.801048
12.517695 -19.239211 71.06765
11.391458 -18.96314 70.60318
-24.505316 -9.700688 41.3887
-24.177492 -9.038283 41.879849
-25.279997 -9.287232 40.524184
-24.505316 -9.700688 41.3887
-29.850614 -7.238868 35.299755
-30.254331 -6.183181 34.772095
-32.806452 2.09965 30.06499
-32.312349 2.855266 30.459696
-32.057386 -2.850528 32.191921
-31.295262 -3.130943 33.172956
-31.622566 -2.120256 32.590292
10.052255 -47.169664 64.369259
9.754677 -45.920002 64.815277
0.391959 -31.17903 62.580953
0.096515 -30.003812 62.69004
-0.585567 -30.666965 61.845739
1.262946 -31.70443 63.239494
0.391959 -31.17903 62.580953
28.136105 -30.113537 56.446559
28.130463 -29.954968 55.327026
27.376266 -27.780448 65.746482
27.077293 -27.771752 66.69775
27.297573 -39.233376 59.520342
27.49477 -38.110508 59.070143
27.293072 -37.970295 60.225117
27.112949 -40.378569 59.970274
27.297573 -39.233376 59.520342
26.231794 -41.444859 62.356575
25.951404 -42.630367 62.567681
21.8484 -46.070501 66.008965
21.072058 -45.709635 66.577793
21.257388 -46.932949 65.898533
22.375142 -45.094303 66.067951
21.8484 -46.070501 66.008965
28.071486 -31.9274 51.399493
28.07759 -30.750926 52.178841
28.081032 -32.179887 52.550883
28.080273 -31.649929 50.168957
28.071486 -31.9274 51.399493
2.936177 -13.490477 66.092674
3.485616 -14.446775 66.467979
4.073221 -13.734599 66.734596
1.84269 -13.269275 65.459873
2.936177 -13.490477 66.092674
2.430296 -12.557099 65.72649
4.073221 -13.734599 66.734596
5.206376 -13.936604 67.357288
-4.645136 -23.229555 60.386673
-3.663594 -23.71735 61.12109
-4.089231 -22.650852 61.034065
-5.123048 -23.903793 59.732389
-4.645136 -23.229555 60.386673
-4.753401 -24.96824 59.718024
-5.123048 -23.903793 59.732389
14.585828 -49.676656 65.147309
15.496841 -50.19541 65.066452
15.263738 -48.909431 65.6874
14.585828 -49.676656 65.147309
13.683466 -49.081114 65.173454
8.542033 -39.704128 66.57019
8.760105 -40.960138 66.277302
9.472112 -40.230104 66.972485
-17.237689 0.621912 48.62006
-17.021144 -0.408531 49.123993
8.838092 -17.386178 69.391556
8.313986 -16.377896 69.094803
9.294158 -18.466997 69.653526
8.838092 -17.386178 69.391556
8.186525 -18.258202 69.118706
9.672019 -19.556659 69.858627
10.323585 -18.684635 70.131477
9.294158 -18.466997 69.653526
-23.018227 -8.844955 43.313558
-22.277523 -9.237426 44.185524
-23.77261 -8.412931 42.396591
-23.018227 -8.844955 43.313558
-23.375149 -7.757062 42.941873
-24.534415 -7.950391 41.508164
-24.177492 -9.038283 41.879849
-23.77261 -8.412931 42.396591
-30.594517 -5.123121 34.28017
-30.254331 -6.183181 34.772095
-29.836217 -5.432652 35.179714
-33.743046 0.518034 29.306846
-33.288362 1.31788 29.673701
-33.432111 -0.593098 30.001787
-33.743046 0.518034 29.306846
-34.14282 -0.331883 29.002377
-33.555561 -2.472645 30.260348
-32.831963 -2.671059 31.216318
-33.108288 -1.641428 30.653287
-33.555561 -2.472645 30.260348
-34.261558 -2.257054 29.309987
-1.482805 -30.188507 61.10511
-1.836675 -29.074084 61.162993
-2.438469 -29.770843 60.313277
-0.585567 -30.666965 61.845739
-1.482805 -30.188507 61.10511
27.335077 -30.382293 64.513329
27.345473 -29.089628 65.122203
27.077065 -30.34252 65.508808
27.564603 -30.446191 63.489847
27.335077 -30.382293 64.513329
27.296195 -31.699083 63.876452
27.728147 -30.467596 62.437225
27.564603 -30.446191 63.489847
27.68564 -31.691207 61.739075
27.888065 -30.395823 61.32333
27.728147 -30.467596 62.437225
25.499227 -42.542252 63.521902
25.404196 -41.261196 64.270084
25.033749 -42.437455 64.431421
25.951404 -42.630367 62.567681
25.499227 -42.542252 63.521902
19.827557 -47.487238 66.226116
19.657684 -46.321671 66.802143
19.004195 -47.236826 66.560898
20.668073 -47.817267 65.786762
19.827557 -47.487238 66.226116
21.257388 -46.932949 65.898533
20.668073 -47.817267 65.786762
7.830405 -34.796869 67.47049
7.978343 -36.041048 67.276707
8.774101 -35.256691 67.949002
7.671667 -33.568911 67.644645
8.360251 -32.806756 68.212509
7.405755 -32.363155 67.714371
7.830405 -34.796869 67.47049
7.671667 -33.568911 67.644645
28.08221 -25.936794 49.643229
28.122803 -26.282122 50.844015
28.051329 -27.202351 48.87887
28.065158 -25.632479 48.464024
28.08221 -25.936794 49.643229
28.060154 -28.72047 49.270865
28.068212 -29.002553 50.542763
28.059985 -30.216356 49.755553
28.051329 -27.202351 48.87887
28.060154 -28.72047 49.270865
7.240247 -16.147943 68.552147
8.313986 -16.377896 69.094803
6.664378 -16.943606 68.302101
7.240247 -16.147943 68.552147
6.174167 -15.914167 67.997513
-4.130951 -29.068025 58.785145
-3.29052 -29.467646 59.505167
-3.63277 -28.256799 59.651136
23.189134 -24.23416 72.017288
23.036009 -22.86138 72.226959
22.488631 -24.057029 72.296051
23.909785 -24.368744 71.642135
23.189134 -24.23416 72.017288
23.362407 -25.564393 71.711228
24.573767 -24.570474 71.169761
23.909785 -24.368744 71.642135
25.21925 -24.793515 70.580017
24.573767 -24.570474 71.169761
24.728541 -25.922019 70.74633
25.812511 -24.895707 69.914677
25.21925 -24.793515 70.580017
25.812511 -24.895707 69.914677
25.842416 -26.319622 69.484852
26.710764 -27.808423 67.556278
26.332606 -27.808691 68.323929
26.720932 -29.086526 66.976212
27.077293 -27.771752 66.69775
26.710764 -27.808423 67.556278
18.284472 -48.0676 66.245064
19.004195 -47.236826 66.560898
18.114599 -46.902033 66.821091
18.284472 -48.0676 66.245064
17.627817 -48.983995 65.873108
16.426184 -50.625214 64.984856
15.496841 -50.19541 65.066452
-13.567543 -3.159975 53.102507
-13.2109 -4.137803 53.630252
-12.714105 -3.648341 53.958536
-14.408317 -2.677669 52.225629
-13.567543 -3.159975 53.102507
0.803033 -9.684169 64.465206
1.348838 -10.622997 64.902111
-0.265521 -9.573633 63.820299
0.803033 -9.684169 64.465206
0.28413 -8.81286 64.033636
-1.358068 -7.762912 62.878647
-0.362077 -7.878132 63.503084
-1.824232 -8.429707 62.705427
-1.358068 -7.762912 62.878647
-2.397876 -7.490295 62.195345
-5.424078 -6.738413 60.102716
-4.434354 -6.983536 60.804994
-5.96689 -7.289404 59.837675
-5.424078 -6.738413 60.102716
-6.469309 -6.360453 59.325561
-9.215153 -5.273416 57.131493
-8.336284 -5.629524 57.858776
-9.694012 -5.862748 56.882017
-9.215153 -5.273416 57.131493
-10.103262 -4.941841 56.382563
-27.773267 6.007451 34.979919
-27.06808 5.589224 35.977146
-27.277605 6.645367 35.365296
-28.252336 5.383933 34.612974
-27.773267 6.007451 34.979919
-28.461861 6.440076 34.001123
-30.223464 5.624702 32.124576
-29.476847 5.211455 33.187975
-29.687546 6.229805 32.570779
-30.73791 4.906735 31.74648
-30.223464 5.624702 32.124576
9.504423 -44.774588 65.191894
9.754677 -45.920002 64.815277
10.435239 -45.187418 65.585099
9.271825 -43.505573 65.606933
9.937584 -42.76406 66.320656
9.024424 -42.227629 65.965874
9.504423 -44.774588 65.191894
9.271825 -43.505573 65.606933
8.378874 -38.488934 66.859471
9.08804 -37.737482 67.510296
8.212873 -37.252322 67.104394
8.542033 -39.704128 66.57019
8.378874 -38.488934 66.859471
21.439574 -22.499336 72.651615
22.01298 -21.376777 72.66275
16.248545 -22.308681 72.287994
15.973854 -21.111966 72.230103
15.325661 -22.084461 72.046539
17.200578 -22.51238 72.487938
16.248545 -22.308681 72.287994
16.552386 -23.484876 72.304374
18.138886 -22.704381 72.636582
17.200578 -22.51238 72.487938
19.056134 -22.966909 72.716888
18.138886 -22.704381 72.636582
18.421667 -23.951104 72.584625
19.941278 -23.264028 72.73122
19.056134 -22.966909 72.716888
20.808361 -23.523268 72.670333
19.941278 -23.264028 72.73122
20.205998 -24.472873 72.604045
21.704293 -23.708181 72.52444
21.439574 -22.499336 72.651615
20.808361 -23.523268 72.670333
-20.011888 -10.636904 46.856348
-19.586473 -11.62225 47.231036
-19.182954 -11.095187 47.809502
-20.76326 -10.11568 45.976117
-20.011888 -10.636904 46.856348
-20.359741 -9.588616 46.554583
-21.522697 -9.676579 45.093279
-20.76326 -10.11568 45.976117
-21.865939 -8.628239 44.766596
-22.277523 -9.237426 44.185524
-21.522697 -9.676579 45.093279
-15.960758 -1.87702 50.56036
-15.184106 -2.252393 51.401331
-16.44432 -2.311749 50.183716
-15.960758 -1.87702 50.56036
-16.789164 -1.389884 49.61845
-17.985511 1.133424 47.707234
-17.237689 0.621912 48.62006
-18.749923 1.625186 46.758465
-19.497327 2.129094 45.80961
-18.501099 0.629856 47.304123
-17.985511 1.133424 47.707234
-18.749923 1.625186 46.758465
-21.943811 2.147887 43.056261
-21.207267 1.654805 44.03937
-22.460589 1.644921 42.603348
-21.943811 2.147887 43.056261
-22.69254 2.656424 42.0469
-25.6566 4.708804 37.948139
-25.432644 3.699464 38.524824
-24.913358 4.255486 38.965941
-26.374152 5.18996 36.934772
-25.6566 4.708804 37.948139
-4.420917 -21.626678 60.970113
-4.089231 -22.650852 61.034065
-3.439376 -22.114473 61.704531
-4.420917 -21.626678 60.970113
-4.751413 -20.646344 60.907757
0.795095 -11.39042 64.672779
1.890551 -11.568475 65.323021
1.348838 -10.622997 64.902111
-6.213418 -19.204518 59.943455
-5.169946 -19.532327 60.743012
-5.651598 -18.534458 60.511532
-6.213418 -19.204518 59.943455
-7.168325 -18.807077 59.178507
-10.027322 -17.54448 56.783008
-9.085536 -17.93556 57.596994
-9.550623 -16.920253 57.371393
-10.027322 -17.54448 56.783008
-10.925655 -17.178514 55.958396
-13.497054 -15.813675 53.555382
-12.648004 -16.319254 54.360205
-13.056978 -15.274698 54.172827
-13.497054 -15.813675 53.555382
-14.292651 -15.372007 52.767185
-16.795381 -14.062724 50.131031
-15.976679 -14.494305 51.014581
-16.392782 -13.453435 50.778413
-16.795381 -14.062724 50.131031
-17.631767 -13.590342 49.223526
14.635716 -19.702649 71.839115
15.622386 -19.899871 72.147708
13.587191 -19.421995 71.477551
12.517695 -19.239211 71.06765
14.002444 -20.607093 71.627083
14.635716 -19.702649 71.839115
13.587191 -19.421995 71.477551
28.052703 -34.947374 53.506332
27.994488 -35.173811 54.75379
-26.002949 -8.952603 39.677637
-25.279997 -9.287232 40.524184
-25.66225 -8.241115 40.144875
-26.400849 -9.667164 39.184233
-26.002949 -8.952603 39.677637
-26.783101 -8.621047 38.804924
-26.706997 -10.393915 38.73687
-26.400849 -9.667164 39.184233
-27.502437 -10.059494 37.895897
-26.706997 -10.393915 38.73687
-28.2404 -9.662714 37.075588
-27.502437 -10.059494 37.895897
-27.918962 -8.938828 37.491211
-29.03086 -9.343263 36.23809
-28.2404 -9.662714 37.075588
-29.431061 -8.263537 35.799387
-29.076478 -7.51738 36.17127
-29.850614 -7.238868 35.299755
-29.03086 -9.343263 36.23809
-29.431061 -8.263537 35.799387
-31.841905 3.573684 30.824876
-31.295343 4.232156 31.285191
-31.598072 2.538778 31.454015
-31.841905 3.573684 30.824876
-32.312349 2.855266 30.459696
-32.550427 1.03859 30.697546
-32.806452 2.09965 30.06499
-33.288362 1.31788 29.673701
-30.953243 -4.116904 33.731188
-30.518423 -3.386633 34.129559
-31.295262 -3.130943 33.172956
-30.594517 -5.123121 34.28017
-30.953243 -4.116904 33.731188
-32.057386 -2.850528 32.191921
-32.831963 -2.671059 31.216318
10.920174 -47.653132 64.655129
11.816755 -48.200737 64.838345
11.582074 -46.880437 65.391697
10.920174 -47.653132 64.655129
10.052255 -47.169664 64.369259
4.463303 -30.964576 66.024906
5.458411 -31.453782 66.612488
5.199354 -30.283596 66.67165
3.756741 -31.759229 65.305031
4.463303 -30.964576 66.024906
3.497684 -30.589043 65.364193
3.04128 -32.494847 64.555344
3.756741 -31.759229 65.305031
2.121487 -32.138339 63.849026
1.932581 -30.949787 64.034786
1.262946 -31.70443 63.239494
3.04128 -32.494847 64.555344
2.121487 -32.138339 63.849026
-5.34733 -27.49148 58.12083
-4.880252 -26.748803 58.946731
-4.970117 -28.518709 58.062977
-5.34733 -27.49148 58.12083
-4.130951 -29.068025 58.785145
-4.970117 -28.518709 58.062977
28.201291 -26.745847 53.229622
28.15407 -26.504086 52.068813
28.155818 -28.24918 53.706978
28.201291 -26.745847 53.229622
28.13393 -29.77559 54.118257
28.109025 -29.477002 52.918951
28.155818 -28.24918 53.706978
28.08367 -31.182791 54.539
28.13393 -29.77559 54.118257
28.130463 -29.954968 55.327026
22.825711 -21.542645 72.450615
23.036009 -22.86138 72.226959
27.376266 -27.780448 65.746482
27.345473 -29.089628 65.122203
27.987075 -30.322317 60.122273
27.888065 -30.395823 61.32333
28.072014 -30.281338 58.900982
27.987075 -30.322317 60.122273
27.930497 -31.578455 59.403889
28.103721 -30.20119 57.663974
28.072014 -30.281338 58.900982
28.04782 -31.449823 56.965183
28.136105 -30.113537 56.446559
28.103721 -30.20119 57.663974
27.947411 -35.391622 55.954411
27.994488 -35.173811 54.75379
27.990822 -33.962552 55.556193
27.85575 -36.676626 56.377945
27.947411 -35.391622 55.954411
27.852085 -35.465367 57.180347
27.779088 -37.917938 56.852909
27.85575 -36.676626 56.377945
27.629848 -38.061979 57.984625
27.625346 -36.798898 58.6894
27.49477 -38.110508 59.070143
27.779088 -37.917938 56.852909
27.629848 -38.061979 57.984625
26.556758 -40.384095 62.0385
26.19464 -40.305229 63.04249
26.231794 -41.444859 62.356575
26.844893 -40.308443 61.01395
26.80774 -39.168814 61.699866
26.556758 -40.384095 62.0385
27.112949 -40.378569 59.970274
26.844893 -40.308443 61.01395
22.943624 -44.04754 66.145504
22.231552 -43.800424 66.765777
22.375142 -45.094303 66.067951
23.57364 -44.353499 65.400677
23.43005 -43.05962 66.098503
22.943624 -44.04754 66.145504
24.133419 -44.628158 64.674227
23.57364 -44.353499 65.400677
28.056413 -33.55055 53.063553
28.052703 -34.947374 53.506332
3 0 87 85
3 0 90 88
3 0 85 90
3 1 342 344
3 344 343 92
3 342 343 344
3 2 96 94
3 345 98 346
3 2 101 99
3 2 94 101
3 3 105 103
3 4 347 348
3 5 109 107
3 5 111 109
3 5 113 111
3 4 116 114
3 4 349 351
3 351 350 116
3 349 350 351
3 7 119 117
3 8 352 353
3 10 122 120
3 10 124 122
3 10 126 124
3 7 129 127
3 7 117 129
3 12 133 131
3 14 136 134
3 14 138 136
3 15 141 139
3 17 144 142
3 17 146 144
3 6 149 147
3 18 152 150
3 18 154 152
3 18 156 154
3 12 159 157
3 12 131 159
3 15 162 161
3 15 139 162
3 13 165 164
3 19 168 166
3 19 170 168
3 354 173 355
3 356 355 171
3 354 355 356
3 357 175 358
3 361 360 175
3 359 360 361
3 16 178 176
3 363 362 179
3 9 364 365
3 20 182 181
3 20 184 182
3 20 186 184
3 21 366 368
3 368 367 187
3 366 367 368
3 21 369 370
3 11 191 189
3 22 195 193
3 23 371 373
3 373 372 86
3 371 372 373
3 23 374 375
3 24 198 196
3 26 199 89
3 26 200 199
3 26 202 200
3 22 203 91
3 22 193 203
3 28 376 378
3 376 204 377
3 376 377 378
3 380 379 93
3 29 207 205
3 31 208 95
3 31 209 208
3 32 212 210
3 34 213 97
3 34 214 213
3 35 217 215
3 37 218 100
3 37 219 218
3 37 221 219
3 29 222 102
3 29 205 222
3 32 381 382
3 32 383 385
3 383 210 384
3 383 384 385
3 39 225 223
3 41 226 104
3 41 227 226
3 42 230 228
3 386 231 387
3 388 387 106
3 386 387 388
3 389 232 390
3 391 390 231
3 389 390 391
3 44 234 233
3 45 235 108
3 45 392 394
3 394 393 235
3 392 393 394
3 45 395 397
3 395 236 396
3 395 396 397
3 47 237 110
3 47 238 237
3 47 240 238
3 49 241 112
3 49 242 241
3 50 245 243
3 52 246 115
3 52 398 400
3 400 399 246
3 398 399 400
3 52 401 402
3 404 403 247
3 405 250 406
3 407 251 408
3 409 252 410
3 411 410 251
3 409 410 411
3 412 253 413
3 414 254 415
3 416 415 253
3 414 415 416
3 417 255 418
3 419 247 420
3 421 420 255
3 419 420 421
3 422 258 423
3 424 423 256
3 422 423 424
3 425 259 426
3 428 427 259
3 55 262 260
3 430 429 118
3 432 431 194
3 25 263 197
3 56 264 121
3 56 265 264
3 56 266 265
3 57 267 123
3 57 268 267
3 57 270 268
3 59 271 125
3 59 272 271
3 27 273 201
3 60 274 128
3 60 275 274
3 60 276 275
3 55 277 130
3 55 260 277
3 61 433 434
3 62 278 132
3 62 279 278
3 30 280 206
3 63 281 135
3 63 282 281
3 63 283 282
3 64 284 137
3 64 285 284
3 435 286 436
3 437 436 248
3 435 436 437
3 65 438 440
3 438 287 439
3 438 439 440
3 65 288 287
3 441 289 442
3 443 290 444
3 445 444 289
3 443 444 445
3 446 291 447
3 448 447 290
3 446 447 448
3 449 292 450
3 451 293 452
3 453 452 292
3 451 452 453
3 455 454 293
3 66 296 294
3 68 297 140
3 68 298 297
3 33 299 211
3 69 300 143
3 69 301 300
3 69 302 301
3 70 303 145
3 70 456 458
3 458 457 303
3 456 457 458
3 53 304 249
3 71 305 148
3 71 306 305
3 36 307 216
3 72 308 151
3 72 309 308
3 72 310 309
3 73 311 153
3 73 459 461
3 461 460 311
3 459 460 461
3 73 462 463
3 74 464 466
3 466 465 155
3 464 465 466
3 74 467 468
3 38 312 220
3 75 313 158
3 75 469 471
3 471 470 313
3 469 470 471
3 75 472 473
3 61 474 476
3 476 475 160
3 474 475 476
3 61 477 478
3 76 479 480
3 76 481 483
3 481 314 482
3 481 482 483
3 76 315 314
3 66 316 163
3 66 294 316
3 77 484 485
3 77 486 487
3 40 317 224
3 78 318 167
3 78 319 318
3 78 320 319
3 489 488 169
3 54 321 257
3 79 322 172
3 79 323 322
3 490 324 491
3 80 325 174
3 80 326 325
3 80 492 494
3 494 493 326
3 492 493 494
3 496 495 261
3 67 327 295
3 81 328 177
3 81 329 328
3 43 330 229
3 497 331 498
3 499 498 180
3 497 498 499
3 501 500 331
3 502 332 503
3 46 504 505
3 82 333 183
3 82 334 333
3 82 335 334
3 83 506 508
3 508 507 185
3 506 507 508
3 83 509 510
3 48 336 239
3 512 511 188
3 58 337 269
3 84 338 190
3 84 339 338
3 51 340 244
3 513 341 514
3 515 514 192
3 513 514 515
3 517 516 341
3 85 86 22
3 87 86 85
3 87 23 86
3 88 89 24
3 90 89 88
3 90 26 89
3 90 91 26
3 85 91 90
3 85 22 91
3 92 93 28
3 518 93 519
3 520 519 92
3 518 519 520
3 522 521 93
3 94 95 29
3 96 95 94
3 96 31 95
3 523 97 524
3 525 524 32
3 523 524 525
3 98 526 528
3 526 97 527
3 526 527 528
3 98 34 97
3 99 100 35
3 101 100 99
3 101 37 100
3 101 102 37
3 94 102 101
3 94 29 102
3 529 32 530
3 103 104 39
3 105 104 103
3 105 41 104
3 531 106 532
3 533 532 42
3 531 532 533
3 534 106 535
3 537 536 106
3 107 108 44
3 109 108 107
3 109 45 108
3 109 110 45
3 111 110 109
3 111 47 110
3 111 112 47
3 113 112 111
3 113 49 112
3 114 115 50
3 116 115 114
3 116 52 115
3 116 538 540
3 540 539 52
3 538 539 540
3 542 541 116
3 117 118 55
3 119 118 117
3 119 543 545
3 545 544 118
3 543 544 545
3 120 121 25
3 122 121 120
3 122 56 121
3 122 123 56
3 124 123 122
3 124 57 123
3 124 125 57
3 126 125 124
3 126 59 125
3 127 128 27
3 129 128 127
3 129 60 128
3 129 130 60
3 117 130 129
3 117 55 130
3 131 132 61
3 133 132 131
3 133 62 132
3 134 135 30
3 136 135 134
3 136 63 135
3 136 137 63
3 138 137 136
3 138 64 137
3 546 65 547
3 139 140 66
3 141 140 139
3 141 68 140
3 142 143 33
3 144 143 142
3 144 69 143
3 144 145 69
3 146 145 144
3 146 70 145
3 147 148 53
3 149 148 147
3 149 71 148
3 150 151 36
3 152 151 150
3 152 72 151
3 152 153 72
3 154 153 152
3 154 73 153
3 154 155 73
3 156 155 154
3 156 74 155
3 157 158 38
3 159 158 157
3 159 75 158
3 159 160 75
3 131 160 159
3 131 61 160
3 161 548 549
3 162 550 552
3 552 551 161
3 550 551 552
3 162 553 555
3 553 76 554
3 553 554 555
3 162 163 76
3 139 163 162
3 139 66 163
3 164 556 557
3 165 558 560
3 560 559 164
3 558 559 560
3 165 561 563
3 561 77 562
3 561 562 563
3 166 167 40
3 168 167 166
3 168 78 167
3 168 169 78
3 170 169 168
3 170 564 566
3 566 565 169
3 564 565 566
3 171 172 54
3 173 172 171
3 173 79 172
3 567 174 568
3 175 569 571
3 569 174 570
3 569 570 571
3 175 80 174
3 175 572 574
3 574 573 80
3 572 573 574
3 576 575 175
3 176 177 67
3 178 177 176
3 178 81 177
3 179 180 43
3 577 180 578
3 579 578 179
3 577 578 579
3 581 580 180
3 181 582 584
3 584 583 46
3 582 583 584
3 182 585 587
3 587 586 181
3 585 586 587
3 182 588 589
3 182 590 592
3 590 183 591
3 590 591 592
3 184 183 182
3 184 82 183
3 184 185 82
3 186 185 184
3 186 83 185
3 187 188 48
3 593 188 594
3 595 594 187
3 593 594 595
3 597 596 188
3 189 190 58
3 191 190 189
3 191 84 190
3 598 192 599
3 600 599 51
3 598 599 600
3 601 192 602
3 604 603 192
3 193 194 7
3 195 194 193
3 195 605 607
3 607 606 194
3 605 606 607
3 86 195 22
3 608 195 609
3 610 609 86
3 608 609 610
3 612 611 195
3 196 197 8
3 198 197 196
3 198 25 197
3 89 198 24
3 199 198 89
3 199 25 198
3 199 120 25
3 200 120 199
3 200 10 120
3 200 201 10
3 202 201 200
3 202 27 201
3 91 202 26
3 203 202 91
3 203 27 202
3 203 127 27
3 193 127 203
3 193 7 127
3 204 613 614
3 204 615 617
3 615 616 617
3 93 204 28
3 618 204 619
3 620 619 93
3 618 619 620
3 622 621 204
3 205 206 12
3 207 206 205
3 207 30 206
3 95 207 29
3 208 207 95
3 208 30 207
3 208 134 30
3 209 134 208
3 209 14 134
3 210 211 15
3 212 211 210
3 212 33 211
3 97 212 32
3 213 212 97
3 213 33 212
3 213 142 33
3 214 142 213
3 214 17 142
3 215 216 6
3 217 216 215
3 217 36 216
3 100 217 35
3 218 217 100
3 218 36 217
3 218 150 36
3 219 150 218
3 219 18 150
3 219 220 18
3 221 220 219
3 221 38 220
3 102 221 37
3 222 221 102
3 222 38 221
3 222 157 38
3 205 157 222
3 205 12 157
3 623 161 624
3 210 625 627
3 625 161 626
3 625 626 627
3 210 15 161
3 223 224 13
3 225 224 223
3 225 40 224
3 104 225 39
3 226 225 104
3 226 40 225
3 226 166 40
3 227 166 226
3 227 19 166
3 228 229 16
3 230 229 228
3 230 43 229
3 106 230 42
3 231 230 106
3 231 43 230
3 231 179 43
3 232 179 231
3 232 628 630
3 630 629 179
3 628 629 630
3 233 631 633
3 633 632 9
3 631 632 633
3 234 634 636
3 636 635 233
3 634 635 636
3 234 637 638
3 108 234 44
3 235 234 108
3 235 639 641
3 641 640 234
3 639 640 641
3 235 642 643
3 645 644 235
3 236 646 647
3 236 648 650
3 648 46 649
3 648 649 650
3 110 236 45
3 237 236 110
3 237 46 236
3 237 181 46
3 238 181 237
3 238 20 181
3 238 239 20
3 240 239 238
3 240 48 239
3 112 240 47
3 241 240 112
3 241 48 240
3 241 187 48
3 242 187 241
3 242 21 187
3 243 244 11
3 245 244 243
3 245 51 244
3 115 245 50
3 246 245 115
3 246 51 245
3 246 651 653
3 653 652 51
3 651 652 653
3 655 654 246
3 657 656 52
3 247 248 2
3 658 248 659
3 660 659 247
3 658 659 660
3 662 661 248
3 663 249 664
3 250 665 667
3 665 249 666
3 665 666 667
3 250 53 249
3 668 250 669
3 251 670 672
3 670 250 671
3 670 671 672
3 251 53 250
3 251 147 53
3 252 147 251
3 252 6 147
3 673 252 674
3 253 675 677
3 675 252 676
3 675 676 677
3 253 6 252
3 253 215 6
3 254 215 253
3 254 35 215
3 678 254 679
3 255 680 682
3 680 254 681
3 680 681 682
3 255 35 254
3 255 99 35
3 247 99 255
3 247 2 99
3 256 257 3
3 258 257 256
3 258 54 257
3 683 258 684
3 683 684 685
3 259 686 688
3 686 258 687
3 686 687 688
3 259 54 258
3 259 171 54
3 689 171 690
3 691 690 259
3 689 690 691
3 693 692 171
3 260 261 4
3 262 261 260
3 262 694 696
3 696 695 261
3 694 695 696
3 118 262 55
3 697 262 698
3 699 698 118
3 697 698 699
3 701 700 262
3 194 119 7
3 702 119 703
3 704 703 194
3 702 703 704
3 706 705 119
3 707 9 708
3 197 709 711
3 711 710 8
3 709 710 711
3 263 712 714
3 714 713 197
3 712 713 714
3 263 715 716
3 121 263 25
3 264 263 121
3 264 717 719
3 719 718 263
3 717 718 719
3 264 720 721
3 265 722 724
3 724 723 264
3 722 723 724
3 265 725 727
3 725 9 726
3 725 726 727
3 265 233 9
3 266 233 265
3 266 44 233
3 123 266 56
3 267 266 123
3 267 44 266
3 267 107 44
3 268 107 267
3 268 5 107
3 268 269 5
3 270 269 268
3 270 58 269
3 125 270 57
3 271 270 125
3 271 58 270
3 271 189 58
3 272 189 271
3 272 11 189
3 201 126 10
3 273 126 201
3 273 59 126
3 128 273 27
3 274 273 128
3 274 59 273
3 274 272 59
3 275 272 274
3 275 11 272
3 275 243 11
3 276 243 275
3 276 50 243
3 130 276 60
3 277 276 130
3 277 50 276
3 277 114 50
3 260 114 277
3 260 4 114
3 132 728 730
3 730 729 61
3 728 729 730
3 278 731 733
3 733 732 132
3 731 732 733
3 278 734 735
3 278 736 738
3 736 164 737
3 736 737 738
3 279 164 278
3 279 13 164
3 206 133 12
3 280 133 206
3 280 62 133
3 135 280 30
3 281 280 135
3 281 62 280
3 281 279 62
3 282 279 281
3 282 13 279
3 282 223 13
3 283 223 282
3 283 39 223
3 137 283 63
3 284 283 137
3 284 39 283
3 284 103 39
3 285 103 284
3 285 3 103
3 248 96 2
3 286 96 248
3 286 31 96
3 739 286 740
3 287 741 743
3 741 286 742
3 741 742 743
3 287 31 286
3 287 209 31
3 288 209 287
3 288 14 209
3 744 65 745
3 289 746 747
3 289 748 750
3 748 65 749
3 748 749 750
3 289 288 65
3 290 288 289
3 290 14 288
3 290 138 14
3 291 138 290
3 291 64 138
3 751 291 752
3 292 753 755
3 753 291 754
3 753 754 755
3 292 64 291
3 292 285 64
3 293 285 292
3 293 3 285
3 293 256 3
3 756 256 757
3 758 757 293
3 756 757 758
3 760 759 256
3 294 295 0
3 296 295 294
3 296 67 295
3 140 296 66
3 297 296 140
3 297 67 296
3 297 176 67
3 298 176 297
3 298 16 176
3 211 141 15
3 299 141 211
3 299 68 141
3 143 299 33
3 300 299 143
3 300 68 299
3 300 298 68
3 301 298 300
3 301 16 298
3 301 228 16
3 302 228 301
3 302 42 228
3 145 302 69
3 303 302 145
3 303 42 302
3 303 761 763
3 763 762 42
3 761 762 763
3 765 764 303
3 249 766 768
3 766 98 767
3 766 767 768
3 304 98 249
3 304 34 98
3 148 304 53
3 305 304 148
3 305 34 304
3 305 214 34
3 306 214 305
3 306 17 214
3 216 149 6
3 307 149 216
3 307 71 149
3 151 307 36
3 308 307 151
3 308 71 307
3 308 306 71
3 309 306 308
3 309 17 306
3 309 146 17
3 310 146 309
3 310 70 146
3 153 310 72
3 311 310 153
3 311 70 310
3 311 769 771
3 771 770 70
3 769 770 771
3 773 772 311
3 155 774 776
3 776 775 73
3 774 775 776
3 778 777 155
3 220 156 18
3 312 156 220
3 312 74 156
3 158 312 38
3 313 312 158
3 313 74 312
3 313 779 781
3 781 780 74
3 779 780 781
3 783 782 313
3 160 784 786
3 786 785 75
3 784 785 786
3 788 787 160
3 789 8 790
3 314 791 792
3 314 793 795
3 793 8 794
3 793 794 795
3 314 196 8
3 315 196 314
3 315 24 196
3 163 315 76
3 316 315 163
3 316 24 315
3 316 88 24
3 294 88 316
3 294 0 88
3 797 796 1
3 224 165 13
3 317 165 224
3 317 77 165
3 167 317 40
3 318 317 167
3 318 77 317
3 318 798 800
3 800 799 77
3 798 799 800
3 319 801 803
3 803 802 318
3 801 802 803
3 319 804 805
3 319 806 807
3 320 808 810
3 810 809 319
3 808 809 810
3 320 811 812
3 169 320 78
3 813 320 814
3 815 814 169
3 813 814 815
3 817 816 320
3 257 105 3
3 321 105 257
3 321 41 105
3 172 321 54
3 322 321 172
3 322 41 321
3 322 227 41
3 323 227 322
3 323 19 227
3 818 173 819
3 324 820 822
3 820 173 821
3 820 821 822
3 324 79 173
3 174 823 825
3 823 324 824
3 823 824 825
3 325 324 174
3 325 79 324
3 325 323 79
3 326 323 325
3 326 19 323
3 326 170 19
3 826 170 827
3 828 827 326
3 826 827 828
3 830 829 170
3 832 831 80
3 261 833 835
3 835 834 4
3 833 834 835
3 837 836 261
3 295 87 0
3 327 87 295
3 327 23 87
3 177 327 67
3 328 327 177
3 328 23 327
3 328 838 840
3 840 839 23
3 838 839 840
3 329 841 843
3 843 842 328
3 841 842 843
3 329 844 845
3 229 178 16
3 330 178 229
3 330 81 178
3 180 330 43
3 331 330 180
3 331 81 330
3 331 329 81
3 846 329 847
3 848 847 331
3 846 847 848
3 850 849 329
3 851 232 852
3 853 232 854
3 856 855 232
3 857 28 858
3 859 28 860
3 861 92 862
3 863 862 28
3 861 862 863
3 332 864 866
3 864 92 865
3 864 865 866
3 332 1 92
3 868 867 9
3 870 869 46
3 183 871 872
3 333 873 875
3 875 874 183
3 873 874 875
3 333 876 877
3 333 878 880
3 878 332 879
3 878 879 880
3 334 332 333
3 334 1 332
3 334 881 883
3 883 882 1
3 881 882 883
3 335 884 886
3 886 885 334
3 884 885 886
3 335 887 888
3 185 335 82
3 889 335 890
3 891 890 185
3 889 890 891
3 893 892 335
3 239 186 20
3 336 186 239
3 336 83 186
3 188 336 48
3 894 336 895
3 896 895 188
3 894 895 896
3 897 83 898
3 899 898 336
3 897 898 899
3 901 900 83
3 269 113 5
3 337 113 269
3 337 49 113
3 190 337 58
3 338 337 190
3 338 49 337
3 338 242 49
3 339 242 338
3 339 21 242
3 244 191 11
3 340 191 244
3 340 84 191
3 192 340 51
3 341 340 192
3 341 84 340
3 341 339 84
3 902 339 903
3 904 903 341
3 902 903 904
3 905 21 906
3 907 906 339
3 905 906 907
3 909 908 21
3 911 910 1
