ply
format ascii 1.0
element vertex 405
property float x
property float y
property float z
element face 432
property list uchar int vertex_index
end_header
25.445385 7.587471 64.112534
42.060555 9.645266 60.409027
48.454414 9.121408 53.820717
28.84304 19.897362 61.44178
37.016335 20.778332 61.015808
33.732109 8.571697 62.718834
42.493549 23.39209 37.610298
42.665787 19.714642 55.656502
45.536674 16.442116 46.387421
24.887285 19.6078 61.949722
27.018826 13.636684 62.546623
31.167946 14.071674 62.299515
29.411558 7.938459 63.082924
39.393333 14.976948 60.995399
40.31358 20.617443 59.062683
42.703201 14.813931 58.527649
47.420082 12.917963 50.42662
47.253506 15.022583 41.450905
28.126638 2.212547 64.94043
45.517693 9.593935 57.612015
26.421553 25.757256 59.98983
30.532089 26.198605 59.955452
34.604614 26.655514 59.894485
33.037827 20.406841 61.547142
35.433556 14.630371 62.115471
38.061451 9.240513 62.049919
44.200832 21.528297 32.852707
38.135414 26.645126 58.667984
40.682606 25.82151 55.858452
42.12991 24.169994 51.770729
45.288956 14.053318 54.865814
44.225452 18.181366 51.252205
42.856529 22.017525 46.988487
43.617153 19.879238 42.003551
24.342346 10.507118 63.981026
25.107082 13.534687 63.053246
26.17923 10.576418 63.218811
28.159586 10.731396 62.79921
27.364857 7.719124 63.455902
40.687252 12.235186 60.729874
41.142475 14.971249 59.93045
42.462978 12.246794 59.563087
26.810537 19.710415 61.542854
25.673599 22.68066 60.999557
27.660173 22.830963 60.775276
28.452446 25.948433 59.891014
29.726255 23.05685 60.789062
31.818924 23.319065 60.876976
30.937237 20.143356 61.499069
32.400505 11.256781 62.530914
33.312431 14.355206 62.272522
34.569374 11.57016 62.40609
36.704651 11.864759 62.117981
35.918209 8.921202 62.475563
30.187294 2.503899 64.399666
43.17099 22.404484 35.21022
35.841434 23.734074 60.615433
36.469479 26.736687 59.473312
37.64431 23.772091 60.01326
41.609318 20.260132 57.518997
40.561104 23.292591 57.61264
41.62273 22.743225 55.859398
41.531826 25.085781 53.938805
42.43409 22.003372 53.818817
47.040382 9.397299 55.82254
45.526382 11.861609 56.343613
46.849564 11.494452 54.369156
46.538521 14.70322 48.47187
45.697929 15.437927 50.864914
44.869659 17.303097 48.848297
43.535149 20.129368 49.176231
43.99577 19.121784 46.709709
43.179752 20.914165 44.49868
44.525459 18.159893 44.216599
24.099789 16.549919 62.909103
25.944059 16.606846 62.271255
27.923649 16.749847 61.992554
29.997993 16.967148 61.95034
29.053495 13.821472 62.340187
30.247894 10.965687 62.615204
31.548195 8.231886 62.880241
42.102604 24.490269 40.044384
38.181889 17.840572 61.120491
38.774578 20.784012 60.235352
39.921906 17.831512 60.182976
41.453659 17.65897 58.876495
42.767342 17.312225 57.232986
48.083511 11.062717 52.215988
48.456757 12.352701 48.051544
47.430187 14.024017 46.031944
46.308647 15.665207 43.912109
26.701042 4.806356 64.411964
43.861469 9.680798 59.150558
23.80905 22.624779 61.58931
24.487226 25.658752 60.399529
25.117636 28.68631 59.145424
27.103668 28.818836 58.867683
32.603699 26.455185 60.01152
33.878502 23.564423 60.8685
35.084728 20.636425 61.42765
32.117325 17.229465 61.989311
34.226311 17.494793 61.949562
36.266846 17.714577 61.692757
37.477238 14.851864 61.714027
38.75795 12.09877 61.576454
40.120163 9.492043 61.373039
28.698774 5.013664 63.830154
30.801939 5.30711 63.467056
32.972836 5.665373 63.210632
35.170864 6.05575 62.944351
37.354927 6.440212 62.564438
39.485764 6.781269 61.99115
41.528957 7.046841 61.172867
36.96545 29.592651 58.008316
38.499153 29.350628 57.007095
39.230667 23.633774 59.01152
39.550079 26.344578 57.454491
39.75787 28.878872 55.608864
40.719944 28.178947 53.857407
41.394997 27.275967 51.821358
41.826408 26.214951 49.577492
44.073242 12.120636 58.089844
44.076965 14.502029 56.822418
43.880363 16.80154 55.306915
46.384239 13.506577 52.715057
44.836189 16.159325 53.162712
43.517384 19.006199 53.543648
43.045822 21.112816 51.566811
42.541443 23.125759 49.431091
42.08939 25.054958 47.19812
42.283432 23.861576 44.74411
42.520878 22.698425 42.262932
42.913288 21.618591 39.789413
45.213898 17.303249 41.732243
44.263325 18.961166 39.531525
43.557697 20.657177 37.34655
44.524334 19.826729 34.945381
24.893866 9.047294 64.04678
24.011343 9.023332 64.555237
24.562863 7.563508 64.620991
42.450243 24.300736 36.552796
42.237859 24.847517 37.743485
42.83227 22.898287 36.410259
42.788964 23.806933 35.352756
42.450243 24.300736 36.552796
23.724964 15.032415 63.430419
23.258131 16.560434 63.441139
42.001724 25.084052 41.268656
41.93794 25.986655 40.160007
49.002922 12.112733 46.841837
49.46357 11.294481 47.809507
48.489638 12.948391 45.832037
47.943472 13.188359 47.041744
49.002922 12.112733 46.841837
47.932741 13.741421 44.806602
48.489638 12.948391 45.832037
24.348167 21.11629 61.769516
23.458755 21.109468 62.175815
23.997873 19.600979 62.356021
29.846093 27.616351 59.396705
28.806272 27.491264 59.364486
29.492267 26.073519 59.923233
30.883851 27.741352 59.425808
29.846093 27.616351 59.396705
31.567894 26.326895 59.983486
31.919656 27.869642 59.453842
30.883851 27.741352 59.425808
31.563514 4.090516 63.73798
30.494616 3.905505 63.933361
31.256191 2.68891 64.204285
32.648962 4.269647 63.609768
31.887388 5.486242 63.338844
31.563514 4.090516 63.73798
35.927145 4.891191 63.103153
34.836922 4.674722 63.303826
37.019177 5.083423 62.913196
36.262895 6.247981 62.754395
35.927145 4.891191 63.103153
40.19867 5.633554 61.984241
39.158101 5.458182 62.355808
41.220266 5.766341 61.5751
40.507361 6.914055 61.582009
40.19867 5.633554 61.984241
42.214645 5.900367 61.083774
41.220266 5.766341 61.5751
44.22554 22.412492 31.849391
43.672079 22.869276 33.001095
44.903423 21.136663 31.692843
44.928131 22.020858 30.689526
44.22554 22.412492 31.849391
34.903689 28.142115 59.253117
33.937876 28.080319 59.382908
44.72678 18.573309 38.31465
45.197789 17.775804 39.40466
44.373966 19.421315 37.222162
43.910511 19.809171 38.439037
44.72678 18.573309 38.31465
44.857285 19.00609 36.021578
44.041016 20.241953 36.145966
44.373966 19.421315 37.222162
23.506515 10.509421 64.562382
24.011343 9.023332 64.555237
23.846243 12.011015 63.966381
23.506515 10.509421 64.562382
24.724714 12.020903 63.517136
24.228611 13.5248 63.502491
23.846243 12.011015 63.966381
29.945075 1.171246 65.063663
29.156966 2.358223 64.670048
28.914747 1.02557 65.334046
30.992164 1.358108 64.792797
29.945075 1.171246 65.063663
31.256191 2.68891 64.204285
30.992164 1.358108 64.792797
43.157158 23.30737 34.179851
42.788964 23.806933 35.352756
43.685911 21.96639 34.031464
43.672079 22.869276 33.001095
43.157158 23.30737 34.179851
46.692879 15.806513 40.36435
47.835778 14.779833 40.23423
23.604125 18.072038 62.835712
23.258131 16.560434 63.441139
24.493537 18.07886 62.429412
23.997873 19.600979 62.356021
23.604125 18.072038 62.835712
24.603435 15.042303 62.981175
23.724964 15.032415 63.430419
24.228611 13.5248 63.502491
42.042387 25.396607 38.960527
41.93794 25.986655 40.160007
42.298077 23.94118 38.827341
42.237859 24.847517 37.743485
42.042387 25.396607 38.960527
48.938335 9.937404 51.933094
48.268963 10.092063 53.018353
49.123787 8.96675 52.735459
48.679348 10.843 51.074791
48.938335 9.937404 51.933094
48.347634 11.770623 50.180107
47.751796 11.99034 51.321304
48.679348 10.843 51.074791
48.865971 11.487992 48.992569
49.46357 11.294481 47.809507
47.93842 12.635332 49.239082
48.347634 11.770623 50.180107
48.865971 11.487992 48.992569
47.371971 14.562016 43.746685
46.869417 14.844612 44.972026
47.932741 13.741421 44.806602
47.844401 14.240703 42.516083
46.781076 15.343895 42.681507
47.371971 14.562016 43.746685
48.426741 14.032684 41.296425
47.844401 14.240703 42.516083
47.835778 14.779833 40.23423
48.426741 14.032684 41.296425
25.142614 6.138789 64.706486
24.562863 7.563508 64.620991
25.770442 4.748232 64.856201
26.073214 6.196913 64.262249
25.142614 6.138789 64.706486
26.438947 3.410527 65.067707
25.770442 4.748232 64.856201
27.151744 2.113622 65.33194
27.41384 3.509451 64.676197
26.438947 3.410527 65.067707
27.90609 0.883069 65.689571
27.151744 2.113622 65.33194
28.914747 1.02557 65.334046
27.90609 0.883069 65.689571
43.660049 8.447396 59.617542
42.961012 9.663032 59.779792
42.759592 8.429631 60.246776
44.56101 8.476365 58.93671
43.660049 8.447396 59.617542
45.389122 8.432934 58.167439
44.689581 9.637366 58.381287
44.56101 8.476365 58.93671
46.225728 8.409155 57.356651
45.389122 8.432934 58.167439
46.987072 8.310837 56.461914
46.279038 9.495617 56.717277
46.225728 8.409155 57.356651
47.765066 8.244103 55.534042
46.987072 8.310837 56.461914
48.472082 8.106158 54.53313
47.747398 9.259353 54.821629
47.765066 8.244103 55.534042
49.201904 8.0137 53.505623
48.472082 8.106158 54.53313
49.123787 8.96675 52.735459
49.201904 8.0137 53.505623
22.95104 22.641489 62.100655
23.458755 21.109468 62.175815
23.246356 24.143249 61.402862
22.95104 22.641489 62.100655
23.585444 25.660236 60.807972
23.246356 24.143249 61.402862
24.148138 24.141765 60.994419
23.864436 27.159464 60.095039
23.585444 25.660236 60.807972
24.179641 28.673243 59.467987
23.864436 27.159464 60.095039
24.802431 27.172531 59.772476
24.435734 30.164902 58.724327
24.179641 28.673243 59.467987
25.401874 30.187588 58.469323
24.435734 30.164902 58.724327
26.39489 30.253851 58.330452
25.401874 30.187588 58.469323
26.110652 28.752573 59.006553
27.405214 30.328007 58.234547
26.39489 30.253851 58.330452
28.131882 28.926466 58.852821
27.778057 27.383634 59.379348
28.806272 27.491264 59.364486
27.405214 30.328007 58.234547
28.131882 28.926466 58.852821
32.937418 27.980154 59.441425
31.919656 27.869642 59.453842
33.604157 26.555349 59.953002
33.937876 28.080319 59.382908
32.937418 27.980154 59.441425
33.737908 4.479534 63.436966
32.648962 4.269647 63.609768
34.07185 5.860561 63.077491
33.737908 4.479534 63.436966
34.836922 4.674722 63.303826
38.092682 5.287653 62.642453
37.019177 5.083423 62.913196
38.420346 6.610741 62.277794
38.092682 5.287653 62.642453
39.158101 5.458182 62.355808
42.493793 7.130418 60.628696
42.759592 8.429631 60.246776
41.794756 8.346054 60.790947
42.493793 7.130418 60.628696
42.214645 5.900367 61.083774
35.836121 28.182702 59.04253
34.903689 28.142115 59.253117
35.537047 26.696101 59.683898
36.084106 29.610684 58.310032
35.836121 28.182702 59.04253
36.717464 28.164669 58.740814
36.323572 31.012976 57.525234
36.084106 29.610684 58.310032
37.157207 30.924268 57.134224
36.323572 31.012976 57.525234
37.924059 30.803257 56.633613
37.157207 30.924268 57.134224
37.732301 29.47164 57.507706
38.633619 30.601076 56.046444
37.924059 30.803257 56.633613
39.262977 30.365198 55.347329
38.633619 30.601076 56.046444
39.128512 29.11475 56.30798
39.829195 30.045233 54.574871
39.262977 30.365198 55.347329
40.310232 29.69527 53.699143
39.829195 30.045233 54.574871
40.238907 28.52891 54.733136
40.726461 29.265965 52.769272
40.310232 29.69527 53.699143
41.063988 28.814475 51.751247
40.726461 29.265965 52.769272
41.05747 27.727457 52.839382
41.339151 28.294877 50.699898
41.063988 28.814475 51.751247
41.554857 27.764368 49.577965
41.339151 28.294877 50.699898
41.610703 26.745459 50.699425
41.714562 27.181131 48.441533
41.554857 27.764368 49.577965
41.846052 26.601135 47.251846
41.714562 27.181131 48.441533
41.957899 25.634954 48.387806
41.931376 25.984903 46.062336
41.846052 26.601135 47.251846
42.028396 25.388212 44.835331
41.931376 25.984903 46.062336
42.186411 24.458267 45.971115
42.092138 24.769705 43.618519
42.028396 25.388212 44.835331
42.210862 24.18813 42.37793
42.092138 24.769705 43.618519
42.402155 23.28 43.503521
42.311741 23.594347 41.153658
42.001724 25.084052 41.268656
42.210862 24.18813 42.37793
45.673075 16.946846 40.505018
46.233702 16.162916 41.591574
46.692879 15.806513 40.36435
44.738612 18.132207 40.631884
45.673075 16.946846 40.505018
45.197789 17.775804 39.40466
45.481299 18.688522 34.824672
44.857285 19.00609 36.021578
45.185274 19.471297 33.764721
45.481299 18.688522 34.824672
45.023523 20.32208 32.718384
44.362583 20.677513 33.899044
45.185274 19.471297 33.764721
44.903423 21.136663 31.692843
45.023523 20.32208 32.718384
3 0 137 139
3 137 34 138
3 137 138 139
3 0 36 34
3 0 38 36
3 1 41 39
3 3 44 42
3 3 46 44
3 3 48 46
3 5 51 49
3 5 53 51
3 6 140 141
3 6 142 144
3 142 55 143
3 142 143 144
3 4 58 56
3 7 61 59
3 7 63 61
3 2 66 64
3 8 69 67
3 8 71 69
3 8 73 71
3 145 74 146
3 10 75 35
3 10 76 75
3 10 78 76
3 12 79 37
3 12 80 79
3 147 81 148
3 13 84 82
3 15 85 40
3 15 86 85
3 149 88 150
3 151 89 152
3 153 152 88
3 151 152 153
3 155 154 89
3 9 156 158
3 156 93 157
3 156 157 158
3 20 94 43
3 20 95 94
3 20 96 95
3 21 159 161
3 161 160 45
3 159 160 161
3 21 162 163
3 21 164 166
3 164 97 165
3 164 165 166
3 23 98 47
3 23 99 98
3 11 100 77
3 24 101 50
3 24 102 101
3 24 103 102
3 25 104 52
3 25 105 104
3 18 106 91
3 167 107 168
3 169 168 54
3 167 168 169
3 170 108 171
3 172 171 107
3 170 171 172
3 173 109 174
3 175 110 176
3 177 176 109
3 175 176 177
3 178 111 179
3 180 112 181
3 182 181 111
3 180 181 182
3 184 183 112
3 26 185 186
3 26 187 189
3 187 188 189
3 22 190 191
3 27 113 57
3 27 114 113
3 14 115 83
3 28 116 60
3 28 117 116
3 28 118 117
3 29 119 62
3 29 120 119
3 19 121 92
3 30 122 65
3 30 123 122
3 16 124 87
3 31 125 68
3 31 126 125
3 31 127 126
3 32 128 70
3 32 129 128
3 32 130 129
3 33 131 72
3 33 132 131
3 17 133 90
3 192 134 193
3 194 135 195
3 196 195 134
3 194 195 196
3 197 136 198
3 199 198 135
3 197 198 199
3 34 200 201
3 34 202 203
3 34 204 206
3 204 35 205
3 204 205 206
3 36 35 34
3 36 10 35
3 36 37 10
3 38 37 36
3 38 12 37
3 39 40 13
3 41 40 39
3 41 15 40
3 42 43 9
3 44 43 42
3 44 20 43
3 44 45 20
3 46 45 44
3 46 21 45
3 46 47 21
3 48 47 46
3 48 23 47
3 49 50 11
3 51 50 49
3 51 24 50
3 51 52 24
3 53 52 51
3 53 25 52
3 207 54 208
3 209 208 18
3 207 208 209
3 210 54 211
3 213 212 54
3 55 214 215
3 55 216 218
3 216 26 217
3 216 217 218
3 56 57 22
3 58 57 56
3 58 27 57
3 59 60 14
3 61 60 59
3 61 28 60
3 61 62 28
3 63 62 61
3 63 29 62
3 64 65 19
3 66 65 64
3 66 30 65
3 67 68 16
3 69 68 67
3 69 31 68
3 69 70 31
3 71 70 69
3 71 32 70
3 71 72 32
3 73 72 71
3 73 33 72
3 220 219 17
3 74 221 222
3 74 223 225
3 223 9 224
3 223 224 225
3 35 226 228
3 226 74 227
3 226 227 228
3 75 74 35
3 75 9 74
3 75 42 9
3 76 42 75
3 76 3 42
3 76 77 3
3 78 77 76
3 78 11 77
3 37 78 10
3 79 78 37
3 79 11 78
3 79 49 11
3 80 49 79
3 80 5 49
3 81 229 230
3 81 231 233
3 231 6 232
3 231 232 233
3 82 83 4
3 84 83 82
3 84 14 83
3 40 84 13
3 85 84 40
3 85 14 84
3 85 59 14
3 86 59 85
3 86 7 59
3 234 87 235
3 236 235 2
3 234 235 236
3 237 87 238
3 239 16 240
3 241 240 87
3 239 240 241
3 88 242 243
3 88 244 246
3 244 16 245
3 244 245 246
3 88 67 16
3 89 67 88
3 89 8 67
3 89 90 8
3 247 90 248
3 249 248 89
3 247 248 249
3 250 17 251
3 252 251 90
3 250 251 252
3 253 17 254
3 256 255 17
3 257 0 258
3 259 91 260
3 261 260 0
3 259 260 261
3 262 91 263
3 264 18 265
3 266 265 91
3 264 265 266
3 267 18 268
3 270 269 18
3 271 92 272
3 273 272 1
3 271 272 273
3 274 92 275
3 276 19 277
3 278 277 92
3 276 277 278
3 279 19 280
3 281 64 282
3 283 282 19
3 281 282 283
3 284 64 285
3 286 2 287
3 288 287 64
3 286 287 288
3 289 2 290
3 292 291 2
3 93 293 294
3 93 295 296
3 43 93 9
3 94 93 43
3 94 297 299
3 299 298 93
3 297 298 299
3 94 300 301
3 95 302 304
3 304 303 94
3 302 303 304
3 95 305 306
3 95 307 308
3 96 309 311
3 311 310 95
3 309 310 311
3 96 312 313
3 45 96 20
3 314 96 315
3 316 315 45
3 314 315 316
3 318 317 96
3 97 319 320
3 97 321 323
3 321 22 322
3 321 322 323
3 47 97 21
3 98 97 47
3 98 22 97
3 98 56 22
3 99 56 98
3 99 4 56
3 77 48 3
3 100 48 77
3 100 23 48
3 50 100 11
3 101 100 50
3 101 23 100
3 101 99 23
3 102 99 101
3 102 4 99
3 102 82 4
3 103 82 102
3 103 13 82
3 52 103 24
3 104 103 52
3 104 13 103
3 104 39 13
3 105 39 104
3 105 1 39
3 91 38 0
3 106 38 91
3 106 12 38
3 54 106 18
3 107 106 54
3 107 12 106
3 107 80 12
3 108 80 107
3 108 5 80
3 324 108 325
3 109 326 328
3 326 108 327
3 326 327 328
3 109 5 108
3 109 53 5
3 110 53 109
3 110 25 53
3 329 110 330
3 111 331 333
3 331 110 332
3 331 332 333
3 111 25 110
3 111 105 25
3 112 105 111
3 112 1 105
3 112 334 336
3 336 335 1
3 334 335 336
3 338 337 112
3 57 339 341
3 341 340 22
3 339 340 341
3 113 342 344
3 344 343 57
3 342 343 344
3 113 345 346
3 113 347 348
3 114 349 351
3 351 350 113
3 349 350 351
3 114 352 353
3 83 58 4
3 115 58 83
3 115 27 58
3 60 115 14
3 116 115 60
3 116 27 115
3 116 114 27
3 117 114 116
3 117 354 356
3 356 355 114
3 354 355 356
3 117 357 358
3 118 359 361
3 361 360 117
3 359 360 361
3 118 362 363
3 62 118 28
3 119 118 62
3 119 364 366
3 366 365 118
3 364 365 366
3 119 367 368
3 120 369 371
3 371 370 119
3 369 370 371
3 120 372 373
3 92 41 1
3 121 41 92
3 121 15 41
3 65 121 19
3 122 121 65
3 122 15 121
3 122 86 15
3 123 86 122
3 123 7 86
3 87 66 2
3 124 66 87
3 124 30 66
3 68 124 16
3 125 124 68
3 125 30 124
3 125 123 30
3 126 123 125
3 126 7 123
3 126 63 7
3 127 63 126
3 127 29 63
3 70 127 31
3 128 127 70
3 128 29 127
3 128 120 29
3 129 120 128
3 129 374 376
3 376 375 120
3 374 375 376
3 129 377 378
3 130 379 381
3 381 380 129
3 379 380 381
3 130 382 383
3 72 130 32
3 131 130 72
3 131 384 386
3 386 385 130
3 384 385 386
3 131 387 389
3 387 81 388
3 387 388 389
3 132 81 131
3 132 6 81
3 90 73 8
3 133 73 90
3 133 33 73
3 390 133 391
3 392 391 17
3 390 391 392
3 134 393 395
3 393 133 394
3 393 394 395
3 134 33 133
3 134 132 33
3 135 132 134
3 135 6 132
3 135 55 6
3 136 55 135
3 136 26 55
3 396 136 397
3 398 136 399
3 400 26 401
3 402 401 136
3 400 401 402
3 404 403 26
