ply
format ascii 1.0
element vertex 548
property float x
property float y
property float z
element face 600
property list uchar int vertex_index
end_header
34.883873 -93.958 -23.873701
47.168373 -95.936012 -17.028105
27.14016 -77.567055 -21.449865
18.888882 -66.531219 -16.307661
18.014568 -81.919662 -16.008543
27.700565 -64.132378 -20.990908
41.956993 -96.531685 -22.793245
51.582611 -82.377319 -21.657412
45.985985 -80.676727 -25.463095
39.767792 -76.252441 -27.229063
18.041145 -95.172699 -18.384069
29.223103 -87.831116 -22.990675
23.553223 -65.88163 -18.373224
38.435413 -95.645271 -23.745611
44.025726 -88.799484 -24.040495
40.687157 -87.45845 -24.924772
42.800152 -78.836945 -26.4788
37.428879 -85.355507 -25.304251
22.902317 -80.44017 -18.516497
17.679905 -88.982483 -16.992842
22.866024 -86.820457 -19.456625
23.739681 -92.205353 -20.586348
27.660194 -83.211777 -22.21739
32.286602 -78.409485 -25.147696
30.950947 -73.458336 -24.76779
13.88089 -74.1707 -13.585127
13.011673 -82.076019 -13.529577
18.553921 -74.303482 -15.77622
23.35268 -73.331741 -18.100752
27.392748 -71.091522 -20.966108
30.618229 -67.645546 -24.431555
44.96479 -96.634224 -20.581755
49.298115 -89.407669 -19.402502
47.025299 -89.449944 -22.287771
49.047615 -81.853195 -23.968767
47.975426 -72.281815 -27.335794
45.153889 -101.485725 -14.275841
40.496468 -108.090157 -15.820734
42.833805 -102.994713 -18.506525
32.076988 -101.92276 -22.843378
28.519815 -99.698875 -22.370321
12.396406 -89.651436 -14.42737
12.37595 -96.567963 -16.021334
13.253731 -102.538567 -17.74132
25.662737 -96.488091 -21.596987
31.714642 -91.389351 -23.570326
34.542114 -82.371536 -25.362745
37.058025 -72.817551 -27.719492
53.330784 -82.240067 -18.390947
36.634102 -94.905479 -23.882822
39.586452 -91.615105 -24.301092
37.859211 -90.774292 -24.473577
39.027069 -86.509331 -25.160711
36.189865 -89.72847 -24.529425
25.104557 -79.173645 -19.918341
22.7934 -83.74147 -18.939775
25.095573 -82.296753 -20.323729
25.306238 -85.18589 -20.793375
27.275019 -80.509415 -21.815695
29.384239 -78.412949 -23.384619
29.062609 -75.64801 -23.086309
49.009537 -92.307976 -16.236483
16.426846 -70.410843 -14.944212
16.124401 -74.356552 -14.687838
18.758633 -70.407768 -15.961729
25.742992 -65.151382 -19.589293
23.519411 -69.621437 -18.151075
25.681734 -68.786736 -19.437296
25.492893 -72.371979 -19.448664
27.593935 -67.646004 -20.905737
29.251467 -66.208755 -22.556231
29.388952 -62.828465 -22.589434
43.551384 -96.682106 -21.861994
46.000195 -93.11557 -21.460714
44.587894 -93.012924 -22.593428
45.01218 -84.775925 -24.709955
46.582973 -85.312439 -24.016195
47.556824 -81.34552 -24.79751
50.050468 -77.967712 -24.906805
48.532307 -77.319229 -25.676893
49.525433 -73.233566 -26.681086
46.967228 -76.510818 -26.331205
41.254066 -77.644699 -26.883581
43.855957 -74.401657 -27.441977
42.355591 -73.08313 -27.930246
40.908867 -71.572426 -28.36899
44.101772 -103.759537 -12.717493
41.702961 -105.721817 -17.249205
41.374252 -103.407768 -20.135889
34.013153 -102.685043 -22.881334
15.466092 -82.150627 -14.792923
12.652016 -85.925926 -13.864693
15.185039 -85.902084 -15.178774
17.748615 -92.202904 -17.667299
14.986685 -92.900124 -16.473368
15.170965 -96.070877 -17.262022
12.688587 -99.685547 -16.90291
15.594797 -98.983086 -18.05266
18.587086 -97.87133 -19.085161
26.508459 -90.177406 -21.764605
24.573399 -94.485001 -21.118666
27.500038 -92.263741 -22.201952
28.725964 -94.080887 -22.583418
30.367603 -89.740105 -23.311354
33.175423 -86.961395 -24.389456
31.896986 -85.211754 -24.213148
33.648602 -73.4841 -26.482775
34.643108 -75.684906 -26.510931
32.12326 -65.555466 -26.253904
50.428452 -85.930969 -20.525583
51.312984 -85.799965 -18.844992
52.55785 -82.388969 -20.137403
21.224075 -66.333542 -17.299154
40.230965 -96.185974 -23.403502
43.01059 -92.728493 -23.415964
41.322937 -92.263672 -23.967089
42.369999 -88.217918 -24.56629
43.384731 -84.072685 -25.237597
44.38678 -79.84343 -26.011614
41.751415 -83.194099 -25.643927
40.151764 -82.12706 -25.961031
38.614769 -80.856186 -26.20471
20.524464 -81.354691 -17.229151
17.788647 -85.542084 -16.422186
20.349117 -84.824715 -17.654413
20.318726 -88.089989 -18.203932
20.493074 -91.116234 -18.826925
20.912064 -93.87899 -19.469767
23.17234 -89.647881 -20.020521
25.77379 -87.817108 -21.286051
28.312464 -85.655167 -22.619139
30.817337 -83.204529 -23.975382
29.9711 -80.936646 -23.691168
31.489187 -76.053329 -24.966673
32.886036 -71.049583 -26.414026
11.368021 -77.77449 -12.206642
10.807255 -81.738159 -12.194639
13.432476 -78.14299 -13.440819
15.794797 -78.286957 -14.628498
18.290649 -78.157974 -15.788382
21.17284 -70.155449 -17.011362
21.008743 -73.970932 -16.894323
20.770376 -77.721222 -16.968008
23.118156 -76.955078 -18.227167
25.267002 -75.850975 -19.616083
27.206553 -74.414505 -21.155962
28.980854 -72.667038 -22.828852
29.076231 -69.505676 -22.643156
30.709356 -64.50029 -24.349451
46.170597 -96.385254 -18.957769
48.209614 -92.762466 -18.249041
47.211124 -93.032822 -20.006117
48.266838 -89.517029 -20.989542
49.334213 -85.892593 -21.950502
45.596558 -89.209785 -23.296049
48.040771 -85.685257 -23.108782
50.404377 -82.198334 -22.932196
51.469467 -78.453491 -23.972715
45.398689 -75.540604 -26.911173
46.440361 -71.173874 -27.950029
11.98686 -73.799133 -12.451828
14.339464 -70.210251 -13.917055
16.70108 -66.512054 -15.3416
46.160824 -98.863533 -15.710047
41.813911 -106.980873 -13.532614
42.993271 -104.84903 -15.106447
44.089287 -102.349312 -16.529539
45.137337 -99.511322 -17.807936
43.913799 -99.947495 -19.608706
42.48251 -100.165909 -21.056555
40.860512 -100.166267 -22.127508
39.08984 -99.951241 -22.834826
37.230362 -99.523575 -23.224627
35.348866 -98.883781 -23.363348
33.508774 -98.028572 -23.320772
30.229445 -100.92923 -22.655752
31.76395 -96.950562 -23.154833
10.331547 -85.648613 -12.447878
15.007009 -89.498642 -15.756468
12.290279 -93.211815 -15.169601
9.75655 -96.670006 -14.592075
9.961521 -99.974312 -15.553358
10.411259 -103.033707 -16.497019
21.594948 -96.364487 -20.086443
26.987041 -98.222336 -22.014597
30.157776 -95.638931 -22.903116
33.23135 -92.790649 -23.761354
34.617435 -88.46257 -24.496889
35.923973 -83.981049 -25.370028
37.164806 -79.366379 -26.378061
33.316872 -80.516159 -25.285646
35.829182 -77.645218 -26.479486
38.360229 -74.64679 -27.509516
30.672749 -70.645294 -24.579851
32.37994 -68.397751 -26.329115
50.122078 -89.122726 -17.555983
48.088955 -94.121994 -16.632294
48.49429 -93.801144 -15.546004
47.573707 -95.615162 -15.941816
43.530149 -104.71328 -11.876558
44.575269 -103.122822 -11.442214
34.773916 -72.121994 -27.171791
34.288929 -70.980148 -27.213824
30.771553 -62.879621 -24.353234
29.980412 -65.354523 -23.452841
30.042609 -63.733854 -23.456623
31.411702 -61.978974 -25.289871
30.771553 -62.879621 -24.353234
51.288294 -76.313301 -25.003393
50.554103 -75.997803 -25.429279
49.262501 -70.683067 -27.580448
50.037504 -71.158943 -27.253094
48.750429 -72.75769 -27.00844
48.49996 -70.137451 -27.911678
49.262501 -70.683067 -27.580448
45.68891 -70.539665 -28.244091
45.148159 -72.787766 -27.696003
44.396707 -72.153557 -27.990065
46.982264 -68.964554 -28.541313
45.68891 -70.539665 -28.244091
11.285906 -73.551365 -11.876443
10.872682 -75.520325 -11.696613
14.575481 -68.267762 -14.139115
13.493355 -70.036236 -13.390767
15.75629 -66.418663 -14.851388
15.520272 -68.361153 -14.629327
14.575481 -68.267762 -14.139115
46.081007 -99.752056 -13.833036
45.60236 -100.956165 -13.05204
45.657356 -100.174629 -14.992944
46.584474 -98.44096 -14.550138
46.081007 -99.752056 -13.833036
39.845697 -109.087071 -15.017284
39.090628 -109.643002 -16.093256
41.155189 -107.535515 -14.676674
40.504419 -108.532429 -13.873224
39.845697 -109.087071 -15.017284
41.100759 -101.874073 -21.215474
41.928381 -101.786839 -20.596222
40.54663 -103.495002 -20.75514
40.28976 -101.874252 -21.75095
41.671511 -100.166088 -21.592031
41.100759 -101.874073 -21.215474
37.533631 -101.584343 -22.766531
38.495789 -101.734516 -22.526013
36.603892 -101.37051 -22.961432
38.160101 -99.737408 -23.029727
37.533631 -101.584343 -22.766531
29.37463 -100.314053 -22.513036
28.531921 -102.243863 -22.297149
27.677107 -101.628685 -22.154434
11.18534 -89.55933 -13.694953
11.313145 -87.696575 -13.413615
12.524211 -87.788681 -14.146031
11.083755 -91.402993 -14.063636
11.18534 -89.55933 -13.694953
12.18863 -104.181213 -17.547405
10.767394 -104.428784 -16.925255
11.832495 -102.786137 -17.11917
13.669904 -103.825062 -18.113474
12.18863 -104.181213 -17.547405
24.103165 -97.528512 -21.122179
23.558496 -96.526967 -20.883018
25.118068 -95.486546 -21.357827
24.704933 -98.492302 -21.369371
24.103165 -97.528512 -21.122179
26.324889 -97.355213 -21.805792
25.367085 -99.359424 -21.578176
24.704933 -98.492302 -21.369371
38.294805 -71.337654 -28.233129
38.945907 -72.252274 -28.128141
37.709127 -73.73217 -27.614504
33.038984 -65.842459 -27.174856
32.2516 -66.976608 -26.29151
32.910645 -64.421316 -27.137251
33.284491 -67.187866 -27.159891
33.038984 -65.842459 -27.174856
52.666531 -83.873718 -17.667724
51.65763 -85.653667 -17.894747
52.321884 -84.020016 -18.61797
53.627707 -82.094773 -17.424507
52.666531 -83.873718 -17.667724
49.32543 -91.99493 -15.134824
48.49429 -93.801144 -15.546004
49.886567 -90.489887 -15.868952
49.32543 -91.99493 -15.134824
30.111351 -62.043709 -23.473225
30.042609 -63.733854 -23.456623
29.32021 -64.51861 -22.572833
49.795023 -75.673561 -25.814324
50.554103 -75.997803 -25.429279
49.291387 -77.643471 -25.291849
49.02887 -75.276398 -26.17899
50.291586 -73.63073 -26.31642
49.795023 -75.673561 -25.814324
43.646524 -71.494293 -28.2342
44.396707 -72.153557 -27.990065
43.105774 -73.742393 -27.686112
42.914581 -70.775364 -28.513355
43.646524 -71.494293 -28.2342
42.19122 -70.020012 -28.732727
42.914581 -70.775364 -28.513355
41.632229 -72.327778 -28.149618
41.481844 -69.210656 -28.990076
42.19122 -70.020012 -28.732727
45.076301 -102.093071 -12.272866
44.575269 -103.122822 -11.442214
44.627831 -102.622631 -13.496667
45.60236 -100.956165 -13.05204
45.076301 -102.093071 -12.272866
39.742829 -108.524284 -16.817535
39.090628 -109.643002 -16.093256
40.346075 -107.340114 -17.531771
41.099715 -106.905987 -16.534969
39.742829 -108.524284 -16.817535
40.958929 -106.037636 -18.156904
40.346075 -107.340114 -17.531771
41.524351 -104.674084 -18.785564
42.268383 -104.358265 -17.877865
40.958929 -106.037636 -18.156904
40.794574 -104.880612 -19.600246
42.104028 -103.201241 -19.321207
41.524351 -104.674084 -18.785564
39.951836 -105.068047 -20.313663
40.794574 -104.880612 -19.600246
40.54663 -103.495002 -20.75514
39.951836 -105.068047 -20.313663
33.329836 -104.482238 -22.637436
34.995287 -102.951244 -22.789785
32.313717 -104.15184 -22.641939
33.329836 -104.482238 -22.637436
31.345634 -103.770699 -22.622961
33.045071 -102.303901 -22.862356
32.313717 -104.15184 -22.641939
26.85296 -100.927582 -21.970953
27.677107 -101.628685 -22.154434
15.937157 -100.301003 -18.420254
14.766624 -102.078743 -18.264584
14.424264 -100.760827 -17.89699
17.433302 -99.745125 -18.936504
15.937157 -100.301003 -18.420254
17.090941 -98.427208 -18.568911
18.99329 -99.079937 -19.406746
17.433302 -99.745125 -18.936504
35.271169 -73.222397 -27.185869
34.145855 -74.584503 -26.496853
34.773916 -72.121994 -27.171791
36.478628 -71.788719 -27.790149
35.850566 -74.251228 -27.115212
35.271169 -73.222397 -27.185869
37.65489 -70.374092 -28.388087
36.478628 -71.788719 -27.790149
32.094614 -64.057721 -26.233576
31.370745 -66.600506 -25.342729
31.342098 -65.102761 -25.322401
32.780456 -62.996027 -27.155536
32.094614 -64.057721 -26.233576
32.910645 -64.421316 -27.137251
32.780456 -62.996027 -27.155536
21.195017 -64.454218 -17.505333
20.056478 -66.43238 -16.803407
20.027421 -64.553056 -17.009586
22.326983 -64.256029 -18.019154
21.195017 -64.454218 -17.505333
23.491557 -64.030073 -18.556189
22.388649 -66.107586 -17.836189
22.326983 -64.256029 -18.019154
24.586588 -63.705417 -19.133192
23.491557 -64.030073 -18.556189
25.681472 -63.340294 -19.741227
24.648108 -65.516506 -18.981259
24.586588 -63.705417 -19.133192
26.683542 -62.881359 -20.406609
25.681472 -63.340294 -19.741227
27.662329 -62.371857 -21.107416
26.721778 -64.64188 -20.290101
26.683542 -62.881359 -20.406609
28.537972 -61.777756 -21.872998
27.662329 -62.371857 -21.107416
33.907646 -69.762889 -27.179449
34.288929 -70.980148 -27.213824
33.267319 -72.266841 -26.4484
52.702293 -80.648735 -21.560442
52.160736 -80.574532 -22.24509
11.087638 -79.756325 -12.200641
9.910072 -81.465591 -11.498501
10.190455 -79.483757 -11.504502
31.387662 -63.530133 -25.281349
31.342098 -65.102761 -25.322401
30.663792 -66.072918 -24.390503
31.387662 -63.530133 -25.281349
31.411702 -61.978974 -25.289871
29.382165 -61.125799 -22.672261
28.544759 -63.480422 -21.790171
28.537972 -61.777756 -21.872998
30.126999 -60.402998 -23.531073
29.382165 -61.125799 -22.672261
30.111351 -62.043709 -23.473225
30.126999 -60.402998 -23.531073
51.571619 -80.485039 -22.882483
52.160736 -80.574532 -22.24509
50.993494 -82.287826 -22.294804
52.104164 -78.612617 -23.402742
51.571619 -80.485039 -22.882483
50.936922 -80.325913 -23.452455
52.674214 -76.786125 -24.024538
52.104164 -78.612617 -23.402742
51.997793 -76.55619 -24.536348
50.759968 -78.210601 -24.43976
51.288294 -76.313301 -25.003393
52.674214 -76.786125 -24.024538
51.997793 -76.55619 -24.536348
50.802099 -71.628852 -26.900605
50.291586 -73.63073 -26.31642
50.802099 -71.628852 -26.900605
50.037504 -71.158943 -27.253094
47.732428 -69.583481 -28.218795
48.49996 -70.137451 -27.911678
47.207893 -71.727845 -27.642912
47.732428 -69.583481 -28.218795
46.982264 -68.964554 -28.541313
10.563263 -77.508003 -11.57402
10.190455 -79.483757 -11.504502
11.67744 -75.786811 -12.329235
10.563263 -77.508003 -11.57402
10.872682 -75.520325 -11.696613
12.317054 -71.830677 -12.658154
11.285906 -73.551365 -11.876443
13.163162 -72.004692 -13.184442
12.317054 -71.830677 -12.658154
13.493355 -70.036236 -13.390767
16.83875 -64.624523 -15.569233
15.75629 -66.418663 -14.851388
17.833996 -64.629688 -16.045364
16.83875 -64.624523 -15.569233
18.927896 -64.63927 -16.528394
17.794981 -66.521636 -15.82463
17.833996 -64.629688 -16.045364
20.027421 -64.553056 -17.009586
18.927896 -64.63927 -16.528394
47.069933 -97.078923 -15.282787
46.584474 -98.44096 -14.550138
46.664598 -97.399773 -16.369076
47.573707 -95.615162 -15.941816
47.069933 -97.078923 -15.282787
41.169449 -107.861629 -12.670911
40.504419 -108.532429 -13.873224
42.386219 -106.323948 -12.284118
41.169449 -107.861629 -12.670911
42.957842 -105.370205 -13.125053
43.530149 -104.71328 -11.876558
42.386219 -106.323948 -12.284118
39.381124 -101.842029 -22.172353
40.28976 -101.874252 -21.75095
39.975176 -100.058754 -22.481167
39.381124 -101.842029 -22.172353
38.495789 -101.734516 -22.526013
35.621758 -101.104309 -23.052981
36.603892 -101.37051 -22.961432
34.995287 -102.951244 -22.789785
30.367676 -103.317039 -22.536095
31.345634 -103.770699 -22.622961
29.443904 -102.820275 -22.442281
28.531921 -102.243863 -22.297149
31.153216 -101.425995 -22.749565
30.367676 -103.317039 -22.536095
29.443904 -102.820275 -22.442281
9.592482 -83.429054 -11.565862
9.910072 -81.465591 -11.498501
9.354629 -85.384281 -11.692481
9.592482 -83.429054 -11.565862
10.569401 -83.693386 -12.321258
9.107418 -87.318203 -11.9043
9.354629 -85.384281 -11.692481
10.152911 -87.557918 -12.705207
11.491782 -85.78727 -13.156285
11.313145 -87.696575 -13.413615
9.107418 -87.318203 -11.9043
10.152911 -87.557918 -12.705207
11.030691 -93.183182 -14.434752
11.083755 -91.402993 -14.063636
12.343343 -91.431625 -14.798485
9.763827 -94.912278 -14.145988
11.030691 -93.183182 -14.434752
11.023415 -94.940911 -14.880838
8.593333 -96.533825 -13.766811
9.763827 -94.912278 -14.145988
8.638967 -98.264054 -14.272263
8.593333 -96.533825 -13.766811
8.741453 -99.916207 -14.752905
8.638967 -98.264054 -14.272263
9.859036 -98.322159 -15.072716
8.907479 -101.537937 -15.269332
8.741453 -99.916207 -14.752905
9.132348 -103.067634 -15.741163
8.907479 -101.537937 -15.269332
10.18639 -101.504009 -16.025188
9.427153 -104.564331 -16.225327
9.132348 -103.067634 -15.741163
9.427153 -104.564331 -16.225327
10.767394 -104.428784 -16.925255
13.669904 -103.825062 -18.113474
14.766624 -102.078743 -18.264584
20.497221 -98.326515 -19.907387
18.99329 -99.079937 -19.406746
20.091017 -97.117908 -19.585802
22.069271 -97.46671 -20.366907
23.084173 -95.424744 -20.602555
23.558496 -96.526967 -20.883018
20.497221 -98.326515 -19.907387
22.069271 -97.46671 -20.366907
26.086573 -100.189312 -21.793091
25.367085 -99.359424 -21.578176
27.753428 -98.960605 -22.192459
26.85296 -100.927582 -21.970953
26.086573 -100.189312 -21.793091
40.220226 -70.715092 -28.557879
39.634548 -73.109608 -27.939253
38.945907 -72.252274 -28.128141
41.481844 -69.210656 -28.990076
40.220226 -70.715092 -28.557879
38.294805 -71.337654 -28.233129
37.65489 -70.374092 -28.388087
33.537538 -68.513782 -27.202346
32.632988 -69.723667 -26.371571
33.284491 -67.187866 -27.159891
33.907646 -69.762889 -27.179449
33.537538 -68.513782 -27.202346
50.442837 -88.897262 -16.528702
49.886567 -90.489887 -15.868952
49.565808 -90.715351 -16.896233
51.062178 -87.315048 -17.250242
50.717531 -87.461345 -18.200488
51.65763 -85.653667 -17.894747
50.442837 -88.897262 -16.528702
51.062178 -87.315048 -17.250242
53.189913 -80.65456 -20.800438
52.070231 -82.383144 -20.897407
52.702293 -80.648735 -21.560442
53.631247 -80.646732 -20.001831
53.189913 -80.65456 -20.800438
54.017713 -80.572281 -19.128603
52.944317 -82.314518 -19.264175
53.631247 -80.646732 -20.001831
54.364004 -80.49176 -18.228907
54.017713 -80.572281 -19.128603
53.627707 -82.094773 -17.424507
54.364004 -80.49176 -18.228907
3 0 51 49
3 0 53 51
3 2 56 54
3 2 58 56
3 2 60 58
3 1 196 198
3 196 61 197
3 196 197 198
3 3 64 62
3 5 67 65
3 5 69 67
3 5 71 69
3 6 74 72
3 8 77 75
3 8 79 77
3 8 81 79
3 9 84 82
3 9 85 84
3 199 86 200
3 4 92 90
3 10 95 93
3 10 97 95
3 10 98 97
3 11 101 99
3 11 103 101
3 11 105 103
3 202 201 106
3 7 111 109
3 13 115 113
3 15 116 50
3 15 117 116
3 15 119 117
3 17 120 52
3 17 121 120
3 18 124 122
3 20 125 55
3 20 126 125
3 20 128 126
3 22 129 57
3 22 130 129
3 22 132 130
3 24 133 59
3 24 134 133
3 25 137 135
3 27 138 63
3 27 139 138
3 12 140 112
3 28 141 66
3 28 142 141
3 28 143 142
3 29 144 68
3 29 145 144
3 29 147 145
3 203 148 204
3 205 204 70
3 203 204 205
3 207 206 148
3 31 151 149
3 33 152 73
3 33 153 152
3 14 154 114
3 34 155 76
3 34 156 155
3 34 157 156
3 209 208 78
3 35 210 212
3 212 211 80
3 210 211 212
3 35 213 214
3 16 158 118
3 215 159 216
3 217 216 83
3 215 216 217
3 219 218 159
3 220 160 221
3 222 161 223
3 224 162 225
3 226 225 161
3 224 225 226
3 36 227 228
3 36 229 231
3 229 163 230
3 229 230 231
3 37 232 233
3 37 234 236
3 234 164 235
3 234 235 236
3 37 165 164
3 38 166 87
3 38 167 166
3 38 168 167
3 237 169 238
3 239 238 88
3 237 238 239
3 240 170 241
3 242 241 169
3 240 241 242
3 243 171 244
3 245 172 246
3 247 246 171
3 245 246 247
3 39 173 89
3 39 174 173
3 40 248 250
3 248 175 249
3 248 249 250
3 40 176 175
3 26 177 136
3 41 251 253
3 253 252 91
3 251 252 253
3 41 254 255
3 19 178 123
3 42 179 94
3 42 180 179
3 42 181 180
3 43 182 96
3 43 256 258
3 258 257 182
3 256 257 258
3 43 259 260
3 21 183 127
3 44 261 263
3 263 262 100
3 261 262 263
3 44 264 265
3 44 266 268
3 266 184 267
3 266 267 268
3 45 185 102
3 45 186 185
3 45 187 186
3 46 188 104
3 46 189 188
3 23 190 131
3 47 191 107
3 47 192 191
3 47 269 271
3 271 270 192
3 269 270 271
3 30 193 146
3 272 194 273
3 274 273 108
3 272 273 274
3 276 275 194
3 32 195 150
3 48 277 279
3 279 278 110
3 277 278 279
3 48 280 281
3 49 50 13
3 51 50 49
3 51 15 50
3 51 52 15
3 53 52 51
3 53 17 52
3 54 55 18
3 56 55 54
3 56 20 55
3 56 57 20
3 58 57 56
3 58 22 57
3 58 59 22
3 60 59 58
3 60 24 59
3 61 282 283
3 61 284 285
3 62 63 25
3 64 63 62
3 64 27 63
3 65 66 12
3 67 66 65
3 67 28 66
3 67 68 28
3 69 68 67
3 69 29 68
3 69 70 29
3 71 70 69
3 71 286 288
3 288 287 70
3 286 287 288
3 72 73 31
3 74 73 72
3 74 33 73
3 75 76 14
3 77 76 75
3 77 34 76
3 77 78 34
3 79 78 77
3 79 289 291
3 291 290 78
3 289 290 291
3 79 292 294
3 292 80 293
3 292 293 294
3 81 80 79
3 81 35 80
3 82 83 16
3 84 83 82
3 84 295 297
3 297 296 83
3 295 296 297
3 84 298 299
3 85 300 302
3 302 301 84
3 300 301 302
3 85 303 304
3 86 305 306
3 86 307 309
3 307 36 308
3 307 308 309
3 310 37 311
3 312 87 313
3 314 313 37
3 312 313 314
3 315 87 316
3 317 38 318
3 319 318 87
3 317 318 319
3 320 88 321
3 322 321 38
3 320 321 322
3 323 88 324
3 326 325 88
3 327 89 328
3 329 89 330
3 331 39 332
3 333 332 89
3 331 332 333
3 334 40 335
3 90 91 26
3 92 91 90
3 92 41 91
3 93 94 19
3 95 94 93
3 95 42 94
3 95 96 42
3 97 96 95
3 97 43 96
3 97 336 338
3 338 337 43
3 336 337 338
3 98 339 341
3 341 340 97
3 339 340 341
3 98 342 343
3 99 100 21
3 101 100 99
3 101 44 100
3 101 102 44
3 103 102 101
3 103 45 102
3 103 104 45
3 105 104 103
3 105 46 104
3 106 107 23
3 344 107 345
3 346 345 106
3 344 345 346
3 347 47 348
3 349 348 107
3 347 348 349
3 351 350 47
3 352 108 353
3 354 353 30
3 352 353 354
3 355 108 356
3 358 357 108
3 109 110 32
3 111 110 109
3 111 48 110
3 359 112 360
3 361 360 3
3 359 360 361
3 362 112 363
3 364 12 365
3 366 365 112
3 364 365 366
3 367 12 368
3 369 65 370
3 371 370 12
3 369 370 371
3 372 65 373
3 374 5 375
3 376 375 65
3 374 375 376
3 378 377 5
3 113 114 6
3 115 114 113
3 115 14 114
3 50 115 13
3 116 115 50
3 116 14 115
3 116 75 14
3 117 75 116
3 117 8 75
3 117 118 8
3 119 118 117
3 119 16 118
3 52 119 15
3 120 119 52
3 120 16 119
3 120 82 16
3 121 82 120
3 121 9 82
3 122 123 4
3 124 123 122
3 124 19 123
3 55 124 18
3 125 124 55
3 125 19 124
3 125 93 19
3 126 93 125
3 126 10 93
3 126 127 10
3 128 127 126
3 128 21 127
3 57 128 20
3 129 128 57
3 129 21 128
3 129 99 21
3 130 99 129
3 130 11 99
3 130 131 11
3 132 131 130
3 132 23 131
3 59 132 22
3 133 132 59
3 133 23 132
3 133 106 23
3 134 106 133
3 134 379 381
3 381 380 106
3 379 380 381
3 383 382 7
3 135 384 386
3 384 136 385
3 384 385 386
3 137 136 135
3 137 26 136
3 63 137 25
3 138 137 63
3 138 26 137
3 138 90 26
3 139 90 138
3 139 4 90
3 112 64 3
3 140 64 112
3 140 27 64
3 66 140 12
3 141 140 66
3 141 27 140
3 141 139 27
3 142 139 141
3 142 4 139
3 142 122 4
3 143 122 142
3 143 18 122
3 68 143 28
3 144 143 68
3 144 18 143
3 144 54 18
3 145 54 144
3 145 2 54
3 145 146 2
3 147 146 145
3 147 30 146
3 70 147 29
3 148 147 70
3 148 30 147
3 148 387 389
3 389 388 30
3 387 388 389
3 391 390 148
3 392 71 393
3 394 393 5
3 392 393 394
3 395 71 396
3 398 397 71
3 149 150 1
3 151 150 149
3 151 32 150
3 73 151 31
3 152 151 73
3 152 32 151
3 152 109 32
3 153 109 152
3 153 7 109
3 114 74 6
3 154 74 114
3 154 33 74
3 76 154 14
3 155 154 76
3 155 33 154
3 155 153 33
3 156 153 155
3 156 7 153
3 156 399 401
3 401 400 7
3 399 400 401
3 157 402 404
3 404 403 156
3 402 403 404
3 157 405 406
3 78 157 34
3 407 157 408
3 409 408 78
3 407 408 409
3 411 410 157
3 80 412 413
3 415 414 80
3 118 81 8
3 158 81 118
3 158 35 81
3 83 158 16
3 159 158 83
3 159 35 158
3 159 416 418
3 418 417 35
3 416 417 418
3 420 419 159
3 421 135 422
3 160 423 425
3 423 135 424
3 423 424 425
3 160 25 135
3 426 160 427
3 161 428 430
3 428 160 429
3 428 429 430
3 161 25 160
3 161 62 25
3 162 62 161
3 162 3 62
3 431 162 432
3 433 162 434
3 435 3 436
3 437 436 162
3 435 436 437
3 439 438 3
3 163 440 441
3 163 442 444
3 442 1 443
3 442 443 444
3 164 445 446
3 164 447 448
3 164 449 451
3 449 86 450
3 449 450 451
3 165 86 164
3 165 36 86
3 87 165 37
3 166 165 87
3 166 36 165
3 166 163 36
3 167 163 166
3 167 1 163
3 167 149 1
3 168 149 167
3 168 31 149
3 88 168 38
3 169 168 88
3 169 31 168
3 169 72 31
3 170 72 169
3 170 6 72
3 452 170 453
3 171 454 456
3 454 170 455
3 454 455 456
3 171 6 170
3 171 113 6
3 172 113 171
3 172 13 113
3 89 457 459
3 457 172 458
3 457 458 459
3 173 172 89
3 173 13 172
3 173 49 13
3 174 49 173
3 174 0 49
3 460 39 461
3 175 462 463
3 175 464 466
3 464 39 465
3 464 465 466
3 175 174 39
3 176 174 175
3 176 0 174
3 136 467 468
3 177 469 471
3 471 470 136
3 469 470 471
3 177 472 473
3 91 177 26
3 474 177 475
3 476 475 91
3 474 475 476
3 478 477 177
3 123 92 4
3 178 92 123
3 178 41 92
3 94 178 19
3 179 178 94
3 179 41 178
3 179 479 481
3 481 480 41
3 479 480 481
3 180 482 484
3 484 483 179
3 482 483 484
3 180 485 486
3 180 487 488
3 181 489 491
3 491 490 180
3 489 490 491
3 181 492 493
3 96 181 42
3 182 181 96
3 182 494 496
3 496 495 181
3 494 495 496
3 182 497 498
3 500 499 182
3 502 501 43
3 127 98 10
3 183 98 127
3 183 503 505
3 505 504 98
3 503 504 505
3 100 183 21
3 506 183 507
3 508 507 100
3 506 507 508
3 510 509 183
3 184 511 512
3 184 513 515
3 513 40 514
3 513 514 515
3 102 184 44
3 185 184 102
3 185 40 184
3 185 176 40
3 186 176 185
3 186 0 176
3 186 53 0
3 187 53 186
3 187 17 53
3 104 187 45
3 188 187 104
3 188 17 187
3 188 121 17
3 189 121 188
3 189 9 121
3 131 105 11
3 190 105 131
3 190 46 105
3 107 190 23
3 191 190 107
3 191 46 190
3 191 189 46
3 192 189 191
3 192 9 189
3 192 85 9
3 516 85 517
3 518 517 192
3 516 517 518
3 520 519 85
3 522 521 47
3 146 60 2
3 193 60 146
3 193 24 60
3 108 193 30
3 194 193 108
3 194 24 193
3 194 134 24
3 523 134 524
3 525 524 194
3 523 524 525
3 527 526 134
3 150 61 1
3 195 61 150
3 195 528 530
3 530 529 61
3 528 529 530
3 110 195 32
3 531 195 532
3 533 532 110
3 531 532 533
3 535 534 195
3 536 111 537
3 538 537 7
3 536 537 538
3 539 111 540
3 541 48 542
3 543 542 111
3 541 542 543
3 544 48 545
3 547 546 48
