ply
format ascii 1.0
element vertex 530
property float x
property float y
property float z
element face 566
property list uchar int vertex_index
end_header
33.276367 32.45937 -22.817266
20.324636 36.093727 -31.753332
12.213037 23.880409 -29.976263
21.493032 61.556236 -26.877401
28.197561 35.128887 -28.282503
25.967995 23.560497 -31.09078
15.316761 50.134987 -32.290161
25.680761 47.385567 -27.897837
33.918861 44.344112 -23.644773
36.391624 40.342949 -16.410173
35.952534 33.097992 -7.83791
19.201355 22.955685 -31.11706
31.101881 34.144939 -25.800409
29.683651 29.174137 -28.311827
32.364414 28.050583 -26.178377
23.802834 54.215355 -27.296793
29.471317 52.253166 -25.369967
30.408924 45.937431 -25.962446
34.286232 50.189392 -23.648008
38.707893 45.933609 -17.840536
38.3894 43.452721 -13.332739
36.206745 37.328918 -12.015253
16.10141 36.717701 -32.892197
15.427614 30.164825 -32.199768
19.18808 29.725487 -31.973055
12.878061 16.241657 -28.213964
16.692226 15.823837 -28.879908
15.429079 63.52523 -29.645628
18.843212 68.926353 -26.538965
24.51651 35.665569 -30.217726
23.015848 29.622494 -31.224421
26.579617 29.575916 -30.009108
29.01964 23.844486 -30.493513
34.954346 29.883949 -19.646624
13.367311 43.953384 -33.640076
17.804625 42.921249 -32.105316
18.050085 56.042389 -29.78583
20.427177 48.770393 -30.007582
22.557625 41.99918 -30.252024
27.059729 41.119434 -28.313986
30.723396 40.053993 -26.048525
33.223351 38.611008 -23.119425
35.844086 42.545109 -20.449896
34.655254 36.612198 -19.550478
35.426826 33.796955 -15.731264
15.703634 23.198959 -30.574759
22.668373 23.140648 -31.303686
32.267502 33.402584 -24.356188
31.589304 31.102646 -25.836115
32.759056 30.275845 -24.492353
32.038609 51.231316 -24.531763
39.963089 46.108566 -14.251642
39.487564 44.687225 -11.789904
37.922569 41.921745 -10.886477
18.185764 36.370087 -32.383682
17.59272 33.182529 -32.440468
19.610641 32.963428 -32.027397
10.628805 20.576302 -28.91482
12.501053 20.123444 -29.038218
14.822339 15.975315 -28.473516
14.334654 19.782803 -29.311563
26.444876 35.433441 -29.310087
25.512585 32.595745 -30.096678
27.264812 32.423824 -29.225996
30.701048 26.278469 -28.698309
29.261549 26.540627 -29.447439
12.961613 50.748764 -33.316757
14.238256 47.07238 -33.149193
15.519213 43.433662 -32.942619
16.564613 46.484665 -32.208488
18.402897 62.607178 -28.228994
16.770187 59.789673 -29.720392
19.686726 58.857887 -28.337595
24.803858 50.722832 -27.59041
22.029835 51.546295 -28.678621
23.073895 48.079628 -28.913118
21.522522 45.319016 -30.146544
24.022413 44.758968 -29.138945
24.879726 41.567837 -29.299719
26.427195 44.195198 -28.157827
32.351017 45.161896 -24.891676
30.613131 42.969692 -26.078936
32.255772 42.273235 -24.847216
32.122898 39.389713 -24.676451
33.546555 41.503277 -23.417707
37.453766 43.223118 -17.096224
37.260448 44.312897 -19.141905
36.255558 41.516193 -18.51174
35.113857 39.66869 -19.942621
35.486851 38.540943 -17.966852
35.093971 35.326012 -17.641764
35.681747 37.212917 -15.914225
36.056816 35.381397 -9.869726
35.829659 33.762295 -11.846388
17.240803 26.508259 -31.600164
15.459693 26.7374 -31.449488
17.450806 23.020195 -30.879213
17.876926 19.440636 -30.106688
19.591047 19.445946 -30.511503
24.461811 26.522747 -31.04624
22.699139 26.424866 -31.35882
24.34763 23.341438 -31.245607
29.750673 34.710869 -27.114447
28.86034 32.145088 -28.224672
30.297297 31.716484 -27.090193
31.068354 28.720619 -27.289843
14.045723 53.839447 -32.357559
22.694147 57.84285 -27.057398
26.691277 53.248535 -26.267241
27.505878 49.881882 -26.617239
28.157011 46.675789 -26.936228
30.038334 49.018036 -25.709204
32.300312 48.12838 -24.779345
34.200504 47.214584 -23.727808
38.692314 44.765362 -15.682013
37.359638 41.991447 -14.869551
36.344604 38.966904 -14.218803
37.087048 40.55014 -12.545088
36.742836 38.83424 -10.210089
14.11977 37.129356 -33.246704
13.774815 33.870403 -32.828796
15.635705 33.488071 -32.711464
17.280472 29.895905 -32.155327
19.057018 26.386803 -31.640184
12.615635 64.248375 -31.01362
14.029764 67.164825 -29.50017
17.048855 66.317917 -28.105322
20.208138 65.28138 -26.725012
23.454456 64.10923 -25.460531
22.456692 35.870789 -31.028357
21.639883 32.817039 -31.492228
23.624554 32.709854 -30.848574
24.848589 29.617176 -30.675016
26.149162 26.61097 -30.623907
28.191528 29.444935 -29.221609
27.748507 26.63501 -30.091066
27.523375 23.746414 -30.840425
34.16188 31.293209 -21.231058
12.712152 40.785751 -33.728531
14.700785 40.314831 -33.29512
16.827894 39.861485 -32.690514
19.052399 39.458382 -31.959654
13.99194 60.590721 -31.102583
15.316752 56.859398 -31.127234
16.590883 53.129555 -31.136797
20.897648 55.150772 -28.481234
19.26923 52.353035 -29.879332
17.820286 49.46096 -31.156351
19.011919 45.89315 -31.183443
20.173244 42.443443 -31.192293
21.315281 39.108501 -31.147875
23.545856 38.791344 -30.280909
25.671041 38.472305 -29.355574
27.625319 38.112179 -28.344133
28.650307 43.605366 -27.160036
29.025787 40.623501 -27.247923
29.359486 37.674206 -27.208952
30.846704 37.127197 -25.919924
32.084831 36.445034 -24.468039
33.094421 35.60376 -22.870531
35.672207 46.279297 -22.46715
36.686649 45.318504 -20.942461
35.080662 43.477268 -22.169054
34.487511 40.643608 -21.775953
34.051456 37.69503 -21.396021
33.912708 34.5784 -21.167391
34.584827 33.341431 -19.411821
35.154549 31.864033 -17.658812
35.657249 30.120125 -15.955477
35.774353 35.634365 -13.853598
35.703884 31.989605 -13.87261
13.959747 23.487309 -30.252279
16.125835 19.5541 -29.687994
21.114603 29.64399 -31.659082
20.886726 26.366711 -31.558802
20.946251 23.001575 -31.261377
22.902531 19.79557 -31.140032
21.267912 19.568184 -30.862741
40.076791 45.170788 -11.013509
40.376497 45.949604 -12.289484
39.768555 44.34711 -9.740197
39.179327 43.863548 -10.516592
40.076791 45.170788 -11.013509
12.357045 22.001926 -29.507241
11.478844 22.252514 -29.424824
11.334836 24.130997 -29.893847
30.586497 25.039926 -29.373995
31.299719 24.92396 -29.105393
35.924124 32.334202 -8.889057
35.976265 33.475904 -9.904965
36.004675 34.239694 -8.853818
35.977585 31.076603 -8.002439
35.924124 32.334202 -8.889057
32.224304 26.929037 -27.017912
31.576274 27.264055 -27.573645
31.716384 28.385601 -26.73411
13.391928 55.693112 -32.376766
12.856555 54.129074 -32.897644
28.081297 52.75085 -25.818604
27.702258 54.451614 -25.637604
29.092278 53.95393 -25.188967
37.076187 39.469784 -9.325024
37.332702 40.377993 -10.548283
37.666054 41.013537 -9.663218
36.579809 37.81457 -9.076885
37.076187 39.469784 -9.325024
11.877884 16.431177 -28.169971
10.753256 18.598499 -28.520399
11.753433 18.40898 -28.564392
13.105056 14.262984 -27.873062
11.877884 16.431177 -28.169971
14.139503 14.173761 -27.997243
13.105056 14.262984 -27.873062
17.031597 13.934154 -28.543843
16.096654 14.009892 -28.340646
15.757283 15.899576 -28.676712
17.957034 13.96404 -28.829394
17.031597 13.934154 -28.543843
13.307325 68.891685 -29.354061
12.61383 67.456829 -30.147072
17.946033 67.622135 -27.322144
16.339154 68.107674 -27.999969
17.236333 69.411891 -27.216791
24.498287 65.292812 -24.781952
22.8113 65.940064 -25.35421
25.089963 63.472297 -24.918776
24.498287 65.292812 -24.781952
28.978052 22.480477 -30.979129
28.22992 22.431441 -31.152586
28.271507 23.79545 -30.666969
34.889094 28.894617 -20.67358
34.49286 29.599247 -21.465798
34.558113 30.588579 -20.438841
12.373421 44.186927 -33.891529
12.719207 45.778732 -33.783348
13.039732 42.369568 -33.684303
12.045841 42.603111 -33.935756
12.373421 44.186927 -33.891529
36.573017 47.181515 -21.894085
35.895952 47.708458 -22.537667
38.517414 46.478733 -18.78705
39.337553 47.254418 -18.181185
35.832659 30.935149 -12.989215
35.766772 32.87595 -12.859499
35.895546 31.821494 -11.976104
35.910354 30.040901 -14.104038
35.832659 30.935149 -12.989215
14.539256 30.343887 -32.159
13.712857 32.196676 -32.473514
14.601215 32.017614 -32.514282
14.713025 25.13307 -30.898106
14.591055 26.90229 -31.33547
15.581663 24.968179 -31.012124
14.831691 23.343134 -30.413519
13.841082 25.277245 -30.736866
14.713025 25.13307 -30.898106
18.178659 17.615763 -29.744999
19.031873 17.660351 -30.016859
23.13535 18.106703 -31.049809
23.876943 18.319067 -31.271454
22.31804 17.993009 -30.911163
22.085221 19.681877 -31.001387
23.13535 18.106703 -31.049809
21.541346 17.829803 -30.662817
22.31804 17.993009 -30.911163
30.508947 53.376934 -24.785435
29.092278 53.95393 -25.188967
31.792593 52.866009 -24.366333
30.754963 51.742241 -24.950865
30.508947 53.376934 -24.785435
33.079272 52.274754 -23.980846
31.792593 52.866009 -24.366333
34.203083 51.753792 -23.538969
33.16242 50.710354 -24.089886
33.079272 52.274754 -23.980846
40.61426 46.660274 -13.520353
40.788431 47.361927 -14.709646
39.725326 45.397896 -13.020773
40.61426 46.660274 -13.520353
40.376497 45.949604 -12.289484
38.39683 42.480808 -10.064878
38.705067 43.304485 -11.33819
39.179327 43.863548 -10.516592
37.666054 41.013537 -9.663218
38.39683 42.480808 -10.064878
10.54272 22.478943 -29.363125
9.658665 22.789479 -29.357572
11.564929 20.349873 -28.976519
10.54272 22.478943 -29.363125
11.478844 22.252514 -29.424824
18.123531 70.659397 -26.389539
17.236333 69.411891 -27.216791
16.516652 71.144936 -27.067366
29.866747 25.171005 -29.74856
29.981299 26.409548 -29.072874
30.586497 25.039926 -29.373995
29.745793 23.822935 -30.271597
29.140594 25.192557 -29.970476
29.866747 25.171005 -29.74856
29.687963 22.579588 -30.918835
29.745793 23.822935 -30.271597
35.351477 28.110495 -19.989168
35.315039 29.049418 -18.876099
12.516358 49.176422 -33.621689
11.871531 50.988381 -33.733318
13.15468 47.33823 -33.537906
12.516358 49.176422 -33.621689
13.599934 48.910572 -33.232975
13.802784 45.512882 -33.394634
12.719207 45.778732 -33.783348
13.15468 47.33823 -33.537906
35.862686 32.666353 -10.893296
35.943237 34.571846 -10.858057
35.976265 33.475904 -9.904965
35.895546 31.821494 -11.976104
35.862686 32.666353 -10.893296
19.888934 17.663006 -30.219267
19.031873 17.660351 -30.016859
18.733987 19.443291 -30.309095
11.287354 25.938685 -30.37746
11.334836 24.130997 -29.893847
31.392621 26.04298 -28.277878
30.884701 27.499544 -27.994076
31.576274 27.264055 -27.573645
31.299719 24.92396 -29.105393
31.392621 26.04298 -28.277878
12.3145 52.583732 -33.377243
11.871531 50.988381 -33.733318
13.503668 52.294106 -32.837158
12.3145 52.583732 -33.377243
12.856555 54.129074 -32.897644
23.669444 59.127987 -26.36777
22.09359 59.699543 -26.967399
23.068886 60.98468 -26.277771
24.211969 57.306946 -26.500853
23.669444 59.127987 -26.36777
24.766312 55.493199 -26.62055
23.248491 56.029103 -27.177096
24.211969 57.306946 -26.500853
26.210534 55.009788 -26.105774
27.702258 54.451614 -25.637604
25.247056 53.731945 -26.782017
24.766312 55.493199 -26.62055
26.210534 55.009788 -26.105774
39.435944 46.657028 -17.182512
39.337553 47.254418 -18.181185
40.063541 46.744506 -15.388065
40.788431 47.361927 -14.709646
39.428154 46.072904 -16.103251
40.063541 46.744506 -15.388065
39.327702 45.436964 -14.966828
38.700103 45.349486 -16.761274
39.435944 46.657028 -17.182512
39.428154 46.072904 -16.103251
36.236799 36.088148 -8.906704
36.399826 37.107819 -10.039907
36.579809 37.81457 -9.076885
36.184658 34.946445 -7.890796
36.004675 34.239694 -8.853818
36.236799 36.088148 -8.906704
13.947292 35.49988 -33.03775
13.022924 35.720539 -33.129063
13.195401 37.350015 -33.338017
25.993094 22.009456 -31.274166
26.732533 22.18676 -31.295698
9.680715 20.859848 -28.934652
8.710575 23.073025 -29.377405
9.658665 22.789479 -29.357572
9.680715 20.859848 -28.934652
10.753256 18.598499 -28.520399
15.111642 14.040589 -28.127019
14.139503 14.173761 -27.997243
13.8502 16.108486 -28.34374
15.111642 14.040589 -28.127019
16.096654 14.009892 -28.340646
11.906766 65.998604 -30.903797
11.30716 64.472172 -31.616295
13.322699 65.7066 -30.256895
11.906766 65.998604 -30.903797
12.61383 67.456829 -30.147072
14.829609 68.531127 -28.697394
13.307325 68.891685 -29.354061
15.539309 66.741371 -28.802746
14.829609 68.531127 -28.697394
16.339154 68.107674 -27.999969
19.816351 70.111645 -25.755242
18.123531 70.659397 -26.389539
20.505678 68.348625 -25.893427
19.816351 70.111645 -25.755242
21.188141 66.526139 -25.986451
19.525675 67.103867 -26.631988
20.505678 68.348625 -25.893427
21.831297 64.695305 -26.092771
21.188141 66.526139 -25.986451
22.8113 65.940064 -25.35421
24.049599 62.261177 -25.569336
23.068886 60.98468 -26.277771
22.473744 62.832733 -26.168966
24.049599 62.261177 -25.569336
25.089963 63.472297 -24.918776
27.510224 22.279719 -31.170521
26.732533 22.18676 -31.295698
26.745685 23.653455 -30.965602
27.510224 22.279719 -31.170521
28.22992 22.431441 -31.152586
28.978052 22.480477 -30.979129
29.687963 22.579588 -30.918835
33.996343 30.254151 -22.16532
33.553587 30.837231 -22.958424
33.719123 31.876289 -22.024162
34.327324 28.560188 -22.400059
33.996343 30.254151 -22.16532
34.49286 29.599247 -21.465798
34.889094 28.894617 -20.67358
35.351477 28.110495 -19.989168
11.79836 40.998373 -33.848186
12.045841 42.603111 -33.935756
12.491592 39.178213 -33.57893
11.79836 40.998373 -33.848186
13.415961 38.957554 -33.487617
13.195401 37.350015 -33.338017
12.491592 39.178213 -33.57893
12.001435 62.719589 -31.690926
11.30716 64.472172 -31.616295
12.689588 60.890763 -31.735408
12.001435 62.719589 -31.690926
13.303787 62.419548 -31.058101
13.365036 59.068748 -31.749278
12.689588 60.890763 -31.735408
14.027442 57.203087 -31.761603
13.365036 59.068748 -31.749278
14.654346 58.72506 -31.114908
14.681237 55.349423 -31.742397
13.391928 55.693112 -32.376766
14.027442 57.203087 -31.761603
35.304783 51.155548 -23.112789
34.203083 51.753792 -23.538969
35.202965 49.663505 -23.128096
35.304783 51.155548 -23.112789
35.160101 48.176102 -23.167995
34.243368 48.701988 -23.687908
35.202965 49.663505 -23.128096
34.936356 46.746941 -23.097479
35.160101 48.176102 -23.167995
35.895952 47.708458 -22.537667
37.793691 45.668377 -19.437735
38.517414 46.478733 -18.78705
37.98417 45.123253 -18.491221
37.506792 46.17118 -20.338013
37.793691 45.668377 -19.437735
36.973548 44.8157 -20.042183
37.080238 46.701118 -21.13174
37.506792 46.17118 -20.338013
36.179428 45.798901 -21.704805
36.573017 47.181515 -21.894085
37.080238 46.701118 -21.13174
35.41514 30.039459 -17.882193
35.315039 29.049418 -18.876099
35.054448 30.873991 -18.652718
35.66649 29.167506 -17.030525
35.41514 30.039459 -17.882193
35.405899 30.992079 -16.807144
35.997627 28.197993 -16.296036
35.66649 29.167506 -17.030525
35.887037 29.106161 -15.145471
35.680566 31.054865 -14.914044
35.910354 30.040901 -14.104038
35.997627 28.197993 -16.296036
35.887037 29.106161 -15.145471
36.0627 33.753137 -6.823473
36.184658 34.946445 -7.890796
35.940771 31.788172 -6.898174
36.0627 33.753137 -6.823473
36.050938 32.443317 -5.883736
35.977585 31.076603 -8.002439
35.940771 31.788172 -6.898174
12.119647 25.683633 -30.474943
11.287354 25.938685 -30.37746
12.901587 34.084921 -32.81665
13.022924 35.720539 -33.129063
12.901587 34.084921 -32.81665
13.712857 32.196676 -32.473514
14.555295 28.630175 -31.78386
14.539256 30.343887 -32.159
15.443653 28.451113 -31.824628
14.555295 28.630175 -31.78386
14.591055 26.90229 -31.33547
12.993002 25.487084 -30.612951
13.841082 25.277245 -30.736866
13.086392 23.683859 -30.114271
12.119647 25.683633 -30.474943
12.993002 25.487084 -30.612951
17.303113 17.672495 -29.535652
17.00138 19.497368 -29.897341
18.178659 17.615763 -29.744999
17.586309 15.807363 -29.131609
16.409031 17.688968 -29.283951
17.303113 17.672495 -29.535652
17.957034 13.96404 -28.829394
17.586309 15.807363 -29.131609
25.182912 21.899927 -31.351579
25.157812 23.450968 -31.168194
25.993094 22.009456 -31.274166
24.417595 21.722814 -31.291716
25.182912 21.899927 -31.351579
23.577966 21.622419 -31.320755
23.508001 23.241043 -31.274646
24.417595 21.722814 -31.291716
23.695045 19.94988 -31.238928
23.876943 18.319067 -31.271454
22.785452 21.468109 -31.221859
23.577966 21.622419 -31.320755
23.695045 19.94988 -31.238928
20.702914 17.768684 -30.487198
20.429479 19.507065 -30.687122
21.541346 17.829803 -30.662817
19.888934 17.663006 -30.219267
20.702914 17.768684 -30.487198
33.294932 29.745469 -23.795967
33.017712 31.367607 -23.654809
33.553587 30.837231 -22.958424
33.174358 28.707886 -24.750998
33.294932 29.745469 -23.795967
32.977037 27.595255 -25.594009
32.561735 29.163214 -25.335365
33.174358 28.707886 -24.750998
32.894812 26.57395 -26.562384
32.977037 27.595255 -25.594009
32.224304 26.929037 -27.017912
32.894812 26.57395 -26.562384
3 0 49 47
3 178 52 179
3 182 181 52
3 180 181 182
3 1 56 54
3 2 183 185
3 183 58 184
3 183 184 185
3 2 60 58
3 4 63 61
3 187 186 64
3 6 67 66
3 6 69 67
3 3 72 70
3 7 75 73
3 7 77 75
3 7 79 77
3 8 82 80
3 8 84 82
3 9 87 85
3 9 89 87
3 9 91 89
3 10 188 190
3 190 189 92
3 188 189 190
3 10 191 192
3 11 96 94
3 11 98 96
3 5 101 99
3 12 104 102
3 14 105 48
3 14 193 195
3 195 194 105
3 193 194 195
3 196 106 197
3 16 198 200
3 198 108 199
3 198 199 200
3 16 109 108
3 16 111 109
3 18 112 50
3 18 113 112
3 20 114 51
3 20 115 114
3 20 117 115
3 201 118 202
3 203 202 53
3 201 202 203
3 205 204 118
3 22 121 119
3 24 122 55
3 24 123 122
3 25 206 208
3 208 207 57
3 206 207 208
3 25 209 210
3 25 211 212
3 26 213 215
3 215 214 59
3 213 214 215
3 26 216 217
3 218 125 219
3 28 220 222
3 220 126 221
3 220 221 222
3 28 127 126
3 223 128 224
3 226 225 128
3 29 131 129
3 31 132 62
3 31 133 132
3 13 134 103
3 32 135 65
3 32 136 135
3 32 227 229
3 229 228 136
3 227 228 229
3 33 230 232
3 232 231 137
3 230 231 232
3 34 233 234
3 34 235 237
3 235 138 236
3 235 236 237
3 34 139 138
3 35 140 68
3 35 141 140
3 27 142 124
3 36 143 71
3 36 144 143
3 15 145 107
3 37 146 74
3 37 147 146
3 37 148 147
3 38 149 76
3 38 150 149
3 38 151 150
3 39 152 78
3 39 153 152
3 17 154 110
3 40 155 81
3 40 156 155
3 40 157 156
3 41 158 83
3 41 159 158
3 238 160 239
3 19 240 241
3 42 161 86
3 42 162 161
3 42 163 162
3 43 164 88
3 43 165 164
3 43 166 165
3 44 167 90
3 44 168 167
3 21 169 116
3 242 170 243
3 244 243 93
3 242 243 244
3 246 245 170
3 23 247 249
3 249 248 120
3 247 248 249
3 45 250 252
3 252 251 95
3 250 251 252
3 45 253 255
3 253 171 254
3 253 254 255
3 45 172 171
3 257 256 97
3 30 173 130
3 46 174 100
3 46 175 174
3 258 176 259
3 260 177 261
3 262 261 176
3 260 261 262
3 264 263 177
3 47 48 12
3 49 48 47
3 49 14 48
3 265 16 266
3 267 50 268
3 269 268 16
3 267 268 269
3 270 50 271
3 272 18 273
3 274 273 50
3 272 273 274
3 275 51 276
3 52 277 279
3 277 51 278
3 277 278 279
3 52 20 51
3 52 53 20
3 280 53 281
3 282 281 52
3 280 281 282
3 284 283 53
3 54 55 22
3 56 55 54
3 56 24 55
3 285 57 286
3 58 287 289
3 287 57 288
3 287 288 289
3 58 25 57
3 58 59 25
3 60 59 58
3 60 26 59
3 290 28 291
3 290 291 292
3 61 62 29
3 63 62 61
3 63 31 62
3 64 65 13
3 293 65 294
3 295 294 64
3 293 294 295
3 296 32 297
3 298 297 65
3 296 297 298
3 300 299 32
3 302 301 33
3 66 303 304
3 67 305 307
3 307 306 66
3 305 306 307
3 67 308 310
3 308 34 309
3 308 309 310
3 67 68 34
3 69 68 67
3 69 35 68
3 70 71 27
3 72 71 70
3 72 36 71
3 73 74 15
3 75 74 73
3 75 37 74
3 75 76 37
3 77 76 75
3 77 38 76
3 77 78 38
3 79 78 77
3 79 39 78
3 80 81 17
3 82 81 80
3 82 40 81
3 82 83 40
3 84 83 82
3 84 41 83
3 85 86 19
3 87 86 85
3 87 42 86
3 87 88 42
3 89 88 87
3 89 43 88
3 89 90 43
3 91 90 89
3 91 44 90
3 92 93 21
3 311 93 312
3 313 312 92
3 311 312 313
3 315 314 93
3 94 95 23
3 96 95 94
3 96 45 95
3 96 97 45
3 98 97 96
3 98 316 318
3 318 317 97
3 316 317 318
3 99 100 30
3 101 100 99
3 101 46 100
3 319 2 320
3 102 103 4
3 104 103 102
3 104 13 103
3 48 104 12
3 105 104 48
3 105 13 104
3 105 64 13
3 321 64 322
3 323 322 105
3 321 322 323
3 325 324 64
3 326 66 327
3 106 328 330
3 328 66 329
3 328 329 330
3 106 6 66
3 331 107 332
3 333 332 3
3 331 332 333
3 334 107 335
3 336 15 337
3 338 337 107
3 336 337 338
3 108 339 340
3 108 341 343
3 341 15 342
3 341 342 343
3 108 73 15
3 109 73 108
3 109 7 73
3 109 110 7
3 111 110 109
3 111 17 110
3 50 111 16
3 112 111 50
3 112 17 111
3 112 80 17
3 113 80 112
3 113 8 80
3 344 19 345
3 51 346 347
3 114 348 350
3 350 349 51
3 348 349 350
3 114 351 353
3 351 19 352
3 351 352 353
3 114 85 19
3 115 85 114
3 115 9 85
3 115 116 9
3 117 116 115
3 117 21 116
3 53 117 20
3 118 117 53
3 118 21 117
3 118 92 21
3 354 92 355
3 356 355 118
3 354 355 356
3 357 10 358
3 359 358 92
3 357 358 359
3 119 360 362
3 360 120 361
3 360 361 362
3 121 120 119
3 121 23 120
3 55 121 22
3 122 121 55
3 122 23 121
3 122 94 23
3 123 94 122
3 123 11 94
3 364 363 5
3 57 365 367
3 365 366 367
3 369 368 57
3 59 370 372
3 372 371 25
3 370 371 372
3 374 373 59
3 375 124 376
3 125 377 379
3 377 124 378
3 377 378 379
3 125 27 124
3 380 125 381
3 126 382 384
3 382 125 383
3 382 383 384
3 126 27 125
3 126 70 27
3 127 70 126
3 127 3 70
3 385 28 386
3 387 28 388
3 389 127 390
3 391 390 28
3 389 390 391
3 128 392 394
3 392 127 393
3 392 393 394
3 128 3 127
3 128 395 397
3 397 396 3
3 395 396 397
3 399 398 128
3 129 130 1
3 131 130 129
3 131 30 130
3 62 131 29
3 132 131 62
3 132 30 131
3 132 99 30
3 133 99 132
3 133 5 99
3 103 63 4
3 134 63 103
3 134 31 63
3 65 134 13
3 135 134 65
3 135 31 134
3 135 133 31
3 136 133 135
3 136 5 133
3 136 400 402
3 402 401 5
3 400 401 402
3 404 403 136
3 406 405 32
3 137 407 409
3 409 408 0
3 407 408 409
3 412 411 137
3 410 411 412
3 414 413 33
3 138 415 416
3 138 417 418
3 138 419 421
3 419 119 420
3 419 420 421
3 139 119 138
3 139 22 119
3 68 139 34
3 140 139 68
3 140 22 139
3 140 54 22
3 141 54 140
3 141 1 54
3 124 422 423
3 142 424 426
3 426 425 124
3 424 425 426
3 142 427 428
3 71 142 27
3 143 142 71
3 143 429 431
3 431 430 142
3 429 430 431
3 143 432 434
3 432 106 433
3 432 433 434
3 144 106 143
3 144 6 106
3 107 72 3
3 145 72 107
3 145 36 72
3 74 145 15
3 146 145 74
3 146 36 145
3 146 144 36
3 147 144 146
3 147 6 144
3 147 69 6
3 148 69 147
3 148 35 69
3 76 148 37
3 149 148 76
3 149 35 148
3 149 141 35
3 150 141 149
3 150 1 141
3 150 129 1
3 151 129 150
3 151 29 129
3 78 151 38
3 152 151 78
3 152 29 151
3 152 61 29
3 153 61 152
3 153 4 61
3 110 79 7
3 154 79 110
3 154 39 79
3 81 154 17
3 155 154 81
3 155 39 154
3 155 153 39
3 156 153 155
3 156 4 153
3 156 102 4
3 157 102 156
3 157 12 102
3 83 157 40
3 158 157 83
3 158 12 157
3 158 47 12
3 159 47 158
3 159 0 47
3 435 18 436
3 437 18 438
3 439 113 440
3 441 440 18
3 439 440 441
3 160 442 444
3 442 113 443
3 442 443 444
3 160 8 113
3 86 445 447
3 447 446 19
3 445 446 447
3 161 448 450
3 450 449 86
3 448 449 450
3 161 451 452
3 161 453 455
3 453 160 454
3 453 454 455
3 162 160 161
3 162 8 160
3 162 84 8
3 163 84 162
3 163 41 84
3 88 163 42
3 164 163 88
3 164 41 163
3 164 159 41
3 165 159 164
3 165 0 159
3 165 137 0
3 166 137 165
3 166 33 137
3 90 166 43
3 167 166 90
3 167 33 166
3 167 456 458
3 458 457 33
3 456 457 458
3 168 459 461
3 461 460 167
3 459 460 461
3 168 462 463
3 116 91 9
3 169 91 116
3 169 44 91
3 93 169 21
3 170 169 93
3 170 44 169
3 170 168 44
3 464 168 465
3 466 465 170
3 464 465 466
3 468 467 168
3 469 10 470
3 471 10 472
3 471 472 473
3 475 474 10
3 476 2 477
3 120 478 479
3 481 480 120
3 95 482 484
3 484 483 23
3 482 483 484
3 486 485 95
3 171 487 488
3 171 489 491
3 489 2 490
3 489 490 491
3 171 60 2
3 172 60 171
3 172 26 60
3 97 172 45
3 492 172 493
3 494 493 97
3 492 493 494
3 495 26 496
3 497 496 172
3 495 496 497
3 499 498 26
3 130 56 1
3 173 56 130
3 173 24 56
3 100 173 30
3 174 173 100
3 174 24 173
3 174 123 24
3 175 123 174
3 175 11 123
3 500 101 501
3 502 501 5
3 500 501 502
3 503 101 504
3 505 46 506
3 507 506 101
3 505 506 507
3 176 508 509
3 176 510 512
3 510 46 511
3 510 511 512
3 176 175 46
3 177 175 176
3 177 11 175
3 177 98 11
3 513 98 514
3 515 514 177
3 513 514 515
3 517 516 98
3 518 49 519
3 520 519 0
3 518 519 520
3 521 49 522
3 523 14 524
3 525 524 49
3 523 524 525
3 526 14 527
3 529 528 14
