ply
format ascii 1.0
element vertex 968
property float x
property float y
property float z
element face 1244
property list uchar int vertex_index
end_header
34.260532 -92.982216 35.617607
56.645882 -68.257851 40.761032
46.346249 -66.273041 50.361885
46.506927 -84.825897 43.900452
34.72068 -76.917175 54.325111
55.842518 -62.785625 20.594648
50.797157 -78.366135 22.371367
64.633827 -54.137817 35.451302
38.095104 -62.993671 51.370918
40.857025 -72.651733 52.485313
41.726608 -56.387402 48.658722
56.482155 -66.205521 30.621853
53.809883 -70.530518 21.792034
53.640564 -74.00766 32.270641
40.25967 -91.584564 41.664864
44.652813 -92.258408 32.793617
57.449577 -61.059349 45.779381
61.222321 -54.129566 44.702721
60.393517 -61.075497 38.078217
60.539753 -58.92271 27.865288
53.442974 -68.310852 48.220749
52.370216 -76.218964 42.810089
48.037212 -75.875702 50.219124
41.255127 -82.547531 50.681282
34.805485 -85.260643 47.953022
50.562378 -59.162273 48.217094
29.718771 -71.019493 61.017181
28.430477 -84.7173 44.649582
56.566299 -58.423592 11.357579
49.639908 -82.752548 33.361591
60.274921 -55.048592 17.892046
36.149734 -65.676117 53.210159
56.844284 -67.456596 35.783073
55.052483 -70.024544 31.562229
55.16584 -71.29673 36.824371
37.319416 -92.902679 38.814594
39.833496 -95.471756 35.192932
57.561653 -64.869949 43.769562
59.417049 -61.338829 42.501183
58.519356 -64.600533 39.451759
58.623817 -63.799622 34.503494
50.302826 -67.533218 49.890617
50.974285 -72.091003 49.34565
47.724113 -71.134811 50.944443
37.769234 -75.163292 53.498634
41.379318 -77.634628 52.374542
38.040722 -79.958382 52.510063
37.934502 -84.562477 49.718193
34.85252 -81.231651 52.054161
44.157181 -61.324924 49.277763
46.150311 -57.781826 48.247894
48.552753 -62.747417 49.219048
52.484818 -63.892445 48.686943
24.518368 -90.31485 38.706383
56.087021 -60.734921 15.848844
56.373589 -62.657223 11.944241
52.550217 -74.340355 22.091156
49.620605 -80.505623 43.549721
51.082626 -79.691376 38.370743
48.384796 -84.248131 38.862526
46.127903 -90.439171 27.620203
63.243729 -54.38596 40.59687
57.832291 -60.839977 24.332111
60.385586 -57.163506 22.78661
57.615032 -58.867374 19.442169
57.599243 -56.642025 14.747515
42.041367 -64.681976 50.499405
43.778881 -69.619919 51.440033
39.667984 -67.723099 51.84417
37.081551 -70.331497 53.425392
34.43158 -72.39119 55.228088
39.91695 -59.853901 49.875992
56.016014 -64.614273 25.531586
54.739258 -66.6996 21.348103
54.747211 -68.446083 26.373795
53.623352 -72.328751 26.94573
52.202835 -76.34639 27.400673
43.314026 -88.740746 43.401245
45.491272 -88.793633 38.755558
42.640289 -92.756554 37.582794
56.359097 -56.809155 47.093742
58.389584 -53.379238 47.230042
59.282738 -57.588833 45.033058
61.25116 -57.865856 41.456425
62.393387 -57.592003 36.742287
62.997566 -56.770466 31.486479
60.642532 -60.253529 33.045265
58.254681 -62.512909 29.38158
55.561111 -68.550735 45.084
54.66124 -72.125168 41.884689
53.295826 -72.413338 46.243
50.613831 -76.422272 47.180618
47.484161 -80.468803 47.837021
44.697296 -74.57531 51.788712
44.709732 -79.48526 50.753281
44.105282 -84.259613 47.93187
40.773148 -87.248222 47.036545
37.64579 -88.879738 44.987537
34.625694 -89.101036 42.226593
52.57843 -55.628113 47.778496
54.443855 -60.302685 47.620789
55.550507 -64.621498 46.940472
32.004269 -69.615845 58.286377
31.785057 -73.83989 57.035683
31.751146 -77.839119 54.858788
31.761869 -81.510361 51.211769
31.701761 -84.991341 45.987537
31.470282 -88.653214 39.686119
28.055502 -88.756668 38.333809
30.862095 -92.892319 33.180683
53.335503 -75.365936 37.660774
51.87624 -78.222534 32.870422
50.31958 -80.670876 27.807423
47.150208 -87.551834 33.477703
48.201363 -85.419426 27.997688
48.852165 -82.870628 22.554554
63.343346 -55.432106 26.163612
63.563576 -53.614086 21.004688
56.839844 -67.918373 38.320145
56.005096 -69.350143 36.334148
55.937759 -69.817238 38.891777
35.822235 -93.044106 37.192451
37.122623 -94.829872 35.442116
35.578552 -94.991867 33.797634
57.212036 -66.612251 42.394299
58.164543 -64.801773 41.723602
57.588112 -66.406433 40.123581
57.741177 -66.070923 37.694008
48.404037 -66.956314 50.23365
49.070816 -69.345352 50.443703
47.163193 -68.717926 50.77491
36.232468 -76.146423 53.946617
37.959953 -77.576263 53.193977
36.36755 -78.466522 53.355095
36.425858 -80.735237 52.353233
34.810543 -79.109238 53.403572
45.321156 -63.805466 49.820595
46.378548 -62.058411 49.245323
47.486954 -64.52523 49.793236
49.545349 -65.167648 49.657608
55.91806 -61.790737 18.19483
55.643333 -62.787544 16.233408
55.376823 -63.796719 18.598675
51.725426 -76.307404 22.232433
52.097244 -75.258904 19.614388
51.156197 -77.23468 19.718796
50.163029 -79.330704 19.815479
48.09317 -82.681213 43.798752
49.015366 -82.427124 41.312263
47.518204 -84.669678 41.473846
64.002495 -54.32518 38.110786
65.166565 -53.821903 32.699394
56.687332 -61.799229 22.502506
57.692261 -59.887787 21.864681
56.622826 -60.819843 20.070368
56.641144 -59.779938 17.686172
39.974842 -63.833359 50.787651
40.888451 -66.249313 51.14991
38.904766 -65.323151 51.535431
35.138096 -66.829407 54.320213
36.630173 -67.965561 53.285065
35.452808 -69.102356 54.310204
35.756432 -71.436371 54.309967
34.265987 -70.110397 55.418793
39.018501 -61.474174 50.591461
40.994179 -62.246803 50.095917
56.232986 -65.444656 28.06024
55.334465 -66.524918 25.994328
55.524616 -67.342422 28.543999
54.369583 -71.992363 31.937454
54.28326 -71.212257 29.292889
53.641827 -73.19516 29.590267
52.970581 -74.311111 27.17915
52.916382 -75.224884 29.861725
41.764767 -90.337021 42.695744
42.953144 -90.81488 40.619179
41.484413 -92.383766 39.725483
41.014179 -96.090431 33.186188
57.002655 -58.986401 46.493782
57.939358 -57.256672 46.258018
58.364452 -59.317486 45.344711
60.017193 -61.27758 40.401031
60.32579 -59.601017 41.947498
60.947235 -59.537392 39.784966
61.909531 -57.798618 39.204712
61.367496 -59.331928 37.403419
61.628227 -58.985973 34.877365
60.586018 -60.732597 35.604469
57.548611 -65.030121 32.606583
58.47068 -63.211384 31.943775
57.311596 -64.345261 30.039429
57.057922 -63.569672 27.492411
54.634178 -68.498398 46.828079
54.471436 -70.460297 45.690166
53.494987 -70.399879 47.431179
49.564911 -73.990562 49.816208
50.902058 -74.28479 48.46637
49.42749 -76.246002 48.890129
49.097504 -78.453049 47.554977
47.84293 -78.194153 49.237358
42.35347 -71.18605 51.962769
44.356075 -72.099564 51.744446
42.811523 -73.678741 52.181778
41.384079 -80.107956 51.762901
43.103123 -78.655869 51.69059
42.979099 -81.115974 50.814926
44.457417 -81.897705 49.57148
42.733131 -83.535767 49.461044
42.417969 -85.894196 47.630043
41.036125 -84.934464 49.101685
36.352703 -85.07151 48.908646
37.799904 -86.759872 47.576248
36.255547 -87.134674 46.475288
36.136997 -89.13868 43.644852
34.731064 -87.191971 45.255177
42.694454 -54.58569 48.216274
48.394073 -58.489929 48.246361
47.167221 -55.987797 47.907036
49.405876 -56.702778 47.926865
50.450779 -54.933609 47.797604
51.558449 -57.383591 47.901878
53.570347 -58.004238 47.716145
52.5952 -59.773174 48.041924
53.106079 -66.142288 48.621353
54.142277 -64.314148 47.991844
54.531944 -66.451134 47.587002
55.693771 -66.633621 46.183662
30.895906 -70.352631 59.673294
31.865314 -71.742737 57.739067
30.625134 -72.386803 58.873413
28.847038 -76.557587 57.120293
30.320116 -76.258713 56.625999
30.256142 -78.064575 55.054558
31.759596 -79.713593 53.240303
30.221252 -79.785614 53.119507
30.157055 -83.091988 48.144295
30.092949 -84.782578 45.192245
31.616743 -86.771904 42.921108
29.981049 -86.585503 42.044777
26.285748 -89.331841 38.296299
27.68885 -91.164024 35.280602
29.489594 -90.754921 35.615143
29.030418 -93.178589 32.556572
54.2883 -68.626015 21.599566
53.567619 -74.144569 42.369156
54.024639 -73.789009 39.870872
52.947205 -75.865417 40.294838
50.373756 -81.276367 35.91851
51.557056 -79.024391 35.632286
50.80909 -80.445404 33.139805
51.106747 -79.493011 30.364262
50.036831 -81.762436 30.575855
45.043179 -90.590988 35.853149
46.395691 -88.312943 36.165634
45.896645 -89.953186 33.260342
46.662121 -89.215523 24.987068
47.15332 -87.919228 27.902706
47.584541 -86.659821 25.206295
48.549 -84.168533 25.264198
59.912148 -53.814159 46.180542
59.488487 -51.662193 47.445724
61.849388 -57.894516 29.645191
63.190163 -56.163696 28.813499
61.886055 -57.164085 27.029018
60.327347 -56.145931 20.314945
61.918343 -55.371914 21.914055
61.918327 -54.326027 19.431036
63.621071 -52.542942 18.50576
61.89362 -53.195118 16.997913
60.212082 -53.885098 15.517117
56.836075 -57.522449 13.087651
36.48774 -62.197575 52.297417
37.138149 -64.397385 52.234039
56.706192 -66.881378 33.20406
55.741123 -68.09726 31.127748
55.921722 -68.772133 33.732742
55.163696 -70.708496 34.195625
54.39032 -72.69574 34.603142
38.786785 -92.437729 40.344276
40.040798 -93.584801 38.519791
38.598095 -94.39032 37.059181
57.644806 -63.020798 44.888416
58.565495 -61.26358 44.311157
58.501373 -63.090733 43.11483
59.095634 -63.028034 41.051704
59.450264 -62.828037 38.764351
59.601501 -62.489796 36.322803
58.657753 -64.265396 37.023575
57.711048 -65.609451 35.170673
51.993298 -67.987854 49.237709
52.263283 -70.193848 48.81205
50.782394 -69.840927 49.810532
49.456909 -71.69014 50.325653
48.010925 -73.521317 50.779282
39.318802 -73.988258 53.003174
41.208317 -75.14418 52.582756
39.580677 -76.457092 52.928848
39.697182 -78.912796 52.512817
39.683163 -81.337524 51.661629
39.568161 -83.713768 50.318275
38.024265 -82.291962 51.364861
36.415535 -82.938995 50.877251
34.848392 -83.279869 50.235687
42.933212 -58.845947 48.856064
43.901745 -57.069256 48.346336
45.155876 -59.567429 48.722015
47.393654 -60.280792 48.704803
49.568863 -60.954708 48.675804
51.615417 -61.563286 48.512146
50.607384 -63.365509 49.069534
51.433689 -65.711563 49.29567
56.316582 -59.612148 13.565594
56.403809 -60.543434 11.701454
56.001419 -61.707371 13.930637
55.807076 -63.780903 14.19582
53.243156 -72.42659 21.948729
52.923843 -73.361351 19.513746
51.053593 -78.343254 43.208405
51.753632 -78.001976 40.684666
50.43792 -80.194046 41.032982
49.77755 -81.948494 38.661629
49.09346 -83.595642 36.138271
44.31831 -93.804115 29.622938
45.462666 -91.479271 30.233273
62.326378 -54.320686 42.821457
62.276146 -52.387512 44.592609
63.382118 -52.576973 42.547478
59.160316 -59.891624 26.107864
60.457817 -58.091881 25.305412
59.015495 -58.987156 23.598276
58.907825 -58.001106 21.132084
58.835808 -56.940773 18.712828
58.785618 -55.815033 16.3424
57.591061 -57.78307 17.06835
56.722237 -58.679268 15.355884
44.19717 -65.505707 50.402771
45.112392 -67.976288 50.90995
42.990921 -67.144043 50.985703
41.699501 -68.705307 51.579323
40.333717 -70.172432 52.19873
37.785973 -66.703705 52.361382
38.392338 -69.088821 52.600174
38.915291 -71.525131 52.852501
37.470718 -72.740273 53.535049
36.02388 -73.794624 54.226357
34.5895 -74.670135 54.898865
40.810432 -58.151249 49.224571
41.973179 -60.578484 49.449173
43.12664 -63.035442 49.876274
55.876839 -63.726181 23.041771
55.2341 -64.750061 21.017828
55.225006 -65.658585 23.48447
54.680107 -67.588196 23.838589
54.179298 -69.511757 24.118641
54.891937 -69.263809 28.950377
54.197273 -70.378441 26.684336
53.656654 -71.434052 24.344826
53.05439 -73.36972 24.539715
52.335159 -75.342979 24.722387
51.491417 -77.384315 24.90152
44.902176 -86.873703 43.788769
45.986351 -86.868065 41.45417
44.456451 -88.946526 41.187035
44.053955 -90.892967 38.323868
43.705074 -92.703606 35.25885
41.241325 -94.300865 36.527477
42.370537 -94.561012 34.364464
43.40398 -94.379341 32.05127
55.587341 -54.539768 47.636177
57.350712 -55.091084 47.091251
58.902405 -55.53619 46.166252
60.228111 -55.862343 44.831646
59.471039 -59.525528 43.819466
60.383518 -57.79451 43.420292
61.328342 -56.060921 43.098572
62.218437 -56.12714 41.014328
62.925789 -56.059292 38.651222
63.48484 -55.857666 36.092381
63.931145 -55.523312 33.418182
62.742943 -57.248035 34.146881
61.774719 -58.504444 32.273666
60.612404 -59.646751 30.453098
59.596458 -62.017105 33.791615
59.488003 -61.41851 31.222923
59.327988 -60.705807 28.653856
58.02813 -61.718166 26.840061
56.837921 -62.717518 24.977966
56.227386 -68.469742 43.039429
55.677826 -70.162941 41.349831
55.19548 -70.379425 43.640327
54.094769 -72.341721 44.188515
52.900829 -74.353638 44.684566
52.256214 -72.33168 47.978817
52.014046 -74.403786 46.740116
51.594109 -76.409531 45.131409
50.168186 -78.499176 45.524433
48.634422 -80.602966 45.842564
47.020752 -82.68576 46.044281
45.812653 -70.438141 51.276794
46.261684 -72.885559 51.392784
46.452782 -75.314552 51.168243
43.05806 -76.172371 52.123169
44.805492 -77.040138 51.480476
46.408577 -77.720444 50.540916
46.174042 -80.095024 49.479378
45.806763 -82.425308 47.98185
45.365551 -84.692436 46.07122
43.708706 -86.548576 45.859398
42.082695 -88.168419 45.355461
40.505821 -89.469826 44.533287
39.389557 -86.024323 48.469238
39.18399 -88.254425 46.143837
38.979176 -90.393616 43.406147
37.486511 -90.924301 42.033142
35.997791 -91.101036 40.513359
34.477585 -91.020302 38.974819
44.90633 -55.270176 47.964722
53.639587 -53.899273 47.869019
54.561626 -56.260479 47.576782
55.396687 -58.544044 47.270966
56.070808 -60.735508 46.880325
53.480408 -62.08675 48.110115
55.123764 -62.510803 47.394386
56.517426 -62.824959 46.323006
56.692253 -64.808395 45.524944
56.585663 -66.687729 44.436104
33.069492 -68.790215 56.898438
33.07288 -70.988892 56.575546
33.110634 -73.190292 56.146515
33.169506 -75.360718 55.528084
30.436432 -74.362648 57.878296
31.753069 -75.87867 56.102089
33.231812 -77.473625 54.625542
33.281067 -79.51181 53.353035
33.305935 -81.470016 51.652626
33.301163 -83.357224 49.507019
30.194176 -81.446503 50.807686
31.745899 -83.255409 48.778549
33.265091 -85.197128 46.943493
33.19445 -87.026001 44.029572
33.078453 -88.887489 40.862923
32.894733 -90.825302 37.558563
26.555672 -86.982857 41.326492
28.288019 -86.616814 41.493317
29.79248 -88.562065 38.813629
31.231588 -90.683243 36.400642
32.6096 -92.875465 34.235844
56.9538 -61.422466 9.775856
54.951447 -65.778954 18.906399
55.010254 -71.773254 39.406624
54.289406 -73.300812 37.262207
53.555229 -74.739487 34.970657
52.271454 -77.49556 38.030602
52.618275 -76.846619 35.31221
52.819038 -76.080322 32.578651
52.073555 -77.318192 30.119989
51.312057 -78.45903 27.614357
50.547096 -79.524048 25.070063
46.943504 -86.55088 38.915554
47.75462 -85.957268 36.240921
48.407028 -85.132446 33.49255
46.599201 -89.039909 30.596596
47.747696 -86.567169 30.742893
48.90313 -84.126945 30.71839
49.267349 -82.993294 27.94968
49.548912 -81.78389 25.203728
49.819092 -80.548523 22.489786
49.190025 -81.574821 19.877119
64.295769 -55.057106 30.696362
64.601471 -54.459419 27.977226
64.860954 -53.730755 25.293322
61.906307 -56.32077 24.448032
63.467934 -54.580246 23.557623
65.077011 -52.873119 22.661823
65.244064 -51.891918 20.0882
58.736961 -54.638386 14.022362
34.098732 -93.9981 33.944374
34.757742 -95.002926 33.034388
34.919542 -93.987042 34.707621
64.875476 -53.373373 36.511261
64.55981 -53.467055 37.841003
64.318161 -54.231499 36.781044
65.216183 -53.29231 35.135722
64.875476 -53.373373 36.511261
64.900196 -53.97986 34.075348
65.482551 -53.134354 33.759767
65.216183 -53.29231 35.135722
34.7819 -68.483345 54.935208
35.295452 -67.965881 54.315208
34.624544 -67.34687 54.940212
34.18849 -68.987366 55.489502
34.859398 -69.606377 54.864498
34.7819 -68.483345 54.935208
38.556803 -62.233922 50.981189
38.152462 -61.114009 51.010548
37.690764 -61.873758 51.400276
42.210531 -55.486546 48.437498
41.6502 -54.278519 48.487611
41.166277 -55.179375 48.708835
30.307339 -70.686062 60.345237
30.549689 -69.691697 60.78381
29.961122 -70.025127 61.455753
28.785049 -77.391472 56.18763
28.079977 -76.703194 57.367275
29.489601 -78.144966 55.154763
29.55159 -77.311081 56.087425
28.785049 -77.391472 56.18763
29.472155 -79.005485 54.187237
30.238697 -78.925095 54.087032
29.489601 -78.144966 55.154763
29.261713 -84.749939 44.920913
29.306176 -83.891835 46.441425
28.47494 -83.859195 46.170094
27.416177 -92.496159 33.853657
26.77596 -91.568283 35.355973
28.086962 -93.503441 32.491642
28.359634 -92.171307 33.918587
27.416177 -92.496159 33.853657
28.704092 -94.497341 31.140469
28.086962 -93.503441 32.491642
56.682548 -58.857943 10.459474
56.682807 -57.803914 10.300904
53.972894 -70.078194 20.542191
54.212103 -69.125943 20.445957
54.049092 -69.578266 21.6958
47.342894 -87.270748 23.780987
47.123331 -87.937672 25.096682
46.881684 -88.548599 23.671374
47.763373 -85.992737 23.865053
47.342894 -87.270748 23.780987
61.102009 -53.105951 45.47092
60.446922 -52.948247 46.209831
60.567234 -53.971863 45.441631
56.759243 -57.374371 11.125562
56.894131 -56.9238 11.990598
56.701187 -57.973021 12.222615
56.682807 -57.803914 10.300904
56.759243 -57.374371 11.125562
36.079102 -62.849493 52.786179
35.850094 -61.83856 52.919868
35.850094 -61.83856 52.919868
36.175387 -61.160668 52.456734
37.753349 -95.546089 34.548448
36.990274 -95.777344 33.733404
55.561795 -64.297106 15.357725
55.725205 -63.284223 15.214614
55.479923 -63.800427 16.376519
55.720522 -64.793432 14.285152
55.561795 -64.297106 15.357725
52.387867 -74.756756 18.336236
51.901474 -75.706528 18.368917
44.709249 -93.355839 28.3709
44.170912 -94.524498 28.005222
39.394161 -58.686584 49.896416
38.995817 -59.520634 50.257393
40.363691 -59.002575 49.550281
39.840902 -57.835258 49.570706
39.394161 -58.686584 49.896416
42.245282 -95.397419 32.700118
41.692358 -95.325722 33.775326
41.567103 -96.162128 32.11098
42.762003 -95.306583 31.543521
42.887259 -94.470177 33.207867
42.245282 -95.397419 32.700118
43.266309 -95.155124 30.405337
42.762003 -95.306583 31.543521
46.568374 -54.729004 47.832977
47.697895 -55.095696 47.82864
52.061775 -54.409754 47.833389
50.997949 -54.062502 47.842944
51.514604 -55.280861 47.78805
53.109009 -54.763693 47.823757
52.592354 -53.545334 47.878651
52.061775 -54.409754 47.833389
32.101695 -68.55481 58.507877
31.622988 -68.952209 59.304924
32.53688 -69.20303 57.592408
32.634306 -68.141995 57.813908
32.101695 -68.55481 58.507877
29.738915 -74.581085 58.275379
29.882455 -73.65604 58.916882
29.388462 -81.42059 50.662018
29.418698 -80.635037 51.929684
24.666233 -89.0304 40.135806
23.807165 -89.607582 40.447848
31.522768 -93.976117 32.093645
32.396521 -93.96769 32.621226
31.735847 -92.883892 33.708264
58.094836 -52.255448 47.722226
57.526358 -53.106691 47.549616
59.244739 -50.540973 48.015118
60.068699 -50.796734 47.550505
62.192276 -51.362777 45.430998
62.827557 -51.514011 44.518226
64.485791 -51.670362 18.037978
63.623348 -51.962196 17.281373
36.218238 -95.858341 32.911164
36.990274 -95.777344 33.733404
36.350588 -94.910869 34.619875
35.401596 -95.97918 32.117983
36.218238 -95.858341 32.911164
35.401596 -95.97918 32.117983
34.757742 -95.002926 33.034388
55.346668 -64.305014 17.559152
55.479923 -63.800427 16.376519
55.510078 -63.292131 17.416041
51.43095 -76.694416 18.421121
51.901474 -75.706528 18.368917
51.626721 -76.246792 19.666592
50.911808 -77.698498 18.455194
51.43095 -76.694416 18.421121
50.415224 -78.74651 18.503535
50.911808 -77.698498 18.455194
50.659613 -78.282692 19.767138
49.906023 -79.824852 18.528745
50.415224 -78.74651 18.503535
64.16145 -53.488126 39.143938
63.782066 -53.518516 40.38698
63.623112 -54.35557 39.353828
64.16145 -53.488126 39.143938
64.55981 -53.467055 37.841003
65.776787 -52.989906 32.350865
65.482551 -53.134354 33.759767
65.394913 -53.597911 31.309819
65.776787 -52.989906 32.350865
38.546593 -60.33077 50.615127
38.152462 -61.114009 51.010548
39.467726 -60.664037 50.233727
38.995817 -59.520634 50.257393
38.546593 -60.33077 50.615127
40.308298 -96.672955 32.482123
40.423837 -95.781093 34.18956
39.717956 -96.363617 33.485495
40.88901 -96.927292 31.484547
40.308298 -96.672955 32.482123
41.567103 -96.162128 32.11098
40.88901 -96.927292 31.484547
42.148438 -53.363855 48.30623
41.6502 -54.278519 48.487611
43.216278 -53.677938 48.078565
42.148438 -53.363855 48.30623
48.817222 -55.453186 47.838555
47.697895 -55.095696 47.82864
48.286548 -56.345287 47.91695
49.928327 -55.818193 47.862234
49.339674 -54.568601 47.773924
48.817222 -55.453186 47.838555
31.068807 -69.320603 59.998382
30.549689 -69.691697 60.78381
31.450088 -69.984238 58.979836
31.622988 -68.952209 59.304924
31.068807 -69.320603 59.998382
28.212254 -75.882538 58.274704
28.079977 -76.703194 57.367275
28.944218 -75.678554 57.896377
28.212254 -75.882538 58.274704
29.583577 -76.40815 56.873146
29.680757 -75.529117 57.649231
28.944218 -75.678554 57.896377
29.338229 -83.046539 47.91745
29.369901 -82.243332 49.330323
30.125002 -83.937283 46.66827
29.338229 -83.046539 47.91745
29.306176 -83.891835 46.441425
26.074409 -90.652192 36.863821
25.402058 -89.823346 38.501341
25.190719 -91.143696 37.068863
26.987299 -90.247932 36.78845
26.074409 -90.652192 36.863821
26.77596 -91.568283 35.355973
29.676616 -94.233002 31.342369
30.592454 -94.089867 31.654425
29.946257 -93.035454 32.868628
29.676616 -94.233002 31.342369
28.704092 -94.497341 31.140469
56.757109 -63.09786 10.926609
56.36866 -63.694991 12.022893
54.426104 -68.174679 20.365481
54.651583 -67.211472 20.239749
54.513779 -67.662807 21.473834
54.426104 -68.174679 20.365481
54.212103 -69.125943 20.445957
48.245602 -84.747093 23.894005
48.066771 -85.414177 25.235247
47.763373 -85.992737 23.865053
48.397184 -84.09814 22.539182
48.700582 -83.51958 23.909376
48.245602 -84.747093 23.894005
48.573736 -83.42136 21.210047
48.397184 -84.09814 22.539182
60.235092 -51.872264 46.842422
59.700317 -52.738176 46.813133
60.446922 -52.948247 46.209831
60.068699 -50.796734 47.550505
60.235092 -51.872264 46.842422
62.759623 -52.288285 16.527449
63.623348 -51.962196 17.281373
62.757345 -52.86903 17.751836
61.860438 -52.596063 15.804534
62.759623 -52.288285 16.527449
61.019669 -52.941053 15.064136
61.860438 -52.596063 15.804534
61.052851 -53.540108 16.257515
60.166256 -53.280585 14.352904
61.019669 -52.941053 15.064136
57.225335 -56.490932 12.786592
57.606918 -56.05072 13.616523
57.217659 -57.082237 13.917583
57.225335 -56.490932 12.786592
56.894131 -56.9238 11.990598
36.404307 -63.949398 52.75449
36.812945 -63.29748 52.265728
36.079102 -62.849493 52.786179
35.910099 -64.588764 53.242549
36.643941 -65.036751 52.722099
36.404307 -63.949398 52.75449
35.491718 -65.16901 53.808006
35.910099 -64.588764 53.242549
34.985899 -65.745655 54.363033
35.643915 -66.252762 53.765186
35.491718 -65.16901 53.808006
34.558517 -66.263134 55.015953
34.985899 -65.745655 54.363033
34.624544 -67.34687 54.940212
34.558517 -66.263134 55.015953
36.887082 -61.47571 51.863526
36.175387 -61.160668 52.456734
37.291422 -62.595623 51.834168
37.690764 -61.873758 51.400276
36.887082 -61.47571 51.863526
38.491085 -95.326313 35.356981
37.860359 -94.610096 36.250648
37.753349 -95.546089 34.548448
39.108785 -95.867031 34.423856
39.215795 -94.931038 36.126057
38.491085 -95.326313 35.356981
39.717956 -96.363617 33.485495
39.108785 -95.867031 34.423856
29.386688 -70.379177 62.206535
29.961122 -70.025127 61.455753
27.631624 -83.914513 46.066835
28.47494 -83.859195 46.170094
23.651529 -90.988026 39.115649
23.807165 -89.607582 40.447848
24.283344 -91.740998 37.379379
23.651529 -90.988026 39.115649
25.190719 -91.143696 37.068863
24.283344 -91.740998 37.379379
56.085403 -64.256831 13.148682
56.36866 -63.694991 12.022893
56.090333 -63.219063 13.07003
56.085403 -64.256831 13.148682
55.720522 -64.793432 14.285152
53.422695 -71.961613 20.680418
53.706058 -71.013576 20.60207
53.526519 -71.478554 21.870382
53.263039 -72.428993 19.462926
53.422695 -71.961613 20.680418
53.0835 -72.89397 20.731237
53.219078 -72.887005 18.256781
53.263039 -72.428993 19.462926
52.801166 -73.80798 18.285915
52.510543 -74.310127 19.564067
52.387867 -74.756756 18.336236
53.219078 -72.887005 18.256781
52.801166 -73.80798 18.285915
45.281427 -92.193416 28.676068
44.890488 -92.641693 29.928106
44.709249 -93.355839 28.3709
45.614046 -91.673367 27.369532
45.795285 -90.959221 28.926738
45.281427 -92.193416 28.676068
45.940466 -91.106308 26.097356
45.614046 -91.673367 27.369532
46.207575 -90.494484 24.780788
46.395012 -89.827347 26.303635
45.940466 -91.106308 26.097356
46.480967 -89.8503 23.502049
46.207575 -90.494484 24.780788
46.881684 -88.548599 23.671374
46.480967 -89.8503 23.502049
63.380543 -51.608742 43.495661
62.827557 -51.514011 44.518226
62.829132 -52.482242 43.570043
63.851261 -52.614023 41.362284
63.312923 -53.481466 41.572174
63.782066 -53.518516 40.38698
63.927246 -51.708718 42.392063
63.851261 -52.614023 41.362284
63.380543 -51.608742 43.495661
63.927246 -51.708718 42.392063
40.715635 -56.079897 48.968991
41.166277 -55.179375 48.708835
40.257547 -56.961821 49.251915
39.840902 -57.835258 49.570706
41.26852 -57.269326 48.941646
40.715635 -56.079897 48.968991
40.257547 -56.961821 49.251915
43.723474 -94.867512 29.19117
43.861145 -94.091728 30.837104
43.266309 -95.155124 30.405337
44.170912 -94.524498 28.005222
43.723474 -94.867512 29.19117
56.125236 -53.686957 47.752684
55.171326 -53.36665 47.897419
57.006922 -53.962615 47.480221
56.125236 -53.686957 47.752684
56.469026 -54.815426 47.363714
57.870148 -54.235161 47.160646
57.526358 -53.106691 47.549616
57.006922 -53.962615 47.480221
44.322216 -54.020181 47.95279
43.216278 -53.677938 48.078565
43.800392 -54.927933 48.090498
45.437929 -54.370193 47.861821
46.036775 -55.628986 47.935879
46.568374 -54.729004 47.832977
44.322216 -54.020181 47.95279
45.437929 -54.370193 47.861821
49.900294 -53.688453 47.804762
49.339674 -54.568601 47.773924
49.900294 -53.688453 47.804762
50.997949 -54.062502 47.842944
53.169846 -52.68862 48.031815
52.592354 -53.545334 47.878651
54.197449 -53.046402 48.01384
53.169846 -52.68862 48.031815
54.613464 -54.219521 47.752598
55.171326 -53.36665 47.897419
54.197449 -53.046402 48.01384
33.086925 -67.712094 57.03463
32.634306 -68.141995 57.813908
33.590242 -68.327275 56.229325
33.086925 -67.712094 57.03463
33.667739 -69.450306 56.158615
34.18849 -68.987366 55.489502
33.590242 -68.327275 56.229325
29.082675 -71.332638 61.653591
29.386688 -70.379177 62.206535
29.523625 -71.984463 60.486324
29.082675 -71.332638 61.653591
29.976806 -72.668117 59.41444
30.171952 -71.703148 59.945297
29.523625 -71.984463 60.486324
30.530783 -73.374725 58.375855
29.976806 -72.668117 59.41444
29.882455 -73.65604 58.916882
30.378274 -75.31068 57.252147
29.738915 -74.581085 58.275379
29.680757 -75.529117 57.649231
29.432235 -79.804592 53.085594
29.472155 -79.005485 54.187237
30.207714 -80.616059 51.963596
29.432235 -79.804592 53.085594
29.418698 -80.635037 51.929684
30.175615 -82.269246 49.47599
29.388462 -81.42059 50.662018
29.369901 -82.243332 49.330323
27.576836 -84.820538 44.537266
27.631624 -83.914513 46.066835
25.549923 -88.538895 39.930763
24.666233 -89.0304 40.135806
25.402058 -89.823346 38.501341
25.684885 -87.364403 41.44586
25.549923 -88.538895 39.930763
26.42071 -88.157349 39.811396
25.774907 -86.236 42.93828
25.684885 -87.364403 41.44586
26.639433 -85.953316 42.875721
25.774907 -86.236 42.93828
27.505606 -85.770295 42.959134
26.639433 -85.953316 42.875721
27.421845 -86.799836 41.409904
28.359248 -85.667057 43.071449
27.576836 -84.820538 44.537266
27.505606 -85.770295 42.959134
33.273266 -93.944725 33.253493
34.098732 -93.9981 33.944374
33.435066 -92.928841 34.926726
33.273266 -93.944725 33.253493
32.396521 -93.96769 32.621226
31.522768 -93.976117 32.093645
30.592454 -94.089867 31.654425
56.601304 -59.917864 10.631411
56.682548 -58.857943 10.459474
56.485054 -59.483513 11.529516
56.876299 -60.35738 9.668612
56.601304 -59.917864 10.631411
56.678804 -60.98295 10.738655
57.219446 -60.745075 8.74074
56.876299 -60.35738 9.668612
57.047214 -62.480482 9.842417
56.663695 -62.039845 10.860048
56.757109 -63.09786 10.926609
57.421118 -61.809934 8.790087
57.047214 -62.480482 9.842417
57.219446 -60.745075 8.74074
57.421118 -61.809934 8.790087
55.13398 -65.296132 17.713014
55.346668 -64.305014 17.559152
55.164135 -64.787836 18.752537
54.757677 -66.751148 19.018897
54.845353 -66.239277 20.127251
54.651583 -67.211472 20.239749
54.984989 -66.285336 17.813413
54.757677 -66.751148 19.018897
55.13398 -65.296132 17.713014
54.984989 -66.285336 17.813413
53.972894 -70.078194 20.542191
53.706058 -71.013576 20.60207
49.419521 -80.946911 18.559565
49.906023 -79.824852 18.528745
49.676527 -80.452763 19.846299
48.742666 -82.773457 19.87133
49.021095 -82.222724 21.215837
48.573736 -83.42136 21.210047
48.957178 -82.108566 18.559184
48.742666 -82.773457 19.87133
49.419521 -80.946911 18.559565
48.957178 -82.108566 18.559184
58.644287 -51.396925 47.830067
58.094836 -52.255448 47.722226
58.939036 -52.520716 47.337883
58.644287 -51.396925 47.830067
59.244739 -50.540973 48.015118
61.628921 -52.234924 45.415864
61.102009 -53.105951 45.47092
61.749234 -53.258539 44.647665
61.628921 -52.234924 45.415864
62.192276 -51.362777 45.430998
64.959515 -54.215513 30.308303
65.394913 -53.597911 31.309819
64.731167 -54.439504 31.697878
65.112366 -53.916669 28.948735
64.959515 -54.215513 30.308303
64.44862 -54.758263 29.336794
65.309899 -53.624572 27.568558
65.112366 -53.916669 28.948735
65.43964 -53.260241 26.226605
65.309899 -53.624572 27.568558
64.731212 -54.095087 26.635274
65.609402 -52.898575 24.869636
65.43964 -53.260241 26.226605
65.71743 -52.469757 23.553886
65.609402 -52.898575 24.869636
64.968983 -53.301937 23.977573
65.858765 -52.038736 22.226341
65.71743 -52.469757 23.553886
65.942291 -51.548136 20.939529
65.858765 -52.038736 22.226341
65.160538 -52.382519 21.375011
66.051579 -51.050613 19.642161
65.942291 -51.548136 20.939529
65.297287 -51.34485 18.829198
64.432568 -52.21743 19.29698
64.485791 -51.670362 18.037978
66.051579 -51.050613 19.642161
65.297287 -51.34485 18.829198
59.428696 -53.657229 13.605526
60.166256 -53.280585 14.352904
59.474522 -54.261742 14.76974
58.175777 -55.048901 13.253947
58.168102 -55.640205 14.384939
57.606918 -56.05072 13.616523
58.703786 -54.036467 12.888751
58.175777 -55.048901 13.253947
59.428696 -53.657229 13.605526
58.703786 -54.036467 12.888751
3 1 120 118
3 0 123 121
3 0 476 478
3 478 477 123
3 476 477 478
3 1 126 124
3 1 118 126
3 2 130 128
3 4 133 131
3 4 135 133
3 2 138 136
3 2 128 138
3 5 142 140
3 6 145 143
3 6 146 145
3 3 149 147
3 7 479 481
3 481 480 150
3 479 480 481
3 7 482 483
3 7 484 486
3 484 151 485
3 484 485 486
3 5 154 152
3 5 140 154
3 8 158 156
3 487 161 488
3 489 488 159
3 487 488 489
3 490 163 491
3 492 491 161
3 490 491 492
3 8 493 495
3 493 164 494
3 493 494 495
3 8 156 164
3 11 168 166
3 13 171 169
3 13 173 171
3 14 176 174
3 16 180 178
3 18 183 181
3 18 185 183
3 18 187 185
3 11 190 188
3 11 166 190
3 20 194 192
3 22 197 195
3 22 199 197
3 9 202 200
3 23 205 203
3 23 207 205
3 23 209 207
3 24 212 210
3 24 214 212
3 10 496 498
3 496 215 497
3 496 497 498
3 25 218 216
3 25 220 218
3 25 222 220
3 20 225 223
3 20 192 225
3 26 499 501
3 499 227 500
3 499 500 501
3 26 229 227
3 502 230 503
3 504 232 505
3 506 505 230
3 504 505 506
3 507 234 508
3 509 508 232
3 507 508 509
3 27 510 512
3 510 236 511
3 510 511 512
3 27 238 236
3 513 240 514
3 515 242 516
3 517 516 240
3 515 516 517
3 519 518 242
3 28 520 521
3 12 522 524
3 524 523 243
3 522 523 524
3 21 246 244
3 29 249 247
3 29 251 249
3 15 254 252
3 525 257 526
3 527 526 255
3 525 526 527
3 529 528 257
3 17 530 532
3 532 531 259
3 530 531 532
3 19 263 261
3 30 266 264
3 30 268 266
3 30 269 268
3 28 533 535
3 535 534 270
3 533 534 535
3 28 536 537
3 539 538 271
3 540 271 541
3 32 275 273
3 34 276 119
3 34 277 276
3 35 280 278
3 543 542 122
3 37 283 281
3 39 284 125
3 39 285 284
3 39 287 285
3 32 288 127
3 32 273 288
3 41 291 289
3 43 292 129
3 43 293 292
3 44 296 294
3 46 297 132
3 46 298 297
3 46 300 298
3 48 301 134
3 48 302 301
3 49 305 303
3 51 306 137
3 51 307 306
3 51 309 307
3 41 310 139
3 41 289 310
3 54 313 311
3 544 314 545
3 546 545 141
3 544 545 546
3 548 547 314
3 56 316 315
3 550 549 144
3 57 319 317
3 59 320 148
3 59 321 320
3 552 551 322
3 61 326 324
3 62 329 327
3 64 330 153
3 64 331 330
3 64 333 331
3 54 334 155
3 54 311 334
3 66 337 335
3 68 338 157
3 68 339 338
3 31 340 272
3 69 341 160
3 69 342 341
3 69 343 342
3 70 344 162
3 70 345 344
3 71 553 554
3 71 555 557
3 555 346 556
3 555 556 557
3 71 347 346
3 66 348 165
3 66 335 348
3 72 351 349
3 74 352 167
3 74 353 352
3 33 354 274
3 75 355 170
3 75 356 355
3 75 357 356
3 76 358 172
3 76 359 358
3 77 362 360
3 79 363 175
3 79 364 363
3 36 365 279
3 558 366 559
3 560 559 177
3 558 559 560
3 561 367 562
3 563 562 366
3 561 562 563
3 565 564 367
3 80 369 368
3 82 370 179
3 82 371 370
3 38 372 282
3 83 373 182
3 83 374 373
3 83 375 374
3 84 376 184
3 84 377 376
3 84 379 377
3 86 380 186
3 86 381 380
3 40 382 286
3 87 383 189
3 87 384 383
3 87 385 384
3 72 386 191
3 72 349 386
3 88 389 387
3 90 390 193
3 90 391 390
3 42 392 290
3 91 393 196
3 91 394 393
3 91 395 394
3 92 396 198
3 92 397 396
3 67 398 336
3 93 399 201
3 93 400 399
3 45 401 295
3 94 402 204
3 94 403 402
3 94 404 403
3 95 405 206
3 95 406 405
3 95 407 406
3 96 408 208
3 96 409 408
3 47 410 299
3 97 411 211
3 97 412 411
3 97 413 412
3 98 414 213
3 98 415 414
3 50 416 304
3 567 566 217
3 99 568 570
3 570 569 219
3 568 569 570
3 99 571 573
3 571 417 572
3 571 572 573
3 99 418 417
3 100 419 221
3 100 420 419
3 52 421 308
3 101 422 224
3 101 423 422
3 101 424 423
3 88 425 226
3 88 387 425
3 102 574 575
3 102 576 578
3 576 426 577
3 576 577 578
3 102 427 426
3 103 428 228
3 103 429 428
3 579 430 580
3 104 431 231
3 104 432 431
3 104 433 432
3 105 434 233
3 105 435 434
3 581 436 582
3 106 437 235
3 106 438 437
3 106 439 438
3 107 440 237
3 107 441 440
3 53 583 584
3 108 442 239
3 108 443 442
3 108 444 443
3 109 445 241
3 109 446 445
3 109 585 587
3 587 586 446
3 585 586 587
3 55 447 312
3 73 448 350
3 89 449 388
3 110 450 245
3 110 451 450
3 58 452 318
3 111 453 248
3 111 454 453
3 111 455 454
3 112 456 250
3 112 457 456
3 78 458 361
3 113 459 253
3 113 460 459
3 60 461 323
3 114 462 256
3 114 463 462
3 114 464 463
3 115 465 258
3 115 466 465
3 115 467 466
3 81 588 589
3 591 590 260
3 593 592 325
3 85 468 378
3 116 469 262
3 116 470 469
3 63 471 328
3 117 472 265
3 117 473 472
3 117 474 473
3 595 594 267
3 65 475 332
3 118 119 32
3 120 119 118
3 120 34 119
3 121 122 35
3 123 122 121
3 123 596 598
3 598 597 122
3 596 597 598
3 123 599 600
3 602 601 123
3 124 125 37
3 126 125 124
3 126 39 125
3 126 127 39
3 118 127 126
3 118 32 127
3 128 129 41
3 130 129 128
3 130 43 129
3 131 132 44
3 133 132 131
3 133 46 132
3 133 134 46
3 135 134 133
3 135 48 134
3 136 137 49
3 138 137 136
3 138 51 137
3 138 139 51
3 128 139 138
3 128 41 139
3 140 141 54
3 142 141 140
3 142 603 605
3 605 604 141
3 603 604 605
3 143 144 56
3 145 144 143
3 145 606 608
3 608 607 144
3 606 607 608
3 145 609 610
3 146 611 613
3 613 612 145
3 611 612 613
3 146 614 615
3 147 148 57
3 149 148 147
3 149 59 148
3 150 616 618
3 618 617 61
3 616 617 618
3 620 619 150
3 151 621 622
3 151 623 624
3 152 153 62
3 154 153 152
3 154 64 153
3 154 155 64
3 140 155 154
3 140 54 155
3 156 157 66
3 158 157 156
3 158 68 157
3 159 160 31
3 161 160 159
3 161 69 160
3 161 162 69
3 163 162 161
3 163 70 162
3 164 625 626
3 164 627 629
3 627 71 628
3 627 628 629
3 164 165 71
3 156 165 164
3 156 66 165
3 166 167 72
3 168 167 166
3 168 74 167
3 169 170 33
3 171 170 169
3 171 75 170
3 171 172 75
3 173 172 171
3 173 76 172
3 174 175 77
3 176 175 174
3 176 79 175
3 630 177 631
3 632 631 36
3 630 631 632
3 633 177 634
3 636 635 177
3 178 179 80
3 180 179 178
3 180 82 179
3 181 182 38
3 183 182 181
3 183 83 182
3 183 184 83
3 185 184 183
3 185 84 184
3 185 186 84
3 187 186 185
3 187 86 186
3 188 189 40
3 190 189 188
3 190 87 189
3 190 191 87
3 166 191 190
3 166 72 191
3 192 193 88
3 194 193 192
3 194 90 193
3 195 196 42
3 197 196 195
3 197 91 196
3 197 198 91
3 199 198 197
3 199 92 198
3 200 201 67
3 202 201 200
3 202 93 201
3 203 204 45
3 205 204 203
3 205 94 204
3 205 206 94
3 207 206 205
3 207 95 206
3 207 208 95
3 209 208 207
3 209 96 208
3 210 211 47
3 212 211 210
3 212 97 211
3 212 213 97
3 214 213 212
3 214 98 213
3 215 637 638
3 215 639 640
3 216 217 50
3 218 217 216
3 218 641 643
3 643 642 217
3 641 642 643
3 218 644 646
3 644 219 645
3 644 645 646
3 220 219 218
3 220 99 219
3 220 221 99
3 222 221 220
3 222 100 221
3 223 224 52
3 225 224 223
3 225 101 224
3 225 226 101
3 192 226 225
3 192 88 226
3 227 647 648
3 227 649 651
3 649 102 650
3 649 650 651
3 227 228 102
3 229 228 227
3 229 103 228
3 230 652 653
3 230 654 655
3 230 656 658
3 656 231 657
3 656 657 658
3 232 231 230
3 232 104 231
3 232 233 104
3 234 233 232
3 234 105 233
3 659 235 660
3 236 661 663
3 661 235 662
3 661 662 663
3 236 106 235
3 236 237 106
3 238 237 236
3 238 107 237
3 664 239 665
3 666 665 53
3 664 665 666
3 240 667 669
3 667 239 668
3 667 668 669
3 240 108 239
3 240 241 108
3 242 241 240
3 242 109 241
3 242 670 672
3 672 671 109
3 670 671 672
3 674 673 242
3 676 675 55
3 243 677 679
3 679 678 73
3 677 678 679
3 681 680 243
3 244 245 89
3 246 245 244
3 246 110 245
3 247 248 58
3 249 248 247
3 249 111 248
3 249 250 111
3 251 250 249
3 251 112 250
3 252 253 78
3 254 253 252
3 254 113 253
3 255 256 60
3 257 256 255
3 257 114 256
3 257 258 114
3 682 258 683
3 684 683 257
3 682 683 684
3 685 115 686
3 687 686 258
3 685 686 687
3 689 688 115
3 259 260 81
3 690 260 691
3 692 691 259
3 690 691 692
3 694 693 260
3 261 262 85
3 263 262 261
3 263 116 262
3 264 265 63
3 266 265 264
3 266 117 265
3 266 267 117
3 268 267 266
3 268 695 697
3 697 696 267
3 695 696 697
3 268 698 699
3 269 700 702
3 702 701 268
3 700 701 702
3 269 703 704
3 270 705 707
3 707 706 65
3 705 706 707
3 709 708 270
3 271 272 8
3 710 272 711
3 712 711 271
3 710 711 712
3 713 31 714
3 715 714 272
3 713 714 715
3 716 31 717
3 718 159 719
3 720 719 31
3 718 719 720
3 721 159 722
3 724 723 159
3 271 725 726
3 271 727 729
3 727 8 728
3 727 728 729
3 273 274 11
3 275 274 273
3 275 33 274
3 119 275 32
3 276 275 119
3 276 33 275
3 276 169 33
3 277 169 276
3 277 13 169
3 278 279 14
3 280 279 278
3 280 36 279
3 122 280 35
3 730 280 731
3 732 731 122
3 730 731 732
3 733 36 734
3 735 734 280
3 733 734 735
3 737 736 36
3 281 282 16
3 283 282 281
3 283 38 282
3 125 283 37
3 284 283 125
3 284 38 283
3 284 181 38
3 285 181 284
3 285 18 181
3 285 286 18
3 287 286 285
3 287 40 286
3 127 287 39
3 288 287 127
3 288 40 287
3 288 188 40
3 273 188 288
3 273 11 188
3 289 290 20
3 291 290 289
3 291 42 290
3 129 291 41
3 292 291 129
3 292 42 291
3 292 195 42
3 293 195 292
3 293 22 195
3 294 295 9
3 296 295 294
3 296 45 295
3 132 296 44
3 297 296 132
3 297 45 296
3 297 203 45
3 298 203 297
3 298 23 203
3 298 299 23
3 300 299 298
3 300 47 299
3 134 300 46
3 301 300 134
3 301 47 300
3 301 210 47
3 302 210 301
3 302 24 210
3 303 304 10
3 305 304 303
3 305 50 304
3 137 305 49
3 306 305 137
3 306 50 305
3 306 216 50
3 307 216 306
3 307 25 216
3 307 308 25
3 309 308 307
3 309 52 308
3 139 309 51
3 310 309 139
3 310 52 309
3 310 223 52
3 289 223 310
3 289 20 223
3 738 26 739
3 740 27 741
3 742 53 743
3 744 53 745
3 747 746 53
3 311 312 28
3 313 312 311
3 313 55 312
3 141 313 54
3 314 313 141
3 314 55 313
3 314 748 750
3 750 749 55
3 748 749 750
3 752 751 314
3 315 753 755
3 755 754 12
3 753 754 755
3 316 756 758
3 758 757 315
3 756 757 758
3 316 759 760
3 144 316 56
3 761 316 762
3 763 762 144
3 761 762 763
3 765 764 316
3 317 318 21
3 319 318 317
3 319 58 318
3 148 319 57
3 320 319 148
3 320 58 319
3 320 247 58
3 321 247 320
3 321 29 247
3 322 323 15
3 766 323 767
3 768 767 322
3 766 767 768
3 769 60 770
3 771 770 323
3 769 770 771
3 772 60 773
3 774 255 775
3 776 775 60
3 774 775 776
3 777 255 778
3 780 779 255
3 324 325 17
3 326 325 324
3 326 781 783
3 783 782 325
3 781 782 783
3 784 326 785
3 786 785 61
3 784 785 786
3 787 326 788
3 790 789 326
3 327 328 19
3 329 328 327
3 329 63 328
3 153 329 62
3 330 329 153
3 330 63 329
3 330 264 63
3 331 264 330
3 331 30 264
3 331 332 30
3 333 332 331
3 333 65 332
3 155 333 64
3 334 333 155
3 334 65 333
3 334 270 65
3 311 270 334
3 311 28 270
3 335 336 2
3 337 336 335
3 337 67 336
3 157 337 66
3 338 337 157
3 338 67 337
3 338 200 67
3 339 200 338
3 339 9 200
3 272 158 8
3 340 158 272
3 340 68 158
3 160 340 31
3 341 340 160
3 341 68 340
3 341 339 68
3 342 339 341
3 342 9 339
3 342 294 9
3 343 294 342
3 343 44 294
3 162 343 69
3 344 343 162
3 344 44 343
3 344 131 44
3 345 131 344
3 345 4 131
3 791 10 792
3 346 793 794
3 346 795 797
3 795 10 796
3 795 796 797
3 346 303 10
3 347 303 346
3 347 49 303
3 165 347 71
3 348 347 165
3 348 49 347
3 348 136 49
3 335 136 348
3 335 2 136
3 349 350 5
3 351 350 349
3 351 73 350
3 167 351 72
3 352 351 167
3 352 73 351
3 352 243 73
3 353 243 352
3 353 12 243
3 274 168 11
3 354 168 274
3 354 74 168
3 170 354 33
3 355 354 170
3 355 74 354
3 355 353 74
3 356 353 355
3 356 12 353
3 356 315 12
3 357 315 356
3 357 56 315
3 172 357 75
3 358 357 172
3 358 56 357
3 358 143 56
3 359 143 358
3 359 6 143
3 360 361 3
3 362 361 360
3 362 78 361
3 175 362 77
3 363 362 175
3 363 78 362
3 363 252 78
3 364 252 363
3 364 15 252
3 279 176 14
3 365 176 279
3 365 79 176
3 177 365 36
3 366 365 177
3 366 79 365
3 366 364 79
3 367 364 366
3 367 15 364
3 367 322 15
3 798 322 799
3 800 799 367
3 798 799 800
3 802 801 322
3 368 803 804
3 369 805 807
3 807 806 368
3 805 806 807
3 369 808 810
3 808 81 809
3 808 809 810
3 179 369 80
3 370 369 179
3 370 81 369
3 370 259 81
3 371 259 370
3 371 17 259
3 282 180 16
3 372 180 282
3 372 82 180
3 182 372 38
3 373 372 182
3 373 82 372
3 373 371 82
3 374 371 373
3 374 17 371
3 374 324 17
3 375 324 374
3 375 61 324
3 184 375 83
3 376 375 184
3 376 61 375
3 376 150 61
3 377 150 376
3 377 7 150
3 377 378 7
3 379 378 377
3 379 85 378
3 186 379 84
3 380 379 186
3 380 85 379
3 380 261 85
3 381 261 380
3 381 19 261
3 286 187 18
3 382 187 286
3 382 86 187
3 189 382 40
3 383 382 189
3 383 86 382
3 383 381 86
3 384 381 383
3 384 19 381
3 384 327 19
3 385 327 384
3 385 62 327
3 191 385 87
3 386 385 191
3 386 62 385
3 386 152 62
3 349 152 386
3 349 5 152
3 387 388 1
3 389 388 387
3 389 89 388
3 193 389 88
3 390 389 193
3 390 89 389
3 390 244 89
3 391 244 390
3 391 21 244
3 290 194 20
3 392 194 290
3 392 90 194
3 196 392 42
3 393 392 196
3 393 90 392
3 393 391 90
3 394 391 393
3 394 21 391
3 394 317 21
3 395 317 394
3 395 57 317
3 198 395 91
3 396 395 198
3 396 57 395
3 396 147 57
3 397 147 396
3 397 3 147
3 336 130 2
3 398 130 336
3 398 43 130
3 201 398 67
3 399 398 201
3 399 43 398
3 399 293 43
3 400 293 399
3 400 22 293
3 295 202 9
3 401 202 295
3 401 93 202
3 204 401 45
3 402 401 204
3 402 93 401
3 402 400 93
3 403 400 402
3 403 22 400
3 403 199 22
3 404 199 403
3 404 92 199
3 206 404 94
3 405 404 206
3 405 92 404
3 405 397 92
3 406 397 405
3 406 3 397
3 406 360 3
3 407 360 406
3 407 77 360
3 208 407 95
3 408 407 208
3 408 77 407
3 408 174 77
3 409 174 408
3 409 14 174
3 299 209 23
3 410 209 299
3 410 96 209
3 211 410 47
3 411 410 211
3 411 96 410
3 411 409 96
3 412 409 411
3 412 14 409
3 412 278 14
3 413 278 412
3 413 35 278
3 213 413 97
3 414 413 213
3 414 35 413
3 414 121 35
3 415 121 414
3 415 0 121
3 304 215 10
3 416 215 304
3 416 811 813
3 813 812 215
3 811 812 813
3 217 416 50
3 814 416 815
3 816 815 217
3 814 815 816
3 818 817 416
3 219 819 820
3 822 821 219
3 417 823 824
3 417 825 826
3 417 827 829
3 827 368 828
3 827 828 829
3 418 368 417
3 418 80 368
3 221 418 99
3 419 418 221
3 419 80 418
3 419 178 80
3 420 178 419
3 420 16 178
3 308 222 25
3 421 222 308
3 421 100 222
3 224 421 52
3 422 421 224
3 422 100 421
3 422 420 100
3 423 420 422
3 423 16 420
3 423 281 16
3 424 281 423
3 424 37 281
3 226 424 101
3 425 424 226
3 425 37 424
3 425 124 37
3 387 124 425
3 387 1 124
3 426 830 831
3 426 832 833
3 426 834 836
3 834 163 835
3 834 835 836
3 427 163 426
3 427 70 163
3 228 427 102
3 428 427 228
3 428 70 427
3 428 345 70
3 429 345 428
3 429 4 345
3 837 26 838
3 839 26 840
3 841 229 842
3 843 842 26
3 841 842 843
3 430 844 846
3 844 229 845
3 844 845 846
3 430 103 229
3 231 847 849
3 847 430 848
3 847 848 849
3 431 430 231
3 431 103 430
3 431 429 103
3 432 429 431
3 432 4 429
3 432 135 4
3 433 135 432
3 433 48 135
3 233 433 104
3 434 433 233
3 434 48 433
3 434 302 48
3 435 302 434
3 435 24 302
3 850 234 851
3 436 852 854
3 852 234 853
3 852 853 854
3 436 105 234
3 235 855 857
3 855 436 856
3 855 856 857
3 437 436 235
3 437 105 436
3 437 435 105
3 438 435 437
3 438 24 435
3 438 214 24
3 439 214 438
3 439 98 214
3 237 439 106
3 440 439 237
3 440 98 439
3 440 415 98
3 441 415 440
3 441 0 415
3 858 27 859
3 239 860 862
3 862 861 53
3 860 861 862
3 442 863 865
3 865 864 239
3 863 864 865
3 442 866 867
3 442 868 869
3 443 870 872
3 872 871 442
3 870 871 872
3 443 873 875
3 873 27 874
3 873 874 875
3 443 238 27
3 444 238 443
3 444 107 238
3 241 444 108
3 445 444 241
3 445 107 444
3 445 441 107
3 446 441 445
3 446 0 441
3 446 876 878
3 878 877 0
3 876 877 878
3 880 879 446
3 882 881 109
3 312 883 885
3 885 884 28
3 883 884 885
3 447 886 888
3 888 887 312
3 886 887 888
3 447 889 890
3 891 447 892
3 893 892 55
3 891 892 893
3 894 447 895
3 897 896 447
3 350 142 5
3 448 142 350
3 448 898 900
3 900 899 142
3 898 899 900
3 901 448 902
3 903 902 73
3 901 902 903
3 904 448 905
3 907 906 448
3 909 908 12
3 388 120 1
3 449 120 388
3 449 34 120
3 245 449 89
3 450 449 245
3 450 34 449
3 450 277 34
3 451 277 450
3 451 13 277
3 318 246 21
3 452 246 318
3 452 110 246
3 248 452 58
3 453 452 248
3 453 110 452
3 453 451 110
3 454 451 453
3 454 13 451
3 454 173 13
3 455 173 454
3 455 76 173
3 250 455 111
3 456 455 250
3 456 76 455
3 456 359 76
3 457 359 456
3 457 6 359
3 361 149 3
3 458 149 361
3 458 59 149
3 253 458 78
3 459 458 253
3 459 59 458
3 459 321 59
3 460 321 459
3 460 29 321
3 323 254 15
3 461 254 323
3 461 113 254
3 256 461 60
3 462 461 256
3 462 113 461
3 462 460 113
3 463 460 462
3 463 29 460
3 463 251 29
3 464 251 463
3 464 112 251
3 258 464 114
3 465 464 258
3 465 112 464
3 465 457 112
3 466 457 465
3 466 6 457
3 466 146 6
3 467 146 466
3 467 910 912
3 912 911 146
3 910 911 912
3 913 467 914
3 915 914 115
3 913 914 915
3 916 467 917
3 919 918 467
3 260 920 922
3 922 921 81
3 920 921 922
3 924 923 260
3 325 925 927
3 927 926 17
3 925 926 927
3 929 928 325
3 378 151 7
3 468 151 378
3 468 930 932
3 932 931 151
3 930 931 932
3 262 468 85
3 469 468 262
3 469 933 935
3 935 934 468
3 933 934 935
3 469 936 937
3 470 938 940
3 940 939 469
3 938 939 940
3 470 941 942
3 328 263 19
3 471 263 328
3 471 116 263
3 265 471 63
3 472 471 265
3 472 116 471
3 472 470 116
3 473 470 472
3 473 943 945
3 945 944 470
3 943 944 945
3 473 946 947
3 474 948 950
3 950 949 473
3 948 949 950
3 474 951 952
3 267 474 117
3 953 474 954
3 955 954 267
3 953 954 955
3 957 956 474
3 332 269 30
3 475 269 332
3 475 958 960
3 960 959 269
3 958 959 960
3 961 475 962
3 963 962 65
3 961 962 963
3 964 475 965
3 967 966 475
