ply
format ascii 1.0
element vertex 1030
property float x
property float y
property float z
element face 1133
property list uchar int vertex_index
end_header
-35.858448 -26.456223 -40.717564
-13.942536 -69.073807 -14.557272
-30.56118 -4.485447 -52.852089
-38.808308 -51.995644 -33.808342
-29.23613 -49.417393 -26.074108
-29.00728 5.151871 -54.442215
-61.124302 -71.402557 -15.592134
-39.614773 -67.098618 -30.230389
-12.34354 -59.852772 -12.915615
-18.331291 -53.325268 -18.17971
-24.0476 -45.186226 -24.320877
-22.938126 -60.164352 -19.15147
-10.043928 -64.76712 -7.456696
-7.826767 -75.291138 -9.489393
-26.834 -14.707661 -45.376041
-33.657696 -15.549621 -46.753582
-29.491798 -25.088177 -40.247883
-39.785145 -9.118815 -52.490578
-62.763969 -61.039906 -24.499348
-55.633617 -62.564529 -28.156464
-48.015984 -63.967682 -30.39204
-38.319729 -37.201416 -37.301041
-27.735226 -65.971985 -21.750072
-33.298153 -52.288334 -29.894562
-32.927296 -37.273296 -34.490082
-27.184557 -35.627064 -32.199673
-59.375809 -75.505219 -11.313135
-39.99054 -74.552475 -28.485291
-12.663895 -64.365326 -13.926355
-15.08784 -56.810707 -15.548372
-16.290157 -60.793224 -16.307512
-20.198038 -56.690266 -18.727962
-18.529377 -64.901497 -16.746834
-9.130522 -69.88604 -8.691778
-27.84709 -19.727957 -43.046257
-26.832462 -25.024038 -39.1106
-33.280495 -0.40587 -55.987587
-38.106251 -3.073919 -56.034035
-34.920937 -5.985421 -53.348373
-36.555813 -11.851168 -49.677528
-32.033951 -9.864916 -50.117393
-59.436462 -55.506958 -30.879799
-55.735588 -55.8088 -32.174561
-51.841789 -63.070328 -29.403946
-35.33242 -60.499786 -30.279285
-32.60841 -60.476326 -28.025295
-35.541592 -52.555443 -32.039616
-35.80761 -44.795197 -33.880188
-38.653214 -44.428875 -35.555264
-26.461775 -47.283997 -25.052055
-25.909779 -40.582932 -28.095852
-28.442459 -42.042072 -29.083435
-29.955265 -36.499519 -33.30394
-31.219561 -43.45713 -30.338249
-32.004208 4.910036 -57.04557
-29.481354 0.562963 -54.424255
-39.132774 -59.580032 -32.019409
-21.465721 -49.434757 -21.030926
-23.712944 -52.167694 -21.566341
-26.561584 -54.994633 -22.23035
-10.623219 -62.484917 -10.207546
-10.098413 -67.368698 -11.369484
-10.07453 -72.5327 -12.156101
-28.33201 -9.354585 -49.227516
-29.599415 -14.558723 -46.689434
-31.263752 -20.034645 -43.693214
-35.077045 -21.382637 -43.365688
-33.00919 -25.618423 -40.687912
-40.97826 -15.530607 -48.179665
-37.789509 -18.071627 -45.730774
-38.180702 -24.485022 -42.178871
-64.851982 -65.016159 -17.053249
-62.207565 -66.588379 -20.007538
-58.930531 -67.907143 -22.325527
-59.356384 -62.009865 -26.611012
-55.274654 -68.886276 -24.130878
-44.161335 -72.63295 -28.443813
-43.959484 -65.409531 -30.794994
-43.489864 -58.176537 -33.026566
-42.934227 -50.916077 -35.078606
-42.367123 -43.577065 -36.940136
-41.616817 -36.332886 -38.695103
-40.321873 -29.707129 -40.465485
-37.357262 -30.888704 -39.111149
-25.623844 -63.330727 -20.087177
-28.994566 -57.504955 -23.576439
-30.779259 -59.416798 -25.634109
-31.476929 -51.181538 -27.748413
-33.568478 -44.456329 -32.024487
-35.594307 -37.577194 -35.863068
-34.565426 -31.2523 -38.089081
-28.23621 -30.395111 -36.351528
-31.388723 -30.86953 -37.289059
-13.179621 -66.729843 -14.252155
-14.392218 -62.651234 -15.132292
-15.184581 -64.876671 -15.401566
-17.311733 -62.866219 -16.524796
-16.206333 -67.069595 -15.658192
-31.869759 -2.335974 -54.512161
-34.078682 -3.166008 -54.838364
-32.625404 -5.035498 -53.280609
-33.434475 -7.807158 -51.768433
-31.26162 -7.135673 -51.598984
-37.044262 -56.253963 -32.103672
-35.405304 -56.521881 -31.148338
-37.040043 -52.366821 -32.9842
-37.082932 -48.500145 -33.867153
-38.723896 -48.196426 -34.68692
-27.878237 -48.374573 -25.49157
-27.534513 -44.70689 -27.017998
-28.945772 -45.620956 -27.535698
-29.865578 -42.780922 -29.655472
-30.287498 -46.479366 -28.186333
-30.293165 5.256231 -55.944351
-30.664465 2.832541 -55.885643
-29.1544 2.930588 -54.643547
-60.340347 -73.53846 -13.438522
-58.209698 -76.442146 -12.839762
-59.035027 -74.429932 -14.88414
-59.703438 -72.241104 -16.961853
-37.633526 -71.663116 -28.765442
-37.44833 -67.844963 -29.553864
-37.263779 -64.001968 -30.378166
-39.367737 -63.346973 -31.121254
-12.410183 -57.804413 -12.117765
-16.686882 -55.122322 -16.852787
-19.945568 -51.426849 -19.561611
-21.516975 -58.44492 -18.90823
-22.036377 -54.475639 -20.073593
-23.427391 -56.06974 -20.283886
-25.135208 -53.598869 -21.837177
-24.869522 -57.630047 -20.58947
-10.061941 -65.779037 -6.066914
-8.450939 -72.567429 -9.10828
-9.402119 -68.681213 -10.036152
-8.976742 -71.319626 -10.452326
-9.979685 -69.942467 -11.773462
-8.70274 -73.99102 -10.844162
-27.476364 -11.994846 -47.326321
-28.90274 -11.917515 -48.040443
-27.974522 -14.512302 -46.189766
-28.607048 -22.362553 -41.68874
-29.415129 -19.774143 -43.501144
-30.301018 -22.507118 -42.030163
-32.148827 -22.828135 -42.160282
-31.235825 -25.299221 -40.539169
-38.977722 -6.065244 -54.415077
-40.470947 -12.265776 -50.371635
-35.056046 -13.58877 -48.22076
-37.249989 -14.919641 -47.690166
-35.775192 -16.592915 -46.358681
-36.360493 -19.63728 -44.551407
-34.419594 -18.471901 -45.023014
-64.268097 -60.385826 -23.180737
-64.011703 -63.18771 -20.894501
-62.545212 -63.90451 -22.253593
-60.633919 -67.293304 -21.247421
-60.927292 -64.531143 -23.44009
-57.600967 -59.054783 -29.53035
-59.438816 -58.8204 -28.756992
-57.5168 -62.322617 -27.436813
-57.358856 -65.457703 -25.342621
-55.483002 -65.796738 -26.131664
-53.405743 -69.320343 -24.95237
-53.597275 -66.115463 -26.869591
-49.942848 -63.450508 -29.94405
-49.869881 -66.919418 -28.261997
-48.006302 -67.492165 -28.873825
-46.08091 -71.749718 -27.989323
-46.096432 -68.201111 -29.353718
-44.103092 -69.028778 -29.629597
-46.029255 -64.628609 -30.694824
-45.677326 -57.488861 -33.242622
-45.423923 -53.921787 -34.424286
-43.213242 -54.555336 -34.077526
-44.457973 -43.094299 -37.550652
-44.03315 -39.450417 -38.483475
-42.035294 -39.918503 -37.822285
-43.509125 -35.844093 -39.39452
-40.94067 -26.033897 -42.155838
-39.366699 -26.866619 -41.349922
-39.648483 -23.418995 -43.057983
-24.743008 -67.608414 -19.3223
-26.750977 -64.727478 -20.832256
-27.443953 -60.48019 -21.721313
-28.471516 -61.71014 -22.579571
-32.968971 -56.356628 -28.930557
-31.626623 -60.068386 -26.818398
-32.064487 -55.914333 -27.76112
-31.222336 -55.254005 -26.632294
-32.393677 -51.831467 -28.790314
-32.54155 -47.856796 -29.913258
-33.523186 -48.308437 -30.922356
-37.086765 -40.995979 -35.655682
-35.794231 -41.092903 -34.846588
-36.910015 -37.472137 -36.584545
-36.543926 -34.187744 -37.550312
-37.934673 -33.886345 -38.199852
-23.339371 -44.296188 -23.849865
-24.314404 -42.18092 -25.645554
-26.601688 -38.146751 -30.122448
-25.737682 -37.668777 -29.523487
-26.235281 -35.273445 -31.568748
-26.648682 -32.79277 -33.649387
-27.034994 -30.239014 -35.733418
-27.710625 -33.036381 -34.289303
-31.471258 -36.92276 -33.873032
-30.661238 -33.673691 -35.350605
-32.243969 -33.978241 -35.854404
-33.027229 -31.104134 -37.686432
-33.758121 -34.204723 -36.378807
-58.23777 -77.319061 -9.200636
-62.379295 -70.550125 -14.078815
-37.777153 -75.450378 -28.015121
-39.834572 -70.836029 -29.351192
-12.399185 -62.052261 -13.503651
-13.614653 -58.386829 -14.240818
-13.870346 -60.465397 -14.770094
-15.5384 -58.75156 -16.009296
-17.312849 -56.913811 -17.245895
-19.105019 -54.961506 -18.517387
-18.256523 -58.801159 -17.489502
-19.453768 -60.715725 -17.673527
-20.803156 -62.592701 -17.888618
-10.178032 -69.306732 -5.435066
-9.851589 -68.344055 -6.801517
-9.712223 -67.279358 -8.160822
-9.249607 -70.989754 -7.351095
-27.250198 -17.177774 -44.284927
-26.735998 -19.86842 -42.319267
-27.256617 -22.379337 -41.114128
-27.963383 -24.994308 -39.780502
-34.790745 1.304403 -57.191589
-35.612473 -1.531775 -56.195503
-36.479225 -4.410864 -54.798485
-37.337982 -7.345608 -53.073364
-38.136478 -10.358863 -51.115372
-35.762333 -8.875566 -51.596909
-34.25909 -10.657099 -50.053345
-32.846111 -12.672255 -48.477467
-61.093872 -51.858028 -32.10397
-59.35397 -52.097824 -32.966389
-57.610741 -55.68581 -31.601833
-55.719139 -59.224464 -30.179157
-53.736885 -62.792976 -28.805786
-53.813766 -59.390106 -30.732388
-51.891579 -59.615189 -31.205498
-49.943298 -59.952404 -31.593288
-47.948051 -60.432194 -31.869858
-33.826305 -60.620663 -29.196156
-34.055344 -56.561008 -30.077408
-34.313087 -52.532291 -30.996403
-34.538403 -48.570377 -31.953106
-35.698082 -48.63253 -32.948689
-37.121433 -44.692604 -34.754379
-38.540241 -40.742016 -36.422375
-25.131758 -46.200996 -24.690945
-25.06715 -42.929733 -26.153412
-26.188074 -43.790321 -26.582561
-27.071383 -41.290943 -28.584663
-27.818356 -38.707375 -30.658855
-28.477577 -36.051445 -32.760136
-29.232002 -39.299644 -31.197086
-30.690784 -39.871773 -31.788422
-32.08633 -40.375763 -32.460194
-34.07016 4.090132 -57.740128
-32.572506 2.29347 -56.736076
-31.203547 0.291258 -55.397339
-29.959309 -1.916124 -53.812462
-57.226341 -78.296684 -10.80929
-35.335758 -64.467407 -29.443424
-37.120129 -60.136654 -31.231541
-38.941479 -55.795216 -32.917664
-22.184818 -46.319717 -22.160149
-22.843277 -47.354095 -22.612976
-20.836308 -52.906456 -19.866398
-22.443695 -50.758595 -21.331089
-23.883179 -48.523224 -22.936771
-25.191936 -49.770599 -23.226711
-26.617447 -51.034191 -23.578701
-28.00927 -52.257355 -24.06995
-11.478996 -59.059006 -10.735607
-11.335144 -61.215698 -11.569656
-9.858406 -66.120987 -9.517986
-10.350811 -64.869225 -10.868694
-11.206211 -63.516773 -12.20142
-11.204403 -65.934875 -12.671511
-11.409269 -68.417244 -13.045021
-11.858021 -70.896622 -13.39657
-28.849682 -4.314667 -52.061165
-27.898613 -6.875527 -50.203316
-29.37196 -6.836364 -51.076019
-30.009853 -9.442724 -49.844398
-30.744875 -12.129257 -48.423588
-31.549685 -14.889148 -46.873138
-28.62752 -17.106941 -44.902119
-30.39859 -17.26963 -45.222782
-32.386112 -17.706635 -45.256191
-33.206879 -20.54871 -43.641304
-33.96373 -23.354319 -42.104645
-35.5751 -24.159723 -41.87302
-34.631226 -26.02676 -40.732574
-38.820976 -13.472163 -49.033623
-39.336075 -16.695198 -46.93845
-39.627636 -20.019279 -44.925488
-38.117863 -21.275782 -43.878399
-36.752007 -22.656364 -42.872681
-36.880219 -25.549503 -41.374252
-64.239944 -67.446564 -14.738503
-63.087463 -68.270279 -16.325552
-65.296661 -62.421612 -19.382095
-63.623859 -65.816299 -18.602051
-61.73996 -69.087494 -17.782539
-60.230339 -69.863892 -19.083519
-62.86898 -58.004768 -26.722214
-61.194916 -55.224838 -29.985394
-61.204731 -58.476665 -27.828053
-61.116699 -61.58662 -25.640789
-59.18697 -65.046776 -24.459953
-57.130463 -68.429817 -23.271229
-51.725826 -66.472252 -27.581318
-42.131496 -73.587456 -28.625439
-42.009747 -69.929962 -29.640057
-41.808842 -66.257858 -30.647121
-45.884697 -61.055489 -31.995808
-43.746864 -61.791588 -31.930073
-41.556187 -62.581593 -31.642246
-41.285271 -58.899746 -32.620686
-41.026424 -55.204754 -33.576778
-40.798229 -51.490879 -34.50547
-42.656593 -47.253365 -36.030346
-40.600845 -47.762451 -35.405106
-40.412659 -44.040535 -36.279976
-40.191582 -40.366791 -37.140934
-39.881889 -36.803978 -38.002529
-41.061142 -32.897598 -39.574657
-39.426228 -33.433556 -38.876026
-38.780701 -30.352577 -39.758457
-37.928497 -27.675282 -40.618126
-36.615051 -28.327284 -39.99313
-22.192543 -64.383766 -18.208813
-23.525581 -66.060501 -18.680859
-24.338356 -61.802849 -19.530376
-26.236177 -59.111176 -21.057541
-27.86998 -56.308788 -22.803307
-29.257133 -53.393211 -24.744797
-31.145773 -64.260193 -25.958565
-30.214369 -63.635048 -24.74762
-29.363037 -62.772846 -23.603561
-29.940435 -58.551483 -24.534248
-30.317642 -54.403286 -25.608822
-30.442282 -50.365929 -26.829315
-31.48571 -47.23708 -28.985535
-32.448341 -44.027489 -31.136524
-33.376755 -40.768913 -33.211941
-34.654388 -44.717007 -32.956154
-34.587906 -41.015709 -34.019726
-34.291172 -37.504601 -35.157726
-35.178143 -34.291786 -36.941277
-35.986053 -31.205488 -38.55069
-35.302189 -28.556215 -39.578773
-25.108433 -39.972038 -27.541668
-26.530899 -27.631655 -37.052624
-27.454502 -27.630867 -37.787476
-28.814854 -27.732748 -38.348331
-29.102396 -33.344173 -34.841316
-29.743519 -30.617588 -36.856846
-30.443535 -27.916645 -38.76643
-32.164188 -28.154472 -39.07869
-33.822006 -28.401058 -39.328117
-29.650222 5.204051 -55.193283
-30.211793 6.384097 -55.752018
-29.56885 6.331917 -55.00095
-12.955956 -58.15716 -13.20468
-12.989277 -57.132981 -12.805754
-12.376862 -58.828592 -12.51669
-18.122352 -52.581302 -17.907232
-17.300148 -53.479829 -17.243771
-17.509087 -54.223795 -17.516248
-18.880189 -51.709078 -18.625093
-18.122352 -52.581302 -17.907232
-19.13843 -52.376058 -18.87066
-19.687328 -50.759868 -19.316044
-18.880189 -51.709078 -18.625093
-10.023415 -63.561524 -7.003712
-10.032422 -64.067482 -6.308821
-10.052934 -65.273078 -6.761805
-10.177866 -63.049509 -7.705732
-10.023415 -63.561524 -7.003712
-10.125039 -64.217514 -8.146178
-10.177866 -63.049509 -7.705732
-26.715736 -13.511227 -45.834543
-26.562871 -14.903456 -44.819032
-27.155182 -13.351254 -46.351181
-27.036918 -12.15482 -46.809683
-26.715736 -13.511227 -45.834543
-40.639933 -8.617987 -53.107979
-40.236221 -7.091201 -54.070228
-39.381433 -7.592029 -53.452827
-40.986508 -10.20869 -52.069939
-40.639933 -8.617987 -53.107979
-40.128046 -10.692296 -51.431106
-41.329408 -11.78217 -51.010467
-40.986508 -10.20869 -52.069939
-46.381804 -51.873014 -35.151085
-46.513498 -53.644899 -34.525381
-45.280298 -52.13084 -34.979337
-46.381804 -51.873014 -35.151085
-44.776443 -37.419411 -39.297629
-45.081615 -39.231667 -38.808607
-44.514431 -35.616249 -39.753151
-43.771137 -37.647255 -38.938997
-44.776443 -37.419411 -39.297629
-41.095482 -24.23237 -43.081226
-41.791418 -25.64626 -42.59503
-40.449388 -22.924919 -43.532299
-40.294576 -24.726446 -42.60691
-41.095482 -24.23237 -43.081226
-27.243102 -65.349732 -21.291164
-26.292908 -66.871529 -20.479694
-26.785032 -67.493782 -20.938602
-62.905998 -70.130336 -13.265294
-61.928612 -71.604149 -12.971876
-38.883847 -75.001427 -28.250206
-37.811442 -77.32151 -27.658535
-38.918135 -76.872558 -27.89362
-9.927152 -70.647495 -5.726166
-10.232713 -71.086983 -5.058255
-9.76393 -70.166156 -6.409391
-10.01481 -68.825393 -6.118291
-9.927152 -70.647495 -5.726166
-9.462939 -71.489006 -6.68418
-9.550598 -69.666905 -7.076306
-9.76393 -70.166156 -6.409391
-26.474158 -20.018546 -41.820892
-26.576398 -18.657098 -42.846882
-27.044539 -23.701687 -40.112364
-26.835423 -22.462519 -40.704191
-26.623346 -23.784869 -39.702427
-59.274193 -50.356964 -33.987106
-60.131453 -50.249886 -33.574021
-56.673164 -55.747305 -31.888197
-57.578899 -53.96434 -32.617344
-56.641323 -54.025835 -32.903707
-51.880432 -57.874278 -32.081634
-52.856598 -57.776258 -31.913514
-50.906292 -58.042885 -32.27553
-50.917439 -59.783797 -31.399393
-51.880432 -57.874278 -32.081634
-49.906246 -58.199133 -32.388711
-50.906292 -58.042885 -32.27553
-34.579363 -60.560225 -29.737721
-33.742733 -62.651877 -28.778486
-34.49579 -62.591438 -29.320051
-32.757084 5.8502 -57.432975
-31.815707 6.153773 -56.972435
-33.037184 4.500084 -57.392849
-33.79006 5.440247 -57.780254
-32.757084 5.8502 -57.432975
-57.145212 -77.879848 -12.575535
-57.556792 -76.920551 -13.540808
-35.367874 -66.439453 -29.048544
-34.446085 -66.597614 -28.513799
-15.000587 -55.916527 -15.206825
-14.263994 -56.704588 -14.553048
-14.351247 -57.598768 -14.894595
-21.825269 -47.877237 -21.595537
-21.527217 -47.286075 -21.365969
-21.167669 -48.843595 -20.801358
-11.051108 -60.771962 -10.471577
-11.132766 -59.646091 -10.041877
-10.704877 -61.359047 -9.777846
-28.227528 -4.4006 -51.490254
-28.653121 -3.099889 -52.403199
-28.115312 -8.115056 -49.715416
-27.518352 -8.216724 -49.239231
-27.73505 -9.456253 -48.751331
-38.955916 -2.51054 -56.495697
-37.667845 -1.596409 -56.646752
-41.975937 -16.772263 -47.679907
-41.838757 -15.060313 -48.802307
-41.115724 -17.226391 -47.104264
-41.975937 -16.772263 -47.679907
-64.545963 -66.231361 -15.895876
-65.044556 -65.837647 -15.071061
-65.350574 -64.622444 -16.228434
-65.447434 -61.042881 -20.542217
-66.005958 -60.674012 -19.741537
-58.757868 -69.241009 -21.277081
-59.609562 -68.934089 -20.738028
-59.782225 -67.600223 -21.786474
-57.882566 -69.561203 -21.785179
-58.757868 -69.241009 -21.277081
-62.86647 -56.410561 -27.813698
-63.643344 -56.146085 -27.181929
-55.1459 -70.344219 -23.154733
-56.073805 -70.115989 -22.724909
-56.202558 -68.658046 -23.701054
-54.22558 -70.628456 -23.606018
-55.1459 -70.344219 -23.154733
-52.377947 -71.142288 -24.471098
-52.480788 -69.552101 -25.359699
-49.802124 -68.622024 -27.418415
-48.896408 -68.947685 -27.800239
-44.147054 -74.41201 -27.847192
-45.106842 -73.970394 -27.619947
-45.121122 -72.191334 -28.216568
-43.161093 -74.919533 -28.026542
-44.147054 -74.41201 -27.847192
-43.146416 -73.110203 -28.534626
-42.146174 -75.396786 -28.117356
-43.161093 -74.919533 -28.026542
-46.846173 -58.977554 -32.64134
-46.916374 -60.743842 -31.932833
-47.877849 -58.665907 -32.578366
-40.691508 -31.302363 -40.020071
-41.530394 -30.969645 -40.401239
-41.160759 -29.37441 -40.846653
-21.685421 -66.526062 -17.839081
-21.020606 -65.614762 -17.62735
-31.877091 -62.36826 -26.99193
-31.707475 -64.437939 -26.56991
-32.438793 -62.546005 -27.603275
-25.538753 -37.491638 -29.161302
-25.747175 -36.349199 -30.168455
-26.412371 -28.905242 -36.008931
-26.348047 -27.689135 -36.587267
-40.024344 -76.391136 -28.059481
-38.918135 -76.872558 -27.89362
-26.538086 -25.101641 -38.66617
-26.623346 -23.784869 -39.702427
-55.707867 -54.075048 -33.147002
-56.641323 -54.025835 -32.903707
-54.778603 -55.873064 -32.398045
-55.707867 -54.075048 -33.147002
-30.960186 6.326871 -56.421825
-30.211793 6.384097 -55.752018
-31.148686 5.083133 -56.49496
-31.815707 6.153773 -56.972435
-30.960186 6.326871 -56.421825
-57.969456 -75.914444 -14.562997
-57.556792 -76.920551 -13.540808
-58.622363 -75.436039 -13.861951
-58.31164 -74.871979 -15.537871
-57.969456 -75.914444 -14.562997
-58.645846 -73.777565 -16.576727
-58.31164 -74.871979 -15.537871
-59.369232 -73.335518 -15.922996
-58.923164 -72.64209 -17.572581
-58.645846 -73.777565 -16.576727
-36.56189 -71.993415 -28.342932
-36.598723 -73.929451 -28.007281
-36.469291 -70.084339 -28.737143
-36.56189 -71.993415 -28.342932
-37.540928 -69.75404 -29.159653
-36.42416 -68.128231 -29.103764
-36.469291 -70.084339 -28.737143
-37.356054 -65.923466 -29.966015
-36.331885 -66.206734 -29.515915
-36.42416 -68.128231 -29.103764
-13.018403 -56.253225 -12.315786
-12.444657 -56.858211 -11.608737
-13.018403 -56.253225 -12.315786
-12.989277 -57.132981 -12.805754
-16.535904 -54.301838 -16.546574
-15.736383 -55.146031 -15.894366
-15.887361 -55.966515 -16.200579
-16.535904 -54.301838 -16.546574
-17.300148 -53.479829 -17.243771
-20.407592 -49.839641 -20.0667
-19.687328 -50.759868 -19.316044
-20.705644 -50.430803 -20.296269
-21.167669 -48.843595 -20.801358
-20.407592 -49.839641 -20.0667
-9.923513 -64.540775 -5.596923
-10.111829 -66.237358 -5.361846
-9.923513 -64.540775 -5.596923
-10.032422 -64.067482 -6.308821
-10.414684 -63.076413 -9.521603
-10.704877 -61.359047 -9.777846
-27.307227 -10.776384 -47.800733
-27.036918 -12.15482 -46.809683
-27.904187 -10.674716 -48.276919
-27.73505 -9.456253 -48.751331
-27.307227 -10.776384 -47.800733
-39.828706 -5.538463 -54.972107
-39.392971 -4.042801 -55.781586
-38.541987 -4.569581 -55.224556
-39.828706 -5.538463 -54.972107
-40.236221 -7.091201 -54.070228
-41.5851 -13.427898 -49.898292
-41.329408 -11.78217 -51.010467
-40.724604 -13.898191 -49.27565
-41.838757 -15.060313 -48.802307
-41.5851 -13.427898 -49.898292
-65.606075 -63.335104 -17.404594
-65.350574 -64.622444 -16.228434
-64.1399 -61.786768 -22.037619
-64.804955 -61.42593 -21.29842
-64.933152 -60.024988 -22.441538
-52.576554 -67.949661 -26.31831
-52.480788 -69.552101 -25.359699
-53.501509 -67.717903 -25.910981
-47.964619 -69.234059 -28.106153
-48.896408 -68.947685 -27.800239
-48.938091 -67.205792 -28.567911
-47.043606 -69.620942 -28.431574
-47.001923 -71.362835 -27.663902
-47.964619 -69.234059 -28.106153
-46.6402 -55.428436 -33.934549
-46.742487 -57.19424 -33.264747
-45.550624 -55.705324 -33.833454
-46.6402 -55.428436 -33.934549
-46.513498 -53.644899 -34.525381
-44.174958 -52.447615 -34.805957
-44.318583 -54.238562 -34.250906
-45.280298 -52.13084 -34.979337
-44.03545 -50.627985 -35.306497
-43.073735 -52.735706 -34.578066
-44.174958 -52.447615 -34.805957
-45.294027 -41.053608 -38.342196
-45.538607 -42.869958 -37.834311
-44.245562 -41.272358 -38.017063
-45.294027 -41.053608 -38.342196
-45.081615 -39.231667 -38.808607
-41.470157 -27.537794 -41.691829
-41.791418 -25.64626 -42.59503
-40.631271 -27.870513 -41.310662
-41.160759 -29.37441 -40.846653
-41.470157 -27.537794 -41.691829
-25.288923 -68.311996 -19.724716
-24.18981 -69.759865 -19.034881
-25.746992 -66.167946 -20.077278
-25.288923 -68.311996 -19.724716
-26.292908 -66.871529 -20.479694
-23.675358 -42.940208 -24.416735
-23.204016 -43.932682 -23.525498
-24.162875 -41.882575 -25.314579
-23.675358 -42.940208 -24.416735
-23.826887 -43.238554 -24.747709
-24.54021 -40.840283 -26.248632
-24.162875 -41.882575 -25.314579
-25.995975 -35.151533 -31.191085
-25.747175 -36.349199 -30.168455
-25.986482 -36.471111 -30.546118
-26.14599 -33.961054 -32.222635
-25.995975 -35.151533 -31.191085
-26.352691 -32.720716 -33.262954
-26.14599 -33.961054 -32.222635
-26.441982 -34.033107 -32.609067
-26.471262 -31.485799 -34.307312
-26.352691 -32.720716 -33.262954
-26.841838 -31.515892 -34.691402
-26.664418 -30.208922 -35.349328
-26.471262 -31.485799 -34.307312
-29.036628 6.166139 -54.126728
-29.56885 6.331917 -55.00095
-58.662148 -76.85453 -8.35339
-57.598698 -78.160378 -8.142372
-59.306501 -75.959907 -9.439231
-58.662148 -76.85453 -8.35339
-59.875521 -75.052987 -10.49548
-58.806789 -76.41214 -10.256885
-59.306501 -75.959907 -9.439231
-60.426868 -74.081696 -11.589036
-59.875521 -75.052987 -10.49548
-60.909137 -73.098317 -12.65173
-59.858078 -74.521839 -12.375829
-60.426868 -74.081696 -11.589036
-61.359821 -72.044292 -13.758669
-60.909137 -73.098317 -12.65173
-61.928612 -71.604149 -12.971876
-36.679819 -77.732651 -27.327655
-37.811442 -77.32151 -27.658535
-36.670536 -75.823082 -27.63212
-36.679819 -77.732651 -27.327655
-37.70534 -73.556747 -28.390282
-36.598723 -73.929451 -28.007281
-36.670536 -75.823082 -27.63212
-10.373624 -69.730281 -4.742257
-10.232713 -71.086983 -5.058255
-10.169875 -68.001205 -5.045922
-10.373624 -69.730281 -4.742257
-10.119986 -67.542884 -5.75099
-10.111829 -66.237358 -5.361846
-10.169875 -68.001205 -5.045922
-9.015919 -72.856979 -6.897726
-9.462939 -71.489006 -6.68418
-8.826846 -72.345318 -7.559226
-9.015919 -72.856979 -6.897726
-8.767304 -71.793461 -8.229567
-9.190064 -70.437897 -8.021437
-8.826846 -72.345318 -7.559226
-8.427512 -73.134155 -8.437819
-8.79073 -71.226734 -8.900029
-8.767304 -71.793461 -8.229567
-7.969418 -74.511197 -8.617828
-8.427512 -73.134155 -8.437819
-7.657333 -75.873051 -8.808385
-8.138853 -73.929283 -9.298837
-7.969418 -74.511197 -8.617828
-26.625399 -16.076718 -44.375269
-26.562871 -14.903456 -44.819032
-26.833498 -17.311775 -43.829712
-27.042099 -15.942718 -44.830484
-26.625399 -16.076718 -44.375269
-26.993098 -18.523097 -43.302097
-26.833498 -17.311775 -43.829712
-26.576398 -18.657098 -42.846882
-26.575114 -21.20706 -41.306761
-26.474158 -20.018546 -41.820892
-26.996308 -21.123879 -41.716698
-26.575114 -21.20706 -41.306761
-26.835423 -22.462519 -40.704191
-36.010092 0.592753 -57.225528
-35.599722 2.056444 -57.612369
-36.420956 -0.825337 -56.727486
-36.010092 0.592753 -57.225528
-35.201609 -0.113686 -56.693546
-36.859362 -2.302847 -56.114769
-37.667845 -1.596409 -56.646752
-36.420956 -0.825337 -56.727486
-65.019936 -58.565611 -23.584111
-64.933152 -60.024988 -22.441538
-64.335076 -58.900646 -24.308485
-65.019936 -58.565611 -23.584111
-63.583012 -59.227686 -24.967791
-63.516033 -60.712866 -23.840043
-64.335076 -58.900646 -24.308485
-61.001404 -50.129987 -33.142811
-61.822519 -49.966541 -32.6185
-60.223921 -51.977926 -32.535179
-61.001404 -50.129987 -33.142811
-60.131453 -50.249886 -33.574021
-58.450514 -52.170347 -33.299622
-59.274193 -50.356964 -33.987106
-58.482355 -53.891817 -32.284111
-58.450514 -52.170347 -33.299622
-57.578899 -53.96434 -32.617344
-53.817692 -57.663717 -31.676959
-54.774677 -57.599453 -31.453474
-54.778603 -55.873064 -32.398045
-52.852672 -59.502648 -30.968943
-53.817692 -57.663717 -31.676959
-52.856598 -57.776258 -31.913514
-48.908622 -58.439028 -32.526996
-48.945674 -60.192299 -31.731573
-49.906246 -58.199133 -32.388711
-47.877849 -58.665907 -32.578366
-48.908622 -58.439028 -32.526996
-27.288217 -68.116814 -21.412639
-26.785032 -67.493782 -20.938602
-33.047741 -62.618174 -28.188705
-33.742733 -62.651877 -28.778486
-33.217357 -60.548495 -28.610726
-32.438793 -62.546005 -27.603275
-33.047741 -62.618174 -28.188705
-34.88942 4.889756 -58.033848
-33.79006 5.440247 -57.780254
-35.239429 3.449308 -57.886639
-34.88942 4.889756 -58.033848
-34.430453 2.697267 -57.465858
-35.599722 2.056444 -57.612369
-35.239429 3.449308 -57.886639
-57.172747 -78.668751 -8.98551
-57.598698 -78.160378 -8.142372
-56.667032 -79.157562 -9.789837
-57.172747 -78.668751 -8.98551
-57.732056 -77.807873 -10.004963
-56.177892 -79.696529 -10.590707
-56.667032 -79.157562 -9.789837
-56.653534 -78.807118 -11.560299
-57.718019 -77.369415 -11.824526
-57.145212 -77.879848 -12.575535
-56.177892 -79.696529 -10.590707
-56.653534 -78.807118 -11.560299
-34.497459 -64.575249 -28.902121
-34.446085 -66.597614 -28.513799
-35.334089 -62.483596 -29.861355
-34.49579 -62.591438 -29.320051
-34.497459 -64.575249 -28.902121
-36.299768 -64.234688 -29.910795
-35.367874 -66.439453 -29.048544
-36.331885 -66.206734 -29.515915
-13.591512 -57.424188 -13.867281
-12.955956 -58.15716 -13.20468
-12.979097 -59.1198 -13.578216
-13.591512 -57.424188 -13.867281
-14.263994 -56.704588 -14.553048
-15.000587 -55.916527 -15.206825
-15.736383 -55.146031 -15.894366
-22.065878 -45.887794 -21.832167
-21.527217 -47.286075 -21.365969
-22.626739 -44.944446 -22.680639
-22.065878 -45.887794 -21.832167
-22.762094 -45.307952 -23.005007
-23.204016 -43.932682 -23.525498
-22.626739 -44.944446 -22.680639
-11.495026 -58.05172 -10.213544
-11.132766 -59.646091 -10.041877
-11.979064 -57.485508 -10.917658
-11.495026 -58.05172 -10.213544
-11.944589 -58.431709 -11.426686
-12.444657 -56.858211 -11.608737
-11.979064 -57.485508 -10.917658
-9.959186 -65.473633 -8.49824
-10.125039 -64.217514 -8.146178
-9.878075 -66.023239 -7.808759
-10.032278 -64.894447 -9.176823
-9.959186 -65.473633 -8.49824
-9.785315 -66.700173 -8.839404
-10.240813 -64.302952 -9.862766
-10.414684 -63.076413 -9.521603
-10.032278 -64.894447 -9.176823
-28.595322 4.907697 -53.500755
-29.036628 6.166139 -54.126728
-28.558437 3.891592 -53.733326
-28.595322 4.907697 -53.500755
-28.631997 2.780951 -53.833992
-29.08084 4.04123 -54.542881
-28.558437 3.891592 -53.733326
-28.679811 1.684278 -53.861335
-28.631997 2.780951 -53.833992
-28.843288 0.500465 -53.751689
-29.317877 1.746776 -54.533901
-28.679811 1.684278 -53.861335
-28.968957 -0.661074 -53.584744
-28.843288 0.500465 -53.751689
-29.207935 -1.900618 -53.278847
-29.720332 -0.676581 -54.118358
-28.968957 -0.661074 -53.584744
-29.404496 -3.115395 -52.936813
-29.207935 -1.900618 -53.278847
-28.653121 -3.099889 -52.403199
-27.425768 -7.040376 -49.599975
-27.518352 -8.216724 -49.239231
-27.751994 -5.68103 -50.561329
-27.425768 -7.040376 -49.599975
-28.374147 -5.595097 -51.132241
-28.227528 -4.4006 -51.490254
-27.751994 -5.68103 -50.561329
-38.955916 -2.51054 -56.495697
-39.392971 -4.042801 -55.781586
-40.294632 -17.808686 -46.483656
-41.115724 -17.226391 -47.104264
-40.157167 -16.112903 -47.559058
-40.440413 -19.470726 -45.477175
-40.294632 -17.808686 -46.483656
-39.481856 -18.357239 -45.931969
-40.438965 -21.225061 -44.466051
-40.440413 -19.470726 -45.477175
-39.638059 -21.719137 -43.991736
-40.449388 -22.924919 -43.532299
-40.438965 -21.225061 -44.466051
-64.695381 -67.046746 -13.902565
-65.044556 -65.837647 -15.071061
-63.836322 -68.578556 -13.595138
-64.695381 -67.046746 -13.902565
-63.309619 -68.998345 -14.408659
-62.905998 -70.130336 -13.265294
-63.836322 -68.578556 -13.595138
-65.828415 -62.03783 -18.569017
-66.005958 -60.674012 -19.741537
-65.074321 -63.718885 -18.217672
-65.606075 -63.335104 -17.404594
-65.828415 -62.03783 -18.569017
-64.654182 -62.804661 -20.138298
-65.447434 -61.042881 -20.542217
-64.804955 -61.42593 -21.29842
-59.186615 -71.453484 -18.633413
-58.923164 -72.64209 -17.572581
-59.966888 -71.052498 -18.022686
-59.407772 -70.219384 -19.656076
-60.432129 -68.578598 -20.16547
-59.609562 -68.934089 -20.738028
-59.186615 -71.453484 -18.633413
-59.407772 -70.219384 -19.656076
-63.635517 -57.710117 -26.079224
-63.643344 -56.146085 -27.181929
-62.816474 -59.522337 -25.610781
-63.583012 -59.227686 -24.967791
-63.635517 -57.710117 -26.079224
-61.924486 -51.677934 -31.572559
-61.822519 -49.966541 -32.6185
-61.975008 -53.361339 -30.513272
-61.924486 -51.677934 -31.572559
-61.144394 -53.541433 -31.044682
-62.029438 -55.020595 -29.445288
-61.975008 -53.361339 -30.513272
-62.034346 -56.646509 -28.366618
-62.029438 -55.020595 -29.445288
-61.199824 -56.850752 -28.906723
-62.036856 -58.240716 -27.275134
-62.86647 -56.410561 -27.813698
-62.034346 -56.646509 -28.366618
-56.982532 -69.82254 -22.25803
-57.882566 -69.561203 -21.785179
-58.030497 -68.16848 -22.798378
-56.982532 -69.82254 -22.25803
-56.073805 -70.115989 -22.724909
-53.291125 -70.845489 -24.016764
-54.22558 -70.628456 -23.606018
-54.340198 -69.103309 -24.541624
-53.291125 -70.845489 -24.016764
-52.377947 -71.142288 -24.471098
-51.640829 -68.128056 -26.674174
-52.576554 -67.949661 -26.31831
-52.661551 -66.293858 -27.225454
-50.730097 -68.398441 -27.078076
-50.797854 -66.695835 -27.921658
-49.802124 -68.622024 -27.418415
-51.640829 -68.128056 -26.674174
-50.730097 -68.398441 -27.078076
-46.036282 -73.493629 -27.305464
-47.001923 -71.362835 -27.663902
-46.036282 -73.493629 -27.305464
-45.106842 -73.970394 -27.619947
-41.094821 -75.908626 -28.129555
-42.146174 -75.396786 -28.117356
-41.061018 -74.069965 -28.555365
-40.024344 -76.391136 -28.059481
-41.094821 -75.908626 -28.129555
-45.781012 -59.272175 -32.619215
-46.846173 -58.977554 -32.64134
-46.742487 -57.19424 -33.264747
-43.876144 -48.823448 -35.826029
-44.03545 -50.627985 -35.306497
-44.638018 -44.91256 -37.062052
-45.538607 -42.869958 -37.834311
-43.737327 -46.992092 -36.301899
-44.638018 -44.91256 -37.062052
-43.557283 -45.173832 -36.790499
-42.79541 -49.084721 -35.554476
-43.876144 -48.823448 -35.826029
-43.737327 -46.992092 -36.301899
-44.132345 -33.837819 -40.236361
-44.514431 -35.616249 -39.753151
-43.176997 -34.094479 -39.849899
-44.132345 -33.837819 -40.236361
-42.230842 -34.338875 -39.500191
-42.562971 -36.08849 -39.044812
-43.176997 -34.094479 -39.849899
-41.953005 -32.621231 -39.939968
-41.530394 -30.969645 -40.401239
-41.338979 -34.615242 -39.13488
-42.230842 -34.338875 -39.500191
-41.953005 -32.621231 -39.939968
-7.246561 -77.256821 -9.004552
-7.657333 -75.873051 -8.808385
-7.606145 -76.65297 -9.703854
-7.246561 -77.256821 -9.004552
-8.044132 -76.002911 -10.381238
-8.264754 -74.641079 -10.166778
-7.606145 -76.65297 -9.703854
-8.682875 -75.315769 -11.066009
-8.044132 -76.002911 -10.381238
-9.36877 -74.586609 -11.721979
-9.388635 -73.26186 -11.500132
-8.682875 -75.315769 -11.066009
-10.247579 -73.804242 -12.371845
-9.36877 -74.586609 -11.721979
-11.139325 -72.986202 -12.992079
-10.966276 -71.714661 -12.776336
-10.247579 -73.804242 -12.371845
-12.202278 -72.101341 -13.594795
-11.139325 -72.986202 -12.992079
-13.244536 -71.189934 -14.175146
-12.900279 -69.985214 -13.976921
-12.202278 -72.101341 -13.594795
-14.427398 -70.203022 -14.732874
-13.244536 -71.189934 -14.175146
-15.559297 -69.200916 -15.283334
-15.074435 -68.071701 -15.107732
-14.427398 -70.203022 -14.732874
-16.796665 -68.120002 -15.814757
-15.559297 -69.200916 -15.283334
-17.958187 -67.035954 -16.359078
-17.367855 -65.985546 -16.202513
-16.796665 -68.120002 -15.814757
-19.189023 -65.873627 -16.896361
-17.958187 -67.035954 -16.359078
-20.325913 -64.719229 -17.467253
-19.666266 -63.747099 -17.317726
-19.189023 -65.873627 -16.896361
-21.49785 -63.488233 -18.048716
-20.325913 -64.719229 -17.467253
-21.020606 -65.614762 -17.62735
-23.596906 -68.9832 -18.679727
-24.18981 -69.759865 -19.034881
-22.988193 -68.209243 -18.359007
-23.596906 -68.9832 -18.679727
-24.134294 -66.834457 -19.001579
-22.35194 -67.364429 -18.075104
-22.988193 -68.209243 -18.359007
-22.859062 -65.222133 -18.444836
-21.685421 -66.526062 -17.839081
-22.35194 -67.364429 -18.075104
-28.190463 -66.503586 -22.279342
-27.288217 -68.116814 -21.412639
-30.906098 -66.360833 -25.571087
-31.707475 -64.437939 -26.56991
-30.365879 -66.069523 -24.963209
-30.906098 -66.360833 -25.571087
-29.900177 -65.756951 -24.357737
-30.365879 -66.069523 -24.963209
-30.680071 -63.94762 -25.353093
-29.430035 -65.335117 -23.778117
-29.900177 -65.756951 -24.357737
-29.004368 -64.904016 -23.206087
-29.430035 -65.335117 -23.778117
-29.788703 -63.203947 -24.17559
-28.549132 -64.372416 -22.676817
-28.190463 -66.503586 -22.279342
-29.004368 -64.904016 -23.206087
-24.937224 -39.735841 -27.19669
-24.54021 -40.840283 -26.248632
-24.711419 -41.076479 -26.593611
-25.224128 -38.643268 -28.170393
-25.423057 -38.820408 -28.532578
-25.538753 -37.491638 -29.161302
-24.937224 -39.735841 -27.19669
-25.224128 -38.643268 -28.170393
-26.387304 -26.40545 -37.637183
-26.348047 -27.689135 -36.587267
-26.68168 -26.327846 -38.081612
-26.538086 -25.101641 -38.66617
-26.387304 -26.40545 -37.637183
-26.782947 -28.935334 -36.393021
-26.412371 -28.905242 -36.008931
-26.664418 -30.208922 -35.349328
3 1 95 93
3 1 97 95
3 2 100 98
3 2 102 100
3 3 105 103
3 3 107 105
3 4 110 108
3 4 112 110
3 5 370 372
3 370 113 371
3 370 371 372
3 5 115 113
3 6 118 116
3 6 119 118
3 7 121 120
3 7 123 121
3 8 373 375
3 375 374 124
3 373 374 375
3 9 376 378
3 378 377 125
3 376 377 378
3 9 379 380
3 9 381 383
3 381 126 382
3 381 382 383
3 11 129 127
3 11 131 129
3 12 384 386
3 386 385 132
3 384 385 386
3 12 387 388
3 12 389 390
3 13 135 133
3 13 137 135
3 14 391 392
3 14 393 395
3 393 138 394
3 393 394 395
3 14 140 138
3 16 143 141
3 16 145 143
3 17 396 398
3 398 397 146
3 396 397 398
3 17 399 400
3 17 401 403
3 401 147 402
3 401 402 403
3 15 150 148
3 15 152 150
3 18 155 153
3 18 157 155
3 19 160 158
3 19 162 160
3 19 164 162
3 20 167 165
3 20 169 167
3 20 171 169
3 404 173 405
3 407 406 173
3 408 176 409
3 410 178 411
3 412 411 176
3 410 411 412
3 413 179 414
3 415 181 416
3 417 416 179
3 415 416 417
3 22 418 420
3 418 183 419
3 418 419 420
3 22 185 183
3 23 188 186
3 23 190 188
3 23 192 190
3 21 195 193
3 21 197 195
3 10 199 198
3 25 202 200
3 25 203 202
3 25 205 203
3 24 208 206
3 24 210 208
3 421 212 422
3 27 423 425
3 423 213 424
3 423 424 425
3 27 214 213
3 28 217 215
3 30 218 94
3 30 219 218
3 30 221 219
3 32 222 96
3 32 223 222
3 426 224 427
3 428 225 429
3 430 429 224
3 428 429 430
3 431 227 432
3 433 432 225
3 431 432 433
3 434 229 435
3 35 436 438
3 436 230 437
3 436 437 438
3 35 231 230
3 36 233 232
3 38 234 99
3 38 235 234
3 38 237 235
3 40 238 101
3 40 239 238
3 439 241 440
3 42 441 443
3 441 242 442
3 441 442 443
3 42 243 242
3 42 245 243
3 444 246 445
3 446 247 447
3 448 447 246
3 446 447 448
3 450 449 247
3 44 451 453
3 451 249 452
3 451 452 453
3 46 250 104
3 46 251 250
3 46 253 251
3 48 254 106
3 48 255 254
3 49 258 256
3 51 259 109
3 51 260 259
3 51 262 260
3 53 263 111
3 53 264 263
3 54 454 455
3 54 456 458
3 456 265 457
3 456 457 458
3 54 266 265
3 55 267 114
3 55 268 267
3 26 269 211
3 460 459 117
3 461 270 462
3 56 271 122
3 56 272 271
3 29 463 465
3 465 464 216
3 463 464 465
3 57 466 468
3 466 273 467
3 466 467 468
3 57 274 273
3 31 275 220
3 58 276 128
3 58 277 276
3 58 278 277
3 59 279 130
3 59 280 279
3 60 469 471
3 469 281 470
3 469 470 471
3 60 282 281
3 33 283 226
3 61 284 134
3 61 285 284
3 61 286 285
3 62 287 136
3 62 288 287
3 472 289 473
3 63 474 476
3 474 290 475
3 474 475 476
3 63 291 290
3 63 292 291
3 64 293 139
3 64 294 293
3 34 295 228
3 65 296 142
3 65 297 296
3 65 298 297
3 67 299 144
3 67 301 299
3 37 477 478
3 68 479 480
3 68 481 482
3 39 302 236
3 69 303 149
3 69 304 303
3 69 305 304
3 66 306 151
3 66 300 306
3 71 483 485
3 483 308 484
3 483 484 485
3 71 309 308
3 486 310 487
3 72 311 154
3 72 312 311
3 72 313 312
3 73 488 490
3 490 489 156
3 488 489 490
3 73 491 492
3 493 314 494
3 41 315 240
3 74 316 159
3 74 317 316
3 74 318 317
3 75 319 161
3 75 495 497
3 497 496 319
3 495 496 497
3 75 498 499
3 501 500 163
3 43 320 244
3 503 502 166
3 76 504 506
3 506 505 168
3 504 505 506
3 76 507 508
3 76 509 511
3 509 321 510
3 509 510 511
3 77 322 170
3 77 323 322
3 512 324 513
3 514 513 248
3 512 513 514
3 78 325 172
3 78 326 325
3 78 327 326
3 79 328 174
3 79 329 328
3 80 330 175
3 80 331 330
3 80 332 331
3 81 333 177
3 81 334 333
3 82 515 517
3 515 335 516
3 515 516 517
3 82 336 335
3 82 337 336
3 70 338 180
3 70 307 338
3 518 340 519
3 84 341 182
3 84 342 341
3 84 343 342
3 85 344 184
3 85 345 344
3 45 520 522
3 520 346 521
3 520 521 522
3 86 347 187
3 86 348 347
3 86 349 348
3 87 350 189
3 87 351 350
3 87 352 351
3 88 353 191
3 88 354 353
3 47 355 252
3 89 356 194
3 89 357 356
3 89 358 357
3 83 359 196
3 83 339 359
3 50 361 257
3 524 523 201
3 525 362 526
3 91 363 204
3 91 364 363
3 52 365 261
3 92 366 207
3 92 367 366
3 92 368 367
3 90 369 209
3 90 360 369
3 527 27 528
3 93 94 28
3 95 94 93
3 95 30 94
3 95 96 30
3 97 96 95
3 97 32 96
3 529 35 530
3 98 99 36
3 100 99 98
3 100 38 99
3 100 101 38
3 102 101 100
3 102 40 101
3 531 42 532
3 534 533 42
3 103 104 44
3 105 104 103
3 105 46 104
3 105 106 46
3 107 106 105
3 107 48 106
3 108 109 49
3 110 109 108
3 110 51 109
3 110 111 51
3 112 111 110
3 112 53 111
3 113 535 536
3 113 537 539
3 537 54 538
3 537 538 539
3 113 114 54
3 115 114 113
3 115 55 114
3 116 117 26
3 118 117 116
3 118 540 542
3 542 541 117
3 540 541 542
3 118 543 544
3 119 545 547
3 547 546 118
3 545 546 547
3 119 548 549
3 120 550 551
3 121 552 554
3 554 553 120
3 552 553 554
3 121 555 556
3 121 557 559
3 557 122 558
3 557 558 559
3 123 122 121
3 123 56 122
3 124 560 561
3 563 562 124
3 125 564 566
3 566 565 29
3 564 565 566
3 568 567 125
3 126 569 570
3 126 571 573
3 571 57 572
3 571 572 573
3 127 128 31
3 129 128 127
3 129 58 128
3 129 130 58
3 131 130 129
3 131 59 130
3 132 574 575
3 577 576 132
3 578 60 579
3 133 134 33
3 135 134 133
3 135 61 134
3 135 136 61
3 137 136 135
3 137 62 136
3 138 580 581
3 138 582 584
3 582 63 583
3 582 583 584
3 138 139 63
3 140 139 138
3 140 64 139
3 141 142 34
3 143 142 141
3 143 65 142
3 143 144 65
3 145 144 143
3 145 67 144
3 146 585 587
3 587 586 37
3 585 586 587
3 589 588 146
3 147 590 591
3 147 592 594
3 592 68 593
3 592 593 594
3 148 149 39
3 150 149 148
3 150 69 149
3 150 151 69
3 152 151 150
3 152 66 151
3 595 71 596
3 153 597 599
3 597 154 598
3 597 598 599
3 155 154 153
3 155 72 154
3 155 156 72
3 157 156 155
3 157 73 156
3 158 159 41
3 160 159 158
3 160 74 159
3 160 161 74
3 162 161 160
3 162 75 161
3 162 163 75
3 164 163 162
3 164 600 602
3 602 601 163
3 600 601 602
3 165 166 43
3 167 166 165
3 167 603 605
3 605 604 166
3 603 604 605
3 167 606 608
3 606 168 607
3 606 607 608
3 169 168 167
3 169 76 168
3 169 170 76
3 171 170 169
3 171 77 170
3 609 172 610
3 173 611 613
3 611 172 612
3 611 612 613
3 173 78 172
3 173 174 78
3 614 174 615
3 616 615 173
3 614 615 616
3 617 79 618
3 619 618 174
3 617 618 619
3 620 175 621
3 176 622 624
3 622 175 623
3 622 623 624
3 176 80 175
3 176 177 80
3 178 177 176
3 178 81 177
3 179 625 626
3 179 627 629
3 627 82 628
3 627 628 629
3 179 180 82
3 181 180 179
3 181 70 180
3 630 182 631
3 183 632 634
3 632 182 633
3 632 633 634
3 183 84 182
3 183 184 84
3 185 184 183
3 185 85 184
3 186 187 45
3 188 187 186
3 188 86 187
3 188 189 86
3 190 189 188
3 190 87 189
3 190 191 87
3 192 191 190
3 192 88 191
3 193 194 47
3 195 194 193
3 195 89 194
3 195 196 89
3 197 196 195
3 197 83 196
3 198 635 636
3 199 637 639
3 639 638 198
3 637 638 639
3 199 640 641
3 200 201 50
3 202 201 200
3 202 642 644
3 644 643 201
3 642 643 644
3 202 645 646
3 203 647 649
3 649 648 202
3 647 648 649
3 203 650 651
3 203 652 654
3 652 204 653
3 652 653 654
3 205 204 203
3 205 91 204
3 206 207 52
3 208 207 206
3 208 92 207
3 208 209 92
3 210 209 208
3 210 90 209
3 655 5 656
3 657 211 658
3 659 211 660
3 661 26 662
3 663 662 211
3 661 662 663
3 664 26 665
3 666 116 667
3 668 667 26
3 666 667 668
3 212 669 671
3 669 116 670
3 669 670 671
3 212 6 116
3 213 672 673
3 213 674 675
3 213 676 678
3 676 120 677
3 676 677 678
3 214 120 213
3 214 7 120
3 215 216 8
3 217 216 215
3 217 29 216
3 94 217 28
3 218 217 94
3 218 29 217
3 218 125 29
3 219 125 218
3 219 9 125
3 219 220 9
3 221 220 219
3 221 31 220
3 96 221 30
3 222 221 96
3 222 31 221
3 222 127 31
3 223 127 222
3 223 11 127
3 224 679 680
3 224 681 682
3 224 683 685
3 683 132 684
3 683 684 685
3 225 132 224
3 225 12 132
3 225 226 12
3 227 226 225
3 227 33 226
3 686 227 687
3 688 227 689
3 690 33 691
3 692 691 227
3 690 691 692
3 693 133 694
3 695 694 33
3 693 694 695
3 696 133 697
3 698 13 699
3 700 699 133
3 698 699 700
3 701 14 702
3 703 228 704
3 705 704 14
3 703 704 705
3 229 706 708
3 706 228 707
3 706 707 708
3 229 34 228
3 709 229 710
3 230 711 713
3 711 229 712
3 711 712 713
3 230 34 229
3 230 141 34
3 231 141 230
3 231 16 141
3 232 714 715
3 233 716 718
3 718 717 232
3 716 717 718
3 233 719 721
3 719 37 720
3 719 720 721
3 99 233 36
3 234 233 99
3 234 37 233
3 234 146 37
3 235 146 234
3 235 17 146
3 235 236 17
3 237 236 235
3 237 39 236
3 101 237 38
3 238 237 101
3 238 39 237
3 238 148 39
3 239 148 238
3 239 15 148
3 722 153 723
3 724 153 725
3 726 18 727
3 728 727 153
3 726 727 728
3 729 240 730
3 241 731 733
3 731 240 732
3 731 732 733
3 241 41 240
3 734 241 735
3 242 736 738
3 736 241 737
3 736 737 738
3 242 41 241
3 242 158 41
3 243 158 242
3 243 19 158
3 243 244 19
3 245 244 243
3 245 43 244
3 739 245 740
3 741 740 42
3 739 740 741
3 246 742 744
3 742 245 743
3 742 743 744
3 246 43 245
3 246 165 43
3 247 165 246
3 247 20 165
3 247 248 20
3 745 248 746
3 747 746 247
3 745 746 747
3 749 748 248
3 750 22 751
3 249 752 753
3 249 754 756
3 754 45 755
3 754 755 756
3 104 249 44
3 250 249 104
3 250 45 249
3 250 186 45
3 251 186 250
3 251 23 186
3 251 252 23
3 253 252 251
3 253 47 252
3 106 253 46
3 254 253 106
3 254 47 253
3 254 193 47
3 255 193 254
3 255 21 193
3 256 257 10
3 258 257 256
3 258 50 257
3 109 258 49
3 259 258 109
3 259 50 258
3 259 200 50
3 260 200 259
3 260 25 200
3 260 261 25
3 262 261 260
3 262 52 261
3 111 262 51
3 263 262 111
3 263 52 262
3 263 206 52
3 264 206 263
3 264 24 206
3 265 757 758
3 265 759 760
3 265 761 763
3 761 232 762
3 761 762 763
3 266 232 265
3 266 36 232
3 114 266 54
3 267 266 114
3 267 36 266
3 267 98 36
3 268 98 267
3 268 2 98
3 211 764 765
3 269 766 768
3 768 767 211
3 766 767 768
3 269 769 770
3 117 269 26
3 771 269 772
3 773 772 117
3 771 772 773
3 775 774 269
3 270 776 777
3 270 778 780
3 778 44 779
3 778 779 780
3 122 781 783
3 781 270 782
3 781 782 783
3 271 270 122
3 271 44 270
3 271 103 44
3 272 103 271
3 272 3 103
3 216 784 786
3 786 785 8
3 784 785 786
3 788 787 216
3 790 789 29
3 273 791 792
3 273 793 794
3 273 795 797
3 795 198 796
3 795 796 797
3 274 198 273
3 274 10 198
3 220 126 9
3 275 126 220
3 275 57 126
3 128 275 31
3 276 275 128
3 276 57 275
3 276 274 57
3 277 274 276
3 277 10 274
3 277 256 10
3 278 256 277
3 278 49 256
3 130 278 58
3 279 278 130
3 279 49 278
3 279 108 49
3 280 108 279
3 280 4 108
3 281 798 799
3 281 800 801
3 281 802 804
3 802 124 803
3 802 803 804
3 282 124 281
3 282 8 124
3 226 805 807
3 807 806 12
3 805 806 807
3 283 808 810
3 810 809 226
3 808 809 810
3 283 811 813
3 811 60 812
3 811 812 813
3 134 283 33
3 284 283 134
3 284 60 283
3 284 282 60
3 285 282 284
3 285 8 282
3 285 215 8
3 286 215 285
3 286 28 215
3 136 286 61
3 287 286 136
3 287 28 286
3 287 93 28
3 288 93 287
3 288 1 93
3 814 5 815
3 816 5 817
3 818 115 819
3 820 819 5
3 818 819 820
3 821 115 822
3 823 55 824
3 825 824 115
3 823 824 825
3 826 55 827
3 828 268 829
3 830 829 55
3 828 829 830
3 289 831 833
3 831 268 832
3 831 832 833
3 289 2 268
3 290 834 835
3 290 836 837
3 290 838 840
3 838 289 839
3 838 839 840
3 291 289 290
3 291 2 289
3 291 102 2
3 292 102 291
3 292 40 102
3 139 292 63
3 293 292 139
3 293 40 292
3 293 239 40
3 294 239 293
3 294 15 239
3 228 140 14
3 295 140 228
3 295 64 140
3 142 295 34
3 296 295 142
3 296 64 295
3 296 294 64
3 297 294 296
3 297 15 294
3 297 152 15
3 298 152 297
3 298 66 152
3 144 298 65
3 299 298 144
3 299 66 298
3 299 300 66
3 301 300 299
3 301 0 300
3 842 841 37
3 236 147 17
3 302 147 236
3 302 68 147
3 149 302 39
3 303 302 149
3 303 68 302
3 303 843 845
3 845 844 68
3 843 844 845
3 304 846 848
3 848 847 303
3 846 847 848
3 304 849 850
3 304 851 853
3 851 181 852
3 851 852 853
3 305 181 304
3 305 70 181
3 151 305 69
3 306 305 151
3 306 70 305
3 306 307 70
3 300 307 306
3 300 0 307
3 308 854 855
3 308 856 857
3 308 858 860
3 858 212 859
3 858 859 860
3 309 212 308
3 309 6 212
3 310 861 862
3 310 863 865
3 863 71 864
3 863 864 865
3 154 866 868
3 866 310 867
3 866 867 868
3 311 310 154
3 311 71 310
3 311 309 71
3 312 309 311
3 312 6 309
3 312 119 6
3 313 119 312
3 313 869 871
3 871 870 119
3 869 870 871
3 156 313 72
3 872 313 873
3 874 873 156
3 872 873 874
3 876 875 313
3 314 877 878
3 314 879 881
3 879 18 880
3 879 880 881
3 240 882 883
3 315 884 886
3 886 885 240
3 884 885 886
3 315 887 888
3 159 315 41
3 316 315 159
3 316 889 891
3 891 890 315
3 889 890 891
3 316 892 894
3 892 314 893
3 892 893 894
3 317 314 316
3 317 18 314
3 317 157 18
3 318 157 317
3 318 73 157
3 161 318 74
3 319 318 161
3 319 73 318
3 319 895 897
3 897 896 73
3 895 896 897
3 899 898 319
3 163 900 902
3 902 901 75
3 900 901 902
3 904 903 163
3 244 164 19
3 320 164 244
3 320 905 907
3 907 906 164
3 905 906 907
3 166 320 43
3 908 320 909
3 910 909 166
3 908 909 910
3 912 911 320
3 168 913 914
3 916 915 168
3 321 917 918
3 321 919 921
3 919 27 920
3 919 920 921
3 170 321 76
3 322 321 170
3 322 27 321
3 322 214 27
3 323 214 322
3 323 7 214
3 248 171 20
3 324 171 248
3 324 77 171
3 172 922 924
3 922 324 923
3 922 923 924
3 325 324 172
3 325 77 324
3 325 323 77
3 326 323 325
3 326 7 323
3 326 123 7
3 327 123 326
3 327 56 123
3 174 327 78
3 328 327 174
3 328 56 327
3 328 272 56
3 329 272 328
3 329 3 272
3 925 79 926
3 175 927 928
3 330 929 931
3 931 930 175
3 929 930 931
3 330 932 934
3 932 79 933
3 932 933 934
3 330 329 79
3 331 329 330
3 331 3 329
3 331 107 3
3 332 107 331
3 332 48 107
3 177 332 80
3 333 332 177
3 333 48 332
3 333 255 48
3 334 255 333
3 334 21 255
3 935 178 936
3 937 178 938
3 939 81 940
3 941 940 178
3 939 940 941
3 335 942 943
3 335 944 946
3 944 81 945
3 944 945 946
3 335 334 81
3 336 334 335
3 336 21 334
3 336 197 21
3 337 197 336
3 337 83 197
3 180 337 82
3 338 337 180
3 338 83 337
3 338 339 83
3 307 339 338
3 307 0 339
3 947 13 948
3 949 13 950
3 951 137 952
3 953 952 13
3 951 952 953
3 954 137 955
3 956 62 957
3 958 957 137
3 956 957 958
3 959 62 960
3 961 288 962
3 963 962 62
3 961 962 963
3 964 288 965
3 966 1 967
3 968 967 288
3 966 967 968
3 969 1 970
3 971 97 972
3 973 972 1
3 971 972 973
3 974 97 975
3 976 32 977
3 978 977 97
3 976 977 978
3 979 32 980
3 981 223 982
3 983 982 32
3 981 982 983
3 340 984 986
3 984 223 985
3 984 985 986
3 340 11 223
3 182 987 988
3 341 989 991
3 991 990 182
3 989 990 991
3 341 992 993
3 341 994 996
3 994 340 995
3 994 995 996
3 342 340 341
3 342 11 340
3 342 131 11
3 343 131 342
3 343 59 131
3 184 343 84
3 344 343 184
3 344 59 343
3 344 280 59
3 345 280 344
3 345 4 280
3 997 22 998
3 346 999 1000
3 346 1001 1002
3 187 346 45
3 347 346 187
3 347 1003 1005
3 1005 1004 346
3 1003 1004 1005
3 347 1006 1007
3 348 1008 1010
3 1010 1009 347
3 1008 1009 1010
3 348 1011 1013
3 1011 22 1012
3 1011 1012 1013
3 348 185 22
3 349 185 348
3 349 85 185
3 189 349 86
3 350 349 189
3 350 85 349
3 350 345 85
3 351 345 350
3 351 4 345
3 351 112 4
3 352 112 351
3 352 53 112
3 191 352 87
3 353 352 191
3 353 53 352
3 353 264 53
3 354 264 353
3 354 24 264
3 252 192 23
3 355 192 252
3 355 88 192
3 194 355 47
3 356 355 194
3 356 88 355
3 356 354 88
3 357 354 356
3 357 24 354
3 357 210 24
3 358 210 357
3 358 90 210
3 196 358 89
3 359 358 196
3 359 90 358
3 359 360 90
3 339 360 359
3 339 0 360
3 257 199 10
3 361 199 257
3 361 1014 1016
3 1016 1015 199
3 1014 1015 1016
3 201 361 50
3 1017 361 1018
3 1019 1018 201
3 1017 1018 1019
3 1021 1020 361
3 362 1022 1023
3 362 1024 1026
3 1024 35 1025
3 1024 1025 1026
3 204 1027 1029
3 1027 362 1028
3 1027 1028 1029
3 363 362 204
3 363 35 362
3 363 231 35
3 364 231 363
3 364 16 231
3 261 205 25
3 365 205 261
3 365 91 205
3 207 365 52
3 366 365 207
3 366 91 365
3 366 364 91
3 367 364 366
3 367 16 364
3 367 145 16
3 368 145 367
3 368 67 145
3 209 368 92
3 369 368 209
3 369 67 368
3 369 301 67
3 360 301 369
3 360 0 301
