ply
format ascii 1.0
element vertex 464
property float x
property float y
property float z
element face 516
property list uchar int vertex_index
end_header
-38.54821 71.942123 -11.548656
-41.656693 53.175236 -19.803932
-49.146347 51.047604 -3.999538
-42.32148 63.32159 -17.993347
-34.201569 59.648289 -22.735653
-31.012531 72.238113 -19.451118
-48.354313 55.360508 1.322517
-46.535316 61.398525 -9.498486
-46.010647 54.583523 -12.967096
-40.797188 68.115814 -15.321835
-37.350784 67.937393 -18.795151
-35.311974 72.851852 -15.909534
-40.72319 69.78949 -6.426493
-44.53743 64.397614 -5.60647
-43.122337 66.837387 -10.842707
-44.874058 63.018421 -14.22234
-27.819452 63.153751 -23.703583
-29.271122 56.145847 -24.752037
-46.557487 52.717724 11.311935
-49.764408 53.288311 -2.077471
-44.136559 54.539707 -16.769016
-43.063351 51.142422 -12.51897
-42.693184 58.167004 -19.444038
-39.131241 56.232433 -21.791656
-38.710472 62.148563 -20.700077
-32.874382 66.21431 -21.405327
-25.999342 70.038834 -22.468388
-45.976616 57.108318 5.771371
-45.373203 61.07983 0.033335
-47.604897 58.761654 -4.198996
-48.60997 56.098507 -7.189487
-47.600929 53.335621 -8.590479
-47.210342 58.024212 -12.029125
-45.336372 58.784 -16.216621
-36.021164 74.418793 -6.996656
-34.813538 53.278652 -23.762695
-23.869219 76.00032 -20.513866
-18.759426 73.381241 -24.179943
-48.967476 51.404285 6.790529
-44.593731 50.512783 -8.451944
-40.43433 47.333546 -7.359762
-39.734207 70.182816 -13.555666
-38.211216 70.55574 -15.637451
-37.070419 72.572708 -13.835468
-39.757004 71.001083 -9.06834
-41.962147 68.444626 -8.736225
-40.976273 69.465378 -11.244835
-42.09148 67.642181 -13.198317
-24.375593 64.847214 -24.452183
-25.273474 61.224766 -24.913338
-45.523376 53.259029 13.724196
-45.175259 55.568981 11.037495
-49.746277 52.180729 -3.241869
-50.400368 50.633526 -0.808048
-47.974514 49.889675 -4.347731
-42.989708 54.012058 -18.380238
-42.937149 52.476269 -16.591022
-41.86483 51.792423 -18.201393
-42.673378 60.751553 -18.868195
-40.985607 60.125309 -20.20549
-40.646946 62.917507 -19.466927
-34.316795 70.1465 -19.09388
-35.220409 67.261765 -20.179741
-32.0028 69.347244 -20.530083
-29.521353 68.17305 -21.854485
-28.560471 71.328995 -20.99575
-44.14299 62.031765 2.46485
-43.769424 63.927128 -0.432486
-45.649216 62.968334 -7.696527
-46.166763 61.576664 -4.991886
-47.12574 60.189526 -6.896166
-48.324638 57.455776 -5.877277
-47.756012 58.713367 -8.47027
-47.952122 57.188717 -9.665348
-47.085579 59.735416 -10.956644
-43.725697 63.350964 -16.244505
-45.299747 60.923901 -15.404842
-44.107491 61.018787 -17.27243
-44.126583 58.651608 -17.957439
-36.912483 57.909519 -22.32906
-37.04388 54.862263 -22.786388
-34.612331 56.404118 -23.277287
-26.836994 54.09837 -25.885033
-29.813055 52.782749 -25.303387
-21.304775 74.896332 -22.367092
-47.203468 56.283733 3.446522
-47.483055 54.237087 6.248605
-48.672924 53.438511 4.079845
-46.82233 54.108166 -10.828403
-46.310631 51.942547 -8.689117
-45.517529 52.565113 -10.827585
-41.169182 49.354061 -11.967022
-41.856808 49.342037 -9.988508
-39.786118 47.556332 -9.360279
-41.67878 65.803131 -16.809044
-40.044003 65.645996 -18.46484
-39.217503 68.221634 -17.187225
-36.400024 70.54985 -17.478226
-33.281708 72.746246 -17.772385
-42.727375 67.160019 -6.070473
-43.924171 65.742966 -8.296576
-44.981026 64.125046 -10.278494
-45.797718 62.354534 -11.957859
-44.121693 65.009979 -12.688688
-43.031921 65.582214 -14.878357
-31.129499 61.409161 -23.154499
-31.751593 58.003315 -23.711224
-28.598066 59.622219 -24.224072
-26.099087 57.620228 -25.378078
-23.705788 55.424114 -26.618263
-46.807297 50.434177 13.90764
-47.982002 49.888538 11.613685
-49.260635 54.355213 -0.538904
-49.664848 52.563602 2.140283
-50.286682 51.624004 0.491947
-45.129623 54.732159 -14.959435
-44.718277 52.871906 -12.884089
-43.873436 52.84264 -14.815327
-42.281635 50.955944 -14.421324
-42.355488 55.627979 -19.744934
-40.73951 54.6497 -20.984936
-41.024807 57.348637 -20.702858
-39.054424 59.164715 -21.333714
-36.544205 61.04472 -21.76067
-38.131653 65.104141 -19.863037
-35.970768 64.193253 -21.056404
-33.613468 62.947124 -22.124115
-30.380695 64.830643 -22.553387
-26.95088 66.659225 -23.141296
-23.412281 68.401077 -23.927124
-44.822136 57.821033 8.238251
-44.482124 59.986118 5.367416
-45.684635 59.161755 2.907829
-46.907845 58.207714 0.615873
-45.00547 62.833981 -2.816698
-46.573528 59.980846 -2.208452
-48.005085 57.143452 -1.447851
-48.818954 55.994152 -3.221558
-49.208565 54.788425 -4.647764
-49.07357 53.552532 -5.681618
-48.371468 52.302898 -6.30076
-48.378098 54.719578 -8.097904
-47.64653 55.647915 -10.45188
-46.854912 56.300404 -12.696129
-46.279663 60.485126 -13.285465
-46.351456 58.567387 -14.229141
-45.969139 56.641628 -14.780416
-44.948776 56.645672 -16.661594
-43.754234 56.303699 -18.315243
-37.29435 73.356567 -9.346811
-35.840736 74.222504 -11.814453
-34.566582 75.488815 -9.614195
-38.496658 72.220978 -6.721823
-32.22102 54.686893 -24.253395
-34.121422 74.777328 -14.103172
-32.139221 74.978256 -16.205734
-29.918455 74.790039 -18.134304
-26.372671 76.678162 -18.591518
-27.506195 74.192688 -19.921207
-24.969143 73.185196 -21.6129
-22.386599 71.784943 -23.257809
-19.841179 70.023376 -24.891453
-46.269348 54.950336 8.586231
-47.749825 52.096714 8.984447
-49.224644 49.284016 9.417517
-50.036903 50.644154 4.786724
-50.367386 48.621967 7.368483
-47.12513 51.03767 -6.51531
-45.417027 49.731785 -6.372683
-43.377872 48.337772 -5.956612
-43.819592 50.99181 -10.515886
-42.581112 48.99773 -7.970119
-40.889359 52.62207 -20.439796
-41.139286 52.00106 -19.731571
-23.125843 63.811823 -25.135404
-22.628805 65.651291 -24.930535
-44.508741 56.9888 10.915285
-44.731829 55.82412 12.295477
-49.53648 50.325737 -2.858252
-49.836445 50.8923 -2.479418
-49.446312 51.614166 -3.620703
-49.002609 49.792416 -3.10883
-49.53648 50.325737 -2.858252
-48.56043 50.468639 -4.173634
-48.416692 49.213451 -3.282926
-49.002609 49.792416 -3.10883
-41.139286 52.00106 -19.731571
-41.243355 51.309654 -18.930301
-41.760762 52.483829 -19.002662
-42.925453 65.303904 -0.619175
-43.168829 64.379473 0.83446
-27.150155 52.399845 -26.158986
-25.6783 52.983864 -26.488615
-39.486237 47.504948 -10.348981
-40.47765 48.455196 -10.66365
-40.177769 48.403813 -11.652352
-38.781826 46.563656 -9.056849
-39.486237 47.504948 -10.348981
-41.725283 68.474755 -6.248483
-42.105318 67.750336 -4.86528
-41.103226 69.065071 -5.04329
-24.459439 58.348084 -25.789963
-25.686281 59.422497 -25.145708
-24.046632 60.150352 -25.557592
-23.262789 57.250027 -26.410055
-24.902437 56.522171 -25.998171
-24.459439 58.348084 -25.789963
-22.114655 56.075825 -27.080751
-23.262789 57.250027 -26.410055
-50.71619 49.785202 0.394542
-50.55225 49.317559 -0.141174
-41.853365 50.700195 -15.309027
-42.609392 51.716107 -15.506173
-42.181122 51.460358 -16.393876
-41.376186 49.996647 -14.144623
-41.853365 50.700195 -15.309027
-43.739107 61.401775 5.197593
-43.946731 60.325847 6.652596
-44.77145 63.615797 -4.211584
-44.159805 64.239485 -3.053123
-43.925785 65.021301 -4.448009
-37.258911 73.319885 -6.859239
-37.871242 72.67144 -5.488062
-36.633495 73.770347 -5.625478
-39.022778 54.821762 -21.942577
-39.826912 54.030395 -21.539217
-39.935376 55.441067 -21.388296
-35.861643 52.616481 -23.450296
-36.976814 53.408287 -22.962142
-35.928709 54.070458 -23.274541
-34.794643 51.794914 -23.969776
-35.861643 52.616481 -23.450296
-31.159346 52.146256 -25.040382
-30.003383 51.175235 -25.578928
-33.493887 75.536499 -13.094729
-34.981079 74.499916 -12.958813
-34.353544 75.259087 -11.95037
-30.440604 75.956322 -16.385124
-31.529196 75.885872 -15.303929
-29.330221 75.862213 -17.349409
-31.028838 74.884147 -17.170019
-30.440604 75.956322 -16.385124
-25.120945 76.339241 -19.552692
-24.545752 77.546174 -18.861044
-23.294026 77.207253 -19.822218
-50.406757 50.23198 3.910861
-49.850876 51.603878 3.463504
-50.22073 51.191704 2.587641
-50.987265 47.254608 7.650894
-50.795997 48.260883 6.44701
-50.498127 47.571025 8.608892
-50.987265 47.254608 7.650894
-40.803002 47.062077 -6.370242
-41.876392 47.894168 -6.67542
-41.507721 48.165638 -7.664941
-39.706358 46.175049 -6.06825
-40.803002 47.062077 -6.370242
-23.574784 62.000599 -25.365982
-24.824534 63.03599 -24.682761
-23.125843 63.811823 -25.135404
-24.046632 60.150352 -25.557592
-23.574784 62.000599 -25.365982
-44.905887 54.669144 13.638827
-45.120365 53.481644 14.952369
-45.349317 54.414005 12.380845
-44.905887 54.669144 13.638827
-44.731829 55.82412 12.295477
-50.163491 50.118698 -1.262507
-50.073323 51.407128 -2.024958
-49.836445 50.8923 -2.479418
-50.55225 49.317559 -0.141174
-50.163491 50.118698 -1.262507
-47.617653 48.653813 -3.339258
-48.416692 49.213451 -3.282926
-47.140084 49.288021 -4.334335
-47.617653 48.653813 -3.339258
-41.644962 51.118435 -17.199061
-42.181122 51.460358 -16.393876
-42.400989 52.134346 -17.396207
-41.155783 50.715252 -18.019272
-41.644962 51.118435 -17.199061
-41.155783 50.715252 -18.019272
-41.243355 51.309654 -18.930301
-43.355611 63.431792 2.283127
-43.56954 62.424599 3.746311
-43.956207 62.979447 1.016182
-43.355611 63.431792 2.283127
-43.168829 64.379473 0.83446
-34.655152 75.40419 -7.135224
-35.394627 74.784042 -5.767963
-35.394627 74.784042 -5.767963
-36.633495 73.770347 -5.625478
-28.638185 51.742035 -25.868163
-28.325024 53.44056 -25.59421
-27.150155 52.399845 -26.158986
-30.003383 51.175235 -25.578928
-28.638185 51.742035 -25.868163
-22.025735 76.825027 -20.853815
-23.294026 77.207253 -19.822218
-20.743513 76.273033 -21.780428
-22.586997 75.448326 -21.440479
-22.025735 76.825027 -20.853815
-19.477635 75.665947 -22.782276
-20.743513 76.273033 -21.780428
-18.20496 74.908401 -23.688702
-20.0321 74.138787 -23.273518
-19.477635 75.665947 -22.782276
-39.057671 46.503357 -8.054879
-39.381777 46.391964 -7.054621
-40.110224 47.444939 -8.360021
-39.057671 46.503357 -8.054879
-38.781826 46.563656 -9.056849
-43.020758 66.402504 -4.68001
-42.105318 67.750336 -4.86528
-43.632402 65.778817 -5.838471
-43.925785 65.021301 -4.448009
-43.020758 66.402504 -4.68001
-24.112697 53.646736 -26.85523
-25.6783 52.983864 -26.488615
-25.271391 54.761242 -26.251648
-22.592791 54.233181 -27.259626
-24.112697 53.646736 -26.85523
-22.592791 54.233181 -27.259626
-22.114655 56.075825 -27.080751
-45.67155 52.08501 14.992349
-45.120365 53.481644 14.952369
-46.313511 50.672584 15.084071
-45.67155 52.08501 14.992349
-46.165336 51.846603 13.815918
-46.885456 49.2733 15.122076
-46.313511 50.672584 15.084071
-47.471065 49.032402 14.00182
-46.885456 49.2733 15.122076
-48.058418 48.759582 12.854843
-47.471065 49.032402 14.00182
-47.394649 50.161357 12.760663
-48.695824 48.493873 11.767271
-48.058418 48.759582 12.854843
-50.531647 50.721905 1.763472
-50.22073 51.191704 2.587641
-49.975765 52.093803 1.316115
-50.659347 50.280441 1.044539
-50.343525 51.128765 -0.15805
-50.71619 49.785202 0.394542
-50.531647 50.721905 1.763472
-50.659347 50.280441 1.044539
-40.819959 49.195706 -12.917472
-41.725409 50.155003 -13.194173
-41.376186 49.996647 -14.144623
-40.177769 48.403813 -11.652352
-40.819959 49.195706 -12.917472
-22.147149 67.428223 -24.668005
-22.628805 65.651291 -24.930535
-23.893937 66.624145 -24.189653
-44.116737 59.243305 8.088014
-44.33218 58.114826 9.515663
-44.65213 58.903576 6.802834
-44.116737 59.243305 8.088014
-43.946731 60.325847 6.652596
-44.312557 61.008941 3.916133
-43.739107 61.401775 5.197593
-43.56954 62.424599 3.746311
-43.541782 64.786058 -1.861017
-42.925453 65.303904 -0.619175
-44.387447 63.380555 -1.624592
-43.541782 64.786058 -1.861017
-44.159805 64.239485 -3.053123
-33.716467 75.892243 -10.850241
-34.353544 75.259087 -11.95037
-35.203659 74.85566 -10.714324
-33.92786 75.939201 -8.443994
-35.293873 74.953804 -8.305426
-34.655152 75.40419 -7.135224
-33.076837 76.452416 -9.753141
-33.92786 75.939201 -8.443994
-33.716467 75.892243 -10.850241
-33.076837 76.452416 -9.753141
-40.099011 70.31942 -5.197812
-41.103226 69.065071 -5.04329
-38.985744 71.535164 -5.345477
-37.871242 72.67144 -5.488062
-39.609924 71.005234 -6.574158
-40.099011 70.31942 -5.197812
-38.985744 71.535164 -5.345477
-40.430768 53.359302 -21.030299
-40.889359 52.62207 -20.439796
-41.198101 53.912468 -20.394434
-40.430768 53.359302 -21.030299
-39.826912 54.030395 -21.539217
-37.979097 54.136677 -22.439943
-39.022778 54.821762 -21.942577
-38.087561 55.547348 -22.289022
-37.979097 54.136677 -22.439943
-36.976814 53.408287 -22.962142
-32.363329 53.098327 -24.515386
-31.017038 53.734821 -24.778391
-31.159346 52.146256 -25.040382
-33.659588 52.394207 -24.270036
-33.517279 53.982772 -24.008045
-32.363329 53.098327 -24.515386
-34.794643 51.794914 -23.969776
-33.659588 52.394207 -24.270036
-32.520296 75.785408 -14.252648
-33.493887 75.536499 -13.094729
-33.130322 74.877792 -15.154453
-32.520296 75.785408 -14.252648
-31.529196 75.885872 -15.303929
-25.77867 77.707046 -17.790131
-24.545752 77.546174 -18.861044
-27.557329 76.806275 -17.578016
-25.77867 77.707046 -17.790131
-28.145563 75.7341 -18.362911
-29.330221 75.862213 -17.349409
-27.557329 76.806275 -17.578016
-20.361598 68.239372 -25.150169
-22.147149 67.428223 -24.668005
-21.62673 69.212226 -24.409288
-16.97979 74.083893 -24.664088
-18.20496 74.908401 -23.688702
-17.535095 72.433411 -25.071337
-16.97979 74.083893 -24.664088
-18.075972 70.754478 -25.427091
-19.300303 71.702309 -24.535698
-17.535095 72.433411 -25.071337
-18.625322 68.981178 -25.707359
-18.075972 70.754478 -25.427091
-20.361598 68.239372 -25.150169
-18.625322 68.981178 -25.707359
-44.998697 56.695007 9.637873
-44.508741 56.9888 10.915285
-44.33218 58.114826 9.515663
-49.317144 48.191613 10.669187
-48.695824 48.493873 11.767271
-48.603323 49.586277 10.515601
-50.630756 49.271977 5.15613
-50.406757 50.23198 3.910861
-50.202145 49.63306 6.077604
-50.630756 49.271977 5.15613
-50.795997 48.260883 6.44701
-49.926756 47.90205 9.633409
-49.796015 48.952991 8.393
-50.498127 47.571025 8.608892
-49.317144 48.191613 10.669187
-49.926756 47.90205 9.633409
-46.715391 49.862018 -5.418125
-47.140084 49.288021 -4.334335
-47.549822 50.463673 -5.43152
-45.86134 49.209076 -5.346812
-46.715391 49.862018 -5.418125
-46.271079 50.384727 -6.443997
-44.842167 48.563175 -5.182455
-45.86134 49.209076 -5.346812
-43.82259 47.866169 -4.974419
-44.842167 48.563175 -5.182455
-44.39745 49.034779 -6.164648
-42.700659 47.14468 -4.712826
-43.82259 47.866169 -4.974419
-42.274772 47.564189 -5.668667
-42.979492 48.667751 -6.963366
-41.876392 47.894168 -6.67542
-42.700659 47.14468 -4.712826
-42.274772 47.564189 -5.668667
-39.706358 46.175049 -6.06825
-39.381777 46.391964 -7.054621
3 0 43 41
3 0 46 44
3 0 41 46
3 1 172 173
3 175 174 48
3 176 51 177
3 2 178 180
3 180 179 52
3 178 179 180
3 2 181 182
3 2 183 185
3 183 54 184
3 183 184 185
3 1 57 55
3 1 186 188
3 188 187 57
3 186 187 188
3 3 60 58
3 5 63 61
3 5 65 63
3 189 67 190
3 7 70 68
3 7 72 70
3 7 74 72
3 3 77 75
3 3 58 77
3 4 81 79
3 192 191 82
3 6 87 85
3 8 90 88
3 193 93 194
3 195 194 91
3 193 194 195
3 197 196 93
3 9 96 94
3 11 97 42
3 11 98 97
3 12 198 200
3 198 99 199
3 198 199 200
3 14 100 45
3 14 101 100
3 14 103 101
3 9 104 47
3 9 94 104
3 16 107 105
3 201 108 202
3 203 202 49
3 201 202 203
3 204 109 205
3 206 205 108
3 204 205 206
3 208 207 109
3 18 110 50
3 18 111 110
3 19 114 112
3 210 209 53
3 20 117 115
3 211 118 212
3 213 212 56
3 211 212 213
3 215 214 118
3 22 121 119
3 24 122 59
3 24 123 122
3 10 124 95
3 25 125 62
3 25 126 125
3 25 127 126
3 26 128 64
3 26 129 128
3 216 131 217
3 28 132 66
3 28 133 132
3 13 218 220
3 218 134 219
3 218 219 220
3 29 135 69
3 29 136 135
3 29 137 136
3 30 138 71
3 30 139 138
3 30 141 139
3 32 142 73
3 32 143 142
3 15 144 102
3 33 145 76
3 33 146 145
3 33 147 146
3 22 148 78
3 22 119 148
3 34 151 149
3 34 221 223
3 221 152 222
3 221 222 223
3 34 149 152
3 23 224 226
3 226 225 120
3 224 225 226
3 35 227 229
3 229 228 80
3 227 228 229
3 35 230 231
3 17 153 106
3 233 232 83
3 234 154 235
3 236 235 150
3 234 235 236
3 237 155 238
3 239 156 240
3 241 240 155
3 239 240 241
3 36 242 244
3 242 157 243
3 242 243 244
3 36 158 157
3 36 159 158
3 37 160 84
3 37 161 160
3 27 162 130
3 38 163 86
3 38 164 163
3 245 165 246
3 247 246 113
3 245 246 247
3 248 166 249
3 251 250 166
3 31 167 140
3 39 168 89
3 39 169 168
3 21 170 116
3 40 171 92
3 40 252 254
3 254 253 171
3 252 253 254
3 40 255 256
3 41 42 9
3 43 42 41
3 43 11 42
3 44 45 12
3 46 45 44
3 46 14 45
3 46 47 14
3 41 47 46
3 41 9 47
3 48 49 16
3 257 49 258
3 259 258 48
3 257 258 259
3 261 260 49
3 262 50 263
3 51 264 266
3 264 50 265
3 264 265 266
3 51 18 50
3 52 53 19
3 267 53 268
3 269 268 52
3 267 268 269
3 271 270 53
3 54 272 273
3 54 274 275
3 55 56 20
3 57 56 55
3 57 276 278
3 278 277 56
3 276 277 278
3 57 279 280
3 282 281 57
3 58 59 22
3 60 59 58
3 60 24 59
3 61 62 10
3 63 62 61
3 63 25 62
3 63 64 25
3 65 64 63
3 65 26 64
3 283 66 284
3 67 285 287
3 285 66 286
3 285 286 287
3 67 28 66
3 68 69 13
3 70 69 68
3 70 29 69
3 70 71 29
3 72 71 70
3 72 30 71
3 72 73 30
3 74 73 72
3 74 32 73
3 75 76 15
3 77 76 75
3 77 33 76
3 77 78 33
3 58 78 77
3 58 22 78
3 289 288 34
3 290 34 291
3 79 80 23
3 81 80 79
3 81 35 80
3 82 83 17
3 292 83 293
3 294 293 82
3 292 293 294
3 296 295 83
3 297 36 298
3 299 84 300
3 301 300 36
3 299 300 301
3 302 84 303
3 304 37 305
3 306 305 84
3 304 305 306
3 85 86 27
3 87 86 85
3 87 38 86
3 88 89 31
3 90 89 88
3 90 39 89
3 91 92 21
3 93 92 91
3 93 40 92
3 93 307 309
3 309 308 40
3 307 308 309
3 311 310 93
3 94 95 3
3 96 95 94
3 96 10 95
3 42 96 9
3 97 96 42
3 97 10 96
3 97 61 10
3 98 61 97
3 98 5 61
3 99 312 313
3 99 314 316
3 314 13 315
3 314 315 316
3 45 99 12
3 100 99 45
3 100 13 99
3 100 68 13
3 101 68 100
3 101 7 68
3 101 102 7
3 103 102 101
3 103 15 102
3 47 103 14
3 104 103 47
3 104 15 103
3 104 75 15
3 94 75 104
3 94 3 75
3 105 106 4
3 107 106 105
3 107 17 106
3 49 107 16
3 108 107 49
3 108 17 107
3 108 82 17
3 109 82 108
3 109 317 319
3 319 318 82
3 317 318 319
3 109 320 321
3 323 322 109
3 50 324 325
3 110 326 328
3 328 327 50
3 326 327 328
3 110 329 330
3 110 331 332
3 111 333 335
3 335 334 110
3 333 334 335
3 111 336 337
3 112 113 6
3 114 113 112
3 114 338 340
3 340 339 113
3 338 339 340
3 53 114 19
3 341 114 342
3 343 342 53
3 341 342 343
3 345 344 114
3 115 116 8
3 117 116 115
3 117 21 116
3 56 117 20
3 118 117 56
3 118 21 117
3 118 91 21
3 346 91 347
3 348 347 118
3 346 347 348
3 350 349 91
3 119 120 1
3 121 120 119
3 121 23 120
3 59 121 22
3 122 121 59
3 122 23 121
3 122 79 23
3 123 79 122
3 123 4 79
3 95 60 3
3 124 60 95
3 124 24 60
3 62 124 10
3 125 124 62
3 125 24 124
3 125 123 24
3 126 123 125
3 126 4 123
3 126 105 4
3 127 105 126
3 127 16 105
3 64 127 25
3 128 127 64
3 128 16 127
3 128 48 16
3 129 48 128
3 129 351 353
3 353 352 48
3 351 352 353
3 354 130 355
3 131 356 358
3 356 130 357
3 356 357 358
3 131 27 130
3 66 359 361
3 359 131 360
3 359 360 361
3 132 131 66
3 132 27 131
3 132 85 27
3 133 85 132
3 133 6 85
3 362 67 363
3 134 364 366
3 364 67 365
3 364 365 366
3 134 28 67
3 69 134 13
3 135 134 69
3 135 28 134
3 135 133 28
3 136 133 135
3 136 6 133
3 136 112 6
3 137 112 136
3 137 19 112
3 71 137 29
3 138 137 71
3 138 19 137
3 138 52 19
3 139 52 138
3 139 2 52
3 139 140 2
3 141 140 139
3 141 31 140
3 73 141 30
3 142 141 73
3 142 31 141
3 142 88 31
3 143 88 142
3 143 8 88
3 102 74 7
3 144 74 102
3 144 32 74
3 76 144 15
3 145 144 76
3 145 32 144
3 145 143 32
3 146 143 145
3 146 8 143
3 146 115 8
3 147 115 146
3 147 20 115
3 78 147 33
3 148 147 78
3 148 20 147
3 148 55 20
3 119 55 148
3 119 1 55
3 149 150 0
3 151 150 149
3 151 367 369
3 369 368 150
3 367 368 369
3 370 151 371
3 372 371 34
3 370 371 372
3 373 151 374
3 376 375 151
3 377 12 378
3 152 379 380
3 152 381 383
3 381 12 382
3 381 382 383
3 152 44 12
3 149 44 152
3 149 0 44
3 120 384 386
3 386 385 1
3 384 385 386
3 388 387 120
3 80 389 391
3 391 390 23
3 389 390 391
3 393 392 80
3 106 81 4
3 153 81 106
3 153 35 81
3 83 153 17
3 394 153 395
3 396 395 83
3 394 395 396
3 397 35 398
3 399 398 153
3 397 398 399
3 401 400 35
3 150 43 0
3 154 43 150
3 154 11 43
3 402 154 403
3 155 404 406
3 404 154 405
3 404 405 406
3 155 11 154
3 155 98 11
3 156 98 155
3 156 5 98
3 157 407 408
3 157 409 410
3 157 411 413
3 411 156 412
3 411 412 413
3 158 156 157
3 158 5 156
3 158 65 5
3 159 65 158
3 159 26 65
3 84 159 36
3 160 159 84
3 160 26 159
3 160 129 26
3 161 129 160
3 161 414 416
3 416 415 129
3 414 415 416
3 417 37 418
3 419 37 420
3 421 161 422
3 423 422 37
3 421 422 423
3 424 161 425
3 427 426 161
3 130 428 430
3 428 51 429
3 428 429 430
3 162 51 130
3 162 18 51
3 86 162 27
3 163 162 86
3 163 18 162
3 163 111 18
3 164 111 163
3 164 431 433
3 433 432 111
3 431 432 433
3 113 87 6
3 165 87 113
3 165 38 87
3 434 165 435
3 166 436 438
3 436 165 437
3 436 437 438
3 166 38 165
3 166 164 38
3 439 164 440
3 441 440 166
3 439 440 441
3 443 442 164
3 140 54 2
3 167 54 140
3 167 444 446
3 446 445 54
3 444 445 446
3 89 167 31
3 168 167 89
3 168 447 449
3 449 448 167
3 447 448 449
3 168 450 451
3 169 452 454
3 454 453 168
3 452 453 454
3 169 455 456
3 116 90 8
3 170 90 116
3 170 39 90
3 92 170 21
3 171 170 92
3 171 39 170
3 171 169 39
3 457 169 458
3 459 458 171
3 457 458 459
3 461 460 169
3 463 462 40
