ply
format ascii 1.0
element vertex 313
property float x
property float y
property float z
element face 325
property list uchar int vertex_index
end_header
3.129343 -18.759716 51.199524
-4.440439 -8.152911 39.76226
1.564367 -2.631432 51.638565
-1.336836 -13.380199 46.330704
-2.026014 3.377621 44.861824
-5.001673 9.020395 36.435493
3.081182 -7.746293 58.332222
1.72654 -24.23772 48.742546
1.208286 5.342613 50.935921
-0.229101 0.28372 48.411682
-0.350163 8.346231 47.126335
-3.48477 14.589386 38.490303
-4.963575 17.234436 33.629074
-3.112738 -10.650192 43.297478
-2.641584 -19.264673 43.772079
2.248291 -10.689334 51.584404
0.923079 -16.126425 48.854965
0.220676 -7.893178 48.879723
-1.804213 -4.948284 45.895012
-3.437815 -2.045382 42.412971
-1.97555 11.531096 43.004288
-3.570814 6.387915 40.85524
-4.807924 0.550394 38.467796
3.608416 -13.305792 54.419708
2.811523 -5.280045 54.852478
-0.706306 -21.750168 46.497726
3.582405 -22.739752 51.035614
2.514416 -21.491041 49.88916
0.460907 6.806667 49.058273
0.465252 10.774803 48.208694
-3.808516 -9.358706 41.583546
-3.597582 -13.724793 41.934216
-4.212526 -12.553713 40.189331
1.87085 -6.651355 51.683167
1.27507 -9.315526 50.242935
0.949034 -5.250346 50.225601
-1.153494 1.821852 46.69101
-1.028368 -2.289028 47.157291
-1.949247 -0.766378 45.47168
-2.673037 -3.474983 44.21814
-2.780523 0.741974 43.662102
-4.280882 11.902742 37.492531
-3.556028 10.518822 39.774071
-4.28414 7.766451 38.692078
-4.233271 3.566799 39.690147
-4.930464 4.818178 37.550484
-5.504583 1.665401 36.349686
-5.652716 5.931749 35.317841
3.452755 -10.549077 56.307266
3.182774 -9.289171 54.684654
3.08098 -6.527262 56.548676
-0.244789 -14.762459 47.643948
0.107683 -18.909472 47.653828
-1.036413 -17.588482 46.428303
1.34219 1.366327 51.400864
0.699553 -1.20664 50.04834
0.536573 2.812424 49.668274
-0.330746 4.330408 47.883369
-1.200811 5.897223 46.014496
-3.355291 18.599396 37.019119
-4.219183 15.976868 36.099236
-5.014765 13.157726 35.12426
-2.297674 -12.000427 44.88401
-2.045069 -16.267851 45.070618
-2.892809 -14.971167 43.568893
-3.36133 -18.074545 42.197952
-5.071104 -7.054069 37.849628
-4.806364 -11.477987 38.355461
2.676044 -14.732854 51.402184
2.080996 -17.460001 50.017738
1.65991 -13.391956 50.154243
0.549076 -12.010609 48.903168
-0.562185 -10.594247 47.589325
-0.04327 -3.791995 48.731766
-0.828156 -6.430799 47.442932
-1.596735 -9.15842 46.16724
-2.509756 -7.727944 44.612953
-3.296556 -6.33359 42.924198
-3.989241 -5.007314 41.113564
-0.295507 12.327675 46.136917
-1.173784 9.933672 45.113522
-2.033697 7.478151 44.042152
-2.743223 13.096363 40.794876
-2.815313 9.032267 41.960449
-2.828203 4.912958 42.915264
-3.530615 2.19829 41.73119
-4.133055 -0.693779 40.491539
-4.641748 -3.777655 39.197952
3.503971 -16.036161 52.708984
3.051132 -12.016472 52.960213
2.639406 -7.9946 53.154366
2.290581 -3.986611 53.226189
2.770714 -2.519688 56.654251
2.510332 -1.289425 54.86084
2.020056 0.000763 53.119347
1.834448 3.967533 52.792511
1.322054 -20.213486 48.786575
0.479919 -23.00164 47.659882
-1.758959 -20.497721 45.208038
-1.442705 -24.652151 45.323311
0.821348 12.003145 48.742821
0.811315 10.036634 49.218163
3.257002 -9.767406 58.186051
2.953324 -8.349761 59.269902
3.266968 -9.147685 57.319744
3.442788 -11.168798 57.173572
3.257002 -9.767406 58.186051
1.923131 -26.200268 48.749909
2.331996 -24.844266 49.279411
1.293074 -25.619709 48.218102
1.923131 -26.200268 48.749909
-3.259949 20.573957 36.202511
-2.891316 19.823164 37.453793
-4.591379 16.605652 34.864155
-4.15683 17.984199 35.314925
-4.529026 18.612983 34.079844
-5.365879 15.750486 33.150959
-5.391474 13.712131 33.898552
-4.98917 15.196081 34.376667
-3.66317 -17.512353 41.353946
-3.479456 -15.899669 42.066084
-3.781296 -15.337477 41.222078
-3.531161 -19.690206 41.474838
-3.66317 -17.512353 41.353946
-5.254558 -8.782455 37.146067
-5.408421 -6.565114 36.849937
-0.236629 14.297598 45.53188
0.12094 13.519586 46.631529
-1.574667 10.732384 44.058905
-1.126809 11.930051 44.551695
-1.527692 12.728763 43.497078
-3.113996 13.842875 39.642589
-2.67847 15.099365 40.112337
-3.049244 15.845876 38.96005
-5.057657 -1.058064 37.828299
-4.974569 -3.222089 38.193376
-4.724836 -1.613631 38.832874
-5.760656 -0.011311 35.718319
-5.872053 2.151572 35.242784
3.837896 -15.307607 54.273365
3.740161 -13.937218 55.208534
3.556194 -14.670977 53.564346
3.785673 -16.672792 53.418003
3.837896 -15.307607 54.273365
2.658879 -1.107295 57.592434
2.777345 -3.115179 57.585262
2.398764 0.695312 54.761032
2.520008 0.088494 55.714764
2.153625 1.340406 53.890285
2.265194 -0.644331 53.990094
2.398764 0.695312 54.761032
2.060822 3.323791 53.726867
1.927252 1.984148 52.955929
2.153625 1.340406 53.890285
-0.530191 -23.788824 46.532775
0.062921 -24.41456 47.113854
-0.113194 -22.375904 47.078804
-1.74279 -26.134546 44.696863
-1.901268 -24.072612 44.628414
-1.268946 -26.672343 45.378631
-1.74279 -26.134546 44.696863
-4.664793 -13.694034 38.544901
-4.956131 -13.222179 37.621426
3.259929 -24.095282 50.425945
3.796381 -24.689321 50.997956
2.725934 -23.470927 49.852718
3.259929 -24.095282 50.425945
3.048411 -22.115396 50.462387
2.120478 -22.86438 49.315853
2.331996 -24.844266 49.279411
2.725934 -23.470927 49.852718
0.809142 8.052566 49.642952
0.834596 6.07464 49.997097
1.182832 7.320539 50.581776
0.463079 8.790735 48.633483
0.809142 8.052566 49.642952
0.811315 10.036634 49.218163
-4.902809 19.24502 32.79986
-4.529026 18.612983 34.079844
-5.342582 17.790222 32.356001
-4.902809 19.24502 32.79986
-4.088768 -14.751937 40.349636
-3.781296 -15.337477 41.222078
-3.905054 -13.139253 41.061774
-1.916122 13.531491 42.379635
-1.527692 12.728763 43.497078
-5.94612 4.284746 34.726862
-5.872053 2.151572 35.242784
-5.57865 3.798575 35.833764
3.66233 -12.558861 56.152313
3.442788 -11.168798 57.173572
3.530585 -11.927435 55.363487
3.740161 -13.937218 55.208534
3.66233 -12.558861 56.152313
-2.500707 -21.378873 43.852798
-2.870973 -20.81775 43.086875
-2.984504 17.850881 38.224458
-2.891316 19.823164 37.453793
-3.420031 16.594391 37.754711
-3.049244 15.845876 38.96005
-2.984504 17.850881 38.224458
-3.724884 19.295463 35.774866
-3.259949 20.573957 36.202511
-3.787237 17.288132 36.559178
-3.724884 19.295463 35.774866
-4.15683 17.984199 35.314925
-5.378912 11.64424 34.607031
-5.372366 9.575574 35.262647
-5.008219 11.089061 35.779877
-5.378912 11.64424 34.607031
-5.391474 13.712131 33.898552
-5.365879 15.750486 33.150959
-5.342582 17.790222 32.356001
2.82103 -6.314713 59.391751
2.953324 -8.349761 59.269902
2.932579 -5.728482 58.424247
2.82103 -6.314713 59.391751
-3.230847 -20.222686 42.299812
-2.870973 -20.81775 43.086875
-3.001457 -18.669609 42.985016
-3.230847 -20.222686 42.299812
-3.531161 -19.690206 41.474838
-5.122189 -10.994414 37.398983
-4.938734 -9.266028 38.102545
-5.254558 -8.782455 37.146067
-4.956131 -13.222179 37.621426
-5.122189 -10.994414 37.398983
0.50132 12.743151 47.667417
0.821348 12.003145 48.742821
0.857416 13.971493 48.201544
0.084872 11.551239 47.172805
0.50132 12.743151 47.667417
0.12094 13.519586 46.631529
-0.68767 13.127052 45.063392
-0.236629 14.297598 45.53188
-0.734645 11.130674 45.62522
-0.68767 13.127052 45.063392
-1.126809 11.930051 44.551695
-2.299959 14.314125 41.274929
-2.67847 15.099365 40.112337
-2.359386 12.31373 41.899582
-1.916122 13.531491 42.379635
-2.299959 14.314125 41.274929
-5.189247 -4.860296 37.519215
-4.856426 -5.415862 38.52379
-4.974569 -3.222089 38.193376
-5.408421 -6.565114 36.849937
-5.189247 -4.860296 37.519215
-5.405987 -0.500561 36.769244
-5.057657 -1.058064 37.828299
-5.156254 1.107897 37.408741
-5.405987 -0.500561 36.769244
-5.760656 -0.011311 35.718319
-5.697888 8.031251 34.703822
-5.327195 7.476072 35.876667
-5.372366 9.575574 35.262647
-6.028505 6.413462 34.15395
-5.697888 8.031251 34.703822
-5.94612 4.284746 34.726862
-6.028505 6.413462 34.15395
4.006695 -23.350769 51.66605
3.796381 -24.689321 50.997956
3.777541 -21.384092 51.751487
4.006695 -23.350769 51.66605
3.55101 -19.394074 51.833442
3.355874 -20.749734 51.117569
3.777541 -21.384092 51.751487
3.738324 -18.032296 52.588172
3.785673 -16.672792 53.418003
3.316657 -17.397939 51.954254
3.55101 -19.394074 51.833442
3.738324 -18.032296 52.588172
2.932478 -5.118966 57.532474
3.081081 -7.136777 57.440449
2.932579 -5.728482 58.424247
2.925847 -4.523475 56.601464
2.932478 -5.118966 57.532474
2.777345 -3.115179 57.585262
2.650199 -0.526638 56.611469
2.658879 -1.107295 57.592434
2.640523 -1.904556 55.757546
2.650199 -0.526638 56.611469
2.520008 0.088494 55.714764
1.987866 5.299112 53.507851
2.060822 3.323791 53.726867
1.782676 5.941868 52.507549
1.987866 5.299112 53.507851
1.469595 6.629409 51.579255
1.521367 4.655073 51.864216
1.782676 5.941868 52.507549
1.182832 7.320539 50.581776
1.469595 6.629409 51.579255
0.669763 -25.001669 47.67677
1.293074 -25.619709 48.218102
1.103229 -23.61968 48.201214
0.669763 -25.001669 47.67677
0.062921 -24.41456 47.113854
-2.059395 -21.995397 44.570778
-2.200271 -19.881197 44.490059
-2.500707 -21.378873 43.852798
-1.600832 -22.574936 45.265675
-2.059395 -21.995397 44.570778
-1.901268 -24.072612 44.628414
-0.89839 -25.239815 45.945568
-0.530191 -23.788824 46.532775
-1.074505 -23.201159 45.910518
-0.89839 -25.239815 45.945568
-1.268946 -26.672343 45.378631
-4.367874 -14.231897 39.461836
-4.509445 -12.01585 39.272396
-4.664793 -13.694034 38.544901
-4.088768 -14.751937 40.349636
-4.367874 -14.231897 39.461836
3 0 27 26
3 100 29 101
3 1 32 30
3 2 35 33
3 4 38 36
3 4 40 38
3 5 43 41
3 5 45 43
3 5 47 45
3 6 102 103
3 6 104 106
3 104 48 105
3 104 105 106
3 6 50 48
3 3 53 51
3 7 107 108
3 7 109 110
3 8 56 54
3 10 57 28
3 10 58 57
3 111 59 112
3 12 113 115
3 113 60 114
3 113 114 115
3 12 61 60
3 12 116 118
3 118 117 61
3 116 117 118
3 13 64 62
3 119 65 120
3 121 120 31
3 119 120 121
3 123 122 65
3 125 124 66
3 15 70 68
3 17 71 34
3 17 72 71
3 9 73 55
3 18 74 37
3 18 75 74
3 18 76 75
3 19 77 39
3 19 78 77
3 126 79 127
3 20 128 130
3 128 80 129
3 128 129 130
3 20 81 80
3 11 131 133
3 131 82 132
3 131 132 133
3 21 83 42
3 21 84 83
3 21 85 84
3 22 86 44
3 22 87 86
3 22 134 136
3 136 135 87
3 134 135 136
3 138 137 46
3 23 139 140
3 23 141 143
3 141 88 142
3 141 142 143
3 23 89 88
3 24 90 49
3 24 91 90
3 144 92 145
3 146 93 147
3 148 94 149
3 150 149 93
3 148 149 150
3 151 95 152
3 153 152 94
3 151 152 153
3 16 96 69
3 25 97 52
3 25 154 156
3 156 155 97
3 154 155 156
3 14 98 63
3 157 99 158
3 160 159 99
3 162 161 67
3 26 163 164
3 27 165 167
3 167 166 26
3 165 166 167
3 27 168 170
3 168 7 169
3 168 169 170
3 171 28 172
3 173 172 8
3 171 172 173
3 29 174 176
3 174 28 175
3 174 175 176
3 29 10 28
3 177 12 178
3 180 179 12
3 30 31 13
3 32 31 30
3 32 181 183
3 183 182 31
3 181 182 183
3 33 34 15
3 35 34 33
3 35 17 34
3 36 37 9
3 38 37 36
3 38 18 37
3 38 39 18
3 40 39 38
3 40 19 39
3 184 20 185
3 41 42 11
3 43 42 41
3 43 21 42
3 43 44 21
3 45 44 43
3 45 22 44
3 45 46 22
3 47 46 45
3 47 186 188
3 188 187 46
3 186 187 188
3 48 189 190
3 48 191 193
3 191 23 192
3 191 192 193
3 48 49 23
3 50 49 48
3 50 24 49
3 51 52 16
3 53 52 51
3 53 25 52
3 195 194 14
3 54 55 2
3 56 55 54
3 56 9 55
3 28 56 8
3 57 56 28
3 57 9 56
3 57 36 9
3 58 36 57
3 58 4 36
3 59 196 197
3 59 198 200
3 198 11 199
3 198 199 200
3 201 59 202
3 60 203 205
3 203 59 204
3 203 204 205
3 60 11 59
3 60 41 11
3 61 41 60
3 61 5 41
3 61 206 208
3 208 207 5
3 206 207 208
3 210 209 61
3 212 211 12
3 213 6 214
3 216 215 6
3 62 63 3
3 64 63 62
3 64 14 63
3 31 64 13
3 65 64 31
3 65 14 64
3 65 217 219
3 219 218 14
3 217 218 219
3 221 220 65
3 66 67 1
3 222 67 223
3 224 223 66
3 222 223 224
3 226 225 67
3 68 69 0
3 70 69 68
3 70 16 69
3 34 70 15
3 71 70 34
3 71 16 70
3 71 51 16
3 72 51 71
3 72 3 51
3 55 35 2
3 73 35 55
3 73 17 35
3 37 73 9
3 74 73 37
3 74 17 73
3 74 72 17
3 75 72 74
3 75 3 72
3 75 62 3
3 76 62 75
3 76 13 62
3 39 76 18
3 77 76 39
3 77 13 76
3 77 30 13
3 78 30 77
3 78 1 30
3 227 29 228
3 227 228 229
3 79 230 232
3 230 29 231
3 230 231 232
3 79 10 29
3 233 79 234
3 80 235 237
3 235 79 236
3 235 236 237
3 80 10 79
3 80 58 10
3 81 58 80
3 81 4 58
3 82 238 239
3 82 240 242
3 240 20 241
3 240 241 242
3 42 82 11
3 83 82 42
3 83 20 82
3 83 81 20
3 84 81 83
3 84 4 81
3 84 40 4
3 85 40 84
3 85 19 40
3 44 85 21
3 86 85 44
3 86 19 85
3 86 78 19
3 87 78 86
3 87 1 78
3 87 66 1
3 243 66 244
3 245 244 87
3 243 244 245
3 247 246 66
3 46 248 250
3 250 249 22
3 248 249 250
3 252 251 46
3 253 47 254
3 255 254 5
3 253 254 255
3 256 47 257
3 259 258 47
3 260 26 261
3 262 26 263
3 264 0 265
3 266 265 26
3 264 265 266
3 88 267 268
3 88 269 271
3 269 0 270
3 269 270 271
3 88 68 0
3 89 68 88
3 89 15 68
3 49 89 23
3 90 89 49
3 90 15 89
3 90 33 15
3 91 33 90
3 91 2 33
3 272 50 273
3 274 273 6
3 272 273 274
3 92 275 277
3 275 50 276
3 275 276 277
3 92 24 50
3 278 92 279
3 93 280 282
3 280 92 281
3 280 281 282
3 93 24 92
3 93 91 24
3 94 91 93
3 94 2 91
3 94 54 2
3 95 54 94
3 95 8 54
3 283 95 284
3 285 95 286
3 287 8 288
3 289 288 95
3 287 288 289
3 291 290 8
3 69 27 0
3 96 27 69
3 96 7 27
3 52 96 16
3 97 96 52
3 97 7 96
3 97 292 294
3 294 293 7
3 292 293 294
3 296 295 97
3 63 53 3
3 98 53 63
3 98 25 53
3 297 98 298
3 299 298 14
3 297 298 299
3 99 300 302
3 300 98 301
3 300 301 302
3 99 25 98
3 99 303 305
3 305 304 25
3 303 304 305
3 307 306 99
3 67 32 1
3 308 32 309
3 310 309 67
3 308 309 310
3 312 311 32
