ply
format ascii 1.0
element vertex 349
property float x
property float y
property float z
element face 373
property list uchar int vertex_index
end_header
-21.638996 -104.221436 24.208786
-8.880409 -106.06105 39.195499
-14.256497 -107.14679 31.642313
-5.793194 -98.949203 40.993088
-13.397329 -99.353348 44.368782
-19.252331 -95.323669 36.48357
-3.12326 -106.666702 31.340057
-17.722828 -105.799225 27.33717
-13.947025 -111.467178 25.496651
-18.129524 -110.380005 21.71978
-22.765997 -108.977631 19.365032
-16.272814 -97.649872 40.310184
-17.517391 -91.955933 43.412331
-7.097744 -103.101166 40.791138
-5.109737 -102.861359 36.368122
-5.852997 -107.084015 35.701668
-11.285627 -107.406738 35.964355
-7.619226 -110.08815 33.454704
-10.386681 -111.531235 29.772507
-9.037951 -102.034332 44.504036
-11.539417 -103.423752 41.951065
-14.278686 -103.085556 38.02713
-17.269833 -101.473816 33.626919
-20.574678 -99.498322 29.95853
-22.437347 -93.439713 33.943855
-24.180958 -98.139542 28.030033
-4.988951 -97.965622 36.005394
-3.559452 -101.58287 31.34782
-19.630177 -104.982773 25.563988
-17.899279 -108.081558 24.437405
-19.989899 -107.340622 22.839212
-20.405678 -109.676727 20.321377
-22.177822 -106.637161 21.679955
-7.913792 -104.763962 40.199364
-6.628277 -105.104279 38.305603
-7.37159 -106.770615 37.556419
-12.706097 -107.456345 33.877777
-10.859877 -109.449509 32.884544
-12.397369 -109.537292 30.74548
-13.901736 -113.66774 22.566093
-11.848242 -113.827423 24.58017
-7.879774 -100.706329 45.182625
-8.529045 -100.02565 47.023865
-11.961603 -99.688919 46.143768
-11.201159 -101.485291 44.826294
-12.575977 -101.540527 43.169197
-12.879963 -103.45546 40.118271
-13.973102 -101.175385 41.22131
-17.740904 -96.49791 38.296413
-16.861559 -99.490555 36.943687
-18.379108 -98.398666 34.910385
-18.879982 -100.465576 31.62842
-19.962708 -97.320312 33.144241
-23.09338 -90.727921 36.440063
-24.095097 -92.931778 33.382942
-23.328394 -95.706589 30.878735
-5.037436 -96.104767 38.251751
-5.349787 -98.557831 38.547241
-4.207834 -104.767715 33.920929
-4.255182 -102.329483 33.916737
-3.209227 -104.178207 31.46735
-2.046143 -106.044098 28.885849
-6.8923 -112.127869 30.409962
-5.750971 -110.772491 31.874098
-15.929918 -106.559402 29.41058
-14.091192 -109.28244 28.52562
-15.928566 -108.76416 26.374954
-15.969252 -111.008026 23.480537
-16.112839 -113.239944 20.726675
-18.456909 -112.625931 19.169447
-20.90337 -111.906662 17.980646
-14.035182 -96.945694 45.623894
-14.830657 -98.642227 42.382042
-15.495035 -95.959152 43.677605
-16.95462 -94.777115 41.733185
-18.433212 -93.5327 39.924149
-6.405088 -101.137573 41.027531
-5.672529 -100.924072 38.715672
-6.077158 -103.131546 38.666687
-5.368052 -105.092896 36.209633
-4.411572 -107.033417 33.624393
-10.006359 -106.947357 37.768902
-8.328367 -108.071259 36.382866
-9.496641 -108.967682 34.801826
-8.89028 -111.012054 31.752338
-8.312862 -113.089874 28.631271
-12.080076 -111.666458 27.640547
-9.976055 -113.650131 26.645615
-6.282404 -99.112549 43.319771
-7.158045 -101.072556 43.185318
-8.105288 -102.741135 42.73465
-9.146513 -104.04834 41.899094
-9.850048 -100.978378 46.11908
-10.25783 -102.950821 43.428673
-10.293362 -104.942245 40.645782
-11.546213 -105.398758 38.992592
-12.899862 -105.428558 37.011848
-14.349496 -105.078125 34.821251
-15.397791 -100.458206 39.098358
-15.739241 -102.389557 35.811897
-15.894108 -104.427612 32.56794
-17.536484 -103.584641 30.41016
-19.279331 -102.673172 28.500217
-21.11903 -101.817566 26.970524
-19.94693 -92.363876 38.374954
-21.502432 -91.396713 37.189041
-20.818108 -94.264572 34.999184
-21.615801 -96.38739 31.769613
-22.34827 -98.693222 28.732674
-23.040075 -101.123657 25.922813
-23.723759 -103.602539 23.356108
-24.428219 -106.038818 21.025089
-5.012218 -100.461975 36.267044
-4.467737 -99.787277 33.709885
-6.601221 -108.76741 34.786377
-4.919916 -109.056732 32.952637
-3.371954 -108.980484 30.880222
-2.028347 -108.596146 28.594206
-12.835299 -114.826561 22.067967
-13.953511 -114.749725 21.146665
-8.097495 -99.024772 48.249523
-7.887467 -99.345467 47.293551
-12.679466 -99.521133 45.256275
-12.260566 -98.655502 46.794029
-12.978428 -98.487717 45.906536
-24.929707 -92.851967 33.361723
-24.398013 -91.670654 34.774379
-24.5857 -94.136612 31.95345
-24.929707 -92.851967 33.361723
-5.57149 -98.753517 39.770164
-5.28101 -97.585678 39.662588
-5.502714 -97.781364 40.885511
-5.927492 -112.468132 29.611565
-6.581183 -113.165657 28.832251
-23.089599 -110.061951 18.29272
-22.158285 -111.526466 17.600527
-21.834683 -110.442147 18.672839
-14.293214 -95.681198 46.314659
-13.540568 -96.155197 47.210276
-15.023141 -95.187927 45.341515
-14.765109 -96.452423 44.65075
-14.293214 -95.681198 46.314659
-17.236005 -93.366524 42.572758
-16.495349 -94.007667 43.452093
-16.776735 -92.597077 44.291666
-9.844226 -114.719596 25.081007
-10.912149 -113.738777 25.612893
-10.78032 -114.808243 24.048285
-8.921648 -114.4253 26.0485
-9.844226 -114.719596 25.081007
-6.530176 -99.068382 44.415953
-6.003182 -98.086593 44.442309
-6.967996 -100.048386 44.348726
-6.720225 -100.092553 43.252544
-6.530176 -99.068382 44.415953
-10.185683 -100.283562 46.86595
-9.467092 -100.003975 47.422045
-20.240526 -90.987885 39.471947
-19.479903 -91.534195 40.109905
-24.784853 -103.387306 23.202949
-24.36831 -102.13118 24.387887
-25.137083 -104.605446 22.03744
-24.075989 -104.820678 22.190599
-24.784853 -103.387306 23.202949
-4.968519 -96.70047 35.837
-4.992761 -95.770042 36.960178
-5.013193 -97.035194 37.128573
-4.863786 -97.584572 34.701746
-4.968519 -96.70047 35.837
-3.814538 -100.26239 31.214882
-4.268681 -99.364593 32.395915
-4.013594 -100.685074 32.528852
-3.305947 -101.129318 30.027849
-3.814538 -100.26239 31.214882
-4.453272 -110.053169 31.495401
-5.335444 -109.914612 32.413367
-4.868799 -110.911048 30.956132
-3.679291 -110.015045 30.459194
-4.145935 -109.018608 31.916429
-4.453272 -110.053169 31.495401
-1.552405 -109.595589 27.12874
-2.217949 -109.782501 28.274829
-1.484367 -108.284501 27.36855
-1.552405 -109.595589 27.12874
-17.026592 -91.270996 45.155727
-16.776735 -92.597077 44.291666
-11.808552 -114.906402 23.075005
-12.874989 -113.747581 23.573131
-12.835299 -114.826561 22.067967
-10.78032 -114.808243 24.048285
-11.808552 -114.906402 23.075005
-7.562832 -99.685806 46.372931
-7.328861 -99.865273 45.34738
-8.20441 -100.365989 46.103245
-7.562832 -99.685806 46.372931
-7.887467 -99.345467 47.293551
-11.511716 -98.795425 47.587978
-12.260566 -98.655502 46.794029
-11.241461 -99.638832 46.878294
-11.511716 -98.795425 47.587978
-11.581381 -100.587105 45.485031
-10.861239 -100.537018 46.219557
-11.241461 -99.638832 46.878294
-23.897154 -90.568726 36.30294
-23.369252 -89.507263 37.8041
-23.594238 -91.829849 34.911502
-23.897154 -90.568726 36.30294
-24.398013 -91.670654 34.774379
-24.202348 -95.524017 30.701346
-23.711745 -94.319183 32.130838
-24.5857 -94.136612 31.95345
-24.62863 -96.740494 29.276995
-23.754676 -96.923066 29.454384
-24.202348 -95.524017 30.701346
-5.124835 -96.359146 39.514843
-4.827562 -95.152382 39.354873
-5.193611 -97.331299 38.399496
-5.124835 -96.359146 39.514843
-5.28101 -97.585678 39.662588
-2.812692 -103.780654 30.180321
-2.987805 -102.482986 30.120556
-3.384339 -102.880539 31.407585
-2.23115 -104.7136 28.88957
-2.812692 -103.780654 30.180321
-2.627685 -105.111153 30.1766
-1.632657 -105.639412 27.601112
-2.23115 -104.7136 28.88957
-5.356828 -111.790443 30.343633
-6.321635 -111.45018 31.14203
-5.927492 -112.468132 29.611565
-4.868799 -110.911048 30.956132
-5.356828 -111.790443 30.343633
-15.059062 -114.535827 20.226957
-13.953511 -114.749725 21.146665
-15.007288 -113.453842 21.646384
-16.252522 -114.315467 19.409152
-15.059062 -114.535827 20.226957
-17.424557 -114.008461 18.630538
-16.252522 -114.315467 19.409152
-17.284874 -112.932937 19.948061
-18.677271 -113.681137 17.959305
-17.424557 -114.008461 18.630538
-19.900501 -113.321503 17.364905
-18.677271 -113.681137 17.959305
-19.680139 -112.266296 18.575046
-21.193739 -112.921936 16.873318
-19.900501 -113.321503 17.364905
-21.193739 -112.921936 16.873318
-22.158285 -111.526466 17.600527
-13.297355 -97.28389 46.534092
-13.540568 -96.155197 47.210276
-13.716255 -98.149521 44.996338
-12.978428 -98.487717 45.906536
-13.297355 -97.28389 46.534092
-15.765557 -94.598686 44.424303
-15.023141 -95.187927 45.341515
-16.224827 -95.368133 42.705395
-15.765557 -94.598686 44.424303
-16.495349 -94.007667 43.452093
-7.291465 -113.646659 27.942905
-6.581183 -113.165657 28.832251
-7.602581 -112.608871 29.520617
-8.090052 -114.145172 27.041328
-9.144459 -113.370002 27.638443
-8.921648 -114.4253 26.0485
-7.291465 -113.646659 27.942905
-8.090052 -114.145172 27.041328
-5.621633 -97.944198 42.10764
-5.502714 -97.781364 40.885511
-5.866238 -98.025871 43.270981
-6.003182 -98.086593 44.442309
-6.037799 -99.030876 42.15643
-5.621633 -97.944198 42.10764
-5.866238 -98.025871 43.270981
-7.51891 -100.889443 44.183971
-6.967996 -100.048386 44.348726
-7.328861 -99.865273 45.34738
-8.806591 -99.527611 47.874437
-8.097495 -99.024772 48.249523
-9.189546 -100.502014 46.571472
-8.806591 -99.527611 47.874437
-9.467092 -100.003975 47.422045
-10.525603 -101.231835 45.472687
-10.185683 -100.283562 46.86595
-10.861239 -100.537018 46.219557
-17.779902 -90.620888 44.384552
-17.026592 -91.270996 45.155727
-18.265133 -91.330224 42.628594
-17.779902 -90.620888 44.384552
-18.723044 -92.118607 40.884502
-17.975302 -92.744316 41.66824
-18.265133 -91.330224 42.628594
-19.190071 -92.948288 39.149552
-18.723044 -92.118607 40.884502
-19.479903 -91.534195 40.109905
-22.587639 -89.755646 38.050596
-22.863511 -88.534988 39.414633
-23.369252 -89.507263 37.8041
-21.792165 -90.090042 38.425085
-22.587639 -89.755646 38.050596
-22.297906 -91.062317 36.814552
-21.018277 -90.504303 38.87899
-21.792165 -90.090042 38.425085
-20.724681 -91.880295 37.781998
-20.240526 -90.987885 39.471947
-21.018277 -90.504303 38.87899
-25.110253 -98.008736 27.95814
-24.62863 -96.740494 29.276995
-25.557925 -96.609688 29.205103
-24.59691 -99.399681 26.724849
-25.110253 -98.008736 27.95814
-24.026468 -100.891739 25.671239
-23.610517 -99.631599 26.976423
-24.59691 -99.399681 26.724849
-23.381917 -102.363098 24.63946
-24.026468 -100.891739 25.671239
-24.36831 -102.13118 24.387887
-25.561992 -105.804665 20.962263
-25.137083 -104.605446 22.03744
-24.798273 -107.185318 19.961085
-25.561992 -105.804665 20.962263
-25.932046 -106.951165 19.898259
-23.967162 -108.654725 19.131056
-23.597108 -107.508225 20.195061
-24.798273 -107.185318 19.961085
-23.089599 -110.061951 18.29272
-23.967162 -108.654725 19.131056
-4.855247 -94.865021 38.074503
-4.827562 -95.152382 39.354873
-4.810572 -94.530296 36.78293
-4.855247 -94.865021 38.074503
-4.992761 -95.770042 36.960178
-4.603179 -98.4954 33.553991
-4.863786 -97.584572 34.701746
-4.728344 -98.87645 34.85764
-4.603179 -98.4954 33.553991
-4.268681 -99.364593 32.395915
-3.305947 -101.129318 30.027849
-2.987805 -102.482986 30.120556
-2.889753 -109.974671 29.417837
-3.679291 -110.015045 30.459194
-2.700151 -108.788315 29.737214
-2.889753 -109.974671 29.417837
-2.217949 -109.782501 28.274829
-1.493264 -107.008477 27.514372
-2.037245 -107.320122 28.740028
-1.484367 -108.284501 27.36855
-1.632657 -105.639412 27.601112
-1.493264 -107.008477 27.514372
3 0 30 28
3 0 32 30
3 1 35 33
3 2 38 36
3 119 118 39
3 120 42 121
3 4 122 124
3 122 43 123
3 122 123 124
3 4 45 43
3 4 47 45
3 5 50 48
3 5 52 50
3 125 54 126
3 128 127 54
3 3 129 131
3 129 57 130
3 129 130 131
3 6 60 58
3 6 61 60
3 133 132 62
3 7 66 64
3 9 67 29
3 9 68 67
3 9 69 68
3 10 70 31
3 10 134 136
3 136 135 70
3 134 135 136
3 137 71 138
3 139 73 140
3 141 140 71
3 139 140 141
3 12 142 144
3 142 74 143
3 142 143 144
3 12 75 74
3 13 78 76
3 15 79 34
3 15 80 79
3 16 83 81
3 18 84 37
3 18 85 84
3 8 86 65
3 145 87 146
3 147 146 40
3 145 146 147
3 149 148 87
3 150 88 151
3 152 89 153
3 154 153 88
3 152 153 154
3 19 90 41
3 19 91 90
3 155 92 156
3 20 93 44
3 20 94 93
3 20 95 94
3 21 96 46
3 21 97 96
3 11 98 72
3 22 99 49
3 22 100 99
3 22 101 100
3 23 102 51
3 23 103 102
3 157 104 158
3 24 105 53
3 24 106 105
3 24 107 106
3 25 108 55
3 25 109 108
3 159 110 160
3 161 111 162
3 163 162 110
3 161 162 163
3 26 164 166
3 166 165 56
3 164 165 166
3 26 167 168
3 14 112 77
3 27 113 59
3 27 169 171
3 171 170 113
3 169 170 171
3 27 172 173
3 17 114 82
3 174 115 175
3 176 175 63
3 174 175 176
3 177 116 178
3 179 178 115
3 177 178 179
3 180 117 181
3 183 182 117
3 28 29 7
3 30 29 28
3 30 9 29
3 30 31 9
3 32 31 30
3 32 10 31
3 184 12 185
3 33 34 13
3 35 34 33
3 35 15 34
3 36 37 16
3 38 37 36
3 38 18 37
3 39 40 8
3 186 40 187
3 188 187 39
3 186 187 188
3 190 189 40
3 191 41 192
3 42 193 195
3 193 41 194
3 193 194 195
3 42 19 41
3 43 196 197
3 43 198 199
3 43 200 202
3 200 44 201
3 200 201 202
3 45 44 43
3 45 20 44
3 45 46 20
3 47 46 45
3 47 21 46
3 48 49 11
3 50 49 48
3 50 22 49
3 50 51 22
3 52 51 50
3 52 23 51
3 203 53 204
3 54 205 207
3 205 53 206
3 205 206 207
3 54 24 53
3 54 55 24
3 208 55 209
3 210 209 54
3 208 209 210
3 211 25 212
3 213 212 55
3 211 212 213
3 214 56 215
3 57 216 218
3 216 56 217
3 216 217 218
3 57 26 56
3 58 59 14
3 60 59 58
3 60 27 59
3 60 219 221
3 221 220 27
3 219 220 221
3 61 222 224
3 224 223 60
3 222 223 224
3 61 225 226
3 62 63 17
3 227 63 228
3 229 228 62
3 227 228 229
3 231 230 63
3 64 65 2
3 66 65 64
3 66 8 65
3 29 66 7
3 67 66 29
3 67 8 66
3 67 39 8
3 68 39 67
3 68 232 234
3 234 233 39
3 232 233 234
3 68 235 236
3 69 237 239
3 239 238 68
3 237 238 239
3 69 240 241
3 31 69 9
3 70 69 31
3 70 242 244
3 244 243 69
3 242 243 244
3 70 245 246
3 248 247 70
3 71 249 250
3 71 251 253
3 251 4 252
3 251 252 253
3 71 72 4
3 73 72 71
3 73 11 72
3 254 73 255
3 74 256 258
3 256 73 257
3 256 257 258
3 74 11 73
3 74 48 11
3 75 48 74
3 75 5 48
3 76 77 3
3 78 77 76
3 78 14 77
3 34 78 13
3 79 78 34
3 79 14 78
3 79 58 14
3 80 58 79
3 80 6 58
3 81 82 1
3 83 82 81
3 83 17 82
3 37 83 16
3 84 83 37
3 84 17 83
3 84 62 17
3 85 62 84
3 85 259 261
3 261 260 62
3 259 260 261
3 65 38 2
3 86 38 65
3 86 18 38
3 40 86 8
3 87 86 40
3 87 18 86
3 87 85 18
3 262 85 263
3 264 263 87
3 262 263 264
3 266 265 85
3 267 3 268
3 88 269 270
3 88 271 273
3 271 3 272
3 271 272 273
3 88 76 3
3 89 76 88
3 89 13 76
3 41 274 276
3 274 89 275
3 274 275 276
3 90 89 41
3 90 13 89
3 90 33 13
3 91 33 90
3 91 1 33
3 277 42 278
3 92 279 281
3 279 42 280
3 279 280 281
3 92 19 42
3 44 282 284
3 282 92 283
3 282 283 284
3 93 92 44
3 93 19 92
3 93 91 19
3 94 91 93
3 94 1 91
3 94 81 1
3 95 81 94
3 95 16 81
3 46 95 20
3 96 95 46
3 96 16 95
3 96 36 16
3 97 36 96
3 97 2 36
3 72 47 4
3 98 47 72
3 98 21 47
3 49 98 11
3 99 98 49
3 99 21 98
3 99 97 21
3 100 97 99
3 100 2 97
3 100 64 2
3 101 64 100
3 101 7 64
3 51 101 22
3 102 101 51
3 102 7 101
3 102 28 7
3 103 28 102
3 103 0 28
3 285 12 286
3 287 12 288
3 289 75 290
3 291 290 12
3 289 290 291
3 104 292 294
3 292 75 293
3 292 293 294
3 104 5 75
3 53 295 297
3 295 296 297
3 105 298 300
3 300 299 53
3 298 299 300
3 105 301 302
3 105 303 305
3 303 104 304
3 303 304 305
3 106 104 105
3 106 5 104
3 106 52 5
3 107 52 106
3 107 23 52
3 55 107 24
3 108 107 55
3 108 23 107
3 108 103 23
3 109 103 108
3 109 0 103
3 306 25 307
3 306 307 308
3 309 25 310
3 311 109 312
3 313 312 25
3 311 312 313
3 110 314 316
3 314 109 315
3 314 315 316
3 110 0 109
3 110 32 0
3 111 32 110
3 111 10 32
3 317 111 318
3 319 111 320
3 319 320 321
3 322 10 323
3 324 323 111
3 322 323 324
3 326 325 10
3 56 327 328
3 331 330 56
3 329 330 331
3 77 57 3
3 112 57 77
3 112 26 57
3 59 112 14
3 113 112 59
3 113 26 112
3 113 332 334
3 334 333 26
3 332 333 334
3 336 335 113
3 338 337 27
3 82 35 1
3 114 35 82
3 114 15 35
3 63 114 17
3 115 114 63
3 115 15 114
3 115 80 15
3 116 80 115
3 116 6 80
3 339 116 340
3 117 341 343
3 341 116 342
3 341 342 343
3 117 6 116
3 117 61 6
3 344 61 345
3 346 345 117
3 344 345 346
3 348 347 61
