ply
format ascii 1.0
element vertex 755
property float x
property float y
property float z
element face 866
property list uchar int vertex_index
end_header
23.75021 80.80838 -17.770109
47.481964 55.660614 9.429482
46.587601 64.070152 -11.347015
33.691959 56.614212 -23.119101
40.666019 45.65435 -10.237114
43.255672 60.191452 17.780977
47.382755 49.420944 20.558455
37.077663 68.749542 15.412534
41.869514 66.840141 6.497102
15.905793 75.587906 -25.743494
29.884037 70.431129 -21.443853
51.473625 53.578568 -5.606697
47.220535 54.726784 -13.422504
53.383507 49.784485 3.517124
48.745644 38.519024 22.287096
37.203312 73.832993 -14.605633
47.873657 60.880127 -1.439663
41.794807 62.963242 -18.702749
41.055084 51.244164 -19.044291
41.702991 61.308571 21.643847
44.220554 56.571342 23.120121
38.646358 64.899513 20.517519
40.493336 64.984352 16.528133
19.773472 79.108261 -21.978067
22.845596 73.367645 -23.393942
27.030661 76.370193 -20.047514
49.964645 50.027313 -5.5121
12.87849 80.914307 -23.85359
50.653206 52.823265 6.016113
47.012798 45.967979 25.613358
48.406494 44.047676 21.701973
46.884094 40.516239 26.13467
46.340649 34.813583 26.035645
44.720909 61.353134 7.80862
44.720406 64.184715 2.237878
47.733593 58.43811 3.891124
50.848164 55.213806 0.796498
27.788845 59.200493 -24.671629
42.484344 69.252289 -13.130596
39.980633 68.870346 -17.06378
44.71077 64.217583 -15.493031
44.469658 50.284889 -12.244444
44.364254 53.565018 -16.51309
41.613773 48.615288 -15.16765
44.979881 58.199158 13.505424
47.392868 52.646004 15.071603
45.585632 54.836746 19.165779
46.113552 51.32003 24.539944
45.950821 47.698013 29.447199
35.686287 72.221146 9.826101
39.413681 68.479042 10.984397
42.386566 63.672859 12.174652
32.904449 71.628212 14.452335
25.542118 66.476395 -24.103373
32.148571 63.563736 -22.366899
49.567951 58.739067 -8.875736
47.92038 59.370064 -13.140818
49.58989 54.651321 -9.730436
47.265182 50.726288 -9.000563
30.832235 77.638504 -16.12137
39.425827 73.270241 -9.917042
43.937813 68.348541 -8.37896
44.584251 66.566444 -3.174877
47.571175 62.837631 -6.557182
50.523365 57.248726 -4.175072
52.783287 51.867645 -1.187019
33.953346 72.959206 -18.428919
36.409904 66.929779 -20.031752
37.972618 60.311935 -21.071066
45.483276 58.799431 -16.684042
42.227085 56.903214 -19.389647
38.362106 53.909767 -21.546289
37.473827 48.083733 -21.32102
40.263897 63.26564 21.018003
21.78117 80.194481 -19.942919
23.403234 77.829636 -20.988062
25.425289 78.788597 -19.041159
22.063915 82.462341 -16.207434
20.135534 82.173149 -18.591345
18.171263 81.411118 -20.837416
49.033916 54.270821 7.620022
50.424339 51.525711 8.702747
48.842583 52.882248 10.385209
46.563881 44.16798 27.93615
47.054077 43.264755 25.951427
46.344368 41.441864 28.136124
45.945705 38.656303 28.17531
46.10173 58.496719 8.569998
46.156059 59.948723 5.767693
47.599457 57.083847 6.636743
49.21418 55.597275 4.893744
30.838873 57.930626 -23.841757
28.713238 55.654694 -25.007967
31.546576 54.500702 -24.200903
34.119934 53.318192 -23.42993
44.680553 66.71032 -12.304174
43.739349 66.826241 -14.438482
45.773697 64.303749 -13.523983
42.603634 48.036148 -11.284437
43.049595 49.595665 -13.746052
41.26543 47.211983 -12.789064
44.051758 59.285179 15.655032
45.254967 56.539124 16.355444
44.472519 57.545998 18.461472
44.539112 54.739525 25.651318
45.269714 53.973038 23.857384
45.474571 52.15197 26.406628
46.147156 49.51564 27.056517
45.457153 50.321564 28.844654
36.364742 70.554695 12.657304
37.658752 70.482674 10.401423
38.245476 68.80204 13.216505
41.937489 62.696487 17.135395
41.416176 64.481979 14.381429
42.779198 61.959511 14.998921
43.708401 60.979111 12.813101
35.909973 68.310822 17.577768
33.801628 69.618546 17.157104
35.073292 70.262993 14.90416
34.284019 72.087715 12.127665
17.403851 72.392441 -26.240114
26.390392 71.974266 -22.345781
24.247452 70.02243 -23.799173
27.707726 68.604263 -22.782732
28.895721 65.069221 -23.146074
31.09568 67.060486 -21.939631
50.65213 56.132256 -7.331806
49.872063 56.67585 -9.504318
50.595505 54.216858 -7.710747
48.633774 50.501419 -7.280508
46.865776 48.640694 -6.548836
45.405853 48.749802 -8.154474
14.380997 78.441849 -24.969427
47.400711 51.061012 17.853722
48.273987 48.370178 18.598305
48.634762 41.317398 22.081242
49.487617 42.996387 19.855288
45.1637 32.878006 27.838999
40.186836 72.595657 -7.333649
41.80806 70.911186 -9.163982
42.375633 70.173134 -6.588022
40.288101 69.30368 5.886543
41.67717 68.25676 3.674017
46.293045 62.59259 0.3042
44.695259 65.439583 -0.488325
46.27409 63.750809 -2.357887
46.137569 64.773766 -4.971905
47.794388 61.931419 -4.02725
49.128208 60.025764 -5.446899
49.335655 59.08622 -2.948349
52.187668 52.47274 2.112988
52.050011 53.545815 -0.350225
53.178299 50.862328 1.128813
34.137535 75.827347 -15.345377
32.460945 75.498146 -17.374105
35.703808 73.599464 -16.633005
41.03437 65.985764 -17.993704
38.313961 68.096893 -18.658953
39.283657 64.992149 -19.403395
37.319633 63.63855 -20.617296
39.974327 61.795662 -19.966043
47.848846 57.020851 -13.480118
46.806335 59.250786 -15.017939
46.592804 56.74295 -15.220121
42.758698 52.531967 -17.833628
43.572968 55.216896 -18.132196
41.834946 54.010468 -19.344133
40.34824 55.519539 -20.505377
39.984276 52.564911 -20.45669
38.063454 50.928001 -21.527998
39.281555 49.747719 -20.19145
42.497871 60.875114 19.803398
43.763401 58.390656 20.494297
43.019272 59.047432 22.365921
37.842567 66.842842 18.05257
38.883751 67.004135 15.955522
39.571781 65.135139 18.575466
41.110725 63.143288 19.157965
17.793999 77.559502 -23.90288
19.325161 74.587433 -24.550306
21.346134 76.418159 -22.810884
24.950443 75.075882 -21.769686
28.52487 73.565216 -20.831259
52.046261 51.057182 -3.751574
51.034378 51.789078 -5.751032
16.232819 80.160736 -22.958174
52.167847 51.325691 4.642399
53.396786 48.642746 5.969716
52.006054 50.112526 7.22681
47.273506 47.722595 23.152279
47.998009 46.738068 21.181267
47.602875 45.034821 23.635769
47.712021 42.319275 23.984358
47.664051 39.548065 24.175926
47.55793 36.702671 24.199413
46.602646 37.701374 26.159897
45.500366 35.799255 28.068184
43.325466 64.162605 7.12748
43.236031 65.61544 4.317026
44.710564 62.817429 5.003382
46.237007 61.319458 3.012003
47.840256 59.709091 1.199312
49.400986 58.020561 -0.391914
49.349297 56.851738 2.221659
50.803993 54.055511 3.376315
24.644741 60.413124 -25.678141
25.72979 56.771042 -25.944307
39.991467 71.638611 -13.880539
38.687298 71.514198 -15.929674
41.37339 69.24659 -15.218395
42.526276 66.595421 -16.342276
43.383354 63.77552 -17.221487
46.061764 52.492554 -12.990051
45.853981 54.303963 -15.047789
44.635525 51.934845 -14.533268
43.139183 51.073418 -15.955599
41.578556 49.939369 -17.274729
39.967213 48.575226 -18.521833
40.163994 47.380447 -16.524488
46.115215 56.978485 11.408318
47.411415 54.179344 12.251036
46.213799 55.405891 14.260533
46.381416 53.785728 17.094807
46.568295 52.119667 19.874372
44.907078 55.773071 21.203627
45.900391 53.096077 21.903383
46.701454 50.406883 22.563757
46.703236 48.648895 25.135014
46.512276 46.854248 27.573023
46.100365 45.040459 29.879242
38.958893 70.057175 8.138597
40.607986 67.810783 8.733498
39.920174 66.778 13.790841
40.973419 66.196777 11.571612
42.090843 65.306976 9.334266
43.469826 62.611221 9.963493
44.800854 59.808296 10.647892
32.043686 73.494728 11.656511
20.78949 71.296936 -24.971518
22.168144 67.770897 -25.247889
26.72547 62.835365 -24.37702
29.945631 61.47847 -23.489244
33.023781 60.050667 -22.75773
48.214554 61.39534 -10.213362
47.472328 61.739021 -12.417162
48.836151 59.185318 -11.080431
48.939331 56.987099 -11.564869
48.464745 54.834641 -11.643148
49.912292 52.344902 -7.687168
48.702293 52.675423 -9.550917
47.417305 52.735413 -11.32498
45.874989 50.661659 -10.659872
43.983135 48.552231 -9.736996
48.971504 45.693344 19.28285
25.620995 80.975502 -15.441811
27.345013 79.293198 -16.935369
29.110023 79.37616 -14.652563
32.449871 77.654388 -13.867785
35.574879 75.775703 -13.102478
36.77108 75.405586 -10.666632
38.440037 73.703178 -12.356117
41.024174 71.418411 -11.611252
43.329369 68.934578 -10.834568
45.373108 66.295563 -9.982391
43.147884 66.955276 1.536165
43.006256 68.170631 -1.213892
42.762627 69.24942 -3.927542
44.344269 67.545631 -5.812847
45.848022 65.634361 -7.523504
47.17762 63.564949 -9.009121
48.760117 60.808647 -7.876961
50.127823 58.07885 -6.564802
51.278992 55.403275 -5.074032
50.760361 56.284683 -1.72031
51.746941 54.530327 -2.745548
52.209251 52.782555 -3.431257
29.012093 77.222939 -18.176916
30.572315 74.747337 -19.192026
31.992044 71.897446 -20.015638
37.108006 70.999115 -17.735979
35.278362 70.073387 -19.307768
33.250103 68.747559 -20.686472
34.329384 65.401077 -21.241358
35.208023 61.971947 -21.707701
35.855263 58.566238 -22.095934
46.512215 61.791801 -14.4433
45.316364 61.514122 -16.252768
43.877098 60.884232 -17.826136
45.16571 56.138367 -16.768686
43.950439 58.010071 -18.133043
42.207336 59.906502 -19.173231
40.341255 58.611259 -20.337831
38.330296 57.0467 -21.386751
36.235802 55.266792 -22.395426
36.323334 52.121704 -22.57757
36.119698 49.137619 -22.608183
38.326935 47.023857 -19.733564
46.134966 41.8921 29.134839
46.454125 42.804922 28.036137
46.244723 43.255157 29.034852
45.922365 40.515028 29.175781
46.134966 41.8921 29.134839
40.076791 45.170788 -11.013509
40.376497 45.949604 -12.289484
40.965725 46.433166 -11.513089
39.768555 44.34711 -9.740197
40.076791 45.170788 -11.013509
45.06176 52.526268 27.247986
45.006842 53.445747 26.028973
44.594031 53.820045 26.870331
45.053051 51.611065 28.466999
45.465862 51.236767 27.625641
45.06176 52.526268 27.247986
16.654822 73.990173 -25.991804
15.781337 72.822392 -26.877086
15.032308 74.420124 -26.628777
46.596019 47.528473 -5.31501
47.605739 48.449097 -5.739353
45.821092 47.664947 -6.06843
46.596019 47.528473 -5.31501
14.285916 75.944577 -26.312134
13.523519 77.371548 -25.9251
15.143395 77.014878 -25.35646
15.032308 74.420124 -26.628777
14.285916 75.944577 -26.312134
53.893215 48.451286 4.22855
53.75252 48.995819 3.086775
49.297398 39.381496 21.275799
49.241957 40.780683 21.172873
48.690203 39.918211 22.184169
49.430642 37.965681 21.377778
49.297398 39.381496 21.275799
48.788788 37.079876 22.293583
49.430642 37.965681 21.377778
45.127638 31.402727 27.678552
44.635219 31.901787 28.746608
40.471336 72.163025 -5.992799
39.351349 73.282353 -6.35414
41.565735 70.951763 -5.619986
41.281234 71.384396 -6.960835
40.471336 72.163025 -5.992799
53.75252 48.995819 3.086775
53.649916 49.53474 1.89262
53.280903 50.323406 2.322968
37.726742 65.589672 20.310386
38.200576 64.56984 21.464835
38.244462 65.871178 19.285044
37.324846 66.561337 19.077912
37.726742 65.589672 20.310386
51.638489 50.20546 -3.725847
52.22089 49.794124 -2.795571
51.072365 50.180683 9.272502
50.282522 50.846276 10.056667
45.224245 36.281626 29.10553
45.723035 37.227779 28.121747
45.446914 37.710149 29.159093
44.963564 34.834055 29.006225
45.224245 36.281626 29.10553
27.702258 54.451614 -25.637604
29.092278 53.95393 -25.188967
36.391458 72.121731 8.682983
35.346541 72.978722 8.385589
32.240516 71.247177 15.635292
32.689105 70.242344 16.987676
33.353038 70.623379 15.80472
31.767795 72.290188 14.271448
32.240516 71.247177 15.635292
32.474068 72.56147 13.054423
31.337413 73.223446 12.873536
31.767795 72.290188 14.271448
34.598564 72.990818 9.552366
33.89743 72.924103 10.703148
34.985153 72.154431 10.976883
35.346541 72.978722 8.385589
34.598564 72.990818 9.552366
24.498287 65.292812 -24.781952
22.8113 65.940064 -25.35421
23.855131 67.123646 -24.675631
26.133794 64.65588 -24.240197
25.089963 63.472297 -24.918776
24.498287 65.292812 -24.781952
43.645617 47.608483 -8.430454
44.694494 48.651016 -8.945735
44.356976 47.707268 -7.639194
42.960111 47.436138 -9.207595
43.645617 47.608483 -8.430454
11.343203 81.096497 -24.219864
12.168546 81.956406 -23.104377
53.924349 47.307106 6.62474
53.310076 48.040619 7.217397
48.025984 52.041405 14.116704
48.035258 52.808075 12.706421
47.402141 53.412674 13.661319
49.851636 43.789049 18.675402
50.159298 42.432418 18.983913
46.928126 34.299499 25.046078
47.536766 35.244044 24.127962
46.949289 35.758127 25.117529
28.229608 80.064885 -13.803481
27.365509 80.175831 -15.047187
26.485093 80.864555 -14.198105
33.149051 77.494113 -12.647089
31.569411 78.376972 -13.030983
34.711556 76.554771 -12.264436
34.012375 76.715046 -13.485131
33.149051 77.494113 -12.647089
38.098453 74.337913 -10.291837
37.256839 75.094814 -9.371323
38.584213 74.027141 -8.996528
52.850939 51.031056 -1.437566
52.563921 51.488511 -2.559684
52.496269 52.3251 -2.309138
26.485093 80.864555 -14.198105
24.761691 81.651741 -14.561582
36.573017 47.181515 -21.894085
35.895952 47.708458 -22.537667
36.796762 48.610676 -21.964602
38.517414 46.478733 -18.78705
39.147074 47.799542 -19.127699
39.337553 47.254418 -18.181185
41.930646 60.414059 22.814639
41.277566 61.400696 22.431124
39.847641 63.146301 21.861815
39.455128 64.082577 20.767761
39.038871 63.963237 21.611573
40.55802 62.37923 22.118202
39.847641 63.146301 21.861815
41.277566 61.400696 22.431124
40.983444 62.287105 21.330925
40.55802 62.37923 22.118202
39.038871 63.963237 21.611573
38.200576 64.56984 21.464835
20.29748 83.134349 -16.559162
21.248441 83.138431 -15.274815
19.333289 82.989754 -17.751118
20.29748 83.134349 -16.559162
21.099725 82.317745 -17.399389
18.367311 82.755981 -18.971252
19.333289 82.989754 -17.751118
19.153399 81.792134 -19.714381
17.385176 82.374966 -20.094288
18.367311 82.755981 -18.971252
49.491644 51.524544 10.897898
50.282522 50.846276 10.056667
49.633461 52.20398 9.543978
45.723033 39.122248 29.195374
46.145037 40.049084 28.155717
45.922365 40.515028 29.175781
45.446914 37.710149 29.159093
45.723033 39.122248 29.195374
30.508947 53.376934 -24.785435
29.092278 53.95393 -25.188967
30.129907 55.077698 -24.604435
31.792593 52.866009 -24.366333
30.508947 53.376934 -24.785435
33.079272 52.274754 -23.980846
31.792593 52.866009 -24.366333
32.833255 53.909447 -23.815416
34.203083 51.753792 -23.538969
33.079272 52.274754 -23.980846
40.61426 46.660274 -13.520353
40.788431 47.361927 -14.709646
41.439602 47.913635 -13.978357
40.61426 46.660274 -13.520353
40.376497 45.949604 -12.289484
34.855801 68.964684 17.367436
34.282835 68.560055 18.448929
35.337007 67.906193 18.659261
16.516652 71.144936 -27.067366
15.781337 72.822392 -26.877086
18.123531 70.659397 -26.389539
16.516652 71.144936 -27.067366
48.489739 49.379459 -6.105189
49.29921 50.264366 -6.396304
49.155174 49.142406 -5.220986
47.749775 49.571056 -6.914672
48.489739 49.379459 -6.105189
47.605739 48.449097 -5.739353
45.091131 47.719501 -6.871249
46.135814 48.695248 -7.351655
45.821092 47.664947 -6.06843
44.356976 47.707268 -7.639194
45.091131 47.719501 -6.871249
12.788772 78.713986 -25.445839
12.037519 79.950214 -24.88792
13.629744 79.678078 -24.411509
12.788772 78.713986 -25.445839
13.523519 77.371548 -25.9251
47.939926 50.497681 16.883336
47.936004 51.290177 15.492276
47.396789 51.853508 16.462663
48.376564 49.152264 17.255627
47.939926 50.497681 16.883336
47.837349 49.715595 18.226014
48.852047 47.813687 17.669373
48.376564 49.152264 17.255627
49.668385 41.620178 20.059896
49.061189 42.156892 20.968265
49.241957 40.780683 21.172873
50.159298 42.432418 18.983913
49.668385 41.620178 20.059896
45.702707 32.37447 26.80987
46.291182 33.342258 25.908193
45.752174 33.845794 26.937322
45.702707 32.37447 26.80987
45.127638 31.402727 27.678552
38.964717 73.68985 -7.704832
39.351349 73.282353 -6.35414
39.806331 72.932949 -8.625345
38.584213 74.027141 -8.996528
38.964717 73.68985 -7.704832
40.127155 69.984966 4.464474
39.402985 70.401084 5.580011
40.821689 69.461506 3.358212
40.127155 69.984966 4.464474
40.982636 68.78022 4.78028
41.568687 68.902355 2.272076
40.821689 69.461506 3.358212
53.399037 50.04945 0.787428
53.201531 50.552109 -0.370488
52.980793 51.364987 -0.029103
53.399037 50.04945 0.787428
53.649916 49.53474 1.89262
42.588787 59.28349 23.175677
42.361131 60.178002 22.004884
41.930646 60.414059 22.814639
43.213915 58.136226 23.596417
42.588787 59.28349 23.175677
43.814556 56.898181 23.973517
43.619913 57.809387 22.743021
43.213915 58.136226 23.596417
43.973835 55.982273 25.239115
44.379833 55.655434 24.38572
43.814556 56.898181 23.973517
44.066255 55.070687 26.429856
43.973835 55.982273 25.239115
44.594031 53.820045 26.870331
44.066255 55.070687 26.429856
36.358549 67.295327 18.840511
35.337007 67.906193 18.659261
36.87627 67.576832 17.815169
36.358549 67.295327 18.840511
37.324846 66.561337 19.077912
51.132548 50.571408 -4.725575
51.540319 51.42313 -4.751303
51.638489 50.20546 -3.725847
50.597681 49.690525 -4.60611
50.499511 50.908196 -5.631566
51.132548 50.571408 -4.725575
49.890338 48.837333 -4.405748
50.597681 49.690525 -4.60611
49.155174 49.142406 -5.220986
49.890338 48.837333 -4.405748
13.787076 81.645008 -22.758823
12.168546 81.956406 -23.104377
16.433463 81.893414 -21.250737
17.385176 82.374966 -20.094288
15.464241 81.268223 -22.311115
16.433463 81.893414 -21.250737
17.202041 80.785927 -21.897795
14.555654 80.537521 -23.405882
13.787076 81.645008 -22.758823
15.464241 81.268223 -22.311115
52.61471 48.775509 7.845944
53.310076 48.040619 7.217397
52.70142 49.377636 6.598263
51.863222 49.474091 8.534533
51.215197 50.819119 7.964779
51.072365 50.180683 9.272502
52.61471 48.775509 7.845944
51.863222 49.474091 8.534533
44.795231 33.37343 28.891633
45.332033 34.338631 27.953592
44.963564 34.834055 29.006225
44.635219 31.901787 28.746608
44.795231 33.37343 28.891633
23.669444 59.127987 -26.36777
23.068886 60.98468 -26.277771
24.211969 57.306946 -26.500853
23.669444 59.127987 -26.36777
25.187266 58.592083 -25.811224
24.766312 55.493199 -26.62055
24.211969 57.306946 -26.500853
26.210534 55.009788 -26.105774
27.221514 56.212868 -25.476137
27.702258 54.451614 -25.637604
24.766312 55.493199 -26.62055
26.210534 55.009788 -26.105774
39.435944 46.657028 -17.182512
39.337553 47.254418 -18.181185
40.065604 47.977836 -17.523161
40.063541 46.744506 -15.388065
40.888884 47.997867 -15.846069
40.788431 47.361927 -14.709646
39.428154 46.072904 -16.103251
40.063541 46.744506 -15.388065
39.435944 46.657028 -17.182512
39.428154 46.072904 -16.103251
46.012964 43.691397 30.006398
46.244723 43.255157 29.034852
46.332123 44.604219 28.907696
37.377691 71.252495 8.970644
36.391458 72.121731 8.682983
36.672519 71.35191 10.113762
38.027761 71.039746 7.839231
37.377691 71.252495 8.970644
38.308823 70.269925 9.27001
38.738381 70.777832 6.706038
38.027761 71.039746 7.839231
39.623497 69.680428 7.01257
39.402985 70.401084 5.580011
38.738381 70.777832 6.706038
33.19113 69.137852 18.300393
34.282835 68.560055 18.448929
33.19113 69.137852 18.300393
32.689105 70.242344 16.987676
30.875058 74.191056 11.467594
31.337413 73.223446 12.873536
31.611782 74.349446 10.223723
30.875058 74.191056 11.467594
32.777264 73.627609 10.467571
33.163853 72.791222 11.892088
33.89743 72.924103 10.703148
31.611782 74.349446 10.223723
32.777264 73.627609 10.467571
19.816351 70.111645 -25.755242
18.123531 70.659397 -26.389539
19.096671 71.844689 -25.605816
20.505678 68.348625 -25.893427
19.816351 70.111645 -25.755242
21.478817 69.533917 -25.109704
21.188141 66.526139 -25.986451
20.505678 68.348625 -25.893427
21.188141 66.526139 -25.986451
22.8113 65.940064 -25.35421
24.049599 62.261177 -25.569336
23.068886 60.98468 -26.277771
25.685105 61.624245 -25.02758
24.049599 62.261177 -25.569336
25.089963 63.472297 -24.918776
42.270361 47.178096 -9.981316
43.293385 48.29419 -10.510717
42.960111 47.436138 -9.207595
41.301553 45.987198 -9.457654
41.634827 46.845249 -10.760776
42.270361 47.178096 -9.981316
40.309841 44.760519 -8.930601
41.301553 45.987198 -9.457654
11.343203 81.096497 -24.219864
12.037519 79.950214 -24.88792
53.899855 47.880417 5.454846
53.893215 48.451286 4.22855
53.390147 49.213616 4.74342
53.899855 47.880417 5.454846
53.924349 47.307106 6.62474
48.750841 52.159527 11.773507
48.126999 53.530796 11.318122
48.035258 52.808075 12.706421
49.491644 51.524544 10.897898
48.750841 52.159527 11.773507
48.025984 52.041405 14.116704
47.936004 51.290177 15.492276
49.200806 46.47527 18.011645
48.852047 47.813687 17.669373
48.622746 47.031761 18.940577
49.59358 45.137528 18.389183
49.229561 44.344865 19.569069
49.851636 43.789049 18.675402
49.200806 46.47527 18.011645
49.59358 45.137528 18.389183
48.194931 36.1717 23.249741
48.788788 37.079876 22.293583
48.151787 37.610848 23.243254
48.194931 36.1717 23.249741
47.536766 35.244044 24.127962
46.928126 34.299499 25.046078
46.291182 33.342258 25.908193
29.899487 79.237858 -13.423372
28.229608 80.064885 -13.803481
30.779947 78.515274 -14.260174
29.899487 79.237858 -13.423372
31.569411 78.376972 -13.030983
35.901161 76.077575 -9.746476
37.256839 75.094814 -9.371323
35.309656 76.369712 -11.046513
35.901161 76.077575 -9.746476
36.172979 75.590644 -11.884555
34.711556 76.554771 -12.264436
35.309656 76.369712 -11.046513
42.304045 68.251613 1.203151
41.568687 68.902355 2.272076
42.412527 67.606018 2.605091
42.233231 68.859291 -0.171878
42.304045 68.251613 1.203151
43.07707 67.562953 0.161137
42.086975 69.439544 -1.561577
42.233231 68.859291 -0.171878
41.96516 69.978939 -2.918402
42.086975 69.439544 -1.561577
42.884442 68.710026 -2.570717
41.759231 70.489906 -4.289746
41.96516 69.978939 -2.918402
42.56913 69.711277 -5.257782
41.565735 70.951763 -5.619986
41.759231 70.489906 -4.289746
52.482426 50.625824 -2.719843
52.127756 51.919868 -3.591416
52.563921 51.488511 -2.559684
52.22089 49.794124 -2.795571
52.482426 50.625824 -2.719843
52.850939 51.031056 -1.437566
53.201531 50.552109 -0.370488
22.983151 82.395161 -14.944394
21.248441 83.138431 -15.274815
23.842455 81.718921 -15.824623
22.983151 82.395161 -14.944394
24.761691 81.651741 -14.561582
44.984775 50.695321 29.642301
45.053051 51.611065 28.466999
44.580674 51.984821 29.264646
45.323028 49.41198 30.010065
44.984775 50.695321 29.642301
45.569862 48.100205 30.311338
45.703987 49.009788 29.145927
45.323028 49.41198 30.010065
45.732597 46.794026 30.584428
45.569862 48.100205 30.311338
45.807369 45.465249 30.800449
46.025593 46.369236 29.663221
45.732597 46.794026 30.584428
45.790535 44.13593 30.97611
45.807369 45.465249 30.800449
46.012964 43.691397 30.006398
45.790535 44.13593 30.97611
35.304783 51.155548 -23.112789
34.203083 51.753792 -23.538969
35.221634 52.719948 -23.00375
35.202965 49.663505 -23.128096
35.304783 51.155548 -23.112789
36.221516 50.629661 -22.592877
35.160101 48.176102 -23.167995
35.202965 49.663505 -23.128096
35.160101 48.176102 -23.167995
35.895952 47.708458 -22.537667
37.793691 45.668377 -19.437735
38.517414 46.478733 -18.78705
37.506792 46.17118 -20.338013
37.793691 45.668377 -19.437735
37.080238 46.701118 -21.13174
37.900381 47.553795 -20.527292
37.506792 46.17118 -20.338013
36.573017 47.181515 -21.894085
37.080238 46.701118 -21.13174
39.768555 44.34711 -9.740197
40.309841 44.760519 -8.930601
3 0 76 74
3 0 78 77
3 0 74 78
3 1 82 80
3 297 85 298
3 299 298 83
3 297 298 299
3 301 300 85
3 1 89 87
3 1 80 89
3 3 93 91
3 3 94 93
3 2 97 95
3 4 100 98
3 4 302 304
3 304 303 100
3 302 303 304
3 4 305 306
3 5 103 101
3 307 106 308
3 309 308 104
3 307 308 309
3 310 108 311
3 312 311 106
3 310 311 312
3 7 111 109
3 5 114 112
3 5 101 114
3 7 118 116
3 7 109 118
3 9 313 315
3 313 120 314
3 313 314 315
3 10 123 121
3 10 125 123
3 11 128 126
3 316 130 317
3 319 318 130
3 9 320 322
3 322 321 132
3 320 321 322
3 9 323 324
3 13 325 326
3 6 134 133
3 14 327 329
3 329 328 135
3 327 328 329
3 14 330 331
3 14 332 333
3 335 334 137
3 336 138 337
3 338 140 339
3 340 339 138
3 338 339 340
3 8 142 141
3 16 145 143
3 16 147 145
3 16 149 147
3 13 152 150
3 13 341 343
3 343 342 152
3 341 342 343
3 15 155 153
3 17 158 156
3 17 160 158
3 12 163 161
3 18 166 164
3 18 168 166
3 18 170 168
3 19 173 171
3 21 176 174
3 19 177 73
3 19 171 177
3 21 344 345
3 21 346 348
3 346 174 347
3 346 347 348
3 23 180 178
3 25 181 75
3 25 182 181
3 350 349 183
3 23 185 79
3 23 178 185
3 28 188 186
3 352 351 81
3 29 191 189
3 31 192 84
3 31 193 192
3 31 195 193
3 353 196 354
3 355 354 86
3 353 354 355
3 357 356 196
3 33 199 197
3 35 200 88
3 35 201 200
3 35 203 201
3 28 204 90
3 28 186 204
3 37 206 205
3 359 358 92
3 38 209 207
3 40 210 96
3 40 211 210
3 41 214 212
3 43 215 99
3 43 216 215
3 43 218 216
3 44 221 219
3 46 222 102
3 46 223 222
3 20 224 172
3 47 225 105
3 47 226 225
3 47 227 226
3 48 228 107
3 48 229 228
3 49 360 361
3 50 230 110
3 50 231 230
3 22 232 175
3 51 233 113
3 51 234 233
3 51 235 234
3 44 236 115
3 44 219 236
3 52 362 364
3 364 363 117
3 362 363 364
3 52 365 366
3 52 367 369
3 367 237 368
3 367 368 369
3 49 370 372
3 372 371 119
3 370 371 372
3 49 373 374
3 24 238 179
3 53 239 122
3 53 375 377
3 377 376 239
3 375 376 377
3 53 378 380
3 378 240 379
3 378 379 380
3 54 241 124
3 54 242 241
3 55 245 243
3 57 246 127
3 57 247 246
3 26 248 184
3 58 249 129
3 58 250 249
3 58 251 250
3 381 252 382
3 383 382 131
3 381 382 383
3 385 384 252
3 27 386 387
3 389 388 187
3 45 390 392
3 392 391 220
3 390 391 392
3 30 253 190
3 394 393 136
3 32 395 397
3 397 396 194
3 395 396 397
3 398 256 399
3 400 399 254
3 398 399 400
3 401 257 402
3 403 258 404
3 405 404 257
3 403 404 405
3 60 406 408
3 406 259 407
3 406 407 408
3 60 260 259
3 60 261 260
3 61 262 139
3 61 263 262
3 34 264 198
3 62 265 144
3 62 266 265
3 62 267 266
3 63 268 146
3 63 269 268
3 63 270 269
3 64 271 148
3 64 272 271
3 36 273 202
3 65 274 151
3 65 275 274
3 65 409 411
3 411 410 275
3 409 410 411
3 412 254 413
3 59 276 255
3 66 277 154
3 66 278 277
3 39 279 208
3 67 280 157
3 67 281 280
3 67 282 281
3 68 283 159
3 68 284 283
3 56 285 244
3 69 286 162
3 69 287 286
3 42 288 213
3 70 289 165
3 70 290 289
3 70 291 290
3 71 292 167
3 71 293 292
3 71 294 293
3 72 295 169
3 72 414 416
3 416 415 295
3 414 415 416
3 417 296 418
3 419 418 217
3 417 418 419
3 421 420 19
3 422 73 423
3 424 423 21
3 422 423 424
3 425 73 426
3 427 19 428
3 429 428 73
3 427 428 429
3 430 21 431
3 74 75 23
3 76 75 74
3 76 25 75
3 77 432 433
3 78 434 436
3 436 435 77
3 434 435 436
3 78 437 438
3 78 439 441
3 439 79 440
3 439 440 441
3 74 79 78
3 74 23 79
3 80 81 28
3 82 81 80
3 82 442 444
3 444 443 81
3 442 443 444
3 83 84 29
3 85 84 83
3 85 31 84
3 85 86 31
3 445 86 446
3 447 446 85
3 445 446 447
3 449 448 86
3 87 88 33
3 89 88 87
3 89 35 88
3 89 90 35
3 80 90 89
3 80 28 90
3 91 92 37
3 93 92 91
3 93 450 452
3 452 451 92
3 450 451 452
3 93 453 454
3 94 455 457
3 457 456 93
3 455 456 457
3 94 458 459
3 95 96 38
3 97 96 95
3 97 40 96
3 98 99 41
3 100 99 98
3 100 43 99
3 100 460 462
3 462 461 43
3 460 461 462
3 464 463 100
3 101 102 44
3 103 102 101
3 103 46 102
3 104 105 20
3 106 105 104
3 106 47 105
3 106 107 47
3 108 107 106
3 108 48 107
3 109 110 49
3 111 110 109
3 111 50 110
3 112 113 22
3 114 113 112
3 114 51 113
3 114 115 51
3 101 115 114
3 101 44 115
3 116 465 467
3 465 117 466
3 465 466 467
3 118 117 116
3 118 52 117
3 118 119 52
3 109 119 118
3 109 49 119
3 120 468 469
3 120 470 471
3 121 122 24
3 123 122 121
3 123 53 122
3 123 124 53
3 125 124 123
3 125 54 124
3 126 127 55
3 128 127 126
3 128 57 127
3 472 129 473
3 474 473 26
3 472 473 474
3 130 475 477
3 475 129 476
3 475 476 477
3 130 58 129
3 130 131 58
3 478 131 479
3 480 479 130
3 478 479 480
3 482 481 131
3 132 483 485
3 485 484 27
3 483 484 485
3 487 486 132
3 133 488 490
3 490 489 45
3 488 489 490
3 134 491 493
3 493 492 133
3 491 492 493
3 134 494 495
3 135 136 30
3 496 136 497
3 498 497 135
3 496 497 498
3 500 499 136
3 137 501 503
3 503 502 32
3 501 502 503
3 505 504 137
3 138 506 507
3 138 508 510
3 508 60 509
3 508 509 510
3 138 139 60
3 140 139 138
3 140 61 139
3 141 511 512
3 142 513 515
3 515 514 141
3 513 514 515
3 142 516 517
3 143 144 34
3 145 144 143
3 145 62 144
3 145 146 62
3 147 146 145
3 147 63 146
3 147 148 63
3 149 148 147
3 149 64 148
3 150 151 36
3 152 151 150
3 152 65 151
3 152 518 520
3 520 519 65
3 518 519 520
3 522 521 152
3 153 154 59
3 155 154 153
3 155 66 154
3 156 157 39
3 158 157 156
3 158 67 157
3 158 159 67
3 160 159 158
3 160 68 159
3 161 162 56
3 163 162 161
3 163 69 162
3 164 165 42
3 166 165 164
3 166 70 165
3 166 167 70
3 168 167 166
3 168 71 167
3 168 169 71
3 170 169 168
3 170 72 169
3 171 172 5
3 173 172 171
3 173 20 172
3 523 173 524
3 525 524 19
3 523 524 525
3 526 173 527
3 528 20 529
3 530 529 173
3 528 529 530
3 531 104 532
3 533 532 20
3 531 532 533
3 534 104 535
3 537 536 104
3 174 175 7
3 176 175 174
3 176 22 175
3 73 176 21
3 177 176 73
3 177 22 176
3 177 112 22
3 171 112 177
3 171 5 112
3 538 116 539
3 174 540 542
3 540 116 541
3 540 541 542
3 174 7 116
3 178 179 9
3 180 179 178
3 180 24 179
3 75 180 23
3 181 180 75
3 181 24 180
3 181 121 24
3 182 121 181
3 182 10 121
3 183 184 11
3 543 184 544
3 545 544 183
3 543 544 545
3 546 26 547
3 548 547 184
3 546 547 548
3 549 26 550
3 552 551 26
3 553 27 554
3 79 555 556
3 185 557 559
3 559 558 79
3 557 558 559
3 185 560 562
3 560 27 561
3 560 561 562
3 185 132 27
3 178 132 185
3 178 9 132
3 186 187 13
3 188 187 186
3 188 563 565
3 565 564 187
3 563 564 565
3 81 188 28
3 566 188 567
3 568 567 81
3 566 567 568
3 570 569 188
3 189 190 6
3 191 190 189
3 191 30 190
3 84 191 29
3 192 191 84
3 192 30 191
3 192 135 30
3 193 135 192
3 193 14 135
3 193 194 14
3 195 194 193
3 195 32 194
3 86 195 31
3 196 195 86
3 196 32 195
3 196 137 32
3 571 137 572
3 573 572 196
3 571 572 573
3 575 574 137
3 197 198 8
3 199 198 197
3 199 34 198
3 88 199 33
3 200 199 88
3 200 34 199
3 200 143 34
3 201 143 200
3 201 16 143
3 201 202 16
3 203 202 201
3 203 36 202
3 90 203 35
3 204 203 90
3 204 36 203
3 204 150 36
3 186 150 204
3 186 13 150
3 205 576 577
3 206 578 580
3 580 579 205
3 578 579 580
3 206 581 582
3 92 206 37
3 583 206 584
3 585 584 92
3 583 584 585
3 587 586 206
3 207 208 15
3 209 208 207
3 209 39 208
3 96 209 38
3 210 209 96
3 210 39 209
3 210 156 39
3 211 156 210
3 211 17 156
3 212 213 12
3 214 213 212
3 214 42 213
3 99 214 41
3 215 214 99
3 215 42 214
3 215 164 42
3 216 164 215
3 216 18 164
3 216 217 18
3 218 217 216
3 218 588 590
3 590 589 217
3 588 589 590
3 591 218 592
3 593 592 43
3 591 592 593
3 594 218 595
3 597 596 218
3 219 220 1
3 221 220 219
3 221 45 220
3 102 221 44
3 222 221 102
3 222 45 221
3 222 133 45
3 223 133 222
3 223 6 133
3 172 103 5
3 224 103 172
3 224 46 103
3 105 224 20
3 225 224 105
3 225 46 224
3 225 223 46
3 226 223 225
3 226 6 223
3 226 189 6
3 227 189 226
3 227 29 189
3 107 227 47
3 228 227 107
3 228 29 227
3 228 83 29
3 229 83 228
3 229 598 600
3 600 599 83
3 598 599 600
3 110 601 603
3 603 602 49
3 601 602 603
3 230 604 606
3 606 605 110
3 604 605 606
3 230 607 608
3 230 609 611
3 609 141 610
3 609 610 611
3 231 141 230
3 231 8 141
3 175 111 7
3 232 111 175
3 232 50 111
3 113 232 22
3 233 232 113
3 233 50 232
3 233 231 50
3 234 231 233
3 234 8 231
3 234 197 8
3 235 197 234
3 235 33 197
3 115 235 51
3 236 235 115
3 236 33 235
3 236 87 33
3 219 87 236
3 219 1 87
3 117 612 613
3 615 614 117
3 237 616 617
3 237 618 619
3 119 237 52
3 620 237 621
3 622 621 119
3 620 621 622
3 624 623 237
3 179 120 9
3 238 120 179
3 238 625 627
3 627 626 120
3 625 626 627
3 122 238 24
3 239 238 122
3 239 628 630
3 630 629 238
3 628 629 630
3 239 631 632
3 634 633 239
3 635 205 636
3 240 637 639
3 637 205 638
3 637 638 639
3 240 37 205
3 124 240 53
3 241 240 124
3 241 37 240
3 241 91 37
3 242 91 241
3 242 3 91
3 243 244 2
3 245 244 243
3 245 56 244
3 127 245 55
3 246 245 127
3 246 56 245
3 246 161 56
3 247 161 246
3 247 12 161
3 184 128 11
3 248 128 184
3 248 57 128
3 129 248 26
3 249 248 129
3 249 57 248
3 249 247 57
3 250 247 249
3 250 12 247
3 250 212 12
3 251 212 250
3 251 41 212
3 131 251 58
3 252 251 131
3 252 41 251
3 252 98 41
3 640 98 641
3 642 641 252
3 640 641 642
3 643 4 644
3 645 644 98
3 643 644 645
3 647 646 4
3 649 648 27
3 187 650 652
3 652 651 13
3 650 651 652
3 654 653 187
3 220 82 1
3 655 82 656
3 657 656 220
3 655 656 657
3 659 658 82
3 661 660 45
3 190 134 6
3 253 134 190
3 253 662 664
3 664 663 134
3 662 663 664
3 136 253 30
3 665 253 666
3 667 666 136
3 665 666 667
3 669 668 253
3 194 670 672
3 672 671 14
3 670 671 672
3 674 673 194
3 676 675 32
3 254 255 0
3 256 255 254
3 256 59 255
3 677 256 678
3 257 679 681
3 679 256 680
3 679 680 681
3 257 59 256
3 257 153 59
3 258 153 257
3 258 15 153
3 259 682 683
3 259 684 685
3 259 686 688
3 686 258 687
3 686 687 688
3 260 258 259
3 260 15 258
3 260 207 15
3 261 207 260
3 261 38 207
3 139 261 60
3 262 261 139
3 262 38 261
3 262 95 38
3 263 95 262
3 263 2 95
3 198 142 8
3 264 142 198
3 264 689 691
3 691 690 142
3 689 690 691
3 144 264 34
3 265 264 144
3 265 692 694
3 694 693 264
3 692 693 694
3 265 695 696
3 266 697 699
3 699 698 265
3 697 698 699
3 266 700 701
3 266 702 704
3 702 140 703
3 702 703 704
3 267 140 266
3 267 61 140
3 146 267 62
3 268 267 146
3 268 61 267
3 268 263 61
3 269 263 268
3 269 2 263
3 269 243 2
3 270 243 269
3 270 55 243
3 148 270 63
3 271 270 148
3 271 55 270
3 271 126 55
3 272 126 271
3 272 11 126
3 202 149 16
3 273 149 202
3 273 64 149
3 151 273 36
3 274 273 151
3 274 64 273
3 274 272 64
3 275 272 274
3 275 11 272
3 275 183 11
3 705 183 706
3 707 706 275
3 705 706 707
3 709 708 183
3 711 710 65
3 712 77 713
3 254 714 716
3 714 77 715
3 714 715 716
3 254 0 77
3 717 108 718
3 717 718 719
3 720 108 721
3 722 48 723
3 724 723 108
3 722 723 724
3 725 48 726
3 727 229 728
3 729 728 48
3 727 728 729
3 730 229 731
3 733 732 229
3 255 76 0
3 276 76 255
3 276 25 76
3 154 276 59
3 277 276 154
3 277 25 276
3 277 182 25
3 278 182 277
3 278 10 182
3 208 155 15
3 279 155 208
3 279 66 155
3 157 279 39
3 280 279 157
3 280 66 279
3 280 278 66
3 281 278 280
3 281 10 278
3 281 125 10
3 282 125 281
3 282 54 125
3 159 282 67
3 283 282 159
3 283 54 282
3 283 242 54
3 284 242 283
3 284 3 242
3 244 97 2
3 285 97 244
3 285 40 97
3 162 285 56
3 286 285 162
3 286 40 285
3 286 211 40
3 287 211 286
3 287 17 211
3 213 163 12
3 288 163 213
3 288 69 163
3 165 288 42
3 289 288 165
3 289 69 288
3 289 287 69
3 290 287 289
3 290 17 287
3 290 160 17
3 291 160 290
3 291 68 160
3 167 291 70
3 292 291 167
3 292 68 291
3 292 284 68
3 293 284 292
3 293 3 284
3 293 94 3
3 294 94 293
3 294 734 736
3 736 735 94
3 734 735 736
3 169 294 71
3 295 294 169
3 295 737 739
3 739 738 294
3 737 738 739
3 295 740 741
3 743 742 295
3 217 170 18
3 296 170 217
3 296 72 170
3 744 296 745
3 746 296 747
3 748 72 749
3 750 749 296
3 748 749 750
3 752 751 72
3 754 753 4
