ply
format ascii 1.0
element vertex 241
property float x
property float y
property float z
element face 243
property list uchar int vertex_index
end_header
-30.503439 11.655523 -49.549889
-37.521198 17.4846 -48.532227
-34.942738 13.366093 -56.411888
-33.534603 15.274944 -49.9216
-35.846458 16.589481 -53.094086
-32.037037 13.327522 -53.827911
-31.489237 9.686392 -56.29969
-29.344641 8.965551 -52.762306
-41.911884 17.890045 -45.422741
-45.207684 18.2929 -46.279846
-40.440544 18.335308 -50.48185
-39.0886 16.349297 -43.09481
-35.323471 15.576321 -44.973034
-32.090881 13.202682 -45.214054
-29.789589 9.699902 -44.047489
-31.876966 13.609802 -49.941818
-32.697552 14.529678 -52.030556
-31.11689 12.623856 -51.884659
-30.543743 11.257376 -53.499153
-29.83573 10.464384 -51.326286
-39.709087 17.927326 -47.174072
-41.195663 18.456867 -48.04726
-38.877983 18.127308 -49.707985
-35.258732 15.243511 -54.932091
-37.430214 16.547157 -54.035995
-37.019512 14.804241 -55.730949
-30.130421 7.511963 -55.559685
-31.627207 7.397511 -56.8993
-40.978844 16.053616 -41.583233
-39.556725 15.41082 -40.148159
-34.955509 14.819092 -40.007561
-36.054214 15.359661 -42.235275
-34.37476 14.711159 -42.702171
-33.608131 14.563698 -45.293018
-32.833405 13.700035 -42.784405
-30.33474 10.830856 -41.946381
-44.648117 18.09391 -48.733246
-47.018677 17.753281 -46.270485
-35.436634 16.585873 -49.454445
-36.635994 17.336582 -50.944756
-34.553051 16.120426 -51.722588
-33.814766 15.123245 -53.700638
-33.311497 13.609463 -55.340675
-33.09341 11.648247 -56.597511
-31.623741 11.691582 -55.265182
-30.209347 9.535055 -54.736877
-29.065975 7.180407 -53.811241
-44.041523 17.371319 -43.338417
-45.703365 17.689014 -43.681526
-43.49955 18.309086 -46.016354
-42.846081 18.544708 -48.551102
-42.203362 18.000195 -50.888687
-38.079144 17.67432 -52.011848
-39.769547 17.477493 -52.674393
-33.168312 9.340063 -57.433632
-33.50996 6.790363 -57.820381
-42.467812 16.769348 -42.649746
-40.446568 17.177078 -44.45377
-38.378506 17.107292 -45.901733
-37.806709 15.600975 -41.377224
-37.175751 16.184547 -44.236748
-36.350872 16.569042 -46.943733
-34.44783 15.594311 -47.551914
-32.741241 14.233917 -47.725391
-31.283539 12.551037 -47.491062
-31.477814 12.384949 -42.514771
-30.812086 11.558914 -44.778851
-30.104364 10.613611 -46.89922
-29.431011 9.477383 -48.801697
-28.858702 8.109322 -50.415977
-28.434656 6.499628 -51.682663
-47.442825 17.589317 -43.73634
-35.919154 12.962542 -56.73323
-36.957541 13.681617 -56.392761
-35.981125 14.085167 -56.071419
-34.934081 12.216859 -56.952641
-35.919154 12.962542 -56.73323
-30.211793 6.384097 -55.752018
-29.56885 6.331917 -55.00095
-39.641976 14.965812 -38.621525
-40.391976 15.09968 -39.369259
-33.901909 14.435678 -41.483288
-34.665135 14.765125 -41.354866
-34.192284 14.489645 -40.135982
-33.131231 13.930117 -41.524405
-33.604083 14.205597 -42.743288
-33.901909 14.435678 -41.483288
-45.611317 17.584335 -48.688473
-44.394397 17.588743 -49.853093
-39.527625 16.701475 -53.622501
-38.59988 17.012325 -53.355194
-38.357958 16.236307 -54.303303
-40.726669 17.086095 -52.82111
-39.527625 16.701475 -53.622501
-32.757084 5.8502 -57.432975
-32.568584 7.093937 -57.35984
-31.815707 6.153773 -56.972435
-33.79006 5.440247 -57.780254
-32.757084 5.8502 -57.432975
-42.616878 16.037042 -41.20334
-43.414535 16.334036 -41.601982
-37.182304 15.358179 -40.381937
-37.989284 15.309847 -39.891784
-31.133737 12.170803 -41.153248
-31.753659 12.785761 -41.34643
-29.04409 8.306508 -48.283034
-29.321086 8.982421 -47.407994
-28.757936 7.622478 -49.090173
-29.144857 8.793353 -49.608837
-29.04409 8.306508 -48.283034
-28.117813 5.200761 -51.007424
-28.305302 6.055077 -50.452877
-28.30901 5.581575 -52.12098
-28.117813 5.200761 -51.007424
-48.128031 17.371516 -44.918755
-47.961195 17.209094 -46.155971
-38.152607 15.364849 -55.150779
-38.357958 16.236307 -54.303303
-37.224863 15.675699 -54.883472
-38.03896 14.296053 -55.927684
-38.152607 15.364849 -55.150779
-37.976988 13.173428 -56.589496
-38.03896 14.296053 -55.927684
-36.957541 13.681617 -56.392761
-30.960186 6.326871 -56.421825
-30.878814 7.454737 -56.229492
-30.211793 6.384097 -55.752018
-31.815707 6.153773 -56.972435
-30.960186 6.326871 -56.421825
-41.103035 15.421078 -40.086796
-41.872394 15.679177 -40.670084
-40.267785 15.732218 -40.865696
-41.103035 15.421078 -40.086796
-40.391976 15.09968 -39.369259
-35.504862 15.089377 -41.121418
-36.306056 15.237522 -40.810963
-35.756704 14.967237 -39.697106
-30.0289 10.681186 -40.554322
-30.5622 11.393757 -40.869053
-29.872451 9.96609 -41.544339
-30.0289 10.681186 -40.554322
-29.599875 9.400613 -42.594893
-30.062165 10.265379 -42.996935
-29.872451 9.96609 -41.544339
-46.796596 17.41402 -47.457093
-45.833397 17.923596 -47.501866
-45.611317 17.584335 -48.688473
-47.961195 17.209094 -46.155971
-46.796596 17.41402 -47.457093
-29.036628 6.166139 -54.126728
-29.56885 6.331917 -55.00095
-29.598198 7.346185 -54.685463
-35.126085 14.929816 -38.633715
-35.756704 14.967237 -39.697106
-34.388307 14.765062 -38.858685
-35.126085 14.929816 -38.633715
-34.192284 14.489645 -40.135982
-34.388307 14.765062 -38.858685
-44.872444 17.530166 -43.509971
-45.861242 17.040468 -42.336548
-45.030321 16.881621 -42.164994
-43.17202 17.541885 -50.930813
-44.394397 17.588743 -49.853093
-43.425739 18.047052 -49.810966
-41.943577 17.347447 -51.928257
-40.986455 17.738844 -51.78154
-40.726669 17.086095 -52.82111
-43.17202 17.541885 -50.930813
-41.943577 17.347447 -51.928257
-34.009417 11.357936 -57.045452
-34.934081 12.216859 -56.952641
-34.018074 12.50717 -56.5047
-34.046868 10.203844 -57.463513
-34.009417 11.357936 -57.045452
-33.130861 10.494155 -57.015572
-34.181469 8.905636 -57.787639
-34.046868 10.203844 -57.463513
-34.352293 7.630786 -57.981014
-34.181469 8.905636 -57.787639
-33.339136 8.065213 -57.627007
-34.609319 6.239872 -58.073974
-34.352293 7.630786 -57.981014
-34.88942 4.889756 -58.033848
-34.609319 6.239872 -58.073974
-33.79006 5.440247 -57.780254
-44.201391 16.635022 -41.946317
-45.030321 16.881621 -42.164994
-43.254667 17.070334 -42.994082
-44.201391 16.635022 -41.946317
-43.414535 16.334036 -41.601982
-41.723328 16.411482 -42.11649
-42.616878 16.037042 -41.20334
-41.872394 15.679177 -40.670084
-38.864293 15.214769 -39.277252
-39.641976 14.965812 -38.621525
-38.681717 15.505897 -40.762692
-38.864293 15.214769 -39.277252
-37.989284 15.309847 -39.891784
-36.930461 15.480318 -41.806249
-37.182304 15.358179 -40.381937
-36.306056 15.237522 -40.810963
-32.431454 13.443304 -41.481247
-33.131231 13.930117 -41.524405
-32.155609 13.042492 -42.649588
-32.431454 13.443304 -41.481247
-31.753659 12.785761 -41.34643
-30.906277 11.607903 -42.230576
-31.133737 12.170803 -41.153248
-30.5622 11.393757 -40.869053
-29.40508 8.694118 -43.56673
-29.599875 9.400613 -42.594893
-29.500375 9.09368 -45.03089
-29.40508 8.694118 -43.56673
-29.657763 9.550535 -46.456755
-29.946976 10.156757 -45.473354
-29.500375 9.09368 -45.03089
-29.767688 10.045497 -47.850459
-29.657763 9.550535 -46.456755
-29.321086 8.982421 -47.407994
-28.517325 6.859924 -49.819534
-28.757936 7.622478 -49.090173
-28.646679 7.304475 -51.04932
-28.517325 6.859924 -49.819534
-28.305302 6.055077 -50.452877
-28.624669 5.921965 -53.185269
-28.750315 6.840018 -52.746952
-28.30901 5.581575 -52.12098
-29.036628 6.166139 -54.126728
-28.624669 5.921965 -53.185269
-46.717863 17.15534 -42.398456
-45.861242 17.040468 -42.336548
-47.587593 17.105491 -42.425863
-46.717863 17.15534 -42.398456
-46.573095 17.639166 -43.708933
-48.46261 17.02511 -42.364189
-47.587593 17.105491 -42.425863
-48.340105 17.289534 -43.651682
-47.230751 17.671299 -45.003412
-48.128031 17.371516 -44.918755
-48.46261 17.02511 -42.364189
-48.340105 17.289534 -43.651682
3 0 17 15
3 0 19 17
3 1 22 20
3 2 25 23
3 2 72 74
3 74 73 25
3 72 73 74
3 2 75 76
3 78 77 26
3 79 29 80
3 81 32 82
3 83 82 30
3 81 82 83
3 84 34 85
3 86 85 32
3 84 85 86
3 88 87 36
3 3 40 38
3 5 41 16
3 5 42 41
3 5 44 42
3 7 45 18
3 7 46 45
3 8 49 47
3 10 50 21
3 10 51 50
3 4 52 39
3 89 53 90
3 91 90 24
3 89 90 91
3 93 92 53
3 6 54 43
3 94 55 95
3 96 95 27
3 94 95 96
3 98 97 55
3 99 56 100
3 11 57 28
3 11 58 57
3 101 59 102
3 12 60 31
3 12 61 60
3 12 62 61
3 13 63 33
3 13 64 63
3 103 65 104
3 14 66 35
3 14 67 66
3 105 68 106
3 107 69 108
3 109 108 68
3 107 108 109
3 110 70 111
3 113 112 70
3 9 71 48
3 115 114 37
3 15 16 3
3 17 16 15
3 17 5 16
3 17 18 5
3 19 18 17
3 19 7 18
3 20 21 8
3 22 21 20
3 22 10 21
3 23 24 4
3 25 24 23
3 25 116 118
3 118 117 24
3 116 117 118
3 25 119 120
3 123 122 25
3 121 122 123
3 26 27 6
3 124 27 125
3 126 125 26
3 124 125 126
3 128 127 27
3 129 28 130
3 29 131 133
3 131 28 132
3 131 132 133
3 29 11 28
3 30 134 136
3 134 31 135
3 134 135 136
3 32 31 30
3 32 12 31
3 32 33 12
3 34 33 32
3 34 13 33
3 137 35 138
3 139 35 140
3 141 14 142
3 143 142 35
3 141 142 143
3 36 37 9
3 144 37 145
3 146 145 36
3 144 145 146
3 148 147 37
3 38 39 1
3 40 39 38
3 40 4 39
3 16 40 3
3 41 40 16
3 41 4 40
3 41 23 4
3 42 23 41
3 42 2 23
3 42 43 2
3 44 43 42
3 44 6 43
3 18 44 5
3 45 44 18
3 45 6 44
3 45 26 6
3 46 26 45
3 46 149 151
3 151 150 26
3 149 150 151
3 152 30 153
3 154 30 155
3 157 156 30
3 47 158 160
3 158 48 159
3 158 159 160
3 49 48 47
3 49 9 48
3 21 49 8
3 50 49 21
3 50 9 49
3 50 36 9
3 51 36 50
3 51 161 163
3 163 162 36
3 161 162 163
3 39 22 1
3 52 22 39
3 52 10 22
3 24 52 4
3 53 52 24
3 53 10 52
3 53 51 10
3 164 51 165
3 166 165 53
3 164 165 166
3 168 167 51
3 43 169 171
3 171 170 2
3 169 170 171
3 54 172 174
3 174 173 43
3 172 173 174
3 54 175 176
3 27 54 6
3 55 54 27
3 55 177 179
3 179 178 54
3 177 178 179
3 55 180 181
3 184 183 55
3 182 183 184
3 185 47 186
3 56 187 189
3 187 47 188
3 187 188 189
3 56 8 47
3 28 190 192
3 190 56 191
3 190 191 192
3 57 56 28
3 57 8 56
3 57 20 8
3 58 20 57
3 58 1 20
3 193 29 194
3 59 195 197
3 195 29 196
3 195 196 197
3 59 11 29
3 31 198 200
3 198 59 199
3 198 199 200
3 60 59 31
3 60 11 59
3 60 58 11
3 61 58 60
3 61 1 58
3 61 38 1
3 62 38 61
3 62 3 38
3 33 62 12
3 63 62 33
3 63 3 62
3 63 15 3
3 64 15 63
3 64 0 15
3 201 34 202
3 65 203 205
3 203 34 204
3 203 204 205
3 65 13 34
3 35 206 208
3 206 65 207
3 206 207 208
3 66 65 35
3 66 13 65
3 66 64 13
3 67 64 66
3 67 0 64
3 209 14 210
3 211 14 212
3 213 67 214
3 215 214 14
3 213 214 215
3 68 216 218
3 216 67 217
3 216 217 218
3 68 0 67
3 68 19 0
3 69 19 68
3 69 7 19
3 219 69 220
3 70 221 223
3 221 69 222
3 221 222 223
3 70 7 69
3 70 46 7
3 224 46 225
3 226 225 70
3 224 225 226
3 228 227 46
3 48 229 230
3 71 231 233
3 233 232 48
3 231 232 233
3 71 234 235
3 37 71 9
3 236 71 237
3 238 237 37
3 236 237 238
3 240 239 71
