ply
format ascii 1.0
element vertex 339
property float x
property float y
property float z
element face 356
property list uchar int vertex_index
end_header
-4.643549 25.224438 30.175343
0.287195 54.229294 14.779689
-0.439602 34.470009 33.39624
-2.920248 40.487057 22.250427
1.485544 47.925331 27.065704
1.707874 28.466038 43.477287
-1.681707 19.47451 40.314415
1.41721 37.992821 35.159859
0.487524 41.364658 29.968483
2.069286 44.058056 32.571877
0.758041 31.295033 38.522457
-1.441568 47.585472 18.319355
-4.083036 42.669525 16.306097
-2.306288 49.692497 12.117985
-2.988646 50.854851 5.759041
-3.164606 22.548519 35.385902
-2.580011 30.254181 31.770861
-3.984072 32.996925 26.295553
-1.688745 37.663418 27.963276
-0.492823 44.721798 24.300434
0.870848 51.417725 21.060843
1.373564 20.989918 46.716824
-0.17775 16.267521 44.926842
0.208733 23.970242 41.952587
-1.170252 27.150761 36.993729
2.30562 54.325829 24.79949
2.093412 57.816711 18.423006
2.066063 39.479671 36.067913
1.754442 41.069252 33.738106
2.298969 42.179382 34.976437
1.810558 36.543282 37.561516
-0.588524 50.963318 16.484455
-1.88933 48.746414 15.242553
-0.94953 52.094185 13.34024
-1.284464 52.998787 10.155321
0.013485 55.321281 11.570832
-3.90135 23.948807 32.813099
-4.094477 19.991531 34.530613
-4.842043 21.255604 31.970646
-1.503771 32.455616 32.570915
-2.174643 33.999641 29.869562
-1.064289 36.090977 30.718613
0.990978 44.674843 28.439642
-0.003511 43.082428 27.182476
0.585905 46.448486 25.574833
0.183834 48.113045 22.614086
1.176294 49.742287 24.107464
1.527037 24.778069 45.163437
0.835051 22.441051 44.351028
1.042473 26.192829 42.726749
0.174631 32.854206 35.994026
-0.169611 29.260441 37.765339
-0.832447 30.86134 35.202667
-1.875929 28.731049 34.415817
-3.505934 36.78392 24.276482
-4.677786 34.163765 23.471432
-4.157495 37.963623 21.393112
-0.927258 17.868027 42.659828
-1.079834 13.92643 43.989868
-1.856695 15.531887 41.754982
2.563524 57.501419 23.903858
2.199242 56.166115 21.643198
2.551949 59.326485 20.654377
0.557539 36.313866 34.259285
0.004059 37.969429 31.633476
0.967831 39.636753 32.634373
1.387182 42.851292 31.176252
1.789 46.0093 29.903934
1.280685 29.827881 41.006363
1.541557 33.299675 39.254307
1.079609 34.738705 36.789078
-2.228003 44.091564 20.252853
-3.516455 41.671902 19.305584
-2.755613 45.270691 17.243265
-3.251757 46.248703 14.181438
-3.69837 47.000771 11.072156
-2.677999 50.401276 8.953188
-1.5837 53.659081 6.93989
-2.42734 21.046932 37.888466
-2.613718 17.102367 39.429798
-3.633238 27.848259 30.978634
-4.360441 29.140171 28.272995
-3.282721 31.685764 29.062735
-2.842665 35.453487 27.103035
-2.308542 39.141033 25.138
-0.560564 39.632614 28.908064
-1.124487 41.23872 26.094208
-1.681803 42.737606 23.205526
-0.973789 46.23455 21.341606
-0.209023 49.628006 19.579136
0.573729 52.921318 17.946762
1.253887 17.133583 48.098537
0.537388 14.711498 47.126141
0.664228 18.605911 45.83033
-0.007187 20.153976 43.520485
-0.722567 21.747746 41.151752
0.465273 27.693722 40.267754
-0.46944 25.551273 39.504166
-1.452932 23.350945 38.713848
-2.182535 24.925373 36.203697
-2.908113 26.434895 33.623661
-5.084372 30.290298 25.508577
1.886744 23.459873 47.599014
2.140802 49.155556 28.806721
1.93593 51.137459 25.852264
1.728184 52.97673 22.794424
1.523623 54.64669 19.659843
1.323967 56.126617 16.467333
2.536304 60.948898 17.353708
1.986214 59.264641 15.155945
1.128433 57.398941 13.231035
2.366531 41.405147 35.918005
2.182516 40.829527 35.522175
2.250078 40.055292 36.463743
2.250078 40.055292 36.463743
2.18736 38.898712 37.147674
-5.015487 25.791151 28.825062
-5.120273 23.799974 29.758602
-5.120273 23.799974 29.758602
-5.21952 21.815558 30.656253
-4.742796 23.240021 31.072995
2.627378 59.087352 23.530064
2.589929 58.083134 25.169563
2.621591 59.999885 21.905323
2.557736 58.413952 22.279117
2.627378 59.087352 23.530064
1.829603 34.316469 39.588503
1.725307 32.653742 40.481087
-0.913955 54.919556 7.635383
-1.434082 53.328934 8.547605
-0.764336 54.589409 9.243099
-1.032849 55.226388 6.00607
-0.913955 54.919556 7.635383
-3.259949 20.573957 36.202511
-2.891316 19.823164 37.453793
-2.795973 21.797725 36.637184
-4.15683 17.984199 35.314925
-4.529026 18.612983 34.079844
-5.233244 32.722286 23.077921
-5.01302 34.664364 22.030729
-4.432737 40.818928 17.379953
-4.149446 40.320116 18.879696
-3.799746 42.170714 17.805841
-3.675015 49.298767 5.253122
-3.531699 49.1796 6.841077
-0.236629 14.297598 45.53188
0.12094 13.519586 46.631529
0.179819 15.48951 46.026491
-1.126809 11.930051 44.551695
-1.527692 12.728763 43.497078
-2.67847 15.099365 40.112337
-3.049244 15.845876 38.96005
2.02544 24.752432 48.040543
1.993266 22.850195 48.82563
1.947697 25.333746 46.780933
2.02544 24.752432 48.040543
2.324142 49.647755 29.81581
2.235718 48.111199 30.212768
2.358097 53.318398 26.334653
2.439454 54.903267 25.941216
2.120775 52.731644 25.325877
2.173252 51.724213 26.86104
2.358097 53.318398 26.334653
2.680017 62.506851 16.899607
2.649417 61.711258 18.587043
2.79313 63.269211 18.132941
1.92953 59.881439 13.505993
2.248334 60.813305 14.586952
1.50064 58.948589 12.543538
1.557323 58.331791 14.19349
1.92953 59.881439 13.505993
1.031825 57.923694 11.597036
1.50064 58.948589 12.543538
2.059608 37.430518 37.894476
1.964104 35.938272 38.742108
1.938311 38.011477 36.814714
2.059608 37.430518 37.894476
2.18736 38.898712 37.147674
-0.115362 55.750656 9.950854
-0.764336 54.589409 9.243099
-0.63549 54.160034 10.863077
-4.902809 19.24502 32.79986
-4.529026 18.612983 34.079844
-4.46826 20.623568 33.25063
-5.281816 19.800806 31.526787
-4.902809 19.24502 32.79986
-5.281816 19.800806 31.526787
-5.21952 21.815558 30.656253
-4.752874 36.564293 20.991569
-5.01302 34.664364 22.030729
-4.417641 36.063694 22.432272
-4.720676 41.221756 15.882383
-4.341219 43.062086 14.780144
-3.106535 50.949447 4.15525
-2.413044 52.459401 4.733325
-1.916122 13.531491 42.379635
-1.527692 12.728763 43.497078
-1.468265 14.729159 42.872425
2.568406 56.491062 25.4934
2.589929 58.083134 25.169563
2.434572 55.913624 24.351674
2.439454 54.903267 25.941216
2.568406 56.491062 25.4934
1.594871 30.917845 41.357115
1.494279 29.14696 42.241825
1.808466 30.236924 42.592577
1.411121 31.563778 40.130335
1.594871 30.917845 41.357115
1.725307 32.653742 40.481087
1.676057 34.921478 38.407911
1.829603 34.316469 39.588503
1.964104 35.938272 38.742108
-3.925579 44.851675 13.717814
-4.341219 43.062086 14.780144
-3.667396 44.459114 15.243768
-4.148886 45.227709 12.163173
-3.925579 44.851675 13.717814
-3.475064 46.624737 12.626797
-4.369817 45.501593 10.613296
-4.148886 45.227709 12.163173
-3.88656 47.25256 9.497635
-4.369817 45.501593 10.613296
-3.376375 48.952813 8.438151
-3.88656 47.25256 9.497635
-3.188185 48.701024 10.012672
-2.833322 50.628063 7.356115
-3.531699 49.1796 6.841077
-3.376375 48.952813 8.438151
-1.710571 53.861515 5.323749
-2.413044 52.459401 4.733325
-2.286173 52.256966 6.349465
-1.710571 53.861515 5.323749
-1.032849 55.226388 6.00607
-2.984504 17.850881 38.224458
-2.520529 19.074649 38.659132
-2.891316 19.823164 37.453793
-3.049244 15.845876 38.96005
-2.984504 17.850881 38.224458
-3.724884 19.295463 35.774866
-3.259949 20.573957 36.202511
-3.629542 21.270025 34.958258
-3.724884 19.295463 35.774866
-4.15683 17.984199 35.314925
0.895637 15.922541 47.612339
0.857416 13.971493 48.201544
1.215666 15.182535 48.687742
-4.873933 27.749018 27.873888
-5.015487 25.791151 28.825062
-4.501995 27.182305 29.224169
-5.235899 28.324081 26.491679
-4.873933 27.749018 27.873888
-4.722406 29.715235 26.890786
-5.60022 28.812441 25.109395
-5.235899 28.324081 26.491679
-5.436537 30.785553 24.096494
-4.881079 32.227031 24.490004
-5.233244 32.722286 23.077921
-5.60022 28.812441 25.109395
-5.436537 30.785553 24.096494
-4.469966 38.465976 19.92346
-3.836975 39.817763 20.349348
-4.149446 40.320116 18.879696
-4.752874 36.564293 20.991569
-4.469966 38.465976 19.92346
-4.432737 40.818928 17.379953
-4.720676 41.221756 15.882383
-3.675015 49.298767 5.253122
-3.106535 50.949447 4.15525
0.50132 12.743151 47.667417
0.857416 13.971493 48.201544
0.50132 12.743151 47.667417
0.12094 13.519586 46.631529
-0.68767 13.127052 45.063392
-0.236629 14.297598 45.53188
-0.628792 15.096975 44.458355
-0.68767 13.127052 45.063392
-1.126809 11.930051 44.551695
-2.299959 14.314125 41.274929
-2.235206 16.317127 40.59239
-2.67847 15.099365 40.112337
-1.916122 13.531491 42.379635
-2.299959 14.314125 41.274929
1.488472 16.445294 49.222894
1.215666 15.182535 48.687742
1.521624 18.383763 48.584456
1.488472 16.445294 49.222894
1.581463 20.31193 47.893599
1.313725 19.061751 47.40768
1.521624 18.383763 48.584456
1.838053 21.546908 48.334694
1.993266 22.850195 48.82563
1.630154 22.224896 47.157919
1.581463 20.31193 47.893599
1.838053 21.546908 48.334694
1.767843 25.992844 45.563144
1.706891 24.118971 46.381225
1.947697 25.333746 46.780933
1.858262 27.836829 44.720069
1.617455 26.622053 44.320362
1.767843 25.992844 45.563144
1.92911 29.652243 43.837123
1.858262 27.836829 44.720069
1.808466 30.236924 42.592577
1.92911 29.652243 43.837123
2.438133 42.457104 35.766419
2.366531 41.405147 35.918005
2.392365 43.547742 34.603323
2.438133 42.457104 35.766419
2.277524 44.48708 33.401043
2.184127 43.118719 33.774157
2.392365 43.547742 34.603323
2.19996 45.562449 32.095346
2.277524 44.48708 33.401043
2.059817 46.538071 30.761375
1.929143 45.033678 31.237906
2.19996 45.562449 32.095346
1.964901 47.582428 29.355328
2.059817 46.538071 30.761375
2.235718 48.111199 30.212768
2.275688 50.733261 28.338268
2.324142 49.647755 29.81581
2.038366 50.146507 27.329493
2.275688 50.733261 28.338268
2.173252 51.724213 26.86104
2.657239 60.900052 20.237377
2.621591 59.999885 21.905323
2.544126 60.137692 19.004043
2.657239 60.900052 20.237377
2.649417 61.711258 18.587043
2.523379 61.655434 15.685834
2.680017 62.506851 16.899607
2.261259 60.106769 16.254827
2.523379 61.655434 15.685834
2.248334 60.813305 14.586952
0.474351 56.884864 10.766935
0.570959 56.360111 12.400934
1.031825 57.923694 11.597036
-0.115362 55.750656 9.950854
0.474351 56.884864 10.766935
3 111 29 112
3 113 112 27
3 111 112 113
3 114 27 115
3 0 116 117
3 1 33 31
3 1 35 33
3 0 38 36
3 0 118 120
3 120 119 38
3 118 119 120
3 2 41 39
3 4 44 42
3 4 46 44
3 5 49 47
3 2 52 50
3 2 39 52
3 3 56 54
3 6 59 57
3 121 60 122
3 123 62 124
3 125 124 60
3 123 124 125
3 7 65 63
3 9 66 28
3 9 67 66
3 126 69 127
3 7 70 30
3 7 63 70
3 11 73 71
3 13 74 32
3 13 75 74
3 13 76 75
3 128 77 129
3 130 129 34
3 128 129 130
3 132 131 77
3 15 133 135
3 135 134 78
3 133 134 135
3 137 136 37
3 16 82 80
3 18 83 40
3 18 84 83
3 8 85 64
3 19 86 43
3 19 87 86
3 19 88 87
3 20 89 45
3 20 90 89
3 21 93 91
3 23 94 48
3 23 95 94
3 10 96 68
3 24 97 51
3 24 98 97
3 24 99 98
3 16 100 53
3 16 80 100
3 17 101 81
3 139 138 55
3 12 140 142
3 142 141 72
3 140 141 142
3 14 143 144
3 22 145 147
3 147 146 92
3 145 146 147
3 149 148 58
3 151 150 79
3 152 102 153
3 155 154 102
3 156 103 157
3 25 158 159
3 25 160 162
3 160 104 161
3 160 161 162
3 25 105 104
3 26 106 61
3 26 107 106
3 163 108 164
3 163 164 165
3 166 109 167
3 168 110 169
3 170 169 109
3 168 169 170
3 172 171 110
3 27 28 7
3 29 28 27
3 29 9 28
3 173 30 174
3 27 175 177
3 175 30 176
3 175 176 177
3 27 7 30
3 31 32 11
3 33 32 31
3 33 13 32
3 33 34 13
3 35 34 33
3 35 178 180
3 180 179 34
3 178 179 180
3 36 37 15
3 38 37 36
3 38 181 183
3 183 182 37
3 181 182 183
3 38 184 185
3 187 186 38
3 39 40 16
3 41 40 39
3 41 18 40
3 42 43 8
3 44 43 42
3 44 19 43
3 44 45 19
3 46 45 44
3 46 20 45
3 47 48 21
3 49 48 47
3 49 23 48
3 50 51 10
3 52 51 50
3 52 24 51
3 52 53 24
3 39 53 52
3 39 16 53
3 54 55 17
3 56 55 54
3 56 188 190
3 190 189 55
3 188 189 190
3 192 191 12
3 194 193 14
3 57 58 22
3 59 58 57
3 59 195 197
3 197 196 58
3 195 196 197
3 60 198 199
3 60 200 202
3 200 25 201
3 200 201 202
3 60 61 25
3 62 61 60
3 62 26 61
3 63 64 2
3 65 64 63
3 65 8 64
3 28 65 7
3 66 65 28
3 66 8 65
3 66 42 8
3 67 42 66
3 67 4 42
3 203 68 204
3 205 204 5
3 203 204 205
3 69 206 208
3 206 68 207
3 206 207 208
3 69 10 68
3 30 209 211
3 209 69 210
3 209 210 211
3 70 69 30
3 70 10 69
3 70 50 10
3 63 50 70
3 63 2 50
3 71 72 3
3 73 72 71
3 73 12 72
3 32 73 11
3 74 73 32
3 74 12 73
3 74 212 214
3 214 213 12
3 212 213 214
3 75 215 217
3 217 216 74
3 215 216 217
3 75 218 219
3 75 220 221
3 76 222 224
3 224 223 75
3 222 223 224
3 76 225 227
3 225 14 226
3 225 226 227
3 34 76 13
3 77 76 34
3 77 14 76
3 77 228 230
3 230 229 14
3 228 229 230
3 232 231 77
3 78 79 6
3 233 79 234
3 235 234 78
3 233 234 235
3 237 236 79
3 37 238 240
3 240 239 15
3 238 239 240
3 242 241 37
3 80 81 0
3 82 81 80
3 82 17 81
3 40 82 16
3 83 82 40
3 83 17 82
3 83 54 17
3 84 54 83
3 84 3 54
3 64 41 2
3 85 41 64
3 85 18 41
3 43 85 8
3 86 85 43
3 86 18 85
3 86 84 18
3 87 84 86
3 87 3 84
3 87 71 3
3 88 71 87
3 88 11 71
3 45 88 19
3 89 88 45
3 89 11 88
3 89 31 11
3 90 31 89
3 90 1 31
3 91 243 245
3 243 92 244
3 243 244 245
3 93 92 91
3 93 22 92
3 48 93 21
3 94 93 48
3 94 22 93
3 94 57 22
3 95 57 94
3 95 6 57
3 68 49 5
3 96 49 68
3 96 23 49
3 51 96 10
3 97 96 51
3 97 23 96
3 97 95 23
3 98 95 97
3 98 6 95
3 98 78 6
3 99 78 98
3 99 15 78
3 53 99 24
3 100 99 53
3 100 15 99
3 100 36 15
3 80 36 100
3 80 0 36
3 81 246 248
3 248 247 0
3 246 247 248
3 101 249 251
3 251 250 81
3 249 250 251
3 101 252 253
3 55 101 17
3 254 101 255
3 256 255 55
3 254 255 256
3 258 257 101
3 72 56 3
3 259 56 260
3 261 260 72
3 259 260 261
3 263 262 56
3 265 264 12
3 267 266 14
3 92 268 269
3 271 270 92
3 58 272 274
3 274 273 22
3 272 273 274
3 276 275 58
3 79 59 6
3 277 59 278
3 279 278 79
3 277 278 279
3 281 280 59
3 282 91 283
3 284 91 285
3 286 21 287
3 288 287 91
3 286 287 288
3 102 289 290
3 102 291 293
3 291 21 292
3 291 292 293
3 102 47 21
3 294 47 295
3 296 295 102
3 294 295 296
3 297 5 298
3 299 298 47
3 297 298 299
3 300 5 301
3 303 302 5
3 304 29 305
3 306 29 307
3 308 9 309
3 310 309 29
3 308 309 310
3 311 9 312
3 313 67 314
3 315 314 9
3 313 314 315
3 103 316 318
3 316 67 317
3 316 317 318
3 103 4 67
3 319 103 320
3 104 321 323
3 321 103 322
3 321 322 323
3 104 4 103
3 104 46 4
3 105 46 104
3 105 20 46
3 61 105 25
3 106 105 61
3 106 20 105
3 106 90 20
3 107 90 106
3 107 1 90
3 324 62 325
3 108 326 328
3 326 62 327
3 326 327 328
3 108 26 62
3 329 108 330
3 109 331 333
3 331 108 332
3 331 332 333
3 109 26 108
3 109 107 26
3 110 107 109
3 110 1 107
3 110 35 1
3 334 35 335
3 336 335 110
3 334 335 336
3 338 337 35
