ply
format ascii 1.0
element vertex 960
property float x
property float y
property float z
element face 1283
property list uchar int vertex_index
end_header
2.434093 40.630913 36.859573
4.267363 25.649288 76.407906
17.160183 32.22541 64.171776
1.177444 13.231487 49.276947
0.540371 36.217567 57.995934
1.210854 64.257591 35.340961
4.48394 56.391495 58.548798
19.206142 55.129341 46.049522
0.865461 4.054701 66.983788
0.717403 32.140217 69.220367
0.490589 48.252434 60.469742
4.478069 41.241253 68.881798
23.753832 31.643494 58.30323
17.926979 44.286819 55.492805
0.517143 15.92382 74.349586
0.852951 20.27359 64.465088
1.856609 75.259636 34.371651
9.709633 16.84161 79.149872
10.917162 31.189419 72.118217
16.067013 19.669823 71.992294
21.490425 19.652138 64.015129
2.077692 38.902412 46.063957
2.384222 51.405785 35.716843
0.529682 51.499611 47.994209
0.762917 63.298347 48.56794
5.32987 69.680275 45.587452
11.104929 45.093376 63.206886
11.559464 57.976219 52.291214
13.273457 68.848518 40.224213
2.246655 8.265684 57.885788
2.046654 23.963169 53.661415
2.691233 60.673286 23.156269
2.117649 35.333263 39.922699
2.066057 29.226871 73.437523
2.066851 37.229538 69.799721
4.476078 33.459206 72.987389
3.741726 17.777973 79.093872
1.846334 21.203747 76.24247
0.718565 24.055367 72.265945
3.988741 78.552467 33.009834
2.713194 79.79055 26.820591
12.024403 11.779989 79.287735
13.149437 18.766926 76.050735
15.159091 13.141968 75.577225
20.332695 13.62775 66.986198
23.35014 13.514912 63.951736
1.263414 37.677639 51.908089
1.299309 45.057373 47.096252
0.444399 44.036011 53.393845
1.943775 53.061653 60.15921
0.529413 56.038551 54.871521
2.081549 60.551697 54.199158
2.451483 67.417542 47.580414
4.758841 63.371872 52.339233
14.159674 32.169388 68.338509
11.058367 38.202988 67.907478
14.354422 38.69091 63.979652
18.44816 49.924446 50.817863
14.81884 51.131866 54.142555
15.373301 56.813339 48.812698
12.236877 63.711327 46.323647
16.257309 62.004829 43.399261
17.420364 66.605354 37.904076
20.214161 59.79319 41.211418
2.547045 0.305098 58.530617
1.751017 6.165474 62.397148
0.720062 28.265812 61.704681
1.511492 22.098351 59.029411
1.366852 29.960464 55.908653
2.021751 31.614098 50.23497
1.808317 57.815788 35.454044
2.54048 56.449348 29.637058
2.183002 62.874031 28.887966
0.266811 34.423496 63.930283
0.108772 42.457977 59.637291
0.593357 40.22374 65.272362
1.975941 45.21244 65.369888
4.429745 48.94046 64.077377
20.247965 31.865414 60.537666
17.540016 38.343128 59.96151
20.898624 37.765347 56.78389
21.523571 43.444363 52.803101
22.23782 48.719284 48.641853
0.265179 10.105515 71.065468
0.886011 12.22455 66.229156
0.412481 18.279095 69.691643
0.406755 26.362011 67.299164
1.053059 70.282173 35.09396
1.723036 69.21936 28.373798
1.697985 75.073395 27.781744
6.984262 21.486843 78.240837
7.471426 29.023182 74.92997
10.520714 24.085377 75.881096
13.80698 25.541355 72.366737
16.693771 26.00853 68.168762
17.774721 13.645672 71.190445
18.673702 19.818108 67.642906
19.501896 25.875843 64.115372
22.683662 25.66172 61.216415
6.069262 13.828461 80.908386
2.553354 39.920372 40.810493
2.62731 45.397018 36.231544
2.218548 45.553452 41.219334
1.497065 51.841637 41.571232
0.800081 58.319107 41.929703
0.070784 50.33004 54.490509
0.220629 57.77726 48.597351
0.554888 64.498886 42.085846
1.203768 69.757935 41.682022
3.084658 73.449783 40.455139
6.224211 75.184128 38.480881
7.641748 36.491383 71.046577
7.648455 43.891064 66.587784
7.658613 51.11702 61.498322
14.524866 45.05249 59.242233
11.219923 51.733604 57.977455
7.829826 57.990852 55.773315
8.288065 64.341766 49.52597
9.101221 70.044647 42.943485
10.252825 75.005882 36.175659
2.287195 2.680048 54.661224
2.063705 10.565392 53.534836
1.628479 14.170349 61.211929
2.111996 16.151566 56.246246
2.056349 18.379841 51.432327
2.164135 26.044991 48.482071
2.345997 33.353409 44.872017
2.507483 50.139954 30.824898
2.585194 67.015938 22.029894
2.308657 38.317753 38.227436
3.07486 27.518036 75.077042
3.149996 31.479416 73.413376
4.406029 29.558472 74.784904
4.048298 21.725075 77.847656
2.713236 19.560364 77.807137
2.931725 23.547646 76.544922
1.988634 25.221066 74.948334
13.670097 12.582254 77.554756
1.157377 9.298466 50.227631
0.865679 36.981537 54.94355
0.826887 40.838604 52.683884
0.473736 40.154537 55.801765
3.089418 54.934952 59.515739
1.986582 56.86834 57.268776
3.1605 58.632256 56.549538
3.290291 62.193184 53.412384
4.588055 59.954422 55.522461
15.674749 32.285667 66.252327
14.268665 35.444378 66.2034
15.818205 35.450706 64.125824
18.794022 52.588135 48.439941
16.915882 53.337067 49.845657
17.284506 55.998695 47.307671
15.774173 59.476181 46.111557
17.729416 58.534035 44.760544
18.244041 60.930153 42.199909
19.682682 57.534859 43.644901
1.381401 1.030321 64.814232
1.842539 2.120527 62.619644
1.331226 5.1231 64.690758
0.62859 32.249462 59.965996
1.021379 29.127628 58.80806
0.935896 33.07053 56.987732
1.302988 33.846622 54.014755
1.486536 61.056374 35.39299
1.989946 60.461494 32.217461
1.703568 63.686378 32.047852
0.387266 33.353405 66.686768
0.310522 37.395088 64.73822
0.662254 36.182495 67.356033
3.15164 39.391495 69.525299
2.023054 41.227489 67.682915
3.115299 43.336426 67.304329
3.080988 47.257599 64.896461
4.450037 45.109268 66.569313
21.938328 31.709873 59.213333
20.582909 34.832539 58.688774
22.343231 34.66048 57.509087
23.07901 40.403919 53.895996
23.438305 43.142735 51.990799
21.863033 46.14344 50.740791
0.843393 14.572845 76.368263
0.340811 11.815952 75.018944
0.117153 8.93273 73.329399
0.267281 13.062592 72.846153
0.355509 14.208836 70.506378
0.379608 17.155827 72.113312
0.740643 28.099209 70.859444
0.468657 25.270222 69.887589
0.445282 29.312065 68.405418
0.348171 30.393227 65.733505
1.304993 72.945061 34.809544
1.358807 72.79924 31.466873
1.65387 75.401657 31.108147
8.377481 19.219791 78.7994
8.755178 22.930168 77.227242
10.176163 20.485134 77.583374
14.672411 19.334606 74.109657
13.526888 22.17709 74.257065
15.018457 22.628967 72.246696
15.288854 25.879482 70.310974
16.406435 22.8587 70.1036
18.528955 10.612295 70.728043
20.898006 16.642239 65.463287
19.521126 16.719772 67.314713
20.024363 19.744282 65.673103
19.095724 22.85799 65.87812
20.529556 22.752079 64.064568
21.025379 25.748142 62.468826
22.093029 22.658199 62.612
9.109274 13.149036 80.56897
7.249327 11.673868 81.475113
7.877481 15.469208 80.218018
6.584539 17.676311 79.660164
2.383131 39.438622 43.337795
2.459421 42.622295 41.039772
2.140734 42.322803 43.724182
0.883224 48.267754 47.566921
1.380184 48.539558 44.415836
0.981354 51.769493 44.740242
1.119467 55.084488 41.757301
0.644287 55.007339 45.036255
0.177486 45.443451 60.177971
0.068359 46.428375 57.164703
0.154886 49.409439 57.583244
0.620619 59.753052 51.800987
0.245201 57.06324 51.822891
0.363167 60.673836 48.685623
0.366138 61.245445 45.410606
0.528986 64.091179 45.397667
0.741608 67.2864 41.976089
0.957079 66.641609 45.188755
3.753357 68.794189 46.696068
2.734077 70.546715 44.069736
4.094982 71.791504 43.161224
4.511806 74.568703 39.540691
5.73698 72.538101 42.067032
9.198818 30.260571 73.669716
7.587233 32.763653 73.057899
9.300785 33.894955 71.700737
11.08338 41.669918 65.622528
9.364826 41.107689 67.377907
9.36834 44.668171 65.008522
7.64278 47.536186 64.124657
9.380785 48.175255 62.490608
17.724936 41.34457 57.758865
16.072693 41.680687 59.643585
16.215729 44.718918 57.282829
13.204145 54.581581 53.307686
13.021276 51.55072 56.049324
11.352987 54.912453 55.181763
9.51367 54.942726 57.014328
9.670889 58.162933 54.080193
8.017097 61.240608 52.703758
9.90855 61.25222 51.043831
12.713675 66.360771 43.28627
10.657347 66.987709 44.763134
11.168444 69.611061 41.557682
9.639132 72.623512 39.577545
11.759247 72.055405 38.320633
13.900877 71.160324 37.132111
2.370102 4.29661 58.329491
2.529684 1.466412 56.568687
2.358021 5.431047 56.253883
2.141283 6.63069 54.22319
2.248425 9.377647 55.690643
0.880838 16.259979 65.474533
1.266998 13.206985 63.726379
1.22967 17.208805 62.864487
1.814722 23.013546 56.325661
1.868652 19.086426 57.636246
2.074831 20.069546 55.065491
2.162546 17.22361 53.820427
2.159445 21.114616 52.537994
2.099787 22.240517 50.052246
2.172096 24.967953 51.046455
2.037279 35.320629 48.236816
2.244421 32.465771 47.506378
2.307301 36.039909 45.493301
2.453812 36.760677 42.887341
2.56027 48.323059 35.94429
2.584917 47.832626 33.626678
2.577557 50.884789 33.132088
2.616333 58.664848 26.435268
2.573288 55.480705 27.082943
2.004894 71.343124 24.798304
2.18099 68.231155 25.127579
2.428106 70.162079 21.592678
1.909058 32.007809 41.707867
1.275593 30.767635 71.481354
1.253292 34.796379 69.69503
2.087353 33.228546 71.719078
3.16984 35.437069 71.561592
4.493647 37.354443 71.019829
2.416553 15.547928 78.855377
1.635939 17.165924 77.311028
1.039501 18.650337 75.500771
0.644295 20.00034 73.43161
1.176409 22.702255 74.392761
1.253576 26.738327 73.050018
2.746731 77.1483 33.768036
2.261368 77.643051 30.61454
3.219259 79.445755 29.980709
10.933588 14.358925 79.307739
11.486448 17.940186 77.746994
12.653589 15.302578 77.73188
14.229349 15.987453 75.884239
15.657749 16.432846 73.822227
19.801693 10.611893 68.600655
21.165434 10.561068 66.704071
21.762115 13.558022 65.273872
22.416473 16.57095 63.973175
23.108461 19.594158 62.762321
10.241085 10.722414 80.728264
1.685608 38.315956 48.934769
1.719116 41.920467 46.595215
1.26016 41.425499 49.598061
0.831142 44.612198 50.220215
0.462111 47.829971 50.785904
1.075321 50.814468 60.47287
0.487509 52.192329 57.765228
1.093756 54.70211 57.670006
1.159807 58.481178 54.682663
1.278566 62.115013 51.522934
1.453241 65.569328 48.206039
2.23502 64.078056 50.963875
3.486149 65.5886 50.120918
5.004417 66.620178 49.019653
12.577547 31.817806 70.321358
11.009604 34.706966 70.069969
12.670568 35.213135 68.215256
12.730518 38.582809 66.007065
12.775925 41.917568 63.688515
18.162968 47.152306 53.173958
16.393034 47.684311 54.851555
16.621717 50.561508 52.365982
15.05685 54.028259 51.495529
13.464886 57.499702 50.502754
11.851873 60.912766 49.330734
13.813232 60.294563 47.657761
14.25176 62.955437 44.789757
14.774542 65.470032 41.904686
15.367616 67.824295 38.995811
16.811867 64.385834 40.669533
18.814209 63.174522 39.608253
2.187984 3.201746 60.453583
2.070892 7.204199 60.123657
0.798374 24.273808 63.206291
1.17679 21.193748 61.752731
1.105721 25.166641 60.398338
1.440466 26.039993 57.58242
1.76129 26.917137 54.791275
2.027197 27.818504 52.047157
1.714849 30.783813 53.042198
1.686142 34.592754 51.08699
2.122238 54.584854 35.555584
2.463554 54.028786 32.738937
2.257896 57.230965 32.43927
2.399332 59.656036 29.217279
2.544468 61.860199 25.910717
0.328669 35.37114 61.011864
0.245722 39.363003 58.894043
0.180542 38.449158 61.895744
0.234343 41.430344 62.566132
0.530289 44.253548 62.974823
1.20307 38.825642 67.69709
1.144325 42.849472 65.491661
1.096266 46.853447 63.082169
1.944269 49.165863 62.861267
3.067148 51.133034 62.299896
4.435669 52.71051 61.403206
18.667599 32.060112 62.224419
17.356197 35.299118 62.097694
18.929943 35.067181 60.246078
19.178932 38.043812 58.212929
19.426823 40.974308 56.121582
22.719223 37.567101 55.737083
21.20713 40.643757 54.820427
19.688919 43.839359 53.976334
19.980961 46.618828 51.78759
20.316456 49.293602 49.567886
20.704464 51.846451 47.326485
21.147865 54.26255 45.064259
22.655441 51.153809 46.50927
0.477753 7.090767 69.087181
0.877176 8.158237 66.728699
0.535675 11.197704 68.687355
0.573965 15.268108 68.035545
0.583677 19.31076 67.12664
0.447689 21.221428 71.125931
0.429998 22.326637 68.620811
0.559599 23.335911 65.963692
0.502487 27.352257 64.552826
0.420523 31.364471 62.900291
1.043821 67.357948 35.256653
1.456352 66.860512 31.894958
1.316776 69.923416 31.716145
1.616636 72.24424 28.108595
1.936787 74.331482 24.455904
2.043129 77.618652 27.358891
5.591736 23.634079 77.452858
5.802938 27.481503 75.856758
7.27578 25.266537 76.660332
9.023312 26.607719 75.513756
10.761009 27.650688 74.05619
11.908432 21.468868 76.054703
12.216898 24.952026 74.24501
12.432884 28.398884 72.331329
14.011433 28.869453 70.392166
15.502565 29.095924 68.312317
16.942024 29.128677 66.192612
16.510166 13.483963 73.423676
16.972679 16.671535 71.628555
19.024078 13.675346 68.999794
18.235764 16.74894 69.415001
17.378489 19.813347 69.795357
17.743103 22.915058 67.936752
18.07683 25.985226 66.058571
18.384342 29.032093 64.157768
19.887541 28.877857 62.341087
21.498283 28.735195 60.860153
23.241646 28.660175 59.79055
4.88039 15.864918 80.120773
5.286676 19.764374 78.877655
2.562574 40.332699 38.572224
2.577297 42.734825 36.5564
2.617897 42.78833 38.614655
2.521286 45.57756 38.581291
2.301838 48.581322 38.548622
1.78607 45.373207 44.077675
1.880636 48.646484 41.391006
1.994972 51.721024 38.545586
1.642189 54.939362 38.57819
1.290098 58.186142 38.635605
0.990707 61.408211 38.692047
0.189968 43.321728 56.555695
0.175243 47.220024 54.008835
0.208895 51.023262 51.268356
0.17602 53.295372 54.793694
0.121397 54.126183 51.629425
0.292082 54.692787 48.350967
0.421743 58.190231 45.273865
0.5931 61.481972 42.054192
0.801617 64.542786 38.709137
0.784437 67.515022 38.64061
1.000433 70.24044 38.439743
1.503586 72.632301 38.068718
1.6861 68.81559 44.750183
1.978855 71.833466 41.176384
2.332449 74.611931 37.507706
3.50342 76.118874 36.76075
5.002302 77.119713 35.857311
6.786898 77.611862 34.847549
5.932035 31.314053 74.099373
5.994701 35.136841 72.186684
6.009651 38.950165 70.119102
9.349268 37.512413 69.60569
7.655149 40.203815 68.89241
5.997448 42.747475 67.892151
5.979113 46.514709 65.498856
5.974955 50.231033 62.933182
6.003792 53.871338 60.193588
15.94588 38.586143 61.92482
14.433735 41.898666 61.660088
12.82618 45.202385 61.253883
14.646999 48.13549 56.731659
12.901358 48.419296 58.704178
11.143629 48.454559 60.657043
9.422749 51.607231 59.823311
7.715212 54.609543 58.711006
6.082407 57.409424 57.285454
6.225077 60.820129 54.221771
6.443184 64.081299 51.022308
6.744596 67.174599 47.710915
10.23621 64.197639 47.930511
8.649172 67.280411 46.265045
7.133026 70.08548 44.31234
7.607536 72.80246 40.848877
8.162836 75.316193 37.337715
1.730904 7.916204 52.222588
1.698723 11.847456 51.404388
1.297089 9.180832 64.333923
1.683733 10.18033 61.931
1.987047 11.182791 59.544067
1.573696 18.141697 60.242134
1.923605 15.142487 58.712585
2.165201 12.21645 57.190094
2.188133 13.308918 54.876419
2.040384 14.483799 52.599815
1.723057 15.757004 50.347252
1.789362 19.633942 49.070374
2.00865 27.207619 45.962852
2.199638 28.761868 49.363327
2.246954 29.763165 46.746307
2.150347 30.838448 44.19696
2.303936 34.296738 42.344112
2.452288 37.50079 40.455223
2.485762 44.916103 34.230209
2.330635 47.066841 31.618816
2.579599 53.272285 30.168293
2.410574 52.310966 27.869816
1.936798 66.075897 28.619385
2.38341 65.056602 25.485489
2.689939 63.846313 22.54002
2.829378 65.618317 19.124384
2.762529 62.473618 19.820377
2.366531 41.405147 35.918005
2.250078 40.055292 36.463743
2.250078 40.055292 36.463743
2.18736 38.898712 37.147674
2.371375 39.474333 37.543504
0.821348 12.003145 48.742821
0.811315 10.036634 49.218163
1.16741 11.264976 49.752289
0.864214 1.984326 67.002167
0.638331 3.4991 68.118675
1.123431 2.542511 65.89901
1.122184 0.472137 65.917389
0.864214 1.984326 67.002167
24.431354 43.042338 51.744229
24.237736 41.708296 52.659401
23.625313 44.449641 51.00972
24.431354 43.042338 51.744229
18.915594 9.107781 70.518483
18.277499 9.074844 71.609489
2.627378 59.087352 23.530064
2.589929 58.083134 25.169563
2.653783 59.669067 24.795769
2.621591 59.999885 21.905323
2.627378 59.087352 23.530064
2.360171 71.703087 21.391038
2.2165 70.752601 23.195491
2.148565 72.29361 22.993851
1.829603 34.316469 39.588503
1.725307 32.653742 40.481087
2.013354 33.670536 40.815283
3.07914 16.662951 78.974625
2.880683 14.674378 79.49731
3.54327 15.7894 79.616558
21.623019 9.057182 66.617531
20.899631 9.075946 67.494335
22.556128 13.536467 64.612804
22.216399 12.034872 65.208805
23.010412 12.013317 64.547737
23.724964 15.032415 63.430419
23.258131 16.560434 63.441139
22.883306 15.042931 63.962455
11.132744 11.251202 80.007999
10.749866 9.461729 80.721604
11.641526 9.990517 80.001339
20.499994 60.844898 39.967945
19.800019 62.535564 39.166362
19.514185 61.483856 40.409835
23.679939 37.523516 55.406341
23.468446 36.079792 56.235721
0.207792 8.033857 71.222942
0.133778 7.447465 72.354908
0.191166 9.519122 72.197433
0.371466 8.598141 70.076324
0.314078 6.526483 70.233799
0.207792 8.033857 71.222942
17.142443 13.564818 72.307061
16.894125 11.996111 73.191185
17.526402 12.076966 72.074569
23.458755 21.109468 62.175815
23.997873 19.600979 62.356021
5.753569 11.884166 81.445515
6.343602 10.80687 81.728878
6.659294 12.751165 81.191749
5.219831 12.879278 81.042453
5.753569 11.884166 81.445515
5.474826 14.84669 80.514579
4.625395 13.897506 80.648647
5.219831 12.879278 81.042453
9.521492 76.311882 34.982872
8.476498 76.467038 35.5639
9.207831 75.161037 36.756687
10.5911 76.09275 34.457773
9.521492 76.311882 34.982872
16.716271 68.304355 36.975307
15.689896 68.913826 37.521175
16.39399 67.214825 38.449944
22.380031 54.982403 43.553881
21.395224 55.396523 43.917463
22.132671 53.84843 44.700676
2.658879 -1.107295 57.592434
2.66551 -1.702786 58.523445
2.398764 0.695312 54.761032
2.520008 0.088494 55.714764
2.40844 2.07323 55.614955
2.153625 1.340406 53.890285
2.398764 0.695312 54.761032
2.060822 3.323791 53.726867
2.153625 1.340406 53.890285
2.02544 24.752432 48.040543
1.993266 22.850195 48.82563
2.131961 24.142754 49.267158
2.086392 26.626305 47.222461
1.947697 25.333746 46.780933
2.02544 24.752432 48.040543
2.324142 49.647755 29.81581
2.235718 48.111199 30.212768
2.419059 48.603397 31.221857
2.358097 53.318398 26.334653
2.491931 53.895836 27.47638
2.439454 54.903267 25.941216
2.173252 51.724213 26.86104
2.358097 53.318398 26.334653
2.826554 64.84156 17.784945
2.890804 66.399098 17.402905
2.79313 63.269211 18.132941
2.795953 64.045968 19.47238
2.826554 64.84156 17.784945
2.649417 61.711258 18.587043
2.79313 63.269211 18.132941
2.059608 37.430518 37.894476
1.964104 35.938272 38.742108
2.213153 36.825508 39.075068
2.059608 37.430518 37.894476
2.18736 38.898712 37.147674
4.262586 79.652378 31.116641
4.775597 78.997154 32.570442
13.327194 10.850886 78.333492
12.84725 12.181121 78.421245
12.504347 10.449753 79.199982
14.112925 11.189498 77.39946
13.327194 10.850886 78.333492
14.857422 11.469355 76.410695
14.414594 12.862111 76.56599
14.112925 11.189498 77.39946
23.846243 12.011015 63.966381
23.010412 12.013317 64.547737
24.228611 13.5248 63.502491
23.846243 12.011015 63.966381
12.504347 10.449753 79.199982
11.641526 9.990517 80.001339
0.809142 8.052566 49.642952
1.182832 7.320539 50.581776
0.809142 8.052566 49.642952
0.811315 10.036634 49.218163
1.420171 -1.031652 64.776581
1.122184 0.472137 65.917389
1.675202 -0.462408 63.7192
1.420171 -1.031652 64.776581
1.61197 1.575424 63.716938
1.905771 0.082695 62.621906
1.675202 -0.462408 63.7192
24.058089 40.338888 53.611999
23.859833 38.941925 54.485798
23.258657 41.773327 52.943398
24.058089 40.338888 53.611999
24.237736 41.708296 52.659401
22.837677 45.949993 50.384716
22.650669 44.643088 51.365795
23.625313 44.449641 51.00972
23.02507 47.237915 49.335247
22.050427 47.431362 49.691322
22.837677 45.949993 50.384716
23.225492 48.470982 48.328034
23.02507 47.237915 49.335247
0.71765 12.517285 76.682915
1.100883 13.836004 77.25909
0.466359 11.138838 76.008255
0.71765 12.517285 76.682915
0.592102 13.194398 75.693603
0.231191 9.742981 75.234349
0.466359 11.138838 76.008255
0.228982 10.374341 74.174171
0.119362 8.30137 74.389576
0.231191 9.742981 75.234349
2.588953 79.699066 25.202427
2.95809 80.750858 24.915848
17.90352 10.560277 71.843368
18.277499 9.074844 71.609489
18.151838 12.128984 70.959244
17.526402 12.076966 72.074569
17.90352 10.560277 71.843368
8.179301 12.411452 81.022042
7.811189 10.539973 81.655934
8.741162 11.277557 81.202862
12.087078 73.181236 36.685148
11.333867 74.656475 35.612662
11.006036 73.530643 37.248146
13.157893 72.733696 36.090888
12.087078 73.181236 36.685148
12.830062 71.607865 37.726372
14.239402 72.220616 35.56477
13.157893 72.733696 36.090888
18.742854 66.954059 36.019345
17.742059 67.628189 36.491486
18.421158 65.931225 37.431934
2.568406 56.491062 25.4934
2.59481 57.072777 26.759106
2.589929 58.083134 25.169563
2.439454 54.903267 25.941216
2.568406 56.491062 25.4934
1.594871 30.917845 41.357115
1.808466 30.236924 42.592577
1.594871 30.917845 41.357115
1.725307 32.653742 40.481087
1.829603 34.316469 39.588503
1.964104 35.938272 38.742108
23.985751 33.117989 57.518795
24.719972 31.66618 58.048226
2.229538 13.525762 79.271591
2.880683 14.674378 79.49731
1.887463 14.323546 78.502647
2.229538 13.525762 79.271591
1.497157 15.132544 77.730473
1.887463 14.323546 78.502647
2.026246 16.356926 78.083202
1.239666 15.869384 76.839645
1.100883 13.836004 77.25909
1.497157 15.132544 77.730473
3.877845 80.099022 29.602079
3.604 78.999111 31.495272
4.262586 79.652378 31.116641
3.481671 80.477955 28.07402
3.877845 80.099022 29.602079
3.228638 80.650352 26.493961
2.966227 79.618153 28.40065
3.481671 80.477955 28.07402
2.95809 80.750858 24.915848
3.228638 80.650352 26.493961
20.21776 9.101358 68.442627
19.551963 9.107579 69.454789
20.483564 10.586481 67.652363
20.21776 9.101358 68.442627
20.899631 9.075946 67.494335
21.918059 10.536396 65.923904
21.623019 9.057182 66.617531
21.463774 12.059545 65.988971
21.918059 10.536396 65.923904
22.216399 12.034872 65.208805
23.604125 18.072038 62.835712
22.762467 18.082554 63.367748
23.258131 16.560434 63.441139
23.997873 19.600979 62.356021
23.604125 18.072038 62.835712
23.724964 15.032415 63.430419
24.228611 13.5248 63.502491
9.827156 8.878106 81.369552
10.749866 9.461729 80.721604
9.307068 10.064246 81.282509
9.827156 8.878106 81.369552
9.675179 11.935725 80.648617
8.741162 11.277557 81.202862
9.307068 10.064246 81.282509
19.118081 64.215809 38.284023
18.421158 65.931225 37.431934
18.117286 64.889938 38.756164
19.118081 64.215809 38.284023
19.800019 62.535564 39.166362
2.448053 -0.261458 59.540799
2.66551 -1.702786 58.523445
2.0958 0.646257 61.585312
1.905771 0.082695 62.621906
2.268522 1.186866 60.502282
2.0958 0.646257 61.585312
2.015262 2.661137 61.536614
2.367514 1.753422 59.4921
2.448053 -0.261458 59.540799
2.268522 1.186866 60.502282
0.857416 13.971493 48.201544
1.215666 15.182535 48.687742
23.280451 34.626482 57.121724
23.048531 33.151987 57.906159
23.985751 33.117989 57.518795
22.531227 36.113791 56.623085
23.280451 34.626482 57.121724
23.468446 36.079792 56.235721
22.899116 38.98551 54.816539
23.679939 37.523516 55.406341
23.859833 38.941925 54.485798
22.886459 52.29406 45.423181
22.132671 53.84843 44.700676
21.901653 52.708179 45.786765
23.434302 49.688244 47.261742
22.44663 49.936547 47.575561
23.225492 48.470982 48.328034
23.651832 50.8396 46.227711
23.434302 49.688244 47.261742
22.886459 52.29406 45.423181
23.651832 50.8396 46.227711
0.02748 6.847433 73.455421
0.119362 8.30137 74.389576
0.02748 6.847433 73.455421
0.133778 7.447465 72.354908
0.444477 5.017133 69.170372
0.314078 6.526483 70.233799
0.671607 5.572734 68.035484
0.638331 3.4991 68.118675
0.444477 5.017133 69.170372
2.114511 73.787789 22.822651
2.148565 72.29361 22.993851
1.97084 72.837303 24.627104
2.25392 78.613117 25.471577
2.378162 78.704601 27.089741
2.588953 79.699066 25.202427
2.053222 77.36771 25.710031
2.25392 78.613117 25.471577
1.88065 76.095081 25.921458
1.870557 76.346024 27.570318
2.053222 77.36771 25.710031
2.00005 75.724125 24.258538
1.817386 74.702438 26.118824
1.88065 76.095081 25.921458
2.101487 75.265125 22.617662
2.00005 75.724125 24.258538
2.114511 73.787789 22.822651
2.101487 75.265125 22.617662
15.566897 11.695975 75.371796
14.857422 11.469355 76.410695
16.242434 11.866972 74.295021
16.894125 11.996111 73.191185
15.834629 13.312966 74.50045
15.566897 11.695975 75.371796
16.242434 11.866972 74.295021
19.165324 10.612094 69.664349
18.915594 9.107781 70.518483
19.551963 9.107579 69.454789
22.95104 22.641489 62.100655
22.600745 21.126179 62.687161
23.458755 21.109468 62.175815
23.246356 24.143249 61.402862
22.388345 24.159959 61.914208
22.95104 22.641489 62.100655
23.585444 25.660236 60.807972
23.246356 24.143249 61.402862
23.864436 27.159464 60.095039
22.962654 27.160947 60.503483
23.585444 25.660236 60.807972
24.179641 28.673243 59.467987
23.864436 27.159464 60.095039
24.435734 30.164902 58.724327
23.497739 30.151834 59.04689
24.179641 28.673243 59.467987
25.401874 30.187588 58.469323
24.719972 31.66618 58.048226
24.435734 30.164902 58.724327
6.873054 9.7537 82.023712
7.811189 10.539973 81.655934
6.873054 9.7537 82.023712
6.343602 10.80687 81.728878
4.112602 14.832873 80.130009
4.625395 13.897506 80.648647
4.311058 16.821445 79.607323
3.54327 15.7894 79.616558
4.112602 14.832873 80.130009
0.821348 12.003145 48.742821
0.857416 13.971493 48.201544
5.282378 78.280777 33.99418
4.775597 78.997154 32.570442
4.495522 77.83609 34.433572
6.174676 78.526851 33.4893
5.282378 78.280777 33.99418
5.8946 77.365788 35.35243
7.102308 78.713734 33.01438
6.174676 78.526851 33.4893
7.788528 77.614872 34.318817
7.474867 76.464028 36.092632
8.476498 76.467038 35.5639
7.102308 78.713734 33.01438
7.788528 77.614872 34.318817
10.5911 76.09275 34.457773
11.333867 74.656475 35.612662
14.956527 70.58184 36.589325
14.634246 69.49231 38.063961
15.689896 68.913826 37.521175
14.239402 72.220616 35.56477
14.956527 70.58184 36.589325
16.716271 68.304355 36.975307
17.742059 67.628189 36.491486
20.662633 57.032677 43.207785
20.415273 55.898704 44.35458
21.395224 55.396523 43.917463
20.928373 58.161843 41.991043
19.948422 58.664024 42.428159
20.662633 57.032677 43.207785
21.196424 59.218769 40.818168
20.928373 58.161843 41.991043
20.499994 60.844898 39.967945
21.196424 59.218769 40.818168
2.650199 -0.526638 56.611469
2.658879 -1.107295 57.592434
2.538365 0.885755 57.549652
2.650199 -0.526638 56.611469
2.520008 0.088494 55.714764
1.987866 5.299112 53.507851
2.060822 3.323791 53.726867
2.214239 4.655369 54.442207
1.782676 5.941868 52.507549
1.987866 5.299112 53.507851
1.936094 7.273447 53.222889
1.469595 6.629409 51.579255
1.782676 5.941868 52.507549
1.444141 8.607335 51.22511
1.182832 7.320539 50.581776
1.469595 6.629409 51.579255
1.488472 16.445294 49.222894
1.215666 15.182535 48.687742
1.450251 14.494245 49.8121
1.521624 18.383763 48.584456
1.488472 16.445294 49.222894
1.756209 17.695473 49.708813
1.581463 20.31193 47.893599
1.521624 18.383763 48.584456
1.838053 21.546908 48.334694
1.944574 20.93723 49.56131
1.993266 22.850195 48.82563
1.581463 20.31193 47.893599
1.838053 21.546908 48.334694
1.767843 25.992844 45.563144
1.947697 25.333746 46.780933
1.858262 27.836829 44.720069
1.767843 25.992844 45.563144
1.92911 29.652243 43.837123
1.858262 27.836829 44.720069
2.079498 29.023034 45.079906
2.029702 31.423129 42.952413
1.808466 30.236924 42.592577
1.92911 29.652243 43.837123
2.438133 42.457104 35.766419
2.366531 41.405147 35.918005
2.505695 41.682869 36.707986
2.392365 43.547742 34.603323
2.438133 42.457104 35.766419
2.531529 43.825464 35.393304
2.277524 44.48708 33.401043
2.392365 43.547742 34.603323
2.19996 45.562449 32.095346
2.277524 44.48708 33.401043
2.408199 45.991472 32.924512
2.059817 46.538071 30.761375
2.19996 45.562449 32.095346
2.059817 46.538071 30.761375
2.235718 48.111199 30.212768
2.275688 50.733261 28.338268
2.324142 49.647755 29.81581
2.459029 51.22546 29.347357
2.275688 50.733261 28.338268
2.173252 51.724213 26.86104
2.546955 71.020809 19.81342
2.360171 71.703087 21.391038
2.47902 72.561817 19.611781
2.603422 69.460991 20.066508
2.546955 71.020809 19.81342
2.681966 67.887921 20.285115
2.50665 68.589009 21.811286
2.603422 69.460991 20.066508
2.804058 67.18911 18.832361
2.890804 66.399098 17.402905
2.707286 66.317127 20.577139
2.681966 67.887921 20.285115
2.804058 67.18911 18.832361
2.657239 60.900052 20.237377
2.621591 59.999885 21.905323
2.726881 61.573452 21.488323
2.657239 60.900052 20.237377
2.649417 61.711258 18.587043
3 0 506 507
3 0 508 510
3 510 509 129
3 508 509 510
3 1 132 130
3 1 135 133
3 1 130 135
3 3 511 513
3 513 512 138
3 511 512 513
3 4 141 139
3 6 144 142
3 6 146 144
3 2 149 147
3 7 152 150
3 7 154 152
3 7 156 154
3 8 514 515
3 8 516 518
3 516 157 517
3 516 517 518
3 8 159 157
3 4 162 160
3 4 139 162
3 5 166 164
3 9 169 167
3 11 172 170
3 11 174 172
3 12 177 175
3 519 179 520
3 522 521 179
3 14 182 181
3 14 184 182
3 14 186 184
3 9 189 187
3 9 167 189
3 16 193 191
3 17 196 194
3 19 199 197
3 19 201 199
3 523 202 524
3 20 205 203
3 20 207 205
3 20 209 207
3 17 212 210
3 17 194 212
3 21 216 214
3 23 219 217
3 23 221 219
3 10 224 222
3 24 227 225
3 24 229 227
3 24 231 229
3 25 234 232
3 25 236 234
3 18 239 237
3 26 242 240
3 26 244 242
3 13 247 245
3 27 250 248
3 27 252 250
3 27 254 252
3 28 257 255
3 28 259 257
3 28 260 259
3 29 263 261
3 29 265 263
3 15 268 266
3 30 271 269
3 30 273 271
3 30 275 273
3 21 278 276
3 21 214 278
3 22 282 280
3 31 525 527
3 527 526 283
3 525 526 527
3 31 528 529
3 530 287 531
3 532 531 285
3 530 531 532
3 32 533 535
3 535 534 288
3 533 534 535
3 33 291 289
3 35 292 131
3 35 293 292
3 36 536 538
3 536 294 537
3 536 537 538
3 37 295 134
3 37 296 295
3 37 298 296
3 33 299 136
3 33 289 299
3 39 302 300
3 41 305 303
3 43 306 137
3 43 307 306
3 539 309 540
3 45 541 543
3 541 310 542
3 541 542 543
3 45 311 310
3 45 544 546
3 546 545 311
3 544 545 546
3 41 547 549
3 547 313 548
3 547 548 549
3 41 303 313
3 46 316 314
3 48 317 140
3 48 318 317
3 49 321 319
3 51 322 143
3 51 323 322
3 51 325 323
3 53 326 145
3 53 327 326
3 54 330 328
3 56 331 148
3 56 332 331
3 57 335 333
3 59 336 151
3 59 337 336
3 59 339 337
3 61 340 153
3 61 341 340
3 61 343 341
3 63 344 155
3 63 550 552
3 552 551 344
3 550 551 552
3 65 345 158
3 65 346 345
3 66 349 347
3 68 350 161
3 68 351 350
3 68 353 351
3 46 354 163
3 46 314 354
3 70 357 355
3 72 358 165
3 72 359 358
3 73 362 360
3 75 363 168
3 75 364 363
3 34 365 290
3 76 366 171
3 76 367 366
3 76 368 367
3 77 369 173
3 77 370 369
3 78 373 371
3 80 374 176
3 80 375 374
3 553 376 554
3 81 377 178
3 81 378 377
3 81 379 378
3 82 380 180
3 82 381 380
3 82 383 381
3 83 555 557
3 557 556 183
3 555 556 557
3 83 558 560
3 558 384 559
3 558 559 560
3 83 386 384
3 85 387 185
3 85 388 387
3 38 389 297
3 86 390 188
3 86 391 390
3 86 392 391
3 73 393 190
3 73 360 393
3 87 396 394
3 89 397 192
3 89 398 397
3 40 399 301
3 90 402 400
3 92 403 195
3 92 404 403
3 42 405 304
3 93 406 198
3 93 407 406
3 93 408 407
3 94 409 200
3 94 410 409
3 95 561 563
3 561 411 562
3 561 562 563
3 95 412 411
3 44 413 308
3 96 414 204
3 96 415 414
3 96 416 415
3 97 417 206
3 97 418 417
3 97 419 418
3 98 420 208
3 98 421 420
3 565 564 312
3 99 566 568
3 568 567 211
3 566 567 568
3 99 569 570
3 99 571 573
3 571 422 572
3 571 572 573
3 90 423 213
3 90 400 423
3 100 426 424
3 102 427 215
3 102 428 427
3 47 429 315
3 103 430 218
3 103 431 430
3 103 432 431
3 104 433 220
3 104 434 433
3 74 435 361
3 105 436 223
3 105 437 436
3 50 438 320
3 106 439 226
3 106 440 439
3 106 441 440
3 107 442 228
3 107 443 442
3 107 444 443
3 108 445 230
3 108 446 445
3 52 447 324
3 109 448 233
3 109 449 448
3 109 450 449
3 110 451 235
3 110 452 451
3 91 453 401
3 111 454 238
3 111 455 454
3 55 456 329
3 112 457 241
3 112 458 457
3 112 459 458
3 113 460 243
3 113 461 460
3 79 462 372
3 114 463 246
3 114 464 463
3 58 465 334
3 115 466 249
3 115 467 466
3 115 468 467
3 116 469 251
3 116 470 469
3 116 471 470
3 117 472 253
3 117 473 472
3 60 474 338
3 118 475 256
3 118 476 475
3 118 477 476
3 119 478 258
3 119 574 576
3 576 575 478
3 574 575 576
3 119 577 578
3 62 579 581
3 581 580 342
3 579 580 581
3 584 583 382
3 582 583 584
3 64 585 586
3 120 587 589
3 589 588 262
3 587 588 589
3 120 590 591
3 120 592 593
3 121 479 264
3 121 480 479
3 84 481 385
3 122 482 267
3 122 483 482
3 67 484 348
3 123 485 270
3 123 486 485
3 123 487 486
3 124 488 272
3 124 489 488
3 124 490 489
3 125 594 596
3 596 595 274
3 594 595 596
3 125 597 599
3 597 491 598
3 597 598 599
3 69 492 352
3 126 493 277
3 126 494 493
3 126 495 494
3 100 496 279
3 100 424 496
3 101 497 425
3 127 498 281
3 127 600 602
3 602 601 498
3 600 601 602
3 71 499 356
3 603 500 604
3 605 604 284
3 603 604 605
3 607 606 500
3 88 501 395
3 128 502 286
3 128 503 502
3 608 504 609
3 610 505 611
3 612 611 504
3 610 611 612
3 614 613 505
3 129 615 617
3 617 616 32
3 615 616 617
3 619 618 129
3 130 131 33
3 132 131 130
3 132 35 131
3 133 134 36
3 135 134 133
3 135 37 134
3 135 136 37
3 130 136 135
3 130 33 136
3 621 620 39
3 622 137 623
3 624 623 41
3 622 623 624
3 625 137 626
3 627 43 628
3 629 628 137
3 627 628 629
3 630 45 631
3 633 632 45
3 634 41 635
3 138 636 637
3 639 638 138
3 139 140 46
3 141 140 139
3 141 48 140
3 142 143 49
3 144 143 142
3 144 51 143
3 144 145 51
3 146 145 144
3 146 53 145
3 147 148 54
3 149 148 147
3 149 56 148
3 150 151 57
3 152 151 150
3 152 59 151
3 152 153 59
3 154 153 152
3 154 61 153
3 154 155 61
3 156 155 154
3 156 63 155
3 157 640 641
3 157 642 643
3 157 644 646
3 644 158 645
3 644 645 646
3 159 158 157
3 159 65 158
3 160 161 66
3 162 161 160
3 162 68 161
3 162 163 68
3 139 163 162
3 139 46 163
3 164 165 70
3 166 165 164
3 166 72 165
3 167 168 73
3 169 168 167
3 169 75 168
3 170 171 34
3 172 171 170
3 172 76 171
3 172 173 76
3 174 173 172
3 174 77 173
3 175 176 78
3 177 176 175
3 177 80 176
3 647 178 648
3 179 649 651
3 649 178 650
3 649 650 651
3 179 81 178
3 179 180 81
3 652 180 653
3 654 653 179
3 652 653 654
3 655 82 656
3 657 656 180
3 655 656 657
3 659 658 82
3 181 660 661
3 182 662 664
3 664 663 181
3 662 663 664
3 182 665 666
3 182 667 669
3 667 183 668
3 667 668 669
3 184 183 182
3 184 83 183
3 184 185 83
3 186 185 184
3 186 85 185
3 187 188 38
3 189 188 187
3 189 86 188
3 189 190 86
3 167 190 189
3 167 73 190
3 191 192 87
3 193 192 191
3 193 89 192
3 671 670 40
3 194 195 90
3 196 195 194
3 196 92 195
3 197 198 42
3 199 198 197
3 199 93 198
3 199 200 93
3 201 200 199
3 201 94 200
3 202 672 673
3 202 674 676
3 674 95 675
3 674 675 676
3 203 204 44
3 205 204 203
3 205 96 204
3 205 206 96
3 207 206 205
3 207 97 206
3 207 208 97
3 209 208 207
3 209 98 208
3 210 677 679
3 677 211 678
3 677 678 679
3 212 211 210
3 212 99 211
3 212 213 99
3 194 213 212
3 194 90 213
3 214 215 100
3 216 215 214
3 216 102 215
3 217 218 47
3 219 218 217
3 219 103 218
3 219 220 103
3 221 220 219
3 221 104 220
3 222 223 74
3 224 223 222
3 224 105 223
3 225 226 50
3 227 226 225
3 227 106 226
3 227 228 106
3 229 228 227
3 229 107 228
3 229 230 107
3 231 230 229
3 231 108 230
3 232 233 52
3 234 233 232
3 234 109 233
3 234 235 109
3 236 235 234
3 236 110 235
3 237 238 91
3 239 238 237
3 239 111 238
3 240 241 55
3 242 241 240
3 242 112 241
3 242 243 112
3 244 243 242
3 244 113 243
3 245 246 79
3 247 246 245
3 247 114 246
3 248 249 58
3 250 249 248
3 250 115 249
3 250 251 115
3 252 251 250
3 252 116 251
3 252 253 116
3 254 253 252
3 254 117 253
3 255 256 60
3 257 256 255
3 257 118 256
3 257 258 118
3 259 258 257
3 259 119 258
3 259 680 682
3 682 681 119
3 680 681 682
3 260 683 685
3 685 684 259
3 683 684 685
3 260 686 687
3 690 689 62
3 688 689 690
3 261 262 64
3 263 262 261
3 263 120 262
3 263 264 120
3 265 264 263
3 265 121 264
3 266 267 84
3 268 267 266
3 268 122 267
3 269 270 67
3 271 270 269
3 271 123 270
3 271 272 123
3 273 272 271
3 273 124 272
3 273 274 124
3 275 274 273
3 275 125 274
3 276 277 69
3 278 277 276
3 278 126 277
3 278 279 126
3 214 279 278
3 214 100 279
3 280 281 101
3 282 281 280
3 282 127 281
3 283 284 71
3 691 284 692
3 693 692 283
3 691 692 693
3 695 694 284
3 285 286 88
3 287 286 285
3 287 128 286
3 288 696 697
3 699 698 288
3 701 700 32
3 289 290 9
3 291 290 289
3 291 34 290
3 131 291 33
3 292 291 131
3 292 34 291
3 292 170 34
3 293 170 292
3 293 11 170
3 703 702 12
3 294 704 705
3 294 706 707
3 134 294 36
3 295 294 134
3 295 708 710
3 710 709 294
3 708 709 710
3 295 711 713
3 711 181 712
3 711 712 713
3 296 181 295
3 296 14 181
3 296 297 14
3 298 297 296
3 298 38 297
3 136 298 37
3 299 298 136
3 299 38 298
3 299 187 38
3 289 187 299
3 289 9 187
3 300 301 16
3 302 301 300
3 302 40 301
3 714 302 715
3 716 715 39
3 714 715 716
3 717 302 718
3 719 40 720
3 721 720 302
3 719 720 721
3 723 722 40
3 303 304 17
3 305 304 303
3 305 42 304
3 137 305 41
3 306 305 137
3 306 42 305
3 306 197 42
3 307 197 306
3 307 19 197
3 724 308 725
3 309 726 728
3 726 308 727
3 726 727 728
3 309 44 308
3 729 309 730
3 310 731 733
3 731 309 732
3 731 732 733
3 310 44 309
3 310 203 44
3 311 203 310
3 311 20 203
3 311 312 20
3 734 312 735
3 736 735 311
3 734 735 736
3 738 737 312
3 740 739 45
3 313 741 742
3 313 743 744
3 313 745 747
3 745 210 746
3 745 746 747
3 303 210 313
3 303 17 210
3 314 315 21
3 316 315 314
3 316 47 315
3 140 316 46
3 317 316 140
3 317 47 316
3 317 217 47
3 318 217 317
3 318 23 217
3 319 320 10
3 321 320 319
3 321 50 320
3 143 321 49
3 322 321 143
3 322 50 321
3 322 225 50
3 323 225 322
3 323 24 225
3 323 324 24
3 325 324 323
3 325 52 324
3 145 325 51
3 326 325 145
3 326 52 325
3 326 232 52
3 327 232 326
3 327 25 232
3 328 329 18
3 330 329 328
3 330 55 329
3 148 330 54
3 331 330 148
3 331 55 330
3 331 240 55
3 332 240 331
3 332 26 240
3 333 334 13
3 335 334 333
3 335 58 334
3 151 335 57
3 336 335 151
3 336 58 335
3 336 248 58
3 337 248 336
3 337 27 248
3 337 338 27
3 339 338 337
3 339 60 338
3 153 339 59
3 340 339 153
3 340 60 339
3 340 255 60
3 341 255 340
3 341 28 255
3 341 342 28
3 343 342 341
3 343 62 342
3 155 343 61
3 344 343 155
3 344 62 343
3 344 748 750
3 750 749 62
3 748 749 750
3 752 751 344
3 753 64 754
3 158 755 756
3 345 757 759
3 759 758 158
3 757 758 759
3 345 760 762
3 760 64 761
3 760 761 762
3 345 261 64
3 346 261 345
3 346 29 261
3 347 348 15
3 349 348 347
3 349 67 348
3 161 349 66
3 350 349 161
3 350 67 349
3 350 269 67
3 351 269 350
3 351 30 269
3 351 352 30
3 353 352 351
3 353 69 352
3 163 353 68
3 354 353 163
3 354 69 353
3 354 276 69
3 314 276 354
3 314 21 276
3 355 356 22
3 357 356 355
3 357 71 356
3 165 357 70
3 358 357 165
3 358 71 357
3 358 283 71
3 359 283 358
3 359 31 283
3 764 763 3
3 360 361 4
3 362 361 360
3 362 74 361
3 168 362 73
3 363 362 168
3 363 74 362
3 363 222 74
3 364 222 363
3 364 10 222
3 290 169 9
3 365 169 290
3 365 75 169
3 171 365 34
3 366 365 171
3 366 75 365
3 366 364 75
3 367 364 366
3 367 10 364
3 367 319 10
3 368 319 367
3 368 49 319
3 173 368 76
3 369 368 173
3 369 49 368
3 369 142 49
3 370 142 369
3 370 6 142
3 371 372 2
3 373 372 371
3 373 79 372
3 176 373 78
3 374 373 176
3 374 79 373
3 374 245 79
3 375 245 374
3 375 13 245
3 765 177 766
3 767 766 12
3 765 766 767
3 376 768 770
3 768 177 769
3 768 769 770
3 376 80 177
3 178 771 773
3 771 376 772
3 771 772 773
3 377 376 178
3 377 80 376
3 377 375 80
3 378 375 377
3 378 13 375
3 378 333 13
3 379 333 378
3 379 57 333
3 180 379 81
3 380 379 180
3 380 57 379
3 380 150 57
3 381 150 380
3 381 7 150
3 381 382 7
3 383 382 381
3 383 774 776
3 776 775 382
3 774 775 776
3 777 383 778
3 779 778 82
3 777 778 779
3 780 383 781
3 783 782 383
3 183 784 785
3 787 786 183
3 384 788 789
3 384 790 792
3 790 8 791
3 790 791 792
3 384 385 8
3 386 385 384
3 386 84 385
3 185 386 83
3 387 386 185
3 387 84 386
3 387 266 84
3 388 266 387
3 388 15 266
3 297 186 14
3 389 186 297
3 389 85 186
3 188 389 38
3 390 389 188
3 390 85 389
3 390 388 85
3 391 388 390
3 391 15 388
3 391 347 15
3 392 347 391
3 392 66 347
3 190 392 86
3 393 392 190
3 393 66 392
3 393 160 66
3 360 160 393
3 360 4 160
3 394 395 5
3 396 395 394
3 396 88 395
3 192 396 87
3 397 396 192
3 397 88 396
3 397 285 88
3 398 285 397
3 398 793 795
3 795 794 285
3 793 794 795
3 301 193 16
3 399 193 301
3 399 89 193
3 796 399 797
3 798 797 40
3 796 797 798
3 799 399 800
3 801 89 802
3 803 802 399
3 801 802 803
3 804 398 805
3 806 805 89
3 804 805 806
3 807 398 808
3 810 809 398
3 400 401 1
3 402 401 400
3 402 91 401
3 195 402 90
3 403 402 195
3 403 91 402
3 403 237 91
3 404 237 403
3 404 18 237
3 304 196 17
3 405 196 304
3 405 92 196
3 198 405 42
3 406 405 198
3 406 92 405
3 406 404 92
3 407 404 406
3 407 18 404
3 407 328 18
3 408 328 407
3 408 54 328
3 200 408 93
3 409 408 200
3 409 54 408
3 409 147 54
3 410 147 409
3 410 2 147
3 811 43 812
3 411 813 814
3 411 815 817
3 815 43 816
3 815 816 817
3 411 307 43
3 412 307 411
3 412 19 307
3 308 818 820
3 818 202 819
3 818 819 820
3 413 202 308
3 413 95 202
3 204 413 44
3 414 413 204
3 414 95 413
3 414 412 95
3 415 412 414
3 415 19 412
3 415 201 19
3 416 201 415
3 416 94 201
3 206 416 96
3 417 416 206
3 417 94 416
3 417 410 94
3 418 410 417
3 418 2 410
3 418 371 2
3 419 371 418
3 419 78 371
3 208 419 97
3 420 419 208
3 420 78 419
3 420 175 78
3 421 175 420
3 421 12 175
3 312 209 20
3 821 209 822
3 823 822 312
3 821 822 823
3 824 98 825
3 826 825 209
3 824 825 826
3 827 98 828
3 829 421 830
3 831 830 98
3 829 830 831
3 832 421 833
3 834 12 835
3 836 835 421
3 834 835 836
3 839 838 12
3 837 838 839
3 211 840 841
3 843 842 211
3 422 844 845
3 422 846 848
3 846 36 847
3 846 847 848
3 213 422 99
3 423 422 213
3 423 36 422
3 423 133 36
3 400 133 423
3 400 1 133
3 850 849 3
3 424 425 0
3 426 425 424
3 426 101 425
3 215 426 100
3 427 426 215
3 427 101 426
3 427 280 101
3 428 280 427
3 428 22 280
3 315 216 21
3 429 216 315
3 429 102 216
3 218 429 47
3 430 429 218
3 430 102 429
3 430 428 102
3 431 428 430
3 431 22 428
3 431 355 22
3 432 355 431
3 432 70 355
3 220 432 103
3 433 432 220
3 433 70 432
3 433 164 70
3 434 164 433
3 434 5 164
3 361 141 4
3 435 141 361
3 435 48 141
3 223 435 74
3 436 435 223
3 436 48 435
3 436 318 48
3 437 318 436
3 437 23 318
3 320 224 10
3 438 224 320
3 438 105 224
3 226 438 50
3 439 438 226
3 439 105 438
3 439 437 105
3 440 437 439
3 440 23 437
3 440 221 23
3 441 221 440
3 441 104 221
3 228 441 106
3 442 441 228
3 442 104 441
3 442 434 104
3 443 434 442
3 443 5 434
3 443 394 5
3 444 394 443
3 444 87 394
3 230 444 107
3 445 444 230
3 445 87 444
3 445 191 87
3 446 191 445
3 446 16 191
3 324 231 24
3 447 231 324
3 447 108 231
3 233 447 52
3 448 447 233
3 448 108 447
3 448 446 108
3 449 446 448
3 449 16 446
3 449 300 16
3 450 300 449
3 450 39 300
3 235 450 109
3 451 450 235
3 451 39 450
3 451 851 853
3 853 852 39
3 851 852 853
3 452 854 856
3 856 855 451
3 854 855 856
3 452 857 858
3 401 132 1
3 453 132 401
3 453 35 132
3 238 453 91
3 454 453 238
3 454 35 453
3 454 293 35
3 455 293 454
3 455 11 293
3 329 239 18
3 456 239 329
3 456 111 239
3 241 456 55
3 457 456 241
3 457 111 456
3 457 455 111
3 458 455 457
3 458 11 455
3 458 174 11
3 459 174 458
3 459 77 174
3 243 459 112
3 460 459 243
3 460 77 459
3 460 370 77
3 461 370 460
3 461 6 370
3 372 149 2
3 462 149 372
3 462 56 149
3 246 462 79
3 463 462 246
3 463 56 462
3 463 332 56
3 464 332 463
3 464 26 332
3 334 247 13
3 465 247 334
3 465 114 247
3 249 465 58
3 466 465 249
3 466 114 465
3 466 464 114
3 467 464 466
3 467 26 464
3 467 244 26
3 468 244 467
3 468 113 244
3 251 468 115
3 469 468 251
3 469 113 468
3 469 461 113
3 470 461 469
3 470 6 461
3 470 146 6
3 471 146 470
3 471 53 146
3 253 471 116
3 472 471 253
3 472 53 471
3 472 327 53
3 473 327 472
3 473 25 327
3 338 254 27
3 474 254 338
3 474 117 254
3 256 474 60
3 475 474 256
3 475 117 474
3 475 473 117
3 476 473 475
3 476 25 473
3 476 236 25
3 477 236 476
3 477 110 236
3 258 477 118
3 478 477 258
3 478 110 477
3 478 452 110
3 859 452 860
3 861 860 478
3 859 860 861
3 863 862 452
3 865 864 119
3 342 260 28
3 866 260 867
3 868 867 342
3 866 867 868
3 870 869 260
3 872 871 62
3 382 156 7
3 873 156 874
3 875 874 382
3 873 874 875
3 876 63 877
3 878 877 156
3 876 877 878
3 879 63 880
3 882 881 63
3 262 883 885
3 885 884 64
3 883 884 885
3 887 886 262
3 264 888 890
3 890 889 120
3 888 889 890
3 479 891 893
3 893 892 264
3 891 892 893
3 479 894 895
3 479 896 898
3 896 138 897
3 896 897 898
3 480 138 479
3 480 3 138
3 385 159 8
3 481 159 385
3 481 65 159
3 267 481 84
3 482 481 267
3 482 65 481
3 482 346 65
3 483 346 482
3 483 29 346
3 348 268 15
3 484 268 348
3 484 122 268
3 270 484 67
3 485 484 270
3 485 122 484
3 485 483 122
3 486 483 485
3 486 29 483
3 486 265 29
3 487 265 486
3 487 121 265
3 272 487 123
3 488 487 272
3 488 121 487
3 488 480 121
3 489 480 488
3 489 3 480
3 489 899 901
3 901 900 3
3 899 900 901
3 490 902 904
3 904 903 489
3 902 903 904
3 490 905 906
3 274 490 124
3 907 490 908
3 909 908 274
3 907 908 909
3 911 910 490
3 491 912 913
3 491 914 915
3 352 275 30
3 492 275 352
3 492 125 275
3 277 492 69
3 493 492 277
3 493 125 492
3 493 491 125
3 494 491 493
3 494 916 918
3 918 917 491
3 916 917 918
3 494 919 921
3 919 288 920
3 919 920 921
3 495 288 494
3 495 32 288
3 279 495 126
3 496 495 279
3 496 32 495
3 496 129 32
3 424 129 496
3 424 0 129
3 425 922 924
3 924 923 0
3 922 923 924
3 497 925 927
3 927 926 425
3 925 926 927
3 497 928 929
3 281 497 101
3 498 497 281
3 498 930 932
3 932 931 497
3 930 931 932
3 498 933 934
3 936 935 498
3 356 282 22
3 499 282 356
3 499 127 282
3 284 499 71
3 500 499 284
3 500 127 499
3 500 937 939
3 939 938 127
3 937 938 939
3 941 940 500
3 395 166 5
3 501 166 395
3 501 72 166
3 286 501 88
3 502 501 286
3 502 72 501
3 502 359 72
3 503 359 502
3 503 31 359
3 942 287 943
3 942 943 944
3 945 287 946
3 947 128 948
3 949 948 287
3 947 948 949
3 504 950 951
3 504 952 954
3 952 128 953
3 952 953 954
3 504 503 128
3 505 503 504
3 505 31 503
3 505 955 957
3 957 956 31
3 955 956 957
3 959 958 505
