ply
format ascii 1.0
element vertex 845
property float x
property float y
property float z
element face 1050
property list uchar int vertex_index
end_header
-10.741703 -81.386894 71.966873
-3.30929 -89.332047 39.680367
-3.242828 -89.619781 58.933296
-15.531427 -89.399826 50.344109
-3.323248 -69.764748 75.747986
-23.713602 -74.101181 66.603302
-6.028147 -85.922668 66.632774
-9.143385 -92.834564 56.173988
-12.155848 -85.580765 63.131405
-6.82461 -77.075073 74.58252
-2.035107 -79.558617 67.848854
-24.488567 -77.719177 55.02573
-5.059523 -86.424789 29.708662
0.06814 -80.667374 47.98737
-1.030396 -79.537888 37.905888
-2.636934 -90.613846 49.752094
-7.665945 -98.023895 49.475182
-0.541838 -70.362297 66.749084
-0.070463 -80.689125 58.360683
-14.00116 -73.909744 76.961258
-17.116306 -78.405426 70.440659
-21.867527 -70.151413 75.447083
-18.796894 -81.142395 58.931953
-21.650375 -84.9104 45.583496
-8.396442 -83.524231 69.78714
-8.906687 -86.610062 65.070633
-11.205759 -83.526489 68.397781
-8.928799 -79.84594 73.438499
-6.028347 -81.688416 70.980728
-28.278509 -72.792755 55.492668
-30.386305 -71.66468 52.740482
-4.091846 -88.044296 34.619877
-1.268017 -85.322357 43.870934
-0.379501 -80.261703 42.860802
-1.981215 -84.504852 38.810139
-2.896481 -83.331879 33.906906
-2.753765 -90.456375 54.506634
-4.972383 -94.861435 50.042152
-5.352936 -93.97287 54.246788
-12.3843 -91.706848 53.441971
-11.510908 -95.975174 50.435734
-14.551246 -94.416702 47.005424
-1.570805 -70.19474 71.620148
-2.132961 -84.7603 63.511642
-0.761627 -80.295387 63.322189
-1.239735 -85.579163 58.952351
-0.860985 -85.893478 54.061806
-20.613438 -76.255783 68.795746
-17.944809 -79.88208 65.137459
-21.149843 -77.675522 63.121788
-22.948151 -81.137321 50.685612
-0.707052 -65.465454 60.14175
-4.28227 -88.061356 62.980347
-5.981211 -92.171631 58.054333
-7.11133 -89.601669 61.611816
-10.329187 -89.240662 59.508919
-13.64056 -87.413422 56.990429
-4.866179 -73.569977 75.34201
-2.528969 -74.452789 71.894508
-4.049301 -78.458832 71.684151
-3.707382 -83.418915 67.579781
-26.232882 -72.074753 63.845905
-23.928047 -75.731308 60.830986
-26.244179 -74.123367 58.26289
-26.900736 -76.840057 53.253704
0.360991 -75.483841 52.110882
0.097118 -75.282196 46.924355
-0.326096 -74.833389 41.916553
-2.81909 -90.208206 44.769264
-4.617689 -94.199997 40.457996
-4.710571 -94.892456 45.417953
-6.777948 -99.024216 45.512135
-8.380043 -95.902084 52.945812
-10.521318 -99.588745 47.61282
-0.824091 -65.781631 65.488159
-0.064501 -70.371902 61.512379
-0.981087 -75.026711 67.542915
-0.089737 -75.351059 62.604927
0.321688 -75.495705 57.384922
0.185539 -80.802513 53.192806
-0.881781 -85.788162 48.991886
-12.212761 -78.164497 74.540421
-13.577465 -80.261856 71.530746
-15.889817 -76.437874 74.388046
-19.683258 -74.466705 73.385429
-23.221758 -72.352196 71.656052
-25.369614 -68.088448 73.525589
-26.2146 -70.213242 69.197464
-5.868011 -68.960434 78.765182
-7.954462 -72.379822 77.650696
-10.208685 -75.542847 76.349899
-14.512916 -82.032646 66.892532
-15.529198 -83.490814 61.033489
-16.880747 -84.933304 54.463627
-21.807528 -79.133057 56.918789
-19.995911 -82.648453 52.287628
-18.601566 -86.834641 47.534763
-20.534122 -89.611893 40.568939
-9.660231 -82.363235 71.063782
-9.731461 -83.760773 69.095543
-10.916487 -82.406158 70.489288
-9.926065 -80.803749 72.704498
-8.530849 -81.770287 71.732422
-29.996126 -69.966164 54.653362
-3.668541 -88.736023 37.138145
-4.528849 -90.4534 34.963966
-4.218355 -91.162079 37.522018
-2.264269 -87.397751 41.792667
-1.589149 -84.958221 41.326401
-2.625132 -86.917908 39.254997
-3.052805 -86.344315 36.743172
-2.942324 -90.128937 56.765598
-3.979553 -92.382034 54.486046
-4.205259 -91.853195 56.598022
-13.971655 -90.646973 51.898777
-13.491507 -93.008743 50.265507
-15.02381 -91.870071 48.569256
-16.036079 -93.23822 45.171001
-16.535793 -90.58606 46.899124
-1.986311 -67.981743 73.613312
-2.348194 -70.020393 73.801704
-2.544643 -87.252975 61.243721
-1.611444 -85.236816 61.283417
-2.137705 -87.74704 59.035107
-1.865816 -88.082977 56.733391
-22.228695 -75.167297 67.769402
-20.89794 -76.99025 66.060532
-22.419983 -75.920929 64.966232
-0.3041 -67.790794 58.202412
-5.063873 -87.047607 64.857986
-5.627428 -89.074219 62.400349
-6.430944 -87.832397 64.190247
-10.499302 -86.278275 64.132706
-9.515181 -87.969818 62.369358
-11.161873 -87.39798 61.286247
-11.987049 -88.464462 58.276482
-12.834209 -86.505905 60.140759
-5.810368 -75.383377 75.00267
-4.422043 -75.984619 73.55648
-5.348413 -77.793915 73.264572
-5.902954 -83.869339 68.903526
-4.779217 -82.587616 69.377052
-4.789104 -84.87915 67.192917
-3.855686 -85.801254 65.334473
-27.273075 -71.119339 62.2635
-26.18844 -73.043823 61.028118
-27.200544 -72.198959 59.511192
-28.659777 -74.406494 53.380268
-27.562292 -74.860794 54.507454
-5.563433 -85.539673 27.331499
-6.285263 -86.917786 25.117659
-5.800114 -87.851288 27.496227
0.327463 -78.116364 50.047546
0.260818 -75.410263 49.500378
0.194643 -78.013138 47.450207
-0.691685 -79.942223 40.35672
-0.25495 -77.608246 42.365662
-0.524048 -77.292511 39.899681
-0.783398 -76.89502 37.496597
-1.367268 -79.046913 35.515526
-4.030437 -84.938461 31.844267
-3.369612 -82.623322 31.533464
-4.533892 -84.131271 29.470724
-2.690859 -90.474548 47.281937
-3.737942 -92.589981 45.137295
-3.714357 -92.793701 47.591465
-6.287443 -96.613831 49.895851
-6.008638 -96.957962 47.791943
-7.24589 -98.665283 47.563236
-7.533173 -92.746185 57.238415
-7.146093 -94.063278 55.5215
-8.732374 -94.464813 54.568047
-12.559528 -97.622086 47.44429
-11.061829 -97.901932 49.032188
-0.901293 -68.082672 68.772781
-0.585648 -68.060242 66.176468
-0.392181 -68.003036 63.525265
-0.244904 -70.38269 64.155434
-2.233383 -76.966202 69.904144
-1.661728 -74.775726 69.812584
-1.43391 -77.336121 67.760391
-0.354321 -80.531212 60.880341
-0.344267 -77.847336 63.018471
-0.007401 -78.004379 60.493053
0.167189 -75.442902 60.013741
0.217972 -78.10659 57.908577
0.344645 -78.159088 55.292274
0.106277 -80.777565 55.790459
-1.645456 -88.32048 51.907467
-0.824793 -85.888306 51.540653
-1.672222 -88.249069 49.413933
-1.784491 -88.066818 46.887047
-13.113146 -76.105362 75.816772
-14.012111 -77.331116 74.588043
-15.029308 -75.241623 75.819702
-18.938026 -73.362671 75.160294
-20.848183 -72.355881 74.536415
-21.504883 -73.418678 72.610497
-22.675045 -71.319702 73.724182
-26.895422 -67.040245 72.269859
-25.93663 -69.205002 71.524689
-27.316536 -68.141922 70.132278
-27.451443 -69.154526 67.692139
-6.865616 -70.687164 78.231949
-8.532785 -70.056793 79.073097
-10.917402 -73.257645 77.608391
-12.066267 -74.742233 76.791275
-11.269983 -76.934525 75.545067
-15.321587 -79.39389 71.05854
-14.060638 -81.191452 69.400848
-15.80125 -80.247162 68.718307
-18.343517 -80.513557 62.116005
-16.68701 -81.666016 63.11174
-17.187473 -82.304352 59.975838
-16.155945 -84.185593 57.81271
-17.771214 -82.967941 56.694473
-24.136002 -76.649261 57.893909
-22.837105 -77.44931 58.985149
-23.189564 -78.349365 55.957024
-22.26775 -82.937752 48.184299
-21.495434 -81.776711 51.407494
-20.768921 -83.656372 48.920757
-19.244944 -84.628204 49.876774
-20.128201 -85.747391 46.425385
-19.55658 -88.095444 44.034004
-21.083593 -87.123779 43.004715
-5.212233 -96.613525 40.777935
-7.155264 -84.731537 68.287796
-7.407906 -86.502762 65.915344
-8.528685 -85.132294 67.560791
-10.019043 -85.069565 66.760124
-11.614529 -84.593994 65.909035
-7.876585 -78.583664 74.066826
-6.355949 -79.410454 72.866074
-7.424467 -80.760132 72.352264
-7.167706 -82.815514 70.434555
-28.139593 -71.405472 57.919109
-29.05378 -70.661255 56.284897
-29.298599 -72.207001 54.094429
-4.562325 -87.268082 32.139931
-5.335358 -88.774078 29.936138
-4.905991 -89.650681 32.429626
-0.465113 -83.079407 45.931103
-0.119673 -80.501266 45.408108
-0.721607 -82.823143 43.371117
-1.051258 -82.48455 40.84156
-1.434681 -82.05954 38.353905
-1.846888 -81.546265 35.917576
-2.42506 -83.961807 36.333977
-3.528858 -85.681442 34.269875
-2.656284 -90.612961 52.16489
-3.746492 -92.838043 49.975765
-3.832481 -92.706268 52.277142
-5.144321 -94.531113 52.198608
-6.557877 -96.016281 51.87677
-10.770149 -92.466827 54.8909
-10.337084 -94.391693 53.343342
-11.928867 -93.882477 51.886669
-13.045954 -95.3647 48.796658
-1.360632 -68.061363 71.268791
-0.97599 -70.303635 69.252754
-1.981472 -82.177132 65.717674
-1.31414 -79.973114 65.655777
-1.353046 -82.627853 63.494839
-0.884432 -82.967133 61.152641
-0.552868 -83.200722 58.717525
-0.338638 -83.338089 56.214539
-0.995537 -85.794312 56.538559
-1.707058 -88.269699 54.352455
-15.983958 -73.03511 76.889938
-18.896582 -77.345657 69.685608
-17.553795 -79.193329 67.934158
-19.265945 -78.091942 67.048767
-19.591526 -78.759361 64.162842
-19.932718 -79.398819 61.095821
-25.011732 -78.997574 52.284782
-23.690304 -79.4245 52.987217
-3.681074 -88.927017 61.005245
-4.535723 -91.11647 58.615009
-5.000875 -90.181793 60.5452
-6.468056 -90.964218 59.852367
-8.037243 -91.254944 58.932316
-7.92642 -88.133698 63.350143
-8.692308 -89.644119 60.636082
-9.662703 -91.071747 57.809475
-11.30583 -90.468323 56.526344
-12.939974 -89.528824 55.139961
-14.551562 -88.35907 53.716221
-4.025097 -71.685547 75.598267
-2.895538 -72.050613 73.837387
-3.59656 -74.051529 73.749115
-3.227386 -76.514832 71.847427
-2.943665 -79.051605 69.868881
-4.98558 -80.210312 71.398079
-3.791887 -80.954102 69.697128
-2.790289 -81.615952 67.794189
-2.826365 -84.150558 65.617157
-3.110615 -86.60054 63.347183
-25.049988 -73.068901 65.295082
-23.812166 -74.902939 63.762722
-25.066296 -73.943924 62.448891
-25.137966 -74.887497 59.579659
-25.339762 -75.96225 56.779591
-27.276857 -73.428619 56.893135
-26.470261 -75.372711 55.647034
-25.717218 -77.225349 54.124237
-0.006302 -77.846291 44.885933
-0.108313 -75.092072 44.393127
-2.260706 -80.947083 33.538239
-3.024818 -89.82489 42.229828
-3.983177 -91.762146 40.083855
-3.824722 -92.241882 42.628834
-4.635307 -94.627914 42.971832
-5.450071 -96.939194 43.222191
-4.826958 -94.976273 47.779144
-5.723959 -97.060638 45.564846
-5.621164 -93.183136 56.19342
-6.834221 -95.162506 53.744846
-8.037271 -97.098557 51.26088
-9.94953 -96.169434 51.836674
-9.548178 -97.732925 50.315033
-9.084137 -99.029572 48.72501
-0.721407 -65.643555 62.806843
-0.303099 -67.913971 60.857208
0.01539 -70.331696 58.853546
-1.969179 -72.332489 71.822876
-1.236851 -72.541359 69.59687
-0.679512 -72.689728 67.204773
-0.811918 -77.627502 65.452774
-0.465221 -75.215134 65.126915
-0.273336 -72.789917 64.691483
0.004959 -72.851761 62.098488
0.174294 -72.880966 59.461807
0.248089 -72.878586 56.810879
0.383974 -75.510361 54.744053
0.379637 -78.163177 52.666168
0.171825 -80.766281 50.586636
-0.228144 -83.389008 53.666298
-0.214233 -83.360931 51.092331
-0.294022 -83.257721 48.509174
-1.03021 -85.598831 46.430626
-1.982204 -87.78154 44.341671
-11.377874 -79.998657 73.191635
-11.981266 -80.952721 71.841583
-12.983603 -79.257172 73.234833
-14.741992 -78.42392 73.017822
-16.577158 -77.491425 72.601044
-16.984535 -74.327545 75.592354
-17.796631 -75.479034 73.980484
-18.423664 -76.482437 72.010262
-20.228378 -75.425537 71.256081
-21.947525 -74.347061 70.340775
-23.545252 -73.267426 69.262276
-23.684031 -69.127762 74.58345
-24.381741 -70.266281 72.721512
-24.800138 -71.280777 70.519211
-24.99436 -72.200012 68.017639
-26.278786 -71.151993 66.605995
-27.396782 -70.126602 65.031754
-3.804974 -67.574005 77.631104
-4.499739 -69.414284 77.414215
-5.354059 -71.231361 77.070847
-6.32633 -73.010757 76.647301
-7.373661 -74.722076 76.164879
-9.085726 -74.011322 77.032516
-8.453377 -76.320679 75.61515
-9.520445 -77.755417 74.966187
-10.520824 -78.983238 74.175385
-12.40185 -81.94751 69.983269
-12.815781 -82.91037 67.673492
-13.285254 -83.798508 65.014221
-16.239054 -80.99527 66.047287
-14.989646 -82.789352 64.079697
-13.843089 -84.616272 62.091282
-14.505541 -85.398788 58.971313
-15.274357 -86.198776 55.703171
-16.137642 -87.075943 52.323219
-22.599026 -76.661278 62.011822
-21.434814 -78.368576 60.052299
-20.341019 -80.070839 57.91114
-22.305849 -80.034935 53.779778
-20.854656 -80.841324 54.664989
-19.340544 -81.831818 55.639763
-18.455851 -83.721085 53.314014
-17.701038 -85.796738 51.025063
-17.071404 -88.088409 48.863087
-18.042414 -89.285843 45.356773
-19.012875 -90.704514 41.844856
-22.081898 -88.783371 39.661129
-4.673058 -93.625275 37.897255
-2.835721 -69.892571 74.774845
-2.572863 -68.922969 74.776828
-3.06039 -68.795147 75.749969
-0.342845 -67.7094 56.892666
-0.148485 -69.025013 57.20373
-27.69926 -71.200882 60.03821
-27.236809 -71.659149 60.887346
-27.735525 -70.661072 61.414364
-28.367484 -75.4687 52.899912
-28.9712 -75.336189 52.50658
-8.097495 -99.024772 48.249523
-7.887467 -99.345467 47.293551
-7.455917 -98.344589 48.519209
-12.260566 -98.655502 46.794029
-12.978428 -98.487717 45.906536
-21.357855 -71.253647 74.991749
-20.401173 -71.75306 75.328472
-20.910845 -70.650825 75.783806
-27.568307 -66.513759 71.543365
-27.261676 -65.913593 72.51474
-27.778864 -67.064598 70.474575
-27.105979 -67.591083 71.201068
-27.568307 -66.513759 71.543365
-27.913464 -67.611313 69.340435
-27.778864 -67.064598 70.474575
-8.80781 -68.899002 79.764092
-7.969392 -69.228984 79.426541
-13.033714 -74.325988 76.876266
-12.452603 -73.602195 77.350128
-13.420049 -73.185951 77.435119
-5.28101 -97.585678 39.662588
-5.502714 -97.781364 40.885511
-29.466977 -69.578716 56.618531
-29.051732 -69.994148 57.532743
-30.097812 -72.828342 52.516783
-29.553959 -73.099502 53.193756
-29.842452 -71.935841 53.417456
-4.780979 -91.279373 33.847727
-4.669933 -91.687012 35.13866
-14.293214 -95.681198 46.314659
-13.540568 -96.155197 47.210276
-13.7986 -94.890701 47.901041
-15.023141 -95.187927 45.341515
-14.293214 -95.681198 46.314659
-16.495349 -94.007667 43.452093
-16.776735 -92.597077 44.291666
-24.681101 -79.86409 51.203823
-25.358891 -79.763188 50.997408
-0.981511 -64.234951 59.757505
-0.965175 -64.375231 61.074137
-26.592652 -77.781391 52.459953
-26.000894 -77.974037 52.89522
-26.308977 -77.032703 53.68897
-6.436451 -87.623406 23.985613
-6.203284 -88.095596 25.170556
-5.51768 -89.510292 28.802023
-5.334266 -89.988808 30.056059
0.254803 -74.123848 51.830963
0.298563 -74.162689 53.139645
0.048931 -73.960312 47.94762
0.130781 -74.024346 49.235632
0.178968 -75.346229 48.212367
-0.04345 -73.870308 46.680878
0.048931 -73.960312 47.94762
-0.349986 -73.525955 42.93786
-0.241094 -73.655296 44.176147
-0.217204 -74.96273 43.15484
-0.429202 -73.374511 41.730612
-0.349986 -73.525955 42.93786
-3.010462 -81.446846 31.374837
-3.595497 -82.237389 30.373129
-6.530176 -99.068382 44.415953
-6.003182 -98.086593 44.442309
-6.250953 -98.042427 45.538491
-6.967996 -100.048386 44.348726
-6.530176 -99.068382 44.415953
-10.185683 -100.283562 46.86595
-9.467092 -100.003975 47.422045
-9.802727 -99.309158 48.168915
-1.096399 -64.735219 66.437805
-0.927497 -65.831421 66.819652
-1.039916 -64.646534 65.088173
-1.096399 -64.735219 66.437805
-0.772749 -65.712593 64.147501
-0.988574 -64.577495 63.747515
-1.039916 -64.646534 65.088173
-17.482531 -73.220875 76.098149
-16.484247 -73.681328 76.241146
-16.982242 -72.574657 76.74694
-24.925674 -67.465984 74.357029
-25.752322 -66.953793 73.797924
-24.526823 -68.608105 74.054519
-24.082883 -67.985641 74.885959
-24.925674 -67.465984 74.357029
-27.954375 -69.117195 65.521698
-27.424112 -69.640564 66.361947
-27.981705 -68.631157 66.85189
-27.88 -69.626347 64.169762
-27.954375 -69.117195 65.521698
-4.062534 -66.506363 78.553802
-3.554674 -66.643006 77.647507
-5.437518 -68.085926 78.984161
-6.12836 -67.844498 79.598705
-5.183875 -69.187359 78.089698
-4.753382 -68.312851 78.308678
-5.437518 -68.085926 78.984161
-20.240526 -90.987885 39.471947
-19.479903 -91.534195 40.109905
-19.773499 -90.158203 41.206897
-22.863511 -88.534988 39.414633
-22.35029 -87.616119 40.990137
-30.370289 -68.840935 54.893736
-29.93815 -69.231171 55.802763
-30.506552 -69.643567 53.865715
-30.370289 -68.840935 54.893736
-30.701641 -70.492825 52.909275
-30.191215 -70.815422 53.696922
-30.506552 -69.643567 53.865715
-4.514686 -92.041352 36.417686
-4.669933 -91.687012 35.13866
-4.373602 -90.807739 36.242992
-17.026592 -91.270996 45.155727
-16.776735 -92.597077 44.291666
-16.285936 -91.91214 46.035062
-2.391921 -67.903644 74.682632
-2.232511 -66.927093 74.59021
-2.167253 -69.001068 73.707508
-2.391921 -67.903644 74.682632
-2.572863 -68.922969 74.776828
-0.535347 -66.51646 57.86067
-0.736823 -65.35379 58.83034
-0.505576 -66.628124 59.172081
-0.535347 -66.51646 57.86067
-0.342845 -67.7094 56.892666
-27.818742 -75.695851 53.463505
-28.111034 -74.633644 53.943861
-28.367484 -75.4687 52.899912
-27.487963 -76.685482 52.83663
-27.231514 -75.850426 53.880579
-27.818742 -75.695851 53.463505
-27.217765 -77.698402 52.188898
-27.487963 -76.685482 52.83663
-5.924348 -86.22873 26.224579
-6.172154 -85.78154 25.063538
-5.81124 -85.092484 26.170459
-5.96071 -88.562348 26.359841
-6.203284 -88.095596 25.170556
-6.042688 -87.384537 26.306943
-0.523624 -75.89711 39.701748
-0.424648 -74.667549 40.710184
-0.425072 -76.06295 40.908117
-0.6533 -75.698364 38.500206
-0.523624 -75.89711 39.701748
-0.653723 -77.093766 38.698139
-0.726272 -75.495244 37.3292
-0.6533 -75.698364 38.500206
-0.894379 -76.655228 36.328957
-0.726272 -75.495244 37.3292
-1.186314 -77.731175 35.338421
-0.894379 -76.655228 36.328957
-1.075333 -77.970967 36.506062
-1.521787 -78.759632 34.351803
-1.186314 -77.731175 35.338421
-4.177637 -82.991364 29.34176
-3.595497 -82.237389 30.373129
-3.951752 -83.377296 30.502094
-4.776617 -83.70739 28.309651
-4.177637 -82.991364 29.34176
-5.291387 -84.41159 27.240038
-4.776617 -83.70739 28.309651
-5.048662 -84.835472 28.401111
-5.81124 -85.092484 26.170459
-5.291387 -84.41159 27.240038
-7.562832 -99.685806 46.372931
-7.328861 -99.865273 45.34738
-7.011919 -98.84475 46.537686
-7.562832 -99.685806 46.372931
-7.887467 -99.345467 47.293551
-11.511716 -98.795425 47.587978
-11.810678 -97.762009 48.238239
-12.260566 -98.655502 46.794029
-11.241461 -99.638832 46.878294
-10.791574 -98.745339 48.322504
-11.511716 -98.795425 47.587978
-10.861239 -100.537018 46.219557
-11.241461 -99.638832 46.878294
-0.966098 -66.981941 68.461963
-1.131157 -67.010326 69.762932
-0.808275 -66.970726 67.163807
-0.966098 -66.981941 68.461963
-0.74347 -68.071457 67.474625
-0.70487 -66.920937 65.832313
-0.927497 -65.831421 66.819652
-0.808275 -66.970726 67.163807
-19.446095 -72.256455 75.640411
-18.459276 -72.738438 75.882118
-19.893104 -72.859276 74.848354
-19.446095 -72.256455 75.640411
-20.401173 -71.75306 75.328472
-26.515227 -66.429691 73.170059
-27.261676 -65.913593 72.51474
-26.132518 -67.564346 72.897724
-25.752322 -66.953793 73.797924
-26.515227 -66.429691 73.170059
-27.980918 -68.117615 68.120365
-27.383989 -68.648224 68.912208
-27.913464 -67.611313 69.340435
-27.981705 -68.631157 66.85189
-27.980918 -68.117615 68.120365
-6.637004 -68.680805 79.272583
-6.12836 -67.844498 79.598705
-7.135807 -69.54417 79.005966
-6.366814 -69.823799 78.498565
-6.637004 -68.680805 79.272583
-7.6992 -70.371978 78.652523
-7.135807 -69.54417 79.005966
-7.969392 -69.228984 79.426541
-11.87817 -72.859902 77.758686
-11.255506 -72.093846 78.18591
-11.491834 -73.999939 77.199833
-11.87817 -72.859902 77.758686
-12.452603 -73.602195 77.350128
-5.124835 -96.359146 39.514843
-4.827562 -95.152382 39.354873
-4.914961 -95.406761 40.617965
-5.124835 -96.359146 39.514843
-5.28101 -97.585678 39.662588
-28.594638 -70.366257 58.349849
-28.168784 -70.804138 59.242168
-28.596687 -71.033364 57.102003
-28.594638 -70.366257 58.349849
-29.051732 -69.994148 57.532743
-29.524953 -70.31371 55.46913
-29.466977 -69.578716 56.618531
-29.93815 -69.231171 55.802763
-29.234548 -74.199249 52.836675
-28.979188 -73.306748 53.737348
-29.553959 -73.099502 53.193756
-28.9712 -75.336189 52.50658
-29.234548 -74.199249 52.836675
-5.119582 -90.427109 31.302803
-5.334266 -89.988808 30.056059
-5.120674 -89.212379 31.182882
-4.969551 -90.878014 32.580557
-4.71742 -90.052041 33.696796
-4.780979 -91.279373 33.847727
-5.119582 -90.427109 31.302803
-4.969551 -90.878014 32.580557
-13.297355 -97.28389 46.534092
-12.802741 -96.493393 48.120474
-13.540568 -96.155197 47.210276
-12.978428 -98.487717 45.906536
-13.297355 -97.28389 46.534092
-15.765557 -94.598686 44.424303
-15.023141 -95.187927 45.341515
-15.293662 -93.827461 46.088212
-15.765557 -94.598686 44.424303
-16.495349 -94.007667 43.452093
-1.911366 -66.96127 73.428547
-2.232511 -66.927093 74.59021
-1.598527 -67.00108 72.256286
-1.911366 -66.96127 73.428547
-1.673472 -68.021553 72.441051
-1.360826 -66.999672 71.010936
-1.598527 -67.00108 72.256286
-1.130963 -68.072018 70.020786
-1.131157 -67.010326 69.762932
-1.360826 -66.999672 71.010936
-15.401981 -72.32898 77.424995
-14.992559 -73.472427 76.925598
-14.410581 -72.766297 77.460655
-16.40651 -71.886803 77.339432
-15.401981 -72.32898 77.424995
-16.982242 -72.574657 76.74694
-16.40651 -71.886803 77.339432
-21.333406 -69.499485 76.152871
-20.910845 -70.650825 75.783806
-14.410581 -72.766297 77.460655
-13.420049 -73.185951 77.435119
-24.020387 -80.077553 51.555041
-24.351018 -79.211037 52.635999
-24.681101 -79.86409 51.203823
-23.649311 -80.933964 50.404238
-23.319228 -80.280911 51.836415
-24.020387 -80.077553 51.555041
-23.34089 -81.815514 49.18191
-23.649311 -80.933964 50.404238
-23.00069 -82.715729 47.931253
-22.607951 -82.037537 49.434956
-23.34089 -81.815514 49.18191
-22.71387 -83.654995 46.61049
-23.00069 -82.715729 47.931253
-22.405183 -84.641319 45.310089
-21.959063 -83.924076 46.883898
-22.71387 -83.654995 46.61049
-22.134529 -85.679634 43.95132
-22.405183 -84.641319 45.310089
-0.981511 -64.234951 59.757505
-0.736823 -65.35379 58.83034
-27.670068 -71.802216 58.715151
-27.69926 -71.200882 60.03821
-28.168784 -70.804138 59.242168
-25.64815 -78.86015 51.975493
-25.364475 -78.111461 53.20451
-26.000894 -77.974037 52.89522
-25.358891 -79.763188 50.997408
-25.64815 -78.86015 51.975493
-26.592652 -77.781391 52.459953
-27.217765 -77.698402 52.188898
-6.533471 -86.465904 23.960901
-6.172154 -85.78154 25.063538
-6.533471 -86.465904 23.960901
-6.436451 -87.623406 23.985613
-5.750058 -89.048897 27.582068
-5.567736 -88.312683 28.716183
-5.51768 -89.510292 28.802023
-5.96071 -88.562348 26.359841
-5.750058 -89.048897 27.582068
0.204716 -74.087059 50.525711
0.254803 -74.123848 51.830963
0.310905 -75.447052 50.80563
0.204716 -74.087059 50.525711
0.130781 -74.024346 49.235632
-0.146166 -73.775246 45.415264
-0.04345 -73.870308 46.680878
-0.005598 -75.187134 45.658741
-0.146166 -73.775246 45.415264
-0.241094 -73.655296 44.176147
-0.429202 -73.374511 41.730612
-0.424648 -74.667549 40.710184
-1.968506 -79.709717 33.363159
-1.521787 -78.759632 34.351803
-1.813987 -79.996998 34.526882
-2.456009 -80.608727 32.377225
-2.815159 -81.785202 32.535851
-3.010462 -81.446846 31.374837
-1.968506 -79.709717 33.363159
-2.456009 -80.608727 32.377225
-5.621633 -97.944198 42.10764
-5.502714 -97.781364 40.885511
-5.331152 -96.776359 42.000063
-5.866238 -98.025871 43.270981
-5.587015 -96.999916 44.393518
-6.003182 -98.086593 44.442309
-5.621633 -97.944198 42.10764
-5.866238 -98.025871 43.270981
-6.967996 -100.048386 44.348726
-7.328861 -99.865273 45.34738
-8.806591 -99.527611 47.874437
-8.097495 -99.024772 48.249523
-8.375041 -98.526734 49.100096
-8.806591 -99.527611 47.874437
-9.467092 -100.003975 47.422045
-10.185683 -100.283562 46.86595
-10.861239 -100.537018 46.219557
-0.972353 -64.464281 62.406683
-0.988574 -64.577495 63.747515
-0.71423 -65.554505 61.474297
-0.965175 -64.375231 61.074137
-0.972353 -64.464281 62.406683
0.01126 -70.295464 57.529297
-0.148485 -69.025013 57.20373
-0.144355 -69.061245 58.527979
0.12761 -71.568909 56.507964
0.01126 -70.295464 57.529297
0.13174 -71.605141 57.832212
0.242112 -72.860062 55.489643
0.12761 -71.568909 56.507964
0.310054 -74.175949 54.45623
0.242112 -72.860062 55.489643
0.316032 -74.194474 55.777466
0.372482 -75.497101 53.427467
0.298563 -74.162689 53.139645
0.310054 -74.175949 54.45623
-17.961281 -73.845108 75.376324
-17.482531 -73.220875 76.098149
-18.459276 -72.738438 75.882118
-22.280296 -69.003395 75.781757
-21.333406 -69.499485 76.152871
-23.188547 -68.491569 75.349941
-24.082883 -67.985641 74.885959
-22.775779 -69.639588 75.015266
-22.280296 -69.003395 75.781757
-23.188547 -68.491569 75.349941
-27.818146 -70.122715 62.785635
-27.334929 -70.622971 63.647627
-27.88 -69.626347 64.169762
-27.735525 -70.661072 61.414364
-27.818146 -70.122715 62.785635
-3.301253 -67.699776 76.691529
-3.554674 -66.643006 77.647507
-3.564111 -68.669376 76.689545
-3.06039 -68.795147 75.749969
-3.301253 -67.699776 76.691529
-4.406 -67.392711 78.417122
-4.062534 -66.506363 78.553802
-4.152356 -68.494145 77.52266
-4.406 -67.392711 78.417122
-4.753382 -68.312851 78.308678
-9.427776 -69.702118 79.337387
-8.80781 -68.899002 79.764092
-9.126904 -70.870487 78.712356
-9.427776 -69.702118 79.337387
-8.837742 -72.032002 78.001156
-8.243623 -71.218308 78.361897
-9.126904 -70.870487 78.712356
-10.319212 -72.470913 77.980004
-11.255506 -72.093846 78.18591
-9.403374 -72.847752 77.692066
-10.319212 -72.470913 77.980004
-10.001564 -73.634484 77.320453
-8.520094 -73.195572 77.341606
-8.837742 -72.032002 78.001156
-9.403374 -72.847752 77.692066
-17.779902 -90.620888 44.384552
-17.026592 -91.270996 45.155727
-17.289104 -89.935952 46.127949
-18.265133 -91.330224 42.628594
-17.779902 -90.620888 44.384552
-18.527645 -89.995179 43.600814
-18.723044 -92.118607 40.884502
-18.265133 -91.330224 42.628594
-18.723044 -92.118607 40.884502
-19.479903 -91.534195 40.109905
-21.851138 -86.786324 42.66193
-21.366984 -86.017089 44.294106
-22.134529 -85.679634 43.95132
-21.582746 -87.953575 41.332922
-21.851138 -86.786324 42.66193
-22.35029 -87.616119 40.990137
-22.587639 -89.755646 38.050596
-22.863511 -88.534988 39.414633
-21.792165 -90.090042 38.425085
-22.587639 -89.755646 38.050596
-21.018277 -90.504303 38.87899
-21.30801 -89.197632 40.115034
-21.792165 -90.090042 38.425085
-20.240526 -90.987885 39.471947
-21.018277 -90.504303 38.87899
-30.984735 -71.412548 52.109129
-30.701641 -70.492825 52.909275
-30.719559 -72.633663 52.009794
-30.984735 -71.412548 52.109129
-30.097812 -72.828342 52.516783
-30.719559 -72.633663 52.009794
-4.742038 -93.27295 36.605305
-4.514686 -92.041352 36.417686
-4.445707 -92.393677 37.709637
-4.855247 -94.865021 38.074503
-4.645373 -93.912636 39.177626
-4.827562 -95.152382 39.354873
-4.810572 -94.530296 36.78293
-4.855247 -94.865021 38.074503
-4.742038 -93.27295 36.605305
-4.810572 -94.530296 36.78293
3 0 100 98
3 0 98 101
3 1 106 104
3 1 109 107
3 1 104 109
3 2 113 111
3 3 116 114
3 3 118 116
3 4 390 392
3 390 120 391
3 390 391 392
3 2 123 121
3 2 111 123
3 5 127 125
3 394 393 128
3 6 131 129
3 8 134 132
3 8 136 134
3 9 139 137
3 6 142 140
3 6 129 142
3 395 146 396
3 397 396 144
3 395 396 397
3 399 398 147
3 12 151 149
3 13 154 152
3 14 157 155
3 14 158 157
3 14 159 158
3 12 162 160
3 12 149 162
3 15 165 163
3 16 168 166
3 16 400 402
3 402 401 168
3 400 401 402
3 7 171 169
3 404 403 172
3 17 175 174
3 17 177 175
3 10 180 178
3 18 183 181
3 18 185 183
3 18 187 185
3 15 190 188
3 15 163 190
3 19 194 192
3 21 405 407
3 405 196 406
3 405 406 407
3 21 198 196
3 408 199 409
3 410 201 411
3 412 411 199
3 410 411 412
3 414 413 201
3 415 204 416
3 19 417 419
3 417 206 418
3 417 418 419
3 19 192 206
3 20 210 208
3 22 213 211
3 22 215 213
3 11 218 216
3 23 221 219
3 23 223 221
3 23 225 223
3 421 420 226
3 24 229 227
3 26 230 99
3 26 231 230
3 27 234 232
3 24 235 102
3 24 227 235
3 422 237 423
3 30 238 103
3 30 424 426
3 426 425 238
3 424 425 426
3 31 241 239
3 428 427 105
3 32 244 242
3 34 245 108
3 34 246 245
3 34 248 246
3 31 249 110
3 31 239 249
3 36 252 250
3 38 253 112
3 38 254 253
3 39 257 255
3 41 258 115
3 41 429 431
3 431 430 258
3 429 430 431
3 41 432 433
3 435 434 117
3 42 259 119
3 42 260 259
3 43 263 261
3 45 264 122
3 45 265 264
3 45 267 265
3 36 268 124
3 36 250 268
3 47 272 270
3 49 273 126
3 49 274 273
3 437 436 275
3 51 438 439
3 52 279 277
3 54 280 130
3 54 281 280
3 25 282 228
3 55 283 133
3 55 284 283
3 55 285 284
3 56 286 135
3 56 287 286
3 57 290 288
3 59 291 138
3 59 292 291
3 28 293 233
3 60 294 141
3 60 295 294
3 60 296 295
3 52 297 143
3 52 277 297
3 61 300 298
3 63 301 145
3 63 302 301
3 29 303 236
3 64 304 148
3 64 305 304
3 64 440 442
3 442 441 305
3 440 441 442
3 444 443 150
3 446 445 240
3 65 447 448
3 66 449 451
3 451 450 153
3 449 450 451
3 66 452 453
3 33 306 243
3 67 307 156
3 67 454 456
3 456 455 307
3 454 455 456
3 67 457 458
3 35 308 247
3 460 459 161
3 68 311 309
3 70 312 164
3 70 313 312
3 37 314 251
3 71 315 167
3 71 461 463
3 463 462 315
3 461 462 463
3 71 464 465
3 53 316 278
3 72 317 170
3 72 318 317
3 40 319 256
3 73 320 173
3 73 321 320
3 73 466 468
3 468 467 321
3 466 467 468
3 74 469 470
3 74 471 472
3 74 473 475
3 473 322 474
3 473 474 475
3 75 323 176
3 75 324 323
3 58 325 289
3 76 326 179
3 76 327 326
3 44 328 262
3 77 329 182
3 77 330 329
3 77 331 330
3 78 332 184
3 78 333 332
3 78 334 333
3 79 335 186
3 79 336 335
3 46 337 266
3 80 338 189
3 80 339 338
3 80 340 339
3 68 341 191
3 68 309 341
3 81 344 342
3 83 345 193
3 83 346 345
3 476 347 477
3 478 477 269
3 476 477 478
3 84 348 195
3 84 349 348
3 84 350 349
3 85 351 197
3 85 352 351
3 86 479 480
3 86 481 483
3 481 353 482
3 481 482 483
3 86 354 353
3 87 355 200
3 87 356 355
3 87 357 356
3 484 358 485
3 486 485 202
3 484 485 486
3 488 487 358
3 489 359 490
3 88 491 492
3 88 493 495
3 493 360 494
3 493 494 495
3 88 361 360
3 89 362 203
3 89 363 362
3 90 364 205
3 90 365 364
3 90 366 365
3 81 367 207
3 81 342 367
3 82 368 343
3 91 369 209
3 91 370 369
3 48 371 271
3 92 372 212
3 92 373 372
3 92 374 373
3 93 375 214
3 93 376 375
3 62 377 299
3 94 378 217
3 94 379 378
3 50 380 276
3 95 381 220
3 95 382 381
3 95 383 382
3 96 384 222
3 96 385 384
3 96 386 385
3 97 387 224
3 97 496 498
3 498 497 387
3 496 497 498
3 499 388 500
3 69 389 310
3 98 99 24
3 100 99 98
3 100 26 99
3 101 102 27
3 98 102 101
3 98 24 102
3 501 103 502
3 503 103 504
3 505 30 506
3 507 506 103
3 505 506 507
3 104 105 31
3 106 105 104
3 106 508 510
3 510 509 105
3 508 509 510
3 107 108 32
3 109 108 107
3 109 34 108
3 109 110 34
3 104 110 109
3 104 31 110
3 111 112 36
3 113 112 111
3 113 38 112
3 114 115 39
3 116 115 114
3 116 41 115
3 116 117 41
3 118 117 116
3 118 511 513
3 513 512 117
3 511 512 513
3 514 119 515
3 120 516 518
3 516 119 517
3 516 517 518
3 120 42 119
3 121 122 43
3 123 122 121
3 123 45 122
3 123 124 45
3 111 124 123
3 111 36 124
3 125 126 47
3 127 126 125
3 127 49 126
3 128 519 521
3 521 520 51
3 519 520 521
3 523 522 128
3 129 130 52
3 131 130 129
3 131 54 130
3 132 133 25
3 134 133 132
3 134 55 133
3 134 135 55
3 136 135 134
3 136 56 135
3 137 138 57
3 139 138 137
3 139 59 138
3 140 141 28
3 142 141 140
3 142 60 141
3 142 143 60
3 129 143 142
3 129 52 143
3 144 145 61
3 146 145 144
3 146 63 145
3 147 148 29
3 524 148 525
3 526 525 147
3 524 525 526
3 527 64 528
3 529 528 148
3 527 528 529
3 531 530 64
3 149 532 534
3 532 150 533
3 532 533 534
3 151 150 149
3 151 535 537
3 537 536 150
3 535 536 537
3 152 153 65
3 154 153 152
3 154 66 153
3 155 156 33
3 157 156 155
3 157 67 156
3 157 538 540
3 540 539 67
3 538 539 540
3 158 541 543
3 543 542 157
3 541 542 543
3 158 544 545
3 158 546 547
3 159 548 550
3 550 549 158
3 548 549 550
3 159 551 552
3 160 161 35
3 162 161 160
3 162 553 555
3 555 554 161
3 553 554 555
3 162 556 557
3 149 558 560
3 560 559 162
3 558 559 560
3 149 561 562
3 163 164 68
3 165 164 163
3 165 70 164
3 166 167 37
3 168 167 166
3 168 71 167
3 168 563 565
3 565 564 71
3 563 564 565
3 567 566 168
3 169 170 53
3 171 170 169
3 171 72 170
3 172 173 40
3 568 173 569
3 570 569 172
3 568 569 570
3 571 73 572
3 573 572 173
3 571 572 573
3 575 574 73
3 174 576 577
3 175 578 580
3 580 579 174
3 578 579 580
3 175 581 583
3 581 74 582
3 581 582 583
3 175 176 74
3 177 176 175
3 177 75 176
3 178 179 58
3 180 179 178
3 180 76 179
3 181 182 44
3 183 182 181
3 183 77 182
3 183 184 77
3 185 184 183
3 185 78 184
3 185 186 78
3 187 186 185
3 187 79 186
3 188 189 46
3 190 189 188
3 190 80 189
3 190 191 80
3 163 191 190
3 163 68 191
3 192 193 81
3 194 193 192
3 194 83 193
3 584 195 585
3 196 586 588
3 586 195 587
3 586 587 588
3 196 84 195
3 196 197 84
3 198 197 196
3 198 85 197
3 199 589 590
3 199 591 593
3 591 86 592
3 591 592 593
3 199 200 86
3 201 200 199
3 201 87 200
3 201 202 87
3 594 202 595
3 596 595 201
3 594 595 596
3 598 597 202
3 599 88 600
3 601 203 602
3 603 602 88
3 601 602 603
3 204 604 606
3 604 203 605
3 604 605 606
3 204 89 203
3 607 205 608
3 206 609 611
3 609 205 610
3 609 610 611
3 206 90 205
3 206 207 90
3 192 207 206
3 192 81 207
3 208 209 82
3 210 209 208
3 210 91 209
3 211 212 48
3 213 212 211
3 213 92 212
3 213 214 92
3 215 214 213
3 215 93 214
3 216 217 62
3 218 217 216
3 218 94 217
3 219 220 50
3 221 220 219
3 221 95 220
3 221 222 95
3 223 222 221
3 223 96 222
3 223 224 96
3 225 224 223
3 225 97 224
3 226 612 614
3 614 613 69
3 612 613 614
3 616 615 226
3 227 228 6
3 229 228 227
3 229 25 228
3 99 229 24
3 230 229 99
3 230 25 229
3 230 132 25
3 231 132 230
3 231 8 132
3 232 233 9
3 234 233 232
3 234 28 233
3 102 234 27
3 235 234 102
3 235 28 234
3 235 140 28
3 227 140 235
3 227 6 140
3 617 236 618
3 237 619 621
3 619 236 620
3 619 620 621
3 237 29 236
3 103 622 624
3 622 237 623
3 622 623 624
3 238 237 103
3 238 29 237
3 238 147 29
3 625 147 626
3 627 626 238
3 625 626 627
3 629 628 147
3 239 240 12
3 241 240 239
3 241 630 632
3 632 631 240
3 630 631 632
3 105 241 31
3 633 241 634
3 635 634 105
3 633 634 635
3 637 636 241
3 242 243 13
3 244 243 242
3 244 33 243
3 108 244 32
3 245 244 108
3 245 33 244
3 245 155 33
3 246 155 245
3 246 14 155
3 246 247 14
3 248 247 246
3 248 35 247
3 110 248 34
3 249 248 110
3 249 35 248
3 249 160 35
3 239 160 249
3 239 12 160
3 250 251 15
3 252 251 250
3 252 37 251
3 112 252 36
3 253 252 112
3 253 37 252
3 253 166 37
3 254 166 253
3 254 16 166
3 255 256 7
3 257 256 255
3 257 40 256
3 115 257 39
3 258 257 115
3 258 40 257
3 258 172 40
3 638 172 639
3 640 639 258
3 638 639 640
3 642 641 172
3 117 643 645
3 645 644 41
3 643 644 645
3 647 646 117
3 119 648 649
3 259 650 652
3 652 651 119
3 650 651 652
3 259 653 654
3 259 655 657
3 655 174 656
3 655 656 657
3 260 174 259
3 260 17 174
3 261 262 10
3 263 262 261
3 263 44 262
3 122 263 43
3 264 263 122
3 264 44 263
3 264 181 44
3 265 181 264
3 265 18 181
3 265 266 18
3 267 266 265
3 267 46 266
3 124 267 45
3 268 267 124
3 268 46 267
3 268 188 46
3 250 188 268
3 250 15 188
3 658 269 659
3 660 659 19
3 658 659 660
3 661 269 662
3 664 663 269
3 665 21 666
3 667 19 668
3 270 271 20
3 272 271 270
3 272 48 271
3 126 272 47
3 273 272 126
3 273 48 272
3 273 211 48
3 274 211 273
3 274 22 211
3 275 276 11
3 669 276 670
3 671 670 275
3 669 670 671
3 672 50 673
3 674 673 276
3 672 673 674
3 675 50 676
3 677 219 678
3 679 678 50
3 677 678 679
3 680 219 681
3 682 23 683
3 684 683 219
3 682 683 684
3 686 685 23
3 688 687 51
3 277 278 2
3 279 278 277
3 279 53 278
3 130 279 52
3 280 279 130
3 280 53 279
3 280 169 53
3 281 169 280
3 281 7 169
3 228 131 6
3 282 131 228
3 282 54 131
3 133 282 25
3 283 282 133
3 283 54 282
3 283 281 54
3 284 281 283
3 284 7 281
3 284 255 7
3 285 255 284
3 285 39 255
3 135 285 55
3 286 285 135
3 286 39 285
3 286 114 39
3 287 114 286
3 287 3 114
3 288 289 4
3 290 289 288
3 290 58 289
3 138 290 57
3 291 290 138
3 291 58 290
3 291 178 58
3 292 178 291
3 292 10 178
3 233 139 9
3 293 139 233
3 293 59 139
3 141 293 28
3 294 293 141
3 294 59 293
3 294 292 59
3 295 292 294
3 295 10 292
3 295 261 10
3 296 261 295
3 296 43 261
3 143 296 60
3 297 296 143
3 297 43 296
3 297 121 43
3 277 121 297
3 277 2 121
3 298 299 5
3 300 299 298
3 300 62 299
3 145 300 61
3 301 300 145
3 301 62 300
3 301 216 62
3 302 216 301
3 302 11 216
3 236 689 691
3 689 146 690
3 689 690 691
3 303 146 236
3 303 63 146
3 148 303 29
3 304 303 148
3 304 63 303
3 304 302 63
3 305 302 304
3 305 11 302
3 305 275 11
3 692 275 693
3 694 693 305
3 692 693 694
3 696 695 275
3 698 697 64
3 150 699 700
3 702 701 150
3 240 151 12
3 703 151 704
3 705 704 240
3 703 704 705
3 707 706 151
3 153 708 710
3 710 709 65
3 708 709 710
3 712 711 153
3 243 154 13
3 306 154 243
3 306 66 154
3 156 306 33
3 307 306 156
3 307 66 306
3 307 713 715
3 715 714 66
3 713 714 715
3 717 716 307
3 719 718 67
3 247 159 14
3 308 159 247
3 308 720 722
3 722 721 159
3 720 721 722
3 161 308 35
3 723 308 724
3 725 724 161
3 723 724 725
3 727 726 308
3 309 310 1
3 311 310 309
3 311 69 310
3 164 311 68
3 312 311 164
3 312 69 311
3 312 226 69
3 313 226 312
3 313 728 730
3 730 729 226
3 728 729 730
3 251 165 15
3 314 165 251
3 314 70 165
3 167 314 37
3 315 314 167
3 315 70 314
3 315 313 70
3 731 313 732
3 733 732 315
3 731 732 733
3 735 734 313
3 737 736 71
3 278 113 2
3 316 113 278
3 316 38 113
3 170 316 53
3 317 316 170
3 317 38 316
3 317 254 38
3 318 254 317
3 318 16 254
3 256 171 7
3 319 171 256
3 319 72 171
3 173 319 40
3 320 319 173
3 320 72 319
3 320 318 72
3 321 318 320
3 321 16 318
3 321 738 740
3 740 739 16
3 738 739 740
3 742 741 321
3 744 743 73
3 322 745 746
3 322 747 749
3 747 51 748
3 747 748 749
3 176 322 74
3 323 322 176
3 323 51 322
3 323 128 51
3 324 128 323
3 324 750 752
3 752 751 128
3 750 751 752
3 289 120 4
3 325 120 289
3 325 42 120
3 179 325 58
3 326 325 179
3 326 42 325
3 326 260 42
3 327 260 326
3 327 17 260
3 262 180 10
3 328 180 262
3 328 76 180
3 182 328 44
3 329 328 182
3 329 76 328
3 329 327 76
3 330 327 329
3 330 17 327
3 330 177 17
3 331 177 330
3 331 75 177
3 184 331 77
3 332 331 184
3 332 75 331
3 332 324 75
3 333 324 332
3 333 753 755
3 755 754 324
3 753 754 755
3 333 756 757
3 334 758 760
3 760 759 333
3 758 759 760
3 334 761 763
3 761 65 762
3 761 762 763
3 186 334 78
3 335 334 186
3 335 65 334
3 335 152 65
3 336 152 335
3 336 13 152
3 266 187 18
3 337 187 266
3 337 79 187
3 189 337 46
3 338 337 189
3 338 79 337
3 338 336 79
3 339 336 338
3 339 13 336
3 339 242 13
3 340 242 339
3 340 32 242
3 191 340 80
3 341 340 191
3 341 32 340
3 341 107 32
3 309 107 341
3 309 1 107
3 342 343 0
3 344 343 342
3 344 82 343
3 193 344 81
3 345 344 193
3 345 82 344
3 345 208 82
3 346 208 345
3 346 20 208
3 269 194 19
3 347 194 269
3 347 83 194
3 195 764 766
3 764 347 765
3 764 765 766
3 348 347 195
3 348 83 347
3 348 346 83
3 349 346 348
3 349 20 346
3 349 270 20
3 350 270 349
3 350 47 270
3 197 350 84
3 351 350 197
3 351 47 350
3 351 125 47
3 352 125 351
3 352 5 125
3 767 21 768
3 353 769 770
3 353 771 773
3 771 21 772
3 771 772 773
3 353 198 21
3 354 198 353
3 354 85 198
3 200 354 86
3 355 354 200
3 355 85 354
3 355 352 85
3 356 352 355
3 356 5 352
3 356 298 5
3 357 298 356
3 357 61 298
3 202 357 87
3 358 357 202
3 358 61 357
3 358 144 61
3 774 144 775
3 776 775 358
3 774 775 776
3 778 777 144
3 359 779 780
3 359 781 783
3 781 4 782
3 781 782 783
3 784 359 785
3 360 786 788
3 786 359 787
3 786 787 788
3 360 4 359
3 360 288 4
3 361 288 360
3 361 57 288
3 203 361 88
3 362 361 203
3 362 57 361
3 362 137 57
3 363 137 362
3 363 9 137
3 789 204 790
3 791 204 792
3 793 89 794
3 795 794 204
3 793 794 795
3 205 796 797
3 364 798 800
3 800 799 205
3 798 799 800
3 364 801 803
3 801 89 802
3 801 802 803
3 364 363 89
3 365 363 364
3 365 9 363
3 365 232 9
3 366 232 365
3 366 27 232
3 207 366 90
3 367 366 207
3 367 27 366
3 367 101 27
3 342 101 367
3 342 0 101
3 343 100 0
3 368 100 343
3 368 26 100
3 209 368 82
3 369 368 209
3 369 26 368
3 369 231 26
3 370 231 369
3 370 8 231
3 271 210 20
3 371 210 271
3 371 91 210
3 212 371 48
3 372 371 212
3 372 91 371
3 372 370 91
3 373 370 372
3 373 8 370
3 373 136 8
3 374 136 373
3 374 56 136
3 214 374 92
3 375 374 214
3 375 56 374
3 375 287 56
3 376 287 375
3 376 3 287
3 299 127 5
3 377 127 299
3 377 49 127
3 217 377 62
3 378 377 217
3 378 49 377
3 378 274 49
3 379 274 378
3 379 22 274
3 276 218 11
3 380 218 276
3 380 94 218
3 220 380 50
3 381 380 220
3 381 94 380
3 381 379 94
3 382 379 381
3 382 22 379
3 382 215 22
3 383 215 382
3 383 93 215
3 222 383 95
3 384 383 222
3 384 93 383
3 384 376 93
3 385 376 384
3 385 3 376
3 385 118 3
3 386 118 385
3 386 804 806
3 806 805 118
3 804 805 806
3 224 386 96
3 387 386 224
3 387 807 809
3 809 808 386
3 807 808 809
3 387 810 811
3 813 812 387
3 814 225 815
3 816 815 23
3 814 815 816
3 388 817 819
3 817 225 818
3 817 818 819
3 388 97 225
3 820 388 821
3 822 388 823
3 824 97 825
3 826 825 388
3 824 825 826
3 828 827 97
3 829 30 830
3 831 30 832
3 834 833 30
3 310 106 1
3 389 106 310
3 389 835 837
3 837 836 106
3 835 836 837
3 838 389 839
3 840 839 69
3 838 839 840
3 841 389 842
3 844 843 389
