ply
format ascii 1.0
element vertex 812
property float x
property float y
property float z
element face 1002
property list uchar int vertex_index
end_header
-62.315884 -17.907198 -43.59761
-64.425568 -44.320827 -14.268452
-67.995499 -45.98307 -27.300617
-59.159092 6.019045 -37.769821
-44.108215 7.119026 -56.67881
-48.552551 -19.99122 -48.145432
-55.546261 -48.833969 -35.993275
-65.444244 -32.565613 -21.818504
-36.408699 2.808485 -58.03315
-66.460739 -32.053951 -35.222004
-62.551167 -48.075054 -33.13303
-60.754177 -33.761993 -41.249744
-53.77689 -34.384087 -42.585415
-55.949074 -19.200155 -49.091866
-67.567581 -58.221107 -18.424923
-68.88221 -44.673256 -20.708767
-69.176323 -31.28429 -28.317932
-66.801224 -17.291466 -35.666943
-61.070885 -3.822349 -43.191689
-52.854301 8.579321 -48.775024
-54.461662 -4.440782 -51.686432
-46.923225 -6.148543 -55.575035
-41.250294 -22.430843 -44.006615
-47.339684 -49.824242 -35.877884
-45.519737 -35.388405 -40.111782
-64.794144 -24.935043 -39.32069
-63.724998 -32.987045 -38.596527
-61.947899 -25.780165 -42.775066
-58.885803 -26.436653 -45.227673
-59.246765 -18.644455 -46.99704
-66.927498 -44.541172 -17.516312
-67.950989 -31.779915 -25.09071
-67.902664 -24.919945 -28.465
-68.417343 -24.260529 -31.915455
-67.064713 -18.034071 -31.832405
-61.608974 0.122282 -35.935596
-62.959557 -4.601203 -38.480648
-59.970253 1.82518 -41.293442
-48.527985 8.2805 -53.317184
-53.474503 2.486261 -50.97081
-49.395569 1.723694 -54.740509
-50.688221 -5.243153 -54.52195
-45.365147 0.546288 -57.066254
-68.009338 -52.381031 -23.018612
-65.598206 -59.66415 -21.702339
-65.823883 -53.67062 -26.214813
-59.194416 -48.616104 -35.007824
-51.869286 -56.133366 -32.957771
-47.807648 -56.89962 -33.286873
-51.591667 -49.122726 -36.217682
-51.683132 -27.017605 -45.442024
-49.697868 -34.712936 -41.538445
-47.688335 -27.493074 -43.838459
-43.805252 -28.423584 -42.05151
-44.770164 -20.881886 -46.095596
-62.866066 -38.767673 -14.731834
-64.869873 -38.736855 -18.229
-63.105072 -33.22155 -18.300228
-39.11599 11.206589 -57.295738
-40.011566 5.279408 -58.344131
-35.194626 8.47121 -58.141647
-67.497253 -39.13784 -31.28994
-65.573318 -47.107933 -30.464642
-64.875778 -40.14679 -34.528336
-61.876205 -41.009869 -37.223728
-58.611336 -41.487835 -38.931076
-54.971722 -41.698032 -39.471813
-57.486267 -34.17865 -42.624947
-55.480385 -26.780914 -46.111626
-52.357719 -19.556219 -49.402977
-69.270325 -45.10334 -23.97683
-67.514015 -38.400284 -21.491867
-69.238052 -38.167152 -24.669392
-69.184593 -38.390358 -27.931095
-68.539368 -31.378479 -31.695808
-67.185852 -24.298685 -35.559074
-65.020515 -17.31566 -39.643265
-65.375046 -11.243785 -35.23521
-64.324509 -10.470867 -39.518181
-61.973091 -10.494195 -43.799828
-56.525139 7.834194 -43.497143
-57.178104 2.599318 -46.35743
-58.065136 -3.861901 -47.699554
-58.861206 -11.044159 -47.838993
-55.449242 -11.729048 -51.032478
-51.873466 -12.32662 -52.651421
-48.172646 -12.92383 -52.374901
-41.581894 -0.992674 -57.476151
-43.259758 -7.320132 -54.71875
-44.483948 -13.864915 -50.607262
-62.86396 -54.816353 -28.905182
-50.928139 -41.996025 -39.061478
-46.61924 -42.645618 -38.11797
-63.669533 -21.404732 -41.445774
-63.399677 -25.360207 -41.126595
-62.227036 -21.806192 -43.265285
-60.729713 -22.195446 -44.891438
-60.808609 -18.283867 -45.412994
-65.650803 -44.467316 -15.909319
-67.032532 -25.445202 -26.765301
-66.920303 -22.048021 -28.358578
-67.592484 -21.470362 -30.140793
-66.607269 -18.653399 -29.944016
-60.439957 3.146149 -36.913288
-60.926624 1.081751 -38.646858
-59.50592 4.141405 -39.732224
-43.757656 10.203255 -55.823586
-46.297989 7.79414 -55.178871
-48.882454 5.090654 -54.22979
-46.748062 4.546267 -55.864136
-47.357483 1.177885 -56.121933
-44.663071 3.869518 -57.101601
-68.059517 -49.247879 -25.203838
-67.039612 -53.016624 -24.659386
-67.023621 -49.842628 -26.830135
-57.407654 -48.744308 -35.607712
-57.547058 -52.24287 -33.632854
-55.680145 -52.341297 -34.119442
-53.821617 -55.937328 -32.621529
-53.755718 -52.453098 -34.447289
-51.771389 -52.636692 -34.635296
-53.607971 -48.942238 -36.187519
-50.246964 -23.428169 -46.812263
-49.691849 -27.205971 -44.705845
-48.288452 -23.68681 -45.946701
-46.3451 -24.069004 -44.972786
-46.642258 -20.35981 -47.164421
-62.470806 -36.059566 -14.718212
-62.939949 -36.064705 -16.567398
-62.489048 -33.391521 -16.440083
-36.895569 12.558992 -57.054573
-37.065277 9.947214 -57.968956
-34.925423 11.067625 -57.493393
-67.050034 -35.611565 -33.245628
-66.258598 -39.635277 -32.947021
-65.76207 -36.089733 -34.940334
-62.265129 -33.414818 -40.053448
-62.900295 -37.031746 -38.009438
-61.38575 -37.40242 -39.2421
-60.283035 -41.298248 -38.221371
-59.805737 -37.674152 -40.187428
-58.13689 -37.852982 -40.806309
-59.169823 -34.013508 -42.119335
-57.563541 -22.792486 -47.182373
-57.234978 -26.64143 -45.88171
-55.859795 -22.981903 -47.705406
-54.062893 -23.123137 -47.784992
-54.190369 -19.391045 -49.474899
-68.614212 -47.728287 -18.58186
-69.099747 -47.960823 -20.206783
-69.156708 -48.2854 -21.861935
-69.298996 -44.833313 -22.329811
-65.148026 -35.711914 -20.074612
-66.217125 -38.583214 -19.883339
-66.512589 -35.426132 -21.727104
-68.786377 -31.471527 -26.694752
-68.733414 -34.896656 -24.921062
-69.277779 -34.75843 -26.518623
-69.445908 -38.20911 -26.28389
-69.343361 -34.756706 -28.1478
-68.942574 -34.906933 -29.818211
-69.083092 -31.249731 -29.982094
-67.719543 -20.760845 -33.768532
-67.996178 -24.189823 -33.710526
-67.141609 -20.683388 -35.649982
-66.210167 -20.789057 -37.576969
-66.071091 -17.211832 -37.639633
-65.367447 -11.920365 -33.091095
-64.471054 -8.59734 -34.616463
-62.177464 -4.100964 -40.854282
-63.689804 -7.405167 -39.154308
-62.787544 -7.123878 -41.398598
-63.282421 -10.393317 -41.665871
-61.575668 -7.049277 -43.623123
-54.804417 8.343845 -46.206898
-56.804321 5.412336 -45.128674
-55.053722 5.667601 -47.669212
-53.941578 -0.91128 -51.50515
-55.837685 -0.640787 -49.43515
-56.304928 -4.106077 -49.791916
-58.494553 -7.385213 -47.90041
-56.767338 -7.701441 -49.837395
-57.177902 -11.390236 -49.589722
-54.983929 -8.055757 -51.526512
-48.798893 -5.679354 -55.296028
-51.332176 -8.772832 -53.785789
-49.480591 -9.129794 -54.21714
-50.032494 -12.607899 -52.741302
-47.624359 -9.514548 -54.157669
-38.146286 4.127056 -58.433998
-40.746681 2.154549 -58.157936
-38.938175 1.09948 -57.938133
-40.679691 -5.011683 -55.529137
-41.49472 -8.117159 -53.72538
-43.9613 -10.547112 -52.778183
-42.18787 -11.298564 -51.6493
-42.699253 -14.590019 -49.42495
-66.360168 -61.654049 -17.755939
-64.113373 -47.635124 -31.882534
-64.319191 -51.019459 -29.788776
-62.7551 -51.497841 -31.041149
-47.603073 -53.368011 -34.626476
-45.136673 -50.339893 -35.534389
-54.47049 -38.061256 -41.069733
-52.995674 -41.813408 -39.360233
-52.47575 -38.181641 -40.794598
-47.599281 -35.004456 -40.838531
-48.268661 -38.645279 -39.762794
-46.130081 -39.012917 -39.133739
-42.642166 -25.258623 -43.034222
-41.999645 -29.041691 -41.227821
-65.715759 -28.489033 -37.243832
-65.134918 -32.515965 -36.959446
-64.357422 -28.934271 -39.020771
-62.932907 -29.382092 -40.672089
-61.462959 -29.782089 -42.109268
-59.936562 -30.101109 -43.246548
-60.448685 -26.148155 -44.171329
-59.18071 -22.53112 -46.225918
-57.631149 -18.954325 -48.250664
-67.748337 -47.550697 -16.984711
-68.0578 -44.591782 -19.109283
-66.780205 -32.162716 -23.475571
-66.971077 -28.825432 -25.146324
-68.010986 -28.364691 -26.790684
-68.68309 -28.000162 -28.433716
-68.898193 -27.775684 -30.105507
-68.386963 -24.511452 -30.172459
-67.87532 -21.028885 -31.936184
-67.140831 -17.569147 -33.73373
-62.077484 -1.019938 -33.166878
-62.666397 -3.006784 -34.834209
-63.420086 -5.313255 -36.070301
-62.234112 -2.080227 -37.421791
-61.528797 -1.352953 -39.955948
-60.513317 -0.84934 -42.435905
-53.101982 5.681635 -50.06588
-51.020859 5.479126 -52.272987
-51.449738 2.16889 -52.996323
-51.986748 -1.287546 -53.33577
-52.580605 -4.827974 -53.29364
-50.018478 -1.73741 -54.840424
-48.065216 -2.241865 -55.935158
-46.144146 -2.798567 -56.55619
-37.229439 -0.118898 -57.259468
-67.847694 -55.373024 -20.751789
-66.715256 -58.926411 -20.100979
-66.937759 -56.04673 -22.410854
-65.771774 -56.745396 -23.987484
-64.402054 -57.415466 -25.436234
-60.908936 -48.401947 -34.181652
-49.869194 -56.445862 -33.184135
-49.721592 -52.935581 -34.69458
-49.499176 -49.412773 -36.108566
-52.856117 -30.689104 -44.036793
-51.77005 -34.513279 -42.147884
-50.849144 -30.83778 -43.444073
-48.801743 -31.06735 -42.697952
-46.755772 -31.398552 -41.887352
-44.755566 -31.831545 -41.078201
-45.713089 -27.899298 -42.932152
-44.452431 -24.594147 -43.981968
-42.964691 -21.574583 -45.025536
-63.549141 -41.52441 -14.579891
-64.630768 -41.612839 -16.287642
-63.686062 -38.810585 -16.512861
-63.887905 -35.93943 -18.356483
-64.149338 -32.934368 -20.096252
-62.621914 -30.604675 -18.041405
-63.347797 -30.262699 -19.917938
-41.323902 12.230436 -56.145905
-41.54203 9.36688 -57.162781
-42.003357 6.276785 -57.75103
-39.447563 8.327955 -58.047279
-37.499931 7.100597 -58.438705
-35.708679 5.689381 -58.327568
-67.810364 -42.60463 -29.320229
-66.88855 -46.538994 -28.922295
-66.633484 -43.127602 -30.951824
-65.278305 -43.664085 -32.507996
-63.808147 -44.160187 -33.938015
-64.363007 -36.580837 -36.55146
-63.406612 -40.618935 -35.974564
-62.258949 -44.572403 -35.190235
-60.642063 -44.877285 -36.220016
-58.95293 -45.076893 -36.997589
-57.181263 -45.198429 -37.513611
-55.318748 -45.287857 -37.780186
-56.84407 -41.606255 -39.342186
-56.360458 -37.967506 -41.091591
-55.688187 -34.287754 -42.767319
-58.327759 -30.328979 -44.017784
-56.613678 -30.479191 -44.391743
-54.786327 -30.584595 -44.380386
-53.623383 -26.891144 -45.942581
-52.183365 -23.255947 -47.460331
-50.468826 -19.739443 -48.92907
-68.668442 -51.810764 -21.336975
-68.793602 -48.717651 -23.535892
-68.815804 -45.491936 -25.641048
-65.926865 -41.604424 -17.940441
-67.226593 -41.543419 -19.55212
-68.333664 -41.484047 -21.143932
-67.768906 -35.135777 -23.333363
-68.568497 -38.244148 -23.078712
-69.095535 -41.480446 -22.738434
-69.421234 -41.57663 -24.353039
-69.286209 -41.798256 -25.99461
-68.724625 -42.147911 -27.656925
-68.505592 -38.708336 -29.6063
-68.144653 -35.201714 -31.524818
-67.629425 -31.657995 -33.451454
-68.639877 -27.718597 -31.826073
-67.95829 -27.834282 -33.601089
-66.947464 -28.104343 -35.418308
-66.083984 -24.562185 -37.442955
-65.021072 -21.046198 -39.525173
-63.740196 -17.565208 -41.647728
-62.870949 -41.313301 -12.814766
-62.559929 -38.591549 -12.896872
-66.086304 -15.274611 -31.525444
-66.320847 -14.622882 -33.537033
-66.188858 -14.142335 -35.555191
-64.247665 -7.901419 -36.895363
-65.032837 -10.753476 -37.374359
-65.666527 -13.860441 -37.594051
-64.783669 -13.781185 -39.656872
-63.60891 -13.883307 -41.730518
-62.226852 -14.124495 -43.779556
-57.978378 7.053513 -40.676472
-58.297386 4.902822 -42.475887
-58.715458 2.332071 -43.867886
-59.193329 -0.575005 -44.856247
-55.408005 2.641378 -48.738358
-57.612419 -0.515625 -47.200558
-59.678253 -3.753078 -45.482681
-60.119507 -7.151313 -45.80555
-60.475761 -10.728778 -45.879581
-60.714714 -14.45048 -45.742836
-59.125786 -14.806419 -47.53545
-57.484421 -15.147505 -49.058182
-55.792717 -15.446543 -50.213882
-53.1688 -8.417177 -52.87101
-53.680946 -12.040842 -52.074814
-54.04422 -15.697612 -50.92765
-52.23735 -15.916315 -51.165459
-50.382317 -16.137142 -50.944313
-48.500641 -16.407707 -50.32975
-42.657089 3.072773 -57.87883
-43.436512 -0.1717 -57.522316
-44.267185 -3.422812 -56.676125
-39.80558 -1.947161 -56.957359
-42.443657 -4.146174 -56.313293
-45.072781 -6.680757 -55.364929
-45.778774 -9.969706 -53.650055
-46.315353 -13.32501 -51.628304
-46.6203 -16.78072 -49.422516
-44.769661 -17.304596 -48.337414
-42.973614 -18.013918 -47.180149
-41.253189 -18.922174 -46.028862
-65.75679 -50.451698 -28.372711
-64.417709 -54.287403 -27.641644
-53.362755 -45.398865 -37.826878
-51.317375 -45.579865 -37.693104
-49.194275 -45.862263 -37.41927
-50.397793 -38.368599 -40.335537
-48.791496 -42.272415 -38.631672
-47.01553 -46.252678 -37.038914
-44.818062 -46.73082 -36.573452
-42.844868 -32.344864 -40.305279
-65.038185 -44.394071 -15.088885
-65.511475 -45.813141 -14.860747
-64.898857 -45.739897 -14.040314
-66.391327 -20.714341 -28.200961
-66.445564 -22.380591 -27.459248
-66.23481 -19.01703 -28.993679
-66.763786 -20.35071 -29.151297
-66.391327 -20.714341 -28.200961
-59.799525 4.582597 -37.341555
-60.267692 3.952807 -35.856274
-59.62726 5.389255 -36.28454
-62.451748 -33.407556 -15.491039
-62.479927 -34.725544 -15.579148
-62.442627 -34.741579 -14.630104
-35.919154 12.962542 -56.73323
-36.957541 13.681617 -56.392761
-34.934081 12.216859 -56.952641
-35.910496 11.813308 -57.273983
-35.919154 12.962542 -56.73323
-64.039032 -7.402607 -34.117478
-64.444248 -9.027897 -33.462191
-52.799831 9.820086 -47.937196
-51.736745 9.922242 -49.220516
-53.829359 8.461583 -47.490961
-53.774889 9.702348 -46.653134
-52.799831 9.820086 -47.937196
-40.639933 -8.617987 -53.107979
-40.236221 -7.091201 -54.070228
-40.986508 -10.20869 -52.069939
-41.841295 -9.707861 -52.68734
-40.639933 -8.617987 -53.107979
-41.329408 -11.78217 -51.010467
-40.986508 -10.20869 -52.069939
-66.963875 -59.937578 -18.090431
-66.754436 -61.289552 -16.911451
-67.358143 -59.573082 -17.245943
-46.381804 -51.873014 -35.151085
-46.513498 -53.644899 -34.525381
-47.471379 -51.596126 -35.25218
-46.238179 -50.082068 -35.706136
-45.280298 -52.13084 -34.979337
-46.381804 -51.873014 -35.151085
-44.776443 -37.419411 -39.297629
-45.081615 -39.231667 -38.808607
-45.824909 -37.200661 -39.62276
-44.514431 -35.616249 -39.753151
-44.776443 -37.419411 -39.297629
-41.095482 -24.23237 -43.081226
-41.791418 -25.64626 -42.59503
-41.94623 -23.844733 -43.520418
-40.449388 -22.924919 -43.532299
-41.095482 -24.23237 -43.081226
-67.337918 -46.045935 -17.250512
-67.180458 -47.464378 -16.19312
-66.770038 -45.959615 -16.45892
-66.439999 -27.431047 -25.093718
-66.343487 -29.0777 -24.307181
-61.843229 -0.448828 -34.551237
-61.610935 0.463727 -33.599968
-61.37668 1.034837 -34.984327
-48.445193 9.728904 -52.665134
-47.289555 9.547876 -53.701595
-49.632733 8.415833 -52.239597
-48.445193 9.728904 -52.665134
-49.774422 6.879813 -52.795085
-50.87917 7.015147 -51.717499
-49.632733 8.415833 -52.239597
-59.274193 -50.356964 -33.987106
-60.131453 -50.249886 -33.574021
-60.051676 -48.509025 -34.594738
-57.578899 -53.96434 -32.617344
-56.641323 -54.025835 -32.903707
-51.880432 -57.874278 -32.081634
-52.856598 -57.776258 -31.913514
-52.845452 -56.035347 -32.78965
-50.906292 -58.042885 -32.27553
-51.880432 -57.874278 -32.081634
-50.86924 -56.289614 -33.070953
-49.906246 -58.199133 -32.388711
-50.906292 -58.042885 -32.27553
-62.560862 -29.365514 -17.804278
-62.505192 -30.714029 -17.08437
-63.488957 -28.73932 -20.668705
-63.098633 -28.991268 -19.71459
-63.893763 -30.043852 -20.823629
-63.488957 -28.73932 -20.668705
-40.219946 11.718512 -56.720821
-40.191154 13.009151 -56.135162
-39.087198 12.497227 -56.710079
-68.81165 -51.571859 -20.495107
-68.554436 -53.288021 -20.197385
-62.895712 -42.504111 -11.827979
-63.163998 -42.690331 -12.697492
-62.697264 -38.44041 -11.963465
-62.643045 -39.78443 -11.949454
-62.566435 -37.253687 -12.86506
-62.697264 -38.44041 -11.963465
-65.581779 -14.009231 -31.226391
-65.825238 -15.664357 -30.512953
-56.438835 8.796025 -42.492483
-55.598872 9.19546 -43.928549
-57.251759 7.443853 -42.086807
-57.165454 8.405684 -41.082147
-56.438835 8.796025 -42.492483
-38.955916 -2.51054 -56.495697
-38.51751 -1.03303 -57.108413
-37.667845 -1.596409 -56.646752
-41.975937 -16.772263 -47.679907
-42.836433 -16.301969 -48.302549
-41.838757 -15.060313 -48.802307
-41.115724 -17.226391 -47.104264
-42.113401 -18.468046 -46.604506
-41.975937 -16.772263 -47.679907
-65.447434 -61.042881 -20.542217
-66.005958 -60.674012 -19.741537
-66.156731 -59.295281 -20.901659
-62.86647 -56.410561 -27.813698
-63.643344 -56.146085 -27.181929
-63.640834 -54.551878 -28.273413
-46.846173 -58.977554 -32.64134
-47.877849 -58.665907 -32.578366
-41.530394 -30.969645 -40.401239
-41.160759 -29.37441 -40.846653
-66.131691 -45.922687 -15.655424
-65.511475 -45.813141 -14.860747
-66.289151 -44.504244 -16.712815
-66.770038 -45.959615 -16.45892
-66.131691 -45.922687 -15.655424
-66.501678 -24.079181 -26.662609
-66.470726 -25.740932 -25.903206
-66.976417 -23.746612 -27.56194
-66.501678 -24.079181 -26.662609
-66.445564 -22.380591 -27.459248
-60.792171 2.546771 -35.473173
-60.267692 3.952807 -35.856274
-61.024466 1.634215 -36.424442
-61.37668 1.034837 -34.984327
-60.792171 2.546771 -35.473173
-44.90439 10.509253 -54.954796
-43.702581 11.598769 -55.194122
-46.174557 9.304696 -54.632438
-44.90439 10.509253 -54.954796
-45.027822 8.998698 -55.501228
-47.412987 8.03732 -54.248027
-47.289555 9.547876 -53.701595
-46.174557 9.304696 -54.632438
-55.707867 -54.075048 -33.147002
-56.641323 -54.025835 -32.903707
-56.613602 -52.292084 -33.876148
-54.750881 -54.139313 -33.370486
-54.778603 -55.873064 -32.398045
-55.707867 -54.075048 -33.147002
-37.976988 13.173428 -56.589496
-36.957541 13.681617 -56.392761
-38.00578 11.88279 -57.175156
-39.087198 12.497227 -56.710079
-37.976988 13.173428 -56.589496
-68.720756 -49.338758 -18.28845
-68.450077 -49.182293 -17.478783
-68.963524 -49.455027 -19.100912
-68.720756 -49.338758 -18.28845
-68.856979 -47.844555 -19.394322
-69.027302 -49.646889 -19.930011
-68.963524 -49.455027 -19.100912
-69.128227 -48.123112 -21.034359
-69.055782 -49.809177 -20.757587
-69.027302 -49.646889 -19.930011
-64.892444 -10.68941 -32.699507
-65.222351 -12.332108 -32.009217
-64.919251 -10.258852 -33.853779
-64.892444 -10.68941 -32.699507
-64.444248 -9.027897 -33.462191
-54.738511 9.450285 -45.283427
-53.774889 9.702348 -46.653134
-55.664778 8.089019 -44.852021
-55.598872 9.19546 -43.928549
-54.738511 9.450285 -45.283427
-39.828706 -5.538463 -54.972107
-39.392971 -4.042801 -55.781586
-41.087205 -6.564421 -54.627258
-39.828706 -5.538463 -54.972107
-40.236221 -7.091201 -54.070228
-41.5851 -13.427898 -49.898292
-42.443562 -12.944292 -50.537125
-41.329408 -11.78217 -51.010467
-41.838757 -15.060313 -48.802307
-41.5851 -13.427898 -49.898292
-66.104668 -62.941389 -16.57978
-66.754436 -61.289552 -16.911451
-65.606075 -63.335104 -17.404594
-66.104668 -62.941389 -16.57978
-64.804955 -61.42593 -21.29842
-64.933152 -60.024988 -22.441538
-46.6402 -55.428436 -33.934549
-46.742487 -57.19424 -33.264747
-47.70536 -55.133815 -33.956674
-46.6402 -55.428436 -33.934549
-46.513498 -53.644899 -34.525381
-44.174958 -52.447615 -34.805957
-45.280298 -52.13084 -34.979337
-44.03545 -50.627985 -35.306497
-44.174958 -52.447615 -34.805957
-45.294027 -41.053608 -38.342196
-45.538607 -42.869958 -37.834311
-46.37466 -40.829268 -38.625855
-45.294027 -41.053608 -38.342196
-45.081615 -39.231667 -38.808607
-41.470157 -27.537794 -41.691829
-42.320906 -27.150157 -42.131022
-41.791418 -25.64626 -42.59503
-41.160759 -29.37441 -40.846653
-41.470157 -27.537794 -41.691829
-67.568352 -48.951462 -15.889115
-67.180458 -47.464378 -16.19312
-68.01714 -49.093498 -16.680208
-67.568352 -48.951462 -15.889115
-68.181275 -47.639492 -17.783285
-68.450077 -49.182293 -17.478783
-68.01714 -49.093498 -16.680208
-66.248051 -30.746341 -23.471804
-66.112224 -32.364165 -22.647037
-65.580071 -30.94779 -22.64327
-66.875641 -30.494074 -24.310947
-66.248051 -30.746341 -23.471804
-66.343487 -29.0777 -24.307181
-67.001804 -27.135317 -25.955813
-66.439999 -27.431047 -25.093718
-66.470726 -25.740932 -25.903206
-61.882658 -0.219231 -32.137178
-61.610935 0.463727 -33.599968
-62.24609 -1.66317 -31.759367
-61.882658 -0.219231 -32.137178
-62.488314 -2.557751 -32.680817
-62.24609 -1.66317 -31.759367
-62.78277 -3.551173 -33.514482
-62.488314 -2.557751 -32.680817
-62.371941 -2.013361 -34.000543
-63.136704 -4.607329 -34.226351
-62.78277 -3.551173 -33.514482
-63.043242 -4.160019 -35.452255
-63.513548 -5.760564 -34.844397
-63.136704 -4.607329 -34.226351
-51.79589 8.565244 -49.968517
-51.736745 9.922242 -49.220516
-51.919731 7.116401 -50.613945
-52.978141 7.130478 -49.420452
-51.79589 8.565244 -49.968517
-52.06142 5.580381 -51.169433
-51.919731 7.116401 -50.613945
-50.87917 7.015147 -51.717499
-36.010092 0.592753 -57.225528
-36.819069 1.344793 -57.646309
-35.599722 2.056444 -57.612369
-36.420956 -0.825337 -56.727486
-36.010092 0.592753 -57.225528
-37.667845 -1.596409 -56.646752
-36.420956 -0.825337 -56.727486
-65.019936 -58.565611 -23.584111
-64.933152 -60.024988 -22.441538
-65.68499 -58.204773 -22.844911
-64.335076 -58.900646 -24.308485
-65.019936 -58.565611 -23.584111
-65.086914 -57.080431 -24.711859
-63.583012 -59.227686 -24.967791
-64.335076 -58.900646 -24.308485
-61.001404 -50.129987 -33.142811
-61.822519 -49.966541 -32.6185
-61.730052 -48.238501 -33.657341
-61.001404 -50.129987 -33.142811
-60.131453 -50.249886 -33.574021
-58.450514 -52.170347 -33.299622
-59.274193 -50.356964 -33.987106
-58.370737 -50.429487 -34.320339
-58.450514 -52.170347 -33.299622
-57.578899 -53.96434 -32.617344
-53.817692 -57.663717 -31.676959
-54.778603 -55.873064 -32.398045
-53.817692 -57.663717 -31.676959
-52.856598 -57.776258 -31.913514
-48.908622 -58.439028 -32.526996
-49.906246 -58.199133 -32.388711
-48.838421 -56.672741 -33.235504
-47.877849 -58.665907 -32.578366
-48.908622 -58.439028 -32.526996
-62.438759 -32.107452 -16.283709
-62.451748 -33.407556 -15.491039
-62.555481 -31.998098 -17.240744
-62.438759 -32.107452 -16.283709
-62.505192 -30.714029 -17.08437
-62.735691 -29.162256 -18.776324
-62.560862 -29.365514 -17.804278
-62.984855 -30.433687 -18.979672
-62.735691 -29.162256 -18.776324
-63.098633 -28.991268 -19.71459
-64.294533 -31.379687 -20.912786
-63.748568 -31.598534 -20.007095
-63.893763 -30.043852 -20.823629
-64.941986 -31.19531 -21.773913
-64.796791 -32.74999 -20.957378
-64.294533 -31.379687 -20.912786
-65.580071 -30.94779 -22.64327
-64.941986 -31.19531 -21.773913
-59.040751 6.688655 -36.625576
-59.62726 5.389255 -36.28454
-41.349075 13.477522 -55.440449
-40.191154 13.009151 -56.135162
-42.485704 12.612359 -55.355282
-41.349075 13.477522 -55.440449
-42.540779 11.216845 -55.984746
-43.702581 11.598769 -55.194122
-42.485704 12.612359 -55.355282
-34.009417 11.357936 -57.045452
-34.934081 12.216859 -56.952641
-34.046868 10.203844 -57.463513
-34.009417 11.357936 -57.045452
-34.181469 8.905636 -57.787639
-35.060024 9.769417 -57.81752
-34.046868 10.203844 -57.463513
-34.352293 7.630786 -57.981014
-34.181469 8.905636 -57.787639
-34.609319 6.239872 -58.073974
-35.451652 7.080296 -58.234607
-34.352293 7.630786 -57.981014
-34.88942 4.889756 -58.033848
-34.609319 6.239872 -58.073974
-35.239429 3.449308 -57.886639
-36.058689 4.248933 -58.180359
-34.88942 4.889756 -58.033848
-35.599722 2.056444 -57.612369
-35.239429 3.449308 -57.886639
-67.831131 -57.900694 -17.574665
-67.358143 -59.573082 -17.245943
-68.004006 -56.493193 -18.74136
-67.831131 -57.900694 -17.574665
-68.144062 -55.069151 -19.904792
-67.707638 -56.797066 -19.588356
-68.004006 -56.493193 -18.74136
-68.258068 -53.591894 -21.044382
-68.144062 -55.069151 -19.904792
-68.554436 -53.288021 -20.197385
-68.912575 -50.048082 -21.599455
-68.81165 -51.571859 -20.495107
-69.055782 -49.809177 -20.757587
-64.325417 -45.586614 -13.232358
-64.898857 -45.739897 -14.040314
-63.941308 -44.194094 -13.424335
-64.325417 -45.586614 -13.232358
-63.503094 -42.795885 -13.580055
-63.987354 -42.922618 -14.424171
-63.941308 -44.194094 -13.424335
-63.210045 -41.418856 -13.697329
-63.503094 -42.795885 -13.580055
-63.163998 -42.690331 -12.697492
-62.798556 -41.145306 -11.9084
-62.895712 -42.504111 -11.827979
-62.715439 -39.952425 -12.855819
-62.798556 -41.145306 -11.9084
-62.643045 -39.78443 -11.949454
-62.521873 -35.987696 -13.77573
-62.515367 -37.325558 -13.807542
-62.566435 -37.253687 -12.86506
-62.442627 -34.741579 -14.630104
-62.521873 -35.987696 -13.77573
-66.08572 -17.353751 -29.722239
-66.23481 -19.01703 -28.993679
-66.346787 -16.964005 -30.73473
-66.08572 -17.353751 -29.722239
-65.825238 -15.664357 -30.512953
-65.726876 -13.597488 -32.30827
-65.581779 -14.009231 -31.226391
-65.222351 -12.332108 -32.009217
-63.94557 -6.955298 -35.343382
-64.039032 -7.402607 -34.117478
-63.513548 -5.760564 -34.844397
-58.462271 7.350621 -38.143858
-59.040751 6.688655 -36.625576
-57.871914 7.867855 -39.597183
-57.165454 8.405684 -41.082147
-58.568735 6.536279 -39.223146
-58.462271 7.350621 -38.143858
-57.871914 7.867855 -39.597183
-40.242635 -3.479422 -56.243248
-38.955916 -2.51054 -56.495697
-39.392971 -4.042801 -55.781586
-40.294632 -17.808686 -46.483656
-41.115724 -17.226391 -47.104264
-40.440413 -19.470726 -45.477175
-40.294632 -17.808686 -46.483656
-40.438965 -21.225061 -44.466051
-41.251741 -20.676508 -45.017738
-40.440413 -19.470726 -45.477175
-40.449388 -22.924919 -43.532299
-40.438965 -21.225061 -44.466051
-65.828415 -62.03783 -18.569017
-66.537712 -60.29023 -18.928459
-66.005958 -60.674012 -19.741537
-65.606075 -63.335104 -17.404594
-65.828415 -62.03783 -18.569017
-65.447434 -61.042881 -20.542217
-64.804955 -61.42593 -21.29842
-63.635517 -57.710117 -26.079224
-64.409882 -55.851434 -26.538939
-63.643344 -56.146085 -27.181929
-63.583012 -59.227686 -24.967791
-63.635517 -57.710117 -26.079224
-61.924486 -51.677934 -31.572559
-62.653133 -49.786448 -32.087089
-61.822519 -49.966541 -32.6185
-61.975008 -53.361339 -30.513272
-61.924486 -51.677934 -31.572559
-62.029438 -55.020595 -29.445288
-62.80953 -53.157097 -29.973166
-61.975008 -53.361339 -30.513272
-62.034346 -56.646509 -28.366618
-62.029438 -55.020595 -29.445288
-62.86647 -56.410561 -27.813698
-62.034346 -56.646509 -28.366618
-46.846173 -58.977554 -32.64134
-46.742487 -57.19424 -33.264747
-43.876144 -48.823448 -35.826029
-44.03545 -50.627985 -35.306497
-44.977367 -48.535357 -36.053921
-44.638018 -44.91256 -37.062052
-45.718651 -44.688219 -37.345711
-45.538607 -42.869958 -37.834311
-43.737327 -46.992092 -36.301899
-44.638018 -44.91256 -37.062052
-43.876144 -48.823448 -35.826029
-43.737327 -46.992092 -36.301899
-44.132345 -33.837819 -40.236361
-44.514431 -35.616249 -39.753151
-45.137652 -33.609975 -40.594991
-43.176997 -34.094479 -39.849899
-44.132345 -33.837819 -40.236361
-43.800217 -32.088205 -40.69174
-42.230842 -34.338875 -39.500191
-43.176997 -34.094479 -39.849899
-41.953005 -32.621231 -39.939968
-42.422257 -30.693278 -40.76655
-41.530394 -30.969645 -40.401239
-42.230842 -34.338875 -39.500191
-41.953005 -32.621231 -39.939968
3 0 95 93
3 0 97 95
3 1 370 372
3 370 98 371
3 370 371 372
3 373 100 374
3 375 102 376
3 377 376 100
3 375 376 377
3 3 378 380
3 378 103 379
3 378 379 380
3 3 105 103
3 4 107 106
3 4 109 107
3 4 111 109
3 2 114 112
3 6 117 115
3 6 119 117
3 6 121 119
3 5 124 122
3 5 126 124
3 381 129 382
3 383 382 127
3 381 382 383
3 384 130 385
3 386 132 387
3 388 387 130
3 386 387 388
3 9 135 133
3 11 138 136
3 11 140 138
3 11 142 140
3 13 145 143
3 13 147 145
3 15 149 148
3 15 151 149
3 7 154 152
3 16 157 155
3 16 159 157
3 16 161 159
3 17 164 162
3 17 166 164
3 389 168 390
3 18 171 169
3 18 173 171
3 19 391 392
3 19 393 395
3 393 174 394
3 393 394 395
3 19 176 174
3 20 179 177
3 20 181 179
3 20 183 181
3 21 186 184
3 21 188 186
3 8 191 189
3 396 193 397
3 398 195 399
3 400 399 193
3 398 399 400
3 402 401 195
3 14 403 405
3 403 197 404
3 403 404 405
3 10 200 198
3 23 406 408
3 408 407 201
3 406 407 408
3 23 409 411
3 409 202 410
3 409 410 411
3 12 205 203
3 24 208 206
3 24 412 414
3 414 413 208
3 412 413 414
3 24 415 416
3 22 417 419
3 419 418 209
3 417 418 419
3 22 420 421
3 25 213 211
3 27 214 94
3 27 215 214
3 27 217 215
3 29 218 96
3 29 219 218
3 30 422 424
3 422 220 423
3 422 423 424
3 30 221 220
3 425 223 426
3 32 224 99
3 32 225 224
3 32 227 225
3 34 228 101
3 34 229 228
3 35 427 429
3 427 230 428
3 427 428 429
3 35 231 230
3 35 233 231
3 37 234 104
3 37 235 234
3 38 430 431
3 38 432 433
3 38 434 436
3 434 237 435
3 434 435 436
3 40 238 108
3 40 239 238
3 40 241 239
3 42 242 110
3 42 243 242
3 43 247 245
3 45 248 113
3 45 249 248
3 46 437 439
3 439 438 250
3 437 438 439
3 441 440 116
3 47 442 444
3 444 443 118
3 442 443 444
3 47 445 446
3 47 447 449
3 447 251 448
3 447 448 449
3 49 252 120
3 49 253 252
3 50 256 254
3 52 257 123
3 52 258 257
3 52 260 258
3 54 261 125
3 54 262 261
3 55 265 263
3 57 266 128
3 57 267 266
3 450 268 451
3 452 269 453
3 455 454 269
3 58 456 458
3 456 270 457
3 456 457 458
3 58 271 270
3 58 273 271
3 60 274 131
3 60 275 274
3 61 278 276
3 63 279 134
3 63 280 279
3 26 281 212
3 64 282 137
3 64 283 282
3 64 284 283
3 65 285 139
3 65 286 285
3 65 288 286
3 67 289 141
3 67 290 289
3 28 291 216
3 68 292 144
3 68 293 292
3 68 294 293
3 69 295 146
3 69 296 295
3 459 297 460
3 70 298 150
3 70 299 298
3 56 300 264
3 71 301 153
3 71 302 301
3 31 303 222
3 72 304 156
3 72 305 304
3 72 306 305
3 73 307 158
3 73 308 307
3 73 309 308
3 74 310 160
3 74 311 310
3 33 312 226
3 75 313 163
3 75 314 313
3 75 315 314
3 76 316 165
3 76 317 316
3 461 318 462
3 463 319 464
3 466 465 319
3 467 320 468
3 77 321 167
3 77 322 321
3 36 323 232
3 78 324 170
3 78 325 324
3 78 326 325
3 79 327 172
3 79 328 327
3 80 469 470
3 80 471 473
3 471 329 472
3 471 472 473
3 80 330 329
3 81 331 175
3 81 332 331
3 39 333 236
3 82 334 178
3 82 335 334
3 82 336 335
3 83 337 180
3 83 338 337
3 83 339 338
3 84 340 182
3 84 341 340
3 41 342 240
3 85 343 185
3 85 344 343
3 85 345 344
3 86 346 187
3 86 347 346
3 59 348 272
3 87 349 190
3 87 350 349
3 474 351 475
3 476 475 244
3 474 475 476
3 88 352 192
3 88 353 352
3 88 354 353
3 89 355 194
3 89 356 355
3 89 357 356
3 477 358 478
3 479 478 196
3 477 478 479
3 480 359 481
3 482 481 358
3 480 481 482
3 44 483 485
3 485 484 246
3 483 484 485
3 62 360 277
3 90 361 199
3 90 486 488
3 488 487 361
3 486 487 488
3 48 489 490
3 66 362 287
3 91 363 204
3 91 364 363
3 51 365 255
3 92 366 207
3 92 367 366
3 92 368 367
3 53 369 259
3 492 491 210
3 93 94 25
3 95 94 93
3 95 27 94
3 95 96 27
3 97 96 95
3 97 29 96
3 98 493 494
3 98 495 497
3 495 30 496
3 495 496 497
3 498 99 499
3 100 500 502
3 500 99 501
3 500 501 502
3 100 32 99
3 100 101 32
3 102 101 100
3 102 34 101
3 103 503 504
3 103 505 507
3 505 35 506
3 505 506 507
3 103 104 35
3 105 104 103
3 105 37 104
3 106 508 509
3 107 510 512
3 512 511 106
3 510 511 512
3 107 513 515
3 513 38 514
3 513 514 515
3 107 108 38
3 109 108 107
3 109 40 108
3 109 110 40
3 111 110 109
3 111 42 110
3 112 113 43
3 114 113 112
3 114 45 113
3 115 116 46
3 117 116 115
3 117 516 518
3 518 517 116
3 516 517 518
3 117 519 521
3 519 118 520
3 519 520 521
3 119 118 117
3 119 47 118
3 119 120 47
3 121 120 119
3 121 49 120
3 122 123 50
3 124 123 122
3 124 52 123
3 124 125 52
3 126 125 124
3 126 54 125
3 127 128 55
3 129 128 127
3 129 57 128
3 130 522 523
3 130 524 526
3 524 58 525
3 524 525 526
3 130 131 58
3 132 131 130
3 132 60 131
3 133 134 61
3 135 134 133
3 135 63 134
3 136 137 26
3 138 137 136
3 138 64 137
3 138 139 64
3 140 139 138
3 140 65 139
3 140 141 65
3 142 141 140
3 142 67 141
3 143 144 28
3 145 144 143
3 145 68 144
3 145 146 68
3 147 146 145
3 147 69 146
3 148 527 528
3 149 529 531
3 531 530 148
3 529 530 531
3 149 532 533
3 149 534 536
3 534 150 535
3 534 535 536
3 151 150 149
3 151 70 150
3 152 153 56
3 154 153 152
3 154 71 153
3 155 156 31
3 157 156 155
3 157 72 156
3 157 158 72
3 159 158 157
3 159 73 158
3 159 160 73
3 161 160 159
3 161 74 160
3 162 163 33
3 164 163 162
3 164 75 163
3 164 165 75
3 166 165 164
3 166 76 165
3 537 167 538
3 168 539 541
3 539 167 540
3 539 540 541
3 168 77 167
3 169 170 36
3 171 170 169
3 171 78 170
3 171 172 78
3 173 172 171
3 173 79 172
3 174 542 543
3 174 544 546
3 544 80 545
3 544 545 546
3 174 175 80
3 176 175 174
3 176 81 175
3 177 178 39
3 179 178 177
3 179 82 178
3 179 180 82
3 181 180 179
3 181 83 180
3 181 182 83
3 183 182 181
3 183 84 182
3 184 185 41
3 186 185 184
3 186 85 185
3 186 187 85
3 188 187 186
3 188 86 187
3 189 190 59
3 191 190 189
3 191 87 190
3 547 192 548
3 193 549 551
3 549 192 550
3 549 550 551
3 193 88 192
3 193 194 88
3 195 194 193
3 195 89 194
3 195 196 89
3 552 196 553
3 554 553 195
3 552 553 554
3 556 555 196
3 197 557 558
3 197 559 560
3 562 561 44
3 198 199 62
3 200 199 198
3 200 90 199
3 201 563 565
3 565 564 48
3 563 564 565
3 567 566 201
3 202 568 569
3 202 570 571
3 203 204 66
3 205 204 203
3 205 91 204
3 206 207 51
3 208 207 206
3 208 92 207
3 208 572 574
3 574 573 92
3 572 573 574
3 576 575 208
3 209 210 53
3 577 210 578
3 579 578 209
3 577 578 579
3 581 580 210
3 211 212 9
3 213 212 211
3 213 26 212
3 94 213 25
3 214 213 94
3 214 26 213
3 214 136 26
3 215 136 214
3 215 11 136
3 215 216 11
3 217 216 215
3 217 28 216
3 96 217 27
3 218 217 96
3 218 28 217
3 218 143 28
3 219 143 218
3 219 13 143
3 220 582 583
3 220 584 585
3 220 586 588
3 586 148 587
3 586 587 588
3 221 148 220
3 221 15 148
3 589 222 590
3 591 590 7
3 589 590 591
3 223 592 594
3 592 222 593
3 592 593 594
3 223 31 222
3 99 595 597
3 595 223 596
3 595 596 597
3 224 223 99
3 224 31 223
3 224 155 31
3 225 155 224
3 225 16 155
3 225 226 16
3 227 226 225
3 227 33 226
3 101 227 32
3 228 227 101
3 228 33 227
3 228 162 33
3 229 162 228
3 229 17 162
3 230 598 599
3 230 600 601
3 230 602 603
3 231 604 606
3 606 605 230
3 604 605 606
3 231 607 608
3 231 609 611
3 609 232 610
3 609 610 611
3 233 232 231
3 233 36 232
3 104 233 35
3 234 233 104
3 234 36 233
3 234 169 36
3 235 169 234
3 235 18 169
3 612 19 613
3 614 236 615
3 616 615 19
3 614 615 616
3 237 617 619
3 617 236 618
3 617 618 619
3 237 39 236
3 108 237 38
3 238 237 108
3 238 39 237
3 238 177 39
3 239 177 238
3 239 20 177
3 239 240 20
3 241 240 239
3 241 41 240
3 110 241 40
3 242 241 110
3 242 41 241
3 242 184 41
3 243 184 242
3 243 21 184
3 620 244 621
3 622 621 8
3 620 621 622
3 623 244 624
3 626 625 244
3 245 246 14
3 247 246 245
3 247 44 246
3 113 247 43
3 248 247 113
3 248 44 247
3 248 627 629
3 629 628 44
3 627 628 629
3 249 630 632
3 632 631 248
3 630 631 632
3 249 633 634
3 250 635 637
3 637 636 10
3 635 636 637
3 639 638 250
3 116 640 642
3 642 641 46
3 640 641 642
3 644 643 116
3 118 645 646
3 648 647 118
3 251 649 650
3 251 651 653
3 651 48 652
3 651 652 653
3 120 251 47
3 252 251 120
3 252 48 251
3 252 201 48
3 253 201 252
3 253 23 201
3 254 255 12
3 256 255 254
3 256 51 255
3 123 256 50
3 257 256 123
3 257 51 256
3 257 206 51
3 258 206 257
3 258 24 206
3 258 259 24
3 260 259 258
3 260 53 259
3 125 260 52
3 261 260 125
3 261 53 260
3 261 209 53
3 262 209 261
3 262 22 209
3 263 264 1
3 265 264 263
3 265 56 264
3 128 265 55
3 266 265 128
3 266 56 265
3 266 152 56
3 267 152 266
3 267 7 152
3 654 129 655
3 268 656 658
3 656 129 657
3 656 657 658
3 268 57 129
3 659 268 660
3 269 661 663
3 661 268 662
3 661 662 663
3 269 57 268
3 269 267 57
3 664 267 665
3 666 665 269
3 664 665 666
3 667 7 668
3 669 668 267
3 667 668 669
3 671 670 7
3 672 3 673
3 270 674 675
3 270 676 677
3 270 678 680
3 678 106 679
3 678 679 680
3 271 106 270
3 271 4 106
3 271 272 4
3 273 272 271
3 273 59 272
3 131 273 58
3 274 273 131
3 274 59 273
3 274 189 59
3 275 189 274
3 275 8 189
3 681 132 682
3 683 132 684
3 685 60 686
3 687 686 132
3 685 686 687
3 688 60 689
3 690 275 691
3 692 691 60
3 690 691 692
3 693 275 694
3 695 8 696
3 697 696 275
3 695 696 697
3 699 698 8
3 276 277 2
3 278 277 276
3 278 62 277
3 134 278 61
3 279 278 134
3 279 62 278
3 279 198 62
3 280 198 279
3 280 10 198
3 212 135 9
3 281 135 212
3 281 63 135
3 137 281 26
3 282 281 137
3 282 63 281
3 282 280 63
3 283 280 282
3 283 10 280
3 283 250 10
3 284 250 283
3 284 46 250
3 139 284 64
3 285 284 139
3 285 46 284
3 285 115 46
3 286 115 285
3 286 6 115
3 286 287 6
3 288 287 286
3 288 66 287
3 141 288 65
3 289 288 141
3 289 66 288
3 289 203 66
3 290 203 289
3 290 12 203
3 216 142 11
3 291 142 216
3 291 67 142
3 144 291 28
3 292 291 144
3 292 67 291
3 292 290 67
3 293 290 292
3 293 12 290
3 293 254 12
3 294 254 293
3 294 50 254
3 146 294 68
3 295 294 146
3 295 50 294
3 295 122 50
3 296 122 295
3 296 5 122
3 700 14 701
3 702 14 703
3 704 245 705
3 706 705 14
3 704 705 706
3 297 707 709
3 707 245 708
3 707 708 709
3 297 43 245
3 150 710 712
3 710 297 711
3 710 711 712
3 298 297 150
3 298 43 297
3 298 112 43
3 299 112 298
3 299 2 112
3 264 98 1
3 300 98 264
3 300 30 98
3 153 300 56
3 301 300 153
3 301 30 300
3 301 221 30
3 302 221 301
3 302 15 221
3 222 154 7
3 303 154 222
3 303 71 154
3 156 303 31
3 304 303 156
3 304 71 303
3 304 302 71
3 305 302 304
3 305 15 302
3 305 151 15
3 306 151 305
3 306 70 151
3 158 306 72
3 307 306 158
3 307 70 306
3 307 299 70
3 308 299 307
3 308 2 299
3 308 276 2
3 309 276 308
3 309 61 276
3 160 309 73
3 310 309 160
3 310 61 309
3 310 133 61
3 311 133 310
3 311 9 133
3 226 161 16
3 312 161 226
3 312 74 161
3 163 312 33
3 313 312 163
3 313 74 312
3 313 311 74
3 314 311 313
3 314 9 311
3 314 211 9
3 315 211 314
3 315 25 211
3 165 315 75
3 316 315 165
3 316 25 315
3 316 93 25
3 317 93 316
3 317 0 93
3 713 1 714
3 715 1 716
3 717 263 718
3 719 718 1
3 717 718 719
3 318 720 722
3 720 263 721
3 720 721 722
3 318 55 263
3 723 318 724
3 319 725 727
3 725 318 726
3 725 726 727
3 319 55 318
3 319 127 55
3 728 127 729
3 730 729 319
3 728 729 730
3 732 731 127
3 733 102 734
3 320 735 737
3 735 102 736
3 735 736 737
3 320 34 102
3 167 738 740
3 738 320 739
3 738 739 740
3 321 320 167
3 321 34 320
3 321 229 34
3 322 229 321
3 322 17 229
3 232 741 743
3 741 168 742
3 741 742 743
3 323 168 232
3 323 77 168
3 170 323 36
3 324 323 170
3 324 77 323
3 324 322 77
3 325 322 324
3 325 17 322
3 325 166 17
3 326 166 325
3 326 76 166
3 172 326 78
3 327 326 172
3 327 76 326
3 327 317 76
3 328 317 327
3 328 0 317
3 744 3 745
3 329 746 747
3 329 748 750
3 748 3 749
3 748 749 750
3 329 105 3
3 330 105 329
3 330 37 105
3 175 330 80
3 331 330 175
3 331 37 330
3 331 235 37
3 332 235 331
3 332 18 235
3 236 176 19
3 333 176 236
3 333 81 176
3 178 333 39
3 334 333 178
3 334 81 333
3 334 332 81
3 335 332 334
3 335 18 332
3 335 173 18
3 336 173 335
3 336 79 173
3 180 336 82
3 337 336 180
3 337 79 336
3 337 328 79
3 338 328 337
3 338 0 328
3 338 97 0
3 339 97 338
3 339 29 97
3 182 339 83
3 340 339 182
3 340 29 339
3 340 219 29
3 341 219 340
3 341 13 219
3 240 183 20
3 342 183 240
3 342 84 183
3 185 342 41
3 343 342 185
3 343 84 342
3 343 341 84
3 344 341 343
3 344 13 341
3 344 147 13
3 345 147 344
3 345 69 147
3 187 345 85
3 346 345 187
3 346 69 345
3 346 296 69
3 347 296 346
3 347 5 296
3 272 111 4
3 348 111 272
3 348 42 111
3 190 348 59
3 349 348 190
3 349 42 348
3 349 243 42
3 350 243 349
3 350 21 243
3 244 191 8
3 351 191 244
3 351 87 191
3 192 751 753
3 751 351 752
3 751 752 753
3 352 351 192
3 352 87 351
3 352 350 87
3 353 350 352
3 353 21 350
3 353 188 21
3 354 188 353
3 354 86 188
3 194 354 88
3 355 354 194
3 355 86 354
3 355 347 86
3 356 347 355
3 356 5 347
3 356 126 5
3 357 126 356
3 357 54 126
3 196 357 89
3 358 357 196
3 358 54 357
3 358 262 54
3 359 262 358
3 359 22 262
3 754 359 755
3 756 359 757
3 758 22 759
3 760 759 359
3 758 759 760
3 762 761 22
3 246 197 14
3 763 197 764
3 765 764 246
3 763 764 765
3 767 766 197
3 769 768 44
3 277 114 2
3 360 114 277
3 360 45 114
3 199 360 62
3 361 360 199
3 361 45 360
3 361 249 45
3 770 249 771
3 772 771 361
3 770 771 772
3 774 773 249
3 775 200 776
3 777 776 10
3 775 776 777
3 778 200 779
3 780 90 781
3 782 781 200
3 780 781 782
3 783 90 784
3 786 785 90
3 788 787 48
3 287 121 6
3 362 121 287
3 362 49 121
3 204 362 66
3 363 362 204
3 363 49 362
3 363 253 49
3 364 253 363
3 364 23 253
3 255 205 12
3 365 205 255
3 365 91 205
3 207 365 51
3 366 365 207
3 366 91 365
3 366 364 91
3 367 364 366
3 367 23 364
3 367 202 23
3 368 202 367
3 368 789 791
3 791 790 202
3 789 790 791
3 792 368 793
3 794 793 92
3 792 793 794
3 795 368 796
3 798 797 368
3 259 799 801
3 801 800 24
3 799 800 801
3 369 802 804
3 804 803 259
3 802 803 804
3 369 805 806
3 210 369 53
3 807 369 808
3 809 808 210
3 807 808 809
3 811 810 369
