ply
format ascii 1.0
element vertex 652
property float x
property float y
property float z
element face 769
property list uchar int vertex_index
end_header
17.104214 -126.378906 -0.016056
3.62484 -98.800415 1.014847
4.467888 -120.595085 -1.732639
11.692596 -80.275421 13.229957
2.215578 -110.527573 -0.653854
5.712626 -117.393219 -11.676729
2.458542 -106.336746 -8.564226
8.464184 -86.885422 0.577958
3.275688 -92.553642 -5.13854
11.189243 -123.543571 9.532655
10.066988 -126.653198 -1.48901
3.271881 -119.705025 10.213242
0.504147 -110.498337 9.934438
3.166445 -99.522499 9.137257
7.849922 -89.148964 16.277082
9.259214 -89.393875 7.417199
12.0634 -124.464005 -12.638765
21.122803 -124.316162 -1.741852
18.086479 -126.556046 -4.725187
2.450436 -104.762596 0.245845
2.265038 -109.154083 -5.053541
2.148937 -102.971313 -3.50868
11.309196 -80.837891 -0.692741
7.766632 -83.216057 -2.506655
6.70495 -122.472626 10.023925
0.465427 -104.749847 15.134365
1.209015 -105.015068 9.603779
2.320681 -99.273369 14.078753
10.444981 -84.566612 14.727353
8.627937 -89.176605 11.560843
11.447102 -84.665405 10.18141
12.06287 -84.619576 6.140661
12.929182 -80.21273 8.780594
6.871096 -124.336121 -1.787933
10.938772 -126.227127 -7.416
7.777819 -123.529396 -7.561543
9.712988 -118.141617 -15.938604
5.247677 -87.382431 -7.959028
11.210724 -76.004349 11.750689
2.903324 -115.879265 -1.351109
5.197063 -119.589027 -7.175062
3.314762 -114.743439 -6.339998
3.611425 -112.318214 -10.393084
5.703695 -92.829529 1.206652
3.048992 -96.448593 -2.237713
4.998421 -89.834267 -1.836802
5.270361 -85.354935 -4.85932
14.337103 -125.752174 4.223652
13.784653 -127.246292 -0.828331
10.008675 -125.728996 4.325311
6.285885 -123.951195 4.253069
3.574671 -120.582787 4.195117
1.181688 -115.557693 10.157408
1.990078 -116.045143 4.227386
1.524126 -110.806213 4.392855
2.1555 -105.243256 4.646094
3.805567 -99.642326 4.796871
5.279943 -94.019669 12.869998
6.043673 -94.297218 8.432982
6.277014 -94.188919 4.572034
9.201134 -88.884415 3.800022
11.973747 -83.532745 2.568504
18.913204 -124.119774 3.476802
23.814484 -120.918808 2.241598
14.514046 -127.277916 -6.529997
15.858909 -125.956909 -12.027773
8.603985 -121.494148 -12.426931
13.373617 -121.355095 -16.493017
18.867472 -125.632195 -0.838724
19.682751 -125.605362 -3.399363
17.495409 -126.583015 -2.10803
2.920362 -101.792244 0.675177
2.322983 -104.055443 -1.719412
2.696606 -100.960114 -1.137346
12.481852 -77.731682 -1.417446
10.942091 -78.872086 -2.281313
1.223516 -102.004745 14.631403
10.988001 -80.365158 15.598252
10.652824 -82.492058 16.381166
11.275173 -82.399796 13.976517
10.967567 -84.581116 12.393229
11.866972 -82.412079 11.671248
12.392609 -82.45166 9.479191
12.349901 -80.252419 10.952389
5.565819 -122.614929 -1.801954
7.325418 -124.083466 -4.74901
6.014402 -122.29364 -4.697701
2.446497 -113.267746 -1.039286
3.173569 -115.453659 -3.939552
2.62483 -112.803551 -3.490126
2.264393 -107.936264 -6.931314
2.722021 -110.919609 -7.775217
2.910652 -109.433151 -9.534975
7.026041 -89.859726 0.993984
5.297098 -91.536224 -0.337931
6.605696 -88.395615 -0.535057
7.722197 -80.83728 -4.087997
6.27158 -84.297592 -3.586653
6.576427 -81.756538 -5.174473
6.011263 -82.669464 -6.434849
12.752546 -124.834091 6.821157
12.131428 -125.956444 4.318621
10.440817 -124.780952 7.018332
4.832306 -121.285973 10.152919
6.338854 -123.336464 7.196893
4.66674 -121.976105 7.219231
4.791172 -122.443161 4.216763
3.297352 -120.240067 7.213628
0.168879 -110.27285 12.876438
0.445107 -112.81414 13.076459
0.666769 -113.110565 10.061674
1.512682 -115.864647 7.159228
1.098518 -113.348816 7.129273
1.618189 -113.487213 4.293205
0.999264 -110.693771 7.105012
2.046038 -102.248528 9.393064
1.721817 -105.172585 7.055979
2.517368 -102.394333 7.001493
2.86224 -102.43277 4.751196
3.568848 -99.651375 6.896229
8.860514 -86.978836 17.986059
7.570206 -89.376381 18.839775
6.306145 -91.599365 17.092562
4.947517 -94.005539 15.324634
6.586668 -91.494522 14.583439
9.001888 -89.314407 9.418742
7.348808 -91.686234 10.021674
7.653753 -91.812317 7.964351
6.265377 -94.351784 6.434971
7.790993 -91.799446 6.04579
7.714254 -91.526779 4.255749
9.334444 -89.288788 5.548388
13.069986 -82.183792 5.456623
12.111958 -84.255013 4.30302
13.15303 -81.658539 3.617907
13.056374 -80.761322 1.87487
13.670547 -123.406677 9.151277
15.15543 -124.447044 6.509538
21.325127 -122.701927 2.861435
20.103518 -122.419106 5.499201
11.895288 -127.168289 -1.199242
14.034872 -127.433884 -3.636147
12.2043 -127.245407 -4.140402
11.489302 -125.512032 -10.166645
13.285423 -126.367973 -9.891291
13.934971 -125.419334 -12.46133
14.629263 -124.128891 -14.697346
5.445272 -118.652725 -9.570232
6.742176 -120.787132 -9.916603
7.072973 -119.570358 -12.113071
11.466768 -119.894211 -16.2778
14.227459 -119.288078 -17.842573
2.9849 -94.680077 -3.713945
2.402369 -98.115334 -4.320337
2.665468 -96.12516 -5.735722
23.604445 -122.552704 -2.544006
22.13332 -124.105026 -4.460449
18.82856 -126.258553 -7.50152
2.215895 -107.683807 -0.213852
2.294422 -110.005745 -2.950329
2.19133 -107.080986 -2.344959
2.085176 -106.123116 -4.286915
2.051821 -104.783485 -6.02103
9.92923 -83.885117 -0.003981
8.050226 -85.24826 -0.961967
9.535164 -82.078217 -1.568441
9.261568 -79.890427 -3.145144
9.715889 -121.945145 12.325394
8.84449 -123.231277 9.819958
7.397856 -121.392776 12.701983
0.083733 -107.454002 15.569869
0.273554 -107.598816 12.612359
0.688482 -107.781342 9.781874
0.748123 -104.853409 12.295929
1.571676 -102.092834 11.934004
2.708195 -99.365578 11.528292
9.921095 -84.688408 17.171816
9.269831 -86.808395 15.49091
8.219166 -89.09446 13.8475
9.718979 -86.797546 13.117979
10.160742 -86.893951 10.877611
10.530489 -87.004349 8.773277
10.761808 -87.009613 6.802726
11.82971 -84.717972 8.097502
12.807673 -82.413666 7.40766
13.392836 -80.053421 6.72268
8.377954 -125.699051 -1.685291
10.442335 -126.608574 -4.486588
8.805931 -125.540565 -4.684271
9.29277 -125.061012 -7.567156
9.784971 -124.261414 -10.237341
7.502993 -118.018394 -13.974655
4.018446 -90.109077 -6.546137
10.897852 -78.274887 14.813752
11.667635 -78.156342 12.485521
10.394873 -76.182777 14.030046
3.579201 -118.3339 -1.582422
4.879831 -120.228584 -4.543024
3.929354 -117.936806 -4.290421
4.159973 -117.266426 -6.814556
4.328499 -116.289406 -9.102764
2.678513 -112.034508 -5.749233
3.414524 -113.708771 -8.50518
4.550886 -114.97422 -11.107677
4.558155 -95.809082 1.206823
3.318495 -97.826485 -0.671345
4.189539 -94.680305 -0.38895
3.897465 -93.142715 -1.90234
3.841341 -91.221489 -3.372385
6.31192 -86.527443 -2.048807
4.952444 -87.758453 -3.332134
4.152798 -88.957108 -4.839354
4.9091 -86.39257 -6.330673
15.853554 -126.264854 1.845835
15.608684 -126.935974 -0.407602
13.865156 -126.692421 1.794339
11.849552 -126.73938 1.640489
9.897465 -126.358772 1.474332
8.281036 -124.279602 7.13518
8.038897 -125.057495 4.294373
8.092859 -125.536072 1.334455
6.49234 -124.289772 1.237905
5.125292 -122.661522 1.191267
4.002266 -120.707573 1.197783
2.05094 -117.776649 10.211599
2.244984 -118.182487 7.190253
2.641453 -118.42952 4.19626
3.124041 -118.48893 1.26047
2.489561 -116.06279 1.382415
2.099564 -113.477669 1.56463
1.95612 -110.773079 1.802267
1.210091 -107.952667 7.084181
1.705326 -108.045578 4.516973
2.060305 -107.982246 2.080703
2.410133 -105.135513 2.373048
2.999653 -102.261917 2.640475
3.818533 -99.387688 2.83629
3.699539 -96.60096 13.489043
4.102879 -96.709244 11.07645
6.961134 -91.545532 12.226169
5.680735 -94.147324 10.574906
4.520969 -96.866875 8.82156
4.835949 -96.967171 6.714516
4.956825 -96.891808 4.747017
4.850515 -96.532417 2.913518
6.06971 -93.704552 2.834467
7.43511 -90.898857 2.579584
8.885311 -88.097176 2.152826
10.806782 -86.78669 4.958284
10.653673 -86.230957 3.22552
10.336044 -85.272896 1.581878
11.683119 -82.398308 0.913405
12.81213 -79.45282 0.205173
12.384439 -78.063843 10.242024
17.611393 -123.634895 6.060938
16.591015 -125.137413 3.957219
17.874174 -125.49424 1.545321
22.478207 -122.732605 0.179888
20.079773 -124.328201 0.895738
15.842052 -127.194878 -2.968597
16.338959 -127.128059 -5.752319
17.008331 -126.745491 -8.580624
12.692511 -126.977081 -7.078756
15.141198 -126.785767 -9.371994
6.408199 -121.688797 -7.425409
8.195843 -122.669548 -10.143696
10.276794 -123.138985 -12.611786
9.076221 -119.989586 -14.365036
10.811666 -121.686455 -14.633444
12.674538 -123.080132 -14.759495
2.466993 -99.734489 -2.797476
2.094252 -101.496254 -5.119896
12.313652 -76.679608 -2.216741
12.907939 -76.150776 -1.761505
2.929326 -106.952247 -9.788919
3.155381 -108.50045 -10.274294
2.684597 -107.884949 -9.049601
7.284654 -79.961857 -5.447252
7.149312 -81.296909 -4.631235
7.857539 -79.502228 -4.904013
6.923517 -80.355259 -5.995271
7.284654 -79.961857 -5.447252
13.428813 -80.664032 4.198411
13.111508 -81.921166 4.537265
13.387291 -80.926659 5.117769
13.49721 -80.315251 3.279471
13.428813 -80.664032 4.198411
12.429895 -123.475124 9.341966
12.942134 -122.728912 10.503895
11.701483 -122.797359 10.694584
20.748316 -121.450074 6.496887
21.362496 -121.627778 5.198133
14.761819 -118.086345 -18.344271
13.276616 -118.523964 -17.69804
15.770014 -118.73867 -18.464878
14.761819 -118.086345 -18.344271
19.316389 -125.958401 -5.425812
20.114525 -125.483059 -4.762899
18.884615 -126.080704 -4.062275
18.45752 -126.407299 -6.113354
19.68743 -125.809654 -6.813978
19.316389 -125.958401 -5.425812
9.968909 -78.218368 -3.510796
10.10183 -79.381257 -2.713229
10.80917 -77.709198 -3.07888
9.231798 -78.63324 -3.950244
9.968909 -78.218368 -3.510796
7.897633 -120.759231 13.953774
8.556873 -121.66896 12.513689
9.05665 -121.035416 13.76548
0.27458 -106.101924 15.352117
0.269362 -106.096569 16.838534
0.460209 -104.744492 16.620782
9.05665 -121.035416 13.76548
10.285433 -121.197102 13.480029
4.912035 -89.276516 -8.17088
4.29742 -90.639839 -7.464435
4.633062 -88.745754 -7.252582
10.221891 -77.34177 15.592256
10.495269 -78.37643 16.00994
9.970402 -76.295715 15.200403
10.646363 -77.228832 14.421899
10.221891 -77.34177 15.592256
4.290334 -112.807964 -11.594424
4.760064 -114.135967 -11.95172
4.081156 -113.646217 -10.750381
6.069401 -83.117375 -7.144937
6.595084 -81.20591 -7.243745
1.144008 -115.358284 11.677814
0.775717 -113.986507 13.137339
0.813397 -114.185916 11.616934
1.616314 -116.667171 10.184503
1.578634 -116.467762 11.704909
1.144008 -115.358284 11.677814
13.307092 -78.676536 0.699273
12.934252 -80.107071 1.040021
13.429213 -79.330788 1.534122
13.213311 -77.941197 -0.138656
13.307092 -78.676536 0.699273
16.918838 -123.233292 7.365457
18.210695 -122.739013 7.082005
25.088287 -119.879745 1.980536
24.486348 -119.932537 3.292539
24.407711 -120.846042 0.893025
25.088287 -119.879745 1.980536
23.146346 -121.825706 1.210743
23.739573 -121.752941 -0.13783
24.407711 -120.846042 0.893025
16.826236 -125.999989 -11.661869
16.46738 -126.414418 -10.33398
15.500053 -126.371338 -10.699884
17.258431 -125.48368 -12.89877
16.826236 -125.999989 -11.661869
14.382989 -121.923916 -16.519531
14.033449 -122.786435 -15.65277
13.024078 -122.217613 -15.626256
2.21161 -100.568367 -5.84415
2.248311 -99.805794 -4.720116
2.365668 -98.877907 -5.444371
2.178286 -102.277664 -6.332491
2.21161 -100.568367 -5.84415
11.543772 -77.249809 -2.648675
11.711972 -78.301884 -1.849379
12.313652 -76.679608 -2.216741
10.80917 -77.709198 -3.07888
11.543772 -77.249809 -2.648675
0.785425 -103.390297 16.307911
0.460209 -104.744492 16.620782
1.16447 -102.017745 16.05643
0.844472 -103.377296 14.882884
0.785425 -103.390297 16.307911
1.668763 -100.655735 15.711177
1.16447 -102.017745 16.05643
2.217345 -99.290047 15.434852
1.772099 -100.639057 14.355078
1.668763 -100.655735 15.711177
10.820412 -81.428608 15.989709
10.453979 -81.5322 17.209167
10.621567 -80.46875 16.817709
5.757078 -87.826332 -8.812717
6.092534 -85.892571 -8.670148
3.48409 -109.99382 -10.755987
3.834477 -111.436352 -11.185042
3.261038 -110.875682 -9.964029
3.48409 -109.99382 -10.755987
3.155381 -108.50045 -10.274294
6.640935 -80.811722 -6.625459
6.293845 -82.213001 -5.804661
6.923517 -80.355259 -5.995271
6.595084 -81.20591 -7.243745
6.640935 -80.811722 -6.625459
0.306993 -111.543495 12.976449
0.272726 -111.435142 14.496215
0.134611 -110.164498 14.396205
8.687256 -87.147667 19.285865
9.139824 -85.974602 18.847387
8.042102 -88.34644 19.712723
8.687256 -87.147667 19.285865
8.21536 -88.177608 18.412917
7.484925 -89.572433 20.178053
8.042102 -88.34644 19.712723
6.869339 -90.628231 19.291062
7.484925 -89.572433 20.178053
6.237309 -91.739723 18.417456
6.869339 -90.628231 19.291062
6.938175 -90.487873 17.966169
5.535984 -92.877312 17.514606
6.237309 -91.739723 18.417456
5.626831 -92.802452 16.208598
4.85667 -94.080399 16.630641
5.535984 -92.877312 17.514606
13.448881 -79.866642 2.407952
13.104702 -81.209931 2.746389
13.49721 -80.315251 3.279471
13.429213 -79.330788 1.534122
13.448881 -79.866642 2.407952
11.593156 -75.908123 10.651623
10.788145 -74.893082 11.397451
14.245396 -122.561127 10.227512
12.942134 -122.728912 10.503895
14.948415 -123.119182 8.910626
14.245396 -122.561127 10.227512
14.412989 -123.926861 7.830407
15.690857 -123.639366 7.589757
14.948415 -123.119182 8.910626
23.217979 -120.877629 3.569331
24.486348 -119.932537 3.292539
21.973301 -121.769188 3.87925
22.569806 -121.810367 2.551516
23.217979 -120.877629 3.569331
20.714323 -122.560517 4.180318
21.973301 -121.769188 3.87925
21.362496 -121.627778 5.198133
15.286466 -125.102634 -13.423965
16.248435 -125.371421 -13.207186
14.89694 -125.688121 -12.244552
15.633612 -124.457413 -14.541973
15.286466 -125.102634 -13.423965
14.282117 -124.774113 -13.579338
16.054014 -123.697582 -15.536101
15.633612 -124.457413 -14.541973
11.89627 -118.827031 -16.915653
10.589878 -119.017914 -16.108202
11.019381 -117.950733 -16.746056
12.847113 -119.591144 -17.060187
11.89627 -118.827031 -16.915653
13.276616 -118.523964 -17.69804
15.248776 -119.899559 -17.920637
14.821855 -120.933067 -17.245859
13.800538 -120.321586 -17.167795
15.248776 -119.899559 -17.920637
15.770014 -118.73867 -18.464878
2.497218 -97.88282 -6.152064
2.365668 -98.877907 -5.444371
2.533919 -97.120247 -5.02803
24.182483 -122.368576 -3.910385
24.913095 -121.49701 -2.852216
23.446921 -123.144737 -4.868607
24.182483 -122.368576 -3.910385
22.868882 -123.328865 -3.502228
22.663351 -123.895927 -5.831337
23.446921 -123.144737 -4.868607
21.33981 -124.732891 -5.293442
20.908036 -124.855194 -3.929906
20.114525 -125.483059 -4.762899
22.663351 -123.895927 -5.831337
21.33981 -124.732891 -5.293442
20.164746 -125.565274 -8.18707
19.68743 -125.809654 -6.813978
19.259264 -125.966072 -8.872905
20.164746 -125.565274 -8.18707
8.462112 -79.106667 -4.42167
8.491883 -80.363854 -3.61657
9.231798 -78.63324 -3.950244
7.857539 -79.502228 -4.904013
8.462112 -79.106667 -4.42167
6.77858 -120.378524 14.185962
7.897633 -120.759231 13.953774
6.363321 -120.89909 12.84132
6.77858 -120.378524 14.185962
6.016869 -121.439015 11.502291
7.051403 -121.932701 11.362954
6.363321 -120.89909 12.84132
5.080547 -120.845688 11.566788
5.768628 -121.8793 10.088422
6.016869 -121.439015 11.502291
4.199197 -120.147587 11.654796
5.080547 -120.845688 11.566788
3.418985 -119.357113 11.684957
4.052093 -120.495499 10.18308
4.199197 -120.147587 11.654796
0.142534 -107.413628 17.101581
0.269362 -106.096569 16.838534
0.092038 -108.755074 15.742921
0.142534 -107.413628 17.101581
0.126306 -108.863426 14.223154
0.134611 -110.164498 14.396205
0.092038 -108.755074 15.742921
10.337029 -82.609814 17.623722
10.453979 -81.5322 17.209167
9.971164 -83.707989 18.019047
10.337029 -82.609814 17.623722
10.28696 -83.590233 16.776491
9.670115 -84.829387 18.440266
9.971164 -83.707989 18.019047
9.390804 -85.833622 17.578938
9.139824 -85.974602 18.847387
9.670115 -84.829387 18.440266
13.548716 -79.861473 5.750797
13.387291 -80.926659 5.117769
13.231411 -81.118606 6.089652
10.964806 -121.998146 12.090953
10.285433 -121.197102 13.480029
10.452566 -122.744358 10.929025
11.701483 -122.797359 10.694584
10.964806 -121.998146 12.090953
6.813766 -116.90253 -13.716105
6.60781 -117.705806 -12.825692
5.918582 -116.589943 -12.567141
7.826315 -117.066513 -14.728922
6.813766 -116.90253 -13.716105
8.931313 -117.128124 -15.710897
8.60799 -118.080005 -14.95663
7.826315 -117.066513 -14.728922
10.160294 -117.044262 -16.547659
8.931313 -117.128124 -15.710897
11.019381 -117.950733 -16.746056
10.160294 -117.044262 -16.547659
3.69542 -91.953868 -6.812623
3.324041 -93.176151 -6.108824
3.647067 -91.331359 -5.842339
3.69542 -91.953868 -6.812623
4.29742 -90.639839 -7.464435
4.912035 -89.276516 -8.17088
5.757078 -87.826332 -8.812717
10.540344 -79.421566 16.40219
10.621567 -80.46875 16.817709
10.942927 -79.320022 15.206002
10.540344 -79.421566 16.40219
10.495269 -78.37643 16.00994
9.528229 -75.252216 14.787653
9.970402 -76.295715 15.200403
9.960482 -75.114857 13.647013
9.528229 -75.252216 14.787653
10.368407 -75.025643 12.507335
10.802799 -76.093563 12.890367
9.960482 -75.114857 13.647013
10.788145 -74.893082 11.397451
10.368407 -75.025643 12.507335
5.337712 -115.380443 -12.282616
5.918582 -116.589943 -12.567141
5.131756 -116.183719 -11.392203
5.337712 -115.380443 -12.282616
4.760064 -114.135967 -11.95172
4.290334 -112.807964 -11.594424
3.834477 -111.436352 -11.185042
5.518319 -84.978927 -7.092849
5.460181 -84.531017 -6.382761
6.069401 -83.117375 -7.144937
5.687608 -85.473858 -7.907026
5.078388 -86.887501 -7.144851
5.518319 -84.978927 -7.092849
6.092534 -85.892571 -8.670148
5.687608 -85.473858 -7.907026
2.711158 -118.474297 11.720705
3.418985 -119.357113 11.684957
0.485368 -112.653221 14.612964
0.272726 -111.435142 14.496215
0.485368 -112.653221 14.612964
0.775717 -113.986507 13.137339
2.100687 -117.510109 11.719883
1.578634 -116.467762 11.704909
2.661411 -118.740837 10.212421
2.711158 -118.474297 11.720705
2.100687 -117.510109 11.719883
2.87132 -97.945801 15.071813
2.217345 -99.290047 15.434852
4.184738 -95.311886 15.694753
4.85667 -94.080399 16.630641
3.560749 -96.609597 14.776958
4.184738 -95.311886 15.694753
4.323528 -95.303249 14.406838
3.01011 -97.937164 13.783898
2.87132 -97.945801 15.071813
3.560749 -96.609597 14.776958
13.048172 -77.080628 -0.949966
12.646991 -78.592251 -0.606136
13.213311 -77.941197 -0.138656
12.907939 -76.150776 -1.761505
13.048172 -77.080628 -0.949966
12.180014 -76.93787 9.897291
11.797581 -77.034096 10.996357
11.593156 -75.908123 10.651623
12.702271 -77.988518 9.170303
12.180014 -76.93787 9.897291
12.974643 -79.062962 8.439588
12.656811 -79.138286 9.511309
12.702271 -77.988518 9.170303
13.20647 -78.983307 7.410631
13.161009 -80.133075 7.751637
12.974643 -79.062962 8.439588
13.466425 -78.830662 6.392881
13.20647 -78.983307 7.410631
13.548716 -79.861473 5.750797
13.466425 -78.830662 6.392881
19.456758 -122.131119 6.801137
20.748316 -121.450074 6.496887
18.857456 -123.027 5.780069
19.456758 -122.131119 6.801137
18.210695 -122.739013 7.082005
16.383412 -124.04097 6.285238
16.918838 -123.233292 7.365457
15.690857 -123.639366 7.589757
24.302692 -121.662991 -1.499777
24.913095 -121.49701 -2.852216
23.041326 -122.642655 -1.182059
24.302692 -121.662991 -1.499777
23.739573 -121.752941 -0.13783
18.349149 -126.209542 -9.412458
19.259264 -125.966072 -8.872905
17.918445 -126.502022 -8.041072
17.400946 -126.39428 -9.938295
16.074765 -126.765629 -8.976309
16.46738 -126.414418 -10.33398
18.349149 -126.209542 -9.412458
17.400946 -126.39428 -9.938295
17.258431 -125.48368 -12.89877
16.248435 -125.371421 -13.207186
15.010812 -123.310814 -15.621695
13.6519 -123.604512 -14.72842
14.033449 -122.786435 -15.65277
16.054014 -123.697582 -15.536101
15.010812 -123.310814 -15.621695
14.382989 -121.923916 -16.519531
14.821855 -120.933067 -17.245859
2.15707 -103.921279 -6.783058
2.073036 -103.13987 -5.570463
2.178286 -102.277664 -6.332491
2.360431 -104.69791 -8.054656
2.255181 -105.560115 -7.292628
2.15707 -103.921279 -6.783058
3.018931 -94.96191 -6.407415
2.970578 -94.339401 -5.437131
3.324041 -93.176151 -6.108824
2.825671 -96.77813 -6.809401
3.018931 -94.96191 -6.407415
2.497218 -97.88282 -6.152064
2.825671 -96.77813 -6.809401
2.729863 -105.3484 -9.258437
2.360431 -104.69791 -8.054656
2.929326 -106.952247 -9.788919
2.729863 -105.3484 -9.258437
3 0 70 68
3 1 73 71
3 273 272 74
3 3 79 77
3 3 81 79
3 3 83 81
3 2 86 84
3 4 89 87
3 6 92 90
3 6 274 276
3 276 275 92
3 274 275 276
3 7 95 93
3 277 98 278
3 279 278 96
3 277 278 279
3 281 280 98
3 9 102 100
3 11 105 103
3 11 107 105
3 12 110 108
3 12 112 110
3 12 114 112
3 13 117 115
3 13 119 117
3 14 121 120
3 14 122 121
3 14 124 122
3 15 127 125
3 15 129 127
3 15 131 129
3 282 134 283
3 284 283 132
3 282 283 284
3 286 285 134
3 9 287 289
3 287 136 288
3 287 288 289
3 9 100 136
3 290 139 291
3 10 142 140
3 16 145 143
3 16 146 145
3 5 149 147
3 292 151 293
3 295 294 151
3 8 154 152
3 17 156 155
3 18 296 298
3 298 297 69
3 296 297 298
3 18 299 301
3 299 157 300
3 299 300 301
3 19 160 158
3 21 161 72
3 21 162 161
3 22 165 163
3 302 166 303
3 304 303 75
3 302 303 304
3 306 305 166
3 307 169 308
3 309 308 167
3 307 308 309
3 25 310 312
3 310 170 311
3 310 311 312
3 25 171 170
3 25 173 171
3 27 174 76
3 27 175 174
3 28 176 78
3 28 177 176
3 28 179 177
3 30 180 80
3 30 181 180
3 30 183 181
3 32 184 82
3 32 185 184
3 313 167 314
3 33 188 186
3 35 189 85
3 35 190 189
3 37 315 317
3 317 316 192
3 315 316 317
3 318 193 319
3 320 195 321
3 322 321 193
3 320 321 322
3 39 198 196
3 41 199 88
3 41 200 199
3 20 201 159
3 42 202 91
3 42 203 202
3 42 323 325
3 325 324 203
3 323 324 325
3 43 206 204
3 45 207 94
3 45 208 207
3 23 209 164
3 46 210 97
3 46 211 210
3 46 212 211
3 327 326 99
3 47 215 213
3 49 216 101
3 49 217 216
3 24 218 168
3 50 219 104
3 50 220 219
3 50 221 220
3 51 222 106
3 51 223 222
3 52 328 330
3 330 329 109
3 328 329 330
3 52 331 333
3 331 224 332
3 331 332 333
3 52 225 224
3 53 226 111
3 53 227 226
3 53 228 227
3 54 229 113
3 54 230 229
3 26 231 172
3 55 232 116
3 55 233 232
3 55 234 233
3 56 235 118
3 56 236 235
3 57 237 123
3 57 238 237
3 29 239 178
3 58 240 126
3 58 241 240
3 58 242 241
3 59 243 128
3 59 244 243
3 59 245 244
3 60 246 130
3 60 247 246
3 31 248 182
3 61 249 133
3 61 250 249
3 61 251 250
3 334 252 335
3 336 335 135
3 334 335 336
3 338 337 252
3 38 253 194
3 339 254 340
3 47 255 137
3 47 213 255
3 63 341 342
3 63 343 344
3 63 345 347
3 345 257 346
3 345 346 347
3 62 258 138
3 62 256 258
3 48 259 214
3 64 260 141
3 64 261 260
3 34 262 187
3 65 263 144
3 65 348 350
3 350 349 263
3 348 349 350
3 65 351 352
3 40 264 197
3 66 265 148
3 66 266 265
3 36 267 191
3 67 268 150
3 67 269 268
3 67 353 355
3 355 354 269
3 353 354 355
3 44 270 205
3 356 271 357
3 358 357 153
3 356 357 358
3 360 359 271
3 68 69 17
3 70 69 68
3 70 18 69
3 71 72 19
3 73 72 71
3 73 21 72
3 74 75 22
3 361 75 362
3 363 362 74
3 361 362 363
3 365 364 75
3 366 25 367
3 368 76 369
3 370 369 25
3 368 369 370
3 371 76 372
3 373 27 374
3 375 374 76
3 373 374 375
3 77 376 378
3 376 78 377
3 376 377 378
3 79 78 77
3 79 28 78
3 79 80 28
3 81 80 79
3 81 30 80
3 81 82 30
3 83 82 81
3 83 32 82
3 84 85 33
3 86 85 84
3 86 35 85
3 380 379 37
3 87 88 39
3 89 88 87
3 89 41 88
3 90 91 20
3 92 91 90
3 92 42 91
3 92 381 383
3 383 382 42
3 381 382 383
3 385 384 92
3 93 94 43
3 95 94 93
3 95 45 94
3 96 97 23
3 98 97 96
3 98 46 97
3 98 99 46
3 386 99 387
3 388 387 98
3 386 387 388
3 390 389 99
3 100 101 47
3 102 101 100
3 102 49 101
3 103 104 24
3 105 104 103
3 105 50 104
3 105 106 50
3 107 106 105
3 107 51 106
3 108 391 393
3 391 109 392
3 391 392 393
3 110 109 108
3 110 52 109
3 110 111 52
3 112 111 110
3 112 53 111
3 112 113 53
3 114 113 112
3 114 54 113
3 115 116 26
3 117 116 115
3 117 55 116
3 117 118 55
3 119 118 117
3 119 56 118
3 120 394 395
3 121 396 398
3 398 397 120
3 396 397 398
3 121 399 400
3 121 401 402
3 122 403 405
3 405 404 121
3 403 404 405
3 122 406 407
3 122 408 410
3 408 123 409
3 408 409 410
3 124 123 122
3 124 57 123
3 125 126 29
3 127 126 125
3 127 58 126
3 127 128 58
3 129 128 127
3 129 59 128
3 129 130 59
3 131 130 129
3 131 60 130
3 132 133 31
3 134 133 132
3 134 61 133
3 134 135 61
3 411 135 412
3 413 412 134
3 411 412 413
3 415 414 135
3 417 416 38
3 136 418 419
3 136 420 421
3 136 422 424
3 422 137 423
3 422 423 424
3 100 137 136
3 100 47 137
3 425 63 426
3 427 138 428
3 429 428 63
3 427 428 429
3 139 430 432
3 430 138 431
3 430 431 432
3 139 62 138
3 140 141 48
3 142 141 140
3 142 64 141
3 143 144 34
3 145 144 143
3 145 65 144
3 145 433 435
3 435 434 65
3 433 434 435
3 146 436 438
3 438 437 145
3 436 437 438
3 146 439 440
3 147 148 40
3 149 148 147
3 149 66 148
3 441 150 442
3 443 442 36
3 441 442 443
3 151 444 446
3 444 150 445
3 444 445 446
3 151 67 150
3 151 447 449
3 449 448 67
3 447 448 449
3 451 450 151
3 152 153 44
3 154 153 152
3 154 452 454
3 454 453 153
3 452 453 454
3 155 455 456
3 156 457 459
3 459 458 155
3 457 458 459
3 156 460 461
3 69 156 17
3 462 156 463
3 464 463 69
3 462 463 464
3 466 465 156
3 157 467 468
3 157 469 470
3 158 159 4
3 160 159 158
3 160 20 159
3 72 160 19
3 161 160 72
3 161 20 160
3 161 90 20
3 162 90 161
3 162 6 90
3 163 164 7
3 165 164 163
3 165 23 164
3 75 165 22
3 166 165 75
3 166 23 165
3 166 96 23
3 471 96 472
3 473 472 166
3 471 472 473
3 475 474 96
3 167 168 9
3 169 168 167
3 169 24 168
3 476 169 477
3 478 169 479
3 480 24 481
3 482 481 169
3 480 481 482
3 483 103 484
3 485 484 24
3 483 484 485
3 486 103 487
3 488 11 489
3 490 489 103
3 488 489 490
3 170 491 492
3 170 493 494
3 170 495 497
3 495 108 496
3 495 496 497
3 171 108 170
3 171 12 108
3 171 172 12
3 173 172 171
3 173 26 172
3 76 173 25
3 174 173 76
3 174 26 173
3 174 115 26
3 175 115 174
3 175 13 115
3 78 498 499
3 176 500 502
3 502 501 78
3 500 501 502
3 176 503 504
3 176 505 507
3 505 120 506
3 505 506 507
3 177 120 176
3 177 14 120
3 177 178 14
3 179 178 177
3 179 29 178
3 80 179 28
3 180 179 80
3 180 29 179
3 180 125 29
3 181 125 180
3 181 15 125
3 181 182 15
3 183 182 181
3 183 31 182
3 82 183 30
3 184 183 82
3 184 31 183
3 184 132 31
3 185 132 184
3 185 508 510
3 510 509 132
3 508 509 510
3 167 511 512
3 167 513 515
3 513 9 514
3 513 514 515
3 186 187 10
3 188 187 186
3 188 34 187
3 85 188 33
3 189 188 85
3 189 34 188
3 189 143 34
3 190 143 189
3 190 16 143
3 516 191 517
3 518 517 5
3 516 517 518
3 519 191 520
3 521 36 522
3 523 522 191
3 521 522 523
3 524 36 525
3 527 526 36
3 192 528 530
3 530 529 8
3 528 529 530
3 532 531 192
3 534 533 37
3 535 77 536
3 193 537 539
3 537 77 538
3 537 538 539
3 193 3 77
3 193 194 3
3 195 194 193
3 195 38 194
3 540 195 541
3 542 195 543
3 544 38 545
3 546 545 195
3 544 545 546
3 548 547 38
3 196 197 2
3 198 197 196
3 198 40 197
3 88 198 39
3 199 198 88
3 199 40 198
3 199 147 40
3 200 147 199
3 200 5 147
3 159 89 4
3 201 89 159
3 201 41 89
3 91 201 20
3 202 201 91
3 202 41 201
3 202 200 41
3 203 200 202
3 203 5 200
3 203 549 551
3 551 550 5
3 549 550 551
3 553 552 203
3 555 554 42
3 204 205 1
3 206 205 204
3 206 44 205
3 94 206 43
3 207 206 94
3 207 44 206
3 207 152 44
3 208 152 207
3 208 8 152
3 164 95 7
3 209 95 164
3 209 45 95
3 97 209 23
3 210 209 97
3 210 45 209
3 210 208 45
3 211 208 210
3 211 8 208
3 211 192 8
3 212 192 211
3 212 37 192
3 99 212 46
3 556 212 557
3 558 557 99
3 556 557 558
3 559 37 560
3 561 560 212
3 559 560 561
3 563 562 37
3 213 214 0
3 215 214 213
3 215 48 214
3 101 215 47
3 216 215 101
3 216 48 215
3 216 140 48
3 217 140 216
3 217 10 140
3 168 102 9
3 218 102 168
3 218 49 102
3 104 218 24
3 219 218 104
3 219 49 218
3 219 217 49
3 220 217 219
3 220 10 217
3 220 186 10
3 221 186 220
3 221 33 186
3 106 221 50
3 222 221 106
3 222 33 221
3 222 84 33
3 223 84 222
3 223 2 84
3 564 11 565
3 109 566 567
3 569 568 109
3 224 570 571
3 224 572 574
3 572 11 573
3 572 573 574
3 224 107 11
3 225 107 224
3 225 51 107
3 111 225 52
3 226 225 111
3 226 51 225
3 226 223 51
3 227 223 226
3 227 2 223
3 227 196 2
3 228 196 227
3 228 39 196
3 113 228 53
3 229 228 113
3 229 39 228
3 229 87 39
3 230 87 229
3 230 4 87
3 172 114 12
3 231 114 172
3 231 54 114
3 116 231 26
3 232 231 116
3 232 54 231
3 232 230 54
3 233 230 232
3 233 4 230
3 233 158 4
3 234 158 233
3 234 19 158
3 118 234 55
3 235 234 118
3 235 19 234
3 235 71 19
3 236 71 235
3 236 1 71
3 575 27 576
3 123 577 578
3 237 579 581
3 581 580 123
3 579 580 581
3 237 582 584
3 582 27 583
3 582 583 584
3 237 175 27
3 238 175 237
3 238 13 175
3 178 124 14
3 239 124 178
3 239 57 124
3 126 239 29
3 240 239 126
3 240 57 239
3 240 238 57
3 241 238 240
3 241 13 238
3 241 119 13
3 242 119 241
3 242 56 119
3 128 242 58
3 243 242 128
3 243 56 242
3 243 236 56
3 244 236 243
3 244 1 236
3 244 204 1
3 245 204 244
3 245 43 204
3 130 245 59
3 246 245 130
3 246 43 245
3 246 93 43
3 247 93 246
3 247 7 93
3 182 131 15
3 248 131 182
3 248 60 131
3 133 248 31
3 249 248 133
3 249 60 248
3 249 247 60
3 250 247 249
3 250 7 247
3 250 163 7
3 251 163 250
3 251 22 163
3 135 251 61
3 252 251 135
3 252 22 251
3 252 74 22
3 585 74 586
3 587 586 252
3 585 586 587
3 589 588 74
3 194 83 3
3 253 83 194
3 253 32 83
3 590 253 591
3 592 591 38
3 590 591 592
3 593 253 594
3 595 32 596
3 597 596 253
3 595 596 597
3 598 185 599
3 600 599 32
3 598 599 600
3 601 185 602
3 604 603 185
3 605 139 606
3 254 607 609
3 607 139 608
3 607 608 609
3 254 62 139
3 137 610 612
3 610 254 611
3 610 611 612
3 255 254 137
3 255 62 254
3 255 256 62
3 213 256 255
3 213 0 256
3 613 155 614
3 257 615 617
3 615 155 616
3 615 616 617
3 257 17 155
3 138 257 63
3 258 257 138
3 258 17 257
3 258 68 17
3 256 68 258
3 256 0 68
3 214 70 0
3 259 70 214
3 259 18 70
3 141 259 48
3 260 259 141
3 260 18 259
3 260 157 18
3 261 157 260
3 261 618 620
3 620 619 157
3 618 619 620
3 187 142 10
3 262 142 187
3 262 64 142
3 144 262 34
3 263 262 144
3 263 64 262
3 263 261 64
3 621 261 622
3 623 622 263
3 621 622 623
3 625 624 261
3 627 626 65
3 197 86 2
3 264 86 197
3 264 35 86
3 148 264 40
3 265 264 148
3 265 35 264
3 265 190 35
3 266 190 265
3 266 16 190
3 191 149 5
3 267 149 191
3 267 66 149
3 150 267 36
3 268 267 150
3 268 66 267
3 268 266 66
3 269 266 268
3 269 16 266
3 269 146 16
3 628 146 629
3 630 629 269
3 628 629 630
3 632 631 146
3 634 633 67
3 205 73 1
3 270 73 205
3 270 21 73
3 153 270 44
3 271 270 153
3 271 21 270
3 271 162 21
3 635 162 636
3 637 636 271
3 635 636 637
3 638 6 639
3 640 639 162
3 638 639 640
3 641 154 642
3 643 642 8
3 641 642 643
3 644 154 645
3 647 646 154
3 648 6 649
3 651 650 6
