ply
format ascii 1.0
element vertex 521
property float x
property float y
property float z
element face 600
property list uchar int vertex_index
end_header
-43.123726 27.043858 7.050142
-53.868011 36.377544 12.080198
-34.522377 37.264011 -2.094172
-45.883362 27.379391 24.821579
-52.695183 27.580383 16.441805
-48.528469 37.821651 20.01033
-37.113029 15.812687 7.141715
-37.709122 33.209209 4.305387
-51.546059 33.316715 6.653518
-49.409645 47.099209 11.920856
-52.17868 44.426292 4.82606
-46.530266 40.43832 2.851989
-42.023445 45.951588 -3.46904
-44.400543 32.815506 26.724035
-47.101212 32.743702 22.734703
-45.777702 38.280895 24.014053
-42.191345 19.181519 8.387702
-39.390617 22.097881 7.773809
-37.004948 24.912209 6.257298
-40.223915 30.253292 6.158838
-53.560413 32.065941 14.631819
-54.883076 27.157082 12.063441
-54.752048 31.202419 10.66583
-53.543938 29.66708 7.715134
-53.904816 35.146461 8.70997
-46.963615 48.112423 16.336512
-50.776611 49.819805 3.034998
-50.704132 48.001591 0.5257
-50.365776 42.654003 3.085891
-48.270973 45.966442 -0.425207
-44.088379 43.540329 -0.000153
-46.305653 48.686367 -4.32094
-48.776989 22.648693 22.346451
-49.269226 27.5868 20.735596
-50.571243 32.511795 18.763145
-51.680504 37.206009 16.016569
-35.176228 27.408627 3.791076
-35.775784 35.633839 1.489461
-46.201008 23.815891 7.127885
-43.528549 27.045326 28.988926
-50.347218 27.259296 6.552577
-47.548584 30.698448 6.267757
-46.769764 43.33984 20.593939
-49.362938 42.577019 16.402872
-52.017082 41.657551 12.356216
-51.607143 45.887249 7.933305
-53.341698 40.509342 8.749633
-52.348007 38.989571 6.155205
-49.112354 36.952148 5.054951
-44.632843 34.160954 5.342397
-41.851597 37.447269 3.613961
-39.458733 40.274334 1.012075
-37.64732 42.31488 -2.373606
-45.087879 35.600082 25.443626
-42.589188 23.194332 7.735015
-40.748211 20.639942 8.18565
-41.113026 24.74334 7.507874
-39.713223 26.278549 7.05985
-41.638947 28.664017 6.718205
-53.815536 34.24474 13.458311
-54.442528 31.702862 12.582941
-54.424324 33.781979 11.519966
-54.427689 33.186214 9.765114
-54.197662 35.825424 10.276662
-49.926613 49.60387 -1.716967
-49.767426 47.015362 -0.147806
-48.858871 48.537228 -2.218122
-47.260792 47.41795 -2.330786
-47.170052 24.905613 23.661045
-48.858284 25.095448 21.554733
-47.49585 27.502716 22.790493
-47.85033 35.326279 21.473024
-48.807007 32.647568 20.765383
-49.525795 35.127991 19.501598
-51.201126 34.891499 17.503056
-50.132706 37.532467 18.018789
-36.291351 17.02066 5.991165
-37.232796 29.191891 5.438393
-36.012989 26.213726 5.139815
-36.196686 30.507465 4.256063
-35.321831 31.687202 2.839255
-36.659885 34.505684 3.010251
-45.68409 20.143852 7.629699
-47.745705 22.24358 6.936859
-52.297344 25.303654 17.165951
-53.744057 25.272339 14.888427
-55.200989 26.696438 10.068111
-52.615067 31.490105 7.245424
-52.136414 28.582584 6.888083
-50.958061 30.343864 6.636017
-48.97736 28.968056 6.477311
-49.679367 32.119946 6.261238
-48.134834 47.630627 14.096
-48.151932 45.329601 16.395622
-49.47261 44.862797 14.260845
-50.766968 42.137928 14.351104
-50.778351 44.355816 12.18976
-51.628883 47.1152 3.952977
-51.224609 47.899799 5.525537
-52.168167 45.191929 6.236283
-52.615578 43.188293 8.418557
-52.818588 42.500572 6.847178
-53.157143 39.804344 7.287153
-52.411957 41.72636 5.58131
-48.639107 41.617004 2.796062
-49.81773 39.862682 4.16807
-47.821228 38.726688 4.032491
-46.946041 35.671417 5.063085
-45.560135 37.403973 4.208322
-43.209167 35.842342 4.585814
-44.207901 39.068523 3.166476
-42.998051 44.853725 -1.665342
-41.73777 42.04776 0.500519
-40.676746 43.28019 -1.111765
-38.47364 41.413437 -0.59617
-39.756184 44.283157 -2.882732
-38.329224 45.450382 -6.749479
-44.958717 30.03447 25.83564
-46.400921 30.084534 23.834251
-45.599983 32.801086 24.70718
-46.333771 35.486412 23.44202
-47.03569 38.074512 22.000637
-39.219482 17.756325 8.351164
-38.039513 19.110184 7.690504
-36.983437 20.430477 6.80793
-38.136765 23.530994 7.134623
-38.412224 27.771667 6.373225
-38.905163 31.779823 5.356647
-53.156212 29.841652 15.614634
-54.016754 27.43866 14.228592
-54.283527 29.587036 13.475876
-54.888741 29.192688 11.422833
-54.901131 28.622715 9.580795
-54.316257 27.845772 8.084103
-54.444153 30.532848 9.003386
-53.807312 32.430168 8.307545
-52.996094 34.317547 7.478263
-51.032013 48.936878 1.597131
-51.46286 46.267498 2.712142
-51.573486 43.583706 3.763262
-50.681007 45.354992 1.849524
-49.315235 44.367844 1.382667
-47.4641 43.281776 1.290358
-45.275051 42.055 1.508065
-46.326054 44.824688 -0.348286
-45.253429 46.209171 -2.114069
-44.267307 47.394566 -3.992226
-50.616806 25.234894 19.395126
-51.057755 27.619617 18.621996
-48.086205 30.097828 21.844994
-49.885597 30.070854 19.825008
-51.634933 29.992615 17.746832
-52.216679 32.325363 16.712307
-52.691616 34.604763 15.477017
-52.984314 36.828735 14.020466
-36.064072 21.693138 5.700879
-35.292526 22.875092 4.375623
-34.504318 28.472446 2.231739
-34.618458 32.702522 1.213771
-35.065144 36.561543 -0.225835
-44.119934 21.655392 7.765536
-44.652603 25.420578 7.177182
-47.222061 22.365585 24.516792
-45.675499 24.679165 25.752028
-44.461372 24.428082 27.871262
-44.540298 27.224232 26.873974
-43.839703 29.949165 27.892181
-53.191975 26.836876 7.0455
-51.633415 25.576908 6.526761
-49.772057 24.050415 6.518895
-48.320694 25.677288 6.668891
-46.82618 27.336384 6.700732
-45.313137 29.018372 6.578804
-46.363071 40.856388 22.404795
-47.605972 40.567741 20.353998
-46.966095 45.751842 18.570513
-47.983536 42.980125 18.486105
-49.047726 40.234367 18.322632
-50.55574 39.865948 16.300865
-51.956085 39.459473 14.296697
-53.061447 39.000134 12.343773
-50.628868 46.520084 9.849302
-51.886627 43.801987 10.222967
-52.927963 41.120998 10.466164
-53.70401 38.466064 10.503611
-53.765926 37.834045 8.859737
-53.200249 37.082954 7.503105
-52.035919 36.192924 6.510928
-51.389362 40.853104 4.679178
-50.963127 38.046925 5.406712
-50.366516 35.141838 5.926236
-48.33075 33.901707 5.742577
-46.090031 32.436764 5.896923
-43.808556 30.70509 6.273532
-42.340843 32.370949 5.760626
-40.939491 33.984894 5.021503
-39.634434 35.511948 4.045009
-42.923344 40.629616 1.930364
-40.591938 38.938171 2.421159
-38.454269 36.914318 2.829848
-37.423279 38.152538 1.386848
-36.557461 39.187786 -0.259959
-35.860355 39.986004 -2.074265
-41.171673 46.790607 -5.380722
-38.978386 45.016552 -4.776737
-36.975636 42.94521 -4.27936
-35.319717 40.523251 -4.010822
-49.53648 50.325737 -2.858252
-49.836445 50.8923 -2.479418
-49.002609 49.792416 -3.10883
-49.392742 49.070549 -1.967545
-49.53648 50.325737 -2.858252
-48.416692 49.213451 -3.282926
-49.002609 49.792416 -3.10883
-34.114508 35.709913 -2.301982
-34.303783 35.397123 -1.338966
-34.324224 37.496021 -3.081275
-34.114508 35.709913 -2.301982
-37.223768 13.47019 7.224336
-37.590768 15.189915 7.615095
-36.872617 14.043064 6.603666
-37.223768 13.47019 7.224336
-36.70219 16.416674 6.56644
-36.461778 14.64705 6.028391
-36.872617 14.043064 6.603666
-48.505757 21.476177 6.791196
-47.50354 20.456335 7.150517
-55.318107 25.442759 9.363916
-55.068718 26.358669 9.226366
-41.350643 17.786782 8.593536
-42.044124 17.109438 8.718789
-50.868072 48.469234 1.061416
-50.71619 49.785202 0.394542
-50.55225 49.317559 -0.141174
-49.609507 22.765701 21.238715
-49.707382 21.633009 21.618788
-34.926142 25.682207 3.319716
-34.984291 23.41544 3.611989
-35.234377 25.141859 4.083349
-34.840273 27.940537 3.011407
-34.590187 26.214117 2.540047
-34.926142 25.682207 3.319716
-46.549421 22.207375 25.598028
-47.47314 21.156452 24.963176
-45.77614 23.364165 26.215646
-46.44878 23.522375 25.13441
-46.549421 22.207375 25.598028
-43.99496 25.736704 28.430094
-44.016683 24.297483 28.963527
-43.550272 25.606105 29.522359
-54.848596 26.130288 12.347172
-54.415436 26.271076 13.429748
-54.449915 27.297871 13.146016
-46.566418 42.098114 21.499367
-46.083765 42.247 22.56791
-46.287112 43.488726 21.662482
-46.964855 46.932133 17.453512
-46.483647 47.141644 18.593589
-46.482406 48.321934 17.476588
-50.406757 50.23198 3.910861
-50.22073 51.191704 2.587641
-50.987265 47.254608 7.650894
-50.795997 48.260883 6.44701
-51.415876 46.893524 6.729421
-51.118005 46.203666 8.891303
-50.498127 47.571025 8.608892
-50.987265 47.254608 7.650894
-40.803002 47.062077 -6.370242
-41.876392 47.894168 -6.67542
-39.706358 46.175049 -6.06825
-40.075029 45.903579 -5.078729
-40.803002 47.062077 -6.370242
-36.706557 43.114743 -5.27265
-37.65243 44.197796 -5.514419
-37.383351 44.367328 -6.507709
-35.878597 41.903763 -5.138381
-36.147677 41.734231 -4.145091
-36.706557 43.114743 -5.27265
-35.11317 40.656807 -5.015699
-35.878597 41.903763 -5.138381
-44.626812 35.628671 26.477266
-44.744211 34.207794 26.08383
-44.283144 34.236384 27.11747
-44.953334 37.012744 25.760897
-44.626812 35.628671 26.477266
-44.492267 37.041334 26.794537
-45.298246 38.353151 25.046111
-45.43279 36.940489 24.728839
-44.953334 37.012744 25.760897
-50.163491 50.118698 -1.262507
-49.836445 50.8923 -2.479418
-50.315373 48.80273 -0.595633
-50.55225 49.317559 -0.141174
-50.163491 50.118698 -1.262507
-47.617653 48.653813 -3.339258
-48.059832 47.977589 -2.274454
-48.416692 49.213451 -3.282926
-47.140084 49.288021 -4.334335
-46.783223 48.052158 -3.325863
-47.617653 48.653813 -3.339258
-36.17613 15.202267 5.320156
-36.461778 14.64705 6.028391
-35.950314 17.595983 5.316687
-36.17613 15.202267 5.320156
-46.472732 19.406471 7.496937
-45.47267 18.239123 7.94551
-46.714897 21.193716 7.283279
-46.472732 19.406471 7.496937
-47.50354 20.456335 7.150517
-43.194878 26.950063 30.092115
-43.550272 25.606105 29.522359
-43.299375 28.439362 29.512752
-43.194878 26.950063 30.092115
-52.941091 24.209925 16.339879
-52.194321 24.175715 17.507773
-53.664448 24.194267 15.201117
-52.941091 24.209925 16.339879
-53.020701 25.287996 16.027189
-54.264426 24.162002 14.033885
-53.664448 24.194267 15.201117
-55.299504 25.72607 10.28755
-55.140547 25.956392 11.285215
-55.042033 26.92676 11.065776
-55.299504 25.72607 10.28755
-55.318107 25.442759 9.363916
-46.388916 44.726437 20.684439
-46.287112 43.488726 21.662482
-39.057671 46.503357 -8.054879
-39.381777 46.391964 -7.054621
-38.053379 45.510681 -7.751449
-39.057671 46.503357 -8.054879
-37.383351 44.367328 -6.507709
-38.053379 45.510681 -7.751449
-40.629076 18.515993 8.49251
-41.350643 17.786782 8.593536
-41.469778 19.91073 8.286676
-39.864711 17.074185 8.575267
-40.629076 18.515993 8.49251
-39.983846 19.198134 8.268407
-39.185091 15.530388 8.591755
-39.864711 17.074185 8.575267
-38.643995 16.161734 8.21982
-39.185091 15.530388 8.591755
-38.054011 16.838663 7.88949
-38.643995 16.161734 8.21982
-38.629497 18.433255 8.020834
-37.576271 17.461436 7.416109
-37.590768 15.189915 7.615095
-38.054011 16.838663 7.88949
-54.918789 27.321808 8.982708
-55.068718 26.358669 9.226366
-55.05106 27.659577 9.824453
-54.608694 28.234243 8.832449
-54.626352 26.933336 8.234362
-54.918789 27.321808 8.982708
-46.39167 49.511707 16.298507
-46.482406 48.321934 17.476588
-46.885456 49.2733 15.122076
-46.39167 49.511707 16.298507
-46.313511 50.672584 15.084071
-47.471065 49.032402 14.00182
-47.549224 47.871525 15.216256
-46.885456 49.2733 15.122076
-48.058418 48.759582 12.854843
-47.471065 49.032402 14.00182
-48.695824 48.493873 11.767271
-48.772239 47.364918 13.008428
-48.058418 48.759582 12.854843
-50.531647 50.721905 1.763472
-50.22073 51.191704 2.587641
-50.659347 50.280441 1.044539
-50.71619 49.785202 0.394542
-50.904312 49.378342 2.316064
-50.531647 50.721905 1.763472
-50.659347 50.280441 1.044539
-49.650154 23.989079 20.842855
-49.609507 22.765701 21.238715
-48.817636 23.87207 21.950592
-50.529415 24.058802 19.763052
-49.650154 23.989079 20.842855
-49.737545 25.165171 20.47493
-51.354051 24.141334 18.622361
-50.529415 24.058802 19.763052
-51.457075 25.269274 18.280538
-52.194321 24.175715 17.507773
-51.354051 24.141334 18.622361
-35.836674 19.932223 5.171544
-35.950314 17.595983 5.316687
-36.177712 19.356899 5.846022
-35.450901 20.523199 4.508916
-35.836674 19.932223 5.171544
-35.678299 22.284115 5.038251
-35.181442 21.061226 3.741709
-35.450901 20.523199 4.508916
-35.181442 21.061226 3.741709
-34.984291 23.41544 3.611989
-34.359918 26.695532 1.688296
-34.590187 26.214117 2.540047
-34.251115 28.928756 1.362372
-34.359918 26.695532 1.688296
-34.308185 31.043795 0.853388
-34.251115 28.928756 1.362372
-34.561388 30.587484 1.722755
-34.351824 33.116378 0.315006
-34.308185 31.043795 0.853388
-34.575167 35.045889 -0.404797
-34.351824 33.116378 0.315006
-34.841801 34.632033 0.493968
-34.79376 36.912777 -1.160003
-34.303783 35.397123 -1.338966
-34.575167 35.045889 -0.404797
-42.946585 18.4618 8.395471
-42.044124 17.109438 8.718789
-44.692957 18.942966 8.016469
-45.47267 18.239123 7.94551
-43.910879 19.698736 8.084388
-44.692957 18.942966 8.016469
-44.902012 20.899622 7.697617
-43.155639 20.418456 8.076619
-42.946585 18.4618 8.395471
-43.910879 19.698736 8.084388
-48.946001 21.477644 22.757624
-49.707382 21.633009 21.618788
-48.168537 21.33609 23.842795
-47.47314 21.156452 24.963176
-47.999525 22.507139 23.431621
-48.946001 21.477644 22.757624
-48.168537 21.33609 23.842795
-44.634111 23.071986 28.372244
-44.016683 24.297483 28.963527
-45.169077 23.238623 27.275263
-44.634111 23.071986 28.372244
-45.068435 24.553624 26.811645
-45.77614 23.364165 26.215646
-45.169077 23.238623 27.275263
-43.454953 29.891281 28.96438
-43.684126 28.497245 28.440554
-43.299375 28.439362 29.512752
-43.691357 31.366579 28.355969
-43.454953 29.891281 28.96438
-43.971777 32.79975 27.771896
-44.120123 31.382335 27.308108
-43.691357 31.366579 28.355969
-44.283144 34.236384 27.11747
-43.971777 32.79975 27.771896
-54.279087 25.187916 13.759665
-53.880405 26.3555 14.558509
-54.415436 26.271076 13.429748
-54.264426 24.162002 14.033885
-54.279087 25.187916 13.759665
-54.848596 26.130288 12.347172
-55.140547 25.956392 11.285215
-54.216325 26.473688 7.614748
-54.626352 26.933336 8.234362
-53.654184 25.96924 7.095446
-54.216325 26.473688 7.614748
-53.754116 27.341324 7.564801
-53.005932 25.377384 6.743226
-53.654184 25.96924 7.095446
-52.226652 24.7474 6.483856
-53.005932 25.377384 6.743226
-52.412695 26.206892 6.78613
-51.396946 24.016681 6.410165
-52.226652 24.7474 6.483856
-50.466267 23.253435 6.406232
-51.396946 24.016681 6.410165
-50.702736 24.813662 6.522828
-49.518932 22.379595 6.582214
-50.466267 23.253435 6.406232
-48.758881 23.146998 6.727877
-48.505757 21.476177 6.791196
-49.518932 22.379595 6.582214
-45.585278 39.681444 24.253487
-45.298246 38.353151 25.046111
-45.877962 40.96919 23.448859
-46.083765 42.247 22.56791
-46.070386 39.568641 23.209424
-45.585278 39.681444 24.253487
-45.877962 40.96919 23.448859
-46.487082 45.932438 19.672726
-46.483647 47.141644 18.593589
-46.86793 44.545841 19.582226
-46.388916 44.726437 20.684439
-46.487082 45.932438 19.672726
-49.317144 48.191613 10.669187
-48.695824 48.493873 11.767271
-50.630756 49.271977 5.15613
-50.406757 50.23198 3.910861
-51.00061 48.859802 4.280267
-50.630756 49.271977 5.15613
-50.795997 48.260883 6.44701
-49.926756 47.90205 9.633409
-50.498127 47.571025 8.608892
-50.019256 46.809646 10.885079
-49.317144 48.191613 10.669187
-49.926756 47.90205 9.633409
-46.715391 49.862018 -5.418125
-47.140084 49.288021 -4.334335
-45.86134 49.209076 -5.346812
-46.715391 49.862018 -5.418125
-44.842167 48.563175 -5.182455
-45.28648 48.040466 -4.156583
-45.86134 49.209076 -5.346812
-43.82259 47.866169 -4.974419
-44.842167 48.563175 -5.182455
-42.700659 47.14468 -4.712826
-43.145376 46.673077 -3.730633
-43.82259 47.866169 -4.974419
-42.274772 47.564189 -5.668667
-41.876392 47.894168 -6.67542
-41.597559 46.371098 -4.424881
-42.700659 47.14468 -4.712826
-42.274772 47.564189 -5.668667
-38.653805 45.233467 -5.763108
-39.706358 46.175049 -6.06825
-39.381777 46.391964 -7.054621
-34.722894 39.125641 -4.039599
-34.324224 37.496021 -3.081275
-34.921047 38.893631 -3.052497
-34.722894 39.125641 -4.039599
-35.11317 40.656807 -5.015699
3 0 56 54
3 0 58 56
3 1 61 59
3 1 63 61
3 207 64 208
3 209 66 210
3 211 210 64
3 209 210 211
3 213 212 66
3 2 214 215
3 2 216 217
3 3 70 68
3 5 73 71
3 5 75 73
3 6 218 219
3 6 220 221
3 6 222 224
3 222 76 223
3 222 223 224
3 7 79 77
3 7 81 79
3 225 83 226
3 4 85 84
3 228 227 86
3 8 89 87
3 8 91 89
3 9 94 92
3 9 96 94
3 10 99 97
3 10 101 99
3 10 103 101
3 11 106 104
3 11 108 106
3 11 110 108
3 12 113 111
3 12 115 113
3 13 119 117
3 15 120 53
3 15 121 120
3 16 229 230
3 17 122 55
3 17 123 122
3 17 125 123
3 19 126 57
3 19 127 126
3 20 130 128
3 22 131 60
3 22 132 131
3 22 134 132
3 24 135 62
3 24 136 135
3 27 231 233
3 231 137 232
3 231 232 233
3 27 138 137
3 27 140 138
3 29 141 65
3 29 142 141
3 29 144 142
3 31 145 67
3 31 146 145
3 32 234 235
3 33 147 69
3 33 148 147
3 14 149 118
3 34 150 72
3 34 151 150
3 34 152 151
3 35 153 74
3 35 154 153
3 18 155 124
3 36 156 78
3 36 236 238
3 238 237 156
3 236 237 238
3 36 239 241
3 239 157 240
3 239 240 241
3 37 158 80
3 37 159 158
3 38 160 82
3 38 161 160
3 242 162 243
3 244 163 245
3 246 245 162
3 244 245 246
3 39 247 249
3 247 164 248
3 247 248 249
3 39 165 164
3 39 166 165
3 21 250 252
3 252 251 129
3 250 251 252
3 23 167 133
3 40 168 88
3 40 169 168
3 40 170 169
3 41 171 90
3 41 172 171
3 42 253 255
3 253 173 254
3 253 254 255
3 42 174 173
3 25 256 258
3 256 175 257
3 256 257 258
3 43 176 93
3 43 177 176
3 43 178 177
3 44 179 95
3 44 180 179
3 26 259 260
3 45 261 263
3 263 262 98
3 261 262 263
3 45 264 266
3 264 181 265
3 264 265 266
3 45 182 181
3 46 183 100
3 46 184 183
3 46 185 184
3 47 186 102
3 47 187 186
3 28 188 139
3 48 189 105
3 48 190 189
3 48 191 190
3 49 192 107
3 49 193 192
3 49 194 193
3 50 195 109
3 50 196 195
3 30 197 143
3 51 198 112
3 51 199 198
3 51 200 199
3 52 201 114
3 52 202 201
3 267 203 268
3 269 204 270
3 271 270 203
3 269 270 271
3 272 205 273
3 274 273 116
3 272 273 274
3 275 206 276
3 277 276 205
3 275 276 277
3 279 278 206
3 280 53 281
3 282 281 13
3 280 281 282
3 283 53 284
3 283 284 285
3 286 15 287
3 288 287 53
3 286 287 288
3 54 55 16
3 56 55 54
3 56 17 55
3 56 57 17
3 58 57 56
3 58 19 57
3 59 60 20
3 61 60 59
3 61 22 60
3 61 62 22
3 63 62 61
3 63 24 62
3 64 289 290
3 64 291 293
3 291 27 292
3 291 292 293
3 64 65 27
3 66 65 64
3 66 29 65
3 66 67 29
3 294 67 295
3 296 295 66
3 294 295 296
3 297 31 298
3 299 298 67
3 297 298 299
3 68 69 32
3 70 69 68
3 70 33 69
3 71 72 14
3 73 72 71
3 73 34 72
3 73 74 34
3 75 74 73
3 75 35 74
3 76 300 301
3 76 302 303
3 77 78 18
3 79 78 77
3 79 36 78
3 79 80 36
3 81 80 79
3 81 37 80
3 304 82 305
3 83 306 308
3 306 82 307
3 306 307 308
3 83 38 82
3 309 39 310
3 312 311 39
3 84 313 314
3 85 315 317
3 317 316 84
3 315 316 317
3 85 318 319
3 86 320 322
3 322 321 21
3 320 321 322
3 324 323 86
3 87 88 23
3 89 88 87
3 89 40 88
3 89 90 40
3 91 90 89
3 91 41 90
3 325 42 326
3 92 93 25
3 94 93 92
3 94 43 93
3 94 95 43
3 96 95 94
3 96 44 95
3 97 98 26
3 99 98 97
3 99 45 98
3 99 100 45
3 101 100 99
3 101 46 100
3 101 102 46
3 103 102 101
3 103 47 102
3 104 105 28
3 106 105 104
3 106 48 105
3 106 107 48
3 108 107 106
3 108 49 107
3 108 109 49
3 110 109 108
3 110 50 109
3 111 112 30
3 113 112 111
3 113 51 112
3 113 114 51
3 115 114 113
3 115 52 114
3 327 116 328
3 329 116 330
3 332 331 116
3 117 118 3
3 119 118 117
3 119 14 118
3 53 119 13
3 120 119 53
3 120 14 119
3 120 71 14
3 121 71 120
3 121 5 71
3 55 333 335
3 335 334 16
3 333 334 335
3 122 336 338
3 338 337 55
3 336 337 338
3 122 339 340
3 122 341 342
3 123 343 345
3 345 344 122
3 343 344 345
3 123 346 348
3 346 6 347
3 346 347 348
3 123 124 6
3 125 124 123
3 125 18 124
3 57 125 17
3 126 125 57
3 126 18 125
3 126 77 18
3 127 77 126
3 127 7 77
3 128 129 4
3 130 129 128
3 130 21 129
3 60 130 20
3 131 130 60
3 131 21 130
3 131 86 21
3 132 86 131
3 132 349 351
3 351 350 86
3 349 350 351
3 132 352 354
3 352 133 353
3 352 353 354
3 134 133 132
3 134 23 133
3 62 134 22
3 135 134 62
3 135 23 134
3 135 87 23
3 136 87 135
3 136 8 87
3 355 25 356
3 357 25 358
3 357 358 359
3 360 92 361
3 362 361 25
3 360 361 362
3 363 92 364
3 365 9 366
3 367 366 92
3 365 366 367
3 368 26 369
3 137 370 371
3 137 372 374
3 372 26 373
3 372 373 374
3 137 97 26
3 138 97 137
3 138 10 97
3 138 139 10
3 140 139 138
3 140 28 139
3 65 140 27
3 141 140 65
3 141 28 140
3 141 104 28
3 142 104 141
3 142 11 104
3 142 143 11
3 144 143 142
3 144 30 143
3 67 144 29
3 145 144 67
3 145 30 144
3 145 111 30
3 146 111 145
3 146 12 111
3 69 375 377
3 377 376 32
3 375 376 377
3 147 378 380
3 380 379 69
3 378 379 380
3 147 381 382
3 147 383 385
3 383 84 384
3 383 384 385
3 148 84 147
3 148 4 84
3 118 70 3
3 149 70 118
3 149 33 70
3 72 149 14
3 150 149 72
3 150 33 149
3 150 148 33
3 151 148 150
3 151 4 148
3 151 128 4
3 152 128 151
3 152 20 128
3 74 152 34
3 153 152 74
3 153 20 152
3 153 59 20
3 154 59 153
3 154 1 59
3 124 76 6
3 155 76 124
3 155 386 388
3 388 387 76
3 386 387 388
3 78 155 18
3 156 155 78
3 156 389 391
3 391 390 155
3 389 390 391
3 156 392 393
3 395 394 156
3 157 396 397
3 157 398 399
3 80 157 36
3 158 157 80
3 158 400 402
3 402 401 157
3 400 401 402
3 158 403 404
3 159 405 407
3 407 406 158
3 405 406 407
3 159 408 410
3 408 2 409
3 408 409 410
3 411 16 412
3 82 413 414
3 160 415 417
3 417 416 82
3 415 416 417
3 160 418 420
3 418 16 419
3 418 419 420
3 160 54 16
3 161 54 160
3 161 0 54
3 421 32 422
3 162 423 424
3 162 425 427
3 425 32 426
3 425 426 427
3 162 68 32
3 163 68 162
3 163 3 68
3 164 428 429
3 164 430 431
3 164 432 434
3 432 163 433
3 432 433 434
3 165 163 164
3 165 3 163
3 165 117 3
3 166 117 165
3 166 13 117
3 435 166 436
3 437 436 39
3 435 436 437
3 438 166 439
3 440 13 441
3 442 441 166
3 440 441 442
3 444 443 13
3 129 85 4
3 445 85 446
3 447 446 129
3 445 446 447
3 449 448 85
3 451 450 21
3 133 452 453
3 167 454 456
3 456 455 133
3 454 455 456
3 167 457 458
3 88 167 23
3 168 167 88
3 168 459 461
3 461 460 167
3 459 460 461
3 168 462 463
3 169 464 466
3 466 465 168
3 464 465 466
3 169 467 468
3 169 469 471
3 469 83 470
3 469 470 471
3 170 83 169
3 170 38 83
3 90 170 40
3 171 170 90
3 171 38 170
3 171 161 38
3 172 161 171
3 172 0 161
3 472 15 473
3 173 474 475
3 173 476 478
3 476 15 477
3 476 477 478
3 173 121 15
3 174 121 173
3 174 5 121
3 175 479 480
3 175 481 483
3 481 42 482
3 481 482 483
3 93 175 25
3 176 175 93
3 176 42 175
3 176 174 42
3 177 174 176
3 177 5 174
3 177 75 5
3 178 75 177
3 178 35 75
3 95 178 43
3 179 178 95
3 179 35 178
3 179 154 35
3 180 154 179
3 180 1 154
3 484 9 485
3 98 486 488
3 488 487 26
3 486 487 488
3 490 489 98
3 181 491 492
3 181 493 495
3 493 9 494
3 493 494 495
3 181 96 9
3 182 96 181
3 182 44 96
3 100 182 45
3 183 182 100
3 183 44 182
3 183 180 44
3 184 180 183
3 184 1 180
3 184 63 1
3 185 63 184
3 185 24 63
3 102 185 46
3 186 185 102
3 186 24 185
3 186 136 24
3 187 136 186
3 187 8 136
3 139 103 10
3 188 103 139
3 188 47 103
3 105 188 28
3 189 188 105
3 189 47 188
3 189 187 47
3 190 187 189
3 190 8 187
3 190 91 8
3 191 91 190
3 191 41 91
3 107 191 48
3 192 191 107
3 192 41 191
3 192 172 41
3 193 172 192
3 193 0 172
3 193 58 0
3 194 58 193
3 194 19 58
3 109 194 49
3 195 194 109
3 195 19 194
3 195 127 19
3 196 127 195
3 196 7 127
3 143 110 11
3 197 110 143
3 197 50 110
3 112 197 30
3 198 197 112
3 198 50 197
3 198 196 50
3 199 196 198
3 199 7 196
3 199 81 7
3 200 81 199
3 200 37 81
3 114 200 51
3 201 200 114
3 201 37 200
3 201 159 37
3 202 159 201
3 202 2 159
3 496 31 497
3 498 31 499
3 500 146 501
3 502 501 31
3 500 501 502
3 503 146 504
3 505 12 506
3 507 506 146
3 505 506 507
3 203 508 509
3 203 510 512
3 510 12 511
3 510 511 512
3 203 115 12
3 204 115 203
3 204 52 115
3 116 513 515
3 513 204 514
3 513 514 515
3 205 204 116
3 205 52 204
3 205 202 52
3 206 202 205
3 206 2 202
3 206 516 518
3 518 517 2
3 516 517 518
3 520 519 206
