ply
format ascii 1.0
element vertex 447
property float x
property float y
property float z
element face 510
property list uchar int vertex_index
end_header
31.830742 32.267654 57.599022
45.925564 42.342335 30.133554
35.550652 49.124489 41.492172
41.602715 28.147312 47.305573
25.424402 42.94194 51.497658
27.156483 51.93084 43.421219
33.521976 42.330093 50.433167
39.96909 39.689045 46.100708
38.768085 31.851524 55.085793
44.106739 30.925568 29.654217
42.800831 45.874969 37.1213
42.631516 35.200233 38.404007
27.70676 31.837177 57.60141
24.640656 37.479931 55.0756
28.694269 37.593384 54.605713
29.512821 42.715096 51.05159
32.754425 37.741081 54.353607
36.406982 37.379368 53.223007
35.681694 32.4333 57.042152
44.948124 36.763996 30.142876
31.327078 50.547386 42.663307
36.937847 52.14917 36.853752
41.025543 50.725601 35.162445
39.54715 47.565895 39.656624
40.957127 34.181957 47.082581
41.788704 37.522495 42.5112
41.669304 31.75206 42.74926
41.93494 29.293617 38.120834
41.900845 25.677834 42.492928
23.117477 53.434311 44.337093
26.23373 47.795509 47.611588
30.344126 47.009094 47.043175
34.399349 46.017654 46.076149
38.150303 44.595505 44.236885
37.123756 41.360439 48.836754
39.231331 36.173855 50.730858
40.732979 30.352982 51.681137
44.6675 25.12891 28.94096
42.100971 54.202499 30.701767
44.129601 49.270706 32.71431
44.870388 44.116913 33.905457
41.224266 42.769024 41.533501
43.253582 40.737595 38.157658
44.263081 38.709877 34.284805
43.082855 32.981133 34.036331
42.666706 27.074474 33.463482
29.772652 32.050194 57.591667
28.23245 34.775703 56.179558
30.295855 34.952873 56.150902
30.748058 37.697689 54.529388
32.3288 35.101204 56.07618
34.273289 35.147263 55.805901
33.821449 32.418476 57.460297
45.500362 39.588192 30.215439
33.44347 49.849304 42.152721
31.895838 52.135307 40.361191
34.062077 51.37043 39.828461
36.225761 50.617737 39.170715
38.331566 49.865417 38.36673
37.605556 48.364075 40.662048
41.269619 31.211796 47.277161
41.415874 32.994823 44.973583
41.532097 29.984612 45.014
41.663536 28.72406 42.665955
41.773361 26.914848 44.926552
25.037167 40.273857 53.328003
23.812321 45.756546 50.028641
24.213163 48.222679 48.014214
25.818819 45.455894 49.591103
31.546913 42.573914 50.827576
29.916473 44.968311 49.098503
31.950953 44.673164 48.789467
32.391605 46.558701 46.652176
33.932755 44.273724 48.295395
35.825089 43.735325 47.554192
35.395676 41.934608 49.782715
37.658669 34.692589 54.28566
37.945461 36.887592 52.146446
38.992409 34.12635 52.971382
40.038765 33.334549 51.322838
39.90052 31.211594 53.540878
44.146236 27.986107 29.308762
25.119699 52.658585 43.815674
40.345463 54.810249 31.609436
42.064461 48.327629 36.259468
42.735126 50.008789 34.042961
43.537132 47.53331 34.932106
44.683399 46.720718 33.415848
43.99268 44.999802 35.594986
39.170837 42.209087 45.282204
39.798649 43.72258 42.981613
40.532887 41.253193 43.796997
42.30899 36.360718 40.505173
42.46183 39.122993 40.307587
43.029701 38.022797 38.365562
43.857822 39.714241 36.271839
43.398079 36.9384 36.327301
43.667107 35.885162 34.221466
42.849148 34.068951 36.237473
41.98217 26.302944 37.876671
42.183006 28.146427 35.782478
42.406937 25.209381 35.495293
43.143326 24.210255 33.149483
25.686113 31.688866 57.793221
24.21767 34.592484 56.73436
26.19149 34.63855 56.325211
26.643709 37.500629 54.737572
27.059843 40.237968 53.035583
27.459707 42.816418 51.228195
29.113129 40.250542 52.891663
31.155365 40.246456 52.747688
33.140316 40.155323 52.46228
35.01931 39.915573 51.926071
34.65913 37.653378 53.947205
36.069267 35.026245 55.228752
37.348965 32.255886 56.260132
44.426762 33.868855 29.944267
29.227196 51.234344 43.064697
39.752956 53.0867 33.836708
39.064556 51.433655 36.09045
40.305241 49.10408 37.40081
41.302544 46.733582 38.476002
40.550594 37.01421 46.69677
41.015007 38.646816 44.38953
41.282738 35.891857 44.774445
41.76054 34.697716 42.708656
42.039482 33.480167 40.541939
42.208755 32.279522 38.309364
41.804947 30.504593 40.453178
41.773277 27.48304 40.275631
24.648222 50.525391 45.946152
26.678106 49.952019 45.557137
27.862377 45.210106 49.323715
28.283936 47.40596 47.327316
28.73634 49.407097 45.24086
30.811104 48.856178 44.894859
32.886242 48.266335 44.4338
34.937813 47.613228 43.800728
36.929993 46.884636 42.969036
36.333321 45.364517 45.273598
37.586334 43.044563 46.545418
38.6618 40.605385 47.598495
36.74292 39.48526 51.0765
38.263878 38.848354 49.900452
39.542171 38.014503 48.424126
40.236893 35.258743 49.022377
40.790264 32.347305 49.401634
41.283306 29.313786 49.578438
29.160097 29.034096 58.837959
31.235613 29.2841 58.896164
33.271137 29.505123 58.87133
41.643219 52.433113 32.931885
43.244198 51.767548 31.805447
44.512398 51.069077 30.439949
45.188904 48.502396 31.175476
45.514374 45.890038 31.721657
45.480705 43.2314 32.072979
38.812859 46.080658 41.936081
40.524921 45.211632 40.71262
42.002556 44.294792 39.312981
41.635311 40.21167 42.127468
42.382462 41.764137 39.918259
43.195812 43.350437 37.750092
44.087029 42.397743 36.036423
44.706036 41.450798 34.18911
45.135303 40.515526 32.235664
44.580788 37.728836 32.228622
43.965302 34.865219 32.081818
43.463287 31.937126 31.832502
42.383976 31.123585 36.042267
42.692039 30.025478 33.770416
43.250546 28.983967 31.520128
43.478298 26.073994 31.181404
44.250248 23.296688 30.846075
35.202763 29.628716 58.611748
46.134966 41.8921 29.134839
46.244723 43.255157 29.034852
45.712963 40.965263 30.174497
45.922365 40.515028 29.175781
46.134966 41.8921 29.134839
24.431354 43.042338 51.744229
24.237736 41.708296 52.659401
25.230784 41.607899 52.41283
24.618361 44.349243 50.763149
23.625313 44.449641 51.00972
24.431354 43.042338 51.744229
44.599158 30.426508 28.586161
44.635219 31.901787 28.746608
44.126487 29.455838 29.48149
44.618906 28.956778 28.413434
44.599158 30.426508 28.586161
26.390995 53.279458 42.51486
25.372603 53.64333 42.712087
26.138091 52.294713 43.618447
39.338302 55.120106 31.952005
39.641789 55.977429 30.847726
42.450243 24.300736 36.552796
42.194553 25.756163 36.685982
42.237859 24.847517 37.743485
42.788964 23.806933 35.352756
42.450243 24.300736 36.552796
45.224245 36.281626 29.10553
45.446914 37.710149 29.159093
44.687443 35.316426 30.043571
44.963564 34.834055 29.006225
45.224245 36.281626 29.10553
30.543746 51.736336 41.732265
29.493805 52.079814 41.932961
30.277137 50.890865 42.864002
31.116756 53.332447 39.410152
32.205865 52.907207 39.183803
36.185774 53.303879 35.995384
35.834675 52.520168 37.167982
37.295114 52.950935 35.705196
36.185774 53.303879 35.995384
38.001202 51.791412 36.472101
38.358469 52.593178 35.323545
37.295114 52.950935 35.705196
42.001724 25.084052 41.268656
41.93794 25.986655 40.160007
41.837061 26.580437 41.384279
23.679939 37.523516 55.406341
23.468446 36.079792 56.235721
24.429163 36.036208 55.90498
29.846093 27.616351 59.396705
28.806272 27.491264 59.364486
30.883851 27.741352 59.425808
30.197855 29.159098 58.867061
29.846093 27.616351 59.396705
31.919656 27.869642 59.453842
30.883851 27.741352 59.425808
45.449517 24.671711 27.835286
45.042378 26.070169 28.039507
45.203032 23.787325 28.758858
45.449517 24.671711 27.835286
22.380031 54.982403 43.553881
22.132671 53.84843 44.700676
42.228773 55.097202 29.586254
41.449503 55.380714 30.060087
42.820059 53.889313 30.116259
42.228773 55.097202 29.586254
44.22554 22.412492 31.849391
43.696787 23.753471 31.997779
43.672079 22.869276 33.001095
44.928131 22.020858 30.689526
44.22554 22.412492 31.849391
34.903689 28.142115 59.253117
34.23695 29.56692 58.741539
33.937876 28.080319 59.382908
45.723033 39.122248 29.195374
45.922365 40.515028 29.175781
45.224243 38.176094 30.179158
45.446914 37.710149 29.159093
45.723033 39.122248 29.195374
33.288984 52.524769 38.917439
32.205865 52.907207 39.183803
32.978957 51.752868 40.094826
34.39679 52.130798 38.655336
33.288984 52.524769 38.917439
35.478632 51.754452 38.326464
34.39679 52.130798 38.655336
35.143919 50.994084 39.499588
36.581804 51.383454 38.012234
35.834675 52.520168 37.167982
35.478632 51.754452 38.326464
24.058089 40.338888 53.611999
23.859833 38.941925 54.485798
24.838912 38.876894 54.201802
24.058089 40.338888 53.611999
24.237736 41.708296 52.659401
22.837677 45.949993 50.384716
23.625313 44.449641 51.00972
23.02507 47.237915 49.335247
22.837677 45.949993 50.384716
24.012742 46.989612 49.021428
23.225492 48.470982 48.328034
23.02507 47.237915 49.335247
44.781745 27.498768 28.223408
44.618906 28.956778 28.413434
44.406868 26.557509 29.124861
45.042378 26.070169 28.039507
44.781745 27.498768 28.223408
24.369746 54.107056 42.962879
23.368635 54.494919 43.223589
24.118588 53.046448 44.076384
24.369746 54.107056 42.962879
25.372603 53.64333 42.712087
40.571749 55.684589 30.513921
39.641789 55.977429 30.847726
41.223217 54.506374 31.155601
41.449503 55.380714 30.060087
40.571749 55.684589 30.513921
43.157158 23.30737 34.179851
42.775132 24.709818 34.322388
42.788964 23.806933 35.352756
43.672079 22.869276 33.001095
43.157158 23.30737 34.179851
24.951891 33.140675 57.26379
23.985751 33.117989 57.518795
24.719972 31.66618 58.048226
44.795231 33.37343 28.891633
44.963564 34.834055 29.006225
44.266751 32.397211 29.799242
44.635219 31.901787 28.746608
44.795231 33.37343 28.891633
28.448628 52.493603 42.130407
27.413271 52.841851 42.308668
28.19184 51.582592 43.242958
28.448628 52.493603 42.130407
29.493805 52.079814 41.932961
30.828126 52.530296 40.581207
30.543746 51.736336 41.732265
31.611458 51.341347 41.512249
30.828126 52.530296 40.581207
31.116756 53.332447 39.410152
38.702669 53.419701 34.196675
39.042049 54.258331 33.065641
39.408756 52.260177 34.963579
38.702669 53.419701 34.196675
38.358469 52.593178 35.323545
42.042387 25.396607 38.960527
41.877724 26.892992 39.076151
41.93794 25.986655 40.160007
42.237859 24.847517 37.743485
42.042387 25.396607 38.960527
46.012964 43.691397 30.006398
46.244723 43.255157 29.034852
23.280451 34.626482 57.121724
23.985751 33.117989 57.518795
23.280451 34.626482 57.121724
23.468446 36.079792 56.235721
23.679939 37.523516 55.406341
23.859833 38.941925 54.485798
22.886459 52.29406 45.423181
22.132671 53.84843 44.700676
23.434302 49.688244 47.261742
23.225492 48.470982 48.328034
23.651832 50.8396 46.227711
23.434302 49.688244 47.261742
24.430692 49.374035 46.980183
23.882849 51.979851 45.141622
22.886459 52.29406 45.423181
23.651832 50.8396 46.227711
25.401874 30.187588 58.469323
24.719972 31.66618 58.048226
26.39489 30.253851 58.330452
25.401874 30.187588 58.469323
27.405214 30.328007 58.234547
26.696436 31.763022 57.697316
26.39489 30.253851 58.330452
28.131882 28.926466 58.852821
28.806272 27.491264 59.364486
28.433428 30.435637 58.219684
27.405214 30.328007 58.234547
28.131882 28.926466 58.852821
32.937418 27.980154 59.441425
32.253375 29.394611 58.883747
31.919656 27.869642 59.453842
33.937876 28.080319 59.382908
32.937418 27.980154 59.441425
22.380031 54.982403 43.553881
23.368635 54.494919 43.223589
26.390995 53.279458 42.51486
27.413271 52.841851 42.308668
40.04921 53.948475 32.723072
39.338302 55.120106 31.952005
39.042049 54.258331 33.065641
43.391672 52.671837 30.668098
42.820059 53.889313 30.116259
42.672584 52.985023 31.253607
44.025772 52.322602 29.985349
43.391672 52.671837 30.668098
43.878298 51.418312 31.122698
44.580674 51.984821 29.264646
44.025772 52.322602 29.985349
44.984775 50.695321 29.642301
44.580674 51.984821 29.264646
45.323028 49.41198 30.010065
44.984775 50.695321 29.642301
44.850651 49.785736 30.807713
45.569862 48.100205 30.311338
45.323028 49.41198 30.010065
45.732597 46.794026 30.584428
45.569862 48.100205 30.311338
45.351639 47.196217 31.448566
45.807369 45.465249 30.800449
45.732597 46.794026 30.584428
45.790535 44.13593 30.97611
45.807369 45.465249 30.800449
45.49754 44.560719 31.897318
45.703135 42.786867 31.103266
46.012964 43.691397 30.006398
45.790535 44.13593 30.97611
44.994406 22.871214 29.711416
45.203032 23.787325 28.758858
44.458874 24.212799 29.893518
44.994406 22.871214 29.711416
44.928131 22.020858 30.689526
35.836121 28.182702 59.04253
34.903689 28.142115 59.253117
36.084106 29.610684 58.310032
35.836121 28.182702 59.04253
36.323572 31.012976 57.525234
35.442228 31.031008 57.82695
36.084106 29.610684 58.310032
37.157207 30.924268 57.134224
36.515329 32.344593 56.651142
36.323572 31.012976 57.525234
37.924059 30.803257 56.633613
37.157207 30.924268 57.134224
38.633619 30.601076 56.046444
38.058525 32.053705 55.672962
37.924059 30.803257 56.633613
39.262977 30.365198 55.347329
38.633619 30.601076 56.046444
39.829195 30.045233 54.574871
39.334302 31.531559 54.313336
39.262977 30.365198 55.347329
40.310232 29.69527 53.699143
39.829195 30.045233 54.574871
40.726461 29.265965 52.769272
40.31675 30.782288 52.611007
40.310232 29.69527 53.699143
41.063988 28.814475 51.751247
40.726461 29.265965 52.769272
41.339151 28.294877 50.699898
41.008143 29.833384 50.629787
41.063988 28.814475 51.751247
41.554857 27.764368 49.577965
41.339151 28.294877 50.699898
41.714562 27.181131 48.441533
41.44301 28.730549 48.442006
41.554857 27.764368 49.577965
41.846052 26.601135 47.251846
41.714562 27.181131 48.441533
41.931376 25.984903 46.062336
41.688038 27.53108 46.116062
41.846052 26.601135 47.251846
42.028396 25.388212 44.835331
41.931376 25.984903 46.062336
42.092138 24.769705 43.618519
41.837103 26.296341 43.70974
42.028396 25.388212 44.835331
42.210862 24.18813 42.37793
42.092138 24.769705 43.618519
42.001724 25.084052 41.268656
42.210862 24.18813 42.37793
3 0 48 46
3 0 50 48
3 0 52 50
3 1 175 176
3 1 177 179
3 177 53 178
3 177 178 179
3 2 56 54
3 2 57 56
3 2 59 57
3 3 62 60
3 3 64 62
3 4 180 182
3 182 181 65
3 180 181 182
3 4 183 185
3 183 66 184
3 183 184 185
3 4 68 66
3 6 71 69
3 6 73 71
3 6 75 73
3 8 78 76
3 8 80 78
3 9 186 187
3 9 188 190
3 188 81 189
3 188 189 190
3 5 191 193
3 193 192 82
3 191 192 193
3 194 83 195
3 10 86 84
3 10 88 86
3 7 91 89
3 11 94 92
3 11 96 94
3 11 98 96
3 196 101 197
3 198 197 99
3 196 197 198
3 200 199 101
3 12 105 103
3 14 106 47
3 14 107 106
3 14 109 107
3 16 110 49
3 16 111 110
3 16 113 111
3 18 114 51
3 18 115 114
3 19 201 202
3 19 203 205
3 203 116 204
3 203 204 205
3 20 206 208
3 208 207 117
3 206 207 208
3 210 209 55
3 21 211 212
3 21 213 214
3 21 215 217
3 215 119 216
3 215 216 217
3 23 120 58
3 23 121 120
3 24 124 122
3 26 125 61
3 26 126 125
3 26 128 126
3 28 129 63
3 28 218 220
3 220 219 129
3 218 219 220
3 13 221 223
3 223 222 104
3 221 222 223
3 30 130 67
3 30 131 130
3 15 132 108
3 31 133 70
3 31 134 133
3 31 135 134
3 32 136 72
3 32 137 136
3 32 139 137
3 34 140 74
3 34 141 140
3 17 142 112
3 35 143 77
3 35 144 143
3 35 145 144
3 36 146 79
3 36 147 146
3 224 148 225
3 226 149 227
3 228 227 148
3 226 227 228
3 230 229 149
3 37 231 232
3 37 233 234
3 29 235 236
3 38 237 238
3 38 239 240
3 22 151 118
3 39 152 85
3 39 153 152
3 39 154 153
3 40 155 87
3 40 156 155
3 33 157 138
3 41 158 90
3 41 159 158
3 25 160 123
3 42 161 93
3 42 162 161
3 42 163 162
3 43 164 95
3 43 165 164
3 43 166 165
3 44 167 97
3 44 168 167
3 27 169 127
3 45 170 100
3 45 171 170
3 45 172 171
3 241 173 242
3 243 242 102
3 241 242 243
3 245 244 173
3 246 174 247
3 248 247 150
3 246 247 248
3 46 47 12
3 48 47 46
3 48 14 47
3 48 49 14
3 50 49 48
3 50 16 49
3 50 51 16
3 52 51 50
3 52 18 51
3 53 249 250
3 53 251 253
3 251 19 252
3 251 252 253
3 54 55 20
3 56 55 54
3 56 254 256
3 256 255 55
3 254 255 256
3 56 257 258
3 57 259 261
3 261 260 56
3 259 260 261
3 57 262 264
3 262 21 263
3 262 263 264
3 57 58 21
3 59 58 57
3 59 23 58
3 60 61 24
3 62 61 60
3 62 26 61
3 62 63 26
3 64 63 62
3 64 28 63
3 65 265 267
3 267 266 13
3 265 266 267
3 269 268 65
3 66 270 271
3 66 272 273
3 66 274 276
3 274 67 275
3 274 275 276
3 68 67 66
3 68 30 67
3 69 70 15
3 71 70 69
3 71 31 70
3 71 72 31
3 73 72 71
3 73 32 72
3 73 74 32
3 75 74 73
3 75 34 74
3 76 77 17
3 78 77 76
3 78 35 77
3 78 79 35
3 80 79 78
3 80 36 79
3 81 277 278
3 81 279 281
3 279 37 280
3 279 280 281
3 82 282 284
3 284 283 29
3 282 283 284
3 286 285 82
3 83 287 288
3 83 289 291
3 289 38 290
3 289 290 291
3 84 85 22
3 86 85 84
3 86 39 85
3 86 87 39
3 88 87 86
3 88 40 87
3 89 90 33
3 91 90 89
3 91 41 90
3 92 93 25
3 94 93 92
3 94 42 93
3 94 95 42
3 96 95 94
3 96 43 95
3 96 97 43
3 98 97 96
3 98 44 97
3 99 100 27
3 101 100 99
3 101 45 100
3 101 102 45
3 292 102 293
3 294 293 101
3 292 293 294
3 296 295 102
3 103 297 299
3 297 104 298
3 297 298 299
3 105 104 103
3 105 13 104
3 47 105 12
3 106 105 47
3 106 13 105
3 106 65 13
3 107 65 106
3 107 4 65
3 107 108 4
3 109 108 107
3 109 15 108
3 49 109 14
3 110 109 49
3 110 15 109
3 110 69 15
3 111 69 110
3 111 6 69
3 111 112 6
3 113 112 111
3 113 17 112
3 51 113 16
3 114 113 51
3 114 17 113
3 114 76 17
3 115 76 114
3 115 8 76
3 116 300 301
3 116 302 304
3 302 9 303
3 302 303 304
3 117 305 307
3 307 306 5
3 305 306 307
3 309 308 117
3 55 310 312
3 312 311 20
3 310 311 312
3 314 313 55
3 315 118 316
3 119 317 319
3 317 118 318
3 317 318 319
3 119 22 118
3 58 119 21
3 120 119 58
3 120 22 119
3 120 84 22
3 121 84 120
3 121 10 84
3 122 123 7
3 124 123 122
3 124 25 123
3 61 124 24
3 125 124 61
3 125 25 124
3 125 92 25
3 126 92 125
3 126 11 92
3 126 127 11
3 128 127 126
3 128 27 127
3 63 128 26
3 129 128 63
3 129 27 128
3 129 99 27
3 320 99 321
3 322 321 129
3 320 321 322
3 324 323 99
3 325 1 326
3 104 327 328
3 330 329 104
3 332 331 13
3 333 29 334
3 67 335 336
3 130 337 339
3 339 338 67
3 337 338 339
3 130 340 342
3 340 29 341
3 340 341 342
3 130 82 29
3 131 82 130
3 131 5 82
3 108 68 4
3 132 68 108
3 132 30 68
3 70 132 15
3 133 132 70
3 133 30 132
3 133 131 30
3 134 131 133
3 134 5 131
3 134 117 5
3 135 117 134
3 135 20 117
3 72 135 31
3 136 135 72
3 136 20 135
3 136 54 20
3 137 54 136
3 137 2 54
3 137 138 2
3 139 138 137
3 139 33 138
3 74 139 32
3 140 139 74
3 140 33 139
3 140 89 33
3 141 89 140
3 141 7 89
3 112 75 6
3 142 75 112
3 142 34 75
3 77 142 17
3 143 142 77
3 143 34 142
3 143 141 34
3 144 141 143
3 144 7 141
3 144 122 7
3 145 122 144
3 145 24 122
3 79 145 35
3 146 145 79
3 146 24 145
3 146 60 24
3 147 60 146
3 147 3 60
3 343 103 344
3 345 103 346
3 347 12 348
3 349 348 103
3 347 348 349
3 148 350 351
3 148 352 354
3 352 12 353
3 352 353 354
3 148 46 12
3 149 46 148
3 149 0 46
3 149 150 0
3 355 150 356
3 357 356 149
3 355 356 357
3 359 358 150
3 361 360 29
3 363 362 5
3 118 364 366
3 364 83 365
3 364 365 366
3 151 83 118
3 151 38 83
3 85 151 22
3 152 151 85
3 152 38 151
3 152 367 369
3 369 368 38
3 367 368 369
3 153 370 372
3 372 371 152
3 370 371 372
3 153 373 374
3 153 375 376
3 154 377 379
3 379 378 153
3 377 378 379
3 154 380 381
3 87 154 39
3 155 154 87
3 155 382 384
3 384 383 154
3 382 383 384
3 155 385 386
3 156 387 389
3 389 388 155
3 387 388 389
3 156 390 392
3 390 1 391
3 390 391 392
3 138 59 2
3 157 59 138
3 157 23 59
3 90 157 33
3 158 157 90
3 158 23 157
3 158 121 23
3 159 121 158
3 159 10 121
3 123 91 7
3 160 91 123
3 160 41 91
3 93 160 25
3 161 160 93
3 161 41 160
3 161 159 41
3 162 159 161
3 162 10 159
3 162 88 10
3 163 88 162
3 163 40 88
3 95 163 42
3 164 163 95
3 164 40 163
3 164 156 40
3 165 156 164
3 165 1 156
3 165 53 1
3 166 53 165
3 166 19 53
3 97 166 43
3 167 166 97
3 167 19 166
3 167 116 19
3 168 116 167
3 168 9 116
3 127 98 11
3 169 98 127
3 169 44 98
3 100 169 27
3 170 169 100
3 170 44 169
3 170 168 44
3 171 168 170
3 171 9 168
3 171 81 9
3 172 81 171
3 172 37 81
3 102 172 45
3 173 172 102
3 173 37 172
3 173 393 395
3 395 394 37
3 393 394 395
3 397 396 173
3 150 52 0
3 174 52 150
3 174 18 52
3 398 174 399
3 400 174 401
3 402 18 403
3 404 403 174
3 402 403 404
3 405 115 406
3 407 406 18
3 405 406 407
3 408 115 409
3 410 8 411
3 412 411 115
3 410 411 412
3 413 8 414
3 415 80 416
3 417 416 8
3 415 416 417
3 418 80 419
3 420 36 421
3 422 421 80
3 420 421 422
3 423 36 424
3 425 147 426
3 427 426 36
3 425 426 427
3 428 147 429
3 430 3 431
3 432 431 147
3 430 431 432
3 433 3 434
3 435 64 436
3 437 436 3
3 435 436 437
3 438 64 439
3 440 28 441
3 442 441 64
3 440 441 442
3 443 28 444
3 446 445 28
