ply
format ascii 1.0
element vertex 242
property float x
property float y
property float z
element face 218
property list uchar int vertex_index
end_header
5.51931 27.925911 26.882267
0.599932 13.100513 45.993095
2.835175 21.626522 37.068356
3.484844 43.662945 19.576954
1.716337 17.547356 41.703934
3.591499 13.324459 39.260078
2.38842 9.366972 43.354736
4.879776 45.456074 13.303198
4.093853 25.142521 32.121613
4.79958 16.735088 34.808678
6.065094 37.92791 17.524588
4.606735 36.010853 23.389292
3.142323 33.162323 29.083796
1.856918 29.546383 34.546524
0.807287 25.362377 39.738136
1.165018 15.357613 43.894577
2.094152 13.502743 42.576569
1.484751 11.344597 44.619293
3.44083 23.466412 34.632549
4.484684 20.988747 33.516083
3.848007 19.338211 35.904877
4.200966 44.697578 16.444555
5.509666 41.769287 15.454922
4.806076 40.963116 18.498789
5.351448 37.094372 20.473358
4.068527 39.894047 21.521128
2.613262 37.04208 27.457111
2.470272 31.438431 31.84705
2.266537 19.645378 39.426765
3.2509 17.525284 38.213104
2.674927 15.571857 40.438728
3.005215 11.401533 41.355064
3.542217 48.28632 14.323052
2.863472 47.309925 17.564339
0.0215 10.798018 47.995064
4.791893 26.634811 29.537266
5.165127 22.458244 31.04653
4.180485 15.109699 37.077072
5.028683 12.38685 35.981579
6.147774 42.297962 12.403431
6.717274 38.497902 14.555395
5.833855 33.103516 22.362211
5.092831 32.019993 25.177635
3.328236 38.580029 24.510496
3.861336 34.693768 26.262241
4.353104 30.712582 27.939445
3.641075 29.198284 30.640593
2.975143 27.496716 33.276001
2.362926 25.62991 35.841988
1.304501 27.512188 37.177979
1.801029 23.621822 38.335472
1.277754 21.497452 40.753204
0.778301 19.28149 43.091507
0.290974 16.996628 45.346451
6.057539 26.360485 26.374909
5.884741 28.463503 25.522058
2.815796 8.256903 42.757191
3.124194 9.274184 41.757354
2.696817 10.384253 42.3549
2.879072 49.557496 14.910495
3.191948 50.003968 13.239272
2.5397 49.069298 16.531138
3.202844 47.798123 15.943696
2.879072 49.557496 14.910495
0.085478 8.832694 48.195257
-0.26635 9.633399 48.946424
5.130265 17.458887 33.630955
4.972817 19.585717 32.984657
4.642132 18.861918 34.16238
5.234913 15.273926 34.274273
5.130265 17.458887 33.630955
5.098107 10.172462 36.49978
4.727959 11.587303 37.056628
5.408506 10.873444 35.435051
5.098107 10.172462 36.49978
5.513775 43.877018 12.853314
5.818066 44.110802 11.286234
5.184067 45.689858 11.736117
6.632048 36.235859 17.067478
6.958137 36.520855 15.582881
6.391184 38.212906 16.039991
6.305498 35.938333 18.513551
6.632048 36.235859 17.067478
2.697972 39.711726 25.136735
3.046108 40.475441 23.598726
1.055894 26.437282 38.458057
0.820653 28.337028 37.922857
0.572046 27.262123 39.202936
0.358133 20.048008 43.862879
0.566694 21.201937 42.657928
0.11447 18.905577 44.990351
0.534637 18.139059 44.218979
0.358133 20.048008 43.862879
4.009367 12.056107 38.695877
3.717936 11.178926 39.726264
2.016558 38.073988 28.125946
2.340485 38.942751 26.610042
2.279606 36.173094 28.904796
2.016558 38.073988 28.125946
2.544137 34.233216 29.718139
2.877792 35.102201 28.270454
2.279606 36.173094 28.904796
2.208112 33.371269 31.099766
2.806298 32.300377 30.465423
2.544137 34.233216 29.718139
1.90567 32.415487 32.518256
2.208112 33.371269 31.099766
1.598993 31.469463 33.867992
2.163595 30.492407 33.196787
1.90567 32.415487 32.518256
0.368675 26.130472 40.520527
0.572046 27.262123 39.202936
0.581187 24.24238 40.981243
0.368675 26.130472 40.520527
3.424793 10.217464 40.773758
3.717936 11.178926 39.726264
3.298357 12.362996 40.307571
3.424793 10.217464 40.773758
3.124194 9.274184 41.757354
4.530103 47.215145 12.195485
5.184067 45.689858 11.736117
3.861324 48.630268 12.705412
3.191948 50.003968 13.239272
4.210997 46.871197 13.813125
4.530103 47.215145 12.195485
3.861324 48.630268 12.705412
0.428008 9.961161 47.277569
0.717224 11.112409 46.276584
0.310716 11.949265 46.994079
0.428008 9.961161 47.277569
0.085478 8.832694 48.195257
5.334594 25.18302 29.016709
5.698303 25.82857 27.689209
5.155601 27.280361 28.209767
5.521211 23.094736 29.771341
5.334594 25.18302 29.016709
4.97851 24.546527 30.291898
5.661245 20.948328 30.527042
5.521211 23.094736 29.771341
5.313038 20.320465 31.749881
4.824905 21.723495 32.281306
4.972817 19.585717 32.984657
5.661245 20.948328 30.527042
5.313038 20.320465 31.749881
4.30386 12.948728 37.604374
3.885992 14.217079 38.168575
4.009367 12.056107 38.695877
4.604584 13.748275 36.529325
4.30386 12.948728 37.604374
4.727959 11.587303 37.056628
5.349464 13.099806 34.860724
5.234913 15.273926 34.274273
4.914131 14.560969 35.395128
5.349464 13.099806 34.860724
5.408506 10.873444 35.435051
1.159634 10.234451 45.589683
1.042342 12.222555 45.306194
0.717224 11.112409 46.276584
1.59945 9.297051 44.934483
1.159634 10.234451 45.589683
2.051284 8.308238 44.302204
1.936586 10.355785 43.987015
1.59945 9.297051 44.934483
2.486145 7.261377 43.689014
2.051284 8.308238 44.302204
2.815796 8.256903 42.757191
2.486145 7.261377 43.689014
6.419569 42.418197 10.882521
5.818066 44.110802 11.286234
6.7141 40.545936 11.992324
6.419569 42.418197 10.882521
6.99885 38.645907 13.068307
6.7141 40.545936 11.992324
6.432524 40.397932 13.479413
7.24206 36.688574 14.127884
6.99885 38.645907 13.068307
7.24206 36.688574 14.127884
6.958137 36.520855 15.582881
5.948675 35.521564 19.987936
6.305498 35.938333 18.513551
5.708271 37.511141 18.998973
6.189878 33.526136 20.932362
5.948675 35.521564 19.987936
5.592652 35.098944 21.417784
6.393648 31.475827 21.873351
6.189878 33.526136 20.932362
6.042013 31.052305 23.262031
6.393648 31.475827 21.873351
5.671501 30.510544 24.669742
6.042013 31.052305 23.262031
5.463343 32.561754 23.769923
5.306071 29.972952 26.029951
5.884741 28.463503 25.522058
5.671501 30.510544 24.669742
2.223046 48.482059 18.205013
2.5397 49.069298 16.531138
1.899274 50.241433 17.171812
2.520882 46.686702 19.180009
2.223046 48.482059 18.205013
2.831568 44.863213 20.186317
3.174158 45.486435 18.570647
2.520882 46.686702 19.180009
3.124413 43.016899 21.131955
2.831568 44.863213 20.186317
3.416254 41.13245 22.104042
3.776685 41.778496 20.549041
3.124413 43.016899 21.131955
3.698381 39.237038 23.015812
3.416254 41.13245 22.104042
3.046108 40.475441 23.598726
2.970749 37.811054 25.983804
2.697972 39.711726 25.136735
2.340485 38.942751 26.610042
1.330984 30.440983 35.254511
1.598993 31.469463 33.867992
1.054775 29.423885 36.570239
0.820653 28.337028 37.922857
1.580709 28.529286 35.862251
1.330984 30.440983 35.254511
1.054775 29.423885 36.570239
0.81642 22.309917 41.488777
1.04252 23.429914 40.24567
0.581187 24.24238 40.981243
1.028028 20.389471 41.922355
0.81642 22.309917 41.488777
0.566694 21.201937 42.657928
-0.079133 17.726364 46.15584
0.11447 18.905577 44.990351
0.051791 15.829243 46.430279
-0.079133 17.726364 46.15584
0.206269 13.881186 46.753601
0.445453 15.048571 45.669773
0.051791 15.829243 46.430279
-0.082947 12.729938 47.754586
0.310716 11.949265 46.994079
0.206269 13.881186 46.753601
-0.313476 11.544659 48.792637
-0.082947 12.729938 47.754586
-0.26635 9.633399 48.946424
-0.313476 11.544659 48.792637
6.057539 26.360485 26.374909
5.698303 25.82857 27.689209
3 0 54 55
3 1 17 15
3 2 20 18
3 3 23 21
3 3 25 23
3 4 30 28
3 6 31 16
3 6 56 58
3 58 57 31
3 56 57 58
3 59 32 60
3 61 33 62
3 63 62 32
3 61 62 63
3 65 64 34
3 8 36 35
3 9 66 68
3 68 67 19
3 66 67 68
3 9 69 70
3 5 37 29
3 71 38 72
3 74 73 38
3 7 75 77
3 75 39 76
3 75 76 77
3 10 40 22
3 10 78 80
3 80 79 40
3 78 79 80
3 10 81 82
3 11 41 24
3 11 42 41
3 83 43 84
3 12 44 26
3 12 45 44
3 12 46 45
3 13 47 27
3 13 48 47
3 14 85 87
3 85 49 86
3 85 86 87
3 14 50 49
3 14 51 50
3 88 52 89
3 90 53 91
3 92 91 52
3 90 91 92
3 15 16 4
3 17 16 15
3 17 6 16
3 18 19 8
3 20 19 18
3 20 9 19
3 94 93 5
3 21 22 7
3 23 22 21
3 23 10 22
3 23 24 10
3 25 24 23
3 25 11 24
3 95 26 96
3 97 26 98
3 99 12 100
3 101 100 26
3 99 100 101
3 102 27 103
3 104 103 12
3 102 103 104
3 105 27 106
3 107 13 108
3 109 108 27
3 107 108 109
3 110 14 111
3 113 112 14
3 28 29 2
3 30 29 28
3 30 5 29
3 16 30 4
3 31 30 16
3 31 5 30
3 31 114 116
3 116 115 5
3 114 115 116
3 118 117 31
3 119 7 120
3 32 121 122
3 32 123 125
3 123 7 124
3 123 124 125
3 32 21 7
3 33 21 32
3 33 3 21
3 34 126 128
3 128 127 1
3 126 127 128
3 130 129 34
3 35 131 133
3 133 132 0
3 131 132 133
3 36 134 136
3 136 135 35
3 134 135 136
3 36 137 138
3 19 36 8
3 139 36 140
3 141 140 19
3 139 140 141
3 143 142 36
3 29 20 2
3 37 20 29
3 37 9 20
3 144 37 145
3 146 145 5
3 144 145 146
3 38 147 149
3 147 37 148
3 147 148 149
3 38 9 37
3 38 150 152
3 152 151 9
3 150 151 152
3 154 153 38
3 155 17 156
3 157 156 1
3 155 156 157
3 158 17 159
3 160 6 161
3 162 161 17
3 160 161 162
3 163 6 164
3 166 165 6
3 39 167 168
3 39 169 170
3 22 39 7
3 40 39 22
3 40 171 173
3 173 172 39
3 171 172 173
3 40 174 175
3 177 176 40
3 24 178 180
3 180 179 10
3 178 179 180
3 41 181 183
3 183 182 24
3 181 182 183
3 41 184 185
3 41 186 187
3 42 188 190
3 190 189 41
3 188 189 190
3 42 191 193
3 191 0 192
3 191 192 193
3 194 33 195
3 194 195 196
3 197 33 198
3 199 3 200
3 201 200 33
3 199 200 201
3 202 3 203
3 204 25 205
3 206 205 3
3 204 205 206
3 43 207 209
3 207 25 208
3 207 208 209
3 43 11 25
3 26 210 212
3 210 43 211
3 210 211 212
3 44 43 26
3 44 11 43
3 44 42 11
3 45 42 44
3 45 0 42
3 45 35 0
3 46 35 45
3 46 8 35
3 27 46 12
3 47 46 27
3 47 8 46
3 47 18 8
3 48 18 47
3 48 2 18
3 213 13 214
3 49 215 216
3 49 217 219
3 217 13 218
3 217 218 219
3 49 48 13
3 50 48 49
3 50 2 48
3 50 28 2
3 51 28 50
3 51 4 28
3 220 51 221
3 222 221 14
3 220 221 222
3 52 223 225
3 223 51 224
3 223 224 225
3 52 4 51
3 52 15 4
3 53 15 52
3 53 1 15
3 226 53 227
3 228 53 229
3 230 1 231
3 232 231 53
3 230 231 232
3 233 34 234
3 235 234 1
3 233 234 235
3 236 34 237
3 239 238 34
3 241 240 0
