ply
format ascii 1.0
element vertex 380
property float x
property float y
property float z
element face 407
property list uchar int vertex_index
end_header
-32.406281 35.871651 -16.948601
-38.96447 10.508842 -16.933002
-37.674934 1.440115 -0.127955
-34.106476 25.127125 -14.480883
-34.674217 20.235401 1.408885
-33.414673 37.772118 -10.162464
-38.302097 5.764004 -8.492546
-34.252434 23.226307 -6.416525
-32.675049 31.607906 -15.299158
-33.472126 25.975887 -18.314362
-37.697269 -0.636316 3.71597
-37.905315 3.570257 -4.238523
-33.997913 29.385067 0.493006
-34.275448 21.919285 -2.365231
-33.424889 30.711426 -3.363897
-33.223221 31.393661 -7.450052
-33.84021 37.954807 -6.100521
-36.348984 17.669495 -15.128487
-35.859253 19.319298 -18.98877
-37.593884 6.445887 7.345142
-36.587303 8.59824 4.457108
-36.045307 10.649652 1.012584
-35.609276 18.171307 4.642209
-32.924976 36.957558 -13.954657
-41.454166 1.512341 -14.682423
-38.733177 8.069372 -12.760927
-35.909824 12.545357 -2.853071
-36.07354 14.302223 -6.951347
-36.32341 15.989819 -11.089964
-34.306053 24.249287 -10.504208
-33.048817 31.594246 -11.486715
-32.401237 34.12011 -16.117743
-32.424362 31.692554 -17.129314
-32.219688 34.16045 -17.789898
-40.367569 7.402119 -18.015003
-40.3605 8.859388 -20.092018
-37.64859 0.393667 1.834408
-37.763874 2.499144 -2.157232
-34.08519 33.530235 -0.583759
-33.646034 30.132946 -1.386335
-33.706638 34.155815 -2.509792
-33.453213 34.576267 -4.518456
-34.126072 37.728031 -4.068377
-35.159904 21.442097 -14.623587
-36.181351 18.504318 -17.084316
-34.938103 22.069637 -16.566959
-32.988007 26.391968 -20.186493
-34.074139 23.26189 -20.322968
-37.334507 11.127693 7.306958
-37.029278 7.528912 5.976725
-36.632206 12.273441 6.065618
-36.060909 13.383873 4.649148
-39.522434 1.935987 -9.394049
-41.154228 -0.018843 -12.467945
-39.797962 3.229654 -11.576494
-40.050434 4.573944 -13.747438
-38.525463 6.899702 -10.632519
-35.305168 15.443947 1.341872
-35.931526 11.617601 -0.878531
-35.111435 16.376347 -0.508573
-34.233017 22.615902 -4.372898
-35.029755 18.040455 -4.46665
-35.093487 18.784836 -6.514767
-36.205688 15.149727 -9.026024
-35.180618 19.48534 -8.572802
-35.248699 20.154736 -10.619518
-34.291706 23.764938 -8.467678
-33.151642 34.853634 -8.61138
-33.152779 31.538845 -9.488333
-33.013344 34.764179 -10.620691
-32.839661 34.57233 -12.561687
-33.189049 37.425365 -12.112858
-33.255985 28.564198 -14.718571
-33.846416 25.551323 -16.413515
-32.983654 28.799751 -16.623001
-32.635002 29.073414 -18.50935
-39.244675 0.689981 -7.211178
-38.089108 4.656555 -6.35582
-34.215519 24.918617 1.144853
-34.414249 21.126953 -0.426435
-33.902851 25.752407 -0.701424
-33.719135 26.452896 -2.652525
-33.634106 27.023846 -4.669836
-33.607857 27.477154 -6.717615
-33.298656 31.126263 -5.397812
-33.283798 34.801529 -6.565607
-33.618935 37.960224 -8.145527
-37.624866 13.973915 -15.931187
-38.911293 11.757429 -18.954769
-37.516411 15.015736 -17.911957
-37.248257 16.040462 -19.835583
-36.803238 17.018341 -21.689957
-34.576176 22.681282 -18.467892
-35.374302 20.091648 -20.833618
-38.392174 0.831387 8.66975
-38.28772 5.362732 8.553648
-37.851097 1.838797 7.292041
-37.438793 2.864256 5.773457
-37.141823 3.897736 4.126195
-36.947609 4.929348 2.362615
-36.845367 5.951271 0.496368
-36.261448 9.641565 2.797462
-35.619526 14.444366 3.068824
-35.070358 19.24736 3.107795
-34.676056 23.955788 2.848355
-34.906624 40.790363 -6.020576
-34.578426 40.79493 -8.055626
-34.285561 40.55938 -10.072132
-32.639256 36.411407 -15.623999
-42.959156 -1.064251 -15.461081
-41.695541 3.104153 -16.879688
-40.251736 5.96759 -15.896782
-38.89217 9.274378 -14.864838
-36.82571 6.959242 -1.456638
-36.879051 7.953335 -3.477966
-36.993172 8.937849 -5.547194
-35.026222 17.240486 -2.454758
-35.964703 13.437485 -4.885841
-37.150707 9.920328 -7.643217
-37.327251 10.909674 -9.74588
-37.490902 11.913649 -11.837379
-37.603649 12.936031 -13.903051
-36.384861 16.8293 -13.127789
-35.254456 20.804432 -12.639595
-34.254459 24.697659 -12.51111
-33.59515 27.831802 -8.765612
-33.552299 28.11208 -10.790508
-33.445217 28.345875 -12.776825
-32.889408 31.599693 -13.426168
-32.626198 34.328773 -14.402979
-38.09963 -0.679685 -0.454016
-38.086458 -1.20291 0.527165
-37.661762 0.916891 0.853226
-38.205349 -0.117652 -1.50996
-38.09963 -0.679685 -0.454016
-37.719404 1.969629 -1.142594
-38.249819 0.411862 -2.524598
-38.205349 -0.117652 -1.50996
-34.114508 35.709913 -2.301982
-33.895914 33.843025 -1.546776
-34.303783 35.397123 -1.338966
-34.324224 37.496021 -3.081275
-33.916355 35.941923 -3.289084
-34.114508 35.709913 -2.301982
-33.214043 25.089735 -21.153759
-32.692288 26.583893 -21.102736
-37.223768 13.47019 7.224336
-37.701508 12.847418 7.697717
-36.872617 14.043064 6.603666
-36.983356 11.700567 6.686288
-37.223768 13.47019 7.224336
-36.461778 14.64705 6.028391
-36.872617 14.043064 6.603666
-32.390718 30.482394 -18.739888
-32.529682 30.382984 -17.819332
-32.285398 31.791964 -18.049869
-32.422084 29.223644 -19.449976
-32.390718 30.482394 -18.739888
-37.973078 -2.78055 3.501107
-37.767099 -1.139981 4.609543
-38.574995 2.130119 -5.724851
-39.111851 0.088652 -6.12546
-38.442171 1.52879 -4.639133
-35.052961 20.441839 -21.719467
-34.724221 21.676769 -20.578293
-34.40288 22.02696 -21.464142
-35.776817 19.002457 -22.145968
-35.052961 20.441839 -21.719467
-38.754326 2.561756 9.13232
-38.733341 0.340821 9.28179
-37.940802 5.90431 7.949395
-38.22784 7.663025 8.460271
-37.880922 8.204603 7.856018
-34.926142 25.682207 3.319716
-34.984291 23.41544 3.611989
-34.590187 26.214117 2.540047
-34.926142 25.682207 3.319716
-39.552971 11.033867 -20.535141
-38.804831 12.37591 -19.936571
-35.67205 42.037319 -6.143258
-35.11317 40.656807 -5.015699
-35.089769 41.945505 -9.173356
-35.286977 42.062216 -8.170217
-34.943337 41.827731 -10.181609
-34.431994 40.677155 -9.063879
-35.089769 41.945505 -9.173356
-42.346775 1.123285 -16.193404
-43.09927 -0.165011 -16.582732
-42.206661 0.224045 -15.071752
-41.574854 2.308247 -15.781056
-42.467462 1.919192 -17.292036
-42.346775 1.123285 -16.193404
-32.183061 33.025911 -18.380161
-32.285398 31.791964 -18.049869
-32.322025 32.926502 -17.459606
-41.121702 6.908447 -19.604881
-41.107683 6.073656 -18.534083
-41.118167 7.637082 -20.643389
-41.121702 6.908447 -19.604881
-40.364035 8.130753 -19.053511
-41.052225 8.470333 -21.692558
-41.118167 7.637082 -20.643389
-38.002567 -1.74499 1.559016
-38.026906 -2.259981 2.499796
-37.672929 -0.121325 2.775189
-38.002567 -1.74499 1.559016
-38.086458 -1.20291 0.527165
-38.371451 0.993234 -3.598487
-38.249819 0.411862 -2.524598
-37.834595 3.0347 -3.197877
-38.442171 1.52879 -4.639133
-38.371451 0.993234 -3.598487
-33.757109 23.524696 -21.221996
-33.531073 24.826929 -20.254731
-33.214043 25.089735 -21.153759
-34.40288 22.02696 -21.464142
-33.757109 23.524696 -21.221996
-37.751234 10.545506 7.836926
-37.701508 12.847418 7.697717
-37.464196 8.78679 7.32605
-37.880922 8.204603 7.856018
-37.751234 10.545506 7.836926
-36.17613 15.202267 5.320156
-36.346558 12.828657 5.357383
-36.461778 14.64705 6.028391
-35.950314 17.595983 5.316687
-35.835093 15.77759 4.645679
-36.17613 15.202267 5.320156
-40.338331 0.958572 -10.930997
-40.986847 -0.75177 -11.35528
-40.17095 0.225645 -9.818332
-32.598587 27.882922 -20.288547
-32.811504 27.732691 -19.347921
-32.422084 29.223644 -19.449976
-32.692288 26.583893 -21.102736
-32.598587 27.882922 -20.288547
-37.973078 -2.78055 3.501107
-38.026906 -2.259981 2.499796
-39.855616 -1.097215 -7.612217
-39.111851 0.088652 -6.12546
-40.032071 -0.397358 -8.726897
-39.855616 -1.097215 -7.612217
-39.383555 1.312984 -8.302613
-40.17095 0.225645 -9.818332
-40.032071 -0.397358 -8.726897
-38.107389 14.005064 -19.415165
-38.804831 12.37591 -19.936571
-38.213852 13.386582 -18.433363
-37.973313 14.517427 -20.376978
-38.107389 14.005064 -19.415165
-37.382334 15.528099 -18.87377
-37.774845 15.112383 -21.322222
-37.973313 14.517427 -20.376978
-37.552336 15.601322 -22.249409
-37.774845 15.112383 -21.322222
-37.025748 16.529401 -20.76277
-37.256897 16.151468 -23.148097
-37.552336 15.601322 -22.249409
-36.491286 17.465803 -22.574137
-36.08877 18.554994 -21.261788
-35.776817 19.002457 -22.145968
-37.256897 16.151468 -23.148097
-36.491286 17.465803 -22.574137
-38.429609 -1.366142 8.702214
-38.733341 0.340821 9.28179
-38.239429 -0.895006 7.925584
-38.429609 -1.366142 8.702214
-38.709719 7.079879 8.898237
-38.22784 7.663025 8.460271
-38.702099 4.827429 9.074269
-38.709719 7.079879 8.898237
-38.339947 3.09706 8.611699
-38.754326 2.561756 9.13232
-38.702099 4.827429 9.074269
-37.968891 -0.391301 7.236729
-38.239429 -0.895006 7.925584
-38.121635 1.335092 7.980896
-37.844013 0.097576 6.397578
-37.968891 -0.391301 7.236729
-37.637861 0.610305 5.638286
-37.844013 0.097576 6.397578
-37.644945 2.351527 6.532749
-37.568031 1.11397 4.744713
-37.767099 -1.139981 4.609543
-37.637861 0.610305 5.638286
-35.836674 19.932223 5.171544
-35.950314 17.595983 5.316687
-35.450901 20.523199 4.508916
-35.836674 19.932223 5.171544
-35.181442 21.061226 3.741709
-35.339817 18.709333 3.875002
-35.450901 20.523199 4.508916
-34.873207 21.601574 2.978075
-35.181442 21.061226 3.741709
-34.984291 23.41544 3.611989
-34.359918 26.695532 1.688296
-34.445788 24.437202 1.996604
-34.590187 26.214117 2.540047
-34.251115 28.928756 1.362372
-34.106716 27.151842 0.818929
-34.359918 26.695532 1.688296
-34.308185 31.043795 0.853388
-34.251115 28.928756 1.362372
-34.351824 33.116378 0.315006
-34.041551 31.457651 -0.045377
-34.308185 31.043795 0.853388
-34.575167 35.045889 -0.404797
-34.351824 33.116378 0.315006
-34.303783 35.397123 -1.338966
-34.575167 35.045889 -0.404797
-40.277575 9.584846 -21.103766
-39.635897 10.308408 -19.523393
-39.552971 11.033867 -20.535141
-41.052225 8.470333 -21.692558
-40.277575 9.584846 -21.103766
-32.410615 36.115412 -17.665686
-32.613474 36.808172 -17.032139
-34.722894 39.125641 -4.039599
-34.324224 37.496021 -3.081275
-34.516348 39.259197 -5.044477
-34.722894 39.125641 -4.039599
-35.11317 40.656807 -5.015699
-35.451076 42.059933 -7.152692
-35.67205 42.037319 -6.143258
-34.742525 40.792647 -7.038101
-35.451076 42.059933 -7.152692
-35.286977 42.062216 -8.170217
-34.744191 41.585768 -11.158861
-34.943337 41.827731 -10.181609
-34.133558 40.337244 -11.051153
-34.744191 41.585768 -11.158861
-33.698115 38.943613 -11.096319
-33.850117 39.165749 -10.117298
-34.133558 40.337244 -11.051153
-33.585302 38.770236 -12.071516
-33.301861 37.598742 -11.137661
-33.698115 38.943613 -11.096319
-33.411915 38.459363 -13.001584
-33.585302 38.770236 -12.071516
-33.279878 38.22546 -13.922483
-33.057012 37.191462 -13.033758
-33.411915 38.459363 -13.001584
-33.08214 37.834797 -14.780503
-33.279878 38.22546 -13.922483
-32.93928 37.561721 -15.615174
-32.782116 36.684483 -14.789328
-33.08214 37.834797 -14.780503
-32.729962 37.078051 -16.369838
-32.93928 37.561721 -15.615174
-32.613474 36.808172 -17.032139
-32.522768 36.141529 -16.2863
-32.729962 37.078051 -16.369838
-41.881348 -1.405857 -12.837006
-40.986847 -0.75177 -11.35528
-42.783811 -1.928561 -14.333573
-41.881348 -1.405857 -12.837006
-42.056692 -0.541547 -13.964513
-43.767568 -2.10091 -15.729788
-42.783811 -1.928561 -14.333573
-43.926367 -1.097098 -16.872155
-43.767568 -2.10091 -15.729788
-43.926367 -1.097098 -16.872155
-43.09927 -0.165011 -16.582732
-42.558771 2.845833 -18.406502
-42.467462 1.919192 -17.292036
-41.771669 3.924673 -17.966425
-42.558771 2.845833 -18.406502
-41.049767 5.356392 -17.474972
-41.771669 3.924673 -17.966425
-40.973638 4.535872 -16.388235
-40.309652 6.684855 -16.955893
-41.107683 6.073656 -18.534083
-41.049767 5.356392 -17.474972
-32.317318 35.259811 -18.086334
-32.312984 35.01605 -17.36925
-32.410615 36.115412 -17.665686
-32.142133 34.29876 -18.678182
-32.317318 35.259811 -18.086334
-32.183061 33.025911 -18.380161
-32.142133 34.29876 -18.678182
3 0 33 31
3 1 35 34
3 2 130 132
3 132 131 36
3 130 131 132
3 2 133 134
3 2 135 137
3 135 37 136
3 135 136 137
3 138 40 139
3 140 139 38
3 138 139 140
3 141 42 142
3 143 142 40
3 141 142 143
3 3 45 43
3 145 144 46
3 146 48 147
3 148 50 149
3 150 149 48
3 148 149 150
3 152 151 50
3 6 54 52
3 6 56 54
3 4 59 57
3 7 62 60
3 7 64 62
3 7 66 64
3 5 69 67
3 5 71 69
3 8 74 72
3 153 75 154
3 155 154 32
3 153 154 155
3 157 156 75
3 10 158 159
3 11 160 162
3 160 76 161
3 160 161 162
3 11 77 76
3 12 80 78
3 14 81 39
3 14 82 81
3 14 84 82
3 16 85 41
3 16 86 85
3 17 89 87
3 18 90 44
3 18 91 90
3 9 92 73
3 163 93 164
3 165 164 47
3 163 164 165
3 167 166 93
3 168 94 169
3 19 170 172
3 170 95 171
3 170 171 172
3 19 96 95
3 19 97 96
3 20 98 49
3 20 99 98
3 20 101 99
3 22 102 51
3 22 103 102
3 173 104 174
3 176 175 104
3 178 177 88
3 179 105 180
3 181 106 182
3 183 107 184
3 185 184 106
3 183 184 185
3 24 109 53
3 24 186 188
3 188 187 109
3 186 187 188
3 24 189 191
3 189 110 190
3 189 190 191
3 25 111 55
3 25 112 111
3 21 113 100
3 26 114 58
3 26 115 114
3 13 116 79
3 27 117 61
3 27 118 117
3 27 119 118
3 28 120 63
3 28 121 120
3 28 122 121
3 29 123 65
3 29 124 123
3 15 125 83
3 30 126 68
3 30 127 126
3 30 128 127
3 23 129 70
3 23 108 129
3 31 32 8
3 33 32 31
3 33 192 194
3 194 193 32
3 192 193 194
3 34 195 196
3 35 197 199
3 199 198 34
3 197 198 199
3 35 200 201
3 36 202 204
3 204 203 10
3 202 203 204
3 206 205 36
3 37 207 208
3 37 209 211
3 209 11 210
3 209 210 211
3 38 39 12
3 40 39 38
3 40 14 39
3 40 41 14
3 42 41 40
3 42 16 41
3 43 44 17
3 45 44 43
3 45 18 44
3 46 47 9
3 212 47 213
3 214 213 46
3 212 213 214
3 216 215 47
3 48 217 218
3 48 219 221
3 219 19 220
3 219 220 221
3 48 49 19
3 50 49 48
3 50 20 49
3 50 51 20
3 222 51 223
3 224 223 50
3 222 223 224
3 225 22 226
3 227 226 51
3 225 226 227
3 52 228 230
3 228 53 229
3 228 229 230
3 54 53 52
3 54 24 53
3 54 55 24
3 56 55 54
3 56 25 55
3 57 58 21
3 59 58 57
3 59 26 58
3 60 61 13
3 62 61 60
3 62 27 61
3 62 63 27
3 64 63 62
3 64 28 63
3 64 65 28
3 66 65 64
3 66 29 65
3 67 68 15
3 69 68 67
3 69 30 68
3 69 70 30
3 71 70 69
3 71 23 70
3 72 73 3
3 74 73 72
3 74 9 73
3 32 74 8
3 75 74 32
3 75 9 74
3 75 46 9
3 231 46 232
3 233 232 75
3 231 232 233
3 235 234 46
3 237 236 10
3 76 238 239
3 76 240 241
3 76 242 244
3 242 52 243
3 242 243 244
3 77 52 76
3 77 6 52
3 78 79 4
3 80 79 78
3 80 13 79
3 39 80 12
3 81 80 39
3 81 13 80
3 81 60 13
3 82 60 81
3 82 7 60
3 82 83 7
3 84 83 82
3 84 15 83
3 41 84 14
3 85 84 41
3 85 15 84
3 85 67 15
3 86 67 85
3 86 5 67
3 87 88 1
3 89 88 87
3 89 245 247
3 247 246 88
3 245 246 247
3 44 89 17
3 90 89 44
3 90 248 250
3 250 249 89
3 248 249 250
3 90 251 252
3 91 253 255
3 255 254 90
3 253 254 255
3 91 256 257
3 73 45 3
3 92 45 73
3 92 18 45
3 47 92 9
3 93 92 47
3 93 18 92
3 93 91 18
3 258 91 259
3 260 259 93
3 258 259 260
3 262 261 91
3 94 263 264
3 94 265 266
3 95 267 268
3 95 269 270
3 95 271 273
3 271 94 272
3 271 272 273
3 96 94 95
3 96 274 276
3 276 275 94
3 274 275 276
3 96 277 278
3 97 279 281
3 281 280 96
3 279 280 281
3 97 282 284
3 282 10 283
3 282 283 284
3 49 97 19
3 98 97 49
3 98 10 97
3 98 36 10
3 99 36 98
3 99 2 36
3 99 100 2
3 101 100 99
3 101 21 100
3 51 101 20
3 102 101 51
3 102 21 101
3 102 57 21
3 103 57 102
3 103 4 57
3 285 22 286
3 287 22 288
3 289 103 290
3 291 290 22
3 289 290 291
3 104 292 294
3 292 103 293
3 292 293 294
3 104 4 103
3 104 78 4
3 295 78 296
3 297 296 104
3 295 296 297
3 298 12 299
3 300 299 78
3 298 299 300
3 301 12 302
3 303 38 304
3 305 304 12
3 303 304 305
3 306 38 307
3 309 308 38
3 88 35 1
3 310 35 311
3 312 311 88
3 310 311 312
3 314 313 35
3 316 315 0
3 317 42 318
3 105 319 321
3 319 42 320
3 319 320 321
3 105 16 42
3 322 105 323
3 106 324 326
3 324 105 325
3 324 325 326
3 106 16 105
3 106 86 16
3 107 86 106
3 107 5 86
3 327 107 328
3 329 107 330
3 331 5 332
3 333 332 107
3 331 332 333
3 334 71 335
3 336 335 5
3 334 335 336
3 337 71 338
3 339 23 340
3 341 340 71
3 339 340 341
3 342 23 343
3 344 108 345
3 346 345 23
3 344 345 346
3 347 108 348
3 349 0 350
3 351 350 108
3 349 350 351
3 53 352 353
3 109 354 356
3 356 355 53
3 354 355 356
3 109 357 358
3 109 359 360
3 362 361 109
3 110 363 364
3 110 365 366
3 55 110 24
3 111 110 55
3 111 367 369
3 369 368 110
3 367 368 369
3 111 370 372
3 370 34 371
3 370 371 372
3 112 34 111
3 112 1 34
3 100 37 2
3 113 37 100
3 113 11 37
3 58 113 21
3 114 113 58
3 114 11 113
3 114 77 11
3 115 77 114
3 115 6 77
3 79 59 4
3 116 59 79
3 116 26 59
3 61 116 13
3 117 116 61
3 117 26 116
3 117 115 26
3 118 115 117
3 118 6 115
3 118 56 6
3 119 56 118
3 119 25 56
3 63 119 27
3 120 119 63
3 120 25 119
3 120 112 25
3 121 112 120
3 121 1 112
3 121 87 1
3 122 87 121
3 122 17 87
3 65 122 28
3 123 122 65
3 123 17 122
3 123 43 17
3 124 43 123
3 124 3 43
3 83 66 7
3 125 66 83
3 125 29 66
3 68 125 15
3 126 125 68
3 126 29 125
3 126 124 29
3 127 124 126
3 127 3 124
3 127 72 3
3 128 72 127
3 128 8 72
3 70 128 30
3 129 128 70
3 129 8 128
3 129 31 8
3 108 31 129
3 108 0 31
3 373 33 374
3 375 374 0
3 373 374 375
3 376 33 377
3 379 378 33
