ply
format ascii 1.0
element vertex 476
property float x
property float y
property float z
element face 512
property list uchar int vertex_index
end_header
0.00713 -70.259232 56.205048
-7.012196 -82.973381 20.524376
-0.572479 -67.975571 36.834274
1.566952 -63.66124 20.244999
-0.578346 -69.528137 46.014252
-2.147373 -77.115189 28.699833
0.34025 -43.184113 44.848148
-1.474325 -56.770485 45.156799
0.85845 -54.307819 37.471218
0.844347 -65.863525 28.624966
-2.750475 -74.149933 20.030643
-7.996157 -81.633194 16.261808
-0.883165 -64.967422 54.956005
-0.782005 -68.847092 41.275337
-1.330219 -63.333359 45.421791
-1.010855 -62.306473 41.082718
-0.470379 -55.426956 41.251221
-0.141935 -61.278954 37.007317
1.00971 -60.314655 33.110176
0.062551 -66.961578 32.666206
-4.609783 -80.214409 24.703579
-2.440306 -75.610703 24.346163
-5.284277 -78.648438 20.319653
-6.059046 -84.645294 25.009418
-0.220692 -69.993576 51.008854
-0.669146 -74.095467 37.161804
-0.736547 -73.071297 32.690662
-1.676306 -78.472351 33.18808
-3.821381 -81.851456 29.212795
3.071823 -34.331467 41.263725
1.500154 -36.219032 44.465256
2.025423 -41.476387 41.510445
-1.185314 -64.250427 50.043114
-0.803057 -50.015263 45.044632
0.719959 -48.458305 41.486748
2.108765 -47.299438 37.867374
2.028492 -59.425274 29.214191
1.413921 -64.748886 24.515202
-0.537571 -71.826195 28.428816
-0.298803 -70.483574 24.216745
-0.324896 -69.175667 19.945744
-7.490238 -82.255569 18.362106
-7.814356 -84.443375 18.37953
-0.766594 -65.242126 57.518929
-0.38159 -67.628006 55.58292
-0.737398 -68.432426 39.016525
-0.97164 -65.6362 41.122154
-0.765709 -65.167908 38.957695
-0.635967 -61.787304 39.014999
-0.428419 -64.682266 36.864799
0.011786 -64.186279 34.832977
-0.296015 -67.482994 34.722488
-5.90172 -81.590637 22.639942
-4.95163 -79.408401 22.498245
-6.311924 -80.809776 20.445192
-6.729755 -80.104393 18.292196
0.255922 -65.32119 15.737931
0.538998 -65.897003 17.889341
-0.523201 -74.501709 39.503815
-1.00536 -76.415436 35.161316
-5.019342 -83.283508 27.148577
0.938349 -39.728634 44.677971
1.842667 -38.775421 43.08564
1.238358 -42.272705 43.209694
-0.399 -69.787865 48.482765
-0.68981 -67.159653 50.502331
-0.861824 -66.847504 48.054539
-1.506714 -60.087708 45.255581
-1.624712 -60.687084 47.409222
-1.777813 -57.483231 47.181866
-1.730797 -54.218178 46.99474
-1.493866 -50.908955 46.822727
-1.228197 -53.406227 45.097424
0.177826 -54.834564 39.350342
0.074537 -51.94331 41.381676
0.791649 -51.329201 39.539322
1.453299 -47.827202 39.68557
1.483307 -50.802414 37.697731
1.516251 -53.846676 35.601662
1.007267 -63.183342 30.870594
1.556934 -59.861015 31.174812
1.458838 -62.684608 28.887499
1.827843 -62.19244 26.870346
1.17354 -65.304276 26.588335
-1.271692 -75.233276 30.682312
-0.660135 -72.469696 30.542765
-1.316309 -74.555984 28.514904
-2.57518 -74.863945 22.185844
-1.330568 -73.125824 24.234488
-1.370018 -72.416016 22.092556
-0.261454 -69.818985 22.089348
-1.482496 -71.733276 19.945148
-1.337473 -62.663498 56.810444
-1.446901 -62.257851 54.33115
-0.71904 -69.213806 43.609634
-0.993189 -66.485092 45.673096
-1.04142 -66.078438 43.361183
-1.242037 -62.826347 43.217468
-1.248846 -59.482521 43.166939
-1.033518 -56.077511 43.183594
-0.845577 -58.891407 41.137268
-0.316149 -58.330116 39.159927
0.297369 -57.808254 37.225235
0.939095 -57.329147 35.318645
0.425484 -60.787319 35.045929
0.508387 -63.685219 32.843334
0.459118 -66.418922 30.642609
-3.302698 -78.752365 26.716671
-2.308006 -76.369392 26.513813
-3.563377 -77.959976 24.516346
-3.80335 -77.18222 22.334908
-4.054247 -76.44339 20.169189
-5.639685 -77.953278 18.172453
-7.184326 -79.481339 16.192024
-6.540287 -83.778305 22.740818
-7.288706 -85.179306 20.557373
-6.781679 -86.014023 22.804144
0.236134 -72.841537 54.168407
-0.077091 -70.148766 53.585846
0.148615 -72.763855 51.551044
0.000744 -72.638428 48.970886
-0.184019 -72.45842 46.437401
-0.373875 -72.218521 43.959167
-0.532307 -71.915634 41.54467
-0.624739 -71.549187 39.2015
-0.626295 -71.121185 36.934101
-0.528158 -70.636154 34.740776
-0.742622 -73.616653 34.892513
-1.170475 -75.858215 32.892708
-1.93882 -77.823265 30.919638
-2.651312 -80.27037 31.216211
-3.000906 -79.531448 28.945847
-4.236174 -81.038979 26.939068
-5.475224 -82.425476 24.873444
2.267159 -61.229507 22.68239
2.379528 -35.217545 42.908909
2.588959 -37.939735 41.415386
2.675167 -40.800987 39.759224
-0.518402 -67.419258 53.013359
-1.033453 -64.636978 52.462852
-1.555933 -61.787796 51.940002
-1.298637 -63.812584 47.696606
-1.628611 -61.259861 49.634811
-0.258476 -46.608414 44.9683
-0.615067 -52.640282 43.231274
-0.04925 -49.191322 43.271133
0.591339 -45.737926 43.270432
1.3906 -44.973907 41.53479
2.096037 -44.324387 39.761925
1.553171 -56.891254 33.420616
2.098009 -56.490067 31.50845
2.407593 -59.004997 27.206829
2.097565 -61.708282 24.803616
1.547176 -64.201645 22.399069
-0.340473 -70.101189 32.611435
-0.090834 -69.525894 30.527546
0.181128 -68.922318 28.464989
-1.325333 -73.846161 26.371546
-0.403816 -71.158081 26.326473
0.431393 -68.304047 26.399267
0.61915 -67.68454 24.311506
0.712271 -67.074402 22.193157
0.689442 -66.478989 20.047775
-0.513571 -68.558075 17.798691
-0.18723 -68.943619 55.893984
-0.342845 -67.7094 56.892666
-0.148485 -69.025013 57.20373
1.51991 -63.390699 19.15616
1.955215 -62.204535 20.37858
1.052975 -64.779122 19.06717
1.005933 -64.508581 17.978332
1.51991 -63.390699 19.15616
0.6393 -41.456373 44.763059
0.425361 -40.257793 45.434839
0.126311 -41.985533 45.519928
-2.87776 -73.815956 18.959993
-2.243771 -72.607628 18.917245
-2.116486 -72.941605 19.987896
-8.486508 -82.461373 15.258626
-8.273345 -81.363629 15.250072
-8.273345 -81.363629 15.250072
-7.86743 -80.287701 15.21518
-7.590242 -80.557266 16.226916
-0.530129 -66.353745 14.657107
-0.293164 -66.642551 15.703138
0.254803 -74.123848 51.830963
0.192375 -72.802696 52.859725
0.298563 -74.162689 53.139645
0.048931 -73.960312 47.94762
0.130781 -74.024346 49.235632
-0.04345 -73.870308 46.680878
-0.091637 -72.548424 47.704144
0.048931 -73.960312 47.94762
-0.349986 -73.525955 42.93786
-0.241094 -73.655296 44.176147
-0.429202 -73.374511 41.730612
-0.453091 -72.067077 42.751919
-0.349986 -73.525955 42.93786
-3.236346 -81.060913 30.214503
-3.010462 -81.446846 31.374837
-3.595497 -82.237389 30.373129
2.482506 -59.912239 23.910642
2.590642 -59.707451 22.844115
3.335171 -33.948918 40.40866
3.277439 -32.475386 41.168924
3.122839 -35.778992 40.474037
3.335171 -33.948918 40.40866
-7.467326 -85.937531 19.459543
-7.191905 -86.318641 20.561152
1.236646 -35.003033 45.054672
0.975993 -36.77182 45.194466
1.754698 -34.423552 44.345816
1.236646 -35.003033 45.054672
1.939841 -35.718288 43.687083
2.194386 -33.922808 43.567643
1.754698 -34.423552 44.345816
-1.789912 -59.724613 49.453643
-1.626661 -60.973472 48.522016
-1.787962 -59.438225 48.340849
-1.823546 -60.061386 50.539379
-1.789912 -59.724613 49.453643
-0.954554 -48.791251 45.842979
-1.299958 -49.238096 46.732027
-1.148462 -50.462109 45.933679
-0.530767 -48.311839 45.006466
-0.682263 -47.087826 45.804813
-0.954554 -48.791251 45.842979
2.397536 -45.543957 37.913469
2.391172 -44.056431 38.860744
2.102401 -45.811913 38.81465
2.387672 -47.084124 36.949804
2.397536 -45.543957 37.913469
2.292116 -57.772278 29.386806
2.326874 -56.304675 30.533936
2.06325 -57.957671 30.36132
2.218043 -59.215136 28.21051
2.481667 -57.56214 28.383125
2.292116 -57.772278 29.386806
-7.931356 -83.036613 17.318891
-8.184316 -82.725426 16.268743
-7.743197 -81.944381 17.311957
-8.093415 -84.130516 17.327604
-7.931356 -83.036613 17.318891
-7.652297 -83.349472 18.370818
-8.030471 -85.251053 17.313549
-8.093415 -84.130516 17.327604
-0.535347 -66.51646 57.86067
-0.736823 -65.35379 58.83034
-0.574092 -66.435066 56.550925
-0.535347 -66.51646 57.86067
-0.342845 -67.7094 56.892666
0.864395 -64.220675 16.902627
0.759982 -63.943787 15.811825
0.39746 -65.609096 16.813636
0.864395 -64.220675 16.902627
1.005933 -64.508581 17.978332
-0.151626 -66.930458 16.778844
-0.293164 -66.642551 15.703138
0.39746 -65.609096 16.813636
-6.172154 -85.78154 25.063538
-5.81124 -85.092484 26.170459
-0.523624 -75.89711 39.701748
-0.424648 -74.667549 40.710184
-0.6533 -75.698364 38.500206
-0.523624 -75.89711 39.701748
-0.726272 -75.495244 37.3292
-0.596174 -74.298588 38.332809
-0.6533 -75.698364 38.500206
-0.894379 -76.655228 36.328957
-0.837253 -75.255451 36.16156
-0.726272 -75.495244 37.3292
-1.186314 -77.731175 35.338421
-0.894379 -76.655228 36.328957
-1.521787 -78.759632 34.351803
-1.340833 -77.443894 34.174698
-1.186314 -77.731175 35.338421
-4.177637 -82.991364 29.34176
-3.595497 -82.237389 30.373129
-4.776617 -83.70739 28.309651
-4.420362 -82.567482 28.180686
-4.177637 -82.991364 29.34176
-5.291387 -84.41159 27.240038
-4.776617 -83.70739 28.309651
-5.81124 -85.092484 26.170459
-5.539194 -83.964401 26.078997
-5.291387 -84.41159 27.240038
2.958376 -32.949837 41.980621
3.277439 -32.475386 41.168924
0.695091 -38.526621 45.300823
0.425361 -40.257793 45.434839
1.219251 -37.973833 44.571613
0.975993 -36.77182 45.194466
0.695091 -38.526621 45.300823
-1.864513 -57.836298 48.227171
-1.787962 -59.438225 48.340849
-1.701262 -59.085158 47.295544
-1.943167 -56.26495 48.062746
-1.864513 -57.836298 48.227171
-1.919659 -54.632424 47.969183
-1.943167 -56.26495 48.062746
-1.754305 -55.850705 47.088303
-1.908776 -53.030363 47.812942
-1.919659 -54.632424 47.969183
-1.612331 -52.563567 46.908733
-1.790311 -51.375751 47.726936
-1.908776 -53.030363 47.812942
1.79509 -50.580959 36.773868
2.107819 -48.829471 36.85869
1.796036 -49.050926 37.782552
1.811562 -52.103091 35.725834
1.79509 -50.580959 36.773868
1.499779 -52.324545 36.649696
1.812274 -53.646158 34.663853
1.811562 -52.103091 35.725834
-1.592424 -71.410137 18.874159
-1.013624 -70.131332 18.874457
-0.903696 -70.454472 19.945446
-1.592424 -71.410137 18.874159
-2.243771 -72.607628 18.917245
-8.486508 -82.461373 15.258626
-8.184316 -82.725426 16.268743
-0.139962 -43.689925 45.640577
0.126311 -41.985533 45.519928
-1.011282 -64.123287 58.446095
-0.736823 -65.35379 58.83034
-1.296721 -62.833973 58.091852
-1.011282 -64.123287 58.446095
-1.052033 -63.952812 57.164687
-1.623858 -61.584261 57.684063
-1.296721 -62.833973 58.091852
-1.651888 -61.347675 56.445825
-1.623858 -61.584261 57.684063
-1.706602 -61.144852 55.206179
-1.651888 -61.347675 56.445825
-1.392187 -62.460674 55.570797
-1.729588 -60.869963 54.020782
-1.706602 -61.144852 55.206179
-4.203968 -76.101578 19.097511
-3.552082 -74.954849 19.028238
-3.402361 -75.296661 20.099916
-4.996687 -76.856522 18.099143
-4.203968 -76.101578 19.097511
-4.846966 -77.198334 19.170821
-5.846036 -77.64132 17.121647
-4.996687 -76.856522 18.099143
-6.618357 -78.40535 16.131433
-5.846036 -77.64132 17.121647
-6.412006 -78.717309 17.182239
-7.442873 -79.20628 15.178089
-6.618357 -78.40535 16.131433
-7.442873 -79.20628 15.178089
-7.86743 -80.287701 15.21518
0.047421 -65.031193 14.676191
0.759982 -63.943787 15.811825
0.047421 -65.031193 14.676191
-0.530129 -66.353745 14.657107
-6.938391 -86.736 21.684538
-7.191905 -86.318641 20.561152
-7.035192 -85.596665 21.680758
-6.533471 -86.465904 23.960901
-6.420362 -85.329658 23.906781
-6.172154 -85.78154 25.063538
-6.684659 -87.171524 22.828856
-6.533471 -86.465904 23.960901
-6.938391 -86.736 21.684538
-6.684659 -87.171524 22.828856
0.204716 -74.087059 50.525711
0.254803 -74.123848 51.830963
0.074679 -72.701142 50.260965
0.204716 -74.087059 50.525711
0.130781 -74.024346 49.235632
-0.146166 -73.775246 45.415264
-0.04345 -73.870308 46.680878
-0.278947 -72.33847 45.198284
-0.146166 -73.775246 45.415264
-0.241094 -73.655296 44.176147
-0.527754 -73.208672 40.524242
-0.429202 -73.374511 41.730612
-0.424648 -74.667549 40.710184
-1.968506 -79.709717 33.363159
-1.521787 -78.759632 34.351803
-2.456009 -80.608727 32.377225
-3.010462 -81.446846 31.374837
-2.163809 -79.371361 32.202146
-1.968506 -79.709717 33.363159
-2.456009 -80.608727 32.377225
2.305319 -60.988668 21.597276
2.590642 -59.707451 22.844115
1.917056 -62.445374 21.463695
1.955215 -62.204535 20.37858
2.305319 -60.988668 21.597276
0.01126 -70.295464 57.529297
-0.148485 -69.025013 57.20373
0.12761 -71.568909 56.507964
0.01126 -70.295464 57.529297
0.242112 -72.860062 55.489643
0.121632 -71.550385 55.186728
0.12761 -71.568909 56.507964
0.310054 -74.175949 54.45623
0.242112 -72.860062 55.489643
0.298563 -74.162689 53.139645
0.310054 -74.175949 54.45623
-7.730151 -85.569565 18.370621
-7.551531 -84.811341 19.468452
-7.467326 -85.937531 19.459543
-8.030471 -85.251053 17.313549
-7.730151 -85.569565 18.370621
2.612229 -33.392876 42.803213
2.194386 -33.922808 43.567643
2.725676 -34.774506 42.086317
2.958376 -32.949837 41.980621
2.612229 -33.392876 42.803213
2.881407 -37.583126 40.549867
3.122839 -35.778992 40.474037
2.830391 -36.135601 41.339556
2.924511 -39.013752 39.721787
2.881407 -37.583126 40.549867
2.632063 -39.370361 40.587305
2.93403 -40.522782 38.86538
2.924511 -39.013752 39.721787
-1.784104 -60.634935 52.825209
-1.729588 -60.869963 54.020782
-1.501417 -62.022824 53.135576
-1.787208 -60.325353 51.691975
-1.592272 -61.523829 50.787407
-1.823546 -60.061386 50.539379
-1.784104 -60.634935 52.825209
-1.787208 -60.325353 51.691975
-1.697246 -49.747736 47.570305
-1.790311 -51.375751 47.726936
-1.697246 -49.747736 47.570305
-1.299958 -49.238096 46.732027
-0.439325 -45.402075 45.700653
-0.682263 -47.087826 45.804813
0.040887 -44.896264 44.908224
-0.139962 -43.689925 45.640577
-0.439325 -45.402075 45.700653
2.680737 -42.294731 38.859394
2.385602 -42.562687 39.760575
2.391172 -44.056431 38.860744
2.93403 -40.522782 38.86538
2.680737 -42.294731 38.859394
2.387672 -47.084124 36.949804
2.107819 -48.829471 36.85869
1.830734 -55.168447 33.57333
1.812274 -53.646158 34.663853
1.534711 -55.368965 34.511139
2.103153 -54.967854 32.617247
1.830734 -55.168447 33.57333
1.82559 -56.690661 32.464533
2.356813 -54.792957 31.6671
2.103153 -54.967854 32.617247
2.356813 -54.792957 31.6671
2.326874 -56.304675 30.533936
2.670277 -57.387722 27.380478
2.481667 -57.56214 28.383125
2.552723 -58.799984 26.172861
2.670277 -57.387722 27.380478
2.397709 -60.151626 24.971255
2.552723 -58.799984 26.172861
2.252579 -60.356639 26.005223
2.182362 -61.468894 23.743003
2.482506 -59.912239 23.910642
2.397709 -60.151626 24.971255
-0.67791 -68.260994 16.733519
-0.151626 -66.930458 16.778844
0.012713 -67.227539 17.844016
-1.107962 -69.822536 17.80093
-0.419234 -68.866871 18.872218
-1.013624 -70.131332 18.874457
-1.28433 -69.518577 16.742491
-1.107962 -69.822536 17.80093
-0.67791 -68.260994 16.733519
-1.28433 -69.518577 16.742491
-2.87776 -73.815956 18.959993
-3.552082 -74.954849 19.028238
3 1 42 41
3 0 164 166
3 164 44 165
3 164 165 166
3 2 47 45
3 2 49 47
3 2 51 49
3 1 54 52
3 1 41 54
3 3 167 168
3 3 169 171
3 169 57 170
3 169 170 171
3 6 172 174
3 172 61 173
3 172 173 174
3 6 63 61
3 4 66 64
3 7 69 67
3 7 70 69
3 7 72 70
3 8 75 73
3 8 77 75
3 8 78 77
3 9 81 79
3 9 83 81
3 5 86 84
3 10 89 87
3 10 91 89
3 10 175 177
3 177 176 91
3 175 176 177
3 11 178 179
3 12 92 43
3 12 93 92
3 13 96 94
3 15 97 46
3 15 98 97
3 15 100 98
3 17 101 48
3 17 102 101
3 17 104 102
3 19 105 50
3 19 106 105
3 20 109 107
3 22 110 53
3 22 111 110
3 22 112 111
3 11 113 55
3 11 180 182
3 182 181 113
3 180 181 182
3 184 183 56
3 23 116 114
3 185 119 186
3 187 186 117
3 185 186 187
3 188 120 189
3 190 121 191
3 192 191 120
3 190 191 192
3 193 122 194
3 195 123 196
3 197 196 122
3 195 196 197
3 25 124 58
3 25 125 124
3 25 127 125
3 27 128 59
3 27 129 128
3 28 198 200
3 198 130 199
3 198 199 200
3 28 131 130
3 28 132 131
3 23 133 60
3 23 114 133
3 201 134 202
3 29 203 204
3 29 205 206
3 208 207 115
3 30 209 210
3 30 211 212
3 30 213 215
3 213 135 214
3 213 214 215
3 31 136 62
3 31 137 136
3 24 138 118
3 32 139 65
3 32 140 139
3 14 141 95
3 216 142 217
3 218 217 68
3 216 217 218
3 220 219 142
3 33 221 223
3 223 222 71
3 221 222 223
3 33 224 226
3 224 143 225
3 224 225 226
3 16 144 99
3 34 145 74
3 34 146 145
3 34 147 146
3 35 148 76
3 35 227 229
3 229 228 148
3 227 228 229
3 35 230 231
3 18 149 103
3 36 150 80
3 36 232 234
3 234 233 150
3 232 233 234
3 36 235 237
3 235 151 236
3 235 236 237
3 37 152 82
3 37 153 152
3 26 154 126
3 38 155 85
3 38 156 155
3 21 157 108
3 39 158 88
3 39 159 158
3 39 160 159
3 40 161 90
3 40 162 161
3 40 163 162
3 41 238 240
3 240 239 11
3 238 239 240
3 42 241 243
3 243 242 41
3 241 242 243
3 42 244 245
3 246 43 247
3 44 248 250
3 248 43 249
3 248 249 250
3 44 12 43
3 45 46 13
3 47 46 45
3 47 15 46
3 47 48 15
3 49 48 47
3 49 17 48
3 49 50 17
3 51 50 49
3 51 19 50
3 52 53 20
3 54 53 52
3 54 22 53
3 54 55 22
3 41 55 54
3 41 11 55
3 251 56 252
3 57 253 255
3 253 56 254
3 253 254 255
3 57 256 258
3 258 257 56
3 256 257 258
3 260 259 23
3 261 58 262
3 263 58 264
3 265 25 266
3 267 266 58
3 265 266 267
3 268 59 269
3 270 269 25
3 268 269 270
3 271 59 272
3 273 27 274
3 275 274 59
3 273 274 275
3 276 28 277
3 278 60 279
3 280 279 28
3 278 279 280
3 281 60 282
3 283 23 284
3 285 284 60
3 283 284 285
3 286 29 287
3 61 288 289
3 61 290 292
3 290 30 291
3 290 291 292
3 61 62 30
3 63 62 61
3 63 31 62
3 64 65 24
3 66 65 64
3 66 32 65
3 67 68 14
3 69 68 67
3 69 293 295
3 295 294 68
3 293 294 295
3 69 296 297
3 70 298 300
3 300 299 69
3 298 299 300
3 70 301 302
3 70 303 305
3 303 71 304
3 303 304 305
3 72 71 70
3 72 33 71
3 73 74 16
3 75 74 73
3 75 34 74
3 75 76 34
3 77 76 75
3 77 35 76
3 77 306 308
3 308 307 35
3 306 307 308
3 78 309 311
3 311 310 77
3 309 310 311
3 78 312 313
3 79 80 18
3 81 80 79
3 81 36 80
3 81 82 36
3 83 82 81
3 83 37 82
3 84 85 26
3 86 85 84
3 86 38 85
3 87 88 21
3 89 88 87
3 89 39 88
3 89 90 39
3 91 90 89
3 91 40 90
3 91 314 316
3 316 315 40
3 314 315 316
3 318 317 91
3 320 319 11
3 321 6 322
3 43 323 324
3 92 325 327
3 327 326 43
3 325 326 327
3 92 328 329
3 92 330 331
3 93 332 334
3 334 333 92
3 332 333 334
3 93 335 336
3 94 95 4
3 96 95 94
3 96 14 95
3 46 96 13
3 97 96 46
3 97 14 96
3 97 67 14
3 98 67 97
3 98 7 67
3 98 99 7
3 100 99 98
3 100 16 99
3 48 100 15
3 101 100 48
3 101 16 100
3 101 73 16
3 102 73 101
3 102 8 73
3 102 103 8
3 104 103 102
3 104 18 103
3 50 104 17
3 105 104 50
3 105 18 104
3 105 79 18
3 106 79 105
3 106 9 79
3 107 108 5
3 109 108 107
3 109 21 108
3 53 109 20
3 110 109 53
3 110 21 109
3 110 87 21
3 111 87 110
3 111 10 87
3 111 337 339
3 339 338 10
3 337 338 339
3 112 340 342
3 342 341 111
3 340 341 342
3 112 343 344
3 55 112 22
3 113 112 55
3 113 345 347
3 347 346 112
3 345 346 347
3 113 348 349
3 351 350 113
3 56 352 353
3 355 354 56
3 114 115 1
3 116 115 114
3 116 356 358
3 358 357 115
3 356 357 358
3 359 116 360
3 361 360 23
3 359 360 361
3 362 116 363
3 365 364 116
3 117 118 0
3 119 118 117
3 119 24 118
3 366 119 367
3 120 368 370
3 368 119 369
3 368 369 370
3 120 24 119
3 120 64 24
3 121 64 120
3 121 4 64
3 371 121 372
3 122 373 375
3 373 121 374
3 373 374 375
3 122 4 121
3 122 94 4
3 123 94 122
3 123 13 94
3 58 376 378
3 376 123 377
3 376 377 378
3 124 123 58
3 124 13 123
3 124 45 13
3 125 45 124
3 125 2 45
3 125 126 2
3 127 126 125
3 127 26 126
3 59 127 25
3 128 127 59
3 128 26 127
3 128 84 26
3 129 84 128
3 129 5 84
3 379 27 380
3 130 381 382
3 130 383 385
3 383 27 384
3 383 384 385
3 130 129 27
3 131 129 130
3 131 5 129
3 131 107 5
3 132 107 131
3 132 20 107
3 60 132 28
3 133 132 60
3 133 20 132
3 133 52 20
3 114 52 133
3 114 1 52
3 134 386 387
3 134 388 390
3 388 3 389
3 388 389 390
3 391 0 392
3 393 0 394
3 395 117 396
3 397 396 0
3 395 396 397
3 398 117 399
3 401 400 117
3 115 42 1
3 402 42 403
3 404 403 115
3 402 403 404
3 406 405 42
3 135 407 408
3 135 409 411
3 409 29 410
3 409 410 411
3 62 135 30
3 136 135 62
3 136 29 135
3 136 412 414
3 414 413 29
3 412 413 414
3 137 415 417
3 417 416 136
3 415 416 417
3 137 418 419
3 118 44 0
3 138 44 118
3 138 12 44
3 65 138 24
3 139 138 65
3 139 12 138
3 139 93 12
3 140 93 139
3 140 420 422
3 422 421 93
3 420 421 422
3 95 66 4
3 141 66 95
3 141 32 66
3 68 141 14
3 142 141 68
3 142 32 141
3 142 140 32
3 423 140 424
3 425 424 142
3 423 424 425
3 427 426 140
3 71 428 429
3 431 430 71
3 143 432 433
3 143 434 436
3 434 6 435
3 434 435 436
3 99 72 7
3 144 72 99
3 144 33 72
3 74 144 16
3 145 144 74
3 145 33 144
3 145 143 33
3 146 143 145
3 146 6 143
3 146 63 6
3 147 63 146
3 147 31 63
3 76 147 34
3 148 147 76
3 148 31 147
3 148 137 31
3 437 137 438
3 439 438 148
3 437 438 439
3 441 440 137
3 443 442 35
3 103 78 8
3 149 78 103
3 149 444 446
3 446 445 78
3 444 445 446
3 80 149 18
3 150 149 80
3 150 447 449
3 449 448 149
3 447 448 449
3 150 450 451
3 453 452 150
3 151 454 455
3 151 456 457
3 82 151 36
3 152 151 82
3 152 458 460
3 460 459 151
3 458 459 460
3 152 461 463
3 461 134 462
3 461 462 463
3 153 134 152
3 153 3 134
3 126 51 2
3 154 51 126
3 154 19 51
3 85 154 26
3 155 154 85
3 155 19 154
3 155 106 19
3 156 106 155
3 156 9 106
3 108 86 5
3 157 86 108
3 157 38 86
3 88 157 21
3 158 157 88
3 158 38 157
3 158 156 38
3 159 156 158
3 159 9 156
3 159 83 9
3 160 83 159
3 160 37 83
3 90 160 39
3 161 160 90
3 161 37 160
3 161 153 37
3 162 153 161
3 162 3 153
3 162 57 3
3 163 57 162
3 163 464 466
3 466 465 57
3 464 465 466
3 467 163 468
3 469 468 40
3 467 468 469
3 470 163 471
3 473 472 163
3 475 474 10
