ply
format ascii 1.0
element vertex 692
property float x
property float y
property float z
element face 825
property list uchar int vertex_index
end_header
0.767208 -84.198616 51.69146
5.677126 -83.504761 33.015877
8.339899 -90.192535 60.570877
21.999413 -79.984756 56.846832
0.458405 -75.656837 46.590927
-0.558191 -80.18512 61.595001
23.890114 -73.690582 65.587814
16.263102 -77.91658 68.73114
10.165056 -96.805519 51.804581
15.413905 -94.26059 50.21991
6.190922 -92.704819 48.064735
7.471224 -92.748863 38.200718
3.032101 -84.853073 42.467358
1.290443 -75.620026 37.501953
8.325954 -82.544289 69.672279
2.232512 -83.669983 67.039024
3.455046 -89.749802 57.309036
28.723059 -78.225357 55.254967
14.860081 -85.293579 59.619392
21.589182 -87.750664 45.79546
10.213884 -99.300095 47.527596
12.382277 -100.22718 47.699196
3.16246 -88.664345 49.882263
4.515465 -89.032967 45.267212
1.846968 -84.883926 47.040146
0.874199 -75.793427 42.027157
-0.08901 -82.627182 56.550957
0.835848 -85.351013 59.477234
1.838964 -87.464981 54.574776
4.84799 -91.639473 52.649277
6.714296 -88.088348 35.528355
22.656092 -76.910553 61.637169
26.028225 -75.65303 60.165718
25.479105 -78.718681 55.841446
28.582748 -81.394676 50.51635
25.210606 -81.796783 50.504738
7.902992 -86.490738 65.214279
11.414122 -84.324768 65.226585
11.466595 -88.20575 60.556984
17.934649 -96.652657 43.517605
18.388275 -91.030136 47.953091
21.105633 -93.266029 40.674858
-0.355623 -79.131393 53.728775
0.292976 -80.204803 48.978897
-0.795452 -77.240204 58.639442
4.366623 -79.048988 30.649662
20.238491 -75.563591 67.352608
18.984585 -78.90831 63.108101
9.307777 -93.672493 56.07502
12.084143 -92.243988 55.966751
12.649738 -96.386902 51.708763
15.005198 -99.258141 46.189568
8.522881 -96.725136 45.851013
7.101486 -93.031792 43.308334
5.706755 -88.778198 40.523071
4.295427 -84.340294 37.818447
1.054295 -80.548721 44.383926
1.926651 -80.36705 39.848572
2.998631 -79.839142 35.284271
4.919102 -83.722244 68.829628
4.858795 -87.474762 64.170059
0.410589 -82.414474 64.512093
2.474886 -87.056076 62.154167
5.62924 -90.735085 59.442818
6.882465 -93.431633 54.882858
8.033134 -95.461853 50.44236
27.057814 -72.270531 63.477654
29.041399 -74.799522 58.672462
12.20149 -80.428833 69.578049
15.174329 -81.556099 64.410378
18.40839 -82.290245 58.218048
15.110473 -89.483322 54.750351
18.334007 -86.199425 52.996864
21.734661 -83.400078 51.399315
24.994141 -85.489143 44.550068
1.82214 -86.506676 50.766937
2.450966 -86.855667 48.449501
1.288237 -84.644943 49.345551
0.301355 -83.527512 54.092072
0.712936 -85.133179 55.545074
1.233612 -85.93631 53.127563
2.479578 -88.178055 52.206627
6.233511 -85.778282 34.251381
7.173073 -87.617065 32.937969
6.858175 -85.277519 31.72691
22.265553 -78.441734 59.342369
24.019512 -77.724899 58.710739
23.76322 -79.22493 56.287666
25.323605 -80.222504 53.285561
23.590733 -80.766464 53.649429
8.026276 -88.368629 62.891197
9.641577 -87.448837 63.027061
9.861151 -89.35743 60.700836
19.489307 -94.983658 42.048622
-0.610804 -78.286636 56.169052
3.632927 -76.832939 29.524067
17.104164 -76.035416 70.632332
19.155704 -74.877441 69.972412
18.27758 -76.692337 68.096687
19.521156 -77.256035 65.32206
17.585556 -78.447075 66.031647
9.797464 -95.297775 53.920029
11.072569 -95.025665 54.03344
11.365765 -96.825073 51.949356
13.646273 -99.977425 47.137619
7.529099 -94.698624 47.03157
7.796413 -94.981133 44.643402
6.71456 -92.952507 45.722855
3.739765 -86.989021 43.85186
5.136475 -88.969788 42.922112
4.373508 -86.834389 41.523739
4.996691 -86.569115 39.152061
3.65202 -84.644409 40.159576
0.300014 -77.991043 47.739632
0.662037 -80.45639 46.667099
0.592733 -78.168823 45.440865
1.072758 -75.737335 39.761925
1.208994 -78.163231 40.897305
1.555893 -78.026382 38.634735
2.430239 -80.139229 37.573631
1.954155 -77.820358 36.369644
2.424517 -77.551155 34.098076
1.554489 -75.447769 35.244267
2.425682 -81.760933 69.39933
3.751343 -81.868965 70.32058
3.473259 -83.854988 68.044296
4.775484 -85.656624 66.530731
3.414738 -85.715965 65.678352
-0.598799 -78.689377 64.13089
-0.175894 -79.793289 65.604591
-0.174299 -81.404358 63.079239
2.002384 -87.654411 58.406181
1.562311 -86.348686 60.872803
2.88798 -88.497871 59.711555
3.939497 -89.013206 60.858414
4.47142 -90.423904 58.480247
6.228678 -92.159668 57.137794
5.119492 -91.65934 56.150566
5.554428 -92.271866 50.362343
6.496201 -93.566727 51.60788
7.084715 -94.229172 49.341896
8.384699 -96.193939 48.185173
25.539715 -72.937996 64.576408
27.312916 -76.848801 57.614258
27.577469 -75.207489 59.429115
28.519403 -83.001091 47.690605
10.222719 -81.57357 69.733376
13.113491 -84.8675 62.565155
13.275961 -82.970078 64.901924
14.927731 -83.389458 62.052315
16.769228 -81.92395 61.422356
16.620983 -83.747711 58.94413
13.835661 -93.221848 53.233643
13.571228 -90.989014 55.467651
15.300529 -91.808144 52.423523
19.958694 -89.322853 46.804642
18.379498 -88.491257 50.419464
19.998898 -86.861282 49.42939
20.01564 -84.68158 52.138245
21.670326 -85.429329 48.5756
23.381929 -84.298317 47.935631
23.273598 -86.442863 45.020302
15.012408 -77.232704 71.154953
10.324335 -98.153961 49.689651
11.44342 -98.501717 49.896957
11.234041 -99.994675 47.828323
4.673748 -90.711403 48.997932
5.336012 -90.953468 46.68605
3.851027 -88.940804 47.578438
3.095972 -87.006439 46.152885
2.430456 -84.942802 44.754673
0.673428 -75.773766 44.301781
0.864132 -73.285675 43.257751
1.326885 -81.36235 68.281281
-0.382429 -81.506485 59.058884
-0.014717 -82.848686 60.540321
0.288183 -84.099251 58.020439
1.279091 -86.520203 56.999077
2.578892 -88.749596 55.987114
4.127775 -90.799156 54.957336
3.249022 -89.623207 53.621727
3.963737 -90.274033 51.299774
7.121656 -90.421913 36.848602
7.376453 -90.00457 34.199245
23.193165 -75.33812 63.719521
24.888702 -74.614471 62.851097
24.386644 -76.2024 60.898712
25.704609 -77.212875 58.137283
27.133503 -78.412323 55.504753
28.643219 -79.82357 53.051682
27.011286 -79.935005 53.093147
26.919514 -81.476028 50.401367
26.832771 -83.111725 47.484089
7.999649 -84.552109 67.491615
9.805258 -83.57357 67.593979
9.61412 -85.526245 65.341881
11.344799 -86.253876 62.906258
13.137867 -86.817261 60.178253
16.782043 -95.39991 46.961128
16.87513 -92.724541 49.130325
18.270992 -93.778381 45.645721
19.817368 -92.051781 44.330288
21.426094 -90.375778 43.140701
23.095963 -88.900314 42.189312
22.784691 -91.661201 39.524914
0.046009 -81.731659 52.678177
0.449955 -82.280449 50.30085
-0.049398 -79.768806 51.330948
0.014959 -77.658379 50.068115
-0.828075 -77.417755 62.62326
-0.815037 -73.233887 62.071136
-0.88743 -76.007858 61.120979
-0.759001 -78.7883 60.102303
-0.577085 -79.977768 57.589897
-0.302155 -80.963486 55.109756
5.051495 -81.266029 31.815998
23.003052 -72.823334 68.274582
21.132282 -73.799538 69.185196
22.117306 -74.560715 66.513763
21.398067 -76.214699 64.545647
20.849072 -77.810959 62.378716
20.458755 -79.391357 60.023628
8.791756 -91.963509 58.291779
10.224131 -91.261551 58.408752
10.658447 -93.157944 56.182526
12.423058 -94.319839 53.792618
14.003334 -95.512787 51.110641
12.663239 -98.381599 49.692123
13.970032 -97.79425 49.08992
15.34709 -96.775604 48.14838
16.4389 -98.119804 44.943214
7.348665 -92.959129 40.802914
5.91964 -91.023575 44.33411
6.409452 -90.945534 41.91814
6.805901 -90.739799 39.423996
6.229452 -88.479393 38.059006
5.614471 -86.212662 36.728249
4.969105 -83.956734 35.437492
0.895855 -82.620956 47.972538
1.374441 -82.775406 45.679703
1.881891 -82.772797 43.404556
0.893076 -78.217651 43.163269
1.472715 -80.510193 42.115391
2.420465 -82.643158 41.129501
2.997723 -82.412209 38.840321
3.623901 -82.098465 36.527596
4.307615 -81.713531 34.186558
3.643108 -79.473701 32.976921
2.98237 -77.220879 31.817116
5.286783 -81.67807 71.018906
6.546782 -83.276443 69.3741
6.312788 -85.261551 67.139008
6.308826 -87.153656 64.824287
6.522993 -88.953278 62.479759
0.461271 -80.6959 67.002472
1.210573 -83.180885 65.847488
0.53919 -83.974648 61.991562
1.291523 -84.850334 63.364693
2.250095 -85.440865 64.609589
3.575739 -87.439568 63.268677
5.154688 -89.170181 61.794601
6.923077 -90.659256 60.149437
7.455261 -92.266212 57.863953
8.046055 -93.762207 55.634689
8.608877 -95.128029 53.45179
5.818323 -92.709259 53.86657
7.510372 -94.537033 52.661652
9.055279 -96.338867 51.286652
9.308653 -97.367554 49.098419
9.317394 -98.189156 46.842842
28.446579 -71.645782 62.290001
26.474796 -74.009262 61.93911
27.951336 -73.472786 60.976517
29.328478 -72.949432 59.955467
12.917717 -78.413162 71.523651
14.226574 -79.184624 69.234055
11.697626 -82.391907 67.466125
13.645191 -81.087494 67.138756
15.617564 -79.745834 66.64827
17.085121 -80.175583 63.797791
18.619555 -80.566498 60.72982
20.207432 -81.014771 57.502098
11.735554 -90.200577 58.229782
13.310713 -88.85186 57.79538
14.938558 -87.314087 57.16613
16.814388 -90.187286 51.451683
16.698231 -87.843201 53.896896
16.61211 -85.704727 56.415108
18.325579 -84.146843 55.619705
20.070358 -82.753227 54.853844
21.832119 -81.610565 54.181206
23.474167 -82.429588 50.841713
25.111935 -83.52552 47.563465
26.723194 -84.923775 44.42495
24.814098 -87.745949 41.565228
4.001145 -76.615051 28.370276
3.246752 -75.712711 28.99119
7.524797 -93.77597 37.5208
7.6331 -93.885418 38.876204
24.714914 -73.314289 65.082111
25.141269 -72.444279 65.908378
24.316468 -72.820572 66.414081
28.785049 -77.391472 56.18763
28.079977 -76.703194 57.367275
28.017988 -77.537079 56.434613
29.489601 -78.144966 55.154763
28.785049 -77.391472 56.18763
29.472155 -79.005485 54.187237
29.489601 -78.144966 55.154763
29.306176 -83.891835 46.441425
28.47494 -83.859195 46.170094
9.274337 -82.05893 69.702828
9.549017 -81.016842 70.721425
8.600634 -81.502202 70.690876
14.41848 -76.780483 72.214165
15.496465 -76.221759 72.015476
0.964794 -71.989662 43.922073
0.798524 -73.252373 44.397858
1.008925 -80.102836 68.854023
1.480814 -80.38892 69.454529
7.38277 -88.55981 32.214869
7.394787 -87.348896 31.619658
0.001269 -76.346062 50.648586
-0.11998 -77.403976 51.249367
0.121121 -76.538151 49.483753
0.001269 -76.346062 50.648586
-0.847009 -76.015225 63.107746
-0.798212 -76.655609 63.874908
-0.729316 -72.507225 61.336178
-0.696194 -71.882088 62.484882
-0.841441 -76.624031 59.880211
-0.844128 -75.245728 60.390743
-0.798139 -75.861901 59.149974
5.108104 -79.908123 30.033383
5.450541 -81.016644 30.616551
4.709059 -80.157509 31.23283
22.590351 -72.384422 69.538883
23.515648 -71.906746 69.044479
8.47919 -96.888855 44.630054
8.793188 -97.755371 45.166058
7.490443 -94.058617 42.730976
7.837907 -95.033288 43.39851
7.44895 -94.006462 43.975868
7.225075 -92.995461 42.055624
7.614033 -94.022286 41.478266
7.490443 -94.058617 42.730976
2.437302 -76.220592 32.40173
2.703443 -77.386017 32.957596
2.158375 -76.38573 33.542209
2.653455 -76.077973 31.271259
2.437302 -76.220592 32.40173
8.793188 -97.755371 45.166058
9.190445 -98.487381 45.661972
8.920137 -97.457146 46.346927
27.413965 -71.354996 64.137425
26.696043 -71.717953 64.77932
27.752197 -71.958157 62.883827
28.108348 -71.042621 63.543598
27.413965 -71.354996 64.137425
29.738915 -74.581085 58.275379
29.882455 -73.65604 58.916882
29.184939 -73.874477 59.313964
29.388462 -81.42059 50.662018
29.418698 -80.635037 51.929684
28.612983 -80.609123 51.784016
12.559603 -79.420997 70.55085
11.888307 -78.962261 71.620064
11.530194 -79.970096 70.647262
24.666233 -89.0304 40.135806
23.95503 -88.323131 41.87727
23.807165 -89.607582 40.447848
10.458709 -100.273842 46.609112
10.011201 -99.753906 46.399643
7.237338 -86.179123 31.014128
7.394787 -87.348896 31.619658
7.015624 -86.447292 32.332439
19.192656 -96.497456 41.009308
18.711978 -95.818158 42.783113
18.415326 -97.331955 41.7438
20.02157 -95.658871 40.240313
19.192656 -96.497456 41.009308
20.829733 -94.800057 39.553431
20.29747 -94.124843 41.36174
20.02157 -95.658871 40.240313
21.689354 -93.965858 38.879774
20.829733 -94.800057 39.553431
-0.305271 -78.140484 53.079696
-0.425452 -77.791496 54.276623
-0.740536 -76.4006 57.939484
-0.798139 -75.861901 59.149974
-0.648211 -76.923817 56.704289
-0.703128 -77.76342 57.404247
-0.740536 -76.4006 57.939484
-0.553042 -77.369118 55.496762
-0.648211 -76.923817 56.704289
-0.425452 -77.791496 54.276623
-0.483214 -78.709014 54.948914
-0.553042 -77.369118 55.496762
4.397244 -77.70443 28.912808
4.764091 -78.812454 29.475606
3.999775 -77.940963 30.086864
4.397244 -77.70443 28.912808
4.001145 -76.615051 28.370276
18.129934 -75.456429 70.302372
18.636913 -74.478454 71.151161
17.611143 -75.057442 71.481121
13.310968 -100.972382 46.169302
13.014275 -100.102303 47.418408
12.67897 -101.09726 46.450091
13.983822 -100.788074 45.71838
13.310968 -100.972382 46.169302
14.663284 -100.428432 45.244355
14.325736 -99.617783 46.663594
13.983822 -100.788074 45.71838
15.387995 -100.012321 44.61789
14.663284 -100.428432 45.244355
1.723361 -75.334037 34.115305
2.158375 -76.38573 33.542209
1.989503 -76.499462 34.671171
3.088513 -81.814949 69.859955
3.285245 -80.799701 70.985386
2.622415 -80.745686 70.524761
-0.387346 -79.241333 64.86774
-0.334643 -78.420471 66.12051
-0.546095 -77.868515 65.383659
25.936993 -72.051685 65.328697
25.141269 -72.444279 65.908378
26.298765 -72.604264 64.027031
26.696043 -71.717953 64.77932
25.936993 -72.051685 65.328697
28.212254 -75.882538 58.274704
27.445193 -76.028145 58.521687
28.079977 -76.703194 57.367275
28.944218 -75.678554 57.896377
28.309434 -75.003505 59.050789
28.212254 -75.882538 58.274704
29.680757 -75.529117 57.649231
28.944218 -75.678554 57.896377
29.338229 -83.046539 47.91745
29.369901 -82.243332 49.330323
28.551075 -82.197884 49.103477
29.338229 -83.046539 47.91745
29.306176 -83.891835 46.441425
10.540809 -80.542465 70.724926
9.549017 -81.016842 70.721425
11.212104 -81.001202 69.655712
11.530194 -79.970096 70.647262
10.540809 -80.542465 70.724926
16.542343 -75.623115 71.754165
17.611143 -75.057442 71.481121
16.058286 -76.63406 70.893642
16.542343 -75.623115 71.754165
15.496465 -76.221759 72.015476
10.968787 -100.621132 46.759475
10.723962 -99.647385 47.67796
10.458709 -100.273842 46.609112
11.497923 -100.920807 46.751362
10.968787 -100.621132 46.759475
12.072041 -101.037059 46.686798
11.808159 -100.110928 47.763759
11.497923 -100.920807 46.751362
12.67897 -101.09726 46.450091
12.072041 -101.037059 46.686798
0.703172 -74.496418 44.919872
0.565917 -75.715301 45.446354
0.595661 -74.437953 46.064446
0.76878 -74.52972 43.779766
0.703172 -74.496418 44.919872
0.798524 -73.252373 44.397858
0.982796 -72.001724 42.788427
0.964794 -71.989662 43.922073
0.909353 -73.285911 42.12247
0.982796 -72.001724 42.788427
0.914387 -74.539787 41.507174
0.869166 -74.539551 42.642454
0.909353 -73.285911 42.12247
1.013667 -74.511741 40.374557
0.973479 -75.765381 40.894541
0.914387 -74.539787 41.507174
1.046696 -74.487133 39.243381
1.013667 -74.511741 40.374557
1.155539 -74.428478 38.113395
1.181601 -75.67868 38.631939
1.046696 -74.487133 39.243381
1.190406 -74.383034 36.985733
1.155539 -74.428478 38.113395
2.030213 -80.588211 70.013554
2.622415 -80.745686 70.524761
1.876283 -81.561642 68.840305
2.030213 -80.588211 70.013554
1.480814 -80.38892 69.454529
7.309241 -91.417946 36.17833
7.484025 -92.581421 36.854388
7.29644 -91.585388 37.52466
7.43664 -91.209274 34.853651
7.309241 -91.417946 36.17833
7.249054 -90.213242 35.523923
7.417994 -90.987244 33.470495
7.43664 -91.209274 34.853651
7.484459 -89.753563 32.845507
7.274763 -88.810817 33.568607
7.38277 -88.55981 32.214869
7.417994 -90.987244 33.470495
7.484459 -89.753563 32.845507
27.631624 -83.914513 46.066835
28.47494 -83.859195 46.170094
27.676087 -83.056408 47.587347
23.651529 -90.988026 39.115649
23.807165 -89.607582 40.447848
22.940327 -90.280757 40.857113
22.528883 -93.163444 38.304802
21.945162 -92.463615 40.099886
21.689354 -93.965858 38.879774
23.416506 -92.414173 37.788645
22.528883 -93.163444 38.304802
23.651529 -90.988026 39.115649
23.416506 -92.414173 37.788645
-0.152159 -78.45919 51.880783
-0.202511 -79.450099 52.529861
-0.305271 -78.140484 53.079696
-0.017219 -78.713593 50.699531
-0.152159 -78.45919 51.880783
-0.11998 -77.403976 51.249367
0.263648 -76.704483 48.319512
0.157487 -77.824711 48.903874
0.121121 -76.538151 49.483753
0.342844 -75.53738 47.745159
0.379209 -76.82394 47.165279
0.263648 -76.704483 48.319512
0.50798 -74.360569 47.209976
0.342844 -75.53738 47.745159
0.595661 -74.437953 46.064446
0.50798 -74.360569 47.209976
-0.683574 -77.29142 64.628723
-0.546095 -77.868515 65.383659
-0.713437 -78.053566 63.377075
-0.683574 -77.29142 64.628723
-0.798212 -76.655609 63.874908
-0.761304 -72.53389 63.264294
-0.696194 -71.882088 62.484882
-0.84049 -73.923291 62.831684
-0.761304 -72.53389 63.264294
-0.807931 -73.858742 60.865822
-0.729316 -72.507225 61.336178
-0.851233 -74.620872 61.596058
-0.807931 -73.858742 60.865822
-0.844128 -75.245728 60.390743
-0.876686 -75.310276 62.356606
-0.84049 -73.923291 62.831684
-0.851233 -74.620872 61.596058
-0.857753 -76.712806 61.872119
-0.847009 -76.015225 63.107746
-0.876686 -75.310276 62.356606
5.734592 -82.130893 31.186529
6.047407 -83.250259 31.786469
5.364311 -82.385395 32.415937
5.734592 -82.130893 31.186529
5.450541 -81.016644 30.616551
5.108104 -79.908123 30.033383
4.764091 -78.812454 29.475606
23.872937 -72.386948 67.757465
23.515648 -71.906746 69.044479
23.446583 -73.256958 66.931198
24.316468 -72.820572 66.414081
23.872937 -72.386948 67.757465
19.676094 -73.928916 70.806053
18.636913 -74.478454 71.151161
20.664383 -73.389965 70.412445
19.676094 -73.928916 70.806053
20.143993 -74.33849 69.578804
21.654966 -72.872524 69.994191
20.664383 -73.389965 70.412445
22.067667 -73.311436 68.729889
22.590351 -72.384422 69.538883
21.654966 -72.872524 69.994191
16.104847 -99.443153 43.994712
15.722049 -98.688973 45.566391
15.387995 -100.012321 44.61789
16.869575 -98.827671 43.250124
16.104847 -99.443153 43.994712
17.61745 -98.094098 42.53732
17.186774 -97.386231 44.23041
16.869575 -98.827671 43.250124
18.415326 -97.331955 41.7438
17.61745 -98.094098 42.53732
8.115956 -96.016853 44.026249
8.47919 -96.888855 44.630054
8.159647 -95.853135 45.247208
8.115956 -96.016853 44.026249
7.837907 -95.033288 43.39851
7.57182 -93.990551 40.177301
7.614033 -94.022286 41.478266
7.409944 -92.853996 39.501816
7.6331 -93.885418 38.876204
7.57182 -93.990551 40.177301
2.978733 -75.884003 30.124735
3.307648 -77.026909 30.670592
2.653455 -76.077973 31.271259
3.246752 -75.712711 28.99119
2.978733 -75.884003 30.124735
1.32243 -74.296905 35.85689
1.422466 -75.533897 36.37311
1.190406 -74.383034 36.985733
1.376673 -74.230358 34.732084
1.32243 -74.296905 35.85689
1.723361 -75.334037 34.115305
1.376673 -74.230358 34.732084
7.665838 -81.871338 70.576851
8.600634 -81.502202 70.690876
3.993035 -80.819549 71.393101
3.285245 -80.799701 70.985386
4.760756 -80.724102 71.742264
3.993035 -80.819549 71.393101
4.519063 -81.773517 70.669743
5.574143 -80.60479 72.037957
4.760756 -80.724102 71.742264
6.146252 -81.438229 71.250164
5.574143 -80.60479 72.037957
6.776252 -82.237415 70.427761
6.146252 -81.438229 71.250164
5.916783 -82.477257 70.196503
7.436368 -82.910366 69.52319
7.665838 -81.871338 70.576851
6.776252 -82.237415 70.427761
-0.095014 -78.917965 66.843864
-0.334643 -78.420471 66.12051
0.223569 -79.36927 67.542805
-0.095014 -78.917965 66.843864
0.142688 -80.244595 66.303531
0.576118 -79.769611 68.214619
0.223569 -79.36927 67.542805
0.894078 -81.029125 67.641876
1.008925 -80.102836 68.854023
0.576118 -79.769611 68.214619
9.562956 -99.198437 46.057266
10.011201 -99.753906 46.399643
9.765639 -98.744625 47.185219
9.562956 -99.198437 46.057266
9.190445 -98.487381 45.661972
7.524797 -93.77597 37.5208
7.484025 -92.581421 36.854388
6.637932 -84.136639 31.141985
6.267651 -84.39114 32.371394
6.047407 -83.250259 31.786469
7.173469 -85.002171 30.446015
6.637932 -84.136639 31.141985
7.237338 -86.179123 31.014128
7.173469 -85.002171 30.446015
28.750592 -70.692321 62.842945
28.108348 -71.042621 63.543598
29.082675 -71.332638 61.653591
28.750592 -70.692321 62.842945
29.523625 -71.984463 60.486324
29.082675 -71.332638 61.653591
28.887529 -72.297607 61.122734
29.976806 -72.668117 59.41444
29.523625 -71.984463 60.486324
29.976806 -72.668117 59.41444
29.882455 -73.65604 58.916882
29.738915 -74.581085 58.275379
29.680757 -75.529117 57.649231
29.432235 -79.804592 53.085594
29.472155 -79.005485 54.187237
28.683139 -79.024463 54.153324
29.432235 -79.804592 53.085594
29.418698 -80.635037 51.929684
29.388462 -81.42059 50.662018
29.369901 -82.243332 49.330323
12.305177 -77.894638 72.516575
11.888307 -78.962261 71.620064
13.371134 -77.370712 72.398514
12.305177 -77.894638 72.516575
13.965063 -77.822933 71.339302
14.41848 -76.780483 72.214165
13.371134 -77.370712 72.398514
27.576836 -84.820538 44.537266
27.631624 -83.914513 46.066835
26.777983 -84.01775 45.95452
25.549923 -88.538895 39.930763
24.666233 -89.0304 40.135806
25.684885 -87.364403 41.44586
25.549923 -88.538895 39.930763
25.774907 -86.236 42.93828
24.90412 -86.617546 43.057648
25.684885 -87.364403 41.44586
26.639433 -85.953316 42.875721
25.858667 -85.206459 44.487509
25.774907 -86.236 42.93828
27.505606 -85.770295 42.959134
26.639433 -85.953316 42.875721
27.576836 -84.820538 44.537266
27.505606 -85.770295 42.959134
3 0 77 75
3 0 80 78
3 0 75 80
3 1 84 82
3 3 87 85
3 3 89 87
3 2 92 90
3 296 295 95
3 7 98 96
3 7 100 98
3 8 103 101
3 10 107 105
3 12 110 108
3 12 112 110
3 4 115 113
3 13 118 116
3 13 120 118
3 13 122 120
3 15 125 123
3 15 127 125
3 5 130 128
3 16 133 131
3 16 135 133
3 16 137 135
3 10 140 138
3 10 105 140
3 11 297 298
3 6 299 301
3 299 142 300
3 299 300 301
3 17 302 304
3 304 303 143
3 302 303 304
3 17 305 306
3 17 307 308
3 310 309 145
3 14 311 313
3 311 146 312
3 311 312 313
3 18 149 147
3 18 151 149
3 9 154 152
3 19 157 155
3 19 159 157
3 19 161 159
3 314 162 315
3 20 165 163
3 22 168 166
3 24 169 76
3 24 170 169
3 316 172 317
3 318 173 319
3 26 176 174
3 28 177 79
3 28 178 177
3 28 180 178
3 22 181 81
3 22 166 181
3 30 183 182
3 321 320 83
3 31 186 184
3 33 187 86
3 33 188 187
3 33 190 188
3 35 191 88
3 35 192 191
3 36 195 193
3 38 196 91
3 38 197 196
3 39 200 198
3 41 201 93
3 41 202 201
3 41 204 202
3 42 207 205
3 322 208 323
3 325 324 208
3 326 209 327
3 328 210 329
3 44 330 332
3 330 211 331
3 330 331 332
3 44 212 211
3 44 213 212
3 42 214 94
3 42 205 214
3 45 333 335
3 335 334 215
3 333 334 335
3 336 216 337
3 46 217 97
3 46 218 217
3 46 219 218
3 47 220 99
3 47 221 220
3 48 224 222
3 50 225 102
3 50 226 225
3 21 227 164
3 51 228 104
3 51 229 228
3 51 230 229
3 52 338 339
3 53 340 342
3 342 341 106
3 340 341 342
3 53 343 345
3 343 231 344
3 343 344 345
3 23 232 167
3 54 233 109
3 54 234 233
3 54 235 234
3 55 236 111
3 55 237 236
3 43 238 206
3 56 239 114
3 56 240 239
3 25 241 171
3 57 242 117
3 57 243 242
3 57 244 243
3 58 245 119
3 58 246 245
3 58 247 246
3 346 248 347
3 348 347 121
3 346 347 348
3 350 349 248
3 59 249 124
3 59 250 249
3 59 251 250
3 60 252 126
3 60 253 252
3 61 254 129
3 61 255 254
3 27 256 175
3 62 257 132
3 62 258 257
3 62 259 258
3 63 260 134
3 63 261 260
3 63 262 261
3 64 263 136
3 64 264 263
3 29 265 179
3 65 266 139
3 65 267 266
3 65 268 267
3 52 269 141
3 52 351 353
3 353 352 269
3 351 352 353
3 66 354 355
3 66 356 358
3 356 270 357
3 356 357 358
3 32 271 185
3 67 272 144
3 67 273 272
3 67 359 361
3 361 360 273
3 359 360 361
3 34 362 364
3 364 363 189
3 362 363 364
3 68 365 367
3 365 274 366
3 365 366 367
3 68 275 274
3 37 276 194
3 69 277 148
3 69 278 277
3 69 279 278
3 70 280 150
3 70 281 280
3 49 282 223
3 71 283 153
3 71 284 283
3 40 285 199
3 72 286 156
3 72 287 286
3 72 288 287
3 73 289 158
3 73 290 289
3 73 291 290
3 74 292 160
3 74 293 292
3 368 294 369
3 370 369 203
3 368 369 370
3 372 371 20
3 75 76 22
3 77 76 75
3 77 24 76
3 78 79 26
3 80 79 78
3 80 28 79
3 80 81 28
3 75 81 80
3 75 22 81
3 82 83 30
3 84 83 82
3 84 373 375
3 375 374 83
3 373 374 375
3 85 86 31
3 87 86 85
3 87 33 86
3 87 88 33
3 89 88 87
3 89 35 88
3 90 91 36
3 92 91 90
3 92 38 91
3 376 93 377
3 378 377 39
3 376 377 378
3 379 93 380
3 381 41 382
3 383 382 93
3 381 382 383
3 385 384 41
3 387 386 42
3 388 44 389
3 390 94 391
3 392 391 44
3 390 391 392
3 393 94 394
3 395 42 396
3 397 396 94
3 395 396 397
3 95 398 400
3 400 399 45
3 398 399 400
3 402 401 95
3 96 403 405
3 403 97 404
3 403 404 405
3 98 97 96
3 98 46 97
3 98 99 46
3 100 99 98
3 100 47 99
3 101 102 48
3 103 102 101
3 103 50 102
3 406 104 407
3 408 407 21
3 406 407 408
3 409 104 410
3 411 51 412
3 413 412 104
3 411 412 413
3 415 414 51
3 105 106 52
3 107 106 105
3 107 53 106
3 108 109 23
3 110 109 108
3 110 54 109
3 110 111 54
3 112 111 110
3 112 55 111
3 113 114 43
3 115 114 113
3 115 56 114
3 116 117 25
3 118 117 116
3 118 57 117
3 118 119 57
3 120 119 118
3 120 58 119
3 120 121 58
3 122 121 120
3 122 416 418
3 418 417 121
3 416 417 418
3 123 419 421
3 419 124 420
3 419 420 421
3 125 124 123
3 125 59 124
3 125 126 59
3 127 126 125
3 127 60 126
3 128 422 424
3 422 129 423
3 422 423 424
3 130 129 128
3 130 61 129
3 131 132 27
3 133 132 131
3 133 62 132
3 133 134 62
3 135 134 133
3 135 63 134
3 135 136 63
3 137 136 135
3 137 64 136
3 138 139 29
3 140 139 138
3 140 65 139
3 140 141 65
3 105 141 140
3 105 52 141
3 142 425 426
3 142 427 429
3 427 66 428
3 427 428 429
3 143 144 32
3 430 144 431
3 432 431 143
3 430 431 432
3 433 67 434
3 435 434 144
3 433 434 435
3 437 436 67
3 145 438 440
3 440 439 34
3 438 439 440
3 442 441 145
3 146 443 444
3 146 445 447
3 445 68 446
3 445 446 447
3 147 148 37
3 149 148 147
3 149 69 148
3 149 150 69
3 151 150 149
3 151 70 150
3 152 153 49
3 154 153 152
3 154 71 153
3 155 156 40
3 157 156 155
3 157 72 156
3 157 158 72
3 159 158 157
3 159 73 158
3 159 160 73
3 161 160 159
3 161 74 160
3 448 96 449
3 162 450 452
3 450 96 451
3 450 451 452
3 162 7 96
3 163 164 8
3 165 164 163
3 165 21 164
3 453 165 454
3 455 454 20
3 453 454 455
3 456 165 457
3 458 21 459
3 460 459 165
3 458 459 460
3 462 461 21
3 166 167 10
3 168 167 166
3 168 23 167
3 76 168 22
3 169 168 76
3 169 23 168
3 169 108 23
3 170 108 169
3 170 12 108
3 463 171 464
3 465 464 4
3 463 464 465
3 172 466 468
3 466 171 467
3 466 467 468
3 172 25 171
3 469 172 470
3 471 172 472
3 473 25 474
3 475 474 172
3 473 474 475
3 476 116 477
3 478 477 25
3 476 477 478
3 479 116 480
3 481 13 482
3 483 482 116
3 481 482 483
3 485 484 13
3 486 123 487
3 173 488 490
3 488 123 489
3 488 489 490
3 173 15 123
3 174 175 5
3 176 175 174
3 176 27 175
3 79 176 26
3 177 176 79
3 177 27 176
3 177 131 27
3 178 131 177
3 178 16 131
3 178 179 16
3 180 179 178
3 180 29 179
3 81 180 28
3 181 180 81
3 181 29 180
3 181 138 29
3 166 138 181
3 166 10 138
3 182 491 493
3 493 492 11
3 491 492 493
3 183 494 496
3 496 495 182
3 494 495 496
3 183 497 498
3 83 183 30
3 499 183 500
3 501 500 83
3 499 500 501
3 503 502 183
3 184 185 6
3 186 185 184
3 186 32 185
3 86 186 31
3 187 186 86
3 187 32 186
3 187 143 32
3 188 143 187
3 188 17 143
3 188 189 17
3 190 189 188
3 190 34 189
3 88 190 33
3 191 190 88
3 191 34 190
3 191 145 34
3 192 145 191
3 192 504 506
3 506 505 145
3 504 505 506
3 193 194 14
3 195 194 193
3 195 37 194
3 91 195 36
3 196 195 91
3 196 37 195
3 196 147 37
3 197 147 196
3 197 18 147
3 198 199 9
3 200 199 198
3 200 40 199
3 93 200 39
3 201 200 93
3 201 40 200
3 201 155 40
3 202 155 201
3 202 19 155
3 202 203 19
3 204 203 202
3 204 507 509
3 509 508 203
3 507 508 509
3 510 204 511
3 512 511 41
3 510 511 512
3 513 204 514
3 516 515 204
3 205 206 0
3 207 206 205
3 207 43 206
3 517 207 518
3 519 518 42
3 517 518 519
3 208 520 522
3 520 207 521
3 520 521 522
3 208 43 207
3 208 113 43
3 523 113 524
3 525 524 208
3 523 524 525
3 526 4 527
3 528 527 113
3 526 527 528
3 529 4 530
3 532 531 4
3 533 128 534
3 209 535 537
3 535 128 536
3 535 536 537
3 209 5 128
3 210 538 539
3 210 540 541
3 542 210 543
3 211 544 546
3 544 210 545
3 544 545 546
3 211 547 549
3 549 548 210
3 547 548 549
3 211 550 552
3 550 209 551
3 550 551 552
3 212 209 211
3 212 5 209
3 212 174 5
3 213 174 212
3 213 26 174
3 94 213 44
3 214 213 94
3 214 26 213
3 214 78 26
3 205 78 214
3 205 0 78
3 215 553 555
3 555 554 1
3 553 554 555
3 557 556 215
3 559 558 45
3 216 560 561
3 216 562 564
3 562 6 563
3 562 563 564
3 97 565 566
3 217 567 569
3 569 568 97
3 567 568 569
3 217 570 571
3 217 572 574
3 572 216 573
3 572 573 574
3 218 216 217
3 218 6 216
3 218 184 6
3 219 184 218
3 219 31 184
3 99 219 46
3 220 219 99
3 220 31 219
3 220 85 31
3 221 85 220
3 221 3 85
3 222 223 2
3 224 223 222
3 224 49 223
3 102 224 48
3 225 224 102
3 225 49 224
3 225 152 49
3 226 152 225
3 226 9 152
3 164 103 8
3 227 103 164
3 227 50 103
3 104 227 21
3 228 227 104
3 228 50 227
3 228 226 50
3 229 226 228
3 229 9 226
3 229 198 9
3 230 198 229
3 230 39 198
3 575 230 576
3 577 576 51
3 575 576 577
3 578 230 579
3 580 39 581
3 582 581 230
3 580 581 582
3 584 583 39
3 106 585 587
3 587 586 52
3 585 586 587
3 589 588 106
3 231 590 591
3 231 592 594
3 592 11 593
3 592 593 594
3 167 107 10
3 232 107 167
3 232 53 107
3 109 232 23
3 233 232 109
3 233 53 232
3 233 231 53
3 234 231 233
3 234 11 231
3 234 182 11
3 235 182 234
3 235 30 182
3 111 235 54
3 236 235 111
3 236 30 235
3 236 82 30
3 237 82 236
3 237 1 82
3 206 77 0
3 238 77 206
3 238 24 77
3 114 238 43
3 239 238 114
3 239 24 238
3 239 170 24
3 240 170 239
3 240 12 170
3 171 115 4
3 241 115 171
3 241 56 115
3 117 241 25
3 242 241 117
3 242 56 241
3 242 240 56
3 243 240 242
3 243 12 240
3 243 112 12
3 244 112 243
3 244 55 112
3 119 244 57
3 245 244 119
3 245 55 244
3 245 237 55
3 246 237 245
3 246 1 237
3 246 215 1
3 247 215 246
3 247 45 215
3 121 247 58
3 248 247 121
3 248 45 247
3 248 95 45
3 595 95 596
3 597 596 248
3 595 596 597
3 599 598 95
3 600 122 601
3 602 601 13
3 600 601 602
3 603 122 604
3 606 605 122
3 607 14 608
3 124 609 610
3 249 611 613
3 613 612 124
3 611 612 613
3 249 614 615
3 249 616 617
3 250 618 620
3 620 619 249
3 618 619 620
3 250 621 623
3 621 14 622
3 621 622 623
3 250 193 14
3 251 193 250
3 251 36 193
3 126 251 59
3 252 251 126
3 252 36 251
3 252 90 36
3 253 90 252
3 253 2 90
3 129 624 625
3 254 626 628
3 628 627 129
3 626 627 628
3 254 629 630
3 254 631 633
3 631 173 632
3 631 632 633
3 255 173 254
3 255 15 173
3 175 130 5
3 256 130 175
3 256 61 130
3 132 256 27
3 257 256 132
3 257 61 256
3 257 255 61
3 258 255 257
3 258 15 255
3 258 127 15
3 259 127 258
3 259 60 127
3 134 259 62
3 260 259 134
3 260 60 259
3 260 253 60
3 261 253 260
3 261 2 253
3 261 222 2
3 262 222 261
3 262 48 222
3 136 262 63
3 263 262 136
3 263 48 262
3 263 101 48
3 264 101 263
3 264 8 101
3 179 137 16
3 265 137 179
3 265 64 137
3 139 265 29
3 266 265 139
3 266 64 265
3 266 264 64
3 267 264 266
3 267 8 264
3 267 163 8
3 268 163 267
3 268 20 163
3 141 268 65
3 269 268 141
3 269 20 268
3 269 634 636
3 636 635 20
3 634 635 636
3 638 637 269
3 640 639 11
3 641 84 642
3 643 642 1
3 641 642 643
3 644 84 645
3 647 646 84
3 270 648 649
3 270 650 651
3 185 142 6
3 271 142 185
3 271 66 142
3 144 271 32
3 272 271 144
3 272 66 271
3 272 270 66
3 273 270 272
3 273 652 654
3 654 653 270
3 652 653 654
3 273 655 656
3 658 657 273
3 660 659 67
3 189 661 663
3 663 662 17
3 661 662 663
3 665 664 189
3 667 666 34
3 274 668 669
3 274 670 671
3 274 672 674
3 672 162 673
3 672 673 674
3 275 162 274
3 275 7 162
3 194 146 14
3 276 146 194
3 276 68 146
3 148 276 37
3 277 276 148
3 277 68 276
3 277 275 68
3 278 275 277
3 278 7 275
3 278 100 7
3 279 100 278
3 279 47 100
3 150 279 69
3 280 279 150
3 280 47 279
3 280 221 47
3 281 221 280
3 281 3 221
3 223 92 2
3 282 92 223
3 282 38 92
3 153 282 49
3 283 282 153
3 283 38 282
3 283 197 38
3 284 197 283
3 284 18 197
3 199 154 9
3 285 154 199
3 285 71 154
3 156 285 40
3 286 285 156
3 286 71 285
3 286 284 71
3 287 284 286
3 287 18 284
3 287 151 18
3 288 151 287
3 288 70 151
3 158 288 72
3 289 288 158
3 289 70 288
3 289 281 70
3 290 281 289
3 290 3 281
3 290 89 3
3 291 89 290
3 291 35 89
3 160 291 73
3 292 291 160
3 292 35 291
3 292 192 35
3 293 192 292
3 293 675 677
3 677 676 192
3 675 676 677
3 203 161 19
3 294 161 203
3 294 74 161
3 678 294 679
3 680 294 681
3 682 74 683
3 684 683 294
3 682 683 684
3 685 293 686
3 687 686 74
3 685 686 687
3 688 293 689
3 691 690 293
