ply
format ascii 1.0
element vertex 297
property float x
property float y
property float z
element face 289
property list uchar int vertex_index
end_header
-49.876518 -90.152222 -5.922316
-52.84655 -83.425293 -13.322186
-44.519089 -102.341888 -6.280317
-47.615685 -95.320602 2.672273
-45.204372 -100.524811 2.368681
-49.6991 -87.15918 6.33637
-47.323154 -96.32222 -5.880501
-45.462242 -99.967056 -10.055141
-48.350227 -93.348907 -9.689226
-53.010132 -84.349411 -6.372038
-51.393353 -86.96434 -9.78533
-55.129444 -81.096375 -10.372124
-56.903885 -77.398956 -14.241854
-40.910721 -107.611206 -6.901716
-43.283192 -104.045288 -2.430103
-46.358521 -98.722382 -1.80233
-48.630455 -92.985443 -1.733433
-48.225975 -92.147049 7.05451
-49.448532 -89.952896 2.345874
-49.371262 -89.920197 -13.074297
-46.796982 -93.210663 -16.375093
-48.573486 -93.217285 -5.843489
-47.824348 -94.898315 -7.831465
-49.168549 -91.70546 -7.806408
-54.902573 -81.634476 -6.703579
-54.086475 -82.764961 -8.398478
-56.107723 -80.01844 -8.770384
-46.542336 -97.963455 2.610084
-45.823917 -99.688858 0.278242
-47.062576 -96.992722 0.443138
-47.545555 -95.878128 -1.698229
-48.112793 -94.222153 0.448888
-49.650322 -88.535294 4.35299
-42.81221 -105.10405 -6.587679
-41.486614 -106.985565 -8.725439
-43.353588 -104.232086 -8.467518
-45.881119 -98.513519 -11.822699
-52.152725 -85.247513 -11.586397
-50.440536 -88.399063 -11.435965
-51.032887 -86.600235 -13.108406
-48.44511 -89.541061 -16.141026
-46.957977 -91.122345 -17.680016
-47.094402 -96.288071 4.928721
-48.886787 -88.192307 8.78968
-46.005699 -99.390366 -6.032263
-45.010887 -101.245804 -8.194599
-46.475204 -98.106216 -7.968508
-46.939354 -96.664551 -9.826029
-47.391869 -95.081818 -11.576647
-53.446156 -81.468414 -15.02496
-51.335533 -87.186447 -6.104923
-50.616859 -88.596893 -7.899054
-52.247051 -85.614624 -8.101744
-53.168716 -83.969574 -10.023726
-54.040558 -82.232468 -11.884289
-56.080727 -79.317551 -12.311308
-54.817009 -80.375046 -13.708483
-55.47686 -78.36676 -15.528709
-42.156029 -105.827499 -4.732964
-43.956535 -103.264664 -4.350519
-44.305344 -102.272339 -0.048926
-44.957893 -101.45845 -2.050457
-45.512276 -100.506149 -4.05024
-46.844139 -97.601273 -3.861996
-48.036713 -94.61525 -3.800287
-49.211121 -91.621689 -3.862329
-48.005749 -93.706955 4.877131
-48.927711 -89.634216 6.742739
-48.811974 -91.108231 4.671189
-48.538292 -92.633621 2.573069
-49.104282 -91.432556 0.316277
-49.745987 -90.111237 -1.887989
-50.49044 -88.689026 -4.031534
-43.823547 -103.168701 -10.3302
-49.804192 -90.097519 -9.672291
-48.877754 -91.688766 -11.437115
-47.808807 -93.3694 -13.205959
-49.800125 -88.031158 -14.618708
-48.164154 -91.526886 -14.719032
-46.564671 -95.131897 -14.981882
-56.533674 -79.510067 -7.927246
-55.505148 -80.826458 -7.736982
-55.931099 -80.318085 -6.893844
-45.243376 -99.474564 -12.814965
-46.06819 -97.706184 -12.645539
-47.015034 -89.985031 -18.31069
-47.808757 -89.25618 -17.596128
-46.141979 -91.938744 -18.445162
-47.015034 -89.985031 -18.31069
-46.806512 -96.719918 6.070898
-46.522611 -97.551918 4.861878
-52.713496 -82.036598 -15.662601
-53.696665 -80.407661 -15.878857
-56.492306 -78.358253 -13.276581
-57.145212 -77.879848 -12.575535
-57.556792 -76.920551 -13.540808
-42.719611 -104.936394 -3.581533
-41.747785 -106.14701 -3.824942
-42.311367 -105.255905 -2.673512
-44.754858 -101.398575 1.159878
-43.921755 -102.631103 0.951296
-44.371269 -101.75734 2.1601
-47.846276 -93.405327 7.139801
-47.941719 -92.615959 8.274944
-48.115862 -92.927002 5.96582
-47.736163 -94.18528 6.051112
-47.846276 -93.405327 7.139801
-50.378559 -88.712746 -2.010576
-49.959297 -89.397179 -0.905183
-50.750785 -88.001641 -3.082349
-50.118213 -89.400132 -2.959761
-50.378559 -88.712746 -2.010576
-51.22852 -87.27726 -4.157745
-50.750785 -88.001641 -3.082349
-40.191624 -108.519851 -7.893775
-39.926887 -108.696717 -7.031376
-40.702509 -107.957909 -9.731943
-41.729174 -106.584182 -9.655678
-49.976223 -87.014915 -15.361715
-50.674771 -86.354805 -14.667808
-45.955174 -95.084099 -16.561961
-45.839018 -96.044716 -15.865355
-46.680826 -94.17128 -15.678487
-57.969456 -75.914444 -14.562997
-57.556792 -76.920551 -13.540808
-58.31164 -74.871979 -15.537871
-57.246069 -76.356491 -15.216727
-57.969456 -75.914444 -14.562997
-42.878605 -104.387817 -1.476589
-42.311367 -105.255905 -2.673512
-48.252653 -91.388275 8.129682
-47.941719 -92.615959 8.274944
-50.142776 -87.28051 4.158749
-49.674711 -87.847237 5.34468
-50.167165 -86.592453 5.15044
-50.062943 -87.931611 3.191644
-50.142776 -87.28051 4.158749
-49.962047 -88.640411 2.188085
-49.549427 -89.244095 3.349432
-50.062943 -87.931611 3.191644
-49.810569 -89.318008 1.211749
-49.962047 -88.640411 2.188085
-42.662661 -105.207443 -9.526718
-41.729174 -106.584182 -9.655678
-42.420101 -105.608825 -8.596478
-45.061481 -100.20726 -11.973766
-44.852043 -100.934028 -11.089987
-45.671681 -99.240287 -10.93892
-45.061481 -100.20726 -11.973766
-45.243376 -99.474564 -12.814965
-48.552324 -88.465538 -16.826633
-49.298716 -87.769867 -16.122874
-47.701543 -90.331703 -16.910521
-48.552324 -88.465538 -16.826633
-47.808757 -89.25618 -17.596128
-46.103004 -93.036721 -17.851416
-46.022507 -94.08088 -17.198954
-46.877479 -92.166504 -17.027555
-45.287007 -93.853119 -18.616562
-46.103004 -93.036721 -17.851416
-46.141979 -91.938744 -18.445162
-44.845758 -100.898399 3.417212
-44.371269 -101.75734 2.1601
-45.577596 -99.670288 3.581858
-44.845758 -100.898399 3.417212
-46.246578 -98.38961 3.70256
-45.873354 -99.244133 2.489383
-45.577596 -99.670288 3.581858
-46.818369 -97.125763 3.769402
-46.246578 -98.38961 3.70256
-46.522611 -97.551918 4.861878
-48.793209 -87.475655 9.803105
-48.53286 -88.665031 10.060609
-48.439281 -87.94838 11.074034
-49.238981 -86.994393 8.54329
-48.793209 -87.475655 9.803105
-49.645138 -86.477829 7.316635
-49.292943 -87.675744 7.563025
-49.238981 -86.994393 8.54329
-50.166643 -85.952691 6.105917
-49.645138 -86.477829 7.316635
-50.167165 -86.592453 5.15044
-50.166643 -85.952691 6.105917
-46.823565 -95.990333 -12.522512
-46.06819 -97.706184 -12.645539
-46.636494 -96.797669 -11.699673
-52.497786 -83.073433 -14.870934
-52.197983 -84.051873 -14.019547
-53.146353 -82.446854 -14.173573
-52.497786 -83.073433 -14.870934
-52.713496 -82.036598 -15.662601
-57.172747 -78.668751 -8.98551
-56.533674 -79.510067 -7.927246
-57.598698 -78.160378 -8.142372
-56.667032 -79.157562 -9.789837
-57.172747 -78.668751 -8.98551
-56.177892 -79.696529 -10.590707
-55.618583 -80.557407 -9.571254
-56.667032 -79.157562 -9.789837
-56.653534 -78.807118 -11.560299
-57.145212 -77.879848 -12.575535
-55.605086 -80.206963 -11.341716
-56.177892 -79.696529 -10.590707
-56.653534 -78.807118 -11.560299
-54.712017 -78.856834 -16.130731
-53.696665 -80.407661 -15.878857
-54.461508 -79.917587 -15.276834
-56.532556 -76.840393 -15.860155
-56.190373 -77.882858 -14.885281
-57.246069 -76.356491 -15.216727
-55.749531 -77.273972 -16.453037
-56.532556 -76.840393 -15.860155
-54.712017 -78.856834 -16.130731
-55.749531 -77.273972 -16.453037
-40.538498 -107.885849 -6.032733
-39.926887 -108.696717 -7.031376
-41.161152 -106.993996 -4.948357
-41.747785 -106.14701 -3.824942
-41.533375 -106.719352 -5.81734
-40.538498 -107.885849 -6.032733
-41.161152 -106.993996 -4.948357
-43.389681 -103.501343 -0.286
-43.921755 -102.631103 0.951296
-43.794268 -103.158814 -1.239514
-42.878605 -104.387817 -1.476589
-43.389681 -103.501343 -0.286
-47.280489 -95.475838 6.076906
-46.806512 -96.719918 6.070898
-47.550076 -94.997513 4.902926
-47.280489 -95.475838 6.076906
-47.736163 -94.18528 6.051112
-48.583059 -89.410904 8.997267
-48.53286 -88.665031 10.060609
-48.603521 -90.131858 7.973796
-48.583059 -89.410904 8.997267
-48.907249 -88.913262 7.76621
-48.576843 -90.890632 6.898625
-48.252653 -91.388275 8.129682
-48.603521 -90.131858 7.973796
-49.638444 -90.057839 0.19695
-49.276407 -90.692726 1.331075
-49.810569 -89.318008 1.211749
-49.425134 -90.771896 -0.785856
-49.638444 -90.057839 0.19695
-49.959297 -89.397179 -0.905183
-51.651066 -86.52597 -5.19444
-50.912987 -87.937736 -5.068229
-51.22852 -87.27726 -4.157745
-52.488366 -85.107452 -5.327998
-52.172832 -85.767929 -6.23848
-51.651066 -86.52597 -5.19444
-53.343796 -83.758522 -5.483849
-52.488366 -85.107452 -5.327998
-54.290017 -82.401055 -5.649619
-53.956352 -82.991944 -6.537809
-53.343796 -83.758522 -5.483849
-55.250915 -81.105457 -5.826371
-54.290017 -82.401055 -5.649619
-55.931099 -80.318085 -6.893844
-55.250915 -81.105457 -5.826371
-40.479571 -108.207031 -8.805636
-40.191624 -108.519851 -7.893775
-41.198667 -107.298385 -7.813578
-40.479571 -108.207031 -8.805636
-40.702509 -107.957909 -9.731943
-42.89764 -104.67575 -10.458058
-42.662661 -105.207443 -9.526718
-43.588567 -103.700393 -9.398859
-44.032696 -102.534851 -11.227517
-44.642894 -101.567879 -10.192671
-44.852043 -100.934028 -11.089987
-43.110929 -104.162293 -11.372729
-44.032696 -102.534851 -11.227517
-42.89764 -104.67575 -10.458058
-43.110929 -104.162293 -11.372729
-47.032033 -95.134124 -13.337169
-46.823565 -95.990333 -12.522512
-47.600338 -94.225609 -12.391303
-51.291151 -85.639343 -13.912657
-51.939718 -85.012764 -13.215296
-52.197983 -84.051873 -14.019547
-50.416506 -87.315697 -13.863557
-51.291151 -85.639343 -13.912657
-50.674771 -86.354805 -14.667808
-49.122618 -88.78611 -15.379867
-49.976223 -87.014915 -15.361715
-49.298716 -87.769867 -16.122874
-46.409965 -96.015373 -14.22513
-47.032033 -95.134124 -13.337169
-47.186739 -94.250648 -14.09392
-45.732418 -96.958519 -15.165973
-45.577713 -97.841995 -14.40922
-46.409965 -96.015373 -14.22513
-45.732418 -96.958519 -15.165973
-45.839018 -96.044716 -15.865355
-45.955174 -95.084099 -16.561961
-46.022507 -94.08088 -17.198954
3 0 23 21
3 80 26 81
3 82 81 24
3 80 81 82
3 3 29 27
3 3 31 29
3 2 35 33
3 84 83 36
3 1 39 37
3 85 41 86
3 88 87 41
3 89 42 90
3 6 46 44
3 8 47 22
3 8 48 47
3 92 91 49
3 9 52 50
3 11 53 25
3 11 54 53
3 12 93 95
3 93 55 94
3 93 94 95
3 12 56 55
3 12 57 56
3 14 96 98
3 96 58 97
3 96 97 98
3 14 59 58
3 4 99 101
3 99 60 100
3 99 100 101
3 15 61 28
3 15 62 61
3 15 63 62
3 16 64 30
3 16 65 64
3 17 102 103
3 17 104 106
3 104 66 105
3 104 105 106
3 5 67 43
3 18 68 32
3 18 69 68
3 18 70 69
3 107 71 108
3 109 72 110
3 111 110 71
3 109 110 111
3 113 112 72
3 13 114 115
3 117 116 34
3 7 73 45
3 10 74 51
3 19 75 38
3 19 76 75
3 118 77 119
3 20 78 40
3 20 79 78
3 20 120 122
3 122 121 79
3 120 121 122
3 21 22 6
3 23 22 21
3 23 8 22
3 24 25 9
3 26 25 24
3 26 11 25
3 123 12 124
3 127 126 12
3 125 126 127
3 128 14 129
3 27 28 4
3 29 28 27
3 29 15 28
3 29 30 15
3 31 30 29
3 31 16 30
3 130 17 131
3 132 32 133
3 134 133 5
3 132 133 134
3 135 32 136
3 137 18 138
3 139 138 32
3 137 138 139
3 141 140 18
3 33 34 13
3 35 34 33
3 35 142 144
3 144 143 34
3 142 143 144
3 36 145 147
3 147 146 7
3 145 146 147
3 149 148 36
3 37 38 10
3 39 38 37
3 39 19 38
3 150 40 151
3 41 152 154
3 152 40 153
3 152 153 154
3 41 20 40
3 41 155 157
3 157 156 20
3 155 156 157
3 160 159 41
3 158 159 160
3 161 4 162
3 163 4 164
3 165 27 166
3 167 166 4
3 165 166 167
3 42 168 170
3 168 27 169
3 168 169 170
3 42 3 27
3 171 43 172
3 171 172 173
3 174 43 175
3 176 5 177
3 178 177 43
3 176 177 178
3 179 5 180
3 182 181 5
3 44 45 2
3 46 45 44
3 46 7 45
3 22 46 6
3 47 46 22
3 47 7 46
3 47 36 7
3 48 36 47
3 48 183 185
3 185 184 36
3 183 184 185
3 49 186 188
3 188 187 1
3 186 187 188
3 190 189 49
3 50 51 0
3 52 51 50
3 52 10 51
3 25 52 9
3 53 52 25
3 53 10 52
3 53 37 10
3 54 37 53
3 54 1 37
3 191 26 192
3 191 192 193
3 194 26 195
3 196 11 197
3 198 197 26
3 196 197 198
3 55 199 200
3 55 201 203
3 201 11 202
3 201 202 203
3 55 54 11
3 56 54 55
3 56 1 54
3 56 49 1
3 57 49 56
3 57 204 206
3 206 205 49
3 204 205 206
3 207 57 208
3 209 208 12
3 207 208 209
3 210 57 211
3 213 212 57
3 214 13 215
3 58 216 217
3 58 218 220
3 218 13 219
3 218 219 220
3 58 33 13
3 59 33 58
3 59 2 33
3 60 221 222
3 60 223 225
3 223 14 224
3 223 224 225
3 28 60 4
3 61 60 28
3 61 14 60
3 61 59 14
3 62 59 61
3 62 2 59
3 62 44 2
3 63 44 62
3 63 6 44
3 30 63 15
3 64 63 30
3 64 6 63
3 64 21 6
3 65 21 64
3 65 0 21
3 226 42 227
3 66 228 230
3 228 42 229
3 228 229 230
3 66 3 42
3 43 231 232
3 67 233 235
3 235 234 43
3 233 234 235
3 67 236 238
3 236 17 237
3 236 237 238
3 32 67 5
3 68 67 32
3 68 17 67
3 68 66 17
3 69 66 68
3 69 3 66
3 69 31 3
3 70 31 69
3 70 16 31
3 239 70 240
3 241 240 18
3 239 240 241
3 71 242 244
3 242 70 243
3 242 243 244
3 71 16 70
3 71 65 16
3 72 65 71
3 72 0 65
3 72 50 0
3 245 50 246
3 247 246 72
3 245 246 247
3 248 9 249
3 250 249 50
3 248 249 250
3 251 9 252
3 253 24 254
3 255 254 9
3 253 254 255
3 256 24 257
3 259 258 24
3 34 260 262
3 262 261 13
3 260 261 262
3 264 263 34
3 45 35 2
3 73 35 45
3 73 265 267
3 267 266 35
3 265 266 267
3 268 73 269
3 270 269 7
3 268 269 270
3 271 73 272
3 274 273 73
3 51 23 0
3 74 23 51
3 74 8 23
3 38 74 10
3 75 74 38
3 75 8 74
3 75 48 8
3 76 48 75
3 76 275 277
3 277 276 48
3 275 276 277
3 278 39 279
3 280 279 1
3 278 279 280
3 77 281 283
3 281 39 282
3 281 282 283
3 77 19 39
3 40 284 286
3 284 77 285
3 284 285 286
3 78 77 40
3 78 19 77
3 78 76 19
3 79 76 78
3 79 287 289
3 289 288 76
3 287 288 289
3 79 290 292
3 290 291 292
3 294 293 79
3 296 295 20
