ply
format ascii 1.0
element vertex 464
property float x
property float y
property float z
element face 484
property list uchar int vertex_index
end_header
57.305038 -53.741222 4.077224
60.066856 -69.387543 3.454607
62.637047 -68.58847 -13.459587
62.736511 -69.50174 -4.964161
59.840019 -61.142136 3.84658
56.2603 -66.742538 12.187141
53.593819 -74.139938 12.166582
49.175743 -82.48053 12.098986
47.101246 -87.881676 22.355679
65.517723 -60.768314 -4.181496
55.316513 -64.813309 16.51963
53.514313 -72.412659 16.999815
51.705704 -76.154152 17.123446
51.23568 -77.991814 12.161824
49.649017 -80.319 17.242012
46.624477 -90.38623 16.559496
60.783699 -65.368225 3.697577
62.770279 -61.400982 -0.136478
63.311356 -65.637604 -0.432985
62.992073 -68.947868 -9.191139
66.256828 -63.97575 -8.770992
66.40583 -62.852291 -13.046158
57.697136 -73.235329 3.177364
61.72897 -69.765411 -0.773264
58.222694 -57.011349 3.959323
58.205032 -64.307419 7.845389
58.074192 -68.332703 7.783916
54.661835 -68.711929 16.852802
55.424728 -70.526665 12.208998
56.546593 -72.065514 7.610638
53.976295 -75.784882 7.454169
51.334396 -79.970055 7.332267
49.423531 -84.910576 7.063951
47.930756 -85.122513 17.149899
47.809769 -87.639832 11.718025
60.661758 -57.203789 0.215954
65.229668 -65.084381 -4.571733
50.667419 -78.162315 17.191591
60.658218 -67.410385 3.587018
62.095085 -65.609192 1.630101
61.778179 -67.661385 1.487493
62.877251 -68.720474 -11.324238
64.799187 -65.987099 -11.128736
64.637566 -65.655708 -13.273928
64.342583 -65.447113 -15.412872
56.363731 -64.732758 12.101545
57.140629 -63.538498 9.908978
57.22892 -65.604065 9.974154
58.299774 -66.359756 7.835892
57.104836 -67.593338 9.98295
54.563908 -67.723343 19.131395
54.135906 -69.62587 19.292347
53.515709 -73.289291 14.577348
54.350494 -71.479904 14.561199
54.620384 -72.333427 12.186087
55.964722 -71.334885 9.893976
54.95575 -73.140739 9.834854
55.337814 -73.897591 7.524544
53.747963 -74.972801 9.787196
50.124344 -80.143166 12.152063
51.214493 -78.965668 9.724075
50.119942 -81.221054 9.671535
50.267555 -82.345322 7.233222
49.231392 -83.668053 9.562346
47.942204 -85.325653 22.523811
48.295307 -83.972092 19.86554
47.500999 -86.500984 19.739792
46.59359 -91.709175 13.665131
47.188454 -89.007645 14.121764
47.256927 -90.362144 11.332678
47.964867 -89.008232 9.038002
59.027916 -59.034187 3.902179
59.338875 -57.210491 2.132464
60.367653 -59.264511 1.983129
64.204803 -61.194176 -2.152285
63.32753 -59.074112 -1.973274
64.774185 -58.648441 -3.982853
62.32703 -69.699219 -2.867985
63.593788 -67.575089 -2.682987
64.21109 -67.273621 -4.771902
67.218163 -61.635082 -8.533081
55.633968 -65.805962 14.374484
53.602234 -71.496635 19.412106
52.67849 -74.254608 17.058083
52.507935 -75.129242 14.600522
52.428867 -76.006096 12.160036
51.406494 -77.057312 14.633668
50.310085 -79.12468 14.66401
49.310532 -81.363533 14.664213
60.476952 -63.269161 3.782195
61.285961 -61.381683 1.865068
61.907791 -63.509041 1.7535
63.300163 -63.52919 -0.280464
64.577667 -63.326958 -2.321295
62.95369 -69.229019 -7.070457
64.611343 -66.861954 -6.873793
64.800262 -66.409004 -8.992966
66.430504 -63.37952 -10.900747
59.047077 -71.315918 3.313047
60.963722 -69.665466 1.330733
59.727673 -71.644531 1.172648
60.289524 -71.820694 -0.941565
60.703228 -71.860306 -3.042093
60.953011 -71.801643 -5.141455
61.040337 -71.6996 -7.249268
60.98217 -71.612869 -9.3696
60.803337 -71.58786 -11.498672
57.601345 -55.173183 4.020857
57.410141 -56.58469 5.664412
57.917248 -58.595699 5.756165
58.535545 -60.696548 5.797466
57.888435 -62.197403 7.804318
59.101112 -62.824078 5.802101
59.455414 -64.927071 5.770986
59.473381 -66.970123 5.703701
59.084721 -68.937759 5.605398
55.018532 -66.791718 16.720428
55.382648 -67.763657 14.481806
54.174511 -70.578156 16.938126
54.971115 -69.649857 14.536643
55.967339 -68.67215 12.216534
56.69175 -69.498566 9.949953
57.483932 -70.226364 7.702845
58.285126 -70.838242 5.488815
57.135117 -72.704742 5.370707
55.747185 -74.591072 5.264881
54.263489 -76.56192 5.175166
52.45882 -76.895248 9.754154
52.599564 -77.791824 7.396065
52.827484 -78.678757 5.091443
51.554218 -80.984924 4.990171
50.504971 -83.494141 4.838979
48.724331 -82.642311 17.241249
48.465332 -83.778183 14.597812
47.253311 -87.722702 16.931297
47.777172 -86.342911 14.427164
48.416969 -84.992798 11.965643
48.538788 -86.280975 9.360888
48.755901 -87.627518 6.79162
58.402161 -55.291794 2.342196
59.474648 -55.221977 0.491182
61.832088 -59.279762 0.018824
62.099747 -56.992023 -1.75325
62.772266 -67.713928 -0.59964
64.371124 -65.455383 -2.497681
65.681168 -62.916607 -4.373777
65.860336 -64.569321 -6.661474
66.568863 -62.333588 -6.443237
66.653557 -60.148705 -6.226215
57.521572 -53.674758 3.369678
57.380035 -52.993871 3.671864
53.972894 -70.078194 20.542191
54.212103 -69.125943 20.445957
47.342894 -87.270748 23.780987
46.881684 -88.548599 23.671374
47.521725 -86.603665 22.439745
47.763373 -85.992737 23.865053
47.342894 -87.270748 23.780987
46.941223 -91.728531 11.06753
46.925258 -91.03566 12.498905
46.609555 -92.402046 12.233757
47.319576 -91.073627 9.955165
46.941223 -91.728531 11.06753
65.812027 -59.392862 -5.093688
65.440258 -58.332926 -4.994366
65.145954 -59.708377 -4.082174
55.561795 -64.297106 15.357725
55.479923 -63.800427 16.376519
55.47524 -65.309635 15.447057
55.720522 -64.793432 14.285152
55.561795 -64.297106 15.357725
52.192097 -75.20438 17.090764
52.387867 -74.756756 18.336236
51.901474 -75.706528 18.368917
67.105133 -61.520067 -12.911023
67.11747 -61.783682 -11.838318
66.418167 -63.115905 -11.973453
67.091388 -61.217186 -13.982761
67.105133 -61.520067 -12.911023
59.445124 -72.874108 -1.018943
59.243475 -72.732013 0.041972
59.651976 -72.893913 -2.069207
60.496376 -71.8405 -1.991829
59.445124 -72.874108 -1.018943
59.985416 -73.009487 -5.224752
59.91589 -72.953937 -4.172116
60.02908 -72.958466 -6.278659
60.996674 -71.750621 -6.195361
59.985416 -73.009487 -5.224752
59.944817 -73.020359 -9.459311
60.0019 -72.961167 -8.395999
59.8554 -73.007855 -10.523846
60.892753 -71.600365 -10.434136
59.944817 -73.020359 -9.459311
57.202099 -56.256946 6.461897
57.281845 -55.655496 5.568004
57.70117 -59.331692 6.730894
57.529904 -58.280157 6.64557
58.010318 -60.382116 6.751544
58.226396 -59.646124 5.776815
57.70117 -59.331692 6.730894
49.547811 -85.548542 5.833768
50.088532 -84.840325 4.721283
49.964251 -84.202359 5.951465
46.938894 -89.054466 16.745396
47.017482 -88.419269 18.198154
46.703066 -89.751034 18.012253
48.456101 -89.031948 6.592216
48.360384 -88.317875 7.914811
48.060583 -89.722305 7.715407
48.867462 -88.320438 5.523431
48.456101 -89.031948 6.592216
60.698349 -56.091522 -0.61887
60.104794 -55.100617 -0.481256
60.068203 -56.212883 0.353568
62.835892 -56.781633 -2.751534
62.713639 -58.033068 -1.863262
63.449784 -57.822677 -2.861547
62.104294 -55.773008 -2.598593
62.835892 -56.781633 -2.751534
67.071033 -60.857573 -7.366324
66.893513 -61.984335 -7.488159
67.395684 -60.508319 -8.411245
67.113381 -59.765131 -7.257812
66.61121 -61.241146 -6.334726
67.071033 -60.857573 -7.366324
66.962807 -58.681548 -7.134152
67.113381 -59.765131 -7.257812
55.346668 -64.305014 17.559152
55.479923 -63.800427 16.376519
51.43095 -76.694416 18.421121
51.901474 -75.706528 18.368917
50.911808 -77.698498 18.455194
51.186561 -77.158233 17.157519
51.43095 -76.694416 18.421121
50.415224 -78.74651 18.503535
50.911808 -77.698498 18.455194
49.906023 -79.824852 18.528745
50.158218 -79.240657 17.216801
50.415224 -78.74651 18.503535
65.424664 -64.050808 -14.234903
66.308796 -62.6491 -14.121018
65.521698 -64.254 -13.160043
65.277172 -63.946511 -15.304374
65.424664 -64.050808 -14.234903
64.490075 -65.551411 -14.3434
65.107369 -63.813869 -16.37127
65.277172 -63.946511 -15.304374
57.947281 -73.439331 2.101436
56.926521 -74.219421 3.11711
56.75218 -64.135628 11.005261
56.757109 -63.09786 10.926609
56.36866 -63.694991 12.022893
54.426104 -68.174679 20.365481
54.651583 -67.211472 20.239749
54.349907 -68.674607 19.211871
54.426104 -68.174679 20.365481
54.212103 -69.125943 20.445957
48.245602 -84.747093 23.894005
47.763373 -85.992737 23.865053
48.397184 -84.09814 22.539182
48.245602 -84.747093 23.894005
48.118755 -84.648873 21.194675
48.573736 -83.42136 21.210047
48.397184 -84.09814 22.539182
47.673546 -90.396671 8.807828
47.610897 -89.685188 10.18534
47.319576 -91.073627 9.955165
48.060583 -89.722305 7.715407
47.673546 -90.396671 8.807828
64.173111 -57.609842 -3.866336
63.449784 -57.822677 -2.861547
64.050858 -58.861277 -2.978064
64.891639 -57.296886 -4.87132
64.173111 -57.609842 -3.866336
64.891639 -57.296886 -4.87132
65.440258 -58.332926 -4.994366
67.421978 -61.264633 -9.588886
66.737495 -62.805416 -8.652036
66.941311 -62.434967 -9.707842
67.736687 -60.083258 -9.452821
67.421978 -61.264633 -9.588886
67.395684 -60.508319 -8.411245
67.736687 -60.083258 -9.452821
56.085403 -64.256831 13.148682
56.36866 -63.694991 12.022893
55.99885 -65.26936 13.238015
56.085403 -64.256831 13.148682
55.720522 -64.793432 14.285152
53.422695 -71.961613 20.680418
53.706058 -71.013576 20.60207
53.263039 -72.428993 19.462926
53.422695 -71.961613 20.680418
53.219078 -72.887005 18.256781
53.558273 -71.954647 18.205961
53.263039 -72.428993 19.462926
52.801166 -73.80798 18.285915
52.387867 -74.756756 18.336236
53.096401 -73.333634 17.028949
53.219078 -72.887005 18.256781
52.801166 -73.80798 18.285915
46.700529 -89.183377 22.186355
46.881684 -88.548599 23.671374
46.94145 -88.498756 20.910345
46.700529 -89.183377 22.186355
46.346319 -91.07058 17.789669
46.703066 -89.751034 18.012253
46.282449 -91.717258 16.292334
46.346319 -91.07058 17.789669
46.267006 -92.378731 14.845152
46.609033 -91.047702 15.112313
46.282449 -91.717258 16.292334
46.229662 -93.047089 13.362188
46.267006 -92.378731 14.845152
46.609555 -92.402046 12.233757
46.229662 -93.047089 13.362188
67.028149 -62.136852 -10.772719
66.941311 -62.434967 -9.707842
66.343666 -63.677635 -9.83587
67.028149 -62.136852 -10.772719
67.11747 -61.783682 -11.838318
67.091388 -61.217186 -13.982761
66.308796 -62.6491 -14.121018
58.96255 -72.643932 1.099078
58.712405 -72.43993 2.175006
57.947281 -73.439331 2.101436
60.008599 -71.732613 0.115541
58.96255 -72.643932 1.099078
59.243475 -72.732013 0.041972
59.790999 -72.983269 -3.122434
59.651976 -72.893913 -2.069207
60.828119 -71.830974 -4.091774
59.790999 -72.983269 -3.122434
59.91589 -72.953937 -4.172116
60.030983 -73.004532 -7.335833
60.02908 -72.958466 -6.278659
61.011254 -71.656235 -8.309434
60.030983 -73.004532 -7.335833
60.0019 -72.961167 -8.395999
57.377447 -54.949743 4.746227
57.453192 -54.457203 4.049041
57.229293 -54.233762 4.774411
57.505743 -55.878937 4.842634
57.377447 -54.949743 4.746227
57.281845 -55.655496 5.568004
57.27635 -57.274653 6.599693
57.202099 -56.256946 6.461897
57.663695 -57.590195 5.710288
57.27635 -57.274653 6.599693
57.529904 -58.280157 6.64557
57.047214 -62.480482 9.842417
56.757109 -63.09786 10.926609
57.421118 -61.809934 8.790087
57.047214 -62.480482 9.842417
57.514532 -62.86795 8.856648
57.686763 -61.132543 7.754971
57.421118 -61.809934 8.790087
58.21199 -61.446976 6.800892
58.010318 -60.382116 6.751544
57.686763 -61.132543 7.754971
55.13398 -65.296132 17.713014
55.346668 -64.305014 17.559152
54.757677 -66.751148 19.018897
54.651583 -67.211472 20.239749
54.984989 -66.285336 17.813413
54.757677 -66.751148 19.018897
54.79122 -67.257531 17.925911
55.167523 -65.802514 16.620029
55.13398 -65.296132 17.713014
54.984989 -66.285336 17.813413
53.86907 -70.561252 19.352227
53.972894 -70.078194 20.542191
53.706058 -71.013576 20.60207
55.951546 -74.897293 4.160868
56.926521 -74.219421 3.11711
56.722161 -73.9132 4.221122
55.209698 -75.882717 4.116011
55.951546 -74.897293 4.160868
55.005337 -75.576496 5.220023
54.419849 -76.923374 4.062007
55.209698 -75.882717 4.116011
53.701847 -77.981793 4.020145
54.419849 -76.923374 4.062007
53.545486 -77.620339 5.133304
52.96164 -79.107048 3.964012
53.701847 -77.981793 4.020145
52.325007 -80.260131 3.913377
52.96164 -79.107048 3.964012
52.190851 -79.83184 5.040807
51.682378 -81.486702 3.840974
52.325007 -80.260131 3.913377
51.157755 -82.74131 3.765378
51.682378 -81.486702 3.840974
51.029595 -82.239532 4.914575
50.62982 -84.069893 3.659783
51.157755 -82.74131 3.765378
50.62982 -84.069893 3.659783
50.088532 -84.840325 4.721283
49.419521 -80.946911 18.559565
49.906023 -79.824852 18.528745
48.742666 -82.773457 19.87133
48.573736 -83.42136 21.210047
48.957178 -82.108566 18.559184
48.742666 -82.773457 19.87133
48.509819 -83.307202 18.553394
49.186674 -81.480656 17.24163
49.419521 -80.946911 18.559565
48.957178 -82.108566 18.559184
47.141327 -87.808411 19.602401
47.301123 -87.19133 21.047736
46.94145 -88.498756 20.910345
47.377155 -87.111843 18.335545
47.141327 -87.808411 19.602401
47.017482 -88.419269 18.198154
49.213997 -86.907013 5.697603
49.547811 -85.548542 5.833768
49.089716 -86.269047 6.927786
49.213997 -86.907013 5.697603
48.867462 -88.320438 5.523431
57.229293 -54.233762 4.774411
57.270054 -53.348236 4.536698
57.270054 -53.348236 4.536698
57.380035 -52.993871 3.671864
57.669725 -54.390739 3.341495
57.521572 -53.674758 3.369678
57.453192 -54.457203 4.049041
58.070133 -54.450045 2.502164
57.669725 -54.390739 3.341495
58.001753 -55.232489 3.181527
58.445542 -54.342245 1.614493
58.070133 -54.450045 2.502164
58.981785 -54.307337 0.688986
58.445542 -54.342245 1.614493
58.938405 -55.256886 1.416689
59.473961 -54.147061 -0.272339
58.981785 -54.307337 0.688986
59.473961 -54.147061 -0.272339
60.104794 -55.100617 -0.481256
61.417344 -55.98564 -1.603473
60.698349 -56.091522 -0.61887
61.380752 -57.097906 -0.768648
61.417344 -55.98564 -1.603473
62.104294 -55.773008 -2.598593
66.379944 -59.083057 -6.116048
65.812027 -59.392862 -5.093688
66.08564 -60.458509 -5.203855
66.379944 -59.083057 -6.116048
66.962807 -58.681548 -7.134152
59.749752 -73.093773 -11.589992
59.8554 -73.007855 -10.523846
60.664299 -71.616615 -12.560636
59.749752 -73.093773 -11.589992
61.581154 -70.11692 -13.541093
61.720192 -70.088165 -12.479129
60.664299 -71.616615 -12.560636
62.463852 -68.575317 -14.518193
61.581154 -70.11692 -13.541093
63.31662 -67.004638 -15.494836
63.489815 -67.017792 -14.436229
62.463852 -68.575317 -14.518193
64.136181 -65.402981 -16.466216
63.31662 -67.004638 -15.494836
65.107369 -63.813869 -16.37127
64.136181 -65.402981 -16.466216
3 0 149 150
3 1 40 38
3 2 43 41
3 2 44 43
3 5 47 45
3 5 49 47
3 151 51 152
3 6 54 52
3 6 56 54
3 6 58 56
3 7 61 59
3 7 63 61
3 8 153 154
3 8 155 157
3 155 64 156
3 155 156 157
3 8 66 64
3 158 69 159
3 160 159 67
3 158 159 160
3 162 161 69
3 4 73 71
3 9 76 74
3 9 163 165
3 165 164 76
3 163 164 165
3 3 79 77
3 10 166 167
3 10 168 170
3 168 81 169
3 168 169 170
3 12 171 173
3 171 83 172
3 171 172 173
3 12 84 83
3 12 86 84
3 14 87 37
3 14 88 87
3 16 91 89
3 18 92 39
3 18 93 92
3 19 96 94
3 21 97 42
3 21 174 176
3 176 175 97
3 174 175 176
3 21 177 178
3 22 100 98
3 179 101 180
3 181 102 182
3 183 182 101
3 181 182 183
3 184 103 185
3 186 104 187
3 188 187 103
3 186 187 188
3 189 105 190
3 191 106 192
3 193 192 105
3 191 192 193
3 194 108 195
3 196 109 197
3 198 110 199
3 200 199 109
3 198 199 200
3 25 111 46
3 25 112 111
3 25 113 112
3 26 114 48
3 26 115 114
3 27 116 50
3 27 117 116
3 11 118 82
3 28 119 53
3 28 120 119
3 28 121 120
3 29 122 55
3 29 123 122
3 29 124 123
3 30 125 57
3 30 126 125
3 13 127 85
3 31 128 60
3 31 129 128
3 31 130 129
3 32 131 62
3 32 201 203
3 203 202 131
3 201 202 203
3 33 132 65
3 33 133 132
3 15 204 206
3 204 134 205
3 204 205 206
3 34 135 68
3 34 136 135
3 34 137 136
3 207 138 208
3 209 208 70
3 207 208 209
3 211 210 138
3 24 139 107
3 35 140 72
3 35 212 214
3 214 213 140
3 212 213 214
3 17 141 90
3 215 142 216
3 217 216 75
3 215 216 217
3 219 218 142
3 23 143 99
3 36 144 78
3 36 145 144
3 20 146 95
3 220 147 221
3 222 221 80
3 220 221 222
3 223 148 224
3 225 224 147
3 223 224 225
3 227 226 148
3 228 10 229
3 230 12 231
3 232 37 233
3 234 233 12
3 232 233 234
3 235 37 236
3 237 14 238
3 239 238 37
3 237 238 239
3 38 39 16
3 40 39 38
3 40 18 39
3 41 42 19
3 43 42 41
3 43 21 42
3 43 240 242
3 242 241 21
3 240 241 242
3 44 243 245
3 245 244 43
3 243 244 245
3 44 246 247
3 249 248 22
3 45 250 252
3 250 46 251
3 250 251 252
3 47 46 45
3 47 25 46
3 47 48 25
3 49 48 47
3 49 26 48
3 253 50 254
3 51 255 257
3 255 50 256
3 255 256 257
3 51 27 50
3 52 53 11
3 54 53 52
3 54 28 53
3 54 55 28
3 56 55 54
3 56 29 55
3 56 57 29
3 58 57 56
3 58 30 57
3 59 60 13
3 61 60 59
3 61 31 60
3 61 62 31
3 63 62 61
3 63 32 62
3 64 258 259
3 64 260 261
3 64 262 264
3 262 65 263
3 262 263 264
3 66 65 64
3 66 33 65
3 67 68 15
3 69 68 67
3 69 34 68
3 69 70 34
3 265 70 266
3 267 266 69
3 265 266 267
3 269 268 70
3 71 72 24
3 73 72 71
3 73 35 72
3 74 75 17
3 76 75 74
3 76 270 272
3 272 271 75
3 270 271 272
3 76 273 274
3 276 275 76
3 77 78 23
3 79 78 77
3 79 36 78
3 277 80 278
3 279 278 20
3 277 278 279
3 280 80 281
3 283 282 80
3 284 45 285
3 81 286 288
3 286 45 287
3 286 287 288
3 81 5 45
3 289 82 290
3 291 82 292
3 293 11 294
3 295 294 82
3 293 294 295
3 83 296 297
3 83 298 300
3 298 11 299
3 298 299 300
3 83 52 11
3 84 52 83
3 84 6 52
3 84 85 6
3 86 85 84
3 86 13 85
3 37 86 12
3 87 86 37
3 87 13 86
3 87 59 13
3 88 59 87
3 88 7 59
3 301 8 302
3 304 303 8
3 305 15 306
3 307 15 308
3 309 67 310
3 311 310 15
3 309 310 311
3 312 67 313
3 315 314 67
3 89 90 4
3 91 90 89
3 91 17 90
3 39 91 16
3 92 91 39
3 92 17 91
3 92 74 17
3 93 74 92
3 93 9 74
3 94 95 3
3 96 95 94
3 96 20 95
3 42 96 19
3 97 96 42
3 97 20 96
3 97 316 318
3 318 317 20
3 316 317 318
3 320 319 97
3 322 321 21
3 98 99 1
3 100 99 98
3 100 23 99
3 323 100 324
3 325 324 22
3 323 324 325
3 101 326 328
3 326 100 327
3 326 327 328
3 101 23 100
3 101 77 23
3 102 77 101
3 102 3 77
3 329 102 330
3 103 331 333
3 331 102 332
3 331 332 333
3 103 3 102
3 103 94 3
3 104 94 103
3 104 19 94
3 334 104 335
3 105 336 338
3 336 104 337
3 336 337 338
3 105 19 104
3 105 41 19
3 106 41 105
3 106 2 41
3 339 107 340
3 341 340 0
3 339 340 341
3 108 342 344
3 342 107 343
3 342 343 344
3 108 24 107
3 345 108 346
3 109 347 349
3 347 108 348
3 347 348 349
3 109 24 108
3 109 71 24
3 110 71 109
3 110 4 71
3 46 350 351
3 111 352 354
3 354 353 46
3 352 353 354
3 111 355 356
3 111 357 359
3 357 110 358
3 357 358 359
3 112 110 111
3 112 4 110
3 112 89 4
3 113 89 112
3 113 16 89
3 48 113 25
3 114 113 48
3 114 16 113
3 114 38 16
3 115 38 114
3 115 1 38
3 360 10 361
3 50 362 363
3 116 364 366
3 366 365 50
3 364 365 366
3 116 367 369
3 367 10 368
3 367 368 369
3 116 81 10
3 117 81 116
3 117 5 81
3 82 370 372
3 370 51 371
3 370 371 372
3 118 51 82
3 118 27 51
3 53 118 11
3 119 118 53
3 119 27 118
3 119 117 27
3 120 117 119
3 120 5 117
3 120 49 5
3 121 49 120
3 121 26 49
3 55 121 28
3 122 121 55
3 122 26 121
3 122 115 26
3 123 115 122
3 123 1 115
3 123 98 1
3 124 98 123
3 124 22 98
3 57 124 29
3 125 124 57
3 125 22 124
3 125 373 375
3 375 374 22
3 373 374 375
3 126 376 378
3 378 377 125
3 376 377 378
3 126 379 380
3 85 58 6
3 127 58 85
3 127 30 58
3 60 127 13
3 128 127 60
3 128 30 127
3 128 126 30
3 129 126 128
3 129 381 383
3 383 382 126
3 381 382 383
3 129 384 385
3 130 386 388
3 388 387 129
3 386 387 388
3 130 389 390
3 62 130 31
3 131 130 62
3 131 391 393
3 393 392 130
3 391 392 393
3 131 394 395
3 397 396 131
3 398 14 399
3 65 400 401
3 132 402 404
3 404 403 65
3 402 403 404
3 132 405 407
3 405 14 406
3 405 406 407
3 132 88 14
3 133 88 132
3 133 7 88
3 408 66 409
3 410 409 8
3 408 409 410
3 134 411 413
3 411 66 412
3 411 412 413
3 134 33 66
3 68 134 15
3 135 134 68
3 135 33 134
3 135 133 33
3 136 133 135
3 136 7 133
3 136 63 7
3 137 63 136
3 137 32 63
3 70 137 34
3 138 137 70
3 138 32 137
3 138 414 416
3 416 415 32
3 414 415 416
3 418 417 138
3 419 0 420
3 421 0 422
3 107 423 425
3 425 424 0
3 423 424 425
3 139 426 428
3 428 427 107
3 426 427 428
3 139 429 430
3 72 139 24
3 140 139 72
3 140 431 433
3 433 432 139
3 431 432 433
3 140 434 435
3 437 436 140
3 90 73 4
3 141 73 90
3 141 35 73
3 75 141 17
3 142 141 75
3 142 35 141
3 142 438 440
3 440 439 35
3 438 439 440
3 442 441 142
3 99 40 1
3 143 40 99
3 143 18 40
3 78 143 23
3 144 143 78
3 144 18 143
3 144 93 18
3 145 93 144
3 145 9 93
3 95 79 3
3 146 79 95
3 146 36 79
3 80 146 20
3 147 146 80
3 147 36 146
3 147 145 36
3 148 145 147
3 148 9 145
3 148 443 445
3 445 444 9
3 443 444 445
3 447 446 148
3 448 106 449
3 450 106 451
3 452 2 453
3 454 453 106
3 452 453 454
3 455 2 456
3 457 44 458
3 459 458 2
3 457 458 459
3 460 44 461
3 463 462 44
