ply
format ascii 1.0
element vertex 313
property float x
property float y
property float z
element face 304
property list uchar int vertex_index
end_header
5.996883 -7.704256 36.095192
-0.439129 -19.309406 48.04501
-1.569988 3.796032 53.395233
0.914143 -3.13341 47.662567
4.003414 4.672237 40.996742
3.757061 -12.830784 42.970955
0.412281 -11.32775 47.923992
2.531281 -7.64751 45.329384
2.012445 -15.999638 45.766693
3.21386 -21.142952 43.495796
6.383949 1.464207 34.700439
-0.554199 8.468779 49.897785
0.972567 5.078697 47.032784
-0.633293 0.69113 50.271179
-1.121382 -7.159113 50.318264
-1.979652 -14.955071 50.175922
5.16753 7.958075 37.017982
5.184155 -1.042374 38.643288
2.672729 0.894779 44.572884
4.04377 -4.138992 42.207451
4.910667 -10.009625 39.705956
-3.06027 -22.583088 50.145615
0.020735 -15.355077 47.982456
1.238115 -13.603702 46.837448
0.855446 -17.648905 46.959763
1.642076 -20.037386 45.945129
0.412491 -21.599108 47.094185
6.224342 -3.130676 35.475697
-1.097269 6.129011 51.699238
-0.544468 4.597364 50.126881
-1.204845 2.337677 51.759895
-1.510807 -11.071278 50.254917
-2.525454 -12.900584 51.437557
3.844372 9.033394 40.192451
4.427235 10.787756 38.131676
4.58329 6.38936 39.053478
5.217308 3.471586 37.906189
4.64946 1.94058 39.833641
1.000771 0.984112 47.40078
1.838131 3.090988 45.772263
1.849623 -1.104189 46.180962
3.210697 -10.157142 44.169941
3.359829 -5.856304 43.832138
3.936943 -8.517729 42.63385
4.537235 -6.972989 40.983353
4.377815 -11.364208 41.386436
3.596458 -23.895987 42.23164
-4.156218 -24.15538 51.323532
3.243172 7.146835 42.159645
0.715033 -7.246156 47.828972
1.748606 -5.305266 46.480881
1.541058 -9.481236 46.689949
2.313576 -11.862181 45.572922
2.981262 -14.384893 44.437149
3.513405 -17.047089 43.248566
2.682121 -18.512424 44.66563
2.32373 -22.520571 44.884933
0.834517 9.124304 46.560074
0.149456 6.867369 48.395451
0.177458 2.883316 48.703724
0.095549 -1.133984 48.914165
-0.09808 -5.161703 49.031197
-0.398054 -9.177349 49.072033
-0.792294 -13.160398 49.066669
-1.262051 -17.093056 49.054893
5.71706 -12.219305 36.577747
5.78833 9.360037 34.888523
5.815704 4.843996 35.884842
5.758015 0.291698 36.721985
5.625263 -4.263795 37.40332
1.714149 7.249504 45.249672
2.58387 5.155781 44.023293
3.381535 2.830967 42.840836
2.653809 -3.384295 45.004051
3.419182 -1.515099 43.395607
4.068424 0.269915 41.666943
4.63121 -2.525732 40.472992
5.077934 -5.548539 39.237118
5.430576 -8.785883 37.942944
3.901299 -19.848764 41.98381
-3.343193 -14.636349 52.684776
-3.042198 -16.688305 51.322914
-2.505894 -18.7966 50.124306
-1.782038 -20.960657 49.080658
-0.941908 -23.176994 48.151501
6.316006 -7.236286 35.120601
6.429735 -4.949496 34.810854
6.110613 -5.417466 35.785444
-2.689896 -11.917095 52.138803
-2.297911 -10.99764 51.5037
3.960088 -14.24808 42.340593
4.270466 -13.514792 41.548334
4.067438 -12.097496 42.178696
-4.561866 -24.90401 52.004372
-4.292622 -23.084477 51.943945
2.815796 8.256903 42.757191
3.124194 9.274184 41.757354
1.770854 -23.240674 45.51185
1.982903 -21.278979 45.415031
1.430027 -21.999082 46.041948
2.119425 -24.460254 45.000808
1.770854 -23.240674 45.51185
6.721838 1.966649 33.631493
6.423561 3.754767 34.230381
-0.202371 7.668074 49.146618
0.085478 8.832694 48.195257
-0.26635 9.633399 48.946424
-0.973773 -5.196148 50.324803
-1.407253 -6.220317 51.000782
-0.609731 -6.160408 49.67473
-0.462122 -4.197444 49.681269
-0.973773 -5.196148 50.324803
5.840721 -14.020962 35.854154
5.55938 -14.429627 36.763317
5.098107 10.172462 36.49978
4.727959 11.587303 37.056628
4.797382 9.372915 37.574829
5.47793 8.659056 35.953253
5.408506 10.873444 35.435051
5.098107 10.172462 36.49978
5.049656 -11.623608 39.034889
5.30961 -11.011737 38.153383
5.170622 -9.397754 38.82445
3.876205 -23.343341 41.431296
3.71792 -25.33667 41.546568
-3.609862 -16.485938 52.631633
-3.612589 -15.442548 53.369991
-3.459364 -17.511916 51.950702
-3.192696 -15.662327 52.003845
-3.609862 -16.485938 52.631633
-2.783082 -20.689844 50.13496
-3.051158 -19.620571 50.6971
-3.328346 -21.513815 50.707755
-1.200322 -25.063104 48.242941
-1.631611 -23.964388 48.668352
-0.505282 -24.310214 47.711985
-1.200322 -25.063104 48.242941
0.815234 -22.779943 46.616476
1.430027 -21.999082 46.041948
1.027284 -20.818247 46.519657
6.554922 -2.642376 34.456301
6.634726 -0.344934 34.068672
6.304146 -0.833234 35.088068
6.554922 -2.642376 34.456301
6.429735 -4.949496 34.810854
-1.595875 -8.126905 50.944053
-1.407253 -6.220317 51.000782
-1.790587 -10.082987 50.91238
-1.316095 -9.115195 50.286591
-1.595875 -8.126905 50.944053
-2.01813 -11.985931 50.846237
-1.790587 -10.082987 50.91238
-2.297911 -10.99764 51.5037
4.135803 9.910575 39.162064
4.009367 12.056107 38.695877
3.717936 11.178926 39.726264
4.536302 -12.876949 40.731062
4.802729 -12.199658 39.890822
4.644241 -10.686916 40.546196
4.536302 -12.876949 40.731062
4.270466 -13.514792 41.548334
3.22989 -24.500289 42.9835
3.405159 -22.519469 42.863718
3.038591 -23.123772 43.615578
3.421679 -25.848197 42.350153
3.22989 -24.500289 42.9835
3.71792 -25.33667 41.546568
3.421679 -25.848197 42.350153
-3.87632 -22.299961 51.296713
-4.292622 -23.084477 51.943945
-3.608244 -23.369234 50.734573
-3.328346 -21.513815 50.707755
-3.87632 -22.299961 51.296713
-1.675354 1.95635 53.348196
-1.752858 2.645629 54.185402
3.424793 10.217464 40.773758
3.717936 11.178926 39.726264
3.543772 8.090115 41.176048
3.424793 10.217464 40.773758
3.124194 9.274184 41.757354
2.593526 -23.812581 44.310146
3.038591 -23.123772 43.615578
2.768795 -21.831761 44.190365
2.593526 -23.812581 44.310146
2.119425 -24.460254 45.000808
6.721838 1.966649 33.631493
6.634726 -0.344934 34.068672
0.428008 9.961161 47.277569
0.717224 11.112409 46.276584
0.491986 7.995837 47.477762
0.428008 9.961161 47.277569
0.085478 8.832694 48.195257
-1.492783 1.227173 52.530527
-1.387417 3.066854 52.577564
-1.675354 1.95635 53.348196
-1.304018 0.434525 51.755939
-1.492783 1.227173 52.530527
-1.018242 -0.388748 51.011581
-0.919069 1.514403 51.015537
-1.304018 0.434525 51.755939
-0.729729 -1.271027 50.30126
-1.018242 -0.388748 51.011581
-0.365308 -2.183584 49.622753
-0.268872 -0.221427 49.592672
-0.729729 -1.271027 50.30126
-0.001266 -3.147844 48.972681
-0.365308 -2.183584 49.622753
-0.462122 -4.197444 49.681269
6.019751 -11.778126 35.640564
6.159662 -9.520602 35.399287
5.856972 -9.96178 36.336469
6.019751 -11.778126 35.640564
5.840721 -14.020962 35.854154
4.30386 12.948728 37.604374
4.009367 12.056107 38.695877
4.30386 12.948728 37.604374
4.727959 11.587303 37.056628
5.729288 11.5864 34.314195
5.408506 10.873444 35.435051
6.120924 9.97128 33.772669
5.729288 11.5864 34.314195
6.125751 7.702682 34.324423
6.120924 9.97128 33.772669
6.139439 5.444662 34.822582
6.125751 7.702682 34.324423
5.802017 7.102016 35.386682
6.099827 3.154101 35.292641
6.423561 3.754767 34.230381
6.139439 5.444662 34.822582
1.159634 10.234451 45.589683
0.717224 11.112409 46.276584
1.59945 9.297051 44.934483
1.159634 10.234451 45.589683
1.274333 8.186904 45.904873
2.051284 8.308238 44.302204
1.59945 9.297051 44.934483
2.486145 7.261377 43.689014
2.051284 8.308238 44.302204
2.14901 6.202642 44.636482
2.913521 6.151308 43.091469
2.815796 8.256903 42.757191
2.486145 7.261377 43.689014
5.452852 -12.728448 37.470785
5.573818 -10.502594 37.260345
5.30961 -11.011737 38.153383
5.55938 -14.429627 36.763317
5.452852 -12.728448 37.470785
5.049656 -11.623608 39.034889
4.802729 -12.199658 39.890822
3.83826 -16.356233 42.479399
3.960088 -14.24808 42.340593
3.635233 -14.938937 43.10976
4.032208 -17.75707 41.847021
3.83826 -16.356233 42.479399
3.707352 -18.447927 42.616188
4.171169 -19.253205 41.179519
4.032208 -17.75707 41.847021
4.028626 -21.31973 41.307381
3.748879 -21.872376 42.107725
3.876205 -23.343341 41.431296
4.171169 -19.253205 41.179519
4.028626 -21.31973 41.307381
-0.601326 10.380039 49.743997
-0.26635 9.633399 48.946424
-0.313476 11.544659 48.792637
-0.813505 9.181583 50.733232
-0.601326 10.380039 49.743997
-1.08504 8.011699 51.633959
-0.825734 7.298895 50.798512
-0.813505 9.181583 50.733232
-1.265691 6.803517 52.569107
-1.08504 8.011699 51.633959
-1.50205 5.637028 53.417104
-1.333629 4.962522 52.547235
-1.265691 6.803517 52.569107
-1.63807 4.423435 54.289057
-1.50205 5.637028 53.417104
-1.752858 2.645629 54.185402
-1.63807 4.423435 54.289057
-3.368133 -13.636591 53.434406
-3.612589 -15.442548 53.369991
-3.098765 -12.784977 52.762413
-3.368133 -13.636591 53.434406
-2.934323 -13.768466 52.061166
-2.689896 -11.917095 52.138803
-3.098765 -12.784977 52.762413
-3.31931 -18.566423 51.296404
-3.459364 -17.511916 51.950702
-2.774046 -17.742452 50.72361
-3.31931 -18.566423 51.296404
-3.051158 -19.620571 50.6971
-4.420103 -25.981292 51.422844
-4.561866 -24.90401 52.004372
-3.881909 -25.22926 50.802078
-4.420103 -25.981292 51.422844
-3.333935 -24.443114 50.21312
-3.608244 -23.369234 50.734573
-3.881909 -25.22926 50.802078
-2.690792 -23.667435 49.665409
-3.333935 -24.443114 50.21312
-2.051676 -22.85622 49.132931
-2.421154 -21.771873 49.613136
-2.690792 -23.667435 49.665409
-1.361973 -22.068826 48.616079
-2.051676 -22.85622 49.132931
-1.631611 -23.964388 48.668352
0.171917 -23.521271 47.183327
-0.264709 -22.388051 47.622843
-0.505282 -24.310214 47.711985
0.815234 -22.779943 46.616476
0.171917 -23.521271 47.183327
6.316006 -7.236286 35.120601
6.159662 -9.520602 35.399287
3 1 24 22
3 1 26 24
3 0 85 87
3 87 86 27
3 85 86 87
3 2 30 28
3 88 32 89
3 4 35 33
3 4 37 35
3 3 40 38
3 5 43 41
3 5 45 43
3 5 90 92
3 92 91 45
3 90 91 92
3 93 47 94
3 95 48 96
3 6 51 49
3 8 52 23
3 8 53 52
3 8 55 53
3 97 56 98
3 99 98 25
3 97 98 99
3 101 100 56
3 10 102 103
3 11 104 106
3 104 58 105
3 104 105 106
3 13 59 29
3 13 60 59
3 14 107 108
3 14 109 111
3 109 61 110
3 109 110 111
3 14 62 61
3 15 63 31
3 15 64 63
3 113 112 65
3 16 114 116
3 116 115 34
3 114 115 116
3 16 117 119
3 117 66 118
3 117 118 119
3 16 67 66
3 17 68 36
3 17 69 68
3 12 70 57
3 18 71 39
3 18 72 71
3 7 73 50
3 19 74 42
3 19 75 74
3 19 76 75
3 20 77 44
3 20 78 77
3 20 120 122
3 122 121 78
3 120 121 122
3 9 79 54
3 124 123 46
3 125 80 126
3 127 81 128
3 129 128 80
3 127 128 129
3 21 130 132
3 130 82 131
3 130 131 132
3 21 83 82
3 133 84 134
3 136 135 84
3 22 23 6
3 24 23 22
3 24 8 23
3 24 25 8
3 26 25 24
3 26 137 139
3 139 138 25
3 137 138 139
3 27 140 142
3 142 141 10
3 140 141 142
3 144 143 27
3 28 29 11
3 30 29 28
3 30 13 29
3 145 14 146
3 147 31 148
3 149 148 14
3 147 148 149
3 32 150 152
3 150 31 151
3 150 151 152
3 32 15 31
3 33 153 155
3 153 34 154
3 153 154 155
3 35 34 33
3 35 16 34
3 35 36 16
3 37 36 35
3 37 17 36
3 38 39 12
3 40 39 38
3 40 18 39
3 41 42 7
3 43 42 41
3 43 19 42
3 43 44 19
3 45 44 43
3 45 20 44
3 45 156 158
3 158 157 20
3 156 157 158
3 160 159 45
3 161 46 162
3 163 162 9
3 161 162 163
3 164 46 165
3 167 166 46
3 47 168 169
3 47 170 172
3 170 21 171
3 170 171 172
3 174 173 2
3 175 33 176
3 48 177 179
3 177 33 178
3 177 178 179
3 48 4 33
3 49 50 3
3 51 50 49
3 51 7 50
3 23 51 6
3 52 51 23
3 52 7 51
3 52 41 7
3 53 41 52
3 53 5 41
3 53 54 5
3 55 54 53
3 55 9 54
3 25 55 8
3 56 55 25
3 56 9 55
3 56 180 182
3 182 181 9
3 180 181 182
3 184 183 56
3 186 185 10
3 187 57 188
3 58 189 191
3 189 57 190
3 189 190 191
3 58 12 57
3 29 58 11
3 59 58 29
3 59 12 58
3 59 38 12
3 60 38 59
3 60 3 38
3 192 30 193
3 194 193 2
3 192 193 194
3 195 30 196
3 197 13 198
3 199 198 30
3 197 198 199
3 200 13 201
3 202 60 203
3 204 203 13
3 202 203 204
3 61 205 207
3 205 60 206
3 205 206 207
3 61 3 60
3 61 49 3
3 62 49 61
3 62 6 49
3 31 62 14
3 63 62 31
3 63 6 62
3 63 22 6
3 64 22 63
3 64 1 22
3 65 208 210
3 210 209 0
3 208 209 210
3 212 211 65
3 34 213 214
3 216 215 34
3 66 217 218
3 66 219 220
3 66 221 222
3 67 223 225
3 225 224 66
3 223 224 225
3 67 226 228
3 226 10 227
3 226 227 228
3 36 67 16
3 68 67 36
3 68 10 67
3 68 27 10
3 69 27 68
3 69 0 27
3 57 229 230
3 70 231 233
3 233 232 57
3 231 232 233
3 70 234 235
3 39 70 12
3 71 70 39
3 71 236 238
3 238 237 70
3 236 237 238
3 71 239 241
3 239 48 240
3 239 240 241
3 72 48 71
3 72 4 48
3 50 40 3
3 73 40 50
3 73 18 40
3 42 73 7
3 74 73 42
3 74 18 73
3 74 72 18
3 75 72 74
3 75 4 72
3 75 37 4
3 76 37 75
3 76 17 37
3 44 76 19
3 77 76 44
3 77 17 76
3 77 69 17
3 78 69 77
3 78 0 69
3 78 65 0
3 242 65 243
3 244 243 78
3 242 243 244
3 246 245 65
3 248 247 20
3 54 249 251
3 251 250 5
3 249 250 251
3 79 252 254
3 254 253 54
3 252 253 254
3 79 255 256
3 46 79 9
3 257 79 258
3 259 258 46
3 257 258 259
3 261 260 79
3 262 11 263
3 262 263 264
3 265 11 266
3 267 28 268
3 269 268 11
3 267 268 269
3 270 28 271
3 272 2 273
3 274 273 28
3 272 273 274
3 275 2 276
3 278 277 2
3 80 279 280
3 80 281 282
3 80 283 285
3 283 32 284
3 283 284 285
3 81 32 80
3 81 15 32
3 286 81 287
3 82 288 290
3 288 81 289
3 288 289 290
3 82 15 81
3 82 64 15
3 83 64 82
3 83 1 64
3 291 47 292
3 293 47 294
3 295 21 296
3 297 296 47
3 295 296 297
3 298 21 299
3 300 83 301
3 302 301 21
3 300 301 302
3 84 303 305
3 303 83 304
3 303 304 305
3 84 1 83
3 84 26 1
3 306 26 307
3 308 307 84
3 306 307 308
3 310 309 26
3 312 311 0
