ply
format ascii 1.0
element vertex 395
property float x
property float y
property float z
element face 430
property list uchar int vertex_index
end_header
9.123188 -100.854187 42.884499
6.478184 -116.194283 21.28437
19.714016 -99.457817 36.411613
6.600822 -108.632172 33.725662
4.906343 -101.004333 31.823755
13.272579 -103.693504 42.415958
13.566376 -110.135033 29.541466
27.143505 -93.828293 32.426712
22.781719 -105.773209 23.776035
8.1049 -104.870918 38.885803
5.018684 -105.385651 33.477936
7.142529 -101.362465 37.642426
10.803829 -103.17907 43.560825
10.239025 -106.868782 38.406265
7.459536 -91.969917 32.741745
7.616501 -87.080727 30.301346
23.351521 -96.228897 33.652622
25.393726 -99.70887 27.541561
21.172241 -102.542801 29.636211
9.778276 -113.639854 25.798429
14.531672 -113.229507 23.236801
5.85519 -112.323677 27.648003
3.281422 -109.381973 28.233801
2.372601 -105.179817 27.452108
16.321039 -102.296349 39.722771
17.111412 -105.348724 32.876549
13.369143 -107.007042 36.16909
9.587294 -110.288971 32.283272
8.140327 -97.17942 40.841885
7.110027 -96.877975 35.336426
5.898642 -96.004669 29.476341
18.070103 -108.381691 26.37261
8.760494 -102.892929 41.02803
7.482359 -103.274223 38.44783
8.208998 -101.234459 40.343281
9.808517 -100.207718 45.27169
10.703533 -101.247589 45.690628
9.861813 -102.219765 43.435875
9.556488 -104.188423 41.30954
18.896004 -98.011253 39.969994
20.553833 -96.334084 38.432003
22.273075 -94.665688 37.08469
21.505394 -97.811714 34.892914
22.394405 -99.393707 31.521128
20.45092 -100.973579 32.93819
8.02845 -115.007576 23.64539
10.318031 -115.350548 22.64049
8.702148 -116.849815 20.518723
6.076414 -110.466797 30.767588
4.372355 -111.037689 28.118172
4.84873 -109.09623 31.07518
4.792475 -103.304543 32.78656
3.596111 -105.336388 30.523329
3.572163 -103.067986 29.758026
3.905777 -100.625229 28.773388
12.975662 -101.967339 45.200985
14.321371 -101.598724 44.299141
15.770793 -100.766502 43.046211
14.741806 -103.219528 41.215912
14.995246 -104.815773 37.951633
13.365129 -105.378044 39.383762
8.436607 -107.911659 36.167221
9.854553 -108.604324 35.43502
7.939188 -109.680885 33.206596
7.65992 -111.430992 30.072166
7.794975 -95.021973 39.551689
7.67944 -97.115387 38.146988
7.578369 -94.803078 36.840881
7.395464 -91.44001 29.926849
6.936024 -93.973526 31.166027
25.86307 -91.972542 35.431343
28.377766 -95.816093 29.724365
24.18169 -102.761597 25.534859
26.42588 -101.530922 24.928257
25.150631 -104.47094 22.969202
15.418444 -107.907051 31.224426
17.532412 -106.864388 29.540596
15.776688 -109.423553 27.94722
15.364861 -114.775932 20.346415
17.062498 -112.455811 21.919632
7.326538 -106.778572 36.447128
5.619446 -107.18222 33.810593
6.555428 -105.252968 36.273701
6.126266 -103.394638 35.694691
6.01218 -101.269981 34.79351
11.761805 -101.846939 45.6744
11.94833 -103.680382 43.218086
11.886843 -105.463562 40.472618
10.604719 -105.060257 41.128571
9.027622 -106.087257 38.882538
7.496826 -92.413979 35.508057
7.592466 -89.502556 31.49177
7.792007 -88.939346 28.748539
24.048321 -93.167145 36.052376
25.239117 -94.862816 32.804176
26.383965 -96.70163 29.836853
24.379112 -97.923737 30.455002
23.27211 -101.054344 28.387703
21.935715 -104.150238 26.570927
11.653576 -112.034042 27.752274
13.931377 -111.678741 26.312399
12.084692 -113.642143 24.561745
12.785561 -115.263832 21.515205
5.987562 -114.231911 24.457912
4.541676 -115.118088 21.861588
4.263161 -113.041481 25.017429
2.912912 -111.470589 25.283159
1.977856 -109.566505 25.240952
4.017124 -107.366707 30.983761
2.612831 -107.409439 27.999077
1.478706 -107.385483 24.905861
17.300251 -99.535538 41.557034
17.983555 -101.002831 38.071476
18.561417 -102.50309 34.579926
16.737034 -103.826942 36.301666
15.186413 -106.376465 34.589752
13.402561 -108.585823 32.856789
11.702871 -107.178734 37.478149
11.529446 -108.829285 34.300835
11.484236 -110.437538 31.027264
9.541203 -111.957001 29.039656
7.678627 -113.199249 26.854393
9.063496 -98.785606 44.481102
8.564241 -99.149055 41.986423
8.435499 -97.052574 43.409096
7.8794 -95.085442 42.153618
7.867287 -99.283676 39.347656
7.040302 -99.20649 36.569775
6.159559 -98.947586 33.672684
7.275431 -94.445335 34.036995
6.495386 -96.494522 32.434727
5.300972 -98.55024 30.688915
27.509592 -98.621849 27.174711
19.11338 -104.025612 31.176834
19.712463 -105.566551 27.945145
20.413576 -107.120865 24.94346
16.317429 -110.940269 24.831741
18.766756 -109.901184 23.423279
21.245605 -108.671204 22.195625
5.833343 -116.719479 20.006646
6.888134 -117.187092 19.737558
6.888134 -117.187092 19.737558
8.000116 -117.514858 19.354734
7.590166 -116.522049 20.901547
7.524797 -93.77597 37.5208
7.686672 -94.912526 38.196285
7.6331 -93.885418 38.876204
7.002777 -92.432449 29.094268
7.368162 -91.150364 28.510619
27.416177 -92.496159 33.853657
26.77596 -91.568283 35.355973
26.503287 -92.900418 33.929028
28.086962 -93.503441 32.491642
27.416177 -92.496159 33.853657
27.760635 -94.822193 31.075539
28.704092 -94.497341 31.140469
28.086962 -93.503441 32.491642
23.254464 -106.57304 22.511794
24.43892 -105.921906 22.108377
23.966175 -105.122074 23.372619
16.682443 -114.359535 19.779482
15.881309 -115.52658 18.989334
7.604484 -88.291641 30.896558
7.38277 -88.55981 32.214869
7.394787 -87.348896 31.619658
11.964519 -116.168228 20.565726
11.551796 -115.30719 22.077848
10.730753 -116.211586 21.128369
13.258071 -116.067417 20.074662
11.964519 -116.168228 20.565726
1.893552 -105.08432 25.885555
1.446605 -106.187153 24.612431
1.925654 -106.28265 26.178984
8.47919 -96.888855 44.630054
8.749498 -97.91909 43.945099
8.793188 -97.755371 45.166058
7.490443 -94.058617 42.730976
7.837907 -95.033288 43.39851
7.614033 -94.022286 41.478266
7.490443 -94.058617 42.730976
8.793188 -97.755371 45.166058
9.190445 -98.487381 45.661972
3.969818 -115.511047 20.478906
3.747743 -114.383964 22.035765
5.216767 -97.037483 28.568559
4.917931 -98.310269 29.174847
5.599807 -97.277455 30.082628
27.531357 -101.038521 24.867329
26.95937 -102.425998 23.761512
19.199699 -110.652698 22.064413
17.914627 -111.178497 22.671456
18.347569 -111.930012 21.31259
20.439123 -110.037709 21.450586
20.00618 -109.286194 22.809452
19.199699 -110.652698 22.064413
21.727175 -109.425091 20.940893
20.439123 -110.037709 21.450586
10.256025 -100.727654 45.481159
10.458709 -100.273842 46.609112
10.011201 -99.753906 46.399643
7.237338 -86.179123 31.014128
7.394787 -87.348896 31.619658
19.192656 -96.497456 41.009308
18.415326 -97.331955 41.7438
20.02157 -95.658871 40.240313
19.192656 -96.497456 41.009308
19.724919 -97.172669 39.200998
20.829733 -94.800057 39.553431
20.02157 -95.658871 40.240313
21.413454 -95.499886 37.758347
21.689354 -93.965858 38.879774
20.829733 -94.800057 39.553431
9.922812 -116.961219 20.067485
10.730753 -116.211586 21.128369
9.510089 -116.100182 21.579607
9.18246 -117.768196 19.016463
9.922812 -116.961219 20.067485
9.18246 -117.768196 19.016463
8.000116 -117.514858 19.354734
3.057258 -102.912007 28.207491
2.457477 -103.967922 27.054532
2.972382 -104.123902 28.605067
3.224065 -101.690628 27.715172
3.057258 -102.912007 28.207491
3.73897 -101.846608 29.265707
3.492927 -100.41293 27.232747
3.224065 -101.690628 27.715172
13.310968 -100.972382 46.169302
12.67897 -101.09726 46.450091
13.983822 -100.788074 45.71838
13.310968 -100.972382 46.169302
13.648516 -101.783031 44.750063
14.663284 -100.428432 45.244355
13.983822 -100.788074 45.71838
15.046082 -101.182613 43.672676
15.387995 -100.012321 44.61789
14.663284 -100.428432 45.244355
6.773057 -93.699207 29.713856
7.165744 -92.706768 30.546438
7.002777 -92.432449 29.094268
6.254366 -94.714779 28.869014
6.417333 -94.989098 30.321184
6.773057 -93.699207 29.713856
5.639036 -95.73304 27.989587
6.254366 -94.714779 28.869014
26.074409 -90.652192 36.863821
25.190719 -91.143696 37.068863
26.074409 -90.652192 36.863821
26.77596 -91.568283 35.355973
29.35029 -95.551754 29.926265
29.676616 -94.233002 31.342369
28.704092 -94.497341 31.140469
28.981125 -96.833664 28.522754
29.35029 -95.551754 29.926265
26.321746 -103.896007 22.781985
26.95937 -102.425998 23.761512
25.788255 -103.000931 23.948729
25.668554 -105.29554 21.814802
26.839669 -104.720607 21.627585
26.321746 -103.896007 22.781985
25.668554 -105.29554 21.814802
24.43892 -105.921906 22.108377
17.531261 -113.199475 20.566091
16.21368 -113.615871 21.133024
16.682443 -114.359535 19.779482
18.347569 -111.930012 21.31259
17.531261 -113.199475 20.566091
10.968787 -100.621132 46.759475
10.458709 -100.273842 46.609112
11.497923 -100.920807 46.751362
10.968787 -100.621132 46.759475
11.232669 -101.547264 45.682514
12.072041 -101.037059 46.686798
11.497923 -100.920807 46.751362
12.368734 -101.907139 45.437692
12.67897 -101.09726 46.450091
12.072041 -101.037059 46.686798
7.309241 -91.417946 36.17833
7.484025 -92.581421 36.854388
7.43664 -91.209274 34.853651
7.309241 -91.417946 36.17833
7.417994 -90.987244 33.470495
7.478181 -92.191948 34.124901
7.43664 -91.209274 34.853651
7.484459 -89.753563 32.845507
7.38277 -88.55981 32.214869
7.526001 -90.736236 32.116757
7.417994 -90.987244 33.470495
7.484459 -89.753563 32.845507
7.566434 -89.900032 27.921464
7.368162 -91.150364 28.510619
7.593735 -90.189678 29.337694
22.528883 -93.163444 38.304802
21.689354 -93.965858 38.879774
23.416506 -92.414173 37.788645
22.528883 -93.163444 38.304802
23.160698 -93.916416 36.568533
24.283344 -91.740998 37.379379
23.651529 -90.988026 39.115649
23.416506 -92.414173 37.788645
24.955696 -92.569844 35.74186
25.190719 -91.143696 37.068863
24.283344 -91.740998 37.379379
14.547721 -115.823467 19.490267
14.075211 -115.019882 20.93081
13.258071 -116.067417 20.074662
15.881309 -115.52658 18.989334
14.547721 -115.823467 19.490267
3.608486 -113.345661 23.613686
3.747743 -114.383964 22.035765
4.402418 -114.079785 23.439509
2.933361 -112.560215 23.746551
3.608486 -113.345661 23.613686
3.588037 -112.256035 25.150294
2.337224 -111.650891 23.794885
2.933361 -112.560215 23.746551
1.869696 -110.698848 23.773781
2.337224 -111.650891 23.794885
2.445384 -110.518547 25.262056
1.486374 -109.640346 23.695782
1.869696 -110.698848 23.773781
1.236799 -108.549836 23.528236
1.486374 -109.640346 23.695782
1.728281 -108.475994 25.073407
1.072211 -107.371853 23.334669
1.236799 -108.549836 23.528236
1.072211 -107.371853 23.334669
1.446605 -106.187153 24.612431
1.893552 -105.08432 25.885555
2.457477 -103.967922 27.054532
16.104847 -99.443153 43.994712
15.387995 -100.012321 44.61789
16.869575 -98.827671 43.250124
16.104847 -99.443153 43.994712
16.535522 -100.15102 42.301623
17.61745 -98.094098 42.53732
16.869575 -98.827671 43.250124
18.098128 -98.773395 40.763514
18.415326 -97.331955 41.7438
17.61745 -98.094098 42.53732
8.115956 -96.016853 44.026249
8.47919 -96.888855 44.630054
8.15745 -96.069008 42.781357
8.115956 -96.016853 44.026249
7.837907 -95.033288 43.39851
7.57182 -93.990551 40.177301
7.837188 -95.053708 40.852654
7.614033 -94.022286 41.478266
7.6331 -93.885418 38.876204
7.57182 -93.990551 40.177301
9.562956 -99.198437 46.057266
10.011201 -99.753906 46.399643
9.436007 -99.496662 44.876396
9.562956 -99.198437 46.057266
9.190445 -98.487381 45.661972
4.865089 -116.181382 20.295255
5.833343 -116.719479 20.006646
5.50993 -115.656185 21.572979
4.865089 -116.181382 20.295255
3.969818 -115.511047 20.478906
7.537598 -93.608529 36.174469
7.524797 -93.77597 37.5208
7.484025 -92.581421 36.854388
4.220334 -99.347763 28.217083
4.603375 -99.587735 29.731152
4.917931 -98.310269 29.174847
3.492927 -100.41293 27.232747
4.220334 -99.347763 28.217083
5.216767 -97.037483 28.568559
5.639036 -95.73304 27.989587
7.552632 -85.903774 29.733232
7.237338 -86.179123 31.014128
7.173469 -85.002171 30.446015
7.835055 -86.792507 28.969141
7.552632 -85.903774 29.733232
7.922808 -87.721817 28.192737
7.704254 -88.010036 29.524943
7.835055 -86.792507 28.969141
7.894679 -88.645699 27.372525
7.922808 -87.721817 28.192737
7.566434 -89.900032 27.921464
7.894679 -88.645699 27.372525
28.547038 -98.236542 27.247927
28.981125 -96.833664 28.522754
27.943679 -97.218971 28.449538
28.073214 -99.583984 25.990556
26.967736 -100.076386 26.051484
27.531357 -101.038521 24.867329
28.547038 -98.236542 27.247927
28.073214 -99.583984 25.990556
22.486407 -108.022038 21.721589
23.254464 -106.57304 22.511794
22.013662 -107.222206 22.98583
22.486407 -108.022038 21.721589
21.727175 -109.425091 20.940893
3 0 34 32
3 0 37 35
3 0 32 37
3 1 139 140
3 2 40 39
3 2 42 40
3 2 44 42
3 1 47 45
3 1 141 143
3 143 142 47
3 141 142 143
3 3 50 48
3 4 53 51
3 4 54 53
3 5 56 55
3 5 58 56
3 5 60 58
3 3 63 61
3 3 48 63
3 144 67 145
3 146 145 65
3 144 145 146
3 148 147 68
3 7 149 151
3 151 150 70
3 149 150 151
3 7 152 153
3 7 154 156
3 154 71 155
3 154 155 156
3 8 74 72
3 8 157 159
3 159 158 74
3 157 158 159
3 6 77 75
3 161 160 78
3 9 82 80
3 11 83 33
3 11 84 83
3 12 85 36
3 12 86 85
3 12 88 86
3 9 89 38
3 9 80 89
3 15 162 164
3 162 91 163
3 162 163 164
3 15 92 91
3 16 93 41
3 16 94 93
3 16 96 94
3 18 97 43
3 18 98 97
3 19 101 99
3 165 102 166
3 167 166 46
3 165 166 167
3 169 168 102
3 21 105 103
3 22 106 49
3 22 107 106
3 10 108 81
3 23 109 52
3 23 110 109
3 23 170 172
3 172 171 110
3 170 171 172
3 24 111 57
3 24 112 111
3 24 114 112
3 26 115 59
3 26 116 115
3 13 117 87
3 27 118 62
3 27 119 118
3 27 120 119
3 21 121 64
3 21 103 121
3 173 124 174
3 175 174 122
3 173 174 175
3 176 125 177
3 179 178 125
3 180 122 181
3 183 182 104
3 28 126 123
3 29 127 66
3 29 128 127
3 14 129 90
3 30 130 69
3 30 131 130
3 30 184 186
3 186 185 131
3 184 185 186
3 17 132 95
3 188 187 73
3 25 133 113
3 31 134 76
3 31 135 134
3 20 136 100
3 189 137 190
3 191 190 79
3 189 190 191
3 192 138 193
3 194 193 137
3 192 193 194
3 196 195 138
3 32 33 9
3 34 33 32
3 34 11 33
3 35 197 199
3 197 36 198
3 197 198 199
3 37 36 35
3 37 12 36
3 37 38 12
3 32 38 37
3 32 9 38
3 200 15 201
3 39 202 203
3 40 204 206
3 206 205 39
3 204 205 206
3 40 207 208
3 40 209 211
3 209 41 210
3 209 210 211
3 42 41 40
3 42 16 41
3 42 43 16
3 44 43 42
3 44 18 43
3 45 46 19
3 47 46 45
3 47 212 214
3 214 213 46
3 212 213 214
3 47 215 216
3 218 217 47
3 48 49 21
3 50 49 48
3 50 22 49
3 51 52 10
3 53 52 51
3 53 23 52
3 53 219 221
3 221 220 23
3 219 220 221
3 54 222 224
3 224 223 53
3 222 223 224
3 54 225 226
3 55 227 228
3 56 229 231
3 231 230 55
3 229 230 231
3 56 232 233
3 56 234 236
3 234 57 235
3 234 235 236
3 58 57 56
3 58 24 57
3 58 59 24
3 60 59 58
3 60 26 59
3 61 62 13
3 63 62 61
3 63 27 62
3 63 64 27
3 48 64 63
3 48 21 64
3 65 66 28
3 67 66 65
3 67 29 66
3 68 69 14
3 237 69 238
3 239 238 68
3 237 238 239
3 240 30 241
3 242 241 69
3 240 241 242
3 244 243 30
3 70 245 246
3 248 247 70
3 71 249 251
3 249 250 251
3 71 252 253
3 72 73 17
3 74 73 72
3 74 254 256
3 256 255 73
3 254 255 256
3 74 257 259
3 257 258 259
3 261 260 74
3 75 76 25
3 77 76 75
3 77 31 76
3 78 79 20
3 262 79 263
3 264 263 78
3 262 263 264
3 266 265 79
3 80 81 3
3 82 81 80
3 82 10 81
3 33 82 9
3 83 82 33
3 83 10 82
3 83 51 10
3 84 51 83
3 84 4 51
3 36 267 268
3 85 269 271
3 271 270 36
3 269 270 271
3 85 272 273
3 85 274 276
3 274 55 275
3 274 275 276
3 86 55 85
3 86 5 55
3 86 87 5
3 88 87 86
3 88 13 87
3 38 88 12
3 89 88 38
3 89 13 88
3 89 61 13
3 80 61 89
3 80 3 61
3 277 90 278
3 279 90 280
3 281 14 282
3 283 282 90
3 281 282 283
3 91 284 285
3 91 286 288
3 286 14 287
3 286 287 288
3 91 68 14
3 92 68 91
3 92 289 291
3 291 290 68
3 289 290 291
3 41 292 293
3 93 294 296
3 296 295 41
3 294 295 296
3 93 297 299
3 297 298 299
3 93 300 302
3 300 70 301
3 300 301 302
3 94 70 93
3 94 7 70
3 94 95 7
3 96 95 94
3 96 17 95
3 43 96 16
3 97 96 43
3 97 17 96
3 97 72 17
3 98 72 97
3 98 8 72
3 99 100 6
3 101 100 99
3 101 20 100
3 46 101 19
3 102 101 46
3 102 20 101
3 102 78 20
3 303 78 304
3 305 304 102
3 303 304 305
3 307 306 78
3 103 104 1
3 105 104 103
3 105 308 310
3 310 309 104
3 308 309 310
3 49 105 21
3 106 105 49
3 106 311 313
3 313 312 105
3 311 312 313
3 106 314 315
3 107 316 318
3 318 317 106
3 316 317 318
3 107 319 320
3 81 50 3
3 108 50 81
3 108 22 50
3 52 108 10
3 109 108 52
3 109 22 108
3 109 107 22
3 110 107 109
3 110 321 323
3 323 322 107
3 321 322 323
3 110 324 325
3 327 326 110
3 329 328 23
3 57 330 331
3 111 332 334
3 334 333 57
3 332 333 334
3 111 335 336
3 111 337 339
3 337 39 338
3 337 338 339
3 112 39 111
3 112 2 39
3 112 113 2
3 114 113 112
3 114 25 113
3 59 114 24
3 115 114 59
3 115 25 114
3 115 75 25
3 116 75 115
3 116 6 75
3 87 60 5
3 117 60 87
3 117 26 60
3 62 117 13
3 118 117 62
3 118 26 117
3 118 116 26
3 119 116 118
3 119 6 116
3 119 99 6
3 120 99 119
3 120 19 99
3 64 120 27
3 121 120 64
3 121 19 120
3 121 45 19
3 103 45 121
3 103 1 45
3 122 123 0
3 124 123 122
3 124 28 123
3 340 124 341
3 125 342 344
3 342 124 343
3 342 343 344
3 125 28 124
3 125 65 28
3 345 65 346
3 347 346 125
3 345 346 347
3 349 348 65
3 350 35 351
3 122 352 354
3 352 35 353
3 352 353 354
3 122 0 35
3 104 355 357
3 357 356 1
3 355 356 357
3 359 358 104
3 123 34 0
3 126 34 123
3 126 11 34
3 66 126 28
3 127 126 66
3 127 11 126
3 127 84 11
3 128 84 127
3 128 4 84
3 90 360 362
3 360 67 361
3 360 361 362
3 129 67 90
3 129 29 67
3 69 129 14
3 130 129 69
3 130 29 129
3 130 128 29
3 131 128 130
3 131 4 128
3 131 54 4
3 363 54 364
3 365 364 131
3 363 364 365
3 367 366 54
3 369 368 30
3 370 15 371
3 370 371 372
3 373 15 374
3 375 92 376
3 377 376 15
3 375 376 377
3 378 92 379
3 381 380 92
3 95 71 7
3 132 71 95
3 132 382 384
3 384 383 71
3 382 383 384
3 73 132 17
3 385 132 386
3 387 386 73
3 385 386 387
3 389 388 132
3 113 44 2
3 133 44 113
3 133 18 44
3 76 133 25
3 134 133 76
3 134 18 133
3 134 98 18
3 135 98 134
3 135 8 98
3 100 77 6
3 136 77 100
3 136 31 77
3 79 136 20
3 137 136 79
3 137 31 136
3 137 135 31
3 138 135 137
3 138 8 135
3 138 390 392
3 392 391 8
3 390 391 392
3 394 393 138
