ply
format ascii 1.0
element vertex 651
property float x
property float y
property float z
element face 746
property list uchar int vertex_index
end_header
40.055321 61.472893 24.367535
34.284664 75.107491 4.032663
24.068062 70.218048 24.994957
13.597265 88.057419 2.25206
44.648949 52.900566 28.089344
32.650387 64.993118 24.216349
28.320986 74.338974 13.851702
17.561028 85.886665 -9.737833
7.045027 88.504112 -9.574484
10.181911 84.713005 -20.462393
30.293816 79.457817 -7.564821
40.755836 71.730392 -4.651949
19.372826 81.15258 14.302153
23.954544 81.487411 2.167412
21.382917 63.843437 36.157383
29.436125 58.668625 34.006535
38.331142 55.429962 32.294575
42.382607 57.76255 26.239641
36.926064 63.156677 24.361565
34.764042 67.501564 19.740753
20.432968 83.814522 -14.342196
13.798399 86.247391 -15.313969
16.599089 83.338814 -19.35116
32.56348 77.493805 -1.820795
36.016434 75.967834 -6.1068
37.493473 73.980278 -0.463465
17.596077 79.541237 20.922394
21.746181 76.021423 19.88818
31.179878 75.204163 8.790934
26.309021 78.22686 8.123588
29.275816 78.189423 2.916615
26.913677 80.713203 -3.028765
28.219009 55.453293 38.878441
32.515892 53.679108 38.006416
33.885742 56.832291 33.241474
12.004593 87.726654 9.16751
9.050196 89.272079 3.087247
38.517868 71.498489 5.273478
28.213837 67.244583 24.343405
25.918097 72.615814 19.276278
30.334967 69.843414 19.247292
15.343995 87.343376 -4.126703
10.251995 89.243301 -3.772657
11.710186 88.186226 -10.012045
8.220436 87.170906 -15.584801
27.349192 80.753609 -12.954399
33.848232 77.333839 -11.426394
41.460205 69.547951 0.870136
14.898492 84.368851 15.198197
16.691807 85.255722 8.349497
23.780708 77.539314 13.808842
21.463161 81.7323 7.980089
18.674107 85.064819 1.933063
21.035484 84.124634 -3.852858
23.954252 82.73069 -8.853134
22.635059 67.293526 30.726513
24.154634 57.521973 39.807472
25.299618 61.062325 34.911507
26.591434 64.260071 29.666729
30.879385 61.868912 29.01733
35.372398 60.145729 28.61327
39.443897 58.82058 27.960453
6.318277 88.767441 -2.855204
40.852142 61.492821 23.218401
42.158302 59.519547 23.985432
41.133919 59.871887 25.243652
39.431385 63.026962 22.705627
38.732983 62.271492 24.401443
37.754795 64.240166 22.412151
18.531044 83.806358 -16.910891
33.480927 76.353691 1.104715
35.144638 75.821228 -1.146095
35.880104 74.678276 1.751211
22.094116 71.920403 25.50745
20.895615 74.945526 23.0042
22.895966 73.174652 22.50198
32.713364 75.279884 6.37823
30.270363 76.762787 5.87231
31.850872 76.661568 3.443318
30.88826 77.927887 0.490812
34.731503 52.891167 37.482212
12.796946 88.037804 5.656244
10.519577 88.744446 6.119684
11.223671 88.951172 2.611775
30.411552 66.037971 24.222446
29.20891 68.616066 21.75539
31.442776 67.438652 21.792873
16.374691 86.690887 -7.043436
13.539497 87.97316 -7.100777
14.528393 87.21489 -9.961462
11.943459 85.735779 -17.947447
10.82955 86.961922 -15.550562
9.095245 86.092499 -18.192392
6.666056 85.896584 -18.215521
7.503386 84.70784 -20.712442
8.560108 83.179199 -22.847372
28.90942 80.220543 -10.320295
30.688951 79.099556 -12.19418
32.071434 78.540215 -9.580206
38.515862 73.969048 -5.37463
37.742599 74.784042 -8.076014
39.966209 70.666252 3.042406
18.451321 80.48056 17.592299
16.273411 82.114883 18.115108
17.152912 82.875076 14.706627
15.778865 84.959526 11.734126
18.082727 83.349724 11.359032
27.05143 73.574387 16.517834
24.849655 75.156479 16.592432
26.028671 75.861359 13.75661
25.192976 79.931984 5.165218
23.872635 79.926659 7.984209
22.653488 81.69323 5.001317
20.138826 83.514061 4.971479
21.298031 83.277618 1.981733
19.792988 84.664085 -1.04925
22.571205 82.891624 -0.847057
28.561878 80.160759 -5.380657
25.510965 81.803032 -5.969933
27.167192 81.096123 -8.244808
25.611229 81.844398 -11.020781
19.421953 65.257095 36.959793
20.699081 68.919571 31.404003
21.997629 65.638954 33.491749
23.619793 55.555527 42.110085
25.625507 54.628075 41.608501
28.80549 57.076805 36.475025
26.72736 58.163994 36.914124
27.326855 59.799202 34.42733
25.918205 62.690849 32.320541
27.973896 61.394241 31.874409
28.68924 62.971497 29.294024
30.122581 60.262627 31.506844
36.146278 56.092651 32.81749
34.61882 58.481857 30.894043
36.846092 57.77607 30.54962
37.513268 59.448112 28.362274
38.938114 57.144608 30.086016
40.798035 56.558929 29.418407
6.645195 88.338264 7.293608
8.60372 89.128441 -6.708649
8.104055 89.342232 -3.372589
6.654255 88.770012 -6.280787
43.408558 57.225021 24.826912
43.593399 55.401848 27.208395
34.85564 64.053177 24.281525
33.669502 66.369598 21.942146
35.805019 65.329666 22.160667
36.807125 66.279831 20.103254
18.918215 84.936897 -12.179604
15.690479 86.278656 -12.573114
17.032631 85.155281 -14.899389
15.122677 84.933472 -17.506601
13.245926 84.220955 -19.993479
11.458603 82.998505 -22.355165
14.695663 82.37571 -21.664057
31.507425 78.534103 -4.720491
33.263443 77.772858 -6.843147
34.280815 76.855499 -4.020182
36.828007 75.03653 -3.307901
39.121368 73.000427 -2.602858
19.690788 77.819977 20.364071
20.583626 78.697037 17.151773
29.706429 74.887383 11.278677
27.337387 76.364365 11.023839
28.758575 76.66404 8.397055
27.744122 78.290794 5.459864
26.625414 79.783554 2.483613
25.37429 81.153404 -0.511421
28.164421 79.503685 -0.057846
29.798344 79.095047 -2.45895
20.785828 61.896606 38.724472
27.670059 53.752861 41.196117
29.760414 52.925285 40.801224
30.337673 54.529587 38.459114
30.960291 56.100433 36.056694
31.630676 57.682549 33.622734
33.181812 55.232872 35.623219
35.433701 54.458588 35.137016
37.652382 53.752701 34.556641
11.207937 87.112259 12.760219
9.80127 88.240845 9.718894
8.440533 88.86058 6.675055
7.158525 88.948746 3.652774
35.006794 73.736298 6.945076
36.518108 73.417274 4.651553
37.09663 72.022316 7.539865
26.098148 68.641853 24.601192
24.927242 71.489166 22.112213
27.02824 69.960045 21.859192
28.09831 71.145645 19.185482
29.305813 72.157234 16.596199
32.580631 68.657158 19.443682
31.576582 70.866142 16.818249
30.63114 72.952164 14.090561
33.510841 73.76049 9.27863
14.432953 87.812889 -1.018339
11.934889 88.873566 -0.780369
12.690836 88.536652 -4.028584
10.923134 88.832008 -6.988049
9.189787 88.653801 -9.880892
12.659805 87.324181 -12.802189
9.917555 87.930428 -12.844931
7.549059 87.971397 -12.693123
35.031242 76.749565 -8.826321
38.044209 72.803375 2.402258
39.592216 71.897942 0.209101
41.167694 70.708458 -1.909262
14.045637 83.479141 18.710741
12.630701 85.510345 15.768923
13.471842 86.254303 12.204294
14.323814 86.693764 8.706625
15.192981 86.837494 5.303944
23.807617 74.257088 19.516941
22.702797 76.886993 16.81078
21.571527 79.333237 13.996959
24.984348 77.982033 10.908309
22.665987 79.736649 10.933066
20.373133 81.563225 11.087981
19.073273 83.552666 8.10471
17.649807 85.278305 5.073688
16.097866 86.711174 2.02357
17.068928 86.355652 -1.108122
18.143642 85.819099 -4.065702
19.356644 85.143913 -6.824348
23.974247 82.395111 -3.501226
22.421871 83.479271 -6.459515
20.727962 84.351204 -9.360111
22.253586 83.42865 -11.651333
23.902388 82.32798 -13.681353
21.372128 70.501495 28.488174
23.314997 68.818039 27.881695
21.642584 56.530495 42.770668
22.178688 58.644348 40.424919
22.744028 60.605972 38.001839
26.161884 56.452888 39.310287
24.714911 59.349205 37.410515
23.330132 62.42617 35.481232
23.938379 64.123039 32.857475
24.583601 65.71682 30.145172
25.292715 67.222412 27.378067
27.347429 65.781349 26.992592
29.495825 64.529633 26.730484
31.719633 63.464844 26.577734
32.352486 59.298859 31.19363
33.129448 60.938927 28.807482
33.963741 62.552795 26.496824
36.140465 61.74411 26.42823
38.137089 61.001091 26.293465
39.825981 60.337204 25.982677
41.07505 58.265701 27.285423
42.356575 55.991905 28.470741
43.539146 53.576126 29.53075
9.643324 89.396255 -0.40379
7.636538 89.28405 0.090448
5.985365 88.497498 0.670559
45.06176 52.526268 27.247986
44.594031 53.820045 26.870331
45.053051 51.611065 28.466999
45.06176 52.526268 27.247986
40.471336 72.163025 -5.992799
39.351349 73.282353 -6.35414
39.635849 72.84972 -5.013289
41.565735 70.951763 -5.619986
40.471336 72.163025 -5.992799
20.717477 65.507874 35.193487
19.736995 66.214703 35.594692
20.402435 64.550266 36.558588
21.690273 64.741196 34.824566
21.024833 66.405632 33.86067
20.717477 65.507874 35.193487
26.390995 53.279458 42.51486
25.372603 53.64333 42.712087
39.338302 55.120106 31.952005
39.641789 55.977429 30.847726
38.634628 56.287285 31.190296
5.924373 87.758754 7.617214
6.132359 88.151672 5.784027
37.726742 65.589672 20.310386
37.28096 65.259998 21.257703
38.200576 64.56984 21.464835
37.324846 66.561337 19.077912
37.726742 65.589672 20.310386
20.499994 60.844898 39.967945
19.800019 62.535564 39.166362
30.543746 51.736336 41.732265
29.493805 52.079814 41.932961
31.426783 54.104348 38.232765
31.116756 53.332447 39.410152
32.205865 52.907207 39.183803
36.185774 53.303879 35.995384
35.082602 53.674878 36.309614
35.834675 52.520168 37.167982
37.295114 52.950935 35.705196
36.543042 54.105644 34.846829
36.185774 53.303879 35.995384
38.358469 52.593178 35.323545
37.295114 52.950935 35.705196
36.391458 72.121731 8.682983
36.051712 72.879307 7.24247
35.346541 72.978722 8.385589
32.240516 71.247177 15.635292
32.689105 70.242344 16.987676
31.767795 72.290188 14.271448
31.103861 71.909153 15.454405
32.240516 71.247177 15.635292
31.337413 73.223446 12.873536
31.767795 72.290188 14.271448
34.598564 72.990818 9.552366
33.89743 72.924103 10.703148
35.346541 72.978722 8.385589
34.258817 73.748394 8.111853
34.598564 72.990818 9.552366
7.134144 86.972912 -15.497101
6.798456 87.373157 -14.051262
7.884747 87.571151 -14.138962
5.691184 85.486699 -18.113243
5.97488 85.00922 -19.466566
10.633259 82.138596 -23.470651
12.168546 81.956406 -23.104377
28.229608 80.064885 -13.803481
26.485093 80.864555 -14.198105
33.149051 77.494113 -12.647089
31.569411 78.376972 -13.030983
32.268591 78.216698 -11.810287
34.711556 76.554771 -12.264436
33.149051 77.494113 -12.647089
37.256839 75.094814 -9.371323
38.584213 74.027141 -8.996528
16.516011 80.305431 21.236286
17.194386 78.940285 22.588692
26.485093 80.864555 -14.198105
24.761691 81.651741 -14.561582
25.62579 81.540795 -13.317876
22.380031 54.982403 43.553881
21.395224 55.396523 43.917463
42.228773 55.097202 29.586254
41.577305 56.275417 28.944574
41.449503 55.380714 30.060087
42.820059 53.889313 30.116259
42.947861 54.784016 29.000746
42.228773 55.097202 29.586254
41.505222 60.506184 23.601917
41.930646 60.414059 22.814639
41.277566 61.400696 22.431124
39.847641 63.146301 21.861815
39.038871 63.963237 21.611573
40.55802 62.37923 22.118202
39.847641 63.146301 21.861815
40.141763 62.259891 22.962014
41.277566 61.400696 22.431124
40.55802 62.37923 22.118202
39.038871 63.963237 21.611573
38.200576 64.56984 21.464835
38.59309 63.633564 22.558889
20.29748 83.134349 -16.559162
19.482006 83.81044 -15.626544
21.248441 83.138431 -15.274815
19.333289 82.989754 -17.751118
20.29748 83.134349 -16.559162
18.367311 82.755981 -18.971252
17.565067 83.572586 -18.131025
19.333289 82.989754 -17.751118
17.385176 82.374966 -20.094288
18.367311 82.755981 -18.971252
21.494865 73.432964 24.255825
20.511208 74.305374 24.560033
21.110459 72.792812 25.811658
33.288984 52.524769 38.917439
32.205865 52.907207 39.183803
34.39679 52.130798 38.655336
33.623697 53.285138 37.744314
33.288984 52.524769 38.917439
35.478632 51.754452 38.326464
34.39679 52.130798 38.655336
35.834675 52.520168 37.167982
35.478632 51.754452 38.326464
34.282835 68.560055 18.448929
35.337007 67.906193 18.659261
6.393544 84.414849 -20.715027
5.97488 85.00922 -19.466566
7.084721 85.302212 -19.463981
6.793518 83.767784 -21.902752
6.393544 84.414849 -20.715027
7.321879 83.003463 -22.970216
6.793518 83.767784 -21.902752
8.031747 83.94352 -21.779907
7.834531 82.17112 -23.967659
7.321879 83.003463 -22.970216
38.964717 73.68985 -7.704832
38.12923 74.376545 -6.725322
39.351349 73.282353 -6.35414
38.584213 74.027141 -8.996528
38.964717 73.68985 -7.704832
40.127155 69.984966 4.464474
39.242038 71.08237 4.157942
39.402985 70.401084 5.580011
40.821689 69.461506 3.358212
40.127155 69.984966 4.464474
41.568687 68.902355 2.272076
40.713207 70.107101 1.956271
40.821689 69.461506 3.358212
18.742854 66.954059 36.019345
18.421158 65.931225 37.431934
18.742854 66.954059 36.019345
19.736995 66.214703 35.594692
20.375559 68.045941 32.816797
19.713727 69.716499 31.788958
21.348355 67.279263 32.447876
20.375559 68.045941 32.816797
21.024833 66.405632 33.86067
24.369746 54.107056 42.962879
23.368635 54.494919 43.223589
24.62265 55.091801 41.859293
24.369746 54.107056 42.962879
25.372603 53.64333 42.712087
40.571749 55.684589 30.513921
39.868074 56.851768 29.752212
39.641789 55.977429 30.847726
41.449503 55.380714 30.060087
40.571749 55.684589 30.513921
6.367946 87.89952 9.145243
7.223037 88.250251 8.816259
6.367946 87.89952 9.145243
5.924373 87.758754 7.617214
42.588787 59.28349 23.175677
41.930646 60.414059 22.814639
43.213915 58.136226 23.596417
42.588787 59.28349 23.175677
42.78343 58.372284 24.406172
43.814556 56.898181 23.973517
43.213915 58.136226 23.596417
43.973835 55.982273 25.239115
43.814556 56.898181 23.973517
44.066255 55.070687 26.429856
43.973835 55.982273 25.239115
43.500979 56.313434 26.017654
44.121174 54.151207 27.648869
44.594031 53.820045 26.870331
44.066255 55.070687 26.429856
36.358549 67.295327 18.840511
35.337007 67.906193 18.659261
35.785584 66.890698 19.922004
36.358549 67.295327 18.840511
37.324846 66.561337 19.077912
13.787076 81.645008 -22.758823
12.168546 81.956406 -23.104377
13.077133 82.687107 -22.009611
16.433463 81.893414 -21.250737
15.647376 82.857262 -20.507608
17.385176 82.374966 -20.094288
15.464241 81.268223 -22.311115
16.433463 81.893414 -21.250737
13.787076 81.645008 -22.758823
15.464241 81.268223 -22.311115
18.235644 78.122238 22.258249
17.194386 78.940285 22.588692
19.885413 75.824382 23.299152
20.511208 74.305374 24.560033
19.282999 77.261608 21.979088
19.885413 75.824382 23.299152
20.293202 76.382751 21.684136
18.643433 78.680607 20.643232
18.235644 78.122238 22.258249
19.282999 77.261608 21.979088
19.118081 64.215809 38.284023
18.421158 65.931225 37.431934
20.10389 63.576851 37.842132
19.118081 64.215809 38.284023
19.800019 62.535564 39.166362
28.448628 52.493603 42.130407
27.413271 52.841851 42.308668
28.715236 53.339073 40.998671
28.448628 52.493603 42.130407
29.493805 52.079814 41.932961
30.828126 52.530296 40.581207
30.543746 51.736336 41.732265
30.049043 53.727436 39.630169
30.828126 52.530296 40.581207
31.116756 53.332447 39.410152
38.702669 53.419701 34.196675
39.042049 54.258331 33.065641
37.991762 54.591332 33.425608
38.702669 53.419701 34.196675
38.358469 52.593178 35.323545
10.136207 87.276817 13.073623
10.808159 86.654899 14.584916
9.432874 87.84111 11.552961
10.136207 87.276817 13.073623
10.504603 87.676552 11.239556
8.801075 88.201542 10.028903
9.432874 87.84111 11.552961
8.120706 88.511409 8.506983
8.801075 88.201542 10.028903
9.120902 88.550713 8.196974
7.542864 88.599422 6.984331
7.223037 88.250251 8.816259
8.120706 88.511409 8.506983
6.389024 88.456913 3.96361
6.132359 88.151672 5.784027
6.90186 88.643505 5.473191
6.18959 88.09119 -9.344938
6.33285 87.934109 -10.965351
37.377691 71.252495 8.970644
36.391458 72.121731 8.682983
38.027761 71.039746 7.839231
37.377691 71.252495 8.970644
38.738381 70.777832 6.706038
37.807249 71.760402 6.406671
38.027761 71.039746 7.839231
39.402985 70.401084 5.580011
38.738381 70.777832 6.706038
33.19113 69.137852 18.300393
33.672337 68.079361 19.592218
34.282835 68.560055 18.448929
32.078606 69.76165 18.130966
33.19113 69.137852 18.300393
32.689105 70.242344 16.987676
30.875058 74.191056 11.467594
30.168785 73.919773 12.684619
31.337413 73.223446 12.873536
31.611782 74.349446 10.223723
30.443154 75.045773 10.034806
30.875058 74.191056 11.467594
32.777264 73.627609 10.467571
33.89743 72.924103 10.703148
32.34536 74.482326 9.034782
31.611782 74.349446 10.223723
32.777264 73.627609 10.467571
6.584865 87.667751 -12.52467
6.33285 87.934109 -10.965351
7.297043 88.237754 -11.133803
6.584865 87.667751 -12.52467
6.798456 87.373157 -14.051262
6.356955 86.335751 -16.812461
7.134144 86.972912 -15.497101
7.443246 86.533745 -16.900161
6.356955 86.335751 -16.812461
5.691184 85.486699 -18.113243
9.184012 82.228943 -23.716755
10.009355 83.088852 -22.601268
10.633259 82.138596 -23.470651
7.834531 82.17112 -23.967659
9.184012 82.228943 -23.716755
29.899487 79.237858 -13.423372
28.229608 80.064885 -13.803481
29.019071 79.926582 -12.574289
29.899487 79.237858 -13.423372
31.569411 78.376972 -13.030983
35.901161 76.077575 -9.746476
36.386921 75.766804 -8.451168
37.256839 75.094814 -9.371323
35.309656 76.369712 -11.046513
34.439737 77.041702 -10.126358
35.901161 76.077575 -9.746476
34.711556 76.554771 -12.264436
35.309656 76.369712 -11.046513
42.304045 68.251613 1.203151
41.568687 68.902355 2.272076
42.233231 68.859291 -0.171878
42.304045 68.251613 1.203151
42.086975 69.439544 -1.561577
41.313949 70.128204 -0.519563
42.233231 68.859291 -0.171878
41.96516 69.978939 -2.918402
42.086975 69.439544 -1.561577
41.759231 70.489906 -4.289746
40.961765 71.219425 -3.280606
41.96516 69.978939 -2.918402
41.565735 70.951763 -5.619986
41.759231 70.489906 -4.289746
15.854678 81.592254 19.832643
16.516011 80.305431 21.236286
16.934744 80.82806 19.518751
14.740791 82.274383 20.13046
15.854678 81.592254 19.832643
15.159524 82.797012 18.412924
13.632563 82.889012 20.476472
14.740791 82.274383 20.13046
12.924266 83.973236 19.042111
13.632563 82.889012 20.476472
12.216798 84.988838 17.571202
12.924266 83.973236 19.042111
13.338169 84.494743 17.239832
11.519541 85.853943 16.089268
12.216798 84.988838 17.571202
11.919319 86.311302 14.264571
10.808159 86.654899 14.584916
11.519541 85.853943 16.089268
22.983151 82.395161 -14.944394
21.248441 83.138431 -15.274815
22.167678 83.071251 -14.011774
22.983151 82.395161 -14.944394
24.761691 81.651741 -14.561582
20.055591 70.552948 30.29315
19.713727 69.716499 31.788958
20.392115 71.34391 28.835235
20.055591 70.552948 30.29315
21.035604 69.710533 29.946089
20.749465 72.083359 27.30202
20.392115 71.34391 28.835235
21.733122 71.210949 26.997812
21.110459 72.792812 25.811658
20.749465 72.083359 27.30202
20.662633 57.032677 43.207785
21.395224 55.396523 43.917463
20.928373 58.161843 41.991043
20.662633 57.032677 43.207785
22.631189 56.043011 42.440376
22.380031 54.982403 43.553881
23.368635 54.494919 43.223589
21.196424 59.218769 40.818168
20.928373 58.161843 41.991043
21.910636 57.587422 41.597794
21.482258 60.270477 39.574696
20.499994 60.844898 39.967945
21.196424 59.218769 40.818168
26.647783 54.190468 41.402309
26.390995 53.279458 42.51486
27.413271 52.841851 42.308668
39.338302 55.120106 31.952005
39.042049 54.258331 33.065641
43.391672 52.671837 30.668098
42.820059 53.889313 30.116259
44.025772 52.322602 29.985349
43.391672 52.671837 30.668098
44.580674 51.984821 29.264646
44.094048 53.238346 28.810047
44.025772 52.322602 29.985349
45.053051 51.611065 28.466999
44.580674 51.984821 29.264646
5.802443 88.231289 2.472503
6.389024 88.456913 3.96361
6.571945 88.723122 2.161666
5.994203 88.22414 -7.69809
6.849641 88.637062 -7.927636
6.18959 88.09119 -9.344938
5.891076 88.248386 -6.008641
5.994203 88.22414 -7.69809
5.723087 88.247101 -4.29585
6.486266 88.768726 -4.567996
5.891076 88.248386 -6.008641
5.630968 88.142441 -2.555798
5.723087 88.247101 -4.29585
5.464512 88.007469 -0.792917
6.151821 88.632469 -1.092323
5.630968 88.142441 -2.555798
5.360443 87.778324 0.985277
5.464512 88.007469 -0.792917
5.802443 88.231289 2.472503
5.360443 87.778324 0.985277
3 0 65 63
3 0 63 66
3 0 66 67
3 1 72 70
3 2 75 73
3 1 78 76
3 1 70 78
3 3 83 81
3 4 256 257
3 4 258 259
3 5 86 84
3 7 89 87
3 9 92 90
3 9 94 92
3 9 95 94
3 10 98 96
3 11 260 262
3 262 261 99
3 260 261 262
3 11 263 264
3 12 104 102
3 12 106 104
3 6 109 107
3 13 112 110
3 13 114 112
3 13 116 114
3 10 119 117
3 10 96 119
3 14 265 267
3 267 266 121
3 265 266 267
3 14 268 270
3 268 123 269
3 268 269 270
3 271 125 272
3 15 128 126
3 15 130 128
3 15 132 130
3 16 135 133
3 16 137 135
3 16 273 275
3 275 274 137
3 273 274 275
3 277 276 139
3 8 142 140
3 17 143 64
3 17 144 143
3 18 147 145
3 278 148 279
3 280 279 68
3 278 279 280
3 282 281 148
3 20 151 149
3 22 152 69
3 22 153 152
3 22 155 153
3 23 158 156
3 25 159 71
3 25 160 159
3 27 161 74
3 27 162 161
3 28 165 163
3 30 166 77
3 30 167 166
3 30 169 167
3 23 170 79
3 23 156 170
3 283 171 284
3 285 173 286
3 33 287 289
3 287 174 288
3 287 288 289
3 33 175 174
3 33 177 175
3 290 178 291
3 292 291 80
3 290 291 292
3 293 179 294
3 295 294 178
3 293 294 295
3 297 296 179
3 35 181 180
3 36 182 82
3 36 183 182
3 298 186 299
3 300 299 184
3 298 299 300
3 38 189 187
3 40 190 85
3 40 191 190
3 19 192 146
3 301 193 302
3 303 194 304
3 305 304 193
3 303 304 305
3 307 306 194
3 308 195 309
3 310 184 311
3 312 311 195
3 310 311 312
3 41 198 196
3 43 199 88
3 43 200 199
3 21 201 150
3 44 202 91
3 44 203 202
3 44 313 315
3 315 314 203
3 313 314 315
3 317 316 93
3 319 318 154
3 45 320 321
3 46 322 324
3 324 323 97
3 322 323 324
3 46 325 326
3 24 204 157
3 328 327 100
3 37 205 185
3 47 206 101
3 47 207 206
3 26 329 330
3 48 208 103
3 48 209 208
3 48 210 209
3 49 211 105
3 49 212 211
3 39 213 188
3 50 214 108
3 50 215 214
3 29 216 164
3 51 217 111
3 51 218 217
3 51 219 218
3 52 220 113
3 52 221 220
3 52 222 221
3 53 223 115
3 53 224 223
3 31 225 168
3 54 226 118
3 54 227 226
3 54 228 227
3 45 229 120
3 45 331 333
3 333 332 229
3 331 332 333
3 55 230 122
3 55 231 230
3 334 232 335
3 56 233 124
3 56 234 233
3 32 235 172
3 57 236 127
3 57 237 236
3 57 238 237
3 58 239 129
3 58 240 239
3 58 241 240
3 59 242 131
3 59 243 242
3 34 244 176
3 60 245 134
3 60 246 245
3 60 247 246
3 61 248 136
3 61 249 248
3 61 250 249
3 336 251 337
3 338 337 138
3 336 337 338
3 339 252 340
3 341 340 251
3 339 340 341
3 42 253 197
3 62 254 141
3 62 255 254
3 63 342 344
3 342 64 343
3 342 343 344
3 65 64 63
3 65 17 64
3 66 345 346
3 63 347 349
3 349 348 66
3 347 348 349
3 63 350 351
3 67 68 18
3 66 68 67
3 66 352 354
3 354 353 68
3 352 353 354
3 355 69 356
3 357 356 20
3 355 356 357
3 358 69 359
3 360 22 361
3 362 361 69
3 360 361 362
3 364 363 22
3 70 71 23
3 72 71 70
3 72 25 71
3 73 365 367
3 365 74 366
3 365 366 367
3 75 74 73
3 75 27 74
3 76 77 28
3 78 77 76
3 78 30 77
3 78 79 30
3 70 79 78
3 70 23 79
3 368 33 369
3 370 80 371
3 372 371 33
3 370 371 372
3 373 80 374
3 376 375 80
3 81 82 35
3 83 82 81
3 83 36 82
3 84 85 38
3 86 85 84
3 86 40 85
3 378 377 19
3 87 88 41
3 89 88 87
3 89 43 88
3 90 91 21
3 92 91 90
3 92 44 91
3 92 93 44
3 94 93 92
3 94 379 381
3 381 380 93
3 379 380 381
3 94 382 383
3 95 384 386
3 386 385 94
3 384 385 386
3 95 387 388
3 96 97 45
3 98 97 96
3 98 46 97
3 99 100 24
3 389 100 390
3 391 390 99
3 389 390 391
3 393 392 100
3 394 101 395
3 396 395 37
3 394 395 396
3 397 101 398
3 399 47 400
3 401 400 101
3 399 400 401
3 102 103 26
3 104 103 102
3 104 48 103
3 104 105 48
3 106 105 104
3 106 49 105
3 107 108 39
3 109 108 107
3 109 50 108
3 110 111 29
3 112 111 110
3 112 51 111
3 112 113 51
3 114 113 112
3 114 52 113
3 114 115 52
3 116 115 114
3 116 53 115
3 117 118 31
3 119 118 117
3 119 54 118
3 119 120 54
3 96 120 119
3 96 45 120
3 121 402 403
3 405 404 121
3 406 122 407
3 123 408 410
3 408 122 409
3 408 409 410
3 123 55 122
3 411 124 412
3 125 413 415
3 413 124 414
3 413 414 415
3 125 56 124
3 126 127 32
3 128 127 126
3 128 57 127
3 128 129 57
3 130 129 128
3 130 58 129
3 130 131 58
3 132 131 130
3 132 59 131
3 133 134 34
3 135 134 133
3 135 60 134
3 135 136 60
3 137 136 135
3 137 61 136
3 137 138 61
3 416 138 417
3 418 417 137
3 416 417 418
3 420 419 138
3 139 421 422
3 424 423 139
3 140 141 42
3 142 141 140
3 142 62 141
3 64 425 426
3 143 427 429
3 429 428 64
3 427 428 429
3 143 430 431
3 143 432 433
3 144 434 436
3 436 435 143
3 434 435 436
3 144 437 439
3 437 4 438
3 437 438 439
3 145 146 5
3 147 146 145
3 147 19 146
3 68 147 18
3 148 147 68
3 148 19 147
3 148 440 442
3 442 441 19
3 440 441 442
3 444 443 148
3 149 150 7
3 151 150 149
3 151 21 150
3 69 151 20
3 152 151 69
3 152 21 151
3 152 90 21
3 153 90 152
3 153 9 90
3 153 154 9
3 155 154 153
3 155 445 447
3 447 446 154
3 445 446 447
3 448 155 449
3 450 449 22
3 448 449 450
3 451 155 452
3 454 453 155
3 156 157 10
3 158 157 156
3 158 24 157
3 71 158 23
3 159 158 71
3 159 24 158
3 159 99 24
3 160 99 159
3 160 11 99
3 455 26 456
3 74 457 458
3 161 459 461
3 461 460 74
3 459 460 461
3 161 462 464
3 462 26 463
3 462 463 464
3 161 102 26
3 162 102 161
3 162 12 102
3 163 164 6
3 165 164 163
3 165 29 164
3 77 165 28
3 166 165 77
3 166 29 165
3 166 110 29
3 167 110 166
3 167 13 110
3 167 168 13
3 169 168 167
3 169 31 168
3 79 169 30
3 170 169 79
3 170 31 169
3 170 117 31
3 156 117 170
3 156 10 117
3 465 121 466
3 171 467 469
3 467 121 468
3 467 468 469
3 171 14 121
3 470 172 471
3 173 472 474
3 472 172 473
3 472 473 474
3 173 32 172
3 475 173 476
3 174 477 479
3 477 173 478
3 477 478 479
3 174 32 173
3 174 126 32
3 175 126 174
3 175 15 126
3 175 176 15
3 177 176 175
3 177 34 176
3 80 177 33
3 178 177 80
3 178 34 177
3 178 133 34
3 179 133 178
3 179 16 133
3 179 480 482
3 482 481 16
3 480 481 482
3 484 483 179
3 180 485 486
3 181 487 489
3 489 488 180
3 487 488 489
3 181 490 491
3 82 181 35
3 182 181 82
3 182 492 494
3 494 493 181
3 492 493 494
3 182 495 497
3 495 139 496
3 495 496 497
3 183 139 182
3 183 498 500
3 500 499 139
3 498 499 500
3 502 501 8
3 184 185 1
3 186 185 184
3 186 37 185
3 503 186 504
3 505 186 506
3 507 37 508
3 509 508 186
3 507 508 509
3 511 510 37
3 187 188 2
3 189 188 187
3 189 39 188
3 85 189 38
3 190 189 85
3 190 39 189
3 190 107 39
3 191 107 190
3 191 6 107
3 146 86 5
3 192 86 146
3 192 40 86
3 512 192 513
3 514 513 19
3 512 513 514
3 193 515 517
3 515 192 516
3 515 516 517
3 193 40 192
3 193 191 40
3 194 191 193
3 194 6 191
3 194 163 6
3 518 163 519
3 520 519 194
3 518 519 520
3 521 28 522
3 523 522 163
3 521 522 523
3 195 524 525
3 195 526 528
3 526 28 527
3 526 527 528
3 195 76 28
3 184 76 195
3 184 1 76
3 196 197 3
3 198 197 196
3 198 42 197
3 88 198 41
3 199 198 88
3 199 42 198
3 199 140 42
3 200 140 199
3 200 8 140
3 150 89 7
3 201 89 150
3 201 43 89
3 91 201 21
3 202 201 91
3 202 43 201
3 202 200 43
3 203 200 202
3 203 8 200
3 203 529 531
3 531 530 8
3 529 530 531
3 533 532 203
3 93 534 536
3 536 535 44
3 534 535 536
3 538 537 93
3 154 95 9
3 539 95 540
3 541 540 154
3 539 540 541
3 543 542 95
3 97 544 546
3 546 545 45
3 544 545 546
3 548 547 97
3 157 98 10
3 204 98 157
3 204 46 98
3 100 204 24
3 549 204 550
3 551 550 100
3 549 550 551
3 552 46 553
3 554 553 204
3 552 553 554
3 556 555 46
3 185 72 1
3 205 72 185
3 205 25 72
3 101 205 37
3 206 205 101
3 206 25 205
3 206 160 25
3 207 160 206
3 207 11 160
3 557 47 558
3 559 47 560
3 561 207 562
3 563 562 47
3 561 562 563
3 564 207 565
3 566 11 567
3 568 567 207
3 566 567 568
3 570 569 11
3 103 571 573
3 573 572 26
3 571 572 573
3 208 574 576
3 576 575 103
3 574 575 576
3 208 577 578
3 208 579 580
3 209 581 583
3 583 582 208
3 581 582 583
3 209 584 585
3 209 586 588
3 586 180 587
3 586 587 588
3 210 180 209
3 210 35 180
3 105 210 48
3 211 210 105
3 211 35 210
3 211 81 35
3 212 81 211
3 212 3 81
3 188 75 2
3 213 75 188
3 213 27 75
3 108 213 39
3 214 213 108
3 214 27 213
3 214 162 27
3 215 162 214
3 215 12 162
3 164 109 6
3 216 109 164
3 216 50 109
3 111 216 29
3 217 216 111
3 217 50 216
3 217 215 50
3 218 215 217
3 218 12 215
3 218 106 12
3 219 106 218
3 219 49 106
3 113 219 51
3 220 219 113
3 220 49 219
3 220 212 49
3 221 212 220
3 221 3 212
3 221 196 3
3 222 196 221
3 222 41 196
3 115 222 52
3 223 222 115
3 223 41 222
3 223 87 41
3 224 87 223
3 224 7 87
3 168 116 13
3 225 116 168
3 225 53 116
3 118 225 31
3 226 225 118
3 226 53 225
3 226 224 53
3 227 224 226
3 227 7 224
3 227 149 7
3 228 149 227
3 228 20 149
3 120 228 54
3 229 228 120
3 229 20 228
3 229 589 591
3 591 590 20
3 589 590 591
3 593 592 229
3 122 594 595
3 230 596 598
3 598 597 122
3 596 597 598
3 230 599 600
3 230 601 603
3 601 73 602
3 601 602 603
3 231 73 230
3 231 2 73
3 232 604 605
3 232 606 607
3 124 608 610
3 608 232 609
3 608 609 610
3 233 232 124
3 233 611 613
3 613 612 232
3 611 612 613
3 233 614 616
3 614 171 615
3 614 615 616
3 234 171 233
3 234 14 171
3 172 617 619
3 617 125 618
3 617 618 619
3 235 125 172
3 235 56 125
3 127 235 32
3 236 235 127
3 236 56 235
3 236 234 56
3 237 234 236
3 237 14 234
3 237 123 14
3 238 123 237
3 238 55 123
3 129 238 57
3 239 238 129
3 239 55 238
3 239 231 55
3 240 231 239
3 240 2 231
3 240 187 2
3 241 187 240
3 241 38 187
3 131 241 58
3 242 241 131
3 242 38 241
3 242 84 38
3 243 84 242
3 243 5 84
3 176 132 15
3 244 132 176
3 244 59 132
3 134 244 34
3 245 244 134
3 245 59 244
3 245 243 59
3 246 243 245
3 246 5 243
3 246 145 5
3 247 145 246
3 247 18 145
3 136 247 60
3 248 247 136
3 248 18 247
3 248 67 18
3 249 67 248
3 249 0 67
3 249 65 0
3 250 65 249
3 250 17 65
3 138 250 61
3 251 250 138
3 251 17 250
3 251 144 17
3 252 144 251
3 252 4 144
3 621 620 16
3 622 252 623
3 624 252 625
3 626 4 627
3 628 627 252
3 626 627 628
3 630 629 4
3 197 83 3
3 253 83 197
3 253 36 83
3 141 253 42
3 254 253 141
3 254 36 253
3 254 183 36
3 255 183 254
3 255 631 633
3 633 632 183
3 631 632 633
3 634 142 635
3 636 635 8
3 634 635 636
3 637 142 638
3 639 62 640
3 641 640 142
3 639 640 641
3 642 62 643
3 644 255 645
3 646 645 62
3 644 645 646
3 647 255 648
3 650 649 255
