ply
format ascii 1.0
element vertex 575
property float x
property float y
property float z
element face 617
property list uchar int vertex_index
end_header
53.700081 8.191698 44.557236
65.689178 6.592344 24.91814
61.373314 10.775881 10.800816
57.494011 1.25563 40.735809
56.090893 16.77103 18.7694
64.360313 9.00452 17.35527
57.374821 13.136543 26.880898
49.82391 14.198208 36.610695
59.462536 8.458462 34.711159
63.198608 1.128195 31.983908
43.844425 4.926525 11.826288
50.940903 2.91194 11.220535
51.627907 18.565186 23.573189
56.403816 14.884102 22.706341
51.962898 16.098511 27.592045
52.059422 11.319004 40.769127
55.114471 11.235775 35.914516
56.466133 8.276426 39.656025
57.533897 -2.531191 39.055077
60.229912 1.456619 36.172394
60.712139 -2.455576 35.372002
47.239311 3.955757 11.766649
59.102226 16.017471 11.120312
59.661469 12.151119 8.559456
58.034004 7.389765 8.507599
60.879627 6.290035 9.590255
63.466705 5.534107 11.566449
65.39563 8.091986 21.129536
67.758705 2.193176 24.562481
56.518562 4.82172 42.874001
59.643238 14.261608 14.193982
62.939209 9.775532 13.828311
60.37886 12.883457 17.87055
61.3325 11.685726 21.880909
62.236992 10.235237 25.926136
45.190235 18.185452 37.097775
48.011047 17.02673 32.337894
53.313007 13.763206 31.808084
58.622139 11.110453 30.974552
62.62315 8.093658 29.726557
59.193283 5.116793 37.95623
62.01738 5.106325 33.128986
64.963394 4.245872 28.544853
66.266815 -0.075745 28.353424
41.042648 5.765482 10.999386
54.850883 8.73764 8.390144
54.695423 1.886515 10.739973
65.740944 5.045973 14.214615
49.404587 19.310081 25.920404
51.651665 17.298092 25.539959
49.477898 17.904465 27.907692
53.016884 9.796719 42.724068
54.414406 9.765585 40.286648
55.055969 8.190758 42.112007
57.667648 -4.396601 38.752075
59.088177 -2.43931 37.147926
60.232849 13.376389 10.816487
59.665089 14.199757 9.562768
60.545948 11.417034 9.563999
60.289871 9.217936 8.918695
61.405067 8.648443 9.881994
62.203789 5.869175 10.480048
62.465233 8.173056 11.061829
65.656677 7.439072 23.035566
66.945152 5.991402 20.893122
67.043129 5.323008 22.748264
68.115379 3.04682 22.693609
66.865837 4.455215 24.604469
54.118267 18.947491 19.348179
56.198067 17.846214 16.970533
57.986755 16.572514 14.667928
58.046917 15.626274 16.40387
59.977913 13.530869 15.972904
58.218216 14.777145 18.273645
56.822201 14.01693 24.783215
58.922745 13.282055 22.292553
59.417591 12.547087 24.368576
61.817131 11.023197 23.91824
59.948051 11.741779 26.435162
48.418049 14.537083 39.017555
46.132252 16.590443 39.277794
47.325489 16.031429 36.860027
46.438263 17.550316 34.703964
48.807678 15.604836 34.471245
50.560726 15.26178 32.091419
51.466057 13.963013 34.215347
57.488129 9.883509 35.384319
56.827503 11.222994 33.462395
59.141457 9.87401 32.899769
60.83609 9.696993 30.38866
61.033249 8.387081 32.218483
57.208527 3.077631 41.820549
57.841755 4.972841 40.409286
58.518921 3.23629 39.396488
61.686966 1.383793 34.022079
61.265465 3.34454 34.686169
62.713634 3.169043 32.433395
63.485168 4.810801 30.789845
64.19873 2.767113 30.282345
65.68837 2.100618 28.271671
64.740402 0.650681 30.083345
43.953304 8.898647 10.897243
42.392361 9.415472 10.695009
42.353149 5.367002 11.539721
49.069649 3.438725 11.521382
56.41106 11.382809 7.559142
58.216763 4.191509 9.552036
56.534737 4.718222 9.403024
56.543308 1.424438 10.683702
63.67823 9.38019 15.545873
64.426186 7.46339 13.929968
65.289848 7.17293 15.55494
53.903976 17.735302 21.181456
56.155922 15.789745 20.690254
53.921436 16.612503 23.129665
54.178017 15.560921 25.167294
54.655525 14.544777 27.259621
49.599976 13.042786 41.141945
50.950592 12.778402 38.721008
52.492355 12.632843 36.310867
53.518593 11.241228 38.344437
55.906624 9.817892 37.843136
57.935928 8.392038 37.190369
57.536469 -0.628527 39.761299
58.834263 1.395824 38.415665
58.961136 -0.515026 37.616875
60.455078 -0.499884 35.582905
62.014076 -0.627287 33.671547
63.618393 -0.934984 31.896507
45.650436 8.34219 10.875944
45.485111 4.453873 11.887527
47.44352 7.757051 10.678284
49.290661 7.150736 10.364773
51.152042 6.530769 10.006739
58.813427 17.025078 9.880653
59.028652 15.103432 8.545489
58.684982 12.962315 7.81319
57.815964 10.604387 7.750852
59.101498 9.875347 8.202601
59.49316 6.799688 8.926099
59.841038 3.734936 9.923486
61.409821 3.359318 10.513569
62.919273 3.065536 11.305058
64.35363 2.84343 12.276407
64.947868 8.594946 19.226376
66.02784 6.86669 17.272696
66.594551 6.490744 19.060019
55.342251 6.508017 43.799603
55.208488 4.714842 45.3358
55.919975 2.924932 44.268875
56.195053 1.088215 43.115902
56.17429 -0.794136 42.002701
58.004154 17.614777 13.089809
59.362171 15.091103 12.566467
60.775543 12.648895 12.278263
62.16806 10.232065 12.234786
61.322605 12.020235 13.913683
61.885544 11.477396 15.686755
62.457188 10.989893 17.562124
58.513084 14.007885 20.247999
60.838966 12.285326 19.852179
63.013237 10.510889 19.505102
63.515205 9.981684 21.4809
63.914543 9.339758 23.454758
64.157913 8.5291 25.394115
45.846214 19.115864 32.584061
47.514076 18.491348 30.246822
49.875149 16.564098 29.976181
52.535545 14.934158 29.694618
55.308517 13.516113 29.366337
54.209206 12.54257 33.893112
56.064392 12.423723 31.446346
58.001728 12.185295 28.95764
60.447151 10.807039 28.452972
62.527618 9.269588 27.870754
64.193146 7.510134 27.272259
56.692463 6.609249 41.336273
58.075649 6.750805 38.867126
59.499847 6.866646 36.397171
59.867607 3.346291 37.013397
60.584023 5.185743 35.525208
60.966198 6.876812 33.930592
62.466 6.700438 31.479548
63.977478 6.267616 29.072262
65.462631 5.528027 26.757671
66.408905 3.377712 26.447235
67.128746 1.147825 26.450563
41.003502 9.875572 10.235382
39.937668 6.106876 10.189887
52.994072 5.907806 9.680573
56.489471 8.042934 8.336325
54.792694 5.297176 9.459251
52.823421 2.388758 10.937243
63.4758 7.785063 12.422529
64.655289 5.269108 12.819647
65.68277 2.671635 13.409039
48.383737 19.665218 27.076033
48.48703 20.467337 26.119329
48.420393 18.96241 28.069676
49.441243 18.607273 26.914048
48.383737 19.665218 27.076033
52.704052 9.07173 44.856324
53.042866 8.248278 45.76858
53.358482 8.994208 43.640652
52.362454 9.87424 43.93974
52.704052 9.07173 44.856324
58.517736 -4.356735 37.932926
57.861275 -5.286482 38.838518
43.042263 3.15164 12.105228
42.296625 3.371879 11.961945
43.098787 5.146764 11.683004
43.753399 2.967805 12.303778
43.042263 3.15164 12.105228
49.86729 1.342081 11.996582
48.931663 1.605474 12.147005
50.005276 3.175332 11.370959
50.812664 1.125852 11.882849
49.86729 1.342081 11.996582
56.995195 12.605423 7.447235
56.362864 13.053528 7.336762
57.451487 1.222361 10.743871
57.380036 2.807974 10.117869
58.288214 2.605896 10.178038
56.533121 -0.198552 11.38607
57.451487 1.222361 10.743871
51.75855 19.24086 22.645105
50.643608 19.680119 23.806537
52.765941 18.150244 22.377322
52.896585 18.825918 21.449239
51.75855 19.24086 22.645105
50.829699 12.180895 40.955536
50.170216 12.282871 42.170502
51.399939 11.42098 41.984093
61.549883 -2.535493 34.551266
62.200851 -1.621348 33.701038
61.363107 -1.541432 34.521774
46.616966 9.960276 10.291943
45.699736 10.296992 10.411723
47.513508 9.667706 10.193112
46.546978 8.04962 10.777114
46.616966 9.960276 10.291943
50.300717 8.661264 9.668029
49.37153 9.016752 9.861673
51.231407 8.351281 9.489012
50.221351 6.840753 10.185756
50.300717 8.661264 9.668029
58.957826 16.521275 10.500483
58.429516 17.881155 10.784249
58.573915 17.377351 11.404078
67.443825 5.097837 19.982148
67.560974 4.851122 20.875036
68.345997 1.445628 23.76094
68.524334 1.87245 22.826504
67.937042 2.619998 23.628045
68.102291 1.04783 24.718198
68.345997 1.445628 23.76094
54.55114 4.697169 46.553737
54.610256 5.601755 45.790229
55.419529 1.930436 44.901589
55.277102 2.870394 45.49371
55.557068 1.012077 44.325102
56.057514 2.006574 43.692388
55.419529 1.930436 44.901589
55.409935 -1.837963 42.61969
55.517679 -0.881825 43.163071
56.114344 -1.742984 41.545339
55.409935 -1.837963 42.61969
57.224289 18.314763 14.200962
57.389853 18.937677 13.447228
44.72678 18.573309 38.31465
45.197789 17.775804 39.40466
45.661243 17.387948 38.187784
44.373966 19.421315 37.222162
44.72678 18.573309 38.31465
44.857285 19.00609 36.021578
44.373966 19.421315 37.222162
66.988746 -0.570972 27.593494
67.419712 0.040813 26.642063
66.69778 0.53604 27.401993
64.423687 -1.19351 31.085964
63.849182 -1.94148 32.061779
40.517181 3.889757 10.913185
39.964691 4.060454 10.508436
40.490158 5.936179 10.594637
46.244693 2.28574 12.358322
45.367593 2.534798 12.418761
46.362211 4.204815 11.827088
53.985291 9.095271 8.506745
54.862223 10.462839 7.994655
53.922477 7.322723 9.035359
53.056885 7.680354 9.15196
53.985291 9.095271 8.506745
53.655897 0.402539 11.527589
52.719896 0.653661 11.626224
53.759422 2.137637 10.838608
66.355228 5.846101 16.502454
66.730087 5.713932 17.314597
49.531948 20.052566 24.980145
48.48703 20.467337 26.119329
50.516247 18.937634 24.746797
50.643608 19.680119 23.806537
49.531948 20.052566 24.980145
51.87867 10.659838 42.961563
52.362454 9.87424 43.93974
52.538153 10.557861 41.746598
51.399939 11.42098 41.984093
51.87867 10.659838 42.961563
59.228001 -3.378089 37.130851
58.377913 -3.417956 37.950001
58.517736 -4.356735 37.932926
60.039982 -3.386222 36.24289
59.900158 -2.447443 36.259964
59.228001 -3.378089 37.130851
60.915184 -3.403187 35.489134
60.039982 -3.386222 36.24289
67.609962 4.516925 21.802606
67.560974 4.851122 20.875036
66.99414 5.657205 21.820693
67.579254 4.184914 22.720937
68.146087 3.378831 21.775279
67.609962 4.516925 21.802606
54.32575 19.598081 18.496302
53.262903 20.149425 19.666173
55.365651 19.047443 17.307479
54.32575 19.598081 18.496302
55.158167 18.396853 18.159356
56.321246 18.430481 16.141324
55.365651 19.047443 17.307479
57.092411 17.209364 15.81923
57.21559 17.793631 14.990022
56.321246 18.430481 16.141324
47.275151 15.563763 39.147675
46.692879 15.806513 40.36435
47.835778 14.779833 40.23423
43.172832 9.157059 10.796126
43.193895 11.154146 10.355082
43.974367 10.895734 10.456198
41.681595 3.540578 11.637704
41.026344 3.739818 11.367537
41.697899 5.566242 11.269554
41.681595 3.540578 11.637704
42.296625 3.371879 11.961945
48.020634 1.819935 12.225271
47.105465 2.078451 12.347905
48.15448 3.697241 11.644015
48.020634 1.819935 12.225271
48.931663 1.605474 12.147005
55.642311 11.785424 7.579154
56.362864 13.053528 7.336762
55.630972 10.060225 7.974643
54.862223 10.462839 7.994655
55.642311 11.785424 7.579154
55.555605 -0.024862 11.414905
54.631662 0.206176 11.443041
55.619366 1.655477 10.711838
55.555605 -0.024862 11.414905
56.533121 -0.198552 11.38607
53.003731 19.432012 20.532601
53.262903 20.149425 19.666173
54.011122 18.341397 20.264817
53.003731 19.432012 20.532601
52.896585 18.825918 21.449239
49.017635 13.250805 42.361603
50.170216 12.282871 42.170502
48.426741 14.032684 41.296425
49.017635 13.250805 42.361603
49.009012 13.789935 40.07975
47.835778 14.779833 40.23423
48.426741 14.032684 41.296425
63.00301 -1.775197 32.813519
62.816235 -0.781135 32.784027
62.200851 -1.621348 33.701038
63.849182 -1.94148 32.061779
63.00301 -1.775197 32.813519
61.549883 -2.535493 34.551266
60.915184 -3.403187 35.489134
44.851169 10.57522 10.422372
43.974367 10.895734 10.456198
44.80187 8.620418 10.886594
44.851169 10.57522 10.422372
45.699736 10.296992 10.411723
48.44796 9.31991 10.018428
47.513508 9.667706 10.193112
48.367091 7.453893 10.521528
48.44796 9.31991 10.018428
49.37153 9.016752 9.861673
58.427473 18.469736 10.177215
58.429516 17.881155 10.784249
58.623644 17.557272 9.372599
58.427473 18.469736 10.177215
58.731257 16.596449 8.705018
58.623644 17.557272 9.372599
58.921039 16.064255 9.213071
58.650759 15.583704 8.163489
58.731257 16.596449 8.705018
58.478924 14.513146 7.797339
58.650759 15.583704 8.163489
58.856817 14.032874 8.179339
58.132156 13.395176 7.574259
58.478924 14.513146 7.797339
58.250473 11.783351 7.782021
57.697647 12.216212 7.54309
58.132156 13.395176 7.574259
59.100352 2.37761 10.363763
58.288214 2.605896 10.178038
59.0289 3.963222 9.737761
59.990045 2.210815 10.519848
59.100352 2.37761 10.363763
60.774437 2.023007 10.814889
59.990045 2.210815 10.519848
60.625429 3.547127 10.218528
61.641132 1.893777 11.066408
60.774437 2.023007 10.814889
62.395859 1.746886 11.462152
61.641132 1.893777 11.066408
62.164547 3.212427 10.909313
63.230464 1.652739 11.804501
62.395859 1.746886 11.462152
63.947643 1.541686 12.290176
63.230464 1.652739 11.804501
63.636451 2.954483 11.790733
64.734615 1.475342 12.718442
63.947643 1.541686 12.290176
67.013443 5.525959 18.208259
66.730087 5.713932 17.314597
66.311195 6.678717 18.166358
67.268524 5.347508 19.065596
66.769851 6.241073 19.976571
67.443825 5.097837 19.982148
67.013443 5.525959 18.208259
67.268524 5.347508 19.065596
68.622131 2.184314 21.8995
68.146087 3.378831 21.775279
68.622131 2.184314 21.8995
68.524334 1.87245 22.826504
53.856052 7.340183 45.400948
53.042866 8.248278 45.76858
54.677138 6.498342 45.022131
54.521166 7.349858 44.17842
53.856052 7.340183 45.400948
55.275369 5.611429 44.567701
54.677138 6.498342 45.022131
54.610256 5.601755 45.790229
54.921358 3.76535 46.027172
54.55114 4.697169 46.553737
55.564232 3.819887 44.802338
54.921358 3.76535 46.027172
55.277102 2.870394 45.49371
55.528061 0.059351 43.719672
55.557068 1.012077 44.325102
56.184672 0.147039 42.559302
55.528061 0.059351 43.719672
55.517679 -0.881825 43.163071
56.795434 -1.66018 40.424639
56.855379 -0.711332 40.882
56.114344 -1.742984 41.545339
56.794148 -2.611512 40.071528
57.535183 -1.579859 39.408188
56.795434 -1.66018 40.424639
56.785381 -3.543867 39.791157
56.794148 -2.611512 40.071528
56.852256 -4.476572 39.639656
57.600773 -3.463896 38.903576
56.785381 -3.543867 39.791157
56.971432 -5.367459 39.591575
56.852256 -4.476572 39.639656
57.861275 -5.286482 38.838518
56.971432 -5.367459 39.591575
58.024879 18.176004 12.388827
57.389853 18.937677 13.447228
58.55319 16.816124 12.105061
58.573915 17.377351 11.404078
58.024879 18.176004 12.388827
57.995455 17.093646 13.878868
57.224289 18.314763 14.200962
57.21559 17.793631 14.990022
45.673075 16.946846 40.505018
46.692879 15.806513 40.36435
45.673075 16.946846 40.505018
45.197789 17.775804 39.40466
45.481299 18.688522 34.824672
44.857285 19.00609 36.021578
45.814249 17.867884 35.900869
45.185274 19.471297 33.764721
45.481299 18.688522 34.824672
46.142239 18.33309 33.644013
45.023523 20.32208 32.718384
45.185274 19.471297 33.764721
45.726114 19.930446 31.558519
44.903423 21.136663 31.692843
45.023523 20.32208 32.718384
46.560045 19.618188 30.3899
45.726114 19.930446 31.558519
46.680145 18.803606 31.415442
47.438482 19.255851 29.239241
46.560045 19.618188 30.3899
48.495987 18.197906 29.077257
48.420393 18.96241 28.069676
47.438482 19.255851 29.239241
67.787312 0.525155 25.662239
68.102291 1.04783 24.718198
67.443725 1.6705 25.506522
67.787312 0.525155 25.662239
67.419712 0.040813 26.642063
64.984691 -0.400678 30.179383
64.179397 -0.142152 30.989926
64.423687 -1.19351 31.085964
65.747898 -0.763891 29.314422
65.503608 0.287468 29.218384
64.984691 -0.400678 30.179383
66.526314 -1.137134 28.592386
65.747898 -0.763891 29.314422
66.988746 -0.570972 27.593494
66.526314 -1.137134 28.592386
42.379702 11.449877 10.277669
43.193895 11.154146 10.355082
41.685272 11.679927 10.047855
42.379702 11.449877 10.277669
41.697931 9.645522 10.465196
40.953884 11.93803 9.839753
41.685272 11.679927 10.047855
40.410126 10.065158 9.865956
40.953884 11.93803 9.839753
39.877209 8.18081 9.843208
40.410126 10.065158 9.865956
40.470585 7.991224 10.212635
39.496403 6.238586 9.648295
39.435944 8.31252 9.301616
39.877209 8.18081 9.843208
39.56675 4.185789 9.925177
39.496403 6.238586 9.648295
39.56675 4.185789 9.925177
39.964691 4.060454 10.508436
40.517181 3.889757 10.913185
41.026344 3.739818 11.367537
44.573742 2.731479 12.334398
43.753399 2.967805 12.303778
44.664768 4.690199 11.856908
44.573742 2.731479 12.334398
45.367593 2.534798 12.418761
46.244693 2.28574 12.358322
47.105465 2.078451 12.347905
52.13587 7.991836 9.315043
51.231407 8.351281 9.489012
52.073057 6.219288 9.843656
52.13587 7.991836 9.315043
53.056885 7.680354 9.15196
57.113512 10.993598 7.654997
56.995195 12.605423 7.447235
57.697647 12.216212 7.54309
51.753923 0.864261 11.741203
50.812664 1.125852 11.882849
51.882162 2.650349 11.078889
51.753923 0.864261 11.741203
52.719896 0.653661 11.626224
53.655897 0.402539 11.527589
54.631662 0.206176 11.443041
65.399186 1.389445 13.284758
64.734615 1.475342 12.718442
65.0182 2.757532 12.842723
65.986232 5.999221 15.643576
65.658844 7.01981 16.413818
66.355228 5.846101 16.502454
66.211781 4.935742 14.973413
65.515396 6.109452 14.884778
65.986232 5.999221 15.643576
66.30222 3.782606 14.452109
66.211781 4.935742 14.973413
66.273133 2.595437 14.049321
65.711857 3.858804 13.811827
66.30222 3.782606 14.452109
66.116154 1.339495 13.796062
66.273133 2.595437 14.049321
65.399186 1.389445 13.284758
66.116154 1.339495 13.796062
3 196 48 197
3 198 50 199
3 200 199 48
3 198 199 200
3 0 201 202
3 0 203 205
3 203 51 204
3 203 204 205
3 0 53 51
3 207 206 54
3 2 58 56
3 2 60 58
3 2 62 60
3 1 65 63
3 1 67 65
3 4 69 68
3 4 71 69
3 4 73 71
3 6 76 74
3 6 78 76
3 7 81 79
3 7 83 81
3 7 85 83
3 8 88 86
3 8 90 88
3 3 93 91
3 9 96 94
3 9 98 96
3 9 100 98
3 10 103 101
3 10 208 210
3 210 209 103
3 208 209 210
3 10 211 212
3 11 213 215
3 215 214 104
3 213 214 215
3 11 216 217
3 218 105 219
3 220 108 221
3 222 221 106
3 220 221 222
3 224 223 108
3 5 111 109
3 12 225 226
3 12 227 229
3 227 112 228
3 227 228 229
3 12 114 112
3 14 115 49
3 14 116 115
3 15 230 232
3 230 117 231
3 230 231 232
3 15 118 117
3 15 120 118
3 17 121 52
3 17 122 121
3 18 125 123
3 20 126 55
3 20 127 126
3 20 233 235
3 235 234 127
3 233 234 235
3 236 129 237
3 238 131 239
3 240 239 129
3 238 239 240
3 241 132 242
3 243 133 244
3 245 244 132
3 243 244 245
3 22 246 248
3 246 134 247
3 246 247 248
3 23 135 57
3 23 136 135
3 23 138 136
3 25 139 59
3 25 140 139
3 25 141 140
3 26 142 61
3 26 143 142
3 27 146 144
3 250 249 64
3 28 251 253
3 253 252 66
3 251 252 253
3 28 254 255
3 256 148 257
3 258 149 259
3 260 150 261
3 262 261 149
3 260 261 262
3 263 151 264
3 266 265 151
3 267 152 268
3 30 153 70
3 30 154 153
3 30 156 154
3 32 157 72
3 32 158 157
3 13 159 113
3 33 160 75
3 33 161 160
3 33 162 161
3 34 163 77
3 34 164 163
3 35 269 271
3 271 270 80
3 269 270 271
3 35 272 273
3 35 274 275
3 36 165 82
3 36 166 165
3 36 167 166
3 37 168 84
3 37 169 168
3 16 170 119
3 38 171 87
3 38 172 171
3 38 173 172
3 39 174 89
3 39 175 174
3 29 176 147
3 40 177 92
3 40 178 177
3 19 179 124
3 41 180 95
3 41 181 180
3 41 182 181
3 42 183 97
3 42 184 183
3 42 185 184
3 43 186 99
3 43 276 278
3 278 277 186
3 276 277 278
3 280 279 128
3 44 187 102
3 44 188 187
3 44 281 283
3 283 282 188
3 281 282 283
3 21 284 286
3 286 285 130
3 284 285 286
3 45 287 288
3 45 289 291
3 289 189 290
3 289 290 291
3 24 190 137
3 46 191 107
3 46 192 191
3 46 292 294
3 294 293 192
3 292 293 294
3 31 193 155
3 47 194 110
3 47 195 194
3 296 295 145
3 48 297 298
3 48 299 301
3 299 12 300
3 299 300 301
3 48 49 12
3 50 49 48
3 50 14 49
3 51 302 303
3 51 304 306
3 304 15 305
3 304 305 306
3 51 52 15
3 53 52 51
3 53 17 52
3 54 55 18
3 307 55 308
3 309 308 54
3 307 308 309
3 310 20 311
3 312 311 55
3 310 311 312
3 314 313 20
3 56 57 22
3 58 57 56
3 58 23 57
3 58 59 23
3 60 59 58
3 60 25 59
3 60 61 25
3 62 61 60
3 62 26 61
3 63 64 27
3 65 64 63
3 65 315 317
3 317 316 64
3 315 316 317
3 65 318 320
3 318 66 319
3 318 319 320
3 67 66 65
3 67 28 66
3 68 321 322
3 69 323 325
3 325 324 68
3 323 324 325
3 69 326 327
3 69 328 330
3 328 70 329
3 328 329 330
3 71 70 69
3 71 30 70
3 71 72 30
3 73 72 71
3 73 32 72
3 74 75 13
3 76 75 74
3 76 33 75
3 76 77 33
3 78 77 76
3 78 34 77
3 79 331 333
3 331 80 332
3 331 332 333
3 81 80 79
3 81 35 80
3 81 82 35
3 83 82 81
3 83 36 82
3 83 84 36
3 85 84 83
3 85 37 84
3 86 87 16
3 88 87 86
3 88 38 87
3 88 89 38
3 90 89 88
3 90 39 89
3 91 92 29
3 93 92 91
3 93 40 92
3 94 95 19
3 96 95 94
3 96 41 95
3 96 97 41
3 98 97 96
3 98 42 97
3 98 99 42
3 100 99 98
3 100 43 99
3 101 334 336
3 334 102 335
3 334 335 336
3 103 102 101
3 103 44 102
3 103 337 339
3 339 338 44
3 337 338 339
3 341 340 103
3 104 342 344
3 344 343 21
3 342 343 344
3 346 345 104
3 105 347 348
3 105 349 351
3 349 45 350
3 349 350 351
3 106 107 24
3 108 107 106
3 108 46 107
3 108 352 354
3 354 353 46
3 352 353 354
3 356 355 108
3 109 110 31
3 111 110 109
3 111 47 110
3 357 68 358
3 112 359 361
3 359 68 360
3 359 360 361
3 112 4 68
3 112 113 4
3 114 113 112
3 114 13 113
3 49 114 12
3 115 114 49
3 115 13 114
3 115 74 13
3 116 74 115
3 116 6 74
3 117 362 363
3 117 364 365
3 117 366 368
3 366 79 367
3 366 367 368
3 118 79 117
3 118 7 79
3 118 119 7
3 120 119 118
3 120 16 119
3 52 120 15
3 121 120 52
3 121 16 120
3 121 86 16
3 122 86 121
3 122 8 86
3 123 124 3
3 125 124 123
3 125 19 124
3 55 125 18
3 126 125 55
3 126 19 125
3 126 94 19
3 127 94 126
3 127 9 94
3 127 128 9
3 369 128 370
3 371 370 127
3 369 370 371
3 373 372 128
3 375 374 20
3 376 101 377
3 129 378 380
3 378 101 379
3 378 379 380
3 129 10 101
3 129 130 10
3 131 130 129
3 131 21 130
3 381 131 382
3 132 383 385
3 383 131 384
3 383 384 385
3 132 21 131
3 132 104 21
3 133 104 132
3 133 11 104
3 134 386 387
3 134 388 389
3 57 134 22
3 135 134 57
3 135 390 392
3 392 391 134
3 390 391 392
3 135 393 394
3 136 395 397
3 397 396 135
3 395 396 397
3 136 398 399
3 136 400 402
3 400 137 401
3 400 401 402
3 138 137 136
3 138 24 137
3 59 138 23
3 139 138 59
3 139 24 138
3 139 106 24
3 140 106 139
3 140 403 405
3 405 404 106
3 403 404 405
3 140 406 407
3 141 408 410
3 410 409 140
3 408 409 410
3 141 411 412
3 61 141 25
3 142 141 61
3 142 413 415
3 415 414 141
3 413 414 415
3 142 416 417
3 143 418 420
3 420 419 142
3 418 419 420
3 143 421 422
3 144 145 5
3 146 145 144
3 146 423 425
3 425 424 145
3 423 424 425
3 64 146 27
3 426 146 427
3 428 427 64
3 426 427 428
3 430 429 146
3 66 431 432
3 434 433 66
3 435 0 436
3 437 147 438
3 439 438 0
3 437 438 439
3 148 440 442
3 440 147 441
3 440 441 442
3 148 29 147
3 443 148 444
3 149 445 447
3 445 148 446
3 445 446 447
3 149 29 148
3 149 91 29
3 150 91 149
3 150 3 91
3 448 150 449
3 151 450 452
3 450 150 451
3 450 451 452
3 151 3 150
3 151 123 3
3 453 123 454
3 455 454 151
3 453 454 455
3 456 18 457
3 458 457 123
3 456 457 458
3 459 18 460
3 461 54 462
3 463 462 18
3 461 462 463
3 464 54 465
3 467 466 54
3 152 468 469
3 152 470 472
3 470 22 471
3 470 471 472
3 70 473 475
3 473 152 474
3 473 474 475
3 153 152 70
3 153 22 152
3 153 56 22
3 154 56 153
3 154 2 56
3 154 155 2
3 156 155 154
3 156 31 155
3 72 156 30
3 157 156 72
3 157 31 156
3 157 109 31
3 158 109 157
3 158 5 109
3 113 73 4
3 159 73 113
3 159 32 73
3 75 159 13
3 160 159 75
3 160 32 159
3 160 158 32
3 161 158 160
3 161 5 158
3 161 144 5
3 162 144 161
3 162 27 144
3 77 162 33
3 163 162 77
3 163 27 162
3 163 63 27
3 164 63 163
3 164 1 63
3 80 476 477
3 479 478 80
3 82 480 482
3 482 481 35
3 480 481 482
3 165 483 485
3 485 484 82
3 483 484 485
3 165 486 487
3 165 488 490
3 488 489 490
3 166 491 493
3 493 492 165
3 491 492 493
3 166 494 495
3 166 496 498
3 496 50 497
3 496 497 498
3 167 50 166
3 167 14 50
3 84 167 36
3 168 167 84
3 168 14 167
3 168 116 14
3 169 116 168
3 169 6 116
3 119 85 7
3 170 85 119
3 170 37 85
3 87 170 16
3 171 170 87
3 171 37 170
3 171 169 37
3 172 169 171
3 172 6 169
3 172 78 6
3 173 78 172
3 173 34 78
3 89 173 38
3 174 173 89
3 174 34 173
3 174 164 34
3 175 164 174
3 175 1 164
3 147 53 0
3 176 53 147
3 176 17 53
3 92 176 29
3 177 176 92
3 177 17 176
3 177 122 17
3 178 122 177
3 178 8 122
3 124 93 3
3 179 93 124
3 179 40 93
3 95 179 19
3 180 179 95
3 180 40 179
3 180 178 40
3 181 178 180
3 181 8 178
3 181 90 8
3 182 90 181
3 182 39 90
3 97 182 41
3 183 182 97
3 183 39 182
3 183 175 39
3 184 175 183
3 184 1 175
3 184 67 1
3 185 67 184
3 185 28 67
3 99 185 42
3 186 185 99
3 186 28 185
3 186 499 501
3 501 500 28
3 499 500 501
3 503 502 186
3 128 100 9
3 504 100 505
3 506 505 128
3 504 505 506
3 507 43 508
3 509 508 100
3 507 508 509
3 510 43 511
3 513 512 43
3 102 514 515
3 187 516 518
3 518 517 102
3 516 517 518
3 187 519 520
3 187 521 522
3 188 523 525
3 525 524 187
3 523 524 525
3 188 526 528
3 526 527 528
3 188 529 530
3 532 531 188
3 534 533 44
3 130 535 537
3 537 536 10
3 535 536 537
3 539 538 130
3 541 540 21
3 542 133 543
3 189 544 546
3 544 133 545
3 544 545 546
3 189 11 133
3 137 547 549
3 547 105 548
3 547 548 549
3 190 105 137
3 190 45 105
3 107 190 24
3 191 190 107
3 191 45 190
3 191 189 45
3 192 189 191
3 192 11 189
3 192 550 552
3 552 551 11
3 550 551 552
3 554 553 192
3 556 555 46
3 155 62 2
3 193 62 155
3 193 26 62
3 110 193 31
3 194 193 110
3 194 26 193
3 194 143 26
3 195 143 194
3 195 557 559
3 559 558 143
3 557 558 559
3 145 111 5
3 560 111 561
3 562 561 145
3 560 561 562
3 563 47 564
3 565 564 111
3 563 564 565
3 566 47 567
3 568 195 569
3 570 569 47
3 568 569 570
3 571 195 572
3 574 573 195
