ply
format ascii 1.0
element vertex 411
property float x
property float y
property float z
element face 431
property list uchar int vertex_index
end_header
-0.337963 -64.811325 25.460627
1.605129 -65.431305 43.021854
-0.447538 -73.764175 55.930077
1.291449 -65.454193 51.818237
2.860577 -74.592484 28.458313
0.351564 -65.286514 34.206993
0.710146 -54.153938 41.44487
-1.707335 -53.446995 33.472031
-0.035179 -68.698761 57.981522
0.327379 -69.834755 53.652344
0.83881 -65.193024 56.020798
-0.643595 -71.780563 60.601219
1.248892 -69.92408 26.634537
4.21475 -73.775299 23.895916
0.05171 -64.183975 21.138783
1.065456 -70.693649 44.586395
1.069101 -70.704773 40.058567
0.901463 -70.602036 35.560913
1.105976 -65.343613 38.605598
-0.563812 -47.978203 41.290283
-0.562733 -53.739021 37.50243
-1.826376 -47.261848 37.56789
-0.012421 -75.033745 51.229057
0.780293 -70.456978 49.133568
1.635015 -65.511635 47.439072
1.892233 -75.220306 32.986343
0.866407 -70.368996 31.091217
-0.234661 -65.1567 29.825073
2.097246 -60.671848 50.301239
2.057783 -60.28117 46.145302
1.539738 -59.928661 41.972672
0.551226 -59.715103 37.770844
-0.571917 -59.607494 33.544205
-1.402563 -59.444904 29.306894
0.258905 -66.52095 58.818459
0.371382 -67.027969 56.917458
0.66008 -65.014351 57.917381
-0.071918 -67.860985 60.013077
0.44276 -67.437096 25.951017
1.625931 -69.612495 24.408205
0.695484 -67.150108 23.751184
-0.19537 -64.533165 23.291962
1.381931 -68.094353 43.744251
1.10146 -70.717773 42.319103
1.308193 -68.080978 41.499123
1.142544 -68.056152 39.259056
1.408503 -65.382401 40.812157
-1.211306 -44.682259 41.275887
-1.230803 -47.597294 39.454338
-0.495281 -76.451599 54.824471
-0.254919 -77.149574 52.430618
-0.245008 -74.486282 53.576134
0.805676 -67.699623 52.687187
0.561226 -70.202545 51.403053
1.038504 -67.901352 50.473732
1.231676 -68.023926 48.23716
1.495039 -65.507622 49.637848
-0.590996 -72.862015 58.276138
-0.800825 -74.483597 59.660507
-0.685619 -75.560997 57.239525
4.369364 -76.397163 27.216486
0.6688 -67.984299 34.800285
0.845942 -70.507019 33.323357
0.457764 -67.920105 32.581299
0.329735 -67.816513 30.36734
0.011366 -65.240448 32.014336
2.126289 -60.479797 48.224014
1.280935 -54.438755 43.371338
1.665802 -57.303024 43.659531
1.209507 -57.081276 41.649094
1.089912 -59.80262 39.875385
0.654497 -56.907532 39.62159
-1.171545 -53.587521 35.4944
-0.570852 -56.682137 35.518272
-1.132753 -56.596161 33.449081
-1.042896 -59.544888 31.425478
-1.604338 -56.496796 31.374498
-0.279243 -71.150368 56.999634
-0.101431 -71.855667 54.731346
0.114481 -69.340355 55.856018
0.569815 -67.410713 54.850655
1.060658 -65.346802 53.959564
-0.376846 -70.268921 59.223053
2.060974 -72.299393 27.4827
3.495916 -74.20034 26.182232
2.570362 -71.95089 25.232277
3.177452 -71.561989 22.978251
0.732916 -73.21907 45.537964
0.954575 -73.286148 40.98719
1.020634 -73.236931 38.724838
1.09037 -73.146042 36.469513
0.990427 -70.665665 37.805733
0.914427 -68.025436 37.025925
0.735804 -65.315048 36.403809
0.097054 -51.127342 41.335686
0.080685 -53.922729 39.487957
-0.569462 -50.82716 39.444046
-1.204348 -50.573975 37.511948
-1.773535 -50.352478 35.550812
0.227282 -75.417923 48.899391
0.118193 -72.400536 52.43512
0.346571 -72.798218 50.130013
0.557554 -73.064301 47.829025
0.955332 -70.613937 46.858925
1.353655 -68.081833 45.991615
1.679028 -65.480057 45.231987
2.324539 -74.935066 30.725403
1.198858 -73.012947 34.219902
1.381027 -72.831467 31.974072
1.663914 -72.594543 29.729303
0.995306 -70.176743 28.862186
0.319569 -67.658607 28.157169
-0.354374 -65.017578 27.6397
1.349958 -63.178585 55.217743
1.551622 -63.154194 53.144279
1.737194 -63.108349 51.026649
1.873943 -63.031616 48.888535
1.926817 -62.929344 46.740578
1.865068 -62.816128 44.586891
2.002384 -57.565151 45.656197
1.865965 -60.0919 44.062344
1.670429 -62.709644 42.429367
1.344601 -62.62421 40.269661
0.913118 -62.565651 38.109352
0.423016 -62.528881 35.949425
0.042803 -56.778934 37.577137
-0.022881 -59.656349 35.66
-0.066032 -62.498783 33.790054
-0.494862 -62.453979 31.631279
-0.818026 -62.371841 29.473999
-1.012476 -62.233047 27.320698
-1.642664 -59.287769 27.192345
-1.078772 -62.024227 25.17527
-1.034723 -61.738415 23.04216
0.609789 -64.934952 58.667915
0.459492 -65.767651 58.36792
0.409201 -65.688252 59.118454
0.409201 -65.688252 59.118454
0.285415 -66.115478 59.685638
-1.506197 -42.950283 41.269827
-1.147685 -43.259029 42.105568
-1.530876 -44.446407 40.380116
-1.506197 -42.950283 41.269827
3.614971 -75.494823 27.8374
4.001145 -76.615051 28.370276
3.246752 -75.712711 28.99119
0.99554 -54.296346 42.408104
1.017788 -52.96055 43.276165
0.732394 -52.818142 42.312931
2.644468 -70.406361 22.581922
2.401692 -70.587242 23.693228
1.868707 -69.431613 23.296899
3.519137 -71.356365 21.851209
2.644468 -70.406361 22.581922
0.782345 -65.292439 20.264145
0.555851 -65.493073 21.350397
0.215742 -63.975586 20.072648
0.782345 -65.292439 20.264145
0.964794 -71.989662 43.922073
0.798524 -73.252373 44.397858
0.899186 -71.956359 45.062179
-0.208913 -48.195206 42.177002
-0.523848 -46.591263 42.140595
-0.233379 -49.552773 41.312984
0.12152 -49.769775 42.199703
-0.208913 -48.195206 42.177002
0.001269 -76.346062 50.648586
-0.11998 -77.403976 51.249367
-0.13367 -76.091659 51.829837
0.107431 -75.225834 50.064224
0.121121 -76.538151 49.483753
0.001269 -76.346062 50.648586
-0.729316 -72.507225 61.336178
-0.610473 -71.155426 61.749924
-0.844128 -75.245728 60.390743
-0.798139 -75.861901 59.149974
4.694653 -74.853958 24.394512
4.335235 -75.066478 25.53767
3.855333 -73.98782 25.039074
2.437302 -76.220592 32.40173
2.158375 -76.38573 33.542209
2.108386 -75.077686 31.855873
2.653455 -76.077973 31.271259
2.437302 -76.220592 32.40173
1.609949 -62.0965 54.830292
1.536085 -62.185208 55.848736
1.710781 -62.084305 53.79356
1.45079 -63.166389 54.181011
1.609949 -62.0965 54.830292
2.049659 -60.76024 51.339012
2.235788 -59.556543 50.974152
1.91722 -61.890098 50.663944
1.869632 -61.978491 51.701717
2.049659 -60.76024 51.339012
1.882747 -56.169113 45.463966
2.074015 -56.354778 46.406826
-1.70952 -59.173575 26.138999
-1.942451 -57.72841 27.210089
-1.427574 -60.541804 25.130462
-1.360718 -60.655998 26.183808
-1.70952 -59.173575 26.138999
-1.40555 -60.398898 24.063907
-1.056748 -61.881321 24.108715
-1.427574 -60.541804 25.130462
0.120004 -66.785496 60.282948
-0.013073 -67.323109 60.997445
0.093494 -67.190967 59.415768
0.120004 -66.785496 60.282948
0.285415 -66.115478 59.685638
1.403484 -68.20042 22.968388
1.868707 -69.431613 23.296899
1.160708 -68.381302 24.079694
0.877738 -66.976139 22.656597
1.403484 -68.20042 22.968388
0.432311 -65.667667 22.426986
0.877738 -66.976139 22.656597
0.250057 -65.841636 23.521573
-0.07183 -64.35857 22.215373
0.555851 -65.493073 21.350397
0.432311 -65.667667 22.426986
-0.847595 -44.943291 42.133397
-1.147685 -43.259029 42.105568
-0.887559 -46.330231 41.283085
-0.523848 -46.591263 42.140595
-0.847595 -44.943291 42.133397
-1.540625 -45.903925 39.469341
-1.221055 -46.139776 40.365112
-1.530876 -44.446407 40.380116
-1.838411 -45.736202 38.526117
-1.52859 -47.429571 38.511114
-1.540625 -45.903925 39.469341
-0.3751 -76.800587 53.627544
-0.305271 -78.140484 53.079696
-0.425452 -77.791496 54.276623
-0.740536 -76.4006 57.939484
-0.798139 -75.861901 59.149974
-0.743222 -75.022297 58.450016
-0.648211 -76.923817 56.704289
-0.740536 -76.4006 57.939484
-0.553042 -77.369118 55.496762
-0.648211 -76.923817 56.704289
-0.59045 -76.006298 56.031998
-0.425452 -77.791496 54.276623
-0.553042 -77.369118 55.496762
4.765462 -77.486542 27.759018
4.001145 -76.615051 28.370276
5.190175 -77.235825 26.574666
4.765462 -77.486542 27.759018
5.120334 -74.620937 23.225696
4.604967 -73.557904 22.748659
1.723361 -75.334037 34.115305
2.158375 -76.38573 33.542209
2.216597 -59.410353 49.970551
2.235788 -59.556543 50.974152
2.231118 -59.314327 48.931938
2.111768 -60.575823 49.262626
2.216597 -59.410353 49.970551
2.173194 -59.166246 47.935142
2.231118 -59.314327 48.931938
2.138941 -59.066933 46.895786
2.092036 -60.380483 47.184658
2.173194 -59.166246 47.935142
1.324619 -53.164816 44.177234
1.017788 -52.96055 43.276165
1.522022 -54.605915 44.321537
1.324619 -53.164816 44.177234
1.473368 -55.87089 43.515434
1.714456 -56.038049 44.465633
1.522022 -54.605915 44.321537
-0.500142 -70.489334 61.000298
-0.610473 -71.155426 61.749924
-0.214303 -68.529545 60.706226
-0.013073 -67.323109 60.997445
-0.366767 -69.733513 60.311214
-0.214303 -68.529545 60.706226
-0.224382 -69.064953 59.618065
-0.51022 -71.024742 59.912136
-0.500142 -70.489334 61.000298
-0.366767 -69.733513 60.311214
4.086318 -72.451248 22.289827
4.604967 -73.557904 22.748659
3.696101 -72.668644 23.437083
4.086318 -72.451248 22.289827
3.519137 -71.356365 21.851209
0.703172 -74.496418 44.919872
0.595661 -74.437953 46.064446
0.703172 -74.496418 44.919872
0.798524 -73.252373 44.397858
0.982796 -72.001724 42.788427
0.964794 -71.989662 43.922073
1.083458 -70.705711 43.452749
0.909353 -73.285911 42.12247
0.982796 -72.001724 42.788427
1.028018 -72.00196 41.653146
0.914387 -74.539787 41.507174
0.909353 -73.285911 42.12247
1.013667 -74.511741 40.374557
0.914387 -74.539787 41.507174
1.046696 -74.487133 39.243381
1.013667 -74.511741 40.374557
0.987604 -73.261539 39.856014
1.155539 -74.428478 38.113395
1.046696 -74.487133 39.243381
1.055502 -73.191486 37.597175
1.190406 -74.383034 36.985733
1.155539 -74.428478 38.113395
0.425848 -51.304844 42.258339
0.12152 -49.769775 42.199703
0.4036 -52.64064 41.390278
0.732394 -52.818142 42.312931
0.425848 -51.304844 42.258339
-0.152159 -78.45919 51.880783
-0.305271 -78.140484 53.079696
-0.152159 -78.45919 51.880783
-0.11998 -77.403976 51.249367
0.263648 -76.704483 48.319512
0.121121 -76.538151 49.483753
0.342844 -75.53738 47.745159
0.263648 -76.704483 48.319512
0.50798 -74.360569 47.209976
0.342844 -75.53738 47.745159
0.392418 -74.241112 48.364208
0.645235 -73.141685 46.683495
0.595661 -74.437953 46.064446
0.50798 -74.360569 47.209976
-0.807931 -73.858742 60.865822
-0.729316 -72.507225 61.336178
-0.72221 -73.13208 60.130863
-0.807931 -73.858742 60.865822
-0.844128 -75.245728 60.390743
4.771959 -76.16489 26.054797
3.93264 -75.298752 26.699359
4.335235 -75.066478 25.53767
5.190175 -77.235825 26.574666
4.771959 -76.16489 26.054797
4.694653 -74.853958 24.394512
5.120334 -74.620937 23.225696
2.978733 -75.884003 30.124735
2.653455 -76.077973 31.271259
2.592558 -74.763775 29.591858
3.246752 -75.712711 28.99119
2.978733 -75.884003 30.124735
1.32243 -74.296905 35.85689
1.190406 -74.383034 36.985733
1.376673 -74.230358 34.732084
1.32243 -74.296905 35.85689
1.144614 -73.079494 35.344707
1.545546 -74.116626 33.603122
1.723361 -75.334037 34.115305
1.376673 -74.230358 34.732084
0.82248 -64.174251 58.470897
0.609789 -64.934952 58.667915
0.908824 -64.113777 57.559651
0.82248 -64.174251 58.470897
0.998189 -64.203114 56.611359
0.749445 -65.103688 56.969089
0.908824 -64.113777 57.559651
1.253763 -63.195894 56.209831
1.536085 -62.185208 55.848736
1.094384 -64.185804 55.61927
0.998189 -64.203114 56.611359
1.253763 -63.195894 56.209831
1.776846 -62.001413 52.760532
1.710781 -62.084305 53.79356
1.644408 -63.131271 52.085464
1.776846 -62.001413 52.760532
1.869632 -61.978491 51.701717
2.111241 -57.708923 46.651234
2.074015 -56.354778 46.406826
2.030083 -58.923161 45.90075
2.138941 -59.066933 46.895786
2.111241 -57.708923 46.651234
1.834093 -57.434088 44.657864
1.882747 -56.169113 45.463966
1.714456 -56.038049 44.465633
-2.108918 -45.522692 37.601661
-1.838411 -45.736202 38.526117
-2.082262 -47.110098 36.608153
-2.108918 -45.522692 37.601661
-2.055842 -48.655412 35.599614
-1.799956 -48.807163 36.559351
-2.082262 -47.110098 36.608153
-2.017378 -50.247704 34.562077
-2.055842 -48.655412 35.599614
-1.984278 -51.794962 33.522686
-1.740435 -51.899737 34.511421
-2.017378 -50.247704 34.562077
-1.930193 -53.370643 32.457644
-1.984278 -51.794962 33.522686
-1.878694 -54.895544 31.408877
-1.655836 -54.971896 32.423265
-1.930193 -53.370643 32.457644
-1.787701 -56.428824 30.336982
-1.878694 -54.895544 31.408877
-1.686813 -57.902878 29.303179
-1.503451 -57.97085 30.340696
-1.787701 -56.428824 30.336982
-1.806864 -57.82431 28.245905
-1.942451 -57.72841 27.210089
-1.522613 -59.366337 28.24962
-1.686813 -57.902878 29.303179
-1.806864 -57.82431 28.245905
-1.431276 -60.244807 23.01585
-1.40555 -60.398898 24.063907
-0.969657 -61.555973 21.983769
-1.431276 -60.244807 23.01585
-0.426441 -62.778753 21.03208
-0.491507 -62.961195 22.090471
-0.969657 -61.555973 21.983769
0.215742 -63.975586 20.072648
-0.426441 -62.778753 21.03208
3 134 36 135
3 136 135 34
3 134 135 136
3 137 34 138
3 0 40 38
3 0 41 40
3 1 44 42
3 1 46 44
3 139 47 140
3 142 141 47
3 2 51 49
3 3 54 52
3 3 56 54
3 2 59 57
3 2 49 59
3 4 143 145
3 143 60 144
3 143 144 145
3 5 63 61
3 5 65 63
3 6 146 148
3 146 67 147
3 146 147 148
3 6 69 67
3 6 71 69
3 7 74 72
3 7 76 74
3 8 79 77
3 10 80 35
3 10 81 80
3 8 82 37
3 8 77 82
3 12 85 83
3 149 86 150
3 151 150 39
3 149 150 151
3 153 152 86
3 14 154 155
3 14 156 157
3 15 158 160
3 160 159 87
3 158 159 160
3 16 88 43
3 16 89 88
3 16 91 89
3 18 92 45
3 18 93 92
3 19 161 162
3 19 163 165
3 163 94 164
3 163 164 165
3 19 96 94
3 21 97 48
3 21 98 97
3 22 166 168
3 168 167 50
3 166 167 168
3 22 169 171
3 169 99 170
3 169 170 171
3 9 100 78
3 23 101 53
3 23 102 101
3 23 103 102
3 24 104 55
3 24 105 104
3 11 172 173
3 175 174 58
3 13 176 178
3 178 177 84
3 176 177 178
3 25 179 180
3 25 181 183
3 181 106 182
3 181 182 183
3 17 107 90
3 26 108 62
3 26 109 108
3 26 110 109
3 27 111 64
3 27 112 111
3 184 113 185
3 186 114 187
3 188 187 113
3 186 187 188
3 28 189 190
3 28 191 193
3 191 115 192
3 191 192 193
3 28 116 115
3 29 117 66
3 29 118 117
3 194 119 195
3 30 120 68
3 30 121 120
3 30 122 121
3 31 123 70
3 31 124 123
3 20 125 95
3 32 126 73
3 32 127 126
3 32 128 127
3 33 129 75
3 33 130 129
3 196 131 197
3 198 132 199
3 200 199 131
3 198 199 200
3 201 133 202
3 203 202 132
3 201 202 203
3 34 35 8
3 36 35 34
3 36 10 35
3 204 37 205
3 34 206 208
3 206 37 207
3 206 207 208
3 34 8 37
3 38 39 12
3 40 39 38
3 40 209 211
3 211 210 39
3 209 210 211
3 40 212 213
3 41 214 216
3 216 215 40
3 214 215 216
3 41 217 219
3 217 14 218
3 217 218 219
3 42 43 15
3 44 43 42
3 44 16 43
3 44 45 16
3 46 45 44
3 46 18 45
3 47 220 221
3 47 222 224
3 222 19 223
3 222 223 224
3 47 48 19
3 225 48 226
3 227 226 47
3 225 226 227
3 228 21 229
3 230 229 48
3 228 229 230
3 49 231 233
3 231 50 232
3 231 232 233
3 51 50 49
3 51 22 50
3 52 53 9
3 54 53 52
3 54 23 53
3 54 55 23
3 56 55 54
3 56 24 55
3 57 58 11
3 59 58 57
3 59 234 236
3 236 235 58
3 234 235 236
3 59 237 238
3 49 239 241
3 241 240 59
3 239 240 241
3 49 242 243
3 60 244 245
3 60 246 247
3 249 248 13
3 250 25 251
3 61 62 17
3 63 62 61
3 63 26 62
3 63 64 26
3 65 64 63
3 65 27 64
3 252 28 253
3 254 66 255
3 256 255 28
3 254 255 256
3 257 66 258
3 259 29 260
3 261 260 66
3 259 260 261
3 67 262 263
3 67 264 265
3 67 266 268
3 266 68 267
3 266 267 268
3 69 68 67
3 69 30 68
3 69 70 30
3 71 70 69
3 71 31 70
3 72 73 20
3 74 73 72
3 74 32 73
3 74 75 32
3 76 75 74
3 76 33 75
3 77 78 2
3 79 78 77
3 79 9 78
3 35 79 8
3 80 79 35
3 80 9 79
3 80 52 9
3 81 52 80
3 81 3 52
3 269 11 270
3 37 271 272
3 82 273 275
3 275 274 37
3 273 274 275
3 82 276 278
3 276 11 277
3 276 277 278
3 82 57 11
3 77 57 82
3 77 2 57
3 83 84 4
3 85 84 83
3 85 13 84
3 39 85 12
3 86 85 39
3 86 13 85
3 86 279 281
3 281 280 13
3 279 280 281
3 283 282 86
3 87 284 285
3 287 286 87
3 43 288 290
3 290 289 15
3 288 289 290
3 88 291 293
3 293 292 43
3 291 292 293
3 88 294 295
3 88 296 297
3 89 298 300
3 300 299 88
3 298 299 300
3 89 301 302
3 89 303 305
3 303 90 304
3 303 304 305
3 91 90 89
3 91 17 90
3 45 91 16
3 92 91 45
3 92 17 91
3 92 61 17
3 93 61 92
3 93 5 61
3 94 306 307
3 94 308 310
3 308 6 309
3 308 309 310
3 94 95 6
3 96 95 94
3 96 20 95
3 48 96 19
3 97 96 48
3 97 20 96
3 97 72 20
3 98 72 97
3 98 7 72
3 50 311 312
3 314 313 50
3 99 315 316
3 99 317 318
3 78 51 2
3 100 51 78
3 100 22 51
3 53 100 9
3 101 100 53
3 101 22 100
3 101 99 22
3 102 99 101
3 102 319 321
3 321 320 99
3 319 320 321
3 102 322 324
3 322 87 323
3 322 323 324
3 103 87 102
3 103 15 87
3 55 103 23
3 104 103 55
3 104 15 103
3 104 42 15
3 105 42 104
3 105 1 42
3 58 325 327
3 327 326 11
3 325 326 327
3 329 328 58
3 84 60 4
3 330 60 331
3 332 331 84
3 330 331 332
3 334 333 60
3 336 335 13
3 106 337 338
3 106 339 341
3 339 4 340
3 339 340 341
3 90 342 343
3 107 344 346
3 346 345 90
3 344 345 346
3 107 347 349
3 347 25 348
3 347 348 349
3 62 107 17
3 108 107 62
3 108 25 107
3 108 106 25
3 109 106 108
3 109 4 106
3 109 83 4
3 110 83 109
3 110 12 83
3 64 110 26
3 111 110 64
3 111 12 110
3 111 38 12
3 112 38 111
3 112 0 38
3 350 36 351
3 352 36 353
3 354 10 355
3 356 355 36
3 354 355 356
3 113 357 358
3 113 359 361
3 359 10 360
3 359 360 361
3 113 81 10
3 114 81 113
3 114 3 81
3 362 114 363
3 115 364 366
3 364 114 365
3 364 365 366
3 115 3 114
3 115 56 3
3 116 56 115
3 116 24 56
3 66 116 28
3 117 116 66
3 117 24 116
3 117 105 24
3 118 105 117
3 118 1 105
3 119 367 368
3 119 369 371
3 369 29 370
3 369 370 371
3 68 372 374
3 372 119 373
3 372 373 374
3 120 119 68
3 120 29 119
3 120 118 29
3 121 118 120
3 121 1 118
3 121 46 1
3 122 46 121
3 122 18 46
3 70 122 30
3 123 122 70
3 123 18 122
3 123 93 18
3 124 93 123
3 124 5 93
3 95 71 6
3 125 71 95
3 125 31 71
3 73 125 20
3 126 125 73
3 126 31 125
3 126 124 31
3 127 124 126
3 127 5 124
3 127 65 5
3 128 65 127
3 128 27 65
3 75 128 32
3 129 128 75
3 129 27 128
3 129 112 27
3 130 112 129
3 130 0 112
3 375 21 376
3 377 21 378
3 379 98 380
3 381 380 21
3 379 380 381
3 382 98 383
3 384 7 385
3 386 385 98
3 384 385 386
3 387 7 388
3 389 76 390
3 391 390 7
3 389 390 391
3 392 76 393
3 394 33 395
3 396 395 76
3 394 395 396
3 131 397 398
3 131 399 401
3 399 33 400
3 399 400 401
3 131 130 33
3 132 130 131
3 132 0 130
3 132 41 0
3 133 41 132
3 133 14 41
3 402 133 403
3 404 133 405
3 406 14 407
3 408 407 133
3 406 407 408
3 410 409 14
