ply
format ascii 1.0
element vertex 636
property float x
property float y
property float z
element face 761
property list uchar int vertex_index
end_header
47.362888 20.020355 28.231661
52.572174 43.289768 1.791972
54.830681 33.506935 15.139504
38.113705 22.738529 5.855444
51.511284 17.427155 7.569449
44.387497 35.317173 4.070744
43.972466 20.809525 8.364885
51.978668 31.279736 6.164499
50.027161 26.796013 21.242685
57.118088 21.557362 12.451482
46.326263 46.416252 -4.081184
38.21384 36.627705 -0.42765
56.280018 38.873962 8.346491
52.351662 44.822216 13.438243
56.896919 26.69276 8.462997
57.57933 13.828037 7.335328
48.848511 39.67392 2.597615
48.258934 33.439392 5.249997
52.334118 37.569599 4.579227
48.11525 23.301266 24.51976
52.407539 21.35136 19.984167
52.395519 48.531067 -1.839567
49.53849 45.153931 -1.149675
45.197739 41.351707 0.482942
53.223366 47.438492 8.465079
50.140705 50.16684 11.410587
38.611416 14.669212 7.729095
47.73888 19.175411 8.167545
43.99543 12.89282 10.015154
47.583496 11.578362 9.707941
51.310772 10.171793 8.971285
56.22813 36.363567 11.829028
56.718315 32.942413 9.046719
56.863907 30.349213 11.538561
58.433861 18.089466 8.864546
37.409538 40.105328 -8.43996
37.87495 30.183357 3.217834
36.365322 29.44997 -0.09824
40.529278 29.737328 5.437211
40.636677 22.113564 7.698039
44.021858 28.385693 6.568343
47.904968 26.536652 6.902242
51.693432 24.513195 6.878565
52.520584 30.276848 18.214123
55.742085 27.469574 14.118795
53.990852 24.39526 16.874199
56.444424 19.014748 15.312115
43.308098 46.664734 -7.123913
39.2514 41.787048 -5.059521
41.88026 42.174446 -2.042601
40.888275 36.515949 2.247145
54.253468 46.600441 2.075733
54.964775 41.15818 4.940167
55.225182 44.434402 6.28862
55.107372 42.042603 10.662028
53.86644 39.33181 14.882379
49.430107 47.257195 16.74044
50.830978 41.86845 18.112537
51.68708 36.214241 18.695045
49.003517 32.695896 22.11702
46.440998 28.920731 25.421843
40.904266 14.000488 9.444124
55.120007 35.313824 6.700931
55.01091 29.03587 7.163147
54.897209 22.433052 6.948667
57.487854 24.182434 10.19205
57.151421 20.281399 7.512169
54.875549 15.630539 7.116493
36.60025 35.454918 -3.875713
50.893784 41.542385 2.075253
50.645348 38.652325 3.584949
52.48444 40.50053 3.327242
47.569473 21.624592 26.318253
49.659309 20.795052 24.039885
52.556923 45.955856 0.040083
51.235985 46.863358 -1.648607
51.105911 44.271839 0.306839
49.198128 42.50515 0.841825
37.526772 18.778027 5.523236
38.351685 18.757645 6.869
49.651768 18.308979 7.885608
47.673733 15.393154 8.875329
49.565636 14.609943 8.53363
49.4524 10.882769 9.358572
51.424423 13.811142 8.156948
55.679955 34.983494 13.516178
56.578117 33.390682 11.862485
56.059868 31.986568 13.326954
38.87109 43.039871 -9.24328
37.94025 26.563145 4.650766
37.053055 26.438499 3.188004
37.252884 22.691307 4.458613
42.315304 32.70253 4.823069
42.197281 29.149708 6.126059
44.153069 31.950272 5.440697
50.171326 32.376564 5.715784
48.051796 30.059696 6.170893
49.985218 29.015495 6.39004
49.842209 25.53447 6.906108
51.821152 27.946323 6.583191
51.246685 28.554562 19.715551
53.142159 27.298672 17.618416
52.036964 25.639477 19.089718
54.533234 20.248672 17.644424
48.345703 48.2575 -4.929871
44.776409 46.689201 -5.588024
42.571983 44.555401 -4.52323
44.100632 44.4193 -3.07531
44.736992 38.457039 2.419588
42.946419 39.100285 1.408722
42.56004 36.029572 3.258709
40.634415 33.252743 3.978616
54.121532 48.207153 2.656427
54.866409 45.542519 4.147772
54.402924 47.118088 4.939976
52.872086 46.16761 10.96876
54.264511 44.76202 9.6443
53.843422 43.479877 11.991651
54.621525 40.733879 12.811973
53.197411 42.113209 14.27739
48.479141 49.934349 15.912949
49.849152 40.243969 20.264503
51.302597 39.084446 18.528675
50.115639 37.412338 20.46846
50.372292 34.499447 20.441961
48.831932 35.640728 22.30007
46.241714 31.870934 25.780741
45.091576 29.927448 27.518105
45.417255 27.011429 27.138054
53.619774 49.236572 0.446042
42.225594 21.522961 8.163486
40.77042 18.095119 8.609745
42.300621 17.533833 9.02692
55.780342 40.036697 6.617798
55.094482 38.292984 5.989019
55.993767 37.144405 7.413429
56.815601 29.848003 8.873598
56.119217 31.055309 7.940697
56.116951 27.882214 7.766338
54.94352 25.76659 7.075564
56.121235 24.64724 7.45155
56.350891 24.476353 13.304847
56.855282 25.893425 12.078945
57.385498 22.874371 11.24983
58.272865 16.063976 7.781489
57.898689 19.183128 8.077644
57.349445 17.055611 7.271176
56.222366 18.055904 6.997033
56.314667 14.724247 7.114382
54.873562 12.188038 7.599166
38.652527 39.377411 -2.637449
37.683041 38.826424 -4.301439
37.272606 36.202106 -2.069788
46.618999 37.621227 3.293017
46.308849 34.435253 4.718769
48.527782 36.650112 4.069952
50.396217 35.594662 4.797118
52.156197 34.493114 5.518784
48.956116 25.034042 22.833857
51.033619 23.981586 20.634014
50.218239 22.357689 22.278572
51.889194 19.916534 21.717022
51.230717 49.353737 -3.700119
49.816032 47.647354 -3.299397
47.927841 45.887032 -2.605169
45.744511 43.999031 -1.706253
47.461498 43.342373 -0.407927
47.010834 40.59161 1.577129
51.72039 48.835655 9.842256
51.324974 47.492798 12.453185
45.827618 20.015995 8.347946
43.991768 16.874969 9.179853
45.798904 16.153137 9.111584
45.749035 12.251793 9.947502
56.432926 37.655426 10.095437
56.55632 35.955647 8.883872
56.752602 34.710011 10.375437
56.973614 31.680557 10.280743
57.153107 28.588223 9.872414
58.045605 18.737232 11.687844
58.041519 19.914394 10.473776
36.416782 36.794899 -7.943682
37.957024 33.552315 1.528563
37.034595 33.23962 -0.06735
36.968624 29.970654 1.684984
39.114792 26.409325 5.809049
39.252293 22.53389 6.934885
40.542702 26.009583 6.659462
42.178757 25.409229 7.21805
43.97142 24.659275 7.517926
46.086327 31.051891 5.872793
45.944412 27.498875 6.809005
45.866295 23.808922 7.605517
47.807259 22.898998 7.536097
49.73629 21.957848 7.370046
51.5942 21.000549 7.170314
53.748253 31.934479 16.699427
55.255943 30.495647 14.764886
54.250053 28.926613 16.18737
54.894638 25.944653 15.463963
55.731445 23.04248 14.631434
53.132004 22.853348 18.374012
55.095535 21.62265 16.073971
56.775551 20.260578 13.804646
41.937088 46.320045 -8.678194
39.953663 43.866688 -7.624088
41.185925 44.375103 -6.044538
40.466827 42.144897 -3.49416
39.864265 39.597546 -1.118652
43.470146 41.896835 -0.717514
41.306171 39.495571 0.232679
39.426121 36.72702 1.017891
39.1665 33.549305 2.882276
39.072872 30.096317 4.471662
53.726795 44.965534 1.786997
53.877739 42.244656 3.331319
54.694599 43.919361 3.606999
55.414047 42.829643 5.502057
55.846329 41.695747 7.457454
54.451912 45.971466 7.279763
55.309006 43.271435 8.472841
55.963745 40.507114 9.442381
55.753387 39.248459 11.416742
55.220455 37.903927 13.340206
54.391716 36.461243 15.182022
48.6591 51.436806 13.161805
49.812008 48.745773 14.103502
50.824913 46.077713 15.017756
50.215656 44.581711 17.495516
51.668999 43.392387 15.830882
52.342152 40.65073 16.463953
52.872635 37.826492 16.846054
53.316307 34.914661 16.928873
52.063438 33.266865 18.587446
50.717403 31.530136 20.182882
49.370773 29.72604 21.753304
47.515602 33.785416 24.056511
47.664276 30.82642 23.761881
48.11718 27.883595 23.342209
47.044922 26.035748 24.990494
46.231533 24.214512 26.729612
45.738564 22.44574 28.576756
52.918591 50.194466 -1.688112
53.417175 47.602737 0.081573
45.606014 20.745029 30.532978
39.442169 18.51738 7.896645
39.642525 14.408043 8.739037
39.81675 10.254745 9.496529
42.367043 13.484283 9.860328
53.905552 39.411999 4.626633
53.847473 36.453159 5.611998
53.739452 33.367561 6.270094
56.092361 34.147984 7.848783
55.079903 32.223915 7.073769
53.613377 30.165581 6.636653
53.494179 26.863705 6.797951
53.39682 23.480061 6.875297
53.323997 20.031551 7.000626
56.429665 28.943535 12.815775
57.14909 27.268978 10.938694
57.344536 25.459206 9.267268
57.913864 21.11702 9.451595
57.587223 22.318089 8.616827
57.001312 23.497925 7.956746
56.154526 21.367271 7.146785
54.877365 19.049984 6.923466
53.266235 16.533577 7.289663
53.205112 13.001572 7.820581
53.119698 9.452902 8.623346
38.237041 41.100727 -6.716383
36.946754 37.956253 -6.080111
36.172867 34.408283 -5.809036
36.404236 32.609398 -1.873465
48.383737 19.665218 27.076033
48.48703 20.467337 26.119329
47.466181 20.822474 27.274957
48.420393 18.96241 28.069676
48.383737 19.665218 27.076033
39.768555 44.34711 -9.740197
39.179327 43.863548 -10.516592
46.596019 47.528473 -5.31501
47.605739 48.449097 -5.739353
47.335983 47.336876 -4.505528
45.551336 46.552726 -4.834604
45.821092 47.664947 -6.06843
46.596019 47.528473 -5.31501
53.893215 48.451286 4.22855
54.262228 47.662621 3.798201
53.75252 48.995819 3.086775
49.297398 39.381496 21.275799
49.241957 40.780683 21.172873
49.430642 37.965681 21.377778
49.982395 38.828153 20.366481
49.297398 39.381496 21.275799
48.788788 37.079876 22.293583
49.473786 36.526533 21.384265
49.430642 37.965681 21.377778
44.599158 30.426508 28.586161
45.127638 31.402727 27.678552
44.635219 31.901787 28.746608
44.618906 28.956778 28.413434
44.599158 30.426508 28.586161
53.75252 48.995819 3.086775
53.649916 49.53474 1.89262
56.995195 12.605423 7.447235
56.362864 13.053528 7.336762
56.946998 14.276142 7.224855
51.75855 19.24086 22.645105
50.774252 20.355793 22.878453
50.643608 19.680119 23.806537
52.896585 18.825918 21.449239
51.75855 19.24086 22.645105
51.813118 48.942402 -2.769843
51.638489 50.20546 -3.725847
52.22089 49.794124 -2.795571
50.930548 49.501248 10.626421
51.072365 50.180683 9.272502
50.282522 50.846276 10.056667
38.373095 12.658396 7.438404
38.222256 14.708179 7.069985
38.733382 12.596075 8.098278
38.373095 12.658396 7.438404
46.616966 9.960276 10.291943
45.699736 10.296992 10.411723
46.666265 11.915077 9.827721
47.513508 9.667706 10.193112
46.616966 9.960276 10.291943
50.300717 8.661264 9.668029
49.37153 9.016752 9.861673
50.381586 10.527281 9.164929
51.231407 8.351281 9.489012
50.300717 8.661264 9.668029
58.429516 17.881155 10.784249
58.573915 17.377351 11.404078
37.076187 39.469784 -9.325024
37.666054 41.013537 -9.663218
36.91316 38.450114 -8.191821
36.579809 37.81457 -9.076885
37.076187 39.469784 -9.325024
36.761071 26.229591 2.316027
36.870077 24.404916 2.974865
57.224289 18.314763 14.200962
57.389853 18.937677 13.447228
56.609988 19.637663 14.558381
43.645617 47.608483 -8.430454
44.356976 47.707268 -7.639194
42.622593 46.49239 -7.901053
42.960111 47.436138 -9.207595
43.645617 47.608483 -8.430454
53.837639 46.704979 7.872421
53.924349 47.307106 6.62474
53.310076 48.040619 7.217397
48.025984 52.041405 14.116704
48.035258 52.808075 12.706421
50.523317 43.225081 17.804026
49.851636 43.789049 18.675402
50.159298 42.432418 18.983913
46.928126 34.299499 25.046078
47.536766 35.244044 24.127962
45.449517 24.671711 27.835286
45.824394 25.61297 26.933833
45.042378 26.070169 28.039507
45.203032 23.787325 28.758858
45.985048 23.330126 27.653184
45.449517 24.671711 27.835286
52.850939 51.031056 -1.437566
52.563921 51.488511 -2.559684
44.903423 21.136663 31.692843
44.928131 22.020858 30.689526
53.985291 9.095271 8.506745
53.99663 10.82047 8.111256
54.862223 10.462839 7.994655
53.056885 7.680354 9.15196
53.985291 9.095271 8.506745
49.531948 20.052566 24.980145
48.614391 21.209822 25.179069
48.48703 20.467337 26.119329
50.643608 19.680119 23.806537
49.531948 20.052566 24.980145
49.491644 51.524544 10.897898
50.282522 50.846276 10.056667
37.679934 16.762587 5.967056
37.423216 16.695002 5.158618
38.092391 16.752396 6.639938
37.679934 16.762587 5.967056
37.939228 18.767836 6.196118
38.48155 16.713428 7.299048
38.222256 14.708179 7.069985
38.092391 16.752396 6.639938
38.39683 42.480808 -10.064878
39.179327 43.863548 -10.516592
38.140314 41.572599 -8.84162
37.666054 41.013537 -9.663218
38.39683 42.480808 -10.064878
36.969992 22.53132 3.61017
36.870077 24.404916 2.974865
37.152969 24.564903 3.823308
37.118077 20.621755 4.165175
36.969992 22.53132 3.61017
37.255021 18.665115 4.697486
37.118077 20.621755 4.165175
37.389828 20.734667 4.990925
37.423216 16.695002 5.158618
37.255021 18.665115 4.697486
54.32575 19.598081 18.496302
53.470387 20.800016 18.814296
53.262903 20.149425 19.666173
55.365651 19.047443 17.307479
54.32575 19.598081 18.496302
56.321246 18.430481 16.141324
55.488829 19.63171 16.478269
55.365651 19.047443 17.307479
57.21559 17.793631 14.990022
56.321246 18.430481 16.141324
48.489739 49.379459 -6.105189
49.155174 49.142406 -5.220986
48.489739 49.379459 -6.105189
47.605739 48.449097 -5.739353
45.091131 47.719501 -6.871249
45.821092 47.664947 -6.06843
44.042254 46.676968 -6.355968
44.356976 47.707268 -7.639194
45.091131 47.719501 -6.871249
47.939926 50.497681 16.883336
47.936004 51.290177 15.492276
48.376564 49.152264 17.255627
47.939926 50.497681 16.883336
48.852047 47.813687 17.669373
48.954624 48.595772 16.326694
48.376564 49.152264 17.255627
49.668385 41.620178 20.059896
49.241957 40.780683 21.172873
50.340065 41.05621 19.18852
50.159298 42.432418 18.983913
49.668385 41.620178 20.059896
45.702707 32.37447 26.80987
46.291182 33.342258 25.908193
45.666645 30.899191 26.649423
45.702707 32.37447 26.80987
45.127638 31.402727 27.678552
44.781745 27.498768 28.223408
45.254416 28.469438 27.32808
44.618906 28.956778 28.413434
45.042378 26.070169 28.039507
44.781745 27.498768 28.223408
53.399037 50.04945 0.787428
53.201531 50.552109 -0.370488
53.870653 48.721863 1.551234
53.399037 50.04945 0.787428
53.649916 49.53474 1.89262
43.193895 11.154146 10.355082
43.974367 10.895734 10.456198
55.642311 11.785424 7.579154
55.594115 13.456143 7.356774
56.362864 13.053528 7.336762
54.862223 10.462839 7.994655
55.642311 11.785424 7.579154
36.209274 29.041187 -1.095173
36.273905 27.382387 -0.321123
53.003731 19.432012 20.532601
53.262903 20.149425 19.666173
52.148367 20.633947 20.850594
53.003731 19.432012 20.532601
52.896585 18.825918 21.449239
51.132548 50.571408 -4.725575
51.638489 50.20546 -3.725847
50.597681 49.690525 -4.60611
51.132548 50.571408 -4.725575
49.890338 48.837333 -4.405748
50.597681 49.690525 -4.60611
50.523375 48.500546 -3.499758
49.080867 47.952427 -4.114634
49.155174 49.142406 -5.220986
49.890338 48.837333 -4.405748
52.61471 48.775509 7.845944
53.310076 48.040619 7.217397
51.863222 49.474091 8.534533
51.072365 50.180683 9.272502
52.471878 48.137073 9.153668
52.61471 48.775509 7.845944
51.863222 49.474091 8.534533
44.851169 10.57522 10.422372
43.974367 10.895734 10.456198
44.872232 12.572306 9.981328
44.851169 10.57522 10.422372
45.699736 10.296992 10.411723
48.44796 9.31991 10.018428
47.513508 9.667706 10.193112
48.517948 11.230566 9.533257
48.44796 9.31991 10.018428
49.37153 9.016752 9.861673
58.427473 18.469736 10.177215
58.043562 19.325813 11.08081
58.429516 17.881155 10.784249
58.623644 17.557272 9.372599
58.23769 19.00193 9.669161
58.427473 18.469736 10.177215
58.731257 16.596449 8.705018
58.623644 17.557272 9.372599
58.650759 15.583704 8.163489
58.353363 17.076721 8.323018
58.731257 16.596449 8.705018
58.478924 14.513146 7.797339
58.650759 15.583704 8.163489
58.132156 13.395176 7.574259
57.926097 14.946006 7.558408
58.478924 14.513146 7.797339
57.697647 12.216212 7.54309
58.132156 13.395176 7.574259
36.236799 36.088148 -8.906704
36.579809 37.81457 -9.076885
36.184658 34.946445 -7.890796
36.236799 36.088148 -8.906704
36.718855 27.995669 1.564517
37.01084 28.204577 2.436494
36.761071 26.229591 2.316027
36.417204 27.735326 0.672905
36.666973 29.710312 0.793372
36.718855 27.995669 1.564517
36.273905 27.382387 -0.321123
36.417204 27.735326 0.672905
58.024879 18.176004 12.388827
57.410578 19.498905 12.746245
57.389853 18.937677 13.447228
58.573915 17.377351 11.404078
58.024879 18.176004 12.388827
57.224289 18.314763 14.200962
57.21559 17.793631 14.990022
42.270361 47.178096 -9.981316
42.960111 47.436138 -9.207595
41.301553 45.987198 -9.457654
42.270361 47.178096 -9.981316
40.945375 45.093367 -8.151141
40.309841 44.760519 -8.930601
41.301553 45.987198 -9.457654
53.899855 47.880417 5.454846
53.893215 48.451286 4.22855
54.427418 46.544777 6.10987
53.899855 47.880417 5.454846
53.924349 47.307106 6.62474
48.750841 52.159527 11.773507
48.035258 52.808075 12.706421
49.399902 50.801823 12.286196
49.491644 51.524544 10.897898
48.750841 52.159527 11.773507
48.56912 50.685577 14.537377
48.025984 52.041405 14.116704
47.936004 51.290177 15.492276
49.200806 46.47527 18.011645
48.852047 47.813687 17.669373
49.59358 45.137528 18.389183
49.851636 43.789049 18.675402
49.822882 45.919453 17.117978
49.200806 46.47527 18.011645
49.59358 45.137528 18.389183
48.194931 36.1717 23.249741
48.788788 37.079876 22.293583
48.173767 34.713072 23.178291
48.194931 36.1717 23.249741
47.536766 35.244044 24.127962
46.878658 32.828175 24.918626
46.928126 34.299499 25.046078
46.291182 33.342258 25.908193
52.482426 50.625824 -2.719843
52.563921 51.488511 -2.559684
52.657055 49.362766 -1.76384
52.22089 49.794124 -2.795571
52.482426 50.625824 -2.719843
53.269182 49.715519 -0.621035
52.850939 51.031056 -1.437566
53.201531 50.552109 -0.370488
44.994406 22.871214 29.711416
45.203032 23.787325 28.758858
45.672289 21.595385 29.554867
44.994406 22.871214 29.711416
44.928131 22.020858 30.689526
45.726114 19.930446 31.558519
44.903423 21.136663 31.692843
46.560045 19.618188 30.3899
45.726114 19.930446 31.558519
47.438482 19.255851 29.239241
46.484451 20.382692 29.38232
46.560045 19.618188 30.3899
48.420393 18.96241 28.069676
47.438482 19.255851 29.239241
39.248936 12.46549 8.60325
38.733382 12.596075 8.098278
39.12697 14.538628 8.234066
39.336049 10.388841 8.981996
39.248936 12.46549 8.60325
39.729637 12.331394 9.117783
39.435944 8.31252 9.301616
39.336049 10.388841 8.981996
42.379702 11.449877 10.277669
43.181236 13.188551 9.937741
43.193895 11.154146 10.355082
41.685272 11.679927 10.047855
42.379702 11.449877 10.277669
40.953884 11.93803 9.839753
41.635655 13.742386 9.652226
41.685272 11.679927 10.047855
40.410126 10.065158 9.865956
40.360508 12.127617 9.470327
40.953884 11.93803 9.839753
39.877209 8.18081 9.843208
40.410126 10.065158 9.865956
39.435944 8.31252 9.301616
39.877209 8.18081 9.843208
52.13587 7.991836 9.315043
51.231407 8.351281 9.489012
52.215235 9.812347 8.797315
52.13587 7.991836 9.315043
53.056885 7.680354 9.15196
56.995195 12.605423 7.447235
57.697647 12.216212 7.54309
39.412377 43.45328 -8.433684
39.768555 44.34711 -9.740197
40.309841 44.760519 -8.930601
36.0627 33.753137 -6.823473
36.184658 34.946445 -7.890796
36.294824 35.601591 -6.876359
36.228731 30.620901 -1.982785
36.384779 31.029684 -0.985853
36.209274 29.041187 -1.095173
36.22595 32.143797 -2.861798
36.228731 30.620901 -1.982785
36.323958 33.566557 -3.862922
36.502243 34.032158 -2.874589
36.22595 32.143797 -2.861798
36.110266 33.043239 -4.829584
36.386558 34.931601 -4.842375
36.323958 33.566557 -3.862922
36.050938 32.443317 -5.883736
36.110266 33.043239 -4.829584
36.0627 33.753137 -6.823473
36.050938 32.443317 -5.883736
3 1 71 69
3 0 273 275
3 275 274 72
3 273 274 275
3 0 276 277
3 1 76 74
3 1 69 76
3 3 79 78
3 4 82 80
3 4 84 82
3 2 87 85
3 278 88 279
3 3 91 89
3 3 78 91
3 5 94 92
3 7 97 95
3 7 99 97
3 8 102 100
3 10 280 282
3 282 281 104
3 280 281 282
3 10 283 285
3 283 105 284
3 283 284 285
3 10 107 105
3 5 110 108
3 5 92 110
3 286 114 287
3 288 287 112
3 286 287 288
3 13 117 115
3 13 119 117
3 289 121 290
3 291 123 292
3 293 292 121
3 291 292 293
3 294 125 295
3 296 295 123
3 294 295 296
3 297 127 298
3 297 298 299
3 301 300 127
3 302 112 303
3 6 132 130
3 12 135 133
3 14 138 136
3 14 140 138
3 9 143 141
3 15 146 144
3 15 148 146
3 15 304 306
3 306 305 148
3 304 305 306
3 11 152 150
3 16 155 153
3 18 156 70
3 18 157 156
3 19 160 158
3 307 161 308
3 309 308 73
3 307 308 309
3 311 310 161
3 21 312 314
3 312 162 313
3 312 313 314
3 22 163 75
3 22 164 163
3 22 166 164
3 16 167 77
3 16 153 167
3 25 315 317
3 315 168 316
3 315 316 317
3 25 169 168
3 26 318 319
3 26 320 321
3 27 172 170
3 29 173 81
3 29 322 324
3 324 323 173
3 322 323 324
3 29 325 326
3 30 327 329
3 329 328 83
3 327 328 329
3 30 330 331
3 31 176 174
3 33 177 86
3 33 178 177
3 333 332 179
3 35 334 335
3 35 336 338
3 336 181 337
3 336 337 338
3 36 184 182
3 340 339 90
3 38 187 185
3 40 188 93
3 40 189 188
3 17 190 154
3 41 191 96
3 41 192 191
3 41 193 192
3 42 194 98
3 42 195 194
3 43 198 196
3 45 199 101
3 45 200 199
3 20 201 159
3 46 202 103
3 46 203 202
3 46 341 343
3 343 342 203
3 341 342 343
3 47 344 345
3 47 346 348
3 346 204 347
3 346 347 348
3 47 206 204
3 49 207 106
3 49 208 207
3 23 209 165
3 50 210 109
3 50 211 210
3 50 212 211
3 38 213 111
3 38 185 213
3 51 216 214
3 53 217 113
3 53 218 217
3 24 349 351
3 349 219 350
3 349 350 351
3 54 220 116
3 54 221 220
3 54 222 221
3 55 223 118
3 55 224 223
3 352 225 353
3 56 226 120
3 56 227 226
3 57 354 356
3 354 228 355
3 354 355 356
3 57 229 228
3 57 230 229
3 58 231 122
3 58 232 231
3 58 233 232
3 59 234 124
3 59 235 234
3 357 236 358
3 60 237 126
3 60 238 237
3 60 239 238
3 359 240 360
3 361 360 128
3 359 360 361
3 362 241 363
3 364 363 240
3 362 363 364
3 365 242 366
3 51 243 129
3 51 214 243
3 367 244 368
3 39 245 186
3 61 246 131
3 61 247 246
3 28 248 171
3 52 249 215
3 62 250 134
3 62 251 250
3 32 252 175
3 63 253 137
3 63 254 253
3 63 255 254
3 64 256 139
3 64 257 256
3 44 258 197
3 65 259 142
3 65 260 259
3 34 261 180
3 66 262 145
3 66 263 262
3 66 264 263
3 67 265 147
3 67 266 265
3 67 267 266
3 369 268 370
3 371 370 149
3 369 370 371
3 373 372 268
3 48 269 205
3 68 270 151
3 68 271 270
3 37 272 183
3 69 70 16
3 71 70 69
3 71 18 70
3 72 73 19
3 374 73 375
3 376 375 72
3 374 375 376
3 378 377 73
3 74 75 21
3 76 75 74
3 76 22 75
3 76 77 22
3 69 77 76
3 69 16 77
3 379 25 380
3 78 381 382
3 79 383 385
3 385 384 78
3 383 384 385
3 79 386 388
3 386 26 387
3 386 387 388
3 80 81 27
3 82 81 80
3 82 29 81
3 82 83 29
3 84 83 82
3 84 30 83
3 85 86 31
3 87 86 85
3 87 33 86
3 88 389 390
3 88 391 393
3 391 35 392
3 391 392 393
3 89 90 36
3 91 90 89
3 91 394 396
3 396 395 90
3 394 395 396
3 91 397 398
3 78 399 401
3 401 400 91
3 399 400 401
3 78 402 403
3 92 93 38
3 94 93 92
3 94 40 93
3 95 96 17
3 97 96 95
3 97 41 96
3 97 98 41
3 99 98 97
3 99 42 98
3 100 101 43
3 102 101 100
3 102 45 101
3 404 103 405
3 406 405 20
3 404 405 406
3 407 103 408
3 409 46 410
3 411 410 103
3 409 410 411
3 413 412 46
3 104 414 415
3 417 416 104
3 105 418 419
3 105 420 422
3 420 47 421
3 420 421 422
3 105 106 47
3 107 106 105
3 107 49 106
3 108 109 23
3 110 109 108
3 110 50 109
3 110 111 50
3 92 111 110
3 92 38 111
3 112 113 51
3 114 113 112
3 114 53 113
3 115 116 24
3 117 116 115
3 117 54 116
3 117 118 54
3 119 118 117
3 119 55 118
3 423 120 424
3 425 120 426
3 427 56 428
3 429 428 120
3 427 428 429
3 121 430 431
3 121 432 434
3 432 57 433
3 432 433 434
3 121 122 57
3 123 122 121
3 123 58 122
3 123 124 58
3 125 124 123
3 125 59 124
3 435 126 436
3 127 437 439
3 437 126 438
3 437 438 439
3 127 60 126
3 127 128 60
3 440 128 441
3 442 441 127
3 440 441 442
3 444 443 128
3 445 129 446
3 112 447 449
3 447 129 448
3 447 448 449
3 112 51 129
3 130 131 39
3 132 131 130
3 132 61 131
3 451 450 28
3 133 134 52
3 135 134 133
3 135 62 134
3 136 137 32
3 138 137 136
3 138 63 137
3 138 139 63
3 140 139 138
3 140 64 139
3 141 142 44
3 143 142 141
3 143 65 142
3 144 145 34
3 146 145 144
3 146 66 145
3 146 147 66
3 148 147 146
3 148 67 147
3 148 149 67
3 452 149 453
3 454 453 148
3 452 453 454
3 456 455 149
3 150 151 48
3 152 151 150
3 152 68 151
3 458 457 37
3 153 154 5
3 155 154 153
3 155 17 154
3 70 155 16
3 156 155 70
3 156 17 155
3 156 95 17
3 157 95 156
3 157 7 95
3 158 159 8
3 160 159 158
3 160 20 159
3 73 160 19
3 161 160 73
3 161 20 160
3 161 459 461
3 461 460 20
3 459 460 461
3 463 462 161
3 162 464 465
3 162 466 467
3 75 162 21
3 163 162 75
3 163 468 470
3 470 469 162
3 468 469 470
3 163 471 473
3 471 104 472
3 471 472 473
3 164 104 163
3 164 10 104
3 164 165 10
3 166 165 164
3 166 23 165
3 77 166 22
3 167 166 77
3 167 23 166
3 167 108 23
3 153 108 167
3 153 5 108
3 474 24 475
3 168 476 477
3 168 478 480
3 478 24 479
3 478 479 480
3 168 115 24
3 169 115 168
3 169 13 115
3 170 171 6
3 172 171 170
3 172 28 171
3 81 172 27
3 173 172 81
3 173 28 172
3 173 481 483
3 483 482 28
3 481 482 483
3 485 484 173
3 83 486 488
3 488 487 29
3 486 487 488
3 490 489 83
3 174 175 12
3 176 175 174
3 176 32 175
3 86 176 31
3 177 176 86
3 177 32 176
3 177 136 32
3 178 136 177
3 178 14 136
3 179 180 9
3 491 180 492
3 493 492 179
3 491 492 493
3 494 34 495
3 496 495 180
3 494 495 496
3 497 34 498
3 499 144 500
3 501 500 34
3 499 500 501
3 502 144 503
3 504 15 505
3 506 505 144
3 504 505 506
3 508 507 15
3 181 509 510
3 181 511 512
3 182 183 11
3 184 183 182
3 184 37 183
3 90 184 36
3 513 184 514
3 515 514 90
3 513 514 515
3 516 37 517
3 518 517 184
3 516 517 518
3 520 519 37
3 185 186 3
3 187 186 185
3 187 39 186
3 93 187 38
3 188 187 93
3 188 39 187
3 188 130 39
3 189 130 188
3 189 6 130
3 154 94 5
3 190 94 154
3 190 40 94
3 96 190 17
3 191 190 96
3 191 40 190
3 191 189 40
3 192 189 191
3 192 6 189
3 192 170 6
3 193 170 192
3 193 27 170
3 98 193 41
3 194 193 98
3 194 27 193
3 194 80 27
3 195 80 194
3 195 4 80
3 196 197 2
3 198 197 196
3 198 44 197
3 101 198 43
3 199 198 101
3 199 44 198
3 199 141 44
3 200 141 199
3 200 9 141
3 159 102 8
3 201 102 159
3 201 45 102
3 103 201 20
3 202 201 103
3 202 45 201
3 202 200 45
3 203 200 202
3 203 9 200
3 203 179 9
3 521 179 522
3 523 522 203
3 521 522 523
3 525 524 179
3 527 526 46
3 204 528 529
3 204 530 531
3 204 532 534
3 532 205 533
3 532 533 534
3 206 205 204
3 206 48 205
3 106 206 47
3 207 206 106
3 207 48 206
3 207 150 48
3 208 150 207
3 208 11 150
3 165 107 10
3 209 107 165
3 209 49 107
3 109 209 23
3 210 209 109
3 210 49 209
3 210 208 49
3 211 208 210
3 211 11 208
3 211 182 11
3 212 182 211
3 212 36 182
3 111 212 50
3 213 212 111
3 213 36 212
3 213 89 36
3 185 89 213
3 185 3 89
3 214 215 1
3 216 215 214
3 216 52 215
3 113 216 51
3 217 216 113
3 217 52 216
3 217 133 52
3 218 133 217
3 218 12 133
3 535 114 536
3 219 537 539
3 537 114 538
3 537 538 539
3 219 53 114
3 116 219 24
3 220 219 116
3 220 53 219
3 220 218 53
3 221 218 220
3 221 12 218
3 221 174 12
3 222 174 221
3 222 31 174
3 118 222 54
3 223 222 118
3 223 31 222
3 223 85 31
3 224 85 223
3 224 2 85
3 225 540 541
3 225 542 544
3 542 25 543
3 542 543 544
3 120 545 547
3 545 225 546
3 545 546 547
3 226 225 120
3 226 25 225
3 226 169 25
3 227 169 226
3 227 13 169
3 548 56 549
3 228 550 551
3 228 552 554
3 552 56 553
3 552 553 554
3 228 227 56
3 229 227 228
3 229 13 227
3 229 119 13
3 230 119 229
3 230 55 119
3 122 230 57
3 231 230 122
3 231 55 230
3 231 224 55
3 232 224 231
3 232 2 224
3 232 196 2
3 233 196 232
3 233 43 196
3 124 233 58
3 234 233 124
3 234 43 233
3 234 100 43
3 235 100 234
3 235 8 100
3 555 125 556
3 236 557 559
3 557 125 558
3 557 558 559
3 236 59 125
3 126 560 562
3 560 236 561
3 560 561 562
3 237 236 126
3 237 59 236
3 237 235 59
3 238 235 237
3 238 8 235
3 238 158 8
3 239 158 238
3 239 19 158
3 128 239 60
3 240 239 128
3 240 19 239
3 240 72 19
3 241 72 240
3 241 0 72
3 242 563 564
3 242 565 567
3 565 21 566
3 565 566 567
3 129 568 570
3 568 242 569
3 568 569 570
3 243 242 129
3 243 21 242
3 243 74 21
3 214 74 243
3 214 1 74
3 571 241 572
3 244 573 575
3 573 241 574
3 573 574 575
3 244 0 241
3 576 244 577
3 578 244 579
3 580 0 581
3 582 581 244
3 580 581 582
3 584 583 0
3 186 79 3
3 245 79 186
3 245 26 79
3 131 245 39
3 246 245 131
3 246 26 245
3 246 585 587
3 587 586 26
3 585 586 587
3 247 588 590
3 590 589 246
3 588 589 590
3 247 591 592
3 171 132 6
3 248 132 171
3 248 61 132
3 593 248 594
3 595 594 28
3 593 594 595
3 596 248 597
3 598 61 599
3 600 599 248
3 598 599 600
3 601 247 602
3 603 602 61
3 601 602 603
3 604 247 605
3 607 606 247
3 215 71 1
3 249 71 215
3 249 18 71
3 134 249 52
3 250 249 134
3 250 18 249
3 250 157 18
3 251 157 250
3 251 7 157
3 175 135 12
3 252 135 175
3 252 62 135
3 137 252 32
3 253 252 137
3 253 62 252
3 253 251 62
3 254 251 253
3 254 7 251
3 254 99 7
3 255 99 254
3 255 42 99
3 139 255 63
3 256 255 139
3 256 42 255
3 256 195 42
3 257 195 256
3 257 4 195
3 197 87 2
3 258 87 197
3 258 33 87
3 142 258 44
3 259 258 142
3 259 33 258
3 259 178 33
3 260 178 259
3 260 14 178
3 180 143 9
3 261 143 180
3 261 65 143
3 145 261 34
3 262 261 145
3 262 65 261
3 262 260 65
3 263 260 262
3 263 14 260
3 263 140 14
3 264 140 263
3 264 64 140
3 147 264 66
3 265 264 147
3 265 64 264
3 265 257 64
3 266 257 265
3 266 4 257
3 266 84 4
3 267 84 266
3 267 30 84
3 149 267 67
3 268 267 149
3 268 30 267
3 268 608 610
3 610 609 30
3 608 609 610
3 612 611 268
3 614 613 15
3 205 615 617
3 615 88 616
3 615 616 617
3 269 88 205
3 269 35 88
3 151 269 48
3 270 269 151
3 270 35 269
3 270 181 35
3 271 181 270
3 271 618 620
3 620 619 181
3 618 619 620
3 183 152 11
3 272 152 183
3 272 68 152
3 621 272 622
3 623 622 37
3 621 622 623
3 624 272 625
3 626 68 627
3 628 627 272
3 626 627 628
3 629 271 630
3 631 630 68
3 629 630 631
3 632 271 633
3 635 634 271
