ply
format ascii 1.0
element vertex 102
property float x
property float y
property float z
element face 85
property list uchar int vertex_index
end_header
30.126993 -2.654116 -44.498985
30.51116 2.77993 -38.333168
30.530272 2.118961 -43.554405
30.705776 6.854094 -46.961418
29.780979 2.378773 -48.400047
30.666981 4.619366 -39.942017
30.712551 2.269104 -40.932838
30.71027 4.383371 -42.639893
30.212337 4.695786 -47.849068
30.068111 4.937284 -50.149704
29.639385 2.503681 -50.459969
30.772743 0.284548 -39.157768
30.727686 -0.117519 -41.701691
30.338684 -0.226706 -44.185242
30.865654 6.590437 -44.263763
30.494053 4.458414 -45.315483
30.147364 2.203375 -46.075394
29.820648 -0.168812 -46.507935
29.406799 -0.076929 -48.596313
30.009679 -3.906426 -44.492725
30.369165 -3.845461 -43.442775
29.818315 -2.650511 -45.548965
30.009679 -3.906426 -44.492725
30.77682 5.596486 -40.718498
30.635925 5.783999 -39.369492
30.798465 5.478489 -42.067436
30.688626 4.501368 -41.290955
30.77682 5.596486 -40.718498
30.391658 6.191556 -50.930851
30.332304 6.066249 -49.811008
30.151259 4.987823 -51.152008
30.391658 6.191556 -50.930851
30.161504 3.26246 -37.114464
30.364375 4.032446 -37.8484
30.41515 1.931501 -37.505752
30.161504 3.26246 -37.114464
30.641951 1.532239 -38.745468
30.545942 0.68381 -37.918053
30.41515 1.931501 -37.505752
30.983122 7.846914 -46.367108
30.966892 8.050357 -47.705204
30.785715 6.722265 -45.61259
31.063061 7.715085 -45.01828
30.983122 7.846914 -46.367108
29.471169 1.214894 -50.430027
29.76153 2.480992 -51.334423
30.442286 4.952164 -38.652825
30.635925 5.783999 -39.369492
30.58907 3.699648 -39.137592
30.364375 4.032446 -37.8484
30.442286 4.952164 -38.652825
30.651137 7.024655 -48.216865
30.966892 8.050357 -47.705204
30.404418 5.9455 -48.660691
30.459057 5.77494 -47.405243
30.651137 7.024655 -48.216865
30.140224 4.816535 -48.999386
30.404418 5.9455 -48.660691
30.332304 6.066249 -49.811008
29.936896 3.771021 -51.307141
29.853748 3.720483 -50.304837
30.151259 4.987823 -51.152008
30.059041 3.748331 -52.181595
29.76153 2.480992 -51.334423
29.936896 3.771021 -51.307141
30.412242 -2.60261 -43.347461
30.369165 -3.845461 -43.442775
30.776601 -0.630664 -38.241378
30.545942 0.68381 -37.918053
30.876247 -0.966349 -39.46355
30.776601 -0.630664 -38.241378
30.853718 -1.167383 -40.735512
30.876247 -0.966349 -39.46355
30.750214 0.083515 -40.429729
30.712588 -1.334312 -41.948814
30.853718 -1.167383 -40.735512
30.518088 -1.388906 -43.19059
30.712588 -1.334312 -41.948814
30.533185 -0.172113 -42.943466
30.232838 -1.440411 -44.342113
30.412242 -2.60261 -43.347461
30.518088 -1.388906 -43.19059
31.063202 7.596107 -43.617404
31.063061 7.715085 -45.01828
30.876157 6.582021 -42.879371
31.063202 7.596107 -43.617404
30.787962 5.486904 -43.451828
30.798465 5.478489 -42.067436
30.876157 6.582021 -42.879371
29.665143 -1.407859 -46.553441
29.818315 -2.650511 -45.548965
29.97382 -1.411464 -45.50346
29.458219 -1.361917 -47.597629
29.665143 -1.407859 -46.553441
29.613723 -0.12287 -47.552124
29.247046 -1.363407 -48.518406
29.458219 -1.361917 -47.597629
29.354875 -0.075411 -49.498199
29.523092 1.213376 -49.528141
29.471169 1.214894 -50.430027
29.247046 -1.363407 -48.518406
29.354875 -0.075411 -49.498199
3 0 19 20
3 0 21 22
3 23 5 24
3 25 7 26
3 27 26 5
3 25 26 27
3 28 9 29
3 31 30 9
3 1 32 33
3 1 34 35
3 1 36 38
3 36 11 37
3 36 37 38
3 2 12 6
3 2 13 12
3 3 39 40
3 3 41 43
3 41 14 42
3 41 42 43
3 3 15 14
3 4 16 8
3 4 17 16
3 4 18 17
3 45 44 10
3 5 46 47
3 5 48 50
3 48 1 49
3 48 49 50
3 5 6 1
3 7 6 5
3 7 2 6
3 51 3 52
3 53 8 54
3 55 54 3
3 53 54 55
3 9 56 58
3 56 8 57
3 56 57 58
3 9 4 8
3 9 10 4
3 59 10 60
3 61 60 9
3 59 60 61
3 64 63 10
3 62 63 64
3 65 0 66
3 11 67 68
3 11 69 70
3 6 11 1
3 12 11 6
3 12 71 73
3 73 72 11
3 71 72 73
3 12 74 75
3 13 76 78
3 78 77 12
3 76 77 78
3 13 79 81
3 79 0 80
3 79 80 81
3 14 82 83
3 14 84 85
3 14 86 88
3 86 7 87
3 86 87 88
3 15 7 14
3 15 2 7
3 8 15 3
3 16 15 8
3 16 2 15
3 16 13 2
3 17 13 16
3 17 0 13
3 17 89 91
3 91 90 0
3 89 90 91
3 18 92 94
3 94 93 17
3 92 93 94
3 18 95 96
3 10 18 4
3 97 18 98
3 99 98 10
3 97 98 99
3 101 100 18
