ply
format ascii 1.0
element vertex 292
property float x
property float y
property float z
element face 284
property list uchar int vertex_index
end_header
38.44548 16.023228 -11.620039
36.338005 26.27586 -16.636595
37.802086 6.137817 2.243454
39.055138 6.370296 9.106703
36.417244 20.926556 -1.394264
37.497818 21.601715 -13.961498
38.730389 18.764355 -19.298952
37.31966 14.611977 4.793999
37.982822 6.559826 6.145959
36.687099 22.371334 2.761727
37.07827 13.653709 0.75845
39.215874 9.883846 -9.537979
36.902012 22.862011 -21.484079
35.961433 29.880692 -12.10582
36.497414 24.760235 -8.935184
36.001148 27.546677 -4.253658
37.106358 18.634254 -6.284161
37.773491 11.909159 -4.119274
38.432858 5.043913 -2.411694
37.996677 18.907257 -12.753119
38.725544 17.552979 -15.470947
39.272335 14.829956 -14.400726
37.833096 14.747147 6.410876
36.983269 18.552204 3.871736
39.545555 6.737169 -8.569483
35.675732 28.214886 -18.105574
35.748608 26.33704 -20.331713
36.606377 24.50753 -19.01792
38.36076 2.128016 0.556534
38.151619 2.404671 2.731031
38.4035 6.530293 7.754488
38.268669 2.54846 6.604351
35.895714 31.570412 -9.940203
36.222023 27.465477 -10.456001
36.002636 29.055214 -8.166969
36.182487 25.314804 -0.544006
36.053226 28.632404 -2.092106
36.168018 24.345341 -2.732492
36.386402 23.154457 -5.078419
36.661045 19.859722 -3.768175
37.435951 15.318039 -5.144032
36.977585 16.40876 -2.60845
37.442104 9.902306 1.584244
37.672153 9.259663 -0.723122
38.019833 5.667048 -0.001287
38.743591 1.705875 -1.749531
36.945232 24.067028 -15.254307
37.392174 22.422005 -17.770819
38.099628 20.095356 -16.590807
37.433975 10.35268 3.684016
37.786098 6.434547 4.300817
37.661697 10.598312 5.546992
38.134773 10.647579 7.147713
38.855347 10.522938 8.467462
36.469086 26.020683 1.44405
36.414951 21.776798 0.797022
36.728706 17.345051 -0.232969
36.721935 18.070786 1.940898
37.071606 14.246887 2.899754
38.850037 12.99778 -10.551769
34.823841 27.905285 -21.700537
35.861774 24.547276 -22.636404
37.862602 20.928448 -20.371679
38.116714 2.539967 4.756278
36.116825 28.092197 -14.335466
36.546768 25.776745 -12.817923
36.953773 23.187576 -11.40967
37.341568 20.355595 -10.108995
36.047665 31.678196 -3.850132
35.929008 30.478352 -5.958437
36.165169 26.236771 -6.544268
36.79221 21.800232 -7.545771
37.713074 17.325314 -8.909338
38.070309 14.149662 -7.802181
38.41304 10.885298 -6.779247
38.737843 7.590601 -5.83452
37.32029 12.857479 -1.593992
38.108887 8.465044 -3.207081
39.039223 4.327358 -4.966879
39.313812 1.165739 -4.184519
40.184275 4.890441 -9.480431
39.69162 5.177481 -8.104401
38.839485 4.409942 8.676856
38.513666 4.489941 8.000749
38.729319 6.450295 8.430595
39.125484 4.317499 9.383585
38.839485 4.409942 8.676856
35.924124 32.334202 -8.889057
35.976265 33.475904 -9.904965
35.977585 31.076603 -8.002439
35.949175 30.312813 -9.053586
35.924124 32.334202 -8.889057
39.111361 16.973976 -16.864899
39.444032 15.702624 -16.356047
38.373095 12.658396 7.438404
37.983935 12.697363 6.779295
38.222256 14.708179 7.069985
38.733382 12.596075 8.098278
38.49506 10.585259 7.807588
38.373095 12.658396 7.438404
36.578092 24.196008 2.102889
36.761071 26.229591 2.316027
36.870077 24.404916 2.974865
39.687942 9.450242 -10.950807
39.505024 11.007209 -11.457702
39.032955 11.440813 -10.044874
34.889094 28.894617 -20.67358
34.49286 29.599247 -21.465798
37.049618 22.133038 -22.757959
36.529499 22.97567 -23.334122
36.381893 23.704643 -22.060242
38.34888 0.634651 5.832897
38.394413 0.584978 6.77089
35.832659 30.935149 -12.989215
35.895546 31.821494 -11.976104
36.039129 28.986444 -13.220643
35.910354 30.040901 -14.104038
35.832659 30.935149 -12.989215
39.156239 -0.052099 -2.631856
38.90074 0.106024 -1.50293
39.717428 14.341112 -15.820937
39.444032 15.702624 -16.356047
38.998939 16.191468 -14.935837
37.679934 16.762587 5.967056
37.576378 14.679562 5.602438
37.423216 16.695002 5.158618
38.092391 16.752396 6.639938
37.679934 16.762587 5.967056
38.222256 14.708179 7.069985
38.092391 16.752396 6.639938
36.969992 22.53132 3.61017
36.870077 24.404916 2.974865
37.118077 20.621755 4.165175
36.835184 20.461769 3.316731
36.969992 22.53132 3.61017
37.255021 18.665115 4.697486
37.118077 20.621755 4.165175
37.423216 16.695002 5.158618
37.151465 16.58209 4.332867
37.255021 18.665115 4.697486
40.031585 6.380396 -9.972098
39.866745 7.953735 -10.456346
39.380714 8.310507 -9.053731
40.031585 6.380396 -9.972098
40.184275 4.890441 -9.480431
35.71217 27.275963 -19.218643
35.351477 28.110495 -19.989168
35.315039 29.049418 -18.876099
39.042851 18.230427 -20.691498
39.502535 17.146446 -20.205834
38.535769 0.404769 0.742536
38.709324 0.317094 -0.349898
38.431198 0.543096 1.829785
38.535769 0.404769 0.742536
38.256189 2.266344 1.643783
38.325502 0.575431 2.888276
38.431198 0.543096 1.829785
38.446251 2.499024 7.425681
38.336084 4.539377 7.179419
38.513666 4.489941 8.000749
38.394413 0.584978 6.77089
38.446251 2.499024 7.425681
35.862686 32.666353 -10.893296
35.976265 33.475904 -9.904965
35.928573 30.725552 -11.023011
35.895546 31.821494 -11.976104
35.862686 32.666353 -10.893296
36.117857 26.973604 -1.318056
36.209274 29.041187 -1.095173
36.273905 27.382387 -0.321123
38.709324 0.317094 -0.349898
38.90074 0.106024 -1.50293
38.552176 1.916946 -0.596499
38.798403 18.245165 -17.42483
38.412586 18.824168 -16.030877
39.111361 16.973976 -16.864899
39.113783 17.579664 -18.778902
38.415008 19.429855 -17.944879
38.798403 18.245165 -17.42483
39.502535 17.146446 -20.205834
39.113783 17.579664 -18.778902
36.718855 27.995669 1.564517
36.761071 26.229591 2.316027
36.417204 27.735326 0.672905
36.718855 27.995669 1.564517
36.325786 25.667744 0.450022
36.273905 27.382387 -0.321123
36.417204 27.735326 0.672905
39.298712 12.483285 -11.960233
39.096434 13.996009 -12.494367
38.647759 14.510504 -11.085904
39.298712 12.483285 -11.960233
39.505024 11.007209 -11.457702
39.687942 9.450242 -10.950807
39.866745 7.953735 -10.456346
34.327324 28.560188 -22.400059
34.49286 29.599247 -21.465798
34.78944 26.939678 -22.759621
34.327324 28.560188 -22.400059
35.286225 27.121162 -21.016125
34.889094 28.894617 -20.67358
35.351477 28.110495 -19.989168
35.308406 25.260674 -23.227555
34.78944 26.939678 -22.759621
35.342807 26.226281 -22.16847
35.926899 23.72213 -23.824761
35.308406 25.260674 -23.227555
35.926899 23.72213 -23.824761
36.529499 22.97567 -23.334122
38.608957 19.312473 -21.227861
38.296496 19.846401 -19.835316
39.042851 18.230427 -20.691498
38.093748 20.296099 -21.713495
38.608957 19.312473 -21.227861
37.613453 21.262881 -22.269695
37.382307 21.895229 -20.927879
38.093748 20.296099 -21.713495
37.049618 22.133038 -22.757959
37.613453 21.262881 -22.269695
39.509861 13.399373 -13.884711
38.858908 15.426592 -13.010383
39.096434 13.996009 -12.494367
40.002779 13.00172 -15.317853
39.509861 13.399373 -13.884711
39.717428 14.341112 -15.820937
40.002779 13.00172 -15.317853
38.30805 0.643079 3.900899
38.325502 0.575431 2.888276
38.134166 2.472319 3.743654
38.272903 0.630404 4.908861
38.192692 2.544213 5.680314
38.34888 0.634651 5.832897
38.30805 0.643079 3.900899
38.272903 0.630404 4.908861
39.248936 12.46549 8.60325
38.733382 12.596075 8.098278
39.336049 10.388841 8.981996
39.248936 12.46549 8.60325
39.435944 8.31252 9.301616
38.955242 8.446617 8.787083
39.336049 10.388841 8.981996
39.496403 6.238586 9.648295
39.435944 8.31252 9.301616
39.125484 4.317499 9.383585
39.496403 6.238586 9.648295
35.41514 30.039459 -17.882193
35.315039 29.049418 -18.876099
35.66649 29.167506 -17.030525
35.41514 30.039459 -17.882193
35.997627 28.197993 -16.296036
36.006868 27.245373 -17.371085
35.66649 29.167506 -17.030525
35.887037 29.106161 -15.145471
35.910354 30.040901 -14.104038
36.227415 27.184029 -15.486031
35.997627 28.197993 -16.296036
35.887037 29.106161 -15.145471
36.228731 30.620901 -1.982785
36.209274 29.041187 -1.095173
36.22595 32.143797 -2.861798
36.228731 30.620901 -1.982785
36.050446 30.1553 -2.971119
36.323958 33.566557 -3.862922
36.22595 32.143797 -2.861798
36.110266 33.043239 -4.829584
36.323958 33.566557 -3.862922
36.050938 32.443317 -5.883736
36.110266 33.043239 -4.829584
35.988337 31.078274 -4.904285
35.940771 31.788172 -6.898174
36.050938 32.443317 -5.883736
35.965822 29.766783 -7.062703
35.977585 31.076603 -8.002439
35.940771 31.788172 -6.898174
39.287764 5.604197 -6.73692
39.69162 5.177481 -8.104401
39.141699 7.163885 -7.202001
39.438454 3.972576 -6.3031
39.287764 5.604197 -6.73692
38.888533 5.958979 -5.400699
39.563751 2.461654 -5.855772
39.438454 3.972576 -6.3031
39.701046 0.880844 -5.464592
39.563751 2.461654 -5.855772
39.176518 2.746549 -4.575699
39.804126 -0.535094 -5.037452
39.701046 0.880844 -5.464592
39.441349 -0.322167 -3.84935
39.028701 1.435807 -2.967025
39.156239 -0.052099 -2.631856
39.804126 -0.535094 -5.037452
39.441349 -0.322167 -3.84935
3 0 21 19
3 81 80 24
3 1 27 25
3 2 29 28
3 3 82 84
3 84 83 30
3 82 83 84
3 3 85 86
3 87 32 88
3 89 34 90
3 91 90 32
3 89 90 91
3 4 37 35
3 4 39 37
3 4 41 39
3 2 44 42
3 2 28 44
3 5 48 46
3 93 92 20
3 7 51 49
3 94 52 95
3 96 95 22
3 94 95 96
3 97 53 98
3 99 98 52
3 97 98 99
3 9 100 102
3 100 54 101
3 100 101 102
3 9 55 54
3 9 57 55
3 7 58 23
3 7 49 58
3 11 103 105
3 105 104 59
3 103 104 105
3 106 60 107
3 12 61 26
3 12 108 110
3 110 109 61
3 108 109 110
3 6 62 47
3 8 63 50
3 112 111 31
3 13 113 114
3 13 115 117
3 115 64 116
3 115 116 117
3 13 65 64
3 14 66 33
3 14 67 66
3 15 68 36
3 15 69 68
3 15 70 69
3 16 71 38
3 16 72 71
3 16 73 72
3 17 74 40
3 17 75 74
3 10 76 56
3 18 77 43
3 18 78 77
3 18 79 78
3 119 118 45
3 19 20 5
3 21 20 19
3 21 120 122
3 122 121 20
3 120 121 122
3 123 22 124
3 125 124 7
3 123 124 125
3 126 22 127
3 129 128 22
3 130 9 131
3 132 23 133
3 134 133 9
3 132 133 134
3 135 23 136
3 137 7 138
3 139 138 23
3 137 138 139
3 24 140 142
3 142 141 11
3 140 141 142
3 144 143 24
3 25 145 147
3 145 26 146
3 145 146 147
3 27 26 25
3 27 12 26
3 149 148 6
3 28 150 151
3 29 152 154
3 154 153 28
3 152 153 154
3 29 155 156
3 30 31 8
3 157 31 158
3 159 158 30
3 157 158 159
3 161 160 31
3 32 162 163
3 32 164 166
3 164 13 165
3 164 165 166
3 32 33 13
3 34 33 32
3 34 14 33
3 35 167 169
3 167 36 168
3 167 168 169
3 37 36 35
3 37 15 36
3 37 38 15
3 39 38 37
3 39 16 38
3 39 40 16
3 41 40 39
3 41 17 40
3 42 43 10
3 44 43 42
3 44 18 43
3 44 45 18
3 28 45 44
3 28 170 172
3 172 171 45
3 170 171 172
3 46 47 1
3 48 47 46
3 48 6 47
3 20 48 5
3 173 48 174
3 175 174 20
3 173 174 175
3 176 6 177
3 178 177 48
3 176 177 178
3 180 179 6
3 49 50 2
3 51 50 49
3 51 8 50
3 22 51 7
3 52 51 22
3 52 8 51
3 52 30 8
3 53 30 52
3 53 3 30
3 54 181 182
3 54 183 184
3 54 185 187
3 185 35 186
3 185 186 187
3 55 35 54
3 55 4 35
3 55 56 4
3 57 56 55
3 57 10 56
3 23 57 9
3 58 57 23
3 58 10 57
3 58 42 10
3 49 42 58
3 49 2 42
3 59 188 190
3 190 189 0
3 188 189 190
3 192 191 59
3 194 193 11
3 60 195 196
3 60 197 198
3 26 199 201
3 199 60 200
3 199 200 201
3 61 60 26
3 61 202 204
3 204 203 60
3 202 203 204
3 61 205 206
3 208 207 61
3 47 27 1
3 62 27 47
3 62 12 27
3 209 62 210
3 211 210 6
3 209 210 211
3 212 62 213
3 214 12 215
3 216 215 62
3 214 215 216
3 218 217 12
3 219 21 220
3 221 220 0
3 219 220 221
3 222 21 223
3 225 224 21
3 50 29 2
3 63 29 50
3 63 226 228
3 228 227 29
3 226 227 228
3 31 63 8
3 229 63 230
3 231 230 31
3 229 230 231
3 233 232 63
3 234 53 235
3 236 53 237
3 238 3 239
3 240 239 53
3 238 239 240
3 241 3 242
3 244 243 3
3 245 25 246
3 247 25 248
3 249 1 250
3 251 250 25
3 249 250 251
3 64 252 253
3 64 254 256
3 254 1 255
3 254 255 256
3 64 46 1
3 65 46 64
3 65 5 46
3 33 65 13
3 66 65 33
3 66 5 65
3 66 19 5
3 67 19 66
3 67 0 19
3 36 257 258
3 68 259 261
3 261 260 36
3 259 260 261
3 68 262 263
3 68 264 265
3 69 266 268
3 268 267 68
3 266 267 268
3 69 269 270
3 69 271 273
3 271 34 272
3 271 272 273
3 70 34 69
3 70 14 34
3 38 70 15
3 71 70 38
3 71 14 70
3 71 67 14
3 72 67 71
3 72 0 67
3 72 59 0
3 73 59 72
3 73 11 59
3 40 73 16
3 74 73 40
3 74 11 73
3 74 24 11
3 75 24 74
3 75 274 276
3 276 275 24
3 274 275 276
3 56 41 4
3 76 41 56
3 76 17 41
3 43 76 10
3 77 76 43
3 77 17 76
3 77 75 17
3 78 75 77
3 78 277 279
3 279 278 75
3 277 278 279
3 78 280 281
3 79 282 284
3 284 283 78
3 282 283 284
3 79 285 286
3 45 79 18
3 287 79 288
3 289 288 45
3 287 288 289
3 291 290 79
