ply
format ascii 1.0
element vertex 503
property float x
property float y
property float z
element face 584
property list uchar int vertex_index
end_header
-8.314447 42.529835 -32.877678
2.688457 34.248611 -29.277363
0.115778 69.983734 -29.817879
-0.322243 77.399918 -18.274979
1.607151 62.96619 -23.496674
-15.135777 26.896774 -30.7178
-1.18479 40.450409 -33.002716
-8.144985 24.716984 -29.674873
-16.539009 79.116287 -21.887619
-7.822794 71.090042 -29.747959
-2.803162 57.736675 -34.180843
2.193407 53.746761 -32.191376
3.464291 46.257603 -24.194122
-0.209791 73.008392 -14.596758
-12.691938 42.033298 -32.146896
-15.638957 34.391907 -31.544178
-11.530058 34.588413 -31.715847
1.16543 37.729015 -31.815128
-1.395979 30.22887 -30.842606
0.845982 26.91135 -29.468475
-1.804882 76.73317 -26.795479
-5.899792 77.236404 -27.171719
-2.931692 71.44133 -30.638382
-4.828167 64.924362 -32.594799
-0.881121 64.389847 -32.993835
0.400566 56.405552 -33.99649
1.394388 62.238316 -31.679756
2.570744 54.929028 -24.480408
0.193396 74.315903 -24.726212
1.359312 66.940216 -27.287415
0.662479 70.498993 -21.359909
0.740891 66.059937 -17.304745
-4.415627 42.084679 -33.216183
-7.723143 34.138752 -31.642345
-4.291096 32.706596 -31.412994
-5.013493 22.362289 -29.237339
-9.915268 49.851917 -32.723759
-11.801834 75.944611 -26.048832
-10.126091 63.906078 -30.837967
-7.25 57.58749 -33.062069
-5.378384 50.346996 -33.891182
-1.628469 49.605556 -34.284069
1.047157 47.551693 -33.540833
2.594971 44.470856 -31.281952
2.259064 58.887943 -28.698536
2.948895 50.221645 -28.769985
3.438866 40.77092 -27.537083
-11.540688 26.172657 -30.203587
-10.450159 42.37252 -32.556961
-11.96545 38.434944 -32.10778
-9.882551 38.553581 -32.292091
2.010839 36.060661 -30.720894
1.056538 32.435429 -30.662239
1.918493 30.659111 -29.542294
-0.749981 73.511032 -28.439369
-2.263905 74.258835 -28.957314
-1.16083 70.939316 -30.455956
-1.800434 68.046417 -31.972466
-0.258581 67.336823 -31.665176
0.467056 63.4995 -32.558445
0.8225 66.212265 -30.906223
-0.555134 77.639404 -23.075428
-0.017948 76.006241 -21.627735
0.553257 72.533264 -23.167122
0.189655 74.049744 -19.924294
-0.174744 70.628525 -12.641994
0.230726 69.589966 -16.060778
-15.22392 30.744602 -31.251774
-17.219223 30.724606 -31.242661
-16.997711 27.085049 -30.890198
-17.106842 23.287769 -30.384701
-2.70083 41.417698 -33.199356
-4.250193 37.534142 -32.414478
-2.640993 36.637672 -32.278957
-1.742285 24.777267 -29.688919
-3.076263 26.311123 -30.062462
-12.402924 49.262905 -31.942829
-11.107119 53.153217 -32.070045
-17.650494 76.435562 -23.19746
-6.796902 74.324417 -28.675041
-8.667059 76.785904 -26.760147
-9.696545 73.705154 -27.977303
-10.80265 70.322357 -28.815948
-11.953348 66.710358 -29.346115
-8.94379 67.593399 -30.443321
-3.701084 61.448177 -33.565483
-5.992773 61.330074 -32.973892
-4.894196 57.838642 -33.759888
-6.194239 54.086369 -33.668926
-4.030422 54.113628 -34.173588
-3.386063 50.145458 -34.203423
-2.117672 53.79211 -34.420483
1.464918 55.216747 -33.307117
0.79631 52.091961 -33.948784
1.764599 50.774784 -33.136276
1.946867 46.113552 -32.612999
2.439232 49.216976 -31.90659
1.537577 65.024475 -25.511883
1.835812 62.987431 -28.150108
1.990614 61.055721 -26.266418
3.031567 50.686314 -24.492657
2.820805 52.702526 -26.812389
3.185024 48.277409 -26.583794
3.21595 45.608654 -28.296577
3.512794 43.647896 -26.048817
3.810333 38.788818 -25.2701
-7.804365 29.541306 -30.694897
-9.562061 30.127251 -30.875393
-9.81579 25.552319 -29.927124
-0.663225 78.517258 -14.745581
-0.212112 75.29599 -16.492111
-0.602009 76.287918 -12.935596
-0.595274 73.898102 -11.061159
-15.028726 41.57275 -31.665478
-16.379856 37.826366 -31.516914
-14.135559 38.173775 -31.847172
-13.550266 34.544235 -31.667477
-13.276266 30.684155 -31.17944
0.10648 39.207642 -32.562283
-1.210829 35.46701 -31.985031
0.021528 34.052757 -31.465839
-0.194881 28.655914 -30.283848
-0.543606 23.063526 -29.1353
-3.0788 79.575851 -24.913441
-5.159372 79.786865 -25.21719
-3.591421 77.231735 -27.19939
-4.294033 74.524994 -29.025089
-5.172291 71.481781 -30.38409
-6.199167 68.148727 -31.305809
-3.795532 68.31366 -31.838612
-2.656719 64.867355 -32.994308
-1.739536 61.176167 -33.814995
-1.025951 57.257084 -34.275093
-0.153492 60.504551 -33.675175
1.036425 59.456226 -33.112019
1.847872 58.082653 -32.114391
1.706623 60.834721 -21.317112
2.091309 59.014515 -24.14489
2.261387 56.914043 -21.861206
2.816257 52.847416 -22.099442
3.262436 32.335884 -27.522545
2.652588 28.768044 -28.111641
-1.548985 78.85202 -24.190502
-0.55839 75.744156 -25.957634
0.254669 72.311401 -27.483719
0.927254 68.624237 -28.745403
0.819496 70.72937 -26.137718
1.06238 68.857758 -24.46978
1.130173 66.795944 -22.559242
0.221403 71.878235 -18.045509
0.677296 68.314316 -19.383877
1.173218 64.63121 -20.483128
1.318369 62.423382 -18.304142
-17.777544 34.181038 -31.341763
-6.29644 42.448254 -33.100639
-7.894028 38.472385 -32.403019
-6.010229 38.142883 -32.445911
-5.951948 33.557022 -31.549202
-6.125244 28.711426 -30.513981
-2.76499 31.590233 -31.197124
-4.542412 27.630928 -30.317356
-6.539042 23.652767 -29.452209
1.753889 25.038158 -28.372429
0.5327 21.209332 -28.355816
-13.707611 45.39362 -31.804031
-11.289663 45.936611 -32.443413
-8.986446 46.317371 -32.995621
-7.747883 79.511597 -25.121265
-10.763191 78.810837 -24.68721
-14.101189 77.760651 -24.008568
-15.200153 74.786545 -25.148232
-11.340641 60.099949 -31.021084
-7.339878 64.586578 -31.850601
-8.557993 60.860836 -32.100204
-9.821453 57.032627 -32.144962
-8.565392 53.747334 -32.950989
-7.565754 50.23357 -33.38665
-6.812664 46.473736 -33.431335
-4.789267 46.352283 -33.729427
-2.946724 45.918415 -33.864342
-1.321341 45.162533 -33.794849
-0.498903 53.111942 -34.362381
-0.143183 48.731274 -34.08223
0.054691 44.100449 -33.463223
1.165987 42.768185 -32.807384
2.024378 41.213291 -31.781368
2.67326 39.485641 -30.374378
1.488888 64.735046 -29.718849
1.958498 60.674709 -30.37833
2.345711 56.452869 -30.698826
2.420643 56.95332 -26.706356
2.630482 54.638821 -28.908733
2.655136 52.061031 -30.663704
2.891411 47.47765 -30.276058
3.062805 42.675514 -29.570026
3.181835 37.631119 -28.617043
3.629471 35.688744 -26.576145
-9.585955 34.470051 -31.701603
-11.387587 30.494656 -31.045212
-13.314793 26.607376 -30.478474
-11.992697 21.664131 -29.314659
-13.66526 22.346867 -29.686333
-15.370673 22.875774 -30.055779
-0.508479 78.305405 -19.074087
-0.623216 78.940079 -17.354131
-0.170096 76.70308 -19.951357
-0.356331 77.608566 -20.750466
-0.508479 78.305405 -19.074087
0.084569 68.942131 -13.329949
-0.08897 69.422073 -11.648687
-2.662952 22.819828 -29.33645
-2.0001 21.978724 -29.160902
-11.836686 54.695545 -31.575389
-12.448831 52.761223 -31.58024
-18.36063 78.38301 -21.540692
-17.792736 79.554847 -20.793915
-17.094752 77.775925 -22.54254
-18.916373 77.042648 -22.195612
-18.36063 78.38301 -21.540692
3.665667 43.937075 -23.910915
3.689919 42.632221 -24.838262
3.488542 44.95275 -25.121469
-0.827668 78.946884 -12.922392
-0.926743 79.993736 -13.786638
-0.79706 77.832214 -12.017399
-0.632617 77.402588 -13.840588
-0.827668 78.946884 -12.922392
-0.755116 74.224289 -9.262595
-0.769336 75.46743 -10.179428
-0.558499 72.664078 -10.10882
-0.755116 74.224289 -9.262595
2.102469 57.791343 -20.448087
1.984005 58.874382 -21.589159
1.825087 59.751683 -20.17604
3.020916 51.779877 -20.86553
2.702375 53.810566 -20.789246
3.08439 50.727642 -22.066483
3.020916 51.779877 -20.86553
3.2885 29.571411 -26.96687
3.531164 31.349365 -26.52414
-1.509845 79.737472 -22.699182
-2.151584 80.202988 -23.199327
-18.228372 30.694874 -31.190575
-18.05212 28.968707 -31.106945
-6.109451 20.407716 -28.853115
-6.872225 21.052956 -28.96055
-5.776268 23.007528 -29.344774
2.161919 24.060144 -27.688671
2.203239 26.903101 -28.242035
2.611269 25.925087 -27.558277
0.319052 18.31033 -27.889606
1.023118 20.234058 -27.84305
-0.250303 19.279554 -28.241354
0.319052 18.31033 -27.889606
-14.358311 46.962067 -31.450985
-14.965479 45.071207 -31.461565
-11.624259 63.427841 -30.246231
-12.537888 64.829981 -29.500305
-11.03972 65.308218 -30.092041
-10.733366 62.003014 -30.929525
-12.231534 61.524777 -30.337789
-11.624259 63.427841 -30.246231
3.949173 36.239731 -24.805658
4.027641 37.768934 -24.068689
-12.369231 19.348793 -28.906105
-11.17353 21.230797 -29.145717
-14.792652 20.536863 -29.540244
-13.994897 20.151724 -29.307997
-15.645359 20.801317 -29.724967
-14.517966 22.61132 -29.871056
-14.792652 20.536863 -29.540244
-16.451871 21.12404 -29.953007
-15.645359 20.801317 -29.724967
-0.624924 78.425148 -21.474312
-1.012919 79.131164 -22.141645
-0.286541 76.822823 -22.351582
-0.624924 78.425148 -21.474312
-0.356331 77.608566 -20.750466
0.287304 68.422852 -15.039341
0.027991 70.109246 -14.351386
0.084569 68.942131 -13.329949
0.542386 66.657837 -15.661324
0.485808 67.824951 -16.682761
0.287304 68.422852 -15.039341
0.850042 64.92164 -16.235348
0.542386 66.657837 -15.661324
-17.941364 27.148928 -30.930714
-18.05212 28.968707 -31.106945
-17.108467 28.904828 -31.066429
-17.931669 25.352543 -30.765127
-17.941364 27.148928 -30.930714
-17.986235 23.453903 -30.512379
-17.931669 25.352543 -30.765127
-17.052276 25.186409 -30.63745
-18.134205 21.605963 -30.322122
-17.986235 23.453903 -30.512379
-3.329941 23.586756 -29.523222
-2.409274 25.544195 -29.87569
-2.662952 22.819828 -29.33645
-4.298555 21.612339 -29.110661
-4.044878 24.336706 -29.649901
-3.329941 23.586756 -29.523222
-5.365249 19.671276 -28.75416
-4.298555 21.612339 -29.110661
-13.096733 50.816067 -31.516632
-13.705967 48.89671 -31.520384
-11.755022 51.208061 -32.006437
-13.096733 50.816067 -31.516632
-12.448831 52.761223 -31.58024
-19.477635 75.665947 -22.782276
-20.743513 76.273033 -21.780428
-18.916373 77.042648 -22.195612
-18.20496 74.908401 -23.688702
-19.477635 75.665947 -22.782276
-11.298139 73.219955 -27.505089
-12.350783 74.339684 -26.540854
-10.749189 74.824883 -27.013067
-11.851191 71.528557 -27.924411
-11.298139 73.219955 -27.505089
-10.249598 72.013756 -28.396625
-12.414024 69.785453 -28.257652
-11.851191 71.528557 -27.924411
-11.377999 68.516357 -29.081032
-12.989373 67.979454 -28.522736
-12.414024 69.785453 -28.257652
3.838688 40.202682 -24.448904
3.661563 41.218357 -25.659458
3.689919 42.632221 -24.838262
4.027641 37.768934 -24.068689
3.838688 40.202682 -24.448904
-0.793707 79.498749 -15.589432
-0.926743 79.993736 -13.786638
-0.492734 77.958588 -16.51028
-0.623216 78.940079 -17.354131
-0.793707 79.498749 -15.589432
-0.772703 76.662338 -11.116646
-0.79706 77.832214 -12.017399
-0.598642 75.09301 -11.998378
-0.772703 76.662338 -11.116646
-0.769336 75.46743 -10.179428
-0.348234 71.02929 -10.899237
-0.385009 72.263313 -11.851577
-0.558499 72.664078 -10.10882
-0.08897 69.422073 -11.648687
-0.348234 71.02929 -10.899237
-15.704291 39.699558 -31.591196
-16.910001 39.436029 -31.328428
-16.234437 41.309221 -31.40271
-1.40076 21.121853 -28.884093
-2.0001 21.978724 -29.160902
-1.142946 23.920396 -29.412109
-15.999284 80.252892 -21.054217
-17.792736 79.554847 -20.793915
-4.119086 79.681358 -25.065315
-4.875906 80.874237 -24.021313
-3.83562 80.76873 -23.869439
2.42494 55.843879 -20.670128
2.102469 57.791343 -20.448087
2.538822 54.88073 -21.980324
2.42494 55.843879 -20.670128
2.702375 53.810566 -20.789246
3.192045 49.647091 -23.263091
2.923912 51.766865 -23.29605
3.08439 50.727642 -22.066483
3.408408 47.432736 -23.113823
3.247929 48.471958 -24.34339
3.192045 49.647091 -23.263091
3.661599 45.213835 -22.942467
3.408408 47.432736 -23.113823
-9.249674 22.757223 -29.325825
-8.450142 22.222771 -29.184999
2.983576 27.787491 -27.261418
2.957512 30.551964 -27.817093
3.2885 29.571411 -26.96687
2.942257 24.944534 -26.708053
2.611269 25.925087 -27.558277
2.983576 27.787491 -27.261418
-2.916492 80.564903 -23.560797
-3.83562 80.76873 -23.869439
-3.673311 81.757782 -22.516794
-2.313893 79.213935 -24.551972
-2.916492 80.564903 -23.560797
-2.151584 80.202988 -23.199327
-1.052059 78.245712 -23.632965
-1.509845 79.737472 -22.699182
-1.012919 79.131164 -22.141645
1.630961 60.546013 -18.669556
1.825087 59.751683 -20.17604
1.512496 61.629052 -19.810627
1.13878 63.103363 -16.735046
1.02963 64.241659 -17.804443
0.850042 64.92164 -16.235348
1.483588 61.310284 -17.18387
1.13878 63.103363 -16.735046
1.630961 60.546013 -18.669556
1.483588 61.310284 -17.18387
-17.525257 37.633274 -31.322874
-16.910001 39.436029 -31.328428
-18.224101 35.81061 -31.235298
-17.525257 37.633274 -31.322874
-17.0787 36.003702 -31.429339
-18.854119 34.065653 -31.199542
-18.224101 35.81061 -31.235298
-18.507533 32.42309 -31.240126
-17.498383 32.452822 -31.292212
-18.228372 30.694874 -31.190575
-18.854119 34.065653 -31.199542
-18.507533 32.42309 -31.240126
-7.647171 21.690663 -29.073667
-8.450142 22.222771 -29.184999
-7.342014 24.184876 -29.563541
-7.647171 21.690663 -29.073667
-6.872225 21.052956 -28.96055
-6.109451 20.407716 -28.853115
-5.365249 19.671276 -28.75416
1.633712 22.148471 -27.851357
2.161919 24.060144 -27.688671
1.143295 23.123745 -28.364123
1.633712 22.148471 -27.851357
1.023118 20.234058 -27.84305
-0.788456 20.206651 -28.631096
-0.005453 22.136429 -28.745558
-0.250303 19.279554 -28.241354
-1.40076 21.121853 -28.884093
-0.788456 20.206651 -28.631096
-15.626037 43.160773 -31.392288
-16.234437 41.309221 -31.40271
-14.368168 43.483185 -31.734755
-15.626037 43.160773 -31.392288
-14.965479 45.071207 -31.461565
-13.055267 47.328263 -31.87343
-14.358311 46.962067 -31.450985
-13.705967 48.89671 -31.520384
-14.792618 79.735099 -22.192509
-15.999284 80.252892 -21.054217
-6.064034 80.821731 -24.133669
-4.875906 80.874237 -24.021313
-7.358289 80.684098 -24.085707
-6.064034 80.821731 -24.133669
-6.453627 79.649231 -25.169227
-8.783252 80.403053 -24.019156
-7.358289 80.684098 -24.085707
-10.290906 80.052673 -23.802128
-8.783252 80.403053 -24.019156
-9.255537 79.161217 -24.904238
-11.904709 79.582375 -23.592304
-10.290906 80.052673 -23.802128
-13.573708 79.057281 -23.252983
-11.904709 79.582375 -23.592304
-12.43219 78.285744 -24.347889
-15.320099 78.438469 -22.948093
-14.792618 79.735099 -22.192509
-13.573708 79.057281 -23.252983
-16.97979 74.083893 -24.664088
-18.20496 74.908401 -23.688702
-16.425323 75.611053 -24.172846
-14.049943 73.76065 -26.090553
-13.500993 75.365578 -25.598532
-12.350783 74.339684 -26.540854
-15.755458 73.136063 -25.555481
-14.049943 73.76065 -26.090553
-16.97979 74.083893 -24.664088
-15.755458 73.136063 -25.555481
-13.553991 66.140289 -28.73778
-12.989373 67.979454 -28.522736
-13.553991 66.140289 -28.73778
-12.537888 64.829981 -29.500305
-12.816012 59.607708 -30.426328
-12.231534 61.524777 -30.337789
-11.953447 58.168911 -31.050909
-12.816012 59.607708 -30.426328
-11.193853 56.63525 -31.612848
-11.953447 58.168911 -31.050909
-10.581047 58.566288 -31.583023
-10.464286 55.092922 -32.107503
-11.836686 54.695545 -31.575389
-11.193853 56.63525 -31.612848
3.714682 33.025795 -26.050939
3.531164 31.349365 -26.52414
3.445953 34.012314 -27.049345
3.858742 34.689694 -25.458681
3.719902 37.238781 -25.923122
3.949173 36.239731 -24.805658
3.714682 33.025795 -26.050939
3.858742 34.689694 -25.458681
3.665667 43.937075 -23.910915
3.661599 45.213835 -22.942467
-10.085076 23.174891 -29.45195
-8.980387 25.134652 -29.800998
-9.249674 22.757223 -29.325825
-10.904243 23.608225 -29.620891
-10.085076 23.174891 -29.45195
-11.17353 21.230797 -29.145717
-13.158615 19.810356 -29.12216
-12.369231 19.348793 -28.906105
-12.828978 22.005499 -29.500496
-13.158615 19.810356 -29.12216
-13.994897 20.151724 -29.307997
-17.319956 21.330038 -30.117468
-16.238757 23.081772 -30.22024
-16.451871 21.12404 -29.953007
-18.134205 21.605963 -30.322122
-17.319956 21.330038 -30.117468
3 0 50 48
3 1 53 51
3 2 56 54
3 2 58 56
3 2 60 58
3 3 203 204
3 3 205 207
3 205 62 206
3 205 206 207
3 3 64 62
3 209 208 65
3 5 69 67
3 5 70 69
3 6 73 71
3 211 210 74
3 212 77 213
3 8 214 215
3 8 216 218
3 216 78 217
3 216 217 218
3 9 81 79
3 9 82 81
3 9 84 82
3 10 87 85
3 10 89 87
3 10 91 89
3 11 94 92
3 11 96 94
3 4 99 97
3 12 102 100
3 12 104 102
3 12 219 221
3 221 220 104
3 219 220 221
3 7 108 106
3 222 109 223
3 224 111 225
3 226 225 109
3 224 225 226
3 227 112 228
3 230 229 112
3 14 115 113
3 16 116 49
3 16 117 116
3 17 120 118
3 19 121 52
3 19 122 121
3 20 125 123
3 22 126 55
3 22 127 126
3 22 129 127
3 24 130 57
3 24 131 130
3 24 133 131
3 26 134 59
3 26 135 134
3 231 138 232
3 233 232 136
3 231 232 233
3 234 139 235
3 237 236 139
3 239 238 140
3 240 142 241
3 28 143 61
3 28 144 143
3 28 146 144
3 30 147 63
3 30 148 147
3 13 149 110
3 31 150 66
3 31 151 150
3 31 152 151
3 15 153 114
3 243 242 68
3 32 156 154
3 34 157 72
3 34 158 157
3 18 159 119
3 35 160 75
3 35 161 160
3 35 244 246
3 246 245 161
3 244 245 246
3 247 162 248
3 249 248 141
3 247 248 249
3 250 163 251
3 253 252 163
3 254 164 255
3 36 165 76
3 36 166 165
3 21 167 124
3 37 168 80
3 37 169 168
3 37 170 169
3 38 256 258
3 258 257 83
3 256 257 258
3 38 259 261
3 259 171 260
3 259 260 261
3 23 172 128
3 39 173 86
3 39 174 173
3 39 175 174
3 40 176 88
3 40 177 176
3 40 178 177
3 41 179 90
3 41 180 179
3 25 181 132
3 42 182 93
3 42 183 182
3 42 184 183
3 43 185 95
3 43 186 185
3 29 187 145
3 44 188 98
3 44 189 188
3 27 190 137
3 45 191 101
3 45 192 191
3 45 193 192
3 46 194 103
3 46 195 194
3 46 196 195
3 263 262 105
3 33 197 155
3 47 198 107
3 47 199 198
3 264 200 265
3 266 201 267
3 268 202 269
3 270 269 201
3 268 269 270
3 272 271 202
3 48 49 14
3 50 49 48
3 50 16 49
3 51 52 17
3 53 52 51
3 53 19 52
3 54 55 20
3 56 55 54
3 56 22 55
3 56 57 22
3 58 57 56
3 58 24 57
3 58 59 24
3 60 59 58
3 60 26 59
3 273 61 274
3 62 275 277
3 275 61 276
3 275 276 277
3 62 28 61
3 62 63 28
3 64 63 62
3 64 30 63
3 65 66 13
3 278 66 279
3 280 279 65
3 278 279 280
3 281 31 282
3 283 282 66
3 281 282 283
3 285 284 31
3 67 68 15
3 69 68 67
3 69 286 288
3 288 287 68
3 286 287 288
3 69 289 290
3 70 291 293
3 293 292 69
3 291 292 293
3 70 294 295
3 71 72 32
3 73 72 71
3 73 34 72
3 74 75 18
3 296 75 297
3 298 297 74
3 296 297 298
3 299 35 300
3 301 300 75
3 299 300 301
3 303 302 35
3 304 76 305
3 77 306 308
3 306 76 307
3 306 307 308
3 77 36 76
3 78 309 311
3 309 310 311
3 78 312 313
3 79 80 21
3 81 80 79
3 81 37 80
3 81 314 316
3 316 315 37
3 314 315 316
3 82 317 319
3 319 318 81
3 317 318 319
3 82 320 321
3 82 322 324
3 322 83 323
3 322 323 324
3 84 83 82
3 84 38 83
3 85 86 23
3 87 86 85
3 87 39 86
3 87 88 39
3 89 88 87
3 89 40 88
3 89 90 40
3 91 90 89
3 91 41 90
3 92 93 25
3 94 93 92
3 94 42 93
3 94 95 42
3 96 95 94
3 96 43 95
3 97 98 29
3 99 98 97
3 99 44 98
3 100 101 27
3 102 101 100
3 102 45 101
3 102 103 45
3 104 103 102
3 104 46 103
3 104 105 46
3 325 105 326
3 327 326 104
3 325 326 327
3 329 328 105
3 106 107 33
3 108 107 106
3 108 47 107
3 109 330 331
3 109 332 334
3 332 3 333
3 332 333 334
3 109 110 3
3 111 110 109
3 111 13 110
3 335 111 336
3 112 337 339
3 337 111 338
3 337 338 339
3 112 13 111
3 112 65 13
3 340 65 341
3 342 341 112
3 340 341 342
3 344 343 65
3 113 345 347
3 345 114 346
3 345 346 347
3 115 114 113
3 115 15 114
3 49 115 14
3 116 115 49
3 116 15 115
3 116 67 15
3 117 67 116
3 117 5 67
3 118 119 6
3 120 119 118
3 120 18 119
3 52 120 17
3 121 120 52
3 121 18 120
3 121 74 18
3 122 74 121
3 122 348 350
3 350 349 74
3 348 349 350
3 351 8 352
3 123 353 355
3 353 124 354
3 353 354 355
3 125 124 123
3 125 21 124
3 55 125 20
3 126 125 55
3 126 21 125
3 126 79 21
3 127 79 126
3 127 9 79
3 127 128 9
3 129 128 127
3 129 23 128
3 57 129 22
3 130 129 57
3 130 23 129
3 130 85 23
3 131 85 130
3 131 10 85
3 131 132 10
3 133 132 131
3 133 25 132
3 59 133 24
3 134 133 59
3 134 25 133
3 134 92 25
3 135 92 134
3 135 11 92
3 136 137 4
3 138 137 136
3 138 27 137
3 356 138 357
3 139 358 360
3 358 138 359
3 358 359 360
3 139 27 138
3 139 100 27
3 361 100 362
3 363 362 139
3 361 362 363
3 364 12 365
3 366 365 100
3 364 365 366
3 368 367 12
3 370 369 7
3 140 141 1
3 371 141 372
3 373 372 140
3 371 372 373
3 376 375 141
3 374 375 376
3 377 123 378
3 377 378 379
3 142 380 382
3 380 123 381
3 380 381 382
3 142 20 123
3 61 383 385
3 383 142 384
3 383 384 385
3 143 142 61
3 143 20 142
3 143 54 20
3 144 54 143
3 144 2 54
3 144 145 2
3 146 145 144
3 146 29 145
3 63 146 28
3 147 146 63
3 147 29 146
3 147 97 29
3 148 97 147
3 148 4 97
3 110 64 3
3 149 64 110
3 149 30 64
3 66 149 13
3 150 149 66
3 150 30 149
3 150 148 30
3 151 148 150
3 151 4 148
3 151 136 4
3 152 136 151
3 152 386 388
3 388 387 136
3 386 387 388
3 389 152 390
3 391 390 31
3 389 390 391
3 392 152 393
3 395 394 152
3 114 396 397
3 153 398 400
3 400 399 114
3 398 399 400
3 153 401 402
3 68 153 15
3 403 153 404
3 405 404 68
3 403 404 405
3 407 406 153
3 154 155 0
3 156 155 154
3 156 33 155
3 72 156 32
3 157 156 72
3 157 33 156
3 157 106 33
3 158 106 157
3 158 7 106
3 119 73 6
3 159 73 119
3 159 34 73
3 75 159 18
3 160 159 75
3 160 34 159
3 160 158 34
3 161 158 160
3 161 7 158
3 161 408 410
3 410 409 7
3 408 409 410
3 412 411 161
3 414 413 35
3 141 53 1
3 162 53 141
3 162 19 53
3 415 162 416
3 163 417 419
3 417 162 418
3 417 418 419
3 163 19 162
3 163 122 19
3 420 122 421
3 422 421 163
3 420 421 422
3 424 423 122
3 425 113 426
3 164 427 429
3 427 113 428
3 427 428 429
3 164 14 113
3 76 430 432
3 430 164 431
3 430 431 432
3 165 164 76
3 165 14 164
3 165 48 14
3 166 48 165
3 166 0 48
3 433 8 434
3 124 435 436
3 167 437 439
3 439 438 124
3 437 438 439
3 167 440 441
3 80 167 21
3 168 167 80
3 168 442 444
3 444 443 167
3 442 443 444
3 168 445 446
3 169 447 449
3 449 448 168
3 447 448 449
3 169 450 452
3 450 8 451
3 450 451 452
3 169 78 8
3 170 78 169
3 170 453 455
3 455 454 78
3 453 454 455
3 456 170 457
3 458 457 37
3 456 457 458
3 459 170 460
3 462 461 170
3 83 463 464
3 466 465 83
3 171 467 468
3 171 469 470
3 128 84 9
3 172 84 128
3 172 38 84
3 86 172 23
3 173 172 86
3 173 38 172
3 173 171 38
3 174 171 173
3 174 471 473
3 473 472 171
3 471 472 473
3 174 474 476
3 474 77 475
3 474 475 476
3 175 77 174
3 175 36 77
3 88 175 39
3 176 175 88
3 176 36 175
3 176 166 36
3 177 166 176
3 177 0 166
3 177 154 0
3 178 154 177
3 178 32 154
3 90 178 40
3 179 178 90
3 179 32 178
3 179 71 32
3 180 71 179
3 180 6 71
3 132 91 10
3 181 91 132
3 181 41 91
3 93 181 25
3 182 181 93
3 182 41 181
3 182 180 41
3 183 180 182
3 183 6 180
3 183 118 6
3 184 118 183
3 184 17 118
3 95 184 42
3 185 184 95
3 185 17 184
3 185 51 17
3 186 51 185
3 186 1 51
3 145 60 2
3 187 60 145
3 187 26 60
3 98 187 29
3 188 187 98
3 188 26 187
3 188 135 26
3 189 135 188
3 189 11 135
3 137 99 4
3 190 99 137
3 190 44 99
3 101 190 27
3 191 190 101
3 191 44 190
3 191 189 44
3 192 189 191
3 192 11 189
3 192 96 11
3 193 96 192
3 193 43 96
3 103 193 45
3 194 193 103
3 194 43 193
3 194 186 43
3 195 186 194
3 195 1 186
3 195 140 1
3 196 140 195
3 196 477 479
3 479 478 140
3 477 478 479
3 105 196 46
3 480 196 481
3 482 481 105
3 480 481 482
3 484 483 196
3 486 485 12
3 155 50 0
3 197 50 155
3 197 16 50
3 107 197 33
3 198 197 107
3 198 16 197
3 198 117 16
3 199 117 198
3 199 5 117
3 487 108 488
3 489 488 7
3 487 488 489
3 200 490 492
3 490 108 491
3 490 491 492
3 200 47 108
3 493 200 494
3 201 495 497
3 495 200 496
3 495 496 497
3 201 47 200
3 201 199 47
3 202 199 201
3 202 5 199
3 202 70 5
3 498 70 499
3 500 499 202
3 498 499 500
3 502 501 70
