ply
format ascii 1.0
element vertex 254
property float x
property float y
property float z
element face 250
property list uchar int vertex_index
end_header
-38.086685 -2.621399 7.181417
-39.208244 -17.659943 6.829954
-41.352806 -13.170429 -2.149315
-43.700638 -6.905521 -11.4102
-38.944008 -19.37776 10.828504
-38.824093 -12.490334 10.537216
-38.813641 -8.892638 2.896078
-39.403046 -6.690345 -1.380789
-42.597069 -10.266764 -6.787601
-40.106728 -4.218551 -5.78743
-40.819466 -1.484697 -10.242615
-38.997406 -4.466969 10.144644
-39.782921 -24.946905 10.924019
-40.50581 -22.907892 6.925001
-41.975414 -20.513515 2.532507
-38.533646 -10.81968 6.927027
-40.12888 -15.616653 2.434668
-43.765949 -17.685381 -2.076567
-39.261059 -13.242023 12.113998
-39.463779 -9.395038 11.779927
-38.356544 -3.883647 1.283623
-38.524326 -2.799486 -0.780077
-39.748833 -5.487418 -3.573498
-38.735764 -1.675419 -2.891964
-38.979027 -0.512676 -5.039742
-39.832504 -25.826151 12.710169
-39.381557 -23.12796 12.713543
-38.971882 -18.555414 8.894548
-39.392601 -21.444553 8.955249
-39.758186 -20.482676 6.865612
-41.17466 -21.757935 4.765804
-40.299843 -19.43639 4.677371
-38.467045 -3.563671 8.734678
-38.522411 -7.75629 8.76993
-38.305096 -6.86333 7.048025
-39.860451 -11.365086 0.387534
-39.425713 -12.473486 2.599043
-40.723278 -14.448427 0.156204
-41.711281 -17.046587 0.111597
-42.488029 -15.677099 -2.22296
-44.666466 -16.07163 -4.419439
-43.260292 -14.176809 -4.570131
-43.172394 -8.641204 -9.103058
-39.16412 -20.130053 12.597511
-39.14146 -16.830109 12.390396
-38.818962 -16.094051 10.696119
-38.72216 -15.296715 8.837772
-37.836929 -1.643646 5.503116
-38.223106 -5.919063 5.213376
-38.248886 -4.924784 3.286245
-39.084198 -7.825894 0.780001
-40.335213 -10.164865 -1.856916
-41.985279 -11.777136 -4.467405
-40.823242 -8.871334 -4.120893
-41.305664 -7.485022 -6.394264
-41.770092 -6.007836 -8.669552
-42.207539 -4.442558 -10.941385
-40.466557 -2.884411 -8.013256
-39.252159 -22.327009 10.91534
-40.023869 -23.971035 8.986475
-43.172272 -22.308083 2.727071
-44.171066 -20.829063 0.513537
-38.901253 -8.599102 10.355654
-38.591045 -11.684723 8.798187
-38.817013 -14.432506 6.848727
-38.619259 -9.890123 4.95165
-39.064972 -13.493931 4.760151
-39.609135 -16.68372 4.667158
-40.967144 -18.29538 2.418175
-42.855213 -19.16124 0.245776
-43.999619 -12.540364 -6.918528
-42.608467 -2.79287 -13.206066
-40.015052 -7.77618 12.118972
-39.845121 -9.771604 12.39913
-38.09963 -0.679685 -0.454016
-38.086458 -1.20291 0.527165
-38.205349 -0.117652 -1.50996
-38.630045 -2.237452 -1.836021
-38.09963 -0.679685 -0.454016
-38.249819 0.411862 -2.524598
-38.205349 -0.117652 -1.50996
-39.523202 -21.96868 13.44114
-39.599767 -23.48297 13.516345
-44.503433 -7.885771 -11.502007
-44.239311 -8.753613 -10.348436
-43.436516 -7.773363 -10.256629
-44.77517 -6.875271 -12.6642
-44.503433 -7.885771 -11.502007
-43.936561 -5.986498 -12.559224
-44.77517 -6.875271 -12.6642
-39.532778 -15.386996 12.944838
-39.429344 -17.168383 13.139367
-37.973078 -2.78055 3.501107
-38.042907 -3.284215 4.39468
-37.767099 -1.139981 4.609543
-39.111851 0.088652 -6.12546
-38.442171 1.52879 -4.639133
-40.170654 -26.103632 10.870758
-40.195446 -26.543255 11.763833
-39.807713 -25.386528 11.817094
-40.33512 -25.555261 9.933012
-40.170654 -26.103632 10.870758
-40.988928 -23.938409 6.940743
-40.747957 -24.469981 7.97148
-40.264839 -23.439464 7.955738
-41.379711 -23.296168 5.90223
-40.988928 -23.938409 6.940743
-38.949329 -6.533036 10.250149
-39.29743 -6.964965 10.873769
-39.345506 -4.898899 10.768264
-44.482185 -18.45833 -1.912326
-44.026817 -19.19626 -0.751155
-43.310581 -18.42331 -0.915395
-44.987928 -17.591543 -3.061011
-44.482185 -18.45833 -1.912326
-45.917915 -15.843281 -5.393322
-45.095236 -15.191035 -5.595092
-39.743761 -11.695097 12.566166
-39.592577 -13.592953 12.806639
-39.362419 -11.31853 11.946963
-39.743761 -11.695097 12.566166
-39.845121 -9.771604 12.39913
-38.002567 -1.74499 1.559016
-38.026906 -2.259981 2.499796
-38.440435 -3.341566 0.251773
-38.002567 -1.74499 1.559016
-38.086458 -1.20291 0.527165
-38.371451 0.993234 -3.598487
-38.857396 -1.094048 -3.965853
-38.249819 0.411862 -2.524598
-38.442171 1.52879 -4.639133
-38.371451 0.993234 -3.598487
-39.825241 -24.832065 13.514658
-40.022993 -26.208985 13.514376
-39.607031 -24.477055 12.711856
-39.825241 -24.832065 13.514658
-39.599767 -23.48297 13.516345
-44.392149 -14.243624 -5.670438
-45.095236 -15.191035 -5.595092
-43.963379 -15.124219 -4.494785
-43.929232 -9.704657 -9.181942
-43.641569 -10.517437 -8.024214
-42.884732 -9.453984 -7.94533
-43.929232 -9.704657 -9.181942
-44.239311 -8.753613 -10.348436
-40.986847 -0.75177 -11.35528
-40.17095 0.225645 -9.818332
-39.440674 -18.818355 13.242925
-39.414484 -20.469726 13.383125
-39.15279 -18.480081 12.493953
-39.440674 -18.818355 13.242925
-39.429344 -17.168383 13.139367
-39.20126 -15.036066 12.252197
-39.532778 -15.386996 12.944838
-39.592577 -13.592953 12.806639
-38.302715 -4.404215 2.284934
-37.973078 -2.78055 3.501107
-38.026906 -2.259981 2.499796
-39.855616 -1.097215 -7.612217
-39.722792 -1.698543 -6.526499
-39.111851 0.088652 -6.12546
-40.032071 -0.397358 -8.726897
-40.643012 -2.184554 -9.127935
-39.855616 -1.097215 -7.612217
-40.17095 0.225645 -9.818332
-40.032071 -0.397358 -8.726897
-39.4525 -2.783275 10.547963
-39.345506 -4.898899 10.768264
-39.035957 -2.308356 10.019236
-39.4525 -2.783275 10.547963
-38.770777 -1.856707 9.314253
-38.732225 -4.01532 9.439661
-39.035957 -2.308356 10.019236
-38.429609 -1.366142 8.702214
-38.770777 -1.856707 9.314253
-38.239429 -0.895006 7.925584
-38.276865 -3.092535 7.958048
-38.429609 -1.366142 8.702214
-37.968891 -0.391301 7.236729
-38.239429 -0.895006 7.925584
-37.844013 0.097576 6.397578
-37.961807 -2.132522 6.342267
-37.968891 -0.391301 7.236729
-37.637861 0.610305 5.638286
-37.844013 0.097576 6.397578
-37.767099 -1.139981 4.609543
-37.637861 0.610305 5.638286
-40.185686 -27.033772 12.636323
-40.022993 -26.208985 13.514376
-40.185686 -27.033772 12.636323
-40.195446 -26.543255 11.763833
-39.272838 -21.629007 12.655527
-39.523202 -21.96868 13.44114
-39.414484 -20.469726 13.383125
-40.455593 -25.067326 8.96424
-40.33512 -25.555261 9.933012
-39.903395 -24.45897 9.955247
-40.455593 -25.067326 8.96424
-40.747957 -24.469981 7.97148
-41.714137 -22.72119 4.822631
-41.379711 -23.296168 5.90223
-40.840235 -22.332914 5.845403
-42.712942 -22.996263 3.803265
-41.714137 -22.72119 4.822631
-42.173466 -22.033009 3.746437
-43.864777 -23.026992 2.826712
-42.712942 -22.996263 3.803265
-44.414631 -22.214009 1.782451
-43.864777 -23.026992 2.826712
-44.914028 -21.4745 0.675684
-44.414631 -22.214009 1.782451
-43.671669 -21.568573 1.620304
-45.476202 -20.607568 -0.399346
-44.914028 -21.4745 0.675684
-39.578693 -7.362933 11.585905
-40.015052 -7.77618 12.118972
-39.182516 -8.99707 11.067791
-39.578693 -7.362933 11.585905
-39.29743 -6.964965 10.873769
-44.684744 -20.030171 -0.617274
-43.51314 -19.995151 0.379657
-44.026817 -19.19626 -0.751155
-45.476202 -20.607568 -0.399346
-44.684744 -20.030171 -0.617274
-45.438187 -16.784667 -4.232447
-44.987928 -17.591543 -3.061011
-44.216207 -16.878505 -3.248003
-45.438187 -16.784667 -4.232447
-45.917915 -15.843281 -5.393322
-44.761813 -13.425402 -6.844637
-44.392149 -14.243624 -5.670438
-43.629956 -13.358587 -5.74433
-44.342844 -11.654237 -8.089677
-43.298344 -11.403564 -6.853065
-43.641569 -10.517437 -8.024214
-45.157032 -12.469813 -8.020266
-44.342844 -11.654237 -8.089677
-44.761813 -13.425402 -6.844637
-45.157032 -12.469813 -8.020266
-43.190012 -4.755016 -12.324817
-43.936561 -5.986498 -12.559224
-42.954088 -5.67404 -11.175793
-43.390476 -3.930172 -13.457157
-43.190012 -4.755016 -12.324817
-42.408003 -3.617714 -12.073726
-43.592224 -2.965219 -14.60228
-43.390476 -3.930172 -13.457157
-41.881348 -1.405857 -12.837006
-41.713966 -2.138784 -11.724341
-40.986847 -0.75177 -11.35528
-42.783811 -1.928561 -14.333573
-41.881348 -1.405857 -12.837006
-43.592224 -2.965219 -14.60228
-42.783811 -1.928561 -14.333573
3 72 19 73
3 74 21 75
3 76 23 77
3 78 77 21
3 76 77 78
3 80 79 23
3 81 26 82
3 1 29 27
3 1 31 29
3 0 34 32
3 2 37 35
3 2 39 37
3 2 41 39
3 3 83 85
3 85 84 42
3 83 84 85
3 3 86 87
3 3 88 89
3 90 44 91
3 5 45 18
3 5 46 45
3 92 49 93
3 94 93 47
3 92 93 94
3 7 50 20
3 7 51 50
3 7 53 51
3 9 54 22
3 9 55 54
3 9 57 55
3 96 95 24
3 12 97 99
3 99 98 25
3 97 98 99
3 12 100 101
3 4 58 43
3 13 59 28
3 13 102 104
3 104 103 59
3 102 103 104
3 13 105 106
3 14 60 30
3 14 61 60
3 11 107 109
3 107 62 108
3 107 108 109
3 15 63 33
3 15 64 63
3 6 65 48
3 16 66 36
3 16 67 66
3 16 68 67
3 17 69 38
3 17 110 112
3 112 111 69
3 110 111 112
3 17 113 114
3 116 115 40
3 8 70 52
3 10 71 56
3 117 18 118
3 19 119 121
3 119 18 120
3 119 120 121
3 19 5 18
3 122 20 123
3 21 124 126
3 124 20 125
3 124 125 126
3 21 7 20
3 21 22 7
3 23 22 21
3 23 9 22
3 23 24 9
3 127 24 128
3 129 128 23
3 127 128 129
3 131 130 24
3 132 25 133
3 26 134 136
3 134 25 135
3 134 135 136
3 26 12 25
3 27 28 4
3 29 28 27
3 29 13 28
3 29 30 13
3 31 30 29
3 31 14 30
3 32 33 11
3 34 33 32
3 34 15 33
3 35 36 6
3 37 36 35
3 37 16 36
3 37 38 16
3 39 38 37
3 39 17 38
3 39 40 17
3 41 40 39
3 41 137 139
3 139 138 40
3 137 138 139
3 42 140 142
3 142 141 8
3 140 141 142
3 144 143 42
3 146 145 10
3 147 43 148
3 44 149 151
3 149 43 150
3 149 150 151
3 44 4 43
3 18 152 154
3 152 44 153
3 152 153 154
3 45 44 18
3 45 4 44
3 45 27 4
3 46 27 45
3 46 1 27
3 47 48 0
3 49 48 47
3 49 6 48
3 20 155 157
3 155 49 156
3 155 156 157
3 50 49 20
3 50 6 49
3 50 35 6
3 51 35 50
3 51 2 35
3 51 52 2
3 53 52 51
3 53 8 52
3 22 53 7
3 54 53 22
3 54 8 53
3 54 42 8
3 55 42 54
3 55 3 42
3 55 56 3
3 57 56 55
3 57 10 56
3 24 57 9
3 158 57 159
3 160 159 24
3 158 159 160
3 161 10 162
3 163 162 57
3 161 162 163
3 165 164 10
3 166 11 167
3 168 11 169
3 170 32 171
3 172 171 11
3 170 171 172
3 173 32 174
3 175 0 176
3 177 176 32
3 175 176 177
3 178 0 179
3 180 47 181
3 182 181 0
3 180 181 182
3 183 47 184
3 186 185 47
3 25 187 188
3 190 189 25
3 43 191 193
3 191 26 192
3 191 192 193
3 58 26 43
3 58 12 26
3 28 58 4
3 59 58 28
3 59 12 58
3 59 194 196
3 196 195 12
3 194 195 196
3 198 197 59
3 30 199 201
3 201 200 13
3 199 200 201
3 60 202 204
3 204 203 30
3 202 203 204
3 60 205 206
3 60 207 208
3 61 209 211
3 211 210 60
3 209 210 211
3 61 212 213
3 214 19 215
3 62 216 218
3 216 19 217
3 216 217 218
3 62 5 19
3 33 62 11
3 63 62 33
3 63 5 62
3 63 46 5
3 64 46 63
3 64 1 46
3 48 34 0
3 65 34 48
3 65 15 34
3 36 65 6
3 66 65 36
3 66 15 65
3 66 64 15
3 67 64 66
3 67 1 64
3 67 31 1
3 68 31 67
3 68 14 31
3 38 68 16
3 69 68 38
3 69 14 68
3 69 61 14
3 219 61 220
3 221 220 69
3 219 220 221
3 223 222 61
3 40 224 226
3 226 225 17
3 224 225 226
3 228 227 40
3 52 41 2
3 70 41 52
3 70 229 231
3 231 230 41
3 229 230 231
3 232 70 233
3 234 233 8
3 232 233 234
3 235 70 236
3 238 237 70
3 56 239 241
3 241 240 3
3 239 240 241
3 71 242 244
3 244 243 56
3 242 243 244
3 71 245 246
3 247 71 248
3 249 248 10
3 247 248 249
3 250 71 251
3 253 252 71
