ply
format ascii 1.0
element vertex 259
property float x
property float y
property float z
element face 252
property list uchar int vertex_index
end_header
7.417719 79.815605 31.18121
2.292236 73.244095 21.189398
3.716698 83.411324 19.204554
16.027031 76.885803 27.557369
10.408382 86.19754 16.409613
5.138762 82.71965 25.419914
20.126801 73.665222 26.115866
2.820906 76.427002 13.947184
7.800879 88.162239 10.338911
2.442663 78.942581 20.326311
3.171421 81.981827 12.882952
11.655838 79.130829 29.269833
8.844297 83.519165 23.793076
13.21949 82.298882 22.242203
14.577927 73.280907 33.997429
18.728374 70.513428 32.173912
6.455675 85.944633 17.824297
4.737778 86.151428 11.658086
5.562454 79.441841 32.13105
4.536432 80.752289 29.223448
6.185541 81.532997 28.378626
3.202986 81.711166 23.011105
2.464712 79.607582 23.584263
2.905563 81.37928 19.804443
2.818972 80.561951 16.595438
3.347801 82.940948 16.03624
13.861509 78.17115 28.380627
12.421621 80.843376 25.767639
14.633566 79.749878 24.980129
12.414909 74.307068 35.049664
18.063755 68.651024 35.078896
20.052036 67.17231 34.229591
9.61599 84.994453 20.093561
7.578024 85.000557 20.851347
8.318127 86.356422 17.103746
6.090696 87.460777 10.996878
4.151199 85.437454 8.583551
3.744083 81.510155 26.167332
4.31078 83.345955 22.346956
18.115324 75.353539 26.802029
16.792694 78.339333 24.25499
18.87521 76.703239 23.594105
2.570585 74.935028 17.5667
9.064478 87.441376 13.387027
2.063314 77.116768 24.061171
2.266186 76.198769 20.779419
2.588799 77.858986 17.098392
2.884417 79.322258 13.428679
3.130928 80.595078 9.782088
9.478746 79.697662 30.21278
8.107254 81.788177 27.492956
10.217451 81.543205 26.611383
10.99551 83.139061 22.993919
11.802896 84.467331 19.373482
15.435945 81.069626 21.550179
8.790159 77.617882 33.790085
10.929375 77.179619 32.739887
13.119814 76.351044 31.738008
15.28929 75.194595 30.807537
16.012177 70.003357 36.046539
16.690277 71.992867 33.037537
17.391121 73.780029 29.95575
19.412102 72.186325 29.182297
6.86178 83.388702 24.614273
5.783968 84.45253 21.615334
4.904032 84.953506 18.536015
7.134413 87.18573 14.060675
5.504267 86.328331 14.748526
4.235456 84.892654 15.416142
3.770126 84.294662 12.292664
3.478096 83.204544 9.199313
20.717477 65.507874 35.193487
19.736995 66.214703 35.594692
21.024833 66.405632 33.86067
20.717477 65.507874 35.193487
2.360171 71.703087 21.391038
2.148565 72.29361 22.993851
2.848985 74.910301 14.208384
2.723825 74.164314 16.018142
2.695746 75.681015 15.756942
16.516011 80.305431 21.236286
16.11432 79.704479 22.902584
17.194386 78.940285 22.588692
9.521492 76.311882 34.982872
8.476498 76.467038 35.5639
10.5911 76.09275 34.457773
9.859767 77.398751 33.264986
9.521492 76.311882 34.982872
16.716271 68.304355 36.975307
15.689896 68.913826 37.521175
3.599322 83.7164 7.375516
3.814647 84.320999 8.891432
3.935874 84.832855 7.067635
3.393166 82.442527 7.682948
3.599322 83.7164 7.375516
5.049443 80.097065 30.677249
4.262586 79.652378 31.116641
4.775597 78.997154 32.570442
20.511208 74.305374 24.560033
21.110459 72.792812 25.811658
2.931113 75.569965 12.430404
2.921151 77.077854 12.145703
2.833849 80.659374 23.297684
2.588953 79.699066 25.202427
2.95809 80.750858 24.915848
12.087078 73.181236 36.685148
11.333867 74.656475 35.612662
13.157893 72.733696 36.090888
12.087078 73.181236 36.685148
14.239402 72.220616 35.56477
13.496418 73.793988 34.523546
13.157893 72.733696 36.090888
18.742854 66.954059 36.019345
17.742059 67.628189 36.491486
19.057896 67.911667 34.654243
18.742854 66.954059 36.019345
19.736995 66.214703 35.594692
20.375559 68.045941 32.816797
19.713727 69.716499 31.788958
19.390205 68.842869 33.201752
20.375559 68.045941 32.816797
21.024833 66.405632 33.86067
6.367946 87.89952 9.145243
6.945787 87.811508 10.667894
7.223037 88.250251 8.816259
5.647124 87.320011 9.468849
6.367946 87.89952 9.145243
5.924373 87.758754 7.617214
4.970665 86.665336 9.799453
5.414237 86.806102 11.327482
5.647124 87.320011 9.468849
4.677376 86.308349 8.262186
4.444489 85.794441 10.120819
4.970665 86.665336 9.799453
4.313007 85.89983 6.750144
4.677376 86.308349 8.262186
3.935874 84.832855 7.067635
4.313007 85.89983 6.750144
3.877845 80.099022 29.602079
4.262586 79.652378 31.116641
3.481671 80.477955 28.07402
3.877845 80.099022 29.602079
4.140257 81.131222 27.69539
3.228638 80.650352 26.493961
3.481671 80.477955 28.07402
3.473534 81.61066 24.589219
2.95809 80.750858 24.915848
3.228638 80.650352 26.493961
18.235644 78.122238 22.258249
17.194386 78.940285 22.588692
17.833952 77.521286 23.924547
19.885413 75.824382 23.299152
19.501005 75.18423 24.854985
20.511208 74.305374 24.560033
19.282999 77.261608 21.979088
19.885413 75.824382 23.299152
18.235644 78.122238 22.258249
19.282999 77.261608 21.979088
2.618194 73.407284 17.800432
2.47902 72.561817 19.611781
2.431411 74.089562 19.378049
2.618194 73.407284 17.800432
2.723825 74.164314 16.018142
2.848985 74.910301 14.208384
2.931113 75.569965 12.430404
10.136207 87.276817 13.073623
9.73643 86.819458 14.89832
10.808159 86.654899 14.584916
9.432874 87.84111 11.552961
10.136207 87.276817 13.073623
8.801075 88.201542 10.028903
8.432678 87.801807 11.862969
9.432874 87.84111 11.552961
8.120706 88.511409 8.506983
8.801075 88.201542 10.028903
7.223037 88.250251 8.816259
8.120706 88.511409 8.506983
2.114511 73.787789 22.822651
2.148565 72.29361 22.993851
2.25392 78.613117 25.471577
2.588953 79.699066 25.202427
2.053222 77.36771 25.710031
2.25392 78.613117 25.471577
2.264013 78.362175 23.822717
1.88065 76.095081 25.921458
2.053222 77.36771 25.710031
2.00005 75.724125 24.258538
1.88065 76.095081 25.921458
2.101487 75.265125 22.617662
2.00005 75.724125 24.258538
2.16475 76.657769 22.420295
2.279211 74.721432 20.984409
2.114511 73.787789 22.822651
2.101487 75.265125 22.617662
2.952907 78.525482 11.886451
2.921151 77.077854 12.145703
2.852661 77.87463 13.687932
3.076162 79.161892 10.063156
2.952907 78.525482 11.886451
3.007672 79.958668 11.605384
3.140889 79.720883 8.274726
3.076162 79.161892 10.063156
15.854678 81.592254 19.832643
16.516011 80.305431 21.236286
14.740791 82.274383 20.13046
15.854678 81.592254 19.832643
13.632563 82.889012 20.476472
14.327718 81.684254 21.896191
14.740791 82.274383 20.13046
12.924266 83.973236 19.042111
12.511193 83.383106 20.807842
13.632563 82.889012 20.476472
12.216798 84.988838 17.571202
12.924266 83.973236 19.042111
11.519541 85.853943 16.089268
11.105639 85.332436 17.891548
12.216798 84.988838 17.571202
10.808159 86.654899 14.584916
11.519541 85.853943 16.089268
5.282378 78.280777 33.99418
4.775597 78.997154 32.570442
6.174676 78.526851 33.4893
5.282378 78.280777 33.99418
7.102308 78.713734 33.01438
6.490087 79.628723 31.65613
6.174676 78.526851 33.4893
7.788528 77.614872 34.318817
8.476498 76.467038 35.5639
8.103939 78.716744 32.485647
7.102308 78.713734 33.01438
7.788528 77.614872 34.318817
11.672142 75.743344 33.894776
10.5911 76.09275 34.457773
11.333867 74.656475 35.612662
14.956527 70.58184 36.589325
15.689896 68.913826 37.521175
15.295052 71.642132 35.021984
14.239402 72.220616 35.56477
14.956527 70.58184 36.589325
17.037966 69.327191 35.562718
16.716271 68.304355 36.975307
17.742059 67.628189 36.491486
20.055591 70.552948 30.29315
19.070238 71.349876 30.678104
19.713727 69.716499 31.788958
20.392115 71.34391 28.835235
20.055591 70.552948 30.29315
20.749465 72.083359 27.30202
19.769452 72.925773 27.649082
20.392115 71.34391 28.835235
21.110459 72.792812 25.811658
20.749465 72.083359 27.30202
2.360171 71.703087 21.391038
2.47902 72.561817 19.611781
3.219583 81.137794 7.974336
3.304512 81.899811 9.4907
3.393166 82.442527 7.682948
3.140889 79.720883 8.274726
3.219583 81.137794 7.974336
3 0 20 18
3 2 23 21
3 2 25 23
3 3 28 26
3 71 31 72
3 74 73 31
3 1 75 76
3 4 34 32
3 5 37 19
3 5 38 37
3 6 41 39
3 7 77 79
3 79 78 42
3 77 78 79
3 9 44 22
3 9 45 44
3 9 46 45
3 10 47 24
3 10 48 47
3 11 51 49
3 13 52 27
3 13 53 52
3 80 54 81
3 82 81 40
3 80 81 82
3 83 55 84
3 85 56 86
3 87 86 55
3 85 86 87
3 14 57 29
3 14 58 57
3 88 59 89
3 15 60 30
3 15 61 60
3 15 62 61
3 12 63 50
3 16 64 33
3 16 65 64
3 8 66 43
3 17 67 35
3 17 68 67
3 17 69 68
3 90 70 91
3 92 91 36
3 90 91 92
3 94 93 70
3 18 95 97
3 95 19 96
3 95 96 97
3 20 19 18
3 20 5 19
3 99 98 6
3 101 100 7
3 21 102 104
3 102 22 103
3 102 103 104
3 23 22 21
3 23 9 22
3 23 24 9
3 25 24 23
3 25 10 24
3 26 27 11
3 28 27 26
3 28 13 27
3 105 29 106
3 107 29 108
3 109 14 110
3 111 110 29
3 109 110 111
3 112 30 113
3 31 114 116
3 114 30 115
3 114 115 116
3 31 15 30
3 31 117 119
3 119 118 15
3 117 118 119
3 121 120 31
3 32 33 12
3 34 33 32
3 34 16 33
3 122 35 123
3 124 123 8
3 122 123 124
3 125 35 126
3 125 126 127
3 128 17 129
3 130 129 35
3 128 129 130
3 131 36 132
3 133 132 17
3 131 132 133
3 134 36 135
3 137 136 36
3 19 138 139
3 37 140 142
3 142 141 19
3 140 141 142
3 37 143 144
3 37 145 147
3 145 21 146
3 145 146 147
3 38 21 37
3 38 2 21
3 39 40 3
3 41 40 39
3 41 148 150
3 150 149 40
3 148 149 150
3 151 41 152
3 153 152 6
3 151 152 153
3 154 41 155
3 157 156 41
3 42 158 160
3 160 159 1
3 158 159 160
3 162 161 42
3 164 163 7
3 165 43 166
3 167 166 4
3 165 166 167
3 168 43 169
3 170 8 171
3 172 171 43
3 170 171 172
3 173 8 174
3 176 175 8
3 177 1 178
3 22 179 180
3 44 181 183
3 183 182 22
3 181 182 183
3 44 184 185
3 44 186 187
3 45 188 190
3 190 189 44
3 188 189 190
3 45 191 193
3 191 1 192
3 191 192 193
3 45 42 1
3 46 42 45
3 46 7 42
3 24 46 9
3 47 46 24
3 47 7 46
3 47 194 196
3 196 195 7
3 194 195 196
3 48 197 199
3 199 198 47
3 197 198 199
3 48 200 201
3 49 50 0
3 51 50 49
3 51 12 50
3 27 51 11
3 52 51 27
3 52 12 51
3 52 32 12
3 53 32 52
3 53 4 32
3 40 28 3
3 54 28 40
3 54 13 28
3 202 54 203
3 204 54 205
3 206 13 207
3 208 207 54
3 206 207 208
3 209 53 210
3 211 210 13
3 209 210 211
3 212 53 213
3 214 4 215
3 216 215 53
3 214 215 216
3 218 217 4
3 219 18 220
3 221 18 222
3 223 0 224
3 225 224 18
3 223 224 225
3 55 226 227
3 55 228 230
3 228 0 229
3 228 229 230
3 55 49 0
3 56 49 55
3 56 11 49
3 29 231 233
3 231 56 232
3 231 232 233
3 57 56 29
3 57 11 56
3 57 26 11
3 58 26 57
3 58 3 26
3 59 234 235
3 59 236 238
3 236 14 237
3 236 237 238
3 30 239 241
3 239 59 240
3 239 240 241
3 60 59 30
3 60 14 59
3 60 58 14
3 61 58 60
3 61 3 58
3 61 39 3
3 62 39 61
3 62 6 39
3 242 62 243
3 244 243 15
3 242 243 244
3 245 62 246
3 247 6 248
3 249 248 62
3 247 248 249
3 251 250 6
3 253 252 1
3 50 20 0
3 63 20 50
3 63 5 20
3 33 63 12
3 64 63 33
3 64 5 63
3 64 38 5
3 65 38 64
3 65 2 38
3 43 34 4
3 66 34 43
3 66 16 34
3 35 66 8
3 67 66 35
3 67 16 66
3 67 65 16
3 68 65 67
3 68 2 65
3 68 25 2
3 69 25 68
3 69 10 25
3 36 69 17
3 70 69 36
3 70 10 69
3 70 48 10
3 254 48 255
3 256 255 70
3 254 255 256
3 258 257 48
