ply
format ascii 1.0
element vertex 435
property float x
property float y
property float z
element face 457
property list uchar int vertex_index
end_header
49.892799 -87.475082 2.170938
43.424194 -97.9105 19.90414
39.299358 -98.953766 28.362278
36.562416 -105.41407 15.936792
31.964926 -101.650589 23.236652
46.015797 -99.300568 -0.278154
49.567024 -92.42482 -7.603529
42.958527 -105.667023 -11.035622
46.625519 -93.094917 10.802382
41.213184 -103.326988 7.766876
36.857925 -96.724815 32.024693
35.942253 -100.499229 25.438274
33.465862 -97.13353 29.040127
42.272171 -104.900215 -1.895254
44.790222 -102.607834 -5.718697
44.023514 -95.244881 26.387505
45.473339 -93.068855 21.490376
45.088451 -95.648613 15.338788
44.619171 -98.38826 9.376499
42.553886 -100.504829 13.651274
31.983717 -108.416977 14.748684
42.120026 -96.233826 31.035772
41.512005 -99.252899 24.314169
40.467678 -102.025345 17.869013
38.285667 -102.192688 21.814672
34.304031 -104.369843 19.627928
29.72348 -106.458405 18.532627
48.318722 -93.410828 1.177897
50.008488 -90.02417 -2.681318
47.876305 -96.410896 -4.031988
29.584484 -97.851234 27.321144
27.492861 -103.321075 22.594767
48.1563 -90.436378 6.392812
46.580063 -96.073509 5.201783
43.72213 -101.464073 3.657351
39.414719 -106.599182 2.197042
52.118458 -85.714287 -6.394754
35.22464 -96.966492 30.438332
33.936932 -95.013985 32.271141
43.738506 -96.604042 23.133514
44.800964 -94.260376 23.954224
44.540195 -95.56385 20.778116
45.265755 -94.351807 18.40136
44.279858 -96.847099 17.627197
43.976376 -98.142105 14.531085
43.040241 -99.198128 16.735254
39.602417 -97.255478 31.778057
40.76384 -97.764153 29.782906
41.849583 -97.790039 27.664953
40.441002 -99.342072 26.391958
39.997017 -100.851067 23.076841
38.873936 -100.590263 25.021294
34.027908 -101.060127 24.185587
35.219418 -102.415504 22.415213
33.14278 -103.194298 21.412516
32.07505 -105.384811 18.905083
30.925457 -104.028442 20.747658
47.321697 -96.385818 0.495493
48.181889 -94.91996 -1.42135
46.996002 -97.976929 -2.177553
43.947701 -104.192947 -8.409933
45.848064 -101.068634 -7.528372
45.048767 -102.486107 -10.166935
30.322813 -95.287415 30.128166
47.382225 -91.78511 8.577653
47.479733 -93.270798 5.859294
46.644581 -94.549263 7.981595
43.092697 -100.900238 8.564299
44.237656 -99.877304 6.489752
42.470467 -102.419975 5.693609
41.72303 -104.053062 2.88314
40.364281 -104.901131 4.950818
38.619785 -103.79425 16.848749
39.715157 -103.410713 14.835273
37.677807 -105.299889 13.973609
49.85495 -91.253365 -5.132071
50.980904 -87.984596 -4.552181
50.809254 -89.028427 -6.931192
38.384075 -96.262306 33.654781
38.100552 -98.070808 30.230206
37.698009 -99.837135 26.873627
36.478882 -98.608025 28.662113
34.718151 -98.985527 27.209696
32.813896 -99.347351 26.009335
44.33371 -102.136719 -1.095409
45.483139 -100.961685 -3.002159
43.59621 -103.862976 -3.840708
42.714676 -105.575508 -6.562748
45.100189 -92.907562 27.118862
45.753029 -91.773445 24.574509
46.299812 -90.485077 22.017031
46.781654 -89.115837 19.46501
46.068161 -91.754929 19.019842
45.940422 -93.048286 16.025173
45.865734 -94.385002 13.059244
45.780643 -95.782356 10.139459
44.889687 -96.985649 12.326362
43.590107 -99.482498 11.508229
41.94606 -101.869553 10.662745
34.337227 -106.937439 15.214439
50.525715 -90.011536 -9.3258
43.128639 -95.930908 28.759403
42.843468 -97.377594 25.439426
42.505444 -98.745949 22.14296
42.073086 -100.068901 18.91329
41.062248 -100.652672 21.035913
39.395294 -102.323311 19.885946
37.513924 -103.790817 18.781422
37.133663 -101.584656 23.656759
36.382378 -103.336845 20.629721
35.442867 -105.115242 17.816792
33.213463 -106.369843 17.08098
30.857067 -107.621712 16.644438
49.126953 -90.419571 1.739603
50.017899 -88.759232 -0.251217
49.143524 -91.827736 -0.772554
49.003777 -93.217461 -3.296988
48.708778 -94.563713 -5.840544
46.500595 -99.550995 -4.855221
47.411102 -97.851067 -6.653364
48.2724 -95.83577 -8.394207
32.183441 -95.059914 31.006607
31.580267 -97.383263 27.965126
30.778048 -99.832954 25.179884
28.636835 -100.54612 24.806402
29.776005 -102.382248 22.68737
28.596104 -104.994881 20.48815
48.979023 -89.013359 4.255242
48.297089 -91.909508 3.777258
47.475952 -94.809448 3.169881
46.3797 -97.662285 2.453052
45.623264 -97.254219 7.271729
45.345268 -98.808144 4.45126
44.918316 -100.441223 1.666405
43.065605 -103.145302 0.866116
40.858181 -105.792564 0.118237
41.515678 -101.384789 15.781417
40.819458 -102.734955 12.763008
39.988655 -104.159271 9.85811
51.02726 -86.899345 -2.196898
52.205917 -84.827209 -4.105391
51.925919 -86.565559 -8.704834
34.098732 -93.9981 33.944374
34.757742 -95.002926 33.034388
50.418951 -86.629493 1.156375
50.323734 -86.060363 2.325762
43.530149 -104.71328 -11.876558
44.575269 -103.122822 -11.442214
44.003647 -104.076565 -10.601278
46.941223 -91.728531 11.06753
46.609555 -92.402046 12.233757
47.003872 -92.440013 9.690017
47.319576 -91.073627 9.955165
46.941223 -91.728531 11.06753
37.621 -96.493561 32.839737
37.753349 -95.546089 34.548448
36.990274 -95.777344 33.733404
41.50763 -107.020061 -6.942649
42.03203 -106.133114 -5.595977
42.203851 -106.398246 -7.899028
41.50763 -107.020061 -6.942649
44.561852 -94.076222 26.753183
44.709249 -93.355839 28.3709
44.170912 -94.524498 28.005222
32.544055 -108.616085 13.770972
33.72081 -107.876316 14.003849
33.160472 -107.677208 14.981562
42.245282 -95.397419 32.700118
41.567103 -96.162128 32.11098
42.762003 -95.306583 31.543521
42.245282 -95.397419 32.700118
42.624333 -96.082367 29.897588
43.266309 -95.155124 30.405337
42.762003 -95.306583 31.543521
29.062378 -107.685623 17.540358
29.629171 -108.267277 16.596264
30.290273 -107.040059 17.588532
47.105805 -98.526909 -7.959736
46.629583 -99.459851 -7.090868
46.324286 -100.135693 -8.39724
47.536454 -97.519261 -8.830157
47.841751 -96.843418 -7.523785
47.105805 -98.526909 -7.959736
47.989258 -96.417355 -9.661164
47.536454 -97.519261 -8.830157
31.522768 -93.976117 32.093645
32.396521 -93.96769 32.621226
28.064848 -101.933597 23.700584
27.531357 -101.038521 24.867329
26.95937 -102.425998 23.761512
47.017482 -88.419269 18.198154
46.703066 -89.751034 18.012253
48.456101 -89.031948 6.592216
48.060583 -89.722305 7.715407
48.567661 -89.724868 5.324027
48.867462 -88.320438 5.523431
48.456101 -89.031948 6.592216
38.896707 -107.503349 0.843411
39.618438 -107.10004 -0.195992
40.13645 -106.195873 1.15764
39.816046 -103.791843 12.350582
40.267308 -103.072834 13.799141
39.263896 -104.129722 13.386715
39.400644 -104.504002 10.898134
40.404056 -103.447113 11.310559
39.816046 -103.791843 12.350582
52.85051 -84.129845 -6.192861
52.894239 -83.686306 -5.04818
52.162188 -85.270748 -5.250072
51.782764 -86.963852 -9.86184
51.225817 -88.288547 -9.015317
51.082662 -88.68684 -10.172322
36.218238 -95.858341 32.911164
36.990274 -95.777344 33.733404
35.401596 -95.97918 32.117983
36.041283 -96.845653 31.231513
36.218238 -95.858341 32.911164
34.580786 -95.990239 31.354737
35.401596 -95.97918 32.117983
34.757742 -95.002926 33.034388
41.810778 -105.795468 -3.26223
41.078565 -106.255809 -2.253032
31.32188 -109.461586 13.664532
30.758266 -109.15308 14.665164
40.308298 -96.672955 32.482123
39.717956 -96.363617 33.485495
40.88901 -96.927292 31.484547
40.308298 -96.672955 32.482123
40.183129 -97.509816 30.780482
41.441933 -96.998989 30.409339
41.567103 -96.162128 32.11098
40.88901 -96.927292 31.484547
45.924637 -100.844429 -9.716521
46.324286 -100.135693 -8.39724
45.448415 -101.777371 -8.847653
45.549799 -101.456356 -10.997587
45.924637 -100.844429 -9.716521
45.549799 -101.456356 -10.997587
44.575269 -103.122822 -11.442214
29.676616 -94.233002 31.342369
30.592454 -94.089867 31.654425
29.35029 -95.551754 29.926265
29.676616 -94.233002 31.342369
28.981125 -96.833664 28.522754
29.953648 -96.569324 28.724655
29.35029 -95.551754 29.926265
26.321746 -103.896007 22.781985
26.95937 -102.425998 23.761512
26.839669 -104.720607 21.627585
26.321746 -103.896007 22.781985
47.673546 -90.396671 8.807828
47.319576 -91.073627 9.955165
47.769262 -91.110744 7.485233
48.060583 -89.722305 7.715407
47.673546 -90.396671 8.807828
38.245221 -105.07431 12.955883
39.263896 -104.129722 13.386715
38.696482 -104.355301 14.404441
38.491085 -95.326313 35.356981
37.753349 -95.546089 34.548448
39.108785 -95.867031 34.423856
38.491085 -95.326313 35.356981
38.993246 -96.758892 32.716419
39.717956 -96.363617 33.485495
39.108785 -95.867031 34.423856
42.472797 -105.276848 -4.234957
42.93419 -104.381596 -2.867981
41.810778 -105.795468 -3.26223
43.155443 -104.719242 -5.201728
42.472797 -105.276848 -4.234957
42.03203 -106.133114 -5.595977
42.820364 -105.706966 -8.82262
43.331188 -104.884228 -7.486341
42.203851 -106.398246 -7.899028
42.325777 -106.444004 -10.135465
43.453114 -104.929985 -9.722777
42.820364 -105.706966 -8.82262
45.281427 -92.193416 28.676068
44.709249 -93.355839 28.3709
45.614046 -91.673367 27.369532
45.281427 -92.193416 28.676068
45.940466 -91.106308 26.097356
45.614046 -91.673367 27.369532
45.426609 -92.340503 25.846685
46.207575 -90.494484 24.780788
45.940466 -91.106308 26.097356
46.480967 -89.8503 23.502049
46.207575 -90.494484 24.780788
46.026421 -91.129261 23.29577
46.700529 -89.183377 22.186355
46.881684 -88.548599 23.671374
46.480967 -89.8503 23.502049
46.540733 -89.800457 20.74102
46.94145 -88.498756 20.910345
46.700529 -89.183377 22.186355
46.346319 -91.07058 17.789669
46.703066 -89.751034 18.012253
46.424908 -90.435383 19.242426
46.282449 -91.717258 16.292334
46.346319 -91.07058 17.789669
46.004292 -92.401608 17.522507
46.267006 -92.378731 14.845152
46.282449 -91.717258 16.292334
46.229662 -93.047089 13.362188
46.267006 -92.378731 14.845152
45.903078 -93.716644 14.542208
46.245627 -93.739959 11.930813
46.609555 -92.402046 12.233757
46.229662 -93.047089 13.362188
34.897075 -107.013099 14.243081
36.00967 -106.251415 14.604257
35.449821 -106.175754 15.575616
34.897075 -107.013099 14.243081
33.72081 -107.876316 14.003849
32.544055 -108.616085 13.770972
31.32188 -109.461586 13.664532
49.842115 -91.760841 -9.701632
50.046369 -91.218178 -8.464664
49.36277 -92.967484 -8.840497
50.332217 -90.459038 -10.517274
49.842115 -91.760841 -9.701632
51.082662 -88.68684 -10.172322
50.332217 -90.459038 -10.517274
43.723474 -94.867512 29.19117
43.266309 -95.155124 30.405337
43.576076 -95.587895 27.573454
44.170912 -94.524498 28.005222
43.723474 -94.867512 29.19117
30.194941 -108.755448 15.613041
30.758266 -109.15308 14.665164
31.420392 -108.019345 15.696561
30.194941 -108.755448 15.613041
29.629171 -108.267277 16.596264
48.715458 -94.672958 -9.235836
49.36277 -92.967484 -8.840497
48.919712 -94.130295 -7.998868
48.715458 -94.672958 -9.235836
47.989258 -96.417355 -9.661164
41.741756 -107.204704 -11.422415
42.325777 -106.444004 -10.135465
42.386219 -106.323948 -12.284118
41.741756 -107.204704 -11.422415
43.530149 -104.71328 -11.876558
42.386219 -106.323948 -12.284118
33.273266 -93.944725 33.253493
34.098732 -93.9981 33.944374
33.060187 -95.03695 31.638874
33.273266 -93.944725 33.253493
32.396521 -93.96769 32.621226
31.253127 -95.173665 30.567386
31.522768 -93.976117 32.093645
30.592454 -94.089867 31.654425
28.547038 -98.236542 27.247927
28.981125 -96.833664 28.522754
28.073214 -99.583984 25.990556
27.531357 -101.038521 24.867329
29.11066 -99.198677 26.063773
28.547038 -98.236542 27.247927
28.073214 -99.583984 25.990556
27.39129 -105.557511 20.574276
28.044483 -104.157978 21.541459
26.839669 -104.720607 21.627585
27.93697 -106.312424 19.517507
27.39129 -105.557511 20.574276
28.500658 -107.044186 18.539746
29.159792 -105.726643 19.510389
27.93697 -106.312424 19.517507
29.062378 -107.685623 17.540358
28.500658 -107.044186 18.539746
49.782445 -86.830795 3.387262
50.323734 -86.060363 2.325762
47.141327 -87.808411 19.602401
46.94145 -88.498756 20.910345
47.141327 -87.808411 19.602401
47.017482 -88.419269 18.198154
49.325558 -87.599933 4.429414
48.867462 -88.320438 5.523431
49.435911 -88.24422 3.21309
49.782445 -86.830795 3.387262
49.325558 -87.599933 4.429414
40.371571 -106.701984 -1.246286
41.078565 -106.255809 -2.253032
41.565176 -105.34639 -0.888509
40.371571 -106.701984 -1.246286
39.618438 -107.10004 -0.195992
36.567366 -106.194324 13.622666
37.120112 -105.356979 14.955201
36.00967 -106.251415 14.604257
37.137156 -106.086391 12.611071
36.567366 -106.194324 13.622666
38.245221 -105.07431 12.955883
37.137156 -106.086391 12.611071
38.886723 -105.266876 9.511419
39.400644 -104.504002 10.898134
39.515079 -104.924641 8.455948
38.886723 -105.266876 9.511419
40.127344 -104.508499 7.410331
40.60092 -103.74313 8.812493
39.515079 -104.924641 8.455948
39.702893 -105.29557 6.002302
40.788732 -104.114059 6.358847
40.127344 -104.508499 7.410331
39.18348 -106.123356 4.640076
39.702893 -105.29557 6.002302
38.708698 -106.972381 3.263187
39.8895 -105.750157 3.57393
39.18348 -106.123356 4.640076
38.154627 -107.862244 1.930033
38.708698 -106.972381 3.263187
38.896707 -107.503349 0.843411
38.154627 -107.862244 1.930033
50.481501 -87.271569 -0.054703
50.418951 -86.629493 1.156375
49.955349 -88.117157 0.959861
50.986182 -86.341625 -1.027543
50.481501 -87.271569 -0.054703
50.522579 -87.829288 -1.224058
51.602227 -85.405345 -2.016939
50.986182 -86.341625 -1.027543
52.191555 -84.369277 -2.971186
51.602227 -85.405345 -2.016939
51.616588 -85.863277 -3.151145
52.908559 -83.333923 -3.941584
52.191555 -84.369277 -2.971186
52.908559 -83.333923 -3.941584
52.894239 -83.686306 -5.04818
52.579269 -85.233593 -9.58693
51.782764 -86.963852 -9.86184
52.688958 -84.899993 -8.464535
52.579269 -85.233593 -9.58693
52.785227 -84.474357 -7.309495
52.022188 -86.139923 -7.549794
52.688958 -84.899993 -8.464535
52.85051 -84.129845 -6.192861
52.785227 -84.474357 -7.309495
3 142 38 143
3 0 144 145
3 1 41 39
3 1 43 41
3 1 45 43
3 2 47 46
3 2 49 47
3 2 51 49
3 4 54 52
3 4 56 54
3 5 59 57
3 7 62 60
3 7 146 148
3 148 147 62
3 146 147 148
3 8 149 150
3 8 151 153
3 151 64 152
3 151 152 153
3 8 66 64
3 9 69 67
3 9 71 69
3 3 74 72
3 6 77 75
3 10 154 156
3 154 78 155
3 154 155 156
3 10 79 78
3 10 81 79
3 12 82 37
3 12 83 82
3 13 86 84
3 157 87 158
3 160 159 87
3 15 161 163
3 161 88 162
3 161 162 163
3 16 89 40
3 16 90 89
3 16 92 90
3 17 93 42
3 17 94 93
3 17 96 94
3 19 97 44
3 19 98 97
3 20 164 166
3 166 165 99
3 164 165 166
3 21 167 168
3 21 169 170
3 21 171 173
3 171 101 172
3 171 172 173
3 22 102 48
3 22 103 102
3 22 105 103
3 24 106 50
3 24 107 106
3 11 108 80
3 25 109 53
3 25 110 109
3 25 111 110
3 26 112 55
3 26 174 176
3 176 175 112
3 174 175 176
3 27 115 113
3 29 116 58
3 29 117 116
3 14 118 85
3 177 119 178
3 179 178 61
3 177 178 179
3 180 120 181
3 182 181 119
3 180 181 182
3 184 183 120
3 185 121 186
3 30 122 63
3 30 123 122
3 31 187 189
3 187 124 188
3 187 188 189
3 31 125 124
3 31 126 125
3 191 190 91
3 32 192 193
3 32 194 196
3 194 127 195
3 194 195 196
3 32 128 127
3 33 129 65
3 33 130 129
3 18 131 95
3 34 132 68
3 34 133 132
3 34 134 133
3 35 135 70
3 35 197 199
3 199 198 135
3 197 198 199
3 23 136 104
3 200 137 201
3 202 201 73
3 200 201 202
3 203 138 204
3 205 204 137
3 203 204 205
3 28 139 114
3 36 140 76
3 36 206 208
3 208 207 140
3 206 207 208
3 209 141 210
3 211 210 100
3 209 210 211
3 212 10 213
3 214 37 215
3 216 215 10
3 214 215 216
3 38 217 219
3 217 37 218
3 217 218 219
3 38 12 37
3 221 220 13
3 39 40 15
3 41 40 39
3 41 16 40
3 41 42 16
3 43 42 41
3 43 17 42
3 43 44 17
3 45 44 43
3 45 19 44
3 223 222 20
3 46 224 225
3 47 226 228
3 228 227 46
3 226 227 228
3 47 229 231
3 229 21 230
3 229 230 231
3 47 48 21
3 49 48 47
3 49 22 48
3 49 50 22
3 51 50 49
3 51 24 50
3 52 53 11
3 54 53 52
3 54 25 53
3 54 55 25
3 56 55 54
3 56 26 55
3 57 58 27
3 59 58 57
3 59 29 58
3 60 61 14
3 62 61 60
3 62 232 234
3 234 233 61
3 232 233 234
3 62 235 236
3 238 237 62
3 239 63 240
3 241 63 242
3 243 30 244
3 245 244 63
3 243 244 245
3 246 31 247
3 249 248 31
3 64 250 251
3 64 252 254
3 252 32 253
3 252 253 254
3 64 65 32
3 66 65 64
3 66 33 65
3 67 68 18
3 69 68 67
3 69 34 68
3 69 70 34
3 71 70 69
3 71 35 70
3 72 73 23
3 74 73 72
3 74 255 257
3 257 256 73
3 255 256 257
3 75 76 28
3 77 76 75
3 77 36 76
3 78 258 259
3 78 260 261
3 78 262 264
3 262 46 263
3 262 263 264
3 79 46 78
3 79 2 46
3 79 80 2
3 81 80 79
3 81 11 80
3 37 81 10
3 82 81 37
3 82 11 81
3 82 52 11
3 83 52 82
3 83 4 52
3 84 85 5
3 86 85 84
3 86 14 85
3 265 86 266
3 267 266 13
3 265 266 267
3 87 268 270
3 268 86 269
3 268 269 270
3 87 14 86
3 87 60 14
3 271 60 272
3 273 272 87
3 271 272 273
3 274 7 275
3 276 275 60
3 274 275 276
3 88 277 278
3 88 279 280
3 40 88 15
3 89 88 40
3 89 281 283
3 283 282 88
3 281 282 283
3 89 284 285
3 90 286 288
3 288 287 89
3 286 287 288
3 90 289 291
3 289 290 291
3 90 292 294
3 292 91 293
3 292 293 294
3 92 91 90
3 92 295 297
3 297 296 91
3 295 296 297
3 42 92 16
3 93 92 42
3 93 298 300
3 300 299 92
3 298 299 300
3 93 301 302
3 94 303 305
3 305 304 93
3 303 304 305
3 94 306 308
3 306 8 307
3 306 307 308
3 94 95 8
3 96 95 94
3 96 18 95
3 44 96 17
3 97 96 44
3 97 18 96
3 97 67 18
3 98 67 97
3 98 9 67
3 99 309 311
3 311 310 3
3 309 310 311
3 313 312 99
3 315 314 20
3 316 100 317
3 318 317 6
3 316 317 318
3 319 100 320
3 322 321 100
3 101 323 324
3 101 325 327
3 325 15 326
3 325 326 327
3 48 101 21
3 102 101 48
3 102 15 101
3 102 39 15
3 103 39 102
3 103 1 39
3 103 104 1
3 105 104 103
3 105 23 104
3 50 105 22
3 106 105 50
3 106 23 105
3 106 72 23
3 107 72 106
3 107 3 72
3 80 51 2
3 108 51 80
3 108 24 51
3 53 108 11
3 109 108 53
3 109 24 108
3 109 107 24
3 110 107 109
3 110 3 107
3 110 99 3
3 111 99 110
3 111 20 99
3 55 111 25
3 112 111 55
3 112 20 111
3 112 328 330
3 330 329 20
3 328 329 330
3 332 331 112
3 113 114 0
3 115 114 113
3 115 28 114
3 58 115 27
3 116 115 58
3 116 28 115
3 116 75 28
3 117 75 116
3 117 6 75
3 85 59 5
3 118 59 85
3 118 29 59
3 61 118 14
3 119 118 61
3 119 29 118
3 119 117 29
3 120 117 119
3 120 6 117
3 120 333 335
3 335 334 6
3 333 334 335
3 337 336 120
3 338 7 339
3 340 7 341
3 343 342 7
3 344 38 345
3 121 346 348
3 346 38 347
3 346 347 348
3 121 12 38
3 63 349 351
3 349 121 350
3 349 350 351
3 122 121 63
3 122 12 121
3 122 83 12
3 123 83 122
3 123 4 83
3 352 30 353
3 124 354 355
3 124 356 358
3 356 30 357
3 356 357 358
3 124 123 30
3 125 123 124
3 125 4 123
3 125 56 4
3 126 56 125
3 126 26 56
3 359 126 360
3 361 360 31
3 359 360 361
3 362 126 363
3 364 26 365
3 366 365 126
3 364 365 366
3 368 367 26
3 369 0 370
3 91 371 372
3 374 373 91
3 127 375 376
3 127 377 379
3 377 0 378
3 377 378 379
3 127 113 0
3 128 113 127
3 128 27 113
3 65 128 32
3 129 128 65
3 129 27 128
3 129 57 27
3 130 57 129
3 130 5 57
3 95 66 8
3 131 66 95
3 131 33 66
3 68 131 18
3 132 131 68
3 132 33 131
3 132 130 33
3 133 130 132
3 133 5 130
3 133 84 5
3 134 84 133
3 134 13 84
3 70 134 34
3 135 134 70
3 135 13 134
3 135 380 382
3 382 381 13
3 380 381 382
3 384 383 135
3 104 45 1
3 136 45 104
3 136 19 45
3 73 136 23
3 137 136 73
3 137 19 136
3 137 98 19
3 138 98 137
3 138 9 98
3 385 74 386
3 387 386 3
3 385 386 387
3 388 74 389
3 391 390 74
3 392 138 393
3 394 138 395
3 396 9 397
3 398 397 138
3 396 397 398
3 399 71 400
3 401 400 9
3 399 400 401
3 402 71 403
3 404 35 405
3 406 405 71
3 404 405 406
3 407 35 408
3 410 409 35
3 114 411 413
3 413 412 0
3 411 412 413
3 139 414 416
3 416 415 114
3 414 415 416
3 139 417 418
3 76 139 28
3 140 139 76
3 140 419 421
3 421 420 139
3 419 420 421
3 140 422 423
3 425 424 140
3 100 77 6
3 141 77 100
3 141 36 77
3 426 141 427
3 428 141 429
3 430 36 431
3 432 431 141
3 430 431 432
3 434 433 36
