ply
format ascii 1.0
element vertex 100
property float x
property float y
property float z
element face 80
property list uchar int vertex_index
end_header
-27.927532 2.162468 -45.079456
-28.485493 5.5776 -41.954643
-28.657169 7.135633 -47.76437
-27.80097 3.901894 -50.332184
-29.410162 9.101324 -41.142296
-28.224136 3.894108 -43.624149
-28.592781 6.231283 -44.903111
-28.164932 4.682693 -46.504719
-28.175949 5.610525 -49.223091
-27.768871 3.013121 -47.814533
-28.692259 7.252419 -40.163712
-29.020571 7.688334 -43.085972
-29.211161 8.487459 -46.01429
-28.183363 4.663523 -52.559296
-27.428381 1.210726 -48.778114
-27.550816 2.017929 -51.055794
-29.118024 9.034461 -39.745854
-29.566612 9.81642 -40.152279
-28.075834 3.028288 -44.351803
-28.147142 2.704497 -42.922661
-27.998839 1.838678 -43.650314
-28.320518 5.453342 -40.507612
-28.318965 4.49374 -41.327442
-28.588876 6.41501 -41.059177
-28.423901 6.290751 -39.612146
-28.320518 5.453342 -40.507612
-29.04409 8.306508 -48.283034
-29.321086 8.982421 -47.407994
-28.934165 7.811546 -46.88933
-28.757936 7.622478 -49.090173
-29.04409 8.306508 -48.283034
-28.117813 5.200761 -51.007424
-28.305302 6.055077 -50.452877
-27.988459 4.756209 -49.777637
-27.992166 4.282709 -51.44574
-28.30901 5.581575 -52.12098
-28.117813 5.200761 -51.007424
-27.364705 -0.16365 -47.926401
-27.521117 0.783494 -47.511921
-27.492045 0.99773 -51.219475
-27.355932 0.647571 -50.211857
-27.830205 2.324621 -52.040115
-27.492045 0.99773 -51.219475
-29.872451 9.96609 -41.544339
-29.566612 9.81642 -40.152279
-29.599875 9.400613 -42.594893
-29.872451 9.96609 -41.544339
-28.188287 3.651994 -42.162195
-28.147142 2.704497 -42.922661
-28.354815 4.735854 -42.789396
-28.318965 4.49374 -41.327442
-28.188287 3.651994 -42.162195
-27.919339 0.886723 -44.304827
-27.998839 1.838678 -43.650314
-27.770692 1.259365 -45.662592
-27.919339 0.886723 -44.304827
-28.386466 7.281991 -38.784538
-28.423901 6.290751 -39.612146
-28.759073 8.110008 -39.256562
-28.386466 7.281991 -38.784538
-29.05121 8.176872 -40.653004
-29.118024 9.034461 -39.745854
-28.759073 8.110008 -39.256562
-29.40508 8.694118 -43.56673
-29.599875 9.400613 -42.594893
-29.215367 8.394829 -42.114134
-29.500375 9.09368 -45.03089
-29.40508 8.694118 -43.56673
-29.115866 8.087896 -44.550131
-29.657763 9.550535 -46.456755
-29.500375 9.09368 -45.03089
-29.657763 9.550535 -46.456755
-29.321086 8.982421 -47.407994
-28.517325 6.859924 -49.819534
-28.757936 7.622478 -49.090173
-28.416559 6.373079 -48.49373
-28.517325 6.859924 -49.819534
-28.305302 6.055077 -50.452877
-28.624669 5.921965 -53.185269
-28.30901 5.581575 -52.12098
-28.595322 4.907697 -53.500755
-29.036628 6.166139 -54.126728
-28.624669 5.921965 -53.185269
-27.691362 1.684692 -47.03013
-27.848202 2.587795 -46.446995
-27.770692 1.259365 -45.662592
-27.598626 2.111924 -48.296323
-27.691362 1.684692 -47.03013
-27.521117 0.783494 -47.511921
-27.294714 0.243969 -49.073017
-27.364705 -0.16365 -47.926401
-27.489598 1.614327 -49.916954
-27.294714 0.243969 -49.073017
-27.355932 0.647571 -50.211857
-28.146479 3.647418 -52.791866
-27.867089 3.340726 -51.807545
-27.830205 2.324621 -52.040115
-28.558437 3.891592 -53.733326
-28.595322 4.907697 -53.500755
-28.146479 3.647418 -52.791866
3 16 4 17
3 0 18 20
3 18 5 19
3 18 19 20
3 0 7 5
3 0 9 7
3 1 21 22
3 1 23 25
3 23 10 24
3 23 24 25
3 1 11 10
3 2 12 6
3 2 26 28
3 28 27 12
3 26 27 28
3 2 29 30
3 3 31 33
3 33 32 8
3 31 32 33
3 3 34 36
3 34 13 35
3 34 35 36
3 37 14 38
3 39 15 40
3 42 41 15
3 4 43 44
3 4 45 46
3 5 47 48
3 5 49 51
3 49 1 50
3 49 50 51
3 5 6 1
3 7 6 5
3 7 2 6
3 7 8 2
3 9 8 7
3 9 3 8
3 52 0 53
3 55 54 0
3 10 56 57
3 10 58 59
3 10 60 62
3 60 4 61
3 60 61 62
3 11 4 10
3 11 63 65
3 65 64 4
3 63 64 65
3 6 11 1
3 12 11 6
3 12 66 68
3 68 67 11
3 66 67 68
3 12 69 70
3 72 71 12
3 8 73 75
3 75 74 2
3 73 74 75
3 77 76 8
3 13 78 79
3 13 80 82
3 80 81 82
3 83 9 84
3 85 84 0
3 83 84 85
3 14 86 88
3 86 9 87
3 86 87 88
3 14 3 9
3 89 14 90
3 15 91 93
3 91 14 92
3 91 92 93
3 15 3 14
3 15 13 3
3 94 13 95
3 96 95 15
3 94 95 96
3 99 98 13
3 97 98 99
