ply
format ascii 1.0
element vertex 954
property float x
property float y
property float z
element face 1093
property list uchar int vertex_index
end_header
26.127491 -37.882099 79.369202
7.276403 -39.232185 87.989426
3.590025 -52.441551 72.396652
4.372818 -56.422585 87.118919
58.054901 -6.176364 38.924961
52.091652 -19.008293 56.872948
0.533854 -45.019615 78.97171
0.329411 -39.221603 89.858299
5.003653 -47.254166 90.485321
0.579529 -47.316475 87.757957
2.225525 -55.116833 81.77832
54.099701 -13.066685 47.26701
46.452023 -14.676192 52.602982
32.360081 -32.076004 73.212608
41.651611 -29.761972 69.822632
22.424137 -32.624474 76.771568
16.384811 -38.399025 83.443306
12.976614 -32.602272 81.969574
12.452198 -45.740738 86.873161
10.442049 -55.534264 86.007286
61.456291 -12.492791 42.893238
44.519409 -21.862654 61.553848
48.95303 -26.159466 64.528397
-1.419146 -41.100468 82.19104
-0.048866 -43.291653 89.421875
-1.300272 -42.494034 86.483322
0.05167 -46.411976 83.857628
29.330784 -35.074776 76.705811
34.296852 -34.562057 74.954056
17.581911 -32.681232 79.138184
26.060244 -29.505713 73.664604
4.671547 -51.051052 67.229904
11.681091 -38.806812 85.741203
14.099585 -41.721596 85.72065
9.753593 -42.361477 88.117363
4.714169 -51.800701 89.450264
7.751764 -51.263889 88.876251
7.030369 -56.217968 87.301506
9.264845 -60.715836 84.302635
5.991053 -61.143021 84.790695
3.638142 -60.953739 83.892036
2.628468 -53.844887 77.358864
59.599289 -9.421154 40.547737
52.99865 -16.057346 52.064995
56.680897 -15.455918 49.723038
55.470444 -18.28964 54.196777
53.917336 -21.361418 58.067551
41.92025 -19.441851 59.774475
40.813141 -23.475561 63.753265
42.862103 -32.05809 70.150787
45.60807 -27.928055 67.509773
2.490606 -48.757187 75.711609
3.816372 -47.249786 70.375893
1.753569 -43.363972 73.650269
3.39744 -39.459644 89.596306
5.741959 -43.015503 89.964981
2.365828 -43.419659 90.572456
2.259863 -47.585098 90.074715
2.586542 -51.826485 88.169052
2.746439 -56.038506 85.196663
1.570154 -51.24876 85.108192
1.622076 -50.156853 80.764801
55.759415 -9.772485 42.852219
51.972431 -10.378533 45.560928
50.155891 -13.840148 49.710983
49.081669 -17.02603 54.428528
35.03772 -28.657616 69.518356
39.346733 -27.46789 67.772949
37.178192 -31.211039 71.629646
38.889961 -33.557648 72.852562
24.238029 -35.313622 78.390625
21.236736 -38.101711 81.343246
19.188843 -35.494217 80.270432
14.301031 -35.69104 82.516678
9.697006 -35.835228 85.070488
5.534178 -35.755024 87.510277
30.592945 -29.277893 71.428734
27.389969 -32.467865 74.850685
18.577988 -41.227303 83.261803
16.541794 -45.018311 84.167046
15.212624 -49.535141 84.31353
8.516542 -46.546989 89.201897
11.359909 -50.437668 86.923996
14.264103 -54.563671 83.880196
13.151722 -59.80056 82.909767
62.630909 -15.916327 44.654137
57.951881 -12.546091 45.072647
59.902653 -15.376598 47.275612
45.287613 -18.206722 56.962059
48.347851 -20.268467 59.305489
43.477024 -25.765564 65.956062
47.361847 -23.895676 63.811035
50.885963 -22.311752 61.173759
-1.490644 -41.860363 84.468704
27.735571 -36.480904 78.174606
30.219095 -36.3274 77.250877
28.546789 -37.75705 78.355904
3.665129 -54.251228 70.703911
4.132284 -53.560764 68.198181
4.143803 -51.740288 69.820648
9.429066 -39.028198 86.901794
10.627853 -40.511208 87.070427
8.45997 -40.797413 88.176071
4.578653 -54.115047 88.422096
5.891794 -53.984745 88.542381
5.586824 -56.390335 87.424141
6.561857 -58.695343 86.142029
5.188519 -58.776726 86.071259
4.684124 -61.1287 84.530594
4.062618 -58.705864 85.593002
3.066183 -53.147984 74.922157
2.765162 -55.671124 75.556633
3.190886 -54.958607 73.168961
58.720901 -7.847017 39.558609
52.550934 -17.512667 54.499252
54.377048 -17.123177 53.271843
53.841446 -18.572556 55.564995
54.760918 -19.774834 56.234444
53.223213 -20.098703 57.716934
39.744129 -22.115053 63.067017
39.017708 -24.181576 64.883698
1.570671 -46.89933 77.344696
2.175428 -46.119659 74.687386
1.070763 -44.211399 76.338226
1.743849 -39.41362 89.932739
2.747295 -41.407906 90.255859
1.236917 -41.408066 90.251717
0.174103 -45.315269 88.732544
1.055355 -45.482201 89.85891
1.275251 -47.533016 89.145103
2.408415 -49.704136 89.279755
1.598173 -49.578018 88.123085
1.936117 -51.611496 86.835953
1.076515 -49.293091 86.536133
0.181921 -45.76292 81.499596
0.862574 -48.297455 82.356346
1.119276 -47.634338 79.919403
1.975117 -49.481388 78.295975
47.346199 -12.87257 50.635643
49.100342 -12.521448 49.018333
48.252373 -14.258938 51.092056
49.543869 -15.450846 52.018539
47.615788 -15.938371 53.322868
33.751923 -30.426067 71.354355
36.081745 -29.981159 70.547829
34.799797 -31.715652 72.430641
36.656994 -34.128708 73.964294
23.265629 -34.005203 77.539459
21.700129 -35.402733 79.292023
20.753967 -34.076252 78.515686
15.242311 -32.666195 80.504395
15.858736 -34.192505 80.798576
13.503807 -34.222866 82.106544
11.954687 -35.778481 83.772316
11.231539 -34.213116 83.493111
3.679726 -35.561081 88.466164
32.162319 -27.50206 69.925568
30.091436 -27.692707 71.126503
24.197025 -31.108351 75.130348
26.592993 -31.044586 74.058426
24.898573 -32.562931 75.76368
25.801462 -33.919346 76.65036
4.520149 -46.491245 67.695763
18.799332 -38.235703 82.367119
19.846668 -39.597401 82.440338
17.497845 -39.772419 83.559982
13.193846 -43.63736 86.440025
15.3242 -43.312752 85.136169
14.490082 -45.363171 85.536087
15.799628 -47.194614 84.320045
13.818329 -47.596634 85.703918
5.288498 -45.082809 90.423615
7.106737 -44.747978 89.776505
6.686399 -46.929428 90.020737
9.10129 -53.379128 87.542236
9.506516 -50.87191 88.027176
10.909624 -52.957596 86.57605
12.796728 -52.492332 85.422707
12.322805 -55.072727 85.005058
13.758503 -57.172909 83.461975
11.78944 -57.688183 84.420349
8.515215 -63.2742 83.212242
10.396929 -62.910137 82.798866
2.353502 -55.635353 83.64534
2.635567 -58.113197 83.42981
2.33609 -57.620319 81.819916
63.539688 -14.477184 42.630035
62.166283 -14.131823 43.90028
54.846786 -11.463203 44.998749
56.801228 -11.191536 43.864285
56.055603 -12.76075 46.153305
57.680912 -16.751846 50.702782
58.355545 -15.342672 48.518326
43.091221 -20.738636 60.481239
43.539734 -18.828226 58.329704
44.895638 -20.005196 59.2565
46.777252 -19.287033 58.061226
46.427422 -21.04141 60.445419
40.56205 -28.636909 68.894775
41.437443 -26.664696 66.890205
42.680538 -27.770208 67.975349
47.359352 -27.003759 66.104446
46.603264 -25.875124 65.781273
48.383499 -24.969212 64.462479
49.177891 -23.042046 62.557503
50.029877 -24.170927 62.988708
51.535759 -23.528503 61.374893
50.39238 -25.451563 62.801819
-0.501385 -43.094978 80.592255
-0.067806 -42.261711 78.019882
-0.013865 -41.255096 89.799248
-0.978958 -40.934246 88.885498
-0.823709 -42.976532 88.15696
-0.410807 -44.978931 87.173195
0.175877 -46.937836 85.97049
-0.70409 -44.482162 85.244743
-0.724707 -43.845081 83.024658
45.729675 -13.199556 52.406624
30.880041 -33.618069 75.024422
33.380081 -33.340652 74.224907
31.843622 -34.868843 75.855972
32.647766 -36.100311 76.264832
21.818264 -31.135448 76.315659
19.980629 -32.664013 77.892929
19.47057 -31.129374 77.623329
17.168598 -31.082672 79.05217
14.927119 -30.980171 80.585243
27.984627 -27.799648 72.412979
23.783106 -29.533615 74.936302
14.006601 -38.591888 84.574165
15.168248 -39.985161 84.71608
12.872063 -40.234451 85.897636
11.899948 -42.028015 86.949196
11.095837 -43.996239 87.695511
4.833925 -49.503807 90.152245
6.383398 -49.21973 89.881256
6.139299 -51.583813 89.376663
7.413837 -53.730824 88.22715
8.663336 -55.924534 86.802925
9.904606 -58.129772 85.24147
8.147577 -58.473289 85.843124
7.530258 -61.000919 84.696861
6.811342 -63.492798 83.39415
5.323408 -63.549908 83.283798
4.082895 -63.437992 82.841583
2.331444 -54.510254 79.662094
2.285547 -57.029243 79.932434
2.444996 -56.36977 77.82666
60.560486 -10.94645 41.722549
53.49696 -14.589584 49.635704
55.43055 -14.257945 48.510719
54.887794 -15.700594 50.900375
56.093178 -16.864801 52.007507
56.965302 -18.170078 52.777367
41.376003 -21.453135 61.748253
42.645302 -22.689035 62.649742
42.455017 -30.89217 70.299713
43.702564 -28.868473 68.744095
44.3592 -30.006144 68.971375
46.086784 -29.100861 67.462128
3.188578 -50.605412 74.064911
3.800932 -49.883743 71.439941
3.121357 -48.007835 73.058914
2.888775 -45.316986 71.990646
0.540657 -41.373436 75.368134
5.254108 -39.387711 88.918884
6.399061 -41.065872 89.135803
4.48147 -41.281998 89.858994
3.953123 -43.268112 90.465103
3.645273 -45.340858 90.690918
1.020853 -43.435642 90.231918
2.221357 -45.48436 90.513428
3.513821 -47.484035 90.518761
3.495922 -49.674194 89.960327
3.518936 -51.887482 89.050156
3.51236 -54.103119 87.835838
3.420059 -56.304947 86.37001
2.71875 -53.940693 86.791451
2.208426 -53.631165 85.329315
1.974806 -53.189056 83.511833
0.838026 -48.859406 84.587646
1.474682 -50.755539 83.058968
1.995312 -52.637508 81.410866
2.234669 -52.004501 79.096642
2.648886 -51.31868 76.631004
56.275215 -6.338317 40.431076
56.8368 -8.003616 40.8311
54.982666 -8.234541 42.218739
53.843445 -10.059367 44.142609
52.887493 -11.794628 46.218178
50.959599 -12.155943 47.550617
52.119576 -13.435398 48.443672
51.520168 -14.99485 50.796753
51.048492 -16.505758 53.234619
50.647209 -18.016405 55.697998
38.185856 -26.19779 66.743217
37.211697 -28.137871 68.638275
38.35725 -29.383043 69.739868
39.470097 -30.554964 70.77285
35.817806 -32.937569 73.38868
38.162308 -32.390827 72.479324
40.383335 -31.701414 71.460632
40.965683 -32.857643 71.588837
25.225338 -36.592873 79.072311
23.684353 -37.989143 80.353493
22.710352 -36.691383 79.979279
20.20734 -36.796509 80.927254
17.730053 -36.918934 81.940712
18.280376 -34.139774 79.599052
16.717743 -35.592041 81.344025
15.291819 -37.060387 83.031967
12.907627 -37.214493 84.195648
10.595459 -37.367325 85.403702
8.376982 -37.497765 86.603043
9.059195 -34.140961 84.903252
7.548897 -35.836792 86.345467
6.277842 -37.5783 87.717285
4.32757 -37.577309 88.653954
2.558781 -37.46294 89.316086
1.005121 -37.208076 89.616859
32.829716 -29.030914 70.44104
31.383955 -30.732498 72.191109
28.333731 -29.426964 72.498772
28.99301 -30.928173 73.084961
29.883087 -32.316006 74.009247
28.345932 -33.799858 75.822029
26.787699 -35.212494 77.539215
4.430498 -49.164783 68.791939
5.019835 -48.451725 66.155403
22.20269 -39.45433 81.348763
20.82863 -41.038826 82.061974
19.611927 -42.782639 82.527641
16.330885 -41.453667 84.482712
17.46814 -43.028221 83.82621
18.590538 -44.708443 82.796608
17.777386 -46.818535 82.919624
17.151989 -49.096298 82.934303
16.660904 -51.511456 82.859077
7.689091 -42.700844 89.152
9.055773 -44.37468 88.836082
10.45097 -46.141518 88.121628
8.099384 -48.855499 89.210632
9.936916 -48.445061 88.227898
11.854837 -48.018055 87.029381
13.272943 -49.986053 85.660378
14.724787 -52.004917 84.164536
11.153269 -60.307838 83.681168
3.208527 -58.481487 84.703552
2.869457 -60.624641 82.881027
63.831947 -16.416346 43.272331
57.689075 -9.549517 41.664001
58.716454 -11.010079 42.783169
59.759571 -12.449501 43.995167
57.285141 -14.024773 47.396637
59.034897 -13.913984 46.269814
60.664215 -13.945383 45.109741
61.324604 -15.567338 45.988464
44.791931 -15.082764 54.250481
44.080311 -16.949892 56.237984
45.782036 -16.442179 54.726326
47.146378 -17.599289 55.665581
48.707756 -18.615271 56.880348
50.248459 -19.580956 58.118263
40.155163 -25.489367 65.768387
42.116871 -24.67169 64.797333
44.071686 -23.786776 63.802208
44.698505 -26.829813 66.946785
45.456108 -24.822803 64.938393
46.012554 -22.8862 62.756065
47.923576 -22.023354 61.635956
49.781013 -21.246687 60.425781
51.556637 -20.595551 59.118431
52.469315 -21.743126 59.669441
25.340319 -38.606459 79.81601
26.504557 -38.545019 79.260159
26.504557 -38.545019 79.260159
27.714206 -38.482495 78.75351
27.33714 -37.819575 78.862553
58.387901 -7.011691 39.241785
59.299049 -6.976088 38.550995
58.966049 -6.140761 38.234171
38.130466 -24.47934 65.470669
38.595789 -23.438856 64.663449
58.711363 -5.246617 38.019369
58.517736 -4.356735 37.932926
57.861275 -5.286482 38.838518
58.966049 -6.140761 38.234171
58.711363 -5.246617 38.019369
30.007035 -26.83471 71.249099
30.95763 -26.761427 70.534649
9.02238 -64.377701 82.496494
8.093284 -64.534256 82.598858
62.240848 -12.59142 42.318327
61.880134 -11.757646 41.772108
61.811287 -13.312307 43.396759
62.595844 -13.410936 42.821848
62.240848 -12.59142 42.318327
58.409136 -16.773264 50.030873
58.004888 -17.48542 51.012031
-1.268193 -40.672058 80.959381
-0.809312 -41.669314 80.159988
-0.960265 -42.097723 81.391648
-1.325982 -39.639706 88.619427
-0.897425 -39.900416 89.109401
-1.061991 -42.735283 87.320141
-1.234897 -41.710586 87.844814
-1.473179 -41.469337 87.007995
45.61107 -12.355526 52.583729
46.322136 -12.237524 51.569233
31.782228 -36.842599 76.770901
31.433431 -36.213855 76.757855
30.567893 -36.956144 77.263924
32.926815 -36.717819 76.180745
31.782228 -36.842599 76.770901
20.493075 -30.323842 76.971428
20.644417 -31.132411 76.969494
21.666922 -30.32688 76.317593
17.119657 -30.207327 79.226715
18.220717 -30.269115 78.432346
15.998918 -30.156076 79.993251
16.047859 -31.031422 79.818707
17.119657 -30.207327 79.226715
22.649344 -29.525963 75.627915
23.736595 -28.684505 75.096844
21.666922 -30.32688 76.317593
22.800685 -30.334532 75.62598
22.649344 -29.525963 75.627915
4.606244 -51.971498 66.458763
4.336613 -53.226354 66.942902
4.401916 -52.305908 67.714043
4.895492 -50.712393 65.945423
4.606244 -51.971498 66.458763
3.374756 -62.056732 82.973564
3.597132 -63.298859 82.448338
3.860518 -62.195865 83.36681
2.548665 -56.937862 75.736748
2.705299 -56.569744 74.626781
60.527176 -9.417688 40.009432
60.101082 -8.607924 39.461573
60.079887 -10.183802 41.135143
61.007774 -10.180336 40.596838
60.527176 -9.417688 40.009432
55.816496 -18.961709 54.444801
56.563925 -18.901928 53.735096
56.217873 -18.229859 53.487072
54.574101 -21.270232 57.235032
54.995891 -20.47694 56.318478
54.339127 -20.568126 57.150998
54.02731 -22.097383 57.96806
54.574101 -21.270232 57.235032
46.087874 -29.730866 67.096436
45.327831 -30.153496 67.995583
46.86264 -28.670374 66.619027
46.087874 -29.730866 67.096436
2.146656 -42.93022 72.298813
2.714258 -43.906727 71.469001
2.321172 -44.340479 72.820458
-0.039 -40.346227 76.258126
0.236426 -41.817573 76.694008
-0.343232 -40.790365 77.584
54.771524 -7.396578 42.147395
55.62894 -7.286429 41.324907
55.417799 -6.448466 41.253563
52.907938 -10.21895 44.851768
53.514206 -9.283482 43.942619
52.578699 -9.443064 44.651779
36.124708 -28.397744 69.078316
36.707295 -27.454452 68.192932
35.620306 -27.714324 68.632972
55.417799 -6.448466 41.253563
56.15604 -5.44743 40.479157
8.893322 -33.191561 84.947227
9.92952 -33.304816 84.195774
6.541538 -35.795908 86.927872
7.277315 -34.908968 86.301861
6.269956 -34.868084 86.884266
2.286797 -36.346285 89.216106
3.119254 -36.512011 88.891125
2.847269 -35.395356 88.791145
1.509966 -36.218853 89.366493
1.781951 -37.335508 89.466473
2.286797 -36.346285 89.216106
5.096199 -47.092268 65.60352
4.769992 -47.471485 66.925583
4.846357 -46.112028 66.3737
5.265496 -48.096522 64.861232
5.096199 -47.092268 65.60352
15.245865 -54.295454 83.287445
15.476207 -53.016077 83.429615
14.494445 -53.284294 84.022366
15.016737 -55.585325 83.155456
15.245865 -54.295454 83.287445
14.183597 -59.50959 82.48135
14.486987 -58.195764 82.757454
13.455112 -58.486734 83.185871
13.836763 -60.818462 82.229035
14.183597 -59.50959 82.48135
11.405552 -62.666311 82.511173
10.971566 -63.965841 82.100292
2.624066 -60.391413 82.204903
2.752512 -59.368919 83.155418
2.507121 -59.13569 82.479294
2.643222 -61.676527 81.909466
2.624066 -60.391413 82.204903
2.217431 -58.304268 79.907295
2.217234 -57.973511 78.96333
62.746493 -16.891627 44.903137
63.347012 -17.141636 44.212235
63.231428 -16.166336 43.963234
44.04454 -15.278708 55.140488
44.533123 -14.291963 54.286934
42.226666 -18.446077 58.816303
41.531402 -18.687061 59.676304
52.218645 -23.302283 60.513996
51.612088 -24.22659 61.169048
-1.694678 -39.618185 81.814304
-1.768601 -40.060213 82.962936
-1.659914 -41.1465 86.137859
-1.473179 -41.469337 87.007995
-1.7551 -40.829664 85.13055
-1.395458 -42.177199 85.476013
-1.659914 -41.1465 86.137859
-1.80435 -40.440161 84.101768
-1.7551 -40.829664 85.13055
-1.768601 -40.060213 82.962936
-1.454895 -41.480415 83.329872
-1.80435 -40.440161 84.101768
29.73174 -37.670969 77.816437
30.567893 -36.956144 77.263924
29.382942 -37.042225 77.803391
28.8564 -38.40905 78.166969
29.73174 -37.670969 77.816437
28.8564 -38.40905 78.166969
27.714206 -38.482495 78.75351
3.898707 -53.905996 69.451046
3.783995 -54.788172 68.594448
3.550417 -55.133404 69.847313
2.918162 -56.213486 73.432945
2.705299 -56.569744 74.626781
2.978024 -55.314865 74.362797
3.111353 -55.845711 72.272392
2.918162 -56.213486 73.432945
3.348475 -55.492021 71.039867
3.111353 -55.845711 72.272392
3.428007 -54.604917 71.936436
3.550417 -55.133404 69.847313
3.348475 -55.492021 71.039867
59.661888 -7.820856 38.967008
59.299049 -6.976088 38.550995
59.160095 -8.634085 40.053173
60.101082 -8.607924 39.461573
59.661888 -7.820856 38.967008
38.959 -22.405594 63.755108
39.38944 -21.335257 62.977989
39.380918 -23.148314 63.975358
38.959 -22.405594 63.755108
38.595789 -23.438856 64.663449
43.715491 -31.63211 69.339912
42.846455 -32.663521 69.731315
51.718959 -9.585064 45.488954
52.578699 -9.443064 44.651779
48.22327 -12.697009 49.826988
48.791118 -11.762919 48.934146
47.914047 -11.938481 49.742801
35.822586 -34.949345 74.572605
35.476923 -34.345382 74.459175
34.642515 -35.166019 75.067486
36.930933 -34.722505 73.965278
35.822586 -34.949345 74.572605
38.047416 -34.436976 73.409413
37.773477 -33.843178 73.408428
36.930933 -34.722505 73.965278
39.077557 -34.146271 72.722996
38.047416 -34.436976 73.409413
5.313302 -34.731358 87.486427
6.269956 -34.868084 86.884266
4.386076 -34.634386 87.964371
4.606952 -35.658052 87.988221
5.313302 -34.731358 87.486427
3.51153 -34.429112 88.440949
4.386076 -34.634386 87.964371
2.847269 -35.395356 88.791145
3.51153 -34.429112 88.440949
31.993071 -26.666103 69.934181
32.915126 -26.547916 69.253579
31.126877 -27.597383 70.526036
31.993071 -26.666103 69.934181
30.95763 -26.761427 70.534649
4.090601 -45.498243 68.492416
4.16826 -46.870515 69.035828
3.738713 -45.877513 69.832482
4.477992 -45.090696 67.154602
4.090601 -45.498243 68.492416
4.846357 -46.112028 66.3737
4.477992 -45.090696 67.154602
9.963237 -64.195669 82.289806
9.456072 -63.092168 83.005554
9.02238 -64.377701 82.496494
10.971566 -63.965841 82.100292
9.963237 -64.195669 82.289806
2.357382 -58.889252 81.674347
2.507121 -59.13569 82.479294
2.485829 -57.866758 82.624863
63.282547 -13.583616 42.186726
63.996856 -13.761306 41.578888
62.852986 -14.304503 43.265158
63.282547 -13.583616 42.186726
62.595844 -13.410936 42.821848
58.746453 -16.068677 48.938645
58.018228 -16.047259 49.610554
58.409136 -16.773264 50.030873
59.520007 -16.08564 48.317288
59.129099 -15.359635 47.896969
58.746453 -16.068677 48.938645
60.187891 -16.18725 47.628376
59.520007 -16.08564 48.317288
51.040398 -25.18812 61.882511
51.612088 -24.22659 61.169048
50.96407 -24.490033 62.088356
-0.592523 -41.25268 78.873802
-0.284596 -42.678344 79.306068
-0.809312 -41.669314 80.159988
-0.343232 -40.790365 77.584
-0.592523 -41.25268 78.873802
-1.268193 -40.672058 80.959381
-1.694678 -39.618185 81.814304
-0.414878 -40.06084 89.566277
0.157773 -40.238349 89.828774
-0.24324 -39.044094 89.595802
-0.496412 -41.094671 89.342373
-0.414878 -40.06084 89.566277
-0.897425 -39.900416 89.109401
-1.312522 -40.689443 88.209083
-1.325982 -39.639706 88.619427
-0.901334 -41.955389 88.521229
-1.312522 -40.689443 88.209083
-1.234897 -41.710586 87.844814
47.130398 -12.074032 50.683743
47.914047 -11.938481 49.742801
46.537937 -13.036063 51.521134
47.130398 -12.074032 50.683743
46.322136 -12.237524 51.569233
33.817972 -35.935146 75.722874
34.642515 -35.166019 75.067486
33.472309 -35.331184 75.609444
33.817972 -35.935146 75.722874
32.926815 -36.717819 76.180745
19.371703 -30.292465 77.717926
20.493075 -30.323842 76.971428
18.319584 -31.106023 78.33775
19.371703 -30.292465 77.717926
18.220717 -30.269115 78.432346
27.972727 -26.926077 72.639897
28.95363 -26.888181 71.892337
26.915909 -27.821642 73.101204
27.972727 -26.926077 72.639897
25.953717 -28.674675 73.727016
27.022436 -28.652681 73.038792
26.915909 -27.821642 73.101204
24.815148 -28.688626 74.362865
23.736595 -28.684505 75.096844
24.921675 -29.519664 74.300453
25.953717 -28.674675 73.727016
24.815148 -28.688626 74.362865
3.969461 -54.444367 67.387402
3.783995 -54.788172 68.594448
3.969461 -54.444367 67.387402
4.336613 -53.226354 66.942902
7.241347 -64.643555 82.689812
8.093284 -64.534256 82.598858
7.663278 -63.383499 83.303196
6.411225 -64.71709 82.675503
7.241347 -64.643555 82.689812
5.667258 -64.745645 82.620327
6.411225 -64.71709 82.675503
6.067375 -63.521353 83.338974
4.952916 -64.730322 82.465855
5.667258 -64.745645 82.620327
4.33266 -64.674364 82.244747
4.952916 -64.730322 82.465855
4.703151 -63.49395 83.062691
3.746822 -64.569304 81.937255
4.33266 -64.674364 82.244747
3.746822 -64.569304 81.937255
3.597132 -63.298859 82.448338
2.296959 -57.643774 77.910443
2.217234 -57.973511 78.96333
2.365272 -56.699506 78.879547
2.388581 -57.287185 76.871761
2.605079 -56.020447 76.691647
2.548665 -56.937862 75.736748
2.296959 -57.643774 77.910443
2.388581 -57.287185 76.871761
61.432232 -10.984475 41.186763
61.007774 -10.180336 40.596838
61.008388 -11.719621 42.307893
61.880134 -11.757646 41.772108
61.432232 -10.984475 41.186763
57.647084 -18.194536 52.049324
58.004888 -17.48542 51.012031
57.323107 -17.460962 51.740074
57.201178 -18.92339 52.948967
57.647084 -18.194536 52.049324
57.201178 -18.92339 52.948967
56.563925 -18.901928 53.735096
55.461733 -19.704306 55.463634
55.816496 -18.961709 54.444801
55.115681 -19.032237 55.21561
55.461733 -19.704306 55.463634
54.995891 -20.47694 56.318478
41.173268 -19.73325 60.535351
41.531402 -18.687061 59.676304
40.085207 -21.069851 62.181622
39.38944 -21.335257 62.977989
40.901144 -20.738892 61.52224
40.085207 -21.069851 62.181622
40.560066 -21.784094 62.407635
41.648127 -20.447493 60.761364
41.173268 -19.73325 60.535351
40.901144 -20.738892 61.52224
44.464039 -30.606137 68.750206
43.610652 -31.032117 69.561081
43.715491 -31.63211 69.339912
45.222992 -29.553503 68.216752
44.464039 -30.606137 68.750206
45.327831 -30.153496 67.995583
47.498924 -27.621823 65.940185
46.723068 -28.05231 66.783287
46.86264 -28.670374 66.619027
48.295763 -27.199676 65.152161
48.156191 -26.581612 65.316421
47.498924 -27.621823 65.940185
48.989195 -26.822398 64.232429
48.295763 -27.199676 65.152161
3.274914 -44.911113 70.639858
3.738713 -45.877513 69.832482
3.352574 -46.283386 71.183269
3.274914 -44.911113 70.639858
2.714258 -43.906727 71.469001
0.291935 -39.862617 74.938862
-0.039 -40.346227 76.258126
0.914019 -40.913285 74.026382
0.291935 -39.862617 74.938862
1.520474 -41.908552 73.16745
1.147113 -42.368704 74.509201
0.914019 -40.913285 74.026382
2.146656 -42.93022 72.298813
1.520474 -41.908552 73.16745
54.083816 -8.371068 42.980684
54.771524 -7.396578 42.147395
54.413055 -9.146954 43.180674
54.083816 -8.371068 42.980684
53.514206 -9.283482 43.942619
51.074206 -10.539782 46.343689
51.718959 -9.585064 45.488954
49.638161 -11.611239 48.072391
48.791118 -11.762919 48.934146
50.56779 -11.428486 47.338533
49.638161 -11.611239 48.072391
50.02997 -12.338696 48.284475
51.466015 -11.267238 46.555773
51.074206 -10.539782 46.343689
50.56779 -11.428486 47.338533
37.194374 -26.484411 67.245403
37.71454 -25.487447 66.400429
37.698777 -27.167831 67.690746
37.194374 -26.484411 67.245403
36.707295 -27.454452 68.192932
40.115417 -33.796268 72.091133
39.927822 -33.207645 72.220699
39.077557 -34.146271 72.722996
41.055076 -33.44928 71.316399
40.115417 -33.796268 72.091133
42.003287 -33.049503 70.597374
41.913893 -32.457867 70.869812
41.055076 -33.44928 71.316399
42.846455 -32.663521 69.731315
42.003287 -33.049503 70.597374
56.971432 -5.367459 39.591575
56.852256 -4.476572 39.639656
56.15604 -5.44743 40.479157
57.165058 -6.25734 39.678019
57.861275 -5.286482 38.838518
56.971432 -5.367459 39.591575
14.925847 -30.054329 80.819931
15.998918 -30.156076 79.993251
13.843773 -30.891084 81.385154
14.925847 -30.054329 80.819931
12.86852 -31.702135 82.07732
13.951866 -31.791221 81.277409
13.843773 -30.891084 81.385154
11.888229 -32.535471 82.728936
12.86852 -31.702135 82.07732
11.015692 -33.340893 83.490704
12.104076 -33.407694 82.731342
11.888229 -32.535471 82.728936
10.145367 -34.177038 84.198182
11.015692 -33.340893 83.490704
9.92952 -33.304816 84.195774
8.032464 -34.061053 85.580754
8.893322 -33.191561 84.947227
8.304046 -34.988877 85.624359
8.032464 -34.061053 85.580754
7.277315 -34.908968 86.301861
0.787094 -35.975689 89.498233
1.509966 -36.218853 89.366493
0.351429 -37.00159 89.555038
0.787094 -35.975689 89.498233
0.013574 -38.008354 89.675758
0.667266 -38.214839 89.737579
0.351429 -37.00159 89.555038
-0.24324 -39.044094 89.595802
0.013574 -38.008354 89.675758
34.617729 -27.92993 69.160663
35.620306 -27.714324 68.632972
33.180029 -27.352152 69.36427
32.915126 -26.547916 69.253579
33.513728 -28.116579 69.622006
33.180029 -27.352152 69.36427
32.496017 -28.266487 70.183304
33.933718 -28.844265 69.979698
34.617729 -27.92993 69.160663
33.513728 -28.116579 69.622006
29.038032 -27.746178 71.769741
30.007035 -26.83471 71.249099
28.95363 -26.888181 71.892337
5.069636 -49.412729 65.408173
4.895492 -50.712393 65.945423
4.845691 -49.751389 66.692654
5.315297 -49.057526 64.114002
5.069636 -49.412729 65.408173
5.265496 -48.096522 64.861232
24.118749 -38.659981 80.308155
25.340319 -38.606459 79.81601
24.905922 -37.935621 79.861347
23.377918 -39.392574 80.80579
24.118749 -38.659981 80.308155
22.943522 -38.721736 80.851128
22.637011 -40.166614 81.109112
23.377918 -39.392574 80.80579
21.949981 -40.958862 81.465718
22.637011 -40.166614 81.109112
21.51566 -40.246578 81.705369
21.286391 -41.804264 81.649418
21.949981 -40.958862 81.465718
20.67804 -42.67617 81.882251
21.286391 -41.804264 81.649418
20.220278 -41.910733 82.294808
20.117626 -43.606644 81.979435
20.67804 -42.67617 81.882251
19.606932 -44.569546 82.113919
20.117626 -43.606644 81.979435
19.101233 -43.745541 82.662125
19.162819 -45.589009 82.157299
19.606932 -44.569546 82.113919
18.756243 -46.644054 82.218807
19.162819 -45.589009 82.157299
18.183962 -45.763489 82.858116
18.423335 -47.74699 82.232353
18.756243 -46.644054 82.218807
18.110636 -48.885872 82.239692
18.423335 -47.74699 82.232353
17.464688 -47.957416 82.926963
17.864459 -50.059652 82.23415
18.110636 -48.885872 82.239692
17.618916 -51.267231 82.196537
17.864459 -50.059652 82.23415
16.906447 -50.303877 82.89669
17.41976 -52.495461 82.169715
17.618916 -51.267231 82.196537
16.444266 -52.769346 82.776886
15.692845 -51.758187 83.511807
15.476207 -53.016077 83.429615
17.41976 -52.495461 82.169715
16.444266 -52.769346 82.776886
14.763937 -56.889944 82.946346
15.016737 -55.585325 83.155456
14.011303 -55.86829 83.671086
14.763937 -56.889944 82.946346
14.486987 -58.195764 82.757454
11.783722 -61.365161 82.952324
10.775099 -61.608987 83.240017
11.405552 -62.666311 82.511173
12.782948 -61.111522 82.566623
12.152496 -60.054199 83.295468
11.783722 -61.365161 82.952324
13.836763 -60.818462 82.229035
12.782948 -61.111522 82.566623
2.990413 -61.892183 82.46806
3.374756 -62.056732 82.973564
3.2538 -60.78919 83.386532
2.990413 -61.892183 82.46806
2.643222 -61.676527 81.909466
2.242703 -58.599806 80.851036
2.310818 -57.324781 80.876175
2.217431 -58.304268 79.907295
2.357382 -58.889252 81.674347
2.242703 -58.599806 80.851036
64.161762 -14.726137 41.961128
63.996856 -13.761306 41.578888
64.307891 -15.695718 42.282276
64.161762 -14.726137 41.961128
63.685817 -15.446765 42.951183
64.381633 -16.733996 42.557891
64.857578 -16.013368 41.567836
64.307891 -15.695718 42.282276
63.890144 -17.461011 43.492012
64.381633 -16.733996 42.557891
63.890144 -17.461011 43.492012
63.347012 -17.141636 44.212235
60.898866 -16.28262 46.984802
60.613629 -15.471968 46.632038
60.187891 -16.18725 47.628376
61.516233 -16.463024 46.282536
60.898866 -16.28262 46.984802
62.169386 -16.637519 45.615372
61.977756 -15.741833 45.3213
61.516233 -16.463024 46.282536
62.746493 -16.891627 44.903137
62.169386 -16.637519 45.615372
45.001995 -13.350359 53.365005
45.61107 -12.355526 52.583729
45.260803 -14.14116 53.328553
45.001995 -13.350359 53.365005
44.533123 -14.291963 54.286934
43.036408 -18.139264 58.093918
42.226666 -18.446077 58.816303
42.729992 -19.135039 59.05209
43.306696 -17.200097 57.048057
43.036408 -18.139264 58.093918
43.810023 -17.889059 57.283844
43.688731 -16.212272 56.134239
43.306696 -17.200097 57.048057
44.436121 -16.016328 55.244232
44.04454 -15.278708 55.140488
43.688731 -16.212272 56.134239
38.601782 -25.189683 65.813457
38.130466 -24.47934 65.470669
37.71454 -25.487447 66.400429
52.685423 -22.409595 59.66127
52.002537 -22.635815 60.522167
52.218645 -23.302283 60.513996
53.409433 -22.218741 58.860325
53.193326 -21.552272 58.868496
52.685423 -22.409595 59.66127
54.02731 -22.097383 57.96806
53.409433 -22.218741 58.860325
49.70887 -26.468446 63.369141
49.672705 -25.805515 63.665108
48.989195 -26.822398 64.232429
50.329758 -26.171211 62.394326
49.70887 -26.468446 63.369141
51.040398 -25.18812 61.882511
50.329758 -26.171211 62.394326
3 0 373 374
3 0 96 94
3 0 375 377
3 377 376 96
3 375 376 377
3 2 99 97
3 1 102 100
3 3 105 103
3 3 107 105
3 3 109 107
3 2 112 110
3 2 97 112
3 4 378 380
3 378 113 379
3 378 379 380
3 5 116 114
3 5 118 116
3 381 120 382
3 4 383 385
3 383 384 385
3 4 386 387
3 6 123 121
3 7 126 124
3 9 129 127
3 9 131 129
3 9 133 131
3 6 136 134
3 6 121 136
3 12 140 138
3 12 142 140
3 13 145 143
3 15 149 147
3 17 152 150
3 17 154 152
3 388 157 389
3 15 160 158
3 15 147 160
3 16 165 163
3 18 168 166
3 18 170 168
3 8 173 171
3 19 176 174
3 19 178 176
3 19 180 178
3 391 390 181
3 10 185 183
3 20 392 393
3 20 394 396
3 394 187 395
3 394 395 396
3 11 190 188
3 398 397 191
3 21 195 193
3 21 197 195
3 14 200 198
3 22 203 201
3 22 205 203
3 22 207 205
3 23 399 401
3 401 400 208
3 399 400 401
3 402 211 403
3 25 404 406
3 404 212 405
3 404 405 406
3 25 213 212
3 25 215 213
3 23 216 93
3 23 208 216
3 407 217 408
3 27 220 218
3 409 221 410
3 411 410 95
3 409 410 411
3 413 412 221
3 414 224 415
3 416 415 222
3 414 415 416
3 417 225 418
3 419 226 420
3 421 420 225
3 419 420 421
3 422 228 423
3 424 222 425
3 426 425 228
3 424 425 426
3 31 427 429
3 429 428 98
3 427 428 429
3 31 430 431
3 32 231 229
3 34 232 101
3 34 233 232
3 35 236 234
3 37 237 104
3 37 238 237
3 37 240 238
3 39 241 106
3 39 242 241
3 39 243 242
3 40 244 108
3 40 432 434
3 434 433 244
3 432 433 434
3 41 247 245
3 436 435 111
3 42 437 438
3 42 439 441
3 439 248 440
3 439 440 441
3 43 251 249
3 45 252 115
3 45 253 252
3 45 442 444
3 444 443 253
3 442 443 444
3 46 445 447
3 447 446 117
3 445 446 447
3 46 448 449
3 48 254 119
3 48 255 254
3 49 258 256
3 450 259 451
3 453 452 259
3 51 262 260
3 53 263 122
3 53 454 456
3 456 455 263
3 454 455 456
3 457 264 458
3 459 458 209
3 457 458 459
3 54 267 265
3 56 268 125
3 56 269 268
3 24 270 210
3 57 271 128
3 57 272 271
3 57 273 272
3 58 274 130
3 58 275 274
3 58 277 275
3 60 278 132
3 60 279 278
3 26 280 214
3 61 281 135
3 61 282 281
3 61 283 282
3 51 284 137
3 51 260 284
3 460 287 461
3 462 461 285
3 460 461 462
3 63 463 465
3 463 288 464
3 463 464 465
3 63 289 288
3 64 290 139
3 64 291 290
3 64 292 291
3 65 293 141
3 65 294 293
3 66 466 468
3 466 296 467
3 466 467 468
3 68 297 144
3 68 298 297
3 28 299 219
3 69 300 146
3 69 301 300
3 69 302 301
3 469 285 470
3 70 305 303
3 72 306 148
3 72 307 306
3 29 308 223
3 73 309 151
3 73 310 309
3 73 311 310
3 74 312 153
3 74 313 312
3 471 314 472
3 75 473 475
3 473 315 474
3 473 474 475
3 75 316 315
3 75 317 316
3 476 318 477
3 478 477 155
3 476 477 478
3 479 319 480
3 481 480 318
3 479 480 481
3 76 320 156
3 76 321 320
3 30 322 227
3 77 323 159
3 77 324 323
3 77 325 324
3 70 326 161
3 70 303 326
3 52 327 261
3 482 328 483
3 484 483 162
3 482 483 484
3 486 485 328
3 71 329 304
3 78 330 164
3 78 331 330
3 33 332 230
3 79 333 167
3 79 334 333
3 79 335 334
3 80 336 169
3 80 337 336
3 55 338 266
3 81 339 172
3 81 340 339
3 36 341 235
3 82 342 175
3 82 343 342
3 82 344 343
3 83 345 177
3 83 487 489
3 489 488 345
3 487 488 489
3 83 490 491
3 84 492 494
3 494 493 179
3 492 493 494
3 84 495 496
3 38 346 239
3 498 497 182
3 59 347 276
3 499 348 500
3 501 500 184
3 499 500 501
3 503 502 348
3 505 504 246
3 85 349 186
3 85 506 508
3 508 507 349
3 506 507 508
3 62 350 286
3 86 351 189
3 86 352 351
3 44 353 250
3 87 354 192
3 87 355 354
3 87 356 355
3 509 357 510
3 47 511 512
3 88 358 194
3 88 359 358
3 88 360 359
3 89 361 196
3 89 362 361
3 67 363 295
3 90 364 199
3 90 365 364
3 50 366 257
3 91 367 202
3 91 368 367
3 91 369 368
3 92 370 204
3 92 371 370
3 92 372 371
3 514 513 206
3 516 515 23
3 517 25 518
3 519 93 520
3 521 520 25
3 519 520 521
3 522 93 523
3 524 23 525
3 526 525 93
3 524 525 526
3 94 95 27
3 96 95 94
3 96 527 529
3 529 528 95
3 527 528 529
3 96 530 531
3 533 532 96
3 97 534 536
3 534 98 535
3 534 535 536
3 99 98 97
3 99 31 98
3 100 101 32
3 102 101 100
3 102 34 101
3 103 104 35
3 105 104 103
3 105 37 104
3 105 106 37
3 107 106 105
3 107 39 106
3 107 108 39
3 109 108 107
3 109 40 108
3 110 111 41
3 112 111 110
3 112 537 539
3 539 538 111
3 537 538 539
3 112 540 541
3 97 542 544
3 544 543 112
3 542 543 544
3 97 545 546
3 113 547 548
3 113 549 551
3 549 42 550
3 549 550 551
3 114 115 43
3 116 115 114
3 116 45 115
3 116 117 45
3 118 117 116
3 118 46 117
3 552 119 553
3 120 554 556
3 554 119 555
3 554 555 556
3 120 48 119
3 558 557 49
3 121 122 51
3 123 122 121
3 123 53 122
3 124 125 54
3 126 125 124
3 126 56 125
3 127 128 24
3 129 128 127
3 129 57 128
3 129 130 57
3 131 130 129
3 131 58 130
3 131 132 58
3 133 132 131
3 133 60 132
3 134 135 26
3 136 135 134
3 136 61 135
3 136 137 61
3 121 137 136
3 121 51 137
3 559 63 560
3 138 561 563
3 561 139 562
3 561 562 563
3 140 139 138
3 140 64 139
3 140 141 64
3 142 141 140
3 142 65 141
3 143 144 66
3 145 144 143
3 145 68 144
3 564 146 565
3 566 565 28
3 564 565 566
3 567 146 568
3 569 69 570
3 571 570 146
3 569 570 571
3 573 572 69
3 147 148 70
3 149 148 147
3 149 72 148
3 150 151 29
3 152 151 150
3 152 73 151
3 152 153 73
3 154 153 152
3 154 74 153
3 574 75 575
3 576 155 577
3 578 577 75
3 576 577 578
3 579 155 580
3 582 581 155
3 583 156 584
3 157 585 587
3 585 156 586
3 585 586 587
3 157 76 156
3 158 159 30
3 160 159 158
3 160 77 159
3 160 161 77
3 147 161 160
3 147 70 161
3 588 162 589
3 590 589 52
3 588 589 590
3 591 162 592
3 594 593 162
3 163 164 71
3 165 164 163
3 165 78 164
3 166 167 33
3 168 167 166
3 168 79 167
3 168 169 79
3 170 169 168
3 170 80 169
3 171 172 55
3 173 172 171
3 173 81 172
3 174 175 36
3 176 175 174
3 176 82 175
3 176 177 82
3 178 177 176
3 178 83 177
3 178 179 83
3 180 179 178
3 180 84 179
3 181 182 38
3 595 182 596
3 597 596 181
3 595 596 597
3 599 598 182
3 183 184 59
3 185 184 183
3 185 600 602
3 602 601 184
3 600 601 602
3 603 186 604
3 187 605 607
3 605 186 606
3 605 606 607
3 187 85 186
3 188 189 62
3 190 189 188
3 190 86 189
3 191 192 44
3 608 192 609
3 610 609 191
3 608 609 610
3 611 87 612
3 613 612 192
3 611 612 613
3 615 614 87
3 193 194 47
3 195 194 193
3 195 88 194
3 195 196 88
3 197 196 195
3 197 89 196
3 198 199 67
3 200 199 198
3 200 90 199
3 201 202 50
3 203 202 201
3 203 91 202
3 203 204 91
3 205 204 203
3 205 92 204
3 205 206 92
3 207 206 205
3 207 616 618
3 618 617 206
3 616 617 618
3 208 209 6
3 619 209 620
3 621 620 208
3 619 620 621
3 623 622 209
3 625 624 23
3 626 210 627
3 628 627 7
3 626 627 628
3 211 629 631
3 629 210 630
3 629 630 631
3 211 24 210
3 632 211 633
3 212 634 636
3 634 211 635
3 634 635 636
3 212 24 211
3 212 127 24
3 213 127 212
3 213 9 127
3 213 214 9
3 215 214 213
3 215 26 214
3 93 215 25
3 216 215 93
3 216 26 215
3 216 134 26
3 208 134 216
3 208 6 134
3 637 138 638
3 217 639 641
3 639 138 640
3 639 640 641
3 217 12 138
3 218 219 13
3 220 219 218
3 220 28 219
3 95 220 27
3 221 220 95
3 221 28 220
3 221 642 644
3 644 643 28
3 642 643 644
3 646 645 221
3 222 223 15
3 224 223 222
3 224 29 223
3 647 224 648
3 225 649 651
3 649 224 650
3 649 650 651
3 225 29 224
3 225 150 29
3 226 150 225
3 226 17 150
3 652 227 653
3 654 227 655
3 656 30 657
3 658 657 227
3 656 657 658
3 228 659 660
3 228 661 663
3 661 30 662
3 661 662 663
3 228 158 30
3 222 158 228
3 222 15 158
3 98 664 665
3 667 666 98
3 229 230 16
3 231 230 229
3 231 33 230
3 101 231 32
3 232 231 101
3 232 33 231
3 232 166 33
3 233 166 232
3 233 18 166
3 234 235 8
3 236 235 234
3 236 36 235
3 104 236 35
3 237 236 104
3 237 36 236
3 237 174 36
3 238 174 237
3 238 19 174
3 238 239 19
3 240 239 238
3 240 38 239
3 106 240 37
3 241 240 106
3 241 38 240
3 241 181 38
3 242 181 241
3 242 668 670
3 670 669 181
3 668 669 670
3 242 671 672
3 243 673 675
3 675 674 242
3 673 674 675
3 243 676 677
3 108 243 39
3 244 243 108
3 244 678 680
3 680 679 243
3 678 679 680
3 244 681 682
3 684 683 244
3 245 246 10
3 247 246 245
3 247 685 687
3 687 686 246
3 685 686 687
3 111 247 41
3 688 247 689
3 690 689 111
3 688 689 690
3 692 691 247
3 248 693 694
3 248 695 697
3 695 20 696
3 695 696 697
3 249 250 11
3 251 250 249
3 251 44 250
3 115 251 43
3 252 251 115
3 252 44 251
3 252 191 44
3 253 191 252
3 253 698 700
3 700 699 191
3 698 699 700
3 253 701 702
3 704 703 253
3 117 705 707
3 707 706 45
3 705 706 707
3 709 708 117
3 710 47 711
3 119 712 713
3 254 714 716
3 716 715 119
3 714 715 716
3 254 717 719
3 717 47 718
3 717 718 719
3 254 193 47
3 255 193 254
3 255 21 193
3 256 257 14
3 258 257 256
3 258 50 257
3 720 258 721
3 722 721 49
3 720 721 722
3 259 723 725
3 723 258 724
3 723 724 725
3 259 50 258
3 259 201 50
3 726 201 727
3 728 727 259
3 726 727 728
3 729 22 730
3 731 730 201
3 729 730 731
3 733 732 22
3 260 261 2
3 262 261 260
3 262 52 261
3 122 262 51
3 263 262 122
3 263 52 262
3 263 734 736
3 736 735 52
3 734 735 736
3 738 737 263
3 209 123 6
3 264 123 209
3 264 53 123
3 739 264 740
3 741 264 742
3 743 53 744
3 745 744 264
3 743 744 745
3 747 746 53
3 265 266 1
3 267 266 265
3 267 55 266
3 125 267 54
3 268 267 125
3 268 55 267
3 268 171 55
3 269 171 268
3 269 8 171
3 210 126 7
3 270 126 210
3 270 56 126
3 128 270 24
3 271 270 128
3 271 56 270
3 271 269 56
3 272 269 271
3 272 8 269
3 272 234 8
3 273 234 272
3 273 35 234
3 130 273 57
3 274 273 130
3 274 35 273
3 274 103 35
3 275 103 274
3 275 3 103
3 275 276 3
3 277 276 275
3 277 59 276
3 132 277 58
3 278 277 132
3 278 59 277
3 278 183 59
3 279 183 278
3 279 10 183
3 214 133 9
3 280 133 214
3 280 60 133
3 135 280 26
3 281 280 135
3 281 60 280
3 281 279 60
3 282 279 281
3 282 10 279
3 282 245 10
3 283 245 282
3 283 41 245
3 137 283 61
3 284 283 137
3 284 41 283
3 284 110 41
3 260 110 284
3 260 2 110
3 285 286 4
3 287 286 285
3 287 62 286
3 748 287 749
3 288 750 752
3 750 287 751
3 750 751 752
3 288 62 287
3 288 188 62
3 289 188 288
3 289 11 188
3 753 63 754
3 139 755 756
3 290 757 759
3 759 758 139
3 757 758 759
3 290 760 762
3 760 63 761
3 760 761 762
3 290 289 63
3 291 289 290
3 291 11 289
3 291 249 11
3 292 249 291
3 292 43 249
3 141 292 64
3 293 292 141
3 293 43 292
3 293 114 43
3 294 114 293
3 294 5 114
3 763 295 764
3 296 765 767
3 765 295 766
3 765 766 767
3 296 67 295
3 144 296 66
3 297 296 144
3 297 67 296
3 297 198 67
3 298 198 297
3 298 14 198
3 219 145 13
3 299 145 219
3 299 68 145
3 146 299 28
3 300 299 146
3 300 68 299
3 300 298 68
3 301 298 300
3 301 14 298
3 301 256 14
3 302 256 301
3 302 49 256
3 768 302 769
3 770 769 69
3 768 769 770
3 771 302 772
3 773 49 774
3 775 774 302
3 773 774 775
3 777 776 49
3 285 778 780
3 778 779 780
3 285 781 783
3 781 4 782
3 781 782 783
3 303 304 0
3 305 304 303
3 305 71 304
3 148 305 70
3 306 305 148
3 306 71 305
3 306 163 71
3 307 163 306
3 307 16 163
3 223 149 15
3 308 149 223
3 308 72 149
3 151 308 29
3 309 308 151
3 309 72 308
3 309 307 72
3 310 307 309
3 310 16 307
3 310 229 16
3 311 229 310
3 311 32 229
3 153 311 73
3 312 311 153
3 312 32 311
3 312 100 32
3 313 100 312
3 313 1 100
3 784 226 785
3 786 226 787
3 788 17 789
3 790 789 226
3 788 789 790
3 791 17 792
3 793 154 794
3 795 794 17
3 793 794 795
3 314 796 798
3 796 154 797
3 796 797 798
3 314 74 154
3 799 314 800
3 315 801 803
3 801 314 802
3 801 802 803
3 315 74 314
3 315 313 74
3 316 313 315
3 316 1 313
3 316 265 1
3 317 265 316
3 317 54 265
3 155 317 75
3 318 317 155
3 318 54 317
3 318 124 54
3 319 124 318
3 319 7 124
3 804 319 805
3 806 319 807
3 808 7 809
3 810 809 319
3 808 809 810
3 812 811 7
3 813 66 814
3 156 815 816
3 320 817 819
3 819 818 156
3 817 818 819
3 320 820 822
3 820 66 821
3 820 821 822
3 320 143 66
3 321 143 320
3 321 13 143
3 227 823 825
3 823 157 824
3 823 824 825
3 322 157 227
3 322 76 157
3 159 322 30
3 323 322 159
3 323 76 322
3 323 321 76
3 324 321 323
3 324 13 321
3 324 218 13
3 325 218 324
3 325 27 218
3 161 325 77
3 326 325 161
3 326 27 325
3 326 94 27
3 303 94 326
3 303 0 94
3 261 99 2
3 327 99 261
3 327 31 99
3 162 327 52
3 328 327 162
3 328 31 327
3 328 826 828
3 828 827 31
3 826 827 828
3 831 830 328
3 829 830 831
3 304 832 834
3 834 833 0
3 832 833 834
3 329 835 837
3 837 836 304
3 835 836 837
3 329 838 839
3 164 329 71
3 330 329 164
3 330 840 842
3 842 841 329
3 840 841 842
3 330 843 844
3 331 845 847
3 847 846 330
3 845 846 847
3 331 848 849
3 230 165 16
3 332 165 230
3 332 78 165
3 167 332 33
3 333 332 167
3 333 78 332
3 333 331 78
3 334 331 333
3 334 850 852
3 852 851 331
3 850 851 852
3 334 853 854
3 335 855 857
3 857 856 334
3 855 856 857
3 335 858 859
3 169 335 79
3 336 335 169
3 336 860 862
3 862 861 335
3 860 861 862
3 336 863 864
3 337 865 867
3 867 866 336
3 865 866 867
3 337 868 869
3 266 102 1
3 338 102 266
3 338 34 102
3 172 338 55
3 339 338 172
3 339 34 338
3 339 233 34
3 340 233 339
3 340 18 233
3 235 173 8
3 341 173 235
3 341 81 173
3 175 341 36
3 342 341 175
3 342 81 341
3 342 340 81
3 343 340 342
3 343 18 340
3 343 170 18
3 344 170 343
3 344 80 170
3 177 344 82
3 345 344 177
3 345 80 344
3 345 337 80
3 870 337 871
3 872 871 345
3 870 871 872
3 874 873 337
3 179 875 877
3 877 876 83
3 875 876 877
3 879 878 179
3 239 180 19
3 346 180 239
3 346 84 180
3 182 346 38
3 880 346 881
3 882 881 182
3 880 881 882
3 883 84 884
3 885 884 346
3 883 884 885
3 887 886 84
3 276 109 3
3 347 109 276
3 347 40 109
3 184 347 59
3 348 347 184
3 348 40 347
3 348 888 890
3 890 889 40
3 888 889 890
3 892 891 348
3 246 185 10
3 893 185 894
3 895 894 246
3 893 894 895
3 897 896 185
3 186 898 899
3 349 900 902
3 902 901 186
3 900 901 902
3 349 903 905
3 903 904 905
3 349 906 907
3 909 908 349
3 286 113 4
3 350 113 286
3 350 42 113
3 189 350 62
3 351 350 189
3 351 42 350
3 351 248 42
3 352 248 351
3 352 20 248
3 250 190 11
3 353 190 250
3 353 86 190
3 192 353 44
3 354 353 192
3 354 86 353
3 354 352 86
3 355 352 354
3 355 20 352
3 355 187 20
3 356 187 355
3 356 85 187
3 910 356 911
3 912 911 87
3 910 911 912
3 913 356 914
3 915 85 916
3 917 916 356
3 915 916 917
3 919 918 85
3 920 217 921
3 357 922 924
3 922 217 923
3 922 923 924
3 357 12 217
3 194 925 927
3 927 926 47
3 925 926 927
3 358 928 930
3 930 929 194
3 928 929 930
3 358 931 932
3 358 933 935
3 933 357 934
3 933 934 935
3 359 357 358
3 359 12 357
3 359 142 12
3 360 142 359
3 360 65 142
3 196 360 88
3 361 360 196
3 361 65 360
3 361 294 65
3 362 294 361
3 362 5 294
3 295 936 938
3 936 120 937
3 936 937 938
3 363 120 295
3 363 48 120
3 199 363 67
3 364 363 199
3 364 48 363
3 364 255 48
3 365 255 364
3 365 21 255
3 257 200 14
3 366 200 257
3 366 90 200
3 202 366 50
3 367 366 202
3 367 90 366
3 367 365 90
3 368 365 367
3 368 21 365
3 368 197 21
3 369 197 368
3 369 89 197
3 204 369 91
3 370 369 204
3 370 89 369
3 370 362 89
3 371 362 370
3 371 5 362
3 371 118 5
3 372 118 371
3 372 46 118
3 206 372 92
3 939 372 940
3 941 940 206
3 939 940 941
3 942 46 943
3 944 943 372
3 942 943 944
3 946 945 46
3 947 207 948
3 949 948 22
3 947 948 949
3 950 207 951
3 953 952 207
