ply
format ascii 1.0
element vertex 483
property float x
property float y
property float z
element face 500
property list uchar int vertex_index
end_header
-37.245678 -111.40596 -7.303373
-45.184036 -98.729141 11.842463
-37.25843 -101.365616 29.58073
-48.178932 -89.137756 11.331538
-41.905926 -101.659866 21.040045
-41.539722 -105.369675 1.383375
-30.017879 -102.797394 24.016659
-34.128521 -108.646484 16.748699
-37.577251 -108.005997 9.18726
-31.391481 -114.756042 -1.4566
-46.25526 -96.898849 -13.468378
-33.369247 -115.043015 -9.462986
-37.738178 -111.342117 -10.683641
-43.687157 -101.979141 6.569473
-46.518623 -97.151764 7.213075
-31.397564 -98.38327 30.432529
-33.853561 -102.490463 26.544121
-32.149452 -106.588074 20.298494
-36.25523 -104.9263 22.797335
-43.660095 -100.285309 16.486593
-40.240597 -104.782043 14.953961
-41.97155 -103.409164 10.78643
-39.496723 -106.665894 5.251007
-45.867462 -95.605682 17.087057
-47.084053 -93.951767 11.988992
-39.769516 -102.254395 25.416622
-39.187763 -108.733948 -3.491049
-27.883621 -97.889725 28.287685
-25.845947 -103.172073 23.049791
-27.563839 -107.747177 18.92532
-29.291946 -111.054276 15.263133
-30.897758 -112.595612 11.599581
-38.396584 -105.54007 18.970121
-35.873718 -108.930817 13.063439
-32.476871 -112.481888 7.722781
-34.377052 -111.380615 3.755682
-36.755291 -110.016495 -0.033364
-34.479118 -113.08139 -4.947506
-41.971733 -106.1828 -10.585917
-35.572151 -113.027771 -8.307093
-35.533508 -113.372574 -10.291803
-37.456135 -111.468369 -8.83049
-44.535366 -100.335312 9.203323
-45.27766 -99.591248 6.994066
-45.879375 -97.952026 9.520179
-34.319878 -100.549667 30.001638
-35.608749 -102.07634 28.071447
-35.074883 -103.942001 24.668268
-36.877052 -103.138229 26.128387
-44.443558 -99.507904 14.169056
-42.931744 -101.834396 13.622867
-43.747299 -101.080994 11.416284
-42.837425 -102.686417 8.678363
-40.356083 -107.078018 -1.116724
-41.339542 -106.466522 -2.91692
-42.474018 -104.730347 -0.523075
-47.678932 -91.541428 11.739542
-47.657463 -93.084869 9.495378
-48.279331 -90.629501 9.204854
-30.828121 -100.527359 27.09527
-29.677097 -98.09816 29.171328
-28.946684 -100.429199 26.063141
-26.996378 -100.442322 25.47765
-27.95899 -102.923569 23.287027
-26.695765 -105.570511 20.899437
-28.931341 -105.207809 21.282932
-33.168495 -107.852005 18.526405
-30.857635 -108.77919 17.629169
-31.769527 -109.921112 15.863333
-32.628647 -110.595963 14.073153
-40.891636 -102.101547 23.253872
-39.222717 -103.890991 22.141602
-40.259579 -103.688019 20.078257
-39.015316 -106.376053 12.025162
-38.152935 -106.910187 14.004572
-36.710651 -108.568237 11.143314
-34.247746 -110.68692 10.33458
-35.085224 -110.266937 8.394167
-33.365959 -112.003372 5.734012
-35.999966 -109.676666 6.435442
-40.526524 -106.006165 3.305403
-38.115551 -108.342178 2.571924
-39.254822 -107.697098 0.704986
-38.013878 -109.357346 -1.801178
-31.93292 -115.331009 -5.777937
-32.894299 -113.940903 -3.307486
-44.241844 -101.901001 -12.124834
-44.605633 -100.435608 -13.807232
-30.885925 -117.198853 -10.580093
-33.254765 -115.443954 -11.66716
-35.670628 -113.369751 -12.331533
-38.057331 -110.949142 -12.616816
-42.671326 -103.660828 3.956002
-43.538166 -102.989868 1.951518
-44.487144 -101.271988 4.465744
-45.950821 -98.815765 4.795035
-32.620438 -100.611572 28.455582
-31.988752 -102.692947 25.14448
-31.091286 -104.881638 22.111246
-33.144577 -104.494278 23.282438
-34.271709 -105.860275 21.467161
-35.344215 -106.757324 19.657846
-42.821594 -101.025009 18.781101
-41.208359 -103.213745 17.965801
-42.090679 -102.566452 15.810397
-41.107559 -104.127029 12.882888
-39.89473 -105.717468 10.015421
-38.504368 -107.346069 7.21634
-40.807983 -105.018478 7.992207
-41.745289 -104.329315 5.969726
-45.62426 -97.154968 14.474139
-46.281319 -96.351471 12.033022
-46.49181 -94.782898 14.524769
-47.104401 -92.400742 14.339523
-47.553459 -90.020172 13.960375
-38.549294 -102.030792 27.525642
-40.084549 -100.609604 28.740517
-41.274937 -100.512634 26.472202
-42.350601 -100.109131 24.145823
-43.306198 -99.492966 21.771116
-44.154846 -98.752838 19.358707
-44.919983 -97.959259 16.921373
-38.107407 -110.245255 -5.639561
-38.943054 -109.782227 -7.161036
-40.166275 -108.160492 -5.16375
-46.895004 -95.53241 9.612835
-47.466576 -94.663605 7.225092
-26.039547 -97.87793 27.886248
-25.012861 -100.659821 25.419666
-29.904264 -107.188843 19.416513
-28.436531 -109.601974 17.068075
-38.091026 -103.730988 24.156006
-37.367413 -105.445053 20.904303
-36.344872 -107.193253 17.82173
-39.346966 -105.286804 16.986155
-37.274197 -107.216705 15.93907
-35.024746 -108.987015 14.932673
-33.444168 -110.828918 12.231961
-31.671173 -112.712692 9.686646
-32.809406 -113.090881 1.130341
-37.014168 -109.012558 4.486639
-35.518021 -110.699707 1.823666
-34.114189 -112.365875 -0.77449
-35.511154 -111.628311 -2.546881
-36.894848 -110.905548 -4.164789
-36.013878 -112.202835 -6.320473
-31.268963 -116.440323 -8.198055
-33.75367 -114.250397 -7.237442
-39.472527 -109.428497 -8.885834
-39.918404 -108.930252 -10.738447
-40.325676 -108.195175 -12.610954
-42.398312 -105.155884 -12.415257
-36.596311 -100.796883 30.582001
-37.365716 -100.468643 31.319883
-36.433589 -101.720978 28.826088
-35.771471 -101.152244 29.82736
-36.596311 -100.796883 30.582001
-30.795108 -115.52861 -2.736838
-30.010721 -115.957016 -1.738827
-32.14289 -114.348472 -2.382043
-31.546516 -115.12104 -3.662281
-30.795108 -115.52861 -2.736838
-45.430447 -98.667228 -13.637805
-45.243376 -99.474564 -12.814965
-46.06819 -97.706184 -12.645539
-45.577713 -97.841995 -14.40922
-44.752899 -99.610375 -14.578648
-45.430447 -98.667228 -13.637805
-46.806512 -96.719918 6.070898
-46.522611 -97.551918 4.861878
-46.234722 -97.983765 6.004055
-47.044465 -91.635223 15.502185
-46.819057 -92.81968 15.664811
-47.268993 -90.444939 15.312611
-47.32893 -91.210457 14.149949
-47.044465 -91.635223 15.502185
-40.16127 -99.770211 30.392865
-39.444485 -100.462776 29.840376
-41.929655 -99.530876 26.85878
-41.370417 -99.707832 28.077305
-42.467487 -99.329125 25.695591
-41.812769 -100.310883 25.309013
-41.929655 -99.530876 26.85878
-43.871285 -98.361221 21.994588
-43.440071 -98.727142 23.261672
-44.295609 -97.991157 20.788384
-43.730522 -99.122902 20.564912
-43.871285 -98.361221 21.994588
-45.393723 -96.782471 17.004215
-45.055672 -97.193543 18.289463
-45.529411 -96.016754 18.372305
-41.747785 -106.14701 -3.824942
-42.311367 -105.255905 -2.673512
-43.921755 -102.631103 0.951296
-44.371269 -101.75734 2.1601
-47.846276 -93.405327 7.139801
-47.56202 -93.874237 8.360235
-47.941719 -92.615959 8.274944
-47.736163 -94.18528 6.051112
-47.846276 -93.405327 7.139801
-30.796737 -97.148392 31.466711
-31.592036 -97.355827 32.16448
-28.211561 -96.707222 29.843528
-29.108299 -96.81144 30.28535
-28.780359 -97.993943 28.729506
-27.354292 -96.594307 29.499676
-28.211561 -96.707222 29.843528
-26.961584 -97.883827 28.086966
-26.432255 -96.58841 29.298957
-27.354292 -96.594307 29.499676
-24.784853 -103.387306 23.202949
-24.36831 -102.13118 24.387887
-25.429404 -101.915947 24.234728
-25.137083 -104.605446 22.03744
-24.784853 -103.387306 23.202949
-26.366083 -108.039497 18.9112
-25.932046 -106.951165 19.898259
-27.129802 -106.658844 19.912378
-26.75209 -109.063018 17.92167
-26.366083 -108.039497 18.9112
-28.008873 -111.570236 15.142578
-27.581165 -110.844086 16.045049
-28.864238 -110.328125 16.165604
-28.397481 -112.217858 14.203841
-28.008873 -111.570236 15.142578
-29.57966 -113.410836 11.417516
-30.505133 -112.325256 12.526457
-29.955568 -113.609718 10.433916
-29.57966 -113.410836 11.417516
-31.135915 -113.551804 7.483047
-30.733066 -113.667205 8.46498
-32.074022 -112.59729 8.704714
-31.567658 -113.391487 6.453642
-31.135915 -113.551804 7.483047
-33.01551 -112.570183 3.443569
-32.509964 -112.881561 4.432733
-33.871505 -111.691993 4.744847
-33.593229 -112.235748 2.443011
-32.231687 -113.425315 2.130898
-33.01551 -112.570183 3.443569
-30.272562 -117.03904 -7.378277
-29.949195 -117.560288 -8.639152
-40.191624 -108.519851 -7.893775
-39.207791 -109.605362 -8.023435
-39.926887 -108.696717 -7.031376
-40.945069 -107.556526 -10.662182
-40.702509 -107.957909 -9.731943
-41.729174 -106.584182 -9.655678
-42.58362 -104.525398 -13.283507
-43.320078 -103.528442 -12.270046
-43.505387 -102.897957 -13.138295
-41.546141 -106.173996 -13.416791
-42.58362 -104.525398 -13.283507
-35.127036 -100.388908 30.792455
-34.466263 -99.589714 31.768961
-34.964314 -101.313004 29.036542
-35.127036 -100.388908 30.792455
-35.771471 -101.152244 29.82736
-46.236644 -93.656739 18.330824
-46.200588 -94.42215 17.038578
-45.903519 -94.840271 18.379303
-45.903519 -94.840271 18.379303
-45.529411 -96.016754 18.372305
-42.878605 -104.387817 -1.476589
-42.311367 -105.255905 -2.673512
-41.90678 -105.598434 -1.719998
-48.252653 -91.388275 8.129682
-47.941719 -92.615959 8.274944
-47.968397 -91.857185 9.350116
-30.941017 -110.988006 14.658334
-29.702227 -111.554588 14.358234
-30.530736 -110.487694 15.563233
-31.370577 -111.325432 13.763243
-30.941017 -110.988006 14.658334
-32.199087 -110.258537 14.968243
-31.763202 -111.595788 12.836367
-30.505133 -112.325256 12.526457
-31.370577 -111.325432 13.763243
-31.065827 -115.816093 -4.897506
-30.60454 -116.484382 -6.168217
-32.413609 -114.635956 -4.542711
-31.065827 -115.816093 -4.897506
-31.546516 -115.12104 -3.662281
-42.662661 -105.207443 -9.526718
-41.729174 -106.584182 -9.655678
-45.061481 -100.20726 -11.973766
-44.852043 -100.934028 -11.089987
-44.423738 -101.168305 -12.966033
-45.061481 -100.20726 -11.973766
-45.243376 -99.474564 -12.814965
-43.687281 -102.165261 -13.979494
-43.505387 -102.897957 -13.138295
-44.423738 -101.168305 -12.966033
-43.838327 -101.422371 -14.778533
-43.687281 -102.165261 -13.979494
-43.838327 -101.422371 -14.778533
-44.752899 -99.610375 -14.578648
-30.804015 -117.382958 -11.746151
-29.556051 -118.279564 -11.072188
-31.988435 -116.505508 -12.289685
-30.804015 -117.382958 -11.746151
-32.070345 -116.321404 -11.123627
-33.28071 -115.45134 -12.75018
-31.988435 -116.505508 -12.289685
-34.488642 -114.414238 -13.082366
-33.28071 -115.45134 -12.75018
-34.462696 -114.406852 -11.999347
-35.781462 -113.194305 -13.339742
-34.488642 -114.414238 -13.082366
-36.974813 -111.984001 -13.482384
-35.781462 -113.194305 -13.339742
-36.863979 -112.159447 -12.474175
-38.220506 -110.600799 -13.565886
-36.974813 -111.984001 -13.482384
-44.845758 -100.898399 3.417212
-44.371269 -101.75734 2.1601
-44.012655 -102.130928 3.208631
-45.577596 -99.670288 3.581858
-44.845758 -100.898399 3.417212
-45.218982 -100.043876 4.630389
-46.246578 -98.38961 3.70256
-45.577596 -99.670288 3.581858
-46.246578 -98.38961 3.70256
-46.522611 -97.551918 4.861878
-48.53286 -88.665031 10.060609
-48.439281 -87.94838 11.074034
-32.218637 -98.494179 31.18479
-31.592036 -97.355827 32.16448
-33.679794 -99.577377 30.969345
-34.466263 -99.589714 31.768961
-32.830074 -99.608329 30.196317
-33.679794 -99.577377 30.969345
-33.470158 -100.580619 29.22861
-32.009001 -99.497421 29.444055
-32.218637 -98.494179 31.18479
-32.830074 -99.608329 30.196317
-30.719659 -115.127014 -0.450892
-30.010721 -115.957016 -1.738827
-46.823565 -95.990333 -12.522512
-46.06819 -97.706184 -12.645539
-46.512762 -94.010758 15.757434
-46.179636 -95.19429 15.805913
-46.200588 -94.42215 17.038578
-46.798106 -93.59182 14.432146
-46.512762 -94.010758 15.757434
-46.819057 -92.81968 15.664811
-47.432512 -89.264588 15.061392
-47.268993 -90.444939 15.312611
-47.750251 -88.837089 13.700311
-47.432512 -89.264588 15.061392
-48.062988 -88.395882 12.385893
-47.866196 -89.578964 12.645957
-47.750251 -88.837089 13.700311
-48.439281 -87.94838 11.074034
-48.062988 -88.395882 12.385893
-38.031425 -100.840782 30.260483
-37.365716 -100.468643 31.319883
-38.676857 -101.17337 29.232939
-37.903862 -101.698204 28.553186
-38.031425 -100.840782 30.260483
-39.316922 -101.320198 28.13308
-38.676857 -101.17337 29.232939
-39.444485 -100.462776 29.840376
-40.775223 -99.756317 29.211462
-40.16127 -99.770211 30.392865
-40.679743 -100.561119 27.606359
-40.775223 -99.756317 29.211462
-41.370417 -99.707832 28.077305
-42.962272 -99.035225 24.449025
-42.467487 -99.329125 25.695591
-42.8284 -99.801049 22.958469
-42.962272 -99.035225 24.449025
-43.440071 -98.727142 23.261672
-44.673103 -97.590332 19.50813
-44.295609 -97.991157 20.788384
-44.537414 -98.356048 18.14004
-44.673103 -97.590332 19.50813
-45.055672 -97.193543 18.289463
-40.538498 -107.885849 -6.032733
-39.926887 -108.696717 -7.031376
-39.554665 -108.97136 -6.162393
-41.161152 -106.993996 -4.948357
-40.752909 -107.313507 -4.040335
-41.747785 -106.14701 -3.824942
-40.538498 -107.885849 -6.032733
-41.161152 -106.993996 -4.948357
-43.389681 -103.501343 -0.286
-43.006092 -103.860107 0.714222
-43.921755 -102.631103 0.951296
-42.878605 -104.387817 -1.476589
-43.389681 -103.501343 -0.286
-47.280489 -95.475838 6.076906
-46.806512 -96.719918 6.070898
-46.992599 -95.907685 7.219083
-47.280489 -95.475838 6.076906
-47.736163 -94.18528 6.051112
-48.583059 -89.410904 8.997267
-48.229132 -89.883629 10.268196
-48.53286 -88.665031 10.060609
-48.603521 -90.131858 7.973796
-48.583059 -89.410904 8.997267
-48.252653 -91.388275 8.129682
-48.603521 -90.131858 7.973796
-29.936504 -97.005836 30.83611
-30.796737 -97.148392 31.466711
-30.53733 -98.240715 29.801928
-29.936504 -97.005836 30.83611
-29.108299 -96.81144 30.28535
-25.557925 -96.609688 29.205103
-26.432255 -96.58841 29.298957
-25.110253 -98.008736 27.95814
-25.557925 -96.609688 29.205103
-24.59691 -99.399681 26.724849
-25.110253 -98.008736 27.95814
-25.526204 -99.268876 26.652957
-24.026468 -100.891739 25.671239
-24.59691 -99.399681 26.724849
-24.026468 -100.891739 25.671239
-24.36831 -102.13118 24.387887
-25.561992 -105.804665 20.962263
-25.137083 -104.605446 22.03744
-26.270856 -104.371292 21.974614
-25.561992 -105.804665 20.962263
-25.932046 -106.951165 19.898259
-27.188435 -109.990417 16.993047
-26.75209 -109.063018 17.92167
-28.000185 -108.674576 17.996697
-27.188435 -109.990417 16.993047
-27.581165 -110.844086 16.045049
-28.397481 -112.217858 14.203841
-29.702227 -111.554588 14.358234
-30.342275 -113.668259 9.477448
-29.955568 -113.609718 10.433916
-31.284465 -112.654152 10.643114
-30.342275 -113.668259 9.477448
-30.733066 -113.667205 8.46498
-32.012202 -113.152229 5.459258
-31.567658 -113.391487 6.453642
-32.921415 -112.24263 6.728397
-32.012202 -113.152229 5.459258
-32.509964 -112.881561 4.432733
-31.428621 -114.294433 0.842579
-32.231687 -113.425315 2.130898
-32.100443 -113.923462 -0.163129
-30.719659 -115.127014 -0.450892
-31.428621 -114.294433 0.842579
-29.757676 -117.939552 -9.830171
-29.556051 -118.279564 -11.072188
-31.077444 -116.819588 -9.389074
-29.757676 -117.939552 -9.830171
-29.949195 -117.560288 -8.639152
-31.600941 -115.885666 -6.987996
-30.272562 -117.03904 -7.378277
-30.60454 -116.484382 -6.168217
-40.479571 -108.207031 -8.805636
-40.191624 -108.519851 -7.893775
-39.695465 -109.179374 -9.81214
-40.479571 -108.207031 -8.805636
-40.702509 -107.957909 -9.731943
-39.354679 -109.223816 -13.562955
-38.220506 -110.600799 -13.565886
-39.191503 -109.572159 -12.613885
-42.89764 -104.67575 -10.458058
-42.662661 -105.207443 -9.526718
-44.032696 -102.534851 -11.227517
-44.852043 -100.934028 -11.089987
-43.110929 -104.162293 -11.372729
-44.032696 -102.534851 -11.227517
-43.320078 -103.528442 -12.270046
-42.185023 -105.669342 -11.500587
-42.89764 -104.67575 -10.458058
-43.110929 -104.162293 -11.372729
-40.509823 -107.693642 -13.514639
-41.361994 -106.67553 -12.513105
-41.546141 -106.173996 -13.416791
-39.354679 -109.223816 -13.562955
-40.509823 -107.693642 -13.514639
-47.032033 -95.134124 -13.337169
-46.823565 -95.990333 -12.522512
-46.409965 -96.015373 -14.22513
-47.032033 -95.134124 -13.337169
-45.577713 -97.841995 -14.40922
-46.409965 -96.015373 -14.22513
3 0 41 39
3 1 44 42
3 2 152 153
3 2 154 156
3 154 46 155
3 154 155 156
3 2 48 46
3 1 51 49
3 1 42 51
3 5 55 53
3 3 58 56
3 6 61 59
3 6 63 61
3 6 65 63
3 7 68 66
3 7 69 68
3 4 72 70
3 8 75 73
3 8 77 75
3 8 79 77
3 5 82 80
3 5 53 82
3 9 157 158
3 9 159 161
3 159 85 160
3 159 160 161
3 10 162 164
3 162 87 163
3 162 163 164
3 10 165 167
3 167 166 87
3 165 166 167
3 11 89 88
3 12 90 40
3 12 91 90
3 13 94 92
3 14 95 43
3 14 168 170
3 170 169 95
3 168 169 170
3 16 96 45
3 16 97 96
3 16 99 97
3 18 100 47
3 18 101 100
3 19 104 102
3 21 105 50
3 21 106 105
3 21 108 106
3 13 109 52
3 13 92 109
3 23 112 110
3 171 113 172
3 173 114 174
3 175 174 113
3 173 174 175
3 176 116 177
3 178 117 179
3 180 118 181
3 182 181 117
3 180 181 182
3 183 119 184
3 185 120 186
3 187 186 119
3 185 186 187
3 23 188 190
3 188 121 189
3 188 189 190
3 23 110 121
3 26 124 122
3 192 191 54
3 194 193 93
3 24 125 111
3 195 126 196
3 197 196 57
3 195 196 197
3 199 198 126
3 15 200 201
3 27 202 204
3 204 203 60
3 202 203 204
3 27 205 206
3 27 207 209
3 207 127 208
3 207 208 209
3 28 128 62
3 28 210 212
3 212 211 128
3 210 211 212
3 28 213 214
3 29 215 217
3 217 216 64
3 215 216 217
3 29 218 219
3 17 129 98
3 30 130 67
3 30 220 222
3 222 221 130
3 220 221 222
3 30 223 224
3 31 225 226
3 31 227 228
3 25 131 115
3 32 132 71
3 32 133 132
3 20 134 103
3 33 135 74
3 33 136 135
3 33 137 136
3 34 138 76
3 34 229 231
3 231 230 138
3 229 230 231
3 34 232 233
3 35 234 236
3 236 235 78
3 234 235 236
3 35 237 239
3 237 139 238
3 237 238 239
3 22 140 107
3 36 141 81
3 36 142 141
3 36 143 142
3 26 144 83
3 26 122 144
3 240 146 241
3 37 147 84
3 37 145 147
3 242 148 243
3 244 243 123
3 242 243 244
3 38 245 247
3 245 149 246
3 245 246 247
3 38 150 149
3 248 151 249
3 250 249 86
3 248 249 250
3 252 251 151
3 39 40 11
3 41 40 39
3 41 12 40
3 42 43 13
3 44 43 42
3 44 14 43
3 253 45 254
3 46 255 257
3 255 45 256
3 255 256 257
3 46 16 45
3 46 47 16
3 48 47 46
3 48 18 47
3 49 50 19
3 51 50 49
3 51 21 50
3 51 52 21
3 42 52 51
3 42 13 52
3 260 259 23
3 258 259 260
3 261 23 262
3 53 54 26
3 55 54 53
3 55 263 265
3 265 264 54
3 263 264 265
3 56 57 24
3 58 57 56
3 58 266 268
3 268 267 57
3 266 267 268
3 59 60 15
3 61 60 59
3 61 27 60
3 61 62 27
3 63 62 61
3 63 28 62
3 63 64 28
3 65 64 63
3 65 29 64
3 66 67 17
3 68 67 66
3 68 30 67
3 68 269 271
3 271 270 30
3 269 270 271
3 69 272 274
3 274 273 68
3 272 273 274
3 69 275 277
3 275 31 276
3 275 276 277
3 70 71 25
3 72 71 70
3 72 32 71
3 73 74 20
3 75 74 73
3 75 33 74
3 75 76 33
3 77 76 75
3 77 34 76
3 77 78 34
3 79 78 77
3 79 35 78
3 80 81 22
3 82 81 80
3 82 36 81
3 82 83 36
3 53 83 82
3 53 26 83
3 278 84 279
3 85 280 282
3 280 84 281
3 280 281 282
3 85 37 84
3 283 38 284
3 285 86 286
3 87 287 289
3 287 86 288
3 287 288 289
3 87 290 292
3 292 291 86
3 290 291 292
3 87 293 294
3 296 295 87
3 88 297 298
3 89 299 301
3 301 300 88
3 299 300 301
3 89 302 303
3 40 89 11
3 90 89 40
3 90 304 306
3 306 305 89
3 304 305 306
3 90 307 308
3 91 309 311
3 311 310 90
3 309 310 311
3 91 312 313
3 92 93 5
3 94 93 92
3 94 314 316
3 316 315 93
3 314 315 316
3 43 94 13
3 95 94 43
3 95 317 319
3 319 318 94
3 317 318 319
3 95 320 321
3 323 322 95
3 325 324 3
3 326 15 327
3 45 328 329
3 96 330 332
3 332 331 45
3 330 331 332
3 96 333 335
3 333 15 334
3 333 334 335
3 96 59 15
3 97 59 96
3 97 6 59
3 97 98 6
3 99 98 97
3 99 17 98
3 47 99 16
3 100 99 47
3 100 17 99
3 100 66 17
3 101 66 100
3 101 7 66
3 102 103 4
3 104 103 102
3 104 20 103
3 50 104 19
3 105 104 50
3 105 20 104
3 105 73 20
3 106 73 105
3 106 8 73
3 106 107 8
3 108 107 106
3 108 22 107
3 52 108 21
3 109 108 52
3 109 22 108
3 109 80 22
3 92 80 109
3 92 5 80
3 336 9 337
3 338 10 339
3 110 111 1
3 112 111 110
3 112 24 111
3 340 112 341
3 342 341 23
3 340 341 342
3 113 343 345
3 343 112 344
3 343 344 345
3 113 24 112
3 113 56 24
3 114 56 113
3 114 3 56
3 346 114 347
3 348 114 349
3 350 3 351
3 352 351 114
3 350 351 352
3 354 353 3
3 355 2 356
3 357 115 358
3 359 358 2
3 357 358 359
3 116 360 362
3 360 115 361
3 360 361 362
3 116 25 115
3 363 116 364
3 117 365 367
3 365 116 366
3 365 366 367
3 117 25 116
3 117 70 25
3 118 70 117
3 118 4 70
3 368 118 369
3 119 370 372
3 370 118 371
3 370 371 372
3 119 4 118
3 119 102 4
3 120 102 119
3 120 19 102
3 373 120 374
3 121 375 377
3 375 120 376
3 375 376 377
3 121 19 120
3 121 49 19
3 110 49 121
3 110 1 49
3 122 123 0
3 124 123 122
3 124 378 380
3 380 379 123
3 378 379 380
3 54 124 26
3 381 124 382
3 383 382 54
3 381 382 383
3 385 384 124
3 93 55 5
3 386 55 387
3 388 387 93
3 386 387 388
3 390 389 55
3 111 44 1
3 125 44 111
3 125 14 44
3 57 125 24
3 126 125 57
3 126 14 125
3 126 391 393
3 393 392 14
3 391 392 393
3 395 394 126
3 396 58 397
3 398 397 3
3 396 397 398
3 399 58 400
3 402 401 58
3 60 403 405
3 405 404 15
3 403 404 405
3 407 406 60
3 127 408 409
3 127 410 411
3 62 127 27
3 128 127 62
3 128 412 414
3 414 413 127
3 412 413 414
3 128 415 416
3 418 417 128
3 64 419 421
3 421 420 28
3 419 420 421
3 423 422 64
3 98 65 6
3 129 65 98
3 129 29 65
3 67 129 17
3 130 129 67
3 130 29 129
3 130 424 426
3 426 425 29
3 424 425 426
3 428 427 130
3 430 429 30
3 115 48 2
3 131 48 115
3 131 18 48
3 71 131 25
3 132 131 71
3 132 18 131
3 132 101 18
3 133 101 132
3 133 7 101
3 103 72 4
3 134 72 103
3 134 32 72
3 74 134 20
3 135 134 74
3 135 32 134
3 135 133 32
3 136 133 135
3 136 7 133
3 136 69 7
3 137 69 136
3 137 31 69
3 76 137 33
3 138 137 76
3 138 31 137
3 138 431 433
3 433 432 31
3 431 432 433
3 435 434 138
3 78 436 438
3 438 437 34
3 436 437 438
3 440 439 78
3 139 441 442
3 139 443 445
3 443 9 444
3 443 444 445
3 107 79 8
3 140 79 107
3 140 35 79
3 81 140 22
3 141 140 81
3 141 35 140
3 141 139 35
3 142 139 141
3 142 9 139
3 142 85 9
3 143 85 142
3 143 37 85
3 83 143 36
3 144 143 83
3 144 37 143
3 144 145 37
3 122 145 144
3 122 0 145
3 446 88 447
3 146 448 450
3 448 88 449
3 448 449 450
3 146 11 88
3 84 451 453
3 451 146 452
3 451 452 453
3 147 146 84
3 147 11 146
3 147 39 11
3 145 39 147
3 145 0 39
3 123 41 0
3 148 41 123
3 148 12 41
3 454 148 455
3 149 456 458
3 456 148 457
3 456 457 458
3 149 12 148
3 149 91 12
3 150 91 149
3 150 459 461
3 461 460 91
3 459 460 461
3 462 38 463
3 86 464 465
3 151 466 468
3 468 467 86
3 466 467 468
3 151 469 471
3 469 38 470
3 469 470 471
3 151 150 38
3 472 150 473
3 474 473 151
3 472 473 474
3 476 475 150
3 477 10 478
3 479 10 480
3 482 481 10
