ply
format ascii 1.0
element vertex 505
property float x
property float y
property float z
element face 528
property list uchar int vertex_index
end_header
-1.479315 80.363708 -3.589859
3.022797 54.22295 -14.312969
0.917259 57.477436 11.303925
4.95668 26.397987 -21.151928
-0.003195 68.215622 -10.65538
2.506313 58.240627 -2.260046
-0.989561 69.514893 3.449585
-3.800489 88.028885 5.336046
5.861725 37.297432 -14.221491
5.996712 46.090199 7.061603
-0.914957 74.550476 -7.464031
-0.558563 69.393494 -3.742357
-1.337069 75.130692 -0.104776
-2.036217 84.668411 -6.995155
-1.675959 83.206863 -14.422186
-0.992111 79.376511 -11.099203
4.581264 46.177761 -14.629206
4.780293 49.378681 -9.482582
1.842192 58.484745 4.369421
4.33252 52.565205 2.350189
3.424545 52.315868 8.836615
2.215927 50.828671 15.497937
1.943552 58.668644 -19.034969
3.225574 50.712337 -19.631618
4.401314 42.002594 -19.153545
3.799892 30.362846 -25.525734
1.387388 61.495144 -12.986744
2.849934 56.776836 -8.498795
0.92247 63.345654 -6.581097
0.408689 64.095261 0.155144
-0.216171 63.662457 7.234134
-1.470705 80.622925 -21.207863
-2.236181 85.108047 0.759307
-1.643713 80.376404 4.146482
-2.148113 84.498596 8.755438
-3.876692 88.182159 -2.500904
4.771458 51.555759 -3.798845
-1.491112 74.692093 7.514207
-1.30369 68.522491 10.957811
-0.831696 62.048771 14.602974
4.244949 36.74905 -22.867279
5.408394 32.519882 -18.025387
-1.214041 77.547653 -5.60041
-1.161783 74.963409 -3.813061
-1.40435 77.819473 -1.849602
-1.65386 82.680588 -5.315683
-1.445667 82.199738 -9.110497
-1.271955 79.990219 -7.374287
-0.943398 77.036758 -9.297697
3.828182 50.306995 -14.587454
4.689842 47.89909 -12.126661
3.843548 51.875202 -11.907249
1.4002 58.135227 7.806239
2.634575 55.482166 6.584925
2.118738 55.002224 9.971655
2.841679 51.721615 12.155491
1.559473 54.216724 13.401024
2.37875 56.472858 -16.692478
2.588493 54.773716 -19.47905
3.112999 52.582767 -17.044579
3.820892 48.502277 -17.129166
4.354954 28.369465 -23.37273
3.956284 24.823658 -24.505772
0.641258 64.909775 -11.939058
1.151491 62.550152 -9.824078
0.360023 65.791702 -8.639843
-0.786314 69.590775 -0.184869
-0.149817 66.76767 -1.827171
-0.402893 66.838364 1.696908
0.106583 64.028458 3.65305
-0.656658 66.621307 5.304435
-0.924189 80.48024 -16.433283
-1.529362 82.066147 -17.925919
-0.694715 79.210892 -19.873196
0.343882 67.255737 -14.017904
0.959192 63.783344 -15.165951
-2.889051 86.840714 3.034921
-2.228355 84.939957 4.727664
-2.82353 86.507126 7.038386
-3.86339 88.245239 1.382722
-2.889154 86.89798 -0.906799
2.712765 57.654789 -5.431107
3.787155 54.253323 -6.174549
3.652939 55.024723 -3.133179
5.203667 49.433903 4.711808
5.537601 49.19495 1.615105
-1.606262 79.996155 8.106567
-1.547205 77.616638 5.830711
-1.510895 77.120865 9.771898
-1.389404 67.603668 14.819228
-1.110214 65.32048 12.752983
-1.268358 64.24498 16.569708
3.867043 41.616547 -23.627708
5.082912 39.72604 -16.647068
4.925354 37.343925 -18.631771
5.622906 35.064106 -16.20997
-0.521723 71.430054 -9.156481
-0.300957 68.931656 -7.230274
-0.806751 71.989929 -5.614367
-1.0345 72.300568 -2.013386
-1.211548 72.353134 1.654352
-2.734688 86.222351 -8.57766
-2.63413 85.491699 -12.268387
-1.860052 84.068558 -10.762533
-1.19026 81.470215 -12.827696
5.262341 41.833462 -14.484976
5.453678 43.690956 -12.158628
5.630928 45.309978 -9.677937
5.759583 46.686642 -7.050472
2.216015 58.519787 1.009703
3.41766 55.493099 0.015636
3.075127 55.646908 3.260194
3.93066 52.599186 5.561209
4.74416 49.359615 7.876988
5.488358 45.923641 10.169037
4.180431 48.974216 11.087772
3.352524 48.607868 -22.033524
3.858906 44.170067 -21.690811
3.83374 46.460247 -19.50906
4.481213 44.215961 -16.978134
3.314564 26.806938 -26.411194
2.195873 57.943264 -13.781096
2.943401 55.626186 -11.460716
2.029711 59.17384 -10.767313
1.857929 60.147015 -7.659634
1.654924 60.843464 -4.459139
0.101416 66.41539 -5.270773
0.679699 63.865047 -3.255875
1.400478 61.246639 -1.165211
1.086153 61.345661 2.220531
0.718157 61.136326 5.692205
0.31629 60.620785 9.23913
-2.572451 84.485382 -15.811928
-2.597355 83.181793 -19.149155
-2.754183 81.553955 -22.208153
1.648808 60.197186 -16.063597
-1.791332 82.916245 -1.45974
-1.603445 80.495071 0.249343
-1.84757 82.90239 2.453078
-1.823076 82.629013 6.424652
-3.858385 87.850616 -6.303223
-2.830853 86.690063 -4.781914
-2.169081 85.014999 -3.149744
3.840683 53.196644 -9.100908
4.818584 50.603916 -6.704346
4.613598 52.214634 -0.775911
-1.513857 77.845779 1.958474
-1.445475 75.043488 3.668741
-1.341478 72.138992 5.396502
-1.475834 74.067749 11.433212
-1.422647 71.651031 9.216227
-1.165525 69.159775 7.164684
-0.899036 66.114624 8.992825
-0.538034 63.000111 10.889021
-0.09041 59.806545 12.846262
-1.070753 60.819843 18.357029
-0.469999 58.7057 16.495188
0.427004 56.522953 14.843978
4.088013 33.690643 -24.341217
4.606255 31.66357 -22.008739
4.332798 39.518986 -21.127506
4.778088 34.660374 -20.423981
5.200676 29.630058 -19.670811
4.784678 24.635278 -21.810992
4.483815 25.621018 -22.921392
4.655817 27.383726 -22.262329
-0.508479 78.305405 -19.074087
-0.809452 79.845566 -18.153239
-0.623216 78.940079 -17.354131
-0.356331 77.608566 -20.750466
-0.508479 78.305405 -19.074087
0.170344 67.73568 -12.336642
0.084569 68.942131 -13.329949
-0.08897 69.422073 -11.648687
-3.831939 88.137062 3.359384
-4.48651 88.620323 2.537153
-4.45506 88.512146 4.513815
6.268889 35.980528 -13.067626
6.119088 34.964686 -14.069746
6.188957 46.020802 5.532635
5.792435 47.692654 4.357737
5.600189 47.762051 5.886705
6.556672 44.287521 6.706091
6.188957 46.020802 5.532635
6.344038 44.314316 8.211607
6.556672 44.287521 6.706091
-1.505987 78.231529 10.951836
-1.558579 78.55851 8.939232
-1.55367 79.669174 10.119171
-1.399367 67.00576 16.775983
-1.401536 68.721199 15.942763
-1.338844 65.326416 17.651222
-1.328881 65.924324 15.694468
-1.399367 67.00576 16.775983
3.665667 43.937075 -23.910915
3.689919 42.632221 -24.838262
6.119088 34.964686 -14.069746
5.999678 33.848022 -15.063985
5.742316 36.180769 -15.21573
-0.827668 78.946884 -12.922392
-0.926743 79.993736 -13.786638
-1.091185 80.423363 -11.963449
-0.79706 77.832214 -12.017399
-0.827668 78.946884 -12.922392
-0.755116 74.224289 -9.262595
-0.769336 75.46743 -10.179428
-0.929177 75.793617 -8.380864
-0.71834 72.990265 -8.310256
-0.558499 72.664078 -10.10882
-0.755116 74.224289 -9.262595
2.879072 49.557496 14.910495
3.191948 50.003968 13.239272
2.528803 51.275143 13.826714
2.5397 49.069298 16.531138
2.879072 49.557496 14.910495
2.102469 57.791343 -20.448087
1.825087 59.751683 -20.17604
3.020916 51.779877 -20.86553
2.702375 53.810566 -20.789246
2.907033 52.743026 -19.555334
3.289049 49.660103 -20.832571
3.08439 50.727642 -22.066483
3.020916 51.779877 -20.86553
3.557228 28.584892 -25.968464
3.2885 29.571411 -26.96687
3.531164 31.349365 -26.52414
3.647194 22.959057 -24.954234
4.024534 21.979471 -24.062142
-1.509845 79.737472 -22.699182
-2.151584 80.202988 -23.199327
-2.112444 81.08844 -21.708008
-1.937268 83.290985 9.606482
-1.774749 82.356194 8.441088
-1.985594 83.563805 7.590045
-4.562011 88.537467 -3.235035
-4.533912 88.632827 -1.340728
-3.867539 88.016388 -4.402063
-4.552858 88.371696 -5.136195
-4.562011 88.537467 -3.235035
5.287947 49.68082 -4.041522
5.31151 49.204899 -5.494273
4.795021 51.079837 -5.251596
5.637016 48.921501 0.112381
6.082617 47.352386 1.317519
5.818066 44.110802 11.286234
5.184067 45.689858 11.736117
-1.437952 73.616127 13.426733
-1.44378 75.208176 12.607253
-1.363169 70.086761 10.087019
-1.43584 71.267807 11.163035
-1.376362 69.703537 12.033826
-1.15328 60.074211 20.243315
-1.21336 61.859032 19.390059
-0.253391 56.996792 17.450953
-0.632068 58.020038 18.330303
0.19511 55.905418 16.625349
-0.021498 57.614327 15.669583
-0.253391 56.996792 17.450953
0.709628 54.831715 15.848795
0.19511 55.905418 16.625349
4.166481 35.219847 -23.604248
3.949173 36.239731 -24.805658
4.027641 37.768934 -24.068689
5.631298 30.063238 -17.718942
5.527439 28.618326 -18.541654
5.304535 31.07497 -18.848099
4.284479 23.848114 -23.487913
4.155619 26.596561 -23.939251
4.483815 25.621018 -22.921392
4.024534 21.979471 -24.062142
4.284479 23.848114 -23.487913
-0.624924 78.425148 -21.474312
-1.012919 79.131164 -22.141645
-1.08271 79.916909 -20.540529
-0.624924 78.425148 -21.474312
-0.356331 77.608566 -20.750466
0.287304 68.422852 -15.039341
0.084569 68.942131 -13.329949
0.542386 66.657837 -15.661324
0.287304 68.422852 -15.039341
0.651537 65.519541 -14.591928
0.850042 64.92164 -16.235348
0.542386 66.657837 -15.661324
-4.527261 88.664367 0.601085
-4.48651 88.620323 2.537153
-3.870041 88.213699 -0.559091
-4.533912 88.632827 -1.340728
-4.527261 88.664367 0.601085
5.959402 47.573177 2.809385
5.370634 49.314426 3.163457
5.792435 47.692654 4.357737
6.082617 47.352386 1.317519
5.959402 47.573177 2.809385
-1.419219 69.244125 13.964535
-1.401536 68.721199 15.942763
-1.346547 68.06308 12.88852
-1.376362 69.703537 12.033826
-1.419219 69.244125 13.964535
3.838688 40.202682 -24.448904
3.689919 42.632221 -24.838262
4.055996 39.182798 -23.247493
4.027641 37.768934 -24.068689
3.838688 40.202682 -24.448904
5.862535 32.68536 -15.97816
5.75528 31.413248 -16.885868
5.51565 33.791994 -17.117678
5.862535 32.68536 -15.97816
5.999678 33.848022 -15.063985
5.125261 23.707828 -20.764809
5.280188 25.446556 -20.049484
-2.684409 85.857025 -10.423023
-3.236799 86.373138 -11.135298
-3.287078 86.738464 -9.289935
-0.793707 79.498749 -15.589432
-1.057225 80.975227 -14.630489
-0.926743 79.993736 -13.786638
-0.623216 78.940079 -17.354131
-0.793707 79.498749 -15.589432
-0.772703 76.662338 -11.116646
-0.79706 77.832214 -12.017399
-0.967754 78.206635 -10.19845
-0.772703 76.662338 -11.116646
-0.769336 75.46743 -10.179428
-0.348234 71.02929 -10.899237
-0.558499 72.664078 -10.10882
-0.262459 69.822838 -9.905931
-0.08897 69.422073 -11.648687
-0.348234 71.02929 -10.899237
-3.742049 87.774025 7.344645
-4.39416 88.320701 6.486129
-4.39416 88.320701 6.486129
-4.45506 88.512146 4.513815
5.690268 40.549065 -13.273791
5.98996 38.28105 -13.142048
5.562033 39.565447 -14.353233
5.785937 41.477812 -12.110616
5.690268 40.549065 -13.273791
5.358009 42.762209 -13.321802
5.910801 42.343403 -10.949045
5.785937 41.477812 -12.110616
5.999426 43.152914 -9.708699
5.910801 42.343403 -10.949045
5.542303 44.500467 -10.918283
6.103924 43.904526 -8.468597
5.999426 43.152914 -9.708699
6.168252 44.592858 -7.154865
6.103924 43.904526 -8.468597
5.695256 45.99831 -8.364204
6.234426 45.225883 -5.840519
6.168252 44.592858 -7.154865
4.530103 47.215145 12.195485
5.184067 45.689858 11.736117
4.834395 47.448929 10.628404
3.861324 48.630268 12.705412
3.511055 50.347915 11.621631
3.191948 50.003968 13.239272
4.530103 47.215145 12.195485
3.861324 48.630268 12.705412
2.42494 55.843879 -20.670128
2.102469 57.791343 -20.448087
2.266023 56.72118 -19.25701
2.42494 55.843879 -20.670128
2.702375 53.810566 -20.789246
3.192045 49.647091 -23.263091
3.08439 50.727642 -22.066483
3.408408 47.432736 -23.113823
3.192045 49.647091 -23.263091
3.605715 46.388968 -21.862167
3.661599 45.213835 -22.942467
3.408408 47.432736 -23.113823
2.983576 27.787491 -27.261418
3.2885 29.571411 -26.96687
2.942257 24.944534 -26.708053
2.983576 27.787491 -27.261418
3.326334 23.950697 -25.906945
3.635424 25.815298 -25.458483
3.647194 22.959057 -24.954234
2.942257 24.944534 -26.708053
3.326334 23.950697 -25.906945
4.784678 24.635278 -21.810992
5.125261 23.707828 -20.764809
-3.247422 85.940002 -12.915023
-3.236799 86.373138 -11.135298
-3.216583 85.436844 -14.686794
-3.247422 85.940002 -12.915023
-2.60329 84.98854 -14.040157
-3.269744 84.860298 -16.370825
-3.216583 85.436844 -14.686794
-3.282196 84.208504 -18.039439
-3.269744 84.860298 -16.370825
-2.584903 83.833587 -17.480542
-3.398859 83.47567 -19.595234
-3.282196 84.208504 -18.039439
-3.477273 82.661751 -21.124733
-3.398859 83.47567 -19.595234
-2.675769 82.367874 -20.678654
-3.673311 81.757782 -22.516794
-3.477273 82.661751 -21.124733
-2.916492 80.564903 -23.560797
-3.673311 81.757782 -22.516794
-2.916492 80.564903 -23.560797
-2.151584 80.202988 -23.199327
-1.509845 79.737472 -22.699182
-1.012919 79.131164 -22.141645
1.630961 60.546013 -18.669556
1.825087 59.751683 -20.17604
1.13878 63.103363 -16.735046
0.850042 64.92164 -16.235348
1.483588 61.310284 -17.18387
1.13878 63.103363 -16.735046
1.304 61.990265 -15.614774
1.79618 59.432915 -17.549283
1.630961 60.546013 -18.669556
1.483588 61.310284 -17.18387
-1.666343 81.039765 9.282046
-1.714669 81.312584 7.26561
-1.774749 82.356194 8.441088
-1.55367 79.669174 10.119171
-1.666343 81.039765 9.282046
-3.25357 87.013146 8.195816
-3.312009 87.268006 6.187216
-3.742049 87.774025 7.344645
-2.760542 86.195572 9.069968
-3.25357 87.013146 8.195816
-2.422833 85.191307 9.928494
-2.485822 85.502861 7.896912
-2.760542 86.195572 9.069968
-2.077452 84.134903 10.798865
-2.422833 85.191307 9.928494
-1.937268 83.290985 9.606482
-2.077452 84.134903 10.798865
-4.582342 88.142837 -6.979264
-4.552858 88.371696 -5.136195
-3.848927 87.552597 -8.152716
-4.582342 88.142837 -6.979264
-3.296537 87.036484 -7.440442
-3.287078 86.738464 -9.289935
-3.848927 87.552597 -8.152716
6.268889 35.980528 -13.067626
5.98996 38.28105 -13.142048
5.78201 47.246262 -5.667336
5.289084 48.645279 -6.877409
5.31151 49.204899 -5.494273
6.234426 45.225883 -5.840519
5.78201 47.246262 -5.667336
5.175014 50.431343 -1.083127
5.0756 50.704792 0.419597
5.637016 48.921501 0.112381
5.253944 50.101906 -2.594594
4.692528 51.885196 -2.287378
5.175014 50.431343 -1.083127
5.287947 49.68082 -4.041522
5.253944 50.101906 -2.594594
6.089861 44.231037 9.765324
6.344038 44.314316 8.211607
5.742535 46.00692 8.61532
6.089861 44.231037 9.765324
5.818066 44.110802 11.286234
-1.461311 76.734734 11.776596
-1.505987 78.231529 10.951836
-1.493365 75.594307 10.602555
-1.461311 76.734734 11.776596
-1.44378 75.208176 12.607253
-1.462434 72.476166 12.271527
-1.437952 73.616127 13.426733
-1.449241 72.85939 10.32472
-1.462434 72.476166 12.271527
-1.43584 71.267807 11.163035
-1.312162 63.5716 18.496398
-1.338844 65.326416 17.651222
-1.169555 62.532411 17.463369
-1.312162 63.5716 18.496398
-1.21336 61.859032 19.390059
-0.932445 59.07711 19.261224
-1.15328 60.074211 20.243315
-0.770376 59.762771 17.426108
-0.932445 59.07711 19.261224
-0.632068 58.020038 18.330303
1.275863 53.6786 15.127318
0.993239 55.369839 14.122501
0.709628 54.831715 15.848795
1.60409 51.984573 16.175774
1.8877 52.522697 14.44948
1.275863 53.6786 15.127318
1.899274 50.241433 17.171812
1.60409 51.984573 16.175774
2.5397 49.069298 16.531138
1.899274 50.241433 17.171812
3.714682 33.025795 -26.050939
3.531164 31.349365 -26.52414
3.858742 34.689694 -25.458681
3.949173 36.239731 -24.805658
3.943952 32.026744 -24.933476
3.714682 33.025795 -26.050939
3.858742 34.689694 -25.458681
3.862974 42.893307 -22.659259
3.665667 43.937075 -23.910915
3.661599 45.213835 -22.942467
5.402185 27.062591 -19.308926
5.280188 25.446556 -20.049484
5.078678 28.014022 -20.411369
5.402185 27.062591 -19.308926
5.527439 28.618326 -18.541654
5.631298 30.063238 -17.718942
5.75528 31.413248 -16.885868
3 0 44 42
3 0 47 45
3 0 42 47
3 1 51 49
3 2 54 52
3 2 56 54
3 1 59 57
3 1 49 59
3 3 163 165
3 165 164 61
3 163 164 165
3 4 65 63
3 6 68 66
3 6 70 68
3 166 73 167
3 168 167 71
3 166 167 168
3 170 169 73
3 4 171 173
3 171 74 172
3 171 172 173
3 4 63 74
3 7 78 76
3 7 174 176
3 174 79 175
3 174 175 176
3 7 76 79
3 8 177 178
3 5 83 81
3 9 179 181
3 181 180 84
3 179 180 181
3 9 182 183
3 9 184 185
3 186 88 187
3 188 187 86
3 186 187 188
3 189 89 190
3 191 91 192
3 193 192 89
3 191 192 193
3 194 92 195
3 8 95 93
3 8 196 198
3 198 197 95
3 196 197 198
3 10 98 96
3 12 99 43
3 12 100 99
3 13 103 101
3 15 104 46
3 15 199 201
3 201 200 104
3 199 200 201
3 15 202 203
3 10 204 206
3 206 205 48
3 204 205 206
3 10 207 209
3 207 96 208
3 207 208 209
3 16 106 105
3 17 107 50
3 17 108 107
3 18 111 109
3 20 112 53
3 20 113 112
3 20 115 113
3 21 210 212
3 212 211 55
3 210 211 212
3 21 213 214
3 22 215 216
3 23 217 219
3 219 218 58
3 217 218 219
3 23 220 222
3 220 116 221
3 220 221 222
3 23 118 116
3 16 119 60
3 16 105 119
3 25 223 225
3 223 120 224
3 223 224 225
3 227 226 62
3 26 123 121
3 28 124 64
3 28 125 124
3 11 126 97
3 29 127 67
3 29 128 127
3 29 129 128
3 30 130 69
3 30 131 130
3 14 132 102
3 31 133 72
3 31 134 133
3 31 228 230
3 230 229 134
3 228 229 230
3 26 135 75
3 26 121 135
3 32 138 136
3 34 139 77
3 34 231 233
3 233 232 139
3 231 232 233
3 35 234 235
3 35 236 238
3 236 140 237
3 236 237 238
3 35 141 140
3 32 142 80
3 32 136 142
3 27 143 122
3 36 144 82
3 36 239 241
3 241 240 144
3 239 240 241
3 19 145 110
3 243 242 85
3 245 244 114
3 33 146 137
3 37 147 87
3 37 148 147
3 246 149 247
3 38 248 250
3 248 150 249
3 248 249 250
3 38 151 150
3 38 152 151
3 39 153 90
3 39 154 153
3 251 155 252
3 253 156 254
3 255 157 256
3 257 256 156
3 255 256 257
3 259 258 157
3 40 260 262
3 260 158 261
3 260 261 262
3 40 159 158
3 24 160 117
3 41 161 94
3 41 162 161
3 41 263 265
3 265 264 162
3 263 264 265
3 42 43 10
3 44 43 42
3 44 12 43
3 45 46 13
3 47 46 45
3 47 15 46
3 47 48 15
3 42 48 47
3 42 10 48
3 49 50 16
3 51 50 49
3 51 17 50
3 52 53 18
3 54 53 52
3 54 20 53
3 54 55 20
3 56 55 54
3 56 21 55
3 57 58 22
3 59 58 57
3 59 23 58
3 59 60 23
3 49 60 59
3 49 16 60
3 61 62 25
3 266 62 267
3 268 267 61
3 266 267 268
3 270 269 62
3 63 64 26
3 65 64 63
3 65 28 64
3 66 67 11
3 68 67 66
3 68 29 67
3 68 69 29
3 70 69 68
3 70 30 69
3 71 72 14
3 73 72 71
3 73 31 72
3 73 271 273
3 273 272 31
3 271 272 273
3 275 274 73
3 74 276 277
3 74 278 279
3 74 280 282
3 280 75 281
3 280 281 282
3 63 75 74
3 63 26 75
3 76 77 32
3 78 77 76
3 78 34 77
3 79 283 284
3 79 285 287
3 285 35 286
3 285 286 287
3 79 80 35
3 76 80 79
3 76 32 80
3 81 82 27
3 83 82 81
3 83 36 82
3 84 85 19
3 288 85 289
3 290 289 84
3 288 289 290
3 292 291 85
3 86 87 33
3 88 87 86
3 88 37 87
3 89 293 294
3 89 295 297
3 295 38 296
3 295 296 297
3 89 90 38
3 91 90 89
3 91 39 90
3 92 298 299
3 92 300 302
3 300 40 301
3 300 301 302
3 93 94 24
3 95 94 93
3 95 41 94
3 95 303 305
3 305 304 41
3 303 304 305
3 307 306 95
3 309 308 3
3 96 97 4
3 98 97 96
3 98 11 97
3 43 98 10
3 99 98 43
3 99 11 98
3 99 66 11
3 100 66 99
3 100 6 66
3 101 310 312
3 310 102 311
3 310 311 312
3 103 102 101
3 103 14 102
3 46 103 13
3 104 103 46
3 104 14 103
3 104 71 14
3 313 71 314
3 315 314 104
3 313 314 315
3 317 316 71
3 48 318 320
3 320 319 15
3 318 319 320
3 322 321 48
3 96 323 324
3 96 325 327
3 325 4 326
3 325 326 327
3 329 328 7
3 330 7 331
3 105 332 334
3 334 333 8
3 332 333 334
3 106 335 337
3 337 336 105
3 335 336 337
3 106 338 339
3 50 106 16
3 107 106 50
3 107 340 342
3 342 341 106
3 340 341 342
3 107 343 344
3 108 345 347
3 347 346 107
3 345 346 347
3 108 348 349
3 109 110 5
3 111 110 109
3 111 19 110
3 53 111 18
3 112 111 53
3 112 19 111
3 112 84 19
3 113 84 112
3 113 9 84
3 113 114 9
3 115 114 113
3 115 350 352
3 352 351 114
3 350 351 352
3 55 115 20
3 353 115 354
3 355 354 55
3 353 354 355
3 357 356 115
3 58 358 360
3 360 359 22
3 358 359 360
3 362 361 58
3 116 363 364
3 116 365 366
3 116 367 369
3 367 117 368
3 367 368 369
3 118 117 116
3 118 24 117
3 60 118 23
3 119 118 60
3 119 24 118
3 119 93 24
3 105 93 119
3 105 8 93
3 120 370 371
3 120 372 373
3 62 120 25
3 374 120 375
3 376 375 62
3 374 375 376
3 378 377 120
3 380 379 3
3 121 122 1
3 123 122 121
3 123 27 122
3 64 123 26
3 124 123 64
3 124 27 123
3 124 81 27
3 125 81 124
3 125 5 81
3 97 65 4
3 126 65 97
3 126 28 65
3 67 126 11
3 127 126 67
3 127 28 126
3 127 125 28
3 128 125 127
3 128 5 125
3 128 109 5
3 129 109 128
3 129 18 109
3 69 129 29
3 130 129 69
3 130 18 129
3 130 52 18
3 131 52 130
3 131 2 52
3 102 381 382
3 132 383 385
3 385 384 102
3 383 384 385
3 132 386 387
3 72 132 14
3 133 132 72
3 133 388 390
3 390 389 132
3 388 389 390
3 133 391 392
3 134 393 395
3 395 394 133
3 393 394 395
3 134 396 397
3 134 398 399
3 401 400 134
3 403 402 31
3 404 22 405
3 75 406 407
3 135 408 410
3 410 409 75
3 408 409 410
3 135 411 413
3 411 22 412
3 411 412 413
3 135 57 22
3 121 57 135
3 121 1 57
3 136 137 0
3 138 137 136
3 138 33 137
3 77 138 32
3 139 138 77
3 139 33 138
3 139 86 33
3 414 86 415
3 416 415 139
3 414 415 416
3 418 417 86
3 419 78 420
3 421 420 7
3 419 420 421
3 422 78 423
3 424 34 425
3 426 425 78
3 424 425 426
3 427 34 428
3 430 429 34
3 140 431 432
3 140 433 434
3 140 435 437
3 435 101 436
3 435 436 437
3 141 101 140
3 141 13 101
3 80 141 35
3 142 141 80
3 142 13 141
3 142 45 13
3 136 45 142
3 136 0 45
3 439 438 8
3 122 51 1
3 143 51 122
3 143 17 51
3 82 143 27
3 144 143 82
3 144 17 143
3 144 108 17
3 440 108 441
3 442 441 144
3 440 441 442
3 444 443 108
3 110 83 5
3 145 83 110
3 145 36 83
3 85 145 19
3 445 145 446
3 447 446 85
3 445 446 447
3 448 36 449
3 450 449 145
3 448 449 450
3 452 451 36
3 114 453 455
3 455 454 9
3 453 454 455
3 457 456 114
3 137 44 0
3 146 44 137
3 146 12 44
3 87 146 33
3 147 146 87
3 147 12 146
3 147 100 12
3 148 100 147
3 148 6 100
3 458 88 459
3 149 460 462
3 460 88 461
3 460 461 462
3 149 37 88
3 463 149 464
3 150 465 467
3 465 149 466
3 465 466 467
3 150 37 149
3 150 148 37
3 151 148 150
3 151 6 148
3 151 70 6
3 152 70 151
3 152 30 70
3 90 152 38
3 153 152 90
3 153 30 152
3 153 131 30
3 154 131 153
3 154 2 131
3 468 91 469
3 155 470 472
3 470 91 471
3 470 471 472
3 155 39 91
3 473 155 474
3 156 475 477
3 475 155 476
3 475 476 477
3 156 39 155
3 156 154 39
3 157 154 156
3 157 2 154
3 157 56 2
3 478 56 479
3 480 479 157
3 478 479 480
3 481 21 482
3 483 482 56
3 481 482 483
3 484 21 485
3 487 486 21
3 488 25 489
3 158 490 491
3 158 492 494
3 492 25 493
3 492 493 494
3 158 61 25
3 159 61 158
3 159 3 61
3 117 495 497
3 495 92 496
3 495 496 497
3 160 92 117
3 160 40 92
3 94 160 24
3 161 160 94
3 161 40 160
3 161 159 40
3 162 159 161
3 162 3 159
3 162 498 500
3 500 499 3
3 498 499 500
3 502 501 162
3 504 503 41
