ply
format ascii 1.0
element vertex 130
property float x
property float y
property float z
element face 94
property list uchar int vertex_index
end_header
-2.257914 19.18018 -28.632885
-9.645025 14.660217 -27.850517
-12.745764 17.033455 -28.497551
2.56995 23.08213 -27.004913
-3.583618 20.862389 -28.983982
-5.717005 16.980263 -28.270981
-4.299921 15.329597 -28.053349
2.432232 17.262833 -26.064709
1.513535 19.258785 -27.330284
-8.755299 19.728558 -28.695126
-10.354362 20.797462 -28.976776
-11.184381 15.937603 -28.132072
3.338104 21.094456 -25.402695
-7.205408 18.453144 -28.468891
-8.135906 13.203968 -27.646252
-1.033306 17.349777 -28.126892
-2.920766 20.021285 -28.808433
-2.662952 22.819828 -29.33645
-2.0001 21.978724 -29.160902
1.80665 15.337759 -26.282272
2.324171 14.337722 -25.708424
3.715445 20.11487 -24.510603
3.647194 22.959057 -24.954234
3.328157 18.188562 -24.993529
3.715445 20.11487 -24.510603
-6.109451 20.407716 -28.853115
-6.872225 21.052956 -28.96055
-7.400823 12.392781 -27.567265
-6.926456 15.092116 -27.958616
-6.191372 14.280929 -27.879629
-8.736462 10.604661 -27.338421
-7.400823 12.392781 -27.567265
2.161919 24.060144 -27.688671
2.611269 25.925087 -27.558277
1.023118 20.234058 -27.84305
0.80947 17.335056 -27.376841
-0.463951 16.380552 -27.775145
-0.250303 19.279554 -28.241354
-12.369231 19.348793 -28.906105
-11.17353 21.230797 -29.145717
-11.550063 18.915458 -28.737164
-10.976075 12.861347 -27.66138
-10.231707 12.134089 -27.527132
-3.329941 23.586756 -29.523222
-2.662952 22.819828 -29.33645
-4.298555 21.612339 -29.110661
-3.329941 23.586756 -29.523222
-4.650311 18.921326 -28.627482
-5.365249 19.671276 -28.75416
-4.298555 21.612339 -29.110661
-5.48283 13.455596 -27.770813
-6.191372 14.280929 -27.879629
-5.008463 16.15493 -28.162165
1.347301 16.335735 -26.91506
1.972884 18.260809 -26.697496
1.80665 15.337759 -26.282272
0.80947 17.335056 -27.376841
1.347301 16.335735 -26.91506
-13.535149 17.495018 -28.713606
-14.01509 15.270764 -28.407749
-1.40076 21.121853 -28.884093
-2.0001 21.978724 -29.160902
-9.554831 20.26301 -28.835951
-9.249674 22.757223 -29.325825
-8.450142 22.222771 -29.184999
-11.745753 13.50004 -27.802158
-10.414703 15.29891 -27.991295
-10.976075 12.861347 -27.66138
-12.490704 14.149767 -27.98986
-11.745753 13.50004 -27.802158
-13.271396 14.697693 -28.1726
-11.965072 16.485529 -28.314812
-12.490704 14.149767 -27.98986
-14.01509 15.270764 -28.407749
-13.271396 14.697693 -28.1726
2.942257 24.944534 -26.708053
2.611269 25.925087 -27.558277
3.326334 23.950697 -25.906945
3.647194 22.959057 -24.954234
2.954027 22.088293 -26.203804
2.942257 24.944534 -26.708053
3.326334 23.950697 -25.906945
2.875221 16.272751 -25.324535
2.885168 19.178645 -25.733702
3.328157 18.188562 -24.993529
2.324171 14.337722 -25.708424
2.875221 16.272751 -25.324535
-7.647171 21.690663 -29.073667
-8.450142 22.222771 -29.184999
-7.980354 19.090851 -28.582009
-7.647171 21.690663 -29.073667
-6.872225 21.052956 -28.96055
-6.461207 17.716704 -28.369936
-6.109451 20.407716 -28.853115
-5.365249 19.671276 -28.75416
-9.477147 11.405965 -27.424999
-10.231707 12.134089 -27.527132
-8.890466 13.932092 -27.748385
-9.477147 11.405965 -27.424999
-8.736462 10.604661 -27.338421
1.633712 22.148471 -27.851357
2.161919 24.060144 -27.688671
2.041742 21.170457 -27.167598
1.633712 22.148471 -27.851357
1.023118 20.234058 -27.84305
-0.788456 20.206651 -28.631096
-0.250303 19.279554 -28.241354
-1.64561 18.264978 -28.379888
-1.40076 21.121853 -28.884093
-0.788456 20.206651 -28.631096
-1.357017 14.481078 -27.728396
-0.463951 16.380552 -27.775145
-1.995022 15.439284 -27.942538
-1.357017 14.481078 -27.728396
-2.607327 16.354485 -28.195534
-1.64561 18.264978 -28.379888
-1.995022 15.439284 -27.942538
-3.62833 14.429194 -27.905766
-3.278918 17.254888 -28.343117
-2.607327 16.354485 -28.195534
-4.769793 12.571763 -27.690281
-3.62833 14.429194 -27.905766
-5.48283 13.455596 -27.770813
-4.769793 12.571763 -27.690281
-10.085076 23.174891 -29.45195
-9.249674 22.757223 -29.325825
-10.085076 23.174891 -29.45195
-11.17353 21.230797 -29.145717
-12.369231 19.348793 -28.906105
-13.535149 17.495018 -28.713606
3 0 16 18
3 16 4 17
3 16 17 18
3 0 6 4
3 20 19 7
3 1 11 9
3 21 12 22
3 24 23 12
3 25 13 26
3 27 14 28
3 29 28 5
3 27 28 29
3 31 30 14
3 3 32 33
3 35 34 8
3 36 15 37
3 2 38 40
3 40 39 10
3 38 39 40
3 42 41 1
3 4 43 44
3 4 45 46
3 4 47 49
3 47 5 48
3 47 48 49
3 6 5 4
3 6 50 52
3 52 51 5
3 50 51 52
3 7 8 3
3 53 8 54
3 55 54 7
3 53 54 55
3 57 56 8
3 59 58 2
3 60 0 61
3 9 62 64
3 62 10 63
3 62 63 64
3 11 10 9
3 11 2 10
3 65 11 66
3 67 66 1
3 65 66 67
3 68 11 69
3 70 2 71
3 72 71 11
3 70 71 72
3 74 73 2
3 75 3 76
3 12 77 78
3 12 79 81
3 79 3 80
3 79 80 81
3 12 7 3
3 82 7 83
3 84 83 12
3 82 83 84
3 86 85 7
3 87 9 88
3 13 89 91
3 89 9 90
3 89 90 91
3 13 1 9
3 5 92 94
3 92 13 93
3 92 93 94
3 14 13 5
3 14 1 13
3 14 95 97
3 97 96 1
3 95 96 97
3 99 98 14
3 8 100 102
3 102 101 3
3 100 101 102
3 104 103 8
3 15 105 106
3 15 107 109
3 107 0 108
3 107 108 109
3 110 15 111
3 112 15 113
3 114 0 115
3 116 115 15
3 114 115 116
3 117 6 118
3 119 118 0
3 117 118 119
3 120 6 121
3 123 122 6
3 10 124 125
3 127 126 10
3 129 128 2
