ply
format ascii 1.0
element vertex 226
property float x
property float y
property float z
element face 219
property list uchar int vertex_index
end_header
-67.32251 -55.998566 -11.840799
-63.194962 -53.434086 -5.876457
-66.253845 -50.0471 -13.234179
-68.285942 -50.636299 -16.375706
-63.492458 -59.046001 -4.493874
-61.785309 -57.082909 -1.631521
-66.884918 -62.116474 -10.371033
-66.558853 -63.482475 -13.70623
-68.241028 -57.011356 -15.042976
-68.954857 -51.332954 -19.65324
-65.649857 -60.727791 -7.315315
-65.222786 -54.880554 -8.848652
-63.985153 -49.209045 -10.096088
-62.962227 -47.993534 -6.808855
-62.920475 -43.69492 -10.841192
-65.372147 -47.158966 -13.812176
-66.612579 -47.378059 -15.401529
-61.405998 -59.794201 -0.925827
-60.838959 -58.715836 0.534358
-67.31897 -59.049507 -11.098278
-67.664764 -59.638866 -12.701382
-67.977341 -56.496422 -13.410839
-68.827301 -50.94923 -17.995041
-63.389526 -56.218769 -5.231443
-64.45961 -57.047207 -6.665546
-64.103134 -54.199703 -7.375389
-64.646004 -52.020649 -9.525066
-63.655964 -51.399124 -7.986694
-62.967529 -45.917076 -8.83399
-67.148705 -60.925056 -16.066963
-65.849167 -64.228729 -15.40362
-66.940704 -52.993393 -12.565115
-67.869812 -53.393738 -14.118553
-67.388367 -50.352226 -14.793518
-62.31834 -60.874416 -2.324324
-62.488819 -58.082329 -3.086594
-62.574295 -55.325336 -3.762297
-66.011551 -65.156693 -9.684584
-65.76104 -65.886154 -11.364401
-66.919754 -62.784107 -12.014193
-67.601059 -60.254936 -14.367363
-68.094681 -57.58028 -16.724407
-68.46489 -53.794949 -15.719429
-68.657967 -54.241875 -17.370483
-68.44043 -54.765278 -19.057796
-66.445381 -61.444672 -8.803204
-66.596008 -58.44627 -9.567789
-64.610497 -59.932594 -5.89003
-65.591705 -57.788155 -8.099199
-66.357307 -55.473011 -10.327116
-65.806938 -52.547428 -11.042345
-65.053322 -49.675735 -11.675966
-64.225266 -46.852402 -12.196264
-61.522564 -56.108246 -0.104029
-62.171333 -54.413128 -2.2325
-62.669235 -52.613251 -4.327616
-63.018597 -50.694733 -6.405901
-63.239986 -48.641586 -8.476654
-63.370304 -46.437183 -10.538811
-63.457047 -44.06736 -12.580219
-65.150818 -66.646927 -13.066628
-65.511475 -45.813141 -14.860747
-64.898857 -45.739897 -14.040314
-60.301306 -59.47468 1.644774
-60.50261 -60.037756 0.902321
-66.754436 -61.289552 -16.911451
-67.358143 -59.573082 -17.245943
-67.180458 -47.464378 -16.19312
-66.770038 -45.959615 -16.45892
-61.637563 -61.702974 -1.232465
-62.146828 -62.275386 -1.917174
-68.81165 -51.571859 -20.495107
-68.554436 -53.288021 -20.197385
-68.697643 -53.049116 -19.355518
-66.047619 -61.086231 -8.059259
-65.885402 -62.555984 -7.670097
-65.48764 -62.197544 -6.926153
-64.051478 -59.489297 -5.191952
-64.005844 -60.915224 -4.793675
-63.446825 -60.471927 -4.095598
-61.643801 -55.66655 0.700194
-61.130198 -56.909275 0.986531
-62.402948 -53.099975 -2.47437
-62.219808 -53.977743 -1.43139
-62.651899 -52.200037 -3.521928
-62.420284 -53.513189 -3.280058
-62.402948 -53.099975 -2.47437
-62.911751 -48.968443 -5.790072
-63.089458 -47.650109 -5.95156
-62.990412 -49.344133 -6.607378
-62.939936 -50.319042 -5.588596
-62.911751 -48.968443 -5.790072
-62.895712 -42.504111 -11.827979
-63.163998 -42.690331 -12.697492
-63.188761 -43.88114 -11.710705
-65.044556 -65.837647 -15.071061
-65.350574 -64.622444 -16.228434
-66.131691 -45.922687 -15.655424
-65.992363 -47.268512 -14.606852
-65.511475 -45.813141 -14.860747
-66.770038 -45.959615 -16.45892
-66.131691 -45.922687 -15.655424
-60.786129 -60.576938 0.172229
-61.181393 -61.162866 -0.533216
-61.122478 -59.255019 -0.195734
-60.786129 -60.576938 0.172229
-60.50261 -60.037756 0.902321
-68.720756 -49.338758 -18.28845
-68.556622 -50.792765 -17.185374
-68.450077 -49.182293 -17.478783
-68.963524 -49.455027 -19.100912
-68.720756 -49.338758 -18.28845
-69.027302 -49.646889 -19.930011
-68.891079 -51.141092 -18.82414
-68.963524 -49.455027 -19.100912
-69.055782 -49.809177 -20.757587
-69.027302 -49.646889 -19.930011
-65.055794 -61.779074 -6.201818
-65.48764 -62.197544 -6.926153
-63.032888 -46.657018 -6.947496
-63.089458 -47.650109 -5.95156
-63.035539 -45.61879 -7.960063
-62.964878 -46.955305 -7.821423
-63.032888 -46.657018 -6.947496
-62.945904 -44.566944 -8.946362
-63.035539 -45.61879 -7.960063
-62.922376 -43.455866 -9.949963
-62.944002 -44.805998 -9.837591
-62.945904 -44.566944 -8.946362
-62.823318 -42.336115 -10.921613
-62.922376 -43.455866 -9.949963
-66.104668 -62.941389 -16.57978
-66.498936 -62.576892 -15.735292
-66.754436 -61.289552 -16.911451
-65.606075 -63.335104 -17.404594
-65.350574 -64.622444 -16.228434
-66.104668 -62.941389 -16.57978
-67.568352 -48.951462 -15.889115
-67.000473 -48.865143 -15.097524
-67.180458 -47.464378 -16.19312
-68.01714 -49.093498 -16.680208
-67.837154 -50.494263 -15.584612
-67.568352 -48.951462 -15.889115
-68.450077 -49.182293 -17.478783
-68.01714 -49.093498 -16.680208
-62.859766 -61.386135 -3.010822
-62.146828 -62.275386 -1.917174
-62.905399 -59.960208 -3.409099
-63.446825 -60.471927 -4.095598
-62.859766 -61.386135 -3.010822
-61.862169 -60.334308 -1.625075
-61.637563 -61.702974 -1.232465
-61.181393 -61.162866 -0.533216
-65.886295 -65.521423 -10.524493
-65.242893 -67.005493 -10.209212
-65.368149 -66.640762 -9.369304
-67.831131 -57.900694 -17.574665
-67.358143 -59.573082 -17.245943
-67.621693 -59.252668 -16.395685
-68.004006 -56.493193 -18.74136
-67.831131 -57.900694 -17.574665
-68.267556 -56.172779 -17.891101
-68.144062 -55.069151 -19.904792
-68.004006 -56.493193 -18.74136
-68.144062 -55.069151 -19.904792
-68.554436 -53.288021 -20.197385
-68.81165 -51.571859 -20.495107
-69.055782 -49.809177 -20.757587
-65.430722 -66.257111 -8.536747
-65.368149 -66.640762 -9.369304
-65.937908 -64.79348 -8.87642
-65.430722 -66.257111 -8.536747
-66.374592 -63.27337 -9.219645
-66.448234 -63.636584 -10.027808
-65.937908 -64.79348 -8.87642
-66.154823 -62.937469 -8.43573
-65.885402 -62.555984 -7.670097
-66.665149 -61.780573 -9.587118
-66.374592 -63.27337 -9.219645
-66.154823 -62.937469 -8.43573
-64.536114 -61.381476 -5.489175
-64.005844 -60.915224 -4.793675
-65.130177 -60.330193 -6.602673
-65.055794 -61.779074 -6.201818
-64.536114 -61.381476 -5.489175
-64.325417 -45.586614 -13.232358
-64.898857 -45.739897 -14.040314
-64.798707 -47.005684 -13.00422
-60.788395 -58.21307 1.305724
-60.301306 -59.47468 1.644774
-60.250742 -58.971914 2.41614
-61.180762 -57.412041 0.215165
-60.788395 -58.21307 1.305724
-61.130198 -56.909275 0.986531
-61.895424 -54.825302 -0.367154
-61.643801 -55.66655 0.700194
-61.846948 -55.260687 -1.168265
-61.895424 -54.825302 -0.367154
-62.219808 -53.977743 -1.43139
-62.765255 -51.278301 -4.549453
-62.651899 -52.200037 -3.521928
-62.843916 -51.653992 -5.366758
-62.765255 -51.278301 -4.549453
-62.939936 -50.319042 -5.588596
-63.941308 -44.194094 -13.424335
-64.325417 -45.586614 -13.232358
-63.841157 -45.459881 -12.388241
-63.503094 -42.795885 -13.580055
-63.941308 -44.194094 -13.424335
-63.503094 -42.795885 -13.580055
-63.163998 -42.690331 -12.697492
-62.895712 -42.504111 -11.827979
-62.823318 -42.336115 -10.921613
-64.997723 -67.394131 -11.061488
-65.242893 -67.005493 -10.209212
-64.692612 -67.774517 -11.912601
-64.997723 -67.394131 -11.061488
-65.455929 -66.266541 -12.215515
-64.291759 -68.178738 -12.7592
-64.692612 -67.774517 -11.912601
-64.695381 -67.046746 -13.902565
-65.499992 -65.437828 -14.235124
-65.044556 -65.837647 -15.071061
-63.836322 -68.578556 -13.595138
-64.291759 -68.178738 -12.7592
-64.695381 -67.046746 -13.902565
3 62 61 15
3 63 18 64
3 0 21 19
3 1 25 23
3 1 27 25
3 66 65 29
3 2 33 31
3 68 67 16
3 69 34 70
3 5 35 17
3 5 36 35
3 6 39 37
3 8 40 20
3 8 41 40
3 3 42 32
3 9 43 22
3 9 44 43
3 9 71 73
3 73 72 44
3 71 72 73
3 10 74 76
3 74 45 75
3 74 75 76
3 10 46 45
3 4 77 79
3 77 47 78
3 77 78 79
3 11 48 24
3 11 49 48
3 11 50 49
3 12 51 26
3 12 52 51
3 80 53 81
3 82 54 83
3 84 55 85
3 86 85 54
3 84 85 86
3 13 87 88
3 13 89 91
3 89 56 90
3 89 90 91
3 13 57 56
3 14 58 28
3 14 59 58
3 14 92 94
3 94 93 59
3 92 93 94
3 7 60 38
3 96 95 30
3 15 16 2
3 97 16 98
3 99 98 15
3 97 98 99
3 101 100 16
3 102 17 103
3 18 104 106
3 104 17 105
3 104 105 106
3 18 5 17
3 19 20 6
3 21 20 19
3 21 8 20
3 107 22 108
3 109 108 3
3 107 108 109
3 110 22 111
3 112 9 113
3 114 113 22
3 112 113 114
3 116 115 9
3 117 10 118
3 23 24 4
3 25 24 23
3 25 11 24
3 25 26 11
3 27 26 25
3 27 12 26
3 119 13 120
3 121 28 122
3 123 122 13
3 121 122 123
3 124 28 125
3 126 14 127
3 128 127 28
3 126 127 128
3 130 129 14
3 29 30 7
3 131 30 132
3 133 132 29
3 131 132 133
3 136 135 30
3 134 135 136
3 31 32 0
3 33 32 31
3 33 3 32
3 16 33 2
3 137 33 138
3 139 138 16
3 137 138 139
3 140 3 141
3 142 141 33
3 140 141 142
3 144 143 3
3 34 145 146
3 34 147 149
3 147 4 148
3 147 148 149
3 17 150 152
3 150 34 151
3 150 151 152
3 35 34 17
3 35 4 34
3 35 23 4
3 36 23 35
3 36 1 23
3 37 153 155
3 153 38 154
3 153 154 155
3 39 38 37
3 39 7 38
3 20 39 6
3 40 39 20
3 40 7 39
3 40 29 7
3 41 29 40
3 41 156 158
3 158 157 29
3 156 157 158
3 32 21 0
3 42 21 32
3 42 8 21
3 22 42 3
3 43 42 22
3 43 8 42
3 43 41 8
3 44 41 43
3 44 159 161
3 161 160 41
3 159 160 161
3 44 162 163
3 165 164 44
3 167 166 9
3 168 37 169
3 170 37 171
3 172 6 173
3 174 173 37
3 172 173 174
3 45 175 176
3 45 177 179
3 177 6 178
3 177 178 179
3 45 19 6
3 46 19 45
3 46 0 19
3 47 180 181
3 47 182 184
3 182 10 183
3 182 183 184
3 24 47 4
3 48 47 24
3 48 10 47
3 48 46 10
3 49 46 48
3 49 0 46
3 49 31 0
3 50 31 49
3 50 2 31
3 26 50 11
3 51 50 26
3 51 2 50
3 51 15 2
3 52 15 51
3 52 185 187
3 187 186 15
3 185 186 187
3 188 18 189
3 188 189 190
3 53 191 193
3 191 18 192
3 191 192 193
3 53 5 18
3 194 53 195
3 54 196 198
3 196 53 197
3 196 197 198
3 54 5 53
3 54 36 5
3 55 36 54
3 55 1 36
3 199 55 200
3 56 201 203
3 201 55 202
3 201 202 203
3 56 1 55
3 56 27 1
3 57 27 56
3 57 12 27
3 28 57 13
3 58 57 28
3 58 12 57
3 58 52 12
3 59 52 58
3 59 204 206
3 206 205 52
3 204 205 206
3 59 207 208
3 210 209 59
3 212 211 14
3 38 213 214
3 60 215 217
3 217 216 38
3 215 216 217
3 60 218 219
3 30 60 7
3 220 60 221
3 222 221 30
3 220 221 222
3 225 224 60
3 223 224 225
