ply
format ascii 1.0
element vertex 375
property float x
property float y
property float z
element face 401
property list uchar int vertex_index
end_header
-44.161617 38.495037 28.215233
-40.735886 36.092079 47.85704
-24.534115 48.004314 44.954773
-35.969055 30.431618 56.545963
-33.646557 42.445 47.799778
-27.514675 35.245281 53.928715
-43.675068 48.884548 30.237331
-39.898808 46.834438 39.573532
-31.356678 52.763752 38.396225
-31.88426 32.792587 55.597324
-42.395859 42.874851 38.968651
-40.36261 41.678013 43.842533
-29.061016 44.949375 46.373817
-32.439713 47.787487 43.128723
-27.790401 50.532063 41.825935
-26.769913 55.729771 37.244133
-38.599331 33.82336 52.612328
-37.757141 39.69265 48.43119
-34.891243 36.659576 52.40229
-30.516312 39.011921 51.037827
-25.991259 41.688114 49.360577
-23.230927 38.5662 52.623245
-44.296768 43.948593 29.401875
-43.512383 38.399227 32.750313
-43.630066 43.60321 34.104023
-42.260719 48.075932 34.930531
-39.196114 51.763477 35.073055
-36.869461 45.047024 43.954002
-35.962631 50.007061 39.331505
-34.961147 54.786503 34.497219
-30.299015 57.546192 33.476051
-44.165745 35.657261 27.510906
-41.585991 36.826221 45.313145
-41.534687 39.643547 43.403191
-40.551506 38.946415 45.890015
-26.765606 46.361721 45.610672
-28.392807 47.789616 44.090096
-26.114897 49.298977 43.399956
-25.546442 52.136005 41.207672
-23.922943 51.05077 42.826218
-37.343315 32.253811 54.70668
-36.8634 35.342144 52.683201
-35.463631 33.597157 54.570705
-29.709476 33.955494 54.786083
-31.232452 35.934303 53.364609
-29.002588 37.124165 52.500683
-28.245138 40.255928 50.172966
-26.768944 38.472775 51.643921
-24.57513 40.072742 50.926842
-25.34374 36.758926 53.168625
-44.140717 46.492428 29.871544
-43.328819 38.246578 35.148106
-43.705513 41.083115 33.48296
-43.399887 40.861446 35.902725
-41.366905 44.964817 39.374168
-42.3806 45.503544 36.984482
-41.190857 47.50983 37.26799
-40.918446 50.01553 35.094734
-39.586899 49.31216 37.356575
-35.80233 41.145813 48.253143
-37.31559 42.429707 46.21315
-35.257385 43.860229 45.956062
-31.884945 50.312916 40.779343
-34.204048 48.968739 41.300655
-33.695229 51.402409 38.926682
-35.482697 52.404583 36.947361
-33.180939 53.790646 36.500114
-32.63884 56.16267 34.011902
-30.836382 55.165363 35.96257
-26.315517 58.211079 34.892265
-34.474846 28.429298 58.102753
-33.988728 31.650486 56.221523
-32.434544 29.591599 57.636509
-30.31991 30.753471 56.935623
-28.176508 32.012226 56.133369
-26.045979 33.463245 55.376587
-42.834229 51.109608 30.477312
-42.961201 40.560135 38.376575
-42.343304 40.165226 40.885994
-41.471992 42.351147 41.419849
-40.151085 44.299572 41.734459
-31.374733 43.678513 47.140656
-33.028664 45.168789 45.465004
-30.716278 46.445164 44.811722
-30.105677 49.11208 42.495102
-29.546146 51.684811 40.169704
-29.026934 54.1777 37.811058
-27.253965 53.175716 39.552551
-25.057308 54.865147 38.999435
-39.734055 35.102425 50.309902
-39.424923 38.020638 48.299404
-38.187569 36.824196 50.580021
-36.343853 38.307854 50.510246
-34.276031 39.609505 50.12421
-33.40593 34.79425 54.095306
-32.752411 37.85001 51.822315
-32.063313 40.812542 49.485558
-29.779018 42.019867 48.693089
-27.485455 43.34074 47.866856
-25.232464 44.873943 47.126823
-23.795561 43.391975 48.716702
-22.452724 41.983284 50.447624
-23.962698 35.182251 54.796532
-44.255737 41.272995 28.846119
-43.56126 35.65274 29.667118
-43.218269 35.589191 31.923361
-43.755405 38.484909 30.438101
-43.95715 41.223343 31.128738
-43.997681 43.827271 31.728033
-43.736717 46.270679 32.219566
-43.111984 43.286037 36.522301
-43.167004 45.93771 34.593643
-43.08392 48.537762 32.583099
-42.007507 50.618763 32.796902
-40.529076 52.509403 32.842247
-38.708649 54.214893 32.710449
-39.109127 40.807144 46.194794
-38.781815 43.469391 44.027916
-38.436874 46.025928 41.814873
-34.722916 46.462223 43.638969
-36.420383 47.564297 41.662331
-38.064693 48.503048 39.556999
-37.651146 50.931126 37.245193
-37.178459 53.340504 34.866451
-29.717842 59.931789 30.953764
-28.526819 56.613102 35.40538
-28.019081 59.01659 32.959621
-27.47542 61.410267 30.504398
-44.490203 38.460222 27.146701
-44.492267 37.041334 26.794537
-44.163681 37.076149 27.86307
-41.197457 34.99452 47.493778
-40.835555 34.604232 48.785036
-41.160939 36.45915 46.585093
-41.622509 35.361591 46.22183
-41.197457 34.99452 47.493778
-23.465258 48.969723 44.717255
-23.159672 50.49295 43.652977
-24.228529 49.527542 43.890496
-36.871029 29.745852 56.524691
-36.181934 28.807164 57.392204
-36.656185 31.342714 55.626322
-37.558159 30.656948 55.605049
-36.871029 29.745852 56.524691
-43.883051 48.991577 29.06741
-44.115876 47.795517 28.884516
-43.907893 47.688488 30.054437
-43.217422 38.138933 36.385143
-43.137321 36.78162 35.939791
-43.252956 39.446367 36.762453
-43.364353 39.554012 35.525415
-43.217422 38.138933 36.385143
-33.667846 27.384544 58.739672
-34.664825 26.789619 58.873611
-32.647695 27.965694 58.50655
-33.454695 29.010448 57.869631
-33.667846 27.384544 58.739672
-29.515487 29.762579 57.544815
-30.559914 29.13628 57.888134
-28.443785 30.391956 57.143688
-29.248209 31.382849 56.534496
-29.515487 29.762579 57.544815
-27.404008 31.098818 56.795803
-28.443785 30.391956 57.143688
-42.620522 52.390423 29.368678
-42.21864 52.132076 30.523332
-42.304423 38.76168 41.809036
-42.555166 38.954828 40.521814
-24.233032 54.427357 39.852192
-25.301875 53.500576 40.103554
-24.477599 53.062786 40.95631
-24.021731 55.835656 38.776131
-24.233032 54.427357 39.852192
-39.321283 32.941251 52.396856
-38.793997 32.262949 53.539608
-39.166693 34.462892 51.461115
-39.888645 33.580784 51.245643
-39.321283 32.941251 52.396856
-22.213568 39.631027 52.491709
-21.824466 41.339569 51.403898
-22.841825 40.274742 51.535434
-24.278005 33.509201 55.843744
-25.004338 34.322748 55.086559
-25.319645 32.649698 56.133772
-44.463806 43.952749 28.265121
-44.443291 42.61495 27.987243
-44.276252 42.610794 29.123997
-43.286581 34.181059 30.341474
-43.552135 34.218367 29.243437
-43.365326 36.994209 32.336837
-43.132778 35.532045 33.101859
-43.279835 36.937063 33.515335
-35.794468 55.271569 33.454094
-36.903124 54.548569 33.63871
-36.069803 54.063504 34.681835
-34.668747 55.982289 33.237361
-35.794468 55.271569 33.454094
-31.171703 58.04522 32.47188
-32.341616 57.353459 32.739806
-31.468927 56.854431 33.743977
-30.008429 58.73899 32.214907
-30.881117 59.238018 31.210736
-31.171703 58.04522 32.47188
-26.941515 59.827007 32.737611
-27.167299 58.613834 33.925943
-26.089733 59.424251 33.703934
-26.669685 61.023846 31.51
-27.74725 60.213428 31.732009
-26.941515 59.827007 32.737611
-26.430732 62.215401 30.333352
-26.669685 61.023846 31.51
-44.626812 35.628671 26.477266
-44.283144 34.236384 27.11747
-44.626812 35.628671 26.477266
-44.492267 37.041334 26.794537
-41.897507 35.638059 44.904776
-41.622509 35.361591 46.22183
-41.925766 37.092178 44.022612
-41.897507 35.638059 44.904776
-41.560339 38.234884 44.358168
-41.900114 38.500841 43.067635
-41.925766 37.092178 44.022612
-23.66585 52.520168 41.765583
-24.477599 53.062786 40.95631
-24.734693 51.593387 42.016945
-22.881332 52.070026 42.622633
-23.66585 52.520168 41.765583
-22.881332 52.070026 42.622633
-23.159672 50.49295 43.652977
-38.165989 31.478175 54.586784
-37.558159 30.656948 55.605049
-37.971323 33.038585 53.659504
-38.793997 32.262949 53.539608
-38.165989 31.478175 54.586784
-44.302964 46.540779 28.712378
-44.380989 45.268861 28.477543
-44.218743 45.220511 29.63671
-44.302964 46.540779 28.712378
-44.115876 47.795517 28.884516
-43.188053 36.860738 34.714231
-43.137321 36.78162 35.939791
-43.420601 38.322902 33.949209
-43.279835 36.937063 33.515335
-43.188053 36.860738 34.714231
-25.473808 57.849877 35.821176
-26.542715 56.970425 36.068199
-25.701006 56.609223 36.99711
-25.282075 59.112362 34.675253
-25.473808 57.849877 35.821176
-26.089733 59.424251 33.703934
-25.282075 59.112362 34.675253
-35.43483 27.806003 58.170599
-34.664825 26.789619 58.873611
-35.22195 29.430458 57.324358
-36.181934 28.807164 57.392204
-35.43483 27.806003 58.170599
-31.617232 28.555344 58.238577
-32.647695 27.965694 58.50655
-31.377227 30.172535 57.286066
-31.617232 28.555344 58.238577
-30.559914 29.13628 57.888134
-26.338743 31.824328 56.417412
-27.111244 32.737735 55.754978
-27.404008 31.098818 56.795803
-25.319645 32.649698 56.133772
-26.338743 31.824328 56.417412
-43.127451 51.287709 29.309119
-43.547871 50.175179 29.189129
-43.254649 49.997078 30.357322
-43.127451 51.287709 29.309119
-42.620522 52.390423 29.368678
-42.864115 39.152283 39.267105
-43.033614 39.295712 37.999378
-42.652253 40.36268 39.631284
-42.864115 39.152283 39.267105
-42.555166 38.954828 40.521814
-41.938996 39.904387 42.144593
-42.304423 38.76168 41.809036
-41.900114 38.500841 43.067635
-24.844704 56.176911 37.874761
-25.701006 56.609223 36.99711
-25.91361 55.297459 38.121784
-24.844704 56.176911 37.874761
-24.021731 55.835656 38.776131
-40.334639 34.109405 50.011467
-39.888645 33.580784 51.245643
-40.234971 35.597252 49.083471
-40.835555 34.604232 48.785036
-40.334639 34.109405 50.011467
-24.144312 45.782405 46.84785
-23.795137 47.347591 45.761826
-24.88329 46.439128 46.040798
-23.42586 45.041421 47.64279
-24.144312 45.782405 46.84785
-24.514012 44.132959 47.921762
-22.740087 44.402647 48.516825
-23.42586 45.041421 47.64279
-22.068668 43.698301 49.382286
-22.740087 44.402647 48.516825
-23.124142 42.687629 49.582163
-21.434777 43.101183 50.349008
-22.068668 43.698301 49.382286
-21.434777 43.101183 50.349008
-21.824466 41.339569 51.403898
-23.290778 34.477085 55.67666
-24.278005 33.509201 55.843744
-22.955902 36.195966 54.639133
-23.290778 34.477085 55.67666
-22.590017 37.887941 53.55249
-23.596812 36.874226 53.709888
-22.955902 36.195966 54.639133
-22.213568 39.631027 52.491709
-22.590017 37.887941 53.55249
-44.480715 41.249073 27.741039
-44.433655 39.860094 27.425596
-44.208677 39.884016 28.530676
-44.480715 41.249073 27.741039
-44.443291 42.61495 27.987243
-44.463806 43.952749 28.265121
-44.380989 45.268861 28.477543
-43.883051 48.991577 29.06741
-43.547871 50.175179 29.189129
-43.854378 34.220627 28.165332
-44.283144 34.236384 27.11747
-43.863502 35.655 28.589012
-43.854378 34.220627 28.165332
-43.552135 34.218367 29.243437
-42.982215 34.094743 32.621859
-43.132778 35.532045 33.101859
-43.115085 34.149284 31.469596
-42.982215 34.094743 32.621859
-43.389764 35.620965 30.79524
-43.286581 34.181059 30.341474
-43.115085 34.149284 31.469596
-43.180544 40.710791 37.13965
-43.252956 39.446367 36.762453
-43.033614 39.295712 37.999378
-41.805279 51.886654 31.683127
-42.21864 52.132076 30.523332
-42.420868 50.864186 31.637107
-41.066063 52.831974 31.705799
-41.805279 51.886654 31.683127
-41.268292 51.564083 32.819575
-40.269228 53.760288 31.669835
-41.066063 52.831974 31.705799
-39.359015 54.613033 31.603936
-40.269228 53.760288 31.669835
-39.618863 53.362148 32.776348
-38.409796 55.449078 31.485175
-39.359015 54.613033 31.603936
-37.668219 54.985764 32.560709
-37.943554 53.777698 33.78845
-36.903124 54.548569 33.63871
-38.409796 55.449078 31.485175
-37.668219 54.985764 32.560709
-33.507593 56.670372 32.994703
-34.668747 55.982289 33.237361
-33.799993 55.474587 34.25456
-33.507593 56.670372 32.994703
-32.341616 57.353459 32.739806
-30.546429 60.441921 29.921111
-30.881117 59.238018 31.210736
-29.392659 61.135593 29.691398
-30.546429 60.441921 29.921111
-28.271448 61.874832 29.466715
-29.392659 61.135593 29.691398
-28.596631 60.671028 30.729081
-27.170797 62.610062 29.295877
-28.271448 61.874832 29.466715
-27.170797 62.610062 29.295877
-26.430732 62.215401 30.333352
-23.465258 48.969723 44.717255
-23.795137 47.347591 45.761826
-44.490203 38.460222 27.146701
-44.433655 39.860094 27.425596
3 0 128 130
3 130 129 31
3 128 129 130
3 1 131 132
3 1 133 135
3 133 32 134
3 133 134 135
3 1 34 32
3 2 37 35
3 2 39 37
3 2 136 138
3 138 137 39
3 136 137 138
3 3 139 140
3 3 141 143
3 141 40 142
3 141 142 143
3 3 42 40
3 5 45 43
3 5 47 45
3 5 49 47
3 6 144 146
3 146 145 50
3 144 145 146
3 147 51 148
3 149 53 150
3 151 150 51
3 149 150 151
3 7 56 54
3 7 58 56
3 4 61 59
3 8 64 62
3 8 66 64
3 8 68 66
3 152 70 153
3 154 72 155
3 156 155 70
3 154 155 156
3 157 73 158
3 159 74 160
3 161 160 73
3 159 160 161
3 163 162 74
3 165 164 76
3 166 78 167
3 11 79 33
3 11 80 79
3 12 83 81
3 14 84 36
3 14 85 84
3 14 87 85
3 168 88 169
3 170 169 38
3 168 169 170
3 172 171 88
3 16 173 174
3 16 175 177
3 175 89 176
3 175 176 177
3 16 91 89
3 18 92 41
3 18 93 92
3 9 94 71
3 19 95 44
3 19 96 95
3 19 97 96
3 20 98 46
3 20 99 98
3 20 100 99
3 21 101 48
3 21 178 180
3 180 179 101
3 178 179 180
3 181 102 182
3 183 182 75
3 181 182 183
3 22 184 186
3 186 185 103
3 184 185 186
3 187 104 188
3 23 189 191
3 189 105 190
3 189 190 191
3 23 106 105
3 23 107 106
3 24 108 52
3 24 109 108
3 10 110 77
3 25 111 55
3 25 112 111
3 25 113 112
3 26 114 57
3 26 115 114
3 17 116 90
3 27 117 60
3 27 118 117
3 13 119 82
3 28 120 63
3 28 121 120
3 28 122 121
3 29 123 65
3 29 192 194
3 194 193 123
3 192 193 194
3 29 195 196
3 30 197 199
3 199 198 67
3 197 198 199
3 30 200 202
3 200 124 201
3 200 201 202
3 15 125 86
3 203 126 204
3 205 204 69
3 203 204 205
3 206 127 207
3 208 207 126
3 206 207 208
3 210 209 127
3 31 211 212
3 214 213 31
3 32 215 216
3 32 217 218
3 32 219 221
3 219 33 220
3 219 220 221
3 34 33 32
3 34 11 33
3 35 36 12
3 37 36 35
3 37 14 36
3 37 38 14
3 39 38 37
3 39 222 224
3 224 223 38
3 222 223 224
3 39 225 226
3 228 227 39
3 40 229 230
3 40 231 233
3 231 16 232
3 231 232 233
3 40 41 16
3 42 41 40
3 42 18 41
3 43 44 9
3 45 44 43
3 45 19 44
3 45 46 19
3 47 46 45
3 47 20 46
3 47 48 20
3 49 48 47
3 49 21 48
3 50 234 236
3 236 235 22
3 234 235 236
3 238 237 50
3 51 239 240
3 51 241 243
3 241 23 242
3 241 242 243
3 51 52 23
3 53 52 51
3 53 24 52
3 54 55 10
3 56 55 54
3 56 25 55
3 56 57 25
3 58 57 56
3 58 26 57
3 59 60 17
3 61 60 59
3 61 27 60
3 62 63 13
3 64 63 62
3 64 28 63
3 64 65 28
3 66 65 64
3 66 29 65
3 66 67 29
3 68 67 66
3 68 30 67
3 244 69 245
3 246 245 15
3 244 245 246
3 247 69 248
3 250 249 69
3 70 251 252
3 70 253 255
3 253 3 254
3 253 254 255
3 70 71 3
3 72 71 70
3 72 9 71
3 256 72 257
3 73 258 260
3 258 72 259
3 258 259 260
3 73 9 72
3 73 43 9
3 74 43 73
3 74 5 43
3 74 75 5
3 261 75 262
3 263 262 74
3 261 262 263
3 265 264 75
3 76 266 268
3 268 267 6
3 266 267 268
3 270 269 76
3 271 77 272
3 78 273 275
3 273 77 274
3 273 274 275
3 78 10 77
3 33 276 278
3 276 78 277
3 276 277 278
3 79 78 33
3 79 10 78
3 79 54 10
3 80 54 79
3 80 7 54
3 81 82 4
3 83 82 81
3 83 13 82
3 36 83 12
3 84 83 36
3 84 13 83
3 84 62 13
3 85 62 84
3 85 8 62
3 85 86 8
3 87 86 85
3 87 15 86
3 38 87 14
3 88 87 38
3 88 15 87
3 88 279 281
3 281 280 15
3 279 280 281
3 283 282 88
3 89 284 285
3 89 286 288
3 286 1 287
3 286 287 288
3 89 90 1
3 91 90 89
3 91 17 90
3 41 91 16
3 92 91 41
3 92 17 91
3 92 59 17
3 93 59 92
3 93 4 59
3 71 42 3
3 94 42 71
3 94 18 42
3 44 94 9
3 95 94 44
3 95 18 94
3 95 93 18
3 96 93 95
3 96 4 93
3 96 81 4
3 97 81 96
3 97 12 81
3 46 97 19
3 98 97 46
3 98 12 97
3 98 35 12
3 99 35 98
3 99 2 35
3 99 289 291
3 291 290 2
3 289 290 291
3 100 292 294
3 294 293 99
3 292 293 294
3 100 295 296
3 48 100 20
3 101 100 48
3 101 297 299
3 299 298 100
3 297 298 299
3 101 300 301
3 303 302 101
3 75 49 5
3 102 49 75
3 102 21 49
3 304 102 305
3 306 102 307
3 308 21 309
3 310 309 102
3 308 309 310
3 312 311 21
3 103 313 315
3 315 314 0
3 313 314 315
3 317 316 103
3 319 318 22
3 321 320 6
3 322 31 323
3 104 324 326
3 324 31 325
3 324 325 326
3 104 0 31
3 105 327 328
3 105 329 330
3 105 331 333
3 331 104 332
3 331 332 333
3 106 104 105
3 106 0 104
3 106 103 0
3 107 103 106
3 107 22 103
3 52 107 23
3 108 107 52
3 108 22 107
3 108 50 22
3 109 50 108
3 109 6 50
3 77 334 336
3 334 53 335
3 334 335 336
3 110 53 77
3 110 24 53
3 55 110 10
3 111 110 55
3 111 24 110
3 111 109 24
3 112 109 111
3 112 6 109
3 112 76 6
3 113 76 112
3 113 337 339
3 339 338 76
3 337 338 339
3 57 113 25
3 114 113 57
3 114 340 342
3 342 341 113
3 340 341 342
3 114 343 344
3 115 345 347
3 347 346 114
3 345 346 347
3 115 348 349
3 90 34 1
3 116 34 90
3 116 11 34
3 60 116 17
3 117 116 60
3 117 11 116
3 117 80 11
3 118 80 117
3 118 7 80
3 82 61 4
3 119 61 82
3 119 27 61
3 63 119 13
3 120 119 63
3 120 27 119
3 120 118 27
3 121 118 120
3 121 7 118
3 121 58 7
3 122 58 121
3 122 26 58
3 65 122 28
3 123 122 65
3 123 26 122
3 123 115 26
3 350 115 351
3 352 351 123
3 350 351 352
3 354 353 115
3 67 355 357
3 357 356 29
3 355 356 357
3 359 358 67
3 124 360 361
3 124 362 363
3 86 68 8
3 125 68 86
3 125 30 68
3 69 125 15
3 126 125 69
3 126 30 125
3 126 124 30
3 127 124 126
3 127 364 366
3 366 365 124
3 364 365 366
3 127 367 368
3 370 369 127
3 372 371 2
3 374 373 0
