ply
format ascii 1.0
element vertex 635
property float x
property float y
property float z
element face 753
property list uchar int vertex_index
end_header
-9.865862 86.692596 14.362285
-29.345049 75.217224 8.430552
-12.786459 85.963272 -13.172527
-38.110943 56.683262 30.259901
-43.842224 58.408619 10.793076
-19.167206 81.825668 9.357538
-29.067476 62.339397 28.429033
-34.579445 66.566422 19.66963
-3.839468 87.254578 -10.002209
-4.59244 81.961609 -22.825436
-42.081482 66.680679 -0.805864
-33.563477 75.587555 -2.007519
-26.274776 79.937592 -12.695824
-21.97467 82.212433 -2.672215
-10.97521 88.365204 -0.395224
-45.284904 48.864391 20.920286
-41.6082 59.112568 21.023319
-38.094154 68.501068 9.777433
-27.465372 67.245529 23.512409
-6.431536 88.566956 9.91555
-31.348843 75.7659 3.183813
-27.971775 78.902847 -2.53882
-25.95545 78.910904 2.809823
-14.354733 84.924896 11.403049
-15.19635 85.749695 4.488087
-10.432955 88.133942 6.815364
-6.756861 89.36438 2.155594
-41.60305 53.154545 30.569351
-42.973057 54.029758 25.913298
-40.336105 58.242062 25.780804
-32.188038 71.124878 14.08439
-36.492947 67.990753 14.899585
-34.132481 72.165207 9.056622
-36.075008 72.364182 3.833848
-19.321136 83.177872 -13.208656
-21.549538 80.398224 -17.445999
-14.451715 83.260864 -18.195358
-44.717354 53.704258 16.180542
-27.378868 74.022812 13.647836
-24.211105 78.371033 8.396294
-33.70863 59.594883 29.397369
-36.56522 61.667294 25.099186
-32.070053 64.498016 24.139626
-29.976942 69.368607 18.880859
-7.444126 87.602966 -12.149429
-8.33 85.11441 -18.184132
-3.967037 85.235214 -16.929722
-42.99609 62.817432 5.027771
-32.866352 76.29567 -12.086287
-30.323353 78.181503 -7.552744
-23.931526 81.514999 -8.002705
-17.490376 84.781891 -7.988592
-20.44178 82.340637 3.152995
-16.164055 85.624069 -2.024689
-11.671747 87.604385 -7.131792
-7.017189 89.003601 -5.257336
-45.105293 43.849968 24.90641
-44.424103 49.165791 25.56423
-43.726788 54.20525 21.102509
-42.50499 59.135349 15.97814
-38.572788 63.270756 20.528088
-39.906624 64.019257 15.587219
-41.183334 63.834835 10.336519
-39.863743 68.061081 4.446878
-38.267921 71.621796 -1.413443
-28.741987 76.934387 -16.564514
-9.818621 81.29451 -22.917046
-44.81879 38.425407 26.078169
-8.080853 87.909271 12.160852
-30.329901 75.574005 5.807246
-28.701609 77.322556 2.933846
-27.723621 77.107742 5.608519
-12.056267 86.027695 12.785256
-12.400515 86.735931 9.122197
-10.156086 87.575882 10.554165
-8.314846 88.63118 8.289039
-40.00938 55.011173 30.497423
-41.042755 55.695988 28.233738
-39.35548 57.527958 28.051094
-30.828945 73.227921 11.260568
-33.180122 71.745499 11.600941
-31.817278 73.721207 8.702879
-32.805561 74.030457 6.112
-15.950333 84.658081 -13.290766
-16.89053 83.454315 -15.729008
-13.552179 84.767838 -15.833336
-44.288399 56.079258 13.553459
-26.364517 73.197617 16.239447
-24.953835 75.568558 13.754816
-31.375015 60.952053 28.888458
-32.943108 62.038876 26.776779
-30.612122 63.390308 26.303965
-26.472084 69.740295 21.146454
-28.749203 68.319687 21.215023
-27.626791 70.775192 18.719967
-28.744905 71.731125 16.264519
-5.406023 87.713623 -11.208435
-5.588692 86.719986 -14.584372
-3.860714 86.388306 -13.561659
-42.568233 64.831818 2.101405
-34.768089 75.149292 -4.53927
-33.289139 76.389587 -7.273792
-32.043655 76.96907 -4.826382
-24.984402 80.530014 -2.681458
-26.033253 80.292648 -5.305302
-22.896294 81.944656 -5.407232
-20.672699 83.15979 -8.079908
-19.782854 83.625244 -5.349087
-21.663216 80.084839 8.739138
-22.399851 80.414291 5.76923
-19.785524 82.178528 6.214566
-13.088203 87.264847 2.045944
-15.650721 85.787643 1.173127
-13.469749 87.149094 -1.335098
-13.917871 86.822479 -4.586248
-11.287268 88.096466 -3.834021
-9.171171 88.5457 -6.320778
-8.927727 88.966995 -2.832176
-5.109631 88.995407 3.691584
-5.191133 89.083496 -0.180552
-44.46521 46.58913 27.553211
-44.091034 49.098606 27.897488
-42.355316 56.581379 23.541901
-43.377388 54.209415 23.526958
-42.765476 56.732998 21.107021
-43.151634 56.68697 18.618406
-42.050323 59.228214 18.531637
-35.623951 64.143738 22.410408
-37.677357 62.558559 22.855669
-36.682796 65.015045 20.126301
-37.302677 68.365417 12.377981
-38.318207 66.129166 15.278785
-39.012711 66.329117 12.714499
-40.507294 64.03894 12.98862
-39.727898 66.290405 10.079214
-40.534515 66.022018 7.404638
-38.931141 68.398926 7.122625
-34.898647 74.052643 0.886789
-37.13203 72.119888 1.199094
-36.040054 73.722137 -1.70706
-37.245827 73.121902 -4.254301
-29.658247 78.185562 -12.383175
-30.91917 76.793488 -14.402124
-27.514166 78.644104 -14.745682
-19.046463 79.993408 -19.700211
-22.718832 78.414185 -19.130569
-20.182251 77.649734 -21.193764
-6.349079 83.822922 -20.568985
-9.000135 83.388931 -20.739388
-6.968695 81.856598 -23.050148
-45.303925 46.388462 23.006201
-45.804459 43.637611 22.731026
-46.008068 46.113033 20.77494
-26.866173 63.809856 28.087357
-28.324154 64.776947 25.93996
-26.1567 66.23053 25.754986
-41.483261 68.340652 -3.660088
-43.31414 65.644989 -3.289547
-4.987831 88.612518 7.636213
-32.423031 75.779572 0.573436
-30.85643 77.28392 -2.297367
-29.742022 77.388351 0.294341
-26.921129 78.977509 0.100297
-24.037416 80.622208 0.04731
-16.729794 83.482727 10.251141
-17.238396 83.908875 6.927674
-14.771152 85.473984 7.903361
-12.740236 87.138565 5.537197
-10.700151 88.387604 3.160639
-8.723577 89.137009 0.778791
-8.526443 89.033386 4.490903
-6.609808 89.120178 5.998465
-43.420673 51.465809 28.140926
-42.406815 53.671238 28.260044
-41.809635 56.230175 25.916931
-41.067772 58.780399 23.440311
-33.435131 68.901505 16.890661
-35.601608 67.383621 17.329647
-34.436531 69.632919 14.48234
-35.353897 70.153748 11.993704
-36.233433 70.449692 9.429624
-37.127079 70.514999 6.807064
-35.084652 72.374512 6.461324
-33.82457 74.146515 3.500561
-22.796949 81.595764 -12.989065
-23.978292 80.362137 -15.115414
-20.402431 81.968811 -15.465078
-17.935179 81.918121 -17.874786
-15.459559 81.389496 -20.220814
-45.071522 51.298946 18.642851
-46.001198 48.531445 18.616665
-45.819725 50.910992 16.260502
-28.368742 74.699326 11.045097
-26.787436 76.748001 8.307953
-25.869984 76.237259 11.024853
-23.387682 77.871048 11.254923
-35.982822 58.194897 29.877556
-37.396233 59.171627 27.720287
-35.23262 60.656612 27.275333
-34.372349 63.127956 24.62104
-33.401363 65.582932 21.933214
-29.740894 65.85144 23.741581
-31.083149 66.949951 21.504948
-32.319748 67.990112 19.226282
-31.125147 70.321335 16.507805
-29.811277 72.559097 13.780149
-9.924095 86.98494 -12.802464
-10.494799 85.821411 -15.7085
-7.815004 86.506683 -15.301279
-5.89344 85.433273 -17.726124
-4.200363 83.769547 -20.041313
-43.411339 60.665577 7.937777
-31.587093 77.416016 -9.892088
-28.397707 79.189072 -10.176632
-29.109858 78.655212 -5.094921
-27.178141 79.867142 -7.809702
-25.067308 80.869949 -10.439726
-21.683685 82.503708 -10.634926
-18.342806 84.09407 -10.706007
-15.139723 85.591324 -10.596264
-25.059616 78.711731 5.578476
-23.182844 80.585922 2.868203
-21.162632 82.344696 0.186112
-17.771162 84.10257 3.690413
-18.353315 84.101044 0.554413
-19.014954 83.936417 -2.464525
-16.768501 85.286041 -5.086092
-14.465956 86.303818 -7.683193
-12.162998 86.8974 -10.257421
-9.491465 87.885925 -9.657299
-7.190529 88.430954 -8.785397
-5.306299 88.435059 -7.655304
-6.88435 89.319138 -1.601868
-5.24733 88.892776 -3.969166
-44.705692 41.225151 26.635958
-44.630844 43.956905 27.128368
-44.81728 46.552967 25.265099
-44.785912 49.083706 23.237831
-43.832207 51.66605 25.787817
-44.168556 51.699535 23.417686
-44.545696 51.570858 21.03335
-44.139118 54.028973 18.648224
-43.628643 56.460552 16.091957
-43.077435 58.854069 13.387161
-38.573563 60.051495 25.501616
-39.50407 60.776707 23.209578
-40.216675 61.301899 20.832327
-37.565086 65.687485 17.751572
-39.29187 63.763561 18.105145
-40.778748 61.602184 18.365553
-41.285191 61.67371 15.816801
-41.839428 61.528263 13.206504
-42.530552 61.185421 10.566566
-42.003021 63.422787 7.668139
-41.478409 65.533157 4.730352
-40.916641 67.488083 1.789378
-38.080952 70.344955 4.152116
-39.125095 69.931793 1.497
-40.266155 69.265823 -1.121225
-39.474831 70.84935 -3.969131
-36.627789 55.756634 32.410969
-34.376347 57.178074 31.977503
-32.044392 58.544247 31.467709
-25.184669 78.735931 -16.988743
-11.213573 84.357498 -18.323318
-12.07218 82.54776 -20.598133
-13.046228 80.353912 -22.497398
-45.392853 41.081993 24.492922
-44.490203 38.460222 27.146701
-44.492267 37.041334 26.794537
-8.847847 86.773765 15.227467
-7.955342 87.382103 14.12675
-8.973357 87.300933 13.261568
-44.508741 56.9888 10.915285
-44.731829 55.82412 12.295477
-44.065311 57.243938 12.173267
-25.199441 73.969994 16.366128
-25.847859 72.72245 17.528552
-26.478997 71.511238 18.768812
-27.049437 70.257744 19.933211
-25.901643 70.993789 19.982056
-25.847859 72.72245 17.528552
-26.995654 71.986404 17.479707
-26.478997 71.511238 18.768812
-42.925453 65.303904 -0.619175
-43.168829 64.379473 0.83446
-42.324858 65.756248 0.647771
-4.48651 88.620323 2.537153
-4.45506 88.512146 4.513815
-43.883051 48.991577 29.06741
-44.115876 47.795517 28.884516
-18.36063 78.38301 -21.540692
-19.614357 78.821571 -20.446987
-17.792736 79.554847 -20.793915
-18.916373 77.042648 -22.195612
-18.36063 78.38301 -21.540692
-25.500427 65.799729 26.828855
-26.511437 65.020193 26.921171
-25.855163 64.589392 27.995041
-42.105318 67.750336 -4.86528
-41.103226 69.065071 -5.04329
-5.627924 88.243256 10.780736
-4.906071 88.266037 9.641068
-5.709684 88.589737 8.775882
-42.004933 53.412892 29.414698
-42.620522 52.390423 29.368678
-42.21864 52.132076 30.523332
-22.981576 77.532898 12.700588
-24.170759 76.719803 12.504869
-23.764653 76.381653 13.950534
-22.169653 78.72036 11.510974
-22.981576 77.532898 12.700588
-43.739107 61.401775 5.197593
-43.946731 60.325847 6.652596
-43.203715 61.741504 6.482774
-44.159805 64.239485 -3.053123
-43.925785 65.021301 -4.448009
-4.562011 88.537467 -3.235035
-5.219231 88.988136 -2.074859
-4.533912 88.632827 -1.340728
-4.552858 88.371696 -5.136195
-4.562011 88.537467 -3.235035
-44.463806 43.952749 28.265121
-44.443291 42.61495 27.987243
-37.871242 72.67144 -5.488062
-36.633495 73.770347 -5.625478
-35.794468 55.271569 33.454094
-36.903124 54.548569 33.63871
-34.668747 55.982289 33.237361
-35.502068 56.467354 32.194236
-35.794468 55.271569 33.454094
-31.171703 58.04522 32.47188
-32.341616 57.353459 32.739806
-30.881117 59.238018 31.210736
-31.171703 58.04522 32.47188
-33.493887 75.536499 -13.094729
-34.353544 75.259087 -11.95037
-30.440604 75.956322 -16.385124
-31.529196 75.885872 -15.303929
-29.830579 76.863937 -15.483319
-29.330221 75.862213 -17.349409
-30.440604 75.956322 -16.385124
-24.545752 77.546174 -18.861044
-23.294026 77.207253 -19.822218
-46.083765 42.247 22.56791
-46.287112 43.488726 21.662482
-46.483647 47.141644 18.593589
-46.482406 48.321934 17.476588
-44.953334 37.012744 25.760897
-44.492267 37.041334 26.794537
-45.298246 38.353151 25.046111
-44.953334 37.012744 25.760897
-7.152365 87.799599 13.02889
-6.327706 88.128441 11.906239
-7.256194 88.238113 11.038201
-7.152365 87.799599 13.02889
-7.955342 87.382103 14.12675
-44.905887 54.669144 13.638827
-45.120365 53.481644 14.952369
-44.502876 54.891758 14.867
-44.905887 54.669144 13.638827
-44.731829 55.82412 12.295477
-24.4941 75.155464 15.123812
-25.659176 74.383087 14.997131
-25.199441 73.969994 16.366128
-23.764653 76.381653 13.950534
-24.4941 75.155464 15.123812
-43.355611 63.431792 2.283127
-43.56954 62.424599 3.746311
-42.782162 63.824625 3.564588
-43.355611 63.431792 2.283127
-43.168829 64.379473 0.83446
-34.028614 75.76944 -5.906531
-34.655152 75.40419 -7.135224
-35.394627 74.784042 -5.767963
-4.527261 88.664367 0.601085
-5.150382 89.039451 1.755516
-4.48651 88.620323 2.537153
-4.533912 88.632827 -1.340728
-4.527261 88.664367 0.601085
-44.302964 46.540779 28.712378
-44.380989 45.268861 28.477543
-44.278122 47.843868 27.72535
-44.302964 46.540779 28.712378
-44.115876 47.795517 28.884516
-35.394627 74.784042 -5.767963
-36.633495 73.770347 -5.625478
-36.006958 74.135597 -4.396786
-22.025735 76.825027 -20.853815
-23.294026 77.207253 -19.822218
-21.450541 78.031959 -20.162167
-20.743513 76.273033 -21.780428
-22.025735 76.825027 -20.853815
-20.743513 76.273033 -21.780428
-18.916373 77.042648 -22.195612
-46.388916 44.726437 20.684439
-46.287112 43.488726 21.662482
-45.906264 44.875322 21.752983
-25.165774 66.974846 25.776806
-25.500427 65.799729 26.828855
-25.733463 67.461761 24.639538
-25.165774 66.974846 25.776806
-26.387799 67.969261 23.51825
-26.811036 66.73803 24.633698
-25.733463 67.461761 24.639538
-25.891155 69.216644 22.335272
-26.968728 68.492912 22.329431
-26.387799 67.969261 23.51825
-25.387 70.475631 21.256049
-25.891155 69.216644 22.335272
-25.901643 70.993789 19.982056
-25.387 70.475631 21.256049
-3.236799 86.373138 -11.135298
-3.287078 86.738464 -9.289935
-43.020758 66.402504 -4.68001
-42.398701 66.99282 -3.474818
-42.105318 67.750336 -4.86528
-43.925785 65.021301 -4.448009
-43.020758 66.402504 -4.68001
-4.33572 88.065842 8.494729
-4.39416 88.320701 6.486129
-4.33572 88.065842 8.494729
-4.906071 88.266037 9.641068
-5.627924 88.243256 10.780736
-6.327706 88.128441 11.906239
-4.39416 88.320701 6.486129
-4.45506 88.512146 4.513815
-5.048731 88.803962 5.663899
-43.127451 51.287709 29.309119
-43.547871 50.175179 29.189129
-42.913744 52.568523 28.200485
-43.127451 51.287709 29.309119
-42.620522 52.390423 29.368678
-15.999284 80.252892 -21.054217
-17.792736 79.554847 -20.793915
-17.253011 80.691452 -19.960513
-4.875906 80.874237 -24.021313
-3.83562 80.76873 -23.869439
-46.39167 49.511707 16.298507
-46.482406 48.321934 17.476588
-45.910461 49.721218 17.438584
-45.67155 52.08501 14.992349
-45.26854 52.307625 16.220522
-45.120365 53.481644 14.952369
-46.313511 50.672584 15.084071
-45.67155 52.08501 14.992349
-46.39167 49.511707 16.298507
-46.313511 50.672584 15.084071
-9.71867 86.083602 16.291538
-10.787306 85.843856 15.435086
-21.30742 79.827256 10.253082
-22.525449 78.977944 9.997031
-22.169653 78.72036 11.510974
-20.059415 80.69767 10.562282
-20.415211 80.955253 9.048338
-21.30742 79.827256 10.253082
-18.867649 81.537094 10.962822
-20.059415 80.69767 10.562282
-17.648943 82.365623 11.409624
-17.9485 82.654197 9.80434
-18.867649 81.537094 10.962822
-16.480666 83.136826 11.947883
-17.648943 82.365623 11.409624
-15.293136 83.85791 12.523837
-15.542263 84.203812 10.827095
-16.480666 83.136826 11.947883
-14.1475 84.4999 13.186249
-15.293136 83.85791 12.523837
-12.998267 85.0513 13.877353
-13.2055 85.476295 12.094152
-14.1475 84.4999 13.186249
-11.882509 85.511406 14.646572
-12.998267 85.0513 13.877353
-10.787306 85.843856 15.435086
-10.961064 86.360145 13.573771
-11.882509 85.511406 14.646572
-3.247422 85.940002 -12.915023
-3.850091 86.821442 -11.781934
-3.236799 86.373138 -11.135298
-3.216583 85.436844 -14.686794
-3.247422 85.940002 -12.915023
-3.269744 84.860298 -16.370825
-3.913876 85.81176 -15.245691
-3.216583 85.436844 -14.686794
-3.282196 84.208504 -18.039439
-3.269744 84.860298 -16.370825
-3.398859 83.47567 -19.595234
-4.0837 84.502381 -18.485518
-3.282196 84.208504 -18.039439
-3.477273 82.661751 -21.124733
-3.398859 83.47567 -19.595234
-3.673311 81.757782 -22.516794
-4.396401 82.865578 -21.433374
-3.477273 82.661751 -21.124733
-3.83562 80.76873 -23.869439
-3.673311 81.757782 -22.516794
-44.116737 59.243305 8.088014
-44.33218 58.114826 9.515663
-43.626781 59.537098 9.365426
-44.116737 59.243305 8.088014
-43.946731 60.325847 6.652596
-43.739107 61.401775 5.197593
-43.56954 62.424599 3.746311
-43.541782 64.786058 -1.861017
-42.925453 65.303904 -0.619175
-42.697811 66.162834 -2.047706
-43.541782 64.786058 -1.861017
-44.159805 64.239485 -3.053123
-8.847847 86.773765 15.227467
-9.71867 86.083602 16.291538
-33.716467 75.892243 -10.850241
-34.353544 75.259087 -11.95037
-33.92786 75.939201 -8.443994
-34.655152 75.40419 -7.135224
-33.076837 76.452416 -9.753141
-33.92786 75.939201 -8.443994
-32.438116 76.902802 -8.58294
-32.226723 76.855843 -10.989187
-33.716467 75.892243 -10.850241
-33.076837 76.452416 -9.753141
-4.582342 88.142837 -6.979264
-5.276815 88.663917 -5.812235
-4.552858 88.371696 -5.136195
-3.848927 87.552597 -8.152716
-4.572883 87.844819 -8.828757
-4.582342 88.142837 -6.979264
-3.287078 86.738464 -9.289935
-3.848927 87.552597 -8.152716
-44.480715 41.249073 27.741039
-44.433655 39.860094 27.425596
-44.668268 42.591028 26.882163
-44.480715 41.249073 27.741039
-44.443291 42.61495 27.987243
-44.548027 45.273017 27.340789
-44.463806 43.952749 28.265121
-44.380989 45.268861 28.477543
-43.755854 50.282207 28.019207
-43.883051 48.991577 29.06741
-43.547871 50.175179 29.189129
-40.099011 70.31942 -5.197812
-41.103226 69.065071 -5.04329
-40.479046 69.595001 -3.814609
-38.985744 71.535164 -5.345477
-38.360329 71.985626 -4.111716
-37.871242 72.67144 -5.488062
-40.099011 70.31942 -5.197812
-38.985744 71.535164 -5.345477
-41.805279 51.886654 31.683127
-42.21864 52.132076 30.523332
-41.066063 52.831974 31.705799
-41.805279 51.886654 31.683127
-40.269228 53.760288 31.669835
-40.806215 54.082859 30.533387
-41.066063 52.831974 31.705799
-39.359015 54.613033 31.603936
-40.269228 53.760288 31.669835
-38.409796 55.449078 31.485175
-39.060161 55.847217 30.378662
-39.359015 54.613033 31.603936
-37.668219 54.985764 32.560709
-36.903124 54.548569 33.63871
-37.369366 56.219948 31.335435
-38.409796 55.449078 31.485175
-37.668219 54.985764 32.560709
-33.507593 56.670372 32.994703
-34.668747 55.982289 33.237361
-33.210369 57.86116 31.722606
-33.507593 56.670372 32.994703
-32.341616 57.353459 32.739806
-30.546429 60.441921 29.921111
-31.709704 59.74815 30.178083
-30.881117 59.238018 31.210736
-29.392659 61.135593 29.691398
-30.221246 61.645725 28.658746
-30.546429 60.441921 29.921111
-28.271448 61.874832 29.466715
-29.392659 61.135593 29.691398
-27.170797 62.610062 29.295877
-27.966825 63.074627 28.258195
-28.271448 61.874832 29.466715
-26.126109 63.415196 29.124831
-27.170797 62.610062 29.295877
-25.855163 64.589392 27.995041
-26.126109 63.415196 29.124831
-32.520296 75.785408 -14.252648
-33.493887 75.536499 -13.094729
-31.892761 76.544579 -13.244205
-32.520296 75.785408 -14.252648
-31.529196 75.885872 -15.303929
-25.77867 77.707046 -17.790131
-23.95175 78.575058 -18.059656
-24.545752 77.546174 -18.861044
-27.557329 76.806275 -17.578016
-26.963328 77.835159 -16.776629
-25.77867 77.707046 -17.790131
-29.330221 75.862213 -17.349409
-27.557329 76.806275 -17.578016
-14.792618 79.735099 -22.192509
-15.999284 80.252892 -21.054217
-14.252893 80.871704 -21.359106
-6.064034 80.821731 -24.133669
-5.780568 81.909104 -22.937792
-4.875906 80.874237 -24.021313
-7.358289 80.684098 -24.085707
-6.064034 80.821731 -24.133669
-8.783252 80.403053 -24.019156
-8.393658 81.575554 -22.983597
-7.358289 80.684098 -24.085707
-10.290906 80.052673 -23.802128
-8.783252 80.403053 -24.019156
-11.904709 79.582375 -23.592304
-11.432424 80.824211 -22.707222
-10.290906 80.052673 -23.802128
-13.573708 79.057281 -23.252983
-11.904709 79.582375 -23.592304
-14.792618 79.735099 -22.192509
-13.573708 79.057281 -23.252983
-44.762241 39.825279 26.357063
-44.490203 38.460222 27.146701
-44.433655 39.860094 27.425596
-45.585278 39.681444 24.253487
-45.298246 38.353151 25.046111
-45.105822 39.7537 25.285545
-45.877962 40.96919 23.448859
-45.598656 42.359802 23.611974
-46.083765 42.247 22.56791
-45.585278 39.681444 24.253487
-45.877962 40.96919 23.448859
-46.487082 45.932438 19.672726
-46.004633 47.322239 19.695802
-46.483647 47.141644 18.593589
-46.388916 44.726437 20.684439
-46.487082 45.932438 19.672726
-44.508741 56.9888 10.915285
-44.33218 58.114826 9.515663
3 268 67 269
3 0 270 272
3 272 271 68
3 270 271 272
3 1 71 69
3 0 74 72
3 0 68 74
3 3 78 76
3 1 81 79
3 1 69 81
3 2 85 83
3 4 273 275
3 275 274 86
3 273 274 275
3 277 276 87
3 6 91 89
3 278 94 279
3 280 279 92
3 278 279 280
3 281 87 282
3 283 282 94
3 281 282 283
3 8 98 96
3 10 284 286
3 286 285 99
3 284 285 286
3 11 102 100
3 13 105 103
3 13 107 105
3 5 110 108
3 14 113 111
3 14 115 113
3 14 117 115
3 288 287 118
3 289 121 290
3 16 124 122
3 16 126 124
3 7 129 127
3 17 132 130
3 17 134 132
3 17 136 134
3 11 139 137
3 11 100 139
3 12 143 141
3 291 146 292
3 293 292 144
3 291 292 293
3 295 294 146
3 9 149 147
3 15 152 150
3 296 155 297
3 298 297 153
3 296 297 298
3 300 299 156
3 19 301 303
3 303 302 158
3 301 302 303
3 20 161 159
3 22 162 70
3 22 163 162
3 23 166 164
3 25 167 73
3 25 168 167
3 25 170 168
3 19 171 75
3 19 158 171
3 27 304 306
3 304 173 305
3 304 305 306
3 29 174 77
3 29 175 174
3 30 178 176
3 32 179 80
3 32 180 179
3 32 182 180
3 20 183 82
3 20 159 183
3 34 186 184
3 36 187 84
3 36 188 187
3 37 191 189
3 38 194 192
3 307 195 308
3 309 308 88
3 307 308 309
3 311 310 195
3 40 198 196
3 42 199 90
3 42 200 199
3 18 201 154
3 43 202 93
3 43 203 202
3 43 204 203
3 38 205 95
3 38 192 205
3 44 208 206
3 46 209 97
3 46 210 209
3 47 312 314
3 314 313 211
3 312 313 314
3 316 315 157
3 49 212 101
3 49 213 212
3 21 214 160
3 50 215 104
3 50 216 215
3 50 217 216
3 51 218 106
3 51 219 218
3 39 220 193
3 52 221 109
3 52 222 221
3 24 223 165
3 53 224 112
3 53 225 224
3 53 226 225
3 54 227 114
3 54 228 227
3 54 229 228
3 55 230 116
3 55 231 230
3 26 232 169
3 317 233 318
3 319 318 119
3 317 318 319
3 321 320 233
3 322 235 323
3 57 236 120
3 57 237 236
3 28 238 172
3 58 239 123
3 58 240 239
3 58 241 240
3 59 242 125
3 59 243 242
3 41 244 197
3 60 245 128
3 60 246 245
3 31 247 177
3 61 248 131
3 61 249 248
3 61 250 249
3 62 251 133
3 62 252 251
3 62 253 252
3 63 254 135
3 63 255 254
3 33 256 181
3 64 257 138
3 64 258 257
3 64 259 258
3 325 324 140
3 326 260 327
3 328 261 329
3 330 329 260
3 328 329 330
3 331 262 332
3 334 333 262
3 48 335 336
3 65 337 339
3 339 338 142
3 337 338 339
3 65 340 341
3 35 263 185
3 343 342 145
3 45 264 207
3 66 265 148
3 66 266 265
3 56 267 234
3 345 344 151
3 347 346 190
3 67 348 349
3 67 350 351
3 68 352 354
3 354 353 19
3 352 353 354
3 356 355 68
3 69 70 20
3 71 70 69
3 71 22 70
3 72 73 23
3 74 73 72
3 74 25 73
3 74 75 25
3 68 75 74
3 68 19 75
3 76 77 27
3 78 77 76
3 78 29 77
3 79 80 30
3 81 80 79
3 81 32 80
3 81 82 32
3 69 82 81
3 69 20 82
3 83 84 34
3 85 84 83
3 85 36 84
3 86 357 359
3 359 358 37
3 357 358 359
3 361 360 86
3 87 88 38
3 362 88 363
3 364 363 87
3 362 363 364
3 366 365 88
3 89 90 40
3 91 90 89
3 91 42 90
3 92 93 18
3 94 93 92
3 94 43 93
3 94 95 43
3 87 95 94
3 87 38 95
3 96 97 44
3 98 97 96
3 98 46 97
3 99 367 369
3 369 368 47
3 367 368 369
3 371 370 99
3 100 372 374
3 372 101 373
3 372 373 374
3 102 101 100
3 102 49 101
3 103 104 21
3 105 104 103
3 105 50 104
3 105 106 50
3 107 106 105
3 107 51 106
3 108 109 39
3 110 109 108
3 110 52 109
3 111 112 24
3 113 112 111
3 113 53 112
3 113 114 53
3 115 114 113
3 115 54 114
3 115 116 54
3 117 116 115
3 117 55 116
3 118 119 26
3 375 119 376
3 377 376 118
3 375 376 377
3 379 378 119
3 380 120 381
3 121 382 384
3 382 120 383
3 382 383 384
3 121 57 120
3 122 123 28
3 124 123 122
3 124 58 123
3 124 125 58
3 126 125 124
3 126 59 125
3 127 128 41
3 129 128 127
3 129 60 128
3 130 131 31
3 132 131 130
3 132 61 131
3 132 133 61
3 134 133 132
3 134 62 133
3 134 135 62
3 136 135 134
3 136 63 135
3 137 138 33
3 139 138 137
3 139 64 138
3 139 140 64
3 100 140 139
3 100 385 387
3 387 386 140
3 385 386 387
3 141 142 48
3 143 142 141
3 143 65 142
3 144 145 35
3 146 145 144
3 146 388 390
3 390 389 145
3 388 389 390
3 146 391 392
3 394 393 146
3 147 148 45
3 149 148 147
3 149 66 148
3 150 151 56
3 152 151 150
3 152 395 397
3 397 396 151
3 395 396 397
3 153 154 6
3 155 154 153
3 155 18 154
3 398 155 399
3 400 155 401
3 402 18 403
3 404 403 155
3 402 403 404
3 405 92 406
3 407 406 18
3 405 406 407
3 408 92 409
3 411 410 92
3 413 412 8
3 156 157 10
3 414 157 415
3 416 415 156
3 414 415 416
3 418 417 157
3 158 419 420
3 422 421 158
3 424 423 19
3 159 160 11
3 161 160 159
3 161 21 160
3 70 161 20
3 162 161 70
3 162 21 161
3 162 103 21
3 163 103 162
3 163 13 103
3 164 165 5
3 166 165 164
3 166 24 165
3 73 166 23
3 167 166 73
3 167 24 166
3 167 111 24
3 168 111 167
3 168 14 111
3 168 169 14
3 170 169 168
3 170 26 169
3 75 170 25
3 171 170 75
3 171 26 170
3 171 118 26
3 158 118 171
3 158 425 427
3 427 426 118
3 425 426 427
3 428 172 429
3 173 430 432
3 430 172 431
3 430 431 432
3 173 28 172
3 77 173 27
3 174 173 77
3 174 28 173
3 174 122 28
3 175 122 174
3 175 16 122
3 176 177 7
3 178 177 176
3 178 31 177
3 80 178 30
3 179 178 80
3 179 31 178
3 179 130 31
3 180 130 179
3 180 17 130
3 180 181 17
3 182 181 180
3 182 33 181
3 82 182 32
3 183 182 82
3 183 33 182
3 183 137 33
3 159 137 183
3 159 11 137
3 184 185 12
3 186 185 184
3 186 35 185
3 84 186 34
3 187 186 84
3 187 35 186
3 187 144 35
3 188 144 187
3 188 433 435
3 435 434 144
3 433 434 435
3 437 436 9
3 189 190 15
3 191 190 189
3 191 438 440
3 440 439 190
3 438 439 440
3 441 191 442
3 443 442 37
3 441 442 443
3 444 191 445
3 447 446 191
3 449 448 0
3 192 193 1
3 194 193 192
3 194 39 193
3 88 194 38
3 195 194 88
3 195 39 194
3 195 108 39
3 450 108 451
3 452 451 195
3 450 451 452
3 453 5 454
3 455 454 108
3 453 454 455
3 456 5 457
3 458 164 459
3 460 459 5
3 458 459 460
3 461 164 462
3 463 23 464
3 465 464 164
3 463 464 465
3 466 23 467
3 468 72 469
3 470 469 23
3 468 469 470
3 471 72 472
3 473 0 474
3 475 474 72
3 473 474 475
3 196 197 3
3 198 197 196
3 198 41 197
3 90 198 40
3 199 198 90
3 199 41 198
3 199 127 41
3 200 127 199
3 200 7 127
3 154 91 6
3 201 91 154
3 201 42 91
3 93 201 18
3 202 201 93
3 202 42 201
3 202 200 42
3 203 200 202
3 203 7 200
3 203 176 7
3 204 176 203
3 204 30 176
3 95 204 43
3 205 204 95
3 205 30 204
3 205 79 30
3 192 79 205
3 192 1 79
3 206 207 2
3 208 207 206
3 208 45 207
3 97 208 44
3 209 208 97
3 209 45 208
3 209 147 45
3 210 147 209
3 210 9 147
3 476 98 477
3 478 477 8
3 476 477 478
3 479 98 480
3 481 46 482
3 483 482 98
3 481 482 483
3 484 46 485
3 486 210 487
3 488 487 46
3 486 487 488
3 489 210 490
3 491 9 492
3 493 492 210
3 491 492 493
3 495 494 9
3 211 496 498
3 498 497 4
3 496 497 498
3 500 499 211
3 502 501 47
3 157 503 505
3 505 504 10
3 503 504 505
3 507 506 157
3 509 508 0
3 510 48 511
3 101 512 513
3 212 514 516
3 516 515 101
3 514 515 516
3 212 517 519
3 517 48 518
3 517 518 519
3 212 141 48
3 213 141 212
3 213 12 141
3 160 102 11
3 214 102 160
3 214 49 102
3 104 214 21
3 215 214 104
3 215 49 214
3 215 213 49
3 216 213 215
3 216 12 213
3 216 184 12
3 217 184 216
3 217 34 184
3 106 217 50
3 218 217 106
3 218 34 217
3 218 83 34
3 219 83 218
3 219 2 83
3 193 71 1
3 220 71 193
3 220 22 71
3 109 220 39
3 221 220 109
3 221 22 220
3 221 163 22
3 222 163 221
3 222 13 163
3 165 110 5
3 223 110 165
3 223 52 110
3 112 223 24
3 224 223 112
3 224 52 223
3 224 222 52
3 225 222 224
3 225 13 222
3 225 107 13
3 226 107 225
3 226 51 107
3 114 226 53
3 227 226 114
3 227 51 226
3 227 219 51
3 228 219 227
3 228 2 219
3 228 206 2
3 229 206 228
3 229 44 206
3 116 229 54
3 230 229 116
3 230 44 229
3 230 96 44
3 231 96 230
3 231 8 96
3 169 117 14
3 232 117 169
3 232 55 117
3 119 232 26
3 233 232 119
3 233 55 232
3 233 231 55
3 520 231 521
3 522 521 233
3 520 521 522
3 523 8 524
3 525 524 231
3 523 524 525
3 527 526 8
3 528 234 529
3 235 530 532
3 530 234 531
3 530 531 532
3 235 56 234
3 120 533 535
3 533 235 534
3 533 534 535
3 236 235 120
3 236 56 235
3 236 150 56
3 237 150 236
3 237 15 150
3 172 536 538
3 536 121 537
3 536 537 538
3 238 121 172
3 238 57 121
3 123 238 28
3 239 238 123
3 239 57 238
3 239 237 57
3 240 237 239
3 240 15 237
3 240 189 15
3 241 189 240
3 241 37 189
3 125 241 58
3 242 241 125
3 242 37 241
3 242 86 37
3 243 86 242
3 243 4 86
3 197 78 3
3 244 78 197
3 244 29 78
3 128 244 41
3 245 244 128
3 245 29 244
3 245 175 29
3 246 175 245
3 246 16 175
3 177 129 7
3 247 129 177
3 247 60 129
3 131 247 31
3 248 247 131
3 248 60 247
3 248 246 60
3 249 246 248
3 249 16 246
3 249 126 16
3 250 126 249
3 250 59 126
3 133 250 61
3 251 250 133
3 251 59 250
3 251 243 59
3 252 243 251
3 252 4 243
3 252 211 4
3 253 211 252
3 253 47 211
3 135 253 62
3 254 253 135
3 254 47 253
3 254 99 47
3 255 99 254
3 255 10 99
3 181 136 17
3 256 136 181
3 256 63 136
3 138 256 33
3 257 256 138
3 257 63 256
3 257 255 63
3 258 255 257
3 258 10 255
3 258 156 10
3 259 156 258
3 259 539 541
3 541 540 156
3 539 540 541
3 140 259 64
3 542 259 543
3 544 543 140
3 542 543 544
3 546 545 259
3 547 27 548
3 549 27 550
3 551 76 552
3 553 552 27
3 551 552 553
3 554 76 555
3 556 3 557
3 558 557 76
3 556 557 558
3 260 559 560
3 260 561 563
3 561 3 562
3 561 562 563
3 260 196 3
3 261 196 260
3 261 40 196
3 564 261 565
3 262 566 568
3 566 261 567
3 566 567 568
3 262 40 261
3 262 89 40
3 569 89 570
3 571 570 262
3 569 570 571
3 572 6 573
3 574 573 89
3 572 573 574
3 575 6 576
3 577 153 578
3 579 578 6
3 577 578 579
3 580 153 581
3 583 582 153
3 142 584 586
3 586 585 48
3 584 585 586
3 588 587 142
3 185 143 12
3 263 143 185
3 263 65 143
3 145 263 35
3 589 263 590
3 591 590 145
3 589 590 591
3 592 65 593
3 594 593 263
3 592 593 594
3 596 595 65
3 207 85 2
3 264 85 207
3 264 36 85
3 148 264 45
3 265 264 148
3 265 36 264
3 265 188 36
3 266 188 265
3 266 597 599
3 599 598 188
3 597 598 599
3 600 149 601
3 602 601 9
3 600 601 602
3 603 149 604
3 605 66 606
3 607 606 149
3 605 606 607
3 608 66 609
3 610 266 611
3 612 611 66
3 610 611 612
3 613 266 614
3 616 615 266
3 234 617 619
3 617 67 618
3 617 618 619
3 267 67 234
3 267 620 622
3 622 621 67
3 620 621 622
3 151 267 56
3 623 267 624
3 625 624 151
3 623 624 625
3 627 626 267
3 190 152 15
3 628 152 629
3 630 629 190
3 628 629 630
3 632 631 152
3 634 633 4
