ply
format ascii 1.0
element vertex 418
property float x
property float y
property float z
element face 431
property list uchar int vertex_index
end_header
66.253845 -26.89855 33.759777
66.56028 -19.858797 25.22102
69.154465 -17.279436 31.488972
63.288826 -29.135048 46.9468
50.03035 -22.791098 19.90122
59.016785 -21.578825 21.532215
60.460014 -29.765764 27.998539
64.295364 -35.81469 35.232738
66.557228 -23.323652 39.77034
66.633461 -32.428722 42.230412
57.829395 -30.816097 50.561684
66.253708 -23.637493 29.385178
63.334366 -24.886021 26.705526
63.871864 -28.430792 30.784777
62.136147 -33.013592 31.685635
64.91761 -31.473991 34.968727
65.550179 -30.738344 44.898945
51.089848 -27.731915 21.274376
47.493118 -28.084768 19.563187
68.578911 -18.700371 28.148722
67.792969 -22.135548 32.454285
62.957024 -24.482977 46.006824
60.605087 -27.56864 48.737709
54.45755 -22.276241 20.626911
55.222435 -26.949831 22.813341
63.22863 -20.784973 22.998125
59.471161 -25.969952 24.53714
67.866501 -20.408228 35.680588
67.145844 -25.163502 36.800621
65.107826 -26.168404 43.607948
66.513123 -27.942936 41.02951
66.513428 -29.747549 38.127514
66.137459 -34.175388 38.943581
46.146851 -22.971796 18.906128
66.208595 -25.328905 31.55904
65.029381 -26.05587 30.097158
65.228607 -27.691986 32.2547
64.342415 -30.008423 32.883476
65.532028 -29.209328 34.424419
69.040787 -18.019131 29.792822
68.174957 -20.474615 30.287241
68.518936 -19.701855 31.92412
60.614845 -25.231842 48.581718
59.311829 -26.809168 49.718918
58.902031 -19.159214 20.187729
56.589851 -19.441004 19.855314
56.74865 -21.942295 21.030144
54.769104 -24.698454 21.677103
56.995972 -24.288401 22.277428
65.036552 -20.344664 24.012093
61.794693 -27.35046 27.418941
61.485855 -25.442112 25.556673
59.883224 -27.940266 26.2192
57.87635 -28.501295 25.106026
58.568291 -30.374052 26.686914
59.45248 -32.101284 28.341211
63.185623 -34.460091 33.498581
61.753159 -35.164482 31.681393
66.65255 -20.970613 39.275902
67.216515 -21.885765 37.746384
67.50309 -22.801752 36.193966
67.014854 -24.247421 38.300106
63.069893 -26.805841 46.416168
64.078835 -25.311533 44.811859
64.256989 -27.626049 45.359875
66.277885 -31.570955 43.649818
66.09552 -29.320787 43.029243
66.556938 -30.198 41.691559
66.715904 -28.847176 39.618439
66.623535 -31.088951 40.230576
66.27655 -31.979824 38.660091
66.583206 -33.303001 40.653381
47.996582 -22.932144 19.464258
57.902168 -28.424793 50.622925
61.14003 -18.852852 20.663364
66.381508 -21.815556 27.264553
64.959915 -22.386362 25.949108
64.945168 -24.289272 27.985271
63.535423 -26.726105 28.712784
62.255051 -29.119576 29.363815
61.214577 -31.453606 29.836395
62.874161 -30.756296 31.35113
63.63237 -32.27182 33.336155
64.4814 -33.684368 35.275169
65.846184 -22.412874 41.211014
64.521935 -29.929123 45.986389
66.481079 -33.807812 44.084824
66.745697 -34.640778 42.513168
50.460579 -25.358465 20.573868
48.483795 -25.557131 19.965101
49.200356 -27.978306 20.462107
67.75061 -19.313606 26.610092
67.462044 -21.180439 28.720964
67.211304 -22.920229 30.884274
67.023491 -24.540127 33.078392
61.831902 -26.00432 47.470078
61.952911 -28.348249 47.839104
59.27034 -29.17519 49.776901
60.719551 -29.941307 49.041016
62.190289 -30.704201 48.323761
51.977711 -19.896433 19.418297
54.263733 -19.690794 19.61731
52.200584 -22.565691 20.269691
52.572647 -25.063198 21.126793
53.113945 -27.378124 22.042564
63.237808 -18.52294 21.321348
61.199253 -21.193403 22.177429
63.245407 -22.906233 24.794212
61.300606 -23.390327 23.805725
59.194557 -23.849995 22.974688
57.361351 -26.474525 23.631996
60.524345 -33.693634 30.022648
68.516335 -18.876413 33.589024
68.00161 -21.292049 34.063362
67.451828 -23.693375 34.63134
66.898575 -26.0525 35.281616
63.993866 -22.997719 44.3829
64.99659 -23.853304 43.065361
65.864601 -24.74272 41.733063
65.299164 -28.463554 44.24485
65.950943 -27.04731 42.355965
66.509911 -25.652618 40.362762
66.847183 -26.56942 38.941978
66.811127 -27.47805 37.470688
66.370033 -28.362705 35.959343
65.90152 -30.628374 36.571465
65.541359 -32.851673 37.001205
65.347511 -35.021263 37.12878
66.620056 -35.486034 40.760788
66.13974 -36.318626 38.863266
46.690899 -25.634172 19.251799
69.097626 -17.649284 30.640897
69.394478 -16.811802 29.597285
69.451317 -16.441955 30.44536
58.710066 -26.453072 50.282719
59.385657 -25.659608 49.760834
65.798416 -20.101731 24.616557
65.88964 -19.054944 23.643282
66.651505 -18.81201 24.247746
63.687237 -36.173389 34.252317
63.132366 -35.49609 33.385238
63.740493 -35.13739 34.365659
64.355251 -36.818344 34.995361
63.687237 -36.173389 34.252317
49.013466 -22.861621 19.682739
48.888914 -21.487929 19.331844
49.905798 -21.417406 19.550325
62.185234 -17.488416 20.208262
61.113629 -17.613461 19.950689
65.403702 -21.974453 41.920967
65.86314 -21.248303 40.994537
66.30014 -34.533116 44.917091
66.156395 -33.404532 44.766041
66.58987 -34.919943 44.142826
66.30014 -34.533116 44.917091
68.772167 -17.752443 27.104417
69.055413 -17.466261 27.919149
68.16476 -19.006988 27.379407
68.358017 -18.05906 26.335102
68.772167 -17.752443 27.104417
60.839748 -31.135601 49.244484
60.04522 -30.759557 49.513928
61.575118 -31.517048 48.885857
61.45492 -30.322754 48.682389
60.839748 -31.135601 49.244484
62.35541 -31.883788 48.579644
61.575118 -31.517048 48.885857
53.072447 -18.425272 19.005391
51.931109 -18.483201 18.966336
54.533287 -28.227948 22.933156
53.479042 -28.442094 22.547767
54.16819 -27.163978 22.427952
63.233219 -19.653956 22.159737
64.182346 -18.343419 21.754716
64.177757 -19.474435 22.593105
56.859711 -28.765133 24.583199
57.265093 -29.721047 25.261736
61.016295 -35.474652 30.754229
61.775568 -36.15887 31.468274
68.03656 -19.214905 35.461428
67.651436 -19.959262 36.480524
68.191418 -19.642321 34.634806
68.361477 -18.448997 34.415646
68.03656 -19.214905 35.461428
63.475445 -23.740348 45.194862
63.462158 -22.594569 45.048582
62.943737 -23.337198 45.860544
66.763451 -36.155771 41.590496
66.682877 -35.063406 41.636978
66.826271 -35.733143 42.466686
66.229294 -37.347759 38.600069
66.451096 -36.968105 39.657044
65.757061 -36.713169 37.858557
66.229294 -37.347759 38.600069
45.994473 -21.543081 18.688654
46.933979 -21.545621 18.904038
45.33617 -22.935755 18.544531
45.994473 -21.543081 18.688654
50.623686 -28.958331 21.140344
51.511378 -28.81776 21.661019
69.28635 -17.125641 28.7412
69.394478 -16.811802 29.597285
68.809849 -18.359751 28.970772
69.055413 -17.466261 27.919149
69.28635 -17.125641 28.7412
60.037165 -24.870945 49.192234
60.659456 -24.097929 48.561199
59.963337 -26.020505 49.150318
60.037165 -24.870945 49.192234
59.385657 -25.659608 49.760834
58.600141 -31.196953 50.274262
57.873205 -32.029797 50.606389
57.745941 -19.300109 20.021521
57.705532 -18.019687 19.378825
58.861622 -17.878792 19.545032
65.081718 -19.254281 23.100088
65.88964 -19.054944 23.643282
64.132591 -20.564819 23.505109
64.177757 -19.474435 22.593105
65.081718 -19.254281 23.100088
57.611063 -30.657426 26.05218
57.265093 -29.721047 25.261736
58.222321 -29.437673 25.89647
58.118481 -31.534589 26.773429
57.611063 -30.657426 26.05218
58.560575 -32.398205 27.600577
58.118481 -31.534589 26.773429
59.010385 -31.237668 27.514063
59.168989 -33.203041 28.343711
58.560575 -32.398205 27.600577
62.416134 -35.848286 32.476644
62.469391 -34.812286 32.589987
63.132366 -35.49609 33.385238
61.775568 -36.15887 31.468274
62.416134 -35.848286 32.476644
67.04446 -20.240454 38.278181
66.710717 -19.800028 39.060845
67.326443 -20.698031 37.513422
67.04446 -20.240454 38.278181
66.934533 -21.428189 38.511143
67.541508 -21.146997 36.713486
67.651436 -19.959262 36.480524
67.326443 -20.698031 37.513422
47.858845 -21.525795 19.183104
48.888914 -21.487929 19.331844
47.071716 -22.95197 19.185193
46.933979 -21.545621 18.904038
47.858845 -21.525795 19.183104
46.752972 -28.054978 19.05342
47.341803 -29.166574 19.124297
69.400486 -16.106291 31.307165
69.451317 -16.441955 30.44536
57.273419 -28.074804 51.138138
58.005235 -27.260885 50.734722
57.144909 -29.248474 50.949948
57.273419 -28.074804 51.138138
57.108522 -30.444126 50.919327
57.865781 -29.620445 50.592304
57.144909 -29.248474 50.949948
57.060631 -31.647634 50.819359
57.108522 -30.444126 50.919327
57.873205 -32.029797 50.606389
57.060631 -31.647634 50.819359
59.994629 -17.766642 19.712871
58.861622 -17.878792 19.545032
60.021031 -19.006033 20.425547
59.994629 -17.766642 19.712871
61.113629 -17.613461 19.950689
66.266323 -20.527173 40.026982
66.710717 -19.800028 39.060845
66.249367 -21.691744 40.243458
66.266323 -20.527173 40.026982
65.86314 -21.248303 40.994537
64.05999 -30.695228 46.759514
63.90538 -29.532086 46.466594
63.443435 -30.298191 47.23972
64.683105 -31.075737 46.288421
64.05999 -30.695228 46.759514
65.197227 -31.480348 45.744699
65.036057 -30.333734 45.442667
64.683105 -31.075737 46.288421
65.690945 -31.869798 45.173102
65.197227 -31.480348 45.744699
66.054798 -32.286103 44.548538
65.914032 -31.15465 44.274382
65.690945 -31.869798 45.173102
66.379482 -32.689383 43.867321
66.054798 -32.286103 44.548538
66.156395 -33.404532 44.766041
66.72218 -35.336426 43.356999
66.613388 -34.224295 43.298996
66.58987 -34.919943 44.142826
66.826271 -35.733143 42.466686
66.72218 -35.336426 43.356999
49.67894 -29.081527 20.73421
50.145102 -27.855111 20.868241
50.623686 -28.958331 21.140344
48.881569 -29.144573 20.178231
49.67894 -29.081527 20.73421
48.02795 -29.197805 19.728772
48.346737 -28.031537 20.012647
48.881569 -29.144573 20.178231
47.341803 -29.166574 19.124297
48.02795 -29.197805 19.728772
67.296661 -18.5869 24.897358
66.651505 -18.81201 24.247746
67.891827 -18.314304 25.591894
68.358017 -18.05906 26.335102
67.155445 -19.586202 25.915556
67.296661 -18.5869 24.897358
67.891827 -18.314304 25.591894
62.386984 -24.088555 46.621801
62.943737 -23.337198 45.860544
61.215895 -24.462987 47.909248
60.659456 -24.097929 48.561199
61.824423 -24.849226 47.353428
61.215895 -24.462987 47.909248
61.223374 -25.618081 48.025898
62.394463 -25.243648 46.738451
62.386984 -24.088555 46.621801
61.824423 -24.849226 47.353428
58.606999 -27.616981 50.170922
58.710066 -26.453072 50.282719
58.005235 -27.260885 50.734722
59.320614 -30.376499 49.88187
58.549867 -29.995643 50.169292
58.600141 -31.196953 50.274262
59.994946 -29.558248 49.408958
59.320614 -30.376499 49.88187
60.04522 -30.759557 49.513928
62.894167 -31.082768 47.9282
63.443435 -30.298191 47.23972
62.739558 -29.919625 47.635281
62.894167 -31.082768 47.9282
62.35541 -31.883788 48.579644
50.879479 -19.970074 19.308864
51.931109 -18.483201 18.966336
51.00403 -21.343765 19.659758
49.905798 -21.417406 19.550325
50.879479 -19.970074 19.308864
56.542843 -18.117488 19.279479
57.705532 -18.019687 19.378825
55.379784 -18.242383 19.160477
56.542843 -18.117488 19.279479
55.426792 -19.565899 19.736312
54.215458 -18.322453 19.104897
55.379784 -18.242383 19.160477
53.120722 -19.793613 19.517803
53.072447 -18.425272 19.005391
54.215458 -18.322453 19.104897
52.523426 -28.640865 22.045113
51.511378 -28.81776 21.661019
52.101897 -27.55502 21.65847
52.523426 -28.640865 22.045113
53.479042 -28.442094 22.547767
64.210247 -17.184578 20.900956
64.182346 -18.343419 21.754716
63.234123 -17.32346 20.537254
64.210247 -17.184578 20.900956
62.188919 -18.687896 20.992356
62.185234 -17.488416 20.208262
63.234123 -17.32346 20.537254
56.602211 -27.751748 23.846184
57.618851 -27.48791 24.369011
56.859711 -28.765133 24.583199
55.532753 -27.989401 23.436856
56.291893 -26.712178 23.222669
56.602211 -27.751748 23.846184
54.533287 -28.227948 22.933156
55.532753 -27.989401 23.436856
59.704921 -33.999216 29.184429
59.168989 -33.203041 28.343711
59.988412 -32.897459 29.18193
60.401888 -34.739227 29.924857
61.138752 -34.429058 30.852021
61.016295 -35.474652 30.754229
59.704921 -33.999216 29.184429
60.401888 -34.739227 29.924857
69.0541 -16.888993 32.335262
69.400486 -16.106291 31.307165
68.735035 -17.687482 33.385289
68.361477 -18.448997 34.415646
68.8354 -18.077925 32.538998
69.0541 -16.888993 32.335262
68.735035 -17.687482 33.385289
63.983227 -21.856138 44.213768
63.462158 -22.594569 45.048582
64.477543 -22.266875 43.50691
63.983227 -21.856138 44.213768
64.978905 -22.694668 42.84814
64.477543 -22.266875 43.50691
64.495228 -23.425511 43.724131
65.421387 -23.133089 42.138188
65.403702 -21.974453 41.920967
64.978905 -22.694668 42.84814
66.691254 -36.551809 40.605804
66.763451 -36.155771 41.590496
66.379898 -35.90233 39.812027
66.691254 -36.551809 40.605804
66.451096 -36.968105 39.657044
65.360946 -36.064487 36.991314
65.743626 -35.669944 37.996023
65.757061 -36.713169 37.858557
64.834873 -36.461201 36.043293
64.821438 -35.417976 36.180759
65.360946 -36.064487 36.991314
64.355251 -36.818344 34.995361
64.834873 -36.461201 36.043293
46.351862 -26.82968 18.897726
47.092009 -26.85947 19.407493
46.752972 -28.054978 19.05342
45.909148 -25.602826 18.822947
46.351862 -26.82968 18.897726
45.637124 -24.271638 18.650112
46.418875 -24.302984 19.078964
45.909148 -25.602826 18.822947
45.33617 -22.935755 18.544531
45.637124 -24.271638 18.650112
3 0 36 34
3 0 38 36
3 2 131 133
3 131 39 132
3 131 132 133
3 2 41 39
3 134 43 135
3 5 46 44
3 5 48 46
3 1 136 138
3 136 49 137
3 136 137 138
3 6 52 50
3 6 54 52
3 6 55 54
3 7 139 141
3 141 140 56
3 139 140 141
3 7 142 143
3 8 59 58
3 8 61 59
3 3 64 62
3 9 67 65
3 9 69 67
3 9 71 69
3 4 144 146
3 144 72 145
3 144 145 146
3 147 74 148
3 11 77 75
3 13 78 35
3 13 79 78
3 13 81 79
3 15 82 37
3 15 83 82
3 149 84 150
3 151 86 152
3 154 153 86
3 17 90 88
3 19 155 156
3 19 157 159
3 157 91 158
3 157 158 159
3 19 92 91
3 20 93 40
3 20 94 93
3 22 95 42
3 22 96 95
3 10 97 73
3 160 98 161
3 162 99 163
3 164 163 98
3 162 163 164
3 166 165 99
3 167 100 168
3 23 101 45
3 23 102 101
3 23 103 102
3 24 104 47
3 24 169 171
3 171 170 104
3 169 170 171
3 25 172 174
3 172 105 173
3 172 173 174
3 25 106 105
3 12 107 76
3 26 108 51
3 26 109 108
3 26 110 109
3 176 175 53
3 14 111 80
3 178 177 57
3 27 179 180
3 27 181 183
3 181 112 182
3 181 182 183
3 27 113 112
3 28 114 60
3 28 115 114
3 21 184 186
3 184 116 185
3 184 185 186
3 29 117 63
3 29 118 117
3 16 119 85
3 30 120 66
3 30 121 120
3 30 122 121
3 31 123 68
3 31 124 123
3 31 125 124
3 32 126 70
3 32 127 126
3 187 128 188
3 189 188 87
3 187 188 189
3 190 129 191
3 193 192 129
3 33 194 195
3 33 196 197
3 18 130 89
3 34 35 11
3 36 35 34
3 36 13 35
3 36 37 13
3 38 37 36
3 38 15 37
3 199 198 17
3 39 200 201
3 39 202 204
3 202 19 203
3 202 203 204
3 39 40 19
3 41 40 39
3 41 20 40
3 205 42 206
3 43 207 209
3 207 42 208
3 207 208 209
3 43 22 42
3 211 210 10
3 44 212 214
3 212 45 213
3 212 213 214
3 46 45 44
3 46 23 45
3 46 47 23
3 48 47 46
3 48 24 47
3 49 215 216
3 49 217 219
3 217 25 218
3 217 218 219
3 50 51 12
3 52 51 50
3 52 26 51
3 52 53 26
3 54 53 52
3 54 220 222
3 222 221 53
3 220 221 222
3 54 223 224
3 55 225 227
3 227 226 54
3 225 226 227
3 55 228 229
3 56 57 14
3 230 57 231
3 232 231 56
3 230 231 232
3 234 233 57
3 58 235 236
3 59 237 239
3 239 238 58
3 237 238 239
3 59 240 242
3 240 27 241
3 240 241 242
3 59 60 27
3 61 60 59
3 61 28 60
3 62 63 21
3 64 63 62
3 64 29 63
3 65 66 16
3 67 66 65
3 67 30 66
3 67 68 30
3 69 68 67
3 69 31 68
3 69 70 31
3 71 70 69
3 71 32 70
3 72 243 244
3 72 245 247
3 245 33 246
3 245 246 247
3 249 248 18
3 250 2 251
3 252 73 253
3 254 73 255
3 256 10 257
3 258 257 73
3 256 257 258
3 259 10 260
3 262 261 10
3 263 44 264
3 74 265 267
3 265 44 266
3 265 266 267
3 74 5 44
3 75 76 1
3 77 76 75
3 77 12 76
3 35 77 11
3 78 77 35
3 78 12 77
3 78 50 12
3 79 50 78
3 79 6 50
3 79 80 6
3 81 80 79
3 81 14 80
3 37 81 13
3 82 81 37
3 82 14 81
3 82 56 14
3 83 56 82
3 83 7 56
3 268 58 269
3 84 270 272
3 270 58 271
3 270 271 272
3 84 8 58
3 273 85 274
3 275 274 3
3 273 274 275
3 276 85 277
3 278 16 279
3 280 279 85
3 278 279 280
3 281 16 282
3 283 65 284
3 285 284 16
3 283 284 285
3 86 286 288
3 286 65 287
3 286 287 288
3 86 9 65
3 86 87 9
3 289 87 290
3 291 290 86
3 289 290 291
3 293 292 87
3 88 89 4
3 90 89 88
3 90 18 89
3 294 90 295
3 296 295 17
3 294 295 296
3 297 90 298
3 299 18 300
3 301 300 90
3 299 300 301
3 303 302 18
3 304 1 305
3 91 306 307
3 91 308 310
3 308 1 309
3 308 309 310
3 91 75 1
3 92 75 91
3 92 11 75
3 40 92 19
3 93 92 40
3 93 11 92
3 93 34 11
3 94 34 93
3 94 0 34
3 311 21 312
3 42 313 314
3 95 315 317
3 317 316 42
3 315 316 317
3 95 318 320
3 318 21 319
3 318 319 320
3 95 62 21
3 96 62 95
3 96 3 62
3 73 321 323
3 321 43 322
3 321 322 323
3 97 43 73
3 97 22 43
3 324 97 325
3 326 325 10
3 324 325 326
3 98 327 329
3 327 97 328
3 327 328 329
3 98 22 97
3 98 96 22
3 99 96 98
3 99 3 96
3 99 330 332
3 332 331 3
3 330 331 332
3 334 333 99
3 100 335 336
3 100 337 339
3 337 4 338
3 337 338 339
3 45 340 341
3 101 342 344
3 344 343 45
3 342 343 344
3 101 345 346
3 101 347 349
3 347 100 348
3 347 348 349
3 102 100 101
3 102 4 100
3 102 88 4
3 103 88 102
3 103 17 88
3 47 103 23
3 104 103 47
3 104 17 103
3 104 350 352
3 352 351 17
3 350 351 352
3 354 353 104
3 105 355 356
3 105 357 358
3 105 359 361
3 359 74 360
3 359 360 361
3 106 74 105
3 106 5 74
3 76 49 1
3 107 49 76
3 107 25 49
3 51 107 12
3 108 107 51
3 108 25 107
3 108 106 25
3 109 106 108
3 109 5 106
3 109 48 5
3 110 48 109
3 110 24 48
3 53 110 26
3 362 110 363
3 364 363 53
3 362 363 364
3 365 24 366
3 367 366 110
3 365 366 367
3 369 368 24
3 80 55 6
3 111 55 80
3 111 370 372
3 372 371 55
3 370 371 372
3 57 111 14
3 373 111 374
3 375 374 57
3 373 374 375
3 377 376 111
3 378 2 379
3 112 380 381
3 112 382 384
3 382 2 383
3 382 383 384
3 112 41 2
3 113 41 112
3 113 20 41
3 60 113 27
3 114 113 60
3 114 20 113
3 114 94 20
3 115 94 114
3 115 0 94
3 116 385 386
3 116 387 388
3 63 116 21
3 117 116 63
3 117 389 391
3 391 390 116
3 389 390 391
3 117 392 394
3 392 84 393
3 392 393 394
3 118 84 117
3 118 8 84
3 85 64 3
3 119 64 85
3 119 29 64
3 66 119 16
3 120 119 66
3 120 29 119
3 120 118 29
3 121 118 120
3 121 8 118
3 121 61 8
3 122 61 121
3 122 28 61
3 68 122 30
3 123 122 68
3 123 28 122
3 123 115 28
3 124 115 123
3 124 0 115
3 124 38 0
3 125 38 124
3 125 15 38
3 70 125 31
3 126 125 70
3 126 15 125
3 126 83 15
3 127 83 126
3 127 7 83
3 87 71 9
3 128 71 87
3 128 32 71
3 395 128 396
3 129 397 399
3 397 128 398
3 397 398 399
3 129 32 128
3 129 127 32
3 400 127 401
3 402 401 129
3 400 401 402
3 403 7 404
3 405 404 127
3 403 404 405
3 407 406 7
3 89 72 4
3 130 72 89
3 130 33 72
3 408 130 409
3 410 409 18
3 408 409 410
3 411 130 412
3 413 33 414
3 415 414 130
3 413 414 415
3 417 416 33
