ply
format ascii 1.0
element vertex 395
property float x
property float y
property float z
element face 434
property list uchar int vertex_index
end_header
-64.724747 -68.124832 -9.054024
-51.108788 -79.834709 8.989416
-59.763653 -60.233524 2.75519
-46.866779 -83.164093 19.715252
-56.959625 -79.001694 -7.084108
-51.707684 -84.79245 1.661913
-58.336761 -75.270706 -0.11709
-49.385509 -74.026253 16.132332
-55.746391 -70.417358 6.047113
-63.033287 -64.740814 -2.882072
-46.476921 -87.842224 21.24468
-61.166805 -73.735023 -7.970545
-63.432701 -69.710548 -12.451773
-49.334381 -84.417664 10.238631
-51.773132 -82.400101 5.384897
-54.830479 -79.987373 0.842501
-54.535477 -77.813713 4.323772
-54.636269 -67.641525 9.122419
-57.845207 -65.35498 4.348722
-59.583824 -67.957321 1.521924
-60.956787 -62.531532 -0.140606
-46.984528 -90.869705 16.664846
-47.616196 -86.164597 15.537721
-48.500832 -81.537582 14.096596
-51.011131 -87.314255 -2.133163
-54.22789 -82.062195 -2.785286
-58.146896 -77.12661 -3.567379
-61.912693 -72.064476 -4.536953
-47.715607 -78.552383 17.964563
-50.029831 -76.956619 12.538469
-52.144722 -72.333199 10.87472
-53.400764 -75.237106 7.615459
-57.368248 -73.080658 3.059527
-61.29612 -70.229485 -1.352654
-64.583862 -66.56311 -5.799797
-63.081665 -70.987282 -8.483915
-62.409184 -71.806213 -10.197062
-64.234406 -68.902107 -10.758574
-50.135761 -82.114281 9.62624
-50.464432 -83.453247 7.761547
-51.525616 -81.155685 7.200686
-53.096535 -80.102142 4.870922
-52.742165 -78.878281 6.613472
-57.397583 -64.093231 5.845468
-58.81176 -62.787861 3.521657
-59.447296 -64.021271 2.077032
-60.16626 -61.359676 1.270284
-46.533714 -93.238617 16.990099
-46.652023 -85.496109 20.52387
-46.993065 -87.000671 18.349941
-47.233643 -84.665146 17.629288
-47.990433 -83.84111 14.83821
-47.566711 -82.346519 16.846558
-50.635231 -86.025726 3.964509
-50.475563 -87.327927 2.030297
-50.172607 -88.683121 0.077624
-51.424919 -86.021088 -0.232129
-52.500721 -84.630249 -2.439657
-52.913811 -83.46817 -0.584402
-56.5923 -77.646133 0.388523
-56.488853 -78.616745 -1.369684
-58.387482 -76.218018 -1.815485
-60.113449 -74.639633 -4.020653
-60.19138 -73.756981 -2.320267
-48.448738 -74.882935 18.921604
-47.604462 -77.113083 19.893995
-48.440239 -76.276962 17.055454
-48.72464 -77.751831 15.187735
-49.58707 -75.467178 14.327221
-55.044937 -69.003448 7.557925
-53.353127 -69.992348 10.003668
-53.875179 -71.424278 8.41255
-52.718739 -73.800919 9.235721
-54.594193 -72.862534 6.856526
-55.348064 -74.232193 5.305466
-56.576202 -71.797699 4.560619
-61.391144 -66.450104 -0.684446
-60.526272 -69.153564 0.112303
-62.336491 -67.531746 -2.089077
-63.050102 -68.499359 -3.564051
-63.950119 -65.700874 -4.301165
-65.325424 -63.667297 -6.536991
-64.461731 -62.830357 -5.08832
-46.248547 -90.198303 21.828674
-46.194977 -86.34584 23.494688
-46.361504 -84.006042 22.677969
-59.086525 -76.389999 -7.506145
-60.375233 -74.600754 -9.677826
-61.477928 -72.658173 -11.864937
-48.699631 -86.759003 10.81653
-49.591175 -85.796478 8.2969
-50.634186 -84.746201 5.875464
-51.831417 -83.598648 3.537428
-53.171989 -82.353424 1.263851
-53.240593 -81.246788 3.086679
-54.804977 -78.936722 2.60944
-56.425056 -76.617645 2.089804
-55.987473 -65.295761 8.253811
-56.217155 -66.552551 6.692543
-56.83033 -67.907745 5.202038
-57.676689 -69.272491 3.758038
-58.629753 -66.670509 2.919054
-60.367126 -65.265366 0.688745
-61.975315 -63.676357 -1.510025
-63.401192 -61.897854 -3.697321
-46.760231 -89.351212 18.966503
-47.311565 -88.509003 16.162409
-47.947044 -87.654007 13.440247
-48.388138 -85.312759 12.830118
-48.954239 -83.00032 12.16889
-49.684605 -80.710754 11.478266
-51.966599 -85.865494 -4.283957
-53.67746 -83.167633 -4.595659
-55.599258 -80.576439 -4.949163
-54.626171 -81.01368 -0.963623
-56.142948 -79.579453 -3.160078
-57.654297 -78.043266 -5.337376
-59.729271 -75.50428 -5.763977
-61.697243 -72.898926 -6.240202
-63.437462 -70.186829 -6.779066
-46.603947 -81.682899 21.787189
-46.999836 -79.382751 20.852875
-47.201904 -80.848846 18.854807
-48.053104 -80.043404 16.028528
-49.180336 -79.246735 13.329049
-50.578674 -78.428383 10.763401
-50.545574 -71.806213 15.199286
-53.176552 -68.654434 11.646139
-51.831436 -70.913696 12.550101
-50.628876 -73.18705 13.447013
-51.027992 -74.65477 11.7212
-51.605312 -76.13179 10.018587
-52.217346 -77.552643 8.323195
-54.044472 -76.583313 5.986939
-55.992752 -75.487244 3.725367
-57.984978 -74.236343 1.507616
-58.581093 -70.570312 2.321259
-59.378029 -71.753204 0.848582
-59.93964 -72.808701 -0.693878
-61.77771 -71.189438 -2.900919
-63.430828 -69.371735 -5.129217
-64.849892 -67.357529 -7.38891
-65.864265 -64.430267 -8.068256
-59.287706 -61.510693 3.138424
-58.706761 -62.217499 4.284925
-59.182707 -60.940331 3.901692
-60.301306 -59.47468 1.644774
-60.50261 -60.037756 0.902321
-59.964956 -60.7966 2.012737
-56.533674 -79.510067 -7.927246
-55.931099 -80.318085 -6.893844
-46.09388 -85.608917 24.599125
-45.997647 -86.777137 25.002659
-46.177143 -84.439018 24.190766
-46.27824 -85.175941 23.086329
-46.09388 -85.608917 24.599125
-62.905998 -70.130336 -13.265294
-61.928612 -71.604149 -12.971876
-62.455315 -71.18436 -12.158355
-56.696636 -64.132955 7.839409
-56.110875 -64.756821 9.071866
-61.637563 -61.702974 -1.232465
-62.146828 -62.275386 -1.917174
-61.466051 -63.103944 -0.825315
-47.044465 -91.635223 15.502185
-46.819057 -92.81968 15.664811
-46.759121 -92.054161 16.827472
-47.268993 -90.444939 15.312611
-47.044465 -91.635223 15.502185
-50.378559 -88.712746 -2.010576
-49.959297 -89.397179 -0.905183
-50.591869 -87.998688 -1.02777
-50.750785 -88.001641 -3.082349
-50.378559 -88.712746 -2.010576
-51.488865 -86.589875 -3.20856
-51.22852 -87.27726 -4.157745
-50.750785 -88.001641 -3.082349
-46.574812 -80.967587 22.806643
-46.407873 -82.116458 23.291668
-51.225783 -70.715499 14.731472
-50.712128 -71.194321 16.082823
-53.90641 -68.147979 10.384279
-53.912773 -67.536964 11.199098
-54.642632 -67.03051 9.937238
-65.885402 -62.555984 -7.670097
-65.48764 -62.197544 -6.926153
-64.005844 -60.915224 -4.793675
-63.446825 -60.471927 -4.095598
-57.999672 -62.870184 5.446831
-57.401691 -63.53169 6.635237
-58.104671 -63.440546 4.683562
-57.999672 -62.870184 5.446831
-58.706761 -62.217499 4.284925
-60.786129 -60.576938 0.172229
-61.181393 -61.162866 -0.533216
-60.561523 -61.945604 0.564839
-60.786129 -60.576938 0.172229
-60.50261 -60.037756 0.902321
-46.236644 -93.656739 18.330824
-46.200588 -94.42215 17.038578
-46.48648 -92.475273 18.207885
-46.236644 -93.656739 18.330824
-46.711888 -91.290817 18.045259
-46.759121 -92.054161 16.827472
-46.48648 -92.475273 18.207885
-50.142776 -87.28051 4.158749
-50.167165 -86.592453 5.15044
-50.062943 -87.931611 3.191644
-50.142776 -87.28051 4.158749
-50.555397 -86.676827 2.997403
-49.962047 -88.640411 2.188085
-50.062943 -87.931611 3.191644
-50.324085 -88.005524 1.053961
-49.810569 -89.318008 1.211749
-49.962047 -88.640411 2.188085
-48.0266 -75.998009 19.407799
-47.714055 -76.444512 20.844634
-48.136192 -75.329438 20.358438
-65.055794 -61.779074 -6.201818
-65.48764 -62.197544 -6.926153
-64.893577 -63.248827 -5.812655
-45.98639 -90.624 23.275442
-46.062544 -91.377884 22.024031
-46.130812 -89.447288 23.011335
-45.98639 -90.624 23.275442
-46.244999 -88.269249 22.719338
-46.362734 -89.020263 21.536677
-46.130812 -89.447288 23.011335
-46.104027 -87.521057 23.844342
-45.997647 -86.777137 25.002659
-46.335949 -87.094032 22.369684
-46.244999 -88.269249 22.719338
-46.104027 -87.521057 23.844342
-58.662148 -76.85453 -8.35339
-57.598698 -78.160378 -8.142372
-58.023075 -77.695847 -7.295127
-59.306501 -75.959907 -9.439231
-58.662148 -76.85453 -8.35339
-59.730879 -75.495376 -8.591985
-59.875521 -75.052987 -10.49548
-59.306501 -75.959907 -9.439231
-60.426868 -74.081696 -11.589036
-59.875521 -75.052987 -10.49548
-60.926581 -73.629463 -10.771382
-60.909137 -73.098317 -12.65173
-60.426868 -74.081696 -11.589036
-60.909137 -73.098317 -12.65173
-61.928612 -71.604149 -12.971876
-48.793209 -87.475655 9.803105
-48.439281 -87.94838 11.074034
-49.238981 -86.994393 8.54329
-48.793209 -87.475655 9.803105
-49.145403 -86.27774 9.556715
-49.645138 -86.477829 7.316635
-49.238981 -86.994393 8.54329
-50.166643 -85.952691 6.105917
-49.645138 -86.477829 7.316635
-50.11268 -85.271339 7.086182
-50.634709 -85.385964 4.919987
-50.167165 -86.592453 5.15044
-50.166643 -85.952691 6.105917
-48.645588 -74.253685 19.843098
-48.136192 -75.329438 20.358438
-48.995503 -73.792763 18.432388
-48.645588 -74.253685 19.843098
-49.463888 -73.364422 17.037752
-48.917124 -74.454594 17.526968
-48.995503 -73.792763 18.432388
-55.318234 -65.857628 9.502934
-56.110875 -64.756821 9.071866
-55.311871 -66.468643 8.688115
-54.642632 -67.03051 9.937238
-55.318234 -65.857628 9.502934
-56.692528 -64.694496 7.04964
-56.696636 -64.132955 7.839409
-57.401691 -63.53169 6.635237
-62.859766 -61.386135 -3.010822
-62.688254 -62.787106 -2.603673
-62.146828 -62.275386 -1.917174
-63.446825 -60.471927 -4.095598
-62.859766 -61.386135 -3.010822
-61.637563 -61.702974 -1.232465
-61.181393 -61.162866 -0.533216
-46.512762 -94.010758 15.757434
-46.200588 -94.42215 17.038578
-46.512762 -94.010758 15.757434
-46.819057 -92.81968 15.664811
-46.343897 -90.955116 20.627173
-46.062544 -91.377884 22.024031
-46.599739 -90.531571 19.196087
-46.343897 -90.955116 20.627173
-46.504389 -89.774757 20.397588
-46.872379 -90.110458 17.815675
-46.711888 -91.290817 18.045259
-46.599739 -90.531571 19.196087
-47.432512 -89.264588 15.061392
-47.268993 -90.444939 15.312611
-47.148046 -89.689354 16.413628
-47.750251 -88.837089 13.700311
-47.432512 -89.264588 15.061392
-47.629305 -88.081505 14.801328
-48.062988 -88.395882 12.385893
-47.750251 -88.837089 13.700311
-48.323337 -87.206505 12.128388
-48.439281 -87.94838 11.074034
-48.062988 -88.395882 12.385893
-59.805086 -59.731447 3.541812
-59.182707 -60.940331 3.901692
-60.250742 -58.971914 2.41614
-59.805086 -59.731447 3.541812
-56.533674 -79.510067 -7.927246
-57.598698 -78.160378 -8.142372
-65.242893 -67.005493 -10.209212
-65.368149 -66.640762 -9.369304
-49.638444 -90.057839 0.19695
-49.810569 -89.318008 1.211749
-49.638444 -90.057839 0.19695
-49.959297 -89.397179 -0.905183
-51.651066 -86.52597 -5.19444
-51.22852 -87.27726 -4.157745
-52.488366 -85.107452 -5.327998
-51.651066 -86.52597 -5.19444
-53.343796 -83.758522 -5.483849
-52.488366 -85.107452 -5.327998
-52.822029 -84.516563 -4.439808
-54.290017 -82.401055 -5.649619
-53.343796 -83.758522 -5.483849
-55.250915 -81.105457 -5.826371
-54.290017 -82.401055 -5.649619
-54.638359 -81.872036 -4.772411
-56.279442 -79.789066 -6.016635
-55.931099 -80.318085 -6.893844
-55.250915 -81.105457 -5.826371
-46.286652 -83.27803 23.737057
-46.177143 -84.439018 24.190766
-46.482726 -82.84447 22.232579
-46.286652 -83.27803 23.737057
-46.407873 -82.116458 23.291668
-47.335501 -77.551506 21.356949
-47.714055 -76.444512 20.844634
-47.033188 -78.68634 21.836388
-47.335501 -77.551506 21.356949
-47.302149 -78.247917 20.373435
-46.772756 -79.817512 22.339486
-47.033188 -78.68634 21.836388
-46.801891 -80.532825 21.320032
-46.574812 -80.967587 22.806643
-46.772756 -79.817512 22.339486
-50.04392 -72.254402 16.571229
-50.712128 -71.194321 16.082823
-49.965542 -72.916233 15.665809
-49.463888 -73.364422 17.037752
-50.04392 -72.254402 16.571229
-53.312107 -68.072174 12.49202
-53.912773 -67.536964 11.199098
-52.541272 -69.13961 12.954898
-53.312107 -68.072174 12.49202
-51.868713 -70.269241 13.406879
-52.541272 -69.13961 12.954898
-52.503994 -69.784065 12.09812
-51.188505 -71.359955 13.874693
-51.225783 -70.715499 14.731472
-51.868713 -70.269241 13.406879
-65.430722 -66.257111 -8.536747
-65.368149 -66.640762 -9.369304
-64.787319 -67.74118 -8.221467
-65.937908 -64.79348 -8.87642
-65.430722 -66.257111 -8.536747
-65.357079 -65.893898 -7.728583
-66.374592 -63.27337 -9.219645
-65.937908 -64.79348 -8.87642
-66.154823 -62.937469 -8.43573
-65.594844 -64.048782 -7.302624
-65.885402 -62.555984 -7.670097
-66.374592 -63.27337 -9.219645
-66.154823 -62.937469 -8.43573
-64.536114 -61.381476 -5.489175
-63.931461 -62.364106 -4.392821
-64.005844 -60.915224 -4.793675
-65.055794 -61.779074 -6.201818
-64.536114 -61.381476 -5.489175
-60.301306 -59.47468 1.644774
-60.250742 -58.971914 2.41614
-64.997723 -67.394131 -11.061488
-64.479577 -68.513469 -9.906299
-65.242893 -67.005493 -10.209212
-64.692612 -67.774517 -11.912601
-64.997723 -67.394131 -11.061488
-64.291759 -68.178738 -12.7592
-63.833554 -69.306328 -11.605173
-64.692612 -67.774517 -11.912601
-63.836322 -68.578556 -13.595138
-64.291759 -68.178738 -12.7592
-62.905998 -70.130336 -13.265294
-63.836322 -68.578556 -13.595138
3 0 37 35
3 1 40 38
3 1 42 40
3 2 143 145
3 143 44 144
3 143 144 145
3 2 46 44
3 2 146 148
3 148 147 46
3 146 147 148
3 3 50 48
3 3 52 50
3 4 149 150
3 5 54 53
3 5 56 54
3 5 58 56
3 6 61 59
3 6 63 61
3 7 66 64
3 7 68 66
3 8 71 69
3 8 73 71
3 8 75 73
3 9 78 76
3 9 80 78
3 9 82 80
3 151 84 152
3 153 85 154
3 155 154 84
3 153 154 155
3 11 87 86
3 12 88 36
3 12 156 158
3 158 157 88
3 156 157 158
3 13 90 89
3 14 91 39
3 14 92 91
3 14 94 92
3 16 95 41
3 16 96 95
3 159 97 160
3 18 98 43
3 18 99 98
3 18 101 99
3 20 102 45
3 20 103 102
3 20 161 163
3 163 162 103
3 161 162 163
3 21 164 166
3 166 165 47
3 164 165 166
3 21 167 168
3 10 105 83
3 22 106 49
3 22 107 106
3 22 108 107
3 23 109 51
3 23 110 109
3 24 169 171
3 171 170 55
3 169 170 171
3 24 172 173
3 24 174 176
3 174 111 175
3 174 175 176
3 25 112 57
3 25 113 112
3 15 114 93
3 26 115 60
3 26 116 115
3 26 117 116
3 27 118 62
3 27 119 118
3 177 120 178
3 28 121 65
3 28 122 121
3 28 123 122
3 29 124 67
3 29 125 124
3 179 126 180
3 17 181 183
3 181 127 182
3 181 182 183
3 30 128 70
3 30 129 128
3 30 130 129
3 31 131 72
3 31 132 131
3 31 133 132
3 32 134 74
3 32 135 134
3 19 136 100
3 33 137 77
3 33 138 137
3 33 139 138
3 34 140 79
3 34 141 140
3 34 142 141
3 185 184 81
3 187 186 104
3 35 36 11
3 37 36 35
3 37 12 36
3 38 39 13
3 40 39 38
3 40 14 39
3 40 41 14
3 42 41 40
3 42 16 41
3 188 43 189
3 44 190 192
3 190 43 191
3 190 191 192
3 44 18 43
3 44 45 18
3 46 45 44
3 46 20 45
3 46 193 195
3 195 194 20
3 193 194 195
3 197 196 46
3 198 47 199
3 200 47 201
3 202 21 203
3 204 203 47
3 202 203 204
3 48 49 10
3 50 49 48
3 50 22 49
3 50 51 22
3 52 51 50
3 52 23 51
3 53 205 206
3 54 207 209
3 209 208 53
3 207 208 209
3 54 210 211
3 54 212 214
3 212 55 213
3 212 213 214
3 56 55 54
3 56 24 55
3 56 57 24
3 58 57 56
3 58 25 57
3 59 60 15
3 61 60 59
3 61 26 60
3 61 62 26
3 63 62 61
3 63 27 62
3 64 215 217
3 215 65 216
3 215 216 217
3 66 65 64
3 66 28 65
3 66 67 28
3 68 67 66
3 68 29 67
3 69 70 17
3 71 70 69
3 71 30 70
3 71 72 30
3 73 72 71
3 73 31 72
3 73 74 31
3 75 74 73
3 75 32 74
3 76 77 19
3 78 77 76
3 78 33 77
3 78 79 33
3 80 79 78
3 80 34 79
3 80 81 34
3 82 81 80
3 82 218 220
3 220 219 81
3 218 219 220
3 221 83 222
3 223 83 224
3 225 10 226
3 227 226 83
3 225 226 227
3 84 228 229
3 84 230 232
3 230 10 231
3 230 231 232
3 84 48 10
3 85 48 84
3 85 3 48
3 86 233 235
3 235 234 4
3 233 234 235
3 87 236 238
3 238 237 86
3 236 237 238
3 87 239 240
3 36 87 11
3 88 87 36
3 88 241 243
3 243 242 87
3 241 242 243
3 88 244 245
3 247 246 88
3 89 248 249
3 90 250 252
3 252 251 89
3 250 251 252
3 90 253 254
3 39 90 13
3 91 90 39
3 91 255 257
3 257 256 90
3 255 256 257
3 91 258 260
3 258 53 259
3 258 259 260
3 92 53 91
3 92 5 53
3 92 93 5
3 94 93 92
3 94 15 93
3 41 94 14
3 95 94 41
3 95 15 94
3 95 59 15
3 96 59 95
3 96 6 59
3 261 64 262
3 263 64 264
3 265 7 266
3 267 266 64
3 265 266 267
3 97 268 269
3 97 270 272
3 270 17 271
3 270 271 272
3 43 273 275
3 273 97 274
3 273 274 275
3 98 97 43
3 98 17 97
3 98 69 17
3 99 69 98
3 99 8 69
3 99 100 8
3 101 100 99
3 101 19 100
3 45 101 18
3 102 101 45
3 102 19 101
3 102 76 19
3 103 76 102
3 103 9 76
3 103 104 9
3 276 104 277
3 278 277 103
3 276 277 278
3 280 279 104
3 282 281 20
3 47 283 284
3 286 285 47
3 83 287 288
3 105 289 291
3 291 290 83
3 289 290 291
3 105 292 294
3 292 21 293
3 292 293 294
3 49 105 10
3 106 105 49
3 106 21 105
3 106 295 297
3 297 296 21
3 295 296 297
3 107 298 300
3 300 299 106
3 298 299 300
3 107 301 302
3 107 303 305
3 303 89 304
3 303 304 305
3 108 89 107
3 108 13 89
3 51 108 22
3 109 108 51
3 109 13 108
3 109 38 13
3 110 38 109
3 110 1 38
3 306 2 307
3 309 308 2
3 311 310 4
3 313 312 0
3 55 314 315
3 317 316 55
3 111 318 319
3 111 320 321
3 57 111 24
3 112 111 57
3 112 322 324
3 324 323 111
3 322 323 324
3 112 325 326
3 113 327 329
3 329 328 112
3 327 328 329
3 113 330 332
3 330 4 331
3 330 331 332
3 93 58 5
3 114 58 93
3 114 25 58
3 60 114 15
3 115 114 60
3 115 25 114
3 115 113 25
3 116 113 115
3 116 4 113
3 116 86 4
3 117 86 116
3 117 11 86
3 62 117 26
3 118 117 62
3 118 11 117
3 118 35 11
3 119 35 118
3 119 0 35
3 333 85 334
3 120 335 337
3 335 85 336
3 335 336 337
3 120 3 85
3 65 338 339
3 121 340 342
3 342 341 65
3 340 341 342
3 121 343 344
3 121 345 347
3 345 120 346
3 345 346 347
3 122 120 121
3 122 3 120
3 122 52 3
3 123 52 122
3 123 23 52
3 67 123 28
3 124 123 67
3 124 23 123
3 124 110 23
3 125 110 124
3 125 1 110
3 126 348 349
3 126 350 352
3 350 7 351
3 350 351 352
3 127 353 354
3 127 355 356
3 70 127 17
3 128 127 70
3 128 357 359
3 359 358 127
3 357 358 359
3 128 360 362
3 360 126 361
3 360 361 362
3 129 126 128
3 129 7 126
3 129 68 7
3 130 68 129
3 130 29 68
3 72 130 30
3 131 130 72
3 131 29 130
3 131 125 29
3 132 125 131
3 132 1 125
3 132 42 1
3 133 42 132
3 133 16 42
3 74 133 31
3 134 133 74
3 134 16 133
3 134 96 16
3 135 96 134
3 135 6 96
3 100 75 8
3 136 75 100
3 136 32 75
3 77 136 19
3 137 136 77
3 137 32 136
3 137 135 32
3 138 135 137
3 138 6 135
3 138 63 6
3 139 63 138
3 139 27 63
3 79 139 33
3 140 139 79
3 140 27 139
3 140 119 27
3 141 119 140
3 141 0 119
3 141 363 365
3 365 364 0
3 363 364 365
3 142 366 368
3 368 367 141
3 366 367 368
3 142 369 370
3 81 142 34
3 371 142 372
3 373 372 81
3 371 372 373
3 375 374 142
3 104 82 9
3 376 82 377
3 378 377 104
3 376 377 378
3 380 379 82
3 382 381 2
3 383 37 384
3 385 384 0
3 383 384 385
3 386 37 387
3 388 12 389
3 390 389 37
3 388 389 390
3 391 12 392
3 394 393 12
