ply
format ascii 1.0
element vertex 296
property float x
property float y
property float z
element face 303
property list uchar int vertex_index
end_header
65.982262 -49.162354 -11.06752
59.847198 -42.306652 -8.202396
60.631027 -52.616642 -3.025936
70.167511 -44.238403 -18.93989
68.69561 -57.673672 -12.475456
68.302597 -55.324787 -20.918177
58.625893 -49.073757 -1.750443
58.488922 -53.392696 0.88679
62.328842 -45.610992 -9.925209
61.403156 -39.882568 -12.245672
64.903511 -43.102898 -13.892715
67.501892 -40.267464 -17.754683
68.410751 -46.698837 -15.021206
68.896385 -56.212093 -16.720633
65.872154 -62.180626 -17.329668
60.164841 -47.59111 -5.857338
63.259605 -51.215237 -7.060976
63.572037 -56.571243 -3.749819
66.351746 -55.133663 -7.777079
67.573204 -59.381557 -8.28941
68.567116 -53.122738 -11.830324
69.949295 -51.009819 -15.915129
70.382034 -49.271812 -20.010641
57.886864 -51.768684 1.46205
57.738106 -53.608295 2.662132
64.154404 -47.349117 -10.562315
63.584915 -44.414856 -11.922812
65.495384 -46.136681 -12.544647
66.803612 -44.832352 -14.505032
67.257576 -47.957737 -13.050098
66.211761 -62.445908 -15.195877
59.395111 -50.782036 -2.465717
59.309601 -48.382416 -3.801807
60.415688 -50.145115 -4.496979
61.57259 -49.366554 -6.532841
61.909508 -52.00177 -5.041971
59.894318 -39.596527 -9.174147
62.466911 -38.499039 -14.236423
61.103165 -36.981388 -13.201864
69.096306 -42.135056 -18.372309
65.009094 -55.945332 -5.759787
66.106331 -58.01741 -6.00588
67.625793 -60.894184 -10.644691
68.255211 -58.531433 -10.372562
68.233696 -56.29213 -10.092669
68.967796 -55.318302 -12.158844
69.372765 -52.04533 -13.868574
69.465141 -54.365746 -14.239817
68.691498 -55.694687 -18.837137
69.762283 -52.76973 -18.423971
69.579071 -52.190845 -20.499567
70.23526 -48.613976 -22.032892
69.186508 -51.749855 -22.532469
58.542141 -51.307362 -0.465736
59.473274 -53.072144 -1.03586
60.80558 -43.930531 -9.137062
60.523018 -41.152393 -10.233622
61.829697 -42.759403 -11.155151
63.00042 -41.464691 -13.1467
64.275925 -40.062946 -15.110163
65.598656 -38.580498 -17.045691
66.230354 -41.707275 -15.835741
68.023262 -43.482231 -16.446371
69.395081 -45.441738 -16.983915
67.804436 -60.187843 -12.775888
68.903694 -56.881527 -14.594492
67.776947 -59.582081 -14.919363
67.568054 -59.11808 -17.060579
67.196739 -58.803268 -19.175768
59.377869 -43.354599 -6.153418
59.284519 -45.900391 -5.035135
59.953617 -44.974121 -7.095465
61.178329 -46.671303 -7.901674
62.831795 -48.433052 -8.557384
64.633316 -50.261284 -9.071079
60.383316 -38.341293 -11.192263
60.73494 -54.979256 -1.453695
62.108841 -54.553993 -3.443937
63.530952 -53.938118 -5.451963
64.942741 -53.135944 -7.463396
66.291039 -52.169163 -9.47208
67.272057 -57.21439 -8.042089
67.550735 -54.174343 -9.800289
67.527679 -51.077686 -11.476847
68.610023 -49.916206 -13.479231
69.50174 -48.74704 -15.481451
70.173134 -47.630409 -17.484278
69.727425 -53.500671 -16.331484
70.286888 -50.07325 -17.965734
70.600594 -46.614235 -19.484663
70.768394 -45.725464 -21.473833
57.521572 -53.674758 3.369678
57.596569 -52.927408 2.964319
57.380035 -52.993871 3.671864
59.870758 -40.951589 -8.688271
59.762804 -40.176697 -8.160531
59.739244 -41.531759 -7.674655
62.25211 -37.00716 -14.718575
63.070187 -37.756318 -15.220014
70.066857 -42.536623 -19.612803
69.531254 -41.484949 -19.329012
69.631909 -43.186729 -18.656099
70.429237 -43.683343 -19.913788
70.066857 -42.536623 -19.612803
65.812027 -59.392862 -5.093688
65.440258 -58.332926 -4.994366
67.105133 -61.520067 -12.911023
67.11747 -61.783682 -11.838318
67.091388 -61.217186 -13.982761
67.790692 -59.884962 -13.847625
67.105133 -61.520067 -12.911023
59.239883 -43.835743 -5.120598
59.474613 -42.597399 -5.630206
58.711439 -47.903837 -2.35686
58.553406 -48.293222 -1.320024
60.761776 -36.240656 -12.610188
61.034962 -35.518286 -13.617389
67.199951 -38.6586 -18.355064
66.248333 -37.815117 -18.000568
66.550274 -39.423981 -17.400187
60.698349 -56.091522 -0.61887
60.104794 -55.100617 -0.481256
62.835892 -56.781633 -2.751534
63.449784 -57.822677 -2.861547
62.840439 -55.562618 -3.596878
62.104294 -55.773008 -2.598593
62.835892 -56.781633 -2.751534
67.071033 -60.857573 -7.366324
67.395684 -60.508319 -8.411245
67.113381 -59.765131 -7.257812
67.071033 -60.857573 -7.366324
67.42263 -58.297973 -8.16575
66.962807 -58.681548 -7.134152
67.113381 -59.765131 -7.257812
70.452209 -46.790118 -22.735346
70.043583 -48.346722 -23.021135
57.670948 -52.007603 2.364278
57.841484 -51.061916 1.8591
57.812485 -52.68849 2.062091
57.670948 -52.007603 2.364278
57.596569 -52.927408 2.964319
65.424664 -64.050808 -14.234903
66.308796 -62.6491 -14.121018
65.277172 -63.946511 -15.304374
65.424664 -64.050808 -14.234903
65.107369 -63.813869 -16.37127
66.041957 -62.313267 -16.262773
65.277172 -63.946511 -15.304374
59.98008 -38.856034 -8.592222
59.762804 -40.176697 -8.160531
60.009028 -38.223007 -9.592822
59.98008 -38.856034 -8.592222
61.570237 -36.248335 -14.201296
61.785038 -37.740214 -13.719144
62.25211 -37.00716 -14.718575
61.034962 -35.518286 -13.617389
61.570237 -36.248335 -14.201296
68.872696 -40.479876 -19.012925
68.075489 -39.54608 -18.704111
68.299099 -41.20126 -18.063496
68.872696 -40.479876 -19.012925
69.531254 -41.484949 -19.329012
64.173111 -57.609842 -3.866336
63.449784 -57.822677 -2.861547
64.891639 -57.296886 -4.87132
64.290565 -56.258288 -4.754803
64.173111 -57.609842 -3.866336
65.557713 -56.981371 -5.882834
64.891639 -57.296886 -4.87132
65.440258 -58.332926 -4.994366
67.421978 -61.264633 -9.588886
66.941311 -62.434967 -9.707842
67.736687 -60.083258 -9.452821
67.421978 -61.264633 -9.588886
67.940502 -59.712809 -10.508627
67.914208 -58.956495 -9.330986
67.395684 -60.508319 -8.411245
67.736687 -60.083258 -9.452821
69.519207 -49.914661 -23.270924
70.043583 -48.346722 -23.021135
69.710884 -50.181916 -22.28268
58.373531 -49.391866 -0.737366
58.553406 -48.293222 -1.320024
58.004017 -50.73933 0.868881
57.841484 -51.061916 1.8591
58.331655 -50.508669 -0.095012
58.004017 -50.73933 0.868881
58.214503 -51.538023 0.498157
58.584017 -50.190559 -1.108089
58.373531 -49.391866 -0.737366
58.331655 -50.508669 -0.095012
63.974694 -38.538271 -15.656883
63.070187 -37.756318 -15.220014
63.371418 -39.280992 -14.673293
64.937291 -39.321722 -16.077927
64.636059 -37.797047 -16.624648
63.974694 -38.538271 -15.656883
67.028149 -62.136852 -10.772719
66.941311 -62.434967 -9.707842
67.715114 -60.541014 -11.71029
67.028149 -62.136852 -10.772719
67.11747 -61.783682 -11.838318
66.994354 -61.013995 -15.05762
67.091388 -61.217186 -13.982761
66.308796 -62.6491 -14.121018
59.504579 -42.055733 -6.650166
59.474613 -42.597399 -5.630206
59.612533 -42.830625 -7.177907
59.739244 -41.531759 -7.674655
59.504579 -42.055733 -6.650166
59.053293 -47.558166 -3.382543
58.711439 -47.903837 -2.35686
58.967747 -48.728087 -2.776125
59.040752 -46.317154 -3.999207
59.053293 -47.558166 -3.382543
59.29706 -47.141403 -4.418471
59.193208 -45.108639 -4.561457
59.040752 -46.317154 -3.999207
59.331194 -44.627495 -5.594277
59.239883 -43.835743 -5.120598
59.193208 -45.108639 -4.561457
60.253526 -37.59539 -10.60188
60.009028 -38.223007 -9.592822
60.138817 -38.96891 -10.183205
60.401851 -36.920609 -11.605387
60.74324 -37.661341 -12.197064
60.761776 -36.240656 -12.610188
60.253526 -37.59539 -10.60188
60.401851 -36.920609 -11.605387
65.280659 -37.01329 -17.595868
64.636059 -37.797047 -16.624648
65.280659 -37.01329 -17.595868
66.248333 -37.815117 -18.000568
67.199951 -38.6586 -18.355064
68.075489 -39.54608 -18.704111
57.669725 -54.390739 3.341495
57.521572 -53.674758 3.369678
58.070133 -54.450045 2.502164
57.669725 -54.390739 3.341495
58.445542 -54.342245 1.614493
58.113514 -53.500495 1.774461
58.070133 -54.450045 2.502164
58.981785 -54.307337 0.688986
58.445542 -54.342245 1.614493
59.473961 -54.147061 -0.272339
58.981098 -53.23242 -0.074535
58.981785 -54.307337 0.688986
60.104107 -54.0257 -1.244778
59.473961 -54.147061 -0.272339
60.104794 -55.100617 -0.481256
61.417344 -55.98564 -1.603473
60.698349 -56.091522 -0.61887
61.421891 -54.766624 -2.448816
61.417344 -55.98564 -1.603473
62.104294 -55.773008 -2.598593
66.379944 -59.083057 -6.116048
65.812027 -59.392862 -5.093688
66.689194 -57.6159 -7.023985
66.379944 -59.083057 -6.116048
66.962807 -58.681548 -7.134152
70.645779 -44.87126 -20.186174
70.429237 -43.683343 -19.913788
70.384052 -45.426319 -19.212277
70.729679 -44.426874 -21.18076
70.645779 -44.87126 -20.186174
70.684494 -46.169849 -20.479248
70.852958 -43.928711 -22.147711
70.729679 -44.426874 -21.18076
70.718776 -45.345861 -22.455816
70.501827 -47.16972 -21.753363
70.452209 -46.790118 -22.735346
70.852958 -43.928711 -22.147711
70.718776 -45.345861 -22.455816
64.900966 -63.769738 -17.424614
65.107369 -63.813869 -16.37127
64.136181 -65.402981 -16.466216
65.635464 -62.110704 -18.373327
64.900966 -63.769738 -17.424614
66.297756 -60.422026 -19.296377
66.534447 -60.491947 -18.252718
65.635464 -62.110704 -18.373327
66.934299 -58.706621 -20.203629
66.297756 -60.422026 -19.296377
67.487229 -56.967381 -21.074833
67.749668 -57.064028 -20.046973
66.934299 -58.706621 -20.203629
68.02002 -55.195043 -21.923981
67.487229 -56.967381 -21.074833
67.204651 -56.837637 -22.080637
68.461975 -53.407578 -22.731127
68.744552 -53.537321 -21.725323
68.02002 -55.195043 -21.923981
68.890061 -51.576898 -23.511841
68.461975 -53.407578 -22.731127
69.519207 -49.914661 -23.270924
68.890061 -51.576898 -23.511841
3 91 24 92
3 91 92 93
3 0 27 25
3 0 29 27
3 2 33 31
3 2 35 33
3 1 94 96
3 94 36 95
3 94 95 96
3 98 97 37
3 3 99 101
3 101 100 39
3 99 100 101
3 3 102 103
3 104 41 105
3 4 43 42
3 4 45 43
3 4 47 45
3 5 50 48
3 5 52 50
3 7 53 23
3 7 54 53
3 8 57 55
3 10 58 26
3 10 59 58
3 10 61 59
3 12 62 28
3 12 63 62
3 106 64 107
3 108 66 109
3 110 109 64
3 108 109 110
3 14 67 30
3 14 68 67
3 111 69 112
3 6 113 114
3 15 70 32
3 15 71 70
3 15 72 71
3 16 73 34
3 16 74 73
3 9 75 56
3 116 115 38
3 11 117 119
3 119 118 60
3 117 118 119
3 120 76 121
3 17 122 123
3 17 124 126
3 124 77 125
3 124 125 126
3 17 78 77
3 18 79 40
3 18 80 79
3 19 127 128
3 19 129 130
3 19 131 133
3 131 81 132
3 131 132 133
3 20 82 44
3 20 83 82
3 20 84 83
3 21 85 46
3 21 86 85
3 13 87 65
3 22 88 49
3 22 89 88
3 22 90 89
3 135 134 51
3 136 23 137
3 24 138 140
3 138 23 139
3 138 139 140
3 24 7 23
3 25 26 8
3 27 26 25
3 27 10 26
3 27 28 10
3 29 28 27
3 29 12 28
3 141 30 142
3 143 30 144
3 145 14 146
3 147 146 30
3 145 146 147
3 31 32 6
3 33 32 31
3 33 15 32
3 33 34 15
3 35 34 33
3 35 16 34
3 36 148 149
3 36 150 151
3 37 38 9
3 152 38 153
3 154 153 37
3 152 153 154
3 156 155 38
3 39 157 159
3 159 158 11
3 157 158 159
3 161 160 39
3 162 17 163
3 164 40 165
3 166 165 17
3 164 165 166
3 41 167 169
3 167 40 168
3 167 168 169
3 41 18 40
3 42 170 171
3 43 172 174
3 174 173 42
3 172 173 174
3 43 175 177
3 175 19 176
3 175 176 177
3 43 44 19
3 45 44 43
3 45 20 44
3 45 46 20
3 47 46 45
3 47 21 46
3 48 49 13
3 50 49 48
3 50 22 49
3 50 51 22
3 52 51 50
3 52 178 180
3 180 179 51
3 178 179 180
3 181 6 182
3 23 183 184
3 53 185 187
3 187 186 23
3 185 186 187
3 53 188 190
3 188 6 189
3 188 189 190
3 53 31 6
3 54 31 53
3 54 2 31
3 55 56 1
3 57 56 55
3 57 9 56
3 26 57 8
3 58 57 26
3 58 9 57
3 58 37 9
3 59 37 58
3 59 191 193
3 193 192 37
3 191 192 193
3 59 194 196
3 194 60 195
3 194 195 196
3 61 60 59
3 61 11 60
3 28 61 10
3 62 61 28
3 62 11 61
3 62 39 11
3 63 39 62
3 63 3 39
3 197 42 198
3 64 199 201
3 199 42 200
3 199 200 201
3 64 4 42
3 64 65 4
3 66 65 64
3 66 13 65
3 30 202 204
3 202 66 203
3 202 203 204
3 67 66 30
3 67 13 66
3 67 48 13
3 68 48 67
3 68 5 48
3 69 205 206
3 69 207 209
3 207 1 208
3 207 208 209
3 32 210 212
3 212 211 6
3 210 211 212
3 70 213 215
3 215 214 32
3 213 214 215
3 70 216 217
3 70 218 220
3 218 69 219
3 218 219 220
3 71 69 70
3 71 1 69
3 71 55 1
3 72 55 71
3 72 8 55
3 34 72 15
3 73 72 34
3 73 8 72
3 73 25 8
3 74 25 73
3 74 0 25
3 56 36 1
3 75 36 56
3 75 221 223
3 223 222 36
3 221 222 223
3 38 75 9
3 224 75 225
3 226 225 38
3 224 225 226
3 228 227 75
3 60 229 230
3 232 231 60
3 234 233 11
3 235 24 236
3 237 24 238
3 239 7 240
3 241 240 24
3 239 240 241
3 242 7 243
3 244 54 245
3 246 245 7
3 244 245 246
3 76 247 249
3 247 54 248
3 247 248 249
3 76 2 54
3 250 76 251
3 77 252 254
3 252 76 253
3 252 253 254
3 77 2 76
3 77 35 2
3 78 35 77
3 78 16 35
3 40 78 17
3 79 78 40
3 79 16 78
3 79 74 16
3 80 74 79
3 80 0 74
3 255 41 256
3 81 257 259
3 257 41 258
3 257 258 259
3 81 18 41
3 44 81 19
3 82 81 44
3 82 18 81
3 82 80 18
3 83 80 82
3 83 0 80
3 83 29 0
3 84 29 83
3 84 12 29
3 46 84 20
3 85 84 46
3 85 12 84
3 85 63 12
3 86 63 85
3 86 3 63
3 65 47 4
3 87 47 65
3 87 21 47
3 49 87 13
3 88 87 49
3 88 21 87
3 88 86 21
3 89 86 88
3 89 3 86
3 89 260 262
3 262 261 3
3 260 261 262
3 90 263 265
3 265 264 89
3 263 264 265
3 90 266 267
3 51 90 22
3 268 90 269
3 270 269 51
3 268 269 270
3 272 271 90
3 273 14 274
3 273 274 275
3 276 14 277
3 278 68 279
3 280 279 14
3 278 279 280
3 281 68 282
3 283 5 284
3 285 284 68
3 283 284 285
3 286 5 287
3 286 287 288
3 289 52 290
3 291 290 5
3 289 290 291
3 292 52 293
3 295 294 52
