ply
format ascii 1.0
element vertex 341
property float x
property float y
property float z
element face 334
property list uchar int vertex_index
end_header
40.589478 -6.579755 -4.454247
39.37521 -9.229338 10.868705
39.837685 3.617794 -7.63932
40.785374 -21.031933 11.463001
43.170769 -22.714113 17.262663
39.291565 -8.137798 3.237873
42.388012 -18.248203 3.146982
40.294441 -2.235928 -5.890385
39.007126 -8.723466 7.312295
40.46841 -13.973214 3.159034
39.765442 -14.968496 7.462966
43.022045 -25.170279 11.22783
43.828804 -23.174189 7.405369
39.709198 -15.728201 11.3211
40.618076 -16.329836 14.45454
41.364368 -22.0345 14.772934
43.283768 -26.770521 14.591257
39.057888 -1.493828 -1.25633
39.918991 -7.438541 -0.967287
38.499386 -1.253809 3.045521
38.520157 -1.378504 6.937429
42.24913 -10.650789 -5.337324
41.422836 -12.61747 -1.262924
41.247524 -19.777491 7.511464
44.799057 -27.784782 17.380707
40.458908 -4.73409 -5.098663
41.38102 -5.095816 -7.369076
41.407192 -7.149447 -6.269772
39.09166 -8.98491 9.173973
39.324909 -12.011314 7.404475
39.302402 -12.333635 9.3453
44.635418 -26.863194 10.970401
40.822994 3.043713 -10.391378
42.788338 -19.854437 17.035799
41.676685 -19.610516 15.976662
42.111736 -22.421532 16.126942
42.160816 -24.522274 14.73677
42.838333 -25.007126 16.145405
38.710777 -1.318478 0.928539
38.796513 -1.53661 8.63866
39.581272 -7.80614 1.11879
40.576767 -10.164588 -1.098511
40.180603 -10.737924 1.037992
41.314007 -16.324005 3.133664
41.893295 -15.569008 0.876721
40.123764 -18.533096 11.435215
40.148762 -18.0742 9.53767
40.905937 -20.435228 9.553389
40.08828 0.595949 -6.744665
41.07365 0.139156 -9.403404
41.262978 -2.610895 -8.400562
39.086857 -8.442027 5.319667
39.809746 -11.224687 3.206374
39.509041 -11.644907 5.344604
40.060207 -14.506775 5.348002
40.794205 -16.981911 5.353147
41.741386 -23.236586 11.394954
41.950909 -22.470449 9.50028
43.31218 -24.212042 9.366004
39.481663 -12.620571 11.13028
39.89489 -12.880161 12.725495
40.028709 -16.045881 12.994076
40.352989 -18.942858 13.159227
41.491016 -16.580536 15.679523
40.865318 -19.303669 14.680503
40.927906 -21.567307 13.211535
41.800816 -23.925627 13.14757
43.002125 -26.031092 12.974881
44.541275 -27.900448 12.71567
39.841488 -4.511615 -3.026295
40.271172 -7.024467 -2.909723
39.427025 -4.537348 -0.990417
39.104042 -4.643161 1.105501
38.868301 -4.788852 3.201833
38.429092 -1.279158 5.061444
38.741646 -4.962764 5.238165
38.754917 -5.157948 7.165195
38.940247 -5.367955 8.942896
39.568886 -1.810074 -3.514181
41.26392 -8.562925 -4.889688
40.954979 -9.467862 -3.116899
41.873997 -11.737461 -3.381014
40.939049 -13.351053 0.938419
42.479622 -14.694677 -1.376806
39.633598 -15.371908 9.465992
40.388191 -17.56057 7.499146
41.759892 -19.052471 5.366401
42.385994 -21.635605 7.486606
42.994911 -20.732546 5.376825
44.52549 -22.899715 18.182934
45.127396 -25.57148 18.394096
43.833019 -25.361271 17.363804
43.883106 -27.362516 16.063063
44.743221 -28.78442 14.370593
45.811472 -26.929863 9.909615
45.602429 -27.606232 10.80812
40.33034 3.330754 -9.015349
40.184275 4.890441 -9.480431
39.69162 5.177481 -8.104401
42.731676 -17.798149 2.014754
42.194673 -16.83605 2.008095
41.85101 -17.286104 3.140323
43.447738 -18.467806 2.051912
42.731676 -17.798149 2.014754
41.986733 -5.161428 -8.590556
41.997048 -6.264816 -7.945749
41.667725 0.044569 -10.75818
41.77154 -1.29647 -10.200195
40.26625 -11.282293 13.180141
39.889853 -11.170517 12.545053
40.323392 -16.187859 13.724308
40.296394 -14.582424 13.54775
40.591077 -14.724401 14.277981
42.069494 -16.68729 16.168382
42.095427 -15.062972 15.899686
38.474624 -1.328831 5.999436
38.34888 0.634651 5.832897
38.394413 0.584978 6.77089
39.109734 -3.55362 9.539503
38.86838 -3.452282 8.790778
39.037867 -1.637948 9.387385
39.133091 -5.477764 9.740375
39.109734 -3.55362 9.539503
39.313387 -1.651951 -2.385255
39.156239 -0.052099 -2.631856
38.90074 0.106024 -1.50293
42.224016 -13.144803 -2.420748
42.449596 -12.704798 -3.479793
41.648416 -12.177466 -2.321969
43.12341 -15.51319 -1.385893
42.186459 -15.131843 -0.250043
42.830246 -15.950356 -0.25913
43.446688 -14.93488 -2.512819
43.12341 -15.51319 -1.385893
44.161646 -20.809791 4.311545
43.757361 -21.39919 5.368853
43.358112 -20.243382 4.284887
44.161646 -20.809791 4.311545
45.33617 -22.935755 18.544531
45.183792 -21.507041 18.327057
45.994473 -21.543081 18.688654
44.963226 -26.678131 17.887402
45.57011 -26.798334 18.468874
45.405941 -27.904985 17.96218
45.636431 -29.678442 14.244909
44.999614 -29.13422 15.147011
45.575338 -29.169099 13.387883
45.636431 -29.678442 14.244909
42.376427 -9.949731 -6.196153
41.883821 -8.9058 -5.972334
41.756525 -9.606857 -5.113506
42.010134 -7.291632 -7.396097
41.997048 -6.264816 -7.945749
41.394106 -6.122632 -6.819424
44.815527 -26.283746 10.058083
44.00884 -25.437289 10.186798
43.828732 -26.016737 11.099115
44.815527 -26.283746 10.058083
45.811472 -26.929863 9.909615
40.670305 4.533669 -10.883045
40.031585 6.380396 -9.972098
40.184275 4.890441 -9.480431
41.402135 2.891387 -11.786042
40.670305 4.533669 -10.883045
41.058857 -14.835295 14.845398
40.591077 -14.724401 14.277981
42.232512 -19.732477 16.506231
42.162329 -18.20228 16.316952
42.718155 -18.324241 16.846521
38.535769 0.404769 0.742536
38.884332 -1.406153 -0.163895
38.709324 0.317094 -0.349898
38.431198 0.543096 1.829785
38.535769 0.404769 0.742536
38.325502 0.575431 2.888276
38.605081 -1.286144 1.98703
38.431198 0.543096 1.829785
38.571995 0.535543 7.592219
38.394413 0.584978 6.77089
38.710173 0.456489 8.442835
38.658335 -1.457557 7.788044
38.571995 0.535543 7.592219
38.996172 0.364046 9.149563
38.710173 0.456489 8.442835
39.037867 -1.637948 9.387385
38.996172 0.364046 9.149563
38.709324 0.317094 -0.349898
38.90074 0.106024 -1.50293
42.484318 -16.458551 0.879624
41.603651 -15.946506 2.005193
42.194673 -16.83605 2.008095
42.830246 -15.950356 -0.25913
42.484318 -16.458551 0.879624
44.174307 -22.620011 6.383125
45.08152 -23.147656 6.348074
45.438526 -28.879991 17.372115
45.405941 -27.904985 17.96218
45.027532 -28.634401 16.652068
45.438526 -28.879991 17.372115
43.042511 -10.831169 -6.471707
42.868858 -11.556392 -5.505207
41.866203 -2.671495 -9.698774
41.77154 -1.29647 -10.200195
41.168314 -1.23587 -8.901983
41.927712 -3.918967 -9.106299
41.321999 -3.853356 -7.884819
41.986733 -5.161428 -8.590556
41.866203 -2.671495 -9.698774
41.927712 -3.918967 -9.106299
43.431925 -18.408745 17.213445
42.718155 -18.324241 16.846521
43.487107 -19.939757 17.448245
43.431925 -18.408745 17.213445
43.678322 -21.369594 17.561677
42.979554 -21.284275 17.149231
43.487107 -19.939757 17.448245
44.153908 -24.95817 9.255885
43.167113 -24.691161 10.296917
44.00884 -25.437289 10.186798
44.44566 -24.331411 8.308244
44.153908 -24.95817 9.255885
44.703972 -23.812484 7.327927
43.570492 -23.693115 8.385687
44.44566 -24.331411 8.308244
45.08152 -23.147656 6.348074
44.703972 -23.812484 7.327927
41.542397 1.496847 -11.252167
40.948322 1.591434 -9.897391
41.667725 0.044569 -10.75818
41.402135 2.891387 -11.786042
41.542397 1.496847 -11.252167
39.683239 -11.040723 11.747445
39.428437 -10.924955 10.999493
39.630013 -9.345106 11.616658
39.688277 -12.750366 11.927888
39.683239 -11.040723 11.747445
39.889853 -11.170517 12.545053
40.229484 -12.999564 13.413459
40.26625 -11.282293 13.180141
39.961799 -14.463021 12.859786
40.229484 -12.999564 13.413459
40.296394 -14.582424 13.54775
41.495327 -14.960645 15.45789
42.095427 -15.062972 15.899686
41.054546 -16.455186 15.067031
41.058857 -14.835295 14.845398
41.495327 -14.960645 15.45789
41.58385 -18.095526 15.828093
42.069494 -16.68729 16.168382
42.162329 -18.20228 16.316952
45.555357 -28.124859 11.680754
45.602429 -27.606232 10.80812
44.588347 -27.381821 11.843035
38.30805 0.643079 3.900899
38.325502 0.575431 2.888276
38.272903 0.630404 4.908861
38.34888 0.634651 5.832897
38.464239 -1.266484 4.053482
38.30805 0.643079 3.900899
38.272903 0.630404 4.908861
39.208798 -7.286241 9.855914
39.015953 -7.176432 9.058435
39.133091 -5.477764 9.740375
39.350572 -7.408456 10.70328
39.233435 -9.107124 10.021339
39.208798 -7.286241 9.855914
39.654103 -7.521698 11.395251
39.350572 -7.408456 10.70328
39.630013 -9.345106 11.616658
39.654103 -7.521698 11.395251
39.287764 5.604197 -6.73692
39.69162 5.177481 -8.104401
39.438454 3.972576 -6.3031
39.287764 5.604197 -6.73692
39.563751 2.461654 -5.855772
39.962982 2.106872 -7.191992
39.438454 3.972576 -6.3031
39.701046 0.880844 -5.464592
39.563751 2.461654 -5.855772
39.804126 -0.535094 -5.037452
40.191361 -0.819989 -6.317525
39.701046 0.880844 -5.464592
39.441349 -0.322167 -3.84935
39.156239 -0.052099 -2.631856
39.931663 -2.023001 -4.702283
39.804126 -0.535094 -5.037452
39.441349 -0.322167 -3.84935
42.681292 -12.099728 -4.527052
42.868858 -11.556392 -5.505207
42.061564 -11.194125 -4.359169
42.681292 -12.099728 -4.527052
42.449596 -12.704798 -3.479793
42.752409 -14.183407 -2.477689
42.224016 -13.144803 -2.420748
41.951229 -13.656074 -1.319865
42.752409 -14.183407 -2.477689
43.446688 -14.93488 -2.512819
43.452902 -21.85072 6.423744
43.107399 -22.404897 7.445988
44.174307 -22.620011 6.383125
42.690452 -21.184075 6.431716
43.452902 -21.85072 6.423744
43.757361 -21.39919 5.368853
42.740603 -19.403345 4.279675
42.377402 -19.892508 5.371613
43.358112 -20.243382 4.284887
43.054663 -19.001211 3.169966
42.073952 -18.650337 4.256691
42.740603 -19.403345 4.279675
43.447738 -18.467806 2.051912
43.054663 -19.001211 3.169966
44.355683 -21.462395 18.021812
45.183792 -21.507041 18.327057
43.848129 -22.806914 17.722798
43.678322 -21.369594 17.561677
44.355683 -21.462395 18.021812
45.909148 -25.602826 18.822947
45.57011 -26.798334 18.468874
45.637124 -24.271638 18.650112
45.909148 -25.602826 18.822947
44.826443 -24.235598 18.288515
45.33617 -22.935755 18.544531
45.637124 -24.271638 18.650112
44.569557 -28.423268 15.993246
44.341082 -27.573649 16.721885
45.027532 -28.634401 16.652068
44.313164 -28.073468 15.216828
44.569557 -28.423268 15.993246
44.999614 -29.13422 15.147011
45.474365 -28.727113 12.560422
44.642248 -28.342434 13.543131
45.575338 -29.169099 13.387883
45.555357 -28.124859 11.680754
45.474365 -28.727113 12.560422
41.955458 -8.19906 -6.662376
41.335556 -7.856186 -5.57973
41.883821 -8.9058 -5.972334
42.010134 -7.291632 -7.396097
41.955458 -8.19906 -6.662376
42.376427 -9.949731 -6.196153
43.042511 -10.831169 -6.471707
3 0 27 25
3 1 30 28
3 95 94 31
3 2 96 98
3 96 32 97
3 96 97 98
3 4 35 33
3 4 37 35
3 5 42 40
3 6 99 101
3 101 100 43
3 99 100 101
3 6 102 103
3 3 47 45
3 7 50 48
3 105 104 26
3 8 53 51
3 10 54 29
3 10 55 54
3 11 58 56
3 107 106 49
3 108 60 109
3 14 110 112
3 110 61 111
3 110 111 112
3 14 62 61
3 113 63 114
3 15 64 34
3 15 65 64
3 15 66 65
3 16 67 36
3 16 68 67
3 17 71 69
3 19 72 38
3 19 73 72
3 20 115 117
3 115 74 116
3 115 116 117
3 20 75 74
3 20 76 75
3 118 77 119
3 120 119 39
3 118 119 120
3 122 121 77
3 17 123 125
3 123 78 124
3 123 124 125
3 17 69 78
3 18 80 70
3 22 81 41
3 22 126 128
3 128 127 81
3 126 127 128
3 9 82 52
3 129 83 130
3 131 130 44
3 129 130 131
3 133 132 83
3 13 84 59
3 23 85 46
3 23 86 85
3 12 87 57
3 134 88 135
3 137 136 88
3 138 89 139
3 138 139 140
3 24 141 143
3 141 90 142
3 141 142 143
3 24 91 90
3 24 92 91
3 144 93 145
3 147 146 93
3 21 148 150
3 150 149 79
3 148 149 150
3 25 26 7
3 27 26 25
3 27 151 153
3 153 152 26
3 151 152 153
3 28 29 8
3 30 29 28
3 30 10 29
3 31 154 156
3 156 155 11
3 154 155 156
3 158 157 31
3 32 159 161
3 159 160 161
3 32 162 163
3 164 14 165
3 33 166 168
3 166 34 167
3 166 167 168
3 35 34 33
3 35 15 34
3 35 36 15
3 37 36 35
3 37 16 36
3 169 38 170
3 171 170 17
3 169 170 171
3 172 38 173
3 174 19 175
3 176 175 38
3 174 175 176
3 177 20 178
3 179 39 180
3 181 180 20
3 179 180 181
3 182 39 183
3 185 184 39
3 186 17 187
3 40 41 18
3 42 41 40
3 42 22 41
3 43 44 9
3 188 44 189
3 190 189 43
3 188 189 190
3 192 191 44
3 45 46 13
3 47 46 45
3 47 23 46
3 194 193 12
3 195 24 196
3 198 197 24
3 200 199 21
3 48 49 2
3 50 49 48
3 50 201 203
3 203 202 49
3 201 202 203
3 26 50 7
3 204 50 205
3 206 205 26
3 204 205 206
3 208 207 50
3 209 33 210
3 211 33 212
3 213 4 214
3 215 214 33
3 213 214 215
3 51 52 5
3 53 52 51
3 53 9 52
3 29 53 8
3 54 53 29
3 54 9 53
3 54 43 9
3 55 43 54
3 55 6 43
3 56 57 3
3 58 57 56
3 58 12 57
3 216 58 217
3 218 217 11
3 216 217 218
3 219 58 220
3 221 12 222
3 223 222 58
3 221 222 223
3 225 224 12
3 49 32 2
3 226 32 227
3 228 227 49
3 226 227 228
3 230 229 32
3 231 59 232
3 233 232 1
3 231 232 233
3 60 234 236
3 234 59 235
3 234 235 236
3 60 13 59
3 237 60 238
3 61 239 241
3 239 60 240
3 239 240 241
3 61 13 60
3 61 45 13
3 62 45 61
3 62 3 45
3 63 242 243
3 63 244 246
3 244 14 245
3 244 245 246
3 34 247 249
3 247 63 248
3 247 248 249
3 64 63 34
3 64 14 63
3 64 62 14
3 65 62 64
3 65 3 62
3 65 56 3
3 66 56 65
3 66 11 56
3 36 66 15
3 67 66 36
3 67 11 66
3 67 31 11
3 68 31 67
3 68 250 252
3 252 251 31
3 250 251 252
3 69 70 0
3 71 70 69
3 71 18 70
3 38 71 17
3 72 71 38
3 72 18 71
3 72 40 18
3 73 40 72
3 73 5 40
3 253 19 254
3 74 255 256
3 74 257 259
3 257 19 258
3 257 258 259
3 74 73 19
3 75 73 74
3 75 5 73
3 75 51 5
3 76 51 75
3 76 8 51
3 39 76 20
3 77 76 39
3 77 8 76
3 77 28 8
3 260 28 261
3 262 261 77
3 260 261 262
3 263 1 264
3 265 264 28
3 263 264 265
3 266 1 267
3 269 268 1
3 270 2 271
3 272 2 273
3 274 48 275
3 276 275 2
3 274 275 276
3 277 48 278
3 279 7 280
3 281 280 48
3 279 280 281
3 78 282 283
3 78 284 286
3 284 7 285
3 284 285 286
3 78 25 7
3 69 25 78
3 69 0 25
3 70 79 0
3 80 79 70
3 80 21 79
3 41 80 18
3 81 80 41
3 81 21 80
3 81 287 289
3 289 288 21
3 287 288 289
3 291 290 81
3 52 42 5
3 82 42 52
3 82 22 42
3 44 82 9
3 83 82 44
3 83 22 82
3 83 292 294
3 294 293 22
3 292 293 294
3 296 295 83
3 59 30 1
3 84 30 59
3 84 10 30
3 46 84 13
3 85 84 46
3 85 10 84
3 85 55 10
3 86 55 85
3 86 6 55
3 57 47 3
3 87 47 57
3 87 23 47
3 297 87 298
3 299 298 12
3 297 298 299
3 88 300 302
3 300 87 301
3 300 301 302
3 88 23 87
3 88 86 23
3 303 86 304
3 305 304 88
3 303 304 305
3 306 6 307
3 308 307 86
3 306 307 308
3 310 309 6
3 89 311 312
3 89 313 315
3 313 4 314
3 313 314 315
3 90 316 317
3 90 318 319
3 90 320 322
3 320 89 321
3 320 321 322
3 91 89 90
3 91 4 89
3 91 37 4
3 92 37 91
3 92 16 37
3 323 92 324
3 325 324 24
3 323 324 325
3 93 326 328
3 326 92 327
3 326 327 328
3 93 16 92
3 93 68 16
3 329 68 330
3 331 330 93
3 329 330 331
3 333 332 68
3 79 27 0
3 334 27 335
3 336 335 79
3 334 335 336
3 338 337 27
3 340 339 21
