ply
format ascii 1.0
element vertex 550
property float x
property float y
property float z
element face 589
property list uchar int vertex_index
end_header
-46.019119 16.391922 -40.99157
-65.86235 -19.380661 -28.043343
-63.997284 -7.854095 -14.48527
-63.001595 -22.489141 -19.99498
-62.006313 -0.024712 -25.732609
-58.03035 7.181208 -27.989849
-44.140678 17.083576 -50.972939
-51.442852 8.82959 -30.3783
-65.449791 -16.288424 -13.854515
-63.519894 -10.819081 -23.42971
-63.60701 -6.207873 -33.618492
-52.978157 14.701408 -40.266769
-59.166969 2.298342 -22.10582
-65.90892 -26.036663 -25.041111
-65.098427 -11.78661 -14.134365
-64.169724 -13.421401 -18.396557
-63.924774 -8.336883 -19.134686
-60.84034 3.309713 -31.78643
-62.414696 -2.306402 -30.351856
-49.285709 13.223244 -35.802162
-52.793762 13.101376 -35.176197
-49.482395 16.460903 -40.992039
-43.647507 12.994282 -54.564659
-48.391716 13.639507 -50.336632
-63.630116 -27.215942 -21.419472
-64.094597 -20.965462 -24.115128
-62.151764 -4.826618 -15.252176
-63.043018 -3.777421 -19.855343
-61.482666 -0.122099 -20.802311
-60.378292 4.234814 -26.791424
-58.732956 8.051405 -32.990795
-39.285702 15.925457 -54.57061
-47.763062 8.619852 -30.614326
-45.769943 12.586235 -35.425026
-42.765945 15.304737 -39.756935
-64.597641 -12.219721 -9.95512
-62.271614 -9.726304 -10.392153
-63.859512 -18.704556 -17.398903
-63.472095 -16.656307 -21.907524
-64.10614 -14.646074 -26.489304
-63.030247 -5.179172 -24.665237
-63.521683 -8.379034 -28.581745
-65.077255 -12.743851 -30.927338
-54.97654 8.619848 -29.304134
-56.024059 11.427406 -34.122818
-56.262276 11.066013 -39.175217
-48.903713 16.664906 -46.041458
-52.764381 12.992882 -45.070972
-65.970825 -22.713161 -26.559917
-64.642044 -9.727495 -14.278168
-64.495361 -10.020497 -16.54393
-64.106644 -7.8087 -16.789417
-60.095428 4.759466 -34.799259
-61.144386 1.947392 -34.033058
-47.78167 14.991478 -38.455917
-49.529137 15.148281 -38.391132
-47.732361 16.621666 -41.115387
-46.051125 10.815252 -54.086006
-62.72221 -25.343307 -18.853752
-62.849468 -27.719837 -19.511242
-63.127083 -24.759361 -20.850872
-63.898022 -24.108728 -22.813759
-63.395901 -21.746202 -22.071037
-60.954212 -3.733534 -15.856373
-61.874702 -2.440924 -17.956791
-60.761513 -1.208818 -18.570999
-58.695877 4.800201 -25.007034
-59.938717 3.631758 -24.348358
-59.298615 5.892847 -27.368229
-59.639042 6.225399 -29.878307
-58.480156 8.006933 -30.446926
-39.058407 13.787865 -56.12442
-46.901802 10.726297 -33.051193
-42.748566 13.757076 -36.760624
-41.227226 14.78854 -38.590359
-65.477844 -13.818428 -9.940971
-64.435677 -19.786037 -15.301596
-64.652466 -17.300026 -15.712763
-63.749615 -12.097436 -20.876461
-63.697754 -14.874787 -20.292969
-63.561775 -13.72648 -22.710735
-63.689129 -15.648048 -24.209141
-63.64587 -12.600513 -25.148834
-62.528736 -1.856922 -22.752865
-63.05426 -4.204913 -22.304028
-62.586819 -2.517942 -25.210865
-62.899143 -4.095563 -32.194756
-63.027149 -5.30574 -29.510139
-63.605469 -7.24404 -31.121632
-64.183128 -10.44025 -29.960926
-64.417442 -9.458454 -32.307919
-53.92688 6.300268 -27.128658
-53.249474 8.839056 -29.906269
-52.990067 14.312347 -37.705864
-54.46138 12.482849 -34.672409
-54.637177 13.208069 -37.214088
-56.187256 11.648243 -36.675358
-54.660225 13.095806 -39.756882
-46.574516 17.07476 -48.6437
-50.61919 11.265163 -49.666008
-50.661724 13.481548 -47.806446
-52.745361 11.06085 -47.099369
-54.672604 10.556725 -44.359955
-62.981705 -23.186859 -17.932465
-57.263557 5.611176 -25.718189
-65.715897 -29.329967 -23.468037
-65.365707 -13.988445 -14.006876
-64.756157 -14.809889 -16.040709
-64.709778 -12.368549 -16.307261
-64.124985 -10.83491 -18.784184
-63.662216 -9.369496 -21.390881
-61.457581 1.704935 -28.754955
-62.146343 -0.916388 -28.157417
-61.687832 0.581476 -31.107479
-50.507858 11.148186 -33.092793
-52.296692 11.198381 -32.733383
-51.056412 13.321175 -35.57732
-51.275955 14.94836 -38.117126
-51.241882 15.82996 -40.690434
-43.784794 15.33971 -52.934303
-46.217255 15.608425 -50.778305
-46.027615 13.471779 -52.608444
-48.3624 11.177307 -52.013084
-50.73748 8.551167 -51.16201
-64.439728 -29.825006 -21.729321
-64.709732 -26.642433 -23.264278
-64.90316 -23.415077 -24.717293
-64.970108 -20.166067 -26.105797
-63.166656 -6.208212 -14.799372
-63.542088 -5.778037 -17.084343
-62.799671 -3.974585 -17.464874
-62.352333 -1.812502 -20.288361
-61.844105 0.265778 -23.229988
-60.422729 1.255121 -21.408974
-60.985615 2.110407 -23.756981
-61.275826 2.245157 -26.252125
-60.627342 4.105623 -29.321011
-59.859676 5.820797 -32.406635
-58.922409 7.358265 -35.481331
-41.683792 16.694698 -52.967827
-41.374249 14.724609 -54.734993
-49.600677 8.709929 -30.638836
-48.698326 10.942558 -33.22226
-47.514938 12.928257 -35.773155
-46.059807 14.601009 -38.238472
-44.380451 14.13274 -37.681503
-44.361259 15.898724 -40.554218
-66.022713 -15.713946 -11.916056
-65.672501 -13.646954 -11.943205
-65.118469 -11.72954 -11.987167
-64.365387 -10.002307 -12.099007
-63.524094 -10.847607 -10.089001
-63.420769 -8.50254 -12.33025
-62.292885 -7.260807 -12.720865
-60.990585 -6.293587 -13.288578
-63.586151 -21.315094 -16.744171
-63.265343 -20.452486 -18.840298
-64.071518 -16.057928 -17.942776
-63.523945 -17.670467 -19.620445
-63.271534 -19.585243 -21.007206
-63.597912 -18.702494 -23.186157
-64.173203 -17.806044 -25.337418
-64.877411 -16.912582 -27.4422
-63.565071 -5.968853 -19.480698
-63.430752 -6.725113 -21.858566
-63.341797 -7.959531 -24.076767
-62.707607 -3.701573 -27.508804
-63.147549 -6.601707 -26.795532
-63.463181 -9.577789 -26.010067
-63.886234 -11.498916 -27.572308
-64.61293 -13.667123 -28.729599
-65.564171 -16.054102 -29.500462
-55.662582 6.091398 -26.444801
-56.581802 8.084572 -28.646366
-54.025505 10.97381 -32.2243
-55.654434 10.390615 -31.639843
-57.148098 9.403891 -31.036713
-57.453259 9.938442 -33.559509
-57.619312 9.677475 -36.100399
-57.76545 8.682198 -38.517895
-49.237385 16.98975 -43.567024
-51.056351 15.865482 -43.228638
-48.591644 15.515179 -48.325459
-50.830315 15.056618 -45.633801
-52.868031 14.242691 -42.759674
-54.642242 12.181087 -42.178974
-56.352531 9.757856 -41.487823
-66.391327 -20.714341 -28.200961
-66.445564 -22.380591 -27.459248
-65.916588 -21.046911 -27.30163
-66.23481 -19.01703 -28.993679
-66.391327 -20.714341 -28.200961
-60.267692 3.952807 -35.856274
-59.62726 5.389255 -36.28454
-60.169693 -2.070142 -17.585842
-60.857862 -2.471176 -17.213686
-60.266042 -3.332499 -16.228529
-40.477226 14.654673 -37.842625
-41.191997 14.212595 -37.044205
-40.391976 15.09968 -39.369259
-40.477226 14.654673 -37.842625
-65.051129 -16.794225 -14.783639
-65.010647 -17.967734 -14.68104
-65.40931 -17.461932 -13.751916
-64.039032 -7.402607 -34.117478
-64.444248 -9.027897 -33.462191
-64.012226 -7.833163 -32.963206
-52.346163 8.834323 -30.142285
-52.674653 7.584023 -28.800648
-51.771342 7.57929 -29.036663
-45.357597 17.079168 -49.808319
-45.611317 17.584335 -48.688473
-44.394397 17.588743 -49.853093
-52.799831 9.820086 -47.937196
-51.682276 11.163006 -48.382689
-51.736745 9.922242 -49.220516
-53.774889 9.702348 -46.653134
-52.799831 9.820086 -47.937196
-63.156093 -23.512616 -16.942601
-62.865599 -24.515608 -17.402186
-56.68386 4.524059 -24.69041
-57.492363 4.312378 -24.294641
-66.439999 -27.431047 -25.093718
-66.343487 -29.0777 -24.307181
-65.812409 -27.683315 -24.254574
-61.610935 0.463727 -33.599968
-61.37668 1.034837 -34.984327
-48.445193 9.728904 -52.665134
-47.206762 10.996279 -53.049545
-47.289555 9.547876 -53.701595
-49.632733 8.415833 -52.239597
-49.54994 9.864237 -51.587547
-48.445193 9.728904 -52.665134
-50.87917 7.015147 -51.717499
-49.632733 8.415833 -52.239597
-63.488957 -28.73932 -20.668705
-63.098633 -28.991268 -19.71459
-63.239792 -27.467889 -20.465357
-64.034922 -28.520474 -21.574396
-63.893763 -30.043852 -20.823629
-63.488957 -28.73932 -20.668705
-59.794849 1.776731 -21.757397
-59.940752 0.482671 -20.354271
-59.312872 1.004282 -20.702694
-39.527625 16.701475 -53.622501
-38.357958 16.236307 -54.303303
-40.484747 16.310077 -53.769219
-40.726669 17.086095 -52.82111
-39.527625 16.701475 -53.622501
-40.191154 13.009151 -56.135162
-39.087198 12.497227 -56.710079
-48.060446 7.476837 -29.385391
-47.143791 7.601309 -29.269577
-48.681869 8.664891 -30.626581
-48.979253 7.521876 -29.397646
-48.060446 7.476837 -29.385391
-42.616878 16.037042 -41.20334
-43.414535 16.334036 -41.601982
-43.563602 15.60173 -40.155576
-66.087047 -15.662688 -10.952136
-66.314754 -16.637842 -10.980423
-65.911941 -14.629191 -10.965711
-65.847607 -14.68045 -11.929631
-66.087047 -15.662688 -10.952136
-62.897854 -10.286956 -10.240577
-62.793156 -11.528096 -9.188128
-62.166916 -10.967444 -9.339704
-60.140312 -7.272807 -12.435133
-60.922863 -7.579441 -12.089936
-60.257019 -5.944468 -13.655722
-60.140312 -7.272807 -12.435133
-65.581779 -14.009231 -31.226391
-65.825238 -15.664357 -30.512953
-65.320713 -14.398976 -30.2139
-49.070549 16.827328 -44.804241
-48.128031 17.371516 -44.918755
-47.961195 17.209094 -46.155971
-56.438835 8.796025 -42.492483
-55.512568 10.157291 -42.923889
-55.598872 9.19546 -43.928549
-57.165454 8.405684 -41.082147
-56.438835 8.796025 -42.492483
-66.501678 -24.079181 -26.662609
-66.470726 -25.740932 -25.903206
-65.939873 -24.374912 -25.800514
-66.501678 -24.079181 -26.662609
-66.445564 -22.380591 -27.459248
-60.792171 2.546771 -35.473173
-60.619907 3.353429 -34.416158
-60.267692 3.952807 -35.856274
-61.37668 1.034837 -34.984327
-60.792171 2.546771 -35.473173
-44.90439 10.509253 -54.954796
-44.849316 11.904767 -54.325333
-43.702581 11.598769 -55.194122
-46.174557 9.304696 -54.632438
-44.90439 10.509253 -54.954796
-47.289555 9.547876 -53.701595
-46.174557 9.304696 -54.632438
-62.785839 -26.531572 -19.182497
-62.674639 -27.923095 -18.539196
-62.611009 -26.734831 -18.210451
-38.152607 15.364849 -55.150779
-38.357958 16.236307 -54.303303
-38.03896 14.296053 -55.927684
-39.172055 14.856661 -55.347515
-38.152607 15.364849 -55.150779
-37.976988 13.173428 -56.589496
-38.03896 14.296053 -55.927684
-39.087198 12.497227 -56.710079
-37.976988 13.173428 -56.589496
-46.862116 8.662899 -30.434755
-47.143791 7.601309 -29.269577
-46.431486 9.716121 -31.653188
-47.332432 9.673075 -31.832759
-46.862116 8.662899 -30.434755
-46.021918 10.690133 -32.793253
-46.431486 9.716121 -31.653188
-45.455988 11.620102 -33.98017
-46.335873 11.656266 -34.23811
-46.021918 10.690133 -32.793253
-41.952667 13.696863 -36.129337
-42.576397 13.079767 -35.215863
-41.987896 14.272808 -37.675491
-41.952667 13.696863 -36.129337
-41.191997 14.212595 -37.044205
-41.103035 15.421078 -40.086796
-41.872394 15.679177 -40.670084
-41.996586 15.046639 -39.173647
-41.103035 15.421078 -40.086796
-40.391976 15.09968 -39.369259
-65.573166 -14.907026 -9.04148
-65.814613 -14.714928 -9.964593
-65.06387 -14.160764 -9.003007
-65.573166 -14.907026 -9.04148
-64.623768 -13.361411 -9.010082
-65.037743 -13.019075 -9.948045
-65.06387 -14.160764 -9.003007
-61.401823 -10.577405 -9.538616
-62.166916 -10.967444 -9.339704
-61.563378 -9.295799 -10.641724
-61.401823 -10.577405 -9.538616
-64.902253 -19.210739 -14.475456
-64.797234 -20.373698 -14.341556
-64.544072 -18.543031 -15.507179
-64.902253 -19.210739 -14.475456
-65.010647 -17.967734 -14.68104
-64.892444 -10.68941 -32.699507
-65.222351 -12.332108 -32.009217
-64.747348 -11.101152 -31.617628
-64.892444 -10.68941 -32.699507
-64.444248 -9.027897 -33.462191
-53.013356 6.31463 -27.411842
-53.21228 5.001992 -26.096733
-53.588177 7.569662 -28.517464
-53.013356 6.31463 -27.411842
-52.674653 7.584023 -28.800648
-46.796596 17.41402 -47.457093
-45.611317 17.584335 -48.688473
-47.739114 16.869833 -47.342579
-47.961195 17.209094 -46.155971
-46.796596 17.41402 -47.457093
-54.738511 9.450285 -45.283427
-53.708983 10.808788 -45.729662
-53.774889 9.702348 -46.653134
-55.598872 9.19546 -43.928549
-54.738511 9.450285 -45.283427
-62.735851 -25.593832 -17.862829
-62.611009 -26.734831 -18.210451
-62.851957 -24.265083 -18.393109
-62.735851 -25.593832 -17.862829
-62.865599 -24.515608 -17.402186
-58.569952 1.315137 -21.109637
-59.312872 1.004282 -20.702694
-58.444069 2.655961 -22.488457
-58.569952 1.315137 -21.109637
-58.208523 3.906891 -23.939064
-58.931423 3.549272 -23.556427
-58.444069 2.655961 -22.488457
-57.979717 5.205689 -25.362611
-58.208523 3.906891 -23.939064
-57.492363 4.312378 -24.294641
-66.248051 -30.746341 -23.471804
-65.580071 -30.94779 -22.64327
-66.248051 -30.746341 -23.471804
-66.343487 -29.0777 -24.307181
-66.439999 -27.431047 -25.093718
-66.470726 -25.740932 -25.903206
-61.882658 -0.219231 -32.137178
-61.416109 1.264434 -32.570268
-61.610935 0.463727 -33.599968
-62.24609 -1.66317 -31.759367
-62.051264 -0.862463 -30.729668
-61.882658 -0.219231 -32.137178
-62.488314 -2.557751 -32.680817
-62.65692 -3.200983 -31.273306
-62.24609 -1.66317 -31.759367
-62.78277 -3.551173 -33.514482
-62.488314 -2.557751 -32.680817
-63.136704 -4.607329 -34.226351
-63.253077 -5.151718 -32.906624
-62.78277 -3.551173 -33.514482
-63.513548 -5.760564 -34.844397
-63.136704 -4.607329 -34.226351
-51.79589 8.565244 -49.968517
-51.736745 9.922242 -49.220516
-50.678335 9.908165 -50.414009
-51.919731 7.116401 -50.613945
-51.79589 8.565244 -49.968517
-51.919731 7.116401 -50.613945
-50.87917 7.015147 -51.717499
-62.735691 -29.162256 -18.776324
-62.560862 -29.365514 -17.804278
-62.674639 -27.923095 -18.539196
-62.735691 -29.162256 -18.776324
-63.098633 -28.991268 -19.71459
-64.294533 -31.379687 -20.912786
-63.893763 -30.043852 -20.823629
-64.941986 -31.19531 -21.773913
-64.294533 -31.379687 -20.912786
-65.077812 -29.577486 -22.598679
-65.580071 -30.94779 -22.64327
-64.941986 -31.19531 -21.773913
-60.110144 -0.749298 -18.935284
-60.169693 -2.070142 -17.585842
-60.592121 0.023151 -19.989987
-60.110144 -0.749298 -18.935284
-59.940752 0.482671 -20.354271
-59.040751 6.688655 -36.625576
-59.62726 5.389255 -36.28454
-59.508919 6.058865 -35.140295
-45.861242 17.040468 -42.336548
-45.030321 16.881621 -42.164994
-43.17202 17.541885 -50.930813
-44.394397 17.588743 -49.853093
-41.943577 17.347447 -51.928257
-40.726669 17.086095 -52.82111
-42.912235 16.889137 -51.970383
-43.17202 17.541885 -50.930813
-41.943577 17.347447 -51.928257
-41.349075 13.477522 -55.440449
-40.216328 14.256237 -55.429707
-40.191154 13.009151 -56.135162
-42.485704 12.612359 -55.355282
-42.510878 13.859445 -54.649826
-41.349075 13.477522 -55.440449
-43.702581 11.598769 -55.194122
-42.485704 12.612359 -55.355282
-50.835705 7.562449 -29.22037
-51.771342 7.57929 -29.036663
-49.914617 7.502618 -29.350638
-48.979253 7.521876 -29.397646
-50.521765 8.769759 -30.508568
-50.835705 7.562449 -29.22037
-49.914617 7.502618 -29.350638
-44.917783 12.472921 -35.073425
-45.455988 11.620102 -33.98017
-43.407095 13.058341 -35.741225
-42.576397 13.079767 -35.215863
-44.223038 13.246173 -36.201664
-43.407095 13.058341 -35.741225
-43.564509 13.944908 -37.221063
-45.075197 13.359488 -36.553264
-44.917783 12.472921 -35.073425
-44.223038 13.246173 -36.201664
-44.201391 16.635022 -41.946317
-45.030321 16.881621 -42.164994
-45.190189 16.145323 -40.772894
-44.201391 16.635022 -41.946317
-43.414535 16.334036 -41.601982
-42.616878 16.037042 -41.20334
-41.872394 15.679177 -40.670084
-65.810063 -17.087069 -12.860524
-65.40931 -17.461932 -13.751916
-66.096523 -16.79983 -11.891295
-66.314754 -16.637842 -10.980423
-65.736252 -16.001185 -12.885285
-65.810063 -17.087069 -12.860524
-66.096523 -16.79983 -11.891295
-65.575173 -13.732691 -10.942088
-65.911941 -14.629191 -10.965711
-65.814613 -14.714928 -9.964593
-64.019499 -12.727183 -9.024377
-64.623768 -13.361411 -9.010082
-63.482726 -12.041127 -9.091317
-62.793156 -11.528096 -9.188128
-64.060868 -11.533664 -10.022061
-64.019499 -12.727183 -9.024377
-63.482726 -12.041127 -9.091317
-61.574013 -8.06305 -11.806079
-62.282249 -8.493555 -11.556509
-61.563378 -9.295799 -10.641724
-61.641735 -6.777197 -13.004721
-61.574013 -8.06305 -11.806079
-60.922863 -7.579441 -12.089936
-60.238833 -4.664441 -14.93962
-60.972398 -5.01356 -14.572475
-60.257019 -5.944468 -13.655722
-60.266042 -3.332499 -16.228529
-60.238833 -4.664441 -14.93962
-64.30238 -20.991551 -15.04686
-64.797234 -20.373698 -14.341556
-63.877617 -21.756079 -15.768148
-64.30238 -20.991551 -15.04686
-64.010914 -20.550565 -16.022883
-63.458317 -22.576733 -16.348454
-63.877617 -21.756079 -15.768148
-63.283928 -22.250977 -17.338318
-63.156093 -23.512616 -16.942601
-63.458317 -22.576733 -16.348454
-66.08572 -17.353751 -29.722239
-66.23481 -19.01703 -28.993679
-65.713261 -17.717382 -28.771902
-66.08572 -17.353751 -29.722239
-65.825238 -15.664357 -30.512953
-65.581779 -14.009231 -31.226391
-65.222351 -12.332108 -32.009217
-64.039032 -7.402607 -34.117478
-63.513548 -5.760564 -34.844397
-54.137724 4.96778 -25.773897
-53.21228 5.001992 -26.096733
-55.005575 4.863345 -25.431968
-54.137724 4.96778 -25.773897
-54.794731 6.195833 -26.786729
-55.883373 4.764169 -25.053717
-55.005575 4.863345 -25.431968
-56.46307 5.851287 -26.081495
-56.68386 4.524059 -24.69041
-55.883373 4.764169 -25.053717
-58.462271 7.350621 -38.143858
-59.040751 6.688655 -36.625576
-58.34393 8.020231 -36.999613
-46.717863 17.15534 -42.398456
-46.87574 16.506794 -41.053478
-45.861242 17.040468 -42.336548
-47.587593 17.105491 -42.425863
-46.717863 17.15534 -42.398456
-48.46261 17.02511 -42.364189
-48.607378 16.541284 -41.053713
-47.587593 17.105491 -42.425863
-48.340105 17.289534 -43.651682
-48.128031 17.371516 -44.918755
-49.35989 16.725327 -42.279532
-48.46261 17.02511 -42.364189
-48.340105 17.289534 -43.651682
-57.871914 7.867855 -39.597183
-57.058991 9.220027 -40.002859
-57.165454 8.405684 -41.082147
-58.462271 7.350621 -38.143858
-57.871914 7.867855 -39.597183
3 1 187 189
3 189 188 48
3 187 188 189
3 1 190 191
3 2 51 49
3 193 192 52
3 0 56 54
3 3 60 58
3 3 62 60
3 194 65 195
3 196 195 63
3 194 195 196
3 5 68 66
3 5 70 68
3 197 74 198
3 200 199 74
3 8 201 203
3 201 77 202
3 201 202 203
3 9 80 78
3 9 82 80
3 4 85 83
3 10 88 86
3 10 90 88
3 10 204 206
3 206 205 90
3 204 205 206
3 7 207 209
3 207 92 208
3 207 208 209
3 11 95 93
3 11 97 95
3 6 210 212
3 210 98 211
3 210 211 212
3 213 101 214
3 215 214 99
3 213 214 215
3 217 216 101
3 218 103 219
3 220 104 221
3 13 222 224
3 224 223 105
3 222 223 224
3 14 108 106
3 16 109 50
3 16 110 109
3 17 113 111
3 226 225 53
3 19 116 114
3 21 117 55
3 21 118 117
3 22 121 119
3 227 122 228
3 229 228 57
3 227 228 229
3 230 123 231
3 232 231 122
3 230 231 232
3 234 233 123
3 24 235 237
3 237 236 59
3 235 236 237
3 24 238 240
3 238 124 239
3 238 239 240
3 24 125 124
3 25 126 61
3 25 127 126
3 26 130 128
3 28 131 64
3 28 132 131
3 12 241 243
3 241 133 242
3 241 242 243
3 29 134 67
3 29 135 134
3 29 136 135
3 30 137 69
3 30 138 137
3 31 244 245
3 31 246 248
3 246 139 247
3 246 247 248
3 31 140 139
3 250 249 71
3 32 251 252
3 32 253 255
3 253 141 254
3 253 254 255
3 32 142 141
3 33 143 72
3 33 144 143
3 34 145 73
3 34 146 145
3 34 256 258
3 258 257 146
3 256 257 258
3 259 147 260
3 261 148 262
3 263 262 147
3 261 262 263
3 35 149 75
3 35 150 149
3 36 264 266
3 264 151 265
3 264 265 266
3 36 152 151
3 36 153 152
3 267 154 268
3 270 269 154
3 37 155 76
3 37 156 155
3 15 157 107
3 38 158 79
3 38 159 158
3 38 160 159
3 39 161 81
3 39 162 161
3 27 163 129
3 40 164 84
3 40 165 164
3 18 166 112
3 41 167 87
3 41 168 167
3 41 169 168
3 42 170 89
3 42 171 170
3 42 271 273
3 273 272 171
3 271 272 273
3 43 172 91
3 43 173 172
3 20 174 115
3 44 175 94
3 44 176 175
3 44 177 176
3 45 178 96
3 45 179 178
3 46 274 276
3 274 180 275
3 274 275 276
3 46 181 180
3 23 182 120
3 47 183 100
3 47 184 183
3 47 185 184
3 277 186 278
3 279 278 102
3 277 278 279
3 281 280 186
3 48 282 284
3 284 283 13
3 282 283 284
3 286 285 48
3 49 50 14
3 51 50 49
3 51 16 50
3 52 53 17
3 287 53 288
3 289 288 52
3 287 288 289
3 291 290 53
3 54 55 19
3 56 55 54
3 56 21 55
3 292 57 293
3 294 293 22
3 292 293 294
3 295 57 296
3 298 297 57
3 58 299 301
3 299 59 300
3 299 300 301
3 60 59 58
3 60 24 59
3 60 61 24
3 62 61 60
3 62 25 61
3 63 64 26
3 65 64 63
3 65 28 64
3 66 67 12
3 68 67 66
3 68 29 67
3 68 69 29
3 70 69 68
3 70 30 69
3 302 31 303
3 304 71 305
3 306 305 31
3 304 305 306
3 307 71 308
3 310 309 71
3 311 32 312
3 313 72 314
3 315 314 32
3 313 314 315
3 316 72 317
3 318 33 319
3 320 319 72
3 318 319 320
3 321 73 322
3 74 323 325
3 323 73 324
3 323 324 325
3 74 34 73
3 74 326 328
3 328 327 34
3 326 327 328
3 330 329 74
3 331 75 332
3 333 75 334
3 335 35 336
3 337 336 75
3 335 336 337
3 338 36 339
3 341 340 36
3 342 76 343
3 77 344 346
3 344 76 345
3 344 345 346
3 77 37 76
3 78 79 15
3 80 79 78
3 80 38 79
3 80 81 38
3 82 81 80
3 82 39 81
3 83 84 27
3 85 84 83
3 85 40 84
3 86 87 18
3 88 87 86
3 88 41 87
3 88 89 41
3 90 89 88
3 90 42 89
3 90 347 349
3 349 348 42
3 347 348 349
3 351 350 90
3 352 91 353
3 92 354 356
3 354 91 355
3 354 355 356
3 92 43 91
3 93 94 20
3 95 94 93
3 95 44 94
3 95 96 44
3 97 96 95
3 97 45 96
3 98 357 358
3 98 359 361
3 359 46 360
3 359 360 361
3 99 100 23
3 101 100 99
3 101 47 100
3 101 102 47
3 362 102 363
3 364 363 101
3 362 363 364
3 366 365 102
3 367 58 368
3 103 369 371
3 369 58 370
3 369 370 371
3 103 3 58
3 372 12 373
3 374 12 375
3 376 66 377
3 378 377 12
3 376 377 378
3 104 379 381
3 379 66 380
3 379 380 381
3 104 5 66
3 105 382 383
3 385 384 105
3 387 386 13
3 106 107 8
3 108 107 106
3 108 15 107
3 50 108 14
3 109 108 50
3 109 15 108
3 109 78 15
3 110 78 109
3 110 9 78
3 111 112 4
3 113 112 111
3 113 18 112
3 53 113 17
3 388 113 389
3 390 389 53
3 388 389 390
3 391 18 392
3 393 392 113
3 391 392 393
3 394 86 395
3 396 395 18
3 394 395 396
3 397 86 398
3 399 10 400
3 401 400 86
3 399 400 401
3 403 402 10
3 114 115 7
3 116 115 114
3 116 20 115
3 55 116 19
3 117 116 55
3 117 20 116
3 117 93 20
3 118 93 117
3 118 11 93
3 119 120 6
3 121 120 119
3 121 23 120
3 57 121 22
3 122 121 57
3 122 23 121
3 122 99 23
3 123 99 122
3 123 404 406
3 406 405 99
3 404 405 406
3 123 407 408
3 410 409 123
3 59 411 413
3 411 412 413
3 415 414 59
3 124 416 417
3 124 418 419
3 124 420 422
3 420 105 421
3 420 421 422
3 125 105 124
3 125 13 105
3 61 125 24
3 126 125 61
3 126 13 125
3 126 48 13
3 127 48 126
3 127 1 48
3 128 129 2
3 130 129 128
3 130 27 129
3 64 130 26
3 131 130 64
3 131 27 130
3 131 83 27
3 132 83 131
3 132 4 83
3 423 65 424
3 133 425 427
3 425 65 426
3 425 426 427
3 133 28 65
3 67 133 12
3 134 133 67
3 134 28 133
3 134 132 28
3 135 132 134
3 135 4 132
3 135 111 4
3 136 111 135
3 136 17 111
3 69 136 29
3 137 136 69
3 137 17 136
3 137 52 17
3 138 52 137
3 138 428 430
3 430 429 52
3 428 429 430
3 432 431 0
3 433 6 434
3 139 435 436
3 139 437 439
3 437 6 438
3 437 438 439
3 139 119 6
3 140 119 139
3 140 22 119
3 71 140 31
3 440 140 441
3 442 441 71
3 440 441 442
3 443 22 444
3 445 444 140
3 443 444 445
3 447 446 22
3 448 7 449
3 141 450 451
3 141 452 454
3 452 7 453
3 452 453 454
3 141 114 7
3 142 114 141
3 142 19 114
3 72 142 32
3 143 142 72
3 143 19 142
3 143 54 19
3 144 54 143
3 144 0 54
3 455 33 456
3 73 457 458
3 145 459 461
3 461 460 73
3 459 460 461
3 145 462 464
3 462 33 463
3 462 463 464
3 145 144 33
3 146 144 145
3 146 0 144
3 146 465 467
3 467 466 0
3 465 466 467
3 469 468 146
3 471 470 34
3 472 8 473
3 147 474 475
3 147 476 478
3 476 8 477
3 476 477 478
3 147 106 8
3 148 106 147
3 148 14 106
3 75 479 481
3 479 148 480
3 479 480 481
3 149 148 75
3 149 14 148
3 149 49 14
3 150 49 149
3 150 2 49
3 482 35 483
3 151 484 485
3 151 486 488
3 486 35 487
3 486 487 488
3 151 150 35
3 152 150 151
3 152 2 150
3 152 128 2
3 153 128 152
3 153 26 128
3 489 153 490
3 491 490 36
3 489 490 491
3 154 492 494
3 492 153 493
3 492 493 494
3 154 26 153
3 154 63 26
3 495 63 496
3 497 496 154
3 495 496 497
3 499 498 63
3 76 500 501
3 155 502 504
3 504 503 76
3 502 503 504
3 155 505 506
3 155 507 509
3 507 103 508
3 507 508 509
3 156 103 155
3 156 3 103
3 107 77 8
3 157 77 107
3 157 37 77
3 79 157 15
3 158 157 79
3 158 37 157
3 158 156 37
3 159 156 158
3 159 3 156
3 159 62 3
3 160 62 159
3 160 25 62
3 81 160 38
3 161 160 81
3 161 25 160
3 161 127 25
3 162 127 161
3 162 1 127
3 129 51 2
3 163 51 129
3 163 16 51
3 84 163 27
3 164 163 84
3 164 16 163
3 164 110 16
3 165 110 164
3 165 9 110
3 112 85 4
3 166 85 112
3 166 40 85
3 87 166 18
3 167 166 87
3 167 40 166
3 167 165 40
3 168 165 167
3 168 9 165
3 168 82 9
3 169 82 168
3 169 39 82
3 89 169 41
3 170 169 89
3 170 39 169
3 170 162 39
3 171 162 170
3 171 1 162
3 171 510 512
3 512 511 1
3 510 511 512
3 514 513 171
3 516 515 42
3 518 517 10
3 91 519 520
3 172 521 523
3 523 522 91
3 521 522 523
3 172 524 525
3 172 526 528
3 526 104 527
3 526 527 528
3 173 104 172
3 173 5 104
3 115 92 7
3 174 92 115
3 174 43 92
3 94 174 20
3 175 174 94
3 175 43 174
3 175 173 43
3 176 173 175
3 176 5 173
3 176 70 5
3 177 70 176
3 177 30 70
3 96 177 44
3 178 177 96
3 178 30 177
3 178 138 30
3 179 138 178
3 179 529 531
3 531 530 138
3 529 530 531
3 532 56 533
3 534 533 0
3 532 533 534
3 535 56 536
3 537 21 538
3 539 538 56
3 537 538 539
3 180 540 541
3 180 542 544
3 542 21 543
3 542 543 544
3 180 118 21
3 181 118 180
3 181 11 118
3 120 98 6
3 182 98 120
3 182 46 98
3 100 182 23
3 183 182 100
3 183 46 182
3 183 181 46
3 184 181 183
3 184 11 181
3 184 97 11
3 185 97 184
3 185 45 97
3 102 185 47
3 186 185 102
3 186 45 185
3 186 179 45
3 545 179 546
3 547 546 186
3 545 546 547
3 549 548 179
