ply
format ascii 1.0
element vertex 677
property float x
property float y
property float z
element face 744
property list uchar int vertex_index
end_header
-54.909988 14.855797 5.535781
-63.238308 5.367624 27.159096
-52.671986 18.7906 19.331789
-60.368114 9.492535 6.872948
-59.216125 2.721642 36.364483
-54.872963 9.923958 33.226128
-57.6213 -6.125966 38.506592
-63.946579 -2.911917 30.482533
-41.660862 10.799957 9.738235
-49.265808 20.708775 6.645533
-65.692001 5.960155 17.65024
-60.766991 12.350153 13.312594
-57.987541 11.998259 23.341564
-47.669502 17.256954 28.682213
-56.853912 18.741833 9.837709
-54.936447 26.020901 8.384621
-57.028214 0.819054 40.780106
-56.355949 4.92524 39.804878
-54.205975 -8.437853 42.367496
-55.924675 -3.745888 41.362747
-58.814728 -1.60169 37.260559
-39.1507 13.304451 8.832346
-54.877357 8.570564 6.561351
-51.668182 11.048462 6.942707
-48.456524 13.629211 7.655419
-52.175598 17.73745 5.964091
-64.777206 5.884729 22.372076
-62.483784 9.376448 20.412479
-61.122734 8.911848 25.423489
-49.898685 12.19409 35.809361
-51.014839 13.294201 30.943642
-46.306297 16.36227 33.39801
-44.041252 21.385822 31.13028
-64.039337 1.313801 28.678228
-66.042793 1.872766 24.193571
-56.906548 15.538898 16.139454
-58.443008 15.377499 11.301992
-55.267059 19.087677 14.437245
-57.597343 12.073919 5.778817
-61.319092 4.295185 31.831287
-59.535675 7.948544 30.331234
-57.912025 6.553167 35.110161
-53.696213 8.577162 38.084347
-60.919128 -4.20877 34.55571
-61.557823 0.139931 33.037682
-52.091297 23.047775 17.849596
-44.557041 8.398849 9.955825
-45.26125 16.334393 8.261321
-63.393623 9.378967 15.528975
-59.570946 12.432526 18.241495
-54.807426 15.126228 21.190151
-56.343906 11.132677 28.338764
-52.712524 14.335526 26.115593
-49.909851 18.123791 24.063698
-45.876781 22.049164 26.679264
-58.805042 14.319645 7.512985
-56.779884 17.411667 6.540452
-54.784794 23.051666 13.179343
-55.869778 22.354137 8.960024
-54.90184 20.642029 6.29235
-52.819889 23.917892 6.440952
-56.640732 -1.421303 41.075882
-54.911606 11.773247 5.834189
-53.270355 9.795511 6.684449
-53.420063 13.102585 5.980471
-51.915268 14.455036 6.263003
-53.559418 16.287224 5.689037
-64.070374 5.691893 24.77351
-63.099842 7.521135 23.887291
-62.345879 7.212988 26.337851
-47.668823 13.738049 37.065582
-47.994289 14.178722 34.596848
-45.963043 15.970592 35.839409
-44.569653 18.420578 34.637428
-63.78978 3.387974 27.91954
-65.11821 1.666307 26.447107
-64.735199 3.727045 25.609154
-65.538872 3.928232 23.279558
-54.791878 17.120392 17.725037
-55.931351 17.249828 15.226385
-54.042759 18.999424 16.891369
-59.428078 8.0196 6.562122
-57.909164 9.217438 6.109053
-58.971153 10.750315 6.222151
-60.281834 3.561539 34.113617
-59.725372 5.499104 33.492615
-58.804241 4.707403 35.812538
-55.241695 6.790335 39.036049
-53.218204 7.922209 40.518021
-51.466614 9.78027 39.455772
-51.77422 -11.877894 45.178123
-55.921349 -7.251048 40.44632
-59.292664 -5.101027 36.544411
-59.18639 0.607683 36.819111
-60.209549 -0.668434 35.16481
-60.415108 1.494255 34.645042
-61.60379 2.26486 32.438972
-40.223137 7.643358 9.934931
-38.068508 14.567142 8.088476
-38.167961 9.963318 8.366894
-46.115768 7.245312 9.861581
-48.833637 17.232632 7.01281
-46.851566 14.963802 7.997645
-47.261375 18.66909 7.364175
-64.617073 7.74885 16.607851
-60.376976 10.769001 21.882847
-61.056221 10.933184 19.341724
-58.805092 12.272202 20.795876
-57.263859 13.788685 19.708382
-56.32885 13.519073 22.24893
-57.303123 8.964773 31.826483
-58.070614 9.577156 29.388403
-55.576313 10.560902 30.791458
-49.198589 15.17366 29.787886
-51.79747 13.836502 28.53339
-50.085155 15.671356 27.420261
-51.137257 16.133621 25.049072
-48.693436 17.706017 26.373852
-47.72422 19.947319 25.409561
-46.541939 19.557091 27.647196
-61.095085 12.041241 11.10887
-57.550476 17.016747 10.49003
-58.804131 14.982391 9.210113
-57.859337 16.56675 8.491041
-57.753845 15.838924 6.926077
-57.047409 18.219254 7.953798
-53.584839 23.116196 15.513807
-55.398018 24.755703 10.506989
-55.435226 24.189079 8.659721
-55.640358 21.64032 7.364129
-54.921177 23.370232 7.234078
-53.904297 22.275066 6.344393
-54.116394 25.101604 7.145392
-58.130955 1.799816 38.586971
-57.880322 3.845922 38.107449
-56.955261 2.939289 40.377987
-52.487572 -9.645172 44.275047
-53.428326 -7.298999 43.701309
-55.052879 -6.104112 41.755814
-56.659813 -4.94678 39.785744
-58.241737 -3.862108 37.789936
-57.384453 -2.636307 39.326767
-57.927162 -0.371967 38.963219
-41.896904 15.037357 9.049876
-40.351402 12.0436 9.379045
-40.509941 16.392044 8.79937
-53.083645 6.386484 7.739579
-51.403416 7.536329 7.95651
-49.742699 8.713362 8.247921
-48.100796 9.915968 8.560553
-50.064003 12.325777 7.285191
-50.38715 15.830139 6.626767
-50.745182 19.209015 6.302751
-65.32724 5.965994 19.983051
-64.262711 7.774488 18.980648
-63.748367 7.703327 21.424133
-61.845367 9.204687 22.922974
-59.632904 10.487963 24.415405
-52.354755 10.956934 34.542747
-52.964294 11.569172 32.107979
-50.380981 12.736376 33.364281
-48.500118 14.666256 32.174316
-46.870796 16.799911 31.01651
-45.615448 19.156197 29.915371
-44.961792 18.768959 32.240192
-43.573528 21.081505 33.470032
-64.061417 -0.802538 29.508694
-65.277191 -0.435852 27.354073
-66.330109 -0.225706 25.17421
-66.165222 4.013859 20.955311
-58.926025 13.970985 14.646454
-59.529282 13.829132 12.25601
-57.784851 15.548065 13.652399
-56.881538 17.229412 12.779814
-56.236404 19.016609 12.046827
-56.497246 7.382969 6.612168
-56.404079 10.473991 5.868183
-56.248512 13.447586 5.55427
-62.312008 4.901533 29.513496
-61.51527 6.770082 28.758455
-60.634434 6.19426 31.142937
-58.719395 7.294226 32.734142
-56.570042 8.276031 34.241653
-57.12352 5.754417 37.466072
-55.882057 7.541298 36.642937
-54.245384 9.252262 35.654266
-51.858364 10.352129 36.990433
-49.557514 11.693993 38.286415
-47.496517 13.359543 39.581795
-53.538513 -10.688178 43.28624
-62.216904 -5.577016 33.65543
-62.479496 -3.473929 32.536179
-59.789215 -2.881865 35.767143
-61.288704 -2.032871 33.714798
-62.721222 -1.335621 31.62945
-62.842365 0.804529 30.876072
-62.736298 2.900118 30.197577
-50.637775 20.617325 20.891125
-52.190765 20.860348 18.554768
-50.442024 22.88271 20.130978
-39.131718 8.797026 9.242826
-43.067299 9.583597 9.923892
-46.482803 11.146631 8.84128
-44.89946 12.409481 9.042009
-43.365417 13.707058 9.122323
-43.701824 17.742081 8.403239
-62.08358 10.89016 14.419983
-63.009109 9.434381 17.928375
-61.636993 10.978172 16.832401
-60.24128 12.466967 15.722979
-58.149155 13.946388 17.157623
-55.888622 15.388748 18.671005
-53.557083 16.875591 20.209593
-60.344162 8.492308 27.895027
-58.854935 10.089376 26.919188
-57.156387 11.616274 25.857365
-53.684464 12.157114 29.67491
-54.502205 12.691345 27.229166
-55.394478 13.149979 24.75679
-53.730179 14.770458 23.67207
-52.314064 16.540558 22.651073
-51.262207 18.491333 21.723028
-49.115013 20.306595 23.168797
-44.80685 21.715889 28.873226
-60.942604 10.648636 7.782244
-59.891357 13.477188 10.095688
-59.948948 12.869099 8.291464
-59.651684 11.967152 6.96708
-58.405956 13.356022 6.338075
-57.212135 14.803829 5.920475
-56.053551 16.293781 5.714664
-53.654755 21.010342 16.16464
-54.904404 21.033447 13.765247
-55.822624 20.888298 11.446453
-54.814117 25.103493 12.630903
-55.573463 22.811958 10.948626
-56.315956 20.530361 9.337609
-56.327736 19.917999 7.588624
-55.845253 19.018158 6.341092
-54.899483 17.810009 5.697114
-53.715851 19.342609 5.824941
-52.474686 20.889778 6.043376
-51.160477 22.456455 6.29357
-45.886212 15.806407 37.091881
-46.815933 14.854321 36.452495
-46.739102 14.690136 37.704967
-45.183411 17.050247 36.47609
-45.886212 15.806407 37.091881
-59.898096 8.756068 6.717535
-60.186088 7.458818 6.886929
-60.656106 8.195285 7.042343
-53.005758 7.608828 41.732256
-53.930173 6.98322 40.968739
-52.188911 8.586984 41.225817
-53.005758 7.608828 41.732256
-51.277476 -11.355805 45.677263
-50.908812 -12.452977 46.127719
-57.356094 -7.237086 38.997537
-56.506119 -7.799627 39.967402
-56.771324 -6.688507 39.476456
-58.233536 -6.706497 38.037453
-57.356094 -7.237086 38.997537
-58.456982 -5.613497 37.525501
-59.069218 -6.194028 37.056362
-58.233536 -6.706497 38.037453
-40.942 9.221657 9.836583
-40.830028 7.078097 10.190582
-41.548891 8.656396 10.092234
-37.223768 13.47019 7.224336
-37.701508 12.847418 7.697717
-37.590768 15.189915 7.615095
-46.923198 6.682742 9.769595
-45.916626 5.270188 10.431107
-48.505757 21.476177 6.791196
-47.50354 20.456335 7.150517
-48.263592 19.688932 7.004854
-65.154537 6.854503 17.129046
-65.233731 6.819759 16.021588
-65.771195 5.925412 16.542783
-64.582852 -3.741748 30.049772
-63.8638 -3.946121 31.067697
-66.225483 4.962377 17.068877
-66.136391 4.987318 18.162184
-65.771195 5.925412 16.542783
-66.225483 4.962377 17.068877
-60.931038 12.195697 12.210732
-61.72714 11.338798 11.651836
-61.563093 11.493254 12.753698
-55.185837 25.10499 8.522171
-55.318107 25.442759 9.363916
-55.068718 26.358669 9.226366
-53.176642 -6.687563 44.51783
-52.611311 -7.897296 44.663421
-55.488777 -4.925 41.55928
-54.745323 -5.503163 42.560877
-55.181221 -4.324051 42.364344
-41.350643 17.786782 8.593536
-41.203423 15.7147 8.924623
-42.044124 17.109438 8.718789
-53.980501 7.478524 7.150465
-53.935594 5.828498 7.691937
-54.832451 6.920538 7.102823
-43.470163 20.951926 34.685208
-44.07159 19.751041 34.05373
-43.968226 19.621462 35.268906
-43.155403 22.384327 34.086968
-43.470163 20.951926 34.685208
-66.610077 0.86169 23.590494
-66.753735 -0.187545 24.080813
-66.186451 0.82353 24.68389
-66.408161 1.914512 23.066233
-66.610077 0.86169 23.590494
-57.315006 6.814823 6.735321
-56.50761 5.791367 7.159063
-49.445988 11.471508 39.540102
-50.512064 10.737132 38.871094
-50.400537 10.514646 40.12478
-48.415489 12.304283 40.187792
-48.527015 12.526768 38.934105
-49.445988 11.471508 39.540102
-61.568016 -4.892893 34.10557
-61.389538 -5.964942 34.640623
-60.74065 -5.280819 35.090763
-49.609507 22.765701 21.238715
-50.5399 21.750017 20.511052
-49.707382 21.633009 21.618788
-38.22784 7.663025 8.460271
-37.880922 8.204603 7.856018
-43.660873 6.904945 10.369844
-44.376291 6.368937 10.458559
-43.81217 8.991223 9.939858
-42.916002 7.497319 10.353877
-43.660873 6.904945 10.369844
-63.503353 9.286575 14.413133
-64.092914 8.505437 14.954031
-62.738602 10.134563 14.974479
-62.848332 10.042172 13.858637
-63.503353 9.286575 14.413133
-46.549421 22.207375 25.598028
-47.47314 21.156452 24.963176
-46.8005 20.998241 26.044412
-45.77614 23.364165 26.215646
-46.549421 22.207375 25.598028
-61.056801 11.069036 8.504584
-61.592953 10.024853 8.258986
-54.848596 26.130288 12.347172
-54.415436 26.271076 13.429748
-56.525414 1.412131 41.699032
-56.46559 0.30858 41.858688
-55.624916 -3.131919 42.25725
-55.181221 -4.324051 42.364344
-55.982945 -1.969626 42.113817
-56.282703 -2.583595 41.219314
-55.624916 -3.131919 42.25725
-56.271849 -0.811599 42.006577
-55.982945 -1.969626 42.113817
-56.46559 0.30858 41.858688
-56.834473 -0.301125 40.927994
-56.271849 -0.811599 42.006577
-44.486716 18.27524 35.875099
-45.266348 17.195585 35.238419
-45.183411 17.050247 36.47609
-43.968226 19.621462 35.268906
-44.486716 18.27524 35.875099
-59.601154 6.599264 6.932667
-60.186088 7.458818 6.886929
-58.780423 7.133139 6.710299
-59.601154 6.599264 6.932667
-58.668621 8.618519 6.335587
-58.020966 7.732057 6.483764
-58.780423 7.133139 6.710299
-54.941919 6.417283 40.227752
-55.798822 5.857787 39.420463
-55.499046 5.484735 40.612167
-54.22995 7.356272 39.777035
-54.941919 6.417283 40.227752
-53.930173 6.98322 40.968739
-51.313116 9.516015 40.694693
-52.342409 8.85124 39.986897
-52.188911 8.586984 41.225817
-50.400537 10.514646 40.12478
-51.313116 9.516015 40.694693
-51.580835 -12.910289 45.81757
-50.908812 -12.452977 46.127719
-52.462824 -12.33993 44.868314
-51.580835 -12.910289 45.81757
-55.618836 -8.373914 40.919302
-54.761149 -8.967317 41.87989
-55.063662 -7.844451 41.406908
-55.618836 -8.373914 40.919302
-56.506119 -7.799627 39.967402
-59.927418 -5.726947 36.085113
-59.069218 -6.194028 37.056362
-60.105896 -4.654898 35.550061
-60.74065 -5.280819 35.090763
-59.927418 -5.726947 36.085113
-40.153295 5.443623 10.198746
-40.830028 7.078097 10.190582
-39.669808 5.967742 9.76491
-40.153295 5.443623 10.198746
-37.751234 10.545506 7.836926
-38.118234 12.26523 8.227685
-37.701508 12.847418 7.697717
-37.880922 8.204603 7.856018
-37.751234 10.545506 7.836926
-45.155654 5.792168 10.411437
-45.916626 5.270188 10.431107
-45.336405 7.822081 9.908703
-44.376291 6.368937 10.458559
-45.155654 5.792168 10.411437
-46.472732 19.406471 7.496937
-45.47267 18.239123 7.94551
-46.261313 17.501742 7.812748
-46.472732 19.406471 7.496937
-47.50354 20.456335 7.150517
-64.704639 7.690379 15.493468
-65.233731 6.819759 16.021588
-64.005348 8.563909 16.068413
-64.092914 8.505437 14.954031
-64.704639 7.690379 15.493468
-43.806624 22.776353 30.593036
-43.525219 22.649799 31.730023
-61.760706 11.101352 10.686635
-61.72714 11.338798 11.651836
-61.133041 11.765338 10.167897
-61.760706 11.101352 10.686635
-52.941091 24.209925 16.339879
-52.838068 23.081986 16.681701
-52.194321 24.175715 17.507773
-53.664448 24.194267 15.201117
-52.941091 24.209925 16.339879
-54.264426 24.162002 14.033885
-54.184816 23.083931 14.346575
-53.664448 24.194267 15.201117
-55.299504 25.72607 10.28755
-55.140547 25.956392 11.285215
-55.416622 24.472391 9.583355
-55.299504 25.72607 10.28755
-55.318107 25.442759 9.363916
-61.065359 8.903132 7.285232
-60.656106 8.195285 7.042343
-56.488937 2.472249 41.497973
-56.991737 1.879171 40.579047
-56.525414 1.412131 41.699032
-56.278885 3.511864 41.250113
-56.488937 2.472249 41.497973
-55.979229 4.50484 40.963558
-56.655605 3.932264 40.091432
-56.278885 3.511864 41.250113
-55.499046 5.484735 40.612167
-55.979229 4.50484 40.963558
-52.140934 -9.070383 44.950291
-51.634152 -10.239445 45.225725
-52.957949 -8.472086 43.988178
-52.140934 -9.070383 44.950291
-52.611311 -7.897296 44.663421
-53.933047 -6.100606 43.533625
-53.176642 -6.687563 44.51783
-54.240602 -6.701555 42.728561
-53.933047 -6.100606 43.533625
-54.745323 -5.503163 42.560877
-40.629076 18.515993 8.49251
-41.350643 17.786782 8.593536
-39.864711 17.074185 8.575267
-40.629076 18.515993 8.49251
-39.185091 15.530388 8.591755
-39.83032 14.848247 8.815858
-39.864711 17.074185 8.575267
-38.643995 16.161734 8.21982
-38.609604 13.935797 8.460411
-39.185091 15.530388 8.591755
-38.054011 16.838663 7.88949
-38.643995 16.161734 8.21982
-37.590768 15.189915 7.615095
-38.054011 16.838663 7.88949
-52.964227 4.647264 8.397553
-53.935594 5.828498 7.691937
-52.090361 5.16761 8.482062
-52.964227 4.647264 8.397553
-51.250246 5.742533 8.590528
-52.090361 5.16761 8.482062
-52.24353 6.961407 7.848045
-50.397928 6.278714 8.702563
-51.250246 5.742533 8.590528
-49.56757 6.86723 8.848268
-50.397928 6.278714 8.702563
-50.573058 8.124845 8.102215
-48.736664 7.416768 8.962765
-49.56757 6.86723 8.848268
-48.921748 9.314665 8.404237
-47.915712 8.018071 9.119081
-48.736664 7.416768 8.962765
-43.291357 22.49764 32.899899
-43.525219 22.649799 31.730023
-43.80739 21.233663 32.300156
-43.291357 22.49764 32.899899
-43.155403 22.384327 34.086968
-64.673985 -1.664879 28.951815
-64.616566 -2.719568 29.438735
-64.003998 -1.857228 29.995613
-65.281871 -1.481536 27.874505
-64.673985 -1.664879 28.951815
-64.669304 -0.619195 28.431383
-65.868168 -1.373846 26.817
-65.281871 -1.481536 27.874505
-66.394627 -1.268773 25.727068
-65.868168 -1.373846 26.817
-65.80365 -0.330779 26.264142
-66.874542 -1.23504 24.663643
-66.394627 -1.268773 25.727068
-66.874542 -1.23504 24.663643
-66.753735 -0.187545 24.080813
-66.1562 2.942245 22.609227
-66.408161 1.914512 23.066233
-65.790832 2.900499 23.736565
-66.469375 2.985059 21.447103
-66.1562 2.942245 22.609227
-65.852047 3.971045 22.117435
-66.718376 2.982068 20.33571
-66.469375 2.985059 21.447103
-66.373001 4.01417 19.814719
-66.718376 2.982068 20.33571
-65.95401 4.990238 19.328589
-66.373001 4.01417 19.814719
-65.746231 4.989927 20.469181
-65.509621 5.963075 18.816645
-66.136391 4.987318 18.162184
-65.95401 4.990238 19.328589
-54.918789 27.321808 8.982708
-55.068718 26.358669 9.226366
-54.626352 26.933336 8.234362
-54.918789 27.321808 8.982708
-55.642395 6.32674 7.128232
-56.50761 5.791367 7.159063
-55.687302 7.976767 6.586759
-54.832451 6.920538 7.102823
-55.642395 6.32674 7.128232
-57.203205 8.300204 6.36061
-57.315006 6.814823 6.735321
-58.020966 7.732057 6.483764
-46.652948 14.500883 38.963074
-46.739102 14.690136 37.704967
-47.58267 13.548796 38.323689
-52.130896 -10.761533 44.726585
-51.277476 -11.355805 45.677263
-51.634152 -10.239445 45.225725
-53.344971 -11.745072 43.922373
-52.462824 -12.33993 44.868314
-52.656367 -11.283036 44.232181
-54.427418 -10.092479 42.339262
-53.872244 -9.563016 42.826868
-54.761149 -8.967317 41.87989
-54.241451 -11.162372 42.976979
-54.427418 -10.092479 42.339262
-53.344971 -11.745072 43.922373
-54.241451 -11.162372 42.976979
-62.111961 -6.602552 34.334471
-61.389538 -5.964942 34.640623
-62.923125 -6.285444 33.348551
-62.111961 -6.602552 34.334471
-62.998963 -5.278671 32.654145
-62.923125 -6.285444 33.348551
-63.130258 -4.227127 32.09452
-62.998963 -5.278671 32.654145
-62.3482 -4.525473 33.095804
-63.213037 -3.192923 31.509356
-63.8638 -3.946121 31.067697
-63.130258 -4.227127 32.09452
-49.650154 23.989079 20.842855
-49.609507 22.765701 21.238715
-50.529415 24.058802 19.763052
-49.650154 23.989079 20.842855
-51.354051 24.141334 18.622361
-51.266661 22.965243 18.990287
-50.529415 24.058802 19.763052
-52.194321 24.175715 17.507773
-51.354051 24.141334 18.622361
-39.124098 6.544576 9.418858
-39.669808 5.967742 9.76491
-39.677428 8.220192 9.588878
-38.709719 7.079879 8.898237
-38.649839 9.380172 8.80486
-38.22784 7.663025 8.460271
-39.124098 6.544576 9.418858
-38.709719 7.079879 8.898237
-42.25211 8.048216 10.185063
-42.916002 7.497319 10.353877
-42.364081 10.191777 9.831063
-41.548891 8.656396 10.092234
-42.25211 8.048216 10.185063
-47.108282 8.58064 9.211067
-46.923198 6.682742 9.769595
-47.915712 8.018071 9.119081
-42.946585 18.4618 8.395471
-42.044124 17.109438 8.718789
-42.799364 16.389719 8.726557
-44.692957 18.942966 8.016469
-44.481537 17.038237 8.33228
-45.47267 18.239123 7.94551
-43.910879 19.698736 8.084388
-44.692957 18.942966 8.016469
-42.946585 18.4618 8.395471
-43.910879 19.698736 8.084388
-62.221388 10.763258 13.307392
-62.848332 10.042172 13.858637
-61.425286 11.620157 13.866288
-61.563093 11.493254 12.753698
-62.221388 10.763258 13.307392
-48.946001 21.477644 22.757624
-49.707382 21.633009 21.618788
-49.876394 20.46196 22.029961
-48.168537 21.33609 23.842795
-48.419617 20.126957 24.289179
-47.47314 21.156452 24.963176
-48.946001 21.477644 22.757624
-48.168537 21.33609 23.842795
-44.189422 22.941387 29.464509
-44.424051 21.550856 30.001753
-43.806624 22.776353 30.593036
-44.634111 23.071986 28.372244
-44.189422 22.941387 29.464509
-44.016683 24.297483 28.963527
-45.169077 23.238623 27.275263
-45.341815 21.882527 27.776245
-44.634111 23.071986 28.372244
-45.77614 23.364165 26.215646
-45.169077 23.238623 27.275263
-47.46705 13.199016 40.858845
-48.415489 12.304283 40.187792
-46.647855 14.368025 40.24424
-47.46705 13.199016 40.858845
-46.652948 14.500883 38.963074
-46.647855 14.368025 40.24424
-64.582852 -3.741748 30.049772
-64.616566 -2.719568 29.438735
-61.352604 9.481183 7.73988
-61.592953 10.024853 8.258986
-60.655359 10.070585 7.327596
-61.065359 8.903132 7.285232
-61.352604 9.481183 7.73988
-60.531177 12.483311 9.661307
-61.133041 11.765338 10.167897
-60.493221 12.759214 10.602279
-60.559973 12.179267 8.759194
-60.531177 12.483311 9.661307
-59.920153 13.173144 9.193576
-60.445776 11.758868 8.036854
-61.056801 11.069036 8.504584
-60.559973 12.179267 8.759194
-54.279087 25.187916 13.759665
-54.415436 26.271076 13.429748
-54.799456 24.077579 12.905123
-54.264426 24.162002 14.033885
-54.279087 25.187916 13.759665
-55.106068 24.929598 11.568946
-54.848596 26.130288 12.347172
-55.140547 25.956392 11.285215
-54.216325 26.473688 7.614748
-54.526421 25.561252 7.765007
-54.626352 26.933336 8.234362
-53.654184 25.96924 7.095446
-54.216325 26.473688 7.614748
-53.005932 25.377384 6.743226
-53.468142 24.509748 6.793172
-53.654184 25.96924 7.095446
-52.226652 24.7474 6.483856
-53.005932 25.377384 6.743226
-51.396946 24.016681 6.410165
-51.990183 23.187174 6.367261
-52.226652 24.7474 6.483856
-50.466267 23.253435 6.406232
-51.396946 24.016681 6.410165
-49.518932 22.379595 6.582214
-50.213143 21.582615 6.469551
-50.466267 23.253435 6.406232
-48.505757 21.476177 6.791196
-49.518932 22.379595 6.582214
3 0 64 62
3 0 66 64
3 1 69 67
3 243 72 244
3 245 244 70
3 243 244 245
3 247 246 72
3 1 76 74
3 1 67 76
3 2 80 78
3 3 248 250
3 248 81 249
3 248 249 250
3 3 83 81
3 4 86 84
3 251 88 252
3 254 253 88
3 255 90 256
3 6 257 259
3 259 258 91
3 257 258 259
3 6 260 261
3 6 262 264
3 262 92 263
3 262 263 264
3 4 95 93
3 4 84 95
3 8 265 267
3 265 97 266
3 265 266 267
3 270 269 98
3 268 269 270
3 271 100 272
3 9 103 101
3 9 273 275
3 275 274 103
3 273 274 275
3 10 276 278
3 276 104 277
3 276 277 278
3 12 107 105
3 12 109 107
3 5 112 110
3 13 115 113
3 13 117 115
3 13 119 117
3 7 279 280
3 10 281 282
3 10 283 284
3 11 285 287
3 285 120 286
3 285 286 287
3 14 123 121
3 14 125 123
3 15 288 290
3 288 128 289
3 288 289 290
3 15 130 128
3 15 132 130
3 16 135 133
3 291 137 292
3 19 293 295
3 293 138 294
3 293 294 295
3 19 139 138
3 19 141 139
3 16 142 61
3 16 133 142
3 296 145 297
3 298 297 143
3 296 297 298
3 22 299 301
3 299 146 300
3 299 300 301
3 23 147 63
3 23 148 147
3 23 150 148
3 25 151 65
3 25 152 151
3 26 155 153
3 28 156 68
3 28 157 156
3 29 160 158
3 31 161 71
3 31 162 161
3 31 164 162
3 302 165 303
3 304 303 73
3 302 303 304
3 306 305 165
3 33 167 166
3 34 168 75
3 34 307 309
3 309 308 168
3 307 308 309
3 34 310 311
3 26 169 77
3 26 153 169
3 35 172 170
3 37 173 79
3 37 174 173
3 312 175 313
3 38 176 82
3 38 177 176
3 39 180 178
3 41 181 85
3 41 182 181
3 17 183 134
3 42 184 87
3 42 185 184
3 42 186 185
3 314 187 315
3 316 315 89
3 314 315 316
3 317 188 318
3 319 318 187
3 317 318 319
3 18 189 136
3 43 320 322
3 320 190 321
3 320 321 322
3 43 191 190
3 20 192 140
3 44 193 94
3 44 194 193
3 44 195 194
3 39 196 96
3 39 178 196
3 323 199 324
3 325 324 197
3 323 324 325
3 21 200 144
3 327 326 99
3 46 328 329
3 46 330 332
3 330 201 331
3 330 331 332
3 24 202 149
3 47 203 102
3 47 204 203
3 47 205 204
3 48 333 334
3 48 335 337
3 335 206 336
3 335 336 337
3 27 207 154
3 49 208 106
3 49 209 208
3 49 210 209
3 50 211 108
3 50 212 211
3 40 213 179
3 51 214 111
3 51 215 214
3 30 216 159
3 52 217 114
3 52 218 217
3 52 219 218
3 53 220 116
3 53 221 220
3 53 222 221
3 54 338 340
3 340 339 118
3 338 339 340
3 54 341 342
3 32 223 163
3 343 224 344
3 36 225 171
3 55 226 122
3 55 227 226
3 55 228 227
3 56 229 124
3 56 230 229
3 45 231 198
3 57 232 126
3 57 233 232
3 345 234 346
3 58 235 127
3 58 236 235
3 58 237 236
3 59 238 129
3 59 239 238
3 59 240 239
3 60 241 131
3 60 242 241
3 348 347 16
3 349 19 350
3 351 61 352
3 353 352 19
3 351 352 353
3 354 61 355
3 356 16 357
3 358 357 61
3 356 357 358
3 62 63 22
3 64 63 62
3 64 23 63
3 64 65 23
3 66 65 64
3 66 25 65
3 67 68 26
3 69 68 67
3 69 28 68
3 70 71 29
3 72 71 70
3 72 31 71
3 72 73 31
3 359 73 360
3 361 360 72
3 359 360 361
3 363 362 73
3 74 75 33
3 76 75 74
3 76 34 75
3 76 77 34
3 67 77 76
3 67 26 77
3 78 79 35
3 80 79 78
3 80 37 79
3 81 364 365
3 81 366 367
3 81 368 370
3 368 82 369
3 368 369 370
3 83 82 81
3 83 38 82
3 84 85 39
3 86 85 84
3 86 41 85
3 371 87 372
3 373 372 17
3 371 372 373
3 88 374 376
3 374 87 375
3 374 375 376
3 88 42 87
3 88 89 42
3 377 89 378
3 379 378 88
3 377 378 379
3 381 380 89
3 90 382 383
3 90 384 385
3 91 386 388
3 388 387 18
3 386 387 388
3 390 389 91
3 92 391 392
3 92 393 395
3 393 43 394
3 393 394 395
3 93 94 20
3 95 94 93
3 95 44 94
3 95 96 44
3 84 96 95
3 84 39 96
3 97 396 397
3 97 398 399
3 98 99 21
3 400 99 401
3 402 401 98
3 400 401 402
3 404 403 99
3 100 405 406
3 100 407 409
3 407 46 408
3 407 408 409
3 101 102 24
3 103 102 101
3 103 47 102
3 103 410 412
3 412 411 47
3 410 411 412
3 414 413 103
3 104 415 416
3 104 417 419
3 417 48 418
3 417 418 419
3 105 106 27
3 107 106 105
3 107 49 106
3 107 108 49
3 109 108 107
3 109 50 108
3 110 111 40
3 112 111 110
3 112 51 111
3 113 114 30
3 115 114 113
3 115 52 114
3 115 116 52
3 117 116 115
3 117 53 116
3 117 118 53
3 119 118 117
3 119 54 118
3 421 420 32
3 120 422 423
3 120 424 425
3 121 122 36
3 123 122 121
3 123 55 122
3 123 124 55
3 125 124 123
3 125 56 124
3 426 126 427
3 428 427 45
3 426 427 428
3 429 126 430
3 431 57 432
3 433 432 126
3 431 432 433
3 434 127 435
3 128 436 438
3 436 127 437
3 436 437 438
3 128 58 127
3 128 129 58
3 130 129 128
3 130 59 129
3 130 131 59
3 132 131 130
3 132 60 131
3 439 3 440
3 133 134 4
3 135 134 133
3 135 17 134
3 441 135 442
3 443 442 16
3 441 442 443
3 444 135 445
3 446 17 447
3 448 447 135
3 446 447 448
3 450 449 17
3 451 136 452
3 137 453 455
3 453 136 454
3 453 454 455
3 137 18 136
3 456 137 457
3 138 458 460
3 458 137 459
3 458 459 460
3 138 18 137
3 138 91 18
3 139 91 138
3 139 6 91
3 139 140 6
3 141 140 139
3 141 20 140
3 61 141 19
3 142 141 61
3 142 20 141
3 142 93 20
3 133 93 142
3 133 4 93
3 143 144 8
3 145 144 143
3 145 21 144
3 461 145 462
3 463 145 464
3 465 21 466
3 467 466 145
3 465 466 467
3 468 98 469
3 470 469 21
3 468 469 470
3 471 98 472
3 474 473 98
3 146 475 476
3 146 477 478
3 63 146 22
3 147 146 63
3 147 479 481
3 481 480 146
3 479 480 481
3 147 482 483
3 148 484 486
3 486 485 147
3 484 485 486
3 148 487 488
3 148 489 491
3 489 149 490
3 489 490 491
3 150 149 148
3 150 24 149
3 65 150 23
3 151 150 65
3 151 24 150
3 151 101 24
3 152 101 151
3 152 9 101
3 153 154 10
3 155 154 153
3 155 27 154
3 68 155 26
3 156 155 68
3 156 27 155
3 156 105 27
3 157 105 156
3 157 12 105
3 158 159 5
3 160 159 158
3 160 30 159
3 71 160 29
3 161 160 71
3 161 30 160
3 161 113 30
3 162 113 161
3 162 13 113
3 162 163 13
3 164 163 162
3 164 32 163
3 73 164 31
3 165 164 73
3 165 32 164
3 165 492 494
3 494 493 32
3 492 493 494
3 496 495 165
3 166 497 499
3 499 498 7
3 497 498 499
3 167 500 502
3 502 501 166
3 500 501 502
3 167 503 504
3 75 167 33
3 168 167 75
3 168 505 507
3 507 506 167
3 505 506 507
3 168 508 509
3 511 510 168
3 77 512 514
3 514 513 34
3 512 513 514
3 169 515 517
3 517 516 77
3 515 516 517
3 169 518 519
3 169 520 521
3 153 522 524
3 524 523 169
3 522 523 524
3 153 525 527
3 525 10 526
3 525 526 527
3 170 171 11
3 172 171 170
3 172 36 171
3 79 172 35
3 173 172 79
3 173 36 172
3 173 121 36
3 174 121 173
3 174 14 121
3 528 15 529
3 531 530 15
3 175 532 533
3 175 534 536
3 534 22 535
3 534 535 536
3 82 537 539
3 537 175 538
3 537 538 539
3 176 175 82
3 176 22 175
3 176 62 22
3 177 62 176
3 177 0 62
3 178 179 1
3 180 179 178
3 180 40 179
3 85 180 39
3 181 180 85
3 181 40 180
3 181 110 40
3 182 110 181
3 182 5 110
3 134 86 4
3 183 86 134
3 183 41 86
3 87 183 17
3 184 183 87
3 184 41 183
3 184 182 41
3 185 182 184
3 185 5 182
3 185 158 5
3 186 158 185
3 186 29 158
3 89 186 42
3 187 186 89
3 187 29 186
3 187 70 29
3 188 70 187
3 188 540 542
3 542 541 70
3 540 541 542
3 136 543 545
3 543 90 544
3 543 544 545
3 189 90 136
3 189 546 548
3 548 547 90
3 546 547 548
3 549 189 550
3 551 550 18
3 549 550 551
3 552 189 553
3 555 554 189
3 190 556 557
3 190 558 559
3 190 560 561
3 191 562 564
3 564 563 190
3 562 563 564
3 191 565 567
3 565 7 566
3 565 566 567
3 140 92 6
3 192 92 140
3 192 43 92
3 94 192 20
3 193 192 94
3 193 43 192
3 193 191 43
3 194 191 193
3 194 7 191
3 194 166 7
3 195 166 194
3 195 33 166
3 96 195 44
3 196 195 96
3 196 33 195
3 196 74 33
3 178 74 196
3 178 1 74
3 197 198 2
3 199 198 197
3 199 45 198
3 568 199 569
3 570 199 571
3 572 45 573
3 574 573 199
3 572 573 574
3 576 575 45
3 144 97 8
3 200 97 144
3 200 577 579
3 579 578 97
3 577 578 579
3 99 200 21
3 580 200 581
3 582 581 99
3 580 581 582
3 584 583 200
3 201 585 586
3 201 587 589
3 587 8 588
3 587 588 589
3 149 590 592
3 590 100 591
3 590 591 592
3 202 100 149
3 202 46 100
3 102 202 24
3 203 202 102
3 203 46 202
3 203 201 46
3 204 201 203
3 204 8 201
3 204 143 8
3 205 143 204
3 205 593 595
3 595 594 143
3 593 594 595
3 596 205 597
3 598 597 47
3 596 597 598
3 599 205 600
3 602 601 205
3 206 603 604
3 206 605 607
3 605 11 606
3 605 606 607
3 154 104 10
3 207 104 154
3 207 48 104
3 106 207 27
3 208 207 106
3 208 48 207
3 208 206 48
3 209 206 208
3 209 11 206
3 209 170 11
3 210 170 209
3 210 35 170
3 108 210 49
3 211 210 108
3 211 35 210
3 211 78 35
3 212 78 211
3 212 2 78
3 179 69 1
3 213 69 179
3 213 28 69
3 111 213 40
3 214 213 111
3 214 28 213
3 214 157 28
3 215 157 214
3 215 12 157
3 159 112 5
3 216 112 159
3 216 51 112
3 114 216 30
3 217 216 114
3 217 51 216
3 217 215 51
3 218 215 217
3 218 12 215
3 218 109 12
3 219 109 218
3 219 50 109
3 116 219 52
3 220 219 116
3 220 50 219
3 220 212 50
3 221 212 220
3 221 2 212
3 221 197 2
3 222 197 221
3 222 608 610
3 610 609 197
3 608 609 610
3 118 222 53
3 611 222 612
3 613 612 118
3 611 612 613
3 615 614 222
3 163 119 13
3 223 119 163
3 223 54 119
3 616 223 617
3 618 617 32
3 616 617 618
3 619 223 620
3 619 620 621
3 622 54 623
3 624 623 223
3 622 623 624
3 626 625 54
3 627 188 628
3 629 188 630
3 632 631 188
3 634 633 7
3 224 635 636
3 224 637 639
3 637 3 638
3 637 638 639
3 171 120 11
3 225 120 171
3 225 640 642
3 642 641 120
3 640 641 642
3 122 225 36
3 226 225 122
3 226 643 645
3 645 644 225
3 643 644 645
3 226 646 648
3 646 224 647
3 646 647 648
3 227 224 226
3 227 3 224
3 227 83 3
3 228 83 227
3 228 38 83
3 124 228 55
3 229 228 124
3 229 38 228
3 229 177 38
3 230 177 229
3 230 0 177
3 198 80 2
3 231 80 198
3 231 37 80
3 126 231 45
3 232 231 126
3 232 37 231
3 232 174 37
3 233 174 232
3 233 14 174
3 234 649 650
3 234 651 653
3 651 57 652
3 651 652 653
3 127 654 656
3 654 234 655
3 654 655 656
3 235 234 127
3 235 57 234
3 235 233 57
3 236 233 235
3 236 14 233
3 236 125 14
3 237 125 236
3 237 56 125
3 129 237 58
3 238 237 129
3 238 56 237
3 238 230 56
3 239 230 238
3 239 0 230
3 239 66 0
3 240 66 239
3 240 25 66
3 131 240 59
3 241 240 131
3 241 25 240
3 241 152 25
3 242 152 241
3 242 9 152
3 657 132 658
3 659 658 15
3 657 658 659
3 660 132 661
3 662 60 663
3 664 663 132
3 662 663 664
3 665 60 666
3 667 242 668
3 669 668 60
3 667 668 669
3 670 242 671
3 672 9 673
3 674 673 242
3 672 673 674
3 676 675 9
