ply
format ascii 1.0
element vertex 157
property float x
property float y
property float z
element face 119
property list uchar int vertex_index
end_header
4.910862 18.410606 -28.523306
8.852549 17.110886 -28.194517
-4.291563 26.80341 -20.059015
-3.007002 24.313438 -24.119432
-1.179867 22.074032 -26.988348
1.463388 20.089172 -28.380007
4.99799 22.607006 -29.340994
6.846203 17.70932 -28.35956
6.841379 21.823132 -29.12343
-3.694494 25.526493 -22.210989
-0.910376 26.485435 -28.432474
0.032307 21.047626 -27.86989
0.267511 25.435139 -29.128588
1.663643 24.42902 -29.458555
8.732624 21.143394 -28.954485
-4.837687 28.140205 -17.712248
-2.183035 23.163105 -25.728605
3.100674 19.206982 -28.568167
3.254593 23.481022 -29.493666
3.491817 27.58696 -30.41308
6.00619 24.222134 -29.651629
5.919684 22.215069 -29.232212
5.084496 24.614071 -29.76041
-0.766717 28.64042 -29.148773
-1.24131 29.191856 -28.699798
-0.177774 28.115272 -29.49683
-0.321433 25.960287 -28.780531
-0.766717 28.64042 -29.148773
0.40896 27.56642 -29.74646
-0.177774 28.115272 -29.49683
5.916005 15.954046 -28.098436
4.900104 16.265968 -28.142227
8.94767 15.04638 -27.866604
7.944497 15.345597 -27.949126
7.849376 17.410103 -28.277038
10.025081 14.843905 -27.829666
8.94767 15.04638 -27.866604
8.710575 23.073025 -29.377405
7.825257 23.447645 -29.448055
-5.097946 28.83145 -16.459112
-5.149275 26.107578 -16.735157
-4.238447 24.015845 -20.245107
-4.572134 24.70883 -19.122606
-3.216234 22.122494 -23.285017
-3.55998 22.729021 -22.330796
-3.350748 24.919965 -23.165211
-2.769532 21.521103 -24.156292
-3.216234 22.122494 -23.285017
-1.681451 22.618569 -26.358477
-2.026857 25.366358 -26.536316
-1.525273 24.821821 -27.166187
-1.322326 19.846773 -26.298345
-1.82391 20.391309 -25.668474
-1.681451 22.618569 -26.358477
-0.686381 19.338282 -26.824312
-1.322326 19.846773 -26.298345
1.380537 17.883747 -27.860948
0.664996 18.362974 -27.60589
0.747847 20.568399 -28.124949
2.231984 17.469476 -28.032457
1.380537 17.883747 -27.860948
2.282031 19.648077 -28.474087
3.050627 17.028382 -28.126537
2.231984 17.469476 -28.032457
2.594496 26.051068 -30.004559
2.459118 23.955021 -29.476111
1.799021 26.525067 -29.987003
2.713108 28.104036 -30.464265
3.373205 25.533991 -29.953373
2.594496 26.051068 -30.004559
-3.730612 28.264213 -22.115895
-3.993029 26.164952 -21.135002
-4.029146 28.902672 -21.039907
-3.47372 27.675884 -23.148119
-3.730612 28.264213 -22.115895
-3.129974 27.069357 -24.102341
-3.350748 24.919965 -23.165211
-3.47372 27.675884 -23.148119
-1.390528 27.027523 -27.88825
-1.24131 29.191856 -28.699798
-1.045122 24.279733 -27.710411
-1.525273 24.821821 -27.166187
-1.390528 27.027523 -27.88825
1.107026 27.063361 -29.911444
0.965577 24.93208 -29.293571
0.40896 27.56642 -29.74646
1.799021 26.525067 -29.987003
1.107026 27.063361 -29.911444
6.883675 15.603403 -28.016563
5.916005 15.954046 -28.098436
5.878533 18.059963 -28.441433
6.883675 15.603403 -28.016563
7.944497 15.345597 -27.949126
6.879635 23.787514 -29.532528
6.00619 24.222134 -29.651629
7.787001 21.483263 -29.038957
6.879635 23.787514 -29.532528
7.825257 23.447645 -29.448055
9.680715 20.859848 -28.934652
8.710575 23.073025 -29.377405
9.805165 18.882046 -28.540231
9.680715 20.859848 -28.934652
9.865128 16.865792 -28.160248
8.792586 19.12714 -28.574501
9.805165 18.882046 -28.540231
10.025081 14.843905 -27.829666
9.865128 16.865792 -28.160248
-4.845196 25.377228 -17.949222
-5.149275 26.107578 -16.735157
-4.564625 27.471808 -18.885631
-4.572134 24.70883 -19.122606
-4.845196 25.377228 -17.949222
-4.751062 30.803974 -17.504003
-5.097946 28.83145 -16.459112
-4.531748 30.17847 -18.727619
-4.751062 30.803974 -17.504003
-4.258686 29.510073 -19.901002
-4.564625 27.471808 -18.885631
-4.531748 30.17847 -18.727619
-4.029146 28.902672 -21.039907
-4.258686 29.510073 -19.901002
-3.939913 23.377386 -21.321095
-4.238447 24.015845 -20.245107
-3.993029 26.164952 -21.135002
-3.939913 23.377386 -21.321095
-3.55998 22.729021 -22.330796
-2.822286 26.498053 -24.999464
-3.129974 27.069357 -24.102341
-2.410303 25.922886 -25.804051
-2.026857 25.366358 -26.536316
-2.595019 23.738272 -24.924019
-2.822286 26.498053 -24.999464
-2.410303 25.922886 -25.804051
-2.357548 20.945936 -24.960878
-2.769532 21.521103 -24.156292
-2.595019 23.738272 -24.924019
-2.357548 20.945936 -24.960878
-1.82391 20.391309 -25.668474
-0.080294 18.825079 -27.265083
-0.686381 19.338282 -26.824312
-0.57378 21.560829 -27.429119
-0.080294 18.825079 -27.265083
0.664996 18.362974 -27.60589
3.99501 16.664156 -28.164657
3.050627 17.028382 -28.126537
4.005768 18.808794 -28.545737
4.900104 16.265968 -28.142227
3.99501 16.664156 -28.164657
4.331409 27.104048 -30.296453
5.084496 24.614071 -29.76041
4.244903 25.096983 -29.877037
2.902338 30.078074 -30.954128
2.713108 28.104036 -30.464265
3.664416 29.503733 -30.849685
2.902338 30.078074 -30.954128
4.331409 27.104048 -30.296453
3.664416 29.503733 -30.849685
3 20 8 21
3 22 21 6
3 20 21 22
3 23 10 24
3 25 12 26
3 27 26 10
3 25 26 27
3 29 28 12
3 0 30 31
3 1 32 34
3 34 33 7
3 32 33 34
3 1 35 36
3 37 14 38
3 39 15 40
3 2 41 42
3 3 43 45
3 45 44 9
3 43 44 45
3 3 46 47
3 4 48 50
3 48 16 49
3 48 49 50
3 4 51 53
3 53 52 16
3 51 52 53
3 4 54 55
3 5 56 58
3 58 57 11
3 56 57 58
3 5 59 60
3 5 61 63
3 61 17 62
3 61 62 63
3 64 18 65
3 66 65 13
3 64 65 66
3 67 19 68
3 69 68 18
3 67 68 69
3 6 7 0
3 8 7 6
3 8 1 7
3 70 9 71
3 72 71 2
3 70 71 72
3 73 9 74
3 75 3 76
3 77 76 9
3 75 76 77
3 10 78 79
3 10 80 82
3 80 4 81
3 80 81 82
3 10 11 4
3 12 11 10
3 12 5 11
3 12 13 5
3 83 13 84
3 85 84 12
3 83 84 85
3 87 86 13
3 7 88 90
3 90 89 0
3 88 89 90
3 92 91 7
3 93 8 94
3 14 95 97
3 95 8 96
3 95 96 97
3 14 1 8
3 98 14 99
3 100 14 101
3 102 1 103
3 104 103 14
3 102 103 104
3 106 105 1
3 15 107 108
3 15 109 111
3 109 2 110
3 109 110 111
3 112 15 113
3 114 15 115
3 116 2 117
3 118 117 15
3 116 117 118
3 120 119 2
3 9 121 123
3 123 122 2
3 121 122 123
3 125 124 9
3 126 3 127
3 16 128 129
3 16 130 132
3 130 3 131
3 130 131 132
3 16 133 135
3 135 134 3
3 133 134 135
3 137 136 16
3 11 138 140
3 140 139 4
3 138 139 140
3 142 141 11
3 17 143 144
3 17 145 147
3 145 0 146
3 145 146 147
3 13 17 5
3 18 17 13
3 18 0 17
3 18 6 0
3 19 6 18
3 19 148 150
3 150 149 6
3 148 149 150
3 151 19 152
3 153 19 154
3 156 155 19
