ply
format ascii 1.0
element vertex 438
property float x
property float y
property float z
element face 370
property list uchar int vertex_index
end_header
-3.417261 -25.581194 40.935364
-3.710997 -39.185684 33.964436
5.887709 -56.510582 2.250235
10.740429 -56.459698 -2.904028
12.899403 -57.651875 -5.500502
11.504934 -52.823639 -4.218313
-3.96501 -16.950161 40.509941
4.319586 -58.736343 5.363585
13.799772 -58.257832 -8.07918
-4.411882 -23.799725 37.438225
-3.700369 -32.270897 37.673256
-2.885695 -40.126194 37.686981
-2.776777 -46.66972 33.712372
-2.516085 -53.107666 29.413691
-1.776377 -59.05938 25.085653
-1.818979 -58.3587 20.905294
-1.642012 -57.312771 16.778313
7.543495 -54.177197 -0.309404
9.795219 -54.097164 -2.477957
11.10635 -54.691467 -3.676815
-1.850447 -44.210556 39.484344
13.214285 -55.413311 -6.262758
13.498686 -58.008335 -6.798725
13.895266 -55.615704 -7.595232
-3.102934 -29.737568 41.073292
-4.162298 -35.17878 34.025295
-4.132254 -31.618135 35.858734
-3.72658 -35.713852 35.874298
-3.315752 -36.286182 37.703545
-3.305017 -39.642006 35.834038
-2.847666 -43.390694 35.752083
-3.255217 -43.018089 33.852608
-3.043707 -49.676773 29.603598
-2.821379 -52.868732 27.385078
-2.242239 -56.169052 27.227833
-2.441889 -55.907043 25.161243
-1.827829 -58.751198 22.98954
-2.594572 -55.56493 23.09882
7.374716 -59.555229 2.186047
8.028233 -58.255756 0.753713
8.65485 -56.888252 -0.525295
6.708836 -55.334297 0.892603
11.971775 -57.151608 -4.197304
12.273933 -55.113293 -4.948732
12.721933 -53.056622 -5.507378
-3.700991 -21.305866 40.751724
-4.158987 -38.743027 32.081696
-3.66271 -42.64967 31.944872
5.088911 -57.656399 3.745294
13.334946 -60.431179 -5.823385
-4.523222 -15.910081 38.734341
-4.229055 -20.315002 39.013973
-3.925852 -24.653433 39.217365
-4.060537 -28.099115 37.587822
-3.607798 -28.886158 39.360458
-3.260542 -32.978535 39.452473
-2.863733 -36.90448 39.498852
-2.397287 -40.649281 39.505714
-2.391459 -43.783535 37.635433
-2.338148 -46.958347 35.648415
-2.261221 -50.142929 33.573341
-3.173906 -46.377548 31.769855
-2.67544 -49.924328 31.589493
-2.153051 -53.294292 31.443256
-1.971064 -56.360851 29.299465
-0.904591 -61.373531 20.925377
-0.708143 -60.929752 18.828396
-1.759336 -57.879616 18.833906
-0.453653 -60.407097 16.755156
-0.136921 -59.804134 14.711788
0.254677 -59.118122 12.708153
0.73568 -58.346729 10.758186
1.31666 -57.490803 8.878752
2.00112 -56.557301 7.087353
2.785641 -55.56168 5.399714
3.662315 -54.529205 3.828325
8.365395 -53.110451 -1.325375
9.252663 -55.494312 -1.619255
9.999978 -53.32069 -2.753169
9.432215 -53.186426 -2.272798
-1.825767 -42.714432 40.374055
-1.530876 -44.446407 40.380116
-1.506197 -42.950283 41.269827
13.824506 -54.42054 -7.223925
13.554775 -55.514508 -6.928995
13.484015 -54.319344 -6.557688
14.232749 -54.47198 -7.914008
13.824506 -54.42054 -7.223925
-3.113187 -26.077557 41.749584
-3.258812 -23.976011 41.668518
-3.260097 -27.659381 41.004328
-2.956024 -28.155744 41.818549
-3.113187 -26.077557 41.749584
-2.959301 -52.715826 26.369993
-3.110512 -51.125696 27.499174
-2.769556 -54.234982 25.258075
-2.631634 -54.387888 26.27316
-2.959301 -52.715826 26.369993
-2.845897 -54.063925 24.226864
-2.518231 -55.735986 24.130032
-2.769556 -54.234982 25.258075
11.356102 -56.805653 -3.550666
11.858773 -58.137877 -3.714084
11.243099 -57.791922 -3.067446
-3.66317 -17.512353 41.353946
-3.781296 -15.337477 41.222078
-3.833 -19.128014 40.630832
-3.531161 -19.690206 41.474838
-3.66317 -17.512353 41.353946
-4.421047 -38.520424 31.128684
-4.416368 -36.705601 32.117991
-4.13613 -40.505703 31.053172
-4.421047 -38.520424 31.128684
5.50649 -59.74426 4.556717
5.154528 -60.280766 5.396344
4.704249 -58.196371 4.554439
5.891153 -59.204289 3.747571
5.50649 -59.74426 4.556717
13.117175 -59.041527 -5.661943
13.040666 -60.151027 -5.183321
12.822895 -58.761375 -5.021879
13.669299 -59.552227 -7.570552
13.518756 -59.427479 -6.930325
13.649229 -58.133083 -7.438952
13.624549 -59.708242 -8.167739
13.669299 -59.552227 -7.570552
13.845054 -58.346747 -8.707489
13.624549 -59.708242 -8.167739
-4.81456 -15.438225 37.810866
-4.664793 -13.694034 38.544901
-4.320469 -22.057364 38.226099
-4.49505 -19.861963 38.112573
-4.586464 -21.604324 37.3247
-3.37204 -46.220565 30.795806
-3.418308 -44.513609 31.857363
-3.616442 -44.356627 30.883315
-1.70952 -59.173575 26.138999
-1.942451 -57.72841 27.210089
-2.009308 -57.614216 26.156743
-1.427574 -60.541804 25.130462
-1.70952 -59.173575 26.138999
-1.40555 -60.398898 24.063907
-1.427574 -60.541804 25.130462
-1.700674 -57.596193 17.806109
-2.27315 -56.248452 18.906486
-2.214488 -55.965029 17.87869
-0.445652 -57.517832 12.728966
-0.595919 -57.888088 13.72702
-0.20515 -57.132136 11.753982
0.495178 -58.732426 11.733169
-0.445652 -57.517832 12.728966
0.589444 -55.850769 8.910346
0.300629 -56.294161 9.843502
0.931674 -55.384018 8.014647
1.65889 -57.024052 7.983053
0.589444 -55.850769 8.910346
2.130869 -53.945099 5.453465
1.689612 -54.419834 6.284903
2.569206 -53.428861 4.66777
3.223978 -55.045443 4.61402
2.130869 -53.945099 5.453465
10.655544 -53.617841 -3.352598
10.450785 -54.394316 -3.077386
9.999978 -53.32069 -2.753169
10.854836 -52.683927 -3.623347
11.305642 -53.757553 -3.947564
10.655544 -53.617841 -3.352598
-1.540625 -45.903925 39.469341
-1.530876 -44.446407 40.380116
-1.838411 -45.736202 38.526117
-1.540625 -45.903925 39.469341
-4.088768 -14.751937 40.349636
-3.781296 -15.337477 41.222078
3.95439 -59.232149 6.227813
5.154528 -60.280766 5.396344
14.119893 -55.679331 -8.263197
14.072147 -57.000395 -8.505171
13.847519 -56.936768 -7.837206
14.119893 -55.679331 -8.263197
14.232749 -54.47198 -7.914008
-2.789286 -30.191935 41.883757
-2.956024 -28.155744 41.818549
-2.921793 -31.739918 41.122347
-2.789286 -30.191935 41.883757
-4.679115 -23.411065 36.52496
-4.586464 -21.604324 37.3247
-4.147276 -33.398457 34.942014
-4.377203 -31.315734 34.938202
-4.392225 -33.096056 34.021483
-3.221676 -49.529716 28.608434
-3.30694 -47.870178 29.712678
-2.932543 -51.272752 28.494338
-3.221676 -49.529716 28.608434
-3.110512 -51.125696 27.499174
-2.217089 -55.65988 16.85154
-2.214488 -55.965029 17.87869
-1.544264 -56.985412 15.7621
-2.217089 -55.65988 16.85154
8.433135 -60.401806 1.444009
8.169108 -61.07909 2.204673
8.759894 -59.752069 0.727842
8.433135 -60.401806 1.444009
7.701474 -58.905492 1.46988
8.989893 -59.003439 0.037078
8.759894 -59.752069 0.727842
8.341541 -57.572004 0.114209
9.303202 -58.319687 -0.602426
8.989893 -59.003439 0.037078
12.35908 -58.511242 -4.37028
11.858773 -58.137877 -3.714084
12.435589 -57.401741 -4.848903
12.822895 -58.761375 -5.021879
12.35908 -58.511242 -4.37028
13.237839 -53.140999 -6.179998
13.484015 -54.319344 -6.557688
12.968109 -54.234966 -5.885068
-3.400677 -21.838347 41.576698
-3.230847 -20.222686 42.299812
-3.531161 -19.690206 41.474838
-3.559126 -23.44353 40.843544
-3.258812 -23.976011 41.668518
-3.400677 -21.838347 41.576698
-4.418024 -34.923478 33.08979
-4.392225 -33.096056 34.021483
-4.160642 -36.960904 33.053495
-4.418024 -34.923478 33.08979
-4.416368 -36.705601 32.117991
-3.887991 -42.459024 30.98476
-3.910849 -40.696348 32.013284
-4.13613 -40.505703 31.053172
-3.616442 -44.356627 30.883315
-3.887991 -42.459024 30.98476
7.034055 -60.153703 2.967948
8.169108 -61.07909 2.204673
6.231814 -58.605814 2.96567
7.034055 -60.153703 2.967948
5.891153 -59.204289 3.747571
13.333037 -61.616478 -5.247433
13.040666 -60.151027 -5.183321
13.420092 -61.926956 -5.853404
13.333037 -61.616478 -5.247433
13.436886 -60.638901 -6.442654
13.416816 -59.219757 -6.311055
13.518756 -59.427479 -6.930325
13.420092 -61.926956 -5.853404
13.436886 -60.638901 -6.442654
13.845054 -58.346747 -8.707489
14.072147 -57.000395 -8.505171
-4.367874 -14.231897 39.461836
-4.664793 -13.694034 38.544901
-4.244116 -16.430121 39.622141
-4.088768 -14.751937 40.349636
-4.367874 -14.231897 39.461836
-4.642133 -17.659502 37.972758
-4.81456 -15.438225 37.810866
-4.376138 -18.112541 38.874157
-4.642133 -17.659502 37.972758
-4.49505 -19.861963 38.112573
-4.474428 -25.588459 36.606898
-4.679115 -23.411065 36.52496
-4.334614 -29.497664 35.817152
-4.377203 -31.315734 34.938202
-4.298756 -27.738154 36.681696
-4.334614 -29.497664 35.817152
-4.096395 -29.858625 36.723278
-4.23621 -25.94942 37.513024
-4.474428 -25.588459 36.606898
-4.298756 -27.738154 36.681696
-3.000597 -33.360402 40.311937
-2.921793 -31.739918 41.122347
-3.181738 -31.358052 40.262883
-2.802192 -35.323374 40.335127
-3.000597 -33.360402 40.311937
-3.062137 -34.941508 39.475662
-2.587463 -37.238523 40.365934
-2.802192 -35.323374 40.335127
-2.35424 -39.110924 40.369366
-2.587463 -37.238523 40.365934
-2.63051 -38.776881 39.502283
-2.099188 -40.933794 40.38474
-2.35424 -39.110924 40.369366
-2.123867 -42.429918 39.495029
-1.825767 -42.714432 40.374055
-2.099188 -40.933794 40.38474
-2.108918 -45.522692 37.601661
-1.838411 -45.736202 38.526117
-2.120953 -43.997045 38.559888
-2.082262 -47.110098 36.608153
-2.108918 -45.522692 37.601661
-2.364803 -45.370941 36.641924
-2.055842 -48.655412 35.599614
-2.082262 -47.110098 36.608153
-2.017378 -50.247704 34.562077
-2.055842 -48.655412 35.599614
-2.299684 -48.550638 34.610878
-1.984278 -51.794962 33.522686
-2.017378 -50.247704 34.562077
-3.108807 -48.02716 30.686726
-3.37204 -46.220565 30.795806
-3.30694 -47.870178 29.712678
-1.930193 -53.370643 32.457644
-1.984278 -51.794962 33.522686
-2.207136 -51.71861 32.508299
-1.878694 -54.895544 31.408877
-1.930193 -53.370643 32.457644
-1.787701 -56.428824 30.336982
-1.878694 -54.895544 31.408877
-2.062057 -54.827571 30.371361
-1.686813 -57.902878 29.303179
-1.787701 -56.428824 30.336982
-1.806864 -57.82431 28.245905
-2.106651 -56.264951 28.263649
-1.942451 -57.72841 27.210089
-1.686813 -57.902878 29.303179
-1.806864 -57.82431 28.245905
-1.431276 -60.244807 23.01585
-1.40555 -60.398898 24.063907
-1.802103 -58.905289 24.037596
-0.969657 -61.555973 21.983769
-1.431276 -60.244807 23.01585
-1.36621 -60.062365 21.957459
-0.426441 -62.778753 21.03208
-0.969657 -61.555973 21.983769
-0.262409 -62.570364 19.965944
0.215742 -63.975586 20.072648
-0.426441 -62.778753 21.03208
-0.164184 -62.348475 18.917454
-0.262409 -62.570364 19.965944
-0.806367 -61.151641 19.876887
0.031656 -62.10753 17.864682
-0.164184 -62.348475 18.917454
-2.977138 -53.87204 23.208291
-2.845897 -54.063925 24.226864
-2.653389 -55.350601 22.068594
-2.977138 -53.87204 23.208291
-2.265592 -56.747486 20.971831
-2.206776 -56.961815 22.002057
-2.653389 -55.350601 22.068594
-2.235771 -56.507944 19.936137
-2.27315 -56.248452 18.906486
-1.789157 -58.119158 19.8696
-2.265592 -56.747486 20.971831
-2.235771 -56.507944 19.936137
0.158901 -61.846203 16.828062
0.031656 -62.10753 17.864682
-0.580898 -60.668425 17.791776
0.382621 -61.572113 15.792116
0.158901 -61.846203 16.828062
0.540987 -61.270632 14.770433
0.382621 -61.572113 15.792116
-0.295287 -60.105615 15.733472
0.792646 -60.960459 13.755801
0.540987 -61.270632 14.770433
-0.791718 -58.231094 14.728838
-0.889467 -58.558453 15.745051
-1.544264 -56.985412 15.7621
0.058878 -59.461128 13.709971
-0.791718 -58.231094 14.728838
-0.595919 -57.888088 13.72702
0.988445 -60.617452 12.753984
0.792646 -60.960459 13.755801
0.058878 -59.461128 13.709971
1.269729 -60.266437 11.7664
0.988445 -60.617452 12.753984
1.510231 -59.880741 10.791417
1.269729 -60.266437 11.7664
0.495178 -58.732426 11.733169
1.821943 -59.48377 9.837685
1.510231 -59.880741 10.791417
0.01014 -56.722124 10.783219
-0.20515 -57.132136 11.753982
1.02617 -57.918766 9.818469
0.01014 -56.722124 10.783219
0.300629 -56.294161 9.843502
2.112433 -59.055807 8.897968
1.821943 -59.48377 9.837685
1.02617 -57.918766 9.818469
2.452926 -58.609379 7.985397
2.112433 -59.055807 8.897968
2.795157 -58.142628 7.089697
2.452926 -58.609379 7.985397
1.65889 -57.024052 7.983053
3.160353 -57.646822 6.225469
3.95439 -59.232149 6.227813
2.795157 -58.142628 7.089697
1.297352 -54.917645 7.128722
0.931674 -55.384018 8.014647
2.393381 -56.059491 6.243533
1.297352 -54.917645 7.128722
1.689612 -54.419834 6.284903
3.081676 -52.964264 3.89484
2.569206 -53.428861 4.66777
4.141928 -54.012344 3.105319
3.081676 -52.964264 3.89484
5.254625 -55.003033 2.316274
4.775012 -55.519893 3.03928
4.141928 -54.012344 3.105319
5.665188 -54.41489 1.637458
6.298272 -55.922439 1.571419
5.254625 -55.003033 2.316274
6.180902 -53.920921 0.980344
5.665188 -54.41489 1.637458
6.598231 -53.342371 0.37934
7.126165 -54.755747 0.2916
6.180902 -53.920921 0.980344
7.143729 -52.903107 -0.210257
6.598231 -53.342371 0.37934
7.554679 -52.369734 -0.718242
7.954445 -53.643824 -0.817389
7.143729 -52.903107 -0.210257
8.124465 -52.034817 -1.245074
7.554679 -52.369734 -0.718242
8.717302 -52.69307 -1.696506
8.124465 -52.034817 -1.245074
10.550778 -57.30224 -2.398725
11.243099 -57.791922 -3.067446
9.507989 -57.516517 -1.209358
9.303202 -58.319687 -0.602426
9.806895 -56.819547 -1.756338
9.507989 -57.516517 -1.209358
8.953757 -56.191282 -1.072275
9.996546 -55.977005 -2.261642
10.550778 -57.30224 -2.398725
9.806895 -56.819547 -1.756338
8.717302 -52.69307 -1.696506
9.432215 -53.186426 -2.272798
9.080307 -53.603808 -1.901666
11.03951 -51.786808 -3.782664
10.854836 -52.683927 -3.623347
11.763822 -51.861489 -4.408938
11.03951 -51.786808 -3.782664
12.372321 -51.97798 -5.05347
12.113433 -52.94013 -4.862846
11.763822 -51.861489 -4.408938
13.046479 -52.051029 -5.71845
12.372321 -51.97798 -5.05347
13.237839 -53.140999 -6.179998
13.046479 -52.051029 -5.71845
3 79 78 18
3 80 20 81
3 80 81 82
3 83 23 84
3 85 84 21
3 83 84 85
3 87 86 23
3 0 88 89
3 0 90 92
3 90 24 91
3 90 91 92
3 1 27 25
3 1 29 27
3 1 31 29
3 93 33 94
3 95 35 96
3 97 96 33
3 95 96 97
3 98 37 99
3 100 99 35
3 98 99 100
3 2 39 38
3 2 41 39
3 3 101 103
3 101 42 102
3 101 102 103
3 5 43 19
3 5 44 43
3 6 104 105
3 6 106 108
3 106 45 107
3 106 107 108
3 109 46 110
3 112 111 46
3 7 113 114
3 7 115 117
3 115 48 116
3 115 116 117
3 4 118 120
3 118 49 119
3 118 119 120
3 8 121 123
3 123 122 22
3 121 122 123
3 8 124 125
3 8 126 127
3 128 50 129
3 9 130 132
3 130 51 131
3 130 131 132
3 9 52 51
3 10 53 26
3 10 54 53
3 10 55 54
3 11 56 28
3 11 57 56
3 11 58 57
3 12 59 30
3 12 60 59
3 133 61 134
3 135 134 47
3 133 134 135
3 13 62 32
3 13 63 62
3 13 64 63
3 14 136 138
3 138 137 34
3 136 137 138
3 14 139 140
3 14 141 142
3 15 65 36
3 15 66 65
3 16 143 145
3 143 67 144
3 143 144 145
3 16 68 67
3 16 69 68
3 146 70 147
3 148 71 149
3 150 149 70
3 148 149 150
3 151 72 152
3 153 73 154
3 155 154 72
3 153 154 155
3 156 74 157
3 158 75 159
3 160 159 74
3 158 159 160
3 17 77 40
3 17 76 77
3 18 19 3
3 161 19 162
3 163 162 18
3 161 162 163
3 164 5 165
3 166 165 19
3 164 165 166
3 20 167 168
3 20 169 170
3 171 6 172
3 173 7 174
3 21 22 4
3 23 22 21
3 23 8 22
3 23 175 177
3 177 176 8
3 175 176 177
3 179 178 23
3 24 180 181
3 24 182 183
3 184 9 185
3 25 186 188
3 186 26 187
3 186 187 188
3 27 26 25
3 27 10 26
3 27 28 10
3 29 28 27
3 29 11 28
3 29 30 11
3 31 30 29
3 31 12 30
3 189 32 190
3 33 191 193
3 191 32 192
3 191 192 193
3 33 13 32
3 33 34 13
3 35 34 33
3 35 14 34
3 35 36 14
3 37 36 35
3 37 15 36
3 194 16 195
3 197 196 16
3 38 198 199
3 39 200 202
3 202 201 38
3 200 201 202
3 39 203 204
3 39 205 207
3 205 40 206
3 205 206 207
3 41 40 39
3 41 17 40
3 42 208 209
3 42 210 212
3 210 4 211
3 210 211 212
3 19 42 3
3 43 42 19
3 43 4 42
3 43 21 4
3 44 21 43
3 44 213 215
3 215 214 21
3 213 214 215
3 45 216 218
3 216 217 218
3 45 219 221
3 219 0 220
3 219 220 221
3 222 25 223
3 46 224 226
3 224 25 225
3 224 225 226
3 46 1 25
3 46 47 1
3 227 47 228
3 229 228 46
3 227 228 229
3 231 230 47
3 232 38 233
3 48 234 236
3 234 38 235
3 234 235 236
3 48 2 38
3 49 237 238
3 49 239 240
3 22 49 4
3 241 49 242
3 243 242 22
3 241 242 243
3 245 244 49
3 247 246 8
3 50 248 249
3 50 250 252
3 250 6 251
3 250 251 252
3 253 50 254
3 51 255 257
3 255 50 256
3 255 256 257
3 51 6 50
3 51 45 6
3 52 45 51
3 52 0 45
3 258 9 259
3 26 260 261
3 53 262 264
3 264 263 26
3 262 263 264
3 53 265 267
3 265 9 266
3 265 266 267
3 53 52 9
3 54 52 53
3 54 0 52
3 54 24 0
3 55 24 54
3 55 268 270
3 270 269 24
3 268 269 270
3 28 55 10
3 56 55 28
3 56 271 273
3 273 272 55
3 271 272 273
3 56 274 275
3 57 276 278
3 278 277 56
3 276 277 278
3 57 279 280
3 57 281 283
3 281 20 282
3 281 282 283
3 58 20 57
3 58 284 286
3 286 285 20
3 284 285 286
3 30 58 11
3 59 58 30
3 59 287 289
3 289 288 58
3 287 288 289
3 59 290 291
3 60 292 294
3 294 293 59
3 292 293 294
3 60 295 296
3 47 31 1
3 61 31 47
3 61 12 31
3 32 297 299
3 297 61 298
3 297 298 299
3 62 61 32
3 62 12 61
3 62 60 12
3 63 60 62
3 63 300 302
3 302 301 60
3 300 301 302
3 63 303 304
3 64 305 307
3 307 306 63
3 305 306 307
3 64 308 309
3 34 64 13
3 310 64 311
3 312 311 34
3 310 311 312
3 314 313 64
3 36 315 317
3 317 316 14
3 315 316 317
3 65 318 320
3 320 319 36
3 318 319 320
3 65 321 322
3 65 323 325
3 323 324 325
3 66 326 328
3 328 327 65
3 326 327 328
3 66 329 330
3 331 37 332
3 333 37 334
3 335 15 336
3 337 336 37
3 335 336 337
3 67 338 339
3 67 340 342
3 340 15 341
3 340 341 342
3 67 66 15
3 68 66 67
3 68 343 345
3 345 344 66
3 343 344 345
3 68 346 347
3 69 348 350
3 350 349 68
3 348 349 350
3 69 351 352
3 353 69 354
3 355 354 16
3 353 354 355
3 70 356 358
3 356 69 357
3 356 357 358
3 70 359 361
3 361 360 69
3 359 360 361
3 70 362 363
3 71 364 366
3 366 365 70
3 364 365 366
3 71 367 368
3 369 71 370
3 72 371 373
3 371 71 372
3 371 372 373
3 72 374 376
3 376 375 71
3 374 375 376
3 72 377 378
3 73 379 381
3 381 380 72
3 379 380 381
3 73 382 384
3 382 7 383
3 382 383 384
3 385 73 386
3 74 387 389
3 387 73 388
3 387 388 389
3 74 7 73
3 74 48 7
3 75 48 74
3 75 2 48
3 390 75 391
3 392 75 393
3 394 2 395
3 396 395 75
3 394 395 396
3 397 41 398
3 399 398 2
3 397 398 399
3 400 41 401
3 402 17 403
3 404 403 41
3 402 403 404
3 405 17 406
3 407 76 408
3 409 408 17
3 407 408 409
3 410 76 411
3 413 412 76
3 414 3 415
3 40 416 417
3 77 418 420
3 420 419 40
3 418 419 420
3 77 421 423
3 421 3 422
3 421 422 423
3 77 18 3
3 76 18 77
3 76 424 426
3 426 425 18
3 424 425 426
3 427 5 428
3 429 5 430
3 431 44 432
3 433 432 5
3 431 432 433
3 434 44 435
3 437 436 44
