ply
format ascii 1.0
element vertex 619
property float x
property float y
property float z
element face 728
property list uchar int vertex_index
end_header
-1.269779 -119.455109 -3.612608
-9.238657 -79.194824 -4.195185
-5.426655 -97.988327 5.072063
-6.040543 -122.448044 13.817093
-0.605923 -109.002121 2.118323
-1.732515 -102.337601 -2.612814
-1.128853 -112.538086 -8.877348
-7.077288 -126.060013 -9.699503
-15.789948 -121.723206 -19.896633
-11.5261 -87.532394 5.66717
-1.904495 -100.291794 11.831027
1.287533 -112.346069 9.740324
0.000381 -114.857574 19.251377
-1.681715 -122.978607 4.881916
-9.641903 -127.439819 -0.296653
-7.868162 -91.44458 -0.020724
-3.603846 -90.380127 -5.833607
-0.236984 -114.483932 -0.537788
-0.551962 -111.64299 -3.441158
-1.244701 -116.521637 -6.759668
-11.625851 -126.930634 -11.931301
-10.916727 -124.833389 -15.677078
-16.222326 -124.567154 -17.232029
-0.678278 -101.591949 16.15798
0.438597 -106.217926 11.139754
1.142765 -107.666489 15.703194
-0.244686 -119.219437 12.249696
-3.236179 -123.370926 9.52528
-5.147615 -126.222824 2.090267
-7.38973 -125.646332 6.793852
-8.859602 -92.719269 5.470083
-10.330582 -90.133606 2.756076
-6.844727 -95.51944 2.372836
-2.35202 -96.928329 -4.255203
-4.440205 -88.507919 -9.014091
-11.360451 -80.205429 -1.616863
-2.420549 -103.420944 4.031309
-3.521292 -100.905518 1.392601
-1.306992 -106.329819 -0.575954
-0.666899 -107.635834 -5.447685
-3.582781 -123.457214 -6.78026
-3.272011 -120.57991 -10.092014
-6.531103 -123.449493 -13.157867
-10.461893 -121.49762 -17.98275
-9.853828 -88.981537 8.70483
-7.0007 -94.016159 8.554932
-3.661013 -99.310059 8.175034
-0.960796 -104.955597 7.24403
0.422436 -110.832535 5.57383
0.303291 -116.557159 3.211085
1.294823 -113.753754 14.422335
0.529457 -118.148346 7.579461
-1.226929 -121.597137 0.374807
-4.024357 -125.397995 -2.595488
-7.959574 -127.478043 -5.24765
-12.372656 -125.788925 4.532166
-12.614647 -84.733017 3.132225
-11.184721 -85.894073 0.401966
-8.634447 -85.854462 -2.186581
-4.306929 -96.910889 -0.830265
-5.13043 -91.427078 -2.828154
-6.265274 -84.812012 -4.788145
-5.538982 -83.069984 -7.575583
-0.585835 -117.061951 -2.044121
-0.689041 -115.727112 -3.679098
-1.282682 -118.100571 -5.307966
-13.800889 -125.973328 -14.795216
-10.343712 -76.389252 -3.834414
-8.298828 -78.416031 -5.478315
0.420715 -104.59549 16.013857
-4.051567 -121.182724 15.325992
-2.656389 -121.501587 13.18915
-4.493393 -123.093277 11.74914
-5.18672 -124.768066 8.126537
-6.60046 -124.191452 10.323257
-7.158703 -95.339478 5.324802
-7.961416 -94.278381 3.921852
-6.189056 -96.938705 3.679315
-12.198822 -80.377754 -0.278955
-1.338346 -106.203156 3.183363
-1.843071 -105.062485 1.783187
-1.007866 -107.807266 0.678581
-0.713734 -112.315979 -6.221481
-0.609732 -109.804459 -4.549461
-0.714663 -110.157593 -7.128193
-0.801683 -107.668808 -7.825901
-1.179642 -110.076691 -9.566843
-5.188053 -124.957626 -8.296122
-4.964037 -123.694489 -10.119957
-6.785734 -124.890411 -11.575005
-13.212883 -123.50856 -18.026272
-10.65661 -123.308945 -17.015499
-13.017134 -121.800568 -19.050182
-12.911697 -119.806564 -19.69836
-15.683014 -119.835327 -20.618565
-8.954758 -89.418671 10.396812
-8.565636 -91.474319 8.640226
-7.62048 -91.887527 10.335251
-2.681099 -98.029099 14.009546
-3.463892 -97.498474 11.991541
-4.361309 -97.057144 10.132036
-2.749542 -99.79277 9.923992
-2.175667 -102.089615 7.795613
-1.333956 -102.638763 9.592399
1.066576 -109.285004 10.538335
0.547245 -108.587814 8.434166
0.920073 -111.605682 7.576805
0.548342 -113.745361 4.468337
0.900688 -114.570023 6.537403
0.565845 -112.144012 20.118444
1.172104 -111.47493 17.640472
0.821215 -114.369003 16.84885
-0.831512 -121.225586 8.597958
0.300217 -118.76387 9.900546
-0.407196 -120.725677 6.273749
-0.254721 -120.040451 4.003826
-1.347704 -122.392654 2.585512
-2.474993 -123.685379 -1.119631
-2.756922 -124.390671 1.1346
-7.284554 -127.101212 0.818455
-6.446766 -127.069672 -1.617998
-8.675562 -127.655838 -2.796795
-10.291332 -127.76973 -6.304916
-11.108961 -127.708252 -3.77552
-12.218239 -84.994217 5.80012
-12.713305 -83.749237 4.548402
-12.174841 -86.332794 4.334029
-9.213541 -90.964828 1.359988
-10.842375 -88.219604 1.534545
-9.655745 -88.681824 0.193423
-9.982601 -86.019516 -0.903833
-8.274466 -88.815475 -1.126863
-2.559055 -101.813522 -0.573772
-3.934311 -99.105591 0.240418
-2.847492 -99.629929 -1.58005
-2.884684 -93.77182 -5.033831
-3.5819 -94.187027 -3.409451
-4.124714 -91.012726 -4.300085
-5.653818 -88.232971 -3.803995
-4.810621 -87.606384 -5.210869
-5.625217 -84.01683 -6.155489
-4.500536 -86.800018 -6.677965
-4.555338 -120.421799 -12.932932
-3.109119 -118.776291 -11.341089
-0.239525 -111.77887 0.86441
-0.538713 -110.529388 -0.633341
-0.435999 -113.185867 -2.104019
-0.724104 -114.160461 -5.074957
-1.175169 -114.679321 -7.949247
-9.232843 -126.726273 -10.931122
-8.883163 -125.684998 -12.878119
-11.233387 -126.050797 -13.970858
-13.474566 -124.909714 -16.60363
-15.974969 -123.311111 -18.772167
-1.194145 -100.879425 13.90885
-0.571436 -103.205811 11.560463
0.035469 -103.850082 13.704202
0.914215 -106.909241 13.346781
1.387564 -110.004578 12.797621
0.041945 -117.062912 15.810097
-1.130816 -119.468018 14.568202
-1.57679 -121.499832 10.923687
-2.298992 -123.31871 7.214334
-3.270044 -124.832413 3.46559
-4.07242 -124.970963 5.817498
-6.119875 -126.125168 4.474324
-8.403444 -126.744583 3.243722
-10.367071 -90.116104 5.567616
-11.119108 -88.971329 4.186588
-9.661772 -91.624374 4.068057
-8.649261 -92.831741 2.601554
-7.398623 -93.689133 1.142519
-1.189215 -102.491318 -4.694796
-1.984293 -99.798798 -3.462332
-1.509821 -99.638077 -5.385612
-2.020119 -96.497421 -6.041441
-2.748451 -93.118195 -6.707453
-3.691689 -89.546692 -7.417042
-3.25996 -92.232101 -8.397511
-11.21357 -76.981949 -2.512024
-10.319681 -79.80262 -2.916212
-3.809177 -100.679977 4.654828
-4.501581 -99.618408 3.272632
-3.024137 -102.327057 2.649308
-2.241402 -103.617004 0.538025
-1.529974 -104.515625 -1.663414
-0.742992 -109.017731 -1.920115
-0.878555 -107.19046 -3.006411
-1.002825 -105.016235 -3.918051
-0.798262 -105.126648 -6.172895
-2.2731 -121.60553 -5.204353
-2.201578 -120.253433 -6.948195
-3.432396 -122.134232 -8.563925
-4.753262 -122.184174 -11.672903
-6.305151 -121.745987 -14.42646
-8.592148 -124.341339 -14.509146
-8.345036 -122.716476 -15.798964
-8.159767 -120.817596 -16.747311
-11.530851 -85.894379 7.211553
-10.734884 -86.533737 8.768047
-10.730612 -88.38707 7.126633
-9.498491 -90.920212 7.052423
-7.958229 -93.484329 6.96358
-6.263706 -96.087296 6.817883
-6.036572 -94.427414 10.256434
-5.314222 -96.622238 8.414206
-4.571875 -98.744995 6.564648
-3.021265 -101.470734 6.156017
-1.719007 -104.265915 5.557412
-0.736603 -107.115189 4.753863
-0.214014 -105.581635 9.103277
-0.083374 -107.883896 6.503579
-0.112581 -109.985733 3.750759
0.140657 -112.830383 2.569769
0.028418 -115.592178 1.242489
-0.43442 -118.208755 -0.195128
1.074818 -108.468597 18.17173
1.438652 -110.744537 15.18033
1.435877 -113.066895 12.035477
0.724182 -116.608459 13.43442
1.065849 -116.015427 11.061554
1.102638 -115.327469 8.747383
0.502108 -117.407303 5.335688
-0.295006 -119.198029 1.833734
-1.230061 -120.615967 -1.705338
-2.342216 -122.750214 -3.247705
-3.757647 -124.550629 -4.776293
-5.464514 -125.961273 -6.237581
-4.463816 -125.96817 -0.287748
-5.859705 -126.677597 -3.992239
-7.447817 -126.934143 -7.571594
-9.68355 -127.432922 -8.71722
-8.934401 -124.768295 8.977233
-9.801403 -125.985031 5.582063
-10.87756 -126.816605 2.171957
-13.491259 -126.35347 1.291049
-12.17197 -127.234726 -1.215595
-11.706718 -87.426529 2.912445
-12.092916 -85.461151 1.746517
-12.257557 -83.094368 0.685246
-11.355379 -83.201004 -0.646494
-10.201727 -83.036636 -1.938755
-8.956104 -82.625443 -3.208572
-5.088667 -98.207062 1.991533
-5.585934 -96.399139 0.795162
-6.025534 -94.184525 -0.332607
-3.169241 -97.07605 -2.513638
-4.690624 -94.337738 -1.84457
-6.444536 -91.586182 -1.408676
-6.873495 -88.650742 -2.450186
-7.328424 -85.436951 -3.471916
-7.808277 -82.005859 -4.482141
-6.947771 -81.217026 -5.785442
-4.817133 -85.820511 -8.188753
-2.098553 -118.677383 -8.444555
-1.978302 -116.847885 -9.670572
-1.892004 -114.732574 -10.620806
-9.358341 -77.411216 -4.666718
-9.910868 -76.008431 -4.486333
-9.791184 -77.792038 -4.0148
-8.768743 -78.805428 -4.83675
-8.888426 -77.02182 -5.308283
-9.358341 -77.411216 -4.666718
-5.046055 -121.815384 14.571542
-4.885966 -120.840713 16.296813
-5.880453 -121.473374 15.542363
-12.458134 -80.345692 0.41171
-12.286913 -78.980175 -0.014653
-8.518225 -89.61203 11.299583
-9.019479 -88.417122 11.328005
-7.851086 -90.846458 11.268802
-8.287619 -90.653099 10.366032
-8.518225 -89.61203 11.299583
-0.189424 -113.77153 20.897832
-0.57857 -115.005554 20.404839
0.283113 -113.500793 19.684911
0.093308 -112.414749 21.331366
-0.189424 -113.77153 20.897832
-4.481549 -119.405914 -13.413756
-5.345572 -120.097893 -14.155857
-1.371495 -100.144287 16.175932
-1.166179 -100.550911 17.348499
-0.936211 -101.235687 15.033415
-1.629429 -99.788025 15.051367
-1.371495 -100.144287 16.175932
-1.741198 -119.461761 15.678523
-1.058283 -118.395332 16.345475
-1.294024 -100.965004 -6.080821
-1.349518 -101.064697 -5.040204
-1.133722 -102.391625 -5.735413
-2.156157 -96.147789 -6.940796
-1.792774 -97.832214 -6.677684
-2.520323 -94.458176 -7.273802
-2.384285 -94.807808 -6.374447
-2.156157 -96.147789 -6.940796
-2.776078 -94.015129 -8.118831
-3.004206 -92.675148 -7.552482
-2.520323 -94.458176 -7.273802
-11.287011 -78.593689 -2.064443
-11.572342 -77.182335 -1.832608
-11.645782 -78.794075 -1.385028
-0.925618 -106.262825 -8.09469
-1.101675 -107.481735 -8.943655
-10.414298 -120.452507 -18.293577
-9.263235 -120.112495 -17.675857
-9.31083 -121.157608 -17.36503
-12.923944 -118.671325 -19.86017
-14.298568 -118.737671 -20.342548
-11.329878 -85.018394 8.021339
-11.68198 -84.684212 7.261834
-10.294356 -87.757637 8.736438
-10.318319 -86.770729 9.611168
-9.877791 -87.994629 9.57956
-5.577346 -94.628029 11.170457
-6.373979 -93.348968 11.201559
0.879217 -108.86869 19.435614
0.713597 -107.391662 19.589782
-11.213188 -127.603966 -7.962678
-11.551029 -127.656792 -6.712414
-9.821418 -124.126861 9.969707
-8.604395 -123.993179 10.658767
-11.087029 -125.886978 5.057114
-10.62497 -125.403435 6.672759
-11.910597 -125.305382 6.147811
-14.157127 -126.429787 -0.31153
-14.842715 -125.871994 0.955611
-13.497482 -126.870415 -1.564852
-12.831615 -126.794098 0.037727
-14.157127 -126.429787 -0.31153
-12.934646 -127.233315 -2.868261
-13.497482 -126.870415 -1.564852
-12.777497 -83.416397 3.295635
-12.826826 -82.924507 4.003724
-12.663976 -84.241127 3.840314
-12.707812 -83.725243 2.5955
-12.777497 -83.416397 3.295635
-6.035863 -81.678196 -7.354332
-6.07898 -82.151618 -6.644285
-5.582099 -83.543407 -6.865536
-6.102669 -81.146244 -8.047647
-6.035863 -81.678196 -7.354332
-2.483738 -116.772469 -10.987188
-2.54371 -117.812088 -10.505831
-3.049146 -117.736671 -11.822446
-2.440589 -115.714813 -11.462305
-1.935153 -115.79023 -10.145689
-2.483738 -116.772469 -10.987188
-14.00763 -126.31881 -13.722297
-12.71337 -126.451981 -13.363259
-12.92011 -126.797462 -12.290339
-15.1692 -125.713807 -15.04966
-14.00763 -126.31881 -13.722297
-16.379918 -125.010719 -16.268066
-15.011608 -125.270241 -16.013623
-15.1692 -125.713807 -15.04966
-10.315553 -74.628242 -4.257929
-10.640702 -74.99796 -3.580946
-10.315553 -74.628242 -4.257929
-9.910868 -76.008431 -4.486333
-8.54053 -76.570118 -5.961336
-8.888426 -77.02182 -5.308283
-7.984884 -77.956429 -6.13243
-8.54053 -76.570118 -5.961336
-0.540025 -102.009986 17.360535
-1.166179 -100.550911 17.348499
0.009471 -103.511757 17.288474
-0.128782 -103.093719 16.085918
-0.540025 -102.009986 17.360535
0.478322 -105.013047 17.238376
0.009471 -103.511757 17.288474
0.839347 -106.548546 17.083044
0.78174 -106.130989 15.858526
0.478322 -105.013047 17.238376
-3.963339 -120.154419 17.08395
-4.885966 -120.840713 16.296813
-3.201574 -120.319114 16.057418
-3.963339 -120.154419 17.08395
-3.353978 -121.342155 14.257571
-2.503984 -120.478546 14.988997
-3.201574 -120.319114 16.057418
-12.064968 -78.880237 -0.716074
-12.286913 -78.980175 -0.014653
-11.779636 -80.291591 -0.947909
-11.645782 -78.794075 -1.385028
-12.064968 -78.880237 -0.716074
-1.290655 -108.685676 -9.814126
-1.101675 -107.481735 -8.943655
-0.990663 -108.872749 -8.696372
-15.684227 -118.752052 -20.80265
-14.298568 -118.737671 -20.342548
-14.297356 -119.820945 -20.158462
-9.428256 -88.213196 10.425551
-9.019479 -88.417122 11.328005
-9.404293 -89.200104 9.550821
-9.877791 -87.994629 9.57956
-9.428256 -88.213196 10.425551
-3.488211 -96.669747 14.032449
-3.14602 -96.979485 15.094805
-3.879607 -96.404434 13.023446
-3.488211 -96.669747 14.032449
-3.072496 -97.763787 13.000543
-4.291006 -96.163559 12.03801
-3.879607 -96.404434 13.023446
-3.9126 -97.277809 11.061788
-4.739714 -95.942894 11.108258
-4.291006 -96.163559 12.03801
0.264356 -111.073235 21.669671
0.093308 -112.414749 21.331366
0.624731 -110.706398 20.408971
0.264356 -111.073235 21.669671
0.868974 -111.809471 18.879458
0.92786 -110.371857 19.169984
0.624731 -110.706398 20.408971
-11.959844 -127.626053 -5.447716
-11.551029 -127.656792 -6.712414
-10.700147 -127.738991 -5.040218
-13.233061 -125.081871 5.626575
-11.910597 -125.305382 6.147811
-12.465772 -84.371727 5.174261
-12.552113 -83.153847 5.262907
-12.30458 -83.776337 5.888766
-5.110113 -86.580978 -9.358518
-5.134026 -87.876205 -9.792385
-3.758439 -118.58316 -12.617835
-3.832229 -119.599045 -12.13701
-4.481549 -119.405914 -13.413756
-3.049146 -117.736671 -11.822446
-3.758439 -118.58316 -12.617835
-2.372906 -98.362862 15.101715
-3.14602 -96.979485 15.094805
-1.937622 -99.454262 13.959198
-2.372906 -98.362862 15.101715
-1.629429 -99.788025 15.051367
-0.492685 -116.090111 18.687063
-0.57857 -115.005554 20.404839
-0.471903 -117.19278 16.966423
0.021163 -115.960243 17.530737
-0.492685 -116.090111 18.687063
-0.544436 -118.265465 15.189149
-0.471903 -117.19278 16.966423
-1.058283 -118.395332 16.345475
-1.893603 -120.484803 13.878676
-1.741198 -119.461761 15.678523
-2.503984 -120.478546 14.988997
-1.537625 -99.402542 -6.349769
-1.294024 -100.965004 -6.080821
-1.76497 -98.067749 -5.713527
-1.537625 -99.402542 -6.349769
-1.792774 -97.832214 -6.677684
-3.239378 -93.530449 -8.99896
-2.776078 -94.015129 -8.118831
-3.845687 -91.667259 -9.224545
-3.239378 -93.530449 -8.99896
-4.435809 -89.805168 -9.532836
-3.850083 -90.37001 -8.705801
-3.845687 -91.667259 -9.224545
-5.134026 -87.876205 -9.792385
-4.435809 -89.805168 -9.532836
-11.34837 -75.584984 -2.225651
-11.572342 -77.182335 -1.832608
-11.075632 -75.294308 -2.919751
-11.34837 -75.584984 -2.225651
-10.778641 -76.6856 -3.173219
-10.640702 -74.99796 -3.580946
-11.075632 -75.294308 -2.919751
-6.934123 -121.927009 14.742555
-5.880453 -121.473374 15.542363
-7.157466 -122.833054 13.078697
-6.934123 -121.927009 14.742555
-0.938245 -103.70929 -6.474463
-1.133722 -102.391625 -5.735413
-0.993738 -103.808983 -5.433846
-0.923907 -104.991745 -7.268187
-0.799972 -106.397728 -6.999398
-0.925618 -106.262825 -8.09469
-0.938245 -103.70929 -6.474463
-0.923907 -104.991745 -7.268187
-6.220479 -120.759987 -14.902621
-5.345572 -120.097893 -14.155857
-5.430245 -121.083893 -13.679696
-7.147787 -120.295792 -16.063046
-6.220479 -120.759987 -14.902621
-7.232459 -121.281791 -15.586886
-8.120324 -119.729042 -17.062005
-7.147787 -120.295792 -16.063046
-8.120324 -119.729042 -17.062005
-9.263235 -120.112495 -17.675857
-11.6392 -119.606979 -19.151382
-10.414298 -120.452507 -18.293577
-11.686795 -120.652092 -18.840555
-11.6392 -119.606979 -19.151382
-12.923944 -118.671325 -19.86017
-17.663565 -124.192124 -17.37516
-16.379918 -125.010719 -16.268066
-17.556638 -123.645523 -18.21422
-17.663565 -124.192124 -17.37516
-17.43296 -123.017502 -18.984289
-16.098647 -123.939132 -18.002098
-17.556638 -123.645523 -18.21422
-17.353522 -122.291641 -19.615865
-17.43296 -123.017502 -18.984289
-17.261011 -121.497689 -20.178099
-15.882459 -122.517158 -19.3344
-17.353522 -122.291641 -19.615865
-17.212802 -120.612229 -20.600758
-17.261011 -121.497689 -20.178099
-17.159335 -119.668289 -20.961723
-15.736481 -120.779267 -20.257599
-17.212802 -120.612229 -20.600758
-17.154171 -118.639237 -21.194893
-17.159335 -119.668289 -20.961723
-15.684227 -118.752052 -20.80265
-17.154171 -118.639237 -21.194893
-12.025674 -84.234131 6.556118
-12.30458 -83.776337 5.888766
-11.874545 -85.444298 6.505837
-12.025674 -84.234131 6.556118
-11.68198 -84.684212 7.261834
-10.55201 -85.592842 9.636355
-10.318319 -86.770729 9.611168
-10.931895 -85.338074 8.799586
-10.55201 -85.592842 9.636355
-11.132867 -86.214058 7.9898
-11.329878 -85.018394 8.021339
-10.931895 -85.338074 8.799586
-7.165933 -92.079025 11.240967
-7.851086 -90.846458 11.268802
-6.828526 -93.157471 10.295842
-7.165933 -92.079025 11.240967
-6.373979 -93.348968 11.201559
-5.19894 -95.742279 10.194235
-5.577346 -94.628029 11.170457
-4.739714 -95.942894 11.108258
0.805373 -106.9496 18.317312
0.713597 -107.391662 19.589782
1.108792 -108.067543 16.937462
0.839347 -106.548546 17.083044
0.805373 -106.9496 18.317312
1.123461 -109.971764 17.906101
0.879217 -108.86869 19.435614
0.92786 -110.371857 19.169984
-10.909297 -127.435562 -9.16883
-9.987441 -127.601326 -7.511068
-11.213188 -127.603966 -7.962678
-11.880448 -127.184418 -10.77587
-10.654701 -127.181778 -10.32426
-10.909297 -127.435562 -9.16883
-12.92011 -126.797462 -12.290339
-11.880448 -127.184418 -10.77587
-7.437424 -123.704757 11.331779
-6.320502 -123.319748 12.070175
-7.157466 -122.833054 13.078697
-7.76743 -124.479873 9.650245
-7.437424 -123.704757 11.331779
-8.604395 -123.993179 10.658767
-10.19147 -124.795066 8.370344
-9.821418 -124.126861 9.969707
-9.367902 -125.376663 7.279648
-10.19147 -124.795066 8.370344
-10.62497 -125.403435 6.672759
-13.712636 -125.437691 4.102252
-13.233061 -125.081871 5.626575
-14.271938 -125.719963 2.481693
-14.842715 -125.871994 0.955611
-12.931957 -126.071198 2.911608
-13.712636 -125.437691 4.102252
-14.271938 -125.719963 2.481693
-12.403141 -127.470078 -4.148224
-11.640466 -127.471489 -2.495558
-12.934646 -127.233315 -2.868261
-11.959844 -127.626053 -5.447716
-12.403141 -127.470078 -4.148224
-12.700458 -82.520375 4.70091
-12.552113 -83.153847 5.262907
-12.700458 -82.520375 4.70091
-12.826826 -82.924507 4.003724
-12.446946 -84.089309 1.902646
-12.707812 -83.725243 2.5955
-12.353782 -85.097084 2.439371
-12.529267 -82.905918 1.372011
-12.446946 -84.089309 1.902646
-12.175237 -84.27776 1.215882
-12.487502 -81.703999 0.893811
-12.529267 -82.905918 1.372011
-12.228189 -81.736061 0.203146
-12.458134 -80.345692 0.41171
-12.487502 -81.703999 0.893811
-7.309356 -79.356926 -6.285994
-7.984884 -77.956429 -6.13243
-7.623299 -79.816529 -5.631879
-6.740257 -80.751717 -6.459262
-6.286494 -82.616928 -5.970465
-6.07898 -82.151618 -6.644285
-7.309356 -79.356926 -6.285994
-6.740257 -80.751717 -6.459262
-5.298578 -85.237274 -8.945849
-4.628669 -87.164215 -8.601422
-5.110113 -86.580978 -9.358518
-5.443599 -83.894356 -8.607354
-5.298578 -85.237274 -8.945849
-5.804524 -82.519092 -8.300769
-5.178057 -84.445247 -7.882168
-5.443599 -83.894356 -8.607354
-6.102669 -81.146244 -8.047647
-5.804524 -82.519092 -8.300769
-2.436263 -114.525345 -11.806521
-2.440589 -115.714813 -11.462305
-1.901801 -113.519966 -10.965952
-2.436263 -114.525345 -11.806521
-1.520226 -112.422722 -10.094223
-1.510429 -113.63533 -9.749077
-1.901801 -113.519966 -10.965952
-1.54562 -111.192025 -10.43897
-1.154248 -111.307389 -9.222096
-1.520226 -112.422722 -10.094223
-1.64487 -109.820877 -10.672815
-1.54562 -111.192025 -10.43897
-1.290655 -108.685676 -9.814126
-1.64487 -109.820877 -10.672815
3 0 65 63
3 1 257 259
3 259 258 67
3 257 258 259
3 1 260 262
3 260 68 261
3 260 261 262
3 3 263 265
3 263 70 264
3 263 264 265
3 3 72 70
3 3 74 72
3 2 77 75
3 266 78 267
3 4 81 79
3 6 84 82
3 6 86 84
3 7 89 87
3 8 92 90
3 8 94 92
3 268 95 269
3 270 97 271
3 272 271 95
3 270 271 272
3 10 99 98
3 10 101 99
3 10 103 101
3 11 106 104
3 11 108 106
3 12 273 274
3 12 275 277
3 275 109 276
3 275 276 277
3 12 111 109
3 13 114 112
3 13 116 114
3 13 118 116
3 14 121 119
3 14 123 121
3 9 126 124
3 15 129 127
3 15 131 129
3 5 134 132
3 16 137 135
3 16 139 137
3 16 141 139
3 279 278 142
3 17 146 144
3 19 147 64
3 19 148 147
3 20 151 149
3 22 152 66
3 22 153 152
3 23 280 281
3 23 282 284
3 282 154 283
3 282 283 284
3 23 156 154
3 25 157 69
3 25 158 157
3 285 160 286
3 27 161 71
3 27 162 161
3 27 164 162
3 29 165 73
3 29 166 165
3 30 169 167
3 32 170 76
3 32 171 170
3 287 174 288
3 289 288 172
3 287 288 289
3 290 175 291
3 292 176 293
3 294 293 175
3 292 293 294
3 295 178 296
3 297 296 176
3 295 296 297
3 35 298 300
3 298 179 299
3 298 299 300
3 35 180 179
3 36 183 181
3 38 184 80
3 38 185 184
3 18 186 145
3 39 187 83
3 39 188 187
3 39 189 188
3 302 301 85
3 40 192 190
3 42 193 88
3 42 194 193
3 21 195 150
3 43 196 91
3 43 197 196
3 43 303 305
3 305 304 197
3 303 304 305
3 307 306 93
3 308 198 309
3 44 310 312
3 310 199 311
3 310 311 312
3 44 200 199
3 44 201 200
3 45 202 96
3 45 203 202
3 313 204 314
3 46 205 100
3 46 206 205
3 46 207 206
3 47 208 102
3 47 209 208
3 24 210 155
3 48 211 105
3 48 212 211
3 48 213 212
3 49 214 107
3 49 215 214
3 315 216 316
3 50 217 110
3 50 218 217
3 26 219 159
3 51 220 113
3 51 221 220
3 51 222 221
3 52 223 115
3 52 224 223
3 52 225 224
3 53 226 117
3 53 227 226
3 28 228 163
3 54 229 120
3 54 230 229
3 54 231 230
3 318 317 122
3 319 232 320
3 55 321 323
3 321 233 322
3 321 322 323
3 55 234 233
3 324 235 325
3 326 236 327
3 328 327 235
3 326 327 328
3 330 329 236
3 56 331 333
3 333 332 125
3 331 332 333
3 56 334 335
3 31 237 168
3 57 238 128
3 57 239 238
3 57 240 239
3 58 241 130
3 58 242 241
3 37 243 182
3 59 244 133
3 59 245 244
3 33 246 173
3 60 247 136
3 60 248 247
3 60 249 248
3 61 250 138
3 61 251 250
3 61 252 251
3 62 336 338
3 338 337 140
3 336 337 338
3 62 339 340
3 34 253 177
3 41 254 191
3 341 255 342
3 343 342 143
3 341 342 343
3 344 256 345
3 346 345 255
3 344 345 346
3 63 64 17
3 65 64 63
3 65 19 64
3 347 66 348
3 349 348 20
3 347 348 349
3 350 66 351
3 352 22 353
3 354 353 66
3 352 353 354
3 67 355 356
3 358 357 67
3 68 359 360
3 68 361 362
3 363 23 364
3 365 69 366
3 367 366 23
3 365 366 367
3 368 69 369
3 370 25 371
3 372 371 69
3 370 371 372
3 70 373 374
3 70 375 376
3 70 377 379
3 377 71 378
3 377 378 379
3 72 71 70
3 72 27 71
3 72 73 27
3 74 73 72
3 74 29 73
3 75 76 30
3 77 76 75
3 77 32 76
3 78 380 381
3 78 382 384
3 382 35 383
3 382 383 384
3 79 80 36
3 81 80 79
3 81 38 80
3 82 83 18
3 84 83 82
3 84 39 83
3 84 85 39
3 86 85 84
3 86 385 387
3 387 386 85
3 385 386 387
3 87 88 40
3 89 88 87
3 89 42 88
3 90 91 21
3 92 91 90
3 92 43 91
3 92 93 43
3 94 93 92
3 94 388 390
3 390 389 93
3 388 389 390
3 95 391 392
3 95 393 395
3 393 44 394
3 393 394 395
3 95 96 44
3 97 96 95
3 97 45 96
3 98 396 397
3 99 398 400
3 400 399 98
3 398 399 400
3 99 401 402
3 99 403 405
3 403 100 404
3 403 404 405
3 101 100 99
3 101 46 100
3 101 102 46
3 103 102 101
3 103 47 102
3 104 105 24
3 106 105 104
3 106 48 105
3 106 107 48
3 108 107 106
3 108 49 107
3 109 406 407
3 109 408 409
3 109 410 412
3 410 110 411
3 410 411 412
3 111 110 109
3 111 50 110
3 112 113 26
3 114 113 112
3 114 51 113
3 114 115 51
3 116 115 114
3 116 52 115
3 116 117 52
3 118 117 116
3 118 53 117
3 119 120 28
3 121 120 119
3 121 54 120
3 121 122 54
3 123 122 121
3 123 413 415
3 415 414 122
3 413 414 415
3 416 55 417
3 124 418 420
3 418 125 419
3 418 419 420
3 126 125 124
3 126 56 125
3 127 128 31
3 129 128 127
3 129 57 128
3 129 130 57
3 131 130 129
3 131 58 130
3 132 133 37
3 134 133 132
3 134 59 133
3 135 136 33
3 137 136 135
3 137 60 136
3 137 138 60
3 139 138 137
3 139 61 138
3 139 140 61
3 141 140 139
3 141 62 140
3 422 421 34
3 142 143 41
3 423 143 424
3 425 424 142
3 423 424 425
3 427 426 143
3 144 145 4
3 146 145 144
3 146 18 145
3 64 146 17
3 147 146 64
3 147 18 146
3 147 82 18
3 148 82 147
3 148 6 82
3 149 150 7
3 151 150 149
3 151 21 150
3 66 151 20
3 152 151 66
3 152 21 151
3 152 90 21
3 153 90 152
3 153 8 90
3 428 98 429
3 154 430 432
3 430 98 431
3 430 431 432
3 154 10 98
3 154 155 10
3 156 155 154
3 156 24 155
3 69 156 23
3 157 156 69
3 157 24 156
3 157 104 24
3 158 104 157
3 158 11 104
3 433 12 434
3 435 159 436
3 437 436 12
3 435 436 437
3 160 438 440
3 438 159 439
3 438 439 440
3 160 26 159
3 71 441 443
3 441 160 442
3 441 442 443
3 161 160 71
3 161 26 160
3 161 112 26
3 162 112 161
3 162 13 112
3 162 163 13
3 164 163 162
3 164 28 163
3 73 164 27
3 165 164 73
3 165 28 164
3 165 119 28
3 166 119 165
3 166 14 119
3 167 168 9
3 169 168 167
3 169 31 168
3 76 169 30
3 170 169 76
3 170 31 169
3 170 127 31
3 171 127 170
3 171 15 127
3 172 173 5
3 174 173 172
3 174 33 173
3 444 174 445
3 175 446 448
3 446 174 447
3 446 447 448
3 175 33 174
3 175 135 33
3 176 135 175
3 176 16 135
3 176 177 16
3 178 177 176
3 178 34 177
3 449 178 450
3 451 178 452
3 453 34 454
3 455 454 178
3 453 454 455
3 457 456 34
3 179 458 459
3 179 460 461
3 179 462 464
3 462 67 463
3 462 463 464
3 180 67 179
3 180 1 67
3 465 3 466
3 468 467 3
3 181 182 2
3 183 182 181
3 183 37 182
3 80 183 36
3 184 183 80
3 184 37 183
3 184 132 37
3 185 132 184
3 185 5 132
3 145 81 4
3 186 81 145
3 186 38 81
3 83 186 18
3 187 186 83
3 187 38 186
3 187 185 38
3 188 185 187
3 188 5 185
3 188 172 5
3 189 172 188
3 189 469 471
3 471 470 172
3 469 470 471
3 85 189 39
3 472 189 473
3 474 473 85
3 472 473 474
3 476 475 189
3 190 191 0
3 192 191 190
3 192 41 191
3 88 192 40
3 193 192 88
3 193 41 192
3 193 142 41
3 194 142 193
3 194 477 479
3 479 478 142
3 477 478 479
3 150 89 7
3 195 89 150
3 195 42 89
3 91 195 21
3 196 195 91
3 196 42 195
3 196 194 42
3 197 194 196
3 197 480 482
3 482 481 194
3 480 481 482
3 197 483 484
3 486 485 197
3 93 487 489
3 489 488 43
3 487 488 489
3 491 490 93
3 492 22 493
3 494 22 495
3 496 153 497
3 498 497 22
3 496 497 498
3 499 153 500
3 501 8 502
3 503 502 153
3 501 502 503
3 504 8 505
3 506 94 507
3 508 507 8
3 506 507 508
3 509 94 510
3 512 511 94
3 513 124 514
3 198 515 517
3 515 124 516
3 515 516 517
3 198 9 124
3 199 518 519
3 199 520 521
3 199 522 524
3 522 198 523
3 522 523 524
3 200 198 199
3 200 9 198
3 200 167 9
3 201 167 200
3 201 30 167
3 96 201 44
3 202 201 96
3 202 30 201
3 202 75 30
3 203 75 202
3 203 2 75
3 525 97 526
3 204 527 529
3 527 97 528
3 527 528 529
3 204 45 97
3 100 530 532
3 530 204 531
3 530 531 532
3 205 204 100
3 205 45 204
3 205 203 45
3 206 203 205
3 206 2 203
3 206 181 2
3 207 181 206
3 207 36 181
3 102 207 46
3 208 207 102
3 208 36 207
3 208 79 36
3 209 79 208
3 209 4 79
3 155 103 10
3 210 103 155
3 210 47 103
3 105 210 24
3 211 210 105
3 211 47 210
3 211 209 47
3 212 209 211
3 212 4 209
3 212 144 4
3 213 144 212
3 213 17 144
3 107 213 48
3 214 213 107
3 214 17 213
3 214 63 17
3 215 63 214
3 215 0 63
3 216 533 534
3 216 535 537
3 535 25 536
3 535 536 537
3 110 538 540
3 538 216 539
3 538 539 540
3 217 216 110
3 217 25 216
3 217 158 25
3 218 158 217
3 218 11 158
3 159 111 12
3 219 111 159
3 219 50 111
3 113 219 26
3 220 219 113
3 220 50 219
3 220 218 50
3 221 218 220
3 221 11 218
3 221 108 11
3 222 108 221
3 222 49 108
3 115 222 51
3 223 222 115
3 223 49 222
3 223 215 49
3 224 215 223
3 224 0 215
3 224 190 0
3 225 190 224
3 225 40 190
3 117 225 52
3 226 225 117
3 226 40 225
3 226 87 40
3 227 87 226
3 227 7 87
3 163 118 13
3 228 118 163
3 228 53 118
3 120 228 28
3 229 228 120
3 229 53 228
3 229 227 53
3 230 227 229
3 230 7 227
3 230 149 7
3 231 149 230
3 231 20 149
3 122 231 54
3 541 231 542
3 543 542 122
3 541 542 543
3 544 20 545
3 546 545 231
3 544 545 546
3 548 547 20
3 549 74 550
3 551 550 3
3 549 550 551
3 232 552 554
3 552 74 553
3 552 553 554
3 232 29 74
3 555 232 556
3 233 557 559
3 557 232 558
3 557 558 559
3 233 29 232
3 233 166 29
3 234 166 233
3 234 14 166
3 560 55 561
3 235 562 563
3 235 564 566
3 564 55 565
3 564 565 566
3 235 234 55
3 236 234 235
3 236 14 234
3 236 123 14
3 567 123 568
3 569 568 236
3 567 568 569
3 571 570 123
3 125 572 573
3 575 574 125
3 168 126 9
3 237 126 168
3 237 56 126
3 128 237 31
3 238 237 128
3 238 56 237
3 238 576 578
3 578 577 56
3 576 577 578
3 239 579 581
3 581 580 238
3 579 580 581
3 239 582 583
3 239 584 586
3 584 78 585
3 584 585 586
3 240 78 239
3 240 35 78
3 130 240 57
3 241 240 130
3 241 35 240
3 241 180 35
3 242 180 241
3 242 1 180
3 182 77 2
3 243 77 182
3 243 32 77
3 133 243 37
3 244 243 133
3 244 32 243
3 244 171 32
3 245 171 244
3 245 15 171
3 173 134 5
3 246 134 173
3 246 59 134
3 136 246 33
3 247 246 136
3 247 59 246
3 247 245 59
3 248 245 247
3 248 15 245
3 248 131 15
3 249 131 248
3 249 58 131
3 138 249 60
3 250 249 138
3 250 58 249
3 250 242 58
3 251 242 250
3 251 1 242
3 251 68 1
3 252 68 251
3 252 587 589
3 589 588 68
3 587 588 589
3 140 252 61
3 590 252 591
3 592 591 140
3 590 591 592
3 594 593 252
3 177 141 16
3 253 141 177
3 253 62 141
3 595 253 596
3 597 596 34
3 595 596 597
3 598 253 599
3 600 62 601
3 602 601 253
3 600 601 602
3 604 603 62
3 191 65 0
3 254 65 191
3 254 19 65
3 143 254 41
3 255 254 143
3 255 19 254
3 255 148 19
3 256 148 255
3 256 6 148
3 605 256 606
3 607 256 608
3 609 6 610
3 611 610 256
3 609 610 611
3 612 86 613
3 614 613 6
3 612 613 614
3 615 86 616
3 618 617 86
