ply
format ascii 1.0
element vertex 294
property float x
property float y
property float z
element face 277
property list uchar int vertex_index
end_header
-11.488285 -78.566772 6.409495
-8.017303 -70.113129 4.636198
-10.192057 -68.211891 -1.730318
-4.517588 -71.774597 11.751742
-10.239424 -75.039536 5.499653
-10.161718 -66.695679 -4.656778
-6.052387 -77.329361 16.070841
-1.931242 -66.817047 11.53966
-0.842249 -67.963913 15.668346
-5.352266 -64.487366 4.040823
-7.077211 -63.194149 0.656917
-9.504717 -69.308578 1.373949
-8.438137 -61.728798 -2.493168
-9.516666 -60.040028 -5.445175
-10.491348 -79.628021 8.881107
-3.372252 -72.864807 15.780493
-7.148821 -76.267342 12.099067
-8.605165 -75.423981 8.595432
-3.516859 -65.675293 7.662637
-6.169491 -70.868896 8.05946
-11.030132 -77.063034 5.979619
-6.711256 -67.359131 4.299847
-7.567223 -66.839043 2.609109
-8.842218 -69.73381 2.987334
-8.875345 -65.649101 -0.630276
-7.80743 -62.486889 -0.946453
-9.29026 -64.949226 -2.175304
-9.785086 -63.302513 -5.126932
-10.002903 -62.355927 -6.550728
-10.071135 -59.104622 -6.872854
-10.311804 -61.331898 -7.954767
-10.786535 -60.233177 -9.348146
-10.20615 -63.667908 -8.835659
-9.823429 -80.131233 10.515786
-1.702353 -71.086998 17.803169
-3.005045 -73.481979 17.889343
-7.70142 -78.931221 14.164153
-6.550791 -76.771194 14.037382
-8.293793 -78.432648 12.234839
-8.952969 -77.963326 10.434298
-3.200033 -69.362534 11.613988
-3.977255 -68.843826 9.68573
-5.292229 -71.298187 9.863708
-7.432306 -73.227585 8.329041
-6.595566 -73.611145 10.076262
-9.212864 -72.694366 5.041702
-10.003799 -72.481842 3.448187
-10.984938 -75.012688 3.984488
-10.237005 -67.508362 -3.214449
-4.353689 -75.759766 18.025833
-0.710564 -64.146988 11.53642
-1.316179 -67.386299 13.576282
-2.554333 -69.906021 13.617093
-6.25021 -63.85812 2.319322
-8.299751 -66.27475 0.965056
-9.958176 -68.808228 -0.200268
-9.573833 -64.167694 -3.671951
-8.992508 -60.914261 -3.989407
-11.090761 -79.084671 7.464862
-2.05509 -70.47908 15.686292
-3.874166 -72.296738 13.727604
-4.738047 -75.137413 15.921577
-5.234676 -74.573929 13.880189
-5.855732 -74.06456 11.926208
-7.840992 -75.812424 10.280883
-9.646317 -77.519623 8.793617
-10.329185 -77.153549 7.335767
-4.425089 -65.090454 5.821389
-5.786175 -67.854553 6.038215
-2.673273 -66.248787 9.567846
-4.855007 -68.344368 7.830195
-7.100527 -70.480774 6.323037
-8.326427 -72.927032 6.66153
-9.417482 -75.156067 7.020934
-11.806417 -78.811492 5.845819
-11.57734 -78.059624 5.630881
-11.259208 -77.814903 6.194557
-10.023415 -63.561524 -7.003712
-10.032422 -64.067482 -6.308821
-10.177866 -63.049509 -7.705732
-10.157353 -61.843913 -7.252747
-10.023415 -63.561524 -7.003712
-10.125039 -64.217514 -8.146178
-10.258977 -62.499903 -8.395213
-10.177866 -63.049509 -7.705732
-10.076142 -81.244419 10.524085
-9.493324 -80.369243 11.414671
-2.87776 -73.815956 18.959993
-2.243771 -72.607628 18.917245
-8.728506 -79.519951 12.274197
-7.997606 -78.681934 13.199496
-8.43232 -79.769238 13.238855
-9.493324 -80.369243 11.414671
-9.058611 -79.28194 11.375312
-8.728506 -79.519951 12.274197
-1.079214 -67.675106 14.622314
-0.530129 -66.353745 14.657107
-0.293164 -66.642551 15.703138
-5.801238 -64.172743 3.180072
-5.125962 -62.702011 3.090269
-4.676991 -63.016634 3.95102
-10.307227 -72.357437 2.662504
-10.773986 -73.72908 2.958183
-6.499926 -61.657223 0.55546
-6.022436 -62.018451 1.389005
-7.640353 -60.552448 -1.818472
-7.325 -60.931494 -1.045114
-8.122784 -62.107844 -1.71981
-8.079444 -60.167234 -2.5865
-7.640353 -60.552448 -1.818472
-9.043779 -58.921683 -4.805308
-8.7817 -59.358799 -4.077424
-9.254587 -60.477145 -4.717291
-9.470667 -58.501534 -5.529841
-9.043779 -58.921683 -4.805308
-10.197661 -57.591566 -6.957389
-10.394879 -58.605776 -7.578859
-11.132766 -59.646091 -10.041877
-10.704877 -61.359047 -9.777846
-11.071216 -80.404453 8.1466
-11.370922 -80.132778 7.438477
-10.791055 -79.356346 8.172985
-3.970974 -65.382873 6.742013
-3.301179 -63.991417 6.691093
-2.847064 -64.283837 7.611717
-11.374131 -77.152279 5.285437
-10.978777 -76.14053 5.045454
-10.634778 -76.051285 5.739636
-11.374131 -77.152279 5.285437
-11.57734 -78.059624 5.630881
-0.151626 -66.930458 16.778844
-0.293164 -66.642551 15.703138
-9.923513 -64.540775 -5.596923
-9.973402 -64.999096 -4.891855
-10.111829 -66.237358 -5.361846
-9.893994 -62.82922 -5.83883
-9.923513 -64.540775 -5.596923
-10.032422 -64.067482 -6.308821
-10.515213 -59.719414 -8.119816
-10.394879 -58.605776 -7.578859
-10.19147 -60.21826 -7.413811
-10.54917 -60.782538 -8.651457
-10.752579 -59.170053 -8.816505
-10.515213 -59.719414 -8.119816
-10.414684 -63.076413 -9.521603
-10.704877 -61.359047 -9.777846
-10.496343 -61.950542 -9.091902
-10.42467 -80.981701 9.697274
-10.75863 -80.730095 8.879935
-10.157388 -79.879627 9.698446
-10.42467 -80.981701 9.697274
-10.076142 -81.244419 10.524085
-1.592424 -71.410137 18.874159
-1.013624 -70.131332 18.874457
-2.353699 -72.284488 17.846256
-1.592424 -71.410137 18.874159
-2.243771 -72.607628 18.917245
-2.451875 -64.603472 8.589351
-2.847064 -64.283837 7.611717
-11.264556 -74.994503 3.226333
-10.773986 -73.72908 2.958183
-10.494369 -73.747265 3.716337
-11.351534 -76.127106 4.287872
-10.612181 -75.026112 4.742071
-10.978777 -76.14053 5.045454
-11.612317 -76.235084 3.566107
-11.351534 -76.127106 4.287872
-11.264556 -74.994503 3.226333
-11.612317 -76.235084 3.566107
-10.567761 -69.190079 -2.922723
-10.214531 -67.860127 -2.472384
-10.545286 -69.541843 -2.180657
-10.403111 -68.831097 -3.631949
-10.567761 -69.190079 -2.922723
-10.365467 -68.424755 -4.353113
-10.199362 -67.102021 -3.935614
-10.403111 -68.831097 -3.631949
-10.169875 -68.001205 -5.045922
-10.365467 -68.424755 -4.353113
-10.111829 -66.237358 -5.361846
-10.169875 -68.001205 -5.045922
-4.203968 -76.101578 19.097511
-3.552082 -74.954849 19.028238
-4.996687 -76.856522 18.099143
-4.203968 -76.101578 19.097511
-5.846036 -77.64132 17.121647
-5.203038 -76.544564 17.048337
-4.996687 -76.856522 18.099143
-6.618357 -78.40535 16.131433
-5.846036 -77.64132 17.121647
-7.442873 -79.20628 15.178089
-6.876904 -78.130291 15.117497
-6.618357 -78.40535 16.131433
-8.125977 -80.012642 14.201245
-7.442873 -79.20628 15.178089
-8.43232 -79.769238 13.238855
-8.125977 -80.012642 14.201245
0.112268 -63.066944 12.628879
-0.117065 -62.759392 11.565242
-0.435821 -64.444092 12.575436
0.112268 -63.066944 12.628879
-1.046161 -65.779122 12.577056
-1.320903 -65.482017 11.53804
-0.435821 -64.444092 12.575436
-0.738629 -66.063748 13.595367
-0.530129 -66.353745 14.657107
-1.623711 -67.101673 12.557971
-1.046161 -65.779122 12.577056
-0.738629 -66.063748 13.595367
-5.608935 -62.350437 2.220207
-5.125962 -62.702011 3.090269
-6.663711 -63.526134 1.48812
-6.022436 -62.018451 1.389005
-5.608935 -62.350437 2.220207
-9.726437 -70.983421 2.432078
-9.423009 -71.107826 3.21776
-10.307227 -72.357437 2.662504
-10.057686 -70.770805 1.625386
-9.173468 -69.521194 2.180642
-9.726437 -70.983421 2.432078
-10.23695 -70.604774 0.854093
-10.057686 -70.770805 1.625386
-10.463679 -70.354599 0.066985
-9.731447 -69.058403 0.586841
-10.23695 -70.604774 0.854093
-10.507286 -70.130639 -0.685283
-10.463679 -70.354599 0.066985
-10.624226 -69.83247 -1.450308
-10.075117 -68.510059 -0.965293
-10.507286 -70.130639 -0.685283
-10.545286 -69.541843 -2.180657
-10.624226 -69.83247 -1.450308
-6.865036 -61.303593 -0.246225
-6.499926 -61.657223 0.55546
-7.442321 -62.840519 -0.144768
-6.865036 -61.303593 -0.246225
-7.325 -60.931494 -1.045114
-8.35663 -59.759966 -3.33462
-8.079444 -60.167234 -2.5865
-8.715322 -61.321529 -3.241287
-8.35663 -59.759966 -3.33462
-8.7817 -59.358799 -4.077424
-9.747901 -58.033831 -6.24368
-9.470667 -58.501534 -5.529841
-9.7939 -59.572325 -6.159014
-9.747901 -58.033831 -6.24368
-10.197661 -57.591566 -6.957389
-11.148796 -58.638806 -9.519813
-10.752579 -59.170053 -8.816505
-11.148796 -58.638806 -9.519813
-11.132766 -59.646091 -10.041877
-9.959186 -65.473633 -8.49824
-10.125039 -64.217514 -8.146178
-10.032278 -64.894447 -9.176823
-9.959186 -65.473633 -8.49824
-10.414684 -63.076413 -9.521603
-10.032278 -64.894447 -9.176823
-11.587672 -79.707264 6.828324
-11.786434 -79.448315 6.300641
-11.289523 -78.825722 6.937178
-11.587672 -79.707264 6.828324
-11.370922 -80.132778 7.438477
-11.071216 -80.404453 8.1466
-10.75863 -80.730095 8.879935
-0.67791 -68.260994 16.733519
-0.151626 -66.930458 16.778844
-1.107962 -69.822536 17.80093
-1.013624 -70.131332 18.874457
-1.28433 -69.518577 16.742491
-1.107962 -69.822536 17.80093
-1.878721 -70.783039 16.74473
-1.448669 -69.221497 15.677319
-0.67791 -68.260994 16.733519
-1.28433 -69.518577 16.742491
-3.679367 -74.620872 17.957588
-2.87776 -73.815956 18.959993
-3.552082 -74.954849 19.028238
-4.205821 -63.358548 4.857881
-4.676991 -63.016634 3.95102
-3.742233 -63.660091 5.748164
-3.301179 -63.991417 6.691093
-4.888678 -64.78891 4.931106
-4.205821 -63.358548 4.857881
-3.742233 -63.660091 5.748164
-1.048728 -63.839319 10.526243
-0.117065 -62.759392 11.565242
-2.030082 -64.890219 9.541956
-1.048728 -63.839319 10.526243
-1.691918 -65.197887 10.552133
-3.095066 -65.96204 8.615241
-2.451875 -64.603472 8.589351
-2.030082 -64.890219 9.541956
-11.806417 -78.811492 5.845819
-11.786434 -79.448315 6.300641
3 0 74 76
3 76 75 20
3 74 75 76
3 1 23 21
3 2 26 24
3 77 28 78
3 79 30 80
3 81 80 28
3 79 80 81
3 82 32 83
3 84 83 30
3 82 83 84
3 86 85 33
3 87 35 88
3 89 38 90
3 91 90 36
3 89 90 91
3 92 33 93
3 94 93 38
3 92 93 94
3 3 42 40
3 3 44 42
3 4 47 45
3 8 95 97
3 95 51 96
3 95 96 97
3 8 52 51
3 9 98 100
3 98 53 99
3 98 99 100
3 11 54 22
3 11 55 54
3 102 101 46
3 10 103 104
3 12 105 107
3 107 106 25
3 105 106 107
3 12 108 109
3 5 56 48
3 13 57 27
3 13 110 112
3 112 111 57
3 110 111 112
3 13 113 114
3 116 115 29
3 118 117 31
3 14 119 121
3 121 120 58
3 119 120 121
3 15 59 34
3 15 60 59
3 6 61 49
3 16 62 37
3 16 63 62
3 16 64 63
3 14 65 39
3 14 58 65
3 18 122 124
3 122 67 123
3 122 123 124
3 18 68 67
3 7 69 50
3 19 70 41
3 19 71 70
3 19 72 71
3 17 73 43
3 17 66 73
3 20 125 127
3 127 126 4
3 125 126 127
3 129 128 20
3 130 8 131
3 21 22 9
3 23 22 21
3 23 11 22
3 24 25 10
3 26 25 24
3 26 12 25
3 132 27 133
3 134 133 5
3 132 133 134
3 28 135 137
3 135 27 136
3 135 136 137
3 28 13 27
3 28 29 13
3 30 29 28
3 30 138 140
3 140 139 29
3 138 139 140
3 30 141 143
3 141 31 142
3 141 142 143
3 32 31 30
3 32 144 146
3 146 145 31
3 144 145 146
3 33 147 149
3 149 148 14
3 147 148 149
3 151 150 33
3 152 34 153
3 35 154 156
3 154 34 155
3 154 155 156
3 35 15 34
3 36 37 6
3 38 37 36
3 38 16 37
3 38 39 16
3 33 39 38
3 33 14 39
3 157 18 158
3 40 41 7
3 42 41 40
3 42 19 41
3 42 43 19
3 44 43 42
3 44 17 43
3 45 46 1
3 47 46 45
3 47 159 161
3 161 160 46
3 159 160 161
3 162 47 163
3 164 163 4
3 162 163 164
3 165 47 166
3 168 167 47
3 169 48 170
3 171 170 2
3 169 170 171
3 172 48 173
3 174 5 175
3 176 175 48
3 174 175 176
3 177 5 178
3 180 179 5
3 181 49 182
3 183 49 184
3 185 6 186
3 187 186 49
3 185 186 187
3 188 6 189
3 190 36 191
3 192 191 6
3 190 191 192
3 193 36 194
3 196 195 36
3 197 50 198
3 199 50 200
3 201 7 202
3 203 202 50
3 201 202 203
3 51 204 205
3 51 206 208
3 206 7 207
3 206 207 208
3 51 40 7
3 52 40 51
3 52 3 40
3 53 209 210
3 53 211 213
3 211 10 212
3 211 212 213
3 22 53 9
3 54 53 22
3 54 10 53
3 54 24 10
3 55 24 54
3 55 2 24
3 46 23 1
3 214 23 215
3 216 215 46
3 214 215 216
3 217 11 218
3 219 218 23
3 217 218 219
3 220 11 221
3 222 55 223
3 224 223 11
3 222 223 224
3 225 55 226
3 227 2 228
3 229 228 55
3 227 228 229
3 231 230 2
3 25 232 234
3 234 233 10
3 232 233 234
3 236 235 25
3 48 26 2
3 56 26 48
3 56 12 26
3 27 56 5
3 57 56 27
3 57 12 56
3 57 237 239
3 239 238 12
3 237 238 239
3 241 240 57
3 29 242 244
3 244 243 13
3 242 243 244
3 246 245 29
3 31 247 248
3 250 249 31
3 251 32 252
3 253 32 254
3 256 255 32
3 58 257 259
3 259 258 0
3 257 258 259
3 261 260 58
3 263 262 14
3 264 8 265
3 34 266 267
3 59 268 270
3 270 269 34
3 268 269 270
3 59 271 273
3 271 8 272
3 271 272 273
3 59 52 8
3 60 52 59
3 60 3 52
3 49 274 276
3 274 35 275
3 274 275 276
3 61 35 49
3 61 15 35
3 37 61 6
3 62 61 37
3 62 15 61
3 62 60 15
3 63 60 62
3 63 3 60
3 63 44 3
3 64 44 63
3 64 17 44
3 39 64 16
3 65 64 39
3 65 17 64
3 65 66 17
3 58 66 65
3 58 0 66
3 277 9 278
3 67 279 280
3 67 281 283
3 281 9 282
3 281 282 283
3 67 21 9
3 68 21 67
3 68 1 21
3 50 284 285
3 69 286 288
3 288 287 50
3 286 287 288
3 69 289 291
3 289 18 290
3 289 290 291
3 41 69 7
3 70 69 41
3 70 18 69
3 70 68 18
3 71 68 70
3 71 1 68
3 71 45 1
3 72 45 71
3 72 4 45
3 43 72 19
3 73 72 43
3 73 4 72
3 73 20 4
3 66 20 73
3 66 0 20
3 293 292 0
