ply
format ascii 1.0
element vertex 318
property float x
property float y
property float z
element face 328
property list uchar int vertex_index
end_header
36.820679 15.66938 -54.796257
41.224079 19.465435 -46.529991
46.45512 18.670467 -51.198868
30.88666 6.573606 -41.49498
37.130058 17.392445 -37.274467
33.927593 14.529316 -46.44162
30.715204 7.445829 -51.711998
48.27002 20.022552 -46.282578
31.230181 10.793167 -38.765495
38.864014 18.677063 -51.263313
37.155987 17.631283 -47.287941
34.889 15.691254 -51.302261
32.097145 11.566607 -49.715897
33.109623 12.046621 -54.015938
35.575718 10.999767 -56.834152
43.125771 18.187656 -40.988029
45.607384 19.799591 -44.217384
43.51886 20.155529 -49.502945
41.450645 17.938164 -53.808388
39.998867 13.659359 -56.770905
44.968361 14.985832 -54.956711
34.061092 16.550343 -36.900276
39.259525 17.893063 -42.286888
35.78706 16.329273 -42.192223
33.085651 13.797276 -40.870483
31.86293 10.649324 -44.329636
37.76226 17.427631 -53.200745
36.755638 17.355274 -51.501892
35.699547 15.905251 -53.239128
33.90963 14.06031 -52.839272
34.820721 14.008247 -54.621407
34.152336 11.747091 -55.618629
36.08614 13.492607 -56.018044
47.352707 19.676262 -48.861534
45.916142 20.286137 -48.04969
44.901314 19.714935 -50.503265
42.437408 19.352623 -51.805496
43.942211 18.500267 -52.685204
43.107433 16.722572 -54.550728
30.60487 6.948631 -38.796967
30.21759 5.284962 -37.363632
35.535969 17.091476 -37.1996
42.281376 19.041496 -43.832535
41.172344 18.206776 -41.80835
40.231503 18.668766 -44.552048
35.40881 16.212788 -47.052704
36.475689 16.891994 -44.837578
34.889233 15.558075 -44.419525
34.326057 15.155827 -41.661079
33.554138 14.001953 -43.679497
32.484642 12.293352 -42.680779
32.74398 12.649817 -45.51046
31.336624 9.636438 -50.89109
31.228008 9.24662 -48.44899
30.596498 7.195215 -49.472313
30.234407 5.038361 -52.154312
49.124985 19.684284 -43.531723
50.525932 19.388664 -44.258499
49.728577 19.252327 -46.936417
30.53587 9.275032 -37.567253
31.061693 8.703653 -40.18309
38.809868 17.421196 -37.100304
40.050331 19.35915 -49.024551
39.116322 18.728493 -47.115387
37.924171 18.301743 -49.447372
35.996506 16.888046 -49.439491
34.331261 15.167034 -49.016258
32.975582 13.202538 -48.220047
33.32288 13.739437 -50.689835
32.444725 11.948536 -52.036926
31.732359 9.837938 -53.024147
31.195417 7.465124 -53.624138
32.509518 9.720861 -54.802071
44.36153 19.055447 -42.755814
43.409637 19.82267 -45.551254
46.90115 20.179138 -45.3843
44.60825 20.300816 -46.952721
42.302612 20.029385 -48.182076
41.143486 19.617832 -50.588539
40.032501 18.586018 -52.717079
39.052853 16.988991 -54.522369
38.262646 14.919903 -55.971001
40.624493 16.00214 -55.474243
42.444351 14.493557 -56.068504
41.859871 17.470715 -38.935745
40.029312 17.587273 -39.530807
38.242397 17.396187 -39.817924
38.275017 17.943718 -44.888588
37.445938 17.257366 -42.411667
36.551556 16.911022 -39.797813
35.001987 16.163242 -39.490479
33.623028 15.200073 -38.934555
32.421986 14.079712 -38.182175
32.063198 12.320753 -39.884071
31.66728 10.504608 -41.493797
31.26075 8.601778 -42.971046
31.953182 11.067976 -47.114471
31.260468 8.839733 -45.772797
30.824211 4.888834 -53.821281
37.691147 12.490171 -57.029457
46.049395 17.87177 -52.220497
44.79294 17.78667 -52.963665
45.198666 18.585367 -51.942036
30.77682 5.596486 -40.718498
30.635925 5.783999 -39.369492
30.745765 6.761119 -40.145973
30.798465 5.478489 -42.067436
30.77682 5.596486 -40.718498
36.516474 17.703919 -36.046669
37.312885 17.632645 -35.967517
36.333013 17.24196 -37.237033
35.719429 17.553434 -36.009236
36.516474 17.703919 -36.046669
30.391658 6.191556 -50.930851
30.332304 6.066249 -49.811008
30.655851 7.320522 -50.592156
30.474806 6.242095 -51.933155
30.151259 4.987823 -51.152008
30.391658 6.191556 -50.930851
51.58299 18.902629 -43.145404
50.880558 19.117658 -42.854686
50.503498 18.561909 -47.147736
50.851726 18.860354 -45.860081
49.324787 18.85385 -48.170525
50.503498 18.561909 -47.147736
30.883026 10.034099 -38.166374
30.500767 10.445754 -36.938694
30.847923 11.204822 -37.537815
39.67033 17.29186 -36.884003
38.966667 17.438778 -35.701206
34.637846 10.105172 -56.517853
33.926155 10.478834 -55.910091
34.864027 11.373429 -56.226391
35.428232 9.643991 -57.024365
34.637846 10.105172 -56.517853
44.984457 19.427519 -43.486599
45.388874 18.888142 -42.059147
46.011801 19.260214 -42.789932
44.71454 13.757437 -55.637211
43.452535 13.5113 -56.193107
43.706356 14.739694 -55.512608
30.014719 4.514977 -36.629696
30.364375 4.032446 -37.8484
33.504501 17.055666 -35.746845
34.220552 17.225491 -35.844689
33.390934 16.182776 -36.657154
33.504501 17.055666 -35.746845
42.492821 17.829186 -39.961887
42.771396 17.260254 -38.492226
43.404347 17.618724 -39.518367
30.983122 7.846914 -46.367108
31.244238 9.043177 -47.110894
30.966892 8.050357 -47.705204
31.063061 7.715085 -45.01828
30.983122 7.846914 -46.367108
31.464792 6.023449 -54.498352
31.009814 6.176979 -53.72271
31.650395 7.311594 -54.399781
31.306198 11.829035 -38.027855
30.847923 11.204822 -37.537815
46.68414 19.605479 -43.397694
46.011801 19.260214 -42.789932
44.375551 16.897823 -53.896427
43.524822 17.61142 -53.617966
44.79294 17.78667 -52.963665
45.306015 16.029453 -54.099418
44.037897 15.854202 -54.75372
44.375551 16.897823 -53.896427
30.41123 6.116796 -38.0803
30.065657 6.55065 -36.84383
30.259296 7.382485 -37.560497
30.442286 4.952164 -38.652825
30.41123 6.116796 -38.0803
30.635925 5.783999 -39.369492
30.364375 4.032446 -37.8484
30.442286 4.952164 -38.652825
34.957991 17.496057 -35.99435
35.719429 17.553434 -36.009236
34.79853 16.820909 -37.049938
34.220552 17.225491 -35.844689
34.957991 17.496057 -35.99435
30.651137 7.024655 -48.216865
30.966892 8.050357 -47.705204
30.912253 8.220918 -48.960651
30.404418 5.9455 -48.660691
30.651137 7.024655 -48.216865
30.404418 5.9455 -48.660691
30.332304 6.066249 -49.811008
29.936896 3.771021 -51.307141
30.151259 4.987823 -51.152008
30.059041 3.748331 -52.181595
29.936896 3.771021 -51.307141
39.792938 12.344959 -57.217373
40.987957 12.798444 -56.989445
50.180084 19.265469 -42.491298
49.47509 19.184376 -42.109425
49.825458 19.536474 -43.895111
50.180084 19.265469 -42.491298
50.880558 19.117658 -42.854686
51.250404 18.928522 -44.521122
51.58299 18.902629 -43.145404
50.127254 19.320495 -45.597458
51.250404 18.928522 -44.521122
50.851726 18.860354 -45.860081
48.136853 19.065817 -49.133083
48.540642 19.464295 -47.898975
49.324787 18.85385 -48.170525
47.688059 18.562919 -50.30175
46.903914 19.173364 -50.030201
48.136853 19.065817 -49.133083
47.310271 17.861986 -51.399998
47.688059 18.562919 -50.30175
30.077374 9.831587 -36.423607
30.500767 10.445754 -36.938694
30.224797 8.545685 -36.94564
30.077374 9.831587 -36.423607
30.57037 8.111831 -38.18211
30.259296 7.382485 -37.560497
30.224797 8.545685 -36.94564
38.15279 17.64702 -35.880436
38.966667 17.438778 -35.701206
37.969963 17.40682 -37.187386
37.312885 17.632645 -35.967517
38.15279 17.64702 -35.880436
32.307446 8.439462 -54.988747
31.650395 7.311594 -54.399781
31.852467 8.592992 -54.213105
33.104746 9.465719 -55.501812
33.330927 10.733976 -55.21035
33.926155 10.478834 -55.910091
32.307446 8.439462 -54.988747
33.104746 9.465719 -55.501812
44.095793 18.014741 -40.421337
43.404347 17.618724 -39.518367
44.713673 18.448637 -41.305229
45.388874 18.888142 -42.059147
43.743651 18.621552 -41.871921
44.095793 18.014741 -40.421337
44.713673 18.448637 -41.305229
48.44294 19.547825 -43.054863
49.47509 19.184376 -42.109425
47.331023 19.795252 -43.981152
48.44294 19.547825 -43.054863
48.013068 19.931711 -44.458011
46.254267 19.989365 -44.800842
46.68414 19.605479 -43.397694
47.331023 19.795252 -43.981152
42.210699 13.215543 -56.638244
40.987957 12.798444 -56.989445
41.221609 14.076458 -56.419704
42.210699 13.215543 -56.638244
43.452535 13.5113 -56.193107
46.049395 17.87177 -52.220497
47.310271 17.861986 -51.399998
46.238506 15.059684 -54.221283
45.306015 16.029453 -54.099418
45.976647 13.89544 -54.99662
46.238506 15.059684 -54.221283
47.246792 13.969292 -54.261192
44.71454 13.757437 -55.637211
45.976647 13.89544 -54.99662
29.753283 5.869912 -36.208351
30.065657 6.55065 -36.84383
29.753283 5.869912 -36.208351
30.014719 4.514977 -36.629696
42.052719 17.044275 -37.45861
42.771396 17.260254 -38.492226
41.195331 17.31662 -37.801723
42.052719 17.044275 -37.45861
40.280052 17.374899 -38.099255
41.195331 17.31662 -37.801723
40.944592 17.528994 -39.233276
39.41959 17.504234 -38.315556
39.67033 17.29186 -36.884003
40.280052 17.374899 -38.099255
33.171902 15.507641 -37.674294
33.390934 16.182776 -36.657154
33.84206 15.875208 -37.917416
32.571381 14.94746 -37.298103
33.171902 15.507641 -37.674294
33.022507 14.639893 -38.558365
31.965484 14.51054 -36.983993
32.571381 14.94746 -37.298103
31.9021 13.472307 -37.736195
31.965484 14.51054 -36.983993
31.722706 12.592828 -38.587143
31.9021 13.472307 -37.736195
32.242592 13.200233 -39.033123
31.64669 11.55696 -39.324783
31.306198 11.829035 -38.027855
31.722706 12.592828 -38.587143
31.063202 7.596107 -43.617404
31.260609 8.720755 -44.371921
31.063061 7.715085 -45.01828
30.876157 6.582021 -42.879371
31.073705 7.587692 -42.233013
31.063202 7.596107 -43.617404
30.798465 5.478489 -42.067436
30.876157 6.582021 -42.879371
30.353943 3.673568 -53.015079
30.059041 3.748331 -52.181595
30.529309 4.963598 -52.987797
31.351 4.656101 -54.473583
31.464792 6.023449 -54.498352
30.712848 3.524142 -53.718449
31.351 4.656101 -54.473583
30.353943 3.673568 -53.015079
30.712848 3.524142 -53.718449
38.639078 11.760364 -57.346649
38.845007 13.074765 -56.900181
39.792938 12.344959 -57.217373
37.515715 11.15071 -57.346813
38.639078 11.760364 -57.346649
36.458 10.405508 -57.249161
36.633432 11.744969 -56.931804
37.515715 11.15071 -57.346813
35.428232 9.643991 -57.024365
36.458 10.405508 -57.249161
3 0 28 26
3 0 30 28
3 0 32 30
3 2 35 33
3 2 37 35
3 2 100 102
3 102 101 37
3 100 101 102
3 3 103 105
3 105 104 39
3 103 104 105
3 3 106 107
3 4 108 109
3 4 110 112
3 110 41 111
3 110 111 112
3 1 44 42
3 5 47 45
3 5 49 47
3 5 51 49
3 6 54 52
3 6 113 115
3 115 114 54
3 113 114 115
3 6 116 118
3 116 55 117
3 116 117 118
3 119 57 120
3 121 58 122
3 124 123 58
3 8 125 127
3 125 59 126
3 125 126 127
3 8 60 59
3 128 61 129
3 9 64 62
3 11 65 27
3 11 66 65
3 11 68 66
3 13 69 29
3 13 70 69
3 13 72 70
3 14 130 132
3 132 131 31
3 130 131 132
3 14 133 134
3 16 135 137
3 135 73 136
3 135 136 137
3 16 74 73
3 7 75 56
3 17 76 34
3 17 77 76
3 17 78 77
3 18 79 36
3 18 80 79
3 18 82 80
3 20 83 38
3 20 138 140
3 140 139 83
3 138 139 140
3 142 141 40
3 21 143 144
3 21 145 146
3 15 147 149
3 147 84 148
3 147 148 149
3 22 85 43
3 22 86 85
3 10 87 63
3 23 88 46
3 23 89 88
3 23 90 89
3 24 91 48
3 24 92 91
3 24 93 92
3 25 94 50
3 25 95 94
3 12 96 67
3 150 97 151
3 152 151 53
3 150 151 152
3 154 153 97
3 155 98 156
3 157 156 71
3 155 156 157
3 19 99 81
3 158 8 159
3 26 27 9
3 28 27 26
3 28 11 27
3 28 29 11
3 30 29 28
3 30 13 29
3 30 31 13
3 32 31 30
3 32 14 31
3 160 16 161
3 33 34 7
3 35 34 33
3 35 17 34
3 35 36 17
3 37 36 35
3 37 18 36
3 37 38 18
3 162 38 163
3 164 163 37
3 162 163 164
3 165 20 166
3 167 166 38
3 165 166 167
3 39 168 170
3 168 40 169
3 168 169 170
3 171 40 172
3 173 172 39
3 171 172 173
3 175 174 40
3 41 176 177
3 41 178 180
3 178 21 179
3 178 179 180
3 42 43 15
3 44 43 42
3 44 22 43
3 45 46 10
3 47 46 45
3 47 23 46
3 47 48 23
3 49 48 47
3 49 24 48
3 49 50 24
3 51 50 49
3 51 25 50
3 52 53 12
3 54 53 52
3 54 181 183
3 183 182 53
3 181 182 183
3 54 184 185
3 187 186 54
3 55 188 189
3 55 190 191
3 193 192 19
3 194 56 195
3 57 196 198
3 196 56 197
3 196 197 198
3 57 7 56
3 199 57 200
3 58 201 203
3 201 57 202
3 201 202 203
3 58 7 57
3 58 33 7
3 204 33 205
3 206 205 58
3 204 205 206
3 207 2 208
3 209 208 33
3 207 208 209
3 211 210 2
3 59 212 213
3 59 214 215
3 59 216 218
3 216 39 217
3 216 217 218
3 60 39 59
3 60 3 39
3 61 219 220
3 61 221 223
3 221 4 222
3 221 222 223
3 62 63 1
3 64 63 62
3 64 10 63
3 27 64 9
3 65 64 27
3 65 10 64
3 65 45 10
3 66 45 65
3 66 5 45
3 66 67 5
3 68 67 66
3 68 12 67
3 29 68 11
3 69 68 29
3 69 12 68
3 69 52 12
3 70 52 69
3 70 6 52
3 70 71 6
3 72 71 70
3 72 224 226
3 226 225 71
3 224 225 226
3 31 72 13
3 227 72 228
3 229 228 31
3 227 228 229
3 231 230 72
3 232 15 233
3 73 234 235
3 73 236 238
3 236 15 237
3 236 237 238
3 73 42 15
3 74 42 73
3 74 1 42
3 56 239 240
3 75 241 243
3 243 242 56
3 241 242 243
3 75 244 246
3 244 16 245
3 244 245 246
3 34 75 7
3 76 75 34
3 76 16 75
3 76 74 16
3 77 74 76
3 77 1 74
3 77 62 1
3 78 62 77
3 78 9 62
3 36 78 17
3 79 78 36
3 79 9 78
3 79 26 9
3 80 26 79
3 80 0 26
3 80 81 0
3 82 81 80
3 82 19 81
3 38 82 18
3 83 82 38
3 83 19 82
3 83 247 249
3 249 248 19
3 247 248 249
3 251 250 83
3 253 252 2
3 254 20 255
3 256 20 257
3 256 257 258
3 260 259 20
3 40 261 262
3 264 263 40
3 84 265 266
3 84 267 268
3 43 84 15
3 85 84 43
3 85 269 271
3 271 270 84
3 269 270 271
3 85 272 274
3 272 61 273
3 272 273 274
3 86 61 85
3 86 4 61
3 63 44 1
3 87 44 63
3 87 22 44
3 46 87 10
3 88 87 46
3 88 22 87
3 88 86 22
3 89 86 88
3 89 4 86
3 89 41 4
3 90 41 89
3 90 21 41
3 48 90 23
3 91 90 48
3 91 21 90
3 91 275 277
3 277 276 21
3 275 276 277
3 92 278 280
3 280 279 91
3 278 279 280
3 92 281 282
3 92 283 284
3 93 285 287
3 287 286 92
3 285 286 287
3 93 288 290
3 288 8 289
3 288 289 290
3 50 93 24
3 94 93 50
3 94 8 93
3 94 60 8
3 95 60 94
3 95 3 60
3 67 51 5
3 96 51 67
3 96 25 51
3 53 96 12
3 97 96 53
3 97 25 96
3 97 95 25
3 291 95 292
3 293 292 97
3 291 292 293
3 294 3 295
3 296 295 95
3 294 295 296
3 298 297 3
3 71 55 6
3 98 55 71
3 98 299 301
3 301 300 55
3 299 300 301
3 302 98 303
3 304 98 305
3 307 306 98
3 81 32 0
3 99 32 81
3 99 14 32
3 308 99 309
3 310 309 19
3 308 309 310
3 311 99 312
3 313 14 314
3 315 314 99
3 313 314 315
3 317 316 14
