ply
format ascii 1.0
element vertex 540
property float x
property float y
property float z
element face 590
property list uchar int vertex_index
end_header
-29.321566 22.250866 61.233482
-45.80938 15.642223 38.344353
-52.793312 7.295448 42.946491
-37.317734 17.287151 61.040794
-41.862019 23.703121 54.241764
-21.739716 29.059074 60.244938
-29.544294 9.298367 62.950287
-22.003092 15.277103 64.747856
-42.506912 26.667946 33.507336
-46.036957 14.600281 48.68655
-42.705303 26.018341 43.736404
-43.106026 38.031288 37.622181
-33.360901 19.755928 61.645329
-36.744835 23.881615 59.571518
-32.860847 26.33979 59.376591
-28.711063 28.771687 58.154007
-24.593311 31.836151 56.890957
-25.398594 25.21637 60.467705
-34.10717 7.138123 62.205624
-30.102541 3.327431 63.298992
-25.627697 5.508015 64.201965
-43.366798 20.822346 35.900383
-48.775925 9.545675 50.63559
-45.760605 13.489559 53.44054
-41.171829 30.036549 51.420448
-42.642513 25.308468 49.149857
-42.222 31.452305 46.164562
-42.60865 32.113388 40.830444
-42.265541 37.358135 42.732079
-49.334461 11.249023 40.793789
-41.052341 14.559917 59.423908
-43.000542 17.42683 56.136429
-40.117371 20.94854 58.37603
-39.359985 27.488758 56.078575
-37.963593 10.976219 61.269012
-33.636559 13.261986 62.295071
-29.450125 15.704189 62.687717
-25.578226 18.594421 62.731892
-25.468596 11.956388 63.686535
-43.011902 32.709377 31.015831
-51.974918 6.064852 47.689659
-49.092793 10.469025 45.829998
-45.876213 15.14904 43.508587
-43.822662 19.23801 51.584927
-43.828434 20.087105 46.356758
-43.487549 20.452229 41.017708
-42.456795 26.347042 38.4487
-42.655754 32.466141 35.731232
-22.111269 22.191643 63.068451
-31.33914 20.975025 61.538815
-33.162079 23.053028 60.72876
-31.135815 24.256042 60.398788
-30.799919 27.519089 58.840645
-29.092922 25.518604 59.883163
-27.064882 26.916313 59.309376
-27.333807 23.644558 60.835228
-44.403778 18.129902 37.11277
-40.935223 33.116386 49.713032
-41.788723 30.869267 48.830517
-41.659027 33.896961 47.130516
-42.209023 34.449898 44.496407
-54.642143 6.044231 41.419456
-51.159618 9.251759 41.933613
-39.216099 15.966724 60.335453
-40.55304 17.715263 59.036922
-38.846142 19.199337 59.906338
-36.394814 27.182709 58.238445
-38.154091 25.791367 57.998787
-37.773003 29.060085 56.503418
-38.988663 30.702538 54.466888
-23.156981 30.37841 58.506344
-22.618858 33.771919 56.556789
-21.304262 32.511078 58.457813
-40.110592 9.80497 60.557072
-38.376278 8.005236 61.23901
-31.779814 8.171505 62.591892
-33.824345 10.13666 62.256306
-31.604462 11.2586 62.623947
-31.513439 14.445599 62.565208
-29.46702 12.467312 62.900654
-27.435631 13.795044 63.119278
-27.433546 10.551716 63.302338
-23.660198 6.853979 64.866379
-43.009186 23.913776 32.329765
-43.571995 24.166885 30.055792
-42.861206 26.854801 31.195305
-43.070202 29.833397 30.036579
-42.625893 29.697117 32.286942
-52.163975 3.022606 50.467167
-52.866383 3.822861 48.3386
-51.493439 5.395241 49.928669
-47.40184 12.032955 49.71862
-48.973675 10.053118 48.287571
-47.451378 12.431936 47.250237
-47.441952 12.746099 44.704849
-45.977646 14.911831 46.117935
-42.367783 20.53738 55.305893
-43.537987 18.470337 53.986019
-42.865032 21.53083 52.975338
-42.742851 25.744274 46.449287
-43.196487 22.716137 47.784409
-43.122982 23.009895 45.081306
-43.667656 20.294842 43.674423
-42.966537 23.197048 42.388062
-42.796932 23.343662 39.74498
-42.586319 26.199898 41.058758
-42.817841 35.110741 39.264626
-42.640793 32.308594 38.239441
-42.945824 35.316662 36.731476
-43.047287 35.474899 34.280357
-23.745773 16.914829 63.623318
-23.793447 20.293777 62.8241
-22.091866 18.742268 64.041664
-54.066284 5.309446 43.781258
-35.361168 18.540398 61.485733
-37.040768 20.568508 60.502598
-35.139828 21.841431 60.778637
-34.854805 25.14994 59.64447
-26.631508 30.18541 57.458237
-25.079533 28.519463 58.812557
-23.532209 27.013699 60.244957
-32.083633 5.221262 62.66066
-29.742678 6.237965 63.021637
-27.531075 7.384308 63.431458
-27.784502 4.338781 63.688847
-25.958113 2.470055 64.700089
-42.737278 23.687149 34.703903
-49.99646 7.095276 51.411762
-47.226898 11.486841 52.045952
-45.986427 14.145626 51.151413
-41.471504 26.884628 52.940727
-42.360378 24.644348 51.77364
-42.010986 27.77179 50.386341
-42.352024 28.392323 47.720692
-42.51955 28.802265 45.013863
-42.549988 29.068642 42.320366
-42.485737 31.845783 43.482742
-42.588127 34.835632 41.861771
-42.767029 37.744431 40.157635
-42.832138 13.057381 58.369652
-43.748058 14.397854 56.760555
-42.176929 16.111778 57.964226
-41.603428 19.256641 57.348789
-41.120529 22.465805 56.468887
-38.502579 22.48896 59.138565
-39.728287 24.221779 57.391945
-40.715263 25.700062 55.303108
-40.36414 28.912941 53.862164
-40.043236 32.059143 52.181385
-41.612358 11.508034 59.625572
-39.63599 12.826981 60.510735
-37.614929 14.078503 61.255188
-36.094994 9.065392 61.79092
-35.795605 12.117239 61.858723
-35.563797 15.286449 61.809612
-33.500587 16.480373 62.139717
-31.446449 17.695625 62.24369
-29.423723 18.97411 62.161777
-27.453655 20.363205 61.973797
-27.466656 17.074951 62.716339
-25.526075 15.270042 63.336971
-23.659184 13.529068 64.152512
-25.48035 8.687157 63.919033
-23.60704 10.161749 64.518936
-43.543011 32.783993 28.819757
-53.486557 4.576317 46.09832
-52.392204 6.685724 45.348289
-50.379143 7.724983 49.192879
-50.663132 8.262409 46.840553
-50.905972 8.756189 44.405937
-49.194752 10.851099 43.317719
-47.437584 13.03849 42.135895
-45.799194 15.376507 40.906685
-44.366276 15.489174 54.814537
-44.716835 16.31707 52.583256
-44.84705 16.898727 50.139301
-43.127323 22.24398 50.440216
-43.900974 19.758377 49.01556
-44.815273 17.280567 47.561008
-44.686279 17.528641 44.919975
-44.528351 17.714497 42.273582
-44.411263 17.900677 39.662632
-43.362015 20.616367 38.419674
-42.692841 23.49844 37.178299
-42.400375 26.497818 35.927216
-42.496456 29.254459 39.679001
-42.431122 29.407047 37.115845
-42.44239 29.552551 34.648178
-42.746162 32.600296 33.320358
-25.55426 21.910995 61.784245
-23.73756 23.65778 61.69873
-22.005554 25.626022 61.798115
-45.886212 15.806407 37.091881
-46.739102 14.690136 37.704967
-45.106579 16.886063 37.728561
-45.183411 17.050247 36.47609
-45.886212 15.806407 37.091881
-41.197457 34.99452 47.493778
-41.297125 33.506673 48.421774
-40.835555 34.604232 48.785036
-41.622509 35.361591 46.22183
-41.197457 34.99452 47.493778
-53.005758 7.608828 41.732256
-53.930173 6.98322 40.968739
-53.717727 6.66984 42.182974
-51.976465 8.273604 42.440052
-52.188911 8.586984 41.225817
-53.005758 7.608828 41.732256
-36.871029 29.745852 56.524691
-37.083908 28.121397 57.370931
-36.181934 28.807164 57.392204
-37.558159 30.656948 55.605049
-36.871029 29.745852 56.524691
-20.874854 30.200626 60.368427
-20.657127 31.926628 59.474865
-21.521989 30.785076 59.351376
-38.608673 6.59369 61.281391
-39.497912 7.460346 60.927419
-51.195137 5.01791 50.975872
-51.828707 4.208924 50.197918
-51.530405 3.831593 51.245121
-43.217422 38.138933 36.385143
-43.137321 36.78162 35.939791
-43.025925 36.673975 37.176828
-43.252956 39.446367 36.762453
-43.217422 38.138933 36.385143
-54.456642 4.273978 44.092858
-54.834396 4.696943 42.951748
-33.667846 27.384544 58.739672
-34.664825 26.789619 58.873611
-33.857826 25.744865 59.510531
-32.647695 27.965694 58.50655
-33.667846 27.384544 58.739672
-29.515487 29.762579 57.544815
-30.559914 29.13628 57.888134
-29.755491 28.145388 58.497326
-28.443785 30.391956 57.143688
-29.515487 29.762579 57.544815
-27.671285 29.478549 57.806122
-27.404008 31.098818 56.795803
-28.443785 30.391956 57.143688
-31.093087 4.274347 62.979826
-32.309297 3.830698 62.831272
-31.318751 2.883782 63.150438
-26.225013 1.045018 65.120087
-27.092021 1.965192 64.468018
-25.12458 1.548439 65.403717
-26.225013 1.045018 65.120087
-43.470163 20.951926 34.685208
-43.968226 19.621462 35.268906
-43.052038 22.254748 35.302143
-43.155403 22.384327 34.086968
-43.470163 20.951926 34.685208
-46.493752 12.4882 52.743246
-47.044925 11.116325 53.106308
-46.311779 12.117684 53.803602
-42.304423 38.76168 41.809036
-42.555166 38.954828 40.521814
-42.516285 37.551283 41.444857
-49.445988 11.471508 39.540102
-50.400537 10.514646 40.12478
-48.415489 12.304283 40.187792
-49.445988 11.471508 39.540102
-39.321283 32.941251 52.396856
-39.51595 31.38084 53.324136
-38.793997 32.262949 53.539608
-39.888645 33.580784 51.245643
-39.321283 32.941251 52.396856
-24.278005 33.509201 55.843744
-25.319645 32.649698 56.133772
-22.283982 35.4908 55.519262
-21.667082 34.886697 56.531166
-41.907751 10.040476 59.690275
-42.571359 10.806738 59.1353
-35.101082 8.101757 61.998272
-36.287775 7.611326 61.787449
-35.293863 6.647692 61.994801
-22.749668 9.271656 65.111557
-23.633619 8.507864 64.692657
-22.776247 7.617771 65.285279
-22.760061 10.987012 64.89125
-22.749668 9.271656 65.111557
-44.016683 24.297483 28.963527
-43.550272 25.606105 29.522359
-43.286581 34.181059 30.341474
-43.552135 34.218367 29.243437
-43.277456 32.746685 29.917794
-43.132778 35.532045 33.101859
-43.279835 36.937063 33.515335
-30.369321 1.964385 63.612646
-31.318751 2.883782 63.150438
-29.164235 2.39388 63.767469
-30.369321 1.964385 63.612646
-44.486716 18.27524 35.875099
-45.183411 17.050247 36.47609
-43.885288 19.476124 36.506576
-43.968226 19.621462 35.268906
-44.486716 18.27524 35.875099
-45.531023 13.043119 54.462137
-46.311779 12.117684 53.803602
-41.897507 35.638059 44.904776
-41.934025 34.173429 45.813462
-41.622509 35.361591 46.22183
-41.925766 37.092178 44.022612
-42.237282 35.904016 43.614243
-41.897507 35.638059 44.904776
-41.900114 38.500841 43.067635
-41.925766 37.092178 44.022612
-54.941919 6.417283 40.227752
-55.499046 5.484735 40.612167
-54.941919 6.417283 40.227752
-53.930173 6.98322 40.968739
-51.313116 9.516015 40.694693
-52.188911 8.586984 41.225817
-50.247039 10.250391 41.363701
-50.400537 10.514646 40.12478
-51.313116 9.516015 40.694693
-38.165989 31.478175 54.586784
-38.380833 29.881312 55.485153
-37.558159 30.656948 55.605049
-38.793997 32.262949 53.539608
-38.165989 31.478175 54.586784
-21.009784 34.256277 57.481678
-21.667082 34.886697 56.531166
-21.96156 33.141498 57.507301
-20.407369 33.703909 58.566024
-21.009784 34.256277 57.481678
-20.407369 33.703909 58.566024
-20.657127 31.926628 59.474865
-40.365068 8.360214 60.58645
-41.156868 9.188944 60.156025
-39.243435 8.905103 60.898041
-40.365068 8.360214 60.58645
-39.497912 7.460346 60.927419
-23.768276 5.255833 65.108406
-24.643948 6.180997 64.534172
-24.752026 4.582852 64.776199
-22.83185 5.943687 65.536537
-23.768276 5.255833 65.108406
-22.776247 7.617771 65.285279
-22.83185 5.943687 65.536537
-43.290591 24.04033 31.192779
-43.806624 22.776353 30.593036
-43.525219 22.649799 31.730023
-43.194878 26.950063 30.092115
-43.550272 25.606105 29.522359
-43.2166 25.510843 30.625549
-42.965704 28.344099 30.615942
-43.299375 28.439362 29.512752
-43.194878 26.950063 30.092115
-52.515179 3.422734 49.402884
-53.045088 2.662678 48.55415
-52.693884 2.262551 49.618433
-43.188053 36.860738 34.714231
-42.996555 35.395781 35.505916
-43.137321 36.78162 35.939791
-43.279835 36.937063 33.515335
-43.188053 36.860738 34.714231
-55.122326 5.064336 41.770847
-55.499046 5.484735 40.612167
-54.354214 5.676839 42.600357
-55.122326 5.064336 41.770847
-54.834396 4.696943 42.951748
-35.43483 27.806003 58.170599
-35.624809 26.166325 58.941457
-34.664825 26.789619 58.873611
-36.181934 28.807164 57.392204
-35.43483 27.806003 58.170599
-31.617232 28.555344 58.238577
-32.647695 27.965694 58.50655
-31.830383 26.92944 59.108618
-31.617232 28.555344 58.238577
-30.559914 29.13628 57.888134
-26.338743 31.824328 56.417412
-27.404008 31.098818 56.795803
-25.612409 31.010781 57.174597
-25.319645 32.649698 56.133772
-26.338743 31.824328 56.417412
-34.306662 5.716782 62.265991
-35.293863 6.647692 61.994801
-33.294893 4.758351 62.49351
-32.309297 3.830698 62.831272
-33.095402 6.179692 62.433142
-34.306662 5.716782 62.265991
-33.294893 4.758351 62.49351
-28.005215 2.899555 63.962397
-28.943521 3.833106 63.49392
-29.164235 2.39388 63.767469
-26.871308 3.404418 64.194468
-28.005215 2.899555 63.962397
-27.092021 1.965192 64.468018
-24.917234 3.063871 65.025261
-24.752026 4.582852 64.776199
-25.792905 3.989035 64.451027
-24.917234 3.063871 65.025261
-25.12458 1.548439 65.403717
-43.291357 22.49764 32.899899
-43.525219 22.649799 31.730023
-42.873232 23.800463 33.516834
-43.291357 22.49764 32.899899
-43.155403 22.384327 34.086968
-49.727356 6.714491 52.430424
-50.446647 5.867928 51.717419
-49.216378 7.994778 52.113342
-49.727356 6.714491 52.430424
-48.60611 9.219978 51.725256
-49.386192 8.320476 51.023676
-49.216378 7.994778 52.113342
-47.831597 10.190561 52.430437
-47.044925 11.116325 53.106308
-48.001412 10.516258 51.340771
-48.60611 9.219978 51.725256
-47.831597 10.190561 52.430437
-42.864115 39.152283 39.267105
-43.033614 39.295712 37.999378
-42.936527 37.88786 38.889908
-42.864115 39.152283 39.267105
-42.555166 38.954828 40.521814
-42.304423 38.76168 41.809036
-41.900114 38.500841 43.067635
-21.243567 16.23649 65.124775
-21.193973 14.454328 65.459457
-46.652948 14.500883 38.963074
-46.739102 14.690136 37.704967
-43.290098 13.727618 57.565103
-44.156652 12.929477 56.993606
-43.698692 12.259241 57.798155
-40.334639 34.109405 50.011467
-40.48923 32.587764 50.947209
-39.888645 33.580784 51.245643
-40.835555 34.604232 48.785036
-40.334639 34.109405 50.011467
-23.290778 34.477085 55.67666
-24.278005 33.509201 55.843744
-23.606085 32.804035 56.723873
-23.290778 34.477085 55.67666
-22.283982 35.4908 55.519262
-52.228255 1.804576 50.634369
-52.693884 2.262551 49.618433
-51.751328 2.588133 51.461035
-52.228255 1.804576 50.634369
-51.530405 3.831593 51.245121
-51.751328 2.588133 51.461035
-43.181249 11.581411 58.50734
-43.698692 12.259241 57.798155
-42.222248 12.282708 58.997612
-43.181249 11.581411 58.50734
-42.571359 10.806738 59.1353
-40.861475 10.656502 60.091322
-41.907751 10.040476 59.690275
-41.156868 9.188944 60.156025
-37.428417 7.081249 61.511494
-38.608673 6.59369 61.281391
-37.235636 8.535314 61.514965
-37.428417 7.081249 61.511494
-36.287775 7.611326 61.787449
-22.786133 12.670672 64.708039
-23.633112 11.845409 64.335724
-22.760061 10.987012 64.89125
-21.958087 13.544689 65.00571
-22.831138 14.403085 64.450184
-22.786133 12.670672 64.708039
-21.193973 14.454328 65.459457
-21.958087 13.544689 65.00571
-44.189422 22.941387 29.464509
-43.806624 22.776353 30.593036
-44.189422 22.941387 29.464509
-44.016683 24.297483 28.963527
-43.454953 29.891281 28.96438
-43.299375 28.439362 29.512752
-43.691357 31.366579 28.355969
-43.454953 29.891281 28.96438
-43.306607 31.308695 29.428168
-43.971777 32.79975 27.771896
-43.691357 31.366579 28.355969
-43.854378 34.220627 28.165332
-44.283144 34.236384 27.11747
-43.971777 32.79975 27.771896
-43.854378 34.220627 28.165332
-43.552135 34.218367 29.243437
-53.465429 3.102474 47.483905
-53.045088 2.662678 48.55415
-53.775516 3.479202 46.363765
-53.465429 3.102474 47.483905
-53.17647 4.199589 47.21846
-54.166778 3.907414 45.251389
-53.775516 3.479202 46.363765
-53.776421 4.942882 44.939789
-54.456642 4.273978 44.092858
-54.166778 3.907414 45.251389
-50.74495 6.245259 50.670215
-51.195137 5.01791 50.975872
-50.446647 5.867928 51.717419
-47.46705 13.199016 40.858845
-48.415489 12.304283 40.187792
-48.386022 12.143756 41.464842
-46.647855 14.368025 40.24424
-47.46705 13.199016 40.858845
-46.618389 14.207498 41.52129
-45.804287 15.509365 39.625519
-46.652948 14.500883 38.963074
-46.647855 14.368025 40.24424
-44.524749 13.497266 56.122144
-44.156652 12.929477 56.993606
-44.833858 14.042926 55.149135
-44.524749 13.497266 56.122144
-44.057167 14.943514 55.787546
-45.06344 14.489366 54.127538
-45.531023 13.043119 54.462137
-44.833858 14.042926 55.149135
-42.982215 34.094743 32.621859
-42.896724 34.037598 33.800358
-43.132778 35.532045 33.101859
-43.115085 34.149284 31.469596
-42.879032 32.654837 32.168094
-42.982215 34.094743 32.621859
-43.286581 34.181059 30.341474
-43.115085 34.149284 31.469596
-43.252956 39.446367 36.762453
-43.033614 39.295712 37.999378
-21.287954 17.969072 64.771679
-22.047479 17.009685 64.39476
-21.243567 16.23649 65.124775
-21.319954 19.746315 64.335613
-21.287954 17.969072 64.771679
-21.329656 21.471002 63.849007
-22.101568 20.466955 63.555058
-21.319954 19.746315 64.335613
-21.314111 23.239242 63.286846
-21.329656 21.471002 63.849007
-21.261254 24.956432 62.651678
-22.058411 23.908832 62.433283
-21.314111 23.239242 63.286846
-21.175565 26.719011 61.958144
-21.261254 24.956432 62.651678
-21.042647 28.435537 61.181555
-21.872635 27.342548 61.021527
-21.175565 26.719011 61.958144
-20.874854 30.200626 60.368427
-21.042647 28.435537 61.181555
3 0 51 49
3 0 53 51
3 0 55 53
3 1 192 193
3 1 194 196
3 194 56 195
3 194 195 196
3 197 59 198
3 199 198 57
3 197 198 199
3 201 200 59
3 2 202 204
3 204 203 61
3 202 203 204
3 2 205 207
3 205 62 206
3 205 206 207
3 3 65 63
3 208 68 209
3 210 209 66
3 208 209 210
3 212 211 68
3 5 72 70
3 5 213 215
3 215 214 72
3 213 214 215
3 216 74 217
3 6 77 75
3 6 79 77
3 6 81 79
3 8 85 83
3 8 87 85
3 218 90 219
3 220 219 88
3 218 219 220
3 9 93 91
3 9 95 93
3 4 98 96
3 10 101 99
3 10 103 101
3 10 105 103
3 11 108 106
3 11 221 223
3 223 222 108
3 221 222 223
3 11 224 225
3 7 112 110
3 226 113 227
3 12 116 114
3 14 117 50
3 14 228 230
3 230 229 117
3 228 229 230
3 14 231 232
3 15 233 235
3 235 234 52
3 233 234 235
3 15 236 237
3 15 238 240
3 238 118 239
3 238 239 240
3 17 119 54
3 17 120 119
3 19 241 243
3 241 121 242
3 241 242 243
3 19 122 121
3 19 124 122
3 244 125 245
3 247 246 125
3 21 248 249
3 21 250 252
3 250 126 251
3 250 251 252
3 23 253 255
3 253 128 254
3 253 254 255
3 23 129 128
3 24 132 130
3 26 133 58
3 26 134 133
3 26 136 134
3 28 137 60
3 28 138 137
3 28 256 258
3 258 257 138
3 256 257 258
3 29 259 260
3 29 261 262
3 30 141 139
3 32 142 64
3 32 143 142
3 13 144 115
3 33 145 67
3 33 146 145
3 33 147 146
3 263 148 264
3 265 264 69
3 263 264 265
3 267 266 148
3 16 268 269
3 271 270 71
3 272 149 273
3 34 150 73
3 34 151 150
3 18 274 276
3 274 152 275
3 274 275 276
3 35 153 76
3 35 154 153
3 35 155 154
3 36 156 78
3 36 157 156
3 36 159 157
3 38 160 80
3 38 161 160
3 20 162 123
3 277 163 278
3 279 278 82
3 277 278 279
3 281 280 163
3 283 282 84
3 39 164 86
3 39 284 286
3 286 285 164
3 284 285 286
3 40 165 89
3 40 166 165
3 22 167 127
3 41 168 92
3 41 169 168
3 41 170 169
3 42 171 94
3 42 172 171
3 31 173 140
3 43 174 97
3 43 175 174
3 25 176 131
3 44 177 100
3 44 178 177
3 44 179 178
3 45 180 102
3 45 181 180
3 45 182 181
3 46 183 104
3 46 184 183
3 27 185 135
3 47 186 107
3 47 187 186
3 47 188 187
3 288 287 109
3 37 189 158
3 48 190 111
3 48 191 190
3 49 50 12
3 51 50 49
3 51 14 50
3 51 52 14
3 53 52 51
3 53 15 52
3 53 54 15
3 55 54 53
3 55 17 54
3 289 19 290
3 292 291 19
3 56 293 294
3 56 295 297
3 295 21 296
3 295 296 297
3 298 23 299
3 57 58 24
3 59 58 57
3 59 26 58
3 59 60 26
3 300 60 301
3 302 301 59
3 300 301 302
3 303 28 304
3 305 304 60
3 303 304 305
3 307 306 28
3 61 308 309
3 311 310 61
3 62 312 313
3 62 314 316
3 314 29 315
3 314 315 316
3 63 64 30
3 65 64 63
3 65 32 64
3 66 67 13
3 68 67 66
3 68 33 67
3 68 69 33
3 317 69 318
3 319 318 68
3 317 318 319
3 321 320 69
3 70 71 16
3 72 71 70
3 72 322 324
3 324 323 71
3 322 323 324
3 72 325 326
3 328 327 72
3 329 73 330
3 74 331 333
3 331 73 332
3 331 332 333
3 74 34 73
3 75 76 18
3 77 76 75
3 77 35 76
3 77 78 35
3 79 78 77
3 79 36 78
3 79 80 36
3 81 80 79
3 81 38 80
3 334 82 335
3 336 335 20
3 334 335 336
3 337 82 338
3 340 339 82
3 83 341 343
3 341 84 342
3 341 342 343
3 85 84 83
3 85 344 346
3 346 345 84
3 344 345 346
3 85 347 349
3 347 86 348
3 347 348 349
3 87 86 85
3 87 39 86
3 88 350 352
3 350 89 351
3 350 351 352
3 90 89 88
3 90 40 89
3 91 92 22
3 93 92 91
3 93 41 92
3 93 94 41
3 95 94 93
3 95 42 94
3 96 97 31
3 98 97 96
3 98 43 97
3 99 100 25
3 101 100 99
3 101 44 100
3 101 102 44
3 103 102 101
3 103 45 102
3 103 104 45
3 105 104 103
3 105 46 104
3 106 107 27
3 108 107 106
3 108 47 107
3 108 109 47
3 353 109 354
3 355 354 108
3 353 354 355
3 357 356 109
3 110 111 37
3 112 111 110
3 112 48 111
3 358 61 359
3 113 360 362
3 360 61 361
3 360 361 362
3 113 2 61
3 114 115 3
3 116 115 114
3 116 13 115
3 50 116 12
3 117 116 50
3 117 13 116
3 117 66 13
3 363 66 364
3 365 364 117
3 363 364 365
3 367 366 66
3 52 368 370
3 370 369 14
3 368 369 370
3 372 371 52
3 118 373 374
3 118 375 377
3 375 16 376
3 375 376 377
3 54 118 15
3 119 118 54
3 119 16 118
3 119 70 16
3 120 70 119
3 120 5 70
3 378 18 379
3 121 380 381
3 121 382 384
3 382 18 383
3 382 383 384
3 121 75 18
3 122 75 121
3 122 6 75
3 122 123 6
3 124 123 122
3 124 20 123
3 385 124 386
3 387 386 19
3 385 386 387
3 125 388 390
3 388 124 389
3 388 389 390
3 125 20 124
3 125 391 393
3 393 392 20
3 391 392 393
3 395 394 125
3 396 83 397
3 126 398 400
3 398 83 399
3 398 399 400
3 126 8 83
3 401 127 402
3 403 127 404
3 405 22 406
3 407 406 127
3 405 406 407
3 128 408 409
3 128 410 412
3 410 22 411
3 410 411 412
3 128 91 22
3 129 91 128
3 129 9 91
3 130 131 4
3 132 131 130
3 132 25 131
3 58 132 24
3 133 132 58
3 133 25 132
3 133 99 25
3 134 99 133
3 134 10 99
3 134 135 10
3 136 135 134
3 136 27 135
3 60 136 26
3 137 136 60
3 137 27 136
3 137 106 27
3 138 106 137
3 138 11 106
3 138 413 415
3 415 414 11
3 413 414 415
3 417 416 138
3 419 418 28
3 421 420 7
3 422 1 423
3 139 424 426
3 424 140 425
3 424 425 426
3 141 140 139
3 141 31 140
3 64 141 30
3 142 141 64
3 142 31 141
3 142 96 31
3 143 96 142
3 143 4 96
3 115 65 3
3 144 65 115
3 144 32 65
3 67 144 13
3 145 144 67
3 145 32 144
3 145 143 32
3 146 143 145
3 146 4 143
3 146 130 4
3 147 130 146
3 147 24 130
3 69 147 33
3 148 147 69
3 148 24 147
3 148 57 24
3 427 57 428
3 429 428 148
3 427 428 429
3 431 430 57
3 71 432 434
3 434 433 16
3 432 433 434
3 436 435 71
3 437 88 438
3 439 88 440
3 442 441 88
3 443 139 444
3 149 445 447
3 445 139 446
3 445 446 447
3 149 30 139
3 73 448 450
3 448 149 449
3 448 449 450
3 150 149 73
3 150 30 149
3 150 63 30
3 151 63 150
3 151 3 63
3 451 74 452
3 152 453 455
3 453 74 454
3 453 454 455
3 152 34 74
3 76 152 18
3 153 152 76
3 153 34 152
3 153 151 34
3 154 151 153
3 154 3 151
3 154 114 3
3 155 114 154
3 155 12 114
3 78 155 35
3 156 155 78
3 156 12 155
3 156 49 12
3 157 49 156
3 157 0 49
3 157 158 0
3 159 158 157
3 159 37 158
3 80 159 36
3 160 159 80
3 160 37 159
3 160 110 37
3 161 110 160
3 161 7 110
3 123 81 6
3 162 81 123
3 162 38 81
3 82 162 20
3 163 162 82
3 163 38 162
3 163 161 38
3 456 161 457
3 458 457 163
3 456 457 458
3 459 7 460
3 461 460 161
3 459 460 461
3 463 462 7
3 84 464 465
3 467 466 84
3 86 468 469
3 164 470 472
3 472 471 86
3 470 471 472
3 164 473 474
3 164 475 477
3 475 476 477
3 479 478 164
3 89 480 481
3 165 482 484
3 484 483 89
3 482 483 484
3 165 485 486
3 165 487 489
3 487 113 488
3 487 488 489
3 166 113 165
3 166 2 113
3 127 490 492
3 490 90 491
3 490 491 492
3 167 90 127
3 167 40 90
3 92 167 22
3 168 167 92
3 168 40 167
3 168 166 40
3 169 166 168
3 169 2 166
3 169 62 2
3 170 62 169
3 170 29 62
3 94 170 41
3 171 170 94
3 171 29 170
3 171 493 495
3 495 494 29
3 493 494 495
3 172 496 498
3 498 497 171
3 496 497 498
3 172 499 501
3 499 1 500
3 499 500 501
3 140 502 503
3 173 504 506
3 506 505 140
3 504 505 506
3 173 507 509
3 507 23 508
3 507 508 509
3 97 173 31
3 174 173 97
3 174 23 173
3 174 129 23
3 175 129 174
3 175 9 129
3 131 98 4
3 176 98 131
3 176 43 98
3 100 176 25
3 177 176 100
3 177 43 176
3 177 175 43
3 178 175 177
3 178 9 175
3 178 95 9
3 179 95 178
3 179 42 95
3 102 179 44
3 180 179 102
3 180 42 179
3 180 172 42
3 181 172 180
3 181 1 172
3 181 56 1
3 182 56 181
3 182 21 56
3 104 182 45
3 183 182 104
3 183 21 182
3 183 126 21
3 184 126 183
3 184 8 126
3 135 105 10
3 185 105 135
3 185 46 105
3 107 185 27
3 186 185 107
3 186 46 185
3 186 184 46
3 187 184 186
3 187 8 184
3 187 87 8
3 188 87 187
3 188 39 87
3 109 188 47
3 510 188 511
3 512 511 109
3 510 511 512
3 513 39 514
3 515 514 188
3 513 514 515
3 517 516 39
3 519 518 11
3 158 55 0
3 189 55 158
3 189 17 55
3 111 189 37
3 190 189 111
3 190 17 189
3 190 120 17
3 191 120 190
3 191 5 120
3 520 112 521
3 522 521 7
3 520 521 522
3 523 112 524
3 525 48 526
3 527 526 112
3 525 526 527
3 528 48 529
3 530 191 531
3 532 531 48
3 530 531 532
3 533 191 534
3 535 5 536
3 537 536 191
3 535 536 537
3 539 538 5
