ply
format ascii 1.0
element vertex 734
property float x
property float y
property float z
element face 905
property list uchar int vertex_index
end_header
50.343964 -24.053705 -44.472748
70.561867 -40.460625 -26.609884
62.341675 -24.61515 -19.588839
53.287331 -1.474695 -54.474251
62.446362 -33.611233 -40.036118
66.415741 -9.123349 -37.322098
68.524773 -30.525045 -23.853373
65.808983 -16.631737 -28.29756
69.805908 -24.550688 -31.535799
66.350418 -20.12406 -39.887909
67.099739 -37.529243 -33.698372
63.673462 -37.013596 -16.203604
44.215004 -1.799307 -56.575638
52.845589 -13.260794 -51.396118
65.052704 -54.293442 -28.189619
59.996002 -51.310184 -32.978561
54.585487 -45.974083 -36.250626
56.71302 -28.525669 -43.966263
61.158287 4.898516 -41.802475
61.474823 -4.093284 -46.644333
60.501053 -16.359247 -47.876183
70.699593 -34.809647 -25.27286
69.829353 -27.366209 -27.642298
70.522453 -32.54982 -28.998243
69.203865 -30.580036 -32.763718
69.15448 -39.02697 -30.23807
48.719765 4.675463 -56.479866
43.967274 4.0723 -57.937431
48.756363 -1.152611 -56.443459
48.859573 -7.0068 -54.407509
53.237244 -7.380136 -53.857033
62.628086 -53.165413 -30.862261
66.776787 -12.644592 -32.755951
64.86628 -5.568439 -35.109871
62.880089 1.194704 -36.798134
63.918472 -1.88969 -39.938835
61.490303 1.034113 -44.720482
64.561813 -6.27311 -41.986435
64.823593 -26.858294 -40.445419
63.641052 -18.234726 -44.133568
62.212494 -24.800062 -43.941635
59.161499 -22.590216 -46.558418
59.808037 -31.161064 -42.473549
53.444496 4.328398 -53.42495
65.032547 -27.315819 -22.085421
64.080551 -20.729996 -23.914698
67.188171 -23.5779 -26.088427
68.477928 -19.935482 -30.153124
68.426849 -16.695812 -34.375946
66.97744 -14.026842 -38.802094
68.522362 -22.164593 -35.620018
67.175034 -28.743587 -36.608345
64.816742 -35.748047 -37.003578
60.966759 -34.055183 -14.032915
62.732853 -30.864164 -18.0693
66.258423 -33.822239 -20.064962
69.603012 -37.416405 -21.536711
70.937523 -42.131958 -22.821589
44.509468 -7.845903 -53.321777
48.652172 -13.035687 -50.721069
48.019768 -19.424166 -46.47538
51.798691 -19.070889 -47.735252
69.851906 -48.079468 -24.009378
67.000923 -54.854828 -24.833937
68.43647 -47.189983 -27.724489
66.365471 -46.151718 -31.010485
63.98642 -44.625038 -33.868416
61.547638 -42.537163 -36.370773
57.32695 -48.852257 -34.751244
59.020771 -39.997578 -38.480423
56.22023 -37.132942 -40.025948
53.116867 -34.006912 -40.940651
53.314064 -25.9643 -44.481537
60.861244 7.378521 -37.604462
58.311546 10.949835 -42.70826
58.078423 7.748055 -46.621788
57.839897 3.110346 -49.324249
57.59901 -2.498753 -50.994232
64.423767 -11.873675 -43.360832
61.146751 -10.065785 -47.777718
57.38308 -8.521705 -51.504974
56.881767 -14.576948 -50.458977
55.603432 -20.479523 -47.84008
70.922119 -37.468407 -25.950144
70.771721 -33.636753 -27.134214
70.630028 -36.531429 -27.806391
70.060562 -35.657982 -29.646307
69.967842 -39.733124 -28.446184
51.03336 1.716736 -55.61364
48.703045 1.766628 -56.701637
51.037399 -1.211519 -55.680054
51.066803 -4.141141 -55.270172
53.274544 -4.429379 -54.398491
61.906631 -23.335852 -18.024637
62.37822 -21.451777 -20.230139
66.783615 -10.807759 -35.024651
65.838348 -9.075702 -33.991852
65.713364 -7.188378 -36.340385
64.576439 -3.64617 -37.526466
65.214218 -5.460441 -38.701408
64.331848 -3.91384 -41.070183
65.667274 -7.610375 -39.645424
63.753418 -30.264317 -40.386261
63.559731 -25.853842 -42.267258
62.500114 -29.174833 -41.967957
61.154518 -28.02302 -43.366333
61.177349 -32.419445 -41.354324
51.273399 7.419935 -54.256798
53.637268 7.057232 -52.39994
66.824097 -28.821201 -23.039507
66.176033 -25.454882 -24.085215
67.874008 -27.055496 -24.972055
69.989563 -25.90642 -29.569532
69.205353 -23.640093 -28.875204
69.37928 -22.057795 -30.874533
68.633995 -18.249666 -32.239899
69.199234 -20.593662 -32.922287
68.681427 -19.259155 -35.02562
69.302063 -23.305214 -33.551178
68.300293 -33.987309 -33.293892
68.248375 -29.656853 -34.676842
67.232239 -33.134247 -35.108727
66.106697 -32.238731 -36.911942
65.968895 -36.681892 -35.372787
62.037308 -35.515282 -15.200727
61.750103 -32.509594 -16.051622
63.14624 -33.949303 -17.185228
64.368515 -32.297062 -19.152502
64.962662 -35.446083 -18.146044
68.649086 -38.824696 -19.65354
69.966202 -40.834843 -20.285715
70.582817 -39.614517 -22.187506
70.690964 -43.128284 -20.887686
44.062439 1.143999 -57.515999
41.812977 0.414455 -57.23748
39.648804 -0.621851 -56.554192
42.01619 -2.573503 -56.004959
42.231697 -5.630115 -54.341637
44.377579 -4.782035 -55.150009
50.96991 -10.005982 -52.986427
48.810394 -9.985215 -52.714859
50.749607 -12.970045 -51.235298
50.38868 -15.963767 -49.255768
52.407299 -16.188616 -49.638115
66.100693 -54.620705 -26.595404
67.813217 -51.090981 -26.343775
66.865967 -50.742538 -28.06418
67.462082 -46.716431 -29.424639
65.782677 -50.296879 -29.638582
63.3629 -48.955536 -32.365181
62.098801 -48.034294 -33.551155
62.769501 -43.646603 -35.162109
60.827553 -46.958946 -34.644119
53.52729 -50.415127 -34.474678
54.923523 -51.871456 -33.765274
55.972736 -47.45813 -35.538002
58.250862 -44.435394 -36.576233
56.909691 -43.028267 -37.39917
57.663635 -38.600342 -39.334312
55.50811 -41.540237 -38.106697
51.532455 -32.34676 -41.245041
64.993904 -18.6901 -26.098913
62.189564 3.137457 -39.316963
61.877476 4.385962 -37.312279
60.968559 6.311493 -39.867073
59.735619 9.266687 -40.184494
59.738594 8.044609 -42.376617
58.185261 9.548403 -44.825401
59.78009 6.444199 -44.243179
61.530548 -1.391504 -45.784859
59.789127 2.179686 -47.059135
59.718067 -0.410477 -48.083168
57.712898 0.391027 -50.285378
59.609344 -3.226766 -48.887367
66.795372 -16.955204 -39.390854
65.813301 -12.89614 -41.075996
65.527824 -15.945345 -41.621506
62.12735 -17.296717 -46.107735
62.549553 -14.083942 -45.984642
60.879608 -13.200961 -47.984901
59.318062 -9.257927 -49.77095
59.096252 -12.351741 -49.751534
57.200367 -11.559086 -51.195312
58.752846 -15.440285 -49.352097
58.088875 -25.606464 -45.380928
57.436913 -21.495089 -47.380577
56.373795 -24.411522 -45.928352
54.585461 -23.303127 -46.173187
55.024029 -27.211449 -44.328362
69.87545 -32.502552 -24.582178
69.329636 -28.913742 -25.741568
70.333481 -31.095711 -26.449488
70.456802 -29.774448 -28.328848
70.246796 -28.545599 -30.230997
69.732376 -27.407444 -32.166306
69.982582 -31.536972 -30.87229
69.263428 -34.819687 -31.473795
68.178505 -38.303215 -31.98736
46.400887 7.387678 -57.047318
46.330154 4.501127 -57.433525
46.369446 1.585596 -57.342674
46.47176 -1.335859 -56.737556
46.58577 -4.271431 -55.618416
48.826557 -4.072154 -55.673943
51.062595 -7.068329 -54.361969
53.11198 -10.322845 -52.83992
63.883568 -53.818871 -29.608541
53.154572 -44.401993 -36.879417
66.430977 -14.600533 -30.514872
63.267006 -0.88969 -34.254974
63.876823 -2.13674 -36.057976
63.395767 -0.195572 -38.530975
62.557957 1.572666 -40.984238
61.354561 3.138227 -43.409302
62.882423 -0.324629 -42.340576
63.088463 -2.557596 -43.437157
63.145119 -5.104816 -44.328941
65.686241 -23.452942 -40.25856
65.049973 -19.172628 -42.037018
64.397804 -22.499722 -42.272865
63.024132 -21.522429 -44.186951
61.548092 -20.518196 -45.924599
59.949913 -19.499342 -47.404259
60.753288 -23.704865 -45.395164
59.687584 -26.824451 -44.519836
58.318596 -29.854477 -43.351219
48.846535 7.531567 -55.829567
51.10276 4.613655 -55.121399
53.331856 1.460661 -54.130806
63.447075 -25.933084 -20.943701
63.166222 -22.713804 -21.74365
64.510948 -24.032074 -23.023428
65.558716 -22.075956 -25.108015
66.492737 -20.10047 -27.202845
68.689934 -25.31665 -26.912493
67.979729 -21.72427 -28.106676
67.220284 -18.148849 -29.316637
67.662796 -16.266947 -31.459139
67.763847 -14.496752 -33.638641
67.494293 -12.870119 -35.86013
66.854019 -11.40379 -38.123299
67.864204 -15.288528 -36.564499
67.863548 -18.051613 -37.184883
67.521095 -21.112352 -37.7379
68.963112 -26.349596 -34.141975
67.998032 -25.353931 -36.158607
66.892395 -24.396847 -38.205948
66.026978 -27.817215 -38.542145
64.947784 -31.285065 -38.683411
63.648621 -34.723534 -38.569984
61.683357 -26.419786 -17.457567
60.420387 -35.499924 -12.018511
61.013763 -31.102928 -14.749235
61.629105 -29.478363 -16.801008
62.459976 -27.753448 -18.868204
63.853851 -29.127346 -20.081125
65.624687 -30.578892 -21.102537
67.474861 -32.171513 -21.964788
66.89801 -37.049736 -18.955446
68.095406 -35.505184 -20.843706
69.111572 -33.979881 -22.716673
70.302055 -36.071854 -23.408407
70.907875 -38.491875 -24.076609
70.893188 -41.249184 -24.732409
46.663895 -7.252413 -54.03624
46.669998 -10.319242 -52.094658
48.381298 -16.176893 -48.58709
49.908539 -18.966032 -47.230629
49.37973 -21.944212 -45.342743
51.064526 -21.803055 -45.905525
47.609161 -22.835096 -44.495384
48.946014 -25.089565 -43.635941
50.286743 -26.899292 -43.138069
70.669159 -44.966259 -23.437799
70.306656 -44.314545 -25.358824
67.737442 -55.0653 -22.929785
68.593613 -51.403942 -24.491213
69.244644 -47.624191 -25.914328
69.69912 -43.729679 -27.219374
68.880447 -43.161438 -29.006632
67.897919 -42.559799 -30.715212
66.805634 -41.883316 -32.347275
64.60173 -49.708981 -31.067732
65.193459 -45.460167 -32.487915
65.65451 -41.10405 -33.909019
64.481468 -40.208782 -35.40464
63.301773 -39.196915 -36.829826
62.107414 -38.076614 -38.167412
56.311058 -53.227257 -33.014153
58.664101 -50.143654 -33.898674
59.549686 -45.75164 -35.653496
60.306679 -41.314758 -37.484009
60.872536 -36.860672 -39.38739
59.56448 -35.563221 -40.452057
58.157646 -34.198524 -41.325928
56.644859 -32.781387 -41.987961
54.040962 -39.972778 -38.691277
54.695354 -35.601044 -40.553177
55.044384 -31.328682 -42.442665
53.401413 -29.860064 -42.727844
51.785751 -28.391851 -42.918594
51.682976 -24.862015 -44.499268
63.017273 -19.473639 -22.473715
62.496788 2.309753 -34.724396
61.712547 5.328056 -34.98423
59.816467 10.09411 -37.698418
58.487526 11.923822 -40.290108
56.884911 13.534378 -42.81443
56.591358 12.38883 -45.155357
56.333508 10.792267 -47.191437
56.099785 8.791172 -48.911583
59.808025 4.480104 -45.792442
57.965431 5.584896 -48.111191
55.887409 6.445086 -50.330322
55.70599 3.826534 -51.467545
55.569656 1.015619 -52.327225
55.482262 -1.91095 -52.885445
65.869614 -10.098787 -40.421867
64.586639 -8.943423 -42.740913
63.059685 -7.919228 -45.053139
64.103287 -14.995388 -43.838486
62.856255 -10.935923 -45.614929
61.342049 -7.008033 -47.314842
59.47765 -6.198169 -49.463364
57.49807 -5.488594 -51.419075
55.424698 -4.890806 -53.092682
55.351513 -7.882296 -52.891022
55.199265 -10.863755 -52.240616
54.902603 -13.825422 -51.145271
58.218925 -18.495949 -48.551498
56.363674 -17.55773 -49.313881
54.412491 -16.756962 -49.671333
53.706318 -19.630442 -47.947517
52.790474 -22.378202 -46.153778
53.770349 8.309332 -51.736892
52.594488 8.554759 -52.728531
62.855385 -36.264439 -15.702165
62.25211 -37.00716 -14.718575
63.070187 -37.756318 -15.220014
70.066857 -42.536623 -19.612803
69.531254 -41.484949 -19.329012
70.429237 -43.683343 -19.913788
70.328583 -41.981564 -20.5867
70.066857 -42.536623 -19.612803
65.576699 -54.457073 -27.392511
65.134461 -56.375584 -26.617278
64.610466 -56.211952 -27.414385
61.047401 -49.672239 -33.264858
61.710667 -50.179784 -32.763267
60.659267 -51.817729 -32.476969
65.152352 -15.968528 -27.66552
64.744812 -16.997709 -26.566197
65.401443 -17.660919 -27.198237
66.203045 -11.866231 -32.206849
66.03014 -12.844202 -31.086309
66.603882 -13.622563 -31.635412
64.84803 -6.594426 -33.901612
65.334064 -8.348058 -33.342602
65.352314 -7.32207 -34.550861
64.454064 -4.890629 -34.34082
64.84803 -6.594426 -33.901612
64.371552 -3.852589 -35.583923
63.959335 -3.174779 -34.814873
64.454064 -4.890629 -34.34082
48.975232 8.896242 -55.31451
47.730446 8.858733 -56.031678
61.465309 -27.272231 -16.408714
61.668486 -25.771583 -16.664169
60.693573 -34.777553 -13.025713
60.761776 -36.240656 -12.610188
61.034962 -35.518286 -13.617389
60.807817 -33.342849 -13.376592
60.534632 -34.06522 -12.36939
60.693573 -34.777553 -13.025713
60.990261 -32.579055 -14.391075
60.831319 -31.866722 -13.734752
60.807817 -33.342849 -13.376592
67.199951 -38.6586 -18.355064
66.248333 -37.815117 -18.000568
42.79047 5.183848 -58.069751
43.972187 5.525975 -57.894085
38.621262 -1.294071 -56.043602
39.774928 -2.146806 -55.824807
43.466657 -8.323329 -52.836399
42.327772 -7.215435 -53.346329
43.370582 -6.738009 -53.831707
44.544441 -9.441539 -52.268223
43.466657 -8.323329 -52.836399
47.617582 -13.272869 -50.328739
46.626496 -11.914647 -51.015534
47.661085 -11.677464 -51.407864
48.516735 -14.60629 -49.65408
47.482146 -14.843473 -49.26175
47.617582 -13.272869 -50.328739
47.814464 -21.129631 -45.485382
46.861908 -21.613388 -45.029572
47.067211 -19.907923 -46.01957
48.051536 -25.801835 -43.151459
48.747913 -26.883646 -42.817429
70.260532 -46.522863 -23.723588
70.452209 -46.790118 -22.735346
70.043583 -48.346722 -23.021135
66.497151 -56.668381 -24.010567
66.079582 -56.600756 -24.917561
67.369182 -54.960064 -23.881861
66.86541 -56.773617 -23.058491
66.497151 -56.668381 -24.010567
52.861765 -41.353361 -38.057426
53.597767 -42.187385 -37.785347
52.41857 -43.567968 -37.151496
53.90611 -34.803978 -40.746914
53.608522 -36.96061 -39.858383
52.819278 -36.163544 -40.05212
50.891987 -29.494271 -42.237686
51.659103 -30.369306 -42.081817
50.765338 -31.471726 -41.400909
50.142482 -28.747991 -42.347424
51.036247 -27.645571 -43.028332
50.891987 -29.494271 -42.237686
60.874437 7.733313 -36.332168
61.300089 6.708081 -35.022053
61.286895 6.353288 -36.294346
60.338856 8.736315 -37.65144
60.352049 9.091108 -36.379146
60.874437 7.733313 -36.332168
62.09156 -21.785348 -18.262022
62.054592 -22.721491 -17.154179
62.327354 -20.843311 -19.364773
62.09156 -21.785348 -18.262022
62.142426 -22.393814 -19.127388
62.466549 -19.86211 -20.506411
62.327354 -20.843311 -19.364773
51.412554 8.736111 -53.656959
50.188664 8.840426 -54.528126
52.455333 7.238583 -53.328369
51.412554 8.736111 -53.656959
52.594488 8.554759 -52.728531
61.570237 -36.248335 -14.201296
62.25211 -37.00716 -14.718575
61.502034 -34.785232 -14.616821
61.034962 -35.518286 -13.617389
61.570237 -36.248335 -14.201296
68.872696 -40.479876 -19.012925
68.075489 -39.54608 -18.704111
69.307644 -39.829769 -19.969628
68.872696 -40.479876 -19.012925
69.531254 -41.484949 -19.329012
42.863037 2.255775 -57.746193
42.815455 3.719926 -57.956909
44.014857 2.60815 -57.726715
41.738306 1.891004 -57.606933
42.863037 2.255775 -57.746193
42.937708 0.779227 -57.376739
40.631756 1.392169 -57.402794
41.738306 1.891004 -57.606933
40.730891 -0.103698 -56.895836
39.54967 0.874016 -57.06115
40.631756 1.392169 -57.402794
40.958621 -3.122632 -55.55019
39.774928 -2.146806 -55.824807
40.832497 -1.597677 -56.279575
42.123943 -4.101809 -55.173298
41.066374 -4.650938 -54.718529
40.958621 -3.122632 -55.55019
47.208214 -18.140342 -47.095692
47.067211 -19.907923 -46.01957
69.519207 -49.914661 -23.270924
70.043583 -48.346722 -23.021135
65.629467 -56.483694 -25.798294
65.134461 -56.375584 -26.617278
66.550808 -54.737766 -25.71467
66.079582 -56.600756 -24.917561
65.629467 -56.483694 -25.798294
62.342717 -50.640405 -32.170279
62.995493 -51.060474 -31.613721
61.97531 -52.745344 -31.418819
62.730851 -48.494915 -32.958168
62.342717 -50.640405 -32.170279
61.710667 -50.179784 -32.763267
54.225407 -51.143292 -34.119976
53.661079 -53.360594 -33.280052
52.962963 -52.632429 -33.634754
52.049427 -35.288859 -40.249874
52.819278 -36.163544 -40.05212
51.257221 -34.458782 -40.402069
52.324661 -33.176836 -41.092846
52.049427 -35.288859 -40.249874
50.498146 -33.526245 -40.591831
51.257221 -34.458782 -40.402069
50.765338 -31.471726 -41.400909
50.498146 -33.526245 -40.591831
64.372974 -18.052956 -25.42147
63.916298 -19.072904 -24.329363
64.537228 -19.710048 -25.006805
64.372974 -18.052956 -25.42147
64.744812 -16.997709 -26.566197
63.974694 -38.538271 -15.656883
63.070187 -37.756318 -15.220014
64.636059 -37.797047 -16.624648
63.974694 -38.538271 -15.656883
45.188993 7.183663 -57.449028
45.266907 8.606221 -57.171413
45.153627 5.740388 -57.642132
45.188993 7.183663 -57.449028
46.365521 5.944403 -57.240421
45.148714 4.286714 -57.685478
43.972187 5.525975 -57.894085
45.153627 5.740388 -57.642132
64.044517 -56.032656 -28.136093
64.610466 -56.211952 -27.414385
63.459949 -55.795371 -28.845554
64.468136 -54.056157 -28.89908
64.044517 -56.032656 -28.136093
62.836033 -55.524929 -29.471066
63.459949 -55.795371 -28.845554
62.208292 -55.1982 -30.097926
63.255827 -53.492142 -30.235401
62.836033 -55.524929 -29.471066
61.544084 -54.829105 -30.638693
62.208292 -55.1982 -30.097926
61.97531 -52.745344 -31.418819
61.544084 -54.829105 -30.638693
59.541704 -53.437129 -32.171189
60.659267 -51.817729 -32.476969
52.252636 -51.877598 -33.972977
52.962963 -52.632429 -33.634754
52.819096 -49.638948 -34.804519
52.252636 -51.877598 -33.972977
53.348194 -47.418426 -35.692493
54.056388 -48.194605 -35.362652
52.819096 -49.638948 -34.804519
52.632737 -46.632381 -36.006889
53.87003 -45.188038 -36.565022
53.348194 -47.418426 -35.692493
51.912232 -45.804823 -36.307781
52.632737 -46.632381 -36.006889
52.41857 -43.567968 -37.151496
51.912232 -45.804823 -36.307781
65.792076 -13.890557 -29.926613
65.481079 -14.90616 -28.817957
66.11998 -15.616135 -29.406216
65.792076 -13.890557 -29.926613
66.03014 -12.844202 -31.086309
65.733825 -10.081786 -32.824799
66.203045 -11.866231 -32.206849
66.307568 -10.860147 -33.373902
65.733825 -10.081786 -32.824799
65.334064 -8.348058 -33.342602
63.654426 -2.551254 -33.913372
63.340145 -1.980642 -32.975718
63.571915 -1.513215 -35.156475
63.654426 -2.551254 -33.913372
63.959335 -3.174779 -34.814873
46.507622 8.786788 -56.640553
45.266907 8.606221 -57.171413
47.623711 7.459623 -56.438442
46.507622 8.786788 -56.640553
47.730446 8.858733 -56.031678
50.059967 7.475751 -55.043183
48.975232 8.896242 -55.31451
50.188664 8.840426 -54.528126
61.780122 -24.229616 -16.947704
62.054592 -22.721491 -17.154179
61.794994 -24.877819 -17.741102
61.780122 -24.229616 -16.947704
61.668486 -25.771583 -16.664169
60.401851 -36.920609 -11.605387
60.761776 -36.240656 -12.610188
60.272062 -36.174706 -11.015004
60.401851 -36.920609 -11.605387
60.481809 -34.785408 -11.368521
60.272062 -36.174706 -11.015004
60.481809 -34.785408 -11.368521
60.534632 -34.06522 -12.36939
61.039215 -30.419506 -14.027422
60.831319 -31.866722 -13.734752
61.130512 -29.613802 -15.054548
61.039215 -30.419506 -14.027422
61.438183 -28.80152 -16.080434
61.130512 -29.613802 -15.054548
61.321434 -30.290646 -15.775122
61.656231 -27.949075 -17.129288
61.465309 -27.272231 -16.408714
61.438183 -28.80152 -16.080434
65.280659 -37.01329 -17.595868
64.318062 -36.229839 -17.174824
64.636059 -37.797047 -16.624648
65.930336 -36.24791 -18.550745
65.280659 -37.01329 -17.595868
66.248333 -37.815117 -18.000568
67.773548 -37.937216 -19.304493
67.199951 -38.6586 -18.355064
68.075489 -39.54608 -18.704111
42.79047 5.183848 -58.069751
42.815455 3.719926 -57.956909
38.502015 0.225185 -56.657185
39.54967 0.874016 -57.06115
38.502015 0.225185 -56.657185
38.621262 -1.294071 -56.043602
41.201548 -6.223302 -53.808319
41.066374 -4.650938 -54.718529
41.201548 -6.223302 -53.808319
42.327772 -7.215435 -53.346329
45.624706 -10.678209 -51.654663
44.544441 -9.441539 -52.268223
45.589733 -9.082572 -52.708218
45.624706 -10.678209 -51.654663
46.626496 -11.914647 -51.015534
47.388979 -16.516706 -48.151547
47.482146 -14.843473 -49.26175
48.200533 -17.800529 -47.531235
47.208214 -18.140342 -47.095692
47.388979 -16.516706 -48.151547
46.672325 -23.495345 -44.025276
46.861908 -21.613388 -45.029572
47.38311 -24.674601 -43.581181
46.672325 -23.495345 -44.025276
48.277587 -23.962331 -44.065663
48.051536 -25.801835 -43.151459
47.38311 -24.674601 -43.581181
49.418278 -27.788509 -42.568493
50.142482 -28.747991 -42.347424
49.616378 -25.994428 -43.387005
49.418278 -27.788509 -42.568493
48.747913 -26.883646 -42.817429
70.645779 -44.87126 -20.186174
70.429237 -43.683343 -19.913788
70.729679 -44.426874 -21.18076
70.645779 -44.87126 -20.186174
70.852958 -43.928711 -22.147711
70.814244 -42.630121 -21.854637
70.729679 -44.426874 -21.18076
70.718776 -45.345861 -22.455816
70.452209 -46.790118 -22.735346
70.803341 -43.549109 -23.129694
70.852958 -43.928711 -22.147711
70.718776 -45.345861 -22.455816
67.204651 -56.837637 -22.080637
66.86541 -56.773617 -23.058491
68.02002 -55.195043 -21.923981
67.204651 -56.837637 -22.080637
68.461975 -53.407578 -22.731127
68.02002 -55.195043 -21.923981
68.890061 -51.576898 -23.511841
68.461975 -53.407578 -22.731127
68.165527 -53.234621 -23.710499
69.222759 -49.741705 -24.250296
69.519207 -49.914661 -23.270924
68.890061 -51.576898 -23.511841
58.847645 -52.8883 -32.599007
59.541704 -53.437129 -32.171189
54.371921 -54.062221 -32.929924
53.661079 -53.360594 -33.280052
55.065689 -54.740122 -32.554364
54.371921 -54.062221 -32.929924
55.617291 -52.549357 -33.389713
55.781052 -55.384947 -32.193627
55.065689 -54.740122 -32.554364
57.005173 -53.846836 -32.616802
55.781052 -55.384947 -32.193627
58.181694 -52.305034 -33.059063
57.005173 -53.846836 -32.616802
57.48758 -51.685456 -33.456413
59.330051 -50.726919 -33.438617
58.847645 -52.8883 -32.599007
58.181694 -52.305034 -33.059063
53.281326 -39.146476 -38.927433
52.861765 -41.353361 -38.057426
54.368158 -37.786911 -39.622227
53.281326 -39.146476 -38.927433
53.608522 -36.96061 -39.858383
62.786076 -18.873041 -21.628198
62.466549 -19.86211 -20.506411
62.697747 -20.462708 -21.351927
63.384659 -18.444725 -23.608871
63.548912 -20.101817 -23.194206
63.916298 -19.072904 -24.329363
63.004978 -17.848268 -22.795071
63.384659 -18.444725 -23.608871
62.786076 -18.873041 -21.628198
63.004978 -17.848268 -22.795071
65.152352 -15.968528 -27.66552
65.481079 -14.90616 -28.817957
63.074898 -0.381344 -33.184978
63.340145 -1.980642 -32.975718
62.689789 1.218378 -33.41969
63.074898 -0.381344 -33.184978
62.881897 0.710032 -34.489685
62.416882 2.734452 -33.531326
62.689789 1.218378 -33.41969
62.024761 4.243603 -33.661243
62.416882 2.734452 -33.531326
62.104668 3.818905 -34.854313
61.725327 5.638454 -33.688236
62.024761 4.243603 -33.661243
61.725327 5.638454 -33.688236
61.300089 6.708081 -35.022053
59.90398 10.294868 -36.345062
60.352049 9.091108 -36.379146
59.270462 11.265851 -37.664719
59.90398 10.294868 -36.345062
58.605992 12.180707 -38.960564
59.270462 11.265851 -37.664719
59.151997 11.008966 -38.994263
57.85253 13.055651 -40.253071
58.605992 12.180707 -38.960564
57.051222 13.86093 -41.515232
57.85253 13.055651 -40.253071
57.686219 12.7291 -41.552269
56.174044 14.618695 -42.767921
57.051222 13.86093 -41.515232
55.95044 14.209831 -44.029968
56.174044 14.618695 -42.767921
55.803663 13.637057 -45.200432
55.95044 14.209831 -44.029968
56.738135 12.961604 -43.984893
55.59648 12.969424 -46.326763
55.803663 13.637057 -45.200432
55.467555 12.171143 -47.344803
55.59648 12.969424 -46.326763
56.462433 11.590549 -46.173397
55.281137 11.272466 -48.317261
55.467555 12.171143 -47.344803
55.164276 10.271918 -49.177334
55.281137 11.272466 -48.317261
56.216646 9.791719 -48.05151
55.001608 9.176302 -49.992714
55.164276 10.271918 -49.177334
54.89542 8.003259 -50.702084
55.001608 9.176302 -49.992714
55.993597 7.618129 -49.620953
54.762338 6.751159 -51.365131
53.770349 8.309332 -51.736892
54.89542 8.003259 -50.702084
3 1 85 83
3 1 87 85
3 3 90 88
3 3 92 90
3 2 94 93
3 5 97 95
3 5 99 97
3 5 101 99
3 4 104 102
3 4 106 104
3 334 108 335
3 6 111 109
3 8 114 112
3 8 116 114
3 8 118 116
3 10 121 119
3 10 123 121
3 11 336 338
3 336 124 337
3 336 337 338
3 11 126 124
3 11 128 126
3 339 130 340
3 341 132 342
3 343 342 130
3 341 342 343
3 12 134 133
3 12 136 134
3 12 138 136
3 13 141 139
3 13 143 141
3 14 344 346
3 344 144 345
3 344 345 346
3 14 146 144
3 14 148 146
3 15 347 349
3 347 150 348
3 347 348 349
3 15 152 150
3 16 155 153
3 16 157 155
3 16 159 157
3 7 350 352
3 352 351 161
3 350 351 352
3 18 164 162
3 18 166 164
3 18 168 166
3 19 171 169
3 19 173 171
3 9 176 174
3 20 179 177
3 20 181 179
3 20 183 181
3 17 186 184
3 17 188 186
3 21 191 189
3 23 192 84
3 23 193 192
3 23 195 193
3 25 196 86
3 25 197 196
3 26 199 198
3 28 200 89
3 28 201 200
3 28 203 201
3 30 204 91
3 30 205 204
3 32 353 355
3 355 354 208
3 353 354 355
3 33 356 358
3 358 357 96
3 356 357 358
3 33 359 360
3 33 361 363
3 361 210 362
3 361 362 363
3 35 211 98
3 35 212 211
3 35 214 212
3 37 215 100
3 37 216 215
3 38 219 217
3 40 220 103
3 40 221 220
3 40 223 221
3 42 224 105
3 42 225 224
3 364 226 365
3 43 227 107
3 43 228 227
3 44 231 229
3 46 232 110
3 46 233 232
3 22 234 190
3 47 235 113
3 47 236 235
3 47 237 236
3 48 238 115
3 48 239 238
3 48 241 239
3 50 242 117
3 50 243 242
3 24 244 194
3 51 245 120
3 51 246 245
3 51 247 246
3 52 248 122
3 52 249 248
3 366 250 367
3 53 368 370
3 368 251 369
3 368 369 370
3 53 371 373
3 373 372 251
3 371 372 373
3 53 374 376
3 374 252 375
3 374 375 376
3 54 253 125
3 54 254 253
3 54 255 254
3 55 256 127
3 55 257 256
3 377 258 378
3 56 259 129
3 56 260 259
3 56 261 260
3 57 262 131
3 57 263 262
3 27 379 380
3 382 381 135
3 58 383 385
3 385 384 137
3 383 384 385
3 58 386 387
3 29 264 202
3 59 265 140
3 59 388 390
3 390 389 265
3 388 389 390
3 59 391 393
3 391 266 392
3 391 392 393
3 61 267 142
3 61 269 267
3 60 394 396
3 394 270 395
3 394 395 396
3 60 268 270
3 397 271 398
3 62 399 401
3 399 273 400
3 399 400 401
3 62 274 273
3 63 402 403
3 63 404 406
3 404 275 405
3 404 405 406
3 63 276 275
3 64 277 145
3 64 278 277
3 64 279 278
3 65 280 147
3 65 281 280
3 31 282 206
3 66 283 149
3 66 284 283
3 66 285 284
3 67 286 151
3 67 287 286
3 68 288 154
3 68 289 288
3 68 290 289
3 69 291 156
3 69 292 291
3 69 293 292
3 70 294 158
3 70 295 294
3 407 296 408
3 409 408 207
3 407 408 409
3 71 410 412
3 410 297 411
3 410 411 412
3 71 298 297
3 71 299 298
3 413 300 414
3 415 414 160
3 413 414 415
3 416 272 417
3 418 417 300
3 416 417 418
3 45 302 230
3 34 303 209
3 73 304 163
3 73 419 421
3 421 420 304
3 419 420 421
3 73 422 424
3 422 305 423
3 422 423 424
3 74 306 165
3 74 307 306
3 74 308 307
3 75 309 167
3 75 310 309
3 36 311 213
3 76 312 170
3 76 313 312
3 76 314 313
3 77 315 172
3 77 316 315
3 49 317 240
3 78 318 175
3 78 319 318
3 39 320 218
3 79 321 178
3 79 322 321
3 79 323 322
3 80 324 180
3 80 325 324
3 80 326 325
3 81 327 182
3 81 328 327
3 41 329 222
3 82 330 185
3 82 331 330
3 82 332 331
3 72 333 187
3 72 301 333
3 83 84 21
3 85 84 83
3 85 23 84
3 85 86 23
3 87 86 85
3 87 25 86
3 88 89 26
3 90 89 88
3 90 28 89
3 90 91 28
3 92 91 90
3 92 30 91
3 93 425 426
3 94 427 429
3 429 428 93
3 427 428 429
3 94 430 431
3 95 96 32
3 97 96 95
3 97 33 96
3 97 98 33
3 99 98 97
3 99 35 98
3 99 100 35
3 101 100 99
3 101 37 100
3 102 103 38
3 104 103 102
3 104 40 103
3 104 105 40
3 106 105 104
3 106 42 105
3 432 107 433
3 108 434 436
3 434 107 435
3 434 435 436
3 108 43 107
3 109 110 44
3 111 110 109
3 111 46 110
3 112 113 22
3 114 113 112
3 114 47 113
3 114 115 47
3 116 115 114
3 116 48 115
3 116 117 48
3 118 117 116
3 118 50 117
3 119 120 24
3 121 120 119
3 121 51 120
3 121 122 51
3 123 122 121
3 123 52 122
3 124 437 438
3 124 439 441
3 439 53 440
3 439 440 441
3 124 125 53
3 126 125 124
3 126 54 125
3 126 127 54
3 128 127 126
3 128 55 127
3 442 129 443
3 130 444 446
3 444 129 445
3 444 445 446
3 130 56 129
3 130 131 56
3 132 131 130
3 132 57 131
3 133 447 449
3 449 448 27
3 447 448 449
3 134 450 452
3 452 451 133
3 450 451 452
3 134 453 454
3 134 455 457
3 455 135 456
3 455 456 457
3 136 135 134
3 136 458 460
3 460 459 135
3 458 459 460
3 136 461 463
3 461 137 462
3 461 462 463
3 138 137 136
3 138 58 137
3 139 140 29
3 141 140 139
3 141 59 140
3 141 142 59
3 143 142 141
3 143 61 142
3 464 60 465
3 466 62 467
3 144 468 469
3 144 470 472
3 470 63 471
3 470 471 472
3 144 145 63
3 146 145 144
3 146 64 145
3 146 147 64
3 148 147 146
3 148 65 147
3 473 149 474
3 475 474 31
3 473 474 475
3 150 476 478
3 476 149 477
3 476 477 478
3 150 66 149
3 150 151 66
3 152 151 150
3 152 67 151
3 153 479 481
3 479 154 480
3 479 480 481
3 155 154 153
3 155 68 154
3 155 156 68
3 157 156 155
3 157 69 156
3 157 158 69
3 159 158 157
3 159 70 158
3 482 71 483
3 484 160 485
3 486 485 71
3 484 485 486
3 487 160 488
3 490 489 160
3 161 491 493
3 493 492 45
3 491 492 493
3 495 494 161
3 162 163 34
3 164 163 162
3 164 73 163
3 164 165 73
3 166 165 164
3 166 74 165
3 166 167 74
3 168 167 166
3 168 75 167
3 169 170 36
3 171 170 169
3 171 76 170
3 171 172 76
3 173 172 171
3 173 77 172
3 174 175 49
3 176 175 174
3 176 78 175
3 177 178 39
3 179 178 177
3 179 79 178
3 179 180 79
3 181 180 179
3 181 80 180
3 181 182 80
3 183 182 181
3 183 81 182
3 184 185 41
3 186 185 184
3 186 82 185
3 186 187 82
3 188 187 186
3 188 72 187
3 189 190 6
3 191 190 189
3 191 22 190
3 84 191 21
3 192 191 84
3 192 22 191
3 192 112 22
3 193 112 192
3 193 8 112
3 193 194 8
3 195 194 193
3 195 24 194
3 86 195 23
3 196 195 86
3 196 24 195
3 196 119 24
3 197 119 196
3 197 10 119
3 496 11 497
3 499 498 11
3 198 500 501
3 199 502 504
3 504 503 198
3 502 503 504
3 199 505 507
3 505 27 506
3 505 506 507
3 89 199 26
3 200 199 89
3 200 27 199
3 200 133 27
3 201 133 200
3 201 12 133
3 201 202 12
3 203 202 201
3 203 29 202
3 91 203 28
3 204 203 91
3 204 29 203
3 204 139 29
3 205 139 204
3 205 13 139
3 508 14 509
3 510 206 511
3 512 511 14
3 510 511 512
3 513 206 514
3 515 31 516
3 517 516 206
3 515 516 517
3 518 31 519
3 521 520 31
3 522 15 523
3 524 153 525
3 526 153 527
3 528 16 529
3 530 529 153
3 528 529 530
3 531 207 532
3 533 532 16
3 531 532 533
3 534 207 535
3 537 536 207
3 208 538 540
3 540 539 7
3 538 539 540
3 542 541 208
3 96 543 545
3 545 544 32
3 543 544 545
3 547 546 96
3 548 209 549
3 210 550 552
3 550 209 551
3 550 551 552
3 210 34 209
3 98 210 33
3 211 210 98
3 211 34 210
3 211 162 34
3 212 162 211
3 212 18 162
3 212 213 18
3 214 213 212
3 214 36 213
3 100 214 35
3 215 214 100
3 215 36 214
3 215 169 36
3 216 169 215
3 216 19 169
3 217 218 9
3 219 218 217
3 219 39 218
3 103 219 38
3 220 219 103
3 220 39 219
3 220 177 39
3 221 177 220
3 221 20 177
3 221 222 20
3 223 222 221
3 223 41 222
3 105 223 40
3 224 223 105
3 224 41 223
3 224 184 41
3 225 184 224
3 225 17 184
3 553 198 554
3 226 555 557
3 555 198 556
3 555 556 557
3 226 26 198
3 107 558 560
3 558 226 559
3 558 559 560
3 227 226 107
3 227 26 226
3 227 88 26
3 228 88 227
3 228 3 88
3 229 230 2
3 231 230 229
3 231 45 230
3 110 231 44
3 232 231 110
3 232 45 231
3 232 161 45
3 233 161 232
3 233 7 161
3 190 111 6
3 234 111 190
3 234 46 111
3 113 234 22
3 235 234 113
3 235 46 234
3 235 233 46
3 236 233 235
3 236 7 233
3 236 208 7
3 237 208 236
3 237 32 208
3 115 237 47
3 238 237 115
3 238 32 237
3 238 95 32
3 239 95 238
3 239 5 95
3 239 240 5
3 241 240 239
3 241 49 240
3 117 241 48
3 242 241 117
3 242 49 241
3 242 174 49
3 243 174 242
3 243 9 174
3 194 118 8
3 244 118 194
3 244 50 118
3 120 244 24
3 245 244 120
3 245 50 244
3 245 243 50
3 246 243 245
3 246 9 243
3 246 217 9
3 247 217 246
3 247 38 217
3 122 247 51
3 248 247 122
3 248 38 247
3 248 102 38
3 249 102 248
3 249 4 102
3 561 93 562
3 250 563 565
3 563 93 564
3 563 564 565
3 250 2 93
3 251 566 567
3 251 568 569
3 251 570 571
3 573 572 251
3 252 574 575
3 252 576 577
3 125 252 53
3 253 252 125
3 253 578 580
3 580 579 252
3 578 579 580
3 253 581 583
3 581 250 582
3 581 582 583
3 254 250 253
3 254 2 250
3 254 229 2
3 255 229 254
3 255 44 229
3 127 255 54
3 256 255 127
3 256 44 255
3 256 109 44
3 257 109 256
3 257 6 109
3 584 128 585
3 586 585 11
3 584 585 586
3 258 587 589
3 587 128 588
3 587 588 589
3 258 55 128
3 129 590 592
3 590 258 591
3 590 591 592
3 259 258 129
3 259 55 258
3 259 257 55
3 260 257 259
3 260 6 257
3 260 189 6
3 261 189 260
3 261 21 189
3 131 261 56
3 262 261 131
3 262 21 261
3 262 83 21
3 263 83 262
3 263 1 83
3 594 593 27
3 135 595 596
3 598 597 135
3 137 599 600
3 602 601 137
3 202 138 12
3 264 138 202
3 264 58 138
3 140 264 29
3 265 264 140
3 265 58 264
3 265 603 605
3 605 604 58
3 603 604 605
3 607 606 265
3 266 608 609
3 266 610 612
3 610 60 611
3 610 611 612
3 142 266 59
3 267 266 142
3 267 60 266
3 267 268 60
3 269 268 267
3 269 0 268
3 270 613 614
3 270 615 616
3 270 617 619
3 617 271 618
3 617 618 619
3 268 271 270
3 268 0 271
3 620 272 621
3 271 622 624
3 622 272 623
3 622 623 624
3 271 0 272
3 625 132 626
3 627 132 628
3 629 57 630
3 631 630 132
3 629 630 631
3 273 632 633
3 273 634 636
3 634 57 635
3 634 635 636
3 273 263 57
3 274 263 273
3 274 1 263
3 275 637 638
3 275 639 640
3 275 641 642
3 276 643 645
3 645 644 275
3 643 644 645
3 276 646 648
3 646 62 647
3 646 647 648
3 145 276 63
3 277 276 145
3 277 62 276
3 277 274 62
3 278 274 277
3 278 1 274
3 278 87 1
3 279 87 278
3 279 25 87
3 147 279 64
3 280 279 147
3 280 25 279
3 280 197 25
3 281 197 280
3 281 10 197
3 206 148 14
3 282 148 206
3 282 65 148
3 149 282 31
3 283 282 149
3 283 65 282
3 283 281 65
3 284 281 283
3 284 10 281
3 284 123 10
3 285 123 284
3 285 52 123
3 151 285 66
3 286 285 151
3 286 52 285
3 286 249 52
3 287 249 286
3 287 4 249
3 649 15 650
3 154 651 652
3 288 653 655
3 655 654 154
3 653 654 655
3 288 656 657
3 288 658 659
3 289 660 662
3 662 661 288
3 660 661 662
3 289 663 665
3 663 15 664
3 663 664 665
3 289 152 15
3 290 152 289
3 290 67 152
3 156 290 68
3 291 290 156
3 291 67 290
3 291 287 67
3 292 287 291
3 292 4 287
3 292 106 4
3 293 106 292
3 293 42 106
3 158 293 69
3 294 293 158
3 294 42 293
3 294 225 42
3 295 225 294
3 295 17 225
3 207 159 16
3 296 159 207
3 296 70 159
3 666 296 667
3 297 668 670
3 668 296 669
3 668 669 670
3 297 70 296
3 297 295 70
3 298 295 297
3 298 17 295
3 298 188 17
3 299 188 298
3 299 72 188
3 160 299 71
3 300 299 160
3 300 72 299
3 300 301 72
3 272 301 300
3 272 0 301
3 230 94 2
3 302 94 230
3 302 671 673
3 673 672 94
3 671 672 673
3 674 302 675
3 676 675 45
3 674 675 676
3 677 302 678
3 680 679 302
3 682 681 7
3 209 683 684
3 303 685 687
3 687 686 209
3 685 686 687
3 303 688 689
3 163 303 34
3 304 303 163
3 304 690 692
3 692 691 303
3 690 691 692
3 304 693 694
3 696 695 304
3 305 697 698
3 305 699 700
3 165 305 73
3 306 305 165
3 306 701 703
3 703 702 305
3 701 702 703
3 306 704 705
3 307 706 708
3 708 707 306
3 706 707 708
3 307 709 710
3 307 711 712
3 308 713 715
3 715 714 307
3 713 714 715
3 308 716 717
3 167 308 74
3 309 308 167
3 309 718 720
3 720 719 308
3 718 719 720
3 309 721 722
3 310 723 725
3 725 724 309
3 723 724 725
3 310 726 727
3 213 168 18
3 311 168 213
3 311 75 168
3 170 311 36
3 312 311 170
3 312 75 311
3 312 310 75
3 313 310 312
3 313 728 730
3 730 729 310
3 728 729 730
3 313 731 733
3 731 108 732
3 731 732 733
3 314 108 313
3 314 43 108
3 172 314 76
3 315 314 172
3 315 43 314
3 315 228 43
3 316 228 315
3 316 3 228
3 240 101 5
3 317 101 240
3 317 37 101
3 175 317 49
3 318 317 175
3 318 37 317
3 318 216 37
3 319 216 318
3 319 19 216
3 218 176 9
3 320 176 218
3 320 78 176
3 178 320 39
3 321 320 178
3 321 78 320
3 321 319 78
3 322 319 321
3 322 19 319
3 322 173 19
3 323 173 322
3 323 77 173
3 180 323 79
3 324 323 180
3 324 77 323
3 324 316 77
3 325 316 324
3 325 3 316
3 325 92 3
3 326 92 325
3 326 30 92
3 182 326 80
3 327 326 182
3 327 30 326
3 327 205 30
3 328 205 327
3 328 13 205
3 222 183 20
3 329 183 222
3 329 81 183
3 185 329 41
3 330 329 185
3 330 81 329
3 330 328 81
3 331 328 330
3 331 13 328
3 331 143 13
3 332 143 331
3 332 61 143
3 187 332 82
3 333 332 187
3 333 61 332
3 333 269 61
3 301 269 333
3 301 0 269
