ply
format ascii 1.0
element vertex 268
property float x
property float y
property float z
element face 236
property list uchar int vertex_index
end_header
31.89839 23.56945 -29.512476
37.453133 20.17812 -26.648458
41.969318 12.922829 -23.068964
40.162521 13.852268 -17.241148
28.983919 18.385895 -32.392563
37.650379 18.448471 -31.99423
41.220215 8.399311 -15.229868
31.691626 19.178059 -32.713188
34.755039 25.974072 -23.818705
39.928513 16.957188 -24.938326
34.717876 22.398308 -28.197157
34.580196 19.300823 -32.620583
30.34691 16.395248 -33.826141
40.517616 6.023624 -11.374712
30.471945 23.801384 -30.049681
30.356287 21.31469 -31.344156
31.778276 21.355465 -31.131979
40.274681 15.528538 -21.112715
39.355312 17.696499 -22.084044
41.009575 15.026962 -24.025354
42.361382 8.138647 -18.116476
35.992023 22.896984 -25.013117
34.729645 24.129402 -25.990412
36.104836 21.420593 -27.445864
36.102364 19.007729 -32.378838
35.902889 18.015392 -34.818871
34.380013 17.900639 -34.789101
32.084194 25.807491 -27.857447
39.497177 16.394974 -18.258852
41.078278 13.190399 -20.133238
27.497072 20.813023 -31.500616
39.043949 18.008541 -28.623514
37.62133 19.199303 -29.312231
39.190147 17.620029 -31.464197
39.747387 11.96879 -13.368696
40.160011 9.016638 -12.363636
41.634109 5.57263 -14.215467
28.936464 21.116467 -31.464746
30.324398 18.840561 -32.595306
31.608915 17.041534 -34.261528
33.830807 29.215092 -23.099581
37.197224 21.404064 -24.031839
38.324894 19.66375 -23.055311
38.736382 18.683258 -25.811987
40.392593 16.575352 -27.847406
40.733223 11.173485 -16.23498
41.770386 10.715473 -19.137136
42.807724 10.676079 -22.064917
33.589661 27.139927 -25.009642
33.425209 25.097317 -26.94639
33.312603 23.110439 -28.890676
36.156815 20.129257 -29.910769
34.681484 20.79142 -30.415491
33.218567 21.19286 -30.823038
33.107334 19.346466 -32.727501
32.94791 17.560989 -34.593414
30.373225 15.191238 -34.443184
30.927946 15.668308 -34.805976
31.185167 23.685417 -29.781078
30.586497 25.039926 -29.373995
31.299719 24.92396 -29.105393
42.370207 13.006332 -24.55426
41.890335 14.058399 -25.032455
41.489446 13.974895 -23.547159
36.516474 17.703919 -36.046669
36.6993 17.944119 -34.739719
35.719429 17.553434 -36.009236
36.516474 17.703919 -36.046669
32.224304 26.929037 -27.017912
31.576274 27.264055 -27.573645
39.829849 15.123621 -17.75
39.111361 16.973976 -16.864899
39.444032 15.702624 -16.356047
28.312984 18.126944 -32.25668
27.569561 19.340508 -31.810706
28.240496 19.599459 -31.94659
39.937162 17.076794 -31.127415
39.117048 17.814285 -30.043855
39.864063 17.27105 -29.707073
39.687942 9.450242 -10.950807
39.505024 11.007209 -11.457702
41.807693 4.155845 -13.698087
41.075862 5.798127 -12.795089
41.249446 4.381342 -12.277709
42.459169 4.197769 -15.09243
41.807693 4.155845 -13.698087
28.978052 22.480477 -30.979129
28.22992 22.431441 -31.152586
37.049618 22.133038 -22.757959
36.529499 22.97567 -23.334122
42.651423 9.516493 -20.073376
42.065884 9.42706 -18.626806
42.946921 8.22808 -19.563046
43.170091 9.496796 -21.537266
42.289055 10.695776 -20.601027
42.651423 9.516493 -20.073376
33.504501 17.055666 -35.746845
33.663961 17.730814 -34.691258
34.220552 17.225491 -35.844689
32.834343 16.688098 -35.503723
33.504501 17.055666 -35.746845
39.717428 14.341112 -15.820937
39.444032 15.702624 -16.356047
29.739312 16.036333 -33.571586
29.057817 17.031657 -32.854798
29.665415 17.390572 -33.109352
29.739312 16.036333 -33.571586
30.373225 15.191238 -34.443184
40.031585 6.380396 -9.972098
39.866745 7.953735 -10.456346
40.670305 4.533669 -10.883045
40.031585 6.380396 -9.972098
41.249446 4.381342 -12.277709
40.670305 4.533669 -10.883045
29.866747 25.171005 -29.74856
30.586497 25.039926 -29.373995
29.745793 23.822935 -30.271597
29.866747 25.171005 -29.74856
30.414116 22.558037 -30.696919
29.687963 22.579588 -30.918835
29.745793 23.822935 -30.271597
39.814996 16.612519 -21.59838
39.042851 18.230427 -20.691498
39.502535 17.146446 -20.205834
41.3251 14.976381 -25.505499
40.784569 15.941494 -25.961984
40.469044 15.992075 -24.48184
41.3251 14.976381 -25.505499
41.890335 14.058399 -25.032455
42.61223 6.817085 -17.589983
41.790799 8.268979 -16.673172
42.041647 6.947417 -16.146679
43.257945 7.007705 -19.008105
42.61223 6.817085 -17.589983
42.946921 8.22808 -19.563046
43.257945 7.007705 -19.008105
36.799038 18.440287 -33.519703
36.876372 18.7281 -32.186534
37.573045 18.160658 -33.327399
36.002627 18.511561 -33.598855
36.799038 18.440287 -33.519703
36.6993 17.944119 -34.739719
34.957991 17.496057 -35.99435
35.141451 17.958016 -34.803986
35.719429 17.553434 -36.009236
34.220552 17.225491 -35.844689
34.957991 17.496057 -35.99435
31.392621 26.04298 -28.277878
31.576274 27.264055 -27.573645
31.991292 24.688471 -28.684962
31.299719 24.92396 -29.105393
31.392621 26.04298 -28.277878
38.798403 18.245165 -17.42483
39.111361 16.973976 -16.864899
39.113783 17.579664 -18.778902
38.798403 18.245165 -17.42483
39.885929 15.961756 -19.685783
39.502535 17.146446 -20.205834
39.113783 17.579664 -18.778902
26.757633 20.63572 -31.479084
26.732533 22.18676 -31.295698
26.757633 20.63572 -31.479084
27.569561 19.340508 -31.810706
28.312984 18.126944 -32.25668
29.057817 17.031657 -32.854798
39.96722 17.192787 -32.602852
39.937162 17.076794 -31.127415
39.156807 17.538194 -32.883153
39.96722 17.192787 -32.602852
38.386922 17.952416 -33.14817
38.420263 18.03425 -31.729214
39.156807 17.538194 -32.883153
37.573045 18.160658 -33.327399
38.386922 17.952416 -33.14817
39.298712 12.483285 -11.960233
39.096434 13.996009 -12.494367
39.953699 10.492714 -12.866166
39.298712 12.483285 -11.960233
39.505024 11.007209 -11.457702
40.338814 7.520131 -11.869174
39.687942 9.450242 -10.950807
39.866745 7.953735 -10.456346
42.248594 5.534077 -15.639479
42.041647 6.947417 -16.146679
41.427162 6.985971 -14.722668
42.248594 5.534077 -15.639479
42.459169 4.197769 -15.09243
27.510224 22.279719 -31.170521
26.732533 22.18676 -31.295698
28.216768 20.964745 -31.482681
27.510224 22.279719 -31.170521
28.22992 22.431441 -31.152586
29.646375 21.215578 -31.404451
28.978052 22.480477 -30.979129
29.687963 22.579588 -30.918835
31.558948 15.991451 -35.02367
30.927946 15.668308 -34.805976
30.977913 16.718391 -34.043835
33.996343 30.254151 -22.16532
33.553587 30.837231 -22.958424
34.327324 28.560188 -22.400059
33.996343 30.254151 -22.16532
34.78944 26.939678 -22.759621
34.292923 27.594582 -23.459143
34.327324 28.560188 -22.400059
35.308406 25.260674 -23.227555
34.78944 26.939678 -22.759621
35.926899 23.72213 -23.824761
35.373531 24.435528 -24.415911
35.308406 25.260674 -23.227555
36.594623 22.150524 -24.522478
35.926899 23.72213 -23.824761
36.529499 22.97567 -23.334122
38.608957 19.312473 -21.227861
39.042851 18.230427 -20.691498
38.093748 20.296099 -21.713495
38.608957 19.312473 -21.227861
38.840103 18.680124 -22.569677
37.613453 21.262881 -22.269695
38.093748 20.296099 -21.713495
37.761059 20.533907 -23.543575
37.049618 22.133038 -22.757959
37.613453 21.262881 -22.269695
40.538385 16.554455 -29.319019
39.864063 17.27105 -29.707073
39.718271 17.291947 -28.23546
41.016609 15.750576 -27.416525
40.160553 16.76627 -26.392866
40.784569 15.941494 -25.961984
41.245679 15.893127 -28.913015
41.016609 15.750576 -27.416525
40.538385 16.554455 -29.319019
41.245679 15.893127 -28.913015
39.509861 13.399373 -13.884711
39.096434 13.996009 -12.494367
40.002779 13.00172 -15.317853
39.509861 13.399373 -13.884711
40.240305 11.571137 -14.801838
40.447872 12.512877 -16.738064
39.717428 14.341112 -15.820937
40.002779 13.00172 -15.317853
43.735945 9.827497 -22.98349
43.170091 9.496796 -21.537266
43.292835 10.887016 -23.537899
43.735945 9.827497 -22.98349
42.873632 12.010392 -24.039923
42.388521 11.799454 -22.566941
43.292835 10.887016 -23.537899
42.370207 13.006332 -24.55426
42.873632 12.010392 -24.039923
33.294932 29.745469 -23.795967
33.553587 30.837231 -22.958424
33.174358 28.707886 -24.750998
33.294932 29.745469 -23.795967
33.710234 28.177509 -24.054612
32.977037 27.595255 -25.594009
33.174358 28.707886 -24.750998
32.894812 26.57395 -26.562384
32.977037 27.595255 -25.594009
33.507435 26.118622 -25.978016
32.754701 25.452404 -27.401919
32.224304 26.929037 -27.017912
32.894812 26.57395 -26.562384
32.164845 16.428371 -35.33778
32.278413 17.301261 -34.427471
32.834343 16.688098 -35.503723
31.558948 15.991451 -35.02367
32.164845 16.428371 -35.33778
3 57 56 12
3 0 58 60
3 58 14 59
3 58 59 60
3 0 16 14
3 2 19 17
3 2 61 63
3 63 62 19
3 61 62 63
3 1 23 21
3 64 25 65
3 67 66 25
3 68 27 69
3 3 70 72
3 70 28 71
3 70 71 72
3 3 29 28
3 4 73 75
3 75 74 30
3 73 74 75
3 76 33 77
3 78 77 31
3 76 77 78
3 79 35 80
3 81 36 82
3 83 82 13
3 81 82 83
3 85 84 36
3 86 37 87
3 7 38 15
3 7 39 38
3 88 41 89
3 9 42 18
3 9 43 42
3 9 44 43
3 6 45 34
3 90 46 91
3 92 91 20
3 90 91 92
3 93 47 94
3 95 94 46
3 93 94 95
3 8 48 40
3 10 49 22
3 10 50 49
3 5 51 32
3 11 52 24
3 11 53 52
3 11 54 53
3 96 55 97
3 98 97 26
3 96 97 98
3 100 99 55
3 101 3 102
3 12 103 105
3 105 104 4
3 103 104 105
3 107 106 12
3 108 13 109
3 110 13 111
3 113 112 13
3 14 114 115
3 14 116 117
3 14 118 120
3 118 15 119
3 118 119 120
3 16 15 14
3 16 7 15
3 17 121 123
3 121 18 122
3 121 122 123
3 19 18 17
3 19 9 18
3 19 124 126
3 126 125 9
3 124 125 126
3 128 127 19
3 129 20 130
3 131 130 6
3 129 130 131
3 132 20 133
3 135 134 20
3 21 22 8
3 23 22 21
3 23 10 22
3 136 24 137
3 138 137 5
3 136 137 138
3 25 139 141
3 139 24 140
3 139 140 141
3 25 11 24
3 25 26 11
3 142 26 143
3 144 143 25
3 142 143 144
3 146 145 26
3 27 147 148
3 27 149 151
3 149 0 150
3 149 150 151
3 28 152 153
3 28 154 155
3 28 156 158
3 156 17 157
3 156 157 158
3 29 17 28
3 29 2 17
3 30 159 160
3 162 161 30
3 164 163 4
3 31 32 1
3 33 32 31
3 33 5 32
3 165 33 166
3 167 33 168
3 169 5 170
3 171 170 33
3 169 170 171
3 173 172 5
3 174 34 175
3 35 176 178
3 176 34 177
3 176 177 178
3 35 6 34
3 13 179 181
3 179 35 180
3 179 180 181
3 36 35 13
3 36 6 35
3 36 182 184
3 184 183 6
3 182 183 184
3 186 185 36
3 187 30 188
3 37 189 191
3 189 30 190
3 189 190 191
3 37 4 30
3 15 192 194
3 192 37 193
3 192 193 194
3 38 37 15
3 38 4 37
3 38 12 4
3 39 12 38
3 39 195 197
3 197 196 12
3 195 196 197
3 198 40 199
3 200 40 201
3 202 8 203
3 204 203 40
3 202 203 204
3 205 8 206
3 207 21 208
3 209 208 8
3 207 208 209
3 41 210 212
3 210 21 211
3 210 211 212
3 41 1 21
3 18 213 214
3 42 215 217
3 217 216 18
3 215 216 217
3 42 218 219
3 42 220 222
3 220 41 221
3 220 221 222
3 43 41 42
3 43 1 41
3 43 31 1
3 44 31 43
3 44 223 225
3 225 224 31
3 223 224 225
3 226 44 227
3 228 227 9
3 226 227 228
3 229 44 230
3 232 231 44
3 34 233 234
3 45 235 237
3 237 236 34
3 235 236 237
3 45 238 240
3 238 3 239
3 238 239 240
3 20 45 6
3 46 45 20
3 46 3 45
3 46 29 3
3 47 29 46
3 47 2 29
3 241 47 242
3 243 47 244
3 245 2 246
3 247 246 47
3 245 246 247
3 249 248 2
3 40 250 251
3 48 252 254
3 254 253 40
3 252 253 254
3 48 255 256
3 22 48 8
3 49 48 22
3 49 257 259
3 259 258 48
3 257 258 259
3 49 260 262
3 260 27 261
3 260 261 262
3 50 27 49
3 50 0 27
3 32 23 1
3 51 23 32
3 51 10 23
3 24 51 5
3 52 51 24
3 52 10 51
3 52 50 10
3 53 50 52
3 53 0 50
3 53 16 0
3 54 16 53
3 54 7 16
3 26 54 11
3 55 54 26
3 55 7 54
3 55 39 7
3 263 39 264
3 265 264 55
3 263 264 265
3 267 266 39
