ply
format ascii 1.0
element vertex 517
property float x
property float y
property float z
element face 615
property list uchar int vertex_index
end_header
6.655773 38.4352 -33.075203
9.998684 64.695969 -32.218971
-1.752775 50.997208 -31.126356
5.171001 26.621136 -30.179827
4.757772 75.901688 -29.055029
-3.30654 35.183372 -24.032366
-1.974077 54.290039 -22.332415
6.982426 51.358734 -35.054306
12.271032 37.570675 -33.429329
0.62604 69.647438 -16.600058
-0.354288 67.907143 -27.704775
1.994446 62.044792 -34.136856
1.679049 45.329498 -34.090981
-0.623058 30.795406 -29.865072
5.803764 33.672356 -31.806059
8.688526 25.002655 -29.800325
8.796366 31.982243 -31.630175
-3.091448 46.993805 -18.492838
-1.650404 55.495735 -16.803247
8.141315 58.196533 -34.319084
10.78145 51.227997 -34.149879
12.738132 57.546776 -32.395973
-0.13155 69.136848 -22.504393
0.823519 75.040977 -24.304525
7.216644 70.983757 -31.282473
3.086376 69.406929 -32.155785
5.466129 64.404495 -33.815689
4.368822 57.214745 -35.105469
-2.560465 43.371758 -27.925692
-2.309774 32.997036 -27.667566
-1.617521 41.246269 -30.976141
0.207943 38.801868 -32.374084
-0.480284 48.487 -33.425438
12.584885 70.618546 -29.207952
3.059479 79.236282 -25.245634
7.108955 81.16304 -25.087946
9.683651 76.644913 -27.864344
-4.001661 37.406876 -19.421984
-2.917078 45.236748 -23.594309
-2.136072 52.867111 -27.261957
6.518005 44.444134 -34.396523
9.027424 38.302338 -33.35778
9.569941 44.743111 -34.426636
1.521601 69.690842 -10.332071
0.027876 63.014549 -14.09413
-0.693697 62.391083 -20.006182
-1.246965 61.434555 -25.449194
-1.256853 59.885239 -30.029173
1.455742 72.941994 -28.973886
0.322758 65.617195 -31.699526
-0.367008 57.448639 -33.228409
1.479836 53.990257 -34.787498
3.940144 49.594948 -34.981316
4.307619 41.744358 -33.690582
1.934399 28.621113 -30.515451
2.826559 36.159054 -32.36145
11.956772 30.949566 -31.949911
6.233368 36.456371 -32.526421
7.29686 32.700203 -31.635664
7.534086 35.618519 -32.440895
8.981756 61.501335 -33.416382
10.340996 58.025032 -33.485756
11.387236 61.190804 -32.368233
8.595028 67.984352 -31.880869
6.256516 67.785316 -32.683479
7.607719 64.777328 -33.17112
6.793848 61.425629 -34.180611
-2.195841 47.287926 -29.646574
-2.187613 42.34906 -29.644011
-1.778677 46.225136 -31.198076
-1.13386 45.0373 -32.333244
-1.238134 49.82769 -32.490967
10.456635 24.381584 -29.81143
14.158823 73.252342 -27.514059
15.629454 69.89743 -27.894617
11.196547 78.986122 -25.922251
12.66604 76.301247 -26.880774
11.121744 73.801521 -28.68799
-2.466597 50.643791 -20.489424
-3.007318 46.120621 -21.115263
-2.504343 49.888649 -23.087442
-2.505037 49.094978 -25.520399
-2.096254 53.618279 -24.895773
6.664667 47.884926 -34.875374
7.945538 44.801136 -34.501457
8.280073 48.133125 -34.794266
12.071104 47.60408 -33.92662
1.226915 72.97419 -14.530783
1.671864 72.916611 -11.342014
1.077841 69.719994 -13.499788
0.822411 66.45089 -12.339199
0.400034 66.326859 -15.424587
-0.335938 62.735641 -17.094378
-0.021202 66.119713 -18.432318
-0.336006 68.633591 -25.222879
-0.704277 65.390457 -24.111429
-0.868271 64.800583 -26.690733
-1.345919 60.754333 -27.880297
-0.844582 64.003342 -29.012159
3.791517 77.766563 -27.349474
2.19075 76.23777 -27.222509
2.899733 74.704597 -29.175585
2.471519 65.819588 -33.301941
1.537525 67.784348 -32.088211
1.044596 63.995964 -33.119133
-0.082632 61.633736 -32.624748
0.677835 60.013878 -33.832123
0.450562 55.846489 -34.208359
1.659374 58.098274 -34.636177
5.67098 54.396614 -35.174988
4.065756 53.448029 -35.216072
5.365828 50.768097 -35.127563
5.240414 47.108398 -34.752869
-3.766729 31.001934 -22.0208
-3.252947 29.825275 -24.085249
-1.572245 31.898277 -28.967123
-1.87068 27.569611 -27.344027
0.550409 29.697701 -30.364332
0.848274 42.304291 -33.340302
1.440336 37.490082 -32.49984
2.117462 40.801373 -33.32283
3.489079 39.262829 -33.09684
2.972023 43.566246 -33.971123
10.569931 37.984512 -33.451691
10.402294 34.736195 -32.682198
12.028358 34.299438 -32.804504
5.441093 30.348251 -31.010496
6.917891 25.751896 -29.941626
7.075672 29.403954 -30.789343
8.715685 28.623184 -30.70503
10.36167 27.99696 -30.778658
-2.424189 51.376274 -17.76491
-1.815226 54.910583 -19.623938
7.474808 54.807175 -34.87339
8.787592 51.471138 -34.73407
9.474504 54.777267 -34.292099
11.667387 54.418701 -33.437729
0.804859 72.900452 -17.643469
0.206802 69.461914 -19.613131
0.238018 72.249535 -23.497057
0.201633 71.591705 -26.128099
5.917662 73.635696 -30.357504
3.844286 72.780815 -30.729204
4.981863 70.46714 -31.887602
4.209927 67.078972 -33.159874
3.59141 63.507164 -34.135635
3.123047 59.775795 -34.781418
4.837427 60.873352 -34.634338
6.148441 57.957581 -34.858925
-2.913393 39.319237 -26.027655
-2.871218 34.090191 -26.002825
-2.531061 38.281796 -27.88542
-1.988356 37.206242 -29.396574
-1.241529 36.087681 -30.508471
-0.268059 34.930893 -31.202185
-0.820126 40.060825 -31.884516
-0.25148 43.725578 -33.036842
0.50679 46.981033 -33.939865
11.197897 67.748833 -30.793974
4.847708 80.494682 -25.313425
5.842043 78.716393 -27.165022
9.807915 81.278687 -24.586138
8.326233 79.104347 -26.676344
7.029306 76.534935 -28.608839
8.356434 73.955803 -29.661715
9.764191 71.008995 -30.368395
-3.668577 36.286221 -21.820498
-3.622164 42.337559 -19.027052
-3.412584 41.333309 -21.540731
-3.189695 40.331188 -23.891062
-2.784983 44.327553 -25.885309
-2.420748 48.237213 -27.730474
-2.039141 52.003441 -29.363062
6.528809 41.16338 -33.729805
7.677013 38.461861 -33.210693
7.762884 41.540043 -33.933533
9.229492 41.500618 -34.023712
10.884567 41.210995 -33.967842
10.082851 47.995193 -34.482292
11.37953 44.420471 -34.142982
1.218561 66.48764 -9.187387
-0.814926 59.368828 -15.583076
-1.089947 58.935516 -18.495291
-1.357798 58.45253 -21.307726
-0.404577 65.816994 -21.340498
-1.012171 61.967117 -22.804972
-1.587427 57.904907 -23.992167
-1.734461 57.263351 -26.502241
-1.745813 56.490891 -28.774614
-1.568903 55.550964 -30.737612
1.735237 77.400085 -24.89908
1.014322 74.157684 -26.804968
0.392078 70.652283 -28.474081
2.153557 71.363159 -30.764433
0.836205 69.392036 -30.474512
-0.143106 66.913567 -29.882856
-0.590561 62.957962 -31.008314
-0.937735 58.791481 -31.828566
-1.162792 54.414543 -32.3256
-0.508722 53.064934 -33.495728
0.384417 51.499557 -34.240616
1.477219 49.730164 -34.596352
2.809877 55.901299 -35.076431
2.665207 51.897682 -35.019661
2.709816 47.780502 -34.634789
4.01066 45.683868 -34.448151
5.306242 43.476582 -34.126823
5.592566 39.955971 -33.357826
-2.637571 28.682667 -25.879496
0.927361 33.750301 -31.505449
2.312859 32.569187 -31.495176
3.837015 31.420506 -31.286291
4.30208 34.860321 -32.086075
4.886131 37.766064 -32.78933
8.901052 35.158146 -32.532127
10.341623 31.429508 -31.760435
12.026258 27.486858 -30.973623
13.650898 30.522949 -32.118233
13.722416 27.067181 -31.221453
6.00619 24.222134 -29.651629
5.084496 24.614071 -29.76041
11.478844 22.252514 -29.424824
11.334836 24.130997 -29.893847
15.781337 72.822392 -26.877086
15.032308 74.420124 -26.628777
14.285916 75.944577 -26.312134
13.523519 77.371548 -25.9251
15.032308 74.420124 -26.628777
13.412432 74.776794 -27.197416
14.285916 75.944577 -26.312134
-0.766717 28.64042 -29.148773
-1.24131 29.191856 -28.699798
-1.097652 31.346842 -29.416097
-0.177774 28.115272 -29.49683
-0.766717 28.64042 -29.148773
-0.036324 30.246553 -30.114702
0.40896 27.56642 -29.74646
-0.177774 28.115272 -29.49683
-2.037297 53.436005 -17.284078
-2.407682 51.731186 -16.349791
-2.02079 53.790917 -15.868959
13.391928 55.693112 -32.376766
12.856555 54.129074 -32.897644
12.202759 55.982738 -32.916851
0.933007 74.439461 -18.105207
1.096447 74.509633 -16.550221
0.63088 72.785759 -19.145857
0.933007 74.439461 -18.105207
0.530768 73.645256 -23.900791
0.546265 73.941277 -22.51655
0.839016 75.336997 -22.920284
8.710575 23.073025 -29.377405
7.825257 23.447645 -29.448055
7.803209 25.377275 -29.870976
13.307325 68.891685 -29.354061
12.61383 67.456829 -30.147072
11.891391 69.183689 -30.000963
16.339154 68.107674 -27.999969
17.236333 69.411891 -27.216791
5.978331 80.828861 -25.200685
5.46568 81.661205 -24.203243
6.596303 81.995384 -24.090503
11.343203 81.096497 -24.219864
10.633259 82.138596 -23.470651
12.168546 81.956406 -23.104377
-4.113735 34.811806 -19.582487
-4.333049 35.437309 -18.358871
-3.835119 36.846548 -20.621241
-3.947193 34.251478 -20.781744
-4.113735 34.811806 -19.582487
-3.356806 44.665682 -18.759945
-3.730803 42.841383 -17.704384
-3.465445 45.169506 -17.437277
12.373421 44.186927 -33.891529
11.725317 46.012276 -34.034801
12.719207 45.778732 -33.783348
12.045841 42.603111 -33.935756
12.373421 44.186927 -33.891529
1.808756 71.214405 -9.213494
1.883888 72.82729 -9.718466
1.596732 71.303727 -10.837042
1.723539 69.623497 -8.719537
1.808756 71.214405 -9.213494
1.370081 68.089241 -9.759729
1.572018 68.021896 -8.147194
1.723539 69.623497 -8.719537
0.201724 63.119243 -12.556041
0.598992 64.837414 -11.678576
0.425144 64.73272 -13.216665
-0.261192 61.382034 -13.339737
0.201724 63.119243 -12.556041
-0.393525 61.191688 -14.838603
-0.682594 59.559173 -14.08421
-0.261192 61.382034 -13.339737
2.397358 78.318184 -25.072357
2.155695 78.868279 -23.840044
2.817816 79.786377 -24.013321
-2.026857 25.366358 -26.536316
-1.525273 24.821821 -27.166187
2.594496 26.051068 -30.004559
1.799021 26.525067 -29.987003
2.713108 28.104036 -30.464265
2.594496 26.051068 -30.004559
14.539256 30.343887 -32.159
13.712857 32.196676 -32.473514
14.713025 25.13307 -30.898106
14.591055 26.90229 -31.33547
13.841082 25.277245 -30.736866
14.713025 25.13307 -30.898106
-1.572313 55.769852 -15.345268
-2.02079 53.790917 -15.868959
1.174216 76.633209 -23.281179
0.839016 75.336997 -22.920284
10.54272 22.478943 -29.363125
9.658665 22.789479 -29.357572
9.572581 24.69212 -29.805878
10.54272 22.478943 -29.363125
11.478844 22.252514 -29.424824
16.516652 71.144936 -27.067366
14.894139 71.574886 -27.704338
15.781337 72.822392 -26.877086
17.236333 69.411891 -27.216791
16.516652 71.144936 -27.067366
7.834531 82.17112 -23.967659
6.596303 81.995384 -24.090503
7.321879 83.003463 -22.970216
12.788772 78.713986 -25.445839
12.037519 79.950214 -24.88792
11.931294 77.643685 -26.401512
12.788772 78.713986 -25.445839
13.523519 77.371548 -25.9251
-4.167461 37.97617 -18.148394
-4.333049 35.437309 -18.358871
12.516358 49.176422 -33.621689
11.426277 49.416038 -34.038249
11.871531 50.988381 -33.733318
13.15468 47.33823 -33.537906
12.516358 49.176422 -33.621689
12.719207 45.778732 -33.783348
13.15468 47.33823 -33.537906
1.44939 72.945401 -12.936398
1.724779 74.501892 -11.796637
1.502305 74.530682 -13.391022
-3.730612 28.264213 -22.115895
-4.029146 28.902672 -21.039907
-3.47372 27.675884 -23.148119
-3.730612 28.264213 -22.115895
-3.509838 30.413604 -23.053024
-3.129974 27.069357 -24.102341
-3.47372 27.675884 -23.148119
-1.390528 27.027523 -27.88825
-1.721462 29.733944 -28.155575
-1.24131 29.191856 -28.699798
-1.525273 24.821821 -27.166187
-1.390528 27.027523 -27.88825
1.107026 27.063361 -29.911444
0.40896 27.56642 -29.74646
1.242404 29.159407 -30.439892
1.799021 26.525067 -29.987003
1.107026 27.063361 -29.911444
11.287354 25.938685 -30.37746
11.334836 24.130997 -29.893847
10.409153 26.189272 -30.295044
-3.138596 47.425629 -17.122829
-3.465445 45.169506 -17.437277
-2.804966 49.616863 -16.758865
-2.407682 51.731186 -16.349791
-2.757818 49.18504 -18.128874
-3.138596 47.425629 -17.122829
-2.804966 49.616863 -16.758865
12.3145 52.583732 -33.377243
11.871531 50.988381 -33.733318
11.224418 52.823349 -33.793804
12.3145 52.583732 -33.377243
12.856555 54.129074 -32.897644
1.307475 74.546502 -14.993879
1.502305 74.530682 -13.391022
1.015887 72.937321 -16.087126
1.307475 74.546502 -14.993879
1.096447 74.509633 -16.550221
0.331851 71.06649 -20.130688
0.50583 71.181183 -18.6283
0.63088 72.785759 -19.145857
0.162675 70.903957 -21.576319
0.037626 69.299381 -21.058762
0.331851 71.06649 -20.130688
0.347459 72.4603 -22.072651
0.546265 73.941277 -22.51655
0.053234 70.693191 -23.000725
0.162675 70.903957 -21.576319
0.347459 72.4603 -22.072651
13.022924 35.720539 -33.129063
13.195401 37.350015 -33.338017
6.879635 23.787514 -29.532528
6.00619 24.222134 -29.651629
6.044446 26.186516 -30.060727
6.879635 23.787514 -29.532528
7.825257 23.447645 -29.448055
8.710575 23.073025 -29.377405
9.658665 22.789479 -29.357572
11.906766 65.998604 -30.903797
11.30716 64.472172 -31.616295
10.598291 66.222401 -31.506473
11.906766 65.998604 -30.903797
12.61383 67.456829 -30.147072
14.829609 68.531127 -28.697394
13.307325 68.891685 -29.354061
14.10717 70.257988 -28.551285
14.829609 68.531127 -28.697394
16.339154 68.107674 -27.999969
3.571734 80.560021 -24.157259
2.817816 79.786377 -24.013321
4.465849 81.189221 -24.191154
5.46568 81.661205 -24.203243
3.953594 79.865482 -25.279529
3.571734 80.560021 -24.157259
4.465849 81.189221 -24.191154
9.184012 82.228943 -23.716755
10.633259 82.138596 -23.470651
8.458435 81.220864 -24.837042
7.834531 82.17112 -23.967659
9.184012 82.228943 -23.716755
10.502231 80.132405 -25.254194
11.343203 81.096497 -24.219864
12.037519 79.950214 -24.88792
-3.996269 31.609335 -20.881895
-4.029146 28.902672 -21.039907
-4.258686 29.510073 -19.901002
-3.717653 33.644077 -21.920649
-3.996269 31.609335 -20.881895
-3.947193 34.251478 -20.781744
-3.977712 40.441512 -17.950928
-3.730803 42.841383 -17.704384
-3.811913 39.872217 -19.224518
-4.167461 37.97617 -18.148394
-3.977712 40.441512 -17.950928
11.79836 40.998373 -33.848186
11.132048 42.815733 -34.055412
12.045841 42.603111 -33.935756
12.491592 39.178213 -33.57893
11.5778 39.390835 -33.698586
11.79836 40.998373 -33.848186
13.195401 37.350015 -33.338017
12.491592 39.178213 -33.57893
12.001435 62.719589 -31.690926
10.69296 62.943387 -32.293602
11.30716 64.472172 -31.616295
12.689588 60.890763 -31.735408
12.001435 62.719589 -31.690926
13.365036 59.068748 -31.749278
12.062684 59.36879 -32.382103
12.689588 60.890763 -31.735408
14.027442 57.203087 -31.761603
13.365036 59.068748 -31.749278
13.391928 55.693112 -32.376766
14.027442 57.203087 -31.761603
1.924268 74.410934 -10.160384
1.724779 74.501892 -11.796637
1.924268 74.410934 -10.160384
1.883888 72.82729 -9.718466
1.394037 66.453213 -7.581583
1.572018 68.021896 -8.147194
0.956257 64.915786 -8.530111
1.394037 66.453213 -7.581583
0.797067 64.855789 -10.102669
1.020486 66.469265 -10.763293
0.598992 64.837414 -11.678576
0.956257 64.915786 -8.530111
0.797067 64.855789 -10.102669
-1.154575 57.706398 -14.735183
-0.682594 59.559173 -14.08421
-1.232665 57.432282 -16.193161
-1.572313 55.769852 -15.345268
-1.154575 57.706398 -14.735183
1.630075 77.812763 -23.578457
2.155695 78.868279 -23.840044
1.279378 76.220531 -24.601803
1.174216 76.633209 -23.281179
1.630075 77.812763 -23.578457
-2.822286 26.498053 -24.999464
-3.129974 27.069357 -24.102341
-2.945259 29.253971 -24.982373
-2.410303 25.922886 -25.804051
-2.254125 28.126139 -26.611762
-2.026857 25.366358 -26.536316
-2.822286 26.498053 -24.999464
-2.410303 25.922886 -25.804051
4.331409 27.104048 -30.296453
5.084496 24.614071 -29.76041
2.902338 30.078074 -30.954128
2.713108 28.104036 -30.464265
2.123629 30.59515 -31.005313
3.664416 29.503733 -30.849685
2.902338 30.078074 -30.954128
3.074937 31.994847 -31.390733
4.504008 29.020821 -30.733059
4.331409 27.104048 -30.296453
3.664416 29.503733 -30.849685
12.119647 25.683633 -30.474943
11.287354 25.938685 -30.37746
11.193964 27.741909 -30.87614
12.901587 34.084921 -32.81665
12.149695 35.935057 -33.116917
13.022924 35.720539 -33.129063
12.839628 32.411194 -32.461368
12.901587 34.084921 -32.81665
13.712857 32.196676 -32.473514
14.555295 28.630175 -31.78386
14.539256 30.343887 -32.159
13.686657 28.795065 -31.669843
14.555295 28.630175 -31.78386
14.591055 26.90229 -31.33547
12.993002 25.487084 -30.612951
12.874337 27.27702 -31.097538
13.841082 25.277245 -30.736866
12.119647 25.683633 -30.474943
12.993002 25.487084 -30.612951
3 0 59 57
3 1 62 60
3 1 65 63
3 1 60 65
3 2 69 67
3 2 71 69
3 3 219 220
3 222 221 72
3 224 223 73
3 225 76 226
3 227 73 228
3 229 228 76
3 227 228 229
3 6 80 78
3 6 82 80
3 7 85 83
3 9 89 87
3 9 91 89
3 9 93 91
3 10 96 94
3 10 98 96
3 4 101 99
3 11 104 102
3 11 106 104
3 11 108 106
3 7 111 109
3 7 83 111
3 5 114 113
3 13 230 232
3 232 231 115
3 230 231 232
3 13 233 234
3 13 235 237
3 235 117 236
3 235 236 237
3 12 120 118
3 12 122 120
3 8 125 123
3 14 128 126
3 16 129 58
3 16 130 129
3 18 238 240
3 238 131 239
3 238 239 240
3 18 132 131
3 19 135 133
3 21 136 61
3 21 241 243
3 243 242 136
3 241 242 243
3 244 137 245
3 247 246 137
3 23 248 250
3 248 139 249
3 248 249 250
3 23 140 139
3 24 143 141
3 26 144 64
3 26 145 144
3 26 147 145
3 19 148 66
3 19 133 148
3 28 151 149
3 30 152 68
3 30 153 152
3 30 155 153
3 32 156 70
3 32 157 156
3 15 251 253
3 253 252 127
3 251 252 253
3 33 254 256
3 256 255 158
3 254 255 256
3 258 257 74
3 35 259 261
3 259 159 260
3 259 260 261
3 35 160 159
3 262 161 263
3 262 263 264
3 36 162 75
3 36 163 162
3 36 164 163
3 33 165 77
3 33 158 165
3 37 265 266
3 37 267 269
3 267 166 268
3 267 268 269
3 17 270 272
3 270 167 271
3 270 271 272
3 38 168 79
3 38 169 168
3 38 170 169
3 39 171 81
3 39 172 171
3 40 175 173
3 42 176 84
3 42 177 176
3 20 178 134
3 273 179 274
3 275 274 86
3 273 274 275
3 277 276 179
3 43 278 280
3 280 279 88
3 278 279 280
3 43 281 282
3 43 283 285
3 283 180 284
3 283 284 285
3 44 286 288
3 288 287 90
3 286 287 288
3 44 289 290
3 44 291 293
3 291 181 292
3 291 292 293
3 45 182 92
3 45 183 182
3 22 184 138
3 46 185 95
3 46 186 185
3 46 187 186
3 47 188 97
3 47 189 188
3 34 294 296
3 294 190 295
3 294 295 296
3 48 191 100
3 48 192 191
3 25 193 142
3 49 194 103
3 49 195 194
3 49 196 195
3 50 197 105
3 50 198 197
3 50 199 198
3 51 200 107
3 51 201 200
3 27 202 146
3 52 203 110
3 52 204 203
3 52 205 204
3 40 206 112
3 40 173 206
3 29 208 150
3 298 297 116
3 54 299 300
3 54 301 302
3 31 209 154
3 55 210 119
3 55 211 210
3 55 212 211
3 53 213 121
3 53 207 213
3 41 214 174
3 56 215 124
3 56 216 215
3 303 217 304
3 305 218 306
3 308 307 218
3 57 58 14
3 59 58 57
3 59 16 58
3 309 18 310
3 60 61 19
3 62 61 60
3 62 21 61
3 311 23 312
3 63 64 24
3 65 64 63
3 65 26 64
3 65 66 26
3 60 66 65
3 60 19 66
3 67 68 28
3 69 68 67
3 69 30 68
3 69 70 30
3 71 70 69
3 71 32 70
3 72 313 315
3 315 314 15
3 313 314 315
3 317 316 72
3 73 74 33
3 318 74 319
3 320 319 73
3 318 319 320
3 322 321 74
3 323 35 324
3 323 324 325
3 326 75 327
3 76 328 330
3 328 75 329
3 328 329 330
3 76 36 75
3 76 77 36
3 73 77 76
3 73 33 77
3 331 37 332
3 78 79 17
3 80 79 78
3 80 38 79
3 80 81 38
3 82 81 80
3 82 39 81
3 83 84 40
3 85 84 83
3 85 42 84
3 333 86 334
3 335 334 20
3 333 334 335
3 336 86 337
3 339 338 86
3 87 340 342
3 340 88 341
3 340 341 342
3 89 88 87
3 89 43 88
3 89 90 43
3 91 90 89
3 91 44 90
3 91 92 44
3 93 92 91
3 93 45 92
3 94 95 22
3 96 95 94
3 96 46 95
3 96 97 46
3 98 97 96
3 98 47 97
3 99 100 34
3 101 100 99
3 101 48 100
3 102 103 25
3 104 103 102
3 104 49 103
3 104 105 49
3 106 105 104
3 106 50 105
3 106 107 50
3 108 107 106
3 108 51 107
3 109 110 27
3 111 110 109
3 111 52 110
3 111 112 52
3 83 112 111
3 83 40 112
3 113 343 344
3 114 345 347
3 347 346 113
3 345 346 347
3 114 348 349
3 115 116 29
3 350 116 351
3 352 351 115
3 350 351 352
3 354 353 116
3 117 355 356
3 117 357 359
3 357 54 358
3 357 358 359
3 118 119 31
3 120 119 118
3 120 55 119
3 120 121 55
3 122 121 120
3 122 53 121
3 123 124 41
3 125 124 123
3 125 56 124
3 126 127 3
3 128 127 126
3 128 15 127
3 58 128 14
3 129 128 58
3 129 15 128
3 129 72 15
3 130 72 129
3 130 360 362
3 362 361 72
3 360 361 362
3 363 17 364
3 131 365 366
3 131 367 369
3 367 17 368
3 367 368 369
3 131 78 17
3 132 78 131
3 132 6 78
3 133 134 7
3 135 134 133
3 135 20 134
3 61 135 19
3 136 135 61
3 136 20 135
3 136 370 372
3 372 371 20
3 370 371 372
3 374 373 136
3 375 87 376
3 137 377 379
3 377 87 378
3 377 378 379
3 137 9 87
3 137 138 9
3 380 138 381
3 382 381 137
3 380 381 382
3 383 22 384
3 385 384 138
3 383 384 385
3 139 386 387
3 139 388 390
3 388 22 389
3 388 389 390
3 139 94 22
3 140 94 139
3 140 10 94
3 141 142 4
3 143 142 141
3 143 25 142
3 64 143 24
3 144 143 64
3 144 25 143
3 144 102 25
3 145 102 144
3 145 11 102
3 145 146 11
3 147 146 145
3 147 27 146
3 66 147 26
3 148 147 66
3 148 27 147
3 148 109 27
3 133 109 148
3 133 7 109
3 149 150 5
3 151 150 149
3 151 29 150
3 68 151 28
3 152 151 68
3 152 29 151
3 152 115 29
3 153 115 152
3 153 13 115
3 153 154 13
3 155 154 153
3 155 31 154
3 70 155 30
3 156 155 70
3 156 31 155
3 156 118 31
3 157 118 156
3 157 12 118
3 392 391 8
3 127 393 395
3 395 394 3
3 393 394 395
3 397 396 127
3 399 398 15
3 158 400 402
3 402 401 1
3 400 401 402
3 404 403 158
3 74 405 407
3 407 406 33
3 405 406 407
3 409 408 74
3 410 34 411
3 159 412 413
3 159 414 416
3 414 34 415
3 414 415 416
3 159 99 34
3 160 99 159
3 160 4 99
3 161 417 418
3 161 419 421
3 419 35 420
3 419 420 421
3 75 422 424
3 422 161 423
3 422 423 424
3 162 161 75
3 162 35 161
3 162 160 35
3 163 160 162
3 163 4 160
3 163 141 4
3 164 141 163
3 164 24 141
3 77 164 36
3 165 164 77
3 165 24 164
3 165 63 24
3 158 63 165
3 158 1 63
3 425 113 426
3 425 426 427
3 166 428 430
3 428 113 429
3 428 429 430
3 166 5 113
3 167 431 432
3 167 433 435
3 433 37 434
3 433 434 435
3 79 167 17
3 168 167 79
3 168 37 167
3 168 166 37
3 169 166 168
3 169 5 166
3 169 149 5
3 170 149 169
3 170 28 149
3 81 170 38
3 171 170 81
3 171 28 170
3 171 67 28
3 172 67 171
3 172 2 67
3 173 174 0
3 175 174 173
3 175 41 174
3 84 175 40
3 176 175 84
3 176 41 175
3 176 123 41
3 177 123 176
3 177 8 123
3 134 85 7
3 178 85 134
3 178 42 85
3 86 178 20
3 179 178 86
3 179 42 178
3 179 177 42
3 436 177 437
3 438 437 179
3 436 437 438
3 439 8 440
3 441 440 177
3 439 440 441
3 443 442 8
3 444 62 445
3 446 445 1
3 444 445 446
3 447 62 448
3 449 21 450
3 451 450 62
3 449 450 451
3 452 21 453
3 455 454 21
3 88 456 457
3 459 458 88
3 180 460 461
3 180 462 463
3 90 180 43
3 464 180 465
3 466 465 90
3 464 465 466
3 468 467 180
3 181 469 470
3 181 471 473
3 471 18 472
3 471 472 473
3 92 181 44
3 182 181 92
3 182 18 181
3 182 132 18
3 183 132 182
3 183 6 132
3 138 93 9
3 184 93 138
3 184 45 93
3 95 184 22
3 185 184 95
3 185 45 184
3 185 183 45
3 186 183 185
3 186 6 183
3 186 82 6
3 187 82 186
3 187 39 82
3 97 187 46
3 188 187 97
3 188 39 187
3 188 172 39
3 189 172 188
3 189 2 172
3 190 474 475
3 190 476 478
3 476 23 477
3 476 477 478
3 100 190 34
3 191 190 100
3 191 23 190
3 191 140 23
3 192 140 191
3 192 10 140
3 142 101 4
3 193 101 142
3 193 48 101
3 103 193 25
3 194 193 103
3 194 48 193
3 194 192 48
3 195 192 194
3 195 10 192
3 195 98 10
3 196 98 195
3 196 47 98
3 105 196 49
3 197 196 105
3 197 47 196
3 197 189 47
3 198 189 197
3 198 2 189
3 198 71 2
3 199 71 198
3 199 32 71
3 107 199 50
3 200 199 107
3 200 32 199
3 200 157 32
3 201 157 200
3 201 12 157
3 146 108 11
3 202 108 146
3 202 51 108
3 110 202 27
3 203 202 110
3 203 51 202
3 203 201 51
3 204 201 203
3 204 12 201
3 204 122 12
3 205 122 204
3 205 53 122
3 112 205 52
3 206 205 112
3 206 53 205
3 206 207 53
3 173 207 206
3 173 0 207
3 150 114 5
3 208 114 150
3 208 479 481
3 481 480 114
3 479 480 481
3 116 208 29
3 482 208 483
3 484 483 116
3 482 483 484
3 486 485 208
3 487 3 488
3 154 117 13
3 209 117 154
3 209 54 117
3 119 209 31
3 210 209 119
3 210 54 209
3 210 489 491
3 491 490 54
3 489 490 491
3 211 492 494
3 494 493 210
3 492 493 494
3 211 495 497
3 495 3 496
3 495 496 497
3 211 126 3
3 212 126 211
3 212 14 126
3 121 212 55
3 213 212 121
3 213 14 212
3 213 57 14
3 207 57 213
3 207 0 57
3 174 59 0
3 214 59 174
3 214 16 59
3 124 214 41
3 215 214 124
3 215 16 214
3 215 130 16
3 216 130 215
3 216 498 500
3 500 499 130
3 498 499 500
3 501 125 502
3 503 502 8
3 501 502 503
3 217 504 506
3 504 125 505
3 504 505 506
3 217 56 125
3 507 217 508
3 218 509 511
3 509 217 510
3 509 510 511
3 218 56 217
3 218 216 56
3 512 216 513
3 514 513 218
3 512 513 514
3 516 515 216
