ply
format ascii 1.0
element vertex 1024
property float x
property float y
property float z
element face 1348
property list uchar int vertex_index
end_header
-21.744354 68.285019 27.943163
-0.828814 51.55595 58.805096
-16.312473 8.330641 72.170395
-9.189144 68.571259 43.400539
-14.840504 39.044949 62.182808
-4.675161 21.324471 78.425797
-0.290756 21.990761 63.268311
-1.320612 43.338524 39.24865
-15.785893 69.663742 34.590538
-19.240301 43.12989 52.385033
-11.259075 15.798031 77.578339
-0.107111 64.158707 44.861046
-0.841522 59.09737 34.456722
-0.05378 48.812092 49.262585
-1.019918 33.16106 51.927422
0.134115 36.959774 62.484024
-2.747868 75.387161 38.136295
-4.061335 62.844387 52.278313
-22.639645 59.493732 36.346397
-16.564098 57.416904 44.157555
-11.650793 54.309956 53.778416
-6.967007 48.065495 63.151062
-16.339737 23.700584 68.508224
-9.753672 32.125088 71.574371
-2.601538 37.127972 70.066666
-0.205475 23.360756 73.240486
-0.931356 7.529554 61.453304
-0.780308 52.059643 25.521458
0.837196 37.18626 31.773525
-0.755529 28.28548 43.049576
-1.349445 18.456566 53.21122
-19.703953 72.649857 25.604919
-16.122744 74.371918 28.755516
-19.066563 69.044998 30.794716
-24.844154 65.368927 27.902725
-0.293903 58.124332 52.176723
0.154806 56.73666 47.317196
0.174728 50.795872 54.427067
0.120089 43.052589 56.087883
-0.067562 44.443829 60.991795
-8.782251 74.703659 36.986538
-5.400738 78.5056 34.013683
-5.623676 72.875931 41.42654
-3.141357 69.493515 45.622978
-6.396465 66.394852 48.010128
-23.408756 53.989567 40.704948
-19.492626 58.52869 40.102226
-20.36413 52.171185 44.212738
-17.052246 41.170166 57.145611
-15.469443 48.636868 53.042202
-13.332783 46.703075 58.169682
-9.361767 51.769917 58.703606
-11.020981 44.021069 63.139236
-18.906376 11.938345 67.911285
-19.069199 19.265789 66.411346
-16.383825 15.973091 70.594696
-8.053917 18.938194 78.716736
-10.700993 23.948143 74.913849
-7.111702 27.108299 75.484428
-5.918295 35.220776 71.541183
-3.656832 29.337387 74.657967
-1.136738 30.453659 72.256348
-1.859529 22.81654 76.610054
-1.142218 51.175541 36.977783
-1.321043 55.638798 29.641382
-1.199747 47.994343 32.503166
-0.070536 44.671894 28.762617
-0.801781 40.420868 35.141296
-0.10317 32.921547 37.545689
-1.215002 35.725754 41.263435
-0.70488 27.773308 57.841564
-1.298092 25.73938 52.725452
-1.026016 20.431362 57.977146
-1.270475 13.201626 57.700001
-0.560238 14.672955 62.610374
-12.398691 75.140686 32.668327
-12.389486 69.593185 38.839821
-21.684612 45.413319 48.316948
-20.715305 36.001476 56.505543
-18.313547 33.818649 60.953278
-13.934153 12.141594 75.218506
-0.271091 69.474213 36.961067
-0.601698 66.801682 31.706646
-0.133617 62.141613 39.700516
-0.396723 54.21735 42.039337
-0.839918 46.178028 44.034668
-1.234495 38.341412 45.719856
-0.531939 40.862518 50.782471
-0.263294 35.312492 57.219738
-0.02375 29.428425 63.250408
-21.892296 8.381563 65.704178
-1.07128 75.685623 33.747368
-1.015438 70.526993 41.805161
-1.379 64.50708 49.251606
-2.185091 57.832737 55.908173
-25.863949 60.637424 32.515602
-22.105007 64.434341 31.834614
-19.070847 64.235077 35.652496
-15.920295 63.942089 39.706654
-12.900764 63.154705 44.149017
-17.729748 50.364147 48.27256
-13.97278 56.064701 48.771648
-10.173504 61.68713 48.935581
-7.711739 59.284672 53.717983
-5.414122 55.648174 58.076675
-3.319304 50.669048 61.777473
-18.979015 26.553875 64.127762
-15.874088 31.387791 65.689285
-13.801874 20.117889 73.150116
-13.327515 28.149254 70.435669
-12.397173 36.132339 67.072052
-8.473114 40.197601 67.637665
-4.612427 43.10981 66.965187
-1.629337 44.54953 64.761581
-0.521433 37.678719 66.979431
0.021446 30.424747 68.301376
0.191704 23.027874 68.587082
0.338535 16.038887 72.850494
0.180756 15.619873 67.837616
0.008307 8.311562 66.26252
-1.234608 63.22488 26.629101
-1.235807 59.328579 22.129601
-0.036783 55.287884 18.406719
0.974173 48.21944 22.182144
2.067709 40.843422 25.762974
-0.062035 20.814526 44.634251
-1.364536 30.804504 47.123985
-1.166405 23.450859 48.28093
-0.803869 16.057957 49.213287
-1.365374 11.153549 53.425179
-1.619625 6.087948 57.123928
-20.853355 70.205612 26.92576
-19.284784 71.001465 28.251692
-20.548176 68.630341 29.174171
-22.425907 69.118286 26.122498
-23.079737 66.942795 27.872478
-24.174849 67.719162 25.798626
-0.522032 54.898457 55.577621
0.013277 54.544575 53.381039
-0.14472 51.36211 56.760437
0.083525 47.668758 57.778152
-0.372078 48.073589 59.985092
-8.9161 71.745499 40.305943
-7.127401 73.974655 39.212761
-7.358772 70.908585 42.580765
-5.937212 69.728592 44.831066
-7.735647 67.641724 45.723068
-21.839722 53.089283 42.419048
-22.396402 49.935131 44.479736
-15.966969 40.170383 59.660179
-15.219249 43.943062 57.666035
-14.130853 42.874306 60.22797
-12.210562 45.488239 60.700447
-12.980932 41.610218 62.743214
-17.559351 10.173845 69.936249
-17.616402 13.915955 69.22467
-16.340836 12.126022 71.420242
-6.343391 20.23608 78.755959
-7.623854 23.018639 77.194977
-5.857664 24.297901 77.107025
-5.314407 28.352776 75.257645
-4.18063 25.345512 76.650787
-2.69627 26.142788 75.806877
-3.150236 22.188137 77.714264
-1.257505 47.23341 38.145744
-1.302853 49.592693 34.653896
-1.292267 45.723866 35.909454
-1.038538 44.19519 33.852306
-1.21015 41.896347 37.10321
-1.045319 38.113129 38.235741
-1.311373 39.502815 40.286903
-0.509331 24.945789 60.636303
-0.883148 24.083019 57.966835
-0.66987 21.267265 60.582005
-0.814259 17.621349 60.394253
-0.422903 18.316212 63.014515
-15.895461 72.155136 31.754795
-14.268623 74.893402 30.644562
-14.119094 72.444565 33.752563
-12.334942 72.490234 35.859917
-14.082095 69.735001 36.667557
-19.510475 34.89674 58.674236
-20.009991 31.342178 60.491917
-0.149803 66.919693 40.971992
-0.137121 65.915192 38.385651
0.013361 63.322193 42.332413
0.098154 52.803707 48.347733
-0.04031 55.578014 44.685501
-0.206072 51.566982 45.69976
-0.609404 50.187504 43.077534
-0.429873 47.542667 46.617935
-0.682035 43.55048 47.446785
-0.274372 44.817616 50.071697
0.144884 40.052948 59.344875
-0.047138 39.164261 56.718098
0.028297 36.224926 59.899014
-0.141132 32.423855 60.299236
0.083261 33.187271 62.960709
-20.342003 6.592152 67.272636
-3.960245 77.16861 36.113556
-3.969385 79.69519 32.143295
-2.728794 77.985291 34.148811
-1.806864 78.222549 31.954899
-1.74136 75.820847 36.055336
-0.998003 73.226669 37.835369
-1.768984 73.166214 40.042324
-3.537016 66.249771 49.06131
-2.17186 67.194702 47.521778
-2.56016 63.930782 50.960239
-1.731291 61.239727 52.682476
-3.063644 60.516178 54.183392
-24.632099 57.488674 36.750088
-24.248632 60.013645 34.458241
-23.882959 62.441822 32.156773
-22.350763 62.044567 34.09127
-20.618031 64.303238 33.725929
-20.794317 61.750652 36.003693
-17.991072 57.999668 42.068584
-17.681862 61.159443 39.919113
-16.174923 60.764774 41.999199
-14.380195 63.62244 41.874489
-14.732889 60.27383 44.20005
-20.41683 44.219082 50.250393
-19.666733 47.752224 48.181389
-18.462198 46.748142 50.318314
-13.580517 51.508564 53.459827
-14.685382 52.372295 50.932686
-12.791397 55.257572 51.25293
-12.085489 58.940456 48.950336
-10.864468 58.042744 51.426556
-8.916868 60.622952 51.355907
-9.682203 56.934078 53.892632
-8.175152 50.077419 61.00156
-7.346722 53.894924 58.56588
-6.182093 51.897724 60.694107
-4.330919 53.320644 60.015251
-5.040836 49.571224 62.657589
-17.708683 21.45089 67.437187
-19.081619 22.91803 65.385223
-17.643545 25.204079 66.264946
-17.450085 28.94339 64.883789
-16.173943 27.550526 67.192566
-12.660854 14.014408 76.526474
-13.90015 16.11256 74.258522
-12.539967 18.040829 75.428406
-10.273539 28.042198 73.323662
-12.020723 26.163353 72.729568
-11.607494 30.224201 71.132721
-12.922161 32.150352 68.830841
-11.089653 34.267361 69.382034
-10.472343 38.282745 67.487244
-9.149731 36.181381 69.676315
-4.141563 36.338036 70.999817
-5.271643 39.201405 69.32901
-3.546581 40.226154 68.613617
-2.964787 44.025745 66.066635
-2.099356 40.889591 67.49733
-0.998306 41.182541 65.972595
-1.380022 37.574467 68.72377
-0.612364 26.94619 72.915619
-0.384563 30.575928 70.454956
-0.077536 26.958481 70.901672
0.138668 26.734192 68.578629
0.135246 23.294624 71.041611
0.366461 15.898632 70.410263
0.404577 12.199747 69.689095
0.121834 11.943815 67.134186
-0.700806 63.000851 33.110077
-0.940485 65.082474 29.115574
-1.056078 61.268665 30.563475
-1.208155 53.863049 27.485775
-1.318268 57.593975 25.898251
-1.043083 55.712376 23.835779
-0.794136 57.334377 20.165419
-0.445686 53.792248 21.972271
0.450701 51.79269 20.310604
-0.037642 50.196339 23.754223
0.362598 40.942715 30.298248
0.906322 42.852737 27.174282
1.419853 39.105896 28.794781
1.945951 35.304108 30.352482
1.341068 33.392544 33.189461
-0.462465 30.636669 40.331696
0.336805 29.161869 38.667736
-0.069937 26.898567 41.302917
0.355087 23.122383 42.22435
-0.423185 24.569054 43.866875
-1.140291 35.770844 48.855972
-1.341909 34.538498 46.455017
-1.287367 31.998848 49.44392
-1.343479 22.092247 53.004673
-1.351017 24.627422 50.406071
-1.287954 20.977318 50.788807
-0.988728 19.772572 48.775238
-1.197617 17.315823 51.110329
-1.114904 13.624199 51.371067
-1.346115 14.813503 53.350155
-1.128366 10.426582 59.690769
-1.421423 9.622503 57.441116
-1.343138 6.907368 59.216797
-17.935154 73.612503 27.050503
-17.626793 71.659119 29.900364
-17.460646 69.415482 32.622963
-0.154129 61.218296 48.601871
0.093485 60.545231 46.159126
0.094063 57.611439 49.845924
0.199713 53.822437 50.93951
0.179657 49.921192 51.895493
0.054972 45.971241 52.725636
0.203566 46.945423 55.326229
0.173243 43.881165 58.638206
0.09409 40.723553 61.825825
-8.77264 77.422012 33.462898
-7.048866 79.404663 31.884129
-7.030077 76.814392 35.63575
-5.449903 75.809799 37.810539
-4.061623 74.391281 39.938644
-2.880291 72.548264 41.97316
-4.292053 71.386841 43.578793
-4.662411 68.18132 47.006561
-5.172398 64.802368 50.210033
-22.986153 56.806164 38.552826
-21.048853 59.016285 38.212349
-21.392805 56.123486 40.343426
-19.868202 55.417927 42.181442
-18.428881 54.686268 44.128777
-18.130398 42.130783 54.699787
-17.343182 45.807606 52.644558
-16.276241 44.894199 55.115429
-14.406911 47.728062 55.595318
-12.489809 50.521183 56.020428
-10.516706 53.16608 56.28167
-11.375002 49.344379 58.546688
-10.210815 47.917217 60.983646
-8.99283 46.19614 63.2953
-20.384853 13.631554 66.171059
-20.484043 17.195877 65.501694
-18.991354 15.59985 67.233704
-17.683578 17.683998 68.411804
-16.397552 19.838318 69.636436
-9.714399 17.450382 78.318909
-11.030367 19.86026 76.334366
-9.375845 21.53046 76.931786
-8.93956 25.630093 75.362572
-8.418335 29.728127 73.621964
-7.825897 33.804474 71.721626
-6.537117 31.183224 73.596085
-4.736071 32.374043 73.218033
-3.124985 33.272285 72.458405
-1.796783 33.857948 71.293686
-2.239527 30.041473 73.661583
-1.489496 26.677261 74.560791
-0.868111 23.205845 75.112137
-0.996347 55.141407 35.746914
-1.168486 57.391674 31.973608
-1.256418 53.489468 33.339748
-1.291349 51.813213 31.096909
-1.031555 50.117016 29.03673
-0.453808 48.37788 27.168121
-0.787977 46.366817 30.537983
-0.477789 42.618145 31.981834
-0.103258 38.870178 33.366058
0.328869 35.114563 34.69212
-0.487944 36.667427 36.371284
-0.793823 34.366085 39.310425
-1.026831 31.994434 42.18277
-0.874956 30.502304 54.928291
-1.192297 29.421524 52.368011
-1.057644 26.791241 55.216637
-1.187975 23.127865 55.407425
-1.276131 19.493439 55.507694
-1.344961 15.871559 55.526051
-1.147247 16.806267 57.883663
-0.959257 14.005405 60.090469
-0.722088 11.069902 62.081066
-14.522076 77.064514 27.377581
-12.567406 77.524536 29.296118
-10.635033 77.651886 31.33672
-10.554104 75.085083 34.79274
-10.586403 72.264832 38.053314
-10.747564 69.212982 41.092743
-23.05616 46.690868 46.568878
-21.196209 40.695854 52.360172
-21.949106 37.209682 54.481735
-20.010223 39.54174 54.460712
-18.870214 38.491096 56.724365
-17.745728 37.478085 59.105507
-16.606293 36.416103 61.551064
-15.12801 10.229177 73.734238
-13.930521 8.235058 76.06366
-0.453016 71.796707 32.860344
-0.578642 70.443451 30.241203
-0.34164 68.297119 34.345184
-0.35478 64.578369 35.738972
-0.455973 60.70483 37.051048
0.041145 59.51836 43.566498
-0.229372 58.220997 40.915676
-0.614372 56.737247 38.287701
-0.803341 52.729877 39.451927
-0.99765 48.728268 40.544643
-1.171267 44.767246 41.566345
-1.297503 40.869263 42.518349
-1.058416 42.222801 44.914303
-0.929707 39.621407 48.191463
-0.791527 36.973434 51.399914
-0.146948 42.024723 53.439133
-0.392633 38.119141 54.042015
-0.646069 34.276173 54.537674
-0.492495 31.514301 57.5938
-0.329029 28.663227 60.544384
-0.155493 25.694931 63.351303
-21.913082 11.812275 65.263565
-20.316463 10.082972 66.723785
-18.873642 8.315676 68.530426
-17.56292 6.498526 70.627182
-0.729855 75.012299 31.27446
-0.570412 72.751709 35.416946
-0.476921 70.242126 39.474991
-0.469023 67.507111 43.411903
-1.908613 70.282166 43.875423
-1.139751 67.611572 45.62011
-0.560198 64.572937 47.195721
-0.755552 61.466328 50.802895
-1.051283 58.211765 54.22081
-1.436169 54.829037 57.447845
-25.386045 63.020535 30.162306
-23.508905 64.759369 29.920403
-21.897568 66.591904 29.688126
-20.522825 66.627243 31.424725
-19.010986 66.773468 33.264668
-17.420666 66.897095 35.206757
-19.230293 61.476147 37.93325
-17.494347 64.134796 37.638988
-15.793173 66.917618 37.242657
-14.165929 66.78598 39.372978
-12.574835 66.472351 41.59832
-11.049761 65.954468 43.907417
-20.976265 48.822857 46.244591
-18.993053 51.256138 46.150719
-17.087086 53.935635 46.231789
-16.563972 49.498753 50.581085
-15.844123 53.16901 48.506454
-15.224787 56.77557 46.394001
-13.369875 59.672771 46.525284
-11.497942 62.518772 46.51532
-9.609329 65.208069 46.270706
-8.259144 64.202774 48.642014
-6.994829 62.903728 50.966808
-5.808561 61.278034 53.192764
-8.514334 55.565403 56.288403
-6.544964 57.634602 55.970554
-4.69626 59.303059 55.278347
-3.662561 56.973454 57.196777
-2.721752 54.304707 58.935287
-1.894516 51.332058 60.49086
-20.548042 20.750362 64.629562
-20.516953 24.286842 63.505241
-20.345577 27.812 62.118172
-18.727467 30.182343 62.641491
-17.105663 32.676941 63.303822
-15.428228 35.217247 64.011841
-15.1461 14.123352 72.893074
-15.135817 18.058704 71.933708
-15.062918 22.008125 70.8209
-12.329811 22.097076 74.163445
-13.616894 24.135193 71.876984
-14.896956 25.954521 69.536682
-14.614008 29.889355 68.077042
-14.199728 33.810005 66.448448
-13.651785 37.716816 64.664703
-11.758228 40.09074 65.171082
-9.767183 42.261703 65.456726
-7.738974 44.162281 65.462891
-7.176311 37.840908 69.671295
-6.48431 41.821987 67.47728
-5.766165 45.735371 65.141006
-3.956015 46.935009 64.450058
-2.409365 47.729282 63.3606
-1.202036 48.105274 61.864582
-0.659592 44.681236 63.056606
-0.271427 41.116482 64.063065
-0.028212 37.461189 64.87532
-0.811745 34.124302 69.719711
-0.188906 34.081375 67.762665
0.092123 33.755703 65.481308
0.120201 30.02948 65.868874
0.088596 26.301991 66.030029
0.024481 22.584965 65.965126
-0.361357 19.649582 75.286865
0.105345 19.718555 73.216354
0.277884 19.6026 70.872345
0.20249 19.319183 68.333023
-0.056484 18.885555 65.685455
-0.153305 15.210377 65.213112
-0.278822 11.570486 64.578033
-0.454842 7.987064 63.813263
-0.850554 68.788116 27.631165
-1.151218 66.927124 25.092869
-1.356712 64.943848 22.677303
-1.297894 59.451359 28.148096
-1.36479 61.2943 24.2904
-1.355967 62.89822 20.423088
0.992252 53.140476 16.853611
1.582621 49.654194 18.845686
2.178293 46.06348 20.795679
0.416931 46.54929 25.492264
1.51754 44.569206 24.003128
2.763981 42.370853 22.686956
0.80505 31.335583 35.962498
-1.352205 37.043194 43.403374
-1.318937 33.284061 44.225471
-1.193993 29.574284 44.989414
-1.356884 28.292076 49.959179
-1.301085 27.118149 47.731277
-0.988871 25.886883 45.6996
-0.729023 22.190594 46.358528
-0.44924 18.4561 46.965229
-0.187393 14.661858 47.514107
-0.648453 12.2913 49.59021
-1.072811 9.894388 51.56868
-1.434113 7.478024 53.438976
-1.423166 12.25362 55.471592
-1.537476 8.642313 55.353558
-1.706152 5.050838 55.18288
-1.87178 2.628603 56.771175
-23.465258 48.969723 44.717255
-23.159672 50.49295 43.652977
-20.874854 30.200626 60.368427
-20.657127 31.926628 59.474865
0.501695 10.424051 70.459545
0.454257 12.270571 70.93087
0.393192 10.363402 69.221562
0.501695 10.424051 70.459545
-1.068167 5.812112 61.103542
-1.274058 5.501019 59.985288
-1.137247 7.218461 60.335051
-18.819553 73.13118 26.327711
-18.159292 74.450127 25.568323
-19.043691 73.968804 24.845531
-20.00065 73.355423 24.219067
-20.586792 72.069801 25.06053
-19.043691 73.968804 24.845531
-20.00065 73.355423 24.219067
-25.500427 65.799729 26.828855
-25.855163 64.589392 27.995041
-24.742537 68.206077 24.661358
-23.744954 68.931106 24.817315
-24.233032 54.427357 39.852192
-24.477599 53.062786 40.95631
-23.197454 55.397866 39.628887
-24.021731 55.835656 38.776131
-24.233032 54.427357 39.852192
-15.32241 75.718216 28.066548
-15.493316 76.684631 26.500201
-16.29365 75.338334 27.189169
-22.213568 39.631027 52.491709
-21.824466 41.339569 51.403898
-21.332206 36.605579 55.493639
-22.283982 35.4908 55.519262
-21.667082 34.886697 56.531166
-13.925239 6.332269 76.454773
-14.524044 7.323963 75.287194
-22.749668 9.271656 65.111557
-22.776247 7.617771 65.285279
-21.902689 10.096919 65.483871
-22.760061 10.987012 64.89125
-22.749668 9.271656 65.111557
-18.910097 6.547758 68.862259
-19.607822 7.453914 67.901531
-19.644278 5.685996 68.233364
-18.254736 5.639183 69.910637
-18.218281 7.407101 69.578804
-18.910097 6.547758 68.862259
-5.428107 79.723198 32.046437
-6.252172 80.17273 30.98166
-6.224802 78.955131 32.948906
-4.017779 80.822418 30.10885
-3.385626 80.007812 31.098837
-1.142605 76.783905 31.664375
-1.510397 78.052368 30.768141
-1.439072 76.954086 32.851134
-0.900567 75.348961 32.510914
-0.971893 76.447243 30.427922
-1.142605 76.783905 31.664375
-26.941515 59.827007 32.737611
-26.089733 59.424251 33.703934
-26.669685 61.023846 31.51
-26.941515 59.827007 32.737611
-25.624997 61.82898 31.338954
-26.430732 62.215401 30.333352
-26.669685 61.023846 31.51
-0.450089 17.752714 76.158348
-0.752329 19.515194 76.155682
0.192629 16.033985 73.965
0.353432 14.202061 73.680725
0.22194 17.878721 73.033424
0.076035 17.873819 74.14793
0.192629 16.033985 73.965
-1.15328 60.074211 20.243315
-1.21336 61.859032 19.390059
-1.295887 61.113399 21.276345
-0.253391 56.996792 17.450953
-0.632068 58.020038 18.330303
-0.415459 56.311131 19.286069
0.19511 55.905418 16.625349
-0.253391 56.996792 17.450953
0.477735 54.21418 17.630165
0.709628 54.831715 15.848795
0.19511 55.905418 16.625349
2.697972 39.711726 25.136735
3.046108 40.475441 23.598726
2.415845 41.607137 24.224965
0.820653 28.337028 37.922857
0.572046 27.262123 39.202936
0.358133 20.048008 43.862879
0.566694 21.201937 42.657928
0.146526 21.968454 43.4293
0.11447 18.905577 44.990351
0.358133 20.048008 43.862879
-21.947769 70.304016 25.319319
-22.870483 69.630668 24.979251
-21.161493 70.847679 25.72095
-21.947769 70.304016 25.319319
-21.639631 69.661949 26.524129
-20.278654 71.427734 26.265339
-20.586792 72.069801 25.06053
-21.161493 70.847679 25.72095
-22.870483 69.630668 24.979251
-23.744954 68.931106 24.817315
-23.300378 68.418724 25.960562
-23.66585 52.520168 41.765583
-24.477599 53.062786 40.95631
-22.881332 52.070026 42.622633
-22.624239 53.539425 41.561998
-23.66585 52.520168 41.765583
-22.118062 51.512207 43.449392
-22.881332 52.070026 42.622633
-23.159672 50.49295 43.652977
-21.009784 34.256277 57.481678
-21.667082 34.886697 56.531166
-20.407369 33.703909 58.566024
-20.11289 35.449108 57.589889
-21.009784 34.256277 57.481678
-19.760233 33.119459 59.583077
-20.407369 33.703909 58.566024
-20.657127 31.926628 59.474865
-21.947899 6.707479 65.955437
-22.776247 7.617771 65.285279
-21.172753 5.812773 66.739666
-21.11715 7.486857 66.488407
-21.947899 6.707479 65.955437
-20.427782 4.902395 67.605961
-21.172753 5.812773 66.739666
-19.644278 5.685996 68.233364
-20.427782 4.902395 67.605961
-2.765331 79.152863 32.101595
-3.385626 80.007812 31.098837
-3.349089 78.84024 33.146053
-2.267829 78.10392 33.051855
-2.304366 79.271492 31.004639
-2.765331 79.152863 32.101595
-25.473808 57.849877 35.821176
-25.701006 56.609223 36.99711
-25.282075 59.112362 34.675253
-25.473808 57.849877 35.821176
-24.440365 58.751159 35.604164
-25.056291 60.325535 33.486922
-26.089733 59.424251 33.703934
-25.282075 59.112362 34.675253
0.421236 14.190141 72.51157
0.353432 14.202061 73.680725
0.435199 14.120014 71.291455
0.352498 15.968759 71.630379
0.421236 14.190141 72.51157
0.385519 14.04919 70.049679
0.435199 14.120014 71.291455
0.454257 12.270571 70.93087
0.251821 10.235436 67.944107
0.263205 12.071781 68.411641
0.393192 10.363402 69.221562
0.195057 8.419309 67.508274
0.065071 10.127689 66.698353
0.251821 10.235436 67.944107
2.016558 38.073988 28.125946
2.340485 38.942751 26.610042
1.743781 39.974659 27.278878
2.279606 36.173094 28.904796
2.016558 38.073988 28.125946
1.682902 37.205002 29.573631
2.544137 34.233216 29.718139
2.279606 36.173094 28.904796
2.208112 33.371269 31.099766
2.544137 34.233216 29.718139
1.90567 32.415487 32.518256
2.208112 33.371269 31.099766
1.643509 34.348326 31.770972
1.598993 31.469463 33.867992
1.90567 32.415487 32.518256
0.368675 26.130472 40.520527
0.572046 27.262123 39.202936
0.133434 28.030218 39.985326
0.142575 25.010475 41.763633
0.581187 24.24238 40.981243
0.368675 26.130472 40.520527
-1.478606 5.198551 58.955258
-1.616849 4.788842 57.908823
-1.481381 6.497658 58.170362
-1.478606 5.198551 58.955258
-1.274058 5.501019 59.985288
-17.199855 74.958626 26.336662
-18.159292 74.450127 25.568323
-17.028949 73.99221 27.903009
-16.29365 75.338334 27.189169
-17.199855 74.958626 26.336662
-25.165774 66.974846 25.776806
-25.500427 65.799729 26.828855
-24.509501 66.544044 26.850676
-25.733463 67.461761 24.639538
-25.165774 66.974846 25.776806
-24.742537 68.206077 24.661358
-7.910753 78.413337 32.673513
-7.958717 79.641739 30.828966
-8.820604 78.650413 31.618351
-24.844704 56.176911 37.874761
-25.701006 56.609223 36.99711
-23.809126 57.147419 37.651457
-24.844704 56.176911 37.874761
-24.021731 55.835656 38.776131
-20.434448 15.413715 65.836377
-21.243567 16.23649 65.124775
-21.193973 14.454328 65.459457
-14.69423 78.005127 25.687123
-15.493316 76.684631 26.500201
-13.674042 78.344162 26.583412
-14.69423 78.005127 25.687123
-12.696707 78.574173 27.54268
-13.674042 78.344162 26.583412
-13.544741 77.294525 28.336849
-11.689546 78.734665 28.512253
-12.696707 78.574173 27.54268
-10.72336 78.79834 29.532554
-11.689546 78.734665 28.512253
-11.601219 77.588211 30.316419
-9.7518 78.765351 30.555262
-10.72336 78.79834 29.532554
-9.703837 77.536949 32.399809
-8.820604 78.650413 31.618351
-9.7518 78.765351 30.555262
-24.144312 45.782405 46.84785
-23.795137 47.347591 45.761826
-23.42586 45.041421 47.64279
-24.144312 45.782405 46.84785
-22.740087 44.402647 48.516825
-22.370386 46.052093 47.442913
-23.42586 45.041421 47.64279
-22.068668 43.698301 49.382286
-22.740087 44.402647 48.516825
-21.434777 43.101183 50.349008
-21.050721 44.816201 49.28367
-22.068668 43.698301 49.382286
-20.80652 42.457468 51.305283
-21.434777 43.101183 50.349008
-21.824466 41.339569 51.403898
-22.955902 36.195966 54.639133
-23.290778 34.477085 55.67666
-22.283982 35.4908 55.519262
-22.590017 37.887941 53.55249
-22.955902 36.195966 54.639133
-21.572657 38.952768 53.420953
-22.213568 39.631027 52.491709
-22.590017 37.887941 53.55249
-15.122788 8.321022 74.122483
-15.720242 9.279909 72.952316
-15.71502 7.371754 73.340561
-14.529266 9.232118 74.898949
-15.122788 8.321022 74.122483
-14.524044 7.323963 75.287194
-13.315686 7.195578 77.184242
-13.925239 6.332269 76.454773
-13.318918 9.138927 76.768662
-13.315686 7.195578 77.184242
-13.320733 11.092194 76.346085
-13.932337 10.188326 75.641083
-13.318918 9.138927 76.768662
-12.684084 12.028602 77.000068
-13.297504 13.078001 75.87249
-13.320733 11.092194 76.346085
-12.025024 12.899 77.58759
-12.684084 12.028602 77.000068
-11.324134 13.790812 78.113522
-11.959964 14.906219 77.052406
-12.025024 12.899 77.58759
-10.60221 14.604852 78.548878
-11.324134 13.790812 78.113522
-9.829872 15.431028 78.919163
-10.486737 16.624206 77.948624
-10.60221 14.604852 78.548878
-9.04849 16.170561 79.180924
-9.829872 15.431028 78.919163
-8.218249 16.914466 79.379837
-8.884158 18.194288 78.517822
-9.04849 16.170561 79.180924
-7.400297 17.566297 79.457676
-8.218249 16.914466 79.379837
-6.545034 18.215241 79.477288
-7.198654 19.587137 78.736347
-7.400297 17.566297 79.457676
-5.728895 18.770336 79.367222
-6.545034 18.215241 79.477288
-4.89478 19.314532 79.202141
-5.509276 20.780276 78.590878
-5.728895 18.770336 79.367222
-4.126855 19.766976 78.901932
-4.89478 19.314532 79.202141
-0.515829 71.120079 31.550773
-0.626006 72.154404 29.472696
-0.563193 72.831031 30.782266
-22.786133 12.670672 64.708039
-22.760061 10.987012 64.89125
-21.958087 13.544689 65.00571
-22.786133 12.670672 64.708039
-21.148967 12.721915 65.717312
-21.193973 14.454328 65.459457
-21.958087 13.544689 65.00571
-17.616892 4.719469 71.00763
-18.254736 5.639183 69.910637
-16.951805 5.564664 71.77285
-17.616892 4.719469 71.00763
-16.326582 6.480721 72.544456
-16.937697 7.414583 71.398788
-16.951805 5.564664 71.77285
-15.71502 7.371754 73.340561
-16.326582 6.480721 72.544456
-7.105586 80.564186 29.944403
-7.958717 79.641739 30.828966
-7.105586 80.564186 29.944403
-6.252172 80.17273 30.98166
-4.712431 80.317993 31.111243
-5.428107 79.723198 32.046437
-4.685061 79.100395 33.078489
-4.712431 80.317993 31.111243
-4.017779 80.822418 30.10885
-1.874722 79.28688 29.869446
-2.304366 79.271492 31.004639
-1.874722 79.28688 29.869446
-1.510397 78.052368 30.768141
-0.831135 76.008408 29.179674
-0.971893 76.447243 30.427922
-0.701612 74.438828 29.989325
-0.831135 76.008408 29.179674
-0.591436 73.404503 32.067402
-0.563193 72.831031 30.782266
-0.701612 74.438828 29.989325
-26.126109 63.415196 29.124831
-27.170797 62.610062 29.295877
-26.430732 62.215401 30.333352
-25.115099 64.194731 29.032516
-25.855163 64.589392 27.995041
-26.126109 63.415196 29.124831
-22.726281 48.313 45.524307
-23.465258 48.969723 44.717255
-23.795137 47.347591 45.761826
-21.287954 17.969072 64.771679
-21.243567 16.23649 65.124775
-21.319954 19.746315 64.335613
-21.287954 17.969072 64.771679
-20.516042 18.973119 65.065628
-21.329656 21.471002 63.849007
-21.319954 19.746315 64.335613
-21.314111 23.239242 63.286846
-21.329656 21.471002 63.849007
-20.532497 22.518602 64.067402
-21.261254 24.956432 62.651678
-21.314111 23.239242 63.286846
-21.175565 26.719011 61.958144
-21.261254 24.956432 62.651678
-20.431265 26.049421 62.811706
-21.042647 28.435537 61.181555
-21.175565 26.719011 61.958144
-20.177784 29.577089 61.305045
-20.874854 30.200626 60.368427
-21.042647 28.435537 61.181555
-3.364392 20.198808 78.546166
-3.912699 21.756304 78.070031
-4.126855 19.766976 78.901932
-2.690297 20.545141 78.053711
-3.364392 20.198808 78.546166
-2.044944 20.859343 77.501606
-2.504882 22.502339 77.162159
-2.690297 20.545141 78.053711
-1.501415 21.098673 76.817276
-2.044944 20.859343 77.501606
-1.005706 21.293326 76.068318
-1.36382 23.011192 75.861096
-1.501415 21.098673 76.817276
-0.614734 21.427713 75.199501
-1.005706 21.293326 76.068318
-0.752329 19.515194 76.155682
-0.157316 17.839332 75.183186
-0.450089 17.752714 76.158348
-0.128006 19.684068 74.25161
-0.157316 17.839332 75.183186
0.076035 17.873819 74.14793
0.142153 6.610454 66.95787
0.195057 8.419309 67.508274
-0.088035 6.533356 65.762173
0.142153 6.610454 66.95787
-0.319609 6.371107 64.537544
-0.223268 8.149313 65.037892
-0.088035 6.533356 65.762173
-0.579372 6.24228 63.381666
-0.319609 6.371107 64.537544
-0.81763 6.013525 62.201687
-0.693099 7.758309 62.633284
-0.579372 6.24228 63.381666
-1.068167 5.812112 61.103542
-0.81763 6.013525 62.201687
-0.701562 71.388756 28.17305
-0.626006 72.154404 29.472696
-0.837518 70.561089 26.868032
-0.701562 71.388756 28.17305
-0.714598 69.615783 28.936184
-0.964348 69.653526 25.585976
-0.837518 70.561089 26.868032
-1.11468 68.72303 24.316828
-0.964348 69.653526 25.585976
-1.000886 67.85762 26.362017
-1.232169 67.721992 23.080469
-1.11468 68.72303 24.316828
-1.334916 66.730355 21.872686
-1.232169 67.721992 23.080469
-1.253965 65.935486 23.885086
-1.383021 65.67585 20.70502
-1.334916 66.730355 21.872686
-1.382648 64.653036 19.577913
-1.383021 65.67585 20.70502
-1.356339 63.921034 21.550196
-1.312162 63.5716 18.496398
-1.338844 65.326416 17.651222
-1.382648 64.653036 19.577913
-1.312162 63.5716 18.496398
-1.21336 61.859032 19.390059
-0.932445 59.07711 19.261224
-1.15328 60.074211 20.243315
-1.014972 58.331478 21.14751
-0.932445 59.07711 19.261224
-0.632068 58.020038 18.330303
1.275863 53.6786 15.127318
0.709628 54.831715 15.848795
1.60409 51.984573 16.175774
1.275863 53.6786 15.127318
1.899274 50.241433 17.171812
1.60409 51.984573 16.175774
1.287437 51.397335 17.849649
2.223046 48.482059 18.205013
1.899274 50.241433 17.171812
2.520882 46.686702 19.180009
2.223046 48.482059 18.205013
1.880457 47.858837 19.820683
2.831568 44.863213 20.186317
2.520882 46.686702 19.180009
3.124413 43.016899 21.131955
2.831568 44.863213 20.186317
2.471137 44.217166 21.741318
3.416254 41.13245 22.104042
3.124413 43.016899 21.131955
3.416254 41.13245 22.104042
3.046108 40.475441 23.598726
2.697972 39.711726 25.136735
2.340485 38.942751 26.610042
1.330984 30.440983 35.254511
1.598993 31.469463 33.867992
1.073059 32.364064 34.57598
1.054775 29.423885 36.570239
0.570928 30.248726 37.315117
0.820653 28.337028 37.922857
1.330984 30.440983 35.254511
1.054775 29.423885 36.570239
0.81642 22.309917 41.488777
0.581187 24.24238 40.981243
0.81642 22.309917 41.488777
0.566694 21.201937 42.657928
-0.079133 17.726364 46.15584
0.11447 18.905577 44.990351
-0.255637 19.635313 45.79974
0.051791 15.829243 46.430279
-0.079133 17.726364 46.15584
-0.318317 16.558979 47.239668
0.206269 13.881186 46.753601
0.051791 15.829243 46.430279
-0.082947 12.729938 47.754586
0.206269 13.881186 46.753601
-0.313476 11.544659 48.792637
-0.082947 12.729938 47.754586
-0.417923 13.476579 48.552159
-0.601326 10.380039 49.743997
-0.313476 11.544659 48.792637
-0.813505 9.181583 50.733232
-0.601326 10.380039 49.743997
-0.860632 11.092844 50.579445
-1.08504 8.011699 51.633959
-0.813505 9.181583 50.733232
-1.265691 6.803517 52.569107
-1.08504 8.011699 51.633959
-1.253462 8.686206 52.503828
-1.50205 5.637028 53.417104
-1.265691 6.803517 52.569107
-1.63807 4.423435 54.289057
-1.50205 5.637028 53.417104
-1.570132 6.264431 54.310928
-1.82094 3.273032 55.079225
-1.63807 4.423435 54.289057
-1.903754 2.061914 55.873373
-1.82094 3.273032 55.079225
-1.788966 3.83972 55.977027
-2.020372 0.950268 56.595157
-1.903754 2.061914 55.873373
-1.742927 3.059169 57.732446
-1.745703 4.358275 56.947552
-1.616849 4.788842 57.908823
-1.90211 1.432672 57.464918
-1.742927 3.059169 57.732446
-2.020372 0.950268 56.595157
-1.90211 1.432672 57.464918
3 0 133 131
3 0 131 134
3 0 134 135
3 1 139 137
3 1 141 139
3 3 144 142
3 3 146 144
3 525 148 526
3 4 151 149
3 4 153 151
3 2 156 154
3 5 159 157
3 5 161 159
3 5 163 161
3 7 166 164
3 7 168 166
3 7 170 168
3 6 173 171
3 6 175 173
3 8 178 176
3 8 180 178
3 527 182 528
3 11 185 183
3 13 188 186
3 13 190 188
3 13 192 190
3 15 195 193
3 15 197 195
3 16 201 199
3 16 203 201
3 16 205 203
3 17 208 206
3 17 210 208
3 18 212 211
3 18 214 212
3 18 216 214
3 19 219 217
3 19 221 219
3 9 224 222
3 20 227 225
3 20 229 227
3 20 231 229
3 21 234 232
3 21 236 234
3 22 239 237
3 22 241 239
3 10 244 242
3 23 247 245
3 23 249 247
3 23 251 249
3 24 254 252
3 24 256 254
3 24 258 256
3 25 261 259
3 25 263 261
3 529 265 530
3 532 531 265
3 12 269 267
3 27 272 270
3 27 274 272
3 27 276 274
3 28 279 277
3 28 280 279
3 28 281 280
3 29 284 282
3 29 286 284
3 14 289 287
3 30 292 290
3 30 294 292
3 30 296 294
3 26 299 297
3 26 533 535
3 535 534 299
3 533 534 535
3 31 536 538
3 536 300 537
3 536 537 538
3 33 301 132
3 33 302 301
3 31 539 540
3 31 541 542
3 34 543 544
3 546 545 136
3 35 305 303
3 37 306 138
3 37 307 306
3 37 309 307
3 39 310 140
3 39 311 310
3 40 314 312
3 42 315 143
3 42 316 315
3 42 318 316
3 44 319 145
3 44 320 319
3 45 547 548
3 45 549 551
3 549 321 550
3 549 550 551
3 45 323 321
3 47 324 147
3 47 325 324
3 48 328 326
3 50 329 150
3 50 330 329
3 50 332 330
3 52 333 152
3 52 334 333
3 53 337 335
3 55 338 155
3 55 339 338
3 56 342 340
3 58 343 158
3 58 344 343
3 58 346 344
3 60 347 160
3 60 348 347
3 60 350 348
3 62 351 162
3 62 352 351
3 63 355 353
3 65 356 165
3 65 357 356
3 65 359 357
3 67 360 167
3 67 361 360
3 67 363 361
3 69 364 169
3 69 365 364
3 70 368 366
3 72 369 172
3 72 370 369
3 72 372 370
3 74 373 174
3 74 374 373
3 32 552 554
3 552 375 553
3 552 553 554
3 75 376 177
3 75 377 376
3 75 378 377
3 76 379 179
3 76 380 379
3 555 382 556
3 78 557 559
3 557 383 558
3 557 558 559
3 78 384 383
3 78 385 384
3 79 386 181
3 79 387 386
3 560 389 561
3 81 392 390
3 83 393 184
3 83 394 393
3 36 395 304
3 84 396 187
3 84 397 396
3 84 398 397
3 85 399 189
3 85 400 399
3 85 402 400
3 87 403 191
3 87 404 403
3 38 405 308
3 88 406 194
3 88 407 406
3 88 408 407
3 89 409 196
3 89 410 409
3 90 562 563
3 90 564 566
3 564 411 565
3 564 565 566
3 90 412 411
3 567 413 568
3 569 568 198
3 567 568 569
3 570 414 571
3 572 571 413
3 570 571 572
3 41 573 575
3 575 574 313
3 573 574 575
3 577 576 200
3 91 578 580
3 580 579 202
3 578 579 580
3 91 581 583
3 581 415 582
3 581 582 583
3 91 416 415
3 92 417 204
3 92 418 417
3 43 419 317
3 93 420 207
3 93 421 420
3 93 422 421
3 94 423 209
3 94 424 423
3 95 584 585
3 95 586 587
3 95 588 590
3 588 425 589
3 588 589 590
3 96 426 213
3 96 427 426
3 96 428 427
3 97 429 215
3 97 430 429
3 46 431 322
3 98 432 218
3 98 433 432
3 98 434 433
3 99 435 220
3 99 436 435
3 77 437 381
3 100 438 223
3 100 439 438
3 49 440 327
3 101 441 226
3 101 442 441
3 101 443 442
3 102 444 228
3 102 445 444
3 102 446 445
3 103 447 230
3 103 448 447
3 51 449 331
3 104 450 233
3 104 451 450
3 104 452 451
3 105 453 235
3 105 454 453
3 54 455 336
3 106 456 238
3 106 457 456
3 106 458 457
3 107 459 240
3 107 460 459
3 80 461 388
3 108 462 243
3 108 463 462
3 57 464 341
3 109 465 246
3 109 466 465
3 109 467 466
3 110 468 248
3 110 469 468
3 110 470 469
3 111 471 250
3 111 472 471
3 59 473 345
3 112 474 253
3 112 475 474
3 112 476 475
3 113 477 255
3 113 478 477
3 113 479 478
3 114 480 257
3 114 481 480
3 61 482 349
3 115 483 260
3 115 484 483
3 115 485 484
3 116 486 262
3 116 487 486
3 591 488 592
3 117 593 594
3 117 595 597
3 595 489 596
3 595 596 597
3 117 490 489
3 118 491 264
3 118 492 491
3 118 493 492
3 119 494 266
3 119 495 494
3 82 496 391
3 120 497 268
3 120 498 497
3 64 499 354
3 121 500 271
3 121 501 500
3 121 598 600
3 600 599 501
3 598 599 600
3 122 601 603
3 603 602 273
3 601 602 603
3 122 604 605
3 122 606 608
3 606 502 607
3 606 607 608
3 123 503 275
3 123 504 503
3 66 505 358
3 124 506 278
3 124 507 506
3 124 609 611
3 611 610 507
3 609 610 611
3 68 508 362
3 613 612 283
3 125 614 616
3 616 615 285
3 614 615 616
3 125 617 618
3 86 509 401
3 126 510 288
3 126 511 510
3 71 512 367
3 127 513 291
3 127 514 513
3 127 515 514
3 128 516 293
3 128 517 516
3 128 518 517
3 129 519 295
3 129 520 519
3 73 521 371
3 130 522 298
3 130 523 522
3 130 524 523
3 131 132 31
3 133 132 131
3 133 33 132
3 134 619 620
3 131 621 623
3 623 622 134
3 621 622 623
3 131 624 626
3 624 31 625
3 624 625 626
3 135 136 34
3 134 136 135
3 134 627 629
3 629 628 136
3 627 628 629
3 137 138 35
3 139 138 137
3 139 37 138
3 139 140 37
3 141 140 139
3 141 39 140
3 142 143 40
3 144 143 142
3 144 42 143
3 144 145 42
3 146 145 144
3 146 44 145
3 630 45 631
3 632 147 633
3 634 633 45
3 632 633 634
3 148 635 637
3 635 147 636
3 635 636 637
3 148 47 147
3 149 150 48
3 151 150 149
3 151 50 150
3 151 152 50
3 153 152 151
3 153 52 152
3 154 155 53
3 156 155 154
3 156 55 155
3 157 158 56
3 159 158 157
3 159 58 158
3 159 160 58
3 161 160 159
3 161 60 160
3 161 162 60
3 163 162 161
3 163 62 162
3 164 165 63
3 166 165 164
3 166 65 165
3 166 167 65
3 168 167 166
3 168 67 167
3 168 169 67
3 170 169 168
3 170 69 169
3 171 172 70
3 173 172 171
3 173 72 172
3 173 174 72
3 175 174 173
3 175 74 174
3 176 177 32
3 178 177 176
3 178 75 177
3 178 179 75
3 180 179 178
3 180 76 179
3 638 78 639
3 640 181 641
3 642 641 78
3 640 641 642
3 182 643 645
3 643 181 644
3 643 644 645
3 182 79 181
3 183 184 81
3 185 184 183
3 185 83 184
3 186 187 36
3 188 187 186
3 188 84 187
3 188 189 84
3 190 189 188
3 190 85 189
3 190 191 85
3 192 191 190
3 192 87 191
3 193 194 38
3 195 194 193
3 195 88 194
3 195 196 88
3 197 196 195
3 197 89 196
3 646 90 647
3 648 198 649
3 650 649 90
3 648 649 650
3 651 198 652
3 654 653 198
3 199 200 41
3 201 200 199
3 201 655 657
3 657 656 200
3 655 656 657
3 201 658 660
3 658 202 659
3 658 659 660
3 203 202 201
3 203 91 202
3 203 204 91
3 205 204 203
3 205 92 204
3 206 207 43
3 208 207 206
3 208 93 207
3 208 209 93
3 210 209 208
3 210 94 209
3 211 661 662
3 212 663 665
3 665 664 211
3 663 664 665
3 212 666 668
3 666 95 667
3 666 667 668
3 212 213 95
3 214 213 212
3 214 96 213
3 214 215 96
3 216 215 214
3 216 97 215
3 217 218 46
3 219 218 217
3 219 98 218
3 219 220 98
3 221 220 219
3 221 99 220
3 222 223 77
3 224 223 222
3 224 100 223
3 225 226 49
3 227 226 225
3 227 101 226
3 227 228 101
3 229 228 227
3 229 102 228
3 229 230 102
3 231 230 229
3 231 103 230
3 232 233 51
3 234 233 232
3 234 104 233
3 234 235 104
3 236 235 234
3 236 105 235
3 237 238 54
3 239 238 237
3 239 106 238
3 239 240 106
3 241 240 239
3 241 107 240
3 242 243 80
3 244 243 242
3 244 108 243
3 245 246 57
3 247 246 245
3 247 109 246
3 247 248 109
3 249 248 247
3 249 110 248
3 249 250 110
3 251 250 249
3 251 111 250
3 252 253 59
3 254 253 252
3 254 112 253
3 254 255 112
3 256 255 254
3 256 113 255
3 256 257 113
3 258 257 256
3 258 114 257
3 259 260 61
3 261 260 259
3 261 115 260
3 261 262 115
3 263 262 261
3 263 116 262
3 669 117 670
3 671 264 672
3 673 672 117
3 671 672 673
3 265 674 676
3 674 264 675
3 674 675 676
3 265 118 264
3 265 266 118
3 677 266 678
3 679 678 265
3 677 678 679
3 680 119 681
3 682 681 266
3 680 681 682
3 267 268 82
3 269 268 267
3 269 120 268
3 270 271 64
3 272 271 270
3 272 121 271
3 272 273 121
3 274 273 272
3 274 122 273
3 274 275 122
3 276 275 274
3 276 123 275
3 277 278 66
3 279 278 277
3 279 124 278
3 279 683 685
3 685 684 124
3 683 684 685
3 280 686 688
3 688 687 279
3 686 687 688
3 280 689 690
3 280 691 692
3 281 693 695
3 695 694 280
3 693 694 695
3 281 696 697
3 282 283 68
3 284 283 282
3 284 698 700
3 700 699 283
3 698 699 700
3 284 701 703
3 701 285 702
3 701 702 703
3 286 285 284
3 286 125 285
3 287 288 86
3 289 288 287
3 289 126 288
3 290 291 71
3 292 291 290
3 292 127 291
3 292 293 127
3 294 293 292
3 294 128 293
3 294 295 128
3 296 295 294
3 296 129 295
3 297 298 73
3 299 298 297
3 299 130 298
3 299 704 706
3 706 705 130
3 704 705 706
3 708 707 299
3 300 709 710
3 300 711 713
3 711 32 712
3 711 712 713
3 132 300 31
3 301 300 132
3 301 32 300
3 301 176 32
3 302 176 301
3 302 8 176
3 136 714 716
3 716 715 34
3 714 715 716
3 719 718 136
3 717 718 719
3 303 304 11
3 305 304 303
3 305 36 304
3 138 305 35
3 306 305 138
3 306 36 305
3 306 186 36
3 307 186 306
3 307 13 186
3 307 308 13
3 309 308 307
3 309 38 308
3 140 309 37
3 310 309 140
3 310 38 309
3 310 193 38
3 311 193 310
3 311 15 193
3 312 720 722
3 720 313 721
3 720 721 722
3 314 313 312
3 314 41 313
3 143 314 40
3 315 314 143
3 315 41 314
3 315 199 41
3 316 199 315
3 316 16 199
3 316 317 16
3 318 317 316
3 318 43 317
3 145 318 42
3 319 318 145
3 319 43 318
3 319 206 43
3 320 206 319
3 320 17 206
3 723 211 724
3 321 725 727
3 725 211 726
3 725 726 727
3 321 18 211
3 321 322 18
3 323 322 321
3 323 46 322
3 147 323 45
3 324 323 147
3 324 46 323
3 324 217 46
3 325 217 324
3 325 19 217
3 326 327 9
3 328 327 326
3 328 49 327
3 150 328 48
3 329 328 150
3 329 49 328
3 329 225 49
3 330 225 329
3 330 20 225
3 330 331 20
3 332 331 330
3 332 51 331
3 152 332 50
3 333 332 152
3 333 51 332
3 333 232 51
3 334 232 333
3 334 21 232
3 335 728 730
3 728 336 729
3 728 729 730
3 337 336 335
3 337 54 336
3 155 337 53
3 338 337 155
3 338 54 337
3 338 237 54
3 339 237 338
3 339 22 237
3 340 341 10
3 342 341 340
3 342 57 341
3 158 342 56
3 343 342 158
3 343 57 342
3 343 245 57
3 344 245 343
3 344 23 245
3 344 345 23
3 346 345 344
3 346 59 345
3 160 346 58
3 347 346 160
3 347 59 346
3 347 252 59
3 348 252 347
3 348 24 252
3 348 349 24
3 350 349 348
3 350 61 349
3 162 350 60
3 351 350 162
3 351 61 350
3 351 259 61
3 352 259 351
3 352 25 259
3 353 354 12
3 355 354 353
3 355 64 354
3 165 355 63
3 356 355 165
3 356 64 355
3 356 270 64
3 357 270 356
3 357 27 270
3 357 358 27
3 359 358 357
3 359 66 358
3 167 359 65
3 360 359 167
3 360 66 359
3 360 277 66
3 361 277 360
3 361 28 277
3 361 362 28
3 363 362 361
3 363 68 362
3 169 363 67
3 364 363 169
3 364 68 363
3 364 282 68
3 365 282 364
3 365 29 282
3 366 367 14
3 368 367 366
3 368 71 367
3 172 368 70
3 369 368 172
3 369 71 368
3 369 290 71
3 370 290 369
3 370 30 290
3 370 371 30
3 372 371 370
3 372 73 371
3 174 372 72
3 373 372 174
3 373 73 372
3 373 297 73
3 374 297 373
3 374 26 297
3 375 731 732
3 375 733 734
3 177 375 32
3 376 375 177
3 376 735 737
3 737 736 375
3 735 736 737
3 376 738 739
3 377 740 742
3 742 741 376
3 740 741 742
3 377 743 744
3 377 745 747
3 745 312 746
3 745 746 747
3 378 312 377
3 378 40 312
3 179 378 75
3 379 378 179
3 379 40 378
3 379 142 40
3 380 142 379
3 380 3 142
3 748 381 749
3 750 381 751
3 752 77 753
3 754 753 381
3 752 753 754
3 755 77 756
3 757 222 758
3 759 758 77
3 757 758 759
3 382 760 762
3 760 222 761
3 760 761 762
3 382 9 222
3 383 763 765
3 763 764 765
3 383 766 767
3 383 768 770
3 768 382 769
3 768 769 770
3 384 382 383
3 384 9 382
3 384 326 9
3 385 326 384
3 385 48 326
3 181 385 78
3 386 385 181
3 386 48 385
3 386 149 48
3 387 149 386
3 387 4 149
3 771 388 772
3 773 772 2
3 771 772 773
3 389 774 776
3 774 388 775
3 774 775 776
3 389 80 388
3 777 389 778
3 779 389 780
3 781 80 782
3 783 782 389
3 781 782 783
3 784 242 785
3 786 785 80
3 784 785 786
3 787 242 788
3 789 10 790
3 791 790 242
3 789 790 791
3 792 10 793
3 794 340 795
3 796 795 10
3 794 795 796
3 797 340 798
3 799 56 800
3 801 800 340
3 799 800 801
3 802 56 803
3 804 157 805
3 806 805 56
3 804 805 806
3 807 157 808
3 809 5 810
3 811 810 157
3 809 810 811
3 813 812 5
3 390 814 816
3 814 391 815
3 814 815 816
3 392 391 390
3 392 82 391
3 184 392 81
3 393 392 184
3 393 82 392
3 393 267 82
3 394 267 393
3 394 12 267
3 304 185 11
3 395 185 304
3 395 83 185
3 187 395 36
3 396 395 187
3 396 83 395
3 396 394 83
3 397 394 396
3 397 12 394
3 397 353 12
3 398 353 397
3 398 63 353
3 189 398 84
3 399 398 189
3 399 63 398
3 399 164 63
3 400 164 399
3 400 7 164
3 400 401 7
3 402 401 400
3 402 86 401
3 191 402 85
3 403 402 191
3 403 86 402
3 403 287 86
3 404 287 403
3 404 14 287
3 308 192 13
3 405 192 308
3 405 87 192
3 194 405 38
3 406 405 194
3 406 87 405
3 406 404 87
3 407 404 406
3 407 14 404
3 407 366 14
3 408 366 407
3 408 70 366
3 196 408 88
3 409 408 196
3 409 70 408
3 409 171 70
3 410 171 409
3 410 6 171
3 411 817 818
3 411 819 820
3 411 821 823
3 821 335 822
3 821 822 823
3 412 335 411
3 412 53 335
3 198 412 90
3 413 412 198
3 413 53 412
3 413 154 53
3 414 154 413
3 414 2 154
3 824 414 825
3 826 414 827
3 828 2 829
3 830 829 414
3 828 829 830
3 832 831 2
3 313 833 834
3 836 835 313
3 200 837 839
3 839 838 41
3 837 838 839
3 841 840 200
3 202 842 843
3 845 844 202
3 415 846 847
3 415 848 849
3 415 850 852
3 850 390 851
3 850 851 852
3 416 390 415
3 416 81 390
3 204 416 91
3 417 416 204
3 417 81 416
3 417 183 81
3 418 183 417
3 418 11 183
3 317 205 16
3 419 205 317
3 419 92 205
3 207 419 43
3 420 419 207
3 420 92 419
3 420 418 92
3 421 418 420
3 421 11 418
3 421 303 11
3 422 303 421
3 422 35 303
3 209 422 93
3 423 422 209
3 423 35 422
3 423 137 35
3 424 137 423
3 424 1 137
3 425 853 855
3 853 854 855
3 425 856 858
3 856 34 857
3 856 857 858
3 213 425 95
3 426 425 213
3 426 34 425
3 426 135 34
3 427 135 426
3 427 0 135
3 427 133 0
3 428 133 427
3 428 33 133
3 215 428 96
3 429 428 215
3 429 33 428
3 429 302 33
3 430 302 429
3 430 8 302
3 322 216 18
3 431 216 322
3 431 97 216
3 218 431 46
3 432 431 218
3 432 97 431
3 432 430 97
3 433 430 432
3 433 8 430
3 433 180 8
3 434 180 433
3 434 76 180
3 220 434 98
3 435 434 220
3 435 76 434
3 435 380 76
3 436 380 435
3 436 3 380
3 381 859 861
3 859 148 860
3 859 860 861
3 437 148 381
3 437 47 148
3 223 437 77
3 438 437 223
3 438 47 437
3 438 325 47
3 439 325 438
3 439 19 325
3 327 224 9
3 440 224 327
3 440 100 224
3 226 440 49
3 441 440 226
3 441 100 440
3 441 439 100
3 442 439 441
3 442 19 439
3 442 221 19
3 443 221 442
3 443 99 221
3 228 443 101
3 444 443 228
3 444 99 443
3 444 436 99
3 445 436 444
3 445 3 436
3 445 146 3
3 446 146 445
3 446 44 146
3 230 446 102
3 447 446 230
3 447 44 446
3 447 320 44
3 448 320 447
3 448 17 320
3 331 231 20
3 449 231 331
3 449 103 231
3 233 449 51
3 450 449 233
3 450 103 449
3 450 448 103
3 451 448 450
3 451 17 448
3 451 210 17
3 452 210 451
3 452 94 210
3 235 452 104
3 453 452 235
3 453 94 452
3 453 424 94
3 454 424 453
3 454 1 424
3 336 862 863
3 455 864 866
3 866 865 336
3 864 865 866
3 455 867 868
3 238 455 54
3 456 455 238
3 456 869 871
3 871 870 455
3 869 870 871
3 456 872 873
3 457 874 876
3 876 875 456
3 874 875 876
3 457 877 878
3 457 879 881
3 879 182 880
3 879 880 881
3 458 182 457
3 458 79 182
3 240 458 106
3 459 458 240
3 459 79 458
3 459 387 79
3 460 387 459
3 460 4 387
3 388 156 2
3 461 156 388
3 461 55 156
3 243 461 80
3 462 461 243
3 462 55 461
3 462 339 55
3 463 339 462
3 463 22 339
3 341 244 10
3 464 244 341
3 464 108 244
3 246 464 57
3 465 464 246
3 465 108 464
3 465 463 108
3 466 463 465
3 466 22 463
3 466 241 22
3 467 241 466
3 467 107 241
3 248 467 109
3 468 467 248
3 468 107 467
3 468 460 107
3 469 460 468
3 469 4 460
3 469 153 4
3 470 153 469
3 470 52 153
3 250 470 110
3 471 470 250
3 471 52 470
3 471 334 52
3 472 334 471
3 472 21 334
3 345 251 23
3 473 251 345
3 473 111 251
3 253 473 59
3 474 473 253
3 474 111 473
3 474 472 111
3 475 472 474
3 475 21 472
3 475 236 21
3 476 236 475
3 476 105 236
3 255 476 112
3 477 476 255
3 477 105 476
3 477 454 105
3 478 454 477
3 478 1 454
3 478 141 1
3 479 141 478
3 479 39 141
3 257 479 113
3 480 479 257
3 480 39 479
3 480 311 39
3 481 311 480
3 481 15 311
3 349 258 24
3 482 258 349
3 482 114 258
3 260 482 61
3 483 482 260
3 483 114 482
3 483 481 114
3 484 481 483
3 484 15 481
3 484 197 15
3 485 197 484
3 485 89 197
3 262 485 115
3 486 485 262
3 486 89 485
3 486 410 89
3 487 410 486
3 487 6 410
3 882 163 883
3 884 883 5
3 882 883 884
3 885 163 886
3 887 62 888
3 889 888 163
3 887 888 889
3 890 62 891
3 892 352 893
3 894 893 62
3 892 893 894
3 488 895 897
3 895 352 896
3 895 896 897
3 488 25 352
3 898 488 899
3 489 900 902
3 900 488 901
3 900 901 902
3 489 25 488
3 489 263 25
3 490 263 489
3 490 116 263
3 264 490 117
3 491 490 264
3 491 116 490
3 491 487 116
3 492 487 491
3 492 6 487
3 492 175 6
3 493 175 492
3 493 74 175
3 266 493 118
3 494 493 266
3 494 74 493
3 494 374 74
3 495 374 494
3 495 26 374
3 903 119 904
3 905 119 906
3 907 495 908
3 909 908 119
3 907 908 909
3 910 495 911
3 912 26 913
3 914 913 495
3 912 913 914
3 916 915 26
3 391 917 918
3 496 919 921
3 921 920 391
3 919 920 921
3 496 922 923
3 268 496 82
3 497 496 268
3 497 924 926
3 926 925 496
3 924 925 926
3 497 927 928
3 498 929 931
3 931 930 497
3 929 930 931
3 498 932 933
3 354 269 12
3 499 269 354
3 499 120 269
3 271 499 64
3 500 499 271
3 500 120 499
3 500 498 120
3 501 498 500
3 501 934 936
3 936 935 498
3 934 935 936
3 501 937 939
3 937 938 939
3 941 940 501
3 273 942 944
3 944 943 121
3 942 943 944
3 946 945 273
3 502 947 948
3 502 949 950
3 275 502 122
3 503 502 275
3 503 951 953
3 953 952 502
3 951 952 953
3 503 954 955
3 504 956 958
3 958 957 503
3 956 957 958
3 504 959 960
3 358 276 27
3 505 276 358
3 505 123 276
3 278 505 66
3 506 505 278
3 506 123 505
3 506 504 123
3 507 504 506
3 507 961 963
3 963 962 504
3 961 962 963
3 507 964 965
3 967 966 507
3 969 968 124
3 362 281 28
3 508 281 362
3 508 970 972
3 972 971 281
3 970 971 972
3 283 508 68
3 973 508 974
3 975 974 283
3 973 974 975
3 977 976 508
3 285 978 979
3 981 980 285
3 401 170 7
3 509 170 401
3 509 69 170
3 288 509 86
3 510 509 288
3 510 69 509
3 510 365 69
3 511 365 510
3 511 29 365
3 367 289 14
3 512 289 367
3 512 126 289
3 291 512 71
3 513 512 291
3 513 126 512
3 513 511 126
3 514 511 513
3 514 29 511
3 514 286 29
3 515 286 514
3 515 125 286
3 293 515 127
3 516 515 293
3 516 125 515
3 516 982 984
3 984 983 125
3 982 983 984
3 517 985 987
3 987 986 516
3 985 986 987
3 517 988 989
3 517 990 991
3 518 992 994
3 994 993 517
3 992 993 994
3 518 995 996
3 295 518 128
3 519 518 295
3 519 997 999
3 999 998 518
3 997 998 999
3 519 1000 1001
3 520 1002 1004
3 1004 1003 519
3 1002 1003 1004
3 520 1005 1006
3 371 296 30
3 521 296 371
3 521 129 296
3 298 521 73
3 522 521 298
3 522 129 521
3 522 520 129
3 523 520 522
3 523 1007 1009
3 1009 1008 520
3 1007 1008 1009
3 523 1010 1011
3 524 1012 1014
3 1014 1013 523
3 1012 1013 1014
3 524 1015 1016
3 1017 524 1018
3 1019 1018 130
3 1017 1018 1019
3 1020 524 1021
3 1023 1022 524
