ply
format ascii 1.0
element vertex 605
property float x
property float y
property float z
element face 652
property list uchar int vertex_index
end_header
-2.24815 -4.416752 58.641224
-5.234095 -8.913503 86.413483
0.997042 -6.024637 75.093018
-2.854338 -10.933605 52.84005
-0.880171 -6.559622 83.195709
-11.335747 0.28924 81.109413
-5.829069 5.527889 83.413544
-0.890516 8.181854 79.688126
-11.378931 -12.873217 84.281868
-22.2929 1.823748 66.9049
-17.073544 -5.428226 75.861572
-0.164278 -5.421893 65.838066
0.598814 8.648355 71.229996
-2.168964 -0.728067 56.41914
-2.066908 -3.559383 53.168003
-2.835911 -7.295973 55.912163
-2.800684 -7.429359 85.592766
-2.247421 -14.270407 87.031746
-8.387661 -4.113801 84.390198
-8.66024 3.16618 82.957695
-5.683649 -1.897072 85.004021
-3.161278 -0.296206 84.056458
-26.491913 -0.380018 65.540085
-14.421834 -9.069293 80.471352
0.773708 -5.810991 70.394394
0.342068 1.111197 77.921944
0.369465 8.622175 75.87381
0.863297 1.312092 73.496506
0.501152 1.392668 68.770065
0.419939 -6.185523 79.527596
-13.919956 4.42948 76.845886
-11.430294 7.842094 79.56498
-8.594629 10.898981 81.176552
-5.469549 13.315411 81.313812
-2.578178 14.970043 79.915504
-3.083195 7.193428 82.28566
-1.059973 0.650566 81.586273
-8.095049 -10.853888 85.789513
-4.817947 -15.551579 87.694359
-18.946552 4.77984 69.194092
-19.555632 -1.814131 71.043045
-16.461922 1.07551 73.743713
-14.011209 -2.723215 78.476654
-11.239496 -6.651168 82.634766
-1.398897 -4.897962 61.741615
-2.603233 -9.892662 58.899849
-1.489429 -11.457021 62.587933
-0.53882 15.855846 77.029831
-0.479063 1.322266 64.164215
-1.543541 0.837774 60.011787
-3.631863 -14.167906 55.651459
-2.264627 -2.782087 57.682602
-2.492693 -4.005053 56.122482
-2.565062 -5.690814 57.415775
-3.959959 -8.09773 86.204071
-2.527287 -10.879588 86.329895
-3.692904 -11.515074 86.90567
-6.816225 -6.453111 85.569412
-7.021244 -2.941393 84.877045
-5.475531 -5.455757 85.717674
-4.206556 -4.599544 85.480415
0.986399 -5.936182 72.748535
0.754768 -2.465189 76.608429
0.718136 1.232023 75.775589
0.939571 -2.377747 74.342682
0.907507 -2.292021 72.009109
-2.42613 -7.240344 53.009033
-1.693123 -5.28152 51.6833
-2.070368 -9.094697 51.569843
-0.146133 -6.326545 81.490707
-12.670467 2.38784 79.073128
-12.70085 6.156097 78.304825
-11.402225 4.001196 80.366676
-7.257893 4.428093 83.381409
-8.684259 6.984232 82.135994
-7.215523 8.269896 82.488281
-7.043369 12.198225 81.437607
-5.713772 9.382927 82.448769
-4.241467 10.31221 82.016167
-4.417728 6.450333 83.044891
-1.95343 -3.37641 83.79995
-2.039494 0.251753 82.995132
-1.016741 -2.997625 82.403847
-0.23917 -2.742306 80.700226
-9.681286 -11.880577 85.102554
-8.025442 -14.020108 86.452293
-9.724012 -14.903644 85.788956
-23.876354 3.657688 65.350433
-22.003502 5.033394 66.206696
-20.513561 3.212639 67.939285
-18.311321 -3.622501 73.426964
-17.915266 -0.448088 72.302773
-16.70261 -2.288969 74.713364
-15.260074 -0.812164 76.142372
-15.470058 -4.138949 77.120422
-12.951174 -10.93854 82.499702
-12.774101 -7.902446 81.556717
-11.27372 -9.851657 83.461052
-9.70425 -8.705027 84.354759
-0.783936 -5.169033 63.712376
-1.407473 -8.09594 62.229645
-0.75174 -8.551673 64.250671
-1.680738 11.621864 80.0158
-1.422209 15.506302 78.651962
-0.723097 12.019156 78.483772
0.606667 8.68108 73.625504
0.368328 12.365236 74.510956
0.503937 12.341396 72.172646
0.381807 8.527056 68.754028
0.251722 -2.092745 67.348053
0.059647 1.386005 66.428955
-0.290636 -1.992416 65.110916
-0.88681 -1.921684 62.98996
-1.614073 3.489735 58.693718
-1.204979 4.094671 60.75378
-2.866665 -13.208521 58.988155
-3.17963 -12.065555 57.294785
-1.935728 1.495226 54.975571
-1.78072 0.116669 53.301159
-2.222788 -2.022575 54.754959
-2.56159 -5.52818 54.543915
-2.951241 -9.059937 54.352409
-1.769445 -6.919297 84.580009
-1.515808 -10.389552 85.347748
-9.904367 -1.873108 82.894936
-10.016659 1.772041 82.178505
-8.548197 -0.537775 83.691811
-7.182919 0.687534 84.161209
-5.813229 1.765034 84.249718
-4.465733 2.672709 83.934738
-4.387875 -1.011105 84.732697
-3.025015 -3.905602 84.837395
-13.194386 -13.78512 83.406998
-24.291046 0.626822 66.107346
-15.789714 -7.23925 78.238266
0.376577 -5.639241 68.077576
-0.112179 -8.921412 66.413849
0.431934 -9.204879 68.687294
-0.212742 4.670099 78.970673
-0.130316 8.461107 77.912521
0.35393 4.85598 76.988068
0.67473 4.961983 74.805794
0.752403 5.003523 72.482132
0.606838 4.987202 70.078064
0.783306 1.364847 71.142807
0.668406 -2.196808 69.661575
-1.403191 -1.468626 51.751984
-0.826164 -3.233184 50.331341
0.805183 -6.097419 77.373138
-15.117566 6.412867 74.510727
-12.707314 10.042795 77.473663
-11.389194 11.783592 78.648705
-10.081921 5.549236 81.412865
-10.065334 9.436874 80.541748
-9.945345 13.411674 79.519417
-8.382582 14.890739 80.042938
-6.746677 16.194401 80.198616
-5.114399 17.304592 79.978485
-3.578548 18.20948 79.378067
-3.952642 14.240437 80.805138
-2.872986 11.056519 81.20015
-1.88867 7.765524 81.157364
-3.183174 3.404594 83.220734
-2.015659 3.968563 82.131157
-1.011974 4.382544 80.700691
-0.25692 0.926945 79.877556
0.357462 -2.576496 78.747948
-6.613586 -9.847099 86.254196
-5.003613 -12.276426 87.085228
-6.450239 -13.127294 86.911369
-6.347256 -16.299963 87.484673
-24.91086 -2.19441 67.222336
-22.782707 -1.194508 67.900604
-21.406116 -2.99649 70.013924
-20.865023 0.000662 68.830818
-19.166206 1.385843 70.004921
-17.670864 2.940413 71.388077
-16.340691 4.630802 72.918518
-15.150681 2.717678 75.290146
-13.936005 0.764378 77.629501
-12.650866 -1.228537 79.840782
-14.170252 -6.005366 79.426041
-12.676769 -4.66463 80.661224
-11.269005 -3.267949 81.851746
-9.787153 -5.368866 83.612427
-8.223606 -7.55323 85.088661
-1.918087 -4.633013 59.991676
-2.397263 -6.839702 58.78384
-1.986685 -7.544675 60.389816
-2.12306 -10.762019 60.652332
-2.326351 -14.142929 60.857098
-0.795721 -12.011971 64.682198
-3.446728 -14.861729 87.559502
-2.230358 18.902145 78.393158
-1.143301 19.380806 77.024498
-0.036352 12.262129 76.634193
0.046724 16.029083 75.079506
0.275999 4.909346 67.653221
-0.184376 4.75515 65.261826
-0.703903 4.497496 62.950069
-1.039181 1.16194 62.014931
-1.454451 -1.927439 61.027874
-1.919319 -2.111101 59.271305
-1.93244 0.23674 58.158661
-2.853077 -8.762903 57.335743
-3.211733 -10.682573 55.763199
-3.393074 -12.636833 54.184036
-3.881985 -16.248747 54.055206
1.015981 -7.777064 74.260354
1.01066 -7.732836 73.088112
0.991721 -5.98041 73.920777
-2.689896 -11.917095 52.138803
-2.297911 -10.99764 51.5037
-2.462353 -10.014151 52.204946
-0.429607 -8.194637 82.736656
-0.062588 -8.078098 81.884155
-0.513152 -6.443084 82.343208
-17.692432 -4.525364 74.644268
-18.581817 -5.089423 74.096699
-17.962929 -5.992286 75.314003
0.501695 10.424051 70.459545
0.454257 12.270571 70.93087
0.551376 10.494875 71.701321
0.49031 8.587706 69.992012
0.393192 10.363402 69.221562
0.501695 10.424051 70.459545
-1.068167 5.812112 61.103542
-1.274058 5.501019 59.985288
-3.210133 -14.356499 58.133606
-3.025423 -14.92566 59.036153
-1.738878 -14.03742 86.562164
-1.878811 -12.34201 86.211239
-2.387354 -12.574998 86.68082
-1.600066 -15.72495 86.908394
-1.738878 -14.03742 86.562164
-13.333241 -15.12595 83.780129
-14.161986 -14.184084 82.972401
-26.225013 1.045018 65.120087
-27.358921 0.540156 64.888016
-25.39148 0.123402 65.823716
-25.12458 1.548439 65.403717
-26.225013 1.045018 65.120087
-14.161986 -14.184084 82.972401
-13.973664 -12.852947 82.477604
-0.973773 -5.196148 50.324803
-1.259643 -4.257352 51.007321
-1.407253 -6.220317 51.000782
-0.462122 -4.197444 49.681269
-0.973773 -5.196148 50.324803
0.65313 -7.916937 78.823926
0.845751 -7.872885 77.746696
0.612561 -6.141471 78.450367
-13.925239 6.332269 76.454773
-14.524044 7.323963 75.287194
-14.518761 5.421174 75.678306
-7.183477 -16.680247 87.24186
-7.186349 -15.160036 86.968483
-8.022569 -15.540319 86.72567
-6.328981 -17.834797 87.690201
-7.183477 -16.680247 87.24186
-18.910097 6.547758 68.862259
-19.644278 5.685996 68.233364
-18.254736 5.639183 69.910637
-18.910097 6.547758 68.862259
-24.188415 -3.089322 68.229484
-25.310533 -3.489191 67.963508
-23.124339 -2.589371 68.568618
-23.846784 -1.694459 67.56147
-24.188415 -3.089322 68.229484
-20.480874 -2.405311 70.528485
-20.760396 -3.889294 71.178357
-19.835155 -3.298115 71.692917
-0.464083 -12.22543 65.795838
-0.45395 -10.466691 65.548023
-0.122312 -10.68015 66.661663
-0.450089 17.752714 76.158348
-0.752329 19.515194 76.155682
-0.84106 17.618326 77.027164
0.192629 16.033985 73.965
0.207526 14.197159 74.795231
0.353432 14.202061 73.680725
0.076035 17.873819 74.14793
0.192629 16.033985 73.965
-3.879257 -17.292137 53.316848
-4.142006 -18.05988 54.02749
-3.612589 -15.442548 53.369991
-3.879257 -17.292137 53.316848
-27.674343 -0.798304 65.358384
-27.358921 0.540156 64.888016
0.905425 -7.670214 71.893394
0.799079 -7.607619 70.716324
0.880054 -5.873587 71.571465
0.905425 -7.670214 71.893394
1.01066 -7.732836 73.088112
-1.595875 -8.126905 50.944053
-1.407253 -6.220317 51.000782
-1.881746 -7.188109 51.626571
-1.790587 -10.082987 50.91238
-1.595875 -8.126905 50.944053
-1.790587 -10.082987 50.91238
-2.297911 -10.99764 51.5037
0.196691 -8.018588 80.895568
0.479727 -7.948078 79.914013
0.136903 -6.256034 80.509152
0.196691 -8.018588 80.895568
-0.062588 -8.078098 81.884155
-8.871855 -15.982087 86.394001
-8.022569 -15.540319 86.72567
-8.874727 -14.461876 86.120624
-23.768276 5.255833 65.108406
-24.752026 4.582852 64.776199
-22.83185 5.943687 65.536537
-23.768276 5.255833 65.108406
-22.939928 4.345541 65.778564
-21.947899 6.707479 65.955437
-22.776247 7.617771 65.285279
-22.83185 5.943687 65.536537
-21.172753 5.812773 66.739666
-21.947899 6.707479 65.955437
-20.427782 4.902395 67.605961
-21.172753 5.812773 66.739666
-21.258532 4.123017 67.072991
-19.730056 3.996239 68.566688
-19.644278 5.685996 68.233364
-20.427782 4.902395 67.605961
-19.212999 -4.2023 72.884876
-18.581817 -5.089423 74.096699
-18.933476 -2.718316 72.235005
-19.835155 -3.298115 71.692917
-19.212999 -4.2023 72.884876
-4.03538 -16.847717 87.905697
-4.757512 -17.147202 87.93636
0.421236 14.190141 72.51157
0.353432 14.202061 73.680725
0.436132 12.353316 73.341801
0.435199 14.120014 71.291455
0.421236 14.190141 72.51157
0.435199 14.120014 71.291455
0.454257 12.270571 70.93087
0.251821 10.235436 67.944107
0.393192 10.363402 69.221562
0.195057 8.419309 67.508274
0.251821 10.235436 67.944107
-1.478606 5.198551 58.955258
-1.616849 4.788842 57.908823
-1.409526 3.792203 59.723749
-1.478606 5.198551 58.955258
-1.274058 5.501019 59.985288
-3.366616 -13.785016 57.286921
-3.023147 -12.637038 58.14147
-3.210133 -14.356499 58.133606
-3.592733 -14.836191 56.465258
-3.405747 -13.11673 56.473122
-3.366616 -13.785016 57.286921
-1.858224 0.805947 54.138365
-1.675354 1.95635 53.348196
-1.752858 2.645629 54.185402
-1.21727 -8.482358 84.280602
-0.772633 -8.30252 83.588451
-1.324808 -6.73946 83.887859
-1.090451 -10.217486 84.664471
-1.21727 -8.482358 84.280602
-1.642626 -8.654425 84.963878
-0.957766 -11.931328 85.051952
-1.090451 -10.217486 84.664471
-1.373072 -12.096992 85.720166
-2.021548 -10.63457 85.838821
-1.878811 -12.34201 86.211239
-0.957766 -11.931328 85.051952
-1.373072 -12.096992 85.720166
-12.367961 -14.758094 84.20388
-11.460234 -14.302143 84.641316
-12.286658 -13.329168 83.844433
-12.367961 -14.758094 84.20388
-13.333241 -15.12595 83.780129
-24.917234 3.063871 65.025261
-24.752026 4.582852 64.776199
-24.0837 2.142255 65.72889
-24.917234 3.063871 65.025261
-25.12458 1.548439 65.403717
-17.318954 -6.878007 76.515175
-17.962929 -5.992286 75.314003
-16.677039 -7.783519 77.703521
-16.431629 -6.333738 77.049919
-17.318954 -6.878007 76.515175
-15.998326 -8.674475 78.845688
-16.677039 -7.783519 77.703521
-15.314386 -9.589496 79.962231
-15.105774 -8.154272 79.354809
-15.998326 -8.674475 78.845688
-14.587388 -10.495033 81.009781
-15.314386 -9.589496 79.962231
-13.852058 -11.429657 82.023956
-13.686504 -10.003916 81.485527
-14.587388 -10.495033 81.009781
-13.07278 -12.36183 82.95335
-13.852058 -11.429657 82.023956
-13.973664 -12.852947 82.477604
0.149745 -10.821884 67.798385
-0.122312 -10.68015 66.661663
0.159878 -9.063146 67.550571
0.628193 -9.304562 69.862774
0.602821 -7.507935 69.540844
0.799079 -7.607619 70.716324
0.429695 -10.974978 68.965267
0.628193 -9.304562 69.862774
0.149745 -10.821884 67.798385
0.429695 -10.974978 68.965267
-1.492783 1.227173 52.530527
-1.675354 1.95635 53.348196
-1.304018 0.434525 51.755939
-1.492783 1.227173 52.530527
-1.591956 -0.675979 52.526572
-1.018242 -0.388748 51.011581
-1.304018 0.434525 51.755939
-0.729729 -1.271027 50.30126
-1.018242 -0.388748 51.011581
-1.114677 -2.350905 51.041663
-0.365308 -2.183584 49.622753
-0.729729 -1.271027 50.30126
-0.365308 -2.183584 49.622753
-0.462122 -4.197444 49.681269
0.929711 -7.849083 76.590324
1.02564 -7.812692 75.450264
0.901112 -6.061028 76.233078
0.929711 -7.849083 76.590324
0.845751 -7.872885 77.746696
0.65313 -7.916937 78.823926
0.479727 -7.948078 79.914013
-0.429607 -8.194637 82.736656
-0.772633 -8.30252 83.588451
-15.122788 8.321022 74.122483
-15.71502 7.371754 73.340561
-15.122788 8.321022 74.122483
-14.524044 7.323963 75.287194
-13.315686 7.195578 77.184242
-13.925239 6.332269 76.454773
-13.310403 5.292789 77.575356
-13.318918 9.138927 76.768662
-13.315686 7.195578 77.184242
-12.704082 8.099446 77.889244
-13.320733 11.092194 76.346085
-13.318918 9.138927 76.768662
-12.684084 12.028602 77.000068
-13.320733 11.092194 76.346085
-12.025024 12.899 77.58759
-12.684084 12.028602 77.000068
-12.048254 10.913194 78.061184
-11.324134 13.790812 78.113522
-12.025024 12.899 77.58759
-10.60221 14.604852 78.548878
-11.324134 13.790812 78.113522
-10.667269 12.597633 79.084061
-9.829872 15.431028 78.919163
-10.60221 14.604852 78.548878
-9.04849 16.170561 79.180924
-9.829872 15.431028 78.919163
-9.163963 14.151207 79.781178
-8.218249 16.914466 79.379837
-9.04849 16.170561 79.180924
-7.400297 17.566297 79.457676
-8.218249 16.914466 79.379837
-7.564629 15.54257 80.120777
-6.545034 18.215241 79.477288
-7.400297 17.566297 79.457676
-5.728895 18.770336 79.367222
-6.545034 18.215241 79.477288
-5.930538 16.749496 80.08855
-4.89478 19.314532 79.202141
-5.728895 18.770336 79.367222
-4.346474 17.757036 79.678276
-4.126855 19.766976 78.901932
-4.89478 19.314532 79.202141
-5.522166 -17.521394 87.831516
-4.757512 -17.147202 87.93636
-5.582601 -15.925771 87.589516
-5.522166 -17.521394 87.831516
-6.328981 -17.834797 87.690201
-10.632774 -15.317356 85.394859
-10.551471 -13.888431 85.035412
-11.460234 -14.302143 84.641316
-9.77221 -16.345975 86.051033
-10.632774 -15.317356 85.394859
-8.871855 -15.982087 86.394001
-9.77221 -16.345975 86.051033
-26.854562 -1.695903 66.159515
-27.674343 -0.798304 65.358384
-26.064035 -2.603098 67.000641
-25.310533 -3.489191 67.963508
-25.701386 -1.287214 66.381211
-26.854562 -1.695903 66.159515
-26.064035 -2.603098 67.000641
-21.762325 -4.374421 70.753117
-20.760396 -3.889294 71.178357
-22.436044 -3.490362 69.625279
-21.762325 -4.374421 70.753117
-22.094411 -2.095499 68.957264
-23.124339 -2.589371 68.568618
-22.436044 -3.490362 69.625279
-17.616892 4.719469 71.00763
-18.254736 5.639183 69.910637
-18.308708 3.860126 70.291084
-16.951805 5.564664 71.77285
-17.616892 4.719469 71.00763
-17.005778 3.785608 72.153298
-16.326582 6.480721 72.544456
-16.951805 5.564664 71.77285
-15.729128 5.521835 73.714623
-15.71502 7.371754 73.340561
-16.326582 6.480721 72.544456
-2.755266 -15.392864 59.970625
-3.025423 -14.92566 59.036153
-2.596508 -13.675725 59.922626
-0.852 -13.75108 64.879307
-0.464083 -12.22543 65.795838
-1.218921 -13.45506 63.787455
-0.852 -13.75108 64.879307
-1.565774 -13.177585 62.740323
-1.142575 -11.734496 63.635065
-1.218921 -13.45506 63.787455
-1.984236 -14.520539 61.874905
-1.90789 -12.799975 61.722516
-1.565774 -13.177585 62.740323
-2.457025 -15.866292 60.960936
-1.984236 -14.520539 61.874905
-2.755266 -15.392864 59.970625
-2.457025 -15.866292 60.960936
1.015981 -7.777064 74.260354
1.02564 -7.812692 75.450264
-3.34977 -16.502792 87.838268
-4.132338 -15.206654 87.626931
-4.03538 -16.847717 87.905697
-2.723058 -16.237043 87.610093
-3.34977 -16.502792 87.838268
-2.123404 -15.941381 87.346215
-2.847074 -14.566068 87.295624
-2.723058 -16.237043 87.610093
-1.600066 -15.72495 86.908394
-2.123404 -15.941381 87.346215
-3.364392 20.198808 78.546166
-4.126855 19.766976 78.901932
-2.690297 20.545141 78.053711
-3.364392 20.198808 78.546166
-2.904453 18.555813 78.885613
-2.044944 20.859343 77.501606
-2.690297 20.545141 78.053711
-1.501415 21.098673 76.817276
-2.044944 20.859343 77.501606
-1.686829 19.141475 77.708828
-1.005706 21.293326 76.068318
-1.501415 21.098673 76.817276
-1.005706 21.293326 76.068318
-0.752329 19.515194 76.155682
-0.157316 17.839332 75.183186
-0.450089 17.752714 76.158348
-0.246048 15.942464 76.054668
-0.157316 17.839332 75.183186
0.076035 17.873819 74.14793
0.142153 6.610454 66.95787
0.195057 8.419309 67.508274
0.328903 6.718201 68.203625
-0.088035 6.533356 65.762173
0.142153 6.610454 66.95787
0.045811 4.832248 66.457524
-0.319609 6.371107 64.537544
-0.088035 6.533356 65.762173
-0.579372 6.24228 63.381666
-0.319609 6.371107 64.537544
-0.444139 4.626323 64.105947
-0.81763 6.013525 62.201687
-0.579372 6.24228 63.381666
-0.954441 4.296083 61.851924
-1.068167 5.812112 61.103542
-0.81763 6.013525 62.201687
-1.82094 3.273032 55.079225
-1.752858 2.645629 54.185402
-1.63807 4.423435 54.289057
-1.903754 2.061914 55.873373
-1.82094 3.273032 55.079225
-2.020372 0.950268 56.595157
-2.052346 0.383579 55.697356
-1.903754 2.061914 55.873373
-1.742927 3.059169 57.732446
-1.616849 4.788842 57.908823
-1.90211 1.432672 57.464918
-1.742927 3.059169 57.732446
-1.773257 1.863238 58.426189
-2.050702 -0.245664 57.2889
-2.020372 0.950268 56.595157
-1.90211 1.432672 57.464918
-3.862055 -15.939425 55.621736
-3.592733 -14.836191 56.465258
-3.987116 -16.979845 54.82361
-4.142006 -18.05988 54.02749
-3.756924 -15.208327 54.853333
-3.862055 -15.939425 55.621736
-3.987116 -16.979845 54.82361
-3.368133 -13.636591 53.434406
-3.637529 -14.44279 54.119621
-3.612589 -15.442548 53.369991
-3.098765 -12.784977 52.762413
-3.123706 -11.785219 53.512043
-3.368133 -13.636591 53.434406
-2.689896 -11.917095 52.138803
-3.098765 -12.784977 52.762413
3 0 53 51
3 1 56 54
3 1 59 57
3 1 54 59
3 2 208 210
3 210 209 61
3 208 209 210
3 2 64 62
3 2 61 64
3 3 68 66
3 3 211 213
3 213 212 68
3 211 212 213
3 4 214 216
3 216 215 69
3 214 215 216
3 5 72 70
3 6 75 73
3 6 77 75
3 6 79 77
3 4 82 80
3 4 69 82
3 8 86 84
3 9 88 87
3 9 89 88
3 10 217 219
3 217 90 218
3 217 218 219
3 10 92 90
3 10 94 92
3 8 97 95
3 8 84 97
3 11 101 99
3 7 104 102
3 12 107 105
3 12 220 222
3 222 221 107
3 220 221 222
3 12 223 225
3 223 108 224
3 223 224 225
3 11 111 109
3 11 99 111
3 226 114 227
3 229 228 115
3 13 119 117
3 15 120 52
3 15 121 120
3 16 123 122
3 17 230 232
3 232 231 55
3 230 231 232
3 17 233 234
3 18 126 124
3 20 127 58
3 20 128 127
3 20 130 128
3 16 131 60
3 16 122 131
3 236 235 132
3 22 237 238
3 22 239 241
3 239 133 240
3 239 240 241
3 242 132 243
3 24 137 135
3 25 140 138
3 27 141 63
3 27 142 141
3 27 144 142
3 24 145 65
3 24 135 145
3 14 146 118
3 244 147 245
3 246 245 67
3 244 245 246
3 248 247 147
3 29 249 251
3 251 250 148
3 249 250 251
3 30 252 254
3 254 253 149
3 252 253 254
3 31 150 71
3 31 151 150
3 19 152 125
3 32 153 74
3 32 154 153
3 32 155 154
3 33 156 76
3 33 157 156
3 33 159 157
3 35 160 78
3 35 161 160
3 21 162 129
3 36 163 81
3 36 164 163
3 36 165 164
3 29 166 83
3 29 148 166
3 37 169 167
3 255 170 256
3 257 256 85
3 255 256 257
3 259 258 170
3 39 260 261
3 39 262 263
3 264 171 265
3 266 172 267
3 268 267 171
3 266 267 268
3 40 269 271
3 269 173 270
3 269 270 271
3 40 174 173
3 40 175 174
3 41 176 91
3 41 177 176
3 41 178 177
3 42 179 93
3 42 180 179
3 23 181 134
3 43 182 96
3 43 183 182
3 43 184 183
3 37 185 98
3 37 167 185
3 44 188 186
3 46 189 100
3 46 190 189
3 272 191 273
3 274 273 136
3 272 273 274
3 38 192 168
3 34 193 158
3 47 194 103
3 47 275 277
3 277 276 194
3 275 276 277
3 26 195 139
3 278 196 279
3 280 279 106
3 278 279 280
3 282 281 196
3 28 197 143
3 48 198 110
3 48 199 198
3 48 200 199
3 44 201 112
3 44 186 201
3 49 203 113
3 49 202 203
3 45 204 187
3 50 205 116
3 50 206 205
3 283 207 284
3 286 285 207
3 51 52 13
3 53 52 51
3 53 15 52
3 54 55 16
3 56 55 54
3 56 17 55
3 57 58 18
3 59 58 57
3 59 20 58
3 59 60 20
3 54 60 59
3 54 16 60
3 287 22 288
3 61 289 291
3 291 290 24
3 289 290 291
3 293 292 61
3 62 63 25
3 64 63 62
3 64 27 63
3 64 65 27
3 61 65 64
3 61 24 65
3 66 67 14
3 68 67 66
3 68 294 296
3 296 295 67
3 294 295 296
3 68 297 298
3 300 299 68
3 69 301 303
3 303 302 29
3 301 302 303
3 305 304 69
3 70 71 30
3 72 71 70
3 72 31 71
3 73 74 19
3 75 74 73
3 75 32 74
3 75 76 32
3 77 76 75
3 77 33 76
3 77 78 33
3 79 78 77
3 79 35 78
3 80 81 21
3 82 81 80
3 82 36 81
3 82 83 36
3 69 83 82
3 69 29 83
3 84 85 37
3 86 85 84
3 86 306 308
3 308 307 85
3 306 307 308
3 87 309 310
3 88 311 313
3 313 312 87
3 311 312 313
3 88 314 316
3 314 315 316
3 88 317 318
3 89 319 321
3 321 320 88
3 319 320 321
3 89 322 324
3 322 39 323
3 322 323 324
3 90 325 326
3 90 327 329
3 327 40 328
3 327 328 329
3 90 91 40
3 92 91 90
3 92 41 91
3 92 93 41
3 94 93 92
3 94 42 93
3 95 96 23
3 97 96 95
3 97 43 96
3 97 98 43
3 84 98 97
3 84 37 98
3 99 100 44
3 101 100 99
3 101 46 100
3 331 330 38
3 102 103 34
3 104 103 102
3 104 47 103
3 105 106 26
3 107 106 105
3 107 332 334
3 334 333 106
3 332 333 334
3 107 335 336
3 338 337 107
3 108 339 340
3 108 341 342
3 109 110 28
3 111 110 109
3 111 48 110
3 111 112 48
3 99 112 111
3 99 44 112
3 343 113 344
3 114 345 347
3 345 113 346
3 345 346 347
3 114 49 113
3 115 116 45
3 348 116 349
3 350 349 115
3 348 349 350
3 351 50 352
3 353 352 116
3 351 352 353
3 117 354 356
3 354 118 355
3 354 355 356
3 119 118 117
3 119 14 118
3 52 119 13
3 120 119 52
3 120 14 119
3 120 66 14
3 121 66 120
3 121 3 66
3 122 357 359
3 359 358 4
3 357 358 359
3 123 360 362
3 362 361 122
3 360 361 362
3 123 363 364
3 55 123 16
3 365 123 366
3 367 366 55
3 365 366 367
3 369 368 123
3 124 125 5
3 126 125 124
3 126 19 125
3 58 126 18
3 127 126 58
3 127 19 126
3 127 73 19
3 128 73 127
3 128 6 73
3 128 129 6
3 130 129 128
3 130 21 129
3 60 130 20
3 131 130 60
3 131 21 130
3 131 80 21
3 122 80 131
3 122 4 80
3 132 370 372
3 372 371 8
3 370 371 372
3 374 373 132
3 375 87 376
3 133 377 379
3 377 87 378
3 377 378 379
3 133 9 87
3 380 10 381
3 382 134 383
3 384 383 10
3 382 383 384
3 385 134 386
3 387 23 388
3 389 388 134
3 387 388 389
3 390 23 391
3 392 95 393
3 394 393 23
3 392 393 394
3 132 395 397
3 395 95 396
3 395 396 397
3 132 8 95
3 135 136 11
3 137 136 135
3 137 398 400
3 400 399 136
3 398 399 400
3 401 137 402
3 403 402 24
3 401 402 403
3 404 137 405
3 407 406 137
3 138 139 7
3 140 139 138
3 140 26 139
3 63 140 25
3 141 140 63
3 141 26 140
3 141 105 26
3 142 105 141
3 142 12 105
3 142 143 12
3 144 143 142
3 144 28 143
3 65 144 27
3 145 144 65
3 145 28 144
3 145 109 28
3 135 109 145
3 135 11 109
3 118 408 409
3 146 410 412
3 412 411 118
3 410 411 412
3 146 413 414
3 67 146 14
3 147 146 67
3 147 415 417
3 417 416 146
3 415 416 417
3 147 418 419
3 421 420 147
3 148 422 424
3 424 423 2
3 422 423 424
3 426 425 148
3 428 427 29
3 430 429 4
3 149 431 432
3 434 433 149
3 71 435 437
3 437 436 30
3 435 436 437
3 150 438 440
3 440 439 71
3 438 439 440
3 150 441 442
3 150 443 444
3 151 445 447
3 447 446 150
3 445 446 447
3 151 448 449
3 125 72 5
3 152 72 125
3 152 31 72
3 74 152 19
3 153 152 74
3 153 31 152
3 153 151 31
3 154 151 153
3 154 450 452
3 452 451 151
3 450 451 452
3 154 453 454
3 155 455 457
3 457 456 154
3 455 456 457
3 155 458 459
3 76 155 32
3 156 155 76
3 156 460 462
3 462 461 155
3 460 461 462
3 156 463 464
3 157 465 467
3 467 466 156
3 465 466 467
3 157 468 469
3 157 470 472
3 470 158 471
3 470 471 472
3 159 158 157
3 159 34 158
3 78 159 33
3 160 159 78
3 160 34 159
3 160 102 34
3 161 102 160
3 161 7 102
3 129 79 6
3 162 79 129
3 162 35 79
3 81 162 21
3 163 162 81
3 163 35 162
3 163 161 35
3 164 161 163
3 164 7 161
3 164 138 7
3 165 138 164
3 165 25 138
3 83 165 36
3 166 165 83
3 166 25 165
3 166 62 25
3 148 62 166
3 148 2 62
3 167 168 1
3 169 168 167
3 169 38 168
3 85 169 37
3 170 169 85
3 170 38 169
3 170 473 475
3 475 474 38
3 473 474 475
3 477 476 170
3 478 86 479
3 480 479 8
3 478 479 480
3 481 86 482
3 484 483 86
3 485 22 486
3 171 487 488
3 171 489 491
3 489 22 490
3 489 490 491
3 171 133 22
3 172 133 171
3 172 9 133
3 173 492 493
3 173 494 495
3 173 496 498
3 496 172 497
3 496 497 498
3 174 172 173
3 174 9 172
3 174 89 9
3 175 89 174
3 175 39 89
3 91 175 40
3 176 175 91
3 176 39 175
3 176 499 501
3 501 500 39
3 499 500 501
3 177 502 504
3 504 503 176
3 502 503 504
3 177 505 506
3 177 507 509
3 507 149 508
3 507 508 509
3 178 149 177
3 178 30 149
3 93 178 41
3 179 178 93
3 179 30 178
3 179 70 30
3 180 70 179
3 180 5 70
3 134 94 10
3 181 94 134
3 181 42 94
3 96 181 23
3 182 181 96
3 182 42 181
3 182 180 42
3 183 180 182
3 183 5 180
3 183 124 5
3 184 124 183
3 184 18 124
3 98 184 43
3 185 184 98
3 185 18 184
3 185 57 18
3 167 57 185
3 167 1 57
3 186 187 0
3 188 187 186
3 188 45 187
3 100 188 44
3 189 188 100
3 189 45 188
3 189 115 45
3 190 115 189
3 190 510 512
3 512 511 115
3 510 511 512
3 136 101 11
3 191 101 136
3 191 46 101
3 513 191 514
3 515 191 516
3 517 46 518
3 519 518 191
3 517 518 519
3 520 190 521
3 522 521 46
3 520 521 522
3 523 190 524
3 526 525 190
3 528 527 2
3 168 56 1
3 192 56 168
3 192 17 56
3 529 192 530
3 531 530 38
3 529 530 531
3 532 192 533
3 534 17 535
3 536 535 192
3 534 535 536
3 538 537 17
3 158 539 540
3 193 541 543
3 543 542 158
3 541 542 543
3 193 544 545
3 103 193 34
3 194 193 103
3 194 546 548
3 548 547 193
3 546 547 548
3 194 549 550
3 552 551 194
3 139 104 7
3 195 104 139
3 195 47 104
3 106 195 26
3 196 195 106
3 196 47 195
3 196 553 555
3 555 554 47
3 553 554 555
3 557 556 196
3 143 108 12
3 197 108 143
3 197 558 560
3 560 559 108
3 558 559 560
3 110 197 28
3 198 197 110
3 198 561 563
3 563 562 197
3 561 562 563
3 198 564 565
3 199 566 568
3 568 567 198
3 566 567 568
3 199 569 570
3 199 571 573
3 571 114 572
3 571 572 573
3 200 114 199
3 200 49 114
3 112 200 48
3 201 200 112
3 201 49 200
3 201 202 49
3 186 202 201
3 186 0 202
3 574 117 575
3 574 575 576
3 577 117 578
3 579 13 580
3 581 580 117
3 579 580 581
3 113 582 583
3 203 584 586
3 586 585 113
3 584 585 586
3 203 587 589
3 587 13 588
3 587 588 589
3 203 51 13
3 202 51 203
3 202 0 51
3 187 53 0
3 204 53 187
3 204 15 53
3 116 204 45
3 205 204 116
3 205 15 204
3 205 121 15
3 206 121 205
3 206 3 121
3 590 50 591
3 207 592 593
3 207 594 596
3 594 50 595
3 594 595 596
3 207 206 50
3 597 206 598
3 599 598 207
3 597 598 599
3 600 3 601
3 602 601 206
3 600 601 602
3 604 603 3
