ply
format ascii 1.0
element vertex 381
property float x
property float y
property float z
element face 409
property list uchar int vertex_index
end_header
-31.693153 -66.990677 53.388084
-36.682423 -48.692543 57.291817
-40.849613 -44.930809 51.265446
-28.197975 -70.202805 60.565228
-28.241192 -65.987274 70.816872
-31.873178 -61.78997 63.33712
-34.314186 -57.922359 55.025318
-38.383617 -54.800991 49.298542
-44.84671 -52.58292 48.166451
-29.880175 -68.496178 56.952164
-30.373589 -63.877594 67.360672
-35.263351 -50.713337 61.032379
-34.16259 -55.316704 59.994633
-35.367405 -53.365047 56.073906
-36.026451 -56.254658 51.64119
-36.989437 -51.527626 52.707569
-42.253567 -48.51413 48.848606
-45.819389 -47.527622 48.46302
-38.460732 -46.712814 53.927608
-33.988754 -65.716232 50.359692
-28.511967 -68.107788 66.011642
-30.192709 -66.067047 62.21069
-31.573677 -64.146698 58.088554
-32.99675 -57.336014 64.081848
-33.050453 -59.782635 59.078362
-33.082115 -62.42033 54.109337
-35.069321 -60.935467 50.790714
-37.682793 -59.689533 48.542889
-40.849228 -58.638035 47.547562
-39.272175 -49.876953 50.241161
-41.375538 -53.573799 48.170269
-44.357025 -57.716244 47.709957
-47.978943 -56.864769 48.68713
-30.744452 -67.715706 55.134109
-35.950134 -49.704281 59.138454
-35.284779 -52.030014 58.531799
-35.950516 -51.04084 56.652538
-36.106483 -52.428352 54.297237
-36.717155 -50.069351 54.890755
-49.370682 -61.46233 48.870979
-35.369183 -65.163353 49.18251
-27.62793 -64.786942 72.759621
-28.510393 -67.080704 68.548592
-31.186981 -62.828003 65.402344
-30.372204 -64.977631 64.869835
-31.095703 -63.946991 62.833611
-30.894329 -65.087151 60.163834
-31.739643 -62.941479 60.724415
-34.21151 -56.596027 57.484512
-33.643112 -57.56776 59.537533
-33.646122 -58.830585 56.996445
-33.004078 -61.044861 56.517429
-33.729008 -60.170422 54.546555
-34.001122 -61.646683 52.337536
-34.573158 -59.352356 52.74778
-37.120441 -55.500248 50.323112
-36.718563 -57.890591 49.877037
-38.034458 -57.24427 48.880215
-39.208351 -59.143337 47.888084
-39.500465 -56.650337 48.200253
-39.570797 -45.784683 52.493885
-38.694675 -48.231262 51.899971
-39.943848 -47.39959 50.739712
-43.439484 -50.500336 48.312183
-41.742165 -51.04142 48.516121
-43.063347 -53.048447 48.043755
-42.792507 -55.604126 47.759884
-44.565041 -55.14407 47.941624
-46.166008 -57.284374 48.125912
-46.387642 -54.721722 48.328209
-29.049683 -69.327042 58.78059
-28.943586 -63.749397 71.26033
-29.398602 -64.932144 69.174683
-30.07597 -62.707966 69.584274
-31.031578 -61.664574 67.752029
-31.829865 -60.622803 65.792297
-34.572933 -51.713512 62.930912
-34.064289 -54.031944 62.453636
-34.672836 -53.028755 60.480362
-34.734879 -54.329865 57.989746
-34.84613 -55.657993 55.535076
-35.097134 -57.062698 53.222843
-35.591515 -54.758759 53.742718
-36.482418 -53.903278 52.156971
-37.540905 -53.097042 50.819374
-42.29837 -44.17638 50.25642
-41.370163 -46.652382 49.827381
-42.963608 -46.007298 49.163345
-43.973309 -47.970501 48.543579
-45.250057 -50.039593 48.346825
-46.702171 -52.177238 48.488369
-47.151749 -49.660423 48.572056
-37.506599 -47.689606 55.539665
-32.766235 -66.324188 51.77726
-28.363218 -69.126091 63.30777
-29.5222 -66.02446 66.786575
-29.414295 -67.076691 64.174347
-29.209673 -68.153999 61.458202
-29.98164 -67.216316 59.520233
-30.733158 -66.321022 57.54393
-31.519945 -65.476578 55.589733
-32.502357 -59.588116 63.740974
-33.599892 -56.320389 62.040092
-33.090603 -58.56736 61.640224
-32.477184 -60.771858 61.211304
-32.357597 -61.970997 58.598236
-32.286221 -63.255211 56.048065
-32.392483 -64.690048 53.723766
-33.390308 -63.965717 52.011799
-34.538391 -63.304279 50.513084
-35.845722 -62.702801 49.275219
-35.564899 -58.592564 51.176422
-36.297733 -60.284657 49.515305
-37.305954 -62.155048 48.330547
-38.899765 -61.652096 47.694122
-40.598591 -61.183086 47.363144
-42.369099 -60.736084 47.317719
-37.62318 -49.12751 53.293232
-38.041065 -50.673035 51.345707
-38.775188 -52.346493 49.759602
-40.680462 -49.153 49.409023
-40.180538 -51.658863 48.992451
-39.807896 -54.158367 48.581856
-41.095261 -56.104954 47.833786
-42.575554 -58.165096 47.500435
-44.177528 -60.299019 47.522682
-45.993134 -59.860783 47.930035
-47.790192 -59.412556 48.481796
-49.548004 -58.949535 49.112713
-48.237961 -54.335739 48.856903
-31.355065 -68.155823 53.233076
-30.880714 -68.518338 54.106088
-31.218802 -67.353192 54.261097
-36.316278 -49.198412 58.215136
-36.384012 -48.535803 59.48769
-36.750157 -48.029934 58.564372
-50.11129 -62.413378 49.007995
-50.203476 -61.184599 49.167872
-27.69926 -71.200882 60.03821
-27.735525 -70.661072 61.414364
-35.920299 -66.188252 48.788528
-36.134596 -64.911037 48.730175
-27.568307 -66.513759 71.543365
-27.261676 -65.913593 72.51474
-27.934561 -65.387108 71.788246
-27.778864 -67.064598 70.474575
-27.568307 -66.513759 71.543365
-28.375793 -66.533989 69.682732
-27.913464 -67.611313 69.340435
-27.778864 -67.064598 70.474575
-29.466977 -69.578716 56.618531
-29.051732 -69.994148 57.532743
-29.464929 -68.91161 57.866377
-29.176575 -62.589419 71.378357
-28.528114 -63.098102 72.14125
-29.742767 -62.068703 70.540329
-29.509778 -63.228682 70.422302
-29.176575 -62.589419 71.378357
-31.264145 -60.524277 67.877079
-30.783732 -61.036417 68.784034
-31.663289 -60.003391 66.897213
-31.430722 -61.143688 66.772163
-31.264145 -60.524277 67.877079
-35.244009 -50.049082 62.274794
-35.64553 -49.550288 61.358825
-34.918142 -51.213425 61.981645
-34.8988 -50.54917 63.22406
-35.244009 -50.049082 62.274794
-43.436746 -44.774603 49.31588
-42.630989 -45.091839 49.709882
-43.104128 -43.859144 49.862417
-44.896349 -47.749061 48.503299
-44.341019 -46.723568 48.638742
-45.264059 -46.502128 48.598463
-33.715675 -66.94783 50.340266
-33.104416 -67.251808 51.049049
-33.377494 -66.02021 51.068476
-27.954375 -69.117195 65.521698
-27.981705 -68.631157 66.85189
-28.437593 -68.61694 64.659706
-27.88 -69.626347 64.169762
-27.954375 -69.117195 65.521698
-32.652386 -57.847364 65.081253
-32.833912 -56.687958 65.20602
-32.749554 -58.462065 63.911411
-32.40519 -58.973416 64.910816
-32.652386 -57.847364 65.081253
-48.422903 -53.083639 48.901777
-47.470066 -53.256489 48.672636
-47.655008 -52.004389 48.71751
-30.370289 -68.840935 54.893736
-29.93815 -69.231171 55.802763
-30.312314 -68.105942 56.043137
-30.506552 -69.643567 53.865715
-30.370289 -68.840935 54.893736
-30.880714 -68.518338 54.106088
-35.988922 -49.04576 60.411863
-36.384012 -48.535803 59.48769
-35.606742 -50.208809 60.085417
-35.64553 -49.550288 61.358825
-35.988922 -49.04576 60.411863
-46.203552 -46.296339 48.487509
-45.264059 -46.502128 48.598463
-46.795164 -47.356575 48.512545
-46.203552 -46.296339 48.487509
-49.284572 -62.726091 48.760686
-48.499679 -61.718817 48.582424
-49.284572 -62.726091 48.760686
-50.11129 -62.413378 49.007995
-35.126106 -66.420391 49.209724
-34.435892 -66.696831 49.798315
-34.678968 -65.439793 49.771101
-35.126106 -66.420391 49.209724
-35.920299 -66.188252 48.788528
-26.881481 -65.30304 73.41494
-27.139012 -64.123576 73.569195
-26.515227 -66.429691 73.170059
-26.881481 -65.30304 73.41494
-27.261676 -65.913593 72.51474
-27.980918 -68.117615 68.120365
-27.913464 -67.611313 69.340435
-28.51118 -67.594246 67.280117
-27.981705 -68.631157 66.85189
-27.980918 -68.117615 68.120365
-33.203817 -56.186194 64.247795
-32.833912 -56.687958 65.20602
-28.594638 -70.366257 58.349849
-28.168784 -70.804138 59.242168
-28.623829 -69.764924 59.672909
-28.594638 -70.366257 58.349849
-29.051732 -69.994148 57.532743
-29.466977 -69.578716 56.618531
-29.93815 -69.231171 55.802763
-27.870286 -63.616875 72.890896
-27.139012 -64.123576 73.569195
-28.285758 -64.268169 72.009975
-27.870286 -63.616875 72.890896
-28.528114 -63.098102 72.14125
-30.305929 -61.558113 69.700157
-29.742767 -62.068703 70.540329
-30.553774 -62.18627 68.668151
-30.305929 -61.558113 69.700157
-30.783732 -61.036417 68.784034
-34.469412 -51.035629 64.115724
-34.8988 -50.54917 63.22406
-34.202933 -52.208095 63.865617
-34.469412 -51.035629 64.115724
-34.318611 -52.872728 62.692274
-33.948611 -53.367311 63.62698
-34.202933 -52.208095 63.865617
-43.836168 -45.741967 48.948625
-43.436746 -44.774603 49.31588
-43.468458 -46.9889 48.853462
-43.836168 -45.741967 48.948625
-44.341019 -46.723568 48.638742
-47.879797 -50.745981 48.759354
-47.655008 -52.004389 48.71751
-46.92696 -50.91883 48.530213
-47.461344 -48.422975 48.567063
-46.485569 -48.594023 48.517538
-46.795164 -47.356575 48.512545
-48.137209 -49.511119 48.749165
-47.461344 -48.422975 48.567063
-47.879797 -50.745981 48.759354
-48.137209 -49.511119 48.749165
-37.162125 -47.513249 57.653086
-36.750157 -48.029934 58.564372
-37.574213 -47.01178 56.77701
-37.094511 -48.191074 56.415741
-37.162125 -47.513249 57.653086
-38.025154 -46.496567 55.90168
-37.574213 -47.01178 56.77701
-38.50222 -46.008171 55.095652
-37.983666 -47.20121 54.733637
-38.025154 -46.496567 55.90168
-39.010298 -45.506312 54.277902
-38.50222 -46.008171 55.095652
-39.565331 -45.042246 53.561041
-39.015765 -46.248749 53.210746
-39.010298 -45.506312 54.277902
-40.143102 -44.568384 52.818381
-39.565331 -45.042246 53.561041
-40.782511 -44.141447 52.204161
-40.210205 -45.357746 51.879666
-40.143102 -44.568384 52.818381
-41.436645 -43.711242 51.548636
-40.782511 -44.141447 52.204161
-42.161024 -43.334028 51.044123
-41.573991 -44.553595 50.760933
-41.436645 -43.711242 51.548636
-42.893202 -42.961782 50.482319
-42.161024 -43.334028 51.044123
-43.698959 -42.644547 50.088316
-43.104128 -43.859144 49.862417
-42.893202 -42.961782 50.482319
-27.69926 -71.200882 60.03821
-28.168784 -70.804138 59.242168
-32.461649 -67.525055 51.696617
-31.925108 -67.8583 52.502029
-32.229694 -66.657432 52.582672
-32.461649 -67.525055 51.696617
-33.104416 -67.251808 51.049049
-33.715675 -66.94783 50.340266
-34.435892 -66.696831 49.798315
-27.818146 -70.122715 62.785635
-27.88 -69.626347 64.169762
-28.280597 -69.664448 61.936499
-27.735525 -70.661072 61.414364
-27.818146 -70.122715 62.785635
-32.068944 -59.490759 65.936477
-31.663289 -60.003391 66.897213
-32.166111 -60.105459 64.766636
-32.068944 -59.490759 65.936477
-32.40519 -58.973416 64.910816
-33.737587 -54.534159 63.433689
-33.948611 -53.367311 63.62698
-33.505388 -55.678381 63.226917
-33.737587 -54.534159 63.433689
-33.83209 -55.176167 62.246864
-33.298321 -56.828201 63.06097
-33.203817 -56.186194 64.247795
-33.505388 -55.678381 63.226917
-36.372866 -63.680762 48.776529
-36.134596 -64.911037 48.730175
-35.607453 -63.933077 49.228865
-37.102981 -63.406885 48.304193
-36.372866 -63.680762 48.776529
-36.575838 -62.428925 48.802883
-37.93309 -63.1738 47.995646
-37.102981 -63.406885 48.304193
-38.729996 -62.922323 47.677433
-37.93309 -63.1738 47.995646
-38.10286 -61.903572 48.012335
-39.609453 -62.702396 47.511578
-38.729996 -62.922323 47.677433
-40.458866 -62.467892 47.346089
-39.609453 -62.702396 47.511578
-39.749178 -61.417591 47.528633
-41.369681 -62.25421 47.313793
-40.458866 -62.467892 47.346089
-42.254935 -62.030709 47.29108
-41.369681 -62.25421 47.313793
-41.483845 -60.959585 47.340431
-43.178633 -61.815973 47.376156
-43.064469 -63.110598 47.349518
-42.254935 -62.030709 47.29108
-44.082847 -61.597441 47.478638
-43.178633 -61.815973 47.376156
-43.273314 -60.517551 47.4202
-45.0023 -61.374531 47.65905
-44.082847 -61.597441 47.478638
-45.910103 -61.155413 47.862726
-45.0023 -61.374531 47.65905
-45.085331 -60.079901 47.726359
-46.810906 -60.918043 48.111952
-45.910103 -61.155413 47.862726
-47.709435 -60.69393 48.387833
-46.810906 -60.918043 48.111952
-46.891663 -59.636669 48.205916
-48.580437 -60.437443 48.676388
-48.499679 -61.718817 48.582424
-47.709435 -60.69393 48.387833
-50.292137 -59.928202 49.288739
-50.203476 -61.184599 49.167872
-49.459343 -60.205933 48.991846
-49.166647 -54.162084 49.15562
-48.422903 -53.083639 48.901777
-49.006754 -55.396387 49.090238
-49.166647 -54.162084 49.15562
-48.877245 -56.660902 49.005352
-48.108452 -55.600254 48.772017
-49.006754 -55.396387 49.090238
-49.661776 -57.703285 49.218143
-48.763474 -57.907152 48.899922
-48.877245 -56.660902 49.005352
-50.398292 -58.711515 49.432617
-49.661776 -57.703285 49.218143
-50.292137 -59.928202 49.288739
-50.398292 -58.711515 49.432617
-31.355065 -68.155823 53.233076
-31.925108 -67.8583 52.502029
3 0 130 132
3 132 131 33
3 130 131 132
3 1 133 135
3 133 34 134
3 133 134 135
3 1 36 34
3 1 38 36
3 137 136 39
3 3 138 139
3 141 140 40
3 4 142 144
3 144 143 41
3 142 143 144
3 4 145 146
3 4 147 149
3 147 42 148
3 147 148 149
3 5 45 43
3 5 47 45
3 6 50 48
3 6 52 50
3 6 54 52
3 7 57 55
3 7 59 57
3 2 62 60
3 8 65 63
3 8 67 65
3 8 69 67
3 9 150 152
3 152 151 70
3 150 151 152
3 153 71 154
3 155 73 156
3 157 156 71
3 155 156 157
3 158 74 159
3 160 75 161
3 162 161 74
3 160 161 162
3 11 163 164
3 11 165 167
3 165 76 166
3 165 166 167
3 11 78 76
3 13 79 35
3 13 80 79
3 13 82 80
3 15 83 37
3 15 84 83
3 168 87 169
3 170 169 85
3 168 169 170
3 17 171 173
3 171 88 172
3 171 172 173
3 17 89 88
3 17 91 89
3 19 174 176
3 176 175 93
3 174 175 176
3 20 177 178
3 20 179 181
3 179 94 180
3 179 180 181
3 10 95 72
3 21 96 44
3 21 97 96
3 21 98 97
3 22 99 46
3 22 100 99
3 23 182 183
3 23 184 186
3 184 101 185
3 184 185 186
3 12 102 77
3 24 103 49
3 24 104 103
3 24 105 104
3 25 106 51
3 25 107 106
3 25 108 107
3 26 109 53
3 26 110 109
3 14 111 81
3 27 112 56
3 27 113 112
3 27 114 113
3 28 115 58
3 28 116 115
3 18 117 92
3 29 118 61
3 29 119 118
3 16 120 86
3 30 121 64
3 30 122 121
3 30 123 122
3 31 124 66
3 31 125 124
3 31 126 125
3 32 127 68
3 32 128 127
3 187 129 188
3 189 188 90
3 187 188 189
3 33 190 192
3 192 191 9
3 190 191 192
3 195 194 33
3 193 194 195
3 34 196 197
3 34 198 200
3 198 11 199
3 198 199 200
3 34 35 11
3 36 35 34
3 36 13 35
3 36 37 13
3 38 37 36
3 38 15 37
3 201 17 202
3 204 203 17
3 39 205 206
3 208 207 39
3 40 209 211
3 211 210 19
3 209 210 211
3 213 212 40
3 41 214 215
3 218 217 41
3 216 217 218
3 42 219 220
3 42 221 223
3 221 20 222
3 221 222 223
3 43 44 10
3 45 44 43
3 45 21 44
3 45 46 21
3 47 46 45
3 47 22 46
3 224 23 225
3 48 49 12
3 50 49 48
3 50 24 49
3 50 51 24
3 52 51 50
3 52 25 51
3 52 53 25
3 54 53 52
3 54 26 53
3 55 56 14
3 57 56 55
3 57 27 56
3 57 58 27
3 59 58 57
3 59 28 58
3 60 61 18
3 62 61 60
3 62 29 61
3 63 64 16
3 65 64 63
3 65 30 64
3 65 66 30
3 67 66 65
3 67 31 66
3 67 68 31
3 69 68 67
3 69 32 68
3 70 226 228
3 228 227 3
3 226 227 228
3 230 229 70
3 232 231 9
3 233 41 234
3 71 235 237
3 235 41 236
3 235 236 237
3 71 4 41
3 71 72 4
3 73 72 71
3 73 10 72
3 238 73 239
3 74 240 242
3 240 73 241
3 240 241 242
3 74 10 73
3 74 43 10
3 75 43 74
3 75 5 43
3 76 243 244
3 76 245 246
3 76 247 249
3 247 77 248
3 247 248 249
3 78 77 76
3 78 12 77
3 35 78 11
3 79 78 35
3 79 12 78
3 79 48 12
3 80 48 79
3 80 6 48
3 80 81 6
3 82 81 80
3 82 14 81
3 37 82 13
3 83 82 37
3 83 14 82
3 83 55 14
3 84 55 83
3 84 7 55
3 85 86 2
3 87 86 85
3 87 16 86
3 250 87 251
3 88 252 254
3 252 87 253
3 252 253 254
3 88 16 87
3 88 63 16
3 89 63 88
3 89 8 63
3 89 90 8
3 91 90 89
3 91 255 257
3 257 256 90
3 255 256 257
3 258 91 259
3 260 259 17
3 258 259 260
3 261 91 262
3 264 263 91
3 265 1 266
3 267 92 268
3 269 268 1
3 267 268 269
3 270 92 271
3 272 18 273
3 274 273 92
3 272 273 274
3 275 18 276
3 277 60 278
3 279 278 18
3 277 278 279
3 280 60 281
3 282 2 283
3 284 283 60
3 282 283 284
3 285 2 286
3 287 85 288
3 289 288 2
3 287 288 289
3 290 85 291
3 294 293 85
3 292 293 294
3 296 295 3
3 93 297 299
3 299 298 0
3 297 298 299
3 301 300 93
3 303 302 19
3 94 304 305
3 94 306 308
3 306 3 307
3 306 307 308
3 72 42 4
3 95 42 72
3 95 20 42
3 44 95 10
3 96 95 44
3 96 20 95
3 96 94 20
3 97 94 96
3 97 3 94
3 97 70 3
3 98 70 97
3 98 9 70
3 46 98 21
3 99 98 46
3 99 9 98
3 99 33 9
3 100 33 99
3 100 0 33
3 309 75 310
3 101 311 313
3 311 75 312
3 311 312 313
3 101 5 75
3 77 314 315
3 102 316 318
3 318 317 77
3 316 317 318
3 102 319 321
3 319 23 320
3 319 320 321
3 49 102 12
3 103 102 49
3 103 23 102
3 103 101 23
3 104 101 103
3 104 5 101
3 104 47 5
3 105 47 104
3 105 22 47
3 51 105 24
3 106 105 51
3 106 22 105
3 106 100 22
3 107 100 106
3 107 0 100
3 107 93 0
3 108 93 107
3 108 19 93
3 53 108 25
3 109 108 53
3 109 19 108
3 109 40 19
3 110 40 109
3 110 322 324
3 324 323 40
3 322 323 324
3 81 54 6
3 111 54 81
3 111 26 54
3 56 111 14
3 112 111 56
3 112 26 111
3 112 110 26
3 113 110 112
3 113 325 327
3 327 326 110
3 325 326 327
3 113 328 329
3 114 330 332
3 332 331 113
3 330 331 332
3 114 333 334
3 58 114 27
3 115 114 58
3 115 335 337
3 337 336 114
3 335 336 337
3 115 338 339
3 116 340 342
3 342 341 115
3 340 341 342
3 116 343 345
3 343 344 345
3 92 38 1
3 117 38 92
3 117 15 38
3 61 117 18
3 118 117 61
3 118 15 117
3 118 84 15
3 119 84 118
3 119 7 84
3 86 62 2
3 120 62 86
3 120 29 62
3 64 120 16
3 121 120 64
3 121 29 120
3 121 119 29
3 122 119 121
3 122 7 119
3 122 59 7
3 123 59 122
3 123 28 59
3 66 123 30
3 124 123 66
3 124 28 123
3 124 116 28
3 125 116 124
3 125 346 348
3 348 347 116
3 346 347 348
3 125 349 350
3 126 351 353
3 353 352 125
3 351 352 353
3 126 354 355
3 68 126 31
3 127 126 68
3 127 356 358
3 358 357 126
3 356 357 358
3 127 359 361
3 359 39 360
3 359 360 361
3 128 39 127
3 128 362 364
3 364 363 39
3 362 363 364
3 90 69 8
3 129 69 90
3 129 32 69
3 365 129 366
3 367 129 368
3 369 32 370
3 371 370 129
3 369 370 371
3 372 128 373
3 374 373 32
3 372 373 374
3 375 128 376
3 378 377 128
3 380 379 0
