ply
format ascii 1.0
element vertex 503
property float x
property float y
property float z
element face 485
property list uchar int vertex_index
end_header
3.192894 -40.244576 37.971535
-2.725733 -58.574894 3.758702
-12.098032 -52.460793 -8.529631
4.723461 -25.084797 37.464714
4.971291 -38.953972 30.500929
4.542828 -51.595329 21.361744
3.046612 -52.785965 29.880951
-7.204556 -55.622253 -2.746944
0.476433 -61.371796 11.594064
4.017384 -32.92202 37.802658
4.852188 -31.962177 34.206856
4.011803 -39.449402 34.321423
3.978996 -46.022102 30.342216
3.136776 -46.523685 34.175537
-4.916077 -57.096714 0.354098
3.069283 -57.761196 20.812439
3.171631 -56.794361 16.305086
1.264042 -62.566383 15.88572
5.401699 -16.63995 36.948887
5.744793 -23.855164 33.867302
4.983414 -45.614967 26.210052
3.799015 -52.224201 25.787231
2.697853 -58.594971 25.138893
-12.479132 -55.91201 -11.099709
4.44104 -18.657646 40.375229
3.839382 -26.777353 40.861496
-9.547672 -54.106873 -5.662798
-10.718622 -58.10693 -8.284864
2.108297 -53.445641 33.726044
1.536551 -54.141243 7.558913
2.774094 -55.578999 11.804773
-0.862133 -60.026714 7.517542
3.630524 -36.634125 37.913872
4.022568 -36.154709 36.117287
3.617298 -39.798775 36.159004
3.588432 -43.020531 34.285912
3.17057 -43.358307 36.134548
-1.590036 -55.605217 3.726772
-2.804085 -54.867855 1.987303
-3.79657 -57.835354 2.013212
2.343479 -60.747829 20.512161
2.330906 -60.249744 18.306818
1.472868 -63.120159 18.067322
5.066624 -20.935589 37.236294
5.579422 -20.19132 35.453407
5.184925 -24.41667 35.697449
4.912598 -35.471199 32.419441
5.403187 -31.612131 32.331345
5.512562 -35.219231 30.469389
5.007366 -42.352409 28.433537
3.514465 -49.426018 30.147629
3.927025 -49.192596 28.134949
3.42997 -52.50161 27.873001
3.252007 -55.431549 25.479147
2.932961 -55.770447 27.554127
4.69479 -14.389691 40.075687
4.163116 -15.665376 41.710232
3.483055 -30.619305 41.074123
-5.497156 -53.468632 -1.221449
-6.919718 -52.803123 -2.727253
-8.378117 -52.145844 -4.194954
-8.362408 -54.874657 -4.219353
2.106873 -50.359505 35.850006
2.00246 -59.142323 13.872629
3.058254 -56.22044 14.038893
1.640368 -58.511406 11.691381
1.109482 -57.828251 9.566748
-0.121536 -60.717319 9.521282
-2.177269 -62.89238 7.560797
-1.386892 -63.531651 9.516066
4.375984 -29.078552 37.651333
4.793427 -28.48378 35.88324
4.408573 -32.391846 36.022694
4.427391 -35.774033 34.29216
4.445866 -39.176422 32.444042
4.460293 -42.543579 30.459442
3.998901 -42.75679 32.401527
3.556946 -46.248154 32.285236
3.100796 -49.685669 32.0914
-4.117855 -54.1549 0.343363
-6.056721 -56.360298 -1.227999
3.792229 -54.712078 21.106747
4.003418 -54.287991 18.826141
3.162205 -57.303654 18.571945
2.223469 -59.71925 16.085974
0.935099 -61.9869 13.721338
-0.161079 -64.741196 13.614451
-4.001715 -61.545902 3.861216
-4.967661 -60.842754 2.121093
6.322441 -11.336948 34.703381
5.964382 -15.822619 35.130562
6.193417 -19.559534 33.590267
5.29298 -27.991835 34.067577
5.909702 -27.582775 32.176582
4.848518 -48.703125 23.841537
4.448448 -45.820713 28.323843
4.370682 -48.960953 26.036129
4.173054 -51.930664 23.615986
3.535835 -55.085796 23.32888
2.914124 -58.185394 23.00584
-12.416754 -54.148079 -9.886328
-13.497885 -51.555553 -9.981915
-13.652016 -53.084499 -11.324686
5.188644 -13.237591 38.363823
4.913696 -17.585131 38.693863
4.616852 -21.801647 38.960754
4.155952 -22.790695 40.630951
4.303017 -25.87068 39.186714
3.968147 -29.788769 39.384178
3.598518 -33.566368 39.553596
3.173855 -37.226517 39.684349
-10.785254 -53.306652 -7.094368
-5.922642 -60.120296 0.454003
-6.842569 -59.376099 -1.143776
-7.720751 -58.605671 -2.679832
-8.570892 -57.803337 -4.165442
-9.424667 -56.963039 -5.614506
-10.324188 -56.07851 -7.041925
-11.311312 -55.142891 -8.461853
-11.511057 -57.044434 -9.691481
2.686306 -43.788475 37.959564
2.66658 -46.868809 36.032234
2.64286 -49.991501 33.986065
2.615616 -53.095848 31.82575
2.55574 -56.119282 29.559422
0.554346 -53.391579 5.595778
-0.513987 -56.356312 5.571238
4.125084 -53.794914 16.510841
2.275703 -54.879253 9.635195
0.391745 -57.103966 7.520981
-1.737247 -59.308796 5.594224
-3.059376 -62.229729 5.674938
1.51991 -63.390699 19.15616
1.908173 -61.933994 19.289741
1.955215 -62.204535 20.37858
1.005933 -64.508581 17.978332
1.51991 -63.390699 19.15616
-12.565774 -51.253052 -8.543579
-11.762379 -51.623524 -7.811459
5.286341 -38.852711 29.482042
5.556976 -36.98534 29.466273
5.241926 -37.086602 30.485159
4.989329 -40.653191 29.467233
5.304379 -40.551929 28.448346
5.286341 -38.852711 29.482042
3.960088 -14.24808 42.340593
4.270466 -13.514792 41.548334
4.704201 -51.394829 20.200749
4.934036 -49.99319 21.457991
-5.125962 -62.702011 3.090269
-4.676991 -63.016634 3.95102
5.68304 -16.231285 36.039724
5.840721 -14.020962 35.854154
5.55938 -14.429627 36.763317
6.080002 -23.618664 32.905733
6.304314 -21.470849 32.767215
5.969105 -21.707349 33.728785
5.99081 -29.448906 31.27027
5.656445 -29.597453 32.253963
5.737552 -31.463584 31.347651
6.269039 -27.407211 31.177143
5.99081 -29.448906 31.27027
5.272261 -45.494511 25.100314
5.308661 -43.883243 26.256018
4.915966 -47.159046 25.025794
5.204813 -47.03859 23.916056
5.272261 -45.494511 25.100314
2.482506 -59.912239 23.910642
2.590642 -59.707451 22.844115
2.805988 -58.390183 24.072367
5.049656 -11.623608 39.034889
5.30961 -11.011737 38.153383
3.997667 -24.784024 40.746223
3.876205 -23.343341 41.431296
3.71792 -25.33667 41.546568
3.335171 -33.948918 40.40866
3.540786 -32.092836 40.313859
3.277439 -32.475386 41.168924
3.122839 -35.778992 40.474037
3.386186 -35.396442 39.618972
3.335171 -33.948918 40.40866
-9.712402 -52.793395 -5.653571
-9.127624 -51.81288 -4.919649
-8.962895 -53.126358 -4.928876
-10.166463 -53.706762 -6.378583
-10.331193 -52.393284 -6.369356
-9.712402 -52.793395 -5.653571
-6.499926 -61.657223 0.55546
-5.445151 -60.481525 1.287548
-6.022436 -62.018451 1.389005
-7.640353 -60.552448 -1.818472
-7.325 -60.931494 -1.045114
-8.079444 -60.167234 -2.5865
-7.28166 -58.990885 -1.911804
-7.640353 -60.552448 -1.818472
-9.043779 -58.921683 -4.805308
-8.7817 -59.358799 -4.077424
-9.470667 -58.501534 -5.529841
-8.99778 -57.383188 -4.889974
-9.043779 -58.921683 -4.805308
-10.521405 -57.09272 -7.663395
-10.197661 -57.591566 -6.957389
-10.394879 -58.605776 -7.578859
2.397536 -45.543957 37.913469
2.391172 -44.056431 38.860744
2.387672 -47.084124 36.949804
2.676443 -45.328642 36.995899
2.397536 -45.543957 37.913469
2.292116 -57.772278 29.386806
2.326874 -56.304675 30.533936
2.481667 -57.56214 28.383125
2.292116 -57.772278 29.386806
6.66349 -10.961303 33.709635
6.471157 -13.231455 33.958962
1.045449 -53.766411 6.577345
1.538148 -52.269016 6.607733
2.02925 -52.643849 7.589301
3.434508 -54.401267 12.999395
3.576588 -54.721987 14.116454
2.916174 -55.89972 12.921833
3.310924 -54.0784 11.859828
3.434508 -54.401267 12.999395
2.524898 -55.229126 10.719984
3.061729 -53.728527 10.775039
3.310924 -54.0784 11.859828
-3.301179 -63.991417 6.691093
-2.847064 -64.283837 7.611717
-14.095779 -50.396921 -10.016172
-14.238906 -51.06635 -10.721923
-2.197061 -55.236536 2.857038
-1.726479 -53.762609 2.870131
-1.119454 -54.131291 3.739866
0.864395 -64.220675 16.902627
0.759982 -63.943787 15.811825
1.368455 -62.843271 16.976521
0.864395 -64.220675 16.902627
1.005933 -64.508581 17.978332
5.79224 -33.267134 30.416674
5.737552 -31.463584 31.347651
5.457874 -33.415681 31.400367
5.863018 -35.10326 29.440736
5.79224 -33.267134 30.416674
5.863018 -35.10326 29.440736
5.556976 -36.98534 29.466273
5.320636 -42.251964 27.367761
5.304379 -40.551929 28.448346
4.99539 -43.983688 27.321795
5.308661 -43.883243 26.256018
5.320636 -42.251964 27.367761
-13.052878 -55.307024 -11.806758
-12.444657 -56.858211 -11.608737
4.536302 -12.876949 40.731062
4.802729 -12.199658 39.890822
4.428953 -15.027534 40.89296
4.536302 -12.876949 40.731062
4.270466 -13.514792 41.548334
3.54314 -27.28888 41.665081
3.71792 -25.33667 41.546568
3.421679 -25.848197 42.350153
3.364977 -29.209856 41.771394
3.661218 -28.698329 40.96781
3.54314 -27.28888 41.665081
3.163992 -31.093756 41.88582
3.364977 -29.209856 41.771394
2.958376 -32.949837 41.980621
3.277439 -32.475386 41.168924
3.163992 -31.093756 41.88582
-5.332759 -52.090521 -1.193693
-4.525528 -52.390243 -0.414563
-6.04404 -51.757767 -1.946595
-5.332759 -52.090521 -1.193693
-6.208437 -53.135877 -1.974351
-6.883734 -51.477092 -2.701245
-6.04404 -51.757767 -1.946595
-7.648917 -52.474483 -3.461104
-7.612933 -51.148453 -3.435096
-6.883734 -51.477092 -2.701245
-10.515213 -59.719414 -8.119816
-10.394879 -58.605776 -7.578859
-10.752579 -59.170053 -8.816505
-10.515213 -59.719414 -8.119816
1.79509 -50.580959 36.773868
2.107819 -48.829471 36.85869
1.811562 -52.103091 35.725834
1.79509 -50.580959 36.773868
1.812274 -53.646158 34.663853
2.107585 -51.902573 34.788025
1.811562 -52.103091 35.725834
2.434245 -53.008488 8.635842
2.02925 -52.643849 7.589301
-2.451875 -64.603472 8.589351
-2.847064 -64.283837 7.611717
-1.78208 -63.212015 8.538431
-2.418849 -53.41403 2.005745
-1.726479 -53.762609 2.870131
-3.075734 -53.057552 1.183775
-2.418849 -53.41403 2.005745
-3.46097 -54.511377 1.165333
-3.835877 -52.733378 0.367843
-3.075734 -53.057552 1.183775
-4.807505 -53.811766 -0.439043
-4.525528 -52.390243 -0.414563
-3.835877 -52.733378 0.367843
0.112268 -63.066944 12.628879
-0.117065 -62.759392 11.565242
0.705766 -61.679348 12.657701
-0.435821 -64.444092 12.575436
0.112268 -63.066944 12.628879
0.38701 -63.364048 13.667894
-1.046161 -65.779122 12.577056
-0.435821 -64.444092 12.575436
0.047421 -65.031193 14.676191
0.551482 -63.65379 14.750086
0.759982 -63.943787 15.811825
-0.738629 -66.063748 13.595367
0.047421 -65.031193 14.676191
-0.530129 -66.353745 14.657107
-1.046161 -65.779122 12.577056
-0.738629 -66.063748 13.595367
-5.608935 -62.350437 2.220207
-4.484688 -61.194328 2.991155
-5.125962 -62.702011 3.090269
-6.022436 -62.018451 1.389005
-5.608935 -62.350437 2.220207
6.019751 -11.778126 35.640564
6.159662 -9.520602 35.399287
6.143412 -13.579783 34.916972
6.019751 -11.778126 35.640564
5.840721 -14.020962 35.854154
6.292127 -15.474291 34.172552
6.471157 -13.231455 33.958962
6.143412 -13.579783 34.916972
6.406645 -17.342748 33.402405
6.292127 -15.474291 34.172552
6.0789 -17.691077 34.360414
6.54607 -19.292116 32.603387
6.406645 -17.342748 33.402405
6.54607 -19.292116 32.603387
6.304314 -21.470849 32.767215
6.162457 -25.48247 32.060373
6.080002 -23.618664 32.905733
5.827248 -25.71897 33.021942
6.162457 -25.48247 32.060373
6.269039 -27.407211 31.177143
5.086882 -48.547089 22.697887
5.204813 -47.03859 23.916056
4.695673 -50.149227 22.601641
4.934036 -49.99319 21.457991
5.086882 -48.547089 22.697887
2.305319 -60.988668 21.597276
2.628801 -59.466611 21.759
2.590642 -59.707451 22.844115
1.955215 -62.204535 20.37858
2.305319 -60.988668 21.597276
-14.315972 -51.830824 -11.393308
-14.238906 -51.06635 -10.721923
-13.57495 -52.320026 -10.653301
-13.639319 -53.893269 -11.919246
-13.065574 -54.498255 -11.212198
-13.052878 -55.307024 -11.806758
-14.32903 -52.51309 -12.054301
-13.639319 -53.893269 -11.919246
-14.315972 -51.830824 -11.393308
-14.32903 -52.51309 -12.054301
5.452852 -12.728448 37.470785
5.30961 -11.011737 38.153383
5.295172 -14.938771 37.656355
5.55938 -14.429627 36.763317
5.452852 -12.728448 37.470785
4.941717 -13.813641 39.219755
5.049656 -11.623608 39.034889
4.802729 -12.199658 39.890822
3.83826 -16.356233 42.479399
3.960088 -14.24808 42.340593
4.032208 -17.75707 41.847021
3.83826 -16.356233 42.479399
4.171169 -19.253205 41.179519
4.302078 -17.161511 41.04273
4.032208 -17.75707 41.847021
4.028626 -21.31973 41.307381
3.876205 -23.343341 41.431296
4.298496 -20.72417 40.50309
4.171169 -19.253205 41.179519
4.028626 -21.31973 41.307381
-8.477435 -50.877232 -4.176604
-7.612933 -51.148453 -3.435096
-8.477435 -50.877232 -4.176604
-9.127624 -51.81288 -4.919649
-11.105991 -52.046453 -7.093828
-10.331193 -52.393284 -6.369356
-11.441643 -52.883723 -7.812
-11.762379 -51.623524 -7.811459
-11.105991 -52.046453 -7.093828
-6.865036 -61.303593 -0.246225
-6.499926 -61.657223 0.55546
-6.382606 -59.748198 -0.344886
-6.865036 -61.303593 -0.246225
-7.325 -60.931494 -1.045114
-8.35663 -59.759966 -3.33462
-8.079444 -60.167234 -2.5865
-8.145822 -58.204504 -3.422637
-8.35663 -59.759966 -3.33462
-8.7817 -59.358799 -4.077424
-9.747901 -58.033831 -6.24368
-9.470667 -58.501534 -5.529841
-9.874427 -56.520775 -6.328216
-9.747901 -58.033831 -6.24368
-10.197661 -57.591566 -6.957389
-11.148796 -58.638806 -9.519813
-11.114839 -57.575682 -8.988173
-10.752579 -59.170053 -8.816505
-11.495026 -58.05172 -10.213544
-11.148796 -58.638806 -9.519813
-11.132766 -59.646091 -10.041877
-11.979064 -57.485508 -10.917658
-11.995095 -56.478222 -10.395595
-11.495026 -58.05172 -10.213544
-12.444657 -56.858211 -11.608737
-11.979064 -57.485508 -10.917658
2.881407 -37.583126 40.549867
3.122839 -35.778992 40.474037
2.924511 -39.013752 39.721787
2.881407 -37.583126 40.549867
2.93403 -40.522782 38.86538
3.183375 -38.735546 38.827942
2.924511 -39.013752 39.721787
2.680737 -42.294731 38.859394
2.391172 -44.056431 38.860744
2.9396 -42.016526 37.96555
2.93403 -40.522782 38.86538
2.680737 -42.294731 38.859394
2.386726 -48.614157 35.94112
2.387672 -47.084124 36.949804
2.107819 -48.829471 36.85869
1.830734 -55.168447 33.57333
1.812274 -53.646158 34.663853
2.103153 -54.967854 32.617247
1.830734 -55.168447 33.57333
2.356813 -54.792957 31.6671
2.361956 -53.270744 32.775897
2.103153 -54.967854 32.617247
2.585678 -54.607565 30.692586
2.356813 -54.792957 31.6671
2.326874 -56.304675 30.533936
2.670277 -57.387722 27.380478
2.744351 -55.944864 28.556775
2.481667 -57.56214 28.383125
2.552723 -58.799984 26.172861
2.815407 -57.182709 26.34651
2.670277 -57.387722 27.380478
2.397709 -60.151626 24.971255
2.552723 -58.799984 26.172861
2.482506 -59.912239 23.910642
2.397709 -60.151626 24.971255
6.478784 -9.052632 34.424696
6.159662 -9.520602 35.399287
6.478784 -9.052632 34.424696
6.66349 -10.961303 33.709635
0.988802 -51.907883 5.62473
1.538148 -52.269016 6.607733
-0.047263 -53.024472 4.674369
0.988802 -51.907883 5.62473
-0.517845 -54.498398 4.661275
-1.119454 -54.131291 3.739866
-0.047263 -53.024472 4.674369
4.434496 -52.741159 18.932947
4.704201 -51.394829 20.200749
4.273123 -52.94166 20.093943
4.495329 -52.494621 17.775297
4.434496 -52.741159 18.932947
4.064251 -54.041452 17.668491
4.598289 -52.253137 16.594904
4.495329 -52.494621 17.775297
4.110003 -53.509224 15.352428
3.591669 -55.007677 15.274867
3.576588 -54.721987 14.116454
4.598289 -52.253137 16.594904
4.110003 -53.509224 15.352428
2.803821 -53.377493 9.673983
3.061729 -53.728527 10.775039
1.906127 -54.510248 8.597054
2.434245 -53.008488 8.635842
2.803821 -53.377493 9.673983
-4.205821 -63.358548 4.857881
-4.676991 -63.016634 3.95102
-3.530545 -61.887816 4.768077
-3.742233 -63.660091 5.748164
-2.618322 -62.561054 6.617868
-3.301179 -63.991417 6.691093
-4.205821 -63.358548 4.857881
-3.742233 -63.660091 5.748164
-1.048728 -63.839319 10.526243
-0.45523 -62.451723 10.555065
-0.117065 -62.759392 11.565242
-2.030082 -64.890219 9.541956
-1.048728 -63.839319 10.526243
-2.451875 -64.603472 8.589351
-2.030082 -64.890219 9.541956
-13.265701 -50.800432 -9.269721
-12.565774 -51.253052 -8.543579
-12.797959 -52.008173 -9.255773
-13.265701 -50.800432 -9.269721
-14.095779 -50.396921 -10.016172
3 0 34 32
3 0 36 34
3 1 39 37
3 132 42 133
3 134 133 40
3 132 133 134
3 136 135 42
3 2 137 138
3 3 45 43
3 4 48 46
3 4 139 141
3 141 140 48
3 139 140 141
3 4 142 144
3 142 49 143
3 142 143 144
3 6 52 50
3 6 54 52
3 145 56 146
3 7 59 58
3 7 61 59
3 5 147 148
3 8 65 63
3 8 67 65
3 8 69 67
3 9 72 70
3 11 73 33
3 11 74 73
3 11 76 74
3 13 77 35
3 13 78 77
3 14 79 38
3 14 80 79
3 15 83 81
3 17 84 41
3 17 85 84
3 17 86 85
3 150 149 87
3 18 151 153
3 151 90 152
3 151 152 153
3 19 91 44
3 19 154 156
3 156 155 91
3 154 155 156
3 10 92 71
3 157 93 158
3 159 158 47
3 157 158 159
3 161 160 93
3 20 162 163
3 20 164 166
3 164 94 165
3 164 165 166
3 12 95 75
3 21 96 51
3 21 97 96
3 21 98 97
3 22 99 53
3 22 167 169
3 169 168 99
3 167 168 169
3 23 102 100
3 170 103 171
3 24 104 55
3 24 105 104
3 25 172 174
3 172 106 173
3 172 173 174
3 25 107 106
3 25 108 107
3 175 109 176
3 177 176 57
3 175 176 177
3 178 110 179
3 180 179 109
3 178 179 180
3 26 181 183
3 183 182 60
3 181 182 183
3 26 184 186
3 184 111 185
3 184 185 186
3 187 112 188
3 189 188 88
3 187 188 189
3 190 113 191
3 192 114 193
3 194 193 113
3 192 193 194
3 195 115 196
3 197 116 198
3 199 198 115
3 197 198 199
3 27 200 202
3 200 117 201
3 200 201 202
3 27 118 117
3 27 119 118
3 203 120 204
3 205 121 206
3 207 206 120
3 205 206 207
3 28 122 62
3 28 123 122
3 208 124 209
3 211 210 124
3 213 212 89
3 29 214 216
3 214 125 215
3 214 215 216
3 29 126 125
3 16 127 82
3 30 217 219
3 219 218 64
3 217 218 219
3 30 220 221
3 30 222 224
3 222 128 223
3 222 223 224
3 31 129 66
3 31 130 129
3 31 131 130
3 226 225 68
3 228 227 101
3 32 33 9
3 34 33 32
3 34 11 33
3 34 35 11
3 36 35 34
3 36 13 35
3 37 229 231
3 229 38 230
3 229 230 231
3 39 38 37
3 39 14 38
3 40 41 15
3 42 41 40
3 42 17 41
3 42 232 234
3 234 233 17
3 232 233 234
3 236 235 42
3 43 44 18
3 45 44 43
3 45 19 44
3 46 47 10
3 48 47 46
3 48 237 239
3 239 238 47
3 237 238 239
3 48 240 241
3 243 242 48
3 49 244 245
3 49 246 248
3 246 20 247
3 246 247 248
3 50 51 12
3 52 51 50
3 52 21 51
3 52 53 21
3 54 53 52
3 54 22 53
3 250 249 23
3 251 55 252
3 56 253 255
3 253 55 254
3 253 254 255
3 56 24 55
3 256 25 257
3 256 257 258
3 259 57 260
3 261 260 25
3 259 260 261
3 262 57 263
3 266 265 57
3 264 265 266
3 58 267 268
3 59 269 271
3 271 270 58
3 269 270 271
3 59 272 273
3 59 274 276
3 274 60 275
3 274 275 276
3 61 60 59
3 61 26 60
3 277 27 278
3 280 279 27
3 281 62 282
3 283 62 284
3 285 28 286
3 287 286 62
3 285 286 287
3 288 29 289
3 63 64 16
3 65 64 63
3 65 30 64
3 65 66 30
3 67 66 65
3 67 31 66
3 67 68 31
3 69 68 67
3 69 290 292
3 292 291 68
3 290 291 292
3 70 71 3
3 72 71 70
3 72 10 71
3 33 72 9
3 73 72 33
3 73 10 72
3 73 46 10
3 74 46 73
3 74 4 46
3 74 75 4
3 76 75 74
3 76 12 75
3 35 76 11
3 77 76 35
3 77 12 76
3 77 50 12
3 78 50 77
3 78 6 50
3 38 293 294
3 79 295 297
3 297 296 38
3 295 296 297
3 79 298 299
3 79 300 302
3 300 58 301
3 300 301 302
3 80 58 79
3 80 7 58
3 81 82 5
3 83 82 81
3 83 16 82
3 41 83 15
3 84 83 41
3 84 16 83
3 84 63 16
3 85 63 84
3 85 8 63
3 85 303 305
3 305 304 8
3 303 304 305
3 86 306 308
3 308 307 85
3 306 307 308
3 86 309 310
3 311 86 312
3 313 312 17
3 311 312 313
3 314 86 315
3 314 315 316
3 318 317 86
3 87 88 1
3 319 88 320
3 321 320 87
3 319 320 321
3 323 322 88
3 324 89 325
3 90 326 328
3 326 89 327
3 326 327 328
3 90 329 331
3 331 330 89
3 329 330 331
3 44 90 18
3 91 90 44
3 91 332 334
3 334 333 90
3 332 333 334
3 91 335 336
3 338 337 91
3 71 45 3
3 92 45 71
3 92 19 45
3 47 92 10
3 93 92 47
3 93 19 92
3 93 339 341
3 341 340 19
3 339 340 341
3 343 342 93
3 94 344 345
3 94 346 348
3 346 5 347
3 346 347 348
3 75 49 4
3 95 49 75
3 95 20 49
3 51 95 12
3 96 95 51
3 96 20 95
3 96 94 20
3 97 94 96
3 97 5 94
3 97 81 5
3 98 81 97
3 98 15 81
3 53 98 21
3 99 98 53
3 99 15 98
3 99 40 15
3 349 40 350
3 351 350 99
3 349 350 351
3 353 352 40
3 100 101 2
3 102 101 100
3 102 354 356
3 356 355 101
3 354 355 356
3 357 102 358
3 359 358 23
3 357 358 359
3 360 102 361
3 363 362 102
3 103 364 365
3 103 366 368
3 366 18 367
3 366 367 368
3 55 369 371
3 369 103 370
3 369 370 371
3 104 103 55
3 104 18 103
3 104 43 18
3 105 43 104
3 105 3 43
3 372 56 373
3 374 56 375
3 376 24 377
3 378 377 56
3 376 377 378
3 106 379 380
3 106 381 383
3 381 24 382
3 381 382 383
3 106 105 24
3 107 105 106
3 107 3 105
3 107 70 3
3 108 70 107
3 108 9 70
3 57 108 25
3 109 108 57
3 109 9 108
3 109 32 9
3 110 32 109
3 110 0 32
3 60 384 385
3 387 386 60
3 111 388 389
3 111 390 392
3 390 2 391
3 390 391 392
3 88 39 1
3 112 39 88
3 112 14 39
3 393 112 394
3 113 395 397
3 395 112 396
3 395 396 397
3 113 14 112
3 113 80 14
3 114 80 113
3 114 7 80
3 398 114 399
3 115 400 402
3 400 114 401
3 400 401 402
3 115 7 114
3 115 61 7
3 116 61 115
3 116 26 61
3 403 116 404
3 117 405 407
3 405 116 406
3 405 406 407
3 117 26 116
3 117 111 26
3 118 111 117
3 118 2 111
3 118 100 2
3 119 100 118
3 119 23 100
3 408 119 409
3 410 409 27
3 408 409 410
3 411 119 412
3 411 412 413
3 414 23 415
3 416 415 119
3 414 415 416
3 418 417 23
3 419 110 420
3 421 110 422
3 423 0 424
3 425 424 110
3 423 424 425
3 120 426 427
3 120 428 430
3 428 0 429
3 428 429 430
3 120 36 0
3 121 36 120
3 121 13 36
3 62 431 433
3 431 121 432
3 431 432 433
3 122 121 62
3 122 13 121
3 122 78 13
3 123 78 122
3 123 6 78
3 434 28 435
3 436 28 437
3 438 123 439
3 440 439 28
3 438 439 440
3 124 441 443
3 441 123 442
3 441 442 443
3 124 6 123
3 124 54 6
3 444 54 445
3 446 445 124
3 444 445 446
3 447 22 448
3 449 448 54
3 447 448 449
3 450 22 451
3 453 452 22
3 89 454 455
3 457 456 89
3 125 458 459
3 125 460 461
3 125 462 464
3 462 37 463
3 462 463 464
3 126 37 125
3 126 1 37
3 82 465 467
3 467 466 5
3 465 466 467
3 127 468 470
3 470 469 82
3 468 469 470
3 127 471 472
3 64 127 16
3 473 127 474
3 475 474 64
3 473 474 475
3 477 476 127
3 128 478 479
3 128 480 482
3 480 29 481
3 480 481 482
3 66 128 30
3 129 128 66
3 129 29 128
3 129 126 29
3 130 126 129
3 130 1 126
3 130 87 1
3 131 87 130
3 131 483 485
3 485 484 87
3 483 484 485
3 68 131 31
3 486 131 487
3 488 487 68
3 486 487 488
3 490 489 131
3 491 69 492
3 493 492 8
3 491 492 493
3 494 69 495
3 497 496 69
3 101 498 500
3 500 499 2
3 498 499 500
3 502 501 101
