ply
format ascii 1.0
element vertex 672
property float x
property float y
property float z
element face 771
property list uchar int vertex_index
end_header
-41.798634 -31.329998 13.8415
-52.61248 -1.717314 -19.98835
-61.900928 -26.686428 -1.258465
-46.781338 -20.386074 -1.312229
-57.157112 -43.890232 12.925845
-49.361092 -31.904053 5.432495
-54.145748 -23.138411 -0.305429
-42.659241 -26.720022 6.90132
-48.024487 -38.417442 12.196864
-58.475807 -36.340179 4.606539
-59.577873 -2.931465 -16.600685
-45.10107 0.935953 -20.564217
-44.213547 9.104225 -29.549736
-64.491882 -16.848307 -6.416889
-58.262611 -13.448835 -7.171316
-50.705627 -12.07436 -10.388014
-65.200333 -49.96154 15.206806
-66.627396 -41.850899 6.249184
-67.883591 -32.648102 -1.001509
-44.363514 -32.747383 9.678873
-45.64782 -29.556152 6.380133
-41.584366 -29.303324 10.569099
-44.433163 -35.199921 12.940783
-48.050037 -35.59436 8.651962
-56.333721 -2.072668 -18.347889
-56.104164 3.436941 -23.662632
-45.063114 5.126181 -25.107212
-66.290817 -24.503754 -4.022396
-63.529018 -21.698946 -3.680395
-50.316528 -21.926119 -0.50862
-56.496765 -18.408571 -3.442852
-52.660053 -17.592731 -4.395256
-54.538231 -12.809087 -8.688961
-48.922939 -16.526711 -5.77117
-53.361336 -43.29834 16.447491
-61.684921 -46.745647 14.082792
-65.858963 -46.143791 10.53319
-62.191612 -43.102417 9.450691
-60.058197 -31.646709 1.385838
-64.184425 -34.20919 1.686685
-65.362694 -29.355476 -1.351751
-55.712971 -29.507465 1.763669
-58.060993 -24.635185 -0.738565
-51.582253 -27.667133 2.530345
-47.819878 -25.902664 3.031682
-44.557281 -23.745901 2.926353
-49.382835 -40.165047 15.86209
-52.392441 -41.216858 12.167873
-57.462391 -40.499275 8.495604
-52.526798 -38.094795 8.148239
-53.712269 -34.094025 4.655773
-48.752422 -1.011925 -20.881912
-52.497681 3.703716 -25.064808
-48.703331 3.93075 -25.706257
-60.186455 -19.674494 -3.299179
-61.645996 -14.697287 -6.413799
-59.290039 -8.252028 -11.581688
-55.788284 -7.580293 -13.35564
-51.970734 -7.07341 -15.119719
-45.524006 -14.31044 -6.770746
-47.020962 -10.343378 -11.469019
-48.133499 -5.854087 -16.156614
-44.575981 -3.137569 -15.998495
-63.067299 -38.85675 5.282812
-67.343163 -37.306404 2.407663
-42.733566 -32.337528 11.83045
-42.855804 -31.118221 10.177991
-41.507191 -30.400955 12.262399
-42.989182 -33.360123 13.414003
-44.209293 -34.084503 11.320089
-54.513939 -1.880753 -19.221519
-56.321991 0.701511 -20.963757
-54.537064 0.893192 -21.784168
-64.412308 -25.463284 -2.641352
-65.002571 -23.008198 -3.884562
-62.773609 -24.183756 -2.465847
-48.496628 -21.247795 -0.866531
-51.530968 -19.810501 -2.402035
-49.665981 -19.259775 -2.934612
-50.762737 -17.147137 -5.07748
-47.882908 -18.52696 -3.517826
-55.006271 -43.811539 14.714637
-57.297188 -45.245083 15.26546
-59.531906 -46.724594 15.884889
-59.49807 -45.279083 13.48561
-61.882935 -45.01265 11.719297
-59.628223 -43.616219 11.156025
-60.974312 -29.183578 0.007732
-62.950218 -30.420668 -0.019646
-63.709118 -27.942944 -1.37204
-65.881516 -26.915791 -2.712559
-52.455208 -30.833508 3.507326
-53.607662 -28.559612 2.137994
-50.391052 -29.834665 3.952561
-44.056473 -28.226938 6.713692
-46.658295 -27.774036 4.719073
-45.012554 -26.614164 4.908518
-46.114548 -24.913458 3.048917
-43.537525 -25.277519 4.948912
-46.686295 -37.814606 14.20138
-47.620758 -38.479748 15.86494
-48.534081 -39.429787 14.031615
-50.564762 -40.943077 14.059096
-50.129051 -39.852715 12.074404
-52.32209 -39.779984 10.10603
-50.008759 -38.490433 10.142714
-48.561943 -33.83799 6.99589
-50.697933 -35.031685 6.574517
-51.464401 -33.004284 4.978396
-54.635143 -31.853809 3.140942
-46.883541 -0.241838 -20.88726
-48.825142 1.466234 -23.279686
-46.957512 2.057243 -23.226555
-44.753242 7.168386 -27.350918
-46.524521 6.582767 -27.924828
-45.96117 8.705946 -30.255184
-64.649895 -14.503101 -8.065044
-56.10231 -23.827238 -0.468904
-59.184723 -22.158976 -1.978769
-57.297157 -21.406082 -1.817888
-57.467106 -15.960117 -5.222549
-59.286682 -16.478662 -4.884275
-60.009926 -13.968779 -6.682699
-62.062218 -12.208585 -8.287254
-60.532032 -11.428505 -8.68508
-60.855141 -8.865294 -10.891294
-58.871063 -10.876105 -9.293303
-52.619534 -12.509777 -9.566864
-55.247654 -10.243471 -10.979393
-53.339333 -9.990424 -11.899754
-53.902161 -7.359267 -14.285419
-51.409691 -9.633301 -12.739878
-44.686069 -10.76811 -9.260826
-45.306229 -8.866022 -11.593813
-47.631176 -8.155394 -13.812273
-45.849701 -6.84502 -13.918201
-46.305153 -4.720288 -16.237938
-44.172485 -5.067474 -13.708248
-66.241302 -44.040092 8.337446
-67.423576 -45.739571 8.814598
-67.770943 -43.557884 6.707952
-68.076141 -41.330105 4.700514
-57.886581 -38.502594 6.471265
-60.314857 -39.727283 6.827744
-60.844032 -37.550293 4.876603
-66.377975 -33.315147 0.345636
-65.93576 -35.68544 2.022873
-67.643661 -34.984245 0.651734
-52.099831 6.328991 -27.695026
-46.612427 -32.579399 7.512151
-47.41925 -30.766319 5.930099
-44.860802 -31.22514 8.031013
-43.315536 -29.736938 8.470127
-41.987095 -28.067646 8.777747
-45.048962 -36.066151 14.519658
-46.117363 -36.876522 12.506906
-47.864193 -37.13208 10.393019
-45.92395 -35.673058 10.811157
-46.098236 -34.228653 9.140522
-58.03162 -2.395802 -17.449963
-59.458775 -0.289778 -19.299568
-57.972935 0.331932 -20.113453
-57.721169 3.01358 -22.871094
-45.16853 3.033327 -22.840725
-67.421669 -23.868013 -5.451319
-66.54567 -22.146179 -5.339434
-65.429047 -20.600632 -5.169481
-64.113739 -19.249676 -4.974291
-52.209373 -22.526636 -0.311694
-55.376495 -20.799109 -1.814381
-53.445194 -20.291426 -2.01071
-54.582336 -17.979479 -3.826164
-55.585052 -15.580343 -5.774212
-56.429401 -13.088165 -7.860117
-53.670387 -15.260624 -6.491919
-51.755081 -14.898102 -7.290554
-49.871292 -14.375799 -8.063707
-52.345787 -42.313347 18.034744
-63.617535 -48.306499 14.666769
-65.502991 -48.130585 12.827556
-63.874081 -46.515076 12.289627
-64.210312 -44.560196 10.001756
-64.602325 -42.474281 7.821025
-59.21022 -34.043602 2.912386
-61.477108 -35.254128 3.086132
-62.19072 -32.867668 1.457767
-64.782356 -31.795483 0.104684
-66.781708 -30.924267 -1.214903
-68.041397 -30.3146 -2.563416
-67.114609 -28.535158 -2.678019
-67.339951 -26.173481 -4.07514
-58.932354 -28.076607 0.189475
-60.003178 -25.584949 -1.0289
-56.879444 -27.091482 0.4879
-54.848724 -26.216206 0.830163
-52.85873 -25.429527 1.126712
-48.45562 -28.828575 4.384035
-49.648758 -26.797838 2.850644
-50.923546 -24.694521 1.297454
-49.06102 -23.953564 1.296495
-47.295856 -23.127386 1.126496
-45.65699 -22.119936 0.837831
-50.550674 -40.635963 17.656528
-51.308346 -41.759304 16.057753
-52.739693 -42.39053 14.295231
-54.759365 -42.548985 12.466173
-57.21582 -42.302643 10.657327
-54.749512 -41.037304 10.288298
-54.971287 -39.29118 8.219267
-55.416412 -37.334198 6.291118
-50.202873 -36.873371 8.300312
-52.997261 -36.187721 6.325408
-56.06958 -35.197487 4.525395
-56.903698 -32.917217 2.92944
-57.876812 -30.531406 1.493541
-50.676132 -1.466999 -20.565739
-52.660332 1.005915 -22.496391
-50.740204 1.15576 -23.019131
-50.600082 3.759148 -25.518478
-50.228558 6.295307 -28.062439
-46.848045 4.347836 -25.57547
-48.35783 6.333822 -28.156456
-61.018646 -23.082064 -2.222431
-61.91312 -20.586199 -3.460667
-62.633987 -18.108852 -4.813684
-58.373371 -18.957003 -3.273737
-61.017025 -17.186687 -4.761282
-63.147476 -15.656766 -6.343012
-63.441357 -13.234646 -8.093634
-59.523453 -5.595348 -14.022867
-57.101276 -10.505829 -10.080214
-57.593754 -7.846612 -12.425428
-57.904274 -5.133327 -14.885099
-56.152691 -4.845689 -15.812368
-54.297501 -4.644516 -16.7244
-52.376488 -4.423308 -17.532864
-40.538868 -28.241394 12.562476
-40.558388 -27.260359 10.817497
-40.887318 -26.163616 8.942005
-41.472046 -24.968927 6.956485
-42.253613 -23.684444 4.879459
-45.198421 -19.231279 -1.748085
-46.209908 -17.497705 -4.045454
-47.169365 -15.614933 -6.367205
-48.049141 -13.576836 -8.703979
-46.314445 -12.399262 -9.122004
-48.829205 -11.386551 -11.049812
-49.49498 -9.056627 -13.403311
-50.034195 -6.607779 -15.768087
-50.433563 -4.06715 -18.152084
-48.513664 -3.463366 -18.510094
-46.656975 -2.511162 -18.558956
-44.893578 -1.129946 -18.28323
-67.053848 -47.848598 11.0192
-68.093346 -47.556343 9.241371
-59.905273 -41.757759 8.927691
-62.591591 -41.041977 7.299557
-65.030884 -40.284843 5.760192
-63.604218 -36.571121 3.410837
-65.480438 -38.015106 3.8267
-66.999542 -39.60025 4.272516
-68.324043 -39.074127 2.790046
-54.348568 3.635292 -24.419136
-42.393908 -32.345061 13.627751
-42.736197 -32.711043 14.351583
-42.140923 -31.69598 14.565331
-60.169693 -2.070142 -17.585842
-60.266042 -3.332499 -16.228529
-44.67779 9.879097 -31.042524
-45.551602 9.679958 -31.395249
-45.087359 8.905086 -29.90246
-65.080185 -16.421965 -7.279439
-65.073837 -17.553562 -6.492045
-64.570888 -15.675704 -7.240967
-65.159191 -15.249363 -8.103517
-65.080185 -16.421965 -7.279439
-44.503433 -7.885771 -11.502007
-44.239311 -8.753613 -10.348436
-44.77517 -6.875271 -12.6642
-45.577965 -7.855521 -12.756007
-44.503433 -7.885771 -11.502007
-43.936561 -5.986498 -12.559224
-45.011093 -5.956247 -13.813225
-44.77517 -6.875271 -12.6642
-65.089455 -50.776961 16.430005
-64.333672 -49.929763 16.159049
-65.775036 -50.827671 15.450426
-65.089455 -50.776961 16.430005
-65.943474 -49.905022 14.261351
-65.775036 -50.827671 15.450426
-68.24152 -33.585186 -0.879665
-68.121555 -34.753258 -0.053044
-67.763626 -33.816174 -0.174887
-68.243164 -32.446917 -1.704311
-68.24152 -33.585186 -0.879665
-52.674653 7.584023 -28.800648
-51.771342 7.57929 -29.036663
-44.741062 -35.633036 13.73022
-44.345711 -35.111566 14.715156
-44.037812 -34.678452 13.925719
-56.68386 4.524059 -24.69041
-57.492363 4.312378 -24.294641
-56.912667 3.225261 -23.266863
-53.805996 -43.62347 17.51746
-53.298221 -43.130974 18.311087
-52.853561 -42.805844 17.241118
-61.652559 -47.509234 15.298638
-60.576051 -47.498707 16.199686
-60.608413 -46.735121 14.98384
-62.651228 -47.526073 14.37478
-62.618866 -48.289659 15.590626
-61.652559 -47.509234 15.298638
-49.139776 -39.52402 16.666886
-48.258738 -38.68137 16.668311
-48.501796 -39.322398 15.863515
-49.966755 -40.400505 16.759309
-49.723696 -39.759478 17.564105
-49.139776 -39.52402 16.666886
-59.940752 0.482671 -20.354271
-59.312872 1.004282 -20.702694
-48.060446 7.476837 -29.385391
-47.441175 6.458294 -28.040642
-47.143791 7.601309 -29.269577
-48.979253 7.521876 -29.397646
-48.060446 7.476837 -29.385391
-62.793156 -11.528096 -9.188128
-62.166916 -10.967444 -9.339704
-60.140312 -7.272807 -12.435133
-60.922863 -7.579441 -12.089936
-60.07259 -8.558661 -11.236491
-59.406746 -6.923688 -12.802277
-60.257019 -5.944468 -13.655722
-60.140312 -7.272807 -12.435133
-40.376175 -27.416607 13.44053
-40.705342 -28.661886 13.35924
-40.170654 -26.103632 10.870758
-40.195446 -26.543255 11.763833
-40.33512 -25.555261 9.933012
-40.722853 -26.711987 9.879751
-40.170654 -26.103632 10.870758
-40.988928 -23.938409 6.940743
-40.747957 -24.469981 7.97148
-41.379711 -23.296168 5.90223
-41.86283 -24.326685 5.917972
-40.988928 -23.938409 6.940743
-44.482185 -18.45833 -1.912326
-44.026817 -19.19626 -0.751155
-44.987928 -17.591543 -3.061011
-45.704165 -18.364492 -2.89677
-44.482185 -18.45833 -1.912326
-46.346685 -14.962687 -6.568976
-45.917915 -15.843281 -5.393322
-45.095236 -15.191035 -5.595092
-68.250252 -46.474998 8.179444
-67.758461 -46.647957 9.027984
-67.915367 -45.566612 7.966058
-68.462311 -46.36298 7.299159
-68.305405 -47.444325 8.361085
-68.250252 -46.474998 8.179444
-68.270203 -30.150954 -3.274499
-68.066876 -29.159929 -3.308419
-43.315821 -33.758553 14.162329
-42.736197 -32.711043 14.351583
-43.711173 -34.280022 13.177393
-44.037812 -34.678452 13.925719
-43.315821 -33.758553 14.162329
-55.250324 -44.315346 15.85425
-54.427857 -44.058746 16.720678
-54.183803 -43.55494 15.581064
-56.395782 -45.032118 16.129662
-55.250324 -44.315346 15.85425
-56.15173 -44.528311 14.990049
-57.472222 -45.800297 16.452281
-56.395782 -45.032118 16.129662
-58.414547 -45.984839 15.575174
-58.58958 -46.540053 16.761996
-57.472222 -45.800297 16.452281
-47.153526 -38.147177 15.03316
-46.835045 -37.575575 15.949086
-46.367813 -37.243004 15.117306
-46.862116 8.662899 -30.434755
-47.143791 7.601309 -29.269577
-46.242846 7.644357 -29.090006
-46.431486 9.716121 -31.653188
-46.862116 8.662899 -30.434755
-46.431486 9.716121 -31.653188
-45.551602 9.679958 -31.395249
-65.06387 -14.160764 -9.003007
-65.573166 -14.907026 -9.04148
-65.159191 -15.249363 -8.103517
-64.623768 -13.361411 -9.010082
-65.06387 -14.160764 -9.003007
-61.401823 -10.577405 -9.538616
-62.166916 -10.967444 -9.339704
-61.297125 -11.818545 -8.486167
-60.693587 -10.146899 -9.788187
-61.563378 -9.295799 -10.641724
-61.401823 -10.577405 -9.538616
-44.392149 -14.243624 -5.670438
-45.095236 -15.191035 -5.595092
-43.929232 -9.704657 -9.181942
-43.641569 -10.517437 -8.024214
-44.996149 -9.817066 -10.427319
-43.929232 -9.704657 -9.181942
-44.239311 -8.753613 -10.348436
-68.08905 -44.475769 6.912735
-67.915367 -45.566612 7.966058
-67.59726 -44.648727 7.761275
-68.214184 -43.376553 5.896091
-68.08905 -44.475769 6.912735
-68.366783 -42.262663 4.892372
-68.214184 -43.376553 5.896091
-67.923542 -42.443995 5.704233
-68.452149 -41.155127 3.918883
-68.366783 -42.262663 4.892372
-68.07302 -35.893021 0.812038
-67.922772 -37.0541 1.690003
-67.493412 -36.145325 1.529698
-68.07302 -35.893021 0.812038
-68.121555 -34.753258 -0.053044
-53.013356 6.31463 -27.411842
-53.21228 5.001992 -26.096733
-52.298756 5.016354 -26.379917
-53.013356 6.31463 -27.411842
-52.674653 7.584023 -28.800648
-44.869673 -35.389204 15.41103
-44.345711 -35.111566 14.715156
-45.549147 -36.368776 15.276445
-44.869673 -35.389204 15.41103
-45.867629 -36.940378 14.360519
-46.367813 -37.243004 15.117306
-45.549147 -36.368776 15.276445
-58.569952 1.315137 -21.109637
-59.312872 1.004282 -20.702694
-58.715855 0.021077 -19.706511
-58.444069 2.655961 -22.488457
-58.569952 1.315137 -21.109637
-57.847052 1.672756 -21.492273
-58.208523 3.906891 -23.939064
-58.444069 2.655961 -22.488457
-58.208523 3.906891 -23.939064
-57.492363 4.312378 -24.294641
-44.295265 2.81042 -21.38702
-45.1348 1.98464 -21.702471
-44.261536 1.761733 -20.248766
-44.321512 3.752711 -22.491877
-44.295265 2.81042 -21.38702
-44.268805 4.799138 -23.62512
-45.115822 4.079754 -23.973968
-44.321512 3.752711 -22.491877
-44.212734 5.740175 -24.71584
-44.268805 4.799138 -23.62512
-44.057798 6.761277 -25.837692
-44.908178 6.147284 -26.229065
-44.212734 5.740175 -24.71584
-43.903455 7.678723 -26.906597
-44.057798 6.761277 -25.837692
-43.633608 8.646642 -28.006006
-44.483395 8.136305 -28.450327
-43.903455 7.678723 -26.906597
-67.376438 -22.758251 -6.157476
-67.600048 -23.72258 -6.201527
-66.938439 -21.897334 -6.101533
-67.376438 -22.758251 -6.157476
-66.983669 -23.007096 -5.395376
-66.57911 -21.006684 -6.034941
-66.938439 -21.897334 -6.101533
-66.020798 -20.23391 -5.949965
-66.57911 -21.006684 -6.034941
-65.987358 -21.373406 -5.254458
-65.542419 -19.429725 -5.868341
-66.020798 -20.23391 -5.949965
-64.884766 -18.754247 -5.770746
-65.542419 -19.429725 -5.868341
-64.771393 -19.925154 -5.071886
-64.30281 -18.048991 -5.69559
-65.073837 -17.553562 -6.492045
-64.884766 -18.754247 -5.770746
-53.000639 -42.470768 18.998978
-52.177295 -41.591183 18.713569
-53.953074 -43.288395 19.27532
-53.000639 -42.470768 18.998978
-53.298221 -43.130974 18.311087
-53.805996 -43.62347 17.51746
-54.427857 -44.058746 16.720678
-59.639547 -47.328829 17.102871
-58.58958 -46.540053 16.761996
-59.639547 -47.328829 17.102871
-60.576051 -47.498707 16.199686
-63.542272 -49.102243 15.889031
-62.618866 -48.289659 15.590626
-64.408934 -49.13402 14.936788
-64.333672 -49.929763 16.159049
-63.542272 -49.102243 15.889031
-67.603482 -28.270208 -3.36572
-68.066876 -29.159929 -3.308419
-67.578003 -29.424879 -2.620718
-67.716152 -27.08937 -4.064281
-67.603482 -28.270208 -3.36572
-67.22728 -27.354319 -3.37658
-67.675713 -25.9608 -4.788544
-67.716152 -27.08937 -4.064281
-67.716572 -24.808066 -5.476633
-67.675713 -25.9608 -4.788544
-67.38081 -25.020747 -4.763229
-67.600048 -23.72258 -6.201527
-67.716572 -24.808066 -5.476633
-47.51483 -37.75136 16.663828
-46.835045 -37.575575 15.949086
-47.51483 -37.75136 16.663828
-48.258738 -38.68137 16.668311
-50.515026 -39.843595 18.330967
-49.723696 -39.759478 17.564105
-51.279739 -40.752491 18.52446
-50.515026 -39.843595 18.330967
-51.448231 -41.474655 17.845636
-52.177295 -41.591183 18.713569
-51.279739 -40.752491 18.52446
-60.110144 -0.749298 -18.935284
-60.169693 -2.070142 -17.585842
-59.518324 -1.610622 -17.950126
-60.110144 -0.749298 -18.935284
-59.940752 0.482671 -20.354271
-41.22811 -29.41997 14.867597
-41.335224 -30.206188 13.998752
-41.691519 -30.543781 14.710345
-41.691519 -30.543781 14.710345
-42.140923 -31.69598 14.565331
-50.835705 7.562449 -29.22037
-51.771342 7.57929 -29.036663
-51.164195 6.312149 -27.878732
-49.914617 7.502618 -29.350638
-49.293194 6.314564 -28.109448
-48.979253 7.521876 -29.397646
-50.835705 7.562449 -29.22037
-49.914617 7.502618 -29.350638
-43.368977 9.513322 -29.041279
-43.633608 8.646642 -28.006006
-43.821756 9.987519 -30.610335
-43.368977 9.513322 -29.041279
-44.67779 9.879097 -31.042524
-43.821756 9.987519 -30.610335
-64.019499 -12.727183 -9.024377
-64.623768 -13.361411 -9.010082
-64.045626 -13.868873 -8.079339
-63.482726 -12.041127 -9.091317
-62.751787 -12.721615 -8.190444
-62.793156 -11.528096 -9.188128
-64.019499 -12.727183 -9.024377
-63.482726 -12.041127 -9.091317
-61.574013 -8.06305 -11.806079
-61.563378 -9.295799 -10.641724
-61.574013 -8.06305 -11.806079
-60.922863 -7.579441 -12.089936
-60.238833 -4.664441 -14.93962
-60.257019 -5.944468 -13.655722
-59.550663 -4.263407 -15.311776
-60.266042 -3.332499 -16.228529
-60.238833 -4.664441 -14.93962
-41.189503 -29.741667 13.209201
-41.652912 -30.865476 13.051949
-41.335224 -30.206188 13.998752
-41.023029 -29.321174 12.412437
-41.189503 -29.741667 13.209201
-40.705342 -28.661886 13.35924
-40.185686 -27.033772 12.636323
-40.376175 -27.416607 13.44053
-40.022993 -26.208985 13.514376
-40.548628 -27.750877 11.689986
-40.185686 -27.033772 12.636323
-40.195446 -26.543255 11.763833
-40.455593 -25.067326 8.96424
-40.33512 -25.555261 9.933012
-41.179682 -25.566271 7.949245
-40.455593 -25.067326 8.96424
-40.747957 -24.469981 7.97148
-41.714137 -22.72119 4.822631
-41.379711 -23.296168 5.90223
-42.712942 -22.996263 3.803265
-41.714137 -22.72119 4.822631
-43.864777 -23.026992 2.826712
-43.405447 -23.715173 3.902906
-42.712942 -22.996263 3.803265
-44.414631 -22.214009 1.782451
-45.107135 -22.932918 1.882092
-43.864777 -23.026992 2.826712
-44.914028 -21.4745 0.675684
-44.414631 -22.214009 1.782451
-45.476202 -20.607568 -0.399346
-46.219164 -21.253005 -0.237199
-44.914028 -21.4745 0.675684
-44.684744 -20.030171 -0.617274
-44.026817 -19.19626 -0.751155
-45.98988 -19.808677 -1.530157
-45.476202 -20.607568 -0.399346
-44.684744 -20.030171 -0.617274
-45.438187 -16.784667 -4.232447
-44.987928 -17.591543 -3.061011
-46.689636 -16.556319 -5.20633
-45.438187 -16.784667 -4.232447
-45.917915 -15.843281 -5.393322
-44.761813 -13.425402 -6.844637
-44.392149 -14.243624 -5.670438
-44.342844 -11.654237 -8.089677
-43.641569 -10.517437 -8.024214
-45.157032 -12.469813 -8.020266
-44.342844 -11.654237 -8.089677
-45.500257 -11.583686 -9.191415
-45.919225 -13.354851 -7.946375
-44.761813 -13.425402 -6.844637
-45.157032 -12.469813 -8.020266
-43.190012 -4.755016 -12.324817
-43.936561 -5.986498 -12.559224
-43.390476 -3.930172 -13.457157
-43.190012 -4.755016 -12.324817
-43.592224 -2.965219 -14.60228
-44.374233 -4.102521 -14.853371
-43.390476 -3.930172 -13.457157
-43.767568 -2.10091 -15.729788
-43.592224 -2.965219 -14.60228
-42.783811 -1.928561 -14.333573
-43.926367 -1.097098 -16.872155
-44.73478 -2.133757 -17.140863
-43.767568 -2.10091 -15.729788
-44.066481 -0.197858 -17.993807
-43.926367 -1.097098 -16.872155
-43.09927 -0.165011 -16.582732
-44.170227 0.835092 -19.134301
-44.997324 -0.096996 -19.423724
-44.066481 -0.197858 -17.993807
-44.261536 1.761733 -20.248766
-44.170227 0.835092 -19.134301
-66.094803 -48.989544 13.071727
-65.943474 -49.905022 14.261351
-65.351662 -49.046063 14.017181
-66.870232 -48.848551 12.167548
-66.094803 -48.989544 13.071727
-66.278419 -47.989592 11.923378
-67.395531 -48.750844 11.237799
-66.870232 -48.848551 12.167548
-67.915279 -48.604717 10.348885
-67.395531 -48.750844 11.237799
-67.573597 -47.702471 10.130285
-68.160538 -48.50824 9.434206
-67.915279 -48.604717 10.348885
-68.160538 -48.50824 9.434206
-68.305405 -47.444325 8.361085
-68.576099 -40.027137 2.963649
-68.452149 -41.155127 3.918883
-68.200092 -40.202116 3.74528
-68.413212 -37.937962 1.881194
-67.833603 -38.190265 2.598854
-67.922772 -37.0541 1.690003
-68.616008 -38.916472 2.030308
-68.413212 -37.937962 1.881194
-68.576099 -40.027137 2.963649
-68.616008 -38.916472 2.030308
-68.322067 -31.280165 -2.485265
-68.243164 -32.446917 -1.704311
-67.962494 -31.481351 -1.782463
-68.322067 -31.280165 -2.485265
-68.270203 -30.150954 -3.274499
-54.137724 4.96778 -25.773897
-53.423125 3.669504 -24.741972
-53.21228 5.001992 -26.096733
-55.005575 4.863345 -25.431968
-54.137724 4.96778 -25.773897
-55.883373 4.764169 -25.053717
-55.226366 3.536117 -24.040884
-55.005575 4.863345 -25.431968
-56.68386 4.524059 -24.69041
-55.883373 4.764169 -25.053717
3 0 67 65
3 0 263 265
3 263 68 264
3 263 264 265
3 0 65 68
3 1 72 70
3 2 75 73
3 3 78 76
3 3 80 78
3 4 82 81
3 4 84 82
3 4 86 84
3 2 89 87
3 2 73 89
3 5 93 91
3 7 96 94
3 7 98 96
3 8 101 99
3 8 103 101
3 8 105 103
3 5 108 106
3 5 91 108
3 10 266 267
3 11 112 110
3 12 115 113
3 12 268 270
3 270 269 115
3 268 269 270
3 13 271 272
3 13 273 275
3 273 116 274
3 273 274 275
3 6 119 117
3 14 122 120
3 14 124 122
3 14 126 124
3 15 129 127
3 15 131 129
3 276 133 277
3 278 135 279
3 280 279 133
3 278 279 280
3 281 137 282
3 283 282 135
3 281 282 283
3 16 284 285
3 16 286 287
3 16 288 289
3 17 140 138
3 17 141 140
3 9 144 142
3 18 147 145
3 18 290 292
3 292 291 147
3 290 291 292
3 18 293 294
3 296 295 148
3 19 151 149
3 21 152 66
3 21 153 152
3 22 297 299
3 297 154 298
3 297 298 299
3 22 155 154
3 22 157 155
3 19 158 69
3 19 149 158
3 24 161 159
3 25 162 71
3 25 300 302
3 302 301 162
3 300 301 302
3 27 165 164
3 28 166 74
3 28 167 166
3 29 170 168
3 31 171 77
3 31 172 171
3 31 174 172
3 33 175 79
3 33 176 175
3 34 303 305
3 305 304 177
3 303 304 305
3 35 306 308
3 308 307 83
3 306 307 308
3 35 309 311
3 309 178 310
3 309 310 311
3 35 180 178
3 37 181 85
3 37 182 181
3 38 185 183
3 40 186 88
3 40 187 186
3 40 189 187
3 27 190 90
3 27 164 190
3 41 193 191
3 43 194 92
3 43 195 194
3 20 196 150
3 44 197 95
3 44 198 197
3 44 199 198
3 45 200 97
3 45 201 200
3 46 312 314
3 314 313 100
3 312 313 314
3 46 315 317
3 315 202 316
3 315 316 317
3 46 203 202
3 47 204 102
3 47 205 204
3 47 207 205
3 49 208 104
3 49 209 208
3 23 210 156
3 50 211 107
3 50 212 211
3 50 213 212
3 41 214 109
3 41 191 214
3 319 318 160
3 51 217 215
3 53 218 111
3 53 219 218
3 26 220 163
3 320 221 321
3 322 321 114
3 320 321 322
3 324 323 221
3 42 222 192
3 54 223 118
3 54 224 223
3 30 225 169
3 55 226 121
3 55 227 226
3 55 228 227
3 326 325 123
3 56 327 329
3 329 328 125
3 327 328 329
3 56 330 332
3 330 229 331
3 330 331 332
3 32 230 173
3 57 231 128
3 57 232 231
3 57 233 232
3 58 234 130
3 58 235 234
3 333 236 334
3 335 237 336
3 337 238 338
3 339 338 237
3 337 338 339
3 340 239 341
3 342 240 343
3 344 343 239
3 342 343 344
3 345 241 346
3 347 242 348
3 349 348 241
3 347 348 349
3 59 350 352
3 350 243 351
3 350 351 352
3 59 244 243
3 60 245 132
3 60 246 245
3 60 247 246
3 61 248 134
3 61 249 248
3 61 250 249
3 62 251 136
3 62 252 251
3 36 253 179
3 353 254 354
3 355 354 139
3 353 354 355
3 358 357 254
3 356 357 358
3 48 255 206
3 63 256 143
3 63 257 256
3 39 258 184
3 64 259 146
3 64 260 259
3 64 261 260
3 360 359 188
3 52 262 216
3 65 66 19
3 67 66 65
3 67 21 66
3 68 361 362
3 68 363 365
3 363 22 364
3 363 364 365
3 68 69 22
3 65 69 68
3 65 19 69
3 70 71 24
3 72 71 70
3 72 25 71
3 73 74 27
3 75 74 73
3 75 28 74
3 76 77 29
3 78 77 76
3 78 31 77
3 78 79 31
3 80 79 78
3 80 33 79
3 81 366 368
3 368 367 34
3 366 367 368
3 82 369 371
3 371 370 81
3 369 370 371
3 82 372 373
3 82 374 376
3 374 83 375
3 374 375 376
3 84 83 82
3 84 35 83
3 84 85 35
3 86 85 84
3 86 37 85
3 87 88 38
3 89 88 87
3 89 40 88
3 89 90 40
3 73 90 89
3 73 27 90
3 91 92 41
3 93 92 91
3 93 43 92
3 94 95 20
3 96 95 94
3 96 44 95
3 96 97 44
3 98 97 96
3 98 45 97
3 99 377 379
3 377 100 378
3 377 378 379
3 101 100 99
3 101 46 100
3 101 102 46
3 103 102 101
3 103 47 102
3 103 104 47
3 105 104 103
3 105 49 104
3 106 107 23
3 108 107 106
3 108 50 107
3 108 109 50
3 91 109 108
3 91 41 109
3 110 111 51
3 112 111 110
3 112 53 111
3 113 114 26
3 115 114 113
3 115 380 382
3 382 381 114
3 380 381 382
3 115 383 384
3 386 385 115
3 116 387 389
3 387 388 389
3 116 390 391
3 117 118 42
3 119 118 117
3 119 54 118
3 120 121 30
3 122 121 120
3 122 55 121
3 122 123 55
3 124 123 122
3 124 392 394
3 394 393 123
3 392 393 394
3 124 395 397
3 395 125 396
3 395 396 397
3 126 125 124
3 126 56 125
3 127 128 32
3 129 128 127
3 129 57 128
3 129 130 57
3 131 130 129
3 131 58 130
3 398 59 399
3 400 132 401
3 133 402 404
3 402 132 403
3 402 403 404
3 133 60 132
3 133 134 60
3 135 134 133
3 135 61 134
3 135 136 61
3 137 136 135
3 137 62 136
3 138 139 36
3 140 139 138
3 140 405 407
3 407 406 139
3 405 406 407
3 140 408 409
3 141 410 412
3 412 411 140
3 410 411 412
3 141 413 414
3 142 143 48
3 144 143 142
3 144 63 143
3 145 146 39
3 147 146 145
3 147 64 146
3 147 415 417
3 417 416 64
3 415 416 417
3 419 418 147
3 148 420 422
3 422 421 52
3 420 421 422
3 424 423 148
3 149 150 5
3 151 150 149
3 151 20 150
3 66 151 19
3 152 151 66
3 152 20 151
3 152 94 20
3 153 94 152
3 153 7 94
3 154 425 426
3 154 427 428
3 154 429 431
3 429 99 430
3 429 430 431
3 155 99 154
3 155 8 99
3 155 156 8
3 157 156 155
3 157 23 156
3 69 157 22
3 158 157 69
3 158 23 157
3 158 106 23
3 149 106 158
3 149 5 106
3 159 160 10
3 161 160 159
3 161 432 434
3 434 433 160
3 432 433 434
3 71 161 24
3 162 161 71
3 162 435 437
3 437 436 161
3 435 436 437
3 162 438 439
3 441 440 162
3 442 163 443
3 444 443 11
3 442 443 444
3 445 163 446
3 447 26 448
3 449 448 163
3 447 448 449
3 450 26 451
3 452 113 453
3 454 453 26
3 452 453 454
3 455 113 456
3 457 12 458
3 459 458 113
3 457 458 459
3 164 460 461
3 165 462 464
3 464 463 164
3 462 463 464
3 165 465 466
3 74 165 27
3 166 165 74
3 166 467 469
3 469 468 165
3 467 468 469
3 166 470 471
3 167 472 474
3 474 473 166
3 472 473 474
3 167 475 477
3 475 13 476
3 475 476 477
3 168 169 6
3 170 169 168
3 170 30 169
3 77 170 29
3 171 170 77
3 171 30 170
3 171 120 30
3 172 120 171
3 172 14 120
3 172 173 14
3 174 173 172
3 174 32 173
3 79 174 31
3 175 174 79
3 175 32 174
3 175 127 32
3 176 127 175
3 176 15 127
3 177 478 479
3 482 481 177
3 480 481 482
3 484 483 34
3 83 485 486
3 488 487 83
3 178 489 490
3 178 491 493
3 491 16 492
3 491 492 493
3 178 179 16
3 180 179 178
3 180 36 179
3 85 180 35
3 181 180 85
3 181 36 180
3 181 138 36
3 182 138 181
3 182 17 138
3 183 184 9
3 185 184 183
3 185 39 184
3 88 185 38
3 186 185 88
3 186 39 185
3 186 145 39
3 187 145 186
3 187 18 145
3 187 188 18
3 189 188 187
3 189 494 496
3 496 495 188
3 494 495 496
3 90 189 40
3 190 189 90
3 190 497 499
3 499 498 189
3 497 498 499
3 190 500 501
3 164 502 504
3 504 503 190
3 502 503 504
3 164 505 506
3 191 192 2
3 193 192 191
3 193 42 192
3 92 193 41
3 194 193 92
3 194 42 193
3 194 117 42
3 195 117 194
3 195 6 117
3 150 93 5
3 196 93 150
3 196 43 93
3 95 196 20
3 197 196 95
3 197 43 196
3 197 195 43
3 198 195 197
3 198 6 195
3 198 168 6
3 199 168 198
3 199 29 168
3 97 199 44
3 200 199 97
3 200 29 199
3 200 76 29
3 201 76 200
3 201 3 76
3 100 507 508
3 510 509 100
3 202 511 512
3 202 513 514
3 202 515 517
3 515 177 516
3 515 516 517
3 203 177 202
3 203 34 177
3 102 203 46
3 204 203 102
3 204 34 203
3 204 81 34
3 205 81 204
3 205 4 81
3 205 206 4
3 207 206 205
3 207 48 206
3 104 207 47
3 208 207 104
3 208 48 207
3 208 142 48
3 209 142 208
3 209 9 142
3 156 105 8
3 210 105 156
3 210 49 105
3 107 210 23
3 211 210 107
3 211 49 210
3 211 209 49
3 212 209 211
3 212 9 209
3 212 183 9
3 213 183 212
3 213 38 183
3 109 213 50
3 214 213 109
3 214 38 213
3 214 87 38
3 191 87 214
3 191 2 87
3 160 518 520
3 520 519 10
3 518 519 520
3 522 521 160
3 525 524 0
3 523 524 525
3 526 0 527
3 215 216 1
3 217 216 215
3 217 52 216
3 111 217 51
3 218 217 111
3 218 52 217
3 218 148 52
3 219 148 218
3 219 528 530
3 530 529 148
3 528 529 530
3 163 112 11
3 220 112 163
3 220 53 112
3 114 220 26
3 221 220 114
3 221 53 220
3 221 219 53
3 531 219 532
3 533 532 221
3 531 532 533
3 535 534 219
3 536 12 537
3 538 12 539
3 541 540 12
3 192 75 2
3 222 75 192
3 222 28 75
3 118 222 42
3 223 222 118
3 223 28 222
3 223 167 28
3 224 167 223
3 224 13 167
3 169 119 6
3 225 119 169
3 225 54 119
3 121 225 30
3 226 225 121
3 226 54 225
3 226 224 54
3 227 224 226
3 227 13 224
3 227 116 13
3 228 116 227
3 228 542 544
3 544 543 116
3 542 543 544
3 123 228 55
3 545 228 546
3 547 546 123
3 545 546 547
3 549 548 228
3 125 550 551
3 553 552 125
3 229 554 555
3 229 556 558
3 556 10 557
3 556 557 558
3 173 126 14
3 230 126 173
3 230 56 126
3 128 230 32
3 231 230 128
3 231 56 230
3 231 229 56
3 232 229 231
3 232 10 229
3 232 159 10
3 233 159 232
3 233 24 159
3 130 233 57
3 234 233 130
3 234 24 233
3 234 70 24
3 235 70 234
3 235 1 70
3 559 67 560
3 561 560 0
3 559 560 561
3 236 562 564
3 562 67 563
3 562 563 564
3 236 21 67
3 565 236 566
3 565 566 567
3 237 568 570
3 568 236 569
3 568 569 570
3 237 21 236
3 237 153 21
3 238 153 237
3 238 7 153
3 571 238 572
3 239 573 575
3 573 238 574
3 573 574 575
3 239 7 238
3 239 98 7
3 240 98 239
3 240 45 98
3 576 240 577
3 578 240 579
3 580 45 581
3 582 581 240
3 580 581 582
3 583 201 584
3 585 584 45
3 583 584 585
3 586 201 587
3 588 3 589
3 590 589 201
3 588 589 590
3 241 591 592
3 241 593 595
3 593 3 594
3 593 594 595
3 241 80 3
3 242 80 241
3 242 33 80
3 596 242 597
3 243 598 600
3 598 242 599
3 598 599 600
3 243 33 242
3 243 176 33
3 244 176 243
3 244 15 176
3 601 59 602
3 132 603 604
3 245 605 607
3 607 606 132
3 605 606 607
3 245 608 610
3 608 59 609
3 608 609 610
3 245 244 59
3 246 244 245
3 246 15 244
3 246 131 15
3 247 131 246
3 247 58 131
3 134 247 60
3 248 247 134
3 248 58 247
3 248 235 58
3 249 235 248
3 249 1 235
3 249 215 1
3 250 215 249
3 250 51 215
3 136 250 61
3 251 250 136
3 251 51 250
3 251 110 51
3 252 110 251
3 252 11 110
3 611 137 612
3 613 137 614
3 615 62 616
3 617 616 137
3 615 616 617
3 618 62 619
3 618 619 620
3 621 252 622
3 623 622 62
3 621 622 623
3 624 252 625
3 624 625 626
3 627 11 628
3 629 628 252
3 627 628 629
3 631 630 11
3 179 632 634
3 634 633 16
3 632 633 634
3 253 635 637
3 637 636 179
3 635 636 637
3 253 638 639
3 139 253 36
3 254 253 139
3 254 640 642
3 642 641 253
3 640 641 642
3 254 643 644
3 646 645 254
3 206 86 4
3 255 86 206
3 255 37 86
3 143 255 48
3 256 255 143
3 256 37 255
3 256 182 37
3 257 182 256
3 257 17 182
3 184 144 9
3 258 144 184
3 258 63 144
3 146 258 39
3 259 258 146
3 259 63 258
3 259 257 63
3 260 257 259
3 260 17 257
3 260 141 17
3 261 141 260
3 261 647 649
3 649 648 141
3 647 648 649
3 650 261 651
3 652 651 64
3 650 651 652
3 653 261 654
3 656 655 261
3 188 657 659
3 659 658 18
3 657 658 659
3 661 660 188
3 216 72 1
3 262 72 216
3 262 25 72
3 662 262 663
3 664 663 52
3 662 663 664
3 665 262 666
3 667 25 668
3 669 668 262
3 667 668 669
3 671 670 25
