ply
format ascii 1.0
element vertex 1052
property float x
property float y
property float z
element face 1160
property list uchar int vertex_index
end_header
26.237247 -50.730114 -22.496977
36.002796 -6.775681 -52.556732
36.840179 -37.967403 -36.152702
44.38781 -57.398571 -32.334053
56.071259 -67.613022 -26.800783
44.132927 9.824764 -57.295509
33.342098 -57.469273 -28.121805
32.292004 -45.537918 -29.001463
50.118759 -63.651058 -29.787161
12.382881 -65.674911 -12.314407
19.591356 -52.853291 -17.691515
35.176552 5.436583 -57.136673
44.564934 -14.396937 -48.972588
28.692789 -36.446182 -30.166445
32.164204 -29.076363 -37.951195
37.36837 -20.935324 -44.3283
43.312828 -29.997295 -40.771652
34.929256 -68.476196 -27.944872
39.666199 -48.538616 -34.285576
48.7052 -39.047516 -38.343628
60.567055 -68.763847 -21.456987
23.179457 -58.589863 -19.194124
27.324219 -57.151211 -21.586893
30.693691 -54.717499 -24.705126
29.584103 -48.53463 -25.458944
11.957544 -64.965622 -10.221846
32.105373 7.158064 -55.175423
30.289608 -32.941429 -34.095543
29.625711 -26.123791 -38.184998
32.694553 -10.782574 -49.414574
33.619537 -17.600502 -45.568596
36.755039 -13.520237 -48.5755
40.759132 -17.216223 -46.7789
40.42691 -10.098624 -51.203629
35.422951 -47.476471 -32.122055
36.090755 -53.124187 -31.596472
38.171501 -43.281456 -35.191383
41.74807 -39.01683 -37.447548
39.751465 -33.919445 -38.76886
53.87896 -75.118759 -24.076361
56.074715 -75.514832 -21.386412
58.644745 -68.538559 -24.554976
63.12397 -61.810841 -24.985243
60.844772 -61.142776 -27.767229
58.12339 -59.702122 -29.793745
47.207874 -60.8134 -31.111921
52.398636 -54.849731 -32.79483
49.550819 -51.719894 -34.112946
51.682568 -42.733944 -37.423576
46.699562 -48.091721 -35.265701
12.796566 -69.857094 -5.229876
49.103928 10.260916 -54.799454
32.037003 -4.427565 -52.605583
30.83375 -61.258953 -24.357016
33.187012 -51.395905 -28.414156
34.517639 -41.922909 -32.765938
51.057739 -74.027893 -25.951754
53.119797 -65.945312 -28.416647
44.937458 -69.905457 -28.538153
42.054821 -66.848885 -29.611162
10.7612 -71.066315 -7.102386
9.58009 -72.174294 -9.078432
10.584953 -73.303596 -11.301058
14.811499 -66.325272 -14.361176
19.052685 -59.143604 -17.196535
22.677483 -52.117405 -20.03034
31.803152 1.564995 -54.66008
35.402573 -0.51532 -55.617912
39.378979 8.224506 -58.116219
39.450535 2.369883 -57.568108
39.901051 -3.671761 -55.095421
22.994665 -47.138847 -20.127211
25.3927 -45.528236 -23.086138
27.981943 -43.291882 -26.234266
30.444031 -40.402184 -29.750109
32.673565 -36.942535 -33.519333
34.899994 -33.099018 -37.138611
31.200338 -21.889322 -42.102455
34.492344 -25.005413 -41.423019
37.482269 -29.093727 -40.182076
40.611763 -25.176603 -42.562027
44.215782 -21.740879 -44.59124
47.157059 -26.514105 -42.666977
39.43026 -63.027561 -30.462366
33.698029 -63.287167 -28.020597
37.351143 -58.412441 -31.086695
41.776245 -53.311596 -33.372643
44.024609 -43.848785 -36.314491
45.897682 -34.784538 -39.347313
49.998222 -30.596691 -41.556778
58.400429 -74.825325 -13.80065
57.522411 -75.311523 -17.863333
61.841198 -68.618355 -17.644152
64.789909 -61.978943 -21.417982
55.251045 -57.542637 -31.373102
24.8776 -54.62587 -20.785112
25.310581 -57.992954 -20.312925
26.828815 -53.829262 -22.035299
28.6443 -52.802486 -23.450129
27.975592 -49.737286 -23.900537
34.260761 -8.695303 -51.044472
34.674992 -12.032234 -49.142342
36.375446 -10.073765 -50.636436
38.532909 -11.693174 -49.936104
38.214085 -8.314295 -52.022812
36.221741 -42.649406 -34.141525
36.698647 -45.397091 -33.763054
37.535088 -40.599464 -35.664398
39.040775 -38.532791 -36.971954
38.207157 -35.941933 -37.56134
54.991512 -71.406296 -25.399549
56.278458 -71.827309 -24.284231
57.427399 -68.172012 -25.778421
59.796234 -64.906029 -26.168062
58.509445 -64.410858 -27.309645
59.521057 -60.521782 -28.859426
57.116051 -63.716854 -28.269751
45.784584 -59.184071 -31.743505
48.382458 -56.258785 -32.566597
46.961548 -54.562851 -33.194534
48.119087 -49.976185 -34.710739
45.559113 -52.719925 -33.780174
31.660027 -50.072418 -26.80261
32.023434 -53.152592 -26.515482
32.874283 -48.408524 -28.670969
33.975967 -46.589958 -30.574305
33.433311 -43.790916 -30.892466
43.473572 -68.467598 -29.096464
12.702389 -67.139664 -6.716135
11.790594 -70.495834 -6.17457
11.916557 -67.6147 -7.710262
11.939085 -65.312637 -11.267498
10.802307 -68.49913 -9.696398
10.855837 -68.960403 -10.732397
9.772612 -72.745567 -10.165201
11.466238 -69.427353 -11.795397
12.647247 -69.862221 -12.864479
13.345701 -66.027527 -13.350517
17.761473 -55.921703 -16.461657
17.307846 -59.175648 -16.206743
19.231808 -55.81583 -17.545038
20.969246 -55.590271 -18.595945
21.035839 -52.552109 -18.869101
33.448647 6.481318 -56.348587
31.87779 4.423368 -55.125885
33.370121 3.621405 -56.053444
33.435242 0.66847 -55.329048
35.228409 2.495169 -56.597542
41.977047 11.937529 -57.207985
39.587009 11.030558 -57.663841
41.706451 9.172689 -57.932991
41.663635 3.367552 -57.976387
24.149979 -46.406712 -21.600355
25.438358 -43.537601 -23.038561
27.954481 -38.025928 -28.245279
27.42075 -41.188805 -26.420259
28.440105 -39.792877 -28.196386
29.243509 -41.926376 -27.945158
29.455891 -38.25486 -30.03998
31.180862 -31.045069 -36.051727
31.471462 -34.799248 -33.859955
32.504993 -32.917732 -35.760536
33.763741 -35.054939 -35.378326
33.596287 -30.963659 -37.588051
30.695805 -18.505573 -44.0298
35.522133 -19.146769 -45.045441
34.088234 -21.222385 -43.518967
35.861507 -22.953178 -42.946289
36.077858 -26.937275 -40.84613
37.508732 -24.921711 -42.234833
38.977421 -27.104599 -41.441559
39.07328 -22.954849 -43.478905
42.617706 -15.655169 -47.906044
42.562679 -19.397587 -45.693481
44.449196 -17.957239 -46.731239
46.114655 -20.39168 -45.563759
46.39666 -16.856518 -47.716003
35.899231 -70.759888 -27.860807
38.251755 -67.930634 -29.056681
37.110806 -65.788445 -29.301378
32.065968 -62.559975 -26.213247
33.437653 -60.436588 -28.057169
37.763836 -50.848595 -33.048187
36.615997 -55.837246 -31.347311
38.523735 -53.438641 -32.691483
39.477329 -55.879765 -32.317032
40.641079 -51.004284 -33.83699
42.92654 -48.541946 -34.84108
41.770775 -46.204727 -35.348228
42.610931 -34.42963 -39.067772
43.783775 -36.892036 -38.397232
44.591019 -32.435593 -39.99942
46.605057 -30.512575 -40.959686
45.237663 -28.174717 -41.706978
56.335648 -78.128052 -14.041643
58.333023 -72.138443 -21.402662
56.885788 -75.473045 -19.715509
59.087608 -72.078911 -19.652208
59.685066 -71.937973 -17.740858
61.274803 -68.706985 -19.619856
63.398735 -65.354919 -19.557348
62.735363 -65.375 -21.481707
64.168228 -58.130463 -26.639151
65.158241 -58.346684 -25.001184
61.322533 -52.325275 -31.975378
51.61116 -64.86882 -29.112837
54.18042 -61.784637 -29.837252
52.706577 -60.589218 -30.539446
50.188629 -40.955147 -37.89949
52.52169 -38.320175 -39.163589
50.981987 -36.570805 -39.559097
49.463837 -34.70573 -39.938622
21.16596 -62.574894 -17.711512
23.429892 -62.178516 -18.739153
25.619953 -61.529205 -19.89316
27.624092 -60.611336 -21.223925
29.375378 -59.423134 -22.755087
29.13224 -56.057243 -23.050417
30.26062 -51.545738 -25.04524
31.022661 -47.128696 -27.170237
13.323002 -62.120834 -12.737236
14.091251 -62.37291 -13.797039
33.699974 9.210577 -56.201553
35.280746 8.288214 -57.214577
43.9771 6.979649 -57.850739
28.79896 -33.240063 -32.104736
29.466785 -34.747074 -32.123055
29.340639 -31.392605 -34.155014
29.989162 -29.460699 -36.186958
30.771536 -27.459679 -38.169983
31.342646 -12.979372 -47.677467
31.802067 -16.298082 -45.844551
33.13953 -14.125712 -47.546677
35.109928 -15.510485 -47.123711
37.101448 -17.136417 -46.453133
39.004814 -19.001532 -45.594521
38.810307 -15.249569 -47.765343
40.634586 -13.556295 -49.001656
42.561958 -12.130429 -50.161995
34.460125 -52.426991 -30.10581
34.63562 -55.342915 -29.937551
35.725136 -50.318932 -31.849932
37.177654 -48.150421 -33.401535
38.855457 -45.947998 -34.733536
40.753403 -43.726822 -35.865265
39.860989 -41.150166 -36.405113
40.742432 -36.469624 -38.086128
41.46492 -31.926727 -39.816208
52.738861 -78.771744 -22.832769
53.821976 -78.920151 -21.463472
55.071068 -75.40274 -22.84355
57.39827 -72.066002 -22.953463
59.694149 -68.72496 -23.111994
61.920319 -65.348473 -23.246897
60.940067 -65.20903 -24.8155
62.05571 -61.564983 -26.481108
63.036331 -57.77187 -28.082567
61.788498 -57.230988 -29.33359
60.460083 -56.492798 -30.415125
59.087406 -55.564075 -31.363817
48.651596 -62.299572 -30.454821
51.25053 -59.26585 -31.227175
49.811356 -57.822975 -31.905989
50.977982 -53.340069 -33.471275
52.110901 -48.86277 -35.134361
50.669891 -47.207653 -35.736145
49.21347 -45.434883 -36.281288
47.76585 -43.526314 -36.786285
13.3388 -66.58255 -5.676107
44.46072 12.529043 -56.317711
46.984932 12.805048 -55.03653
46.614357 10.185898 -56.233788
32.319477 -7.554974 -51.121017
33.90065 -5.479382 -52.759697
32.114048 -59.457657 -26.230291
30.865046 -57.977531 -24.472712
32.142685 -56.302151 -26.325872
33.302505 -54.436581 -28.2348
34.283783 -49.48922 -30.313501
35.060127 -44.657223 -32.425148
35.628017 -39.970566 -34.541626
52.526119 -74.65889 -25.099981
53.575356 -70.802238 -26.329054
54.61972 -66.865929 -27.662722
52.078766 -70.024139 -27.120123
50.549576 -69.08432 -27.825102
49.024494 -67.993088 -28.487562
47.524166 -66.755234 -29.132597
46.055008 -65.368805 -29.764532
44.617111 -63.825871 -30.372225
43.214905 -62.114868 -30.938879
11.211327 -68.055603 -8.69368
9.955336 -71.61573 -8.059738
15.321262 -62.594326 -14.817795
16.976421 -62.736992 -15.796865
18.966911 -62.747322 -16.749128
21.050074 -58.962517 -18.175417
22.887154 -55.204849 -19.657393
24.441334 -51.518257 -21.222101
31.861084 -1.388708 -53.804794
33.618916 -2.363556 -54.211876
35.669483 -3.598784 -54.246536
37.340282 9.811249 -57.664169
37.19017 6.977215 -57.842255
41.613667 6.295397 -58.202072
39.346375 5.32214 -58.091774
37.208252 4.053587 -57.540367
37.355225 1.072222 -56.760178
37.593719 -1.96629 -55.533012
37.890327 -5.083832 -53.923431
40.171398 -6.81649 -53.275002
42.423847 -8.800755 -52.351021
44.579414 -11.037175 -51.214668
46.582993 -13.510052 -49.936409
21.347637 -49.923382 -18.901976
22.681633 -49.411217 -20.213148
24.152699 -48.756805 -21.52434
25.702587 -47.939072 -22.87945
26.413668 -42.437431 -24.707029
26.684875 -44.492222 -24.620382
27.262743 -46.942566 -24.321947
28.767801 -45.759407 -25.883509
30.169579 -44.390862 -27.574526
31.448298 -42.848328 -29.378962
30.463072 -36.585072 -31.938101
31.580379 -38.733723 -31.623487
32.617565 -41.152885 -31.254599
33.720966 -39.333076 -33.138924
34.82095 -37.421051 -34.959824
35.983334 -35.448658 -36.649734
30.306589 -24.024065 -40.192635
31.709187 -25.406271 -40.070786
32.308907 -19.739271 -43.89666
32.814358 -23.319397 -41.859932
33.26244 -27.055603 -39.752647
34.77853 -28.961483 -39.294289
36.128376 -31.102573 -38.749062
37.262497 -33.445198 -38.160767
38.691383 -31.438667 -39.477074
40.278042 -29.460024 -40.619797
42.007309 -27.548801 -41.640709
40.76329 -21.090508 -44.617455
42.36792 -23.364998 -43.595993
43.844166 -25.757675 -42.603394
45.735489 -24.155594 -43.555168
39.531586 -69.857758 -28.746767
40.696754 -65.038124 -30.068468
41.866219 -60.224072 -31.451891
34.189041 -65.977982 -27.990667
34.930172 -58.18082 -29.791616
35.425869 -60.891788 -29.649839
36.156124 -63.43684 -29.493048
38.299557 -60.816109 -30.797422
40.60535 -58.145607 -31.908667
43.039391 -55.443768 -32.875908
44.20155 -50.715485 -34.324814
45.3228 -46.051315 -35.792137
46.360641 -41.466644 -37.282364
42.831978 -41.493797 -36.85955
45.028755 -39.250694 -37.808044
47.267494 -36.993561 -38.808044
48.002747 -32.695152 -40.381096
48.549812 -28.677727 -41.998917
60.525261 -71.64537 -13.622599
53.924629 -81.949478 -16.458067
54.704643 -78.904495 -19.866259
55.397224 -78.743454 -18.066866
55.928833 -78.470024 -16.108477
58.01638 -75.077957 -15.87554
60.155888 -71.774895 -15.715754
62.290657 -68.562164 -15.576799
63.929779 -65.358849 -17.51956
65.398773 -62.040783 -19.416986
66.67186 -58.609974 -21.231489
64.035088 -61.926979 -23.287924
65.993378 -58.481934 -23.187197
55.659637 -62.834621 -29.095095
56.690308 -58.700676 -30.616758
57.699287 -54.466415 -32.219452
53.82032 -56.252987 -32.094574
12.369575 -65.95404 -7.915383
12.309473 -67.377182 -7.213199
12.762491 -65.716522 -7.41832
25.660975 -42.747503 -22.868341
24.974317 -44.01433 -22.21423
28.323635 -37.236055 -29.205862
28.144732 -36.507368 -29.152328
28.513886 -35.717495 -30.112911
30.470954 -16.871097 -44.931732
30.067237 -18.011122 -43.955616
35.414243 -69.618042 -27.902839
34.773916 -72.121994 -27.171791
34.288929 -70.980148 -27.213824
55.355471 -79.838371 -14.216213
55.526846 -79.602692 -13.142045
65.134461 -56.375584 -26.617278
64.610466 -56.211952 -27.414385
61.710667 -50.179784 -32.763267
60.659267 -51.817729 -32.476969
13.801103 -60.4818 -12.843786
13.156355 -61.996265 -12.193151
14.11141 -60.552033 -13.412309
13.801103 -60.4818 -12.843786
34.637846 10.105172 -56.517853
33.926155 10.478834 -55.910091
35.428232 9.643991 -57.024365
34.49036 8.749396 -56.708065
34.637846 10.105172 -56.517853
28.807112 -31.697145 -33.041248
28.704411 -32.647371 -31.96712
29.077951 -30.773416 -34.066387
29.0698 -32.316334 -33.129875
28.807112 -31.697145 -33.041248
29.807437 -27.792245 -37.185978
29.564322 -28.816451 -36.145691
29.382596 -27.147997 -37.144711
13.42202 -65.002641 -5.779765
13.479724 -66.239147 -5.119107
13.312005 -65.243833 -6.352738
13.42202 -65.002641 -5.779765
44.71454 13.757437 -55.637211
43.452535 13.5113 -56.193107
48.04443 11.532982 -54.917992
48.239254 12.785551 -54.229408
49.298752 11.513485 -54.11087
48.975232 8.896242 -55.31451
47.730446 8.858733 -56.031678
47.859143 10.223407 -55.516621
32.17824 -5.991269 -51.8633
31.508713 -7.104319 -50.983849
31.367475 -5.540615 -51.726132
30.771553 -62.879621 -24.353234
30.042609 -63.733854 -23.456623
31.473899 -60.358305 -25.293654
31.411702 -61.978974 -25.289871
30.771553 -62.879621 -24.353234
51.791929 -74.343391 -25.525868
51.288294 -76.313301 -25.003393
50.554103 -75.997803 -25.429279
49.262501 -70.683067 -27.580448
50.037504 -71.158943 -27.253094
48.49996 -70.137451 -27.911678
49.787035 -68.538704 -28.156332
49.262501 -70.683067 -27.580448
45.68891 -70.539665 -28.244091
44.396707 -72.153557 -27.990065
46.230812 -68.330345 -28.835375
46.982264 -68.964554 -28.541313
45.68891 -70.539665 -28.244091
12.34255 -71.524982 -4.916421
12.915306 -71.108105 -4.458993
10.678185 -72.493802 -6.294719
11.192882 -72.208561 -5.830811
11.275897 -70.781075 -6.638478
10.091784 -72.831395 -6.751375
10.678185 -72.493802 -6.294719
11.584436 -66.510613 -9.457763
11.761611 -66.344642 -8.935542
12.134719 -64.799652 -9.699625
9.096884 -73.717824 -8.236009
9.284507 -73.438541 -7.726662
9.767713 -71.895012 -8.569085
8.965281 -74.055058 -8.785111
9.096884 -73.717824 -8.236009
9.657234 -74.956325 -10.493828
9.251064 -74.677311 -9.925899
10.178783 -73.024581 -10.73313
10.171729 -75.272556 -11.121227
9.657234 -74.956325 -10.493828
11.285906 -73.551365 -11.876443
10.171729 -75.272556 -11.121227
14.575481 -68.267762 -14.139115
13.493355 -70.036236 -13.390767
13.729373 -68.093747 -13.612827
15.75629 -66.418663 -14.851388
14.575481 -68.267762 -14.139115
15.614393 -60.850493 -14.99598
14.706257 -62.483618 -14.307417
14.999388 -60.739784 -14.485602
31.464792 6.023449 -54.498352
31.650395 7.311594 -54.399781
31.202319 1.862223 -54.137848
31.239638 3.291409 -54.37075
31.840471 2.994181 -54.892983
31.157342 0.439358 -53.842743
31.202319 1.862223 -54.137848
31.832118 0.088143 -54.232437
31.186308 -1.037494 -53.4151
31.157342 0.439358 -53.842743
42.79047 5.183848 -58.069751
42.795383 6.637523 -58.026405
43.972187 5.525975 -57.894085
38.747385 -2.819025 -55.314217
38.621262 -1.294071 -56.043602
39.774928 -2.146806 -55.824807
43.466657 -8.323329 -52.836399
42.327772 -7.215435 -53.346329
44.544441 -9.441539 -52.268223
43.501631 -9.918965 -51.782845
43.466657 -8.323329 -52.836399
47.617582 -13.272869 -50.328739
46.626496 -11.914647 -51.015534
47.482146 -14.843473 -49.26175
47.617582 -13.272869 -50.328739
22.472057 -47.438749 -19.381504
23.314622 -46.220236 -19.932234
22.171151 -48.531115 -19.514594
21.648543 -48.831016 -18.768887
22.472057 -47.438749 -19.381504
26.828972 -40.956844 -25.536199
26.485151 -41.613236 -24.613878
30.753463 -22.956694 -41.147545
30.075934 -22.370272 -41.147274
30.522809 -21.3029 -42.102184
46.861908 -21.613388 -45.029572
47.067211 -19.907923 -46.01957
38.294805 -71.337654 -28.233129
38.945907 -72.252274 -28.128141
33.038984 -65.842459 -27.174856
32.910645 -64.421316 -27.137251
33.943535 -64.632575 -28.005632
33.284491 -67.187866 -27.159891
33.038984 -65.842459 -27.174856
48.051536 -25.801835 -43.151459
48.747913 -26.883646 -42.817429
47.853436 -27.595916 -42.332947
58.548298 -74.712506 -12.74098
57.524079 -76.294376 -12.857491
59.462845 -73.235348 -13.711624
59.610714 -73.122528 -12.651955
58.548298 -74.712506 -12.74098
53.627707 -82.094773 -17.424507
52.963453 -83.728424 -16.701284
66.497151 -56.668381 -24.010567
65.57581 -58.414309 -24.09419
66.079582 -56.600756 -24.917561
66.86541 -56.773617 -23.058491
66.497151 -56.668381 -24.010567
52.861765 -41.353361 -38.057426
52.41857 -43.567968 -37.151496
53.608522 -36.96061 -39.858383
52.819278 -36.163544 -40.05212
50.891987 -29.494271 -42.237686
50.765338 -31.471726 -41.400909
50.142482 -28.747991 -42.347424
50.891987 -29.494271 -42.237686
29.272424 -25.593226 -38.06633
29.382596 -27.147997 -37.144711
50.327818 10.156601 -53.928287
49.298752 11.513485 -54.11087
50.188664 8.840426 -54.528126
50.327818 10.156601 -53.928287
31.290971 -4.02716 -52.34597
31.367475 -5.540615 -51.726132
30.111351 -62.043709 -23.473225
30.042609 -63.733854 -23.456623
49.795023 -75.673561 -25.814324
50.554103 -75.997803 -25.429279
50.291586 -73.63073 -26.31642
49.795023 -75.673561 -25.814324
43.646524 -71.494293 -28.2342
44.396707 -72.153557 -27.990065
42.914581 -70.775364 -28.513355
44.205515 -69.186527 -28.817309
43.646524 -71.494293 -28.2342
42.19122 -70.020012 -28.732727
42.914581 -70.775364 -28.513355
41.481844 -69.210656 -28.990076
42.764196 -67.658242 -29.353813
42.19122 -70.020012 -28.732727
17.53466 -57.548676 -16.3342
16.607685 -59.141154 -15.690454
16.834498 -57.514181 -15.817911
40.782028 11.484043 -57.435913
39.792938 12.344959 -57.217373
40.987957 12.798444 -56.989445
42.863037 2.255775 -57.746193
42.815455 3.719926 -57.956909
41.738306 1.891004 -57.606933
42.863037 2.255775 -57.746193
40.631756 1.392169 -57.402794
40.557085 2.868717 -57.772248
41.738306 1.891004 -57.606933
39.54967 0.874016 -57.06115
40.631756 1.392169 -57.402794
40.958621 -3.122632 -55.55019
39.774928 -2.146806 -55.824807
41.066374 -4.650938 -54.718529
40.958621 -3.122632 -55.55019
23.752471 -45.814953 -20.758554
23.314622 -46.220236 -19.932234
24.330128 -45.448885 -21.495126
23.572322 -46.772779 -20.863783
23.752471 -45.814953 -20.758554
24.794168 -44.972156 -22.319458
24.330128 -45.448885 -21.495126
24.974317 -44.01433 -22.21423
27.936864 -37.325525 -28.138933
28.144732 -36.507368 -29.152328
27.599379 -38.751092 -27.305324
27.936864 -37.325525 -28.138933
27.687615 -39.607366 -27.332769
27.332513 -40.332531 -26.392815
27.599379 -38.751092 -27.305324
30.270542 -19.611025 -43.065857
30.067237 -18.011122 -43.955616
30.948071 -20.197447 -43.066128
30.522809 -21.3029 -42.102184
30.270542 -19.611025 -43.065857
47.208214 -18.140342 -47.095692
47.067211 -19.907923 -46.01957
46.255657 -18.624099 -46.639881
35.271169 -73.222397 -27.185869
34.773916 -72.121994 -27.171791
36.478628 -71.788719 -27.790149
35.271169 -73.222397 -27.185869
37.075493 -69.345261 -28.458744
37.65489 -70.374092 -28.388087
36.478628 -71.788719 -27.790149
32.094614 -64.057721 -26.233576
31.342098 -65.102761 -25.322401
32.780456 -62.996027 -27.155536
32.094614 -64.057721 -26.233576
32.75181 -61.498282 -27.135208
33.567841 -61.861877 -28.038883
32.910645 -64.421316 -27.137251
32.780456 -62.996027 -27.155536
56.491688 -77.94574 -12.977987
55.526846 -79.602692 -13.142045
57.368038 -76.476688 -13.921146
57.524079 -76.294376 -12.857491
56.491688 -77.94574 -12.977987
65.629467 -56.483694 -25.798294
64.663235 -58.238574 -25.820167
65.134461 -56.375584 -26.617278
66.079582 -56.600756 -24.917561
65.629467 -56.483694 -25.798294
62.342717 -50.640405 -32.170279
61.97531 -52.745344 -31.418819
62.342717 -50.640405 -32.170279
61.710667 -50.179784 -32.763267
53.661079 -53.360594 -33.280052
52.962963 -52.632429 -33.634754
52.049427 -35.288859 -40.249874
52.819278 -36.163544 -40.05212
51.751838 -37.44549 -39.361343
51.257221 -34.458782 -40.402069
52.049427 -35.288859 -40.249874
50.498146 -33.526245 -40.591831
51.257221 -34.458782 -40.402069
50.222912 -35.638267 -39.74886
49.731029 -32.651211 -40.7477
50.765338 -31.471726 -41.400909
50.498146 -33.526245 -40.591831
21.195017 -64.454218 -17.505333
20.027421 -64.553056 -17.009586
22.326983 -64.256029 -18.019154
21.195017 -64.454218 -17.505333
22.297926 -62.376705 -18.225333
23.491557 -64.030073 -18.556189
22.326983 -64.256029 -18.019154
24.586588 -63.705417 -19.133192
23.491557 -64.030073 -18.556189
24.524922 -61.85386 -19.316157
25.681472 -63.340294 -19.741227
24.586588 -63.705417 -19.133192
26.683542 -62.881359 -20.406609
25.681472 -63.340294 -19.741227
26.622022 -61.07027 -20.558543
27.662329 -62.371857 -21.107416
26.683542 -62.881359 -20.406609
28.499735 -60.017235 -21.989506
28.537972 -61.777756 -21.872998
27.662329 -62.371857 -21.107416
12.478963 -63.301726 -10.381325
12.134719 -64.799652 -9.699625
12.473626 -63.418659 -10.935457
12.478963 -63.301726 -10.381325
12.464396 -63.592166 -11.458282
11.948315 -65.139129 -10.744672
12.473626 -63.418659 -10.935457
12.631044 -63.716735 -12.002367
12.464396 -63.592166 -11.458282
13.156355 -61.996265 -12.193151
14.495534 -60.678071 -13.942211
13.707127 -62.246872 -13.267138
14.11141 -60.552033 -13.412309
14.999388 -60.739784 -14.485602
14.495534 -60.678071 -13.942211
17.185508 -55.935539 -15.891829
16.834498 -57.514181 -15.817911
18.076377 -54.488163 -16.463749
17.185508 -55.935539 -15.891829
18.991318 -52.953957 -17.078678
18.676414 -54.387497 -17.076586
18.076377 -54.488163 -16.463749
32.307446 8.439462 -54.988747
31.650395 7.311594 -54.399781
33.104746 9.465719 -55.501812
33.926155 10.478834 -55.910091
32.902673 8.184321 -55.688488
32.307446 8.439462 -54.988747
33.104746 9.465719 -55.501812
45.188993 7.183663 -57.449028
44.055014 8.402207 -57.573124
45.266907 8.606221 -57.171413
45.153627 5.740388 -57.642132
45.188993 7.183663 -57.449028
43.972187 5.525975 -57.894085
45.153627 5.740388 -57.642132
28.566972 -34.114435 -31.082057
28.704411 -32.647371 -31.96712
28.745874 -34.843122 -31.13559
28.513886 -35.717495 -30.112911
28.566972 -34.114435 -31.082057
29.24006 -29.782404 -35.129719
29.077951 -30.773416 -34.066387
29.664901 -30.426652 -35.170986
29.24006 -29.782404 -35.129719
29.564322 -28.816451 -36.145691
31.572356 -14.638727 -46.761009
31.024085 -15.767351 -45.839107
30.794374 -14.107996 -46.755566
33.907646 -69.762889 -27.179449
34.288929 -70.980148 -27.213824
53.280418 -78.845947 -22.14812
52.702293 -80.648735 -21.560442
52.160736 -80.574532 -22.24509
64.044517 -56.032656 -28.136093
64.610466 -56.211952 -27.414385
63.602279 -57.951166 -27.360859
63.459949 -55.795371 -28.845554
64.044517 -56.032656 -28.136093
62.836033 -55.524929 -29.471066
63.459949 -55.795371 -28.845554
62.412414 -57.501429 -28.708078
62.208292 -55.1982 -30.097926
62.836033 -55.524929 -29.471066
61.544084 -54.829105 -30.638693
62.208292 -55.1982 -30.097926
61.124291 -56.861893 -29.874358
60.891308 -54.409036 -31.195251
61.97531 -52.745344 -31.418819
61.544084 -54.829105 -30.638693
59.541704 -53.437129 -32.171189
60.659267 -51.817729 -32.476969
60.20497 -53.944675 -31.669598
52.252636 -51.877598 -33.972977
52.962963 -52.632429 -33.634754
51.688309 -54.0949 -33.133052
52.819096 -49.638948 -34.804519
52.252636 -51.877598 -33.972977
51.544441 -51.101419 -34.302818
53.348194 -47.418426 -35.692493
52.819096 -49.638948 -34.804519
52.632737 -46.632381 -36.006889
53.348194 -47.418426 -35.692493
51.912232 -45.804823 -36.307781
52.632737 -46.632381 -36.006889
51.390396 -48.035212 -35.435253
51.17623 -44.970799 -36.57986
52.41857 -43.567968 -37.151496
51.912232 -45.804823 -36.307781
13.164859 -69.478306 -4.726289
12.915306 -71.108105 -4.458993
13.435976 -67.841034 -4.949404
13.479724 -66.239147 -5.119107
13.067683 -68.219822 -5.452991
13.164859 -69.478306 -4.726289
13.435976 -67.841034 -4.949404
12.993799 -65.522391 -6.872752
13.020595 -66.861107 -6.196121
13.312005 -65.243833 -6.352738
12.762491 -65.716522 -7.41832
12.993799 -65.522391 -6.872752
42.210699 13.215543 -56.638244
40.987957 12.798444 -56.989445
43.218884 12.233286 -56.762848
42.210699 13.215543 -56.638244
43.452535 13.5113 -56.193107
47.246792 13.969292 -54.261192
48.239254 12.785551 -54.229408
45.976647 13.89544 -54.99662
47.246792 13.969292 -54.261192
45.722826 12.667046 -55.677121
44.71454 13.757437 -55.637211
45.976647 13.89544 -54.99662
46.507622 8.786788 -56.640553
45.266907 8.606221 -57.171413
45.373642 10.005331 -56.764648
46.507622 8.786788 -56.640553
47.730446 8.858733 -56.031678
48.975232 8.896242 -55.31451
50.188664 8.840426 -54.528126
30.615944 -12.523477 -47.58342
30.794374 -14.107996 -46.755566
31.154916 -11.373959 -48.518639
30.615944 -12.523477 -47.58342
31.830869 -10.275559 -49.387192
32.0186 -11.880973 -48.54602
31.154916 -11.373959 -48.518639
31.643332 -8.661759 -50.240414
31.508713 -7.104319 -50.983849
32.507015 -9.168774 -50.267796
31.830869 -10.275559 -49.387192
31.643332 -8.661759 -50.240414
31.387662 -63.530133 -25.281349
31.342098 -65.102761 -25.322401
32.090008 -61.008816 -26.221769
31.387662 -63.530133 -25.281349
31.411702 -61.978974 -25.289871
29.382165 -61.125799 -22.672261
28.537972 -61.777756 -21.872998
30.126999 -60.402998 -23.531073
29.382165 -61.125799 -22.672261
30.120212 -58.700333 -23.6139
30.849398 -59.618242 -24.414864
30.111351 -62.043709 -23.473225
30.126999 -60.402998 -23.531073
51.571619 -80.485039 -22.882483
52.160736 -80.574532 -22.24509
52.104164 -78.612617 -23.402742
51.571619 -80.485039 -22.882483
52.674214 -76.786125 -24.024538
53.30891 -76.945251 -23.454565
52.104164 -78.612617 -23.402742
51.997793 -76.55619 -24.536348
51.288294 -76.313301 -25.003393
53.20254 -74.888824 -24.588171
52.674214 -76.786125 -24.024538
51.997793 -76.55619 -24.536348
50.802099 -71.628852 -26.900605
51.568252 -72.026016 -26.535939
50.291586 -73.63073 -26.31642
51.314171 -69.55423 -27.472613
50.802099 -71.628852 -26.900605
50.037504 -71.158943 -27.253094
47.732428 -69.583481 -28.218795
48.49996 -70.137451 -27.911678
48.27433 -67.374161 -28.81008
47.732428 -69.583481 -28.218795
46.982264 -68.964554 -28.541313
11.839564 -71.844352 -5.388768
12.34255 -71.524982 -4.916421
12.29358 -70.176464 -5.702223
11.839564 -71.844352 -5.388768
11.192882 -72.208561 -5.830811
12.114226 -66.124191 -8.443833
12.369575 -65.95404 -7.915383
11.563942 -67.835151 -8.201971
12.114226 -66.124191 -8.443833
11.761611 -66.344642 -8.935542
9.688852 -73.106102 -7.230051
10.091784 -72.831395 -6.751375
10.358268 -71.341023 -7.581062
9.688852 -73.106102 -7.230051
9.284507 -73.438541 -7.726662
9.061542 -74.340694 -9.328496
8.965281 -74.055058 -8.785111
9.676351 -72.45993 -9.621816
9.061542 -74.340694 -9.328496
9.251064 -74.677311 -9.925899
12.317054 -71.830677 -12.658154
11.285906 -73.551365 -11.876443
11.6161 -71.582909 -12.082769
12.317054 -71.830677 -12.658154
13.493355 -70.036236 -13.390767
16.314554 -60.884987 -15.512269
15.614393 -60.850493 -14.99598
16.607685 -59.141154 -15.690454
16.83875 -64.624523 -15.569233
15.75629 -66.418663 -14.851388
15.89396 -64.531132 -15.079021
17.833996 -64.629688 -16.045364
16.83875 -64.624523 -15.569233
17.971666 -62.742157 -16.272996
18.927896 -64.63927 -16.528394
17.833996 -64.629688 -16.045364
20.066435 -62.661108 -17.23032
20.027421 -64.553056 -17.009586
18.927896 -64.63927 -16.528394
31.351 4.656101 -54.473583
31.464792 6.023449 -54.498352
31.991582 5.790716 -55.150654
31.351 4.656101 -54.473583
31.239638 3.291409 -54.37075
31.203012 -2.507732 -52.945576
31.186308 -1.037494 -53.4151
31.949044 -2.908137 -53.205189
31.290971 -4.02716 -52.34597
31.203012 -2.507732 -52.945576
38.639078 11.760364 -57.346649
39.792938 12.344959 -57.217373
37.515715 11.15071 -57.346813
38.639078 11.760364 -57.346649
38.463645 10.420903 -57.664005
36.458 10.405508 -57.249161
37.515715 11.15071 -57.346813
36.310514 9.049732 -57.439373
35.428232 9.643991 -57.024365
36.458 10.405508 -57.249161
41.638651 4.831475 -58.08923
42.79047 5.183848 -58.069751
42.815455 3.719926 -57.956909
38.502015 0.225185 -56.657185
38.40288 1.721053 -57.164143
39.54967 0.874016 -57.06115
37.474472 -0.447034 -56.146595
38.502015 0.225185 -56.657185
38.621262 -1.294071 -56.043602
41.201548 -6.223302 -53.808319
40.036225 -5.244125 -54.185212
41.066374 -4.650938 -54.718529
41.297623 -7.808623 -52.813012
41.201548 -6.223302 -53.808319
42.327772 -7.215435 -53.346329
45.624706 -10.678209 -51.654663
44.544441 -9.441539 -52.268223
45.581204 -12.273613 -50.575539
45.624706 -10.678209 -51.654663
46.626496 -11.914647 -51.015534
47.388979 -16.516706 -48.151547
46.489826 -15.183285 -48.826206
47.482146 -14.843473 -49.26175
47.208214 -18.140342 -47.095692
47.388979 -16.516706 -48.151547
19.889647 -51.585398 -17.62417
18.991318 -52.953957 -17.078678
20.767787 -50.120443 -18.229401
21.648543 -48.831016 -18.768887
20.469496 -51.388336 -18.296746
19.889647 -51.585398 -17.62417
20.767787 -50.120443 -18.229401
25.997495 -42.16332 -23.779644
25.660975 -42.747503 -22.868341
25.926013 -42.987516 -23.872795
25.997495 -42.16332 -23.779644
26.485151 -41.613236 -24.613878
26.917209 -41.813118 -25.563644
26.828972 -40.956844 -25.536199
27.332513 -40.332531 -26.392815
29.441819 -24.515921 -39.127041
29.272424 -25.593226 -38.06633
29.782258 -23.466058 -40.130859
30.075934 -22.370272 -41.147274
29.96615 -25.073928 -39.188817
29.441819 -24.515921 -39.127041
29.782258 -23.466058 -40.130859
31.248936 -17.401827 -44.937176
30.470954 -16.871097 -44.931732
31.024085 -15.767351 -45.839107
46.672325 -23.495345 -44.025276
45.925072 -22.273637 -44.559463
46.861908 -21.613388 -45.029572
47.38311 -24.674601 -43.581181
46.446274 -25.33485 -43.111073
46.672325 -23.495345 -44.025276
48.051536 -25.801835 -43.151459
47.38311 -24.674601 -43.581181
40.220226 -70.715092 -28.557879
38.945907 -72.252274 -28.128141
40.793203 -68.353321 -29.178964
41.481844 -69.210656 -28.990076
40.220226 -70.715092 -28.557879
38.891671 -68.894196 -28.901724
38.294805 -71.337654 -28.233129
37.65489 -70.374092 -28.388087
33.537538 -68.513782 -27.202346
33.284491 -67.187866 -27.159891
34.559149 -67.227089 -27.967769
33.907646 -69.762889 -27.179449
33.537538 -68.513782 -27.202346
49.418278 -27.788509 -42.568493
50.142482 -28.747991 -42.347424
49.274017 -29.637209 -41.777848
49.418278 -27.788509 -42.568493
48.747913 -26.883646 -42.817429
60.664299 -71.616615 -12.560636
59.610714 -73.122528 -12.651955
61.581154 -70.11692 -13.541093
60.664299 -71.616615 -12.560636
53.226566 -83.510955 -15.66741
52.963453 -83.728424 -16.701284
54.149962 -81.749085 -15.424425
53.226566 -83.510955 -15.66741
53.189913 -80.65456 -20.800438
52.702293 -80.648735 -21.560442
53.631247 -80.646732 -20.001831
53.189913 -80.65456 -20.800438
54.263309 -78.912323 -20.664865
54.017713 -80.572281 -19.128603
53.631247 -80.646732 -20.001831
54.364004 -80.49176 -18.228907
54.017713 -80.572281 -19.128603
55.050933 -78.823974 -18.966563
54.660927 -80.346466 -17.262467
53.627707 -82.094773 -17.424507
54.364004 -80.49176 -18.228907
55.152063 -80.009357 -15.24963
54.149962 -81.749085 -15.424425
54.926731 -80.209751 -16.283272
56.13224 -78.299038 -15.07506
55.355471 -79.838371 -14.216213
55.152063 -80.009357 -15.24963
62.463852 -68.575317 -14.518193
61.581154 -70.11692 -13.541093
61.407959 -70.103767 -14.599699
63.31662 -67.004638 -15.494836
62.463852 -68.575317 -14.518193
64.136181 -65.402981 -16.466216
63.31662 -67.004638 -15.494836
63.110218 -66.960507 -16.548179
64.900966 -63.769738 -17.424614
64.136181 -65.402981 -16.466216
65.635464 -62.110704 -18.373327
64.900966 -63.769738 -17.424614
64.664276 -63.699816 -18.468273
66.297756 -60.422026 -19.296377
65.635464 -62.110704 -18.373327
66.934299 -58.706621 -20.203629
66.297756 -60.422026 -19.296377
66.035316 -60.325378 -20.324238
67.487229 -56.967381 -21.074833
66.934299 -58.706621 -20.203629
67.204651 -56.837637 -22.080637
66.332619 -58.545954 -22.209343
66.86541 -56.773617 -23.058491
67.487229 -56.967381 -21.074833
67.204651 -56.837637 -22.080637
58.847645 -52.8883 -32.599007
59.541704 -53.437129 -32.171189
58.393346 -55.015245 -31.791635
54.371921 -54.062221 -32.929924
53.109478 -55.551359 -32.444702
53.661079 -53.360594 -33.280052
55.065689 -54.740122 -32.554364
54.371921 -54.062221 -32.929924
55.781052 -55.384947 -32.193627
54.535683 -56.897812 -31.733838
55.065689 -54.740122 -32.554364
57.005173 -53.846836 -32.616802
56.475166 -56.004526 -31.796277
55.781052 -55.384947 -32.193627
58.181694 -52.305034 -33.059063
57.005173 -53.846836 -32.616802
58.847645 -52.8883 -32.599007
58.181694 -52.305034 -33.059063
53.281326 -39.146476 -38.927433
52.861765 -41.353361 -38.057426
52.102129 -40.52706 -38.293582
53.281326 -39.146476 -38.927433
53.608522 -36.96061 -39.858383
3 0 97 95
3 0 99 97
3 1 102 100
3 1 104 102
3 2 107 105
3 2 109 107
3 4 112 110
3 4 114 112
3 4 116 114
3 3 119 117
3 3 121 119
3 7 124 122
3 7 126 124
3 380 130 381
3 382 381 128
3 380 381 382
3 9 133 131
3 9 135 133
3 9 137 135
3 10 140 138
3 10 142 140
3 11 145 143
3 11 147 145
3 5 150 148
3 383 153 384
3 13 385 387
3 385 154 386
3 385 386 387
3 13 156 154
3 13 158 156
3 14 161 159
3 14 163 161
3 388 164 389
3 15 167 165
3 15 169 167
3 15 171 169
3 12 174 172
3 12 176 174
3 17 390 392
3 390 177 391
3 390 391 392
3 17 179 177
3 6 181 180
3 18 184 182
3 18 186 184
3 18 188 186
3 16 191 189
3 16 193 191
3 393 194 394
3 20 197 195
3 20 199 197
3 20 201 199
3 396 395 202
3 398 397 204
3 8 207 205
3 19 210 208
3 19 211 210
3 21 213 212
3 22 214 96
3 22 215 214
3 22 217 215
3 24 218 98
3 24 219 218
3 399 220 400
3 402 401 220
3 403 222 404
3 405 223 406
3 407 406 222
3 405 406 407
3 408 225 409
3 410 227 411
3 412 411 225
3 410 411 412
3 28 413 415
3 413 228 414
3 413 414 415
3 28 229 228
3 29 232 230
3 31 233 101
3 31 234 233
3 31 236 234
3 33 237 103
3 33 238 237
3 34 241 239
3 36 242 106
3 36 243 242
3 36 245 243
3 38 246 108
3 38 247 246
3 39 250 248
3 41 251 111
3 41 252 251
3 41 254 252
3 43 255 113
3 43 256 255
3 43 257 256
3 44 258 115
3 44 259 258
3 45 262 260
3 47 263 118
3 47 264 263
3 47 265 264
3 49 266 120
3 49 267 266
3 416 268 417
3 419 418 268
3 420 269 421
3 51 422 424
3 422 270 423
3 422 423 424
3 51 271 270
3 51 425 427
3 427 426 271
3 425 426 427
3 52 428 430
3 428 272 429
3 428 429 430
3 52 273 272
3 53 431 432
3 53 433 435
3 433 274 434
3 433 434 435
3 23 275 216
3 54 276 123
3 54 277 276
3 54 278 277
3 55 279 125
3 55 280 279
3 56 436 438
3 436 281 437
3 436 437 438
3 56 282 281
3 56 284 282
3 439 285 440
3 441 286 442
3 443 442 285
3 441 442 443
3 58 444 445
3 58 446 448
3 446 287 447
3 446 447 448
3 58 288 287
3 59 289 127
3 59 290 289
3 50 449 450
3 60 451 453
3 453 452 129
3 451 452 453
3 60 454 455
3 25 456 458
3 456 291 457
3 456 457 458
3 61 292 132
3 61 459 461
3 461 460 292
3 459 460 461
3 61 462 463
3 62 464 466
3 466 465 134
3 464 465 466
3 62 467 468
3 62 469 470
3 63 471 473
3 473 472 136
3 471 472 473
3 63 474 475
3 476 293 477
3 478 477 221
3 476 477 478
3 64 294 139
3 64 295 294
3 64 296 295
3 65 297 141
3 65 298 297
3 26 479 480
3 66 481 483
3 483 482 144
3 481 482 483
3 66 484 485
3 66 486 488
3 486 299 487
3 486 487 488
3 67 300 146
3 67 301 300
3 68 302 149
3 68 303 302
3 489 304 490
3 491 490 224
3 489 490 491
3 69 305 151
3 69 306 305
3 69 307 306
3 70 492 494
3 492 308 493
3 492 493 494
3 70 309 308
3 70 310 309
3 495 311 496
3 497 312 498
3 499 498 311
3 497 498 499
3 500 313 501
3 503 502 313
3 71 504 505
3 71 506 508
3 506 314 507
3 506 507 508
3 71 315 314
3 72 316 152
3 72 317 316
3 509 318 510
3 73 319 155
3 73 320 319
3 73 321 320
3 74 322 157
3 74 323 322
3 27 324 226
3 75 325 160
3 75 326 325
3 75 327 326
3 76 328 162
3 76 329 328
3 77 511 513
3 511 330 512
3 511 512 513
3 77 331 330
3 30 332 231
3 78 333 166
3 78 334 333
3 78 335 334
3 79 336 168
3 79 337 336
3 79 338 337
3 80 339 170
3 80 340 339
3 32 341 235
3 81 342 173
3 81 343 342
3 81 344 343
3 515 514 175
3 516 345 517
3 83 346 178
3 83 347 346
3 84 518 519
3 84 520 522
3 520 348 521
3 520 521 522
3 35 349 240
3 85 350 183
3 85 351 350
3 85 352 351
3 86 353 185
3 86 354 353
3 86 355 354
3 87 356 187
3 87 357 356
3 37 358 244
3 88 359 190
3 88 360 359
3 88 361 360
3 82 362 192
3 82 523 525
3 525 524 362
3 523 524 525
3 90 526 527
3 90 528 530
3 528 363 529
3 528 529 530
3 531 364 532
3 40 365 249
3 91 366 196
3 91 367 366
3 91 368 367
3 92 369 198
3 92 370 369
3 92 371 370
3 93 372 200
3 93 373 372
3 42 374 253
3 533 375 534
3 535 534 203
3 533 534 535
3 537 536 375
3 57 376 283
3 94 377 206
3 94 378 377
3 46 379 261
3 48 538 539
3 541 540 209
3 89 542 543
3 89 544 545
3 95 96 21
3 97 96 95
3 97 22 96
3 97 98 22
3 99 98 97
3 99 24 98
3 546 28 547
3 100 101 29
3 102 101 100
3 102 31 101
3 102 103 31
3 104 103 102
3 104 33 103
3 105 106 34
3 107 106 105
3 107 36 106
3 107 108 36
3 109 108 107
3 109 38 108
3 110 111 39
3 112 111 110
3 112 41 111
3 112 113 41
3 114 113 112
3 114 43 113
3 114 115 43
3 116 115 114
3 116 44 115
3 117 118 45
3 119 118 117
3 119 47 118
3 119 120 47
3 121 120 119
3 121 49 120
3 548 51 549
3 551 550 51
3 552 52 553
3 554 53 555
3 122 123 23
3 124 123 122
3 124 54 123
3 124 125 54
3 126 125 124
3 126 55 125
3 556 56 557
3 559 558 56
3 560 58 561
3 562 127 563
3 564 563 58
3 562 563 564
3 565 127 566
3 567 59 568
3 569 568 127
3 567 568 569
3 128 129 50
3 130 129 128
3 130 60 129
3 131 132 25
3 133 132 131
3 133 61 132
3 133 134 61
3 135 134 133
3 135 62 134
3 135 136 62
3 137 136 135
3 137 63 136
3 138 570 572
3 570 139 571
3 570 571 572
3 140 139 138
3 140 64 139
3 140 141 64
3 142 141 140
3 142 65 141
3 143 144 26
3 145 144 143
3 145 66 144
3 145 146 66
3 147 146 145
3 147 67 146
3 148 573 575
3 573 149 574
3 573 574 575
3 150 149 148
3 150 68 149
3 576 151 577
3 578 151 579
3 580 69 581
3 582 581 151
3 580 581 582
3 584 583 69
3 585 70 586
3 588 587 70
3 589 71 590
3 591 152 592
3 593 592 71
3 591 592 593
3 153 594 596
3 594 152 595
3 594 595 596
3 153 72 152
3 154 597 598
3 154 599 600
3 154 601 603
3 601 155 602
3 601 602 603
3 156 155 154
3 156 73 155
3 156 157 73
3 158 157 156
3 158 74 157
3 159 160 27
3 161 160 159
3 161 75 160
3 161 162 75
3 163 162 161
3 163 76 162
3 164 604 605
3 164 606 608
3 606 77 607
3 606 607 608
3 165 166 30
3 167 166 165
3 167 78 166
3 167 168 78
3 169 168 167
3 169 79 168
3 169 170 79
3 171 170 169
3 171 80 170
3 172 173 32
3 174 173 172
3 174 81 173
3 174 175 81
3 176 175 174
3 176 609 611
3 611 610 175
3 609 610 611
3 177 612 613
3 177 614 615
3 177 616 618
3 616 178 617
3 616 617 618
3 179 178 177
3 179 83 178
3 180 619 620
3 181 621 623
3 623 622 180
3 621 622 623
3 181 624 626
3 624 84 625
3 624 625 626
3 182 183 35
3 184 183 182
3 184 85 183
3 184 185 85
3 186 185 184
3 186 86 185
3 186 187 86
3 188 187 186
3 188 87 187
3 189 190 37
3 191 190 189
3 191 88 190
3 191 192 88
3 193 192 191
3 193 82 192
3 194 627 628
3 194 629 631
3 629 90 630
3 629 630 631
3 195 196 40
3 197 196 195
3 197 91 196
3 197 198 91
3 199 198 197
3 199 92 198
3 199 200 92
3 201 200 199
3 201 93 200
3 202 203 42
3 632 203 633
3 634 633 202
3 632 633 634
3 636 635 203
3 204 637 638
3 640 639 204
3 205 206 57
3 207 206 205
3 207 94 206
3 642 641 46
3 208 209 48
3 210 209 208
3 210 643 645
3 645 644 209
3 643 644 645
3 210 646 647
3 211 648 650
3 650 649 210
3 648 649 650
3 211 651 653
3 651 89 652
3 651 652 653
3 212 654 655
3 213 656 658
3 658 657 212
3 656 657 658
3 213 659 660
3 96 213 21
3 214 213 96
3 214 661 663
3 663 662 213
3 661 662 663
3 214 664 665
3 215 666 668
3 668 667 214
3 666 667 668
3 215 669 670
3 215 671 673
3 671 216 672
3 671 672 673
3 217 216 215
3 217 23 216
3 98 217 22
3 218 217 98
3 218 23 217
3 218 122 23
3 219 122 218
3 219 7 122
3 674 25 675
3 676 25 677
3 678 131 679
3 680 679 25
3 678 679 680
3 220 681 683
3 681 131 682
3 681 682 683
3 220 9 131
3 220 221 9
3 684 221 685
3 686 685 220
3 684 685 686
3 688 687 221
3 689 138 690
3 691 138 692
3 693 10 694
3 695 694 138
3 693 694 695
3 696 26 697
3 222 698 699
3 222 700 702
3 700 26 701
3 700 701 702
3 222 143 26
3 223 143 222
3 223 11 143
3 703 224 704
3 705 704 5
3 703 704 705
3 706 224 707
3 709 708 224
3 225 710 711
3 225 712 714
3 712 13 713
3 712 713 714
3 225 226 13
3 227 226 225
3 227 27 226
3 715 227 716
3 228 717 719
3 717 227 718
3 717 718 719
3 228 27 227
3 228 159 27
3 229 159 228
3 229 14 159
3 230 720 722
3 720 231 721
3 720 721 722
3 232 231 230
3 232 30 231
3 101 232 29
3 233 232 101
3 233 30 232
3 233 165 30
3 234 165 233
3 234 15 165
3 234 235 15
3 236 235 234
3 236 32 235
3 103 236 31
3 237 236 103
3 237 32 236
3 237 172 32
3 238 172 237
3 238 12 172
3 723 17 724
3 239 240 6
3 241 240 239
3 241 35 240
3 106 241 34
3 242 241 106
3 242 35 241
3 242 182 35
3 243 182 242
3 243 18 182
3 243 244 18
3 245 244 243
3 245 37 244
3 108 245 36
3 246 245 108
3 246 37 245
3 246 189 37
3 247 189 246
3 247 16 189
3 248 725 727
3 725 249 726
3 725 726 727
3 250 249 248
3 250 40 249
3 111 250 39
3 251 250 111
3 251 40 250
3 251 195 40
3 252 195 251
3 252 20 195
3 252 253 20
3 254 253 252
3 254 42 253
3 113 254 41
3 255 254 113
3 255 42 254
3 255 202 42
3 256 202 255
3 256 728 730
3 730 729 202
3 728 729 730
3 256 731 732
3 257 733 735
3 735 734 256
3 733 734 735
3 257 736 737
3 115 257 43
3 258 257 115
3 258 738 740
3 740 739 257
3 738 739 740
3 258 741 743
3 741 204 742
3 741 742 743
3 259 204 258
3 259 744 746
3 746 745 204
3 744 745 746
3 260 261 8
3 262 261 260
3 262 46 261
3 118 262 45
3 263 262 118
3 263 46 262
3 263 747 749
3 749 748 46
3 747 748 749
3 264 750 752
3 752 751 263
3 750 751 752
3 264 753 754
3 264 755 756
3 265 757 759
3 759 758 264
3 757 758 759
3 265 760 762
3 760 48 761
3 760 761 762
3 120 265 47
3 266 265 120
3 266 48 265
3 266 208 48
3 267 208 266
3 267 19 208
3 763 50 764
3 268 765 766
3 268 767 769
3 767 50 768
3 767 768 769
3 268 128 50
3 770 128 771
3 772 771 268
3 770 771 772
3 774 773 128
3 775 148 776
3 269 777 779
3 777 148 778
3 777 778 779
3 269 5 148
3 270 780 781
3 270 782 783
3 270 784 786
3 784 269 785
3 784 785 786
3 271 269 270
3 271 5 269
3 271 787 789
3 789 788 5
3 787 788 789
3 791 790 271
3 793 792 51
3 794 230 795
3 796 230 797
3 798 29 799
3 800 799 230
3 798 799 800
3 272 801 802
3 272 803 805
3 803 29 804
3 803 804 805
3 272 100 29
3 273 100 272
3 273 1 100
3 806 180 807
3 274 808 810
3 808 180 809
3 808 809 810
3 274 6 180
3 216 811 812
3 275 813 815
3 815 814 216
3 813 814 815
3 275 816 818
3 816 53 817
3 816 817 818
3 123 275 23
3 276 275 123
3 276 53 275
3 276 274 53
3 277 274 276
3 277 6 274
3 277 239 6
3 278 239 277
3 278 34 239
3 125 278 54
3 279 278 125
3 279 34 278
3 279 105 34
3 280 105 279
3 280 2 105
3 819 248 820
3 821 248 822
3 823 39 824
3 825 824 248
3 823 824 825
3 281 826 827
3 281 828 830
3 828 39 829
3 828 829 830
3 281 110 39
3 282 110 281
3 282 4 110
3 282 283 4
3 284 283 282
3 284 57 283
3 831 284 832
3 833 832 56
3 831 832 833
3 285 834 836
3 834 284 835
3 834 835 836
3 285 57 284
3 285 205 57
3 286 205 285
3 286 8 205
3 837 286 838
3 287 839 841
3 839 286 840
3 839 840 841
3 287 8 286
3 287 260 8
3 288 260 287
3 288 45 260
3 127 288 58
3 289 288 127
3 289 45 288
3 289 117 45
3 290 117 289
3 290 3 117
3 129 842 844
3 844 843 50
3 842 843 844
3 846 845 129
3 847 130 848
3 291 849 851
3 849 130 850
3 849 850 851
3 291 60 130
3 132 291 25
3 292 291 132
3 292 60 291
3 292 852 854
3 854 853 60
3 852 853 854
3 856 855 292
3 134 857 859
3 859 858 61
3 857 858 859
3 861 860 134
3 136 862 864
3 864 863 62
3 862 863 864
3 866 865 136
3 221 137 9
3 293 137 221
3 293 63 137
3 139 867 869
3 867 293 868
3 867 868 869
3 294 293 139
3 294 63 293
3 294 870 872
3 872 871 63
3 870 871 872
3 295 873 875
3 875 874 294
3 873 874 875
3 295 876 877
3 295 878 880
3 878 212 879
3 878 879 880
3 296 212 295
3 296 21 212
3 141 296 64
3 297 296 141
3 297 21 296
3 297 95 21
3 298 95 297
3 298 0 95
3 144 881 883
3 883 882 26
3 881 882 883
3 885 884 144
3 299 886 887
3 299 888 890
3 888 52 889
3 888 889 890
3 146 299 66
3 300 299 146
3 300 52 299
3 300 273 52
3 301 273 300
3 301 1 273
3 149 891 892
3 302 893 895
3 895 894 149
3 893 894 895
3 302 896 897
3 302 898 900
3 898 223 899
3 898 899 900
3 303 223 302
3 303 11 223
3 224 150 5
3 304 150 224
3 304 68 150
3 151 901 903
3 901 304 902
3 901 902 903
3 305 304 151
3 305 68 304
3 305 303 68
3 306 303 305
3 306 11 303
3 306 147 11
3 307 147 306
3 307 67 147
3 904 307 905
3 906 905 69
3 904 905 906
3 308 907 909
3 907 307 908
3 907 908 909
3 308 67 307
3 308 301 67
3 309 301 308
3 309 1 301
3 309 104 1
3 310 104 309
3 310 33 104
3 910 310 911
3 912 911 70
3 910 911 912
3 311 913 915
3 913 310 914
3 913 914 915
3 311 33 310
3 311 238 33
3 312 238 311
3 312 12 238
3 916 312 917
3 313 918 920
3 918 312 919
3 918 919 920
3 313 12 312
3 313 176 12
3 921 176 922
3 923 922 313
3 921 922 923
3 925 924 176
3 926 10 927
3 314 928 929
3 314 930 932
3 930 10 931
3 930 931 932
3 314 142 10
3 315 142 314
3 315 65 142
3 152 315 71
3 316 315 152
3 316 65 315
3 316 298 65
3 317 298 316
3 317 0 298
3 933 153 934
3 318 935 937
3 935 153 936
3 935 936 937
3 318 72 153
3 155 938 940
3 938 318 939
3 938 939 940
3 319 318 155
3 319 72 318
3 319 317 72
3 320 317 319
3 320 0 317
3 320 99 0
3 321 99 320
3 321 24 99
3 157 321 73
3 322 321 157
3 322 24 321
3 322 219 24
3 323 219 322
3 323 7 219
3 226 158 13
3 324 158 226
3 324 74 158
3 160 324 27
3 325 324 160
3 325 74 324
3 325 323 74
3 326 323 325
3 326 7 323
3 326 126 7
3 327 126 326
3 327 55 126
3 162 327 75
3 328 327 162
3 328 55 327
3 328 280 55
3 329 280 328
3 329 2 280
3 941 28 942
3 330 943 944
3 330 945 947
3 945 28 946
3 945 946 947
3 330 229 28
3 331 229 330
3 331 14 229
3 231 948 950
3 948 164 949
3 948 949 950
3 332 164 231
3 332 77 164
3 166 332 30
3 333 332 166
3 333 77 332
3 333 331 77
3 334 331 333
3 334 14 331
3 334 163 14
3 335 163 334
3 335 76 163
3 168 335 78
3 336 335 168
3 336 76 335
3 336 329 76
3 337 329 336
3 337 2 329
3 337 109 2
3 338 109 337
3 338 38 109
3 170 338 79
3 339 338 170
3 339 38 338
3 339 247 38
3 340 247 339
3 340 16 247
3 235 171 15
3 341 171 235
3 341 80 171
3 173 341 32
3 342 341 173
3 342 80 341
3 342 340 80
3 343 340 342
3 343 16 340
3 343 193 16
3 344 193 343
3 344 82 193
3 175 344 81
3 951 344 952
3 953 952 175
3 951 952 953
3 954 82 955
3 956 955 344
3 954 955 956
3 958 957 82
3 345 959 960
3 345 961 963
3 961 59 962
3 961 962 963
3 178 964 966
3 964 345 965
3 964 965 966
3 346 345 178
3 346 59 345
3 346 290 59
3 347 290 346
3 347 3 290
3 348 967 968
3 348 969 971
3 969 17 970
3 969 970 971
3 240 181 6
3 349 181 240
3 349 84 181
3 183 349 35
3 350 349 183
3 350 84 349
3 350 348 84
3 351 348 350
3 351 17 348
3 351 179 17
3 352 179 351
3 352 83 179
3 185 352 85
3 353 352 185
3 353 83 352
3 353 347 83
3 354 347 353
3 354 3 347
3 354 121 3
3 355 121 354
3 355 49 121
3 187 355 86
3 356 355 187
3 356 49 355
3 356 267 49
3 357 267 356
3 357 19 267
3 244 188 18
3 358 188 244
3 358 87 188
3 190 358 37
3 359 358 190
3 359 87 358
3 359 357 87
3 360 357 359
3 360 19 357
3 360 211 19
3 361 211 360
3 361 89 211
3 192 361 88
3 362 361 192
3 362 89 361
3 362 972 974
3 974 973 89
3 972 973 974
3 976 975 362
3 363 977 978
3 363 979 980
3 364 981 982
3 364 983 984
3 249 985 986
3 365 987 989
3 989 988 249
3 987 988 989
3 365 990 991
3 196 365 40
3 366 365 196
3 366 992 994
3 994 993 365
3 992 993 994
3 366 995 997
3 995 364 996
3 995 996 997
3 367 364 366
3 367 998 1000
3 1000 999 364
3 998 999 1000
3 367 1001 1003
3 1001 194 1002
3 1001 1002 1003
3 368 194 367
3 368 90 194
3 198 368 91
3 369 368 198
3 369 90 368
3 369 363 90
3 370 363 369
3 370 1004 1006
3 1006 1005 363
3 1004 1005 1006
3 370 1007 1008
3 371 1009 1011
3 1011 1010 370
3 1009 1010 1011
3 371 1012 1013
3 200 371 92
3 372 371 200
3 372 1014 1016
3 1016 1015 371
3 1014 1015 1016
3 372 1017 1018
3 373 1019 1021
3 1021 1020 372
3 1019 1020 1021
3 373 1022 1023
3 253 201 20
3 374 201 253
3 374 93 201
3 203 374 42
3 375 374 203
3 375 93 374
3 375 373 93
3 1024 373 1025
3 1026 1025 375
3 1024 1025 1026
3 1028 1027 373
3 283 116 4
3 376 116 283
3 376 44 116
3 206 376 57
3 377 376 206
3 377 44 376
3 377 259 44
3 378 259 377
3 378 1029 1031
3 1031 1030 259
3 1029 1030 1031
3 261 207 8
3 379 207 261
3 379 94 207
3 1032 379 1033
3 1034 1033 46
3 1032 1033 1034
3 1035 379 1036
3 1037 94 1038
3 1039 1038 379
3 1037 1038 1039
3 1040 378 1041
3 1042 1041 94
3 1040 1041 1042
3 1043 378 1044
3 1046 1045 378
3 209 1047 1049
3 1049 1048 48
3 1047 1048 1049
3 1051 1050 209
