ply
format ascii 1.0
element vertex 845
property float x
property float y
property float z
element face 930
property list uchar int vertex_index
end_header
-56.372734 -58.544769 50.801025
-66.69062 -57.017818 17.005142
-63.120995 -61.587036 37.316811
-43.988167 -62.895863 47.434593
-47.570267 -42.670341 48.502716
-63.518108 -47.897957 31.240265
-60.184853 -60.245617 46.474487
-51.03627 -60.906868 49.464764
-62.703194 -57.422855 9.48945
-64.020142 -50.350029 0.683265
-68.119522 -49.338448 7.818119
-59.11932 -66.94075 29.727039
-65.070038 -61.299072 27.080452
-52.481033 -51.332165 49.960815
-59.704243 -51.395832 49.852551
-56.059772 -42.279228 47.926651
-64.490814 -53.032997 44.206909
-65.698174 -55.170097 35.143204
-64.958023 -54.874928 25.195692
-58.996483 -47.820793 22.357529
-56.130814 -62.121929 49.662472
-57.87841 -63.510235 47.192154
-58.273586 -59.405781 49.493336
-54.071205 -59.690575 50.454288
-53.617943 -64.181747 49.423161
-65.268852 -57.135265 13.156497
-66.016922 -53.412476 8.533728
-67.489502 -53.41687 12.256681
-60.502502 -64.706207 38.444283
-61.55455 -64.704071 33.346054
-62.515511 -64.12191 28.2085
-64.190536 -61.810215 32.215405
-49.805656 -46.939514 48.781826
-54.012787 -46.708389 49.280499
-51.697372 -42.290276 48.138386
-43.909885 -43.541908 49.468414
-48.607845 -51.831539 48.946651
-62.526024 -52.045017 47.694038
-65.950912 -50.591415 38.000122
-65.038635 -51.634842 33.492805
-65.364182 -55.538822 30.221212
-63.648396 -51.998089 28.799236
-57.647255 -46.355511 17.639103
-61.710487 -49.565384 18.985971
-63.969345 -46.635719 -3.34318
-59.308525 -64.307449 43.244682
-61.7976 -60.990402 42.211311
-47.628677 -61.975304 48.293869
-60.42762 -58.409515 5.986139
-61.765038 -55.224854 1.504417
-63.562416 -53.941788 4.930567
-66.428078 -49.500683 4.227912
-59.798553 -65.528442 24.570393
-63.436756 -62.712727 23.093357
-65.873596 -59.72765 21.981937
-54.85593 -55.447693 50.87421
-57.800377 -55.387192 50.694778
-56.262386 -51.156418 50.495491
-58.139378 -46.802513 49.275806
-54.178123 -37.947601 47.154438
-51.536098 -56.068302 49.957664
-60.385139 -55.912052 48.893517
-62.495579 -56.710407 45.557098
-64.043327 -57.637207 41.189159
-65.512276 -54.186073 39.878616
-65.044815 -58.464699 36.322525
-65.613403 -58.809765 31.271404
-65.975426 -58.233406 26.163055
-66.392212 -56.443417 21.081524
-61.097977 -48.295609 26.900536
-62.397511 -51.349152 23.943785
-64.8601 -52.978268 20.146708
-67.001472 -53.472652 16.138891
-67.737213 -49.653091 11.456398
-62.634563 -51.786823 -2.71624
-56.290867 -60.148129 50.376442
-57.231644 -60.872608 49.626614
-57.262058 -58.956036 50.377106
-55.372849 -59.07365 50.732574
-55.14505 -61.070812 50.254097
-65.751213 -58.71685 17.489567
-66.186523 -57.095181 15.052882
-66.597641 -55.296871 12.67911
-67.099838 -55.303692 14.5961
-61.85284 -63.135822 37.846352
-61.042519 -64.763077 35.90934
-62.434242 -63.255844 35.304932
-62.974991 -63.255051 32.741013
-63.68483 -61.766167 34.776611
-48.581093 -44.769035 48.457123
-50.665985 -44.578537 48.514568
-49.586533 -42.425892 48.268173
-45.672108 -43.039429 48.89119
-44.708729 -45.476635 48.733906
-46.587715 -45.065056 48.511997
-47.770939 -47.185528 48.562069
-64.631561 -47.442345 33.351135
-65.189247 -49.326118 34.64336
-64.349754 -49.786697 32.440598
-64.363174 -51.925995 31.16711
-63.401657 -50.077881 30.195553
-55.494377 -44.819153 16.993864
-58.601761 -61.647137 5.048193
-59.022556 -61.921558 46.848824
-58.630196 -63.966194 45.367737
-59.820305 -62.318298 44.911583
-60.552296 -62.652233 42.71172
-61.029655 -60.629913 44.458817
-49.198463 -63.989853 48.650394
-50.851898 -63.364426 49.145012
-62.187878 -59.084755 11.888387
-60.813377 -59.398655 10.100142
-59.659378 -59.92017 8.352586
-61.43029 -57.807846 7.712549
-61.998371 -56.168858 5.408463
-63.171162 -55.701263 7.168692
-67.262405 -51.375427 8.158724
-66.275146 -51.465302 6.341395
-67.471085 -49.34008 6.019982
-67.571732 -47.294106 3.958569
-68.314423 -47.232906 5.723035
-58.812782 -67.407181 32.306412
-57.574638 -67.769287 28.059872
-59.443104 -66.318321 27.148487
-63.955669 -62.729008 27.604311
-62.977364 -63.533939 25.646458
-64.412735 -62.124676 25.044468
-64.860855 -61.255527 22.498486
-65.47374 -60.658653 24.522202
-53.743542 -53.456234 50.513988
-55.487122 -53.321121 50.787403
-54.397766 -51.196686 50.335823
-54.982895 -44.464352 48.679028
-56.110321 -46.714394 49.384682
-57.125763 -44.524025 48.620247
-59.181335 -44.661503 48.359013
-58.208946 -42.384605 47.689957
-52.112251 -37.990875 47.714508
-50.542046 -51.547779 49.466236
-50.095333 -53.98843 49.454338
-51.9384 -53.68882 50.0373
-53.238083 -55.718372 50.504944
-58.715637 -53.435043 50.374199
-59.141815 -55.602413 50.005325
-60.163078 -53.671982 49.578838
-63.62516 -52.503944 46.088623
-62.603329 -54.411293 46.819206
-63.557819 -54.884037 44.952911
-63.340778 -57.168144 43.465122
-64.323425 -55.399906 42.853668
-65.780334 -52.973793 36.736626
-65.857132 -52.406948 39.023064
-65.694626 -54.725719 37.543098
-65.303246 -56.427383 38.217175
-65.547974 -56.846283 35.776085
-65.371483 -58.725704 33.809441
-65.666786 -57.127411 33.291569
-65.142014 -55.355576 27.717484
-65.694489 -57.045113 28.245602
-65.696167 -56.585705 25.702656
-66.16375 -57.496689 23.612656
-65.744522 -55.81049 23.160635
-57.188744 -46.083107 21.505474
-59.971935 -48.177521 24.656128
-61.531609 -49.998798 25.568369
-60.757515 -49.577568 23.184277
-63.46701 -49.897987 17.111292
-63.4459 -51.2519 19.599279
-64.978577 -51.592381 17.653204
-66.069702 -53.333782 18.139055
-66.349739 -51.693802 15.694047
-67.364304 -51.642185 13.758503
-66.686615 -49.848503 13.315897
-62.861214 -52.77404 1.042043
-62.268284 -53.542358 -0.63028
-63.110767 -51.013786 -1.042498
-57.044411 -62.910248 48.640263
-58.155602 -61.447586 48.441597
-59.262276 -59.838264 48.176479
-52.610275 -60.311886 50.012794
-52.40139 -62.668964 49.607189
-53.8377 -61.904087 49.989906
-63.588177 -58.920475 13.710917
-64.050308 -57.219097 11.304655
-64.467239 -55.430088 8.97067
-65.673721 -55.315266 10.806807
-66.963928 -53.374043 10.37888
-67.837311 -51.412212 9.995836
-59.146561 -66.310852 39.133682
-59.603703 -66.310638 36.614548
-60.035789 -66.187866 34.05468
-60.453178 -65.928986 31.483126
-60.865051 -65.513603 28.912174
-62.043644 -64.501282 30.776123
-63.479687 -63.093437 30.171515
-64.647675 -61.670269 29.647301
-51.139252 -49.142212 49.334572
-53.173782 -49.001858 49.710339
-51.897301 -46.782536 49.049465
-52.812935 -44.480682 48.615364
-53.870056 -42.245934 48.049618
-49.122669 -49.361816 48.926273
-60.731342 -49.322598 49.116772
-61.210079 -51.672428 48.962357
-64.533997 -50.582203 45.175392
-65.832657 -48.74295 36.799591
-65.593262 -51.172291 35.773689
-65.511551 -53.43195 34.390152
-65.569382 -55.460339 32.698902
-65.1129 -53.724125 31.998497
-64.654434 -53.796719 29.568737
-64.206108 -53.605637 27.105366
-54.250656 -43.948601 18.587429
-56.224461 -45.573696 19.267191
-58.214722 -47.214714 20.0124
-60.155968 -48.887871 20.762522
-59.747189 -47.933064 18.320854
-61.620197 -48.27282 16.514484
-65.208557 -47.946468 0.411654
-64.058685 -48.514252 -1.35009
-58.098267 -65.947754 43.824097
-58.65078 -66.192352 41.561119
-59.927937 -64.552094 40.910156
-61.227203 -62.927521 40.33276
-62.493263 -61.316925 39.809669
-45.827072 -62.450043 47.795418
-45.630295 -65.052063 47.770889
-47.452118 -64.549377 48.174759
-52.191055 -65.055923 49.163265
-58.889153 -60.674362 6.662245
-59.846519 -59.22937 4.328435
-60.737831 -57.710304 2.07709
-61.141911 -56.845085 3.705462
-62.484386 -54.490456 3.187652
-63.851601 -52.157101 2.77204
-64.812897 -53.58836 6.716512
-65.063278 -51.71957 4.543263
-65.199203 -49.837997 2.445314
-66.460709 -47.532715 2.185753
-61.280693 -64.918869 26.34479
-61.708969 -64.12471 23.781719
-63.898987 -61.647148 20.555872
-65.306839 -60.114834 19.976027
-66.278946 -58.506386 19.47168
-55.759266 -57.211555 50.967381
-56.995094 -57.162827 50.83112
-56.374363 -55.323521 50.967262
-57.149986 -53.312218 50.764809
-58.042801 -51.222229 50.354694
-55.192673 -48.944126 49.959961
-57.155983 -48.974693 49.991768
-59.018372 -49.099373 49.728043
-60.042957 -46.978683 48.88343
-50.773502 -40.165794 48.013702
-52.878937 -40.080482 47.676079
-55.041862 -40.081879 47.37949
-56.294167 -37.985138 46.637238
-57.212498 -40.156441 47.054543
-49.775547 -56.457035 49.323574
-51.248581 -58.473495 49.752522
-52.871845 -57.996964 50.327393
-54.389008 -57.551704 50.76025
-58.174026 -57.398384 50.263645
-59.315754 -57.732121 49.255733
-60.38311 -58.10614 47.833801
-61.466644 -54.002399 48.38147
-61.508118 -56.286629 47.391075
-61.354446 -58.502281 46.053055
-62.222015 -58.91161 43.987541
-62.985558 -59.321243 41.716087
-63.648048 -59.708313 39.30941
-65.257355 -51.165092 43.291458
-66.048508 -49.946175 40.150581
-65.693466 -51.787254 41.222103
-65.117599 -53.606079 42.116234
-64.901779 -55.928215 40.589714
-64.60791 -58.084183 38.792618
-64.214447 -60.038105 36.822159
-64.692932 -60.265263 34.291
-65.096863 -60.337288 31.737675
-65.445549 -60.200043 29.174616
-65.70015 -57.211727 30.778238
-65.802917 -58.661163 28.719522
-65.762794 -59.804951 26.610683
-66.07309 -59.116806 24.055218
-66.396606 -58.120522 21.519844
-66.744705 -56.824593 19.018354
-61.149422 -46.286263 27.887943
-62.308384 -48.1936 29.092665
-62.43486 -50.159012 27.905865
-62.971756 -51.813618 26.390144
-63.828972 -53.121742 24.614639
-61.969891 -50.597214 21.470097
-63.567612 -52.334427 22.107273
-64.855438 -54.080704 22.667042
-65.865791 -54.719177 20.633848
-66.672363 -55.089806 18.584934
-67.117264 -55.259956 16.565498
-67.502815 -53.474194 14.175362
-67.88121 -51.522808 11.859791
-68.22773 -49.460136 9.627041
-68.517464 -47.332306 7.4808
-63.226707 -49.197289 -3.082842
-62.861275 -49.943352 -4.77129
-43.873213 -64.203322 47.462244
-43.064469 -63.110598 47.349518
-58.706761 -62.217499 4.284925
-59.182707 -60.940331 3.901692
-50.944084 -62.135647 49.304888
-50.11129 -62.413378 49.007995
-50.203476 -61.184599 49.167872
-58.247404 -67.686901 30.192192
-58.094135 -67.920117 31.481879
-58.966051 -67.173965 31.016725
-58.346979 -67.355018 28.893456
-57.475063 -68.101169 29.358608
-58.247404 -67.686901 30.192192
-58.680309 -47.090407 23.023971
-57.77644 -46.221564 22.597943
-58.092613 -46.95195 21.931501
-59.484209 -47.999157 23.506828
-59.168036 -47.268771 24.173271
-58.680309 -47.090407 23.023971
-65.089455 -50.776961 16.430005
-64.222793 -50.745184 17.382248
-64.333672 -49.929763 16.159049
-65.775036 -50.827671 15.450426
-65.664158 -51.643091 16.673625
-65.089455 -50.776961 16.430005
-65.943474 -49.905022 14.261351
-66.518177 -50.771152 14.504972
-65.775036 -50.827671 15.450426
-56.587612 -62.516089 49.151367
-56.469623 -63.569053 48.705908
-56.012825 -63.174894 49.217012
-55.530397 -62.665247 49.628601
-55.037515 -62.139688 49.924413
-55.637932 -61.59637 49.958285
-56.012825 -63.174894 49.217012
-55.530397 -62.665247 49.628601
-64.428515 -58.02787 13.433707
-64.206907 -58.873638 14.642181
-65.047245 -57.981033 14.364971
-43.436746 -44.774603 49.31588
-43.104128 -43.859144 49.862417
-44.341019 -46.723568 48.638742
-45.264059 -46.502128 48.598463
-61.489339 -49.484612 48.628031
-61.246588 -48.286581 48.640032
-64.482735 -49.339655 45.44911
-64.029518 -50.325884 45.993248
-65.692746 -47.804496 36.11317
-66.014283 -47.477428 37.128208
-53.805996 -43.62347 17.51746
-53.298221 -43.130974 18.311087
-61.652559 -47.509234 15.298638
-60.576051 -47.498707 16.199686
-62.618866 -48.289659 15.590626
-61.652559 -47.509234 15.298638
-65.148452 -46.99214 -0.579851
-65.786892 -46.754987 0.30763
-57.67301 -64.534468 46.513752
-57.30827 -64.253771 47.349818
-49.092433 -65.256645 48.57258
-49.922516 -64.912437 48.746234
-67.561752 -46.272257 2.962261
-67.98827 -46.206845 3.831952
-58.969657 -65.773209 23.712928
-58.810888 -66.246437 25.014899
-59.997661 -65.045738 23.281954
-58.969657 -65.773209 23.712928
-62.796515 -62.916063 22.159885
-61.932621 -63.622055 22.504065
-62.572862 -63.418718 23.437538
-63.667872 -62.179938 21.824615
-63.02763 -62.383274 20.891142
-62.796515 -62.916063 22.159885
-45.500416 -66.358609 47.828102
-46.425644 -66.090748 47.966284
-60.132156 -44.773035 48.095468
-59.715339 -43.61352 47.812468
-50.454122 -39.150413 48.191454
-49.767403 -40.261871 48.231909
-57.350502 -38.038735 46.368229
-56.941777 -36.965263 46.245514
-57.809668 -39.124386 46.576881
-56.753332 -39.07079 46.845891
-57.350502 -38.038735 46.368229
-58.269869 -40.22851 46.841115
-57.809668 -39.124386 46.576881
-48.422903 -53.083639 48.901777
-47.655008 -52.004389 48.71751
-65.549141 -50.226247 42.740246
-65.280365 -49.912261 43.678623
-65.99971 -50.268795 39.075351
-66.126312 -49.016407 39.522003
-66.077515 -49.339027 38.446773
-61.1237 -47.290936 27.394239
-60.428028 -46.353642 26.85202
-60.402306 -47.358315 26.358317
-68.462311 -46.36298 7.299159
-68.305405 -47.444325 8.361085
-68.623066 -46.252842 6.450351
-68.462311 -46.36298 7.299159
-61.643801 -55.66655 0.700194
-61.130198 -56.909275 0.986531
-61.251435 -56.467579 1.790754
-62.402948 -53.099975 -2.47437
-62.219808 -53.977743 -1.43139
-62.451424 -52.664591 -1.67326
-62.651899 -52.200037 -3.521928
-62.402948 -53.099975 -2.47437
-62.911751 -48.968443 -5.790072
-63.038983 -48.625017 -4.932778
-62.939936 -50.319042 -5.588596
-62.911751 -48.968443 -5.790072
-65.288426 -58.771826 16.531506
-65.057732 -59.530265 17.767136
-65.50608 -57.960991 15.313163
-65.288426 -58.771826 16.531506
-65.968868 -57.906015 16.271225
-65.727688 -57.115223 14.104689
-65.047245 -57.981033 14.364971
-65.50608 -57.960991 15.313163
-46.203552 -46.296339 48.487509
-45.264059 -46.502128 48.598463
-45.648222 -45.270846 48.622951
-47.179327 -46.125292 48.537033
-46.795164 -47.356575 48.512545
-46.203552 -46.296339 48.487509
-64.910404 -48.384231 33.997248
-65.37104 -48.09608 35.035055
-65.092197 -47.154194 34.388942
-55.250324 -44.315346 15.85425
-54.427857 -44.058746 16.720678
-56.395782 -45.032118 16.129662
-55.250324 -44.315346 15.85425
-57.472222 -45.800297 16.452281
-56.570816 -45.587332 17.316483
-56.395782 -45.032118 16.129662
-58.58958 -46.540053 16.761996
-57.472222 -45.800297 16.452281
-57.999672 -62.870184 5.446831
-57.401691 -63.53169 6.635237
-58.003781 -62.308644 6.2366
-57.999672 -62.870184 5.446831
-58.706761 -62.217499 4.284925
-49.284572 -62.726091 48.760686
-48.41357 -62.982579 48.472132
-48.499679 -61.718817 48.582424
-50.02518 -63.677139 48.897703
-49.284572 -62.726091 48.760686
-50.11129 -62.413378 49.007995
-50.749233 -64.599724 48.993544
-49.922516 -64.912437 48.746234
-50.02518 -63.677139 48.897703
-53.488551 -65.335941 49.117718
-54.146393 -64.799453 49.126297
-61.185795 -60.005398 12.225976
-61.92164 -59.871622 13.121402
-60.498545 -60.162348 11.331854
-61.185795 -60.005398 12.225976
-61.500628 -59.241705 10.994264
-59.846397 -60.386646 10.45137
-60.498545 -60.162348 11.331854
-60.236378 -59.659413 9.226364
-59.269397 -60.647404 9.577592
-59.846397 -60.386646 10.45137
-68.359616 -46.176244 4.714185
-67.98827 -46.206845 3.831952
-67.943078 -47.263506 4.840802
-58.007404 -68.181286 32.778637
-58.660206 -67.56762 33.593962
-58.007404 -68.181286 32.778637
-58.094135 -67.920117 31.481879
-56.668503 -68.534504 28.567634
-57.475063 -68.101169 29.358608
-56.72916 -68.118911 27.25181
-56.668503 -68.534504 28.567634
-57.698931 -67.36686 26.759639
-56.72916 -68.118911 27.25181
-58.633163 -66.641377 26.303947
-57.698931 -67.36686 26.759639
-58.508871 -67.043804 27.60418
-59.620829 -65.923382 25.85944
-58.810888 -66.246437 25.014899
-58.633163 -66.641377 26.303947
-59.229145 -42.475071 47.47794
-59.715339 -43.61352 47.812468
-58.69514 -43.523054 48.024485
-51.880171 -36.995604 47.992224
-51.123497 -38.062954 48.041857
-52.836714 -36.943037 47.551445
-51.880171 -36.995604 47.992224
-53.86965 -36.9214 47.27141
-53.145187 -37.969238 47.434473
-52.836714 -36.943037 47.551445
-56.975449 -45.315521 22.115907
-56.291073 -45.220505 21.095768
-56.975449 -45.315521 22.115907
-57.77644 -46.221564 22.597943
-59.839285 -47.299271 25.236112
-59.168036 -47.268771 24.173271
-60.534956 -48.236565 25.778332
-60.402306 -47.358315 26.358317
-59.839285 -47.299271 25.236112
-63.593018 -46.971201 -4.218723
-63.868408 -45.665249 -4.325479
-56.89127 -63.953778 48.073872
-56.469623 -63.569053 48.705908
-57.46141 -63.210242 47.916208
-57.30827 -64.253771 47.349818
-56.89127 -63.953778 48.073872
-54.38384 -62.556326 49.792318
-54.491375 -61.487449 50.122001
-55.037515 -62.139688 49.924413
-54.273962 -63.695156 49.508945
-53.727821 -63.042917 49.706533
-54.38384 -62.556326 49.792318
-54.146393 -64.799453 49.126297
-54.273962 -63.695156 49.508945
-63.346991 -59.707585 14.943897
-64.206907 -58.873638 14.642181
-62.62179 -59.789482 14.032667
-63.346991 -59.707585 14.943897
-62.888027 -59.002615 12.799652
-61.92164 -59.871622 13.121402
-62.62179 -59.789482 14.032667
-58.666737 -67.110039 38.283752
-58.489036 -67.130047 39.528996
-58.895308 -67.109932 37.024186
-58.666737 -67.110039 38.283752
-59.375132 -66.310745 37.874115
-59.055666 -67.019348 35.74803
-58.895308 -67.109932 37.024186
-59.271709 -66.957962 34.468096
-59.055666 -67.019348 35.74803
-59.819746 -66.249252 35.334614
-59.424285 -66.797523 33.180546
-58.660206 -67.56762 33.593962
-59.271709 -66.957962 34.468096
-43.836168 -45.741967 48.948625
-43.436746 -44.774603 49.31588
-44.309307 -44.509271 49.10116
-43.836168 -45.741967 48.948625
-44.341019 -46.723568 48.638742
-47.879797 -50.745981 48.759354
-47.655008 -52.004389 48.71751
-47.461344 -48.422975 48.567063
-46.795164 -47.356575 48.512545
-48.137209 -49.511119 48.749165
-47.461344 -48.422975 48.567063
-48.446804 -48.273672 48.744171
-48.865257 -50.596677 48.936462
-47.879797 -50.745981 48.759354
-48.137209 -49.511119 48.749165
-61.728708 -50.659527 48.550823
-60.97071 -50.497513 49.039564
-61.489339 -49.484612 48.628031
-62.38668 -50.845821 47.916664
-61.868051 -51.858722 48.328198
-61.728708 -50.659527 48.550823
-63.025532 -51.057291 47.252571
-62.38668 -50.845821 47.916664
-63.5751 -51.286755 46.449863
-63.075592 -52.27448 46.89133
-63.025532 -51.057291 47.252571
-64.079578 -51.543073 45.632008
-63.5751 -51.286755 46.449863
-64.029518 -50.325884 45.993248
-66.018387 -48.414794 37.846508
-66.014283 -47.477428 37.128208
-65.891784 -49.667182 37.399856
-66.077515 -49.339027 38.446773
-66.018387 -48.414794 37.846508
-65.510952 -49.034534 35.721475
-65.692746 -47.804496 36.11317
-65.37104 -48.09608 35.035055
-53.953074 -43.288395 19.27532
-53.298221 -43.130974 18.311087
-54.822029 -44.153252 19.636745
-53.953074 -43.288395 19.27532
-54.872517 -44.383877 17.790647
-53.805996 -43.62347 17.51746
-54.427857 -44.058746 16.720678
-55.808931 -44.9658 19.976627
-54.822029 -44.153252 19.636745
-55.237558 -44.761148 18.92731
-56.706603 -45.828401 20.386333
-56.291073 -45.220505 21.095768
-55.808931 -44.9658 19.976627
-59.639547 -47.328829 17.102871
-58.697222 -47.144288 17.979979
-58.58958 -46.540053 16.761996
-60.683693 -48.102942 17.417669
-59.639547 -47.328829 17.102871
-60.576051 -47.498707 16.199686
-63.542272 -49.102243 15.889031
-62.543604 -49.085403 16.812888
-62.618866 -48.289659 15.590626
-64.333672 -49.929763 16.159049
-63.542272 -49.102243 15.889031
-64.573516 -47.276032 -1.460723
-64.633621 -48.23036 -0.469218
-65.148452 -46.99214 -0.579851
-64.528847 -46.336765 -2.457268
-64.014015 -47.574985 -2.346635
-64.573516 -47.276032 -1.460723
-64.407944 -45.366421 -3.429715
-64.528847 -46.336765 -2.457268
-63.868408 -45.665249 -4.325479
-64.407944 -45.366421 -3.429715
-58.048902 -64.762448 45.601543
-57.67301 -64.534468 46.513752
-58.254303 -63.738214 46.279945
-57.782938 -65.753228 44.829724
-58.048902 -64.762448 45.601543
-58.364232 -64.956974 44.595917
-57.510277 -66.752212 44.136654
-57.782938 -65.753228 44.829724
-57.758503 -66.892872 43.057225
-57.510277 -66.752212 44.136654
-58.034759 -67.015171 41.925736
-57.758503 -66.892872 43.057225
-58.374523 -66.070053 42.692608
-58.241146 -67.070797 40.742714
-58.034759 -67.015171 41.925736
-58.89867 -66.251602 40.3474
-58.489036 -67.130047 39.528996
-58.241146 -67.070797 40.742714
-47.336556 -65.839405 48.168219
-46.425644 -66.090748 47.966284
-46.541207 -64.80072 47.972824
-48.219261 -65.536407 48.334762
-48.32529 -64.269615 48.412577
-49.092433 -65.256645 48.57258
-47.336556 -65.839405 48.168219
-48.219261 -65.536407 48.334762
-51.418812 -65.445472 49.00267
-50.749233 -64.599724 48.993544
-51.521476 -64.210175 49.154139
-52.775106 -65.773029 48.98777
-52.904499 -64.618835 49.293213
-53.488551 -65.335941 49.117718
-52.05989 -66.25341 48.945358
-52.775106 -65.773029 48.98777
-51.418812 -65.445472 49.00267
-52.05989 -66.25341 48.945358
-48.165785 -41.514145 48.476416
-47.218346 -41.673969 48.765375
-43.698959 -42.644547 50.088316
-43.104128 -43.859144 49.862417
-44.507396 -42.340667 49.62196
-43.698959 -42.644547 50.088316
-45.388508 -42.089428 49.333348
-44.790997 -43.290668 49.179802
-44.507396 -42.340667 49.62196
-46.269267 -41.858513 48.959612
-45.388508 -42.089428 49.333348
-47.218346 -41.673969 48.765375
-46.621188 -42.854885 48.696953
-46.269267 -41.858513 48.959612
-64.895653 -46.203619 33.627926
-65.092197 -47.154194 34.388942
-64.304039 -46.485462 32.636397
-64.895653 -46.203619 33.627926
-63.747312 -46.713268 31.580962
-64.074835 -47.670151 32.2957
-64.304039 -46.485462 32.636397
-58.786556 -60.986566 8.717887
-59.269397 -60.647404 9.577592
-58.401443 -61.363663 7.872717
-58.786556 -60.986566 8.717887
-59.274265 -60.297266 7.507416
-58.147476 -61.822256 7.043626
-58.401443 -61.363663 7.872717
-58.745457 -61.16075 5.855219
-58.003781 -62.308644 6.2366
-58.147476 -61.822256 7.043626
-59.805086 -59.731447 3.541812
-59.182707 -60.940331 3.901692
-59.22414 -60.438254 4.688314
-60.292175 -58.469837 3.202762
-60.250742 -58.971914 2.41614
-59.805086 -59.731447 3.541812
-66.412968 -46.548111 1.19468
-65.786892 -46.754987 0.30763
-65.834633 -47.739592 1.298704
-67.006241 -46.391562 2.075854
-67.016221 -47.41341 3.072161
-67.561752 -46.272257 2.962261
-66.412968 -46.548111 1.19468
-67.006241 -46.391562 2.075854
-60.95287 -64.343872 22.887617
-59.997661 -65.045738 23.281954
-60.753761 -64.826576 24.176056
-60.95287 -64.343872 22.887617
-61.932621 -63.622055 22.504065
-63.261431 -61.775612 19.621529
-63.02763 -62.383274 20.891142
-64.131619 -60.995414 19.300289
-63.261431 -61.775612 19.621529
-64.835544 -60.229258 19.010366
-64.131619 -60.995414 19.300289
-64.602913 -60.880991 20.265949
-65.529026 -59.415842 18.732797
-65.057732 -59.530265 17.767136
-64.835544 -60.229258 19.010366
-44.694277 -65.281421 47.630392
-43.873213 -64.203322 47.462244
-44.809231 -63.973963 47.602741
-44.694277 -65.281421 47.630392
-45.500416 -66.358609 47.828102
-60.902395 -47.114624 48.523361
-61.246588 -48.286581 48.640032
-60.387149 -48.15064 49.000101
-60.562967 -45.931625 48.357677
-59.612146 -45.820093 48.621221
-60.132156 -44.773035 48.095468
-60.902395 -47.114624 48.523361
-60.562967 -45.931625 48.357677
-49.173918 -41.39192 48.359144
-48.5784 -42.548116 48.385444
-48.165785 -41.514145 48.476416
-50.180018 -41.295843 48.140937
-49.173918 -41.39192 48.359144
-49.767403 -40.261871 48.231909
-51.442876 -39.078334 47.864105
-50.454122 -39.150413 48.191454
-51.123497 -38.062954 48.041857
-54.866508 -36.915136 46.87644
-53.86965 -36.9214 47.27141
-55.92453 -36.933904 46.61784
-56.941777 -36.965263 46.245514
-55.236145 -37.966369 46.895838
-54.866508 -36.915136 46.87644
-55.92453 -36.933904 46.61784
-58.768093 -41.342592 47.158822
-57.710722 -41.270523 47.37225
-58.269869 -40.22851 46.841115
-59.229145 -42.475071 47.47794
-58.768093 -41.342592 47.158822
-43.178633 -61.815973 47.376156
-43.064469 -63.110598 47.349518
-44.082847 -61.597441 47.478638
-43.178633 -61.815973 47.376156
-45.0023 -61.374531 47.65905
-44.907619 -62.672953 47.615005
-44.082847 -61.597441 47.478638
-45.910103 -61.155413 47.862726
-45.0023 -61.374531 47.65905
-46.810906 -60.918043 48.111952
-46.727874 -62.212674 48.044643
-45.910103 -61.155413 47.862726
-47.709435 -60.69393 48.387833
-46.810906 -60.918043 48.111952
-48.499679 -61.718817 48.582424
-47.709435 -60.69393 48.387833
-50.292137 -59.928202 49.288739
-50.203476 -61.184599 49.167872
-49.166647 -54.162084 49.15562
-48.422903 -53.083639 48.901777
-49.351589 -52.909985 49.200495
-49.006754 -55.396387 49.090238
-49.166647 -54.162084 49.15562
-49.93544 -55.222732 49.388956
-48.877245 -56.660902 49.005352
-49.006754 -55.396387 49.090238
-49.661776 -57.703285 49.218143
-48.877245 -56.660902 49.005352
-50.398292 -58.711515 49.432617
-49.661776 -57.703285 49.218143
-50.512064 -57.465265 49.538048
-51.142426 -59.690182 49.608643
-50.292137 -59.928202 49.288739
-50.398292 -58.711515 49.432617
-64.918686 -49.620817 44.62059
-64.482735 -49.339655 45.44911
-64.895676 -50.873648 44.233425
-64.918686 -49.620817 44.62059
-65.280365 -49.912261 43.678623
-66.147316 -48.676022 40.522535
-66.126312 -49.016407 39.522003
-65.944717 -49.616789 41.169808
-66.147316 -48.676022 40.522535
-65.767196 -50.537329 41.705568
-65.944717 -49.616789 41.169808
-65.870987 -50.866715 40.686342
-65.475411 -51.476173 42.25678
-65.549141 -50.226247 42.740246
-65.767196 -50.537329 41.705568
-63.06196 -46.938755 30.579428
-63.747312 -46.713268 31.580962
-60.560448 -45.325966 27.259559
-60.428028 -46.353642 26.85202
-61.403029 -45.163551 28.205385
-60.560448 -45.325966 27.259559
-61.877617 -46.132908 28.903267
-61.403029 -45.163551 28.205385
-62.457098 -47.086577 29.505628
-61.877617 -46.132908 28.903267
-61.728903 -47.239931 28.490304
-62.913246 -48.045778 30.166465
-63.06196 -46.938755 30.579428
-62.457098 -47.086577 29.505628
-66.094803 -48.989544 13.071727
-65.943474 -49.905022 14.261351
-66.870232 -48.848551 12.167548
-66.094803 -48.989544 13.071727
-67.395531 -48.750844 11.237799
-67.211914 -49.750797 12.386147
-66.870232 -48.848551 12.167548
-67.915279 -48.604717 10.348885
-67.395531 -48.750844 11.237799
-68.160538 -48.50824 9.434206
-67.982472 -49.556613 10.541719
-67.915279 -48.604717 10.348885
-68.372597 -48.396221 8.553921
-68.160538 -48.50824 9.434206
-68.305405 -47.444325 8.361085
-68.521546 -46.203142 5.571468
-68.415943 -47.282606 6.601918
-68.623066 -46.252842 6.450351
-68.359616 -46.176244 4.714185
-68.521546 -46.203142 5.571468
-60.788395 -58.21307 1.305724
-60.250742 -58.971914 2.41614
-60.788395 -58.21307 1.305724
-61.130198 -56.909275 0.986531
-61.895424 -54.825302 -0.367154
-61.643801 -55.66655 0.700194
-62.016661 -54.383606 0.437068
-61.895424 -54.825302 -0.367154
-62.219808 -53.977743 -1.43139
-63.221699 -48.251986 -4.088553
-63.598026 -47.916504 -3.213011
-63.593018 -46.971201 -4.218723
-63.043991 -49.57032 -3.927066
-63.221699 -48.251986 -4.088553
-63.038983 -48.625017 -4.932778
-62.765255 -51.278301 -4.549453
-62.651899 -52.200037 -3.521928
-62.747919 -50.865088 -3.743765
-62.765255 -51.278301 -4.549453
-62.939936 -50.319042 -5.588596
3 0 77 75
3 0 75 78
3 1 81 80
3 1 83 81
3 2 86 84
3 2 88 86
3 3 304 305
3 4 91 89
3 4 94 92
3 4 89 94
3 5 98 96
3 5 100 98
3 307 306 102
3 6 105 103
3 6 107 105
3 7 308 310
3 308 109 309
3 308 309 310
3 8 111 110
3 8 113 111
3 8 115 113
3 10 118 116
3 10 120 118
3 11 311 313
3 313 312 121
3 311 312 313
3 11 314 316
3 314 122 315
3 314 315 316
3 11 123 122
3 12 126 124
3 12 128 126
3 13 131 129
3 15 134 132
3 15 136 134
3 13 140 138
3 13 129 140
3 14 144 142
3 16 147 145
3 16 149 147
3 17 152 150
3 17 154 152
3 17 156 154
3 18 159 157
3 18 161 159
3 19 317 319
3 319 318 162
3 317 318 319
3 19 320 322
3 320 163 321
3 320 321 322
3 19 165 163
3 323 168 324
3 325 324 166
3 323 324 325
3 326 170 327
3 328 327 168
3 326 327 328
3 329 172 330
3 331 330 170
3 329 330 331
3 9 175 173
3 20 332 334
3 332 176 333
3 332 333 334
3 22 177 76
3 22 178 177
3 23 181 179
3 20 335 337
3 337 336 79
3 335 336 337
3 20 338 339
3 25 340 342
3 340 182 341
3 340 341 342
3 25 183 182
3 25 185 183
3 27 186 82
3 27 187 186
3 28 189 188
3 29 190 85
3 29 191 190
3 29 193 191
3 31 194 87
3 31 195 194
3 32 198 196
3 34 199 90
3 34 200 199
3 35 343 344
3 346 345 93
3 32 201 95
3 32 196 201
3 348 347 202
3 349 204 350
3 351 205 352
3 39 206 97
3 39 207 206
3 39 209 207
3 41 210 99
3 41 211 210
3 353 212 354
3 42 213 101
3 42 214 213
3 42 216 214
3 355 217 356
3 358 357 217
3 360 359 218
3 21 361 362
3 45 220 104
3 45 221 220
3 45 222 221
3 46 223 106
3 46 224 223
3 47 227 225
3 364 363 108
3 24 228 180
3 48 229 112
3 48 230 229
3 48 232 230
3 50 233 114
3 50 234 233
3 26 235 184
3 51 236 117
3 51 237 236
3 51 238 237
3 366 365 119
3 52 367 368
3 52 369 370
3 30 239 192
3 53 240 125
3 53 371 373
3 373 372 240
3 371 372 373
3 53 374 376
3 374 241 375
3 374 375 376
3 54 242 127
3 54 243 242
3 378 377 226
3 55 246 244
3 57 247 130
3 57 248 247
3 33 249 197
3 58 250 133
3 58 251 250
3 58 252 251
3 380 379 135
3 381 253 382
3 59 254 137
3 59 255 254
3 383 256 384
3 385 257 386
3 387 386 256
3 385 386 387
3 389 388 257
3 36 390 391
3 60 258 139
3 60 259 258
3 60 260 259
3 55 261 141
3 55 244 261
3 56 262 245
3 61 263 143
3 61 264 263
3 37 265 203
3 62 266 146
3 62 267 266
3 62 268 267
3 63 269 148
3 63 270 269
3 392 271 393
3 38 394 396
3 394 272 395
3 394 395 396
3 64 273 151
3 64 274 273
3 64 275 274
3 65 276 153
3 65 277 276
3 65 278 277
3 66 279 155
3 66 280 279
3 40 281 208
3 67 282 158
3 67 283 282
3 67 284 283
3 68 285 160
3 68 286 285
3 69 397 399
3 397 287 398
3 397 398 399
3 69 288 287
3 69 289 288
3 70 290 164
3 70 291 290
3 43 292 215
3 71 293 167
3 71 294 293
3 71 295 294
3 72 296 169
3 72 297 296
3 72 298 297
3 73 299 171
3 73 300 299
3 400 301 401
3 403 402 301
3 49 404 406
3 406 405 231
3 404 405 406
3 74 407 409
3 409 408 174
3 407 408 409
3 74 410 411
3 44 302 219
3 412 303 413
3 415 414 303
3 75 76 20
3 77 76 75
3 77 22 76
3 78 79 23
3 75 79 78
3 75 20 79
3 80 416 417
3 81 418 420
3 420 419 80
3 418 419 420
3 81 421 423
3 421 25 422
3 421 422 423
3 81 82 25
3 83 82 81
3 83 27 82
3 84 85 28
3 86 85 84
3 86 29 85
3 86 87 29
3 88 87 86
3 88 31 87
3 89 90 32
3 91 90 89
3 91 34 90
3 92 93 35
3 94 93 92
3 94 424 426
3 426 425 93
3 424 425 426
3 94 427 429
3 427 95 428
3 427 428 429
3 89 95 94
3 89 32 95
3 96 430 432
3 430 97 431
3 430 431 432
3 98 97 96
3 98 39 97
3 98 99 39
3 100 99 98
3 100 41 99
3 433 101 434
3 435 101 436
3 437 42 438
3 439 438 101
3 437 438 439
3 441 440 42
3 102 442 444
3 442 443 444
3 446 445 102
3 103 104 21
3 105 104 103
3 105 45 104
3 105 106 45
3 107 106 105
3 107 46 106
3 447 108 448
3 449 448 47
3 447 448 449
3 109 450 452
3 450 108 451
3 450 451 452
3 109 453 455
3 455 454 108
3 453 454 455
3 457 456 24
3 110 458 459
3 111 460 462
3 462 461 110
3 460 461 462
3 111 463 464
3 111 465 467
3 465 112 466
3 465 466 467
3 113 112 111
3 113 48 112
3 113 114 48
3 115 114 113
3 115 50 114
3 116 117 26
3 118 117 116
3 118 51 117
3 118 119 51
3 120 119 118
3 120 468 470
3 470 469 119
3 468 469 470
3 121 471 472
3 474 473 121
3 122 475 476
3 122 477 478
3 122 479 480
3 123 481 483
3 483 482 122
3 481 482 483
3 123 484 486
3 484 52 485
3 484 485 486
3 124 125 30
3 126 125 124
3 126 53 125
3 126 127 53
3 128 127 126
3 128 54 127
3 129 130 55
3 131 130 129
3 131 57 130
3 132 133 33
3 134 133 132
3 134 58 133
3 134 135 58
3 136 135 134
3 136 487 489
3 489 488 135
3 487 488 489
3 490 137 491
3 492 137 493
3 494 59 495
3 496 495 137
3 494 495 496
3 138 139 36
3 140 139 138
3 140 60 139
3 140 141 60
3 129 141 140
3 129 55 141
3 142 143 56
3 144 143 142
3 144 61 143
3 145 146 37
3 147 146 145
3 147 62 146
3 147 148 62
3 149 148 147
3 149 63 148
3 150 151 38
3 152 151 150
3 152 64 151
3 152 153 64
3 154 153 152
3 154 65 153
3 154 155 65
3 156 155 154
3 156 66 155
3 157 158 40
3 159 158 157
3 159 67 158
3 159 160 67
3 161 160 159
3 161 68 160
3 162 497 498
3 500 499 162
3 163 501 502
3 163 503 505
3 503 69 504
3 503 504 505
3 163 164 69
3 165 164 163
3 165 70 164
3 166 167 43
3 168 167 166
3 168 71 167
3 168 169 71
3 170 169 168
3 170 72 169
3 170 171 72
3 172 171 170
3 172 73 171
3 173 174 49
3 175 174 173
3 175 74 174
3 507 506 44
3 176 508 509
3 176 510 512
3 510 21 511
3 510 511 512
3 76 176 20
3 177 176 76
3 177 21 176
3 177 103 21
3 178 103 177
3 178 6 103
3 179 180 7
3 181 180 179
3 181 24 180
3 79 181 23
3 513 181 514
3 515 514 79
3 513 514 515
3 516 24 517
3 518 517 181
3 516 517 518
3 520 519 24
3 182 521 522
3 182 523 524
3 182 525 527
3 525 110 526
3 525 526 527
3 183 110 182
3 183 8 110
3 183 184 8
3 185 184 183
3 185 26 184
3 82 185 25
3 186 185 82
3 186 26 185
3 186 116 26
3 187 116 186
3 187 10 116
3 188 528 529
3 189 530 532
3 532 531 188
3 530 531 532
3 189 533 534
3 85 189 28
3 190 189 85
3 190 535 537
3 537 536 189
3 535 536 537
3 190 538 540
3 538 121 539
3 538 539 540
3 191 121 190
3 191 11 121
3 191 192 11
3 193 192 191
3 193 30 192
3 87 193 29
3 194 193 87
3 194 30 193
3 194 124 30
3 195 124 194
3 195 12 124
3 196 197 13
3 198 197 196
3 198 33 197
3 90 198 32
3 199 198 90
3 199 33 198
3 199 132 33
3 200 132 199
3 200 15 132
3 93 541 543
3 543 542 35
3 541 542 543
3 545 544 93
3 546 36 547
3 95 548 549
3 201 550 552
3 552 551 95
3 550 551 552
3 201 553 555
3 553 36 554
3 553 554 555
3 201 138 36
3 196 138 201
3 196 13 138
3 202 203 14
3 556 203 557
3 558 557 202
3 556 557 558
3 559 37 560
3 561 560 203
3 559 560 561
3 562 37 563
3 564 145 565
3 566 565 37
3 564 565 566
3 204 567 569
3 567 145 568
3 567 568 569
3 204 16 145
3 205 570 571
3 205 572 574
3 572 38 573
3 572 573 574
3 97 575 577
3 575 205 576
3 575 576 577
3 206 205 97
3 206 38 205
3 206 150 38
3 207 150 206
3 207 17 150
3 207 208 17
3 209 208 207
3 209 40 208
3 99 209 39
3 210 209 99
3 210 40 209
3 210 157 40
3 211 157 210
3 211 18 157
3 212 578 579
3 212 580 581
3 101 582 584
3 582 212 583
3 582 583 584
3 213 212 101
3 213 585 587
3 587 586 212
3 585 586 587
3 213 588 590
3 588 162 589
3 588 589 590
3 214 162 213
3 214 19 162
3 214 215 19
3 216 215 214
3 216 43 215
3 591 216 592
3 593 592 42
3 591 592 593
3 217 594 596
3 594 216 595
3 594 595 596
3 217 43 216
3 217 166 43
3 597 166 598
3 599 598 217
3 597 598 599
3 601 600 166
3 218 219 9
3 602 219 603
3 604 603 218
3 602 603 604
3 605 44 606
3 607 606 219
3 605 606 607
3 608 44 609
3 611 610 44
3 104 612 614
3 614 613 21
3 612 613 614
3 220 615 617
3 617 616 104
3 615 616 617
3 220 618 619
3 220 620 621
3 221 622 624
3 624 623 220
3 622 623 624
3 221 625 626
3 221 627 629
3 627 188 628
3 627 628 629
3 222 188 221
3 222 28 188
3 106 222 45
3 223 222 106
3 223 28 222
3 223 84 28
3 224 84 223
3 224 2 84
3 225 226 3
3 227 226 225
3 227 630 632
3 632 631 226
3 630 631 632
3 108 227 47
3 633 227 634
3 635 634 108
3 633 634 635
3 637 636 227
3 180 109 7
3 228 109 180
3 228 638 640
3 640 639 109
3 638 639 640
3 641 228 642
3 643 642 24
3 641 642 643
3 644 228 645
3 647 646 228
3 649 648 4
3 650 35 651
3 652 35 653
3 654 92 655
3 656 655 35
3 654 655 656
3 657 92 658
3 659 4 660
3 661 660 92
3 659 660 661
3 662 96 663
3 664 96 665
3 666 5 667
3 668 667 96
3 666 667 668
3 112 669 670
3 229 671 673
3 673 672 112
3 671 672 673
3 229 674 675
3 229 676 678
3 676 102 677
3 676 677 678
3 230 102 229
3 230 679 681
3 681 680 102
3 679 680 681
3 230 682 684
3 682 231 683
3 682 683 684
3 232 231 230
3 232 49 231
3 114 232 48
3 233 232 114
3 233 49 232
3 233 173 49
3 234 173 233
3 234 9 173
3 184 115 8
3 235 115 184
3 235 50 115
3 117 235 26
3 236 235 117
3 236 50 235
3 236 234 50
3 237 234 236
3 237 9 234
3 237 218 9
3 238 218 237
3 238 685 687
3 687 686 218
3 685 686 687
3 119 238 51
3 688 238 689
3 690 689 119
3 688 689 690
3 692 691 238
3 192 123 11
3 239 123 192
3 239 52 123
3 125 239 30
3 240 239 125
3 240 52 239
3 240 693 695
3 695 694 52
3 693 694 695
3 697 696 240
3 241 698 699
3 241 700 701
3 127 241 53
3 242 241 127
3 242 702 704
3 704 703 241
3 702 703 704
3 242 705 707
3 705 80 706
3 705 706 707
3 243 80 242
3 243 1 80
3 226 708 710
3 710 709 3
3 708 709 710
3 712 711 226
3 244 245 0
3 246 245 244
3 246 56 245
3 130 246 55
3 247 246 130
3 247 56 246
3 247 142 56
3 248 142 247
3 248 14 142
3 197 131 13
3 249 131 197
3 249 57 131
3 133 249 33
3 250 249 133
3 250 57 249
3 250 248 57
3 251 248 250
3 251 14 248
3 251 202 14
3 252 202 251
3 252 713 715
3 715 714 202
3 713 714 715
3 135 252 58
3 716 252 717
3 718 717 135
3 716 717 718
3 720 719 252
3 721 91 722
3 723 722 4
3 721 722 723
3 253 724 726
3 724 91 725
3 724 725 726
3 253 34 91
3 137 727 729
3 727 253 728
3 727 728 729
3 254 253 137
3 254 34 253
3 254 200 34
3 255 200 254
3 255 15 200
3 730 59 731
3 256 732 733
3 256 734 736
3 734 59 735
3 734 735 736
3 256 255 59
3 257 255 256
3 257 15 255
3 257 136 15
3 737 136 738
3 739 738 257
3 737 738 739
3 741 740 136
3 742 3 743
3 744 3 745
3 746 225 747
3 748 747 3
3 746 747 748
3 749 225 750
3 751 47 752
3 753 752 225
3 751 752 753
3 754 47 755
3 757 756 47
3 758 7 759
3 139 760 762
3 762 761 36
3 760 761 762
3 258 763 765
3 765 764 139
3 763 764 765
3 258 766 767
3 258 768 769
3 259 770 772
3 772 771 258
3 770 771 772
3 259 773 775
3 773 7 774
3 773 774 775
3 259 179 7
3 260 179 259
3 260 23 179
3 141 260 60
3 261 260 141
3 261 23 260
3 261 78 23
3 244 78 261
3 244 0 78
3 245 77 0
3 262 77 245
3 262 22 77
3 143 262 56
3 263 262 143
3 263 22 262
3 263 178 22
3 264 178 263
3 264 6 178
3 203 144 14
3 265 144 203
3 265 61 144
3 146 265 37
3 266 265 146
3 266 61 265
3 266 264 61
3 267 264 266
3 267 6 264
3 267 107 6
3 268 107 267
3 268 46 107
3 148 268 62
3 269 268 148
3 269 46 268
3 269 224 46
3 270 224 269
3 270 2 224
3 776 204 777
3 271 778 780
3 778 204 779
3 778 779 780
3 271 16 204
3 272 781 782
3 272 783 784
3 151 272 38
3 273 272 151
3 273 785 787
3 787 786 272
3 785 786 787
3 273 788 790
3 788 271 789
3 788 789 790
3 274 271 273
3 274 16 271
3 274 149 16
3 275 149 274
3 275 63 149
3 153 275 64
3 276 275 153
3 276 63 275
3 276 270 63
3 277 270 276
3 277 2 270
3 277 88 2
3 278 88 277
3 278 31 88
3 155 278 65
3 279 278 155
3 279 31 278
3 279 195 31
3 280 195 279
3 280 12 195
3 208 156 17
3 281 156 208
3 281 66 156
3 158 281 40
3 282 281 158
3 282 66 281
3 282 280 66
3 283 280 282
3 283 12 280
3 283 128 12
3 284 128 283
3 284 54 128
3 160 284 67
3 285 284 160
3 285 54 284
3 285 243 54
3 286 243 285
3 286 1 243
3 791 5 792
3 287 793 794
3 287 795 796
3 287 797 798
3 288 799 801
3 801 800 287
3 799 800 801
3 288 802 804
3 802 5 803
3 802 803 804
3 288 100 5
3 289 100 288
3 289 41 100
3 164 289 69
3 290 289 164
3 290 41 289
3 290 211 41
3 291 211 290
3 291 18 211
3 215 165 19
3 292 165 215
3 292 70 165
3 167 292 43
3 293 292 167
3 293 70 292
3 293 291 70
3 294 291 293
3 294 18 291
3 294 161 18
3 295 161 294
3 295 68 161
3 169 295 71
3 296 295 169
3 296 68 295
3 296 286 68
3 297 286 296
3 297 1 286
3 297 83 1
3 298 83 297
3 298 27 83
3 171 298 72
3 299 298 171
3 299 27 298
3 299 187 27
3 300 187 299
3 300 10 187
3 805 172 806
3 807 172 808
3 809 73 810
3 811 810 172
3 809 810 811
3 812 73 813
3 814 300 815
3 816 815 73
3 814 815 816
3 301 817 819
3 817 300 818
3 817 818 819
3 301 10 300
3 301 120 10
3 820 120 821
3 822 821 301
3 820 821 822
3 824 823 120
3 231 825 826
3 828 827 231
3 174 829 831
3 831 830 49
3 829 830 831
3 833 832 174
3 219 175 9
3 302 175 219
3 302 74 175
3 834 302 835
3 836 835 44
3 834 835 836
3 303 837 839
3 837 302 838
3 837 838 839
3 303 74 302
3 303 840 842
3 842 841 74
3 840 841 842
3 844 843 303
