ply
format ascii 1.0
element vertex 584
property float x
property float y
property float z
element face 644
property list uchar int vertex_index
end_header
-40.031567 -81.838455 -26.799374
-54.715004 -74.522293 -20.293007
-23.661964 -83.095268 -19.847324
-19.21566 -99.265472 -19.868938
-30.947779 -84.855484 -24.225933
-31.975267 -68.749191 -26.407295
-39.472492 -94.853226 -23.750153
-47.07209 -88.847717 -18.941364
-47.610806 -77.6539 -24.318581
-11.945801 -94.064972 -16.163206
-18.462151 -77.27034 -16.544888
-35.159283 -90.920837 -25.160561
-30.196171 -92.376205 -23.739368
-35.521255 -83.761017 -26.091106
-35.563919 -76.195786 -27.249119
-39.325001 -100.139297 -22.292507
-53.947174 -79.346909 -16.732754
-50.152321 -85.998672 -16.104721
-50.679985 -81.398247 -19.075371
-47.291183 -83.672485 -21.511875
-51.128731 -75.976105 -22.274342
-21.397661 -91.41449 -19.633263
-15.198649 -97.188705 -18.042255
-18.035791 -89.003616 -17.863605
-15.212479 -85.777084 -16.17296
-20.966682 -80.512573 -18.066074
-23.636612 -71.911316 -18.747463
-25.840214 -74.557419 -20.540146
-58.142891 -73.043076 -18.183308
-23.998787 -99.972107 -21.822338
-25.467003 -92.60788 -21.659409
-26.914326 -84.654984 -21.947292
-28.271656 -76.348091 -22.728172
-31.487801 -76.922028 -25.116806
-35.39999 -68.411499 -28.653664
-34.650402 -97.434921 -24.422703
-39.771881 -88.699387 -25.209599
-43.496815 -96.714951 -19.612328
-43.570206 -91.882935 -21.696682
-43.75388 -86.169388 -23.794907
-44.033661 -79.662048 -26.066391
-51.555832 -69.783859 -25.767029
-47.922935 -70.975952 -27.338482
-11.016287 -77.515366 -13.116955
-12.791567 -104.769394 -18.486515
-9.127411 -101.906906 -16.382601
-6.418612 -98.096222 -13.90583
-9.431906 -90.209839 -14.074911
-12.827229 -81.953323 -14.510761
-16.028145 -73.460526 -15.349876
-21.178299 -68.668358 -17.469349
-29.585985 -67.878853 -23.967854
-37.712433 -86.438629 -25.983738
-35.375107 -87.406815 -25.598793
-37.822708 -82.866028 -26.624626
-37.84573 -79.192642 -27.301949
-40.058147 -78.229797 -27.633671
-36.831028 -104.118454 -22.554985
-39.286163 -102.4431 -21.455284
-54.363419 -77.036385 -18.480682
-52.338844 -80.351471 -17.900181
-52.645798 -77.898155 -19.552074
-50.905258 -78.792053 -20.635921
-52.921951 -75.236176 -21.277493
-22.531403 -87.29599 -19.681011
-19.63727 -90.33577 -18.724461
-20.956154 -86.151169 -18.767639
-19.51033 -84.781219 -17.912647
-22.269411 -81.904335 -18.921143
-23.54583 -77.620796 -19.190681
-24.7714 -78.841446 -20.13303
-57.588253 -75.314026 -16.191601
-26.617411 -99.785416 -22.771935
-30.599514 -88.680603 -23.934612
-27.767258 -92.66684 -22.728737
-28.321335 -88.862732 -22.853325
-26.202156 -88.68985 -21.741814
-28.836048 -84.93277 -23.091259
-29.311392 -80.904709 -23.446751
-31.2388 -80.928047 -24.619358
-35.490253 -72.323715 -27.920422
-36.998642 -99.072693 -23.759872
-34.429596 -100.390793 -24.088943
-37.1488 -96.213943 -24.285053
-37.338161 -93.142319 -24.817989
-39.60944 -91.878464 -24.465717
-48.659538 -87.390015 -17.512241
-45.325981 -92.755142 -19.210308
-43.531784 -94.407593 -20.672905
-45.382095 -90.354828 -20.359074
-47.439331 -80.762245 -22.881458
-45.556087 -84.900833 -22.711308
-45.696404 -81.853531 -23.96452
-43.895016 -83.001541 -24.909496
-45.852413 -78.620193 -25.272873
-8.896204 -79.213379 -11.840982
-9.401962 -81.665268 -12.529955
-18.232784 -102.927246 -20.118542
-14.971439 -105.745407 -19.457043
-15.970545 -102.167236 -19.17775
-13.480274 -95.733948 -17.126724
-12.081499 -99.690979 -17.281425
-10.454199 -98.061172 -16.254356
-7.649706 -100.10199 -15.190378
-9.03886 -96.225449 -15.144402
-7.844555 -94.212173 -13.965479
-10.59351 -92.217194 -15.139482
-16.871246 -81.542343 -16.304024
-13.962676 -83.938278 -15.327538
-15.643669 -79.709793 -15.553829
-14.488407 -77.729675 -14.869843
-17.227646 -75.439514 -15.89772
-18.647232 -71.142624 -16.386724
-19.918629 -72.973427 -16.923134
-25.834839 -69.015579 -20.127132
-30.206568 -72.649048 -24.500435
-28.932865 -72.123535 -23.293667
-30.666424 -68.461472 -25.183609
-32.355057 -95.214966 -24.352226
-29.757231 -95.914383 -23.629997
-32.686714 -91.775452 -24.585583
-32.977104 -88.176712 -24.885605
-33.201229 -84.447495 -25.260361
-33.351509 -80.616325 -25.715496
-35.582485 -80.014923 -26.64019
-36.896744 -101.709213 -23.201843
-39.379051 -97.608826 -23.039459
-51.549416 -84.678452 -14.716908
-51.980835 -82.604782 -16.300243
-50.43755 -83.795654 -17.575947
-48.832497 -85.050049 -18.878941
-47.173286 -86.368134 -20.205914
-48.994518 -82.502991 -20.282757
-49.168167 -79.741943 -21.751926
-49.359192 -76.774651 -23.296913
-20.282694 -95.416443 -19.699833
-17.108294 -98.38208 -18.944016
-18.343372 -94.425339 -18.786545
-16.584877 -93.151459 -17.910057
-14.991791 -91.647797 -17.034393
-13.550535 -89.959167 -16.131052
-16.567612 -87.471222 -17.019619
-18.157425 -83.235168 -17.094177
-19.707287 -78.961372 -17.272892
-21.158764 -74.664566 -17.577705
-22.359224 -76.217712 -18.337429
-24.749123 -73.319321 -19.586964
-26.841208 -70.261642 -21.075207
-33.659161 -64.68309 -28.360817
-32.269176 -64.615685 -27.181255
-56.022202 -76.181183 -17.377365
-56.468887 -73.800034 -19.279011
-21.518559 -99.801208 -20.834606
-27.189583 -96.316467 -22.707329
-24.723492 -96.378326 -21.69175
-22.411617 -96.077179 -20.671844
-23.338509 -92.185349 -20.613052
-24.272194 -88.15863 -20.672649
-25.196093 -84.030197 -20.856441
-26.10239 -79.830215 -21.164139
-27.601736 -80.532532 -22.277302
-29.761152 -76.803146 -23.91848
-31.722721 -72.856873 -25.71537
-33.439999 -76.707626 -26.254837
-33.495552 -72.740128 -26.879086
-33.556412 -68.727821 -27.584175
-32.017845 -98.470123 -24.171772
-34.90498 -94.272171 -24.772121
-37.538757 -89.875107 -25.381481
-39.925617 -85.341263 -25.988773
-41.487617 -100.659058 -20.062416
-41.525909 -98.459702 -21.066402
-41.555149 -96.039764 -21.981678
-41.608982 -93.395737 -22.860226
-45.451515 -87.737854 -21.514847
-43.641117 -89.135513 -22.727627
-41.705147 -90.528519 -23.744316
-41.838745 -87.448486 -24.659527
-41.984032 -84.177872 -25.613697
-42.103577 -80.750168 -26.601097
-58.585205 -70.574875 -20.228634
-56.834602 -71.215263 -21.244831
-55.017147 -71.802162 -22.178589
-53.176506 -72.370636 -23.081158
-51.350151 -72.964233 -23.989826
-49.555695 -73.623817 -24.911022
-49.734367 -70.324631 -26.574833
-47.782143 -74.378143 -25.811497
-45.991653 -75.237541 -26.621605
-44.132774 -76.191071 -27.250572
-42.160851 -77.206116 -27.609272
-8.66301 -76.640518 -11.287857
-10.420628 -75.075783 -12.587589
-12.546535 -73.306061 -13.79302
-9.806774 -107.048523 -17.667385
-13.919641 -101.074829 -18.24361
-10.842545 -103.476364 -17.473969
-8.011387 -105.558121 -16.514189
-6.890907 -92.03775 -12.764233
-8.481552 -88.048782 -13.01734
-12.256163 -88.112915 -15.195356
-11.116673 -86.117493 -14.25165
-10.154194 -83.969421 -13.346045
-11.832222 -79.813156 -13.762356
-13.439915 -75.593307 -14.27903
-14.91226 -71.332237 -14.908476
-17.386997 -69.17041 -15.971323
-19.848669 -66.845757 -17.045887
-22.450804 -70.357986 -18.037155
-26.986876 -75.584007 -21.592793
-27.841333 -71.312576 -22.1404
-28.6457 -67.035187 -22.808613
-39.256954 -103.480415 -20.963265
-38.029936 -104.368759 -21.605886
-27.96618 -99.527817 -23.181151
-26.35222 -101.419136 -22.834043
-47.015034 -89.985031 -18.31069
-47.808757 -89.25618 -17.596128
-47.865814 -88.118866 -18.226802
-46.199036 -90.80143 -19.075836
-46.141979 -91.938744 -18.445162
-47.015034 -89.985031 -18.31069
-8.587593 -83.700271 -12.27949
-8.371582 -82.470719 -11.848448
-26.292908 -66.871529 -20.479694
-26.785032 -67.493782 -20.938602
-37.811442 -77.32151 -27.658535
-38.918135 -76.872558 -27.89362
-52.964005 -80.975845 -16.516498
-52.713496 -82.036598 -15.662601
-53.696665 -80.407661 -15.878857
-33.742733 -62.651877 -28.778486
-34.49579 -62.591438 -29.320051
-22.346731 -101.650253 -21.449571
-23.66359 -101.668556 -21.923731
-22.758673 -99.886657 -21.328472
-21.106617 -101.564804 -20.955706
-22.346731 -101.650253 -21.449571
-35.367874 -66.439453 -29.048544
-34.446085 -66.597614 -28.513799
-34.478201 -68.56966 -28.118919
-33.181083 -99.478653 -24.221184
-33.07068 -100.956589 -24.054304
-34.539999 -98.912857 -24.255823
-33.334124 -97.952522 -24.297238
-31.864805 -99.996254 -24.095719
-33.181083 -99.478653 -24.221184
-49.976223 -87.014915 -15.361715
-50.674771 -86.354805 -14.667808
-50.850869 -85.338562 -15.410815
-43.462141 -97.764634 -19.038645
-44.372423 -95.833023 -18.817572
-42.492216 -98.687005 -19.837372
-42.457542 -99.736687 -19.263689
-43.462141 -97.764634 -19.038645
-58.757868 -69.241009 -21.277081
-59.609562 -68.934089 -20.738028
-57.882566 -69.561203 -21.785179
-57.709903 -70.895069 -20.736733
-58.757868 -69.241009 -21.277081
-55.1459 -70.344219 -23.154733
-56.073805 -70.115989 -22.724909
-54.22558 -70.628456 -23.606018
-54.096827 -72.086399 -22.629873
-55.1459 -70.344219 -23.154733
-51.452991 -71.374046 -24.878428
-52.377947 -71.142288 -24.471098
-52.480788 -69.552101 -25.359699
-48.828651 -70.650292 -26.956657
-49.802124 -68.622024 -27.418415
-48.896408 -68.947685 -27.800239
-44.147054 -74.41201 -27.847192
-45.106842 -73.970394 -27.619947
-43.161093 -74.919533 -28.026542
-43.146812 -76.698593 -27.429922
-44.147054 -74.41201 -27.847192
-42.146174 -75.396786 -28.117356
-43.161093 -74.919533 -28.026542
-7.937176 -78.665897 -10.876029
-8.024266 -77.32766 -10.603086
-12.323524 -106.502876 -18.608814
-13.41346 -106.990883 -19.094078
-13.881503 -105.257401 -18.971779
-11.299171 -105.908959 -18.07695
-10.831127 -107.642441 -18.199249
-12.323524 -106.502876 -18.608814
-7.801327 -102.855446 -15.81487
-7.243315 -104.681053 -15.880664
-8.569399 -103.732514 -16.448395
-5.813018 -99.959938 -13.887662
-6.428565 -100.962822 -14.529936
-7.034159 -99.099106 -14.548104
-5.321392 -98.872986 -13.162921
-5.813018 -99.959938 -13.887662
-5.935495 -97.005783 -13.239154
-5.321392 -98.872986 -13.162921
-21.685421 -66.526062 -17.839081
-21.020606 -65.614762 -17.62735
-20.513484 -67.757058 -17.257618
-31.707475 -64.437939 -26.56991
-32.438793 -62.546005 -27.603275
-40.024344 -76.391136 -28.059481
-38.918135 -76.872558 -27.89362
-38.951938 -78.711219 -27.46781
-36.802368 -105.206436 -22.155737
-35.451062 -106.020409 -22.626692
-38.058596 -103.280777 -22.005134
-36.802368 -105.206436 -22.155737
-38.029936 -104.368759 -21.605886
-58.31164 -74.871979 -15.537871
-57.246069 -76.356491 -15.216727
-58.645846 -73.777565 -16.576727
-58.31164 -74.871979 -15.537871
-58.923164 -72.64209 -17.572581
-57.865572 -74.178551 -17.187455
-58.645846 -73.777565 -16.576727
-24.972903 -101.57521 -22.39853
-26.35222 -101.419136 -22.834043
-25.308099 -99.878761 -22.297137
-23.66359 -101.668556 -21.923731
-24.972903 -101.57521 -22.39853
-36.56189 -71.993415 -28.342932
-35.527086 -74.25975 -27.58477
-36.598723 -73.929451 -28.007281
-36.469291 -70.084339 -28.737143
-36.56189 -71.993415 -28.342932
-36.42416 -68.128231 -29.103764
-35.445121 -70.367607 -28.287043
-36.469291 -70.084339 -28.737143
-36.331885 -66.206734 -29.515915
-36.42416 -68.128231 -29.103764
-35.714119 -99.731743 -23.924408
-34.345981 -101.759766 -23.909666
-35.630505 -101.100716 -23.745131
-48.552324 -88.465538 -16.826633
-49.298716 -87.769867 -16.122874
-49.405929 -86.694344 -16.808481
-48.552324 -88.465538 -16.826633
-47.808757 -89.25618 -17.596128
-45.287007 -93.853119 -18.616562
-46.141979 -91.938744 -18.445162
-44.411398 -94.735047 -19.411318
-44.372423 -95.833023 -18.817572
-45.287007 -93.853119 -18.616562
-52.576554 -67.949661 -26.31831
-52.480788 -69.552101 -25.359699
-47.964619 -69.234059 -28.106153
-48.896408 -68.947685 -27.800239
-47.001923 -71.362835 -27.663902
-47.964619 -69.234059 -28.106153
-8.118703 -81.244774 -11.503961
-8.053773 -79.952328 -11.152591
-9.149083 -80.439324 -12.185468
-8.118703 -81.244774 -11.503961
-8.371582 -82.470719 -11.848448
-16.602111 -104.336326 -19.787793
-16.172517 -106.059105 -19.936071
-17.80319 -104.650025 -20.266821
-25.288923 -68.311996 -19.724716
-24.18981 -69.759865 -19.034881
-24.735726 -70.463448 -19.437297
-25.288923 -68.311996 -19.724716
-26.292908 -66.871529 -20.479694
-31.056144 -95.564674 -23.991112
-29.53609 -97.5923 -23.610181
-30.835003 -97.242592 -23.971296
-36.679819 -77.732651 -27.327655
-36.714107 -79.603782 -26.971069
-37.811442 -77.32151 -27.658535
-36.670536 -75.823082 -27.63212
-35.573202 -78.105355 -26.944654
-36.679819 -77.732651 -27.327655
-36.598723 -73.929451 -28.007281
-36.670536 -75.823082 -27.63212
-35.489962 -104.88015 -22.922297
-35.451062 -106.020409 -22.626692
-35.522819 -103.67553 -23.245725
-35.489962 -104.88015 -22.922297
-36.863886 -102.913834 -22.878414
-35.579555 -102.418976 -23.466116
-35.522819 -103.67553 -23.245725
-36.947693 -100.390953 -23.480857
-35.630505 -101.100716 -23.745131
-35.579555 -102.418976 -23.466116
-52.497786 -83.073433 -14.870934
-52.197983 -84.051873 -14.019547
-51.765125 -83.641617 -15.508575
-52.497786 -83.073433 -14.870934
-52.713496 -82.036598 -15.662601
-27.288217 -68.116814 -21.412639
-26.785032 -67.493782 -20.938602
-26.338023 -69.63861 -20.601169
-33.047741 -62.618174 -28.188705
-32.964168 -64.649388 -27.771036
-33.742733 -62.651877 -28.778486
-32.438793 -62.546005 -27.603275
-33.047741 -62.618174 -28.188705
-54.712017 -78.856834 -16.130731
-53.696665 -80.407661 -15.878857
-56.532556 -76.840393 -15.860155
-57.246069 -76.356491 -15.216727
-55.749531 -77.273972 -16.453037
-56.532556 -76.840393 -15.860155
-56.805228 -75.747604 -16.784483
-54.984688 -77.764046 -17.055059
-54.712017 -78.856834 -16.130731
-55.749531 -77.273972 -16.453037
-19.463729 -103.127823 -20.597673
-17.80319 -104.650025 -20.266821
-19.875671 -101.364227 -20.476574
-19.463729 -103.127823 -20.597673
-21.106617 -101.564804 -20.955706
-28.187321 -97.849899 -23.200966
-27.96618 -99.527817 -23.181151
-29.53609 -97.5923 -23.610181
-34.497459 -64.575249 -28.902121
-33.607787 -66.705455 -27.972496
-34.446085 -66.597614 -28.513799
-34.49579 -62.591438 -29.320051
-34.497459 -64.575249 -28.902121
-35.367874 -66.439453 -29.048544
-36.331885 -66.206734 -29.515915
-32.946923 -102.375366 -23.972271
-34.345981 -101.759766 -23.909666
-32.946923 -102.375366 -23.972271
-33.07068 -100.956589 -24.054304
-30.462086 -100.447364 -23.883238
-31.864805 -99.996254 -24.095719
-30.666397 -98.870171 -23.881069
-30.462086 -100.447364 -23.883238
-32.186451 -96.842545 -24.261999
-30.835003 -97.242592 -23.971296
-30.666397 -98.870171 -23.881069
-51.291151 -85.639343 -13.912657
-52.197983 -84.051873 -14.019547
-51.291151 -85.639343 -13.912657
-50.674771 -86.354805 -14.667808
-49.976223 -87.014915 -15.361715
-49.298716 -87.769867 -16.122874
-41.445498 -101.649506 -19.49094
-42.457542 -99.736687 -19.263689
-40.357681 -102.588394 -20.26683
-41.445498 -101.649506 -19.49094
-40.38689 -101.551079 -20.75885
-39.256954 -103.480415 -20.963265
-40.357681 -102.588394 -20.26683
-59.186615 -71.453484 -18.633413
-58.923164 -72.64209 -17.572581
-59.407772 -70.219384 -19.656076
-59.609562 -68.934089 -20.738028
-58.364048 -71.808976 -19.205971
-59.186615 -71.453484 -18.633413
-59.407772 -70.219384 -19.656076
-56.982532 -69.82254 -22.25803
-57.882566 -69.561203 -21.785179
-55.925874 -71.508713 -21.71171
-56.982532 -69.82254 -22.25803
-56.073805 -70.115989 -22.724909
-53.291125 -70.845489 -24.016764
-54.22558 -70.628456 -23.606018
-52.263329 -72.667434 -23.535492
-53.291125 -70.845489 -24.016764
-52.377947 -71.142288 -24.471098
-51.640829 -68.128056 -26.674174
-52.576554 -67.949661 -26.31831
-50.730097 -68.398441 -27.078076
-49.802124 -68.622024 -27.418415
-50.6451 -70.054245 -26.170931
-51.640829 -68.128056 -26.674174
-50.730097 -68.398441 -27.078076
-46.036282 -73.493629 -27.305464
-46.957294 -73.106746 -26.980044
-47.001923 -71.362835 -27.663902
-45.062213 -75.714306 -26.936088
-46.036282 -73.493629 -27.305464
-45.106842 -73.970394 -27.619947
-41.094821 -75.908626 -28.129555
-41.109499 -77.717956 -27.621471
-42.146174 -75.396786 -28.117356
-40.024344 -76.391136 -28.059481
-41.094821 -75.908626 -28.129555
-8.682875 -75.315769 -11.066009
-8.024266 -77.32766 -10.603086
-9.36877 -74.586609 -11.721979
-8.682875 -75.315769 -11.066009
-8.779607 -77.926949 -11.564419
-7.937176 -78.665897 -10.876029
-8.053773 -79.952328 -11.152591
-10.247579 -73.804242 -12.371845
-9.36877 -74.586609 -11.721979
-9.541819 -75.85815 -11.937723
-11.139325 -72.986202 -12.992079
-10.247579 -73.804242 -12.371845
-12.202278 -72.101341 -13.594795
-11.139325 -72.986202 -12.992079
-11.483581 -74.190922 -13.190304
-13.244536 -71.189934 -14.175146
-12.202278 -72.101341 -13.594795
-14.560543 -107.416595 -19.598166
-16.172517 -106.059105 -19.936071
-14.560543 -107.416595 -19.598166
-13.41346 -106.990883 -19.094078
-9.407435 -108.710053 -17.740137
-10.831127 -107.642441 -18.199249
-8.474331 -108.010773 -17.134927
-9.407435 -108.710053 -17.740137
-7.576637 -107.265571 -16.558329
-8.474331 -108.010773 -17.134927
-8.90908 -106.303322 -17.090787
-6.782108 -106.422325 -15.892526
-7.576637 -107.265571 -16.558329
-6.782108 -106.422325 -15.892526
-7.243315 -104.681053 -15.880664
-7.062475 -101.952988 -15.218758
-7.801327 -102.855446 -15.81487
-8.388559 -101.004448 -15.78649
-7.062475 -101.952988 -15.218758
-6.428565 -100.962822 -14.529936
-6.648466 -95.063759 -13.268978
-5.935495 -97.005783 -13.239154
-7.131583 -96.154198 -13.935655
-6.171642 -93.976547 -12.668355
-6.648466 -95.063759 -13.268978
-7.367731 -93.124962 -13.364856
-5.834855 -92.808052 -12.012569
-6.171642 -93.976547 -12.668355
-6.549136 -90.874725 -12.186588
-5.834855 -92.808052 -12.012569
-7.344459 -88.880241 -12.313141
-6.549136 -90.874725 -12.186588
-7.68623 -90.043266 -12.890787
-8.127388 -86.892029 -12.523183
-7.344459 -88.880241 -12.313141
-8.963709 -84.852348 -12.687535
-8.127388 -86.892029 -12.523183
-9.317873 -86.009101 -13.181693
-9.778078 -82.817344 -12.938
-8.587593 -83.700271 -12.27949
-8.963709 -84.852348 -12.687535
-14.427398 -70.203022 -14.732874
-13.244536 -71.189934 -14.175146
-13.729398 -72.319149 -14.350748
-15.559297 -69.200916 -15.283334
-14.427398 -70.203022 -14.732874
-16.796665 -68.120002 -15.814757
-15.559297 -69.200916 -15.283334
-16.149628 -70.251324 -15.439899
-17.958187 -67.035954 -16.359078
-16.796665 -68.120002 -15.814757
-19.189023 -65.873627 -16.896361
-17.958187 -67.035954 -16.359078
-18.617833 -68.008083 -16.508605
-20.325913 -64.719229 -17.467253
-19.189023 -65.873627 -16.896361
-20.325913 -64.719229 -17.467253
-21.020606 -65.614762 -17.62735
-23.596906 -68.9832 -18.679727
-23.043708 -71.134651 -18.392309
-24.18981 -69.759865 -19.034881
-22.988193 -68.209243 -18.359007
-23.596906 -68.9832 -18.679727
-22.35194 -67.364429 -18.075104
-21.814552 -69.513172 -17.753252
-22.988193 -68.209243 -18.359007
-21.685421 -66.526062 -17.839081
-22.35194 -67.364429 -18.075104
-28.190463 -66.503586 -22.279342
-27.288217 -68.116814 -21.412639
-27.743454 -68.648415 -21.94191
-30.906098 -66.360833 -25.571087
-31.4678 -66.538578 -26.182432
-31.707475 -64.437939 -26.56991
-30.365879 -66.069523 -24.963209
-30.126205 -68.170163 -24.575731
-30.906098 -66.360833 -25.571087
-29.900177 -65.756951 -24.357737
-30.365879 -66.069523 -24.963209
-29.430035 -65.335117 -23.778117
-29.115842 -67.45702 -23.388233
-29.900177 -65.756951 -24.357737
-29.004368 -64.904016 -23.206087
-29.430035 -65.335117 -23.778117
-28.190463 -66.503586 -22.279342
-29.004368 -64.904016 -23.206087
3 0 54 52
3 0 56 54
3 212 58 213
3 1 61 59
3 1 63 61
3 2 66 64
3 2 68 66
3 2 70 68
3 214 72 215
3 4 75 73
3 4 77 75
3 4 79 77
3 6 83 81
3 6 85 83
3 7 216 218
3 218 217 86
3 216 217 218
3 7 219 221
3 219 87 220
3 219 220 221
3 7 89 87
3 8 92 90
3 8 94 92
3 222 96 223
3 3 99 97
3 9 102 100
3 9 104 102
3 9 106 104
3 10 109 107
3 10 111 109
3 10 113 111
3 225 224 114
3 5 117 115
3 11 120 118
3 13 121 53
3 13 122 121
3 13 124 122
3 227 226 55
3 15 125 57
3 15 126 125
3 16 228 230
3 228 128 229
3 228 229 230
3 18 129 60
3 18 130 129
3 18 132 130
3 20 133 62
3 20 134 133
3 21 137 135
3 23 138 65
3 23 139 138
3 23 141 139
3 25 142 67
3 25 143 142
3 25 145 143
3 27 146 69
3 27 147 146
3 232 231 148
3 28 150 71
3 28 151 150
3 29 233 234
3 29 235 237
3 235 152 236
3 235 236 237
3 12 153 119
3 30 154 74
3 30 155 154
3 30 156 155
3 31 157 76
3 31 158 157
3 31 160 158
3 33 161 78
3 33 162 161
3 14 163 123
3 34 164 80
3 34 165 164
3 34 238 240
3 240 239 165
3 238 239 240
3 35 241 243
3 243 242 82
3 241 242 243
3 35 244 246
3 244 166 245
3 244 245 246
3 35 167 166
3 36 168 84
3 36 169 168
3 17 247 249
3 249 248 127
3 247 248 249
3 37 250 251
3 37 252 254
3 252 170 253
3 252 253 254
3 37 171 170
3 38 172 88
3 38 173 172
3 19 174 131
3 39 175 91
3 39 176 175
3 39 177 176
3 40 178 93
3 40 179 178
3 255 180 256
3 257 181 258
3 259 258 180
3 257 258 259
3 260 182 261
3 262 183 263
3 264 263 182
3 262 263 264
3 41 265 267
3 265 184 266
3 265 266 267
3 41 185 184
3 42 268 270
3 268 186 269
3 268 269 270
3 42 187 186
3 42 188 187
3 271 189 272
3 273 190 274
3 275 274 189
3 273 274 275
3 277 276 190
3 278 191 279
3 43 192 95
3 43 193 192
3 44 280 282
3 282 281 98
3 280 281 282
3 44 283 285
3 283 194 284
3 283 284 285
3 22 195 136
3 45 196 101
3 45 197 196
3 45 286 288
3 288 287 197
3 286 287 288
3 46 289 291
3 291 290 103
3 289 290 291
3 46 292 293
3 46 294 295
3 47 198 105
3 47 199 198
3 24 200 140
3 48 201 108
3 48 202 201
3 48 203 202
3 49 204 110
3 49 205 204
3 49 206 205
3 50 207 112
3 50 296 298
3 298 297 207
3 296 297 298
3 26 208 144
3 32 209 159
3 51 210 116
3 51 211 210
3 300 299 149
3 52 53 11
3 54 53 52
3 54 13 53
3 54 55 13
3 56 55 54
3 56 301 303
3 303 302 55
3 301 302 303
3 304 57 305
3 58 306 308
3 306 57 307
3 306 307 308
3 58 15 57
3 59 60 16
3 61 60 59
3 61 18 60
3 61 62 18
3 63 62 61
3 63 20 62
3 64 65 21
3 66 65 64
3 66 23 65
3 66 67 23
3 68 67 66
3 68 25 67
3 68 69 25
3 70 69 68
3 70 27 69
3 309 71 310
3 311 71 312
3 313 28 314
3 315 314 71
3 313 314 315
3 72 316 317
3 72 318 320
3 318 29 319
3 318 319 320
3 73 74 12
3 75 74 73
3 75 30 74
3 75 76 30
3 77 76 75
3 77 31 76
3 77 78 31
3 79 78 77
3 79 33 78
3 321 80 322
3 323 322 14
3 321 322 323
3 324 80 325
3 326 34 327
3 328 327 80
3 326 327 328
3 330 329 34
3 81 331 333
3 331 82 332
3 331 332 333
3 83 82 81
3 83 35 82
3 83 84 35
3 85 84 83
3 85 36 84
3 86 334 336
3 336 335 17
3 334 335 336
3 338 337 86
3 87 339 340
3 87 341 343
3 341 37 342
3 341 342 343
3 87 88 37
3 89 88 87
3 89 38 88
3 90 91 19
3 92 91 90
3 92 39 91
3 92 93 39
3 94 93 92
3 94 40 93
3 344 41 345
3 346 42 347
3 349 348 42
3 350 95 351
3 96 352 354
3 352 95 353
3 352 353 354
3 96 43 95
3 97 355 357
3 355 98 356
3 355 356 357
3 99 98 97
3 99 44 98
3 100 101 22
3 102 101 100
3 102 45 101
3 102 103 45
3 104 103 102
3 104 46 103
3 104 105 46
3 106 105 104
3 106 47 105
3 107 108 24
3 109 108 107
3 109 48 108
3 109 110 48
3 111 110 109
3 111 49 110
3 111 112 49
3 113 112 111
3 113 50 112
3 114 358 360
3 360 359 26
3 358 359 360
3 362 361 114
3 115 116 32
3 117 116 115
3 117 51 116
3 118 363 365
3 363 119 364
3 363 364 365
3 120 119 118
3 120 12 119
3 53 120 11
3 121 120 53
3 121 12 120
3 121 73 12
3 122 73 121
3 122 4 73
3 122 123 4
3 124 123 122
3 124 14 123
3 55 124 13
3 366 124 367
3 368 367 55
3 366 367 368
3 369 14 370
3 371 370 124
3 369 370 371
3 373 372 14
3 57 374 375
3 125 376 378
3 378 377 57
3 376 377 378
3 125 379 380
3 125 381 383
3 381 81 382
3 381 382 383
3 126 81 125
3 126 6 81
3 384 127 385
3 128 386 388
3 386 127 387
3 386 387 388
3 128 17 127
3 60 128 16
3 129 128 60
3 129 17 128
3 129 86 17
3 130 86 129
3 130 7 86
3 130 131 7
3 132 131 130
3 132 19 131
3 62 132 18
3 133 132 62
3 133 19 132
3 133 90 19
3 134 90 133
3 134 8 90
3 135 136 3
3 137 136 135
3 137 22 136
3 65 137 21
3 138 137 65
3 138 22 137
3 138 100 22
3 139 100 138
3 139 9 100
3 139 140 9
3 141 140 139
3 141 24 140
3 67 141 23
3 142 141 67
3 142 24 141
3 142 107 24
3 143 107 142
3 143 10 107
3 143 144 10
3 145 144 143
3 145 26 144
3 69 145 25
3 146 145 69
3 146 26 145
3 146 114 26
3 147 114 146
3 147 389 391
3 391 390 114
3 389 390 391
3 148 149 5
3 392 149 393
3 394 393 148
3 392 393 394
3 396 395 149
3 397 16 398
3 71 399 400
3 150 401 403
3 403 402 71
3 401 402 403
3 150 404 406
3 404 16 405
3 404 405 406
3 150 59 16
3 151 59 150
3 151 1 59
3 407 97 408
3 152 409 411
3 409 97 410
3 409 410 411
3 152 3 97
3 119 412 414
3 412 72 413
3 412 413 414
3 153 72 119
3 153 29 72
3 74 153 12
3 154 153 74
3 154 29 153
3 154 152 29
3 155 152 154
3 155 3 152
3 155 135 3
3 156 135 155
3 156 21 135
3 76 156 30
3 157 156 76
3 157 21 156
3 157 64 21
3 158 64 157
3 158 2 64
3 158 159 2
3 160 159 158
3 160 32 159
3 78 160 31
3 161 160 78
3 161 32 160
3 161 115 32
3 162 115 161
3 162 5 115
3 123 79 4
3 163 79 123
3 163 33 79
3 80 163 14
3 164 163 80
3 164 33 163
3 164 162 33
3 165 162 164
3 165 5 162
3 165 148 5
3 415 148 416
3 417 416 165
3 415 416 417
3 419 418 148
3 421 420 34
3 82 422 423
3 425 424 82
3 166 426 427
3 166 428 429
3 166 430 432
3 430 118 431
3 430 431 432
3 167 118 166
3 167 11 118
3 84 167 35
3 168 167 84
3 168 11 167
3 168 52 11
3 169 52 168
3 169 0 52
3 127 433 434
3 436 435 127
3 438 437 17
3 170 439 440
3 170 441 442
3 170 443 445
3 443 58 444
3 443 444 445
3 171 58 170
3 171 15 58
3 88 171 37
3 172 171 88
3 172 15 171
3 172 126 15
3 173 126 172
3 173 6 126
3 131 89 7
3 174 89 131
3 174 38 89
3 91 174 19
3 175 174 91
3 175 38 174
3 175 173 38
3 176 173 175
3 176 6 173
3 176 85 6
3 177 85 176
3 177 36 85
3 93 177 39
3 178 177 93
3 178 36 177
3 178 169 36
3 179 169 178
3 179 0 169
3 446 28 447
3 180 448 449
3 180 450 452
3 450 28 451
3 450 451 452
3 180 151 28
3 181 151 180
3 181 1 151
3 453 181 454
3 182 455 457
3 455 181 456
3 455 456 457
3 182 1 181
3 182 63 1
3 183 63 182
3 183 20 63
3 458 183 459
3 184 460 462
3 460 183 461
3 460 461 462
3 184 20 183
3 184 134 20
3 185 134 184
3 185 8 134
3 463 41 464
3 186 465 466
3 186 467 469
3 467 41 468
3 467 468 469
3 186 185 41
3 187 185 186
3 187 8 185
3 187 94 8
3 188 94 187
3 188 40 94
3 470 188 471
3 472 471 42
3 470 471 472
3 189 473 475
3 473 188 474
3 473 474 475
3 189 40 188
3 189 179 40
3 190 179 189
3 190 0 179
3 190 56 0
3 476 56 477
3 478 477 190
3 476 477 478
3 480 479 56
3 191 481 482
3 191 483 484
3 95 485 487
3 485 191 486
3 485 486 487
3 192 191 95
3 192 488 490
3 490 489 191
3 488 489 490
3 192 491 492
3 193 493 495
3 495 494 192
3 493 494 495
3 193 496 497
3 98 498 499
3 501 500 98
3 194 502 503
3 194 504 505
3 136 99 3
3 195 99 136
3 195 44 99
3 101 195 22
3 196 195 101
3 196 44 195
3 196 194 44
3 197 194 196
3 197 506 508
3 508 507 194
3 506 507 508
3 197 509 510
3 512 511 197
3 103 513 515
3 515 514 45
3 513 514 515
3 517 516 103
3 105 518 520
3 520 519 46
3 518 519 520
3 198 521 523
3 523 522 105
3 521 522 523
3 198 524 525
3 198 526 527
3 199 528 530
3 530 529 198
3 528 529 530
3 199 531 532
3 140 106 9
3 200 106 140
3 200 47 106
3 108 200 24
3 201 200 108
3 201 47 200
3 201 199 47
3 202 199 201
3 202 533 535
3 535 534 199
3 533 534 535
3 202 536 538
3 536 96 537
3 536 537 538
3 203 96 202
3 203 43 96
3 110 203 48
3 204 203 110
3 204 43 203
3 204 193 43
3 205 193 204
3 205 539 541
3 541 540 193
3 539 540 541
3 205 542 543
3 206 544 546
3 546 545 205
3 544 545 546
3 206 547 548
3 112 206 49
3 207 206 112
3 207 549 551
3 551 550 206
3 549 550 551
3 207 552 553
3 555 554 207
3 144 113 10
3 208 113 144
3 208 50 113
3 556 208 557
3 558 557 26
3 556 557 558
3 559 208 560
3 561 50 562
3 563 562 208
3 561 562 563
3 565 564 50
3 159 70 2
3 209 70 159
3 209 27 70
3 116 209 32
3 210 209 116
3 210 27 209
3 210 147 27
3 211 147 210
3 211 566 568
3 568 567 147
3 566 567 568
3 149 117 5
3 569 117 570
3 571 570 149
3 569 570 571
3 572 51 573
3 574 573 117
3 572 573 574
3 575 51 576
3 577 211 578
3 579 578 51
3 577 578 579
3 580 211 581
3 583 582 211
