ply
format ascii 1.0
element vertex 912
property float x
property float y
property float z
element face 1024
property list uchar int vertex_index
end_header
-17.008429 -44.007549 84.202774
-4.192778 -53.289368 69.938187
-39.96788 -26.506737 66.42717
-50.03611 -18.363789 52.024513
-16.5016 -64.347809 80.235466
-4.963737 -52.043228 87.932472
-32.521313 -29.884651 71.451683
-16.751221 -53.799301 82.606155
-10.060095 -39.567963 86.52063
-3.200132 -42.56974 89.053528
-9.794844 -48.088943 88.423378
-10.426653 -58.095222 85.552353
-46.700157 -27.749855 67.816544
-51.981369 -23.585251 60.335072
-44.753723 -21.999798 59.846783
-19.18128 -37.013397 81.627762
-25.960318 -41.163876 79.772926
-29.485664 -35.211819 77.387123
-39.405933 -32.461395 73.312637
-57.31921 -20.931379 51.780083
-3.369648 -53.670765 80.621803
-5.248362 -61.158401 82.943802
-16.666155 -48.612663 83.679291
-20.386522 -46.759701 81.208702
-13.476032 -41.748566 85.947708
-9.565763 -43.603111 88.088951
-13.153889 -45.917648 86.569077
-13.296375 -50.746254 85.957016
-4.942215 -48.348068 67.063629
-43.388145 -27.205143 67.269928
-46.08659 -24.789118 64.068588
-42.523842 -24.194054 63.374325
-20.853027 -34.087814 78.934692
-24.248743 -36.083504 79.401054
-25.905695 -33.430866 76.534882
-36.651291 -28.5103 69.047318
-35.830982 -31.422466 72.230934
-40.025459 -29.55912 69.949234
-43.442688 -30.247036 70.817764
-51.195641 -21.015833 56.40139
-54.603477 -22.175457 56.106586
-54.100731 -19.478422 52.2887
-30.803465 -40.017914 77.869064
-28.737326 -43.821678 76.800179
-3.862688 -47.330971 88.986221
-2.449722 -48.562458 86.74263
-2.098106 -49.157444 82.861549
-3.752539 -53.187523 84.982323
-4.158871 -57.595825 82.471809
-5.566311 -56.688835 85.8591
-13.376789 -61.17989 82.78376
-9.989557 -63.031414 83.120438
-12.713953 -66.164581 80.858719
-27.867287 -30.652018 73.892639
-53.277462 -16.486399 48.080593
-16.844551 -59.154491 81.434952
-6.296547 -45.573158 89.332222
-7.018343 -50.254704 89.059616
-7.648575 -55.105301 87.553574
-10.271473 -53.012589 87.46067
-13.511723 -55.964096 84.550926
-48.862991 -28.769764 66.693764
-49.423916 -25.428459 64.291924
-48.560707 -22.70433 60.389679
-47.173824 -20.110678 55.992813
-41.775444 -20.82917 60.089394
-17.887487 -40.193268 83.57872
-21.30471 -42.441631 81.860886
-22.697405 -38.955868 81.371025
-27.783424 -37.924164 79.404091
-32.942085 -36.86277 77.528885
-31.001396 -32.649109 74.348969
-34.652061 -34.100609 75.431984
-37.870846 -35.469986 75.488663
-42.246883 -33.552666 73.057968
-45.88665 -31.198986 70.127594
-14.418142 -38.166809 84.076515
-53.908165 -25.135578 58.594898
-56.386597 -24.0319 54.209732
-57.179214 -17.844881 48.172802
-60.072609 -19.681036 47.485615
-24.446648 -45.190315 78.892685
-3.622637 -53.656361 75.439774
-3.431654 -57.892017 77.850563
-7.604809 -59.908508 85.096313
-16.768513 -46.216278 84.049637
-18.48172 -47.648346 82.440033
-18.716473 -45.314854 82.822556
-15.255059 -42.831268 85.254173
-13.241629 -43.746407 86.428391
-15.022726 -44.920689 85.409821
-14.924827 -47.200771 85.262077
-4.615551 -50.886299 68.507721
-5.025684 -50.507324 65.784927
-41.623642 -26.919649 66.783981
-43.008194 -25.719273 65.299759
-41.320534 -25.36038 64.962585
-23.360378 -33.757156 77.703293
-24.344381 -32.351505 76.344711
-38.418266 -27.573858 67.780548
-38.268703 -29.118191 69.395645
-40.053169 -28.071852 68.143188
-41.809498 -28.420351 68.670792
-50.586723 -19.744148 54.192154
-52.61792 -20.248001 54.351025
-52.089001 -18.915461 52.175789
-32.017899 -41.213203 76.472031
-4.421097 -49.691353 88.591003
-3.021139 -48.025612 88.097595
-3.671894 -50.381912 87.493988
-3.167683 -50.902809 85.953239
-4.2495 -52.703026 86.667641
-4.639009 -54.987637 85.61776
-5.37252 -54.380451 87.015785
-14.927683 -62.760818 81.446457
-13.110926 -63.70496 81.837608
-14.602324 -65.278183 80.655396
-16.828419 -56.481182 82.019897
-18.573709 -58.134502 80.511368
-18.507814 -55.446274 80.96151
-9.613234 -45.782875 88.427864
-7.839893 -44.59203 88.870277
-8.027065 -46.846603 89.072281
-6.618134 -47.884407 89.357605
-8.326004 -49.1954 88.936317
-8.64732 -51.624241 88.472641
-10.040382 -50.50922 88.087715
-15.020644 -52.224178 84.318939
-13.424778 -53.331978 85.321846
-15.114386 -54.871147 83.661346
-15.160473 -57.536587 82.949074
-47.979012 -28.174164 67.520935
-49.351368 -27.009609 65.722992
-48.105175 -26.541031 66.11618
-45.441437 -23.405748 61.945999
-47.322327 -23.691872 62.280037
-46.622215 -22.372169 60.101822
-47.85498 -21.433882 58.17717
-45.915638 -21.020514 57.946877
-18.489975 -38.545979 82.750107
-20.249043 -39.538963 82.443207
-20.940065 -37.977104 81.621033
-26.858002 -35.656719 78.374619
-26.046955 -36.99276 79.548767
-28.662968 -36.525131 78.584305
-30.370632 -37.416042 78.470215
-31.28208 -36.025337 77.637573
-30.235516 -30.329823 72.654602
-29.315447 -31.741341 73.94516
-31.747477 -31.3116 72.81263
-37.649166 -31.970806 72.844666
-35.30098 -32.77063 73.901428
-37.102989 -33.358002 74.407265
-36.371452 -34.76561 75.677216
-38.753956 -33.940525 74.603378
-40.144684 -34.579056 74.331955
-40.974693 -32.968025 73.432953
-45.159622 -29.005348 69.384293
-44.841537 -30.658489 70.736542
-46.489304 -29.409279 69.194038
-47.443398 -29.965637 68.471138
-17.50877 -35.992867 81.554863
-16.755527 -37.55764 82.831779
-16.128294 -39.18602 83.933273
-51.915165 -25.043118 61.799252
-53.173492 -24.261883 59.707344
-55.952728 -21.549337 53.945827
-55.722294 -23.003283 55.37183
-57.01709 -22.457115 53.174938
-57.645821 -23.571304 52.017235
-58.322426 -21.929268 50.986599
-54.981567 -15.468048 46.130081
-55.281765 -17.141605 48.159363
-56.92939 -16.192513 46.166565
-60.271652 -17.932522 45.885113
-61.44376 -19.080273 45.368401
-23.595716 -41.7742 80.783165
-22.908113 -43.752571 80.494003
-25.130329 -43.072536 79.429108
-29.947979 -45.28875 74.99855
-27.941858 -45.998779 76.074875
-2.85807 -51.454163 81.798149
-3.003658 -51.523983 79.339188
-3.299818 -51.489166 76.725128
-3.434675 -53.713936 78.098389
-3.518055 -55.825382 76.741241
-3.561237 -55.814949 79.309723
-4.647264 -59.413498 82.895393
-3.949141 -59.71423 80.945282
-9.022665 -56.594433 86.718559
-7.725416 -57.527676 86.420395
-8.971495 -59.05994 85.530785
-8.385715 -63.824314 82.781837
-16.676395 -51.157883 83.17469
-18.424477 -52.767097 81.447037
-18.395926 -50.149109 81.955475
-11.720726 -40.691067 86.33242
-9.704342 -41.540459 87.431755
-11.450874 -42.645668 87.083847
-11.356804 -44.737823 87.515038
-11.408323 -46.98307 87.603477
-11.55691 -49.373474 87.365906
-13.186861 -48.259846 86.394363
-14.938492 -49.649475 84.874268
-5.452232 -47.896492 64.382317
-45.12706 -27.451691 67.679848
-46.543243 -26.219261 66.070755
-44.795895 -25.975025 65.735672
-44.258831 -24.531235 63.684689
-43.644238 -23.061653 61.664074
-19.963324 -35.543095 80.312057
-21.683632 -36.527229 80.482918
-22.483364 -35.13649 79.13121
-25.054409 -34.754227 78.013214
-27.655573 -34.366726 76.949921
-34.675117 -29.283325 70.259621
-34.082253 -30.745274 71.697159
-36.270081 -30.015913 70.56929
-38.027115 -30.570198 71.12645
-39.823292 -31.010294 71.718216
-41.525513 -31.415073 72.122787
-41.795067 -29.906956 70.494881
-43.557297 -28.701717 69.153229
-51.706745 -22.266695 58.49704
-53.278801 -22.841208 58.243546
-53.059246 -21.528282 56.420341
-54.457146 -20.827845 54.314552
-55.890137 -20.128994 52.197502
-28.373631 -40.588058 78.812149
-27.410347 -42.438652 78.423424
-29.718353 -41.828194 77.450562
-30.899298 -43.167076 75.785019
-31.920309 -44.580994 73.904907
-3.417759 -44.959633 89.129997
-2.435787 -45.627964 88.490242
-1.739935 -46.156586 87.365768
-2.1472 -48.936272 84.972832
-2.902626 -51.255054 84.029266
-3.465633 -53.503643 82.941727
-3.745483 -55.687965 81.694038
-4.09878 -55.419506 83.821503
-4.773874 -57.227551 84.353874
-5.516724 -58.95166 84.490189
-11.874857 -59.622433 84.191658
-10.281364 -60.593624 84.379601
-11.662857 -62.140888 83.105957
-11.318718 -64.594833 81.972931
-38.531754 -25.898487 66.37809
-39.850056 -24.823086 64.90184
-25.461859 -30.892593 75.181351
-26.724895 -29.362476 74.297104
-29.016685 -29.141668 72.949249
-31.236692 -28.811657 71.642456
-33.337955 -28.334919 70.360077
-35.274467 -27.687698 69.076569
-37.010742 -26.867998 67.760231
-49.693615 -16.804897 50.045074
-51.620693 -17.452679 50.045433
-51.352032 -15.803491 48.101662
-53.076645 -14.740159 46.177109
-16.747042 -61.783443 80.846977
-18.388565 -63.388275 79.634407
-18.552261 -60.790756 80.080505
-7.838711 -42.427643 88.354362
-6.149147 -43.320045 89.003769
-4.665119 -44.177944 89.287064
-4.961964 -46.501122 89.390442
-5.408781 -48.847679 89.211121
-5.891212 -51.217957 88.73362
-6.29484 -53.601185 87.966408
-7.392643 -52.670326 88.447815
-8.902575 -54.103378 87.716911
-10.416771 -55.556141 86.596573
-11.739376 -51.87904 86.847496
-11.888342 -54.45467 86.107292
-11.945906 -57.050472 85.204941
-13.506493 -58.592693 83.693863
-15.109123 -60.176155 82.20845
-50.650444 -25.95857 63.810772
-50.703705 -24.441587 62.35849
-47.858658 -25.059698 64.331451
-49.12886 -24.010225 62.475697
-50.4011 -23.083412 60.523254
-49.844322 -21.821392 58.421795
-49.17289 -20.570118 56.199059
-48.548042 -19.23831 54.011566
-41.006954 -23.697741 63.313438
-42.066429 -22.577831 61.608864
-43.102901 -21.50556 59.798687
-42.786285 -19.813301 58.187054
-44.186523 -20.500921 57.905277
-45.370319 -19.558834 55.957382
-46.683041 -18.653299 53.98378
-48.128975 -17.747215 52.00795
-17.386768 -42.002991 84.062042
-19.105017 -43.182564 83.006897
-19.626989 -41.262135 82.901207
-21.964493 -40.601387 81.799995
-24.384512 -40.00663 80.767036
-23.464863 -37.466545 80.555573
-25.216137 -38.426216 80.362656
-26.866844 -39.456833 79.793556
-29.384558 -38.923759 78.856369
-31.903763 -38.372871 77.922073
-26.834282 -32.073822 75.117538
-28.464249 -33.075325 75.421753
-30.257355 -33.935181 75.925682
-33.473331 -32.109665 73.294617
-32.821091 -33.416389 74.918495
-32.097603 -34.707146 76.415451
-33.866066 -35.451607 76.678909
-35.456581 -36.224976 76.5457
-43.006935 -31.862118 72.147812
-44.160606 -32.41246 71.657349
-12.181364 -38.83987 85.325287
-13.867431 -39.902122 85.143288
-15.625836 -40.928963 84.75956
-54.440826 -23.593208 57.557014
-55.141586 -24.543278 56.410591
-55.413258 -25.689482 54.86454
-56.652817 -25.260941 52.701393
-53.661339 -18.052372 50.162739
-55.627098 -18.679749 50.226959
-57.345016 -19.410131 50.08242
-58.740986 -16.989473 46.128162
-58.809326 -18.670841 47.977352
-58.694962 -20.30662 49.623756
-20.765507 -44.495964 81.628029
-22.377905 -45.94313 80.020409
-23.962509 -47.502373 78.305054
-26.575205 -44.488808 77.82518
-25.936813 -46.731308 77.169342
-4.156481 -51.16861 71.264305
-3.700663 -51.368149 74.017075
-3.890427 -53.513397 72.703644
-3.580839 -55.740353 74.053848
-3.716785 -57.809525 80.279938
-6.529661 -55.976955 86.935173
-6.548841 -58.320827 85.676064
-6.354752 -60.613014 84.230698
-8.749437 -61.472973 84.203911
-7.308495 -62.231056 83.628876
-4.338669 -53.133627 68.561821
-4.550056 -51.932092 67.846588
-4.404165 -52.087834 69.222954
-23.699806 -31.721516 76.436203
-23.110092 -32.481571 76.989258
-17.275714 -65.130814 79.683071
-16.297779 -65.594429 79.903343
-16.297779 -65.594429 79.903343
-15.348141 -66.059616 80.113308
-15.551962 -64.812996 80.445431
-9.066899 -39.950897 87.05265
-9.315266 -38.925308 86.585491
-56.820068 -15.307465 45.17811
-55.955478 -15.830281 46.148323
-55.846157 -14.945232 45.159868
-62.119799 -18.811927 44.318945
-61.58159 -18.156994 44.586167
-62.528723 -19.504872 43.928217
-61.852684 -19.773218 44.977673
-62.119799 -18.811927 44.318945
-29.589723 -46.428314 74.630779
-30.494535 -46.047661 74.047539
-2.579962 -41.622873 88.898517
-3.244903 -41.361832 88.929158
-4.777185 -61.351208 82.107216
-4.476636 -60.478756 82.083011
-4.947813 -60.28595 82.919598
-5.03611 -62.235774 82.101513
-4.777185 -61.351208 82.107216
-20.285017 -47.98213 80.961483
-19.332616 -48.426452 81.577148
-19.434121 -47.204023 81.824367
-21.21353 -47.54183 80.349114
-20.285017 -47.98213 80.961483
-5.197223 -48.12228 65.722973
-5.303168 -46.781719 65.018361
-5.04816 -47.007507 66.359016
-5.180883 -50.260208 64.459646
-4.874114 -51.536247 65.135025
-19.626555 -34.266621 79.581883
-20.150849 -33.48447 78.959655
-20.408175 -34.815455 79.623374
-19.181703 -34.994261 80.270565
-19.626555 -34.266621 79.581883
-31.961139 -42.83303 75.261345
-31.458599 -42.19014 76.128525
-32.520439 -41.856094 75.604851
-32.471644 -43.539989 74.321289
-31.409804 -43.874035 74.844963
-31.961139 -42.83303 75.261345
-1.893405 -47.548509 86.268166
-1.538512 -46.345574 86.579735
-2.094829 -47.359522 87.054199
-2.298461 -48.749365 85.857731
-1.742144 -47.735416 85.383266
-1.893405 -47.548509 86.268166
-11.788807 -66.577759 80.831787
-11.09119 -65.792884 81.388893
-12.016336 -65.379707 81.415825
-12.457584 -67.366439 80.349075
-11.788807 -66.577759 80.831787
-38.603098 -24.981064 65.810367
-37.959471 -25.479715 66.567307
-26.315782 -28.619903 74.725411
-25.563564 -29.438864 74.995224
-29.644612 -28.333647 72.635231
-28.569916 -28.44571 73.335037
-30.754615 -28.168642 71.981834
-30.126689 -28.976662 72.295852
-29.644612 -28.333647 72.635231
-33.768623 -27.485801 69.969605
-32.825155 -27.749813 70.653358
-34.736879 -27.162191 69.327851
-34.306211 -28.011308 69.718323
-33.768623 -27.485801 69.969605
-37.198965 -25.96447 67.258377
-36.454041 -26.399415 67.976368
-37.959471 -25.479715 66.567307
-37.771248 -26.383243 67.069161
-37.198965 -25.96447 67.258377
-50.514082 -15.41567 48.236767
-50.522824 -16.304194 49.073368
-49.684874 -15.916373 49.208473
-53.114036 -13.771063 45.367807
-52.232048 -14.341421 46.317063
-53.95935 -14.186892 45.221649
-53.114036 -13.771063 45.367807
-19.452168 -58.965539 79.844765
-19.432573 -57.632144 79.993302
-19.312058 -53.605564 80.632595
-19.281474 -52.275711 80.840465
-49.523781 -28.216246 65.748855
-49.080928 -29.157789 66.003086
-40.400049 -23.344205 63.471714
-40.428505 -24.260413 64.107639
-39.8216 -23.906878 64.265915
-41.920936 -21.703501 60.849129
-41.43436 -22.237507 61.759514
-41.288868 -21.363177 60.999779
-43.340454 -19.33274 57.209004
-42.802949 -18.884403 57.539528
-44.040573 -19.676551 57.068115
-43.486404 -20.157111 58.046166
-43.340454 -19.33274 57.209004
-44.632471 -19.205507 56.094167
-44.778421 -20.029878 56.93133
-44.040573 -19.676551 57.068115
-46.603589 -17.827895 53.127594
-45.910006 -18.289831 54.117241
-47.326555 -17.374853 52.139679
-47.406008 -18.200257 52.995865
-46.603589 -17.827895 53.127594
-48.087136 -16.896115 51.15875
-47.326555 -17.374853 52.139679
-33.6635 -37.314667 77.240761
-33.144339 -38.069717 77.437355
-32.422924 -37.617821 77.725479
-37.328305 -36.269821 75.700016
-36.121172 -36.647316 76.228534
-36.663714 -35.847481 76.017181
-38.468327 -35.862988 75.128579
-37.328305 -36.269821 75.700016
-41.719224 -34.43356 73.281227
-40.668125 -34.946754 73.91822
-41.195783 -34.065861 73.694962
-42.69424 -33.902721 72.584355
-41.719224 -34.43356 73.281227
-45.398369 -32.148482 70.357597
-44.535347 -32.755218 71.122475
-45.023628 -31.805723 70.892471
-46.197186 -31.546074 69.534317
-45.398369 -32.148482 70.357597
-48.411171 -29.730441 66.936657
-47.701375 -30.328378 67.825344
-48.153194 -29.3677 67.582451
-49.080928 -29.157789 66.003086
-48.411171 -29.730441 66.936657
-13.628764 -37.607956 84.119007
-14.77441 -37.330745 83.461849
-13.299753 -38.503339 84.700901
-12.510375 -37.944486 84.743393
-13.628764 -37.607956 84.119007
-53.448353 -25.983111 58.893953
-53.294369 -25.488046 59.665934
-54.051287 -25.669365 57.816272
-53.448353 -25.983111 58.893953
-57.782128 -24.231775 51.295269
-58.283169 -23.356741 50.935493
-59.519204 -16.569152 45.109465
-58.663303 -16.112512 45.154631
-59.853933 -20.546205 48.153698
-59.16511 -20.858996 49.222769
-59.383786 -19.993828 48.554686
-19.182623 -64.17316 79.07647
-19.31586 -62.900288 79.256279
-26.660919 -47.535797 76.294037
-26.939335 -46.365043 76.622108
-27.663441 -47.169533 75.746803
-25.734393 -47.934894 76.87896
-26.660919 -47.535797 76.294037
-3.940886 -50.057602 71.904072
-4.251539 -49.930077 70.530117
-1.728804 -48.013345 82.224243
-1.658176 -47.962006 83.350868
-3.354839 -57.879711 76.552128
-3.398039 -56.846393 75.997467
-3.474855 -56.8587 77.295902
-3.237668 -58.90238 77.048717
-3.354839 -57.879711 76.552128
-3.684273 -59.793444 79.825531
-3.743269 -60.74807 80.104988
-7.09654 -63.364151 82.845405
-7.847105 -63.027685 83.205356
-7.63515 -64.16078 82.421886
-6.649407 -62.539168 83.135807
-7.09654 -63.364151 82.845405
-4.755122 -51.742605 66.485191
-4.820617 -50.696811 67.146324
-4.550056 -51.932092 67.846588
-4.874114 -51.536247 65.135025
-4.755122 -51.742605 66.485191
-22.618091 -33.184397 77.668548
-22.106703 -33.922485 78.318993
-21.364415 -33.349726 78.284248
-23.852379 -33.054331 77.024002
-22.618091 -33.184397 77.668548
-23.110092 -32.481571 76.989258
-21.364415 -33.349726 78.284248
-20.150849 -33.48447 78.959655
-32.614767 -40.316572 76.687851
-31.410682 -40.615558 77.170547
-32.007551 -39.718927 77.386368
-33.14337 -40.887886 75.958046
-32.614767 -40.316572 76.687851
-32.520439 -41.856094 75.604851
-33.14337 -40.887886 75.958046
-14.368712 -66.503777 80.236584
-13.424526 -66.946976 80.338245
-13.658138 -65.721382 80.757058
-14.368712 -66.503777 80.236584
-15.348141 -66.059616 80.113308
-19.399625 -56.288031 80.218373
-19.432573 -57.632144 79.993302
-18.540762 -56.790388 80.736439
-41.297859 -20.386073 60.438269
-41.288868 -21.363177 60.999779
-16.319724 -36.243775 82.201023
-16.760652 -35.417175 81.566108
-15.943103 -37.026161 82.839481
-16.319724 -36.243775 82.201023
-17.132148 -36.775253 82.193321
-15.586835 -37.862224 83.454147
-14.77441 -37.330745 83.461849
-15.943103 -37.026161 82.839481
-52.297869 -25.441817 61.268111
-51.680872 -25.862068 62.306239
-52.927033 -25.051199 60.222156
-52.297869 -25.441817 61.268111
-52.544329 -24.652501 60.753298
-53.540829 -24.69873 59.151121
-53.294369 -25.488046 59.665934
-52.927033 -25.051199 60.222156
-58.621471 -22.535723 50.420175
-58.283169 -23.356741 50.935493
-57.984123 -22.750286 51.501917
-60.995537 -17.583118 44.844522
-60.284537 -17.040676 44.98794
-60.857706 -18.506397 45.626757
-60.995537 -17.583118 44.844522
-61.58159 -18.156994 44.586167
-61.19748 -19.997384 46.028412
-60.511904 -20.297765 47.087019
-60.758184 -19.380654 46.427008
-61.19748 -19.997384 46.028412
-61.852684 -19.773218 44.977673
-28.586662 -46.783329 75.168942
-28.944918 -45.643765 75.536712
-29.589723 -46.428314 74.630779
-27.663441 -47.169533 75.746803
-28.586662 -46.783329 75.168942
-2.565983 -50.350571 81.144406
-2.186001 -49.202212 81.676106
-2.478088 -50.305803 82.329849
-2.638777 -50.385481 79.914925
-2.565983 -50.350571 81.144406
-2.930864 -51.489073 80.568669
-2.81959 -50.376711 78.638833
-2.638777 -50.385481 79.914925
-3.151738 -51.506574 78.032158
-2.967669 -50.359302 77.331803
-2.81959 -50.376711 78.638833
-4.127574 -60.629122 81.107956
-4.298203 -59.563864 81.920338
-4.476636 -60.478756 82.083011
-3.743269 -60.74807 80.104988
-4.127574 -60.629122 81.107956
-8.982232 -64.616297 82.293903
-9.187636 -63.427864 82.951137
-9.784153 -64.219846 82.463203
-8.154711 -64.974538 82.040641
-8.982232 -64.616297 82.293903
-7.63515 -64.16078 82.421886
-8.154711 -64.974538 82.040641
-19.267198 -50.966717 81.094684
-19.281474 -52.275711 80.840465
-18.410201 -51.458103 81.701256
-19.289719 -49.676834 81.334869
-18.438823 -48.898727 82.197754
-19.332616 -48.426452 81.577148
-19.267198 -50.966717 81.094684
-19.289719 -49.676834 81.334869
-5.5969 -46.517523 63.702307
-5.303168 -46.781719 65.018361
-5.63497 -47.606125 63.086758
-5.779638 -46.227156 62.406748
-5.5969 -46.517523 63.702307
-5.394157 -48.954792 63.758341
-5.238958 -49.201908 65.083622
-5.180883 -50.260208 64.459646
-5.63497 -47.606125 63.086758
-5.394157 -48.954792 63.758341
-17.954426 -35.219147 80.891968
-16.760652 -35.417175 81.566108
-18.736047 -35.767981 80.93346
-17.954426 -35.219147 80.891968
-19.181703 -34.994261 80.270565
-31.4807 -45.693783 73.500717
-30.494535 -46.047661 74.047539
-30.934144 -44.934872 74.451729
-2.733002 -44.069755 88.912391
-2.624188 -42.874809 88.874157
-3.308946 -43.764686 89.091763
-2.242015 -44.403921 88.592514
-2.733002 -44.069755 88.912391
-2.926773 -45.293798 88.810119
-1.810201 -44.650453 88.166195
-2.242015 -44.403921 88.592514
-1.462276 -44.914764 87.603958
-1.810201 -44.650453 88.166195
-2.087861 -45.892275 87.928005
-1.183338 -45.095482 86.939205
-1.462276 -44.914764 87.603958
-1.183338 -45.095482 86.939205
-1.538512 -46.345574 86.579735
-1.682723 -47.85142 84.406509
-1.742144 -47.735416 85.383266
-2.122653 -49.046858 83.917191
-1.658176 -47.962006 83.350868
-1.682723 -47.85142 84.406509
-10.448733 -65.001556 81.88945
-9.784153 -64.219846 82.463203
-10.654138 -63.813123 82.546684
-10.448733 -65.001556 81.88945
-11.09119 -65.792884 81.388893
-12.457584 -67.366439 80.349075
-13.424526 -66.946976 80.338245
-39.262249 -24.443364 65.072243
-39.190905 -25.360786 65.639965
-38.603098 -24.981064 65.810367
-39.8216 -23.906878 64.265915
-39.262249 -24.443364 65.072243
-24.932046 -30.203922 75.437348
-24.258545 -30.992061 75.854523
-26.093377 -30.127535 74.739227
-24.932046 -30.203922 75.437348
-25.563564 -29.438864 74.995224
-27.42402 -28.556114 74.008965
-26.315782 -28.619903 74.725411
-27.87079 -29.252072 73.623176
-27.42402 -28.556114 74.008965
-28.569916 -28.44571 73.335037
-31.774524 -27.988182 71.294548
-30.754615 -28.168642 71.981834
-32.287323 -28.573288 71.001266
-31.774524 -27.988182 71.294548
-32.825155 -27.749813 70.653358
-35.585903 -26.809265 68.634537
-34.736879 -27.162191 69.327851
-36.142605 -27.277848 68.4184
-35.585903 -26.809265 68.634537
-36.454041 -26.399415 67.976368
-51.369742 -14.873088 47.279339
-50.514082 -15.41567 48.236767
-50.531791 -14.485266 47.414444
-52.214338 -15.271825 47.139386
-51.369742 -14.873088 47.279339
-52.232048 -14.341421 46.317063
-54.911811 -14.550837 45.198135
-54.029106 -15.104104 46.153595
-53.95935 -14.186892 45.221649
-55.846157 -14.945232 45.159868
-54.911811 -14.550837 45.198135
-19.397709 -61.601528 79.479328
-19.31586 -62.900288 79.256279
-18.470413 -62.089516 79.857456
-19.441444 -60.293667 79.629334
-18.562985 -59.462629 80.295937
-19.452168 -58.965539 79.844765
-19.397709 -61.601528 79.479328
-19.441444 -60.293667 79.629334
-19.353726 -54.945153 80.389831
-18.466145 -54.106685 81.204273
-19.312058 -53.605564 80.632595
-19.399625 -56.288031 80.218373
-19.353726 -54.945153 80.389831
-3.905672 -42.219391 88.998268
-3.244903 -41.361832 88.929158
-8.889023 -40.937145 87.508213
-9.066899 -39.950897 87.05265
-9.882219 -40.554211 86.976192
-7.956207 -41.380738 87.969516
-8.889023 -40.937145 87.508213
-8.771527 -41.984051 87.893058
-7.042955 -41.769695 88.389438
-7.956207 -41.380738 87.969516
-6.198174 -42.215896 88.714142
-7.042955 -41.769695 88.389438
-6.993929 -42.873844 88.679066
-5.38018 -42.594543 88.973388
-6.198174 -42.215896 88.714142
-4.638165 -43.023493 89.115036
-5.38018 -42.594543 88.973388
-5.407133 -43.748994 89.145417
-3.932625 -43.373842 89.170296
-3.905672 -42.219391 88.998268
-4.638165 -43.023493 89.115036
-49.767969 -27.336169 65.263469
-49.523781 -28.216246 65.748855
-49.10718 -27.889686 66.208378
-50.417507 -26.81065 64.307359
-49.767969 -27.336169 65.263469
-50.000906 -26.48409 64.766882
-51.048512 -26.319794 63.311999
-50.417507 -26.81065 64.307359
-51.282804 -25.500844 62.805012
-51.680872 -25.862068 62.306239
-51.048512 -26.319794 63.311999
-40.904623 -22.797463 62.611801
-40.400049 -23.344205 63.471714
-41.536692 -23.137786 62.461151
-40.904623 -22.797463 62.611801
-41.43436 -22.237507 61.759514
-41.775295 -19.8774 59.477318
-41.297859 -20.386073 60.438269
-42.280715 -19.369465 58.526148
-42.802949 -18.884403 57.539528
-42.280864 -20.321236 59.138224
-41.775295 -19.8774 59.477318
-42.280715 -19.369465 58.526148
-45.253645 -18.742598 55.104042
-44.632471 -19.205507 56.094167
-46.02668 -19.106067 54.970581
-45.253645 -18.742598 55.104042
-45.910006 -18.289831 54.117241
-48.869456 -16.424956 50.177312
-48.911295 -17.276056 51.026512
-48.087136 -16.896115 51.15875
-49.684874 -15.916373 49.208473
-48.869456 -16.424956 50.177312
-32.557699 -38.896406 77.412872
-32.007551 -39.718927 77.386368
-31.353614 -39.195392 77.895568
-32.557699 -38.896406 77.412872
-33.144339 -38.069717 77.437355
-24.90312 -31.622049 75.763031
-23.699806 -31.721516 76.436203
-24.258545 -30.992061 75.854523
-34.920748 -36.995769 76.749168
-33.6635 -37.314667 77.240761
-34.199333 -36.543873 77.037293
-34.920748 -36.995769 76.749168
-36.121172 -36.647316 76.228534
-39.605245 -35.417523 74.550224
-38.468327 -35.862988 75.128579
-39.007765 -35.024521 74.910309
-39.605245 -35.417523 74.550224
-40.668125 -34.946754 73.91822
-43.651102 -33.332619 71.884045
-42.69424 -33.902721 72.584355
-43.203744 -32.982563 72.357658
-43.651102 -33.332619 71.884045
-44.535347 -32.755218 71.122475
-46.97556 -30.9294 68.706089
-46.197186 -31.546074 69.534317
-46.665024 -30.582312 69.299366
-46.97556 -30.9294 68.706089
-47.701375 -30.328378 67.825344
-10.35363 -38.608744 85.986076
-9.315266 -38.925308 86.585491
-11.414264 -38.244698 85.388405
-12.510375 -37.944486 84.743393
-11.120729 -39.203916 85.922958
-10.35363 -38.608744 85.986076
-11.414264 -38.244698 85.388405
-4.031163 -54.306233 69.238666
-3.951874 -54.430821 70.620957
-54.667997 -25.373215 56.724119
-54.051287 -25.669365 57.816272
-54.524875 -24.839428 57.502744
-54.803833 -25.946317 55.951093
-54.667997 -25.373215 56.724119
-55.277422 -25.11638 55.637565
-54.765165 -26.569663 55.009127
-54.803833 -25.946317 55.951093
-55.387759 -26.354313 53.960117
-54.765165 -26.569663 55.009127
-56.007538 -26.140042 52.878544
-55.387759 -26.354313 53.960117
-56.033037 -25.475212 53.782967
-56.649624 -25.96986 51.850666
-56.007538 -26.140042 52.878544
-57.285625 -25.076594 51.637348
-57.149319 -24.416123 52.359314
-57.782128 -24.231775 51.295269
-56.649624 -25.96986 51.850666
-57.285625 -25.076594 51.637348
-57.757506 -15.714032 45.173832
-56.820068 -15.307465 45.17811
-57.835188 -16.590993 46.147363
-57.757506 -15.714032 45.173832
-58.663303 -16.112512 45.154631
-59.506319 -17.460997 46.006637
-59.519204 -16.569152 45.109465
-60.284537 -17.040676 44.98794
-58.978842 -21.670321 49.90419
-58.508694 -21.117944 50.305177
-59.16511 -20.858996 49.222769
-58.621471 -22.535723 50.420175
-58.978842 -21.670321 49.90419
-59.853933 -20.546205 48.153698
-60.511904 -20.297765 47.087019
-18.219197 -64.651047 79.382542
-17.275714 -65.130814 79.683071
-17.445082 -63.868042 79.934936
-18.219197 -64.651047 79.382542
-19.182623 -64.17316 79.07647
-22.209222 -47.133544 79.754967
-21.21353 -47.54183 80.349114
-21.382213 -46.351416 80.614555
-23.001524 -47.913166 78.897289
-22.209222 -47.133544 79.754967
-23.170207 -46.722752 79.162732
-23.829704 -48.738005 78.044735
-23.001524 -47.913166 78.897289
-24.747241 -48.320427 77.446815
-24.949661 -47.11684 77.737198
-25.734393 -47.934894 76.87896
-23.829704 -48.738005 78.044735
-24.747241 -48.320427 77.446815
-32.871758 -44.216622 73.328827
-32.471644 -43.539989 74.321289
-32.351292 -45.309698 72.895179
-32.871758 -44.216622 73.328827
-31.4807 -45.693783 73.500717
-32.351292 -45.309698 72.895179
-4.694619 -47.211143 67.708443
-5.04816 -47.007507 66.359016
-4.644407 -48.519806 68.429779
-4.694619 -47.211143 67.708443
-4.481075 -49.788922 69.151825
-4.778883 -49.617183 67.785675
-4.644407 -48.519806 68.429779
-4.386016 -51.027455 69.886013
-4.481075 -49.788922 69.151825
-4.251539 -49.930077 70.530117
-2.579962 -41.622873 88.898517
-2.624188 -42.874809 88.874157
-1.728804 -48.013345 82.224243
-2.186001 -49.202212 81.676106
-3.218161 -50.307369 75.998504
-2.967669 -50.359302 77.331803
-3.418584 -50.24686 74.644478
-3.218161 -50.307369 75.998504
-3.500241 -51.428657 75.371102
-3.712976 -50.157371 73.280457
-3.418584 -50.24686 74.644478
-3.928572 -51.26838 72.64069
-3.940886 -50.057602 71.904072
-3.712976 -50.157371 73.280457
-3.800699 -54.542835 72.003685
-3.951874 -54.430821 70.620957
-4.041602 -53.401382 71.320915
-3.645905 -55.656313 72.678787
-3.800699 -54.542835 72.003685
-3.735633 -54.626875 73.378746
-3.402682 -56.74749 73.303207
-3.645905 -55.656313 72.678787
-3.429431 -56.803879 74.653771
-3.549447 -55.782867 75.397545
-3.398039 -56.846393 75.997467
-3.402682 -56.74749 73.303207
-3.429431 -56.803879 74.653771
-3.568095 -58.841092 79.492859
-3.832963 -58.761877 80.61261
-3.684273 -59.793444 79.825531
-3.425529 -58.882338 78.278171
-3.574219 -57.850771 79.06525
-3.568095 -58.841092 79.492859
-3.237668 -58.90238 77.048717
-3.425529 -58.882338 78.278171
-6.172536 -61.730147 83.436718
-6.831624 -61.422035 83.929787
-6.649407 -62.539168 83.135807
-5.619341 -62.00284 82.79327
-5.801557 -60.885707 83.58725
-6.172536 -61.730147 83.436718
-5.03611 -62.235774 82.101513
-5.619341 -62.00284 82.79327
-4.338669 -53.133627 68.561821
-4.031163 -54.306233 69.238666
3 0 87 85
3 0 90 88
3 0 85 90
3 1 342 344
3 344 343 92
3 342 343 344
3 2 96 94
3 345 98 346
3 2 101 99
3 2 94 101
3 3 105 103
3 4 347 348
3 5 109 107
3 5 111 109
3 5 113 111
3 4 116 114
3 4 349 351
3 351 350 116
3 349 350 351
3 7 119 117
3 8 352 353
3 10 122 120
3 10 124 122
3 10 126 124
3 7 129 127
3 7 117 129
3 12 133 131
3 14 136 134
3 14 138 136
3 15 141 139
3 17 144 142
3 17 146 144
3 6 149 147
3 18 152 150
3 18 154 152
3 18 156 154
3 12 159 157
3 12 131 159
3 15 162 161
3 15 139 162
3 13 165 164
3 19 168 166
3 19 170 168
3 354 173 355
3 356 355 171
3 354 355 356
3 357 175 358
3 361 360 175
3 359 360 361
3 16 178 176
3 363 362 179
3 9 364 365
3 20 182 181
3 20 184 182
3 20 186 184
3 21 366 368
3 368 367 187
3 366 367 368
3 21 369 370
3 11 191 189
3 22 195 193
3 23 371 373
3 373 372 86
3 371 372 373
3 23 374 375
3 24 198 196
3 26 199 89
3 26 200 199
3 26 202 200
3 22 203 91
3 22 193 203
3 28 376 378
3 376 204 377
3 376 377 378
3 380 379 93
3 29 207 205
3 31 208 95
3 31 209 208
3 32 212 210
3 34 213 97
3 34 214 213
3 35 217 215
3 37 218 100
3 37 219 218
3 37 221 219
3 29 222 102
3 29 205 222
3 32 381 382
3 32 383 385
3 383 210 384
3 383 384 385
3 39 225 223
3 41 226 104
3 41 227 226
3 42 230 228
3 386 231 387
3 388 387 106
3 386 387 388
3 389 232 390
3 391 390 231
3 389 390 391
3 44 234 233
3 45 235 108
3 45 392 394
3 394 393 235
3 392 393 394
3 45 395 397
3 395 236 396
3 395 396 397
3 47 237 110
3 47 238 237
3 47 240 238
3 49 241 112
3 49 242 241
3 50 245 243
3 52 246 115
3 52 398 400
3 400 399 246
3 398 399 400
3 52 401 402
3 404 403 247
3 405 250 406
3 407 251 408
3 409 252 410
3 411 410 251
3 409 410 411
3 412 253 413
3 414 254 415
3 416 415 253
3 414 415 416
3 417 255 418
3 419 247 420
3 421 420 255
3 419 420 421
3 422 258 423
3 424 423 256
3 422 423 424
3 425 259 426
3 428 427 259
3 55 262 260
3 430 429 118
3 432 431 194
3 25 263 197
3 56 264 121
3 56 265 264
3 56 266 265
3 57 267 123
3 57 268 267
3 57 270 268
3 59 271 125
3 59 272 271
3 27 273 201
3 60 274 128
3 60 275 274
3 60 276 275
3 55 277 130
3 55 260 277
3 61 433 434
3 62 278 132
3 62 279 278
3 30 280 206
3 63 281 135
3 63 282 281
3 63 283 282
3 64 284 137
3 64 285 284
3 435 286 436
3 437 436 248
3 435 436 437
3 65 438 440
3 438 287 439
3 438 439 440
3 65 288 287
3 441 289 442
3 443 290 444
3 445 444 289
3 443 444 445
3 446 291 447
3 448 447 290
3 446 447 448
3 449 292 450
3 451 293 452
3 453 452 292
3 451 452 453
3 455 454 293
3 66 296 294
3 68 297 140
3 68 298 297
3 33 299 211
3 69 300 143
3 69 301 300
3 69 302 301
3 70 303 145
3 70 456 458
3 458 457 303
3 456 457 458
3 53 304 249
3 71 305 148
3 71 306 305
3 36 307 216
3 72 308 151
3 72 309 308
3 72 310 309
3 73 311 153
3 73 459 461
3 461 460 311
3 459 460 461
3 73 462 463
3 74 464 466
3 466 465 155
3 464 465 466
3 74 467 468
3 38 312 220
3 75 313 158
3 75 469 471
3 471 470 313
3 469 470 471
3 75 472 473
3 61 474 476
3 476 475 160
3 474 475 476
3 61 477 478
3 76 479 480
3 76 481 483
3 481 314 482
3 481 482 483
3 76 315 314
3 66 316 163
3 66 294 316
3 77 484 485
3 77 486 487
3 40 317 224
3 78 318 167
3 78 319 318
3 78 320 319
3 489 488 169
3 54 321 257
3 79 322 172
3 79 323 322
3 490 324 491
3 80 325 174
3 80 326 325
3 80 492 494
3 494 493 326
3 492 493 494
3 496 495 261
3 67 327 295
3 81 328 177
3 81 329 328
3 43 330 229
3 497 331 498
3 499 498 180
3 497 498 499
3 501 500 331
3 502 332 503
3 46 504 505
3 82 333 183
3 82 334 333
3 82 335 334
3 83 506 508
3 508 507 185
3 506 507 508
3 83 509 510
3 48 336 239
3 512 511 188
3 58 337 269
3 84 338 190
3 84 339 338
3 51 340 244
3 513 341 514
3 515 514 192
3 513 514 515
3 517 516 341
3 85 86 22
3 87 86 85
3 87 23 86
3 88 89 24
3 90 89 88
3 90 26 89
3 90 91 26
3 85 91 90
3 85 22 91
3 92 93 28
3 518 93 519
3 520 519 92
3 518 519 520
3 522 521 93
3 94 95 29
3 96 95 94
3 96 31 95
3 523 97 524
3 525 524 32
3 523 524 525
3 98 526 528
3 526 97 527
3 526 527 528
3 98 34 97
3 99 100 35
3 101 100 99
3 101 37 100
3 101 102 37
3 94 102 101
3 94 29 102
3 529 32 530
3 103 104 39
3 105 104 103
3 105 41 104
3 531 106 532
3 533 532 42
3 531 532 533
3 534 106 535
3 537 536 106
3 107 108 44
3 109 108 107
3 109 45 108
3 109 110 45
3 111 110 109
3 111 47 110
3 111 112 47
3 113 112 111
3 113 49 112
3 114 115 50
3 116 115 114
3 116 52 115
3 116 538 540
3 540 539 52
3 538 539 540
3 542 541 116
3 117 118 55
3 119 118 117
3 119 543 545
3 545 544 118
3 543 544 545
3 120 121 25
3 122 121 120
3 122 56 121
3 122 123 56
3 124 123 122
3 124 57 123
3 124 125 57
3 126 125 124
3 126 59 125
3 127 128 27
3 129 128 127
3 129 60 128
3 129 130 60
3 117 130 129
3 117 55 130
3 131 132 61
3 133 132 131
3 133 62 132
3 134 135 30
3 136 135 134
3 136 63 135
3 136 137 63
3 138 137 136
3 138 64 137
3 546 65 547
3 139 140 66
3 141 140 139
3 141 68 140
3 142 143 33
3 144 143 142
3 144 69 143
3 144 145 69
3 146 145 144
3 146 70 145
3 147 148 53
3 149 148 147
3 149 71 148
3 150 151 36
3 152 151 150
3 152 72 151
3 152 153 72
3 154 153 152
3 154 73 153
3 154 155 73
3 156 155 154
3 156 74 155
3 157 158 38
3 159 158 157
3 159 75 158
3 159 160 75
3 131 160 159
3 131 61 160
3 161 548 549
3 162 550 552
3 552 551 161
3 550 551 552
3 162 553 555
3 553 76 554
3 553 554 555
3 162 163 76
3 139 163 162
3 139 66 163
3 164 556 557
3 165 558 560
3 560 559 164
3 558 559 560
3 165 561 563
3 561 77 562
3 561 562 563
3 166 167 40
3 168 167 166
3 168 78 167
3 168 169 78
3 170 169 168
3 170 564 566
3 566 565 169
3 564 565 566
3 171 172 54
3 173 172 171
3 173 79 172
3 567 174 568
3 175 569 571
3 569 174 570
3 569 570 571
3 175 80 174
3 175 572 574
3 574 573 80
3 572 573 574
3 576 575 175
3 176 177 67
3 178 177 176
3 178 81 177
3 179 180 43
3 577 180 578
3 579 578 179
3 577 578 579
3 581 580 180
3 181 582 584
3 584 583 46
3 582 583 584
3 182 585 587
3 587 586 181
3 585 586 587
3 182 588 589
3 182 590 592
3 590 183 591
3 590 591 592
3 184 183 182
3 184 82 183
3 184 185 82
3 186 185 184
3 186 83 185
3 187 188 48
3 593 188 594
3 595 594 187
3 593 594 595
3 597 596 188
3 189 190 58
3 191 190 189
3 191 84 190
3 598 192 599
3 600 599 51
3 598 599 600
3 601 192 602
3 604 603 192
3 193 194 7
3 195 194 193
3 195 605 607
3 607 606 194
3 605 606 607
3 86 195 22
3 608 195 609
3 610 609 86
3 608 609 610
3 612 611 195
3 196 197 8
3 198 197 196
3 198 25 197
3 89 198 24
3 199 198 89
3 199 25 198
3 199 120 25
3 200 120 199
3 200 10 120
3 200 201 10
3 202 201 200
3 202 27 201
3 91 202 26
3 203 202 91
3 203 27 202
3 203 127 27
3 193 127 203
3 193 7 127
3 204 613 614
3 204 615 617
3 615 616 617
3 93 204 28
3 618 204 619
3 620 619 93
3 618 619 620
3 622 621 204
3 205 206 12
3 207 206 205
3 207 30 206
3 95 207 29
3 208 207 95
3 208 30 207
3 208 134 30
3 209 134 208
3 209 14 134
3 210 211 15
3 212 211 210
3 212 33 211
3 97 212 32
3 213 212 97
3 213 33 212
3 213 142 33
3 214 142 213
3 214 17 142
3 215 216 6
3 217 216 215
3 217 36 216
3 100 217 35
3 218 217 100
3 218 36 217
3 218 150 36
3 219 150 218
3 219 18 150
3 219 220 18
3 221 220 219
3 221 38 220
3 102 221 37
3 222 221 102
3 222 38 221
3 222 157 38
3 205 157 222
3 205 12 157
3 623 161 624
3 210 625 627
3 625 161 626
3 625 626 627
3 210 15 161
3 223 224 13
3 225 224 223
3 225 40 224
3 104 225 39
3 226 225 104
3 226 40 225
3 226 166 40
3 227 166 226
3 227 19 166
3 228 229 16
3 230 229 228
3 230 43 229
3 106 230 42
3 231 230 106
3 231 43 230
3 231 179 43
3 232 179 231
3 232 628 630
3 630 629 179
3 628 629 630
3 233 631 633
3 633 632 9
3 631 632 633
3 234 634 636
3 636 635 233
3 634 635 636
3 234 637 638
3 108 234 44
3 235 234 108
3 235 639 641
3 641 640 234
3 639 640 641
3 235 642 643
3 645 644 235
3 236 646 647
3 236 648 650
3 648 46 649
3 648 649 650
3 110 236 45
3 237 236 110
3 237 46 236
3 237 181 46
3 238 181 237
3 238 20 181
3 238 239 20
3 240 239 238
3 240 48 239
3 112 240 47
3 241 240 112
3 241 48 240
3 241 187 48
3 242 187 241
3 242 21 187
3 243 244 11
3 245 244 243
3 245 51 244
3 115 245 50
3 246 245 115
3 246 51 245
3 246 651 653
3 653 652 51
3 651 652 653
3 655 654 246
3 657 656 52
3 247 248 2
3 658 248 659
3 660 659 247
3 658 659 660
3 662 661 248
3 663 249 664
3 250 665 667
3 665 249 666
3 665 666 667
3 250 53 249
3 668 250 669
3 251 670 672
3 670 250 671
3 670 671 672
3 251 53 250
3 251 147 53
3 252 147 251
3 252 6 147
3 673 252 674
3 253 675 677
3 675 252 676
3 675 676 677
3 253 6 252
3 253 215 6
3 254 215 253
3 254 35 215
3 678 254 679
3 255 680 682
3 680 254 681
3 680 681 682
3 255 35 254
3 255 99 35
3 247 99 255
3 247 2 99
3 256 257 3
3 258 257 256
3 258 54 257
3 683 258 684
3 683 684 685
3 259 686 688
3 686 258 687
3 686 687 688
3 259 54 258
3 259 171 54
3 689 171 690
3 691 690 259
3 689 690 691
3 693 692 171
3 260 261 4
3 262 261 260
3 262 694 696
3 696 695 261
3 694 695 696
3 118 262 55
3 697 262 698
3 699 698 118
3 697 698 699
3 701 700 262
3 194 119 7
3 702 119 703
3 704 703 194
3 702 703 704
3 706 705 119
3 707 9 708
3 197 709 711
3 711 710 8
3 709 710 711
3 263 712 714
3 714 713 197
3 712 713 714
3 263 715 716
3 121 263 25
3 264 263 121
3 264 717 719
3 719 718 263
3 717 718 719
3 264 720 721
3 265 722 724
3 724 723 264
3 722 723 724
3 265 725 727
3 725 9 726
3 725 726 727
3 265 233 9
3 266 233 265
3 266 44 233
3 123 266 56
3 267 266 123
3 267 44 266
3 267 107 44
3 268 107 267
3 268 5 107
3 268 269 5
3 270 269 268
3 270 58 269
3 125 270 57
3 271 270 125
3 271 58 270
3 271 189 58
3 272 189 271
3 272 11 189
3 201 126 10
3 273 126 201
3 273 59 126
3 128 273 27
3 274 273 128
3 274 59 273
3 274 272 59
3 275 272 274
3 275 11 272
3 275 243 11
3 276 243 275
3 276 50 243
3 130 276 60
3 277 276 130
3 277 50 276
3 277 114 50
3 260 114 277
3 260 4 114
3 132 728 730
3 730 729 61
3 728 729 730
3 278 731 733
3 733 732 132
3 731 732 733
3 278 734 735
3 278 736 738
3 736 164 737
3 736 737 738
3 279 164 278
3 279 13 164
3 206 133 12
3 280 133 206
3 280 62 133
3 135 280 30
3 281 280 135
3 281 62 280
3 281 279 62
3 282 279 281
3 282 13 279
3 282 223 13
3 283 223 282
3 283 39 223
3 137 283 63
3 284 283 137
3 284 39 283
3 284 103 39
3 285 103 284
3 285 3 103
3 248 96 2
3 286 96 248
3 286 31 96
3 739 286 740
3 287 741 743
3 741 286 742
3 741 742 743
3 287 31 286
3 287 209 31
3 288 209 287
3 288 14 209
3 744 65 745
3 289 746 747
3 289 748 750
3 748 65 749
3 748 749 750
3 289 288 65
3 290 288 289
3 290 14 288
3 290 138 14
3 291 138 290
3 291 64 138
3 751 291 752
3 292 753 755
3 753 291 754
3 753 754 755
3 292 64 291
3 292 285 64
3 293 285 292
3 293 3 285
3 293 256 3
3 756 256 757
3 758 757 293
3 756 757 758
3 760 759 256
3 294 295 0
3 296 295 294
3 296 67 295
3 140 296 66
3 297 296 140
3 297 67 296
3 297 176 67
3 298 176 297
3 298 16 176
3 211 141 15
3 299 141 211
3 299 68 141
3 143 299 33
3 300 299 143
3 300 68 299
3 300 298 68
3 301 298 300
3 301 16 298
3 301 228 16
3 302 228 301
3 302 42 228
3 145 302 69
3 303 302 145
3 303 42 302
3 303 761 763
3 763 762 42
3 761 762 763
3 765 764 303
3 249 766 768
3 766 98 767
3 766 767 768
3 304 98 249
3 304 34 98
3 148 304 53
3 305 304 148
3 305 34 304
3 305 214 34
3 306 214 305
3 306 17 214
3 216 149 6
3 307 149 216
3 307 71 149
3 151 307 36
3 308 307 151
3 308 71 307
3 308 306 71
3 309 306 308
3 309 17 306
3 309 146 17
3 310 146 309
3 310 70 146
3 153 310 72
3 311 310 153
3 311 70 310
3 311 769 771
3 771 770 70
3 769 770 771
3 773 772 311
3 155 774 776
3 776 775 73
3 774 775 776
3 778 777 155
3 220 156 18
3 312 156 220
3 312 74 156
3 158 312 38
3 313 312 158
3 313 74 312
3 313 779 781
3 781 780 74
3 779 780 781
3 783 782 313
3 160 784 786
3 786 785 75
3 784 785 786
3 788 787 160
3 789 8 790
3 314 791 792
3 314 793 795
3 793 8 794
3 793 794 795
3 314 196 8
3 315 196 314
3 315 24 196
3 163 315 76
3 316 315 163
3 316 24 315
3 316 88 24
3 294 88 316
3 294 0 88
3 797 796 1
3 224 165 13
3 317 165 224
3 317 77 165
3 167 317 40
3 318 317 167
3 318 77 317
3 318 798 800
3 800 799 77
3 798 799 800
3 319 801 803
3 803 802 318
3 801 802 803
3 319 804 805
3 319 806 807
3 320 808 810
3 810 809 319
3 808 809 810
3 320 811 812
3 169 320 78
3 813 320 814
3 815 814 169
3 813 814 815
3 817 816 320
3 257 105 3
3 321 105 257
3 321 41 105
3 172 321 54
3 322 321 172
3 322 41 321
3 322 227 41
3 323 227 322
3 323 19 227
3 818 173 819
3 324 820 822
3 820 173 821
3 820 821 822
3 324 79 173
3 174 823 825
3 823 324 824
3 823 824 825
3 325 324 174
3 325 79 324
3 325 323 79
3 326 323 325
3 326 19 323
3 326 170 19
3 826 170 827
3 828 827 326
3 826 827 828
3 830 829 170
3 832 831 80
3 261 833 835
3 835 834 4
3 833 834 835
3 837 836 261
3 295 87 0
3 327 87 295
3 327 23 87
3 177 327 67
3 328 327 177
3 328 23 327
3 328 838 840
3 840 839 23
3 838 839 840
3 329 841 843
3 843 842 328
3 841 842 843
3 329 844 845
3 229 178 16
3 330 178 229
3 330 81 178
3 180 330 43
3 331 330 180
3 331 81 330
3 331 329 81
3 846 329 847
3 848 847 331
3 846 847 848
3 850 849 329
3 851 232 852
3 853 232 854
3 856 855 232
3 857 28 858
3 859 28 860
3 861 92 862
3 863 862 28
3 861 862 863
3 332 864 866
3 864 92 865
3 864 865 866
3 332 1 92
3 868 867 9
3 870 869 46
3 183 871 872
3 333 873 875
3 875 874 183
3 873 874 875
3 333 876 877
3 333 878 880
3 878 332 879
3 878 879 880
3 334 332 333
3 334 1 332
3 334 881 883
3 883 882 1
3 881 882 883
3 335 884 886
3 886 885 334
3 884 885 886
3 335 887 888
3 185 335 82
3 889 335 890
3 891 890 185
3 889 890 891
3 893 892 335
3 239 186 20
3 336 186 239
3 336 83 186
3 188 336 48
3 894 336 895
3 896 895 188
3 894 895 896
3 897 83 898
3 899 898 336
3 897 898 899
3 901 900 83
3 269 113 5
3 337 113 269
3 337 49 113
3 190 337 58
3 338 337 190
3 338 49 337
3 338 242 49
3 339 242 338
3 339 21 242
3 244 191 11
3 340 191 244
3 340 84 191
3 192 340 51
3 341 340 192
3 341 84 340
3 341 339 84
3 902 339 903
3 904 903 341
3 902 903 904
3 905 21 906
3 907 906 339
3 905 906 907
3 909 908 21
3 911 910 1
