ply
format ascii 1.0
element vertex 598
property float x
property float y
property float z
element face 656
property list uchar int vertex_index
end_header
67.789528 -19.42757 -4.882795
55.463177 15.703011 -42.721413
63.965462 -0.755936 -21.70075
49.825195 18.684467 -40.687126
53.903431 9.561432 -51.073845
61.9795 -15.159016 -4.201662
62.7286 -5.35404 -12.15044
66.240753 -10.14474 -12.23649
56.666946 13.048172 -31.578508
64.499222 -20.014164 -12.483673
60.919006 4.468479 -21.606199
61.044731 8.403227 -32.319397
63.190933 -11.949158 -21.559767
63.413284 -3.071595 -31.696463
52.640049 18.416595 -42.03231
51.278419 17.87149 -47.359055
50.002312 14.938248 -51.713982
54.601601 13.550018 -47.498169
65.541794 -16.67967 -4.462595
65.636208 -11.783588 -7.978813
67.167519 -14.792255 -8.300333
53.37825 12.041252 -30.935751
55.764919 8.287928 -26.542128
64.345375 -1.95623 -16.558691
62.132408 -0.389553 -16.743315
63.079865 2.904829 -21.509916
61.415085 7.588531 -26.707346
62.676083 3.919903 -26.954645
62.202553 -22.10713 -16.28372
63.529869 -16.105694 -16.806616
62.554878 -18.272442 -20.782682
64.5354 -9.757874 -30.280653
46.948097 17.188286 -38.447586
62.673309 -10.292927 -7.950308
65.219803 -6.870772 -12.010786
65.141502 -5.465304 -16.737249
50.417259 15.066658 -34.987717
53.562653 16.346558 -36.356873
56.326569 15.60812 -37.163673
67.1968 -18.93733 -8.604527
62.734688 -25.615444 -12.110214
61.247261 -28.124676 -15.359861
57.537445 3.960196 -21.978415
59.106735 9.019344 -26.601233
59.223618 11.903868 -31.983774
58.724457 12.437592 -37.63102
65.864632 -14.713287 -12.482151
64.710243 -10.394635 -16.921347
63.839989 -5.936949 -21.831251
63.524567 -14.100807 -25.484938
63.305367 -7.552051 -26.577795
63.161491 -1.369673 -27.03137
62.336975 3.159151 -32.338257
54.048161 17.357162 -42.455193
51.974876 18.46838 -44.783745
53.473598 16.943413 -45.115555
52.908836 15.940781 -47.549759
55.015968 14.885284 -45.245506
66.851677 -17.913645 -4.670265
66.778801 -15.516396 -6.339413
67.524063 -17.110308 -6.536837
53.796394 7.450359 -26.358332
64.322556 -1.086798 -19.059416
63.759285 0.48698 -18.993235
63.672356 1.308258 -21.586927
62.959152 3.678213 -24.183455
63.344711 1.593655 -24.302916
62.276489 -20.234844 -18.499407
48.400551 18.060093 -39.701019
46.416218 18.720837 -41.36248
47.760895 19.411366 -42.578003
45.643669 17.073074 -53.242126
51.928349 12.413734 -51.537636
49.493576 12.766054 -53.422287
51.551708 10.052286 -53.057121
62.401962 -12.735678 -6.020411
66.303566 -10.715299 -10.040644
65.489853 -9.328835 -9.926815
65.918221 -8.310637 -12.099409
65.451591 -5.902764 -14.297066
65.704758 -7.809825 -14.420038
48.725395 14.162834 -33.943161
50.188568 12.747189 -32.211601
55.104267 12.75095 -31.316702
53.645164 14.420033 -33.591286
55.198296 14.802151 -34.005981
54.993965 16.286243 -36.807045
56.6091 14.636238 -34.328072
61.646065 -26.821552 -13.781019
61.064667 -29.736084 -13.305609
61.600677 2.064314 -19.149469
60.52803 -0.360233 -17.015284
60.029289 2.066389 -19.384005
59.364311 4.434208 -21.780344
58.537544 6.713205 -24.188868
60.088486 6.796 -24.096148
61.262688 8.261147 -29.495821
60.39679 9.806341 -29.346277
60.217323 10.420296 -32.168854
58.994537 12.447752 -34.825027
59.991493 10.495626 -34.991707
65.965813 -19.307405 -10.533207
66.520668 -16.832792 -10.473677
65.270477 -17.303551 -12.524118
63.285683 -14.061043 -19.138762
64.176399 -13.188217 -16.912546
63.805359 -11.058707 -19.288439
64.239838 -8.183664 -19.327829
63.546227 -8.877149 -21.75857
63.752045 -17.415812 -24.744028
64.49572 -15.305319 -27.03348
63.957939 -6.379697 -31.078821
63.708969 -8.591102 -28.586824
63.398056 -5.306206 -29.133074
63.247627 -4.388325 -26.885359
63.107506 -2.118835 -29.496874
62.797363 0.913996 -29.681616
62.88279 0.127003 -32.114983
51.235184 18.846653 -41.450874
48.920998 18.455372 -49.404633
48.165421 17.053505 -51.601128
50.607323 16.671108 -49.68502
52.386864 14.406391 -49.699959
54.228767 11.752665 -49.443085
63.899109 -15.756655 -4.294352
64.178322 -13.301428 -6.04356
65.653488 -14.234179 -6.162401
66.594116 -13.11694 -8.12319
66.734161 -12.47135 -10.196491
51.524837 11.14497 -30.353426
52.729065 9.374224 -28.395132
54.645935 10.246292 -28.769384
56.406933 10.895393 -28.97611
63.848625 -3.392674 -14.251102
62.510147 -2.868872 -14.404774
63.414574 -0.913193 -16.589777
62.851837 1.546427 -19.015841
62.163631 3.967701 -21.510717
61.348427 6.328239 -24.055254
62.302711 5.279408 -24.088236
62.165215 6.003992 -26.826975
61.924164 6.199621 -29.633768
63.14064 -20.975729 -14.417677
63.93615 -18.086754 -14.583599
62.848083 -19.092159 -16.596766
62.754105 -17.133772 -18.873953
62.841042 -15.095161 -21.231234
65.153175 -13.180582 -29.338354
65.629303 -11.087871 -31.657747
64.829781 -7.620414 -32.693352
64.041847 -4.212818 -33.57177
45.454914 16.341133 -36.897537
43.682922 17.049793 -38.048706
45.065815 17.841827 -39.854645
47.508652 15.133537 -53.485855
62.783417 -7.83133 -9.995237
64.315491 -10.835822 -7.90876
64.305115 -8.360764 -9.899748
64.14782 -5.878158 -12.016562
64.834976 -4.411613 -14.225552
64.916565 -3.493326 -16.622702
64.561172 -3.11234 -19.171206
47.14307 15.369572 -35.51683
48.739494 16.253601 -36.810799
50.281044 17.102516 -37.821541
51.966629 13.65469 -33.01799
52.034348 15.879322 -35.771156
51.766827 17.651501 -38.597511
53.198845 17.701668 -39.194061
54.580177 17.143421 -39.653374
55.917496 15.956398 -39.995682
68.334389 -21.182558 -5.069456
67.880577 -18.967167 -6.719448
67.86264 -21.03619 -6.857355
66.722565 -21.291771 -8.673384
65.197556 -21.902071 -10.510778
63.628685 -22.796854 -12.348471
62.355507 -23.896029 -14.150843
61.653614 -25.123381 -15.870771
63.490692 -18.199697 -2.641127
65.308044 -19.117655 -2.853916
66.812561 -20.306616 -3.085075
66.667427 -22.689857 -1.543482
67.95475 -21.743752 -3.303665
56.730579 6.185114 -24.273138
57.551487 8.87528 -26.593397
57.968323 11.11195 -29.102327
60.398598 8.602703 -26.629995
59.301567 10.764294 -29.214808
58.042664 12.785213 -31.788546
57.872421 13.8493 -34.597694
57.566414 14.306339 -37.442284
57.217533 14.187481 -40.216034
67.359924 -16.752205 -8.471382
66.794823 -14.532999 -10.352463
66.208519 -12.303688 -12.376837
64.667221 -15.267439 -14.652569
65.254837 -12.56971 -14.63393
65.622726 -10.058689 -14.546272
65.054779 -7.793775 -16.851885
64.514702 -5.50726 -19.27677
64.002098 -3.201441 -21.799074
62.992683 -16.222898 -23.116426
63.07048 -12.980146 -23.648283
64.069199 -11.933146 -27.87591
63.384567 -10.803409 -26.105654
63.214149 -9.77467 -24.046835
63.374359 -6.648967 -24.298784
63.492165 -3.660894 -24.407156
63.503464 -0.884224 -24.394846
62.990356 1.42951 -27.040251
62.41983 3.717205 -29.712862
61.738106 5.948853 -32.392242
60.88763 8.088106 -35.059875
46.049395 17.87177 -52.220497
44.79294 17.78667 -52.963665
53.770349 8.309332 -51.736892
52.594488 8.554759 -52.728531
52.72757 9.806859 -52.065483
62.190731 -13.947347 -5.111036
61.12643 -13.805037 -5.118113
60.915199 -15.016706 -4.208738
49.889204 11.54371 -30.852288
49.266419 12.36545 -31.661044
61.102598 -30.501368 -12.303061
61.475315 -29.090252 -12.534145
61.866672 -5.315156 -12.286635
61.851685 -6.537413 -11.190555
65.152352 -15.968528 -27.66552
64.744812 -16.997709 -26.566197
51.58299 18.902629 -43.145404
50.880558 19.117658 -42.854686
51.937616 18.631624 -41.741592
50.503498 18.561909 -47.147736
50.851726 18.860354 -45.860081
51.626648 18.169935 -46.0714
50.099708 18.163431 -48.381844
49.324787 18.85385 -48.170525
50.503498 18.561909 -47.147736
52.219314 7.99447 -27.170172
51.720743 8.959943 -28.080053
66.203045 -11.866231 -32.206849
66.03014 -12.844202 -31.086309
64.84803 -6.594426 -33.901612
65.334064 -8.348058 -33.342602
64.454064 -4.890629 -34.34082
64.435814 -5.916616 -33.132561
64.84803 -6.594426 -33.901612
63.959335 -3.174779 -34.814873
64.454064 -4.890629 -34.34082
45.388874 18.888142 -42.059147
46.011801 19.260214 -42.789932
48.239254 12.785551 -54.229408
49.298752 11.513485 -54.11087
61.719894 -10.215431 -8.038647
61.530228 -11.407757 -7.035761
62.728363 -9.062129 -8.972772
61.774948 -8.984633 -9.061112
61.719894 -10.215431 -8.038647
47.060545 14.413706 -34.055782
46.319786 15.054594 -34.718266
68.174564 -22.086517 -6.02926
68.098514 -21.109374 -5.963406
68.410438 -22.1597 -5.13531
66.359386 -22.529115 -8.664689
67.112793 -22.280493 -7.798771
65.596882 -22.834266 -9.583386
65.96006 -21.596921 -9.592081
66.359386 -22.529115 -8.664689
63.512306 -25.093853 -11.25057
63.026226 -26.44946 -11.135984
63.181686 -24.206149 -12.229342
63.959305 -23.684558 -11.369699
63.512306 -25.093853 -11.25057
61.465309 -27.272231 -16.408714
61.668486 -25.771583 -16.664169
61.450437 -26.624029 -15.615316
62.125405 -19.071956 -1.737357
62.457165 -17.881174 -2.56078
65.137271 -20.330113 -2.07749
64.14093 -19.871821 -1.954068
65.88953 -20.924594 -2.19307
66.060303 -19.712135 -2.969495
65.137271 -20.330113 -2.07749
67.341896 -23.371902 -1.648865
66.547939 -23.870879 -0.770562
67.985557 -22.89885 -2.528957
67.311089 -22.216805 -2.423573
67.341896 -23.371902 -1.648865
68.328179 -22.571818 -3.392819
67.985557 -22.89885 -2.528957
42.771396 17.260254 -38.492226
43.404347 17.618724 -39.518367
61.493656 -1.602934 -15.716461
61.682525 -2.842593 -14.547191
62.321278 -1.629212 -15.574044
59.730438 -1.758981 -16.045344
59.587259 -0.551793 -17.190874
56.822059 2.448479 -20.955311
57.85808 2.800232 -20.825142
56.515789 3.58489 -22.046482
56.822059 2.448479 -20.955311
57.134012 5.072655 -23.125777
56.112356 4.697348 -23.193844
56.515789 3.58489 -22.046482
60.874437 7.733313 -36.332168
61.300089 6.708081 -35.022053
60.352049 9.091108 -36.379146
60.874437 7.733313 -36.332168
53.186476 6.005852 -25.203268
52.752979 7.032538 -26.151772
54.25857 6.419721 -25.309297
53.186476 6.005852 -25.203268
55.242832 6.838506 -25.401196
54.780656 7.869143 -26.45023
54.25857 6.419721 -25.309297
62.09156 -21.785348 -18.262022
62.239521 -21.170987 -17.391564
62.054592 -22.721491 -17.154179
62.327354 -20.843311 -19.364773
62.09156 -21.785348 -18.262022
62.466549 -19.86211 -20.506411
62.415684 -19.253643 -19.641044
62.327354 -20.843311 -19.364773
46.68414 19.605479 -43.397694
46.011801 19.260214 -42.789932
47.088556 19.066102 -41.970242
44.375551 16.897823 -53.896427
44.79294 17.78667 -52.963665
45.306015 16.029453 -54.099418
44.375551 16.897823 -53.896427
50.327818 10.156601 -53.928287
49.298752 11.513485 -54.11087
50.522642 11.40917 -53.239704
51.412554 8.736111 -53.656959
50.188664 8.840426 -54.528126
50.327818 10.156601 -53.928287
51.412554 8.736111 -53.656959
52.594488 8.554759 -52.728531
61.394554 -12.629133 -6.070813
61.12643 -13.805037 -5.118113
62.537636 -11.514302 -6.985359
61.530228 -11.407757 -7.035761
61.394554 -12.629133 -6.070813
48.534832 13.073272 -32.526824
47.851708 13.810337 -33.268948
49.456981 13.455012 -33.077381
48.534832 13.073272 -32.526824
49.266419 12.36545 -31.661044
62.310325 -27.029932 -11.936447
63.026226 -26.44946 -11.135984
61.766014 -27.632986 -12.77185
62.190376 -26.218498 -12.945616
62.310325 -27.029932 -11.936447
61.355366 -28.278818 -13.543314
61.766014 -27.632986 -12.77185
61.475315 -29.090252 -12.534145
59.337888 0.661518 -18.375235
59.587259 -0.551793 -17.190874
60.27866 0.853078 -18.199644
59.104002 1.853328 -19.527937
59.337888 0.661518 -18.375235
58.771513 3.037238 -20.726107
59.104002 1.853328 -19.527937
59.6968 3.250298 -20.582175
58.450878 4.197202 -21.879379
57.85808 2.800232 -20.825142
58.771513 3.037238 -20.726107
64.372974 -18.052956 -25.42147
63.916298 -19.072904 -24.329363
64.123883 -16.360565 -25.888754
64.372974 -18.052956 -25.42147
64.744812 -16.997709 -26.566197
50.180084 19.265469 -42.491298
49.47509 19.184376 -42.109425
50.530189 18.76556 -41.069
50.180084 19.265469 -42.491298
50.880558 19.117658 -42.854686
51.250404 18.928522 -44.521122
51.58299 18.902629 -43.145404
52.307462 18.442487 -43.408028
51.250404 18.928522 -44.521122
50.851726 18.860354 -45.860081
48.136853 19.065817 -49.133083
49.324787 18.85385 -48.170525
47.688059 18.562919 -50.30175
48.136853 19.065817 -49.133083
48.54321 17.754438 -50.502881
47.310271 17.861986 -51.399998
47.688059 18.562919 -50.30175
51.118629 9.845316 -29.0592
50.557339 10.7426 -29.923201
52.126951 10.259597 -29.374279
51.118629 9.845316 -29.0592
51.720743 8.959943 -28.080053
53.262729 8.412292 -27.376732
52.219314 7.99447 -27.170172
52.752979 7.032538 -26.151772
65.792076 -13.890557 -29.926613
65.481079 -14.90616 -28.817957
65.391239 -12.134227 -30.49805
65.792076 -13.890557 -29.926613
66.03014 -12.844202 -31.086309
65.733825 -10.081786 -32.824799
66.203045 -11.866231 -32.206849
65.229542 -9.354143 -32.17555
65.733825 -10.081786 -32.824799
65.334064 -8.348058 -33.342602
63.654426 -2.551254 -33.913372
63.340145 -1.980642 -32.975718
63.727565 -3.642207 -32.634117
63.654426 -2.551254 -33.913372
63.959335 -3.174779 -34.814873
44.568918 16.695463 -37.473122
43.797337 16.425991 -36.553185
44.683333 16.071661 -35.9776
44.095793 18.014741 -40.421337
43.404347 17.618724 -39.518367
44.374369 17.44581 -38.951676
44.713673 18.448637 -41.305229
45.741017 18.281332 -40.608562
45.388874 18.888142 -42.059147
44.095793 18.014741 -40.421337
44.713673 18.448637 -41.305229
48.44294 19.547825 -43.054863
48.793045 19.047916 -41.632565
49.47509 19.184376 -42.109425
47.331023 19.795252 -43.981152
48.44294 19.547825 -43.054863
46.68414 19.605479 -43.397694
47.331023 19.795252 -43.981152
46.904545 17.063289 -52.421627
46.049395 17.87177 -52.220497
47.310271 17.861986 -51.399998
46.238506 15.059684 -54.221283
45.306015 16.029453 -54.099418
46.576161 16.103305 -53.36399
47.246792 13.969292 -54.261192
48.501114 13.949796 -53.454071
48.239254 12.785551 -54.229408
46.238506 15.059684 -54.221283
47.246792 13.969292 -54.261192
61.879093 -7.776058 -10.112954
61.774948 -8.984633 -9.061112
62.756009 -6.592685 -11.072838
61.851685 -6.537413 -11.190555
61.879093 -7.776058 -10.112954
45.475708 15.540374 -35.408619
44.683333 16.071661 -35.9776
46.298992 15.855352 -36.207183
45.475708 15.540374 -35.408619
46.319786 15.054594 -34.718266
47.934233 14.766203 -34.729996
47.060545 14.413706 -34.055782
47.851708 13.810337 -33.268948
50.856702 11.946079 -31.282514
49.889204 11.54371 -30.852288
50.557339 10.7426 -29.923201
67.68283 -22.152703 -6.890757
68.174564 -22.086517 -6.02926
67.292603 -21.163981 -7.76537
67.68283 -22.152703 -6.890757
67.112793 -22.280493 -7.798771
64.743741 -23.237167 -10.450852
65.596882 -22.834266 -9.583386
64.413121 -22.349463 -11.429624
64.743741 -23.237167 -10.450852
63.959305 -23.684558 -11.369699
61.780122 -24.229616 -16.947704
62.054592 -22.721491 -17.154179
61.928083 -23.615255 -16.077246
61.780122 -24.229616 -16.947704
61.668486 -25.771583 -16.664169
60.856772 -31.1833 -13.012939
61.102598 -30.501368 -12.303061
61.039215 -30.419506 -14.027422
60.856772 -31.1833 -13.012939
60.831319 -31.866722 -13.734752
61.130512 -29.613802 -15.054548
61.155964 -28.93038 -14.332735
61.039215 -30.419506 -14.027422
61.438183 -28.80152 -16.080434
61.130512 -29.613802 -15.054548
61.465309 -27.272231 -16.408714
61.438183 -28.80152 -16.080434
60.57948 -16.177 -3.303064
60.915199 -15.016706 -4.208738
61.701569 -16.360833 -3.341048
60.57948 -16.177 -3.303064
62.661373 -16.659653 -3.387393
62.939305 -15.457835 -4.248007
61.701569 -16.360833 -3.341048
63.694901 -16.978176 -3.467739
62.661373 -16.659653 -3.387393
62.457165 -17.881174 -2.56078
63.232254 -19.412843 -1.847673
62.125405 -19.071956 -1.737357
64.399368 -18.658676 -2.747521
63.232254 -19.412843 -1.847673
64.14093 -19.871821 -1.954068
65.602756 -23.316721 -0.652178
66.547939 -23.870879 -0.770562
65.816963 -22.116214 -1.422273
65.602756 -23.316721 -0.652178
66.739994 -21.498236 -2.314278
65.88953 -20.924594 -2.19307
65.816963 -22.116214 -1.422273
68.517998 -22.291221 -4.275715
68.14457 -21.463155 -4.18656
68.328179 -22.571818 -3.392819
68.410438 -22.1597 -5.13531
68.517998 -22.291221 -4.275715
42.964244 16.833815 -37.015091
43.797337 16.425991 -36.553185
42.964244 16.833815 -37.015091
42.771396 17.260254 -38.492226
61.757446 -4.072572 -13.413802
61.866672 -5.315156 -12.286635
62.619374 -4.111456 -13.277607
61.757446 -4.072572 -13.413802
61.682525 -2.842593 -14.547191
60.691467 -1.588274 -15.852446
61.493656 -1.602934 -15.716461
61.330219 -0.374893 -16.8793
60.691467 -1.588274 -15.852446
59.730438 -1.758981 -16.045344
55.725662 5.787099 -24.2667
56.112356 4.697348 -23.193844
56.247749 7.236521 -25.407633
55.242832 6.838506 -25.401196
55.725662 5.787099 -24.2667
62.786076 -18.873041 -21.628198
62.466549 -19.86211 -20.506411
63.384659 -18.444725 -23.608871
63.916298 -19.072904 -24.329363
63.004978 -17.848268 -22.795071
63.384659 -18.444725 -23.608871
63.372364 -16.819355 -23.930227
62.773781 -17.24767 -21.949554
62.786076 -18.873041 -21.628198
63.004978 -17.848268 -22.795071
64.824448 -14.24295 -28.185917
65.152352 -15.968528 -27.66552
65.481079 -14.90616 -28.817957
63.074898 -0.381344 -33.184978
63.148037 -1.472296 -31.905723
63.340145 -1.980642 -32.975718
62.689789 1.218378 -33.41969
63.074898 -0.381344 -33.184978
62.416882 2.734452 -33.531326
62.609882 1.643077 -32.22662
62.689789 1.218378 -33.41969
62.024761 4.243603 -33.661243
62.416882 2.734452 -33.531326
61.725327 5.638454 -33.688236
62.037541 4.554002 -32.36525
62.024761 4.243603 -33.661243
61.312868 7.018479 -33.726059
61.725327 5.638454 -33.688236
61.300089 6.708081 -35.022053
59.90398 10.294868 -36.345062
60.439561 9.291866 -35.025791
60.352049 9.091108 -36.379146
59.270462 11.265851 -37.664719
59.357975 11.466609 -36.311363
59.90398 10.294868 -36.345062
58.605992 12.180707 -38.960564
59.270462 11.265851 -37.664719
57.85253 13.055651 -40.253071
57.970995 13.312537 -38.923527
58.605992 12.180707 -38.960564
57.051222 13.86093 -41.515232
57.85253 13.055651 -40.253071
56.174044 14.618695 -42.767921
56.340355 14.945246 -41.468723
57.051222 13.86093 -41.515232
55.95044 14.209831 -44.029968
55.239573 15.294148 -43.983459
56.174044 14.618695 -42.767921
55.803663 13.637057 -45.200432
55.95044 14.209831 -44.029968
55.59648 12.969424 -46.326763
54.808785 14.217651 -46.371837
55.803663 13.637057 -45.200432
55.467555 12.171143 -47.344803
55.59648 12.969424 -46.326763
55.281137 11.272466 -48.317261
54.415184 12.651342 -48.470627
55.467555 12.171143 -47.344803
55.164276 10.271918 -49.177334
55.281137 11.272466 -48.317261
55.001608 9.176302 -49.992714
54.066099 10.657049 -50.258465
55.164276 10.271918 -49.177334
54.89542 8.003259 -50.702084
55.001608 9.176302 -49.992714
53.770349 8.309332 -51.736892
54.89542 8.003259 -50.702084
3 1 55 53
3 1 57 55
3 0 60 58
3 2 64 62
3 2 66 64
3 3 70 68
3 214 71 215
3 4 74 72
3 4 216 218
3 218 217 74
3 216 217 218
3 5 219 221
3 219 75 220
3 219 220 221
3 7 78 76
3 7 80 78
3 222 82 223
3 8 85 83
3 8 87 85
3 224 89 225
3 6 226 227
3 10 92 90
3 10 93 92
3 10 95 93
3 11 98 96
3 11 100 98
3 9 103 101
3 12 106 104
3 12 108 106
3 228 110 229
3 13 113 111
3 13 115 113
3 13 117 115
3 14 230 232
3 232 231 118
3 230 231 232
3 15 233 235
3 235 234 54
3 233 234 235
3 15 236 238
3 236 119 237
3 236 237 238
3 15 121 119
3 17 122 56
3 17 123 122
3 18 126 124
3 20 127 59
3 20 128 127
3 239 130 240
3 22 131 61
3 22 132 131
3 23 135 133
3 25 136 63
3 25 137 136
3 25 139 137
3 27 140 65
3 27 141 140
3 28 144 142
3 30 145 67
3 30 146 145
3 241 148 242
3 243 149 244
3 245 150 246
3 247 246 149
3 245 246 247
3 249 248 150
3 32 153 151
3 251 250 69
3 16 154 120
3 253 252 73
3 33 254 255
3 33 256 258
3 256 155 257
3 256 257 258
3 19 156 125
3 34 157 77
3 34 158 157
3 34 159 158
3 35 160 79
3 35 161 160
3 259 162 260
3 36 163 81
3 36 164 163
3 21 165 129
3 37 166 84
3 37 167 166
3 37 168 167
3 38 169 86
3 38 170 169
3 261 173 262
3 263 262 171
3 261 262 263
3 264 174 265
3 266 175 267
3 268 267 174
3 266 267 268
3 40 269 270
3 40 271 273
3 271 176 272
3 271 272 273
3 40 177 176
3 41 178 88
3 41 274 276
3 276 275 178
3 274 275 276
3 277 179 278
3 279 180 280
3 281 181 282
3 283 282 180
3 281 282 283
3 284 182 285
3 286 183 287
3 288 287 182
3 286 287 288
3 290 289 183
3 292 291 152
3 24 293 295
3 295 294 134
3 293 294 295
3 297 296 91
3 42 298 299
3 42 300 301
3 42 302 304
3 302 184 303
3 302 303 304
3 43 185 94
3 43 186 185
3 26 187 138
3 44 188 97
3 44 189 188
3 44 190 189
3 45 191 99
3 45 192 191
3 39 193 172
3 46 194 102
3 46 195 194
3 29 196 143
3 47 197 105
3 47 198 197
3 47 199 198
3 48 200 107
3 48 201 200
3 49 202 109
3 49 203 202
3 31 204 147
3 50 205 112
3 50 206 205
3 50 207 206
3 51 208 114
3 51 209 208
3 51 210 209
3 52 211 116
3 52 212 211
3 305 213 306
3 308 307 213
3 53 54 14
3 55 54 53
3 55 15 54
3 55 56 15
3 57 56 55
3 57 17 56
3 58 59 18
3 60 59 58
3 60 20 59
3 309 61 310
3 311 61 312
3 313 22 314
3 315 314 61
3 313 314 315
3 62 63 23
3 64 63 62
3 64 25 63
3 64 65 25
3 66 65 64
3 66 27 65
3 316 67 317
3 318 317 28
3 316 317 318
3 319 67 320
3 321 30 322
3 323 322 67
3 321 322 323
3 68 69 32
3 70 69 68
3 70 324 326
3 326 325 69
3 324 325 326
3 71 327 328
3 71 329 330
3 72 73 16
3 74 73 72
3 74 331 333
3 333 332 73
3 331 332 333
3 74 334 336
3 334 335 336
3 338 337 74
3 75 339 340
3 75 341 343
3 341 33 342
3 341 342 343
3 76 77 19
3 78 77 76
3 78 34 77
3 78 79 34
3 80 79 78
3 80 35 79
3 344 81 345
3 82 346 348
3 346 81 347
3 346 347 348
3 82 36 81
3 83 84 21
3 85 84 83
3 85 37 84
3 85 86 37
3 87 86 85
3 87 38 86
3 349 40 350
3 351 88 352
3 353 352 40
3 351 352 353
3 89 354 356
3 354 88 355
3 354 355 356
3 89 41 88
3 90 91 24
3 92 91 90
3 92 357 359
3 359 358 91
3 357 358 359
3 92 360 361
3 93 362 364
3 364 363 92
3 362 363 364
3 93 365 367
3 365 42 366
3 365 366 367
3 93 94 42
3 95 94 93
3 95 43 94
3 96 97 26
3 98 97 96
3 98 44 97
3 98 99 44
3 100 99 98
3 100 45 99
3 101 102 39
3 103 102 101
3 103 46 102
3 104 105 29
3 106 105 104
3 106 47 105
3 106 107 47
3 108 107 106
3 108 48 107
3 368 109 369
3 110 370 372
3 370 109 371
3 370 371 372
3 110 49 109
3 111 112 31
3 113 112 111
3 113 50 112
3 113 114 50
3 115 114 113
3 115 51 114
3 115 116 51
3 117 116 115
3 117 52 116
3 118 373 375
3 375 374 3
3 373 374 375
3 377 376 118
3 54 378 380
3 380 379 14
3 378 379 380
3 382 381 54
3 119 383 384
3 119 385 386
3 119 387 389
3 387 120 388
3 387 388 389
3 121 120 119
3 121 16 120
3 56 121 15
3 122 121 56
3 122 16 121
3 122 72 16
3 123 72 122
3 123 4 72
3 124 125 5
3 126 125 124
3 126 19 125
3 59 126 18
3 127 126 59
3 127 19 126
3 127 76 19
3 128 76 127
3 128 7 76
3 390 129 391
3 130 392 394
3 392 129 393
3 392 393 394
3 130 21 129
3 61 395 397
3 395 130 396
3 395 396 397
3 131 130 61
3 131 21 130
3 131 83 21
3 132 83 131
3 132 8 83
3 133 134 6
3 135 134 133
3 135 24 134
3 63 135 23
3 136 135 63
3 136 24 135
3 136 90 24
3 137 90 136
3 137 10 90
3 137 138 10
3 139 138 137
3 139 26 138
3 65 139 25
3 140 139 65
3 140 26 139
3 140 96 26
3 141 96 140
3 141 11 96
3 142 143 9
3 144 143 142
3 144 29 143
3 67 144 28
3 145 144 67
3 145 29 144
3 145 104 29
3 146 104 145
3 146 12 104
3 398 147 399
3 148 400 402
3 400 147 401
3 400 401 402
3 148 31 147
3 403 148 404
3 149 405 407
3 405 148 406
3 405 406 407
3 149 31 148
3 149 111 31
3 150 111 149
3 150 13 111
3 150 408 410
3 410 409 13
3 408 409 410
3 412 411 150
3 151 413 415
3 413 152 414
3 413 414 415
3 153 152 151
3 153 416 418
3 418 417 152
3 416 417 418
3 69 153 32
3 419 153 420
3 421 420 69
3 419 420 421
3 423 422 153
3 424 70 425
3 426 425 3
3 424 425 426
3 427 70 428
3 430 429 70
3 120 431 433
3 431 71 432
3 431 432 433
3 154 71 120
3 154 434 436
3 436 435 71
3 434 435 436
3 73 154 16
3 437 154 438
3 439 438 73
3 437 438 439
3 441 440 154
3 155 442 443
3 155 444 446
3 444 6 445
3 444 445 446
3 125 75 5
3 156 75 125
3 156 33 75
3 77 156 19
3 157 156 77
3 157 33 156
3 157 155 33
3 158 155 157
3 158 6 155
3 158 133 6
3 159 133 158
3 159 23 133
3 79 159 34
3 160 159 79
3 160 23 159
3 160 62 23
3 161 62 160
3 161 2 62
3 447 151 448
3 162 449 451
3 449 151 450
3 449 450 451
3 162 32 151
3 81 452 454
3 452 162 453
3 452 453 454
3 163 162 81
3 163 32 162
3 163 68 32
3 164 68 163
3 164 3 68
3 129 455 457
3 455 82 456
3 455 456 457
3 165 82 129
3 165 36 82
3 84 165 21
3 166 165 84
3 166 36 165
3 166 164 36
3 167 164 166
3 167 3 164
3 167 118 3
3 168 118 167
3 168 14 118
3 86 168 37
3 169 168 86
3 169 14 168
3 169 53 14
3 170 53 169
3 170 1 53
3 171 172 0
3 173 172 171
3 173 39 172
3 458 173 459
3 174 460 462
3 460 173 461
3 460 461 462
3 174 39 173
3 174 101 39
3 175 101 174
3 175 9 101
3 463 175 464
3 176 465 467
3 465 175 466
3 465 466 467
3 176 9 175
3 176 142 9
3 177 142 176
3 177 28 142
3 88 177 40
3 178 177 88
3 178 28 177
3 178 468 470
3 470 469 28
3 468 469 470
3 472 471 178
3 473 89 474
3 475 89 476
3 475 476 477
3 478 41 479
3 480 479 89
3 478 479 480
3 481 41 482
3 484 483 41
3 485 5 486
3 487 5 488
3 489 124 490
3 491 490 5
3 489 490 491
3 179 492 494
3 492 124 493
3 492 493 494
3 179 18 124
3 495 179 496
3 180 497 499
3 497 179 498
3 497 498 499
3 180 18 179
3 180 58 18
3 181 58 180
3 181 0 58
3 182 500 501
3 182 502 503
3 182 504 506
3 504 181 505
3 504 505 506
3 183 181 182
3 183 0 181
3 183 171 0
3 507 171 508
3 509 508 183
3 507 508 509
3 511 510 171
3 152 512 513
3 515 514 152
3 134 516 518
3 518 517 6
3 516 517 518
3 520 519 134
3 91 521 523
3 523 522 24
3 521 522 523
3 525 524 91
3 184 526 527
3 184 528 530
3 528 22 529
3 528 529 530
3 94 184 42
3 185 184 94
3 185 22 184
3 185 132 22
3 186 132 185
3 186 8 132
3 138 95 10
3 187 95 138
3 187 43 95
3 97 187 26
3 188 187 97
3 188 43 187
3 188 186 43
3 189 186 188
3 189 8 186
3 189 87 8
3 190 87 189
3 190 38 87
3 99 190 44
3 191 190 99
3 191 38 190
3 191 170 38
3 192 170 191
3 192 1 170
3 172 60 0
3 193 60 172
3 193 20 60
3 102 193 39
3 194 193 102
3 194 20 193
3 194 128 20
3 195 128 194
3 195 7 128
3 143 103 9
3 196 103 143
3 196 46 103
3 105 196 29
3 197 196 105
3 197 46 196
3 197 195 46
3 198 195 197
3 198 7 195
3 198 80 7
3 199 80 198
3 199 35 80
3 107 199 47
3 200 199 107
3 200 35 199
3 200 161 35
3 201 161 200
3 201 2 161
3 531 30 532
3 109 533 534
3 202 535 537
3 537 536 109
3 535 536 537
3 202 538 540
3 538 30 539
3 538 539 540
3 202 146 30
3 203 146 202
3 203 12 146
3 147 541 543
3 541 110 542
3 541 542 543
3 204 110 147
3 204 49 110
3 112 204 31
3 205 204 112
3 205 49 204
3 205 203 49
3 206 203 205
3 206 12 203
3 206 108 12
3 207 108 206
3 207 48 108
3 114 207 50
3 208 207 114
3 208 48 207
3 208 201 48
3 209 201 208
3 209 2 201
3 209 66 2
3 210 66 209
3 210 27 66
3 116 210 51
3 211 210 116
3 211 27 210
3 211 141 27
3 212 141 211
3 212 11 141
3 544 117 545
3 546 545 13
3 544 545 546
3 547 117 548
3 549 52 550
3 551 550 117
3 549 550 551
3 552 52 553
3 554 212 555
3 556 555 52
3 554 555 556
3 213 557 559
3 557 212 558
3 557 558 559
3 213 11 212
3 213 100 11
3 560 100 561
3 562 561 213
3 560 561 562
3 563 45 564
3 565 564 100
3 563 564 565
3 566 45 567
3 568 192 569
3 570 569 45
3 568 569 570
3 571 192 572
3 573 1 574
3 575 574 192
3 573 574 575
3 576 57 577
3 578 577 1
3 576 577 578
3 579 57 580
3 581 17 582
3 583 582 57
3 581 582 583
3 584 17 585
3 586 123 587
3 588 587 17
3 586 587 588
3 589 123 590
3 591 4 592
3 593 592 123
3 591 592 593
3 594 4 595
3 597 596 4
