ply
format ascii 1.0
element vertex 618
property float x
property float y
property float z
element face 642
property list uchar int vertex_index
end_header
-65.149277 5.467525 10.534558
-63.462109 -10.884666 36.379906
-62.029716 -1.389009 10.231513
-54.637287 1.908249 8.986103
-67.600357 -2.671568 14.556563
-56.710747 -14.422417 44.189655
-47.730629 6.120173 9.677609
-62.795837 -18.543581 43.269489
-68.455841 -10.123235 28.280315
-68.118729 -2.290648 22.040606
-64.345093 2.634321 9.679188
-61.393402 4.200434 7.93389
-63.099922 7.225422 8.643503
-66.455643 1.891579 12.133095
-65.293808 -2.339649 11.953531
-51.097076 3.948736 9.224545
-60.164597 -12.424605 40.310364
-60.297421 -16.14883 44.090767
-63.322918 -14.706044 40.015602
-66.050964 -13.885603 35.903809
-68.150314 -13.866045 31.76462
-66.346962 -10.100071 32.357616
-66.459145 -2.31184 26.279926
-67.27153 1.950277 19.71611
-58.359055 -6.083911 12.274504
-54.210594 -4.827149 12.036657
-58.337608 0.084536 9.271753
-58.132767 6.246677 6.858475
-68.365776 -7.252494 17.496637
-66.006485 -7.362661 14.842075
-62.473637 -6.963796 13.134804
-53.151428 -12.801967 44.558506
-56.746273 -10.489757 40.775803
-60.299988 -8.442832 36.955986
-63.629345 -6.993871 33.041672
-41.188251 2.223764 11.152365
-39.116478 4.292126 9.594889
-50.343765 -3.293401 12.142227
-46.860191 -1.572342 12.24997
-43.790367 0.271523 12.004895
-65.793762 5.775682 13.420682
-63.649513 8.834908 11.338337
-69.365601 -10.727224 24.316719
-66.467468 -6.313323 29.00639
-68.451828 -6.342663 24.911015
-69.18174 -6.793775 20.96237
-68.569458 -2.541527 18.01358
-67.447891 1.834412 15.553247
-61.170998 11.489435 9.226925
-64.931778 4.271332 9.994022
-63.778267 4.97567 8.964359
-64.287994 6.248499 9.637679
-65.786987 3.915827 11.183886
-65.533203 2.144981 10.796482
-61.846401 -11.574287 38.355164
-61.849869 -13.486458 40.206745
-63.412235 -12.796133 38.20343
-64.74173 -14.200263 37.965828
-64.887032 -12.285248 36.182106
-66.23378 -11.978456 34.142166
-64.976471 -10.387932 34.380486
-60.340855 -3.666369 11.102764
-58.359276 -3.021875 10.743332
-60.205357 -0.706182 9.662451
-60.944099 6.898035 7.211737
-59.774231 5.178928 7.303212
-68.034729 -4.992995 15.970619
-67.363861 -7.366459 16.053308
-67.022949 -4.999526 14.54336
-63.749104 -1.940351 10.989799
-64.074471 -4.608408 12.384774
-62.268822 -4.201121 11.64301
-60.450691 -6.577827 12.611353
-51.387451 -13.942684 46.457016
-55.316322 -9.496781 41.392284
-57.090889 -8.348205 39.488483
-58.538277 -9.409753 38.874451
-58.845772 -7.287028 37.568314
-60.562172 -6.352867 35.625816
-41.43692 6.512836 10.446233
-40.083454 3.243887 10.462561
-54.437439 -1.472965 10.482757
-52.23214 -4.089087 12.066418
-52.555256 -0.598766 10.530653
-49.392441 5.021099 9.448616
-48.995354 1.28565 10.801919
-47.319862 2.277189 10.933853
-45.271015 -0.663677 12.19104
-45.717484 3.295063 11.000634
-44.195541 4.339024 10.961292
-65.850388 5.890669 15.435325
-64.792206 7.631908 14.379086
-61.719421 -17.233715 43.803932
-68.34584 -11.980862 30.037704
-68.830765 -14.129259 29.719084
-69.001892 -12.243855 28.010431
-69.319496 -12.624096 26.040024
-69.086304 -10.375987 26.267891
-63.781021 -4.980326 31.652861
-65.130486 -6.555433 31.038246
-65.219124 -4.57158 29.617012
-67.418976 -2.244375 24.153076
-67.544434 -4.284999 25.472662
-68.334503 -4.355374 23.400616
-68.996628 -6.540443 22.899338
-68.811356 -4.512878 21.370331
-68.934494 -4.706059 19.424326
-68.513992 -2.406359 19.97921
-66.58078 4.014481 18.674128
-67.503685 1.895124 17.569689
-66.758965 3.964598 16.487513
-66.684639 3.899836 14.460084
-62.359196 10.636356 12.194801
-62.426327 10.161463 10.2644
-63.374851 0.724457 9.746061
-61.745129 1.426214 8.968115
-62.940269 3.338617 8.730532
-62.416794 5.873047 8.025911
-61.762604 8.31373 7.697516
-67.069351 -0.347055 13.270975
-66.596436 -2.579353 13.139997
-66.094772 -0.169222 11.874938
-64.846481 0.185015 10.707649
-54.787544 5.270512 7.644295
-52.84481 2.908043 9.055527
-58.445076 -13.39107 42.25246
-58.585621 -15.23555 44.181099
-60.232521 -14.316195 42.196945
-61.831886 -15.370681 42.055397
-63.135628 -16.621872 41.728821
-64.108818 -18.114948 41.182709
-64.495895 -16.143848 39.653774
-65.766663 -15.837138 37.57444
-66.904854 -15.72323 35.491051
-67.204781 -13.776244 33.832993
-67.404556 -11.881639 32.089371
-67.524582 -10.018782 30.318832
-65.286552 -2.52722 28.394936
-67.177361 -0.149385 22.987417
-67.775284 -0.172426 20.823038
-66.773529 1.956259 21.938896
-56.263077 -5.496055 12.093897
-56.379005 -2.285418 10.544205
-56.472313 0.961988 9.050644
-60.02491 2.25728 8.366552
-58.270069 3.189274 7.944757
-56.517975 4.199766 7.705958
-68.593826 -9.422146 19.109388
-67.615372 -9.644744 17.639429
-65.683014 -4.875308 13.347456
-64.351997 -7.228418 13.871767
-54.842056 -13.633626 44.26619
-54.944389 -11.636566 42.667717
-56.626312 -12.520506 42.361237
-58.409401 -11.448342 40.453697
-60.170521 -10.467669 38.534992
-61.885303 -9.624884 36.597191
-63.52383 -8.956789 34.633987
-62.007019 -7.628088 35.013512
-40.896408 -2.016741 11.830538
-39.693607 -5.330829 11.391884
-39.907593 -1.099581 10.951283
-39.074509 -0.149744 9.893829
-50.740677 0.324389 10.651606
-48.55217 -2.451233 12.218979
-46.364075 -5.385579 13.5516
-44.780796 -4.587869 13.367848
-43.337811 -3.759384 13.033081
-42.041073 -2.902599 12.524323
-42.426437 1.233383 11.664176
-42.764706 5.411041 10.783863
-65.535744 5.627901 11.71899
-64.598206 7.024763 10.776609
-64.780914 7.410013 12.393291
-63.613083 9.194183 13.297291
-69.253479 -11.121075 22.469164
-65.049561 -8.486805 32.642166
-66.419212 -8.22254 30.623608
-67.583633 -8.15454 28.587481
-66.489326 -4.346123 27.552578
-67.59182 -6.252501 26.957075
-68.48996 -8.256469 26.55212
-69.085358 -8.487204 24.545952
-69.32222 -8.79514 22.606802
-69.164436 -9.124437 20.779158
-68.975578 -7.047996 19.146105
-68.677689 -4.882169 17.609459
-68.26503 -2.645569 16.191471
-68.084557 -0.251707 18.721012
-68.076172 -0.339624 16.729141
-67.736443 -0.387587 14.897717
-67.096581 1.814594 13.724294
-66.357307 3.860518 12.667064
-63.489758 8.209259 9.761127
-62.243301 9.40107 8.735729
-60.186088 7.458818 6.886929
-60.656106 8.195285 7.042343
-57.356094 -7.237086 38.997537
-56.506119 -7.799627 39.967402
-58.233536 -6.706497 38.037453
-57.96833 -7.817616 38.528399
-57.356094 -7.237086 38.997537
-59.069218 -6.194028 37.056362
-58.233536 -6.706497 38.037453
-40.830028 7.078097 10.190582
-41.548891 8.656396 10.092234
-46.923198 6.682742 9.769595
-45.916626 5.270188 10.431107
-46.724057 4.707618 10.339122
-65.233731 6.819759 16.021588
-65.771195 5.925412 16.542783
-56.820068 -15.307465 45.17811
-55.846157 -14.945232 45.159868
-62.119799 -18.811927 44.318945
-61.58159 -18.156994 44.586167
-62.257629 -17.888648 43.53671
-62.528723 -19.504872 43.928217
-62.119799 -18.811927 44.318945
-63.173023 -19.323439 42.890459
-62.528723 -19.504872 43.928217
-64.582852 -3.741748 30.049772
-64.500073 -4.775953 30.634937
-63.8638 -3.946121 31.067697
-66.225483 4.962377 17.068877
-66.669872 3.98954 17.580821
-66.136391 4.987318 18.162184
-65.771195 5.925412 16.542783
-66.304676 4.927633 15.961419
-66.225483 4.962377 17.068877
-61.72714 11.338798 11.651836
-61.563093 11.493254 12.753698
-53.935594 5.828498 7.691937
-54.832451 6.920538 7.102823
-66.610077 0.86169 23.590494
-66.753735 -0.187545 24.080813
-66.408161 1.914512 23.066233
-66.975445 0.903437 22.463157
-66.610077 0.86169 23.590494
-57.311066 -5.789983 12.1842
-56.206776 -7.061906 12.859227
-57.254765 -7.355834 12.949531
-57.315006 6.814823 6.735321
-56.50761 5.791367 7.159063
-57.325371 5.223222 7.282217
-66.133034 -8.562629 15.621095
-66.811722 -8.564528 16.226712
-66.685173 -7.36456 15.447692
-65.293434 -8.561887 15.124202
-66.133034 -8.562629 15.621095
-62.561569 -8.30117 13.895154
-63.500749 -8.433481 14.263635
-63.412817 -7.096107 13.503286
-61.510863 -8.182745 13.632136
-62.561569 -8.30117 13.895154
-58.358258 -7.572541 13.03641
-59.404076 -7.819499 13.204835
-59.404873 -6.330869 12.442929
-57.254765 -7.355834 12.949531
-58.358258 -7.572541 13.03641
-53.114036 -13.771063 45.367807
-52.232048 -14.341421 46.317063
-52.26944 -13.372325 45.507761
-53.996742 -13.217796 44.412348
-53.95935 -14.186892 45.221649
-53.114036 -13.771063 45.367807
-61.389538 -5.964942 34.640623
-60.74065 -5.280819 35.090763
-38.754326 2.561756 9.13232
-38.733341 0.340821 9.28179
-39.095494 2.071191 9.744359
-53.057274 -6.173053 12.807101
-54.098044 -6.469005 12.801362
-50.137707 -5.077114 12.876769
-51.081894 -5.474958 12.838864
-51.287953 -3.691244 12.104323
-49.213192 -4.719838 12.88037
-50.137707 -5.077114 12.876769
-43.660873 6.904945 10.369844
-43.480123 4.875032 10.872578
-44.376291 6.368937 10.458559
-42.916002 7.497319 10.353877
-43.660873 6.904945 10.369844
-63.503353 9.286575 14.413133
-64.202644 8.413046 13.838188
-64.092914 8.505437 14.954031
-62.848332 10.042172 13.858637
-63.503353 9.286575 14.413133
-59.519204 -16.569152 45.109465
-58.663303 -16.112512 45.154631
-59.441521 -15.69219 44.135933
-64.449688 -18.989091 40.817538
-64.730915 -17.974331 40.141968
-68.360786 -14.963447 31.557895
-68.004593 -14.83498 32.587854
-68.90694 -15.293847 29.528424
-69.010411 -14.32671 28.722592
-69.309906 -11.897165 24.241599
-69.286854 -12.845601 25.103251
-69.342548 -11.67566 25.178371
-69.30954 -10.924149 23.392941
-69.253845 -12.094091 23.317822
-69.309906 -11.897165 24.241599
-61.056801 11.069036 8.504584
-61.592953 10.024853 8.258986
-61.707149 10.445253 8.981327
-39.29743 -6.964965 10.873769
-39.345506 -4.898899 10.768264
-59.601154 6.599264 6.932667
-60.359165 6.038481 7.257475
-60.186088 7.458818 6.886929
-58.780423 7.133139 6.710299
-58.953499 5.712803 7.080844
-59.601154 6.599264 6.932667
-58.020966 7.732057 6.483764
-58.780423 7.133139 6.710299
-50.715428 -13.485371 46.767166
-50.531791 -14.485266 47.414444
-51.580835 -12.910289 45.81757
-50.715428 -13.485371 46.767166
-52.462824 -12.33993 44.868314
-52.26944 -13.372325 45.507761
-51.580835 -12.910289 45.81757
-55.618836 -8.373914 40.919302
-54.761149 -8.967317 41.87989
-56.203605 -8.922493 40.440383
-55.618836 -8.373914 40.919302
-56.506119 -7.799627 39.967402
-59.927418 -5.726947 36.085113
-59.703972 -6.819947 36.597065
-59.069218 -6.194028 37.056362
-60.74065 -5.280819 35.090763
-59.927418 -5.726947 36.085113
-40.153295 5.443623 10.198746
-40.760187 4.878362 10.454397
-40.830028 7.078097 10.190582
-39.669808 5.967742 9.76491
-39.599966 3.768006 10.028725
-40.153295 5.443623 10.198746
-45.155654 5.792168 10.411437
-44.956513 3.817044 10.980963
-45.916626 5.270188 10.431107
-44.376291 6.368937 10.458559
-45.155654 5.792168 10.411437
-64.704639 7.690379 15.493468
-65.321297 6.761289 14.907205
-65.233731 6.819759 16.021588
-64.092914 8.505437 14.954031
-64.704639 7.690379 15.493468
-60.995537 -17.583118 44.844522
-60.284537 -17.040676 44.98794
-61.008421 -16.691273 43.94735
-60.995537 -17.583118 44.844522
-61.58159 -18.156994 44.586167
-69.095974 -13.384008 27.868265
-69.010411 -14.32671 28.722592
-68.916328 -13.186557 28.864757
-69.160694 -12.433975 27.025227
-69.254776 -13.574129 26.883062
-69.095974 -13.384008 27.868265
-61.760706 11.101352 10.686635
-62.392761 10.398909 11.229601
-61.72714 11.338798 11.651836
-61.133041 11.765338 10.167897
-61.798662 10.825449 9.745662
-61.760706 11.101352 10.686635
-61.065359 8.903132 7.285232
-60.656106 8.195285 7.042343
-61.353352 7.605882 7.454626
-52.964227 4.647264 8.397553
-53.816177 4.089277 8.349911
-53.935594 5.828498 7.691937
-52.090361 5.16761 8.482062
-51.970943 3.428389 9.140036
-52.964227 4.647264 8.397553
-51.250246 5.742533 8.590528
-52.090361 5.16761 8.482062
-50.397928 6.278714 8.702563
-50.244759 4.484917 9.336581
-51.250246 5.742533 8.590528
-49.56757 6.86723 8.848268
-50.397928 6.278714 8.702563
-48.736664 7.416768 8.962765
-48.561535 5.570636 9.563112
-49.56757 6.86723 8.848268
-47.915712 8.018071 9.119081
-48.736664 7.416768 8.962765
-64.924453 -16.988781 39.3775
-64.730915 -17.974331 40.141968
-64.302357 -17.129398 40.418242
-65.559838 -16.835426 38.337834
-64.924453 -16.988781 39.3775
-65.131279 -15.990493 38.614107
-66.127442 -16.781876 37.297741
-65.559838 -16.835426 38.337834
-66.696537 -16.724922 36.256046
-66.127442 -16.781876 37.297741
-66.335758 -15.780184 36.532746
-67.184616 -16.7629 35.21776
-66.696537 -16.724922 36.256046
-67.381862 -15.763572 34.451069
-67.184616 -16.7629 35.21776
-67.531826 -14.79008 33.62204
-67.381862 -15.763572 34.451069
-67.054817 -14.749737 34.662022
-67.677548 -13.821144 32.798806
-68.004593 -14.83498 32.587854
-67.531826 -14.79008 33.62204
-64.673985 -1.664879 28.951815
-64.616566 -2.719568 29.438735
-65.281871 -1.481536 27.874505
-64.673985 -1.664879 28.951815
-65.868168 -1.373846 26.817
-65.872849 -2.41953 27.337431
-65.281871 -1.481536 27.874505
-66.394627 -1.268773 25.727068
-65.868168 -1.373846 26.817
-66.874542 -1.23504 24.663643
-66.939061 -2.278107 25.216501
-66.394627 -1.268773 25.727068
-67.298169 -1.19688 23.570246
-66.874542 -1.23504 24.663643
-66.753735 -0.187545 24.080813
-66.1562 2.942245 22.609227
-66.408161 1.914512 23.066233
-66.469375 2.985059 21.447103
-66.1562 2.942245 22.609227
-66.718376 2.982068 20.33571
-67.022529 1.953268 20.827503
-66.469375 2.985059 21.447103
-66.373001 4.01417 19.814719
-66.926155 2.982379 19.195119
-66.718376 2.982068 20.33571
-65.95401 4.990238 19.328589
-66.373001 4.01417 19.814719
-66.136391 4.987318 18.162184
-65.95401 4.990238 19.328589
-55.124285 -6.803458 12.829982
-56.206776 -7.061906 12.859227
-55.236835 -5.161602 12.065277
-54.098044 -6.469005 12.801362
-55.124285 -6.803458 12.829982
-55.642395 6.32674 7.128232
-55.65276 4.735139 7.675126
-56.50761 5.791367 7.159063
-54.832451 6.920538 7.102823
-55.642395 6.32674 7.128232
-57.315006 6.814823 6.735321
-58.020966 7.732057 6.483764
-68.188156 -10.624649 19.186978
-68.660068 -10.462599 19.940079
-67.698929 -10.735948 18.451999
-68.188156 -10.624649 19.186978
-68.104599 -9.533445 18.374409
-67.030407 -10.852855 17.812066
-67.698929 -10.735948 18.451999
-66.937477 -9.703671 17.019773
-67.489616 -8.505601 16.846369
-66.811722 -8.564528 16.226712
-67.030407 -10.852855 17.812066
-66.937477 -9.703671 17.019773
-64.46619 -8.494766 14.639049
-65.293434 -8.561887 15.124202
-65.179241 -7.29554 14.356921
-64.46619 -8.494766 14.639049
-63.500749 -8.433481 14.263635
-60.499389 -7.989761 13.37041
-61.510863 -8.182745 13.632136
-61.462164 -6.770812 12.873079
-60.499389 -7.989761 13.37041
-59.404076 -7.819499 13.204835
-51.369742 -14.873088 47.279339
-50.531791 -14.485266 47.414444
-51.369742 -14.873088 47.279339
-52.232048 -14.341421 46.317063
-54.911811 -14.550837 45.198135
-53.95935 -14.186892 45.221649
-55.776401 -14.028021 44.227923
-55.846157 -14.945232 45.159868
-54.911811 -14.550837 45.198135
-53.344971 -11.745072 43.922373
-52.462824 -12.33993 44.868314
-54.427418 -10.092479 42.339262
-54.761149 -8.967317 41.87989
-54.241451 -11.162372 42.976979
-54.427418 -10.092479 42.339262
-55.130356 -10.566674 42.03
-54.047909 -12.219266 43.613112
-53.344971 -11.745072 43.922373
-54.241451 -11.162372 42.976979
-62.111961 -6.602552 34.334471
-61.284595 -6.990477 35.319664
-61.389538 -5.964942 34.640623
-62.923125 -6.285444 33.348551
-62.818182 -7.31098 34.027592
-62.111961 -6.602552 34.334471
-62.998963 -5.278671 32.654145
-63.705183 -5.987099 32.347267
-62.923125 -6.285444 33.348551
-63.130258 -4.227127 32.09452
-62.998963 -5.278671 32.654145
-63.8638 -3.946121 31.067697
-63.130258 -4.227127 32.09452
-40.295007 -3.673785 11.611211
-40.129966 -5.744075 11.924951
-40.731367 -4.087032 12.144278
-39.4525 -2.783275 10.547963
-39.345506 -4.898899 10.768264
-39.8006 -3.215205 11.171584
-39.035957 -2.308356 10.019236
-39.4525 -2.783275 10.547963
-39.491051 -0.624662 10.422556
-38.770777 -1.856707 9.314253
-39.035957 -2.308356 10.019236
-38.429609 -1.366142 8.702214
-38.770777 -1.856707 9.314253
-38.733341 0.340821 9.28179
-39.124098 6.544576 9.418858
-39.669808 5.967742 9.76491
-38.702099 4.827429 9.074269
-39.124098 6.544576 9.418858
-38.709719 7.079879 8.898237
-38.754326 2.561756 9.13232
-38.702099 4.827429 9.074269
-52.068047 -5.804023 12.821982
-53.057274 -6.173053 12.807101
-53.221367 -4.458118 12.051538
-52.068047 -5.804023 12.821982
-51.081894 -5.474958 12.838864
-48.317394 -4.298755 12.918746
-49.213192 -4.719838 12.88037
-49.447967 -2.872317 12.180603
-47.223347 -5.765928 13.585057
-48.317394 -4.298755 12.918746
-47.458123 -3.918406 12.885289
-46.113457 -7.252929 14.163723
-47.223347 -5.765928 13.585057
-45.318367 -6.909993 14.013486
-46.113457 -7.252929 14.163723
-44.526727 -6.511138 13.92161
-45.318367 -6.909993 14.013486
-45.572435 -4.986724 13.459724
-43.818936 -6.148422 13.683706
-44.526727 -6.511138 13.92161
-43.097443 -5.734179 13.516322
-43.818936 -6.148422 13.683706
-44.059303 -4.173627 13.200464
-42.47925 -5.35442 13.181097
-43.097443 -5.734179 13.516322
-41.830881 -4.926028 12.926718
-42.47925 -5.35442 13.181097
-42.689442 -3.330991 12.778702
-41.303699 -4.52996 12.49117
-41.830881 -4.926028 12.926718
-41.46874 -2.45967 12.17743
-40.731367 -4.087032 12.144278
-41.303699 -4.52996 12.49117
-42.25211 8.048216 10.185063
-42.100813 5.961939 10.615048
-42.916002 7.497319 10.353877
-41.548891 8.656396 10.092234
-42.25211 8.048216 10.185063
-46.923198 6.682742 9.769595
-47.915712 8.018071 9.119081
-62.221388 10.763258 13.307392
-62.98614 9.91527 12.746046
-62.848332 10.042172 13.858637
-61.563093 11.493254 12.753698
-62.221388 10.763258 13.307392
-57.757506 -15.714032 45.173832
-56.820068 -15.307465 45.17811
-57.648184 -14.828983 44.185377
-57.757506 -15.714032 45.173832
-58.663303 -16.112512 45.154631
-59.519204 -16.569152 45.109465
-60.284537 -17.040676 44.98794
-63.829514 -19.109123 41.847069
-63.173023 -19.323439 42.890459
-63.452327 -18.329265 42.226099
-63.829514 -19.109123 41.847069
-64.449688 -18.989091 40.817538
-68.701012 -15.095054 30.535127
-68.360786 -14.963447 31.557895
-68.490539 -13.997652 30.741852
-68.701012 -15.095054 30.535127
-68.90694 -15.293847 29.528424
-69.249275 -13.811649 25.93166
-69.254776 -13.574129 26.883062
-69.249275 -13.811649 25.93166
-69.286854 -12.845601 25.103251
-69.015129 -12.31958 22.451484
-69.253845 -12.094091 23.317822
-68.989895 -11.312064 21.619968
-69.015129 -12.31958 22.451484
-65.252838 -3.5494 29.005974
-64.582852 -3.741748 30.049772
-64.616566 -2.719568 29.438735
-68.945373 -10.313745 20.774964
-68.989895 -11.312064 21.619968
-69.208957 -10.122756 21.624161
-68.879131 -9.273291 19.944273
-68.660068 -10.462599 19.940079
-68.945373 -10.313745 20.774964
-61.352604 9.481183 7.73988
-62.002953 8.8574 8.216622
-61.592953 10.024853 8.258986
-61.065359 8.903132 7.285232
-61.352604 9.481183 7.73988
-60.531177 12.483311 9.661307
-61.133041 11.765338 10.167897
-60.559973 12.179267 8.759194
-60.531177 12.483311 9.661307
-61.056801 11.069036 8.504584
-60.559973 12.179267 8.759194
-39.578693 -7.362933 11.585905
-40.015052 -7.77618 12.118972
-40.129966 -5.744075 11.924951
-39.578693 -7.362933 11.585905
-39.29743 -6.964965 10.873769
3 0 51 49
3 0 49 52
3 1 56 54
3 1 58 56
3 1 60 58
3 2 63 61
3 196 195 64
3 4 68 66
3 2 71 69
3 2 61 71
3 197 75 198
3 199 77 200
3 201 200 75
3 199 200 201
3 203 202 77
3 205 204 79
3 3 83 81
3 6 86 84
3 6 88 86
3 6 206 208
3 208 207 88
3 206 207 208
3 210 209 90
3 5 211 212
3 7 213 215
3 215 214 92
3 213 214 215
3 7 216 217
3 7 218 219
3 8 95 93
3 8 97 95
3 220 100 221
3 222 221 98
3 220 221 222
3 9 103 101
3 9 105 103
3 9 107 105
3 223 110 224
3 225 224 108
3 223 224 225
3 226 90 227
3 228 227 110
3 226 227 228
3 230 229 112
3 10 116 114
3 12 117 50
3 12 118 117
3 13 121 119
3 10 122 53
3 10 114 122
3 232 231 123
3 16 127 125
3 18 128 55
3 18 129 128
3 18 131 129
3 19 132 57
3 19 133 132
3 19 134 133
3 21 135 59
3 21 136 135
3 233 138 234
3 235 140 236
3 237 236 138
3 235 236 237
3 24 238 240
3 238 141 239
3 238 239 240
3 26 142 62
3 26 143 142
3 11 144 115
3 27 145 65
3 27 146 145
3 27 241 243
3 243 242 146
3 241 242 243
3 28 148 147
3 29 244 246
3 246 245 67
3 244 245 246
3 29 247 248
3 14 149 120
3 30 150 70
3 30 249 251
3 251 250 150
3 249 250 251
3 30 252 253
3 24 254 256
3 256 255 72
3 254 255 256
3 24 257 258
3 31 259 261
3 261 260 73
3 259 260 261
3 31 262 264
3 262 151 263
3 262 263 264
3 32 152 74
3 32 153 152
3 32 154 153
3 33 155 76
3 33 156 155
3 33 158 156
3 266 265 78
3 35 161 159
3 36 162 80
3 36 267 269
3 269 268 162
3 267 268 269
3 25 270 271
3 37 272 274
3 274 273 82
3 272 273 274
3 37 275 276
3 15 163 124
3 38 164 85
3 38 165 164
3 38 166 165
3 39 167 87
3 39 168 167
3 39 169 168
3 277 170 278
3 279 278 89
3 277 278 279
3 281 280 170
3 40 173 171
3 282 174 283
3 284 283 91
3 282 283 284
3 286 285 174
3 17 287 289
3 289 288 126
3 287 288 289
3 291 290 130
3 20 292 293
3 295 294 94
3 42 296 298
3 298 297 96
3 296 297 298
3 42 299 301
3 299 175 300
3 299 300 301
3 34 176 157
3 43 177 99
3 43 178 177
3 22 179 137
3 44 180 102
3 44 181 180
3 44 182 181
3 45 183 104
3 45 184 183
3 45 185 184
3 46 186 106
3 46 187 186
3 23 188 139
3 47 189 109
3 47 190 189
3 47 191 190
3 40 192 111
3 40 171 192
3 41 193 172
3 48 194 113
3 48 302 304
3 304 303 194
3 302 303 304
3 306 305 160
3 49 50 10
3 51 50 49
3 51 12 50
3 52 53 13
3 49 53 52
3 49 10 53
3 54 55 16
3 56 55 54
3 56 18 55
3 56 57 18
3 58 57 56
3 58 19 57
3 58 59 19
3 60 59 58
3 60 21 59
3 61 62 24
3 63 62 61
3 63 26 62
3 64 65 11
3 307 65 308
3 309 308 64
3 307 308 309
3 310 27 311
3 312 311 65
3 310 311 312
3 314 313 27
3 66 67 28
3 68 67 66
3 68 29 67
3 69 70 14
3 71 70 69
3 71 30 70
3 71 72 30
3 61 72 71
3 61 24 72
3 315 73 316
3 317 73 318
3 319 31 320
3 321 320 73
3 319 320 321
3 322 74 323
3 75 324 326
3 324 74 325
3 324 325 326
3 75 32 74
3 75 76 32
3 77 76 75
3 77 33 76
3 77 78 33
3 327 78 328
3 329 328 77
3 327 328 329
3 331 330 78
3 79 80 35
3 332 80 333
3 334 333 79
3 332 333 334
3 335 36 336
3 337 336 80
3 335 336 337
3 81 82 25
3 83 82 81
3 83 37 82
3 84 85 15
3 86 85 84
3 86 38 85
3 86 87 38
3 88 87 86
3 88 39 87
3 88 89 39
3 338 89 339
3 340 339 88
3 338 339 340
3 342 341 89
3 90 91 40
3 343 91 344
3 345 344 90
3 343 344 345
3 347 346 91
3 92 348 350
3 350 349 17
3 348 349 350
3 352 351 92
3 93 94 20
3 95 94 93
3 95 353 355
3 355 354 94
3 353 354 355
3 95 356 358
3 356 96 357
3 356 357 358
3 97 96 95
3 97 42 96
3 98 99 34
3 100 99 98
3 100 43 99
3 101 102 22
3 103 102 101
3 103 44 102
3 103 104 44
3 105 104 103
3 105 45 104
3 105 106 45
3 107 106 105
3 107 46 106
3 108 109 23
3 110 109 108
3 110 47 109
3 110 111 47
3 90 111 110
3 90 40 111
3 112 113 41
3 359 113 360
3 361 360 112
3 359 360 361
3 362 48 363
3 364 363 113
3 362 363 364
3 114 115 2
3 116 115 114
3 116 11 115
3 50 116 10
3 117 116 50
3 117 11 116
3 117 64 11
3 118 64 117
3 118 365 367
3 367 366 64
3 365 366 367
3 119 120 4
3 121 120 119
3 121 14 120
3 53 121 13
3 122 121 53
3 122 14 121
3 122 69 14
3 114 69 122
3 114 2 69
3 123 124 3
3 368 124 369
3 370 369 123
3 368 369 370
3 371 15 372
3 373 372 124
3 371 372 373
3 374 15 375
3 376 84 377
3 378 377 15
3 376 377 378
3 379 84 380
3 381 6 382
3 383 382 84
3 381 382 383
3 385 384 6
3 125 126 5
3 127 126 125
3 127 17 126
3 55 127 16
3 128 127 55
3 128 17 127
3 128 92 17
3 129 92 128
3 129 7 92
3 129 130 7
3 131 130 129
3 131 386 388
3 388 387 130
3 386 387 388
3 57 131 18
3 132 131 57
3 132 389 391
3 391 390 131
3 389 390 391
3 132 392 393
3 133 394 396
3 396 395 132
3 394 395 396
3 133 397 398
3 133 399 400
3 134 401 403
3 403 402 133
3 401 402 403
3 134 404 406
3 404 20 405
3 404 405 406
3 59 134 19
3 135 134 59
3 135 20 134
3 135 93 20
3 136 93 135
3 136 8 93
3 407 137 408
3 409 137 410
3 411 22 412
3 413 412 137
3 411 412 413
3 414 22 415
3 416 101 417
3 418 417 22
3 416 417 418
3 138 419 421
3 419 101 420
3 419 420 421
3 138 9 101
3 138 139 9
3 140 139 138
3 140 23 139
3 422 140 423
3 424 140 425
3 426 23 427
3 428 427 140
3 426 427 428
3 429 108 430
3 431 430 23
3 429 430 431
3 432 108 433
3 435 434 108
3 141 436 437
3 141 438 440
3 438 25 439
3 438 439 440
3 62 141 24
3 142 141 62
3 142 25 141
3 142 81 25
3 143 81 142
3 143 3 81
3 115 63 2
3 144 63 115
3 144 26 63
3 65 144 11
3 145 144 65
3 145 26 144
3 145 143 26
3 146 143 145
3 146 3 143
3 146 123 3
3 441 123 442
3 443 442 146
3 441 442 443
3 445 444 123
3 447 446 27
3 147 448 449
3 148 450 452
3 452 451 147
3 450 451 452
3 148 453 454
3 67 148 28
3 455 148 456
3 457 456 67
3 455 456 457
3 459 458 148
3 120 68 4
3 149 68 120
3 149 29 68
3 70 149 14
3 150 149 70
3 150 29 149
3 150 460 462
3 462 461 29
3 460 461 462
3 464 463 150
3 72 465 467
3 467 466 30
3 465 466 467
3 469 468 72
3 73 470 471
3 473 472 73
3 151 474 475
3 151 476 478
3 476 5 477
3 476 477 478
3 479 31 480
3 74 481 482
3 152 483 485
3 485 484 74
3 483 484 485
3 152 486 488
3 486 31 487
3 486 487 488
3 152 151 31
3 153 151 152
3 153 5 151
3 153 125 5
3 154 125 153
3 154 16 125
3 76 154 32
3 155 154 76
3 155 16 154
3 155 54 16
3 156 54 155
3 156 1 54
3 156 157 1
3 158 157 156
3 158 34 157
3 78 158 33
3 489 158 490
3 491 490 78
3 489 490 491
3 492 34 493
3 494 493 158
3 492 493 494
3 495 98 496
3 497 496 34
3 495 496 497
3 498 98 499
3 501 500 98
3 159 502 504
3 502 160 503
3 502 503 504
3 161 160 159
3 161 505 507
3 507 506 160
3 505 506 507
3 80 161 35
3 162 161 80
3 162 508 510
3 510 509 161
3 508 509 510
3 162 511 512
3 515 514 162
3 513 514 515
3 516 36 517
3 518 36 519
3 518 519 520
3 522 521 36
3 82 523 525
3 525 524 25
3 523 524 525
3 527 526 82
3 124 83 3
3 163 83 124
3 163 37 83
3 85 163 15
3 164 163 85
3 164 37 163
3 164 528 530
3 530 529 37
3 528 529 530
3 165 531 533
3 533 532 164
3 531 532 533
3 165 534 535
3 165 536 537
3 166 538 540
3 540 539 165
3 538 539 540
3 166 541 542
3 87 166 38
3 167 166 87
3 167 543 545
3 545 544 166
3 543 544 545
3 167 546 547
3 168 548 550
3 550 549 167
3 548 549 550
3 168 551 552
3 168 553 555
3 553 159 554
3 553 554 555
3 169 159 168
3 169 35 159
3 89 169 39
3 170 169 89
3 170 35 169
3 170 79 35
3 556 79 557
3 558 557 170
3 556 557 558
3 560 559 79
3 562 561 6
3 171 172 0
3 173 172 171
3 173 41 172
3 91 173 40
3 174 173 91
3 174 41 173
3 174 112 41
3 563 112 564
3 565 564 174
3 563 564 565
3 567 566 112
3 126 568 570
3 570 569 5
3 568 569 570
3 572 571 126
3 574 573 17
3 130 575 577
3 577 576 7
3 575 576 577
3 579 578 130
3 94 580 582
3 582 581 20
3 580 581 582
3 584 583 94
3 96 585 586
3 588 587 96
3 175 589 590
3 175 591 592
3 157 60 1
3 176 60 157
3 176 21 60
3 99 176 34
3 177 176 99
3 177 21 176
3 177 136 21
3 178 136 177
3 178 8 136
3 137 593 595
3 593 100 594
3 593 594 595
3 179 100 137
3 179 43 100
3 102 179 22
3 180 179 102
3 180 43 179
3 180 178 43
3 181 178 180
3 181 8 178
3 181 97 8
3 182 97 181
3 182 42 97
3 104 182 44
3 183 182 104
3 183 42 182
3 183 175 42
3 184 175 183
3 184 596 598
3 598 597 175
3 596 597 598
3 184 599 601
3 599 147 600
3 599 600 601
3 185 147 184
3 185 28 147
3 106 185 45
3 186 185 106
3 186 28 185
3 186 66 28
3 187 66 186
3 187 4 66
3 139 107 9
3 188 107 139
3 188 46 107
3 109 188 23
3 189 188 109
3 189 46 188
3 189 187 46
3 190 187 189
3 190 4 187
3 190 119 4
3 191 119 190
3 191 13 119
3 111 191 47
3 192 191 111
3 192 13 191
3 192 52 13
3 171 52 192
3 171 0 52
3 172 51 0
3 193 51 172
3 193 12 51
3 113 193 41
3 194 193 113
3 194 12 193
3 194 118 12
3 602 118 603
3 604 603 194
3 602 603 604
3 606 605 118
3 607 48 608
3 609 48 610
3 612 611 48
3 160 613 615
3 613 614 615
3 617 616 160
