ply
format ascii 1.0
element vertex 338
property float x
property float y
property float z
element face 374
property list uchar int vertex_index
end_header
63.376541 -36.916237 -3.588648
66.71154 -36.576942 9.539516
59.026382 -46.117004 0.087723
70.77404 -41.502659 11.127046
67.711342 -27.481136 -5.194647
61.14053 -31.266651 -11.300512
67.842949 -28.599941 1.464077
70.333076 -34.907848 1.982778
66.102036 -42.444275 4.71163
65.824829 -32.156998 -4.684864
64.064117 -28.919245 -8.293213
61.970337 -34.152092 -7.419577
67.353683 -32.869049 5.161615
70.039818 -31.504375 1.472455
70.094284 -35.409908 5.490618
69.556877 -41.709824 7.597552
60.957932 -41.597584 -1.947159
60.216057 -39.314621 -6.00754
59.101898 -44.316887 -4.087778
69.771263 -38.826637 10.154495
68.486488 -23.136843 -5.201164
65.996208 -23.76646 -8.655993
60.123737 -36.849487 -10.011497
68.016365 -24.053947 -1.754248
69.492043 -27.348701 -1.979799
69.25943 -31.216129 -1.774969
67.54557 -35.398148 -0.987095
70.812065 -38.395672 6.296448
68.846283 -38.614288 3.078235
64.883797 -39.664177 0.405643
61.948898 -43.885288 2.268446
64.632828 -34.538555 -4.2103
63.783997 -33.042126 -6.066315
62.631016 -35.541653 -5.510807
64.933479 -33.773308 7.176618
67.039024 -34.811123 7.264485
68.960464 -34.080284 5.269596
68.740936 -35.947411 7.454334
59.91188 -43.881874 -0.96533
59.678932 -42.871685 -3.048523
58.995049 -45.224663 -2.006855
67.941086 -40.474449 14.884407
68.266129 -25.249479 -5.251139
67.503021 -23.269215 -6.924158
66.850639 -25.622429 -6.896166
62.351936 -30.00993 -9.814346
63.317764 -27.283476 -10.161755
61.885963 -28.44442 -11.76268
59.63129 -40.756866 -7.146914
60.065842 -38.11554 -8.010296
65.74234 -29.625259 3.309509
66.112991 -27.373184 1.603743
66.428452 -25.051901 0.002359
67.976463 -26.346193 -0.182716
68.967422 -25.615007 -1.908077
69.123596 -27.815626 -0.29372
70.427704 -33.154926 1.657136
70.074455 -31.206337 -0.202698
69.868149 -33.076073 0.041975
68.560074 -33.283966 -1.458982
69.245407 -35.021793 0.438055
70.542892 -40.111801 10.595083
70.67466 -38.548645 8.14841
70.847008 -40.006798 8.657257
68.032722 -41.998871 6.083841
69.277237 -40.184631 5.284491
67.587715 -40.521553 3.836453
67.002052 -39.02927 1.687129
65.546326 -41.050011 2.516439
63.408585 -41.783966 1.292516
63.989853 -43.067692 3.449984
58.480919 -47.512688 -0.889606
66.875641 -29.794851 -5.010763
65.966568 -28.057095 -6.753082
64.919998 -30.539711 -6.479525
63.002968 -31.536882 -7.923498
61.455574 -32.732742 -9.34243
65.340561 -31.772053 5.159175
67.629234 -30.786053 3.233824
69.169029 -29.980267 1.414013
69.110046 -32.079781 3.259053
70.124687 -33.503624 3.398748
70.638611 -35.046135 3.665154
70.503677 -41.553307 9.275522
64.486305 -44.376381 5.674238
62.129898 -39.273033 -2.828999
61.527847 -38.020947 -4.816271
60.530384 -40.467415 -3.9911
59.571358 -41.840199 -5.106995
58.796986 -46.733917 -2.963278
68.477715 -37.650398 9.80288
68.200745 -39.164993 12.290337
69.534805 -40.290241 12.68263
70.348495 -41.523849 13.144729
65.085922 -26.320164 -8.534065
64.289925 -24.572262 -10.390926
61.025745 -36.748741 -6.780203
60.680851 -35.43808 -8.741892
60.543232 -34.070892 -10.718531
60.648876 -32.630516 -12.72027
68.701607 -23.399883 -3.481974
69.038185 -25.242332 -3.592636
68.971481 -27.236591 -3.608341
69.829178 -29.443314 -0.307957
69.583382 -29.226542 -1.943039
68.528976 -29.347027 -3.504616
67.756927 -31.538198 -3.261705
66.718079 -33.77681 -2.867571
65.487312 -36.034073 -2.319555
69.967789 -37.192982 7.748111
70.714935 -36.852634 5.831476
70.646049 -36.688778 4.067082
70.408455 -40.020699 6.886709
70.173943 -38.408745 4.608231
69.787071 -36.736122 2.4569
68.264488 -37.014267 0.988708
66.291809 -37.53154 -0.361473
64.145782 -38.287643 -1.624479
62.77425 -40.52243 -0.797897
61.446796 -42.729561 0.136585
60.226074 -44.903427 1.147603
62.423214 -45.079933 4.451824
60.578705 -45.965652 3.294165
59.161049 -47.036522 2.195846
65.629776 -36.083233 9.452939
65.461556 -36.88205 10.626674
66.875282 -35.694033 8.402
65.793518 -35.200323 8.315423
65.629776 -36.083233 9.452939
61.102598 -30.501368 -12.303061
61.475315 -29.090252 -12.534145
61.513246 -29.855536 -11.531596
59.762804 -40.176697 -8.160531
59.739244 -41.531759 -7.674655
59.239883 -43.835743 -5.120598
59.474613 -42.597399 -5.630206
59.336628 -43.078543 -4.597387
58.711439 -47.903837 -2.35686
58.638953 -47.123302 -1.926442
58.553406 -48.293222 -1.320024
67.167485 -39.319465 13.401568
67.300388 -38.651382 12.128308
69.411953 -40.929468 13.992532
68.737945 -40.382345 13.783518
68.615094 -41.021572 15.093421
69.818798 -41.546272 14.223581
69.94165 -40.907045 12.91368
69.411953 -40.929468 13.992532
68.174564 -22.086517 -6.02926
68.410438 -22.1597 -5.13531
66.359386 -22.529115 -8.664689
67.112793 -22.280493 -7.798771
66.749615 -23.517837 -7.790076
65.596882 -22.834266 -9.583386
66.359386 -22.529115 -8.664689
63.512306 -25.093853 -11.25057
63.803844 -25.927869 -10.27634
63.026226 -26.44946 -11.135984
63.959305 -23.684558 -11.369699
63.512306 -25.093853 -11.25057
60.807817 -33.342849 -13.376592
60.534632 -34.06522 -12.36939
60.831319 -31.866722 -13.734752
60.807817 -33.342849 -13.376592
67.341896 -23.371902 -1.648865
66.547939 -23.870879 -0.770562
67.222409 -24.552924 -0.875945
67.985557 -22.89885 -2.528957
67.341896 -23.371902 -1.648865
68.358986 -23.726915 -2.618111
68.328179 -22.571818 -3.392819
67.985557 -22.89885 -2.528957
62.630499 -45.698871 5.56879
63.45476 -44.728157 5.063031
63.662045 -45.347096 6.179997
59.970016 -46.993392 3.808142
60.754696 -46.52663 4.385896
59.261189 -47.528827 3.258983
59.869877 -46.501087 2.745005
59.970016 -46.993392 3.808142
58.724518 -48.074711 2.714429
59.261189 -47.528827 3.258983
64.740746 -34.681415 8.27149
63.507324 -34.217385 8.232159
65.986252 -34.292215 7.220552
64.740746 -34.681415 8.27149
65.793518 -35.200323 8.315423
66.941814 -40.524774 16.013718
67.037655 -39.974193 14.698604
67.834366 -41.021662 16.218518
66.941814 -40.524774 16.013718
68.615094 -41.021572 15.093421
67.834366 -41.021662 16.218518
62.310325 -27.029932 -11.936447
63.026226 -26.44946 -11.135984
62.601863 -27.863948 -10.962217
61.766014 -27.632986 -12.77185
62.310325 -27.029932 -11.936447
61.766014 -27.632986 -12.77185
61.475315 -29.090252 -12.534145
59.98008 -38.856034 -8.592222
59.848566 -39.436203 -7.578605
59.762804 -40.176697 -8.160531
60.009028 -38.223007 -9.592822
60.09479 -37.482514 -9.010897
59.98008 -38.856034 -8.592222
64.635391 -29.108532 3.391051
64.374736 -30.200668 4.282147
64.820717 -27.982495 2.538168
64.635391 -29.108532 3.391051
65.927665 -28.499221 2.456626
65.080967 -26.837789 1.709106
64.820717 -27.982495 2.538168
66.270721 -26.212542 0.803051
65.238698 -25.677148 0.908414
65.080967 -26.837789 1.709106
58.400205 -47.899535 0.143331
58.75365 -46.814846 -0.400942
58.672937 -47.201693 0.631996
58.301045 -48.611332 -0.306948
58.400205 -47.899535 0.143331
58.373531 -49.391866 -0.737366
58.553406 -48.293222 -1.320024
58.301045 -48.611332 -0.306948
63.724325 -33.29344 7.183077
63.507324 -34.217385 8.232159
63.927866 -32.292812 6.174356
63.724325 -33.29344 7.183077
65.13702 -32.77268 6.167897
64.173847 -31.274065 5.206981
63.927866 -32.292812 6.174356
65.54145 -30.698656 4.234342
64.374736 -30.200668 4.282147
64.173847 -31.274065 5.206981
70.491577 -42.270843 10.514399
70.638858 -41.527983 10.201284
70.626758 -42.24552 11.440162
70.099292 -42.36305 9.637802
70.491577 -42.270843 10.514399
69.625892 -42.441309 8.798817
70.030277 -41.631565 8.436537
70.099292 -42.36305 9.637802
68.94521 -42.578804 8.007475
69.625892 -42.441309 8.798817
68.183132 -42.723327 7.250619
68.7948 -41.854348 6.840696
68.94521 -42.578804 8.007475
67.282726 -42.919494 6.534619
68.183132 -42.723327 7.250619
66.317383 -43.142196 5.848514
67.067379 -42.221573 5.397735
67.282726 -42.919494 6.534619
65.509518 -44.108249 6.329818
65.294171 -43.410328 5.192934
66.317383 -43.142196 5.848514
64.682129 -45.040028 6.816663
65.509518 -44.108249 6.329818
63.662045 -45.347096 6.179997
64.682129 -45.040028 6.816663
59.504579 -42.055733 -6.650166
59.601324 -41.298533 -6.126955
59.474613 -42.597399 -5.630206
59.739244 -41.531759 -7.674655
59.504579 -42.055733 -6.650166
59.053293 -47.558166 -3.382543
58.711439 -47.903837 -2.35686
59.040752 -46.317154 -3.999207
59.053293 -47.558166 -3.382543
59.193208 -45.108639 -4.561457
58.949442 -45.525402 -3.525528
59.040752 -46.317154 -3.999207
59.239883 -43.835743 -5.120598
59.193208 -45.108639 -4.561457
66.555786 -37.357357 10.752897
65.461556 -36.88205 10.626674
67.438873 -37.894085 10.884579
67.594628 -37.11367 9.671198
66.555786 -37.357357 10.752897
68.33923 -38.407696 11.046608
67.438873 -37.894085 10.884579
67.300388 -38.651382 12.128308
68.070915 -39.819721 13.587372
67.167485 -39.319465 13.401568
67.037655 -39.974193 14.698604
70.23423 -42.146926 14.45825
69.818798 -41.546272 14.223581
70.48381 -42.194878 13.413312
70.23423 -42.146926 14.45825
70.696583 -42.184283 12.404471
70.561267 -41.513254 12.135887
70.48381 -42.194878 13.413312
70.626758 -42.24552 11.440162
70.696583 -42.184283 12.404471
67.68283 -22.152703 -6.890757
68.174564 -22.086517 -6.02926
67.994754 -23.203029 -6.062661
67.68283 -22.152703 -6.890757
67.112793 -22.280493 -7.798771
64.743741 -23.237167 -10.450852
65.596882 -22.834266 -9.583386
65.143067 -24.169361 -9.52346
64.743741 -23.237167 -10.450852
63.959305 -23.684558 -11.369699
60.253526 -37.59539 -10.60188
60.009028 -38.223007 -9.592822
60.272062 -36.174706 -11.015004
60.253526 -37.59539 -10.60188
60.401851 -36.920609 -11.605387
60.481809 -34.785408 -11.368521
60.333484 -35.460189 -10.365014
60.272062 -36.174706 -11.015004
60.596054 -33.350704 -11.7194
60.481809 -34.785408 -11.368521
60.534632 -34.06522 -12.36939
60.856772 -31.1833 -13.012939
61.102598 -30.501368 -12.303061
60.894703 -31.948583 -12.010391
60.856772 -31.1833 -13.012939
60.831319 -31.866722 -13.734752
65.483269 -24.497743 0.120743
65.238698 -25.677148 0.908414
65.483269 -24.497743 0.120743
66.547939 -23.870879 -0.770562
68.517998 -22.291221 -4.275715
68.328179 -22.571818 -3.392819
68.594047 -23.268363 -4.341569
68.410438 -22.1597 -5.13531
68.517998 -22.291221 -4.275715
61.676951 -46.08377 4.964725
62.630499 -45.698871 5.56879
61.50096 -45.522792 3.872994
61.676951 -46.08377 4.964725
60.754696 -46.52663 4.385896
58.74027 -47.661451 1.686057
58.672937 -47.201693 0.631996
59.093716 -46.576763 1.141784
58.74027 -47.661451 1.686057
58.724518 -48.074711 2.714429
3 0 33 31
3 1 124 125
3 1 126 128
3 126 35 127
3 126 127 128
3 1 37 35
3 2 40 38
3 4 44 42
3 5 47 45
3 5 129 131
3 131 130 47
3 129 130 131
3 133 132 48
3 6 51 50
3 6 53 51
3 6 55 53
3 7 58 56
3 7 60 58
3 3 63 61
3 8 66 64
3 8 68 66
3 8 70 68
3 9 74 72
3 11 75 32
3 11 76 75
3 12 77 34
3 12 78 77
3 12 80 78
3 14 81 36
3 14 82 81
3 16 87 85
3 18 88 39
3 18 134 136
3 136 135 88
3 134 135 136
3 137 89 138
3 139 138 71
3 137 138 139
3 140 91 141
3 142 92 143
3 144 143 41
3 142 143 144
3 145 93 146
3 147 146 92
3 145 146 147
3 20 148 149
3 21 150 152
3 152 151 43
3 150 151 152
3 21 153 154
3 10 94 73
3 155 95 156
3 157 156 46
3 155 156 157
3 159 158 95
3 17 96 86
3 22 97 49
3 22 98 97
3 160 99 161
3 163 162 99
3 23 164 166
3 166 165 52
3 164 165 166
3 23 167 168
3 23 169 171
3 169 100 170
3 169 170 171
3 24 101 54
3 24 102 101
3 13 103 79
3 25 104 57
3 25 105 104
3 25 106 105
3 26 107 59
3 26 108 107
3 19 109 90
3 27 110 62
3 27 111 110
3 15 112 83
3 28 113 65
3 28 114 113
3 28 115 114
3 29 116 67
3 29 117 116
3 29 118 117
3 30 119 69
3 30 120 119
3 172 121 173
3 174 173 84
3 172 173 174
3 175 122 176
3 177 123 178
3 179 178 122
3 177 178 179
3 181 180 123
3 31 32 9
3 33 32 31
3 33 11 32
3 182 34 183
3 35 184 186
3 184 34 185
3 184 185 186
3 35 12 34
3 35 36 12
3 37 36 35
3 37 14 36
3 38 39 16
3 40 39 38
3 40 18 39
3 187 41 188
3 189 41 190
3 192 191 41
3 42 43 20
3 44 43 42
3 44 21 43
3 45 46 10
3 47 46 45
3 47 193 195
3 195 194 46
3 193 194 195
3 47 196 197
3 199 198 47
3 48 49 17
3 200 49 201
3 202 201 48
3 200 201 202
3 203 22 204
3 205 204 49
3 203 204 205
3 50 206 207
3 51 208 210
3 210 209 50
3 208 209 210
3 51 211 212
3 51 213 215
3 213 52 214
3 213 214 215
3 53 52 51
3 53 23 52
3 53 54 23
3 55 54 53
3 55 24 54
3 56 57 13
3 58 57 56
3 58 25 57
3 58 59 25
3 60 59 58
3 60 26 59
3 61 62 19
3 63 62 61
3 63 27 62
3 64 65 15
3 66 65 64
3 66 28 65
3 66 67 28
3 68 67 66
3 68 29 67
3 68 69 29
3 70 69 68
3 70 30 69
3 216 71 217
3 218 217 2
3 216 217 218
3 219 71 220
3 223 222 71
3 221 222 223
3 72 73 4
3 74 73 72
3 74 10 73
3 32 74 9
3 75 74 32
3 75 10 74
3 75 45 10
3 76 45 75
3 76 5 45
3 34 224 225
3 77 226 228
3 228 227 34
3 226 227 228
3 77 229 230
3 77 231 233
3 231 50 232
3 231 232 233
3 78 50 77
3 78 6 50
3 78 79 6
3 80 79 78
3 80 13 79
3 36 80 12
3 81 80 36
3 81 13 80
3 81 56 13
3 82 56 81
3 82 7 56
3 234 83 235
3 236 235 3
3 234 235 236
3 237 83 238
3 239 15 240
3 241 240 83
3 239 240 241
3 242 15 243
3 244 64 245
3 246 245 15
3 244 245 246
3 247 64 248
3 249 8 250
3 251 250 64
3 249 250 251
3 252 84 253
3 254 253 8
3 252 253 254
3 255 84 256
3 258 257 84
3 85 86 0
3 87 86 85
3 87 17 86
3 39 87 16
3 88 87 39
3 88 17 87
3 88 48 17
3 259 48 260
3 261 260 88
3 259 260 261
3 263 262 48
3 71 40 2
3 89 40 71
3 89 18 40
3 264 89 265
3 266 89 267
3 268 18 269
3 270 269 89
3 268 269 270
3 272 271 18
3 273 1 274
3 275 90 276
3 277 276 1
3 275 276 277
3 91 278 280
3 278 90 279
3 278 279 280
3 91 19 90
3 41 281 283
3 281 91 282
3 281 282 283
3 92 91 41
3 92 19 91
3 92 61 19
3 93 61 92
3 93 3 61
3 284 93 285
3 286 93 287
3 288 3 289
3 290 289 93
3 288 289 290
3 292 291 3
3 43 293 295
3 295 294 20
3 293 294 295
3 297 296 43
3 73 44 4
3 94 44 73
3 94 21 44
3 46 94 10
3 95 94 46
3 95 21 94
3 95 298 300
3 300 299 21
3 298 299 300
3 302 301 95
3 86 33 0
3 96 33 86
3 96 11 33
3 49 96 17
3 97 96 49
3 97 11 96
3 97 76 11
3 98 76 97
3 98 5 76
3 303 22 304
3 305 22 306
3 305 306 307
3 308 98 309
3 310 309 22
3 308 309 310
3 99 311 313
3 311 98 312
3 311 312 313
3 99 5 98
3 99 314 316
3 316 315 5
3 314 315 316
3 318 317 99
3 52 319 320
3 322 321 52
3 100 323 324
3 100 325 327
3 325 20 326
3 325 326 327
3 54 100 23
3 101 100 54
3 101 20 100
3 101 42 20
3 102 42 101
3 102 4 42
3 79 55 6
3 103 55 79
3 103 24 55
3 57 103 13
3 104 103 57
3 104 24 103
3 104 102 24
3 105 102 104
3 105 4 102
3 105 72 4
3 106 72 105
3 106 9 72
3 59 106 25
3 107 106 59
3 107 9 106
3 107 31 9
3 108 31 107
3 108 0 31
3 90 37 1
3 109 37 90
3 109 14 37
3 62 109 19
3 110 109 62
3 110 14 109
3 110 82 14
3 111 82 110
3 111 7 82
3 83 63 3
3 112 63 83
3 112 27 63
3 65 112 15
3 113 112 65
3 113 27 112
3 113 111 27
3 114 111 113
3 114 7 111
3 114 60 7
3 115 60 114
3 115 26 60
3 67 115 28
3 116 115 67
3 116 26 115
3 116 108 26
3 117 108 116
3 117 0 108
3 117 85 0
3 118 85 117
3 118 16 85
3 69 118 29
3 119 118 69
3 119 16 118
3 119 38 16
3 120 38 119
3 120 2 38
3 84 70 8
3 121 70 84
3 121 30 70
3 328 121 329
3 122 330 332
3 330 121 331
3 330 331 332
3 122 30 121
3 122 120 30
3 123 120 122
3 123 2 120
3 123 333 335
3 335 334 2
3 333 334 335
3 337 336 123
