ply
format ascii 1.0
element vertex 758
property float x
property float y
property float z
element face 831
property list uchar int vertex_index
end_header
53.000072 -31.874119 22.917637
43.911751 15.802189 -35.057663
53.305443 2.402288 -22.084528
52.955032 -15.226645 -4.944427
46.569439 -28.34927 10.645838
44.683342 3.382841 -18.730947
45.850586 -6.430392 -13.278677
59.377373 -38.0303 27.063494
56.434311 -37.580948 18.12295
49.58984 10.340231 -29.492975
44.972565 -13.850804 -5.837412
49.326271 -22.358913 3.234107
59.249348 -24.607212 2.368083
47.663784 -31.927483 17.362925
56.657482 -32.843224 9.430211
54.600922 -6.747833 -13.698616
42.469429 -2.732096 -10.996986
42.613075 -7.433816 -8.522423
48.81871 1.62187 -21.140982
47.465656 6.04031 -24.141748
51.709564 6.614716 -25.945211
47.620766 -25.530552 7.016611
54.129723 -23.398014 2.918958
52.422123 -27.342125 6.372011
49.899406 -32.307278 20.288174
61.49139 -37.645569 13.924191
56.16375 -35.781105 13.623843
62.081169 -34.661461 9.287701
63.007133 -30.776077 5.254786
40.684177 16.533558 -30.790632
40.530792 17.162525 -36.667702
48.617195 -15.240624 -5.6171
49.653946 -11.649286 -9.99984
54.136971 -11.163432 -9.306379
41.981277 2.739061 -13.180706
45.471447 -1.63825 -16.186369
49.702347 -2.976322 -17.80208
55.80867 -35.256752 24.923059
53.319595 -35.643272 21.338409
57.519402 -38.257935 22.665377
61.423553 -39.558739 18.934561
66.134224 -39.473938 14.5128
57.587776 -14.854855 -4.353504
58.661263 -10.309181 -8.437851
56.653835 -30.9408 25.417446
58.885498 -34.304798 28.34621
43.409164 13.680161 -29.03557
43.532459 8.317513 -21.009615
45.672752 10.112574 -26.793264
46.97802 13.45784 -32.594734
43.767197 -16.331703 -1.394981
47.067467 -18.281122 -1.138767
45.328381 -20.887037 3.246264
51.243683 -18.93449 -0.745335
55.980228 -19.212391 -0.596561
60.760117 -19.944214 -0.833588
64.966499 -21.542572 -1.301065
46.52964 -30.572464 14.119224
51.656757 -35.140442 17.564596
50.960258 -33.52092 13.706636
51.261585 -30.827135 9.94408
57.771152 -29.001961 5.702564
64.048943 -26.302395 1.814469
45.705967 -10.585133 -9.857903
50.014893 -7.500249 -14.09271
54.302692 -2.136023 -17.985441
59.03157 -5.572071 -12.81311
58.646488 -0.743353 -17.366465
51.052647 1.790031 -21.785975
50.375923 3.967873 -23.543276
52.576557 4.561346 -24.048204
54.720745 5.389084 -24.260263
44.995636 -25.704298 9.145765
46.987526 -26.996532 8.848829
49.9188 -26.476198 6.714985
49.255531 -28.135283 8.499973
51.932907 -29.903606 22.047661
50.157524 -30.184748 21.006313
51.359657 -32.17395 21.63221
64.211571 -37.187157 11.713831
61.73175 -36.281559 11.540928
64.548012 -35.589523 9.366362
42.317413 15.81398 -32.985313
40.744293 16.765545 -33.741508
42.245567 16.617836 -35.981476
50.7206 -15.351308 -5.304764
51.369476 -13.502932 -7.517155
53.627434 -13.242355 -7.112202
44.055328 -4.92879 -12.312204
43.888023 -2.442308 -13.610357
45.718655 -4.087561 -14.786394
47.508041 -2.658897 -17.190008
47.747334 -5.002324 -15.584345
57.518105 -36.707588 25.99761
56.340797 -36.959522 24.013464
58.359524 -38.24017 24.888842
63.76049 -40.489212 19.377647
63.793449 -39.643665 16.756836
65.942543 -40.5751 17.14303
59.850899 -14.874396 -4.215815
60.387146 -12.522587 -6.121214
57.668671 -32.695126 26.859943
41.640625 14.9258 -26.985643
42.771095 13.089836 -26.039557
42.863079 5.495523 -17.06349
44.154507 5.876762 -19.899733
48.658058 8.045231 -26.812464
46.625546 8.128712 -25.514048
47.623302 9.914007 -28.306349
46.47015 11.64813 -29.688292
48.344269 11.983711 -31.110487
43.07534 -17.348095 0.882526
45.297348 -17.514452 -1.308029
44.507465 -18.687408 0.956843
46.334236 -23.121124 5.290779
44.51981 -22.065834 5.360881
47.20435 -21.723892 3.270929
48.131699 -20.258343 1.194618
50.286186 -20.677963 1.271772
53.570419 -19.060637 -0.623219
52.615971 -21.000502 1.272275
56.687393 -23.955269 2.659515
57.557266 -21.741594 1.006392
60.022224 -22.296909 0.770197
62.973816 -20.625988 -1.05422
62.376446 -23.026134 0.504094
47.190487 -30.248381 18.685408
46.012825 -28.025188 18.543653
46.077995 -29.975201 17.363522
45.256008 -29.48402 15.923429
46.949196 -31.371445 15.776329
54.553879 -36.864136 19.904663
52.374233 -35.52224 19.471878
53.977921 -36.440571 17.801458
56.321548 -34.444744 11.474128
53.500969 -34.721561 13.615512
53.599297 -33.428284 11.592176
50.990356 -32.294369 11.803787
53.908958 -31.877621 9.647736
54.408218 -30.110271 7.792613
57.150265 -31.013964 7.506876
63.528442 -28.591806 3.472594
37.495712 17.872845 -34.660568
43.488586 -12.461996 -5.67309
43.835892 -11.011548 -7.606091
45.410511 -12.329144 -7.918276
52.166183 -9.452844 -11.889381
49.922184 -9.637642 -12.09156
52.289337 -7.272428 -14.008064
52.228622 -5.021706 -16.062201
54.544903 -4.450856 -15.861704
60.97477 -7.720786 -10.230671
58.940083 -7.961446 -10.595308
61.004745 -5.276271 -12.422831
58.178715 1.640268 -19.671869
42.592445 -5.22704 -9.812035
44.113747 -7.22855 -10.902822
46.677528 2.107124 -20.115427
46.107346 4.460461 -21.453764
48.19696 3.86532 -22.682985
49.575939 6.058319 -25.221121
50.712421 8.545662 -27.764975
45.57914 -24.450779 7.250484
48.418854 -23.978849 5.14687
51.653358 -22.888351 3.116664
50.73592 -24.718641 4.925393
53.231979 -25.410133 4.640667
55.840572 -26.108141 4.320829
48.562782 -30.310841 19.894356
48.656364 -32.234833 18.867754
58.815865 -37.815907 16.09338
56.198467 -36.828617 15.85162
58.860283 -36.740524 13.730452
59.066147 -35.381737 11.457982
59.415459 -33.758636 9.308353
59.885941 -31.904291 7.301451
62.515171 -32.813572 7.189537
39.123466 17.45636 -34.302109
46.689804 -14.768611 -5.811869
47.213455 -13.156054 -7.985981
49.214024 -13.518174 -7.833792
51.857162 -11.535187 -9.719418
54.464645 -8.993748 -11.508141
43.284229 2.822908 -15.969393
42.261799 -0.050018 -12.112957
43.627388 0.16111 -14.82313
45.123219 0.866159 -17.496542
47.147057 -0.276274 -18.696756
49.324409 -0.668163 -19.515249
51.596176 -0.454086 -19.95273
54.294621 -33.652885 23.883707
52.802917 -33.953426 22.351999
54.472862 -35.540421 23.155214
55.345886 -37.025063 21.980459
56.875027 -38.049114 20.403616
59.769718 -39.379501 23.358936
59.263672 -39.118607 20.940622
58.947033 -38.604767 18.508879
61.382256 -38.738426 16.401751
63.951393 -38.542561 14.189697
66.400032 -38.137772 11.966278
55.265434 -15.013061 -4.60784
55.927917 -12.89196 -6.700787
58.204773 -12.607283 -6.354372
60.766479 -10.137935 -8.126987
53.844139 -29.506065 23.052971
55.843071 -29.028971 24.060371
54.78001 -31.450296 24.169868
55.931141 -33.221069 25.379986
57.294151 -34.833618 26.649761
58.84639 -36.306213 27.933971
42.098766 15.210903 -29.978624
43.809437 14.625031 -32.046295
45.437817 6.758625 -22.715776
44.664165 8.978916 -23.902063
43.777946 11.097954 -25.010881
44.601692 11.971275 -27.970449
45.197659 13.226921 -30.941133
45.496502 14.739616 -33.919701
43.025196 -13.672136 -3.578571
44.413754 -15.175083 -3.648832
46.03952 -16.215124 -3.574673
47.889511 -16.823658 -3.376789
49.938416 -17.085333 -3.104012
43.721313 -19.754219 3.19295
46.1964 -19.629995 1.074847
49.060303 -18.716381 -0.933147
52.148125 -17.120865 -2.818729
54.467804 -17.066906 -2.581409
56.835308 -17.055187 -2.436579
59.179459 -17.194983 -2.404467
55.062813 -21.328012 1.181532
58.402489 -19.485048 -0.67164
61.423637 -17.562651 -2.480434
46.407455 -29.553778 12.405173
51.492287 -34.079319 20.768745
50.394009 -33.987888 19.124863
49.535301 -33.64463 17.421097
53.625977 -35.72921 15.695124
51.182426 -34.474773 15.63486
48.938202 -33.030384 15.668342
48.616501 -32.145935 13.884108
48.572323 -31.011305 12.086658
48.793945 -29.660686 10.289846
51.750534 -29.161432 8.134933
55.065479 -28.17231 6.022783
58.484482 -26.852865 3.999685
60.450592 -29.860888 5.44001
61.077789 -27.673416 3.708695
61.73217 -25.383686 2.076906
64.538086 -23.943586 0.239126
42.503723 -9.248674 -7.054981
44.045139 -9.270623 -9.346254
45.850925 -8.61164 -11.642277
47.586956 -11.364799 -10.065775
47.798798 -9.39447 -12.029196
47.849129 -7.262215 -13.867558
49.937584 -5.267019 -15.996096
51.993095 -2.736271 -18.044611
53.885159 0.160019 -20.061689
56.427933 -10.699355 -8.851456
56.746574 -8.437491 -11.045645
56.873394 -6.117764 -13.266447
60.854904 -2.816315 -14.689608
58.932846 -3.15773 -15.075405
56.805748 -3.761523 -15.497112
56.547417 -1.39851 -17.723024
56.106674 0.936762 -19.932207
55.494133 3.209583 -22.11455
46.778483 -27.672901 9.747333
45.811472 -26.929863 9.909615
45.602429 -27.606232 10.80812
65.629776 -36.083233 9.452939
64.379792 -36.38834 10.540097
65.461556 -36.88205 10.626674
65.793518 -35.200323 8.315423
65.629776 -36.083233 9.452939
64.804771 -40.964022 19.600527
63.814728 -40.787728 20.698638
65.895798 -41.006965 18.483219
64.851517 -40.532156 18.260338
64.804771 -40.964022 19.600527
66.835094 -41.071987 17.347829
65.895798 -41.006965 18.483219
61.12643 -13.805037 -5.118113
60.915199 -15.016706 -4.208738
42.370207 13.006332 -24.55426
41.890335 14.058399 -25.032455
49.889204 11.54371 -30.852288
49.266419 12.36545 -31.661044
48.967055 11.161971 -30.301731
42.731676 -17.798149 2.014754
42.194673 -16.83605 2.008095
43.447738 -18.467806 2.051912
43.791403 -18.017752 0.919685
42.731676 -17.798149 2.014754
36.516474 17.703919 -36.046669
36.6993 17.944119 -34.739719
37.312885 17.632645 -35.967517
61.866672 -5.315156 -12.286635
60.989757 -6.498529 -11.326751
61.851685 -6.537413 -11.190555
42.60276 -6.330428 -9.167229
41.986733 -5.161428 -8.590556
41.997048 -6.264816 -7.945749
52.219314 7.99447 -27.170172
51.720743 8.959943 -28.080053
51.210993 7.580189 -26.855093
39.937162 17.076794 -31.127415
39.864063 17.27105 -29.707073
39.67033 17.29186 -36.884003
38.966667 17.438778 -35.701206
39.827129 17.309442 -35.484905
41.807693 4.155845 -13.698087
41.249446 4.381342 -12.277709
42.632753 2.780984 -14.57505
42.459169 4.197769 -15.09243
41.807693 4.155845 -13.698087
42.365614 -1.391057 -11.554972
41.667725 0.044569 -10.75818
41.77154 -1.29647 -10.200195
60.888418 -39.904392 23.694599
60.114851 -39.397144 24.550973
60.343612 -39.338673 19.937591
60.446667 -39.617561 21.21374
61.526607 -39.837627 20.21071
67.167485 -39.319465 13.401568
67.300388 -38.651382 12.128308
66.267128 -38.805855 13.239539
61.719894 -10.215431 -8.038647
60.576813 -11.330261 -7.1241
61.530228 -11.407757 -7.035761
61.774948 -8.984633 -9.061112
61.719894 -10.215431 -8.038647
54.533287 -28.227948 22.933156
53.479042 -28.442094 22.547767
56.248453 -29.984885 24.738909
56.859711 -28.765133 24.583199
57.265093 -29.721047 25.261736
42.651423 9.516493 -20.073376
42.946921 8.22808 -19.563046
43.170091 9.496796 -21.537266
42.651423 9.516493 -20.073376
47.060545 14.413706 -34.055782
46.319786 15.054594 -34.718266
46.237261 14.098728 -33.257218
42.224016 -13.144803 -2.420748
42.449596 -12.704798 -3.479793
43.12341 -15.51319 -1.385893
42.830246 -15.950356 -0.25913
44.090475 -15.753393 -2.521907
43.446688 -14.93488 -2.512819
43.12341 -15.51319 -1.385893
44.161646 -20.809791 4.311545
43.757361 -21.39919 5.368853
44.924095 -21.476436 4.303572
44.524847 -20.320628 3.219607
43.358112 -20.243382 4.284887
44.161646 -20.809791 4.311545
62.125405 -19.071956 -1.737357
62.457165 -17.881174 -2.56078
61.091877 -18.753432 -1.657011
65.137271 -20.330113 -2.07749
64.14093 -19.871821 -1.954068
63.970157 -21.08428 -1.177642
65.88953 -20.924594 -2.19307
65.137271 -20.330113 -2.07749
45.57011 -26.798334 18.468874
45.405941 -27.904985 17.96218
45.636431 -29.678442 14.244909
44.999614 -29.13422 15.147011
45.892824 -30.028242 15.021327
46.468547 -30.063121 13.262199
45.575338 -29.169099 13.387883
45.636431 -29.678442 14.244909
42.376427 -9.949731 -6.196153
41.883821 -8.9058 -5.972334
61.493656 -1.602934 -15.716461
61.682525 -2.842593 -14.547191
58.789667 -1.950541 -16.220935
59.730438 -1.758981 -16.045344
59.587259 -0.551793 -17.190874
56.822059 2.448479 -20.955311
57.142694 1.288515 -19.802038
57.85808 2.800232 -20.825142
56.515789 3.58489 -22.046482
55.800404 2.073173 -21.023378
56.822059 2.448479 -20.955311
56.112356 4.697348 -23.193844
56.515789 3.58489 -22.046482
42.010134 -7.291632 -7.396097
41.997048 -6.264816 -7.945749
53.186476 6.005852 -25.203268
52.752979 7.032538 -26.151772
52.143061 5.588031 -24.996707
54.25857 6.419721 -25.309297
53.186476 6.005852 -25.203268
53.648651 4.975215 -24.154233
55.242832 6.838506 -25.401196
54.25857 6.419721 -25.309297
44.815527 -26.283746 10.058083
44.00884 -25.437289 10.186798
45.991581 -26.350415 8.997297
44.815527 -26.283746 10.058083
45.811472 -26.929863 9.909615
51.045215 -30.044177 21.526987
50.623686 -28.958331 21.140344
51.511378 -28.81776 21.661019
64.740746 -34.681415 8.27149
63.507324 -34.217385 8.232159
63.314591 -35.125492 9.327032
64.740746 -34.681415 8.27149
65.793518 -35.200323 8.315423
41.402135 2.891387 -11.786042
41.249446 4.381342 -12.277709
40.670305 4.533669 -10.883045
62.695076 -40.302864 20.432253
63.814728 -40.787728 20.698638
62.592022 -40.023976 19.156104
61.526607 -39.837627 20.21071
62.695076 -40.302864 20.432253
66.941814 -40.524774 16.013718
67.037655 -39.974193 14.698604
66.038384 -40.024519 15.827915
67.834366 -41.021662 16.218518
66.941814 -40.524774 16.013718
66.835094 -41.071987 17.347829
61.394554 -12.629133 -6.070813
60.119022 -13.698491 -5.168515
61.12643 -13.805037 -5.118113
61.530228 -11.407757 -7.035761
61.394554 -12.629133 -6.070813
57.611063 -30.657426 26.05218
57.265093 -29.721047 25.261736
58.118481 -31.534589 26.773429
57.161253 -31.817963 26.138694
57.611063 -30.657426 26.05218
58.560575 -32.398205 27.600577
58.118481 -31.534589 26.773429
59.168989 -33.203041 28.343711
58.277085 -33.499962 27.603077
58.560575 -32.398205 27.600577
41.3251 14.976381 -25.505499
40.784569 15.941494 -25.961984
42.20586 14.007818 -26.5126
41.3251 14.976381 -25.505499
41.890335 14.058399 -25.032455
42.61223 6.817085 -17.589983
42.041647 6.947417 -16.146679
43.257945 7.007705 -19.008105
42.61223 6.817085 -17.589983
43.508793 5.686143 -18.481611
43.843483 7.097138 -20.454674
42.946921 8.22808 -19.563046
43.257945 7.007705 -19.008105
48.534832 13.073272 -32.526824
47.851708 13.810337 -33.268948
47.661144 12.720775 -31.852611
48.534832 13.073272 -32.526824
49.266419 12.36545 -31.661044
42.484318 -16.458551 0.879624
42.194673 -16.83605 2.008095
43.421268 -16.839899 -0.256227
42.830246 -15.950356 -0.25913
42.484318 -16.458551 0.879624
45.427023 -22.593479 5.32583
44.174307 -22.620011 6.383125
45.08152 -23.147656 6.348074
46.601656 -29.136784 18.614531
46.752972 -28.054978 19.05342
47.341803 -29.166574 19.124297
45.438526 -28.879991 17.372115
45.405941 -27.904985 17.96218
46.04541 -29.000194 17.953587
45.667001 -29.72961 16.643476
45.027532 -28.634401 16.652068
45.438526 -28.879991 17.372115
64.635391 -29.108532 3.391051
63.267787 -29.683941 4.36369
64.374736 -30.200668 4.282147
64.820717 -27.982495 2.538168
64.635391 -29.108532 3.391051
65.080967 -26.837789 1.709106
63.788692 -27.4471 2.643531
64.820717 -27.982495 2.538168
65.238698 -25.677148 0.908414
65.080967 -26.837789 1.709106
36.799038 18.440287 -33.519703
37.573045 18.160658 -33.327399
36.799038 18.440287 -33.519703
36.6993 17.944119 -34.739719
43.662239 -11.736772 -6.639591
43.042511 -10.831169 -6.471707
42.868858 -11.556392 -5.505207
59.337888 0.661518 -18.375235
59.587259 -0.551793 -17.190874
59.104002 1.853328 -19.527937
58.412601 0.448458 -18.519167
59.337888 0.661518 -18.375235
58.771513 3.037238 -20.726107
59.104002 1.853328 -19.527937
57.85808 2.800232 -20.825142
58.771513 3.037238 -20.726107
41.866203 -2.671495 -9.698774
41.77154 -1.29647 -10.200195
41.927712 -3.918967 -9.106299
41.986733 -5.161428 -8.590556
42.530937 -3.979568 -10.404511
41.866203 -2.671495 -9.698774
41.927712 -3.918967 -9.106299
59.918678 -38.722544 26.403253
60.346676 -38.641295 27.571945
51.118629 9.845316 -29.0592
50.557339 10.7426 -29.923201
50.151131 9.442946 -28.628975
51.118629 9.845316 -29.0592
51.720743 8.959943 -28.080053
52.219314 7.99447 -27.170172
52.752979 7.032538 -26.151772
44.153908 -24.95817 9.255885
44.00884 -25.437289 10.186798
44.44566 -24.331411 8.308244
44.153908 -24.95817 9.255885
45.287388 -25.077539 8.198125
44.703972 -23.812484 7.327927
44.44566 -24.331411 8.308244
45.956688 -23.785951 6.270632
45.08152 -23.147656 6.348074
44.703972 -23.812484 7.327927
49.67894 -29.081527 20.73421
50.623686 -28.958331 21.140344
48.881569 -29.144573 20.178231
49.67894 -29.081527 20.73421
49.360153 -30.247794 20.450334
48.02795 -29.197805 19.728772
48.881569 -29.144573 20.178231
47.876634 -30.279611 19.289882
47.341803 -29.166574 19.124297
48.02795 -29.197805 19.728772
63.724325 -33.29344 7.183077
62.29817 -33.737516 8.238619
63.507324 -34.217385 8.232159
63.927866 -32.292812 6.174356
63.724325 -33.29344 7.183077
64.173847 -31.274065 5.206981
62.761152 -31.794825 6.222162
63.927866 -32.292812 6.174356
64.374736 -30.200668 4.282147
64.173847 -31.274065 5.206981
39.96722 17.192787 -32.602852
39.937162 17.076794 -31.127415
40.714235 16.649552 -32.26607
39.156807 17.538194 -32.883153
39.96722 17.192787 -32.602852
39.93388 17.110952 -34.021809
38.386922 17.952416 -33.14817
39.156807 17.538194 -32.883153
38.309589 17.664603 -34.481338
37.573045 18.160658 -33.327399
38.386922 17.952416 -33.14817
38.15279 17.64702 -35.880436
38.309589 17.664603 -34.481338
38.966667 17.438778 -35.701206
37.312885 17.632645 -35.967517
38.15279 17.64702 -35.880436
42.248594 5.534077 -15.639479
42.041647 6.947417 -16.146679
43.073654 4.159216 -16.516441
42.248594 5.534077 -15.639479
42.459169 4.197769 -15.09243
41.542397 1.496847 -11.252167
41.667725 0.044569 -10.75818
42.121538 1.344521 -12.646832
41.402135 2.891387 -11.786042
41.542397 1.496847 -11.252167
45.555357 -28.124859 11.680754
45.602429 -27.606232 10.80812
59.409754 -38.827478 25.315926
58.868448 -38.135235 25.976168
59.918678 -38.722544 26.403253
59.064621 -38.809835 24.123889
59.409754 -38.827478 25.315926
60.114851 -39.397144 24.550973
60.69969 -39.748008 22.422897
60.888418 -39.904392 23.694599
59.516695 -39.249054 22.149779
60.69969 -39.748008 22.422897
60.446667 -39.617561 21.21374
66.555786 -37.357357 10.752897
65.461556 -36.88205 10.626674
65.305802 -37.662464 11.840055
67.438873 -37.894085 10.884579
66.555786 -37.357357 10.752897
67.438873 -37.894085 10.884579
67.300388 -38.651382 12.128308
67.167485 -39.319465 13.401568
67.037655 -39.974193 14.698604
43.797337 16.425991 -36.553185
44.683333 16.071661 -35.9776
61.879093 -7.776058 -10.112954
60.870624 -8.929361 -9.178829
61.774948 -8.984633 -9.061112
61.851685 -6.537413 -11.190555
61.879093 -7.776058 -10.112954
52.523426 -28.640865 22.045113
51.511378 -28.81776 21.661019
52.888523 -29.704836 22.550316
52.523426 -28.640865 22.045113
53.479042 -28.442094 22.547767
56.602211 -27.751748 23.846184
56.859711 -28.765133 24.583199
55.532753 -27.989401 23.436856
56.602211 -27.751748 23.846184
54.843605 -29.267518 23.556671
54.533287 -28.227948 22.933156
55.532753 -27.989401 23.436856
59.704921 -33.999216 29.184429
59.168989 -33.203041 28.343711
59.582464 -35.044809 29.086638
59.704921 -33.999216 29.184429
60.401888 -34.739227 29.924857
59.56291 -36.045517 28.880518
58.865944 -35.305505 28.14009
59.582464 -35.044809 29.086638
59.693436 -36.982861 28.559814
59.56291 -36.045517 28.880518
59.958928 -37.844904 28.124575
59.111881 -37.168256 27.498732
59.693436 -36.982861 28.559814
60.346676 -38.641295 27.571945
59.958928 -37.844904 28.124575
40.538385 16.554455 -29.319019
39.864063 17.27105 -29.707073
41.016609 15.750576 -27.416525
40.784569 15.941494 -25.961984
41.245679 15.893127 -28.913015
41.016609 15.750576 -27.416525
41.869695 15.068352 -28.482133
41.391471 15.872231 -30.384628
40.538385 16.554455 -29.319019
41.245679 15.893127 -28.913015
43.735945 9.827497 -22.98349
43.170091 9.496796 -21.537266
44.098312 8.648214 -22.455839
43.292835 10.887016 -23.537899
43.735945 9.827497 -22.98349
44.221055 10.038435 -24.456472
42.873632 12.010392 -24.039923
43.292835 10.887016 -23.537899
43.274521 12.093895 -25.525219
42.370207 13.006332 -24.55426
42.873632 12.010392 -24.039923
45.475708 15.540374 -35.408619
44.683333 16.071661 -35.9776
44.704127 15.270903 -34.488682
45.475708 15.540374 -35.408619
46.319786 15.054594 -34.718266
47.060545 14.413706 -34.055782
47.851708 13.810337 -33.268948
49.889204 11.54371 -30.852288
50.557339 10.7426 -29.923201
42.681292 -12.099728 -4.527052
42.868858 -11.556392 -5.505207
43.256891 -13.067066 -4.625831
42.681292 -12.099728 -4.527052
42.449596 -12.704798 -3.479793
42.752409 -14.183407 -2.477689
42.224016 -13.144803 -2.420748
43.719475 -14.42361 -3.613702
42.752409 -14.183407 -2.477689
43.446688 -14.93488 -2.512819
43.452902 -21.85072 6.423744
44.174307 -22.620011 6.383125
43.452902 -21.85072 6.423744
43.757361 -21.39919 5.368853
42.740603 -19.403345 4.279675
43.358112 -20.243382 4.284887
43.054663 -19.001211 3.169966
42.740603 -19.403345 4.279675
44.114389 -19.220813 2.074896
43.447738 -18.467806 2.051912
43.054663 -19.001211 3.169966
60.57948 -16.177 -3.303064
60.915199 -15.016706 -4.208738
59.515179 -16.034689 -3.310141
61.701569 -16.360833 -3.341048
60.57948 -16.177 -3.303064
60.301548 -17.378817 -2.44245
62.661373 -16.659653 -3.387393
61.701569 -16.360833 -3.341048
62.661373 -16.659653 -3.387393
62.457165 -17.881174 -2.56078
63.232254 -19.412843 -1.847673
62.125405 -19.071956 -1.737357
61.866967 -20.285101 -0.943904
63.232254 -19.412843 -1.847673
64.14093 -19.871821 -1.954068
46.351862 -26.82968 18.897726
46.752972 -28.054978 19.05342
45.909148 -25.602826 18.822947
46.351862 -26.82968 18.897726
45.57011 -26.798334 18.468874
44.569557 -28.423268 15.993246
45.027532 -28.634401 16.652068
44.569557 -28.423268 15.993246
44.999614 -29.13422 15.147011
45.474365 -28.727113 12.560422
45.575338 -29.169099 13.387883
46.488447 -28.951524 11.525505
45.555357 -28.124859 11.680754
45.474365 -28.727113 12.560422
65.483269 -24.497743 0.120743
64.293515 -25.122991 1.026798
65.238698 -25.677148 0.908414
65.602756 -23.316721 -0.652178
65.483269 -24.497743 0.120743
66.547939 -23.870879 -0.770562
65.816963 -22.116214 -1.422273
64.752293 -22.743079 -0.530969
65.602756 -23.316721 -0.652178
65.88953 -20.924594 -2.19307
65.816963 -22.116214 -1.422273
42.964244 16.833815 -37.015091
43.078659 16.210013 -35.51957
43.797337 16.425991 -36.553185
42.052719 17.044275 -37.45861
42.964244 16.833815 -37.015091
42.771396 17.260254 -38.492226
41.195331 17.31662 -37.801723
41.388179 16.89018 -36.324589
42.052719 17.044275 -37.45861
40.280052 17.374899 -38.099255
41.195331 17.31662 -37.801723
39.67033 17.29186 -36.884003
40.280052 17.374899 -38.099255
41.955458 -8.19906 -6.662376
41.883821 -8.9058 -5.972334
42.558399 -8.341245 -7.788702
42.010134 -7.291632 -7.396097
41.955458 -8.19906 -6.662376
43.169808 -10.130111 -7.330536
42.376427 -9.949731 -6.196153
43.042511 -10.831169 -6.471707
61.757446 -4.072572 -13.413802
61.866672 -5.315156 -12.286635
60.929824 -4.046293 -13.55622
61.757446 -4.072572 -13.413802
61.682525 -2.842593 -14.547191
60.691467 -1.588274 -15.852446
61.493656 -1.602934 -15.716461
59.893875 -2.987023 -14.882506
60.691467 -1.588274 -15.852446
59.730438 -1.758981 -16.045344
55.725662 5.787099 -24.2667
55.107439 4.299334 -23.187407
56.112356 4.697348 -23.193844
55.242832 6.838506 -25.401196
55.725662 5.787099 -24.2667
3 2 70 68
3 2 71 70
3 4 269 271
3 269 73 270
3 269 270 271
3 4 75 73
3 0 78 76
3 272 81 273
3 274 273 79
3 272 273 274
3 276 275 81
3 1 84 82
3 3 87 85
3 6 90 88
3 6 92 90
3 7 95 93
3 277 96 278
3 279 98 280
3 281 280 96
3 279 280 281
3 283 282 98
3 285 284 99
3 286 103 287
3 5 105 104
3 9 108 106
3 9 110 108
3 9 288 290
3 290 289 110
3 288 289 290
3 291 111 292
3 293 113 294
3 295 294 111
3 293 294 295
3 11 116 114
3 11 118 116
3 11 120 118
3 12 123 121
3 12 125 123
3 13 128 126
3 13 130 128
3 8 133 131
3 14 136 134
3 14 138 136
3 14 140 138
3 298 297 142
3 296 297 298
3 10 145 143
3 15 148 146
3 15 150 148
3 299 153 300
3 301 300 151
3 299 300 301
3 17 302 304
3 302 155 303
3 302 303 304
3 17 156 155
3 18 159 157
3 20 160 69
3 20 161 160
3 20 305 307
3 307 306 161
3 305 306 307
3 21 162 72
3 21 163 162
3 21 165 163
3 23 166 74
3 23 167 166
3 24 168 77
3 24 169 168
3 25 172 170
3 27 173 80
3 27 174 173
3 27 176 174
3 29 308 309
3 30 177 83
3 30 310 312
3 312 311 177
3 310 311 312
3 31 180 178
3 33 181 86
3 33 182 181
3 34 313 314
3 34 315 317
3 315 183 316
3 315 316 317
3 16 318 320
3 318 184 319
3 318 319 320
3 35 185 89
3 35 186 185
3 35 187 186
3 36 188 91
3 36 189 188
3 37 192 190
3 39 193 94
3 39 194 193
3 321 195 322
3 40 323 325
3 323 196 324
3 323 324 325
3 40 197 196
3 40 198 197
3 41 199 97
3 41 200 199
3 41 326 328
3 328 327 200
3 326 327 328
3 42 203 201
3 329 204 330
3 331 330 100
3 329 330 331
3 333 332 204
3 334 205 335
3 44 336 338
3 336 206 337
3 336 337 338
3 44 207 206
3 44 208 207
3 45 209 101
3 45 210 209
3 46 211 102
3 46 212 211
3 47 339 340
3 47 341 342
3 19 213 158
3 48 214 107
3 48 215 214
3 48 216 215
3 49 217 109
3 49 218 217
3 49 343 345
3 345 344 218
3 343 344 345
3 346 219 347
3 50 348 349
3 50 350 352
3 350 220 351
3 350 351 352
3 50 221 220
3 51 222 112
3 51 223 222
3 52 353 355
3 355 354 115
3 353 354 355
3 52 356 358
3 356 224 357
3 356 357 358
3 52 225 224
3 53 226 117
3 53 227 226
3 53 228 227
3 54 229 119
3 54 230 229
3 22 231 164
3 55 232 122
3 55 233 232
3 55 359 361
3 361 360 233
3 359 360 361
3 56 362 364
3 364 363 124
3 362 363 364
3 56 365 366
3 368 367 127
3 57 369 371
3 371 370 129
3 369 370 371
3 57 372 374
3 372 234 373
3 372 373 374
3 38 235 191
3 58 236 132
3 58 237 236
3 26 238 171
3 59 239 135
3 59 240 239
3 59 241 240
3 60 242 137
3 60 243 242
3 60 244 243
3 61 245 139
3 61 246 245
3 28 247 175
3 62 248 141
3 62 249 248
3 62 250 249
3 375 251 376
3 63 252 144
3 63 253 252
3 32 254 179
3 64 255 147
3 64 256 255
3 64 257 256
3 65 258 149
3 65 259 258
3 43 260 202
3 66 261 152
3 66 262 261
3 377 263 378
3 67 379 381
3 379 264 380
3 379 380 381
3 67 265 264
3 67 266 265
3 382 267 383
3 384 383 154
3 382 383 384
3 385 268 386
3 387 386 267
3 385 386 387
3 389 388 268
3 390 17 391
3 68 69 18
3 70 69 68
3 70 20 69
3 70 392 394
3 394 393 20
3 392 393 394
3 71 395 397
3 397 396 70
3 395 396 397
3 71 398 399
3 400 72 401
3 73 402 404
3 402 72 403
3 402 403 404
3 73 21 72
3 73 74 21
3 75 74 73
3 75 23 74
3 76 405 407
3 405 77 406
3 405 406 407
3 78 77 76
3 78 24 77
3 79 80 25
3 81 80 79
3 81 27 80
3 81 408 410
3 410 409 27
3 408 409 410
3 412 411 81
3 82 83 29
3 84 83 82
3 84 30 83
3 85 86 31
3 87 86 85
3 87 33 86
3 413 34 414
3 413 414 415
3 88 89 16
3 90 89 88
3 90 35 89
3 90 91 35
3 92 91 90
3 92 36 91
3 93 94 37
3 95 94 93
3 95 39 94
3 96 416 417
3 96 418 420
3 418 40 419
3 418 419 420
3 96 97 40
3 98 97 96
3 98 41 97
3 98 421 423
3 423 422 41
3 421 422 423
3 426 425 98
3 424 425 426
3 99 100 42
3 427 100 428
3 429 428 99
3 427 428 429
3 431 430 100
3 432 44 433
3 434 101 435
3 436 435 44
3 434 435 436
3 437 101 438
3 439 45 440
3 441 440 101
3 439 440 441
3 442 102 443
3 103 444 446
3 444 102 445
3 444 445 446
3 103 46 102
3 104 447 448
3 105 449 451
3 451 450 104
3 449 450 451
3 105 452 454
3 452 47 453
3 452 453 454
3 106 107 19
3 108 107 106
3 108 48 107
3 108 109 48
3 110 109 108
3 110 49 109
3 110 455 457
3 457 456 49
3 455 456 457
3 459 458 110
3 111 460 461
3 111 462 464
3 462 50 463
3 462 463 464
3 111 112 50
3 113 112 111
3 113 51 112
3 114 465 467
3 465 115 466
3 465 466 467
3 116 115 114
3 116 52 115
3 116 117 52
3 118 117 116
3 118 53 117
3 118 119 53
3 120 119 118
3 120 54 119
3 121 122 22
3 123 122 121
3 123 55 122
3 123 124 55
3 125 124 123
3 125 56 124
3 126 468 470
3 468 127 469
3 468 469 470
3 128 127 126
3 128 471 473
3 473 472 127
3 471 472 473
3 128 474 476
3 474 129 475
3 474 475 476
3 130 129 128
3 130 57 129
3 131 132 38
3 133 132 131
3 133 58 132
3 134 135 26
3 136 135 134
3 136 59 135
3 136 137 59
3 138 137 136
3 138 60 137
3 138 139 60
3 140 139 138
3 140 61 139
3 477 141 478
3 479 478 28
3 477 478 479
3 480 141 481
3 482 62 483
3 484 483 141
3 482 483 484
3 486 485 62
3 142 487 488
3 490 489 142
3 143 491 493
3 491 144 492
3 491 492 493
3 145 144 143
3 145 63 144
3 146 147 32
3 148 147 146
3 148 64 147
3 148 149 64
3 150 149 148
3 150 65 149
3 151 152 43
3 153 152 151
3 153 66 152
3 494 67 495
3 496 154 497
3 498 497 67
3 496 497 498
3 499 154 500
3 502 501 154
3 503 16 504
3 155 505 506
3 155 507 509
3 507 16 508
3 507 508 509
3 155 88 16
3 156 88 155
3 156 6 88
3 511 510 7
3 157 158 5
3 159 158 157
3 159 19 158
3 69 159 18
3 160 159 69
3 160 19 159
3 160 106 19
3 161 106 160
3 161 9 106
3 161 512 514
3 514 513 9
3 512 513 514
3 516 515 161
3 518 517 20
3 72 519 520
3 162 521 523
3 523 522 72
3 521 522 523
3 162 524 525
3 162 526 528
3 526 114 527
3 526 527 528
3 163 114 162
3 163 11 114
3 163 164 11
3 165 164 163
3 165 22 164
3 74 165 21
3 166 165 74
3 166 22 165
3 166 121 22
3 167 121 166
3 167 12 121
3 77 529 530
3 168 531 533
3 533 532 77
3 531 532 533
3 168 534 535
3 168 536 538
3 536 126 537
3 536 537 538
3 169 126 168
3 169 13 126
3 170 171 8
3 172 171 170
3 172 26 171
3 80 172 25
3 173 172 80
3 173 26 172
3 173 134 26
3 174 134 173
3 174 14 134
3 174 175 14
3 176 175 174
3 176 28 175
3 539 176 540
3 541 540 27
3 539 540 541
3 542 176 543
3 544 28 545
3 546 545 176
3 544 545 546
3 548 547 28
3 83 549 551
3 551 550 29
3 549 550 551
3 177 552 554
3 554 553 83
3 552 553 554
3 177 555 556
3 177 557 559
3 557 142 558
3 557 558 559
3 560 142 561
3 562 561 177
3 560 561 562
3 564 563 142
3 178 179 10
3 180 179 178
3 180 32 179
3 86 180 31
3 181 180 86
3 181 32 180
3 181 146 32
3 182 146 181
3 182 15 146
3 565 104 566
3 183 567 569
3 567 104 568
3 567 568 569
3 183 5 104
3 184 570 571
3 184 572 574
3 572 34 573
3 572 573 574
3 89 184 16
3 185 184 89
3 185 34 184
3 185 183 34
3 186 183 185
3 186 5 183
3 186 157 5
3 187 157 186
3 187 18 157
3 91 187 35
3 188 187 91
3 188 18 187
3 188 68 18
3 189 68 188
3 189 2 68
3 575 4 576
3 190 191 0
3 192 191 190
3 192 38 191
3 94 192 37
3 193 192 94
3 193 38 192
3 193 131 38
3 194 131 193
3 194 8 131
3 577 95 578
3 579 578 7
3 577 578 579
3 195 580 582
3 580 95 581
3 580 581 582
3 195 39 95
3 583 195 584
3 196 585 587
3 585 195 586
3 585 586 587
3 196 39 195
3 196 194 39
3 197 194 196
3 197 8 194
3 197 170 8
3 198 170 197
3 198 25 170
3 97 198 40
3 199 198 97
3 199 25 198
3 199 79 25
3 200 79 199
3 200 588 590
3 590 589 79
3 588 589 590
3 200 591 592
3 594 593 200
3 596 595 41
3 598 597 1
3 201 202 3
3 203 202 201
3 203 43 202
3 100 203 42
3 204 203 100
3 204 43 203
3 204 151 43
3 599 151 600
3 601 600 204
3 599 600 601
3 603 602 151
3 604 76 605
3 205 606 608
3 606 76 607
3 606 607 608
3 205 0 76
3 206 609 610
3 206 611 612
3 206 613 615
3 613 205 614
3 613 614 615
3 207 205 206
3 207 0 205
3 207 190 0
3 208 190 207
3 208 37 190
3 101 208 44
3 209 208 101
3 209 37 208
3 209 93 37
3 210 93 209
3 210 7 93
3 616 45 617
3 618 45 619
3 618 619 620
3 621 210 622
3 623 622 45
3 621 622 623
3 624 210 625
3 626 7 627
3 628 627 210
3 626 627 628
3 630 629 7
3 631 29 632
3 102 633 634
3 211 635 637
3 637 636 102
3 635 636 637
3 211 638 640
3 638 29 639
3 638 639 640
3 211 82 29
3 212 82 211
3 212 1 82
3 158 105 5
3 213 105 158
3 213 47 105
3 107 213 19
3 214 213 107
3 214 47 213
3 214 641 643
3 643 642 47
3 641 642 643
3 215 644 646
3 646 645 214
3 644 645 646
3 215 647 648
3 215 649 651
3 649 103 650
3 649 650 651
3 216 103 215
3 216 46 103
3 109 216 48
3 217 216 109
3 217 46 216
3 217 212 46
3 218 212 217
3 218 1 212
3 218 652 654
3 654 653 1
3 652 653 654
3 656 655 218
3 658 657 49
3 660 659 9
3 661 143 662
3 219 663 665
3 663 143 664
3 663 664 665
3 219 10 143
3 666 219 667
3 220 668 670
3 668 219 669
3 668 669 670
3 220 10 219
3 220 178 10
3 221 178 220
3 221 31 178
3 112 221 50
3 222 221 112
3 222 31 221
3 222 85 31
3 223 85 222
3 223 3 85
3 115 671 672
3 674 673 115
3 224 675 676
3 224 677 678
3 224 679 681
3 679 113 680
3 679 680 681
3 225 113 224
3 225 51 113
3 117 225 52
3 226 225 117
3 226 51 225
3 226 223 51
3 227 223 226
3 227 3 223
3 227 201 3
3 228 201 227
3 228 42 201
3 119 228 53
3 229 228 119
3 229 42 228
3 229 99 42
3 230 99 229
3 230 682 684
3 684 683 99
3 682 683 684
3 164 120 11
3 231 120 164
3 231 54 120
3 122 231 22
3 232 231 122
3 232 54 231
3 232 230 54
3 233 230 232
3 233 685 687
3 687 686 230
3 685 686 687
3 233 688 689
3 691 690 233
3 124 692 694
3 694 693 55
3 692 693 694
3 696 695 124
3 127 697 698
3 701 700 127
3 699 700 701
3 129 702 703
3 705 704 129
3 234 706 707
3 234 708 710
3 708 4 709
3 708 709 710
3 191 78 0
3 235 78 191
3 235 24 78
3 132 235 38
3 236 235 132
3 236 24 235
3 236 169 24
3 237 169 236
3 237 13 169
3 171 133 8
3 238 133 171
3 238 58 133
3 135 238 26
3 239 238 135
3 239 58 238
3 239 237 58
3 240 237 239
3 240 13 237
3 240 130 13
3 241 130 240
3 241 57 130
3 137 241 59
3 242 241 137
3 242 57 241
3 242 234 57
3 243 234 242
3 243 4 234
3 243 75 4
3 244 75 243
3 244 23 75
3 139 244 60
3 245 244 139
3 245 23 244
3 245 167 23
3 246 167 245
3 246 12 167
3 175 140 14
3 247 140 175
3 247 61 140
3 141 247 28
3 248 247 141
3 248 61 247
3 248 246 61
3 249 246 248
3 249 12 246
3 249 125 12
3 250 125 249
3 250 56 125
3 711 250 712
3 713 712 62
3 711 712 713
3 714 250 715
3 714 715 716
3 717 56 718
3 719 718 250
3 717 718 719
3 721 720 56
3 722 84 723
3 724 723 1
3 722 723 724
3 725 84 726
3 725 726 727
3 728 30 729
3 730 729 84
3 728 729 730
3 731 30 732
3 734 733 30
3 251 735 736
3 251 737 739
3 737 17 738
3 737 738 739
3 144 740 742
3 740 251 741
3 740 741 742
3 252 251 144
3 252 17 251
3 252 156 17
3 253 156 252
3 253 6 156
3 179 145 10
3 254 145 179
3 254 63 145
3 147 254 32
3 255 254 147
3 255 63 254
3 255 253 63
3 256 253 255
3 256 6 253
3 256 92 6
3 257 92 256
3 257 36 92
3 149 257 64
3 258 257 149
3 258 36 257
3 258 189 36
3 259 189 258
3 259 2 189
3 202 87 3
3 260 87 202
3 260 33 87
3 152 260 43
3 261 260 152
3 261 33 260
3 261 182 33
3 262 182 261
3 262 15 182
3 743 153 744
3 263 745 747
3 745 153 746
3 745 746 747
3 263 66 153
3 748 263 749
3 264 750 752
3 750 263 751
3 750 751 752
3 264 66 263
3 264 262 66
3 265 262 264
3 265 15 262
3 265 150 15
3 266 150 265
3 266 65 150
3 154 266 67
3 267 266 154
3 267 65 266
3 267 259 65
3 268 259 267
3 268 2 259
3 268 71 2
3 753 71 754
3 755 754 268
3 753 754 755
3 757 756 71
