ply
format ascii 1.0
element vertex 243
property float x
property float y
property float z
element face 217
property list uchar int vertex_index
end_header
54.57621 -77.284828 2.948848
55.240547 -79.566299 -5.69832
54.375294 -81.548691 -14.390783
51.810539 -81.98848 2.691777
55.095173 -78.526535 -1.392099
52.177193 -83.911346 -1.836981
48.63343 -94.477119 -12.514507
51.63961 -87.362144 -11.018845
50.763596 -88.671799 -15.501421
58.600723 -73.927521 -1.096321
59.017822 -74.217331 -5.30805
58.907463 -74.427849 -9.549021
46.800507 -99.202751 -9.266108
54.975708 -80.574326 -10.058662
50.754669 -84.645645 2.480586
52.035942 -82.965668 0.422511
50.945103 -85.783905 0.141811
47.979042 -95.294312 -14.855526
49.641323 -91.681885 -14.033165
56.155907 -75.203514 3.056856
58.197426 -73.643333 1.025508
56.526909 -75.721275 0.892951
55.223221 -79.060402 -3.541334
57.008537 -76.490784 -3.360943
57.075623 -76.794151 -5.483103
59.021629 -74.309464 -7.422398
57.027245 -77.092018 -7.617304
46.050831 -100.426605 -11.828239
52.928925 -84.525276 -12.700314
53.23262 -83.901627 -10.469025
54.718044 -81.077332 -12.242447
56.647728 -77.763428 -11.914331
53.095795 -79.535339 2.836582
54.86866 -77.939781 0.765172
53.347019 -80.347221 0.619023
53.529636 -81.112465 -1.57938
53.611202 -81.840637 -3.777777
49.158516 -93.510147 -10.077465
50.138718 -90.90654 -11.708748
51.258469 -88.075165 -13.301624
52.528503 -85.072433 -14.876753
56.821198 -76.144272 -1.240736
58.878769 -74.106232 -3.202776
47.706116 -96.99894 -10.928122
47.008125 -98.018387 -13.39023
49.672092 -86.186508 4.603586
53.582561 -82.545403 -5.990969
53.451996 -83.234428 -8.224236
55.153198 -80.067535 -7.871649
56.879448 -77.412552 -9.764666
58.696167 -74.599686 -11.681311
52.002277 -85.50737 -16.944502
50.418951 -86.629493 1.156375
50.849886 -85.214775 1.311199
50.323734 -86.060363 2.325762
48.49429 -93.801144 -15.546004
47.573707 -95.615162 -15.941816
55.355471 -79.838371 -14.216213
55.526846 -79.602692 -13.142045
54.546669 -81.313012 -13.316615
59.445124 -72.874108 -1.018943
59.243475 -72.732013 0.041972
58.399074 -73.785427 -0.035407
59.651976 -72.893913 -2.069207
59.445124 -72.874108 -1.018943
59.985416 -73.009487 -5.224752
59.91589 -72.953937 -4.172116
58.948296 -74.161782 -4.255413
60.02908 -72.958466 -6.278659
59.985416 -73.009487 -5.224752
59.944817 -73.020359 -9.459311
60.0019 -72.961167 -8.395999
58.964546 -74.368657 -8.48571
59.8554 -73.007855 -10.523846
59.944817 -73.020359 -9.459311
47.105805 -98.526909 -7.959736
46.324286 -100.135693 -8.39724
47.536454 -97.519261 -8.830157
47.105805 -98.526909 -7.959736
47.253312 -98.100846 -10.097115
47.989258 -96.417355 -9.661164
47.536454 -97.519261 -8.830157
46.081007 -99.752056 -13.833036
46.529478 -99.222496 -12.609234
45.60236 -100.956165 -13.05204
46.584474 -98.44096 -14.550138
46.081007 -99.752056 -13.833036
49.547811 -85.548542 5.833768
50.088532 -84.840325 4.721283
52.85051 -84.129845 -6.192861
52.894239 -83.686306 -5.04818
51.782764 -86.963852 -9.86184
51.082662 -88.68684 -10.172322
58.548298 -74.712506 -12.74098
57.671948 -76.181557 -11.797821
57.524079 -76.294376 -12.857491
59.610714 -73.122528 -12.651955
58.548298 -74.712506 -12.74098
52.666531 -83.873718 -17.667724
51.65763 -85.653667 -17.894747
53.627707 -82.094773 -17.424507
52.963453 -83.728424 -16.701284
52.666531 -83.873718 -17.667724
49.32543 -91.99493 -15.134824
48.810182 -93.488099 -14.444346
48.49429 -93.801144 -15.546004
49.886567 -90.489887 -15.868952
50.20246 -90.176842 -14.767293
49.32543 -91.99493 -15.134824
57.176666 -74.423423 2.041182
57.947281 -73.439331 2.101436
56.926521 -74.219421 3.11711
45.924637 -100.844429 -9.716521
46.324286 -100.135693 -8.39724
45.549799 -101.456356 -10.997587
46.425669 -99.814678 -10.547173
45.924637 -100.844429 -9.716521
45.076301 -102.093071 -12.272866
45.549799 -101.456356 -10.997587
44.575269 -103.122822 -11.442214
45.60236 -100.956165 -13.05204
45.076301 -102.093071 -12.272866
56.491688 -77.94574 -12.977987
55.682886 -79.42038 -12.078389
55.526846 -79.602692 -13.142045
57.524079 -76.294376 -12.857491
56.491688 -77.94574 -12.977987
49.842115 -91.760841 -9.701632
49.36277 -92.967484 -8.840497
50.332217 -90.459038 -10.517274
49.842115 -91.760841 -9.701632
49.648617 -92.208344 -10.893107
50.889164 -89.134342 -11.363796
51.082662 -88.68684 -10.172322
50.332217 -90.459038 -10.517274
58.96255 -72.643932 1.099078
57.947281 -73.439331 2.101436
58.96255 -72.643932 1.099078
59.243475 -72.732013 0.041972
59.790999 -72.983269 -3.122434
59.651976 -72.893913 -2.069207
58.739746 -74.016876 -2.149548
59.790999 -72.983269 -3.122434
59.91589 -72.953937 -4.172116
60.030983 -73.004532 -7.335833
60.02908 -72.958466 -6.278659
59.019725 -74.263397 -6.365224
60.030983 -73.004532 -7.335833
60.0019 -72.961167 -8.395999
48.715458 -94.672958 -9.235836
49.36277 -92.967484 -8.840497
48.432316 -95.254544 -10.502793
48.715458 -94.672958 -9.235836
47.989258 -96.417355 -9.661164
47.069933 -97.078923 -15.282787
47.493583 -96.65635 -14.122878
46.584474 -98.44096 -14.550138
47.573707 -95.615162 -15.941816
47.069933 -97.078923 -15.282787
55.951546 -74.897293 4.160868
56.926521 -74.219421 3.11711
55.209698 -75.882717 4.116011
55.951546 -74.897293 4.160868
54.419849 -76.923374 4.062007
55.366059 -76.244171 3.002852
55.209698 -75.882717 4.116011
53.701847 -77.981793 4.020145
54.419849 -76.923374 4.062007
52.96164 -79.107048 3.964012
53.836003 -78.410083 2.892715
53.701847 -77.981793 4.020145
52.325007 -80.260131 3.913377
52.96164 -79.107048 3.964012
51.682378 -81.486702 3.840974
52.453167 -80.76191 2.76418
52.325007 -80.260131 3.913377
51.157755 -82.74131 3.765378
51.682378 -81.486702 3.840974
50.62982 -84.069893 3.659783
51.282604 -83.317062 2.586182
51.157755 -82.74131 3.765378
50.21338 -85.416077 3.542086
50.62982 -84.069893 3.659783
50.088532 -84.840325 4.721283
49.782445 -86.830795 3.387262
50.323734 -86.060363 2.325762
50.21338 -85.416077 3.542086
49.213997 -86.907013 5.697603
49.547811 -85.548542 5.833768
49.325558 -87.599933 4.429414
49.213997 -86.907013 5.697603
48.867462 -88.320438 5.523431
49.782445 -86.830795 3.387262
49.325558 -87.599933 4.429414
50.481501 -87.271569 -0.054703
50.418951 -86.629493 1.156375
50.986182 -86.341625 -1.027543
50.481501 -87.271569 -0.054703
51.602227 -85.405345 -2.016939
51.561148 -84.847625 -0.847585
50.986182 -86.341625 -1.027543
52.191555 -84.369277 -2.971186
51.602227 -85.405345 -2.016939
52.908559 -83.333923 -3.941584
52.894198 -82.875991 -2.807379
52.191555 -84.369277 -2.971186
53.596881 -82.19302 -4.884373
52.908559 -83.333923 -3.941584
52.894239 -83.686306 -5.04818
52.579269 -85.233593 -9.58693
51.782764 -86.963852 -9.86184
52.436115 -85.631886 -10.743935
52.688958 -84.899993 -8.464535
52.579269 -85.233593 -9.58693
53.342308 -83.568027 -9.34663
52.785227 -84.474357 -7.309495
52.688958 -84.899993 -8.464535
53.517279 -82.889916 -7.107602
52.85051 -84.129845 -6.192861
52.785227 -84.474357 -7.309495
59.749752 -73.093773 -11.589992
59.8554 -73.007855 -10.523846
58.801815 -74.513768 -10.615166
60.664299 -71.616615 -12.560636
59.749752 -73.093773 -11.589992
59.610714 -73.122528 -12.651955
50.442837 -88.897262 -16.528702
49.886567 -90.489887 -15.868952
51.062178 -87.315048 -17.250242
51.65763 -85.653667 -17.894747
51.382936 -87.089585 -16.222962
50.442837 -88.897262 -16.528702
51.062178 -87.315048 -17.250242
53.226566 -83.510955 -15.66741
52.26539 -85.289901 -15.910628
52.963453 -83.728424 -16.701284
54.149962 -81.749085 -15.424425
53.451898 -83.310562 -14.633768
53.226566 -83.510955 -15.66741
55.152063 -80.009357 -15.24963
54.149962 -81.749085 -15.424425
55.355471 -79.838371 -14.216213
55.152063 -80.009357 -15.24963
3 52 16 53
3 54 53 14
3 52 53 54
3 56 55 17
3 0 21 19
3 1 24 22
3 1 26 24
3 2 30 28
3 2 57 59
3 59 58 30
3 57 58 59
3 3 34 32
3 5 35 15
3 5 36 35
3 6 38 37
3 8 39 18
3 8 40 39
3 9 60 62
3 62 61 20
3 60 61 62
3 9 63 64
3 4 41 33
3 10 42 23
3 10 65 67
3 67 66 42
3 65 66 67
3 10 68 69
3 11 70 72
3 72 71 25
3 70 71 72
3 11 73 74
3 12 75 76
3 12 77 78
3 12 79 81
3 79 43 80
3 79 80 81
3 82 44 83
3 84 83 27
3 82 83 84
3 86 85 44
3 87 45 88
3 89 46 90
3 7 91 92
3 13 47 29
3 13 48 47
3 13 49 48
3 93 50 94
3 95 94 31
3 93 94 95
3 97 96 50
3 98 51 99
3 102 101 51
3 100 101 102
3 14 15 3
3 16 15 14
3 16 5 15
3 17 18 6
3 103 18 104
3 105 104 17
3 103 104 105
3 106 8 107
3 108 107 18
3 106 107 108
3 19 109 111
3 109 20 110
3 109 110 111
3 21 20 19
3 21 9 20
3 22 23 4
3 24 23 22
3 24 10 23
3 24 25 10
3 26 25 24
3 26 11 25
3 112 12 113
3 114 27 115
3 116 115 12
3 114 115 116
3 117 27 118
3 117 118 119
3 121 120 27
3 28 29 7
3 30 29 28
3 30 13 29
3 30 31 13
3 122 31 123
3 124 123 30
3 122 123 124
3 126 125 31
3 32 33 0
3 34 33 32
3 34 4 33
3 15 34 3
3 35 34 15
3 35 4 34
3 35 22 4
3 36 22 35
3 36 1 22
3 37 127 128
3 38 129 131
3 131 130 37
3 129 130 131
3 38 132 134
3 132 7 133
3 132 133 134
3 18 38 6
3 39 38 18
3 39 7 38
3 39 28 7
3 40 28 39
3 40 2 28
3 20 135 136
3 138 137 20
3 33 21 0
3 41 21 33
3 41 9 21
3 23 41 4
3 42 41 23
3 42 9 41
3 42 139 141
3 141 140 9
3 139 140 141
3 143 142 42
3 25 144 146
3 146 145 10
3 144 145 146
3 148 147 25
3 149 37 150
3 43 151 153
3 151 37 152
3 151 152 153
3 43 6 37
3 27 43 12
3 44 43 27
3 44 6 43
3 44 17 6
3 154 17 155
3 156 155 44
3 154 155 156
3 158 157 17
3 159 19 160
3 161 19 162
3 163 0 164
3 165 164 19
3 163 164 165
3 166 0 167
3 168 32 169
3 170 169 0
3 168 169 170
3 171 32 172
3 173 3 174
3 175 174 32
3 173 174 175
3 176 3 177
3 178 14 179
3 180 179 3
3 178 179 180
3 45 181 183
3 181 14 182
3 181 182 183
3 45 184 186
3 186 185 14
3 184 185 186
3 187 45 188
3 189 45 190
3 189 190 191
3 193 192 45
3 194 16 195
3 196 16 197
3 198 5 199
3 200 199 16
3 198 199 200
3 201 5 202
3 203 36 204
3 205 204 5
3 203 204 205
3 46 206 208
3 206 36 207
3 206 207 208
3 46 1 36
3 29 209 211
3 211 210 7
3 209 210 211
3 47 212 214
3 214 213 29
3 212 213 214
3 47 215 216
3 47 217 219
3 217 46 218
3 217 218 219
3 48 46 47
3 48 1 46
3 48 26 1
3 49 26 48
3 49 11 26
3 31 49 13
3 50 49 31
3 50 11 49
3 50 220 222
3 222 221 11
3 220 221 222
3 225 224 50
3 223 224 225
3 226 8 227
3 51 228 229
3 51 230 232
3 230 8 231
3 230 231 232
3 51 40 8
3 233 40 234
3 235 234 51
3 233 234 235
3 236 2 237
3 238 237 40
3 236 237 238
3 239 2 240
3 242 241 2
