ply
format ascii 1.0
element vertex 516
property float x
property float y
property float z
element face 538
property list uchar int vertex_index
end_header
-26.753277 38.959602 -28.741283
-20.882017 66.455368 -25.408886
-17.440147 41.045692 -31.139942
-22.611906 27.397896 -30.774288
-36.28595 44.248241 -18.430038
-31.888451 37.494434 -23.85228
-34.486629 47.515354 -24.480568
-24.519606 51.869358 -27.092197
-12.566252 56.237873 -31.080734
-39.186356 47.453564 -11.337683
-39.311306 48.57687 -19.351906
-36.534176 45.833561 -22.090511
-38.392075 50.735859 -22.246456
-22.81979 59.075939 -26.201847
-18.434872 54.188412 -28.870682
-16.271576 61.786274 -28.413769
-41.425095 50.444447 -16.19673
-37.926334 46.34502 -15.08511
-30.077888 38.149044 -26.79586
-29.952122 32.822353 -26.103523
-27.518847 33.158371 -28.61969
-22.422962 20.85392 -30.815266
-25.558243 21.631844 -30.83939
-22.311308 39.952274 -30.035294
-24.05835 33.51709 -30.175171
-19.930695 33.950268 -31.05732
-18.885017 27.212807 -30.97123
-19.161568 19.924156 -30.259544
-33.657078 39.904522 -17.459991
-32.409443 36.80304 -20.186348
-34.172169 41.316017 -21.331074
-33.282066 42.367847 -24.568493
-30.4044 43.613083 -26.707314
-30.193712 49.567722 -25.854469
-25.85248 45.148991 -28.102486
-20.462608 46.854382 -29.461147
-15.009011 48.530514 -31.097939
-14.025398 69.24855 -27.699356
-36.437477 43.284275 -6.26594
-35.601112 43.096081 -10.291086
-34.757515 41.909412 -14.113752
-25.997372 27.54496 -29.912853
-15.920045 18.72686 -29.394154
-40.62188 50.826885 -19.65921
-39.191502 49.622059 -20.995049
-40.122025 52.068905 -21.075661
-21.876093 62.776432 -25.818626
-19.521879 60.47813 -27.231106
-18.482218 64.240005 -26.916424
-40.446735 49.638081 -17.837151
-28.592258 38.529987 -27.882095
-28.685881 35.745564 -27.770084
-27.117001 36.023628 -28.772999
-22.733452 17.528381 -30.850945
-24.213352 18.13205 -31.153107
-19.88784 40.495384 -30.594833
-20.96059 37.049866 -30.687283
-18.670658 37.440182 -31.128834
-18.865627 23.620037 -30.640057
-34.849609 42.089111 -17.920315
-34.02224 40.712757 -19.415092
-35.277786 42.887497 -19.934662
-35.820538 46.632069 -23.45034
-34.940262 44.190445 -23.356766
-33.966949 44.87933 -24.624409
-32.091324 42.952141 -25.769962
-32.430172 45.65205 -25.597641
-27.463316 50.701321 -26.432938
-27.952572 47.450703 -26.979473
-25.24119 48.440304 -27.605656
-23.206808 45.991177 -28.750748
-22.378845 49.45705 -28.313908
-15.448972 55.269833 -29.957672
-16.589157 51.458317 -30.08984
-13.790543 52.369228 -31.090435
-12.899733 72.734756 -27.032875
-37.777534 45.57098 -8.753418
-35.995529 43.329502 -8.284807
-37.278 45.384052 -10.743702
-37.168854 45.404797 -16.812824
-36.227119 44.188801 -14.539536
-35.588951 43.243073 -16.291695
-34.241364 41.009464 -15.862642
-32.270947 37.171501 -22.062851
-31.462305 35.005978 -23.289368
-23.171875 30.529068 -30.575787
-24.980968 30.47044 -30.058071
-24.368179 27.478115 -30.443275
-14.324534 17.956581 -28.929661
-16.769608 14.511887 -28.852459
-18.255863 15.392353 -29.410831
-37.822624 46.397602 -18.925903
-36.655075 45.069462 -20.397945
-38.00362 47.299534 -20.761772
-37.580376 48.215656 -22.247299
-36.49654 49.211246 -23.368511
-21.479794 53.042248 -27.90099
-20.523521 56.727535 -27.54324
-17.366991 57.972767 -28.638481
-14.291384 59.115467 -29.831573
-40.470737 49.03735 -13.867922
-38.584053 47.039829 -13.254772
-39.709312 48.414845 -15.666248
-38.837505 47.522305 -17.351643
-31.174339 37.810017 -25.44928
-30.845337 35.252323 -25.007214
-29.930113 35.492771 -26.514507
-28.872614 32.993469 -27.488079
-28.045652 30.342888 -28.364929
-22.370289 24.159046 -30.824947
-24.055807 24.393379 -30.702328
-24.017689 21.262032 -30.908119
-25.667555 18.688148 -31.320766
-24.630207 39.436161 -29.43576
-25.261538 36.33374 -29.557037
-23.183493 36.677219 -30.176586
-22.045807 33.72477 -30.678242
-21.238941 30.594933 -30.924248
-19.237522 30.665142 -31.138489
-20.76947 27.311047 -30.940319
-20.629236 23.903687 -30.79504
-20.796963 20.411083 -30.590214
-21.24086 16.878876 -30.442013
-32.820667 37.744694 -17.115677
-32.414948 36.359173 -18.382771
-33.03183 38.528633 -18.888588
-33.144485 39.080013 -20.784935
-33.02042 39.519909 -22.631435
-35.352798 43.550671 -21.77877
-33.960312 41.839348 -23.07806
-32.54245 39.927334 -24.301628
-31.634691 40.356598 -25.720554
-30.273516 40.838947 -26.867432
-28.487898 41.385555 -27.772732
-38.914314 53.411091 -22.093498
-36.909748 51.954311 -23.137897
-34.775749 50.311176 -24.176857
-32.505638 51.509762 -24.777378
-32.577816 48.497555 -25.245644
-30.390518 46.513737 -26.347424
-28.290354 44.349869 -27.452522
-26.349333 41.9935 -28.505161
-23.955084 42.651779 -29.148926
-21.409483 43.344948 -29.777691
-18.807411 44.053074 -30.433605
-19.469145 50.473766 -29.145889
-17.708899 47.712322 -30.252235
-16.223347 44.748795 -31.119099
-16.310764 71.48558 -25.96273
-17.409466 67.93898 -26.523266
-15.154634 65.570221 -28.129444
-13.122427 62.949604 -29.654495
-36.777924 44.91251 -12.682386
-35.20282 42.612156 -12.24559
-33.981556 40.115108 -12.030174
-33.634781 39.493362 -13.89031
-33.239304 38.712036 -15.606348
-30.773684 32.630882 -24.493069
-25.901711 33.329784 -29.504421
-26.616983 30.412571 -29.331676
-27.46933 27.583466 -29.152058
-25.653624 24.60117 -30.395866
-17.53307 19.372307 -29.850235
-19.746387 16.173317 -29.952374
-40.889359 52.62207 -20.439796
-40.371952 51.447895 -20.367435
-41.139286 52.00106 -19.731571
-21.379055 64.6159 -25.613756
-23.125843 63.811823 -25.135404
-22.628805 65.651291 -24.930535
-41.139286 52.00106 -19.731571
-41.243355 51.309654 -18.930301
-23.663525 16.289185 -31.191121
-22.995238 15.879213 -30.942721
-25.991461 51.285339 -26.762567
-27.150155 52.399845 -26.158986
-25.6783 52.983864 -26.488615
-11.836686 54.695545 -31.575389
-12.448831 52.761223 -31.58024
-13.178397 54.303551 -31.085584
-39.486237 47.504948 -10.348981
-40.177769 48.403813 -11.652352
-38.481945 46.512272 -10.045551
-38.781826 46.563656 -9.056849
-39.486237 47.504948 -10.348981
-17.333122 12.407553 -28.686172
-16.027012 14.00998 -28.585203
-18.008191 12.961751 -29.009521
-17.333122 12.407553 -28.686172
-24.459439 58.348084 -25.789963
-24.046632 60.150352 -25.557592
-23.262789 57.250027 -26.410055
-24.459439 58.348084 -25.789963
-21.671655 57.901737 -26.872543
-22.114655 56.075825 -27.080751
-23.262789 57.250027 -26.410055
-41.853365 50.700195 -15.309027
-42.181122 51.460358 -16.393876
-40.947916 49.740899 -15.032326
-41.376186 49.996647 -14.144623
-41.853365 50.700195 -15.309027
-25.798014 17.252546 -31.621302
-24.940454 18.410099 -31.236936
-25.070912 16.974497 -31.537472
-26.463076 17.603046 -31.748361
-25.798014 17.252546 -31.621302
-19.06127 28.938975 -31.054859
-18.228372 30.694874 -31.190575
-18.05212 28.968707 -31.106945
-39.022778 54.821762 -21.942577
-39.826912 54.030395 -21.539217
-35.861643 52.616481 -23.450296
-36.976814 53.408287 -22.962142
-34.794643 51.794914 -23.969776
-35.842748 51.132744 -23.657377
-35.861643 52.616481 -23.450296
-31.349675 50.538742 -25.315924
-31.159346 52.146256 -25.040382
-30.003383 51.175235 -25.578928
-14.358311 46.962067 -31.450985
-14.965479 45.071207 -31.461565
-15.616179 46.639654 -31.108519
-11.624259 63.427841 -30.246231
-12.537888 64.829981 -29.500305
-12.231534 61.524777 -30.337789
-11.624259 63.427841 -30.246231
-36.706557 43.114743 -5.27265
-37.383351 44.367328 -6.507709
-35.878597 41.903763 -5.138381
-36.706557 43.114743 -5.27265
-35.67205 42.037319 -6.143258
-35.11317 40.656807 -5.015699
-35.878597 41.903763 -5.138381
-35.089769 41.945505 -9.173356
-35.286977 42.062216 -8.170217
-35.798321 43.212791 -9.287947
-34.943337 41.827731 -10.181609
-35.089769 41.945505 -9.173356
-32.237011 35.620055 -19.876407
-32.239764 35.398121 -18.974619
-32.412196 36.581107 -19.28456
-14.792652 20.536863 -29.540244
-13.994897 20.151724 -29.307997
-15.12229 18.341721 -29.161907
-15.645359 20.801317 -29.724967
-14.792652 20.536863 -29.540244
-16.726557 19.049583 -29.622194
-16.451871 21.12404 -29.953007
-15.645359 20.801317 -29.724967
-20.166118 14.298513 -29.888478
-19.001125 15.782835 -29.681603
-19.420856 13.90803 -29.617706
-20.833796 14.76556 -30.204767
-20.166118 14.298513 -29.888478
-23.574784 62.000599 -25.365982
-23.125843 63.811823 -25.135404
-22.347942 60.926186 -26.010236
-24.046632 60.150352 -25.557592
-23.574784 62.000599 -25.365982
-41.644962 51.118435 -17.199061
-42.181122 51.460358 -16.393876
-41.155783 50.715252 -18.019272
-40.935915 50.041264 -17.01694
-41.644962 51.118435 -17.199061
-40.534307 50.232483 -18.748181
-41.155783 50.715252 -18.019272
-41.243355 51.309654 -18.930301
-24.403475 16.591019 -31.342202
-23.473402 17.830216 -31.002026
-23.663525 16.289185 -31.191121
-25.070912 16.974497 -31.537472
-24.403475 16.591019 -31.342202
-17.941364 27.148928 -30.930714
-18.05212 28.968707 -31.106945
-17.931669 25.352543 -30.765127
-18.875322 25.416422 -30.805643
-17.941364 27.148928 -30.930714
-17.986235 23.453903 -30.512379
-17.931669 25.352543 -30.765127
-18.134205 21.605963 -30.322122
-19.013597 21.772096 -30.449801
-17.986235 23.453903 -30.512379
-28.638185 51.742035 -25.868163
-27.150155 52.399845 -26.158986
-28.828514 50.134522 -26.143704
-30.003383 51.175235 -25.578928
-28.638185 51.742035 -25.868163
-13.096733 50.816067 -31.516632
-13.705967 48.89671 -31.520384
-14.399777 50.449871 -31.094187
-13.096733 50.816067 -31.516632
-12.448831 52.761223 -31.58024
-11.298139 73.219955 -27.505089
-12.350783 74.339684 -26.540854
-11.851191 71.528557 -27.924411
-11.298139 73.219955 -27.505089
-12.414024 69.785453 -28.257652
-13.462566 70.991653 -27.366115
-11.851191 71.528557 -27.924411
-12.989373 67.979454 -28.522736
-12.414024 69.785453 -28.257652
-38.053379 45.510681 -7.751449
-39.057671 46.503357 -8.054879
-38.781826 46.563656 -9.056849
-37.107506 44.427627 -7.509679
-37.383351 44.367328 -6.507709
-38.053379 45.510681 -7.751449
-32.056381 35.95346 -21.751278
-32.125629 35.76923 -20.813026
-32.340195 36.987271 -21.124599
-31.65206 34.870699 -22.364536
-32.056381 35.95346 -21.751278
-31.866626 36.08874 -22.676109
-31.419427 33.706826 -23.001974
-31.65206 34.870699 -22.364536
-30.098782 31.464367 -25.896648
-29.602526 31.534126 -26.624741
-26.29198 21.789851 -30.708593
-26.321343 20.407103 -31.081025
-14.804475 15.732326 -28.623804
-13.535149 17.495018 -28.713606
-15.547071 16.234234 -28.89106
-14.804475 15.732326 -28.623804
-16.027012 14.00998 -28.585203
-18.751318 13.401984 -29.288708
-17.512736 14.95212 -29.131645
-18.008191 12.961751 -29.009521
-19.420856 13.90803 -29.617706
-18.751318 13.401984 -29.288708
-16.910001 39.436029 -31.328428
-16.234437 41.309221 -31.40271
-24.112697 53.646736 -26.85523
-25.6783 52.983864 -26.488615
-22.592791 54.233181 -27.259626
-22.9997 52.455803 -27.496593
-24.112697 53.646736 -26.85523
-21.001658 54.884892 -27.722115
-22.592791 54.233181 -27.259626
-22.114655 56.075825 -27.080751
-40.819959 49.195706 -12.917472
-41.376186 49.996647 -14.144623
-39.828547 48.245457 -12.602802
-40.177769 48.403813 -11.652352
-40.819959 49.195706 -12.917472
-29.062772 31.619684 -27.317018
-29.602526 31.534126 -26.624741
-29.412368 32.907911 -26.795801
-28.649291 30.294393 -27.755443
-29.062772 31.619684 -27.317018
-28.459133 31.668178 -27.926504
-28.407396 28.958702 -28.254255
-28.649291 30.294393 -27.755443
-26.375999 18.935255 -31.321713
-26.321343 20.407103 -31.081025
-25.612899 20.159996 -31.080078
-26.375999 18.935255 -31.321713
-26.463076 17.603046 -31.748361
-22.147149 67.428223 -24.668005
-22.628805 65.651291 -24.930535
-17.525257 37.633274 -31.322874
-18.055402 39.242937 -31.134388
-16.910001 39.436029 -31.328428
-18.224101 35.81061 -31.235298
-17.525257 37.633274 -31.322874
-18.854119 34.065653 -31.199542
-19.300677 35.695225 -31.093077
-18.224101 35.81061 -31.235298
-18.507533 32.42309 -31.240126
-18.228372 30.694874 -31.190575
-19.584108 32.307705 -31.097904
-18.854119 34.065653 -31.199542
-18.507533 32.42309 -31.240126
-22.248942 15.554461 -30.738255
-22.995238 15.879213 -30.942721
-21.987156 17.203629 -30.646479
-32.617807 37.051934 -17.749224
-32.410615 36.115412 -17.665686
-32.613474 36.808172 -17.032139
-40.430768 53.359302 -21.030299
-40.889359 52.62207 -20.439796
-39.518169 52.739998 -21.58458
-40.430768 53.359302 -21.030299
-39.826912 54.030395 -21.539217
-37.979097 54.136677 -22.439943
-39.022778 54.821762 -21.942577
-37.912031 52.682701 -22.615697
-37.979097 54.136677 -22.439943
-36.976814 53.408287 -22.962142
-32.363329 53.098327 -24.515386
-31.159346 52.146256 -25.040382
-33.659588 52.394207 -24.270036
-32.363329 53.098327 -24.515386
-33.640693 50.910469 -24.477117
-34.794643 51.794914 -23.969776
-33.659588 52.394207 -24.270036
-15.626037 43.160773 -31.392288
-16.234437 41.309221 -31.40271
-16.831747 42.897244 -31.12952
-15.626037 43.160773 -31.392288
-14.965479 45.071207 -31.461565
-14.358311 46.962067 -31.450985
-13.705967 48.89671 -31.520384
-20.361598 68.239372 -25.150169
-22.147149 67.428223 -24.668005
-14.049943 73.76065 -26.090553
-12.350783 74.339684 -26.540854
-15.755458 73.136063 -25.555481
-14.049943 73.76065 -26.090553
-14.605248 72.110168 -26.497802
-17.535095 72.433411 -25.071337
-16.97979 74.083893 -24.664088
-15.755458 73.136063 -25.555481
-18.075972 70.754478 -25.427091
-17.535095 72.433411 -25.071337
-18.625322 68.981178 -25.707359
-18.075972 70.754478 -25.427091
-16.860115 69.71228 -26.242998
-19.145741 67.197174 -25.966076
-20.361598 68.239372 -25.150169
-18.625322 68.981178 -25.707359
-13.553991 66.140289 -28.73778
-14.590016 67.409385 -27.9144
-12.989373 67.979454 -28.522736
-14.13853 64.259912 -28.89197
-13.553991 66.140289 -28.73778
-12.537888 64.829981 -29.500305
-12.816012 59.607708 -30.426328
-13.706906 61.032536 -29.743034
-12.231534 61.524777 -30.337789
-11.953447 58.168911 -31.050909
-13.428818 57.67667 -30.456153
-12.816012 59.607708 -30.426328
-11.193853 56.63525 -31.612848
-11.953447 58.168911 -31.050909
-11.836686 54.695545 -31.575389
-11.193853 56.63525 -31.612848
-35.451076 42.059933 -7.152692
-35.67205 42.037319 -6.143258
-36.216503 43.306888 -7.275374
-35.451076 42.059933 -7.152692
-35.286977 42.062216 -8.170217
-34.744191 41.585768 -11.158861
-34.943337 41.827731 -10.181609
-35.401966 42.854118 -11.268338
-34.133558 40.337244 -11.051153
-34.744191 41.585768 -11.158861
-34.592188 41.363632 -12.137882
-33.698115 38.943613 -11.096319
-34.133558 40.337244 -11.051153
-33.585302 38.770236 -12.071516
-33.698115 38.943613 -11.096319
-33.411915 38.459363 -13.001584
-33.585302 38.770236 -12.071516
-33.808168 39.804235 -12.960242
-33.279878 38.22546 -13.922483
-33.411915 38.459363 -13.001584
-33.08214 37.834797 -14.780503
-33.279878 38.22546 -13.922483
-33.437042 39.102699 -14.748329
-32.93928 37.561721 -15.615174
-33.08214 37.834797 -14.780503
-32.729962 37.078051 -16.369838
-32.93928 37.561721 -15.615174
-33.029985 38.228365 -16.361013
-32.613474 36.808172 -17.032139
-32.729962 37.078051 -16.369838
-32.317318 35.259811 -18.086334
-32.410615 36.115412 -17.665686
-32.142133 34.29876 -18.678182
-32.317318 35.259811 -18.086334
-32.239764 35.398121 -18.974619
-32.237011 35.620055 -19.876407
-32.125629 35.76923 -20.813026
-31.075117 32.519278 -23.603825
-31.419427 33.706826 -23.001974
-31.117995 33.81843 -23.891219
-30.509563 31.368631 -25.091421
-30.362903 32.726618 -25.298296
-30.098782 31.464367 -25.896648
-30.910124 31.272054 -24.265421
-30.509563 31.368631 -25.091421
-31.075117 32.519278 -23.603825
-30.910124 31.272054 -24.265421
-28.119235 27.578991 -28.64782
-28.407396 28.958702 -28.254255
-27.757491 28.963177 -28.758494
-26.339671 23.274513 -30.486832
-25.605933 23.116507 -30.617628
-26.29198 21.789851 -30.708593
-26.396159 24.683844 -30.135244
-26.339671 23.274513 -30.486832
-26.568033 26.155739 -29.893738
-25.825498 26.073065 -30.154359
-26.396159 24.683844 -30.135244
-27.304012 26.174992 -29.51334
-26.733351 27.564213 -29.532455
-26.568033 26.155739 -29.893738
-27.983126 26.2253 -29.133928
-27.304012 26.174992 -29.51334
-28.119235 27.578991 -28.64782
-27.983126 26.2253 -29.133928
-13.158615 19.810356 -29.12216
-12.369231 19.348793 -28.906105
-13.535149 17.495018 -28.713606
-13.158615 19.810356 -29.12216
-13.994897 20.151724 -29.307997
-17.319956 21.330038 -30.117468
-16.451871 21.12404 -29.953007
-18.347319 19.648232 -30.05489
-18.134205 21.605963 -30.322122
-17.319956 21.330038 -30.117468
-21.581033 15.11834 -30.449587
-20.493623 16.526097 -30.197193
-20.833796 14.76556 -30.204767
-22.248942 15.554461 -30.738255
-21.581033 15.11834 -30.449587
3 164 45 165
3 166 165 43
3 164 165 166
3 1 167 169
3 167 46 168
3 167 168 169
3 1 48 46
3 170 43 171
3 0 52 50
3 173 172 53
3 2 57 55
3 4 61 59
3 6 64 62
3 6 66 64
3 7 174 176
3 174 67 175
3 174 175 176
3 7 69 67
3 7 71 69
3 8 74 72
3 8 177 179
3 179 178 74
3 177 178 179
3 9 180 181
3 9 182 184
3 182 76 183
3 182 183 184
3 9 78 76
3 4 81 79
3 4 59 81
3 5 84 83
3 3 87 85
3 185 89 186
3 188 187 89
3 10 93 91
3 12 94 44
3 12 95 94
3 13 189 190
3 13 191 192
3 13 193 195
3 193 97 194
3 193 194 195
3 15 98 47
3 15 99 98
3 16 196 197
3 16 198 200
3 198 100 199
3 198 199 200
3 16 102 100
3 10 103 49
3 10 91 103
3 18 106 104
3 20 107 51
3 20 108 107
3 21 111 109
3 201 112 202
3 203 202 54
3 201 202 203
3 205 204 112
3 23 115 113
3 25 116 56
3 25 117 116
3 26 206 208
3 206 118 207
3 206 207 208
3 26 119 118
3 26 120 119
3 27 121 58
3 27 122 121
3 28 125 123
3 30 126 60
3 30 127 126
3 11 128 92
3 31 129 63
3 31 130 129
3 31 131 130
3 32 132 65
3 32 133 132
3 209 134 210
3 211 135 212
3 213 136 214
3 215 214 135
3 213 214 215
3 33 216 218
3 216 137 217
3 216 217 218
3 33 138 137
3 33 139 138
3 34 140 68
3 34 141 140
3 34 142 141
3 35 143 70
3 35 144 143
3 14 145 96
3 36 146 73
3 36 147 146
3 36 219 221
3 221 220 147
3 219 220 221
3 37 148 75
3 37 149 148
3 37 150 149
3 222 151 223
3 225 224 151
3 38 226 227
3 38 228 229
3 38 230 232
3 230 231 232
3 39 233 235
3 235 234 77
3 233 234 235
3 39 236 237
3 17 152 101
3 40 153 80
3 40 154 153
3 40 155 154
3 28 156 82
3 28 123 156
3 29 238 240
3 240 239 124
3 238 239 240
3 19 157 105
3 24 158 114
3 41 159 86
3 41 160 159
3 22 161 110
3 42 241 243
3 243 242 88
3 241 242 243
3 42 244 245
3 42 246 248
3 246 162 247
3 246 247 248
3 249 163 250
3 251 250 90
3 249 250 251
3 253 252 163
3 43 44 10
3 45 44 43
3 45 12 44
3 46 254 255
3 46 256 258
3 256 13 257
3 256 257 258
3 46 47 13
3 48 47 46
3 48 15 47
3 259 16 260
3 261 49 262
3 263 262 16
3 261 262 263
3 43 264 266
3 264 49 265
3 264 265 266
3 43 10 49
3 50 51 18
3 52 51 50
3 52 20 51
3 53 54 21
3 267 54 268
3 269 268 53
3 267 268 269
3 271 270 54
3 55 56 23
3 57 56 55
3 57 25 56
3 272 26 273
3 274 58 275
3 276 275 26
3 274 275 276
3 277 58 278
3 279 27 280
3 281 280 58
3 279 280 281
3 59 60 28
3 61 60 59
3 61 30 60
3 62 63 11
3 64 63 62
3 64 31 63
3 64 65 31
3 66 65 64
3 66 32 65
3 67 282 283
3 67 284 286
3 284 33 285
3 284 285 286
3 67 68 33
3 69 68 67
3 69 34 68
3 69 70 34
3 71 70 69
3 71 35 70
3 72 73 14
3 74 73 72
3 74 36 73
3 74 287 289
3 289 288 36
3 287 288 289
3 291 290 74
3 292 75 293
3 294 75 295
3 296 37 297
3 298 297 75
3 296 297 298
3 300 299 37
3 76 301 303
3 301 302 303
3 76 304 306
3 304 38 305
3 304 305 306
3 76 77 38
3 78 77 76
3 78 39 77
3 79 80 17
3 81 80 79
3 81 40 80
3 81 82 40
3 59 82 81
3 59 28 82
3 83 307 309
3 309 308 29
3 307 308 309
3 84 310 312
3 312 311 83
3 310 311 312
3 84 313 314
3 316 315 19
3 85 86 24
3 87 86 85
3 87 41 86
3 318 317 22
3 319 88 320
3 89 321 323
3 321 88 322
3 321 322 323
3 89 42 88
3 89 90 42
3 324 90 325
3 326 325 89
3 324 325 326
3 328 327 90
3 330 329 2
3 91 92 4
3 93 92 91
3 93 11 92
3 44 93 10
3 94 93 44
3 94 11 93
3 94 62 11
3 95 62 94
3 95 6 62
3 331 7 332
3 333 96 334
3 335 334 7
3 333 334 335
3 97 336 338
3 336 96 337
3 336 337 338
3 97 14 96
3 47 97 13
3 98 97 47
3 98 14 97
3 98 72 14
3 99 72 98
3 99 8 72
3 100 339 340
3 100 341 343
3 341 9 342
3 341 342 343
3 100 101 9
3 102 101 100
3 102 17 101
3 49 102 16
3 103 102 49
3 103 17 102
3 103 79 17
3 91 79 103
3 91 4 79
3 104 105 5
3 106 105 104
3 106 19 105
3 51 106 18
3 107 106 51
3 107 19 106
3 107 344 346
3 346 345 19
3 344 345 346
3 108 347 349
3 349 348 107
3 347 348 349
3 108 350 351
3 109 110 3
3 111 110 109
3 111 22 110
3 54 111 21
3 112 111 54
3 112 22 111
3 112 352 354
3 354 353 22
3 352 353 354
3 356 355 112
3 357 1 358
3 113 114 0
3 115 114 113
3 115 24 114
3 56 115 23
3 116 115 56
3 116 24 115
3 116 85 24
3 117 85 116
3 117 3 85
3 359 57 360
3 361 360 2
3 359 360 361
3 362 57 363
3 364 25 365
3 366 365 57
3 364 365 366
3 118 367 368
3 118 369 371
3 369 25 370
3 369 370 371
3 118 117 25
3 119 117 118
3 119 3 117
3 119 109 3
3 120 109 119
3 120 21 109
3 58 120 26
3 121 120 58
3 121 21 120
3 121 53 21
3 122 53 121
3 122 372 374
3 374 373 53
3 372 373 374
3 123 375 377
3 375 124 376
3 375 376 377
3 125 124 123
3 125 29 124
3 60 125 28
3 126 125 60
3 126 29 125
3 126 83 29
3 127 83 126
3 127 5 83
3 92 61 4
3 128 61 92
3 128 30 61
3 63 128 11
3 129 128 63
3 129 30 128
3 129 127 30
3 130 127 129
3 130 5 127
3 130 104 5
3 131 104 130
3 131 18 104
3 65 131 31
3 132 131 65
3 132 18 131
3 132 50 18
3 133 50 132
3 133 0 50
3 378 45 379
3 134 380 382
3 380 45 381
3 380 381 382
3 134 12 45
3 383 134 384
3 135 385 387
3 385 134 386
3 385 386 387
3 135 12 134
3 135 95 12
3 136 95 135
3 136 6 95
3 137 388 389
3 137 390 391
3 137 392 394
3 392 136 393
3 392 393 394
3 138 136 137
3 138 6 136
3 138 66 6
3 139 66 138
3 139 32 66
3 68 139 33
3 140 139 68
3 140 32 139
3 140 133 32
3 141 133 140
3 141 0 133
3 141 113 0
3 142 113 141
3 142 23 113
3 70 142 34
3 143 142 70
3 143 23 142
3 143 55 23
3 144 55 143
3 144 2 55
3 96 71 7
3 145 71 96
3 145 35 71
3 73 145 14
3 146 145 73
3 146 35 145
3 146 144 35
3 147 144 146
3 147 2 144
3 147 395 397
3 397 396 2
3 395 396 397
3 399 398 147
3 401 400 36
3 402 1 403
3 75 404 405
3 148 406 408
3 408 407 75
3 406 407 408
3 148 409 411
3 409 410 411
3 148 412 413
3 149 414 416
3 416 415 148
3 414 415 416
3 149 417 419
3 417 1 418
3 417 418 419
3 149 48 1
3 150 48 149
3 150 15 48
3 420 150 421
3 422 421 37
3 420 421 422
3 151 423 425
3 423 150 424
3 423 424 425
3 151 15 150
3 151 99 15
3 426 99 427
3 428 427 151
3 426 427 428
3 429 8 430
3 431 430 99
3 429 430 431
3 432 8 433
3 435 434 8
3 77 436 438
3 438 437 38
3 436 437 438
3 440 439 77
3 101 78 9
3 152 78 101
3 152 39 78
3 80 152 17
3 153 152 80
3 153 39 152
3 153 441 443
3 443 442 39
3 441 442 443
3 154 444 446
3 446 445 153
3 444 445 446
3 154 447 448
3 154 449 450
3 155 451 453
3 453 452 154
3 451 452 453
3 155 454 455
3 82 155 40
3 156 155 82
3 156 456 458
3 458 457 155
3 456 457 458
3 156 459 460
3 123 461 463
3 463 462 156
3 461 462 463
3 123 464 465
3 124 466 467
3 470 469 124
3 468 469 470
3 472 471 29
3 105 84 5
3 157 84 105
3 157 473 475
3 475 474 84
3 473 474 475
3 476 157 477
3 478 477 19
3 476 477 478
3 479 157 480
3 482 481 157
3 114 52 0
3 158 52 114
3 158 20 52
3 86 158 24
3 159 158 86
3 159 20 158
3 159 108 20
3 160 108 159
3 160 483 485
3 485 484 108
3 483 484 485
3 110 87 3
3 161 87 110
3 161 41 87
3 486 161 487
3 488 487 22
3 486 487 488
3 489 161 490
3 491 41 492
3 493 492 161
3 491 492 493
3 494 160 495
3 496 495 41
3 494 495 496
3 497 160 498
3 500 499 160
3 88 501 503
3 501 502 503
3 505 504 88
3 162 506 507
3 162 508 510
3 508 27 509
3 508 509 510
3 90 162 42
3 163 162 90
3 163 27 162
3 163 122 27
3 511 122 512
3 513 512 163
3 511 512 513
3 515 514 122
