ply
format ascii 1.0
element vertex 346
property float x
property float y
property float z
element face 357
property list uchar int vertex_index
end_header
33.749649 -60.447842 56.332909
38.294834 -47.216866 51.11499
34.110992 -67.864334 55.560211
35.175903 -54.638546 53.348465
44.337627 -39.800705 51.59536
32.650673 -55.325191 62.293198
31.816669 -62.977169 63.453949
35.212448 -61.479546 53.54232
33.87405 -63.663158 55.898865
34.364853 -57.911449 54.967422
36.515747 -58.615379 51.767296
41.009239 -43.448776 51.057022
41.88311 -47.917534 48.841621
31.706411 -56.403355 67.002663
30.21489 -64.533173 67.389336
30.750826 -67.009285 62.602043
36.378643 -51.007847 51.936028
39.628971 -51.621685 49.196945
37.908073 -55.257996 50.266014
33.260799 -58.097515 58.942284
32.897999 -61.539082 59.451904
32.482662 -59.088509 63.358231
31.363764 -60.449474 67.75621
34.178684 -51.015198 55.982506
33.576859 -54.669441 57.559883
32.432003 -65.41481 59.087227
34.295181 -60.875961 54.987312
34.552719 -62.654972 54.610992
33.795521 -61.846298 56.117508
34.022079 -59.330181 55.721321
34.779125 -59.627293 54.087639
39.559013 -45.32114 50.99292
41.301807 -45.622452 49.787338
39.988129 -47.483738 49.785416
35.705299 -52.855732 52.58989
37.066505 -53.083542 50.941093
36.390396 -54.872791 51.632515
37.286423 -60.753845 51.429634
38.074684 -59.187366 50.638794
40.605946 -53.971348 48.758949
41.602421 -52.142021 48.396187
32.993221 -56.731064 60.596878
32.877548 -58.524849 61.116768
32.612476 -57.199928 62.927483
31.035063 -57.03437 69.205132
31.6294 -58.417435 67.501953
30.891319 -59.11108 69.626442
30.523512 -61.198318 69.782059
29.927296 -59.840675 71.575035
32.674736 -53.445652 61.535263
33.183029 -53.09705 59.10788
33.072109 -54.929302 59.897873
33.413094 -56.408535 58.319832
32.398983 -62.235748 61.418472
32.67429 -63.418526 59.344147
32.037598 -64.199837 61.219009
30.203472 -69.030762 61.894325
31.241707 -68.288574 60.323471
35.670464 -63.501411 53.27494
34.833702 -64.661903 54.405853
33.978939 -65.696861 55.711693
34.743084 -56.332558 54.158684
35.807587 -56.579208 52.409424
35.279556 -58.175674 53.234612
35.863033 -60.12376 52.616051
42.614632 -41.608253 51.274734
44.358719 -42.00116 50.301628
42.767616 -43.792946 49.97287
43.221794 -46.096127 48.970459
43.939198 -48.495384 48.269043
32.22263 -55.826206 64.68116
31.103306 -63.745743 65.467911
31.309052 -64.982826 63.13118
30.448204 -65.76561 65.002708
37.234814 -49.119827 51.433556
38.84444 -49.362625 49.984528
37.874863 -51.237816 50.378555
38.71106 -53.461437 49.658623
39.704662 -55.772392 49.279259
37.187897 -56.984585 50.979485
38.871372 -57.519268 49.91684
40.683689 -49.76561 48.917221
42.711559 -50.309566 48.226509
33.50526 -59.385597 57.447891
33.351749 -60.918465 57.677734
33.092091 -59.782078 59.333946
32.683716 -60.348072 61.394958
32.218517 -61.01075 63.536781
32.18309 -57.772972 65.249985
31.999834 -59.7402 65.594681
31.636574 -61.732567 65.6707
30.884058 -62.492622 67.722137
29.919638 -63.280903 69.630661
42.784496 -39.555691 52.871155
41.03466 -41.413216 52.64019
39.430943 -43.296459 52.5261
35.873848 -49.041431 53.231865
35.152508 -50.936211 53.827255
34.629505 -52.785534 54.552544
33.808483 -52.870136 56.753311
34.253487 -54.569344 55.350555
33.966671 -56.271023 56.153404
33.722298 -57.877224 56.884674
33.25444 -62.640587 57.603615
33.170425 -64.566132 57.412231
33.104359 -66.633972 57.170822
31.636227 -66.226761 60.8424
32.19912 -67.493774 58.729378
34.7819 -68.483345 54.935208
34.624544 -67.34687 54.940212
34.18849 -68.987366 55.489502
34.7819 -68.483345 54.935208
38.152462 -61.114009 51.010548
37.690764 -61.873758 51.400276
45.19079 -40.023063 51.155178
45.238213 -38.911213 51.775925
41.6502 -54.278519 48.487611
41.166277 -55.179375 48.708835
30.52563 -58.407749 70.434971
30.963191 -58.072725 69.415787
30.597502 -57.369394 70.224316
30.043619 -58.772546 71.409267
30.409307 -59.475877 70.600739
30.52563 -58.407749 70.434971
30.549689 -69.691697 60.78381
29.961122 -70.025127 61.455753
35.441456 -62.490478 53.40863
36.079102 -62.849493 52.786179
35.850094 -61.83856 52.919868
35.850094 -61.83856 52.919868
36.175387 -61.160668 52.456734
35.53774 -60.801653 53.079185
39.394161 -58.686584 49.896416
38.473028 -58.353317 50.277817
38.995817 -59.520634 50.257393
39.840902 -57.835258 49.570706
39.394161 -58.686584 49.896416
45.303339 -42.284497 50.009029
44.521397 -43.156662 49.790088
43.22483 -51.539876 48.083683
42.15699 -51.225793 48.311348
42.670261 -52.456104 48.168522
43.792251 -50.636375 48.047525
43.22483 -51.539876 48.083683
29.682817 -62.629435 70.62685
30.221575 -62.23961 69.70636
29.984755 -61.588142 70.702549
29.319178 -63.688219 70.490528
29.682817 -62.629435 70.62685
42.085004 -39.538683 53.693855
43.027898 -38.596514 53.806565
41.210087 -40.467445 53.578373
41.909578 -40.484454 52.755673
42.085004 -39.538683 53.693855
38.73419 -43.314464 53.43272
39.526726 -42.357799 53.445408
38.723942 -44.249724 52.549633
38.73419 -43.314464 53.43272
35.727494 -48.117097 54.019268
36.349941 -48.082399 53.019551
34.665596 -50.975704 54.904881
34.953222 -50.026656 54.572006
34.46631 -50.066149 55.649631
32.101695 -68.55481 58.507877
31.720413 -67.891174 59.526424
31.622988 -68.952209 59.304924
32.634306 -68.141995 57.813908
32.101695 -68.55481 58.507877
29.816902 -65.542557 67.081108
29.666832 -64.93628 68.276516
38.546593 -60.33077 50.615127
37.680554 -59.970605 51.034214
38.152462 -61.114009 51.010548
38.995817 -59.520634 50.257393
38.546593 -60.33077 50.615127
42.148438 -53.363855 48.30623
41.104184 -53.056685 48.577568
41.6502 -54.278519 48.487611
43.216278 -53.677938 48.078565
42.670261 -52.456104 48.168522
42.148438 -53.363855 48.30623
29.686646 -60.90932 71.599037
29.984755 -61.588142 70.702549
30.225404 -60.519497 70.678547
34.009718 -50.170313 56.794548
34.46631 -50.066149 55.649631
32.928883 -53.271351 60.321572
32.983343 -52.323898 59.92709
32.729197 -52.498199 61.140782
31.068807 -69.320603 59.998382
30.72259 -68.659668 61.108898
30.549689 -69.691697 60.78381
31.622988 -68.952209 59.304924
31.068807 -69.320603 59.998382
36.404307 -63.949398 52.75449
36.079102 -62.849493 52.786179
35.910099 -64.588764 53.242549
36.404307 -63.949398 52.75449
35.491718 -65.16901 53.808006
35.910099 -64.588764 53.242549
35.252083 -64.081657 53.840396
34.985899 -65.745655 54.363033
35.491718 -65.16901 53.808006
34.558517 -66.263134 55.015953
34.985899 -65.745655 54.363033
34.40632 -65.179382 55.058773
34.044966 -66.780597 55.635952
34.624544 -67.34687 54.940212
34.558517 -66.263134 55.015953
36.887082 -61.47571 51.863526
36.574728 -60.438802 52.022842
36.175387 -61.160668 52.456734
37.690764 -61.873758 51.400276
36.887082 -61.47571 51.863526
43.725845 -44.052555 49.625709
44.521397 -43.156662 49.790088
43.563167 -42.897053 50.137249
43.952934 -45.204146 49.124504
43.725845 -44.052555 49.625709
42.994705 -44.944536 49.471665
44.251259 -46.405184 48.744286
43.952934 -45.204146 49.124504
44.609961 -47.604813 48.393578
44.251259 -46.405184 48.744286
43.580496 -47.295755 48.619751
45.022019 -48.838752 48.142189
44.609961 -47.604813 48.393578
32.210245 -54.85856 64.322498
32.436651 -55.575699 63.487179
32.424267 -54.608053 63.128518
31.946465 -55.117296 65.506992
32.210245 -54.85856 64.322498
31.688356 -55.40587 66.667744
31.96452 -56.11478 65.841912
31.946465 -55.117296 65.506992
31.364107 -55.690706 67.797218
31.688356 -55.40587 66.667744
31.028433 -56.006214 68.898453
31.370737 -56.718863 68.103898
31.364107 -55.690706 67.797218
30.617085 -56.310102 69.952302
31.028433 -56.006214 68.898453
30.597502 -57.369394 70.224316
30.617085 -56.310102 69.952302
32.445988 -52.702627 62.363163
32.729197 -52.498199 61.140782
32.436299 -53.668284 62.74955
32.445988 -52.702627 62.363163
32.424267 -54.608053 63.128518
32.662705 -54.385421 61.914231
32.436299 -53.668284 62.74955
29.93356 -66.158775 65.887794
30.331547 -65.149392 66.196022
29.816902 -65.542557 67.081108
30.094701 -66.768402 64.653156
29.93356 -66.158775 65.887794
30.246012 -67.39024 63.452824
30.599515 -66.387448 63.802375
30.094701 -66.768402 64.653156
29.972335 -68.400978 63.098965
30.477149 -68.020024 62.248184
30.246012 -67.39024 63.452824
29.629039 -69.384811 62.645107
29.972335 -68.400978 63.098965
29.386688 -70.379177 62.206535
29.961122 -70.025127 61.455753
29.629039 -69.384811 62.645107
40.715635 -56.079897 48.968991
41.166277 -55.179375 48.708835
40.155304 -54.87187 49.019104
40.257547 -56.961821 49.251915
39.288017 -56.64583 49.59805
39.840902 -57.835258 49.570706
40.715635 -56.079897 48.968991
40.257547 -56.961821 49.251915
45.201336 -41.123291 50.508312
45.19079 -40.023063 51.155178
44.348173 -40.900932 50.948494
45.201336 -41.123291 50.508312
45.303339 -42.284497 50.009029
44.406071 -49.729284 48.068793
43.325378 -49.402475 48.247776
43.792251 -50.636375 48.047525
45.022019 -48.838752 48.142189
44.406071 -49.729284 48.068793
29.519206 -64.310145 69.397178
29.666832 -64.93628 68.276516
30.067264 -63.907038 68.509998
29.519206 -64.310145 69.397178
29.319178 -63.688219 70.490528
29.489908 -59.122896 72.328346
30.043619 -58.772546 71.409267
29.321584 -60.220281 72.442631
29.489908 -59.122896 72.328346
29.686646 -60.90932 71.599037
29.321584 -60.220281 72.442631
44.485399 -38.760937 52.378754
45.238213 -38.911213 51.775925
45.385984 -37.871445 52.559319
43.708833 -38.63843 53.016652
43.027898 -38.596514 53.806565
43.561061 -39.678198 52.233258
44.485399 -38.760937 52.378754
43.708833 -38.63843 53.016652
40.328585 -41.416178 53.502453
41.210087 -40.467445 53.578373
40.232802 -42.354838 52.583145
40.328585 -41.416178 53.502453
39.526726 -42.357799 53.445408
38.787977 -45.262064 51.783043
39.494978 -44.308799 51.75951
38.723942 -44.249724 52.549633
38.155888 -46.209927 51.844078
38.926924 -46.269003 51.053955
38.787977 -45.262064 51.783043
37.560434 -47.170117 51.961113
38.155888 -46.209927 51.844078
37.030424 -48.121597 52.120396
37.764824 -48.168346 51.274273
37.560434 -47.170117 51.961113
36.554331 -49.080629 52.332711
37.030424 -48.121597 52.120396
36.349941 -48.082399 53.019551
35.313893 -49.079266 54.274311
35.727494 -48.117097 54.019268
35.513178 -49.988821 53.52956
35.313893 -49.079266 54.274311
34.953222 -50.026656 54.572006
33.795044 -51.121446 57.149994
34.009718 -50.170313 56.794548
33.297216 -52.162373 58.712681
32.983343 -52.323898 59.92709
33.609943 -52.048915 57.535396
33.297216 -52.162373 58.712681
33.495756 -52.983593 57.930595
33.993583 -51.942667 56.367908
33.795044 -51.121446 57.149994
33.609943 -52.048915 57.535396
33.086925 -67.712094 57.03463
32.65174 -67.063873 57.9501
32.634306 -68.141995 57.813908
33.590242 -68.327275 56.229325
33.607675 -67.249153 56.365516
33.086925 -67.712094 57.03463
34.18849 -68.987366 55.489502
33.590242 -68.327275 56.229325
3 0 28 26
3 0 26 29
3 1 33 31
3 2 108 109
3 2 110 111
3 3 36 34
3 113 112 37
3 4 114 115
3 117 116 39
3 5 43 41
3 118 46 119
3 120 119 44
3 118 119 120
3 121 48 122
3 123 122 46
3 121 122 123
3 5 51 49
3 5 41 51
3 6 55 53
3 125 124 56
3 7 126 128
3 126 58 127
3 126 127 128
3 8 59 27
3 8 60 59
3 9 63 61
3 7 64 30
3 7 129 131
3 131 130 64
3 129 130 131
3 11 67 65
3 12 68 32
3 12 69 68
3 14 73 71
3 16 76 74
3 18 77 35
3 18 78 77
3 10 79 62
3 132 80 133
3 134 133 38
3 132 133 134
3 136 135 80
3 138 137 66
3 17 81 75
3 139 82 140
3 141 140 40
3 139 140 141
3 143 142 82
3 19 85 83
3 21 86 42
3 21 87 86
3 13 88 70
3 22 89 45
3 22 90 89
3 22 91 90
3 144 92 145
3 146 145 47
3 144 145 146
3 148 147 92
3 149 93 150
3 151 94 152
3 153 152 93
3 151 152 153
3 154 95 155
3 157 156 95
3 158 96 159
3 23 160 162
3 160 97 161
3 160 161 162
3 23 98 97
3 24 99 50
3 24 100 99
3 24 101 100
3 19 102 52
3 19 83 102
3 20 103 84
3 25 104 54
3 25 105 104
3 15 106 72
3 163 107 164
3 165 164 57
3 163 164 165
3 167 166 107
3 26 27 7
3 28 27 26
3 28 8 27
3 29 30 9
3 26 30 29
3 26 7 30
3 31 32 11
3 33 32 31
3 33 12 32
3 169 168 14
3 34 35 16
3 36 35 34
3 36 18 35
3 37 38 10
3 170 38 171
3 172 171 37
3 170 171 172
3 174 173 38
3 39 40 17
3 175 40 176
3 177 176 39
3 175 176 177
3 180 179 40
3 178 179 180
3 41 42 19
3 43 42 41
3 43 21 42
3 44 45 13
3 46 45 44
3 46 22 45
3 46 47 22
3 48 47 46
3 48 181 183
3 183 182 47
3 181 182 183
3 184 23 185
3 49 186 188
3 186 50 187
3 186 187 188
3 51 50 49
3 51 24 50
3 51 52 24
3 41 52 51
3 41 19 52
3 53 54 20
3 55 54 53
3 55 25 54
3 56 57 15
3 189 57 190
3 191 190 56
3 189 190 191
3 193 192 57
3 58 194 195
3 58 196 197
3 27 58 7
3 59 58 27
3 59 198 200
3 200 199 58
3 198 199 200
3 59 201 202
3 60 203 205
3 205 204 59
3 203 204 205
3 60 206 208
3 206 2 207
3 206 207 208
3 61 62 3
3 63 62 61
3 63 10 62
3 30 63 9
3 64 63 30
3 64 10 63
3 64 37 10
3 209 37 210
3 211 210 64
3 209 210 211
3 213 212 37
3 65 66 4
3 67 66 65
3 67 214 216
3 216 215 66
3 214 215 216
3 32 67 11
3 68 67 32
3 68 217 219
3 219 218 67
3 217 218 219
3 68 220 221
3 69 222 224
3 224 223 68
3 222 223 224
3 69 225 226
3 227 70 228
3 229 228 5
3 227 228 229
3 230 70 231
3 232 13 233
3 234 233 70
3 232 233 234
3 235 13 236
3 237 44 238
3 239 238 13
3 237 238 239
3 240 44 241
3 243 242 44
3 244 49 245
3 246 49 247
3 248 5 249
3 250 249 49
3 248 249 250
3 71 72 6
3 73 72 71
3 73 15 72
3 251 73 252
3 253 252 14
3 251 252 253
3 254 73 255
3 256 15 257
3 258 257 73
3 256 257 258
3 259 56 260
3 261 260 15
3 259 260 261
3 262 56 263
3 266 265 56
3 264 265 266
3 74 75 1
3 76 75 74
3 76 17 75
3 35 76 16
3 77 76 35
3 77 17 76
3 77 39 17
3 78 39 77
3 78 267 269
3 269 268 39
3 267 268 269
3 62 36 3
3 79 36 62
3 79 18 36
3 38 79 10
3 80 79 38
3 80 18 79
3 80 78 18
3 270 78 271
3 272 271 80
3 270 271 272
3 274 273 78
3 66 275 277
3 277 276 4
3 275 276 277
3 279 278 66
3 75 33 1
3 81 33 75
3 81 12 33
3 40 81 17
3 82 81 40
3 82 12 81
3 82 69 12
3 280 69 281
3 282 281 82
3 280 281 282
3 284 283 69
3 83 84 0
3 85 84 83
3 85 20 84
3 42 85 19
3 86 85 42
3 86 20 85
3 86 53 20
3 87 53 86
3 87 6 53
3 70 43 5
3 88 43 70
3 88 21 43
3 45 88 13
3 89 88 45
3 89 21 88
3 89 87 21
3 90 87 89
3 90 6 87
3 90 71 6
3 91 71 90
3 91 14 71
3 47 91 22
3 92 91 47
3 92 14 91
3 92 285 287
3 287 286 14
3 285 286 287
3 289 288 92
3 290 48 291
3 292 48 293
3 295 294 48
3 296 4 297
3 296 297 298
3 93 299 300
3 93 301 303
3 301 4 302
3 301 302 303
3 93 65 4
3 94 65 93
3 94 11 65
3 304 94 305
3 95 306 308
3 306 94 307
3 306 307 308
3 95 11 94
3 95 31 11
3 309 31 310
3 311 310 95
3 309 310 311
3 312 1 313
3 314 313 31
3 312 313 314
3 315 1 316
3 317 74 318
3 319 318 1
3 317 318 319
3 96 320 322
3 320 74 321
3 320 321 322
3 96 16 74
3 323 96 324
3 97 325 327
3 325 96 326
3 325 326 327
3 97 16 96
3 97 34 16
3 98 34 97
3 98 3 34
3 328 23 329
3 50 330 331
3 99 332 334
3 334 333 50
3 332 333 334
3 99 335 337
3 335 23 336
3 335 336 337
3 99 98 23
3 100 98 99
3 100 3 98
3 100 61 3
3 101 61 100
3 101 9 61
3 52 101 24
3 102 101 52
3 102 9 101
3 102 29 9
3 83 29 102
3 83 0 29
3 84 28 0
3 103 28 84
3 103 8 28
3 54 103 20
3 104 103 54
3 104 8 103
3 104 60 8
3 105 60 104
3 105 2 60
3 72 55 6
3 106 55 72
3 106 25 55
3 57 106 15
3 107 106 57
3 107 25 106
3 107 105 25
3 338 105 339
3 340 339 107
3 338 339 340
3 341 2 342
3 343 342 105
3 341 342 343
3 345 344 2
