ply
format ascii 1.0
element vertex 312
property float x
property float y
property float z
element face 332
property list uchar int vertex_index
end_header
-64.629013 -24.938894 -12.7575
-68.232971 -40.90509 -0.132874
-62.414448 -33.423592 -14.541996
-67.778427 -23.577148 -6.951735
-66.594696 -32.439659 -7.178049
-63.482162 -42.669312 -7.248564
-63.250572 -28.555046 -13.7679
-62.499809 -28.126354 -17.56715
-63.330482 -23.838373 -15.952736
-66.612549 -19.867188 -6.730448
-68.092354 -28.005259 -4.053421
-66.365227 -45.563507 0.203606
-65.803757 -41.584175 -3.626156
-64.877808 -37.447643 -7.307131
-67.593544 -36.688213 -3.758776
-68.404808 -45.119583 3.705335
-66.607544 -23.921135 -10.081797
-65.158791 -20.961359 -13.381517
-66.83609 -19.627863 -10.07749
-66.151382 -15.611429 -9.988216
-68.407158 -45.393654 7.117518
-68.828156 -40.980148 3.137252
-68.889 -36.536247 -0.521688
-68.535706 -32.106461 -3.90193
-67.758636 -27.79546 -7.049839
-65.474945 -28.293432 -10.306019
-62.834599 -38.289272 -11.030058
-63.889328 -33.079502 -10.765882
-63.963879 -26.489389 -13.245298
-63.193733 -26.243145 -14.975481
-63.953655 -24.438416 -14.156855
-67.405701 -43.210373 0.031425
-66.14254 -43.585415 -1.730598
-67.136047 -41.166885 -1.85487
-66.754402 -39.108292 -3.698912
-67.967911 -38.800186 -1.970167
-67.443512 -23.612722 -8.511353
-66.836182 -21.763218 -10.080647
-67.383743 -21.527878 -8.456919
-65.655792 -18.258818 -6.5672
-66.477333 -17.685419 -8.261824
-65.668488 -15.995624 -8.141989
-68.657425 -43.195221 5.08423
-68.50238 -36.801796 0.972343
-68.599449 -34.52227 -0.757822
-68.7659 -34.316307 -2.244364
-68.602737 -32.245731 -2.407114
-68.011475 -25.748119 -5.501947
-68.276077 -27.770737 -5.509691
-67.925247 -25.630838 -7.005487
-67.224831 -25.772343 -8.567019
-63.767471 -44.694778 -5.307777
-63.21669 -47.306683 -5.094265
-63.10355 -45.320503 -7.086136
-62.924278 -43.216812 -9.058735
-62.726162 -40.97731 -11.002035
-63.154716 -40.538883 -9.160835
-65.750198 -34.90641 -7.252819
-64.367096 -35.291458 -9.074648
-65.199203 -32.764156 -8.940071
-64.677582 -30.619356 -10.536432
-66.029892 -30.332703 -8.788824
-65.368828 -18.635441 -13.649317
-62.694408 -30.90086 -14.216389
-62.38847 -30.823383 -16.127335
-62.64085 -28.413363 -15.634607
-62.749493 -25.844358 -16.871906
-67.331207 -21.648489 -6.863632
-65.088348 -46.037811 -1.571356
-64.846542 -44.097122 -3.516249
-64.503342 -42.10495 -5.430664
-64.091324 -40.041447 -7.314442
-65.371078 -39.543018 -5.486494
-66.282066 -37.023254 -5.500645
-67.127243 -34.565872 -5.497042
-67.551773 -45.250408 1.965954
-68.379288 -43.009865 1.756482
-65.546501 -24.414515 -11.568121
-64.879158 -23.154484 -13.064585
-65.91098 -22.313971 -11.657475
-66.126045 -20.108778 -11.776525
-66.170334 -17.885715 -11.866533
-67.055847 -19.540937 -8.375101
-66.606796 -17.561737 -10.04479
-68.728668 -45.173378 5.419901
-68.844711 -43.004726 3.439063
-68.854553 -40.836693 1.530687
-68.907974 -38.758816 1.270571
-68.752579 -38.671745 -0.31278
-68.538231 -36.508499 -2.096827
-68.216118 -34.34668 -3.823967
-67.796486 -32.192719 -5.494188
-68.499008 -29.987309 -3.985582
-68.198517 -29.922867 -5.500408
-67.295853 -30.066042 -7.10598
-66.737061 -28.006254 -8.656792
-66.147232 -26.083206 -10.142834
-64.981766 -26.416012 -11.679747
-62.572941 -35.915825 -12.833248
-63.653805 -37.891182 -9.158104
-63.241219 -35.647465 -10.942663
-62.905689 -33.313988 -12.640343
-63.498829 -30.828259 -12.346319
-64.242111 -28.512901 -11.997948
-64.169083 -22.197065 -14.792124
-62.451748 -33.407556 -15.491039
-62.442627 -34.741579 -14.630104
-65.080185 -16.421965 -7.279439
-65.66214 -17.127221 -7.354595
-65.073837 -17.553562 -6.492045
-65.159191 -15.249363 -8.103517
-65.080185 -16.421965 -7.279439
-68.24152 -33.585186 -0.879665
-68.121555 -34.753258 -0.053044
-68.243164 -32.446917 -1.704311
-68.601093 -33.384 -1.582468
-68.24152 -33.585186 -0.879665
-65.010647 -17.967734 -14.68104
-65.40931 -17.461932 -13.751916
-63.156093 -23.512616 -16.942601
-62.865599 -24.515608 -17.402186
-63.039988 -24.841366 -16.412321
-65.726788 -45.800659 -0.683875
-65.148452 -46.99214 -0.579851
-65.786892 -46.754987 0.30763
-62.560862 -29.365514 -17.804278
-62.505192 -30.714029 -17.08437
-62.444139 -29.474868 -16.847243
-67.97829 -45.184995 2.835644
-67.561752 -46.272257 2.962261
-67.98827 -46.206845 3.831952
-66.087047 -15.662688 -10.952136
-66.314754 -16.637842 -10.980423
-66.379089 -16.586583 -10.016503
-65.911941 -14.629191 -10.965711
-66.087047 -15.662688 -10.952136
-68.250252 -46.474998 8.179444
-67.915367 -45.566612 7.966058
-68.462311 -46.36298 7.299159
-68.250252 -46.474998 8.179444
-68.567913 -45.283516 6.268709
-68.623066 -46.252842 6.450351
-68.462311 -46.36298 7.299159
-68.295681 -28.996284 -4.019502
-68.270203 -30.150954 -3.274499
-68.066876 -29.159929 -3.308419
-62.911751 -48.968443 -5.790072
-63.038983 -48.625017 -4.932778
-63.089458 -47.650109 -5.95156
-62.697264 -38.44041 -11.963465
-62.643045 -39.78443 -11.949454
-62.78038 -39.633291 -11.016046
-62.70377 -37.102548 -11.931653
-62.566435 -37.253687 -12.86506
-62.697264 -38.44041 -11.963465
-62.674639 -27.923095 -18.539196
-62.611009 -26.734831 -18.210451
-68.359616 -46.176244 4.714185
-67.98827 -46.206845 3.831952
-65.573166 -14.907026 -9.04148
-65.814613 -14.714928 -9.964593
-65.909935 -15.803527 -9.065103
-65.573166 -14.907026 -9.04148
-65.159191 -15.249363 -8.103517
-68.08905 -44.475769 6.912735
-67.915367 -45.566612 7.966058
-68.214184 -43.376553 5.896091
-68.532291 -44.294438 6.100874
-68.08905 -44.475769 6.912735
-68.366783 -42.262663 4.892372
-68.214184 -43.376553 5.896091
-68.452149 -41.155127 3.918883
-68.742791 -42.087684 4.110741
-68.366783 -42.262663 4.892372
-68.07302 -35.893021 0.812038
-67.922772 -37.0541 1.690003
-68.550915 -35.662033 0.10726
-68.07302 -35.893021 0.812038
-68.121555 -34.753258 -0.053044
-63.492081 -46.000731 -5.201021
-63.593018 -46.971201 -4.218723
-63.868408 -45.665249 -4.325479
-63.032888 -46.657018 -6.947496
-63.089458 -47.650109 -5.95156
-63.16012 -46.313593 -6.0902
-63.035539 -45.61879 -7.960063
-63.032888 -46.657018 -6.947496
-62.945904 -44.566944 -8.946362
-63.035539 -45.61879 -7.960063
-63.013914 -44.268658 -8.072436
-62.922376 -43.455866 -9.949963
-62.945904 -44.566944 -8.946362
-62.82522 -42.097061 -10.030385
-62.823318 -42.336115 -10.921613
-62.922376 -43.455866 -9.949963
-64.902253 -19.210739 -14.475456
-64.797234 -20.373698 -14.341556
-65.263809 -19.7984 -13.515417
-64.902253 -19.210739 -14.475456
-65.010647 -17.967734 -14.68104
-62.735851 -25.593832 -17.862829
-62.611009 -26.734831 -18.210451
-62.624651 -26.985356 -17.219528
-62.735851 -25.593832 -17.862829
-62.865599 -24.515608 -17.402186
-67.376438 -22.758251 -6.157476
-67.554817 -22.612819 -6.907684
-67.600048 -23.72258 -6.201527
-66.938439 -21.897334 -6.101533
-67.376438 -22.758251 -6.157476
-66.57911 -21.006684 -6.034941
-66.971878 -20.757838 -6.79704
-66.938439 -21.897334 -6.101533
-66.020798 -20.23391 -5.949965
-66.57911 -21.006684 -6.034941
-65.542419 -19.429725 -5.868341
-66.134171 -19.063003 -6.648824
-66.020798 -20.23391 -5.949965
-64.884766 -18.754247 -5.770746
-65.542419 -19.429725 -5.868341
-65.073837 -17.553562 -6.492045
-64.884766 -18.754247 -5.770746
-67.603482 -28.270208 -3.36572
-68.066876 -29.159929 -3.308419
-67.716152 -27.08937 -4.064281
-67.603482 -28.270208 -3.36572
-67.675713 -25.9608 -4.788544
-68.051915 -26.876689 -4.777684
-67.716152 -27.08937 -4.064281
-67.716572 -24.808066 -5.476633
-67.675713 -25.9608 -4.788544
-67.600048 -23.72258 -6.201527
-67.894951 -24.662633 -6.226841
-67.716572 -24.808066 -5.476633
-64.573516 -47.276032 -1.460723
-65.148452 -46.99214 -0.579851
-64.528847 -46.336765 -2.457268
-64.573516 -47.276032 -1.460723
-64.407944 -45.366421 -3.429715
-64.528847 -46.336765 -2.457268
-64.967445 -45.067466 -2.543802
-64.307006 -44.39595 -4.412013
-63.868408 -45.665249 -4.325479
-64.407944 -45.366421 -3.429715
-62.438759 -32.107452 -16.283709
-62.451748 -33.407556 -15.491039
-62.401459 -32.123487 -15.334665
-62.438759 -32.107452 -16.283709
-62.505192 -30.714029 -17.08437
-62.560862 -29.365514 -17.804278
-62.674639 -27.923095 -18.539196
-66.412968 -46.548111 1.19468
-65.786892 -46.754987 0.30763
-67.006241 -46.391562 2.075854
-67.561752 -46.272257 2.962261
-66.9585 -45.406958 1.08478
-66.412968 -46.548111 1.19468
-67.006241 -46.391562 2.075854
-65.810063 -17.087069 -12.860524
-65.40931 -17.461932 -13.751916
-65.769581 -18.260578 -12.757925
-66.096523 -16.79983 -11.891295
-66.388565 -17.723726 -10.955662
-66.314754 -16.637842 -10.980423
-65.810063 -17.087069 -12.860524
-66.096523 -16.79983 -11.891295
-65.911941 -14.629191 -10.965711
-65.814613 -14.714928 -9.964593
-68.521546 -46.203142 5.571468
-68.623066 -46.252842 6.450351
-68.566738 -45.14648 4.562618
-68.359616 -46.176244 4.714185
-68.521546 -46.203142 5.571468
-68.576099 -40.027137 2.963649
-68.452149 -41.155127 3.918883
-68.413212 -37.937962 1.881194
-67.922772 -37.0541 1.690003
-68.616008 -38.916472 2.030308
-68.413212 -37.937962 1.881194
-68.705177 -37.780306 1.121457
-68.868065 -39.869482 2.203912
-68.576099 -40.027137 2.963649
-68.616008 -38.916472 2.030308
-68.322067 -31.280165 -2.485265
-68.243164 -32.446917 -1.704311
-68.550872 -31.11652 -3.196348
-68.322067 -31.280165 -2.485265
-68.270203 -30.150954 -3.274499
-63.221699 -48.251986 -4.088553
-63.593018 -46.971201 -4.218723
-63.221699 -48.251986 -4.088553
-63.038983 -48.625017 -4.932778
-62.798556 -41.145306 -11.9084
-62.895712 -42.504111 -11.827979
-62.823318 -42.336115 -10.921613
-62.798556 -41.145306 -11.9084
-62.643045 -39.78443 -11.949454
-62.521873 -35.987696 -13.77573
-62.566435 -37.253687 -12.86506
-62.493695 -34.669708 -13.687622
-62.442627 -34.741579 -14.630104
-62.521873 -35.987696 -13.77573
-64.30238 -20.991551 -15.04686
-64.663937 -21.579212 -14.08682
-64.797234 -20.373698 -14.341556
-63.877617 -21.756079 -15.768148
-64.30238 -20.991551 -15.04686
-63.458317 -22.576733 -16.348454
-63.749783 -23.017719 -15.37243
-63.877617 -21.756079 -15.768148
-63.156093 -23.512616 -16.942601
-63.458317 -22.576733 -16.348454
3 0 30 28
3 1 33 31
3 1 35 33
3 2 105 106
3 3 38 36
3 107 41 108
3 109 108 39
3 107 108 109
3 111 110 41
3 112 44 113
3 114 46 115
3 116 115 44
3 114 115 116
3 3 49 47
3 3 36 49
3 5 53 51
3 5 54 53
3 5 56 54
3 4 59 57
3 4 61 59
3 118 117 62
3 6 65 63
3 8 66 29
3 8 119 121
3 121 120 66
3 119 120 121
3 11 122 124
3 122 68 123
3 122 123 124
3 12 69 32
3 12 70 69
3 12 72 70
3 14 73 34
3 14 74 73
3 7 125 127
3 127 126 64
3 125 126 127
3 15 128 130
3 128 75 129
3 128 129 130
3 15 76 75
3 16 79 77
3 18 80 37
3 18 81 80
3 9 82 67
3 19 83 40
3 19 131 133
3 133 132 83
3 131 132 133
3 19 134 135
3 20 136 137
3 20 138 139
3 20 140 142
3 140 84 141
3 140 141 142
3 21 85 42
3 21 86 85
3 22 87 43
3 22 88 87
3 22 89 88
3 23 90 45
3 23 91 90
3 10 143 145
3 143 92 144
3 143 144 145
3 24 93 48
3 24 94 93
3 24 95 94
3 16 96 50
3 16 77 96
3 148 147 52
3 146 147 148
3 26 149 151
3 151 150 55
3 149 150 151
3 26 152 154
3 152 98 153
3 152 153 154
3 13 99 71
3 27 100 58
3 27 101 100
3 27 102 101
3 25 103 60
3 25 97 103
3 17 104 78
3 28 29 6
3 30 29 28
3 30 8 29
3 31 32 11
3 33 32 31
3 33 12 32
3 33 34 12
3 35 34 33
3 35 14 34
3 156 155 7
3 157 15 158
3 36 37 16
3 38 37 36
3 38 18 37
3 39 40 9
3 41 40 39
3 41 19 40
3 41 159 161
3 161 160 19
3 159 160 161
3 163 162 41
3 164 20 165
3 166 42 167
3 168 167 20
3 166 167 168
3 169 42 170
3 171 21 172
3 173 172 42
3 171 172 173
3 174 43 175
3 44 176 178
3 176 43 177
3 176 177 178
3 44 22 43
3 44 45 22
3 46 45 44
3 46 23 45
3 47 48 10
3 49 48 47
3 49 24 48
3 49 50 24
3 36 50 49
3 36 16 50
3 51 179 181
3 179 52 180
3 179 180 181
3 53 52 51
3 53 182 184
3 184 183 52
3 182 183 184
3 53 185 186
3 54 187 189
3 189 188 53
3 187 188 189
3 54 190 191
3 54 192 194
3 192 55 193
3 192 193 194
3 56 55 54
3 56 26 55
3 57 58 13
3 59 58 57
3 59 27 58
3 59 60 27
3 61 60 59
3 61 25 60
3 62 195 197
3 197 196 17
3 195 196 197
3 199 198 62
3 63 64 2
3 65 64 63
3 65 7 64
3 29 65 6
3 66 65 29
3 66 7 65
3 66 200 202
3 202 201 7
3 200 201 202
3 204 203 66
3 205 67 206
3 207 206 3
3 205 206 207
3 208 67 209
3 210 9 211
3 212 211 67
3 210 211 212
3 213 9 214
3 215 39 216
3 217 216 9
3 215 216 217
3 218 39 219
3 221 220 39
3 222 10 223
3 224 10 225
3 226 47 227
3 228 227 10
3 226 227 228
3 229 47 230
3 231 3 232
3 233 232 47
3 231 232 233
3 68 234 235
3 68 236 237
3 32 68 11
3 69 68 32
3 69 238 240
3 240 239 68
3 238 239 240
3 69 241 243
3 241 51 242
3 241 242 243
3 70 51 69
3 70 5 51
3 70 71 5
3 72 71 70
3 72 13 71
3 34 72 12
3 73 72 34
3 73 13 72
3 73 57 13
3 74 57 73
3 74 4 57
3 64 244 246
3 246 245 2
3 244 245 246
3 248 247 64
3 250 249 7
3 251 11 252
3 75 253 254
3 75 255 257
3 255 11 256
3 255 256 257
3 75 31 11
3 76 31 75
3 76 1 31
3 77 78 0
3 79 78 77
3 79 17 78
3 37 79 16
3 80 79 37
3 80 17 79
3 80 62 17
3 81 62 80
3 81 258 260
3 260 259 62
3 258 259 260
3 67 38 3
3 82 38 67
3 82 18 38
3 40 82 9
3 83 82 40
3 83 18 82
3 83 81 18
3 261 81 262
3 263 262 83
3 261 262 263
3 265 264 81
3 267 266 19
3 84 268 269
3 84 270 272
3 270 15 271
3 270 271 272
3 42 84 20
3 85 84 42
3 85 15 84
3 85 76 15
3 86 76 85
3 86 1 76
3 273 21 274
3 43 275 276
3 87 277 279
3 279 278 43
3 277 278 279
3 87 280 282
3 280 21 281
3 280 281 282
3 87 86 21
3 88 86 87
3 88 1 86
3 88 35 1
3 89 35 88
3 89 14 35
3 45 89 22
3 90 89 45
3 90 14 89
3 90 74 14
3 91 74 90
3 91 4 74
3 283 46 284
3 92 285 287
3 285 46 286
3 285 286 287
3 92 23 46
3 48 92 10
3 93 92 48
3 93 23 92
3 93 91 23
3 94 91 93
3 94 4 91
3 94 61 4
3 95 61 94
3 95 25 61
3 50 95 24
3 96 95 50
3 96 25 95
3 96 97 25
3 77 97 96
3 77 0 97
3 52 288 289
3 291 290 52
3 55 292 294
3 292 293 294
3 296 295 55
3 98 297 298
3 98 299 301
3 299 2 300
3 299 300 301
3 71 56 5
3 99 56 71
3 99 26 56
3 58 99 13
3 100 99 58
3 100 26 99
3 100 98 26
3 101 98 100
3 101 2 98
3 101 63 2
3 102 63 101
3 102 6 63
3 60 102 27
3 103 102 60
3 103 6 102
3 103 28 6
3 97 28 103
3 97 0 28
3 78 30 0
3 104 30 78
3 104 8 30
3 302 104 303
3 304 303 17
3 302 303 304
3 305 104 306
3 307 8 308
3 309 308 104
3 307 308 309
3 311 310 8
