ply
format ascii 1.0
element vertex 244
property float x
property float y
property float z
element face 216
property list uchar int vertex_index
end_header
2.908205 -60.620811 8.917184
12.677906 -62.003616 -3.394693
0.771454 -63.285309 16.900967
11.892181 -68.605652 2.658763
2.111483 -69.250732 22.185593
3.319933 -68.425476 17.775221
6.218931 -66.373032 9.390229
7.68952 -64.808426 5.612819
8.963499 -62.602951 2.223299
13.505239 -63.422733 -5.883423
4.721724 -67.500122 13.476692
1.722212 -62.116783 12.799814
12.495409 -65.775375 -0.614498
9.951553 -59.751122 -0.679556
1.059992 -66.80217 21.56201
4.566645 -63.583813 9.083595
6.968016 -65.661247 7.457677
5.275217 -62.767124 7.210954
5.989471 -61.825188 5.429104
3.589193 -59.727955 7.092041
13.401791 -65.040329 -3.361145
13.620647 -65.895744 -4.562107
13.331127 -62.801777 -4.671482
2.033276 -65.952461 17.241131
4.003477 -67.977356 15.606018
2.606108 -65.457458 15.125646
3.223114 -64.908615 13.05318
1.218895 -62.737129 14.829077
12.263201 -67.321304 0.968516
9.491554 -61.248383 0.701971
11.74577 -59.124146 -3.230864
12.746386 -59.870876 -4.543257
3.860821 -71.150742 20.724167
4.59869 -70.734322 18.477625
2.683474 -68.851318 19.971926
1.51298 -66.400902 19.389507
0.379774 -63.767197 19.006512
9.308315 -67.673454 5.918331
9.963511 -66.756058 4.098805
10.515583 -65.627777 2.379565
8.360571 -63.792004 3.864721
6.693394 -60.752178 3.749848
5.373304 -70.322235 16.250191
6.171488 -69.910477 14.056471
5.464357 -66.974915 11.400454
3.878906 -64.290794 11.035105
2.284781 -61.414753 10.824647
12.616789 -63.989433 -2.076269
10.953352 -64.280991 0.769003
11.283947 -62.72736 -0.718756
11.533964 -60.995472 -2.061695
10.361128 -58.144783 -1.893421
12.431817 -70.060181 2.85665
11.635274 -69.117267 3.554134
12.589187 -69.471695 1.979473
12.431817 -70.060181 2.85665
12.077691 -67.963478 1.81364
12.774697 -68.829521 1.13435
12.589187 -69.471695 1.979473
11.858773 -58.137877 -3.714084
11.243099 -57.791922 -3.067446
2.644468 -70.406361 22.581922
1.868707 -69.431613 23.296899
2.986152 -70.200737 21.45488
3.519137 -71.356365 21.851209
2.644468 -70.406361 22.581922
0.782345 -65.292439 20.264145
1.286486 -66.601536 20.475758
0.555851 -65.493073 21.350397
0.215742 -63.975586 20.072648
0.946377 -65.08405 19.198009
0.782345 -65.292439 20.264145
7.396441 -67.389332 8.611171
7.004178 -67.682518 9.611785
5.50649 -59.74426 4.556717
6.341432 -61.288683 4.589476
5.154528 -60.280766 5.396344
5.891153 -59.204289 3.747571
5.50649 -59.74426 4.556717
13.42202 -65.002641 -5.779765
13.479724 -66.239147 -5.119107
13.562943 -64.659239 -5.222765
13.395224 -63.663925 -6.456396
13.42202 -65.002641 -5.779765
13.040666 -60.151027 -5.183321
12.822895 -58.761375 -5.021879
5.851705 -68.489441 12.694557
6.576587 -69.694618 12.984446
5.446606 -68.705299 13.766582
5.09304 -67.237518 12.438573
6.223021 -68.226837 11.656437
5.851705 -68.489441 12.694557
12.978978 -66.42588 -1.265465
12.968315 -67.314788 -0.48642
12.556099 -64.882404 -1.345384
13.039668 -65.532909 -1.996351
12.978978 -66.42588 -1.265465
1.403484 -68.20042 22.968388
1.868707 -69.431613 23.296899
0.877738 -66.976139 22.656597
1.585738 -68.026451 21.873801
1.403484 -68.20042 22.968388
0.432311 -65.667667 22.426986
0.877738 -66.976139 22.656597
0.555851 -65.493073 21.350397
0.432311 -65.667667 22.426986
3.95439 -59.232149 6.227813
5.154528 -60.280766 5.396344
4.789332 -60.776572 6.260573
13.511219 -65.468036 -3.961626
13.709051 -67.038501 -3.841947
13.599623 -66.610794 -3.241467
12.852211 -68.087753 0.305088
12.774697 -68.829521 1.13435
12.379305 -66.548339 0.177009
12.968315 -67.314788 -0.48642
12.852211 -68.087753 0.305088
8.433135 -60.401806 1.444009
9.227526 -61.925667 1.462635
8.169108 -61.07909 2.204673
8.759894 -59.752069 0.727842
8.433135 -60.401806 1.444009
8.989893 -59.003439 0.037078
9.721554 -60.499752 0.011207
8.759894 -59.752069 0.727842
9.303202 -58.319687 -0.602426
8.989893 -59.003439 0.037078
12.35908 -58.511242 -4.37028
12.246078 -59.497511 -3.88706
11.858773 -58.137877 -3.714084
12.822895 -58.761375 -5.021879
12.35908 -58.511242 -4.37028
4.428002 -72.245625 21.162785
3.519137 -71.356365 21.851209
4.838089 -72.035248 20.014757
4.428002 -72.245625 21.162785
4.229756 -70.942532 19.600896
5.207024 -71.827038 18.891486
4.838089 -72.035248 20.014757
7.770983 -67.03344 7.644896
7.396441 -67.389332 8.611171
6.593473 -66.017139 8.423953
8.941133 -68.039543 6.875222
7.770983 -67.03344 7.644896
8.138165 -66.66735 6.688004
10.023224 -69.043735 6.12817
8.941133 -68.039543 6.875222
10.343341 -68.651169 5.183919
10.023224 -69.043735 6.12817
10.670939 -68.19247 4.274155
10.343341 -68.651169 5.183919
9.635913 -67.214756 5.008568
10.927846 -67.680855 3.378784
11.635274 -69.117267 3.554134
10.670939 -68.19247 4.274155
7.034055 -60.153703 2.967948
8.169108 -61.07909 2.204673
7.828447 -61.677565 2.986573
7.034055 -60.153703 2.967948
5.891153 -59.204289 3.747571
13.576899 -67.497631 -4.392404
13.709051 -67.038501 -3.841947
13.576899 -67.497631 -4.392404
13.479724 -66.239147 -5.119107
13.333037 -61.616478 -5.247433
13.038756 -61.336326 -4.607369
13.040666 -60.151027 -5.183321
13.420092 -61.926956 -5.853404
13.418183 -63.112255 -5.277452
13.333037 -61.616478 -5.247433
13.522032 -62.134678 -6.472673
13.420092 -61.926956 -5.853404
13.395224 -63.663925 -6.456396
13.522032 -62.134678 -6.472673
5.628247 -71.631871 17.748576
5.207024 -71.827038 18.891486
6.015554 -71.425827 16.634859
5.628247 -71.631871 17.748576
4.985997 -70.528278 17.363908
6.441692 -71.246521 15.505144
6.015554 -71.425827 16.634859
6.840784 -71.040642 14.408283
6.441692 -71.246521 15.505144
5.772396 -70.116356 15.153331
7.266577 -70.867874 13.30104
6.840784 -71.040642 14.408283
7.266577 -70.867874 13.30104
6.576587 -69.694618 12.984446
6.626891 -67.983459 10.616898
6.223021 -68.226837 11.656437
5.841644 -66.673973 10.395342
7.004178 -67.682518 9.611785
6.626891 -67.983459 10.616898
-0.262409 -62.570364 19.965944
0.215742 -63.975586 20.072648
-0.164184 -62.348475 18.917454
-0.262409 -62.570364 19.965944
0.031656 -62.10753 17.864682
0.575614 -63.526253 17.95374
-0.164184 -62.348475 18.917454
0.158901 -61.846203 16.828062
0.031656 -62.10753 17.864682
0.382621 -61.572113 15.792116
0.995175 -63.011219 15.865022
0.158901 -61.846203 16.828062
0.540987 -61.270632 14.770433
0.382621 -61.572113 15.792116
0.792646 -60.960459 13.755801
1.470554 -62.426956 13.814445
0.540987 -61.270632 14.770433
0.988445 -60.617452 12.753984
0.792646 -60.960459 13.755801
1.269729 -60.266437 11.7664
2.003497 -61.765768 11.812231
0.988445 -60.617452 12.753984
1.510231 -59.880741 10.791417
1.269729 -60.266437 11.7664
1.821943 -59.48377 9.837685
2.596493 -61.017782 9.870916
1.510231 -59.880741 10.791417
2.112433 -59.055807 8.897968
1.821943 -59.48377 9.837685
2.452926 -58.609379 7.985397
3.248699 -60.174383 8.004613
2.112433 -59.055807 8.897968
2.795157 -58.142628 7.089697
2.452926 -58.609379 7.985397
3.95439 -59.232149 6.227813
2.795157 -58.142628 7.089697
13.432169 -66.058357 -2.638789
13.599623 -66.610794 -3.241467
13.00929 -64.514881 -2.718707
13.432169 -66.058357 -2.638789
13.039668 -65.532909 -1.996351
10.550778 -57.30224 -2.398725
11.243099 -57.791922 -3.067446
11.053449 -58.634464 -2.562143
9.507989 -57.516517 -1.209358
10.156341 -58.947952 -1.286488
9.303202 -58.319687 -0.602426
9.806895 -56.819547 -1.756338
9.507989 -57.516517 -1.209358
10.550778 -57.30224 -2.398725
9.806895 -56.819547 -1.756338
3 0 17 15
3 0 19 17
3 1 22 20
3 2 25 23
3 2 27 25
3 3 52 53
3 3 54 55
3 3 56 58
3 56 28 57
3 56 57 58
3 60 59 30
3 4 61 62
3 4 63 65
3 63 32 64
3 63 64 65
3 4 34 32
3 66 35 67
3 68 67 14
3 66 67 68
3 69 36 70
3 71 70 35
3 69 70 71
3 6 72 73
3 7 37 16
3 7 38 37
3 7 40 38
3 74 41 75
3 76 75 18
3 74 75 76
3 78 77 41
3 9 79 81
3 81 80 21
3 79 80 81
3 9 82 83
3 85 84 31
3 5 42 33
3 10 43 24
3 10 86 88
3 88 87 43
3 86 87 88
3 10 89 91
3 89 44 90
3 89 90 91
3 11 45 26
3 11 46 45
3 12 92 93
3 12 94 96
3 94 47 95
3 94 95 96
3 8 48 39
3 13 49 29
3 13 50 49
3 13 51 50
3 97 4 98
3 99 14 100
3 101 100 4
3 99 100 101
3 102 14 103
3 105 104 14
3 15 16 6
3 17 16 15
3 17 7 16
3 17 18 7
3 19 18 17
3 19 106 108
3 108 107 18
3 106 107 108
3 20 109 111
3 109 21 110
3 109 110 111
3 22 21 20
3 22 9 21
3 23 24 5
3 25 24 23
3 25 10 24
3 25 26 10
3 27 26 25
3 27 11 26
3 28 112 113
3 28 114 116
3 114 12 115
3 114 115 116
3 117 29 118
3 119 118 8
3 117 118 119
3 120 29 121
3 122 13 123
3 124 123 29
3 122 123 124
3 126 125 13
3 30 31 1
3 127 31 128
3 129 128 30
3 127 128 129
3 131 130 31
3 32 132 133
3 32 134 135
3 32 136 138
3 136 33 137
3 136 137 138
3 34 33 32
3 34 5 33
3 14 34 4
3 35 34 14
3 35 5 34
3 35 23 5
3 36 23 35
3 36 2 23
3 16 139 141
3 141 140 6
3 139 140 141
3 37 142 144
3 144 143 16
3 142 143 144
3 37 145 146
3 37 147 148
3 38 149 151
3 151 150 37
3 149 150 151
3 38 152 154
3 152 3 153
3 152 153 154
3 38 39 3
3 40 39 38
3 40 8 39
3 18 40 7
3 41 40 18
3 41 8 40
3 41 155 157
3 157 156 8
3 155 156 157
3 159 158 41
3 21 160 161
3 163 162 21
3 31 22 1
3 164 22 165
3 166 165 31
3 164 165 166
3 167 9 168
3 169 168 22
3 167 168 169
3 170 9 171
3 173 172 9
3 33 174 175
3 42 176 178
3 178 177 33
3 176 177 178
3 42 179 180
3 24 42 5
3 43 42 24
3 43 181 183
3 183 182 42
3 181 182 183
3 43 184 185
3 187 186 43
3 44 188 189
3 44 190 192
3 190 6 191
3 190 191 192
3 26 44 10
3 45 44 26
3 45 6 44
3 45 15 6
3 46 15 45
3 46 0 15
3 193 36 194
3 195 36 196
3 197 2 198
3 199 198 36
3 197 198 199
3 200 2 201
3 202 27 203
3 204 203 2
3 202 203 204
3 205 27 206
3 207 11 208
3 209 208 27
3 207 208 209
3 210 11 211
3 212 46 213
3 214 213 11
3 212 213 214
3 215 46 216
3 217 0 218
3 219 218 46
3 217 218 219
3 220 0 221
3 222 19 223
3 224 223 0
3 222 223 224
3 225 19 226
3 228 227 19
3 229 20 230
3 47 231 233
3 231 20 232
3 231 232 233
3 47 1 20
3 39 28 3
3 48 28 39
3 48 12 28
3 29 48 8
3 49 48 29
3 49 12 48
3 49 47 12
3 50 47 49
3 50 1 47
3 50 30 1
3 51 30 50
3 51 234 236
3 236 235 30
3 234 235 236
3 237 51 238
3 239 238 13
3 237 238 239
3 240 51 241
3 243 242 51
