ply
format ascii 1.0
element vertex 512
property float x
property float y
property float z
element face 563
property list uchar int vertex_index
end_header
-68.003006 -27.671547 32.635239
-56.142498 -31.922735 21.937916
-63.708206 -43.193531 45.653805
-66.604118 -35.499146 39.126747
-66.492767 -45.524002 39.416168
-66.352745 -37.944107 32.335854
-46.807205 -32.965546 18.749395
-52.008804 -40.869019 19.392393
-64.977539 -29.977272 26.030949
-60.787399 -34.092163 44.073086
-59.737701 -40.119843 25.772535
-67.461227 -31.657665 35.746399
-67.41066 -36.667393 35.842896
-67.554977 -32.827187 32.23822
-43.56284 -32.577934 16.591103
-46.049332 -36.671402 16.033232
-56.966141 -33.870522 46.02533
-62.979744 -30.138847 42.021713
-61.761833 -47.250565 48.163292
-64.431473 -48.097107 45.722828
-65.552834 -46.866043 35.42675
-61.003769 -31.007214 23.686226
-62.331608 -35.142567 25.972088
-57.862473 -36.112186 23.50959
-55.393402 -44.357903 20.686062
-65.352646 -39.297501 42.536667
-65.894882 -44.212227 42.954048
-66.874435 -40.42485 39.553192
-66.612068 -41.755554 36.013878
-64.689789 -43.042645 32.275505
-51.179359 -32.650898 20.429878
-53.203564 -36.853935 21.227669
-49.088966 -37.145409 18.799646
-67.400574 -28.837246 29.082268
-45.326813 -28.153057 18.694958
-60.249344 -42.565536 47.265923
-58.406837 -38.092331 46.09922
-62.340458 -38.522163 44.696144
-64.210228 -34.619717 41.876534
-65.757217 -30.715813 39.051846
-66.987862 -26.686222 36.331604
-65.840927 -49.287403 42.189034
-65.777985 -34.031044 28.882267
-63.592518 -39.139317 28.943697
-61.656635 -44.04084 28.522827
-55.625782 -40.762283 22.665384
-58.310749 -44.542534 24.704941
-67.764069 -29.68429 34.148975
-67.734833 -32.226421 33.997829
-67.861252 -30.256207 32.352554
-42.483212 -32.061962 15.289163
-43.64246 -34.156982 14.910655
-62.76321 -45.203026 47.001526
-63.240185 -47.623722 47.103275
-64.16024 -45.623085 45.860867
-58.634506 -31.480492 22.756088
-59.388176 -33.588322 23.643112
-56.97261 -34.047153 22.64603
-66.029587 -37.394291 40.847446
-66.326859 -39.822861 41.136906
-66.832855 -37.939384 39.352257
-67.116035 -37.305183 34.093006
-67.091133 -39.198898 35.971069
-66.524521 -39.858906 34.179314
-65.832962 -42.420734 34.152
-65.528191 -40.501293 32.379028
-48.882099 -32.878696 19.634195
-49.886223 -35.034977 19.791252
-47.857994 -35.124664 18.736408
-43.529541 -28.009785 17.906446
-58.890244 -33.946548 45.052513
-57.589386 -35.945389 45.85379
-59.608742 -36.076355 45.096046
-60.448288 -38.268745 45.472672
-61.54287 -36.278603 44.263115
-63.312084 -36.561058 43.299526
-62.587154 -34.313591 43.030735
-63.961723 -28.132851 40.988983
-64.46447 -30.37859 40.57402
-65.284546 -28.373444 39.360809
-66.4086 -28.720032 37.677895
-66.025475 -26.331915 38.148361
-66.398758 -44.844849 41.265129
-65.923447 -46.745258 42.758511
-66.246124 -47.405869 40.894489
-66.411392 -29.418968 27.474474
-66.680046 -31.445812 28.918613
-65.395813 -32.022614 27.372395
-60.966202 -37.669647 25.93516
-62.979156 -37.154953 27.382515
-61.751144 -39.663235 27.33568
-62.51931 -41.636131 28.846973
-60.696213 -42.087536 27.116924
-52.324009 -39.021461 20.463055
-54.374107 -38.834183 21.855862
-53.718132 -40.898857 21.060274
-56.762154 -44.547935 22.726341
-58.364136 -46.36002 23.690413
-59.706635 -46.421021 25.816097
-67.078735 -33.592556 37.414574
-67.231995 -36.056747 37.536575
-67.529617 -34.157257 35.737156
-67.52771 -34.763847 34.00132
-67.049644 -35.386841 32.256302
-45.016945 -32.874592 17.742004
-46.108864 -35.028183 17.577715
-44.690384 -34.712257 16.302402
-58.369347 -31.891815 45.440018
-60.162704 -31.968758 44.244621
-61.917389 -32.119774 43.047028
-61.377724 -29.991291 43.427307
-62.247337 -49.646626 48.13929
-63.52504 -50.069565 46.811104
-66.195908 -46.211906 37.456825
-66.204117 -48.086639 38.893425
-63.149426 -30.50655 24.769543
-63.699287 -32.573311 25.979103
-61.665138 -33.095493 24.742146
-60.173248 -35.64798 24.697313
-58.789612 -38.131783 24.555332
-53.655491 -42.628189 19.963211
-64.576096 -41.226494 44.152615
-64.987823 -43.655678 44.431286
-65.711647 -41.724113 42.844185
-66.443161 -42.308525 41.31562
-66.742355 -42.958031 39.609833
-67.194969 -38.549446 37.711731
-66.96917 -41.079277 37.829124
-66.606873 -43.641781 37.776764
-66.061905 -44.323479 35.863171
-65.159744 -44.964893 33.904716
-63.976517 -45.52858 31.921659
-53.626858 -32.320946 21.180607
-54.521935 -34.458893 21.70425
-52.131721 -34.799564 20.768034
-51.040421 -37.075165 20.048561
-50.479378 -39.051228 19.005405
-47.408901 -37.022972 17.462715
-48.896717 -38.882992 17.471682
-41.584404 -29.757563 15.579191
-67.926605 -28.246832 30.818127
-64.552132 -27.89698 24.834099
-60.37719 -28.872475 22.762573
-57.940414 -29.315491 21.986227
-55.398285 -29.726486 21.327877
-52.845329 -30.092628 20.73307
-50.369415 -30.390173 20.14362
-48.04998 -30.58691 19.502865
-47.410423 -28.14225 19.321884
-45.957397 -30.64764 18.760242
-44.152153 -30.541162 17.875061
-42.683067 -30.246643 16.819256
-61.082977 -44.884567 47.831924
-62.10688 -42.831711 46.597744
-55.554893 -35.882671 46.598442
-59.32724 -40.300579 46.627686
-61.311832 -40.520065 46.031548
-63.08709 -40.825638 45.215343
-64.001373 -38.862968 43.724625
-64.833755 -36.932243 42.166267
-65.574936 -35.015862 40.578316
-63.564243 -32.353573 41.797405
-65.025848 -32.677773 40.454449
-66.222534 -33.09354 38.994064
-66.780746 -31.146793 37.440361
-67.259109 -29.163479 35.935448
-67.670273 -27.141178 34.486046
-65.224396 -46.142044 44.432003
-65.303375 -48.659431 44.065788
-67.506157 -30.851418 30.592617
-66.899773 -33.435219 30.517742
-66.101585 -36.003563 30.55022
-64.231308 -34.60228 27.363398
-64.721848 -36.596802 28.919693
-65.156403 -38.561485 30.611584
-64.164261 -41.100922 30.598343
-63.264679 -43.591621 30.399601
-62.605812 -45.979553 29.918591
-55.506256 -36.521893 22.367867
-56.55843 -38.527313 23.208424
-57.661674 -40.493271 24.226547
-55.20443 -42.733227 21.82902
-56.94331 -42.659447 23.632513
-58.803303 -42.43581 25.38743
-59.971474 -44.365669 26.631174
-42.736197 -32.711043 14.351583
-42.140923 -31.69598 14.565331
-65.070046 -27.233374 39.64592
-64.623135 -28.253147 40.174896
-64.408634 -27.113077 40.460006
-65.44051 -26.212609 39.039696
-65.655011 -27.35268 38.754585
-65.070046 -27.233374 39.64592
-58.680309 -47.090407 23.023971
-57.77644 -46.221564 22.597943
-59.168036 -47.268771 24.173271
-58.680309 -47.090407 23.023971
-44.345711 -35.111566 14.715156
-44.037812 -34.678452 13.925719
-59.047245 -30.908781 45.136525
-58.222891 -30.912415 45.860745
-59.943923 -30.947253 44.538826
-59.266025 -31.930287 44.84232
-59.047245 -30.908781 45.136525
-60.551434 -29.958519 44.130169
-60.770214 -30.980024 43.835964
-59.943923 -30.947253 44.538826
-62.004585 -48.448595 48.151291
-61.489339 -49.484612 48.628031
-61.246588 -48.286581 48.640032
-64.482735 -49.339655 45.44911
-64.029518 -50.325884 45.993248
-63.978257 -49.083336 46.266966
-65.692746 -47.804496 36.11317
-66.014283 -47.477428 37.128208
-65.874371 -46.538974 36.441788
-49.139776 -39.52402 16.666886
-48.258738 -38.68137 16.668311
-49.723696 -39.759478 17.564105
-49.139776 -39.52402 16.666886
-41.26894 -28.490212 15.653239
-41.823332 -28.728578 16.251106
-64.350933 -26.84124 24.281683
-65.193371 -26.586107 24.896896
-63.58195 -28.148737 24.267999
-64.350933 -26.84124 24.281683
-60.096193 -27.779702 22.333996
-61.247141 -27.563643 22.739404
-58.877805 -28.00121 21.945822
-59.158802 -29.093983 22.3744
-60.096193 -27.779702 22.333996
-55.082001 -28.586749 21.035528
-56.366026 -28.405861 21.295724
-53.805523 -28.76982 20.738125
-54.121807 -29.909557 21.030473
-55.082001 -28.586749 21.035528
-50.046779 -29.195709 19.988747
-51.285308 -29.074994 20.215398
-48.887062 -29.294077 19.66837
-49.209697 -30.488542 19.823242
-50.046779 -29.195709 19.988747
-46.368618 -28.147654 19.008421
-47.194391 -26.835733 19.175123
-46.152586 -26.841137 18.86166
-42.372664 -28.973118 16.871139
-43.106304 -29.128214 17.362851
-42.795901 -27.854689 17.414733
-41.823332 -28.728578 16.251106
-42.133736 -30.002103 16.199223
-42.372664 -28.973118 16.871139
-60.666161 -43.725051 47.548924
-60.132156 -44.773035 48.095468
-59.715339 -43.61352 47.812468
-56.260517 -34.876597 46.311886
-55.313364 -34.874271 46.821678
-56.018988 -33.868196 46.535122
-57.350502 -38.038735 46.368229
-56.941777 -36.965263 46.245514
-57.998112 -37.01886 45.976505
-57.809668 -39.124386 46.576881
-57.350502 -38.038735 46.368229
-58.867039 -39.196455 46.363453
-58.269869 -40.22851 46.841115
-57.809668 -39.124386 46.576881
-65.549141 -50.226247 42.740246
-65.280365 -49.912261 43.678623
-65.572151 -48.973417 43.127411
-66.126312 -49.016407 39.522003
-66.077515 -49.339027 38.446773
-60.428028 -46.353642 26.85202
-60.402306 -47.358315 26.358317
-43.315821 -33.758553 14.162329
-43.062836 -33.109472 15.099909
-42.736197 -32.711043 14.351583
-44.037812 -34.678452 13.925719
-43.315821 -33.758553 14.162329
-65.37104 -48.09608 35.035055
-65.092197 -47.154194 34.388942
-46.835045 -37.575575 15.949086
-46.367813 -37.243004 15.117306
-45.126759 -26.810035 18.595289
-46.152586 -26.841137 18.86166
-44.228122 -26.738399 18.201033
-44.428177 -28.081421 18.300702
-45.126759 -26.810035 18.595289
-43.342624 -26.63814 17.846055
-44.228122 -26.738399 18.201033
-42.795901 -27.854689 17.414733
-43.342624 -26.63814 17.846055
-59.229145 -42.475071 47.47794
-59.715339 -43.61352 47.812468
-56.975449 -45.315521 22.115907
-56.077778 -44.452919 21.706201
-56.291073 -45.220505 21.095768
-57.563145 -45.453978 23.208377
-56.975449 -45.315521 22.115907
-57.77644 -46.221564 22.597943
-59.839285 -47.299271 25.236112
-59.035386 -46.390521 24.753255
-59.168036 -47.268771 24.173271
-60.402306 -47.358315 26.358317
-59.839285 -47.299271 25.236112
-44.869673 -35.389204 15.41103
-44.166422 -34.434619 15.606528
-44.345711 -35.111566 14.715156
-45.549147 -36.368776 15.276445
-45.369858 -35.691829 16.167817
-44.869673 -35.389204 15.41103
-46.367813 -37.243004 15.117306
-45.549147 -36.368776 15.276445
-56.779798 -32.877832 46.353413
-56.018988 -33.868196 46.535122
-57.481402 -31.888479 46.060757
-58.222891 -30.912415 45.860745
-57.667744 -32.881169 45.732674
-56.779798 -32.877832 46.353413
-57.481402 -31.888479 46.060757
-61.188312 -28.972316 43.804398
-60.551434 -29.958519 44.130169
-61.944803 -28.993799 43.006027
-61.188312 -28.972316 43.804398
-62.745813 -29.067577 42.30323
-62.178734 -30.065069 42.72451
-61.944803 -28.993799 43.006027
-63.236803 -28.064579 41.786865
-63.470733 -29.135849 41.505348
-62.745813 -29.067577 42.30323
-63.754455 -27.052827 41.340134
-63.236803 -28.064579 41.786865
-64.408634 -27.113077 40.460006
-63.754455 -27.052827 41.340134
-61.728708 -50.659527 48.550823
-61.489339 -49.484612 48.628031
-62.38668 -50.845821 47.916664
-61.728708 -50.659527 48.550823
-63.025532 -51.057291 47.252571
-62.38668 -50.845821 47.916664
-62.886189 -49.858095 47.475197
-63.5751 -51.286755 46.449863
-63.025532 -51.057291 47.252571
-63.5751 -51.286755 46.449863
-64.029518 -50.325884 45.993248
-66.018387 -48.414794 37.846508
-66.200012 -47.149272 38.175125
-66.014283 -47.477428 37.128208
-66.077515 -49.339027 38.446773
-66.018387 -48.414794 37.846508
-65.692746 -47.804496 36.11317
-65.37104 -48.09608 35.035055
-53.000639 -42.470768 18.998978
-52.832147 -41.748604 19.677802
-52.177295 -41.591183 18.713569
-53.953074 -43.288395 19.27532
-53.000639 -42.470768 18.998978
-54.822029 -44.153252 19.636745
-54.524446 -43.493046 20.324637
-53.953074 -43.288395 19.27532
-55.808931 -44.9658 19.976627
-54.822029 -44.153252 19.636745
-56.291073 -45.220505 21.095768
-55.808931 -44.9658 19.976627
-64.895653 -46.203619 33.627926
-65.092197 -47.154194 34.388942
-65.356289 -45.915468 34.665733
-64.304039 -46.485462 32.636397
-64.895653 -46.203619 33.627926
-64.56813 -45.246736 32.913187
-63.747312 -46.713268 31.580962
-64.304039 -46.485462 32.636397
-47.51483 -37.75136 16.663828
-46.729117 -36.847187 16.747974
-46.835045 -37.575575 15.949086
-48.152809 -37.952982 17.467199
-47.51483 -37.75136 16.663828
-48.258738 -38.68137 16.668311
-50.515026 -39.843595 18.330967
-49.688047 -38.96711 18.238543
-49.723696 -39.759478 17.564105
-51.279739 -40.752491 18.52446
-51.244091 -39.960124 19.198899
-50.515026 -39.843595 18.330967
-52.177295 -41.591183 18.713569
-51.279739 -40.752491 18.52446
-41.22811 -29.41997 14.867597
-41.691519 -30.543781 14.710345
-41.22811 -29.41997 14.867597
-41.26894 -28.490212 15.653239
-68.060608 -26.937518 31.009072
-67.964805 -27.95919 31.726683
-68.098808 -26.649876 31.917628
-67.938743 -27.226729 30.10342
-68.060608 -26.937518 31.009072
-67.675728 -27.521935 29.235491
-67.66359 -28.542039 29.950198
-67.938743 -27.226729 30.10342
-67.331086 -27.814464 28.389992
-67.675728 -27.521935 29.235491
-66.836495 -28.105325 27.586095
-66.905983 -29.128107 28.278371
-67.331086 -27.814464 28.389992
-66.265861 -28.389259 26.822042
-66.836495 -28.105325 27.586095
-65.548935 -28.668411 26.100279
-65.694466 -29.69812 26.752712
-66.265861 -28.389259 26.822042
-65.336231 -27.628265 25.501854
-65.193371 -26.586107 24.896896
-64.764836 -28.937126 25.432524
-65.548935 -28.668411 26.100279
-65.336231 -27.628265 25.501854
-62.880596 -29.453522 24.235721
-63.850779 -29.201765 24.801821
-63.58195 -28.148737 24.267999
-61.807768 -29.703854 23.694063
-62.076597 -30.756882 24.227885
-62.880596 -29.453522 24.235721
-61.494478 -28.636485 23.232236
-61.247141 -27.563643 22.739404
-60.690479 -29.939844 23.2244
-61.807768 -29.703854 23.694063
-61.494478 -28.636485 23.232236
-57.63709 -28.200364 21.624899
-58.877805 -28.00121 21.945822
-56.669349 -29.520989 21.657052
-57.63709 -28.200364 21.624899
-56.366026 -28.405861 21.295724
-52.523266 -28.926222 20.510123
-53.805523 -28.76982 20.738125
-51.607372 -30.241401 20.438345
-52.523266 -28.926222 20.510123
-51.285308 -29.074994 20.215398
-48.335726 -26.805467 19.378151
-47.194391 -26.835733 19.175123
-48.567284 -28.071747 19.577879
-48.335726 -26.805467 19.378151
-47.730201 -29.36458 19.412374
-48.887062 -29.294077 19.66837
-48.567284 -28.071747 19.577879
-41.691519 -30.543781 14.710345
-42.140923 -31.69598 14.565331
-42.033808 -30.909762 15.434177
-60.902395 -47.114624 48.523361
-61.246588 -48.286581 48.640032
-60.562967 -45.931625 48.357677
-60.132156 -44.773035 48.095468
-61.422405 -46.067566 47.997608
-60.902395 -47.114624 48.523361
-60.562967 -45.931625 48.357677
-54.558035 -35.888935 46.993412
-55.313364 -34.874271 46.821678
-54.866508 -36.915136 46.87644
-54.558035 -35.888935 46.993412
-55.92453 -36.933904 46.61784
-56.572139 -35.91403 46.226116
-56.941777 -36.965263 46.245514
-54.866508 -36.915136 46.87644
-55.92453 -36.933904 46.61784
-58.768093 -41.342592 47.158822
-58.269869 -40.22851 46.841115
-59.788292 -41.433058 46.946804
-59.229145 -42.475071 47.47794
-58.768093 -41.342592 47.158822
-65.840958 -25.177329 38.485895
-65.44051 -26.212609 39.039696
-66.357636 -25.2956 37.533643
-65.840958 -25.177329 38.485895
-66.838829 -25.472753 36.625265
-66.506669 -26.509068 37.239982
-66.357636 -25.2956 37.533643
-67.245621 -25.653921 35.666416
-66.838829 -25.472753 36.625265
-67.586827 -25.881399 34.743637
-67.329068 -26.9137 35.408825
-67.245621 -25.653921 35.666416
-67.848717 -26.114738 33.785452
-67.586827 -25.881399 34.743637
-68.015084 -26.379922 32.860048
-67.836639 -27.406363 33.560643
-67.848717 -26.114738 33.785452
-68.098808 -26.649876 31.917628
-68.015084 -26.379922 32.860048
-64.918686 -49.620817 44.62059
-64.482735 -49.339655 45.44911
-64.867424 -48.378269 44.894308
-64.918686 -49.620817 44.62059
-65.280365 -49.912261 43.678623
-66.147316 -48.676022 40.522535
-66.225121 -47.746254 39.893957
-66.126312 -49.016407 39.522003
-65.944717 -49.616789 41.169808
-66.043525 -48.346636 41.541761
-66.147316 -48.676022 40.522535
-65.767196 -50.537329 41.705568
-65.944717 -49.616789 41.169808
-65.549141 -50.226247 42.740246
-65.767196 -50.537329 41.705568
-63.06196 -46.938755 30.579428
-63.747312 -46.713268 31.580962
-63.291165 -45.754067 30.920125
-60.560448 -45.325966 27.259559
-59.839055 -45.393345 26.223636
-60.428028 -46.353642 26.85202
-61.403029 -45.163551 28.205385
-60.814054 -44.203254 27.577001
-60.560448 -45.325966 27.259559
-61.877617 -46.132908 28.903267
-62.131224 -45.010197 29.220709
-61.403029 -45.163551 28.205385
-62.457098 -47.086577 29.505628
-61.877617 -46.132908 28.903267
-63.06196 -46.938755 30.579428
-62.457098 -47.086577 29.505628
3 0 49 47
3 186 185 50
3 2 54 52
3 1 57 55
3 3 60 58
3 5 63 61
3 5 65 63
3 6 68 66
3 9 72 70
3 9 74 72
3 9 76 74
3 187 79 188
3 189 188 77
3 187 188 189
3 190 81 191
3 192 191 79
3 190 191 192
3 4 84 82
3 8 87 85
3 10 90 88
3 10 92 90
3 7 95 93
3 193 97 194
3 196 195 97
3 11 101 99
3 13 102 48
3 13 103 102
3 14 106 104
3 198 197 51
3 199 107 200
3 201 108 202
3 203 202 107
3 201 202 203
3 204 110 205
3 206 205 108
3 204 205 206
3 18 207 209
3 207 111 208
3 207 208 209
3 19 112 53
3 19 210 212
3 212 211 112
3 210 211 212
3 20 213 215
3 215 214 113
3 213 214 215
3 21 117 115
3 23 118 56
3 23 119 118
3 25 123 121
3 27 124 59
3 27 125 124
3 12 126 100
3 28 127 62
3 28 128 127
3 28 129 128
3 29 130 64
3 29 131 130
3 30 134 132
3 32 135 67
3 32 136 135
3 15 137 105
3 216 138 217
3 219 218 138
3 221 220 139
3 222 141 223
3 225 224 141
3 226 142 227
3 228 143 229
3 230 229 142
3 228 229 230
3 231 144 232
3 233 145 234
3 235 234 144
3 233 234 235
3 236 146 237
3 238 147 239
3 240 239 146
3 238 239 240
3 34 241 243
3 241 148 242
3 241 242 243
3 34 149 148
3 34 150 149
3 244 151 245
3 246 245 69
3 244 245 246
3 247 139 248
3 249 248 151
3 247 248 249
3 35 250 252
3 250 152 251
3 250 251 252
3 35 153 152
3 16 253 255
3 253 154 254
3 253 254 255
3 36 256 258
3 258 257 71
3 256 257 258
3 36 259 260
3 36 261 263
3 261 155 262
3 261 262 263
3 37 156 73
3 37 157 156
3 37 158 157
3 38 159 75
3 38 160 159
3 17 161 109
3 39 162 78
3 39 163 162
3 39 164 163
3 40 165 80
3 40 166 165
3 26 167 122
3 41 168 83
3 41 264 266
3 266 265 168
3 264 265 266
3 268 267 114
3 33 169 140
3 42 170 86
3 42 171 170
3 22 172 116
3 43 173 89
3 43 174 173
3 43 175 174
3 44 176 91
3 44 177 176
3 31 178 133
3 45 179 94
3 45 180 179
3 24 181 120
3 46 182 96
3 46 183 182
3 46 184 183
3 270 269 98
3 47 48 11
3 49 48 47
3 49 13 48
3 50 51 14
3 271 51 272
3 273 272 50
3 271 272 273
3 275 274 51
3 52 53 18
3 54 53 52
3 54 19 53
3 277 276 20
3 55 56 21
3 57 56 55
3 57 23 56
3 58 59 25
3 60 59 58
3 60 27 59
3 61 62 12
3 63 62 61
3 63 28 62
3 63 64 28
3 65 64 63
3 65 29 64
3 66 67 30
3 68 67 66
3 68 32 67
3 279 278 15
3 280 34 281
3 282 69 283
3 284 283 34
3 282 283 284
3 285 69 286
3 288 287 69
3 289 35 290
3 70 71 16
3 72 71 70
3 72 36 71
3 72 73 36
3 74 73 72
3 74 37 73
3 74 75 37
3 76 75 74
3 76 38 75
3 77 78 17
3 79 78 77
3 79 39 78
3 79 80 39
3 81 80 79
3 81 40 80
3 82 83 26
3 84 83 82
3 84 41 83
3 85 86 33
3 87 86 85
3 87 42 86
3 88 89 22
3 90 89 88
3 90 43 89
3 90 91 43
3 92 91 90
3 92 44 91
3 93 94 31
3 95 94 93
3 95 45 94
3 291 96 292
3 293 292 24
3 291 292 293
3 97 294 296
3 294 96 295
3 294 295 296
3 97 46 96
3 97 98 46
3 297 98 298
3 299 298 97
3 297 298 299
3 301 300 98
3 99 100 3
3 101 100 99
3 101 12 100
3 48 101 11
3 102 101 48
3 102 12 101
3 102 61 12
3 103 61 102
3 103 5 61
3 104 105 6
3 106 105 104
3 106 15 105
3 51 106 14
3 302 106 303
3 304 303 51
3 302 303 304
3 305 15 306
3 307 306 106
3 305 306 307
3 309 308 15
3 310 16 311
3 107 312 313
3 107 314 316
3 314 16 315
3 314 315 316
3 107 70 16
3 108 70 107
3 108 9 70
3 108 109 9
3 110 109 108
3 110 17 109
3 317 110 318
3 319 110 320
3 321 17 322
3 323 322 110
3 321 322 323
3 324 77 325
3 326 325 17
3 324 325 326
3 327 77 328
3 330 329 77
3 111 331 332
3 111 333 334
3 53 111 18
3 112 111 53
3 112 335 337
3 337 336 111
3 335 336 337
3 112 338 339
3 341 340 112
3 113 114 4
3 342 114 343
3 344 343 113
3 342 343 344
3 346 345 114
3 348 347 20
3 115 116 8
3 117 116 115
3 117 22 116
3 56 117 21
3 118 117 56
3 118 22 117
3 118 88 22
3 119 88 118
3 119 10 88
3 349 120 350
3 351 350 7
3 349 350 351
3 352 120 353
3 354 24 355
3 356 355 120
3 354 355 356
3 357 24 358
3 360 359 24
3 121 122 2
3 123 122 121
3 123 26 122
3 59 123 25
3 124 123 59
3 124 26 123
3 124 82 26
3 125 82 124
3 125 4 82
3 100 60 3
3 126 60 100
3 126 27 60
3 62 126 12
3 127 126 62
3 127 27 126
3 127 125 27
3 128 125 127
3 128 4 125
3 128 113 4
3 129 113 128
3 129 20 113
3 64 129 28
3 130 129 64
3 130 20 129
3 130 361 363
3 363 362 20
3 361 362 363
3 131 364 366
3 366 365 130
3 364 365 366
3 131 367 368
3 132 133 1
3 134 133 132
3 134 31 133
3 67 134 30
3 135 134 67
3 135 31 134
3 135 93 31
3 136 93 135
3 136 7 93
3 105 68 6
3 137 68 105
3 137 32 68
3 369 137 370
3 371 370 15
3 369 370 371
3 138 372 374
3 372 137 373
3 372 373 374
3 138 32 137
3 138 136 32
3 375 136 376
3 377 376 138
3 375 376 377
3 378 7 379
3 380 379 136
3 378 379 380
3 382 381 7
3 139 383 384
3 386 385 139
3 387 140 388
3 389 388 0
3 387 388 389
3 390 140 391
3 392 33 393
3 394 393 140
3 392 393 394
3 395 33 396
3 397 85 398
3 399 398 33
3 397 398 399
3 400 85 401
3 402 8 403
3 404 403 85
3 402 403 404
3 141 405 406
3 141 407 409
3 407 8 408
3 407 408 409
3 141 115 8
3 410 115 411
3 412 411 141
3 410 411 412
3 413 21 414
3 415 414 115
3 413 414 415
3 142 416 417
3 142 418 420
3 418 21 419
3 418 419 420
3 142 55 21
3 143 55 142
3 143 1 55
3 421 143 422
3 144 423 425
3 423 143 424
3 423 424 425
3 144 1 143
3 144 132 1
3 145 132 144
3 145 30 132
3 426 145 427
3 146 428 430
3 428 145 429
3 428 429 430
3 146 30 145
3 146 66 30
3 147 66 146
3 147 6 66
3 148 431 432
3 148 433 434
3 148 435 437
3 435 147 436
3 435 436 437
3 149 147 148
3 149 6 147
3 149 104 6
3 150 104 149
3 150 14 104
3 69 150 34
3 151 150 69
3 151 14 150
3 151 50 14
3 139 50 151
3 139 438 440
3 440 439 50
3 438 439 440
3 441 18 442
3 152 443 444
3 152 445 447
3 445 18 446
3 445 446 447
3 152 52 18
3 153 52 152
3 153 2 52
3 154 448 449
3 154 450 451
3 71 154 16
3 452 154 453
3 454 453 71
3 452 453 454
3 456 455 154
3 155 457 458
3 155 459 461
3 459 35 460
3 459 460 461
3 73 155 36
3 156 155 73
3 156 35 155
3 156 153 35
3 157 153 156
3 157 2 153
3 157 121 2
3 158 121 157
3 158 25 121
3 75 158 37
3 159 158 75
3 159 25 158
3 159 58 25
3 160 58 159
3 160 3 58
3 109 76 9
3 161 76 109
3 161 38 76
3 78 161 17
3 162 161 78
3 162 38 161
3 162 160 38
3 163 160 162
3 163 3 160
3 163 99 3
3 164 99 163
3 164 11 99
3 80 164 39
3 165 164 80
3 165 11 164
3 165 47 11
3 166 47 165
3 166 0 47
3 462 81 463
3 464 81 465
3 466 40 467
3 468 467 81
3 466 467 468
3 469 40 470
3 471 166 472
3 473 472 40
3 471 472 473
3 474 166 475
3 476 0 477
3 478 477 166
3 476 477 478
3 480 479 0
3 122 54 2
3 167 54 122
3 167 19 54
3 83 167 26
3 168 167 83
3 168 19 167
3 168 481 483
3 483 482 19
3 481 482 483
3 485 484 168
3 114 84 4
3 486 84 487
3 488 487 114
3 486 487 488
3 489 41 490
3 491 490 84
3 489 490 491
3 492 41 493
3 495 494 41
3 140 49 0
3 169 49 140
3 169 13 49
3 86 169 33
3 170 169 86
3 170 13 169
3 170 103 13
3 171 103 170
3 171 5 103
3 116 87 8
3 172 87 116
3 172 42 87
3 89 172 22
3 173 172 89
3 173 42 172
3 173 171 42
3 174 171 173
3 174 5 171
3 174 65 5
3 175 65 174
3 175 29 65
3 91 175 43
3 176 175 91
3 176 29 175
3 176 131 29
3 177 131 176
3 177 496 498
3 498 497 131
3 496 497 498
3 133 57 1
3 178 57 133
3 178 23 57
3 94 178 31
3 179 178 94
3 179 23 178
3 179 119 23
3 180 119 179
3 180 10 119
3 120 95 7
3 181 95 120
3 181 45 95
3 96 181 24
3 182 181 96
3 182 45 181
3 182 180 45
3 183 180 182
3 183 10 180
3 183 92 10
3 184 92 183
3 184 44 92
3 98 184 46
3 499 184 500
3 501 500 98
3 499 500 501
3 502 44 503
3 504 503 184
3 502 503 504
3 505 177 506
3 507 506 44
3 505 506 507
3 508 177 509
3 511 510 177
