ply
format ascii 1.0
element vertex 441
property float x
property float y
property float z
element face 406
property list uchar int vertex_index
end_header
-26.266478 -25.451096 -37.110443
-28.009529 -16.825783 -39.389393
-26.76263 -5.598968 -47.673157
-26.317345 -34.925735 -28.787048
-27.980499 1.216381 -39.354031
-28.075384 -2.942591 -41.884575
-27.301029 -1.538025 -47.074688
-27.699602 -7.075931 -43.360191
-27.002159 -21.094709 -38.589134
-26.379051 -15.631702 -42.871262
-26.212318 -20.168671 -41.322517
-14.930495 -53.405739 -13.937267
-17.815468 -50.525764 -16.837193
-20.670231 -47.244858 -19.886322
-23.068661 -43.569176 -23.20113
-27.433275 -0.02247 -51.383156
-27.605375 -4.486532 -50.919342
-27.015734 -11.288547 -43.628368
-26.524958 -9.998066 -47.006126
-26.486015 -30.39604 -32.882183
-24.766016 -39.499645 -26.851711
-25.756668 -35.029621 -30.813423
-26.293842 -30.178829 -34.965237
-28.228451 -3.257931 -39.149162
-28.372526 -5.475022 -40.161983
-27.941553 -5.003894 -42.774521
-28.346262 -7.652832 -40.918274
-26.564693 -23.247139 -37.931919
-26.323151 -20.593979 -40.070599
-26.18224 -22.844746 -39.22897
-26.41423 -22.5457 -40.294254
-26.24371 -25.179245 -38.221741
-13.626623 -54.702038 -12.513807
-13.568371 -56.461548 -13.493744
-16.384926 -53.481354 -16.24036
-17.913414 -51.837337 -17.634754
-19.276432 -48.935349 -18.335686
-19.429087 -50.092888 -19.070477
-20.869617 -48.252434 -20.571789
-28.070147 1.514887 -42.221172
-28.152437 3.40988 -40.700241
-27.009157 -3.523916 -47.547676
-27.161047 -0.722788 -49.36792
-26.981916 -2.777861 -49.583549
-27.450937 -2.197237 -51.327133
-26.906708 -4.942378 -49.44735
-28.436638 -14.670008 -39.497494
-27.844893 -11.949633 -41.588413
-27.444414 -14.089341 -41.525715
-26.291742 -15.099251 -44.262024
-26.33606 -12.820488 -44.961838
-26.597473 -12.314793 -46.293045
-27.13809 -9.557921 -48.275146
-26.479038 -32.716007 -30.811195
-24.011345 -41.584229 -24.983604
-26.0567 -32.648663 -32.876522
-27.922033 -0.981041 -37.936024
-28.088055 -0.876537 -40.723076
-27.911146 -0.389023 -43.530197
-27.613853 0.356262 -46.245728
-27.682878 -2.325924 -44.556808
-27.400204 -4.310583 -45.260281
-27.087296 -6.350342 -45.630344
-27.508276 -18.961979 -39.079216
-27.015409 -16.235132 -41.234402
-26.620432 -18.398113 -40.742607
-26.212324 -17.869963 -42.185314
-26.416798 -17.445776 -43.374496
-28.638723 -19.48041 -37.239086
-28.068752 -21.603767 -36.914513
-27.448702 -23.704273 -36.429131
-26.862255 -25.81295 -35.788342
-15.006043 -51.941681 -12.783915
-14.913335 -55.022346 -14.865278
-16.34609 -52.015327 -15.375389
-17.928112 -49.379993 -15.787994
-19.395203 -47.947449 -17.345436
-20.794205 -46.409142 -18.949848
-22.076759 -44.763977 -20.609241
-23.203819 -43.011429 -22.330662
-21.946938 -45.455872 -21.504185
-27.7647 3.364197 -37.867695
-28.155544 5.329084 -39.060581
-28.109594 2.631313 -53.024437
-28.205223 0.437967 -53.079124
-28.45656 -1.885111 -52.745232
-28.160553 -9.807163 -41.392982
-27.377373 -9.168658 -43.638409
-26.777761 -8.447954 -45.68206
-26.664787 -13.440847 -43.361515
-26.512529 -10.604302 -45.446762
-26.590534 -7.758487 -47.479622
-26.952923 -7.205226 -48.996635
-27.1364 -28.280264 -33.660038
-26.392595 -27.971813 -34.987808
-24.147671 -41.150841 -24.119114
-24.893261 -39.181442 -25.976849
-25.439568 -37.102962 -27.902828
-25.339823 -37.314499 -28.799118
-25.801058 -34.916367 -29.892227
-26.008743 -32.624413 -31.935707
-26.109852 -30.231995 -34.018787
-26.165195 -27.746616 -36.12191
-28.559807 -6.721754 -39.271507
-28.404277 -5.544097 -38.839456
-28.546675 -7.810659 -39.649653
-28.359394 -6.563927 -40.540128
-28.559807 -6.721754 -39.271507
-12.955956 -58.15716 -13.20468
-12.989277 -57.132981 -12.805754
-18.122352 -52.581302 -17.907232
-17.300148 -53.479829 -17.243771
-18.880189 -51.709078 -18.625093
-18.67125 -50.965113 -18.352615
-18.122352 -52.581302 -17.907232
-19.687328 -50.759868 -19.316044
-18.880189 -51.709078 -18.625093
-28.147142 2.704497 -42.922661
-27.998839 1.838678 -43.650314
-26.715736 -13.511227 -45.834543
-26.444608 -13.707022 -45.277535
-26.562871 -14.903456 -44.819032
-27.036918 -12.15482 -46.809683
-26.715736 -13.511227 -45.834543
-26.824351 -33.906932 -29.149777
-26.732328 -34.970581 -28.148616
-26.398191 -33.820871 -29.799121
-26.905197 -32.802068 -30.16185
-26.824351 -33.906932 -29.149777
-27.923184 -2.074406 -37.199391
-27.584339 -0.796055 -36.615744
-26.474158 -20.018546 -41.820892
-26.576398 -18.657098 -42.846882
-26.314558 -18.807223 -42.348506
-26.835423 -22.462519 -40.704191
-26.623346 -23.784869 -39.702427
-28.944304 -20.760948 -36.168495
-29.172304 -19.673851 -36.260633
-28.659318 -21.822626 -36.006208
-28.353738 -20.542088 -37.076799
-28.944304 -20.760948 -36.168495
-27.663081 -24.959752 -35.35601
-28.031003 -23.926474 -35.595376
-27.369858 -26.014091 -35.035616
-27.155479 -24.758612 -36.108736
-27.663081 -24.959752 -35.35601
-15.688754 -52.057659 -14.103507
-15.726529 -51.32563 -13.526831
-14.968269 -52.67371 -13.360591
-15.000587 -55.916527 -15.206825
-14.263994 -56.704588 -14.553048
-21.527217 -47.286075 -21.365969
-21.167669 -48.843595 -20.801358
-27.872599 2.290289 -38.610863
-27.62107 2.371945 -37.237423
-27.728969 1.298037 -37.980591
-28.320518 5.453342 -40.507612
-28.15399 4.369482 -39.880411
-28.318965 4.49374 -41.327442
-28.423901 6.290751 -39.612146
-28.320518 5.453342 -40.507612
-27.364705 -0.16365 -47.926401
-27.521117 0.783494 -47.511921
-27.457441 -0.590881 -46.660208
-27.492045 0.99773 -51.219475
-27.355932 0.647571 -50.211857
-27.297161 -0.372629 -50.375538
-27.771434 1.304421 -52.203796
-27.830205 2.324621 -52.040115
-27.492045 0.99773 -51.219475
-28.227528 -4.4006 -51.490254
-28.653121 -3.099889 -52.403199
-28.030967 -3.185822 -51.832287
-28.44513 -11.144945 -40.385115
-28.501579 -10.030112 -40.200085
-27.518352 -8.216724 -49.239231
-27.73505 -9.456253 -48.751331
-26.811207 -29.338152 -33.27111
-27.22475 -29.460606 -32.612131
-26.899557 -30.518494 -32.223203
-25.548246 -36.17206 -29.806271
-25.538753 -37.491638 -29.161302
-25.747175 -36.349199 -30.168455
-26.412371 -28.905242 -36.008931
-26.348047 -27.689135 -36.587267
-26.229519 -28.962722 -35.543574
-28.33224 -4.435551 -38.333046
-28.076393 -3.212852 -37.80596
-28.300489 -4.366477 -39.655572
-28.33224 -4.435551 -38.333046
-28.404277 -5.544097 -38.839456
-26.538086 -25.101641 -38.66617
-26.623346 -23.784869 -39.702427
-26.32897 -23.862473 -39.257998
-13.018403 -56.253225 -12.315786
-13.052878 -55.307024 -11.806758
-12.444657 -56.858211 -11.608737
-13.597497 -55.581793 -13.003775
-13.018403 -56.253225 -12.315786
-12.989277 -57.132981 -12.805754
-16.535904 -54.301838 -16.546574
-15.736383 -55.146031 -15.894366
-17.14917 -52.659346 -16.937557
-16.535904 -54.301838 -16.546574
-17.300148 -53.479829 -17.243771
-20.407592 -49.839641 -20.0667
-20.149352 -49.172661 -19.821133
-19.687328 -50.759868 -19.316044
-21.167669 -48.843595 -20.801358
-20.407592 -49.839641 -20.0667
-28.188287 3.651994 -42.162195
-28.111292 2.462384 -41.460707
-28.147142 2.704497 -42.922661
-28.318965 4.49374 -41.327442
-28.188287 3.651994 -42.162195
-28.140766 -13.309821 -40.542954
-28.287301 -12.216181 -40.48283
-28.583173 -13.576368 -39.437371
-27.307227 -10.776384 -47.800733
-26.867781 -10.936357 -47.284095
-27.036918 -12.15482 -46.809683
-27.73505 -9.456253 -48.751331
-27.307227 -10.776384 -47.800733
-26.896068 -31.678478 -31.18771
-26.905197 -32.802068 -30.16185
-26.482526 -31.556023 -31.846689
-26.899557 -30.518494 -32.223203
-26.896068 -31.678478 -31.18771
-23.675358 -42.940208 -24.416735
-23.540003 -42.576702 -24.092367
-23.204016 -43.932682 -23.525498
-24.162875 -41.882575 -25.314579
-23.675358 -42.940208 -24.416735
-24.54021 -40.840283 -26.248632
-24.38868 -40.541937 -25.917658
-24.162875 -41.882575 -25.314579
-25.995975 -35.151533 -31.191085
-25.747175 -36.349199 -30.168455
-26.14599 -33.961054 -32.222635
-25.906684 -33.839142 -31.844973
-25.995975 -35.151533 -31.191085
-26.352691 -32.720716 -33.262954
-26.14599 -33.961054 -32.222635
-26.471262 -31.485799 -34.307312
-26.175271 -31.413746 -33.920879
-26.352691 -32.720716 -33.262954
-26.664418 -30.208922 -35.349328
-26.471262 -31.485799 -34.307312
-27.699737 0.199326 -37.271588
-27.584339 -0.796055 -36.615744
-27.951266 0.11767 -38.645027
-27.728969 1.298037 -37.980591
-27.699737 0.199326 -37.271588
-28.075242 -2.119486 -38.542593
-27.923184 -2.074406 -37.199391
-28.076393 -3.212852 -37.80596
-27.919339 0.886723 -44.304827
-27.998839 1.838678 -43.650314
-27.990646 0.562932 -42.875685
-27.762499 -0.01638 -44.887963
-27.770692 1.259365 -45.662592
-27.919339 0.886723 -44.304827
-26.625399 -16.076718 -44.375269
-26.562871 -14.903456 -44.819032
-26.35427 -16.272513 -43.81826
-26.833498 -17.311775 -43.829712
-26.625399 -16.076718 -44.375269
-26.833498 -17.311775 -43.829712
-26.576398 -18.657098 -42.846882
-26.575114 -21.20706 -41.306761
-26.474158 -20.018546 -41.820892
-26.313274 -21.357185 -40.808385
-26.575114 -21.20706 -41.306761
-26.835423 -22.462519 -40.704191
-26.140303 -35.97314 -27.801752
-26.732328 -34.970581 -28.148616
-28.888618 -14.878448 -38.416668
-28.583173 -13.576368 -39.437371
-28.759932 -15.991497 -38.442231
-28.888618 -14.878448 -38.416668
-28.546378 -17.069384 -38.38818
-28.223084 -15.747896 -39.443444
-28.759932 -15.991497 -38.442231
-28.860975 -18.396698 -37.313026
-29.172304 -19.673851 -36.260633
-28.324126 -18.153097 -38.314239
-28.546378 -17.069384 -38.38818
-28.860975 -18.396698 -37.313026
-28.341028 -22.876221 -35.838066
-28.659318 -21.822626 -36.006208
-27.758727 -22.65402 -36.671822
-28.341028 -22.876221 -35.838066
-28.031003 -23.926474 -35.595376
-13.639319 -53.893269 -11.919246
-13.052878 -55.307024 -11.806758
-14.32903 -52.51309 -12.054301
-13.639319 -53.893269 -11.919246
-14.316333 -53.32186 -12.648861
-14.992985 -51.259415 -12.122923
-14.32903 -52.51309 -12.054301
-15.763691 -50.727124 -12.880805
-14.992985 -51.259415 -12.122923
-15.763691 -50.727124 -12.880805
-15.726529 -51.32563 -13.526831
-13.591512 -57.424188 -13.867281
-12.955956 -58.15716 -13.20468
-14.240853 -55.741947 -14.179511
-13.591512 -57.424188 -13.867281
-14.263994 -56.704588 -14.553048
-15.649131 -54.25185 -15.552819
-15.000587 -55.916527 -15.206825
-15.736383 -55.146031 -15.894366
-16.396552 -51.362453 -14.822568
-15.688754 -52.057659 -14.103507
-15.638293 -52.710533 -14.656328
-17.187563 -50.044786 -15.028871
-16.396552 -51.362453 -14.822568
-17.137101 -50.69766 -15.581691
-18.006293 -48.865267 -15.161427
-17.187563 -50.044786 -15.028871
-18.775402 -48.231133 -15.962619
-18.006293 -48.865267 -15.161427
-19.508947 -47.51486 -16.74134
-18.775402 -48.231133 -15.962619
-18.661657 -48.663721 -16.566715
-20.241043 -46.824543 -17.566448
-19.508947 -47.51486 -16.74134
-20.940545 -46.05539 -18.368654
-20.241043 -46.824543 -17.566448
-20.094704 -47.178296 -18.147642
-21.612599 -45.306929 -19.218643
-20.940545 -46.05539 -18.368654
-22.253875 -44.484347 -20.04834
-21.612599 -45.306929 -19.218643
-21.435482 -45.586559 -19.779545
-22.846252 -43.676552 -20.924011
-22.253875 -44.484347 -20.04834
-22.640289 -43.887703 -21.469952
-23.409782 -42.800278 -21.784721
-22.846252 -43.676552 -20.924011
-22.065878 -45.887794 -21.832167
-21.408278 -46.854153 -21.037987
-21.527217 -47.286075 -21.365969
-22.626739 -44.944446 -22.680639
-22.507799 -44.512524 -22.352657
-22.065878 -45.887794 -21.832167
-23.204016 -43.932682 -23.525498
-22.626739 -44.944446 -22.680639
-27.347459 3.606463 -36.566601
-27.62107 2.371945 -37.237423
-27.612422 4.481009 -37.11829
-27.347459 3.606463 -36.566601
-27.807844 5.463453 -37.714733
-27.612422 4.481009 -37.11829
-27.960122 4.34664 -38.464138
-28.118108 6.320323 -38.232973
-27.807844 5.463453 -37.714733
-28.118108 6.320323 -38.232973
-28.423901 6.290751 -39.612146
-27.691362 1.684692 -47.03013
-27.770692 1.259365 -45.662592
-27.691362 1.684692 -47.03013
-27.521117 0.783494 -47.511921
-27.294714 0.243969 -49.073017
-27.364705 -0.16365 -47.926401
-27.231038 -1.130406 -48.221304
-27.294714 0.243969 -49.073017
-27.355932 0.647571 -50.211857
-28.146479 3.647418 -52.791866
-27.830205 2.324621 -52.040115
-28.558437 3.891592 -53.733326
-28.146479 3.647418 -52.791866
-28.631997 2.780951 -53.833992
-28.558437 3.891592 -53.733326
-28.679811 1.684278 -53.861335
-28.631997 2.780951 -53.833992
-28.157409 1.53464 -53.05178
-28.843288 0.500465 -53.751689
-28.679811 1.684278 -53.861335
-28.968957 -0.661074 -53.584744
-28.843288 0.500465 -53.751689
-28.330891 -0.723572 -52.912178
-29.207935 -1.900618 -53.278847
-28.968957 -0.661074 -53.584744
-29.207935 -1.900618 -53.278847
-28.653121 -3.099889 -52.403199
-28.594433 -8.952946 -39.96273
-28.546675 -7.810659 -39.649653
-28.253408 -8.729997 -41.155628
-28.594433 -8.952946 -39.96273
-28.501579 -10.030112 -40.200085
-28.002723 -10.878398 -41.490698
-28.44513 -11.144945 -40.385115
-28.287301 -12.216181 -40.48283
-27.425768 -7.040376 -49.599975
-27.045506 -8.381574 -48.635891
-27.518352 -8.216724 -49.239231
-27.751994 -5.68103 -50.561329
-27.279149 -5.845879 -49.957988
-27.425768 -7.040376 -49.599975
-28.227528 -4.4006 -51.490254
-27.751994 -5.68103 -50.561329
-27.67294 -28.449692 -32.914301
-27.22475 -29.460606 -32.612131
-27.50693 -27.247747 -33.971464
-27.67294 -28.449692 -32.914301
-26.999327 -27.046607 -34.72419
-27.369858 -26.014091 -35.035616
-27.50693 -27.247747 -33.971464
-23.907311 -41.932438 -22.686861
-23.409782 -42.800278 -21.784721
-24.379236 -41.002144 -23.581087
-23.907311 -41.932438 -22.686861
-23.675745 -42.081135 -23.224888
-24.77189 -40.07396 -24.510483
-24.379236 -41.002144 -23.581087
-25.144685 -39.08926 -25.439351
-24.77189 -40.07396 -24.510483
-24.520466 -40.166141 -25.047981
-25.428261 -38.100994 -26.396653
-25.144685 -39.08926 -25.439351
-25.701414 -37.061754 -27.359642
-25.428261 -38.100994 -26.396653
-25.166415 -38.142202 -26.939839
-25.878456 -36.014348 -28.344938
-26.140303 -35.97314 -27.801752
-25.701414 -37.061754 -27.359642
-24.937224 -39.735841 -27.19669
-24.54021 -40.840283 -26.248632
-25.224128 -38.643268 -28.170393
-25.538753 -37.491638 -29.161302
-25.05292 -38.407072 -27.825415
-24.937224 -39.735841 -27.19669
-25.224128 -38.643268 -28.170393
-26.387304 -26.40545 -37.637183
-26.204453 -26.46293 -37.171825
-26.348047 -27.689135 -36.587267
-26.538086 -25.101641 -38.66617
-26.387304 -26.40545 -37.637183
-26.412371 -28.905242 -36.008931
-26.664418 -30.208922 -35.349328
3 103 24 104
3 105 26 106
3 107 106 24
3 105 106 107
3 0 29 27
3 0 31 29
3 108 33 109
3 110 35 111
3 112 37 113
3 114 113 35
3 112 113 114
3 116 115 37
3 118 117 39
3 2 43 41
3 2 45 43
3 1 48 46
3 119 51 120
3 121 120 49
3 119 120 121
3 123 122 51
3 3 124 125
3 3 126 128
3 126 53 127
3 126 127 128
3 129 56 130
3 5 57 23
3 5 58 57
3 5 60 58
3 7 61 25
3 7 62 61
3 8 65 63
3 10 66 28
3 10 67 66
3 10 131 133
3 133 132 67
3 131 132 133
3 135 134 30
3 136 68 137
3 138 69 139
3 140 139 68
3 138 139 140
3 141 70 142
3 143 71 144
3 145 144 70
3 143 144 145
3 11 72 32
3 11 146 148
3 148 147 72
3 146 147 148
3 149 73 150
3 12 74 34
3 12 75 74
3 12 76 75
3 13 77 36
3 13 78 77
3 13 80 78
3 152 151 38
3 4 153 155
3 153 81 154
3 153 154 155
3 156 82 157
3 158 157 40
3 156 157 158
3 160 159 82
3 6 161 163
3 163 162 59
3 161 162 163
3 15 164 166
3 166 165 42
3 164 165 166
3 15 167 169
3 167 83 168
3 167 168 169
3 15 84 83
3 16 85 44
3 16 170 172
3 172 171 85
3 170 171 172
3 173 86 174
3 17 87 47
3 17 88 87
3 9 89 64
3 18 90 50
3 18 91 90
3 18 92 91
3 176 175 52
3 19 177 179
3 177 93 178
3 177 178 179
3 19 94 93
3 14 95 79
3 20 96 54
3 20 97 96
3 21 180 182
3 180 98 181
3 180 181 182
3 21 99 98
3 21 100 99
3 22 101 55
3 22 102 101
3 22 183 185
3 185 184 102
3 183 184 185
3 186 23 187
3 24 188 190
3 188 23 189
3 188 189 190
3 24 5 23
3 24 25 5
3 26 25 24
3 26 7 25
3 27 28 8
3 29 28 27
3 29 10 28
3 29 30 10
3 31 30 29
3 31 191 193
3 193 192 30
3 191 192 193
3 194 32 195
3 194 195 196
3 33 197 199
3 197 32 198
3 197 198 199
3 33 11 32
3 200 34 201
3 35 202 204
3 202 34 203
3 202 203 204
3 35 12 34
3 35 36 12
3 37 36 35
3 37 13 36
3 37 38 13
3 205 38 206
3 207 206 37
3 205 206 207
3 209 208 38
3 39 40 4
3 210 40 211
3 212 211 39
3 210 211 212
3 214 213 40
3 41 42 6
3 43 42 41
3 43 15 42
3 43 44 15
3 45 44 43
3 45 16 44
3 46 215 217
3 215 47 216
3 215 216 217
3 48 47 46
3 48 17 47
3 49 50 9
3 51 50 49
3 51 18 50
3 51 52 18
3 218 52 219
3 220 219 51
3 218 219 220
3 222 221 52
3 53 223 224
3 53 225 227
3 225 19 226
3 225 226 227
3 228 54 229
3 230 229 14
3 228 229 230
3 231 54 232
3 233 20 234
3 235 234 54
3 233 234 235
3 236 21 237
3 238 55 239
3 240 239 21
3 238 239 240
3 241 55 242
3 243 22 244
3 245 244 55
3 243 244 245
3 247 246 22
3 56 248 249
3 56 250 252
3 250 4 251
3 250 251 252
3 23 253 255
3 253 56 254
3 253 254 255
3 57 56 23
3 57 4 56
3 57 39 4
3 58 39 57
3 58 256 258
3 258 257 39
3 256 257 258
3 58 259 261
3 259 59 260
3 259 260 261
3 60 59 58
3 60 6 59
3 25 60 5
3 61 60 25
3 61 6 60
3 61 41 6
3 62 41 61
3 62 2 41
3 63 64 1
3 65 64 63
3 65 9 64
3 28 65 8
3 66 65 28
3 66 9 65
3 66 49 9
3 67 49 66
3 67 262 264
3 264 263 49
3 262 263 264
3 67 265 266
3 268 267 67
3 30 269 271
3 271 270 10
3 269 270 271
3 273 272 30
3 274 3 275
3 276 46 277
3 278 46 279
3 280 1 281
3 282 281 46
3 280 281 282
3 68 283 284
3 68 285 287
3 285 1 286
3 285 286 287
3 68 63 1
3 69 63 68
3 69 8 63
3 288 69 289
3 70 290 292
3 290 69 291
3 290 291 292
3 70 8 69
3 70 27 8
3 71 27 70
3 71 0 27
3 32 293 294
3 72 295 297
3 297 296 32
3 295 296 297
3 72 298 299
3 72 300 301
3 303 302 72
3 304 33 305
3 73 306 308
3 306 33 307
3 306 307 308
3 73 11 33
3 34 309 311
3 309 73 310
3 309 310 311
3 74 73 34
3 74 11 73
3 74 312 314
3 314 313 11
3 312 313 314
3 75 315 317
3 317 316 74
3 315 316 317
3 75 318 319
3 75 320 321
3 76 322 324
3 324 323 75
3 322 323 324
3 76 325 326
3 36 76 12
3 77 76 36
3 77 327 329
3 329 328 76
3 327 328 329
3 77 330 331
3 78 332 334
3 334 333 77
3 332 333 334
3 78 335 336
3 78 337 339
3 337 79 338
3 337 338 339
3 80 79 78
3 80 14 79
3 38 80 13
3 340 80 341
3 342 341 38
3 340 341 342
3 343 14 344
3 345 344 80
3 343 344 345
3 347 346 14
3 81 348 349
3 81 350 351
3 40 81 4
3 82 81 40
3 82 352 354
3 354 353 81
3 352 353 354
3 82 355 356
3 358 357 82
3 59 359 360
3 362 361 59
3 42 363 365
3 365 364 6
3 363 364 365
3 367 366 42
3 83 368 369
3 83 370 371
3 83 372 373
3 84 374 376
3 376 375 83
3 374 375 376
3 84 377 378
3 44 84 15
3 85 84 44
3 85 379 381
3 381 380 84
3 379 380 381
3 85 382 383
3 385 384 85
3 386 26 387
3 86 388 390
3 388 26 389
3 388 389 390
3 86 7 26
3 47 391 393
3 391 86 392
3 391 392 393
3 87 86 47
3 87 7 86
3 87 62 7
3 88 62 87
3 88 2 62
3 64 48 1
3 89 48 64
3 89 17 48
3 50 89 9
3 90 89 50
3 90 17 89
3 90 88 17
3 91 88 90
3 91 2 88
3 91 45 2
3 92 45 91
3 92 16 45
3 52 92 18
3 394 92 395
3 396 395 52
3 394 395 396
3 397 16 398
3 399 398 92
3 397 398 399
3 401 400 16
3 93 402 403
3 93 404 405
3 93 406 408
3 406 71 407
3 406 407 408
3 94 71 93
3 94 0 71
3 79 409 410
3 95 411 413
3 413 412 79
3 411 412 413
3 95 414 415
3 54 95 14
3 96 95 54
3 96 416 418
3 418 417 95
3 416 417 418
3 96 419 420
3 97 421 423
3 423 422 96
3 421 422 423
3 97 424 426
3 424 3 425
3 424 425 426
3 427 20 428
3 98 429 430
3 98 431 433
3 431 20 432
3 431 432 433
3 98 97 20
3 99 97 98
3 99 3 97
3 99 53 3
3 100 53 99
3 100 19 53
3 55 100 21
3 101 100 55
3 101 19 100
3 101 94 19
3 102 94 101
3 102 0 94
3 102 31 0
3 434 31 435
3 436 435 102
3 434 435 436
3 438 437 31
3 440 439 22
