ply
format ascii 1.0
element vertex 515
property float x
property float y
property float z
element face 475
property list uchar int vertex_index
end_header
65.229988 -6.698997 33.957001
66.839317 -14.185835 37.854446
68.987556 -2.326021 25.565765
58.359665 1.020283 10.80404
65.115601 0.107254 13.160477
69.465187 -0.40209 18.239395
61.710403 -6.153815 36.267662
63.219818 -9.549216 38.402786
64.079971 -2.947977 32.227051
61.872444 0.428236 11.619246
67.432335 4.561174 17.356499
68.176796 3.710842 20.856949
69.844948 -1.085993 21.697767
68.155853 -7.891078 31.894928
66.325073 -10.276974 36.187469
64.454025 -13.045429 40.52774
67.284409 -4.212481 29.667625
39.279221 -1.739285 10.13611
40.911655 -2.236435 12.432501
43.418877 -2.822905 13.727684
46.658417 -3.481256 14.10829
50.403538 -4.162932 13.902319
54.428219 -4.766189 13.588854
58.553806 -5.184176 13.588564
62.597244 -5.37534 14.140505
66.250595 -5.390535 15.376004
67.788933 -0.088816 15.370736
69.049889 -5.34484 17.418634
70.563538 -5.376248 20.321432
70.681694 -5.640094 23.92355
59.877197 -6.105158 37.543381
60.602875 -7.794695 38.375408
59.367825 -4.316869 37.113777
61.118229 -4.350797 35.606266
66.801094 -7.217981 32.894905
67.259415 -9.009179 34.014824
65.823921 -8.479 35.091263
62.303978 -11.0225 40.650978
63.920052 -11.25169 39.540951
63.025406 -12.690048 41.743416
64.625343 -4.869088 32.949326
65.735939 -3.475372 30.868301
66.272758 -5.391932 31.788717
67.753593 -6.101869 30.746269
38.623833 2.449589 8.24701
39.195831 2.264702 9.660467
41.01004 1.714153 11.735688
42.240101 1.376755 12.384168
42.061897 -2.519575 13.205323
43.662373 1.009085 12.781269
46.971619 0.201145 12.929161
48.793678 -0.227777 12.772629
48.482849 -3.824559 14.049955
50.684425 -0.660236 12.545163
54.567902 -1.474163 12.146109
56.522934 -1.821543 12.088439
56.488388 -5.003106 13.530422
58.468452 -2.110189 12.175824
63.541656 0.239943 12.303944
62.267624 -2.490189 12.844227
64.068886 -2.590544 13.433582
64.499123 -5.398694 14.665077
65.749184 -2.649416 14.197234
68.57338 2.117586 17.661283
67.844246 2.348436 16.109514
68.777298 -0.214008 16.723917
68.517654 -2.728945 16.276741
69.488815 -2.798965 17.605907
69.984703 -5.341905 18.766384
70.124695 -2.922951 19.12496
69.552094 -1.628599 23.593857
70.35778 -3.427909 22.64912
70.005806 -3.85339 24.587891
69.411575 -4.424891 26.595619
63.512291 -6.346219 35.077946
64.201294 -8.097267 36.166065
62.444443 -7.871947 37.253483
61.455063 -9.414222 39.471127
62.387627 -2.61541 33.73053
62.886459 -4.527224 34.220795
60.139053 0.686695 11.116209
67.942497 4.204273 19.071173
69.008934 1.786709 19.332405
69.822807 -0.683958 19.904167
69.128883 1.321808 21.105392
68.933289 0.69808 22.9594
68.445877 -0.097515 24.873915
67.590485 -10.846105 35.002777
66.670937 -12.163605 37.124413
64.855865 -9.837471 37.315346
65.383713 -11.636215 38.370762
65.730087 -13.551054 39.233978
64.783836 -14.97509 41.292221
67.710678 -1.0662 26.833563
65.228981 -1.452036 30.275421
66.785812 -2.198523 28.831348
68.210091 -3.186859 27.593338
68.640465 -5.168156 28.649071
68.983643 -6.994239 29.849236
39.991714 2.014032 10.826984
39.982517 -1.975071 11.406446
45.250076 0.615723 12.949995
44.960304 -3.144783 14.0173
48.170151 -7.330386 15.28384
50.129051 -7.57661 15.216358
52.616371 -1.081436 12.315205
52.393158 -4.481827 13.728924
52.18084 -7.794716 15.100161
54.298431 -7.973455 14.991878
56.455948 -8.104837 14.94019
58.625839 -8.185379 14.984212
60.39024 -2.332895 12.425665
60.600815 -5.30697 13.786505
66.682617 4.825512 15.732211
66.863495 2.519239 14.689602
66.549538 0.007355 14.183084
67.252403 -2.687534 15.142174
67.788292 -5.366869 16.289616
70.410172 -3.125113 20.815788
70.78627 -5.46803 22.055101
59.299049 -6.976088 38.550995
58.966049 -6.140761 38.234171
58.711363 -5.246617 38.019369
58.517736 -4.356735 37.932926
58.966049 -6.140761 38.234171
59.622511 -5.211013 37.328579
58.711363 -5.246617 38.019369
62.240848 -12.59142 42.318327
62.664692 -11.856274 41.197197
61.880134 -11.757646 41.772108
62.595844 -13.410936 42.821848
62.240848 -12.59142 42.318327
38.839485 4.409942 8.676856
38.513666 4.489941 8.000749
39.125484 4.317499 9.383585
38.909832 2.357146 8.953739
38.839485 4.409942 8.676856
43.042263 3.15164 12.105228
42.296625 3.371879 11.961945
43.753399 2.967805 12.303778
42.951237 1.19292 12.582719
43.042263 3.15164 12.105228
49.86729 1.342081 11.996582
48.931663 1.605474 12.147005
50.812664 1.125852 11.882849
49.739052 -0.444007 12.658896
49.86729 1.342081 11.996582
57.451487 1.222361 10.743871
58.288214 2.605896 10.178038
57.441299 -0.40063 11.44624
56.533121 -0.198552 11.38607
57.451487 1.222361 10.743871
67.301239 -14.550913 37.119408
67.29916 -13.494674 36.821619
60.527176 -9.417688 40.009432
61.028969 -8.604458 38.923268
60.101082 -8.607924 39.461573
61.007774 -10.180336 40.596838
60.527176 -9.417688 40.009432
61.549883 -2.535493 34.551266
62.200851 -1.621348 33.701038
68.059646 3.957558 19.964061
67.443825 5.097837 19.982148
67.560974 4.851122 20.875036
68.345997 1.445628 23.76094
68.524334 1.87245 22.826504
68.102291 1.04783 24.718198
68.689583 0.300283 23.916657
68.345997 1.445628 23.76094
68.305301 -8.771513 32.412007
68.686534 -8.281556 31.43997
66.988746 -0.570972 27.593494
67.419712 0.040813 26.642063
64.654476 -2.200006 31.251236
64.423687 -1.19351 31.085964
63.849182 -1.94148 32.061779
68.686534 -8.281556 31.43997
69.100429 -7.833137 30.417124
68.569748 -7.442659 30.872082
39.109734 -3.55362 9.539503
39.037867 -1.637948 9.387385
39.302578 -3.663429 10.336983
39.133091 -5.477764 9.740375
39.109734 -3.55362 9.539503
40.517181 3.889757 10.913185
39.964691 4.060454 10.508436
40.422325 -4.025246 12.177149
39.957756 -3.894564 11.664122
40.447086 -2.105753 11.919474
40.842279 -4.141927 12.752265
40.422325 -4.025246 12.177149
42.63271 -4.556151 13.85086
41.95422 -4.404485 13.58968
42.740387 -2.67124 13.466503
43.281662 -4.682187 14.176469
42.63271 -4.556151 13.85086
46.244693 2.28574 12.358322
45.367593 2.534798 12.418761
45.65337 -5.142 14.573362
44.804313 -4.973764 14.527867
45.80936 -3.31302 14.062795
46.495808 -5.27492 14.675666
45.65337 -5.142 14.573362
53.655897 0.402539 11.527589
52.719896 0.653661 11.626224
61.68607 -6.795846 14.647854
60.687855 -6.761661 14.470854
61.59903 -5.341155 13.963505
62.728779 -6.789235 14.810284
61.68607 -6.795846 14.647854
65.539276 -6.772214 15.680143
64.66354 -6.776294 15.32468
65.374859 -5.394614 15.02054
66.43248 -6.734354 16.034136
65.539276 -6.772214 15.680143
67.057476 4.693343 16.544355
66.355228 5.846101 16.502454
66.730087 5.713932 17.314597
68.60157 -6.66529 17.521547
67.970772 -6.676305 16.957038
68.41909 -5.355854 16.854125
69.217579 -6.615607 18.105338
68.60157 -6.66529 17.521547
70.416096 -6.583435 20.256345
70.126678 -6.566263 19.47882
70.27412 -5.359077 19.543908
70.675431 -6.543918 21.060288
70.416096 -6.583435 20.256345
70.818474 -6.653841 23.747537
70.870762 -6.567809 22.813313
70.733982 -5.554062 22.989325
70.747944 -6.661857 24.683958
70.818474 -6.653841 23.747537
59.661888 -7.820856 38.967008
60.240036 -6.949927 37.959395
59.299049 -6.976088 38.550995
60.101082 -8.607924 39.461573
59.661888 -7.820856 38.967008
59.228001 -3.378089 37.130851
58.517736 -4.356735 37.932926
60.039982 -3.386222 36.24289
59.228001 -3.378089 37.130851
60.243027 -4.333833 36.360022
60.915184 -3.403187 35.489134
60.039982 -3.386222 36.24289
67.609962 4.516925 21.802606
67.560974 4.851122 20.875036
68.146087 3.378831 21.775279
67.609962 4.516925 21.802606
63.282547 -13.583616 42.186726
63.996856 -13.761306 41.578888
63.739716 -12.867739 41.135578
63.282547 -13.583616 42.186726
62.595844 -13.410936 42.821848
38.446251 2.499024 7.425681
38.513666 4.489941 8.000749
38.571995 0.535543 7.592219
38.394413 0.584978 6.77089
38.446251 2.499024 7.425681
38.710173 0.456489 8.442835
38.571995 0.535543 7.592219
38.996172 0.364046 9.149563
38.710173 0.456489 8.442835
38.909832 2.357146 8.953739
39.237526 0.262709 9.898288
39.037867 -1.637948 9.387385
38.996172 0.364046 9.149563
41.681595 3.540578 11.637704
41.026344 3.739818 11.367537
41.62507 1.545454 12.059928
41.681595 3.540578 11.637704
42.296625 3.371879 11.961945
48.020634 1.819935 12.225271
47.105465 2.078451 12.347905
47.882649 -0.013316 12.850895
48.020634 1.819935 12.225271
48.931663 1.605474 12.147005
55.555605 -0.024862 11.414905
54.631662 0.206176 11.443041
55.545418 -1.647853 12.117274
55.555605 -0.024862 11.414905
56.533121 -0.198552 11.38607
70.15395 -4.887289 25.230438
70.491894 -5.780641 24.898268
70.34375 -4.746742 24.25572
69.856834 -5.173039 26.234302
70.15395 -4.887289 25.230438
69.708691 -4.13914 25.591755
69.5629 -5.388363 27.22427
69.856834 -5.173039 26.234302
61.432232 -10.984475 41.186763
61.87952 -10.218361 40.061053
61.007774 -10.180336 40.596838
61.880134 -11.757646 41.772108
61.432232 -10.984475 41.186763
63.00301 -1.775197 32.813519
62.200851 -1.621348 33.701038
63.233799 -2.781693 32.978791
63.849182 -1.94148 32.061779
63.00301 -1.775197 32.813519
61.752928 -3.483103 34.668398
61.549883 -2.535493 34.551266
60.915184 -3.403187 35.489134
59.100352 2.37761 10.363763
58.288214 2.605896 10.178038
59.990045 2.210815 10.519848
59.249359 0.853489 10.960124
59.100352 2.37761 10.363763
60.774437 2.023007 10.814889
59.990045 2.210815 10.519848
61.641132 1.893777 11.066408
61.005748 0.557466 11.367728
60.774437 2.023007 10.814889
62.395859 1.746886 11.462152
61.641132 1.893777 11.066408
63.230464 1.652739 11.804501
62.70705 0.334089 11.961595
62.395859 1.746886 11.462152
63.947643 1.541686 12.290176
63.230464 1.652739 11.804501
64.734615 1.475342 12.718442
64.328629 0.173598 12.732211
63.947643 1.541686 12.290176
67.013443 5.525959 18.208259
66.730087 5.713932 17.314597
67.268524 5.347508 19.065596
67.443825 5.097837 19.982148
67.687416 4.382723 18.213836
67.013443 5.525959 18.208259
67.268524 5.347508 19.065596
68.622131 2.184314 21.8995
68.652839 2.516325 20.98117
68.146087 3.378831 21.775279
69.031086 1.009944 22.032396
68.622131 2.184314 21.8995
68.524334 1.87245 22.826504
66.846267 -15.268441 38.128738
66.366306 -14.897246 38.868965
67.857083 -9.330564 33.471954
68.305301 -8.771513 32.412007
67.707634 -8.450128 32.954876
68.022617 -10.249026 33.965931
67.857083 -9.330564 33.471954
67.42495 -9.927642 34.5088
68.105721 -11.17092 34.372053
68.022617 -10.249026 33.965931
67.674744 -11.824808 35.395785
68.105721 -11.17092 34.372053
67.21497 -12.483559 36.456603
67.674744 -11.824808 35.395785
67.130711 -11.504855 36.063595
66.755127 -13.17472 37.489429
67.29916 -13.494674 36.821619
67.21497 -12.483559 36.456603
65.811691 -14.579855 39.558731
66.366306 -14.897246 38.868965
66.284702 -13.868445 38.544212
65.338565 -15.291873 40.587852
65.811691 -14.579855 39.558731
65.256961 -14.263072 40.263099
64.857578 -16.013368 41.567836
65.338565 -15.291873 40.587852
64.161762 -14.726137 41.961128
64.618931 -14.01026 40.909981
63.996856 -13.761306 41.578888
64.307891 -15.695718 42.282276
64.161762 -14.726137 41.961128
64.857578 -16.013368 41.567836
64.307891 -15.695718 42.282276
67.787312 0.525155 25.662239
68.102291 1.04783 24.718198
68.078277 -0.581858 25.853739
67.787312 0.525155 25.662239
67.419712 0.040813 26.642063
64.984691 -0.400678 30.179383
64.423687 -1.19351 31.085964
65.747898 -0.763891 29.314422
64.984691 -0.400678 30.179383
66.526314 -1.137134 28.592386
65.747898 -0.763891 29.314422
66.007396 -1.825279 29.553384
67.248245 -1.632362 27.832456
66.988746 -0.570972 27.593494
66.526314 -1.137134 28.592386
69.177346 -5.759996 28.250996
69.5629 -5.388363 27.22427
69.02602 -4.796523 27.622345
69.348934 -6.673037 28.851079
69.177346 -5.759996 28.250996
68.812054 -6.081198 29.249153
69.429051 -7.52979 29.508147
69.348934 -6.673037 28.851079
69.429051 -7.52979 29.508147
69.100429 -7.833137 30.417124
39.56675 4.185789 9.925177
39.125484 4.317499 9.383585
39.496403 6.238586 9.648295
39.593773 2.139367 10.243726
39.56675 4.185789 9.925177
39.964691 4.060454 10.508436
40.500877 1.864092 11.281336
40.517181 3.889757 10.913185
41.026344 3.739818 11.367537
39.654226 -3.781322 10.972151
39.302578 -3.663429 10.336983
39.630869 -1.857178 10.771278
39.654226 -3.781322 10.972151
39.957756 -3.894564 11.664122
41.4174 -4.283497 13.138676
40.842279 -4.141927 12.752265
41.486776 -2.378005 12.818912
41.4174 -4.283497 13.138676
41.95422 -4.404485 13.58968
44.573742 2.731479 12.334398
43.753399 2.967805 12.303778
44.456225 0.812404 12.865632
44.573742 2.731479 12.334398
45.367593 2.534798 12.418761
46.110847 0.408434 12.939578
46.244693 2.28574 12.358322
47.105465 2.078451 12.347905
44.052375 -4.843126 14.321277
43.281662 -4.682187 14.176469
44.189591 -2.983844 13.872492
44.052375 -4.843126 14.321277
44.804313 -4.973764 14.527867
47.408024 -5.446571 14.646498
46.495808 -5.27492 14.675666
47.570633 -3.652907 14.079123
47.251675 -7.199485 15.263441
47.408024 -5.446571 14.646498
48.3265 -5.577472 14.666898
47.105251 -8.935897 15.780966
47.251675 -7.199485 15.263441
48.033195 -9.028976 15.849146
47.105251 -8.935897 15.780966
49.012645 -9.152088 15.815405
48.033195 -9.028976 15.849146
49.149601 -7.453498 15.250099
50.012649 -9.230936 15.821236
49.012645 -9.152088 15.815405
51.753923 0.864261 11.741203
50.812664 1.125852 11.882849
51.650398 -0.870836 12.430184
51.753923 0.864261 11.741203
52.719896 0.653661 11.626224
53.592136 -1.277799 12.230657
53.655897 0.402539 11.527589
54.631662 0.206176 11.443041
51.038544 -9.339989 15.763137
50.012649 -9.230936 15.821236
51.154945 -7.685663 15.158259
52.094456 -9.400141 15.735161
51.038544 -9.339989 15.763137
53.153251 -9.48951 15.681019
52.094456 -9.400141 15.735161
53.239636 -7.884086 15.046019
54.249168 -9.52785 15.647327
53.153251 -9.48951 15.681019
55.327927 -9.593542 15.621483
54.249168 -9.52785 15.647327
55.37719 -8.039146 14.966034
56.447705 -9.60877 15.607667
55.327927 -9.593542 15.621483
57.53265 -9.64904 15.629677
56.447705 -9.60877 15.607667
57.540893 -8.145108 14.962201
58.658585 -9.641676 15.658179
57.53265 -9.64904 15.629677
59.700367 -8.200865 15.069707
59.613327 -6.746174 14.385358
60.687855 -6.761661 14.470854
58.658585 -9.641676 15.658179
59.700367 -8.200865 15.069707
63.679718 -6.800912 15.07257
62.728779 -6.789235 14.810284
63.548184 -5.387017 14.402791
63.679718 -6.800912 15.07257
64.66354 -6.776294 15.32468
65.399186 1.389445 13.284758
64.734615 1.475342 12.718442
65.986232 5.999221 15.643576
66.355228 5.846101 16.502454
66.211781 4.935742 14.973413
65.986232 5.999221 15.643576
66.30222 3.782606 14.452109
66.211781 4.935742 14.973413
66.773056 3.672375 15.210907
66.273133 2.595437 14.049321
66.30222 3.782606 14.452109
66.116154 1.339495 13.796062
66.273133 2.595437 14.049321
66.706516 1.263297 14.436343
65.83257 0.057305 13.671781
65.399186 1.389445 13.284758
66.116154 1.339495 13.796062
67.201329 -6.72252 16.490942
66.43248 -6.734354 16.034136
67.019443 -5.378702 15.83281
67.201329 -6.72252 16.490942
67.970772 -6.676305 16.957038
69.684986 -6.61414 18.779213
69.217579 -6.615607 18.105338
69.517296 -5.343372 18.092509
69.684986 -6.61414 18.779213
70.126678 -6.566263 19.47882
70.786797 -6.589809 21.927122
70.675431 -6.543918 21.060288
70.674904 -5.422139 21.188267
70.786797 -6.589809 21.927122
70.870762 -6.567809 22.813313
70.747944 -6.661857 24.683958
70.491894 -5.780641 24.898268
67.301239 -14.550913 37.119408
66.846267 -15.268441 38.128738
3 121 120 30
3 122 32 123
3 124 30 125
3 126 125 32
3 124 125 126
3 0 36 34
3 127 39 128
3 129 128 37
3 127 128 129
3 131 130 39
3 0 42 40
3 0 34 42
3 132 44 133
3 134 45 135
3 136 135 44
3 134 135 136
3 137 47 138
3 139 49 140
3 141 140 47
3 139 140 141
3 142 51 143
3 144 53 145
3 146 145 51
3 144 145 146
3 3 147 148
3 3 149 151
3 149 55 150
3 149 150 151
3 3 57 55
3 4 60 58
3 4 62 60
3 5 65 63
3 5 67 65
3 5 69 67
3 2 72 70
3 2 73 72
3 1 152 153
3 6 76 74
3 154 77 155
3 156 155 31
3 154 155 156
3 158 157 77
3 159 78 160
3 6 79 33
3 6 74 79
3 11 161 163
3 161 81 162
3 161 162 163
3 11 82 81
3 11 84 82
3 164 85 165
3 166 86 167
3 168 167 85
3 166 167 168
3 13 169 170
3 14 87 35
3 14 88 87
3 7 89 75
3 15 90 38
3 15 91 90
3 15 92 91
3 171 93 172
3 8 173 175
3 173 94 174
3 173 174 175
3 16 95 41
3 16 96 95
3 16 97 96
3 13 98 43
3 13 176 178
3 178 177 98
3 176 177 178
3 17 179 180
3 17 181 183
3 181 182 183
3 184 99 185
3 18 100 46
3 18 186 188
3 188 187 100
3 186 187 188
3 18 189 190
3 19 191 193
3 193 192 48
3 191 192 193
3 19 194 195
3 196 101 197
3 20 102 50
3 20 198 200
3 200 199 102
3 198 199 200
3 20 201 202
3 21 103 52
3 21 104 103
3 203 105 204
3 22 106 54
3 22 107 106
3 22 108 107
3 23 109 56
3 23 110 109
3 9 111 80
3 24 112 59
3 24 205 207
3 207 206 112
3 205 206 207
3 24 208 209
3 25 210 212
3 212 211 61
3 210 211 212
3 25 213 214
3 10 215 217
3 215 113 216
3 215 216 217
3 26 114 64
3 26 115 114
3 26 116 115
3 27 117 66
3 27 218 220
3 220 219 117
3 218 219 220
3 27 221 222
3 28 223 225
3 225 224 68
3 223 224 225
3 28 226 227
3 12 118 83
3 29 119 71
3 29 228 230
3 230 229 119
3 228 229 230
3 29 231 232
3 30 31 6
3 233 31 234
3 235 234 30
3 233 234 235
3 237 236 31
3 32 238 239
3 32 240 241
3 32 242 244
3 242 33 243
3 242 243 244
3 30 33 32
3 30 6 33
3 245 11 246
3 248 247 11
3 34 35 13
3 36 35 34
3 36 14 35
3 37 38 7
3 39 38 37
3 39 15 38
3 39 249 251
3 251 250 15
3 249 250 251
3 253 252 39
3 40 41 8
3 42 41 40
3 42 16 41
3 42 43 16
3 34 43 42
3 34 13 43
3 44 254 255
3 44 256 258
3 256 257 258
3 44 259 260
3 45 261 263
3 263 262 44
3 261 262 263
3 45 264 266
3 264 17 265
3 264 265 266
3 267 46 268
3 47 269 271
3 269 46 270
3 269 270 271
3 47 18 46
3 47 48 18
3 49 48 47
3 49 19 48
3 272 50 273
3 51 274 276
3 274 50 275
3 274 275 276
3 51 20 50
3 51 52 20
3 53 52 51
3 53 21 52
3 277 54 278
3 55 279 281
3 279 54 280
3 279 280 281
3 55 22 54
3 55 56 22
3 57 56 55
3 57 23 56
3 58 59 9
3 60 59 58
3 60 24 59
3 60 61 24
3 62 61 60
3 62 25 61
3 63 64 10
3 65 64 63
3 65 26 64
3 65 66 26
3 67 66 65
3 67 27 66
3 67 68 27
3 69 68 67
3 69 28 68
3 70 71 12
3 72 71 70
3 72 29 71
3 72 282 284
3 284 283 29
3 282 283 284
3 73 285 287
3 287 286 72
3 285 286 287
3 73 288 289
3 74 75 0
3 76 75 74
3 76 7 75
3 31 76 6
3 77 76 31
3 77 7 76
3 77 37 7
3 290 37 291
3 292 291 77
3 290 291 292
3 294 293 37
3 78 295 296
3 78 297 299
3 297 8 298
3 297 298 299
3 33 300 302
3 300 78 301
3 300 301 302
3 79 78 33
3 79 8 78
3 79 40 8
3 74 40 79
3 74 0 40
3 303 3 304
3 305 80 306
3 307 306 3
3 305 306 307
3 308 80 309
3 310 9 311
3 312 311 80
3 310 311 312
3 313 9 314
3 315 58 316
3 317 316 9
3 315 316 317
3 318 58 319
3 320 4 321
3 322 321 58
3 320 321 322
3 323 10 324
3 81 325 326
3 81 327 329
3 327 10 328
3 327 328 329
3 81 63 10
3 82 63 81
3 82 5 63
3 82 83 5
3 84 83 82
3 84 12 83
3 330 84 331
3 332 331 11
3 330 331 332
3 85 333 335
3 333 84 334
3 333 334 335
3 85 12 84
3 85 70 12
3 86 70 85
3 86 2 70
3 337 336 1
3 35 338 340
3 340 339 13
3 338 339 340
3 87 341 343
3 343 342 35
3 341 342 343
3 87 344 345
3 87 346 347
3 88 348 350
3 350 349 87
3 348 349 350
3 88 351 353
3 351 1 352
3 351 352 353
3 75 36 0
3 89 36 75
3 89 14 36
3 38 89 7
3 90 89 38
3 90 14 89
3 90 88 14
3 91 88 90
3 91 1 88
3 91 354 356
3 356 355 1
3 354 355 356
3 92 357 359
3 359 358 91
3 357 358 359
3 92 360 361
3 362 92 363
3 364 363 15
3 362 363 364
3 365 92 366
3 368 367 92
3 369 86 370
3 93 371 373
3 371 86 372
3 371 372 373
3 93 2 86
3 94 374 375
3 94 376 377
3 41 94 8
3 95 94 41
3 95 378 380
3 380 379 94
3 378 379 380
3 95 381 383
3 381 93 382
3 381 382 383
3 96 93 95
3 96 2 93
3 96 73 2
3 97 73 96
3 97 384 386
3 386 385 73
3 384 385 386
3 43 97 16
3 98 97 43
3 98 387 389
3 389 388 97
3 387 388 389
3 98 390 391
3 393 392 98
3 394 45 395
3 394 395 396
3 99 397 399
3 397 45 398
3 397 398 399
3 99 17 45
3 46 400 402
3 400 99 401
3 400 401 402
3 100 99 46
3 100 17 99
3 100 403 405
3 405 404 17
3 403 404 405
3 407 406 100
3 48 408 410
3 410 409 18
3 408 409 410
3 412 411 48
3 413 49 414
3 101 415 417
3 415 49 416
3 415 416 417
3 101 19 49
3 50 418 420
3 418 101 419
3 418 419 420
3 102 101 50
3 102 19 101
3 102 421 423
3 423 422 19
3 421 422 423
3 425 424 102
3 52 426 428
3 428 427 20
3 426 427 428
3 103 429 431
3 431 430 52
3 429 430 431
3 103 432 433
3 103 434 435
3 104 436 438
3 438 437 103
3 436 437 438
3 104 439 440
3 441 53 442
3 105 443 445
3 443 53 444
3 443 444 445
3 105 21 53
3 54 446 448
3 446 105 447
3 446 447 448
3 106 105 54
3 106 21 105
3 106 104 21
3 107 104 106
3 107 449 451
3 451 450 104
3 449 450 451
3 107 452 453
3 108 454 456
3 456 455 107
3 454 455 456
3 108 457 458
3 56 108 22
3 109 108 56
3 109 459 461
3 461 460 108
3 459 460 461
3 109 462 463
3 110 464 466
3 466 465 109
3 464 465 466
3 110 467 468
3 80 57 3
3 111 57 80
3 111 23 57
3 59 111 9
3 112 111 59
3 112 23 111
3 112 110 23
3 469 110 470
3 471 470 112
3 469 470 471
3 473 472 110
3 61 474 476
3 476 475 24
3 474 475 476
3 478 477 61
3 479 4 480
3 113 481 482
3 113 483 484
3 64 113 10
3 114 113 64
3 114 485 487
3 487 486 113
3 485 486 487
3 114 488 489
3 115 490 492
3 492 491 114
3 490 491 492
3 115 493 495
3 493 4 494
3 493 494 495
3 115 62 4
3 116 62 115
3 116 25 62
3 66 116 26
3 117 116 66
3 117 25 116
3 117 496 498
3 498 497 25
3 496 497 498
3 500 499 117
3 68 501 503
3 503 502 27
3 501 502 503
3 505 504 68
3 83 69 5
3 118 69 83
3 118 28 69
3 71 118 12
3 119 118 71
3 119 28 118
3 119 506 508
3 508 507 28
3 506 507 508
3 510 509 119
3 512 511 29
3 514 513 1
