ply
format ascii 1.0
element vertex 483
property float x
property float y
property float z
element face 482
property list uchar int vertex_index
end_header
13.843479 6.40329 78.819069
17.470814 -4.064771 77.721771
19.302233 7.603266 70.308922
23.701481 -3.23505 70.670784
2.858896 9.788843 80.984573
-0.410208 -0.732138 75.710823
6.548876 1.790724 83.961632
20.006313 -8.217003 77.943748
20.512779 -3.456611 73.94754
26.681236 -7.446504 72.63253
1.358374 13.099163 78.149918
22.080605 7.553295 66.530991
12.149246 -0.470617 81.728188
8.334629 -2.75621 84.361687
10.368538 4.574377 82.022865
8.373051 9.406078 81.836754
0.021975 1.778646 71.477951
-0.223736 -6.663473 71.205116
0.882 -4.254745 66.882256
2.355394 -10.159456 62.170074
1.969002 -1.955137 62.624168
15.489931 0.973516 78.117928
16.733574 7.342327 74.707787
18.362827 1.66383 73.954834
21.168505 1.843386 69.932968
24.363693 1.906326 66.81102
14.120764 -5.329515 81.365822
27.339264 -2.948631 68.287453
1.650761 1.660257 82.140617
-0.304628 -3.500741 79.535019
0.619043 4.859737 79.176422
0.121572 7.67001 75.449753
2.974892 -1.941607 84.30423
4.69837 6.011152 82.891403
12.984291 9.119518 79.112228
14.555752 9.796743 77.244164
23.68034 7.539545 65.129448
22.670683 10.511723 65.143738
13.033079 2.974533 80.309166
11.264606 2.058037 81.911484
12.175854 5.606663 80.559631
11.258648 8.201044 80.714943
0.411201 2.943499 69.253563
0.348358 -1.239647 69.221474
0.862968 -0.086048 67.020546
1.458942 -3.093626 64.73893
16.411934 -1.626471 77.851181
16.966194 1.402176 76.068367
17.910294 -1.234228 75.842178
22.061199 -3.324909 72.213226
20.818056 -0.867424 71.894249
22.350086 -0.802347 70.13723
22.697758 1.863094 68.222855
23.996571 -0.742001 68.623497
17.050991 -6.819653 79.538528
15.855063 -4.608092 79.597672
14.811732 -2.195559 79.768883
25.776344 -0.635202 67.390816
25.460556 -3.125712 69.358932
2.290094 5.740835 81.642937
1.083031 3.309477 80.757332
1.595293 7.423763 80.313927
0.591906 10.461725 76.997566
18.026043 7.537392 72.490936
17.278084 10.508259 72.958694
7.44109 -0.456356 84.229752
6.369003 -4.223276 85.211617
5.519215 -2.057436 84.86412
3.69705 -3.887467 85.089554
4.690159 0.041166 84.353302
3.868404 2.0474 83.655457
5.634979 3.95278 83.52359
-0.421879 -2.082739 77.682961
-0.69779 -4.966269 75.633102
0.28727 -9.645607 68.775436
2.825466 -8.95323 60.207581
18.680569 -6.279963 77.757385
19.004143 -3.688964 75.810501
20.240646 -5.908705 76.000938
21.801567 -5.684435 74.346352
23.432657 -5.553678 72.846085
25.173748 -5.442193 71.526268
24.85145 -7.568508 73.757202
3.344814 13.800827 80.139244
2.042524 11.503595 79.687805
20.633827 7.590824 68.284599
11.224516 -3.909232 83.085526
9.268997 -5.062381 84.397057
10.283026 -1.506191 83.186813
9.381319 0.915182 83.231247
8.469183 3.302456 83.170258
7.511648 5.616776 82.961105
9.413227 7.033798 82.010841
-0.26017 0.554333 73.636566
-0.463715 -3.677959 73.54351
-0.107515 -2.43619 71.400932
0.302542 -5.444114 69.041588
0.934324 -8.43184 66.626671
1.57369 -7.23516 64.516434
2.13842 -6.054155 62.454491
2.560879 -4.883133 60.451279
2.783976 -3.71067 58.516273
2.34906 -0.828014 60.55098
14.656071 3.670572 78.464417
15.356103 6.974993 76.847015
16.135708 4.158913 76.42907
17.506115 4.462317 74.275795
18.825542 4.615194 72.100517
19.357977 -0.994179 73.825447
19.741777 1.794979 71.874954
20.163029 4.662743 70.015076
21.583275 4.657106 68.13147
23.134104 4.650988 66.541885
24.839842 4.690107 65.300438
12.259552 -6.232339 82.971428
13.082106 -2.954556 81.529785
13.889803 0.353769 80.024063
26.176851 2.014698 65.72345
27.685543 -0.446409 66.438713
27.029095 -5.284417 70.395149
0.960199 -2.444468 82.514214
-0.076555 -4.991323 81.248154
0.519154 -0.832869 81.054291
0.173403 0.690018 79.418106
-0.050928 2.128321 77.61779
1.017326 8.997583 78.765106
0.291006 6.312893 77.403946
-0.132357 3.485041 75.666962
-0.062193 4.762136 73.581444
0.150404 5.9622 71.380417
15.974702 10.249981 75.166367
1.474613 -4.148052 83.787743
2.289509 -0.090134 83.322945
3.060215 3.948645 82.755013
3.760138 7.95747 82.048996
6.49678 7.833532 82.572311
5.437876 9.939871 81.982643
4.370401 11.930094 81.176521
-0.657274 -7.913188 73.360085
24.011343 9.023332 64.555237
24.562863 7.563508 64.620991
0.864214 1.984326 67.002167
0.637084 1.428726 68.137055
0.638331 3.4991 68.118675
1.122184 0.472137 65.917389
0.864214 1.984326 67.002167
18.915594 9.107781 70.518483
18.277499 9.074844 71.609489
18.664138 7.570329 71.399929
0.301062 -11.72917 68.631946
0.658617 -11.117284 67.547718
3.129144 -10.370874 59.12373
2.953324 -8.349761 59.269902
22.473655 -6.678206 74.677479
21.678428 -6.770794 75.374092
23.2892 -6.612828 73.927346
22.617112 -5.619056 73.596218
22.473655 -6.678206 74.677479
19.20025 -8.494207 78.762424
19.922643 -9.312089 78.805816
19.343441 -7.248483 77.850566
18.537378 -7.525686 78.669242
19.20025 -8.494207 78.762424
23.998597 -7.620243 74.382904
24.142053 -6.561093 73.301644
23.2892 -6.612828 73.927346
2.880683 14.674378 79.49731
3.54327 15.7894 79.616558
21.623019 9.057182 66.617531
20.899631 9.075946 67.494335
21.357216 7.572059 67.407795
22.216399 12.034872 65.208805
23.010412 12.013317 64.547737
10.749866 9.461729 80.721604
11.641526 9.990517 80.001339
13.776638 -6.870629 82.118687
14.713601 -6.43023 81.315151
13.190158 -5.780927 82.168625
12.846032 -7.32204 82.92149
13.776638 -6.870629 82.118687
28.328914 -2.813263 67.860752
28.502054 -1.562153 66.936383
27.512403 -1.69752 67.363083
0.207792 8.033857 71.222942
0.133778 7.447465 72.354908
0.314078 6.526483 70.233799
0.207792 8.033857 71.222942
16.894125 11.996111 73.191185
17.526402 12.076966 72.074569
7.801855 -4.586589 84.89344
8.269039 -5.739674 84.911125
8.801813 -3.909295 84.379372
5.831492 -6.100239 85.668568
5.415909 -5.066562 85.451211
2.513203 -3.941917 84.586331
2.874282 -4.914846 84.978993
3.335971 -2.914537 84.696892
2.224753 -3.04483 84.045986
1.763063 -5.045139 84.328087
2.513203 -3.941917 84.586331
5.753569 11.884166 81.445515
6.343602 10.80687 81.728878
5.219831 12.879278 81.042453
4.904139 10.934983 81.579582
5.753569 11.884166 81.445515
4.625395 13.897506 80.648647
5.219831 12.879278 81.042453
-0.549678 -5.598203 79.55547
-0.435641 -6.343494 80.412037
-0.190591 -4.246032 80.391587
2.487947 -12.202237 62.00507
2.044226 -10.765173 63.190425
2.658879 -1.107295 57.592434
2.777345 -3.115179 57.585262
2.66551 -1.702786 58.523445
20.780801 -8.037078 77.17279
20.67664 -9.017546 78.081108
20.67664 -9.017546 78.081108
19.922643 -9.312089 78.805816
13.327194 10.850886 78.333492
12.504347 10.449753 79.199982
14.112925 11.189498 77.39946
13.327194 10.850886 78.333492
13.770022 9.45813 78.178196
14.857422 11.469355 76.410695
14.112925 11.189498 77.39946
23.506515 10.509421 64.562382
23.175511 9.025634 65.136593
24.011343 9.023332 64.555237
23.846243 12.011015 63.966381
23.010412 12.013317 64.547737
23.506515 10.509421 64.562382
12.504347 10.449753 79.199982
11.641526 9.990517 80.001339
12.121469 8.660281 79.913586
1.420171 -1.031652 64.776581
1.160955 -1.589837 65.879738
1.122184 0.472137 65.917389
1.675202 -0.462408 63.7192
1.713972 -2.524382 63.681549
1.420171 -1.031652 64.776581
1.905771 0.082695 62.621906
1.675202 -0.462408 63.7192
16.178715 -7.175299 80.401505
16.852082 -8.159847 80.379963
15.580751 -6.069519 80.431077
16.178715 -7.175299 80.401505
16.453027 -5.713872 79.5681
14.987913 -4.968803 80.481747
14.713601 -6.43023 81.315151
15.580751 -6.069519 80.431077
27.643939 -7.347376 72.130294
27.39913 -8.373955 73.241718
0.71765 12.517285 76.682915
0.97514 11.780444 77.573742
1.100883 13.836004 77.25909
0.466359 11.138838 76.008255
0.71765 12.517285 76.682915
0.231191 9.742981 75.234349
0.356739 9.065867 76.223659
0.466359 11.138838 76.008255
0.119362 8.30137 74.389576
0.231191 9.742981 75.234349
17.90352 10.560277 71.843368
17.652064 9.022825 72.724815
18.277499 9.074844 71.609489
17.526402 12.076966 72.074569
17.90352 10.560277 71.843368
4.991015 -3.983643 85.277462
5.415909 -5.066562 85.451211
5.944109 -3.140356 85.037869
4.608132 -2.972452 84.976837
4.079933 -4.898658 85.390179
4.991015 -3.983643 85.277462
7.811189 10.539973 81.655934
8.741162 11.277557 81.202862
-0.613606 -4.193259 77.667084
-0.55498 -4.90226 78.593113
-0.363254 -2.79174 78.60899
-0.751561 -5.635025 76.642155
-0.613606 -4.193259 77.667084
-0.559835 -3.524504 76.658031
-0.837709 -7.080505 75.561759
-0.751561 -5.635025 76.642155
-0.012135 -10.260793 69.864105
-0.267639 -8.769725 71.078945
0.031767 -8.15454 69.990276
-0.012135 -10.260793 69.864105
0.301062 -11.72917 68.631946
2.982711 -10.985837 60.046837
2.747675 -11.58895 61.028084
2.59043 -9.556343 61.188828
2.982711 -10.985837 60.046837
3.129144 -10.370874 59.12373
20.897968 -6.882929 76.201386
20.12348 -7.062854 76.972343
20.780801 -8.037078 77.17279
21.021107 -5.79657 75.173645
20.897968 -6.882929 76.201386
21.678428 -6.770794 75.374092
17.722589 -7.795531 79.559814
16.852082 -8.159847 80.379963
17.86578 -6.549808 78.647956
17.722589 -7.795531 79.559814
18.537378 -7.525686 78.669242
24.639188 -8.522602 74.826275
23.998597 -7.620243 74.382904
25.532919 -8.497006 74.30465
24.639188 -8.522602 74.826275
26.447812 -8.436004 73.742313
25.766343 -7.507506 73.194866
25.532919 -8.497006 74.30465
27.39913 -8.373955 73.241718
26.447812 -8.436004 73.742313
2.229538 13.525762 79.271591
2.693669 12.652211 79.913524
2.880683 14.674378 79.49731
1.887463 14.323546 78.502647
1.700449 12.301379 78.918861
2.229538 13.525762 79.271591
1.497157 15.132544 77.730473
1.887463 14.323546 78.502647
1.100883 13.836004 77.25909
1.497157 15.132544 77.730473
20.21776 9.101358 68.442627
19.551963 9.107579 69.454789
19.96803 7.597045 69.296761
20.21776 9.101358 68.442627
20.899631 9.075946 67.494335
21.918059 10.536396 65.923904
21.623019 9.057182 66.617531
22.375644 9.032509 65.837365
21.918059 10.536396 65.923904
22.216399 12.034872 65.208805
10.246757 -4.485806 83.741292
9.779892 -6.189906 84.385098
10.757651 -5.613331 83.729332
9.827156 8.878106 81.369552
10.335938 7.617421 81.362892
10.749866 9.461729 80.721604
9.307068 10.064246 81.282509
8.893139 8.219938 81.923798
9.827156 8.878106 81.369552
8.741162 11.277557 81.202862
9.307068 10.064246 81.282509
0.982144 -10.5104 66.473335
0.658617 -11.117284 67.547718
0.610797 -9.038723 67.701054
1.333692 -9.901365 65.418724
0.982144 -10.5104 66.473335
1.653374 -9.303025 64.363606
1.333692 -9.901365 65.418724
1.254007 -7.8335 65.571552
1.964542 -8.697308 63.343254
2.044226 -10.765173 63.190425
1.653374 -9.303025 64.363606
2.82103 -6.314713 59.391751
2.953324 -8.349761 59.269902
2.693173 -6.918181 60.32943
2.672427 -4.296901 59.483776
2.932579 -5.728482 58.424247
2.82103 -6.314713 59.391751
2.448053 -0.261458 59.540799
2.66551 -1.702786 58.523445
2.566518 -2.269342 59.533626
2.0958 0.646257 61.585312
2.159031 -1.391576 61.587574
1.905771 0.082695 62.621906
2.268522 1.186866 60.502282
2.0958 0.646257 61.585312
2.448053 -0.261458 59.540799
2.268522 1.186866 60.502282
25.142614 6.138789 64.706486
24.562863 7.563508 64.620991
24.260091 6.114826 65.214943
11.85098 -7.845891 83.642811
12.846032 -7.32204 82.92149
11.27517 -6.774884 83.672283
11.85098 -7.845891 83.642811
11.742034 -5.070785 83.028477
10.757651 -5.613331 83.729332
11.27517 -6.774884 83.672283
25.770442 4.748232 64.856201
25.142614 6.138789 64.706486
26.438947 3.410527 65.067707
25.770442 4.748232 64.856201
25.508347 3.352403 65.511944
27.151744 2.113622 65.33194
26.438947 3.410527 65.067707
27.90609 0.883069 65.689571
27.151744 2.113622 65.33194
26.931197 0.784145 66.081082
28.694199 -0.303908 66.083187
27.90609 0.883069 65.689571
28.694199 -0.303908 66.083187
28.502054 -1.562153 66.936383
27.817869 -6.266333 71.011604
26.855165 -6.365461 71.51384
27.643939 -7.347376 72.130294
28.003736 -5.162456 69.918232
27.817869 -6.266333 71.011604
28.15882 -3.994563 68.864384
27.184179 -4.116524 69.341301
28.003736 -5.162456 69.918232
28.328914 -2.813263 67.860752
28.15882 -3.994563 68.864384
0.441822 -3.717896 81.881184
0.083861 -5.775766 82.025703
0.602237 -4.502339 82.658733
0.02748 6.847433 73.455421
0.02969 6.216073 74.515599
0.119362 8.30137 74.389576
0.044106 5.362168 72.48093
0.02748 6.847433 73.455421
0.133778 7.447465 72.354908
0.444477 5.017133 69.170372
0.280803 4.45285 70.31699
0.314078 6.526483 70.233799
0.638331 3.4991 68.118675
0.444477 5.017133 69.170372
15.566897 11.695975 75.371796
14.857422 11.469355 76.410695
15.265227 10.023362 76.205265
16.242434 11.866972 74.295021
16.626393 10.37912 74.06253
16.894125 11.996111 73.191185
15.566897 11.695975 75.371796
16.242434 11.866972 74.295021
18.915594 9.107781 70.518483
19.551963 9.107579 69.454789
8.76336 -6.824541 84.965374
9.779892 -6.189906 84.385098
8.76336 -6.824541 84.965374
8.269039 -5.739674 84.911125
6.819042 -5.320122 85.318406
7.801855 -4.586589 84.89344
7.351816 -3.489743 84.786652
6.819042 -5.320122 85.318406
5.831492 -6.100239 85.668568
3.195718 -5.851934 85.422161
4.079933 -4.898658 85.390179
3.195718 -5.851934 85.422161
2.874282 -4.914846 84.978993
1.061066 -6.179218 83.985142
1.763063 -5.045139 84.328087
0.859444 -5.354131 83.295498
1.061066 -6.179218 83.985142
1.217406 -3.29626 83.150979
0.602237 -4.502339 82.658733
0.859444 -5.354131 83.295498
6.873054 9.7537 82.023712
7.434916 8.619805 82.204532
7.811189 10.539973 81.655934
5.967328 8.886702 82.277477
6.873054 9.7537 82.023712
6.343602 10.80687 81.728878
4.112602 14.832873 80.130009
3.857608 12.865461 80.657882
4.625395 13.897506 80.648647
3.54327 15.7894 79.616558
4.112602 14.832873 80.130009
-0.377702 -7.070107 81.315147
0.083861 -5.775766 82.025703
-0.377702 -7.070107 81.315147
-0.435641 -6.343494 80.412037
-0.549678 -5.598203 79.55547
-0.55498 -4.90226 78.593113
-0.817451 -8.553964 74.425251
-0.837709 -7.080505 75.561759
-0.677532 -6.439728 74.496593
-0.484407 -9.394583 72.15643
-0.440505 -7.28833 72.282601
-0.267639 -8.769725 71.078945
-0.740556 -10.018165 73.253079
-0.484407 -9.394583 72.15643
-0.817451 -8.553964 74.425251
-0.740556 -10.018165 73.253079
2.487947 -12.202237 62.00507
2.747675 -11.58895 61.028084
2.932478 -5.118966 57.532474
2.932579 -5.728482 58.424247
2.932478 -5.118966 57.532474
2.777345 -3.115179 57.585262
3 0 35 34
3 140 139 36
3 0 40 38
3 0 34 40
3 141 44 142
3 143 142 42
3 141 142 143
3 145 144 44
3 1 48 46
3 3 51 49
3 3 53 51
3 1 55 54
3 1 46 55
3 3 58 53
3 4 61 59
3 2 146 148
3 148 147 63
3 146 147 148
3 6 67 65
3 6 69 67
3 6 71 69
3 5 73 72
3 150 149 74
3 152 151 75
3 7 78 76
3 153 79 154
3 155 80 156
3 157 156 79
3 155 156 157
3 7 158 159
3 7 160 162
3 160 76 161
3 160 161 162
3 163 82 164
3 165 164 80
3 163 164 165
3 167 166 83
3 11 168 170
3 170 169 85
3 168 169 170
3 172 171 37
3 12 88 86
3 14 89 39
3 14 90 89
3 14 92 90
3 174 173 41
3 16 95 93
3 18 96 43
3 18 97 96
3 18 98 97
3 20 99 45
3 20 100 99
3 20 102 100
3 21 105 103
3 23 106 47
3 23 107 106
3 8 108 77
3 24 109 50
3 24 110 109
3 24 111 110
3 25 112 52
3 25 113 112
3 26 175 176
3 26 177 179
3 177 114 178
3 177 178 179
3 26 115 114
3 21 116 56
3 21 103 116
3 25 117 113
3 27 118 57
3 27 180 182
3 182 181 118
3 180 181 182
3 9 119 81
3 28 122 120
3 30 123 60
3 30 124 123
3 10 125 84
3 31 126 62
3 31 127 126
3 31 128 127
3 183 129 184
3 186 185 129
3 22 130 104
3 188 187 64
3 13 189 191
3 191 190 87
3 189 190 191
3 193 192 66
3 32 194 196
3 196 195 68
3 194 195 196
3 32 197 199
3 197 131 198
3 197 198 199
3 32 132 131
3 33 133 70
3 33 134 133
3 15 135 91
3 200 136 201
3 202 137 203
3 204 203 136
3 202 203 204
3 206 205 137
3 29 207 209
3 209 208 121
3 207 208 209
3 17 138 94
3 19 210 211
3 214 213 101
3 212 213 214
3 216 215 7
3 217 7 218
3 34 219 220
3 35 221 223
3 223 222 34
3 221 222 223
3 35 224 225
3 36 37 11
3 226 37 227
3 228 227 36
3 226 227 228
3 231 230 37
3 229 230 231
3 38 39 12
3 40 39 38
3 40 14 39
3 40 41 14
3 34 41 40
3 34 232 234
3 234 233 41
3 232 233 234
3 42 43 16
3 44 43 42
3 44 18 43
3 44 45 18
3 235 45 236
3 237 236 44
3 235 236 237
3 238 20 239
3 240 239 45
3 238 239 240
3 242 241 20
3 46 47 21
3 48 47 46
3 48 23 47
3 49 50 8
3 51 50 49
3 51 24 50
3 51 52 24
3 53 52 51
3 53 25 52
3 54 243 244
3 55 245 247
3 247 246 54
3 245 246 247
3 55 248 250
3 248 26 249
3 248 249 250
3 55 56 26
3 46 56 55
3 46 21 56
3 53 57 25
3 58 57 53
3 58 27 57
3 252 251 9
3 59 60 28
3 61 60 59
3 61 30 60
3 253 62 254
3 255 254 10
3 253 254 255
3 256 62 257
3 258 31 259
3 260 259 62
3 258 259 260
3 262 261 31
3 63 64 22
3 263 64 264
3 265 264 63
3 263 264 265
3 267 266 64
3 65 66 13
3 67 66 65
3 67 268 270
3 270 269 66
3 268 269 270
3 67 271 273
3 271 68 272
3 271 272 273
3 69 68 67
3 69 32 68
3 69 70 32
3 71 70 69
3 71 33 70
3 275 274 15
3 72 276 278
3 278 277 29
3 276 277 278
3 73 279 281
3 281 280 72
3 279 280 281
3 73 282 283
3 74 284 286
3 286 285 17
3 284 285 286
3 288 287 74
3 75 289 291
3 291 290 19
3 289 290 291
3 293 292 75
3 76 77 1
3 78 77 76
3 78 8 77
3 294 78 295
3 296 295 7
3 294 295 296
3 79 297 299
3 297 78 298
3 297 298 299
3 79 8 78
3 79 49 8
3 80 49 79
3 80 3 49
3 300 54 301
3 76 302 304
3 302 54 303
3 302 303 304
3 76 1 54
3 80 81 3
3 82 81 80
3 82 9 81
3 305 82 306
3 307 82 308
3 309 9 310
3 311 310 82
3 309 310 311
3 313 312 9
3 83 84 4
3 314 84 315
3 316 315 83
3 314 315 316
3 317 10 318
3 319 318 84
3 317 318 319
3 320 10 321
3 323 322 10
3 85 324 326
3 326 325 2
3 324 325 326
3 328 327 85
3 37 329 331
3 331 330 11
3 329 330 331
3 333 332 37
3 86 334 336
3 334 87 335
3 334 335 336
3 88 87 86
3 88 13 87
3 39 88 12
3 89 88 39
3 89 13 88
3 89 65 13
3 90 65 89
3 90 6 65
3 90 91 6
3 92 91 90
3 92 15 91
3 41 92 14
3 337 92 338
3 339 338 41
3 337 338 339
3 340 15 341
3 342 341 92
3 340 341 342
3 344 343 15
3 93 94 5
3 95 94 93
3 95 17 94
3 43 95 16
3 96 95 43
3 96 17 95
3 96 74 17
3 97 74 96
3 97 345 347
3 347 346 74
3 345 346 347
3 97 348 349
3 98 350 352
3 352 351 97
3 350 351 352
3 98 353 355
3 353 19 354
3 353 354 355
3 45 98 18
3 99 98 45
3 99 19 98
3 99 75 19
3 100 75 99
3 100 356 358
3 358 357 75
3 356 357 358
3 100 359 361
3 359 101 360
3 359 360 361
3 102 101 100
3 102 362 364
3 364 363 101
3 362 363 364
3 365 102 366
3 367 366 20
3 365 366 367
3 368 102 369
3 371 370 102
3 103 104 0
3 105 104 103
3 105 22 104
3 47 105 21
3 106 105 47
3 106 22 105
3 106 63 22
3 107 63 106
3 107 2 63
3 77 48 1
3 108 48 77
3 108 23 48
3 50 108 8
3 109 108 50
3 109 23 108
3 109 107 23
3 110 107 109
3 110 2 107
3 110 85 2
3 111 85 110
3 111 11 85
3 52 111 24
3 112 111 52
3 112 11 111
3 112 36 11
3 113 36 112
3 113 372 374
3 374 373 36
3 372 373 374
3 114 375 376
3 114 377 378
3 114 379 381
3 379 86 380
3 379 380 381
3 115 86 114
3 115 12 86
3 56 115 26
3 116 115 56
3 116 12 115
3 116 38 12
3 103 38 116
3 103 0 38
3 113 382 383
3 117 384 386
3 386 385 113
3 384 385 386
3 117 387 388
3 57 117 25
3 118 117 57
3 118 389 391
3 391 390 117
3 389 390 391
3 118 392 393
3 395 394 118
3 81 58 3
3 119 58 81
3 119 27 58
3 396 119 397
3 398 397 9
3 396 397 398
3 399 119 400
3 401 27 402
3 403 402 119
3 401 402 403
3 405 404 27
3 120 406 408
3 406 121 407
3 406 407 408
3 122 121 120
3 122 29 121
3 60 122 28
3 123 122 60
3 123 29 122
3 123 72 29
3 124 72 123
3 124 5 72
3 84 61 4
3 125 61 84
3 125 30 61
3 62 125 10
3 126 125 62
3 126 30 125
3 126 124 30
3 127 124 126
3 127 5 124
3 127 93 5
3 128 93 127
3 128 16 93
3 409 128 410
3 411 410 31
3 409 410 411
3 129 412 414
3 412 128 413
3 412 413 414
3 129 16 128
3 129 42 16
3 415 42 416
3 417 416 129
3 415 416 417
3 419 418 42
3 104 35 0
3 130 35 104
3 130 420 422
3 422 421 35
3 420 421 422
3 64 130 22
3 423 130 424
3 425 424 64
3 423 424 425
3 427 426 130
3 429 428 2
3 87 430 431
3 433 432 87
3 66 434 436
3 436 435 13
3 434 435 436
3 438 437 66
3 68 439 440
3 442 441 68
3 131 443 444
3 131 445 446
3 131 447 449
3 447 120 448
3 447 448 449
3 132 120 131
3 132 28 120
3 70 132 32
3 133 132 70
3 133 28 132
3 133 59 28
3 134 59 133
3 134 4 59
3 91 71 6
3 135 71 91
3 135 33 71
3 450 135 451
3 452 451 15
3 450 451 452
3 136 453 455
3 453 135 454
3 453 454 455
3 136 33 135
3 136 134 33
3 137 134 136
3 137 4 134
3 137 83 4
3 456 83 457
3 458 457 137
3 456 457 458
3 460 459 83
3 121 461 462
3 464 463 121
3 466 465 29
3 94 73 5
3 138 73 94
3 138 467 469
3 469 468 73
3 467 468 469
3 470 138 471
3 472 471 17
3 470 471 472
3 473 138 474
3 476 475 138
3 478 477 19
3 101 479 480
3 482 481 101
