ply
format ascii 1.0
element vertex 878
property float x
property float y
property float z
element face 1092
property list uchar int vertex_index
end_header
-45.400036 -86.574341 31.810211
-52.850601 -74.458397 43.839745
-52.526474 -69.792984 23.190603
-40.016655 -84.073975 48.984306
-27.519571 -84.422577 45.103256
-55.571117 -66.376007 47.787685
-57.831512 -67.949242 39.924309
-49.987972 -70.74791 48.404732
-45.876541 -92.557465 22.219387
-60.642788 -63.421463 19.423527
-55.146751 -65.406128 12.439248
-29.282623 -76.265884 51.632893
-43.506447 -88.177216 43.0163
-37.957424 -93.676849 42.487
-42.675873 -95.339355 33.250954
-47.93259 -80.802078 39.245567
-47.384155 -77.660568 27.690174
-52.697014 -73.405891 34.070724
-36.900009 -64.658722 48.27784
-35.113655 -75.167343 49.291267
-42.62093 -73.464813 48.518192
-46.980003 -79.979408 47.526886
-25.764318 -92.772156 33.340504
-33.277184 -85.583252 47.480282
-32.068024 -94.31073 37.324112
-45.541981 -89.549271 27.168438
-45.992783 -84.871994 25.703562
-64.36425 -60.343681 18.044706
-61.655403 -60.658489 14.354416
-44.640457 -87.874329 37.736927
-42.790749 -91.902908 38.659046
-44.380825 -91.080673 33.072521
-44.522537 -94.182297 27.81094
-50.460625 -77.822784 41.793259
-50.152596 -77.048141 36.670296
-52.998028 -74.415344 39.276321
-58.507629 -67.728058 34.881512
-40.319141 -63.752697 47.329033
-39.630035 -69.003937 47.795219
-43.464146 -68.145523 47.707409
-51.902527 -73.262314 47.054054
-48.76989 -75.497238 48.121307
-50.094505 -77.380058 45.845947
-47.835995 -81.10379 44.137321
-49.452171 -73.531342 25.404667
-47.823647 -75.77594 21.795273
-50.127441 -71.548882 19.738094
-57.4058 -62.97015 7.425006
-25.706051 -80.528801 49.710033
-24.645496 -84.140076 44.789719
-23.645123 -88.286606 39.168137
-26.737583 -88.310913 39.441677
-37.659943 -79.893646 49.350964
-34.170563 -80.515259 49.257622
-36.519485 -85.251129 48.541912
-37.606953 -97.715546 36.450439
-35.003574 -94.653625 40.251244
-34.612648 -98.629761 33.536285
-54.556 -70.593796 45.775803
-55.342194 -71.262466 41.778847
-56.922287 -67.556671 44.449211
-47.220993 -67.129433 48.161678
-50.646568 -65.835022 48.842075
-53.014656 -68.794449 48.202717
-56.425537 -66.474396 21.163143
-53.431076 -67.65876 17.740812
-57.453835 -64.087036 15.906732
-58.879417 -61.374638 10.802597
-28.345201 -80.531563 49.261917
-41.969482 -86.960114 46.952003
-38.756397 -89.100464 46.812317
-40.862144 -91.371826 43.439331
-40.394203 -95.359695 38.278084
-40.237991 -98.930817 32.045212
-42.584373 -98.549118 27.245358
-44.436371 -97.229477 22.218061
-46.100227 -83.662247 35.913288
-46.188248 -82.053932 29.899471
-47.614738 -79.480537 33.597424
-49.630905 -75.47052 31.101959
-52.389652 -71.767502 28.659275
-55.622501 -70.994362 36.892731
-55.7024 -70.007782 31.699839
-55.883682 -68.468536 26.443747
-32.917358 -70.689163 50.352173
-36.028374 -69.822289 48.653988
-38.740082 -74.412628 48.738979
-41.419792 -78.805901 49.26865
-46.46447 -72.273636 48.463253
-45.207745 -77.331078 48.873398
-43.571938 -82.244049 48.634125
-45.020126 -84.194366 45.971603
-45.80864 -84.558624 41.485371
-46.545677 -80.252274 23.826097
-51.905991 -69.624786 14.263657
-31.952684 -75.76078 50.268879
-31.088272 -80.663597 49.169453
-30.330414 -85.147995 46.169052
-35.576607 -90.22641 45.515491
-32.578674 -90.161179 43.384155
-29.694 -89.24324 41.083267
-29.017675 -93.327957 34.681599
-45.40501 -88.056366 29.539925
-45.800316 -87.208435 26.51063
-45.69368 -85.741776 28.758949
-64.825638 -58.826801 15.573444
-31.016977 -69.320969 53.078068
-45.060249 -87.309738 34.819191
-44.420307 -89.49173 35.49958
-44.956406 -88.840195 32.54937
-45.010227 -90.363983 30.138569
-51.720222 -76.202194 42.85355
-51.731163 -76.129845 40.536346
-53.005394 -74.577698 41.679478
-42.14077 -63.325333 47.264442
-41.868462 -65.940659 47.378128
-43.758259 -65.51078 47.489895
-52.492802 -74.026268 45.660149
-51.082893 -75.372604 46.480728
-51.516293 -75.958817 44.866886
-50.384644 -77.773842 44.001923
-50.867725 -71.60788 24.281042
-49.658806 -72.533554 22.558054
-51.144226 -70.585609 21.492596
-26.552221 -82.337814 47.318264
-25.161026 -82.309311 47.396553
-26.098387 -84.179718 44.824593
-25.656727 -86.086609 42.041069
-27.132235 -86.330795 42.406837
-38.882671 -82.103943 49.317379
-37.082733 -82.603783 49.187782
-38.246681 -84.759613 48.856476
-37.473003 -99.571671 33.059036
-36.131634 -98.353088 35.083794
-35.934193 -100.228149 31.583273
-55.135696 -68.512161 46.775528
-55.755054 -69.112747 45.106812
-56.314575 -67.079346 46.309311
-54.674843 -65.41716 48.829433
-53.359158 -66.490135 48.812275
-54.341141 -67.642868 48.022064
-53.889805 -69.843071 47.216797
-45.939575 -94.07486 19.671549
-46.439247 -91.711929 19.425671
-58.53944 -64.931549 20.251564
-56.879089 -65.32605 18.525343
-59.021229 -63.711575 17.657492
-60.183712 -60.926041 12.563566
-28.075191 -76.530907 52.419556
-27.534794 -78.556747 51.124092
-28.797377 -78.452148 50.652523
-42.788349 -87.779678 45.197884
-41.333878 -89.212784 45.425751
-42.227798 -89.853348 43.388741
-42.689674 -93.656006 36.057655
-41.655922 -93.734833 38.649895
-41.573753 -95.534668 35.838531
-40.312824 -97.18959 35.252674
-41.537983 -97.25116 32.826096
-41.465897 -98.90303 29.682407
-42.668053 -96.96489 30.296089
-45.251148 -93.393921 25.022064
-44.541882 -95.70845 25.042904
-45.287769 -94.907791 22.362566
-45.19136 -96.427826 19.657553
-46.885273 -82.231979 37.683998
-46.819248 -81.558266 34.794991
-47.797455 -80.236382 36.477505
-51.373238 -75.205139 35.356232
-49.884769 -76.330811 33.915588
-51.122883 -74.452026 32.628525
-50.911903 -73.572586 29.861773
-52.514946 -72.644882 31.377035
-56.569221 -69.607544 40.811756
-55.526726 -71.231201 39.403114
-56.827232 -69.554962 38.367485
-57.202026 -68.955391 33.250862
-57.375488 -68.433052 30.657345
-55.762367 -69.299721 29.075397
-57.823223 -66.964432 25.459406
-34.88303 -67.677429 49.236938
-36.471416 -67.21315 48.394547
-41.13839 -71.262955 48.097183
-39.211128 -71.691284 48.245743
-40.666191 -73.964996 48.596828
-40.122791 -76.683205 49.055943
-42.06073 -76.137222 48.958206
-48.692448 -69.051254 48.427872
-46.900631 -69.707512 48.26561
-48.281097 -71.559143 48.444229
-47.93079 -77.774017 47.904022
-47.031845 -76.460632 48.540962
-46.208954 -78.835938 48.460945
-44.416756 -79.808167 48.889561
-45.305 -81.156639 48.166069
-44.384945 -83.422714 47.565117
-45.98262 -82.117332 46.905846
-47.961578 -81.111008 41.829571
-46.74506 -82.854599 42.947678
-46.875908 -82.686752 40.429222
-46.00219 -84.235931 38.788052
-46.698944 -79.833138 28.815769
-46.298111 -81.1521 26.852566
-46.78532 -78.904083 25.804066
-54.197922 -66.549377 15.061831
-52.439972 -68.530502 16.001375
-53.447662 -67.489914 13.337902
-24.700928 -90.409531 36.165817
-25.076303 -95.341446 30.523958
-33.928806 -72.854858 49.602261
-32.420883 -73.226692 50.372414
-33.467915 -75.481323 49.726082
-33.708439 -83.101776 48.641911
-32.577461 -80.642166 49.20163
-32.158649 -83.100769 48.291557
-30.693533 -82.965225 47.941017
-31.77322 -85.440887 46.82679
-38.289448 -91.455414 44.906006
-37.148991 -89.810745 46.297565
-36.754951 -92.150116 44.157791
-33.539322 -94.61972 38.818901
-33.767883 -92.535812 41.891705
-32.313343 -92.272629 40.541183
-31.133974 -89.764938 42.203979
-30.85968 -91.805832 39.192432
-29.382141 -91.254623 37.968903
-30.567116 -93.834824 35.899651
-55.894836 -64.227859 48.771553
-56.738129 -64.997307 47.507481
-54.929981 -63.208565 49.59473
-45.724232 -91.049698 24.72221
-46.013077 -88.696274 24.193996
-62.623875 -61.904076 18.687185
-61.133259 -62.113297 16.871899
-63.105804 -60.494694 16.176878
-29.80932 -73.992004 52.293083
-44.12402 -88.188614 40.497433
-43.048302 -90.075623 40.996407
-43.78318 -89.930923 38.338394
-43.638889 -91.622131 35.930515
-43.62645 -93.262604 33.322769
-43.665222 -94.858368 30.563005
-44.44305 -92.64241 30.497446
-45.135742 -91.880951 27.620611
-49.1609 -79.344391 40.605721
-49.014355 -78.918419 37.979088
-50.365372 -77.564346 39.319336
-51.596794 -75.78154 38.010818
-52.877209 -74.010422 36.717918
-58.186913 -67.909225 37.433823
-38.560226 -64.192551 47.660744
-38.186874 -66.777176 47.807732
-39.998283 -66.357651 47.474449
-41.537521 -68.586563 47.666386
-43.08847 -70.798477 48.069576
-51.065952 -72.16391 47.968483
-49.458801 -73.151711 48.264088
-50.398193 -74.433449 47.621979
-49.560577 -76.620972 47.236771
-48.580551 -78.720062 46.743385
-47.517784 -80.735077 46.066963
-48.985424 -79.285866 45.086037
-49.167027 -79.483101 43.007378
-48.292953 -75.554016 26.546623
-47.485504 -76.707275 24.72739
-48.437904 -74.578369 23.640579
-48.842438 -73.624435 20.764593
-49.542267 -72.702591 17.943172
-56.234276 -64.21788 9.88992
-54.648994 -66.419495 10.752056
-24.350471 -80.730606 50.122864
-23.733629 -82.493706 47.678207
-23.15999 -84.372238 45.036682
-22.618683 -86.448868 42.319145
-24.148512 -86.106995 42.000137
-25.203945 -88.140579 39.102676
-26.298698 -90.438446 36.363884
-36.383862 -77.546188 49.272465
-34.643471 -77.857727 49.429268
-35.868954 -80.266663 49.315147
-35.351784 -82.939011 48.952541
-34.858685 -85.526947 48.069359
-37.745045 -95.759659 39.633163
-36.476318 -94.346039 41.504333
-36.286861 -96.40538 38.437176
-34.813934 -96.68071 37.004272
-33.319748 -96.625854 35.445866
-31.786509 -96.328384 33.896431
-33.039711 -98.605087 31.937052
-53.800045 -72.584854 44.8018
-54.115517 -72.88736 42.798927
-55.03051 -71.059296 43.934654
-56.222733 -69.468765 43.088394
-57.418739 -67.83799 42.290352
-57.467609 -65.558701 45.83535
-48.986404 -66.523438 48.494766
-50.372894 -68.302521 48.591393
-51.928726 -67.450897 48.727451
-51.56723 -69.828743 48.328281
-52.540863 -71.061783 47.617874
-53.282803 -71.981026 46.432369
-54.396492 -68.086182 22.146984
-52.872253 -68.740242 20.456623
-54.803345 -66.992737 19.463005
-55.379959 -65.840637 16.795874
-56.112804 -64.633232 14.164188
-59.576347 -62.370483 15.088678
-58.13102 -62.766594 13.326048
-56.971657 -63.37125 11.587613
-57.913734 -62.052963 9.083189
-26.284569 -78.722725 51.666203
-27.029203 -80.482834 49.430187
-27.920752 -82.509949 47.410439
-41.046577 -85.714386 48.216984
-39.344307 -86.630981 48.168331
-40.372772 -88.133331 47.031799
-39.825584 -90.458252 45.332649
-39.428974 -92.668091 43.140331
-41.856956 -91.841171 41.188759
-40.558403 -93.422668 41.034348
-39.177452 -94.750565 40.513092
-39.034538 -96.706787 37.536316
-38.937145 -98.552643 34.310501
-38.80442 -100.315948 30.940235
-43.672703 -96.42038 27.69384
-43.573944 -97.961319 24.752228
-45.611355 -85.108459 33.946144
-45.782757 -84.306335 30.910711
-46.144196 -82.911179 32.932899
-46.734764 -80.736496 31.824137
-47.452232 -78.601562 30.656368
-48.784996 -78.264343 35.209362
-48.539307 -77.44561 32.356178
-48.35025 -76.523987 29.459444
-49.46328 -74.521866 28.258459
-50.806549 -72.612228 27.075071
-52.377304 -70.807999 25.92807
-54.263664 -72.913811 40.517456
-54.28611 -72.696236 38.050583
-54.228481 -72.269485 35.47506
-57.028397 -69.332443 35.83017
-55.668282 -70.578842 34.311798
-54.13858 -71.668228 32.843689
-54.065102 -70.924438 30.185987
-54.055866 -70.065742 27.514526
-54.154602 -69.114204 24.833591
-56.097221 -67.524231 23.805439
-58.140762 -66.017975 22.855463
-60.19677 -64.563034 21.993515
-62.156273 -63.1194 21.226412
-32.157063 -68.725922 51.615974
-33.442596 -68.179428 50.320839
-34.400673 -70.245346 49.402157
-35.57552 -72.479561 48.988255
-37.781429 -69.411812 48.119289
-37.345306 -72.094032 48.537724
-36.878769 -74.812363 48.965107
-38.219505 -77.15387 49.154167
-39.520134 -79.402985 49.34219
-40.724895 -81.457588 49.318432
-45.370537 -67.665154 47.885315
-45.021767 -70.284897 48.135719
-44.566235 -72.904579 48.480965
-47.729065 -74.032791 48.505054
-45.898788 -74.817612 48.695545
-43.997963 -75.516525 48.84296
-43.326546 -78.113083 49.115253
-42.579479 -80.686104 49.177147
-41.801033 -83.225021 48.910557
-42.734352 -84.631851 48.010971
-43.523197 -85.632477 46.588596
-44.173782 -86.214752 44.679813
-46.456463 -82.678017 45.140083
-45.488914 -84.562561 43.913853
-44.695091 -86.398422 42.36499
-45.097431 -86.229919 39.743164
-45.395126 -85.774826 36.910316
-45.961342 -83.435913 27.848604
-46.2118 -82.550018 24.796146
-47.06654 -77.989929 22.819902
-51.666115 -69.55928 18.726187
-50.878681 -70.582428 16.96636
-31.583164 -71.160416 51.477776
-31.052813 -73.602646 51.279106
-30.564119 -76.016747 50.909882
-33.016716 -78.090179 49.639072
-31.509012 -78.252594 49.910843
-30.110617 -78.363602 50.248383
-29.686871 -80.611206 49.182423
-29.290941 -82.745499 47.632633
-28.922256 -84.778046 45.572357
-37.655235 -87.338974 47.86578
-36.006763 -87.80159 47.328552
-34.418724 -87.998917 46.595352
-35.24519 -92.509598 43.129345
-34.053825 -90.335526 44.519135
-32.897068 -87.937561 45.723034
-31.431889 -87.656494 44.783478
-30.000656 -87.227295 43.859322
-28.575565 -86.74791 43.038403
-28.233757 -88.716293 40.12925
-27.863047 -90.755035 36.991058
-27.413378 -92.932312 33.795052
-30.19591 -95.913513 32.500893
-28.539501 -95.524719 31.399372
-26.824963 -95.298889 30.711666
-31.355065 -68.155823 53.233076
-30.880714 -68.518338 54.106088
-43.873213 -64.203322 47.462244
-42.949515 -64.418057 47.377168
-43.064469 -63.110598 47.349518
-36.596311 -100.796883 30.582001
-36.703598 -99.89991 32.321154
-37.365716 -100.468643 31.319883
-35.771471 -101.152244 29.82736
-36.596311 -100.796883 30.582001
-28.678907 -76.398395 52.026224
-28.367484 -75.4687 52.899912
-28.9712 -75.336189 52.50658
-58.247404 -67.686901 30.192192
-58.094135 -67.920117 31.481879
-57.475063 -68.101169 29.358608
-58.247404 -67.686901 30.192192
-36.685712 -65.935936 48.336194
-35.920299 -66.188252 48.788528
-36.134596 -64.911037 48.730175
-24.929707 -92.851967 33.361723
-24.398013 -91.670654 34.774379
-25.232623 -91.590844 34.75316
-25.42031 -94.056801 31.932231
-24.5857 -94.136612 31.95345
-24.929707 -92.851967 33.361723
-56.469623 -63.569053 48.705908
-56.012825 -63.174894 49.217012
-55.530397 -62.665247 49.628601
-55.037515 -62.139688 49.924413
-56.012825 -63.174894 49.217012
-55.412408 -63.718212 49.183141
-55.530397 -62.665247 49.628601
-46.09388 -85.608917 24.599125
-45.997647 -86.777137 25.002659
-45.89655 -86.040214 26.107096
-46.177143 -84.439018 24.190766
-46.09388 -85.608917 24.599125
-64.206907 -58.873638 14.642181
-65.047245 -57.981033 14.364971
-30.097812 -72.828342 52.516783
-29.553959 -73.099502 53.193756
-56.696636 -64.132955 7.839409
-56.110875 -64.756821 9.071866
-56.820038 -63.594015 8.657463
-25.028261 -80.629704 49.916449
-24.681101 -79.86409 51.203823
-25.358891 -79.763188 50.997408
-57.67301 -64.534468 46.513752
-57.102869 -65.278004 46.671415
-57.30827 -64.253771 47.349818
-49.816486 -66.17923 48.66842
-49.092433 -65.256645 48.57258
-49.922516 -64.912437 48.746234
-26.592652 -77.781391 52.459953
-26.000894 -77.974037 52.89522
-40.16127 -99.770211 30.392865
-39.444485 -100.462776 29.840376
-39.521206 -99.623383 31.492724
-41.929655 -99.530876 26.85878
-41.370417 -99.707832 28.077305
-42.025135 -98.726074 28.463883
-42.467487 -99.329125 25.695591
-41.929655 -99.530876 26.85878
-43.871285 -98.361221 21.994588
-43.440071 -98.727142 23.261672
-44.005157 -97.595398 23.485144
-44.295609 -97.991157 20.788384
-43.871285 -98.361221 21.994588
-45.055672 -97.193543 18.289463
-45.529411 -96.016754 18.372305
-58.969657 -65.773209 23.712928
-57.981993 -66.491204 24.157435
-58.810888 -66.246437 25.014899
-59.997661 -65.045738 23.281954
-59.168766 -65.290504 22.424489
-58.969657 -65.773209 23.712928
-62.796515 -62.916063 22.159885
-61.932621 -63.622055 22.504065
-63.02763 -62.383274 20.891142
-62.796515 -62.916063 22.159885
-33.715675 -66.94783 50.340266
-33.104416 -67.251808 51.049049
-46.295765 -67.397294 48.023497
-45.500416 -66.358609 47.828102
-46.425644 -66.090748 47.966284
-46.574812 -80.967587 22.806643
-46.407873 -82.116458 23.291668
-46.378738 -81.401146 24.311121
-51.225783 -70.715499 14.731472
-50.712128 -71.194321 16.082823
-51.392336 -70.103607 15.615009
-53.912773 -67.536964 11.199098
-54.642632 -67.03051 9.937238
-22.863511 -88.534988 39.414633
-22.35029 -87.616119 40.990137
-23.131903 -87.367737 40.743641
-30.796737 -97.148392 31.466711
-30.99121 -96.120948 33.198662
-31.592036 -97.355827 32.16448
-28.211561 -96.707222 29.843528
-29.108299 -96.81144 30.28535
-27.354292 -96.594307 29.499676
-27.682232 -95.411804 31.055519
-28.211561 -96.707222 29.843528
-26.432255 -96.58841 29.298957
-27.354292 -96.594307 29.499676
-65.288426 -58.771826 16.531506
-64.594944 -59.585241 16.809075
-65.057732 -59.530265 17.767136
-65.50608 -57.960991 15.313163
-65.288426 -58.771826 16.531506
-65.047245 -57.981033 14.364971
-65.50608 -57.960991 15.313163
-30.506552 -69.643567 53.865715
-30.880714 -68.518338 54.106088
-30.701641 -70.492825 52.909275
-30.506552 -69.643567 53.865715
-57.401691 -63.53169 6.635237
-58.003781 -62.308644 6.2366
-35.127036 -100.388908 30.792455
-34.466263 -99.589714 31.768961
-35.273421 -99.428955 32.559779
-35.127036 -100.388908 30.792455
-35.771471 -101.152244 29.82736
-50.749233 -64.599724 48.993544
-49.922516 -64.912437 48.746234
-54.017001 -65.953647 48.820854
-53.488551 -65.335941 49.117718
-54.146393 -64.799453 49.126297
-46.236644 -93.656739 18.330824
-45.903519 -94.840271 18.379303
-46.48648 -92.475273 18.207885
-46.236644 -93.656739 18.330824
-46.189411 -92.893394 19.54861
-46.711888 -91.290817 18.045259
-46.48648 -92.475273 18.207885
-61.185795 -60.005398 12.225976
-60.919557 -60.792265 13.458991
-61.92164 -59.871622 13.121402
-60.498545 -60.162348 11.331854
-61.185795 -60.005398 12.225976
-59.846397 -60.386646 10.45137
-59.531565 -61.15034 11.683082
-60.498545 -60.162348 11.331854
-59.269397 -60.647404 9.577592
-59.846397 -60.386646 10.45137
-27.818742 -75.695851 53.463505
-28.367484 -75.4687 52.899912
-27.487963 -76.685482 52.83663
-27.818742 -75.695851 53.463505
-27.804993 -77.543827 51.771824
-27.217765 -77.698402 52.188898
-27.487963 -76.685482 52.83663
-45.903519 -94.840271 18.379303
-45.529411 -96.016754 18.372305
-45.565467 -95.251343 19.664551
-58.007404 -68.181286 32.778637
-57.854827 -68.341724 34.066187
-58.660206 -67.56762 33.593962
-57.288757 -68.694221 31.954103
-58.007404 -68.181286 32.778637
-58.094135 -67.920117 31.481879
-56.668503 -68.534504 28.567634
-56.568928 -68.866387 29.866371
-57.475063 -68.101169 29.358608
-56.72916 -68.118911 27.25181
-55.823025 -68.884129 27.759572
-56.668503 -68.534504 28.567634
-57.698931 -67.36686 26.759639
-56.853453 -67.716484 25.951577
-56.72916 -68.118911 27.25181
-58.633163 -66.641377 26.303947
-57.698931 -67.36686 26.759639
-58.810888 -66.246437 25.014899
-58.633163 -66.641377 26.303947
-35.126106 -66.420391 49.209724
-34.435892 -66.696831 49.798315
-35.677223 -67.44529 48.815742
-35.126106 -66.420391 49.209724
-35.920299 -66.188252 48.788528
-47.714055 -76.444512 20.844634
-48.136192 -75.329438 20.358438
-23.897154 -90.568726 36.30294
-23.369252 -89.507263 37.8041
-24.173026 -89.348069 37.666977
-23.897154 -90.568726 36.30294
-24.398013 -91.670654 34.774379
-24.202348 -95.524017 30.701346
-24.5857 -94.136612 31.95345
-24.62863 -96.740494 29.276995
-24.202348 -95.524017 30.701346
-56.89127 -63.953778 48.073872
-56.316482 -64.612583 48.139517
-56.469623 -63.569053 48.705908
-57.30827 -64.253771 47.349818
-56.89127 -63.953778 48.073872
-54.38384 -62.556326 49.792318
-55.037515 -62.139688 49.924413
-54.273962 -63.695156 49.508945
-54.38384 -62.556326 49.792318
-54.802412 -64.312862 49.212081
-54.146393 -64.799453 49.126297
-54.273962 -63.695156 49.508945
-45.98639 -90.624 23.275442
-46.062544 -91.377884 22.024031
-45.800387 -91.803582 23.470799
-46.130812 -89.447288 23.011335
-45.98639 -90.624 23.275442
-45.868655 -89.872986 24.458103
-46.244999 -88.269249 22.719338
-46.130812 -89.447288 23.011335
-46.104027 -87.521057 23.844342
-45.906697 -87.952354 25.352313
-45.997647 -86.777137 25.002659
-46.244999 -88.269249 22.719338
-46.104027 -87.521057 23.844342
-63.346991 -59.707585 14.943897
-63.965721 -59.660747 15.875161
-64.206907 -58.873638 14.642181
-62.62179 -59.789482 14.032667
-62.380603 -60.576592 15.265647
-63.346991 -59.707585 14.943897
-61.92164 -59.871622 13.121402
-62.62179 -59.789482 14.032667
-29.234548 -74.199249 52.836675
-29.553959 -73.099502 53.193756
-29.545972 -75.128944 51.962988
-28.9712 -75.336189 52.50658
-29.234548 -74.199249 52.836675
-58.666737 -67.110039 38.283752
-58.009212 -67.929234 38.679066
-58.489036 -67.130047 39.528996
-58.895308 -67.109932 37.024186
-58.666737 -67.110039 38.283752
-59.055666 -67.019348 35.74803
-58.347271 -67.818642 36.157668
-58.895308 -67.109932 37.024186
-59.271709 -66.957962 34.468096
-59.055666 -67.019348 35.74803
-58.660206 -67.56762 33.593962
-59.271709 -66.957962 34.468096
-48.645588 -74.253685 19.843098
-48.136192 -75.329438 20.358438
-48.333043 -74.700187 21.279933
-48.995503 -73.792763 18.432388
-48.645588 -74.253685 19.843098
-49.192352 -73.163513 19.353883
-49.463888 -73.364422 17.037752
-48.995503 -73.792763 18.432388
-55.318234 -65.857628 9.502934
-55.441635 -65.318687 10.320988
-56.110875 -64.756821 9.071866
-54.642632 -67.03051 9.937238
-55.318234 -65.857628 9.502934
-56.696636 -64.132955 7.839409
-57.401691 -63.53169 6.635237
-24.020387 -80.077553 51.555041
-24.681101 -79.86409 51.203823
-23.649311 -80.933964 50.404238
-24.020387 -80.077553 51.555041
-23.34089 -81.815514 49.18191
-23.649311 -80.933964 50.404238
-24.04205 -81.612156 48.900536
-23.00069 -82.715729 47.931253
-23.34089 -81.815514 49.18191
-22.71387 -83.654995 46.61049
-23.00069 -82.715729 47.931253
-23.44681 -83.432972 46.357444
-22.405183 -84.641319 45.310089
-22.71387 -83.654995 46.61049
-22.889336 -85.410553 43.677914
-22.134529 -85.679634 43.95132
-22.405183 -84.641319 45.310089
-32.218637 -98.494179 31.18479
-31.592036 -97.355827 32.16448
-32.41311 -97.466735 32.916742
-33.679794 -99.577377 30.969345
-33.826179 -98.617424 32.736669
-34.466263 -99.589714 31.768961
-32.830074 -99.608329 30.196317
-33.679794 -99.577377 30.969345
-32.218637 -98.494179 31.18479
-32.830074 -99.608329 30.196317
-58.048902 -64.762448 45.601543
-57.67301 -64.534468 46.513752
-57.782938 -65.753228 44.829724
-58.048902 -64.762448 45.601543
-57.510277 -66.752212 44.136654
-57.194948 -66.557686 45.14228
-57.782938 -65.753228 44.829724
-57.758503 -66.892872 43.057225
-57.170513 -67.69733 43.369782
-57.510277 -66.752212 44.136654
-58.034759 -67.015171 41.925736
-57.758503 -66.892872 43.057225
-58.241146 -67.070797 40.742714
-57.625125 -67.893616 41.107331
-58.034759 -67.015171 41.925736
-58.489036 -67.130047 39.528996
-58.241146 -67.070797 40.742714
-47.336556 -65.839405 48.168219
-46.425644 -66.090748 47.966284
-48.219261 -65.536407 48.334762
-49.092433 -65.256645 48.57258
-48.103699 -66.826436 48.328222
-47.336556 -65.839405 48.168219
-48.219261 -65.536407 48.334762
-51.418812 -65.445472 49.00267
-50.749233 -64.599724 48.993544
-52.775106 -65.773029 48.98777
-53.488551 -65.335941 49.117718
-52.05989 -66.25341 48.945358
-52.775106 -65.773029 48.98777
-52.643942 -66.970516 48.769863
-51.287647 -66.642959 48.784763
-51.418812 -65.445472 49.00267
-52.05989 -66.25341 48.945358
-46.343897 -90.955116 20.627173
-46.157894 -92.134697 20.822529
-46.062544 -91.377884 22.024031
-46.599739 -90.531571 19.196087
-46.343897 -90.955116 20.627173
-46.711888 -91.290817 18.045259
-46.599739 -90.531571 19.196087
-58.786556 -60.986566 8.717887
-58.396575 -61.7138 9.942893
-59.269397 -60.647404 9.577592
-58.401443 -61.363663 7.872717
-58.786556 -60.986566 8.717887
-58.147476 -61.822256 7.043626
-57.659767 -62.511556 8.254098
-58.401443 -61.363663 7.872717
-58.003781 -62.308644 6.2366
-58.147476 -61.822256 7.043626
-25.64815 -78.86015 51.975493
-26.000894 -77.974037 52.89522
-25.99531 -79.625763 50.688118
-25.358891 -79.763188 50.997408
-25.64815 -78.86015 51.975493
-26.909682 -78.639736 51.395148
-26.592652 -77.781391 52.459953
-27.217765 -77.698402 52.188898
-38.031425 -100.840782 30.260483
-37.365716 -100.468643 31.319883
-38.138711 -99.94381 31.999636
-38.676857 -101.17337 29.232939
-38.031425 -100.840782 30.260483
-38.676857 -101.17337 29.232939
-39.444485 -100.462776 29.840376
-40.775223 -99.756317 29.211462
-40.16127 -99.770211 30.392865
-40.851944 -98.916923 30.86381
-40.775223 -99.756317 29.211462
-41.370417 -99.707832 28.077305
-42.962272 -99.035225 24.449025
-42.467487 -99.329125 25.695591
-43.079158 -98.255219 25.998793
-42.962272 -99.035225 24.449025
-43.440071 -98.727142 23.261672
-44.673103 -97.590332 19.50813
-44.295609 -97.991157 20.788384
-44.813866 -96.828652 20.937807
-44.673103 -97.590332 19.50813
-45.055672 -97.193543 18.289463
-60.95287 -64.343872 22.887617
-59.997661 -65.045738 23.281954
-61.176521 -63.841217 21.609963
-60.95287 -64.343872 22.887617
-61.932621 -63.622055 22.504065
-63.261431 -61.775612 19.621529
-62.390074 -62.511738 19.956798
-63.02763 -62.383274 20.891142
-64.131619 -60.995414 19.300289
-63.494062 -61.123879 18.365946
-63.261431 -61.775612 19.621529
-64.835544 -60.229258 19.010366
-64.131619 -60.995414 19.300289
-65.057732 -59.530265 17.767136
-64.835544 -60.229258 19.010366
-32.461649 -67.525055 51.696617
-31.925108 -67.8583 52.502029
-32.79983 -68.452675 50.968407
-32.461649 -67.525055 51.696617
-33.104416 -67.251808 51.049049
-34.162813 -67.928428 49.778889
-33.715675 -66.94783 50.340266
-34.435892 -66.696831 49.798315
-44.694277 -65.281421 47.630392
-43.873213 -64.203322 47.462244
-44.564398 -66.587967 47.687605
-44.694277 -65.281421 47.630392
-45.500416 -66.358609 47.828102
-36.372866 -63.680762 48.776529
-36.134596 -64.911037 48.730175
-37.102981 -63.406885 48.304193
-36.372866 -63.680762 48.776529
-37.93309 -63.1738 47.995646
-37.730117 -64.425636 47.969292
-37.102981 -63.406885 48.304193
-38.729996 -62.922323 47.677433
-37.93309 -63.1738 47.995646
-39.609453 -62.702396 47.511578
-39.439684 -63.972624 47.494889
-38.729996 -62.922323 47.677433
-40.458866 -62.467892 47.346089
-39.609453 -62.702396 47.511578
-41.369681 -62.25421 47.313793
-41.229956 -63.539015 47.296738
-40.458866 -62.467892 47.346089
-42.254935 -62.030709 47.29108
-41.369681 -62.25421 47.313793
-43.064469 -63.110598 47.349518
-42.254935 -62.030709 47.29108
-46.286652 -83.27803 23.737057
-46.177143 -84.439018 24.190766
-46.102291 -83.711006 25.249854
-46.286652 -83.27803 23.737057
-46.407873 -82.116458 23.291668
-47.335501 -77.551506 21.356949
-47.445093 -76.882935 22.307588
-47.714055 -76.444512 20.844634
-47.033188 -78.68634 21.836388
-47.335501 -77.551506 21.356949
-46.772756 -79.817512 22.339486
-46.806109 -79.121102 23.323
-47.033188 -78.68634 21.836388
-46.574812 -80.967587 22.806643
-46.772756 -79.817512 22.339486
-50.04392 -72.254402 16.571229
-50.210474 -71.642509 17.454766
-50.712128 -71.194321 16.082823
-49.463888 -73.364422 17.037752
-50.04392 -72.254402 16.571229
-53.312107 -68.072174 12.49202
-54.048328 -66.954704 12.044979
-53.912773 -67.536964 11.199098
-52.541272 -69.13961 12.954898
-52.676827 -68.55735 13.80078
-53.312107 -68.072174 12.49202
-51.868713 -70.269241 13.406879
-52.541272 -69.13961 12.954898
-51.225783 -70.715499 14.731472
-51.868713 -70.269241 13.406879
-21.851138 -86.786324 42.66193
-22.134529 -85.679634 43.95132
-21.851138 -86.786324 42.66193
-22.35029 -87.616119 40.990137
-22.863511 -88.534988 39.414633
-23.369252 -89.507263 37.8041
-31.58702 -69.023446 52.347021
-31.355065 -68.155823 53.233076
-31.925108 -67.8583 52.502029
-30.984735 -71.412548 52.109129
-30.701641 -70.492825 52.909275
-31.300071 -70.240692 52.277922
-30.719559 -72.633663 52.009794
-30.984735 -71.412548 52.109129
-31.317988 -72.381531 51.378441
-30.431067 -73.797325 51.786095
-30.097812 -72.828342 52.516783
-30.719559 -72.633663 52.009794
-29.936504 -97.005836 30.83611
-30.796737 -97.148392 31.466711
-29.367705 -95.719116 31.950132
-29.936504 -97.005836 30.83611
-29.108299 -96.81144 30.28535
-25.557925 -96.609688 29.205103
-25.950633 -95.320167 30.617812
-26.432255 -96.58841 29.298957
-24.62863 -96.740494 29.276995
-25.557925 -96.609688 29.205103
3 0 104 102
3 406 106 407
3 0 109 107
3 0 102 109
3 1 113 111
3 408 116 409
3 410 409 114
3 408 409 410
3 1 119 117
3 1 111 119
3 2 123 121
3 4 126 124
3 4 128 126
3 3 131 129
3 411 134 412
3 413 412 132
3 411 412 413
3 415 414 134
3 5 137 135
3 5 140 138
3 5 135 140
3 8 143 142
3 9 146 144
3 11 416 418
3 416 148 417
3 416 417 418
3 11 150 148
3 12 153 151
3 14 156 154
3 14 158 156
3 14 160 158
3 8 163 161
3 8 142 163
3 15 167 165
3 17 170 168
3 17 172 170
3 6 175 173
3 419 177 420
3 422 421 177
3 18 423 425
3 423 181 424
3 423 424 425
3 20 184 182
3 20 186 184
3 7 189 187
3 21 192 190
3 21 194 192
3 21 196 194
3 15 199 197
3 15 165 199
3 16 203 201
3 10 206 204
3 22 426 428
3 428 427 207
3 426 427 428
3 22 429 431
3 429 208 430
3 429 430 431
3 19 211 209
3 23 214 212
3 23 216 214
3 13 219 217
3 24 222 220
3 24 224 222
3 24 226 224
3 433 432 227
3 434 229 435
3 436 227 437
3 438 437 229
3 436 437 438
3 25 231 230
3 26 439 441
3 441 440 103
3 439 440 441
3 26 442 443
3 27 234 232
3 445 444 105
3 446 235 447
3 29 238 236
3 31 239 108
3 31 240 239
3 31 242 240
3 25 243 110
3 25 230 243
3 33 246 244
3 35 247 112
3 35 248 247
3 37 252 250
3 39 253 115
3 39 254 253
3 40 257 255
3 42 258 118
3 42 259 258
3 42 261 259
3 33 262 120
3 33 244 262
3 44 265 263
3 46 266 122
3 46 267 266
3 47 448 450
3 450 449 268
3 448 449 450
3 48 451 453
3 451 270 452
3 451 452 453
3 49 271 125
3 49 272 271
3 49 274 272
3 51 275 127
3 51 276 275
3 52 279 277
3 54 280 130
3 54 281 280
3 55 284 282
3 57 285 133
3 57 286 285
3 57 288 286
3 58 291 289
3 60 292 136
3 60 293 292
3 454 294 455
3 456 455 228
3 454 455 456
3 62 457 459
3 457 295 458
3 457 458 459
3 62 296 295
3 63 297 139
3 63 298 297
3 63 299 298
3 58 300 141
3 58 289 300
3 64 303 301
3 66 304 145
3 66 305 304
3 28 306 233
3 67 307 147
3 67 308 307
3 67 309 308
3 460 310 461
3 68 311 149
3 68 312 311
3 69 315 313
3 71 316 152
3 71 317 316
3 30 318 237
3 72 319 155
3 72 320 319
3 72 321 320
3 73 322 157
3 73 323 322
3 73 462 464
3 464 463 323
3 462 463 464
3 74 465 467
3 467 466 159
3 465 466 467
3 74 468 469
3 32 324 241
3 75 325 162
3 75 470 472
3 472 471 325
3 470 471 472
3 75 473 474
3 476 475 164
3 76 328 326
3 78 329 166
3 78 330 329
3 34 331 245
3 79 332 169
3 79 333 332
3 79 334 333
3 80 335 171
3 80 336 335
3 59 337 290
3 81 338 174
3 81 339 338
3 36 340 249
3 82 341 176
3 82 342 341
3 82 343 342
3 83 344 178
3 83 345 344
3 83 346 345
3 477 347 478
3 479 478 179
3 477 478 479
3 480 348 481
3 482 481 347
3 480 481 482
3 483 349 484
3 486 485 349
3 487 351 488
3 85 352 180
3 85 353 352
3 38 354 251
3 86 355 183
3 86 356 355
3 86 357 356
3 87 358 185
3 87 359 358
3 61 489 491
3 489 360 490
3 489 490 491
3 88 361 188
3 88 362 361
3 41 363 256
3 89 364 191
3 89 365 364
3 89 366 365
3 90 367 193
3 90 368 367
3 90 369 368
3 91 370 195
3 91 371 370
3 43 372 260
3 92 373 198
3 92 374 373
3 92 375 374
3 76 376 200
3 76 326 376
3 77 377 327
3 93 378 202
3 93 492 494
3 494 493 378
3 492 493 494
3 45 379 264
3 65 380 302
3 94 381 205
3 94 495 497
3 497 496 381
3 495 496 497
3 499 498 269
3 50 500 502
3 502 501 273
3 500 501 502
3 84 382 350
3 95 383 210
3 95 384 383
3 53 385 278
3 96 386 213
3 96 387 386
3 96 388 387
3 97 389 215
3 97 390 389
3 70 391 314
3 98 392 218
3 98 393 392
3 56 394 283
3 99 395 221
3 99 396 395
3 99 397 396
3 100 398 223
3 100 399 398
3 100 400 399
3 101 401 225
3 101 402 401
3 503 403 504
3 505 504 287
3 503 504 505
3 506 404 507
3 508 405 509
3 510 509 404
3 508 509 510
3 512 511 405
3 102 103 25
3 104 103 102
3 104 26 103
3 513 105 514
3 515 514 27
3 513 514 515
3 516 105 517
3 519 518 105
3 106 520 521
3 106 522 523
3 107 108 29
3 109 108 107
3 109 31 108
3 109 110 31
3 102 110 109
3 102 25 110
3 111 112 33
3 113 112 111
3 113 35 112
3 114 115 37
3 116 115 114
3 116 39 115
3 117 118 40
3 119 118 117
3 119 42 118
3 119 120 42
3 111 120 119
3 111 33 120
3 121 122 44
3 123 122 121
3 123 46 122
3 525 524 47
3 124 125 48
3 126 125 124
3 126 49 125
3 126 127 49
3 128 127 126
3 128 51 127
3 129 130 52
3 131 130 129
3 131 54 130
3 132 133 55
3 134 133 132
3 134 57 133
3 134 526 528
3 528 527 57
3 526 527 528
3 530 529 134
3 135 136 58
3 137 136 135
3 137 60 136
3 531 62 532
3 138 533 535
3 533 139 534
3 533 534 535
3 140 139 138
3 140 63 139
3 140 141 63
3 135 141 140
3 135 58 141
3 142 536 537
3 143 538 540
3 540 539 142
3 538 539 540
3 143 541 542
3 144 145 64
3 146 145 144
3 146 66 145
3 543 147 544
3 545 544 28
3 543 544 545
3 546 147 547
3 548 67 549
3 550 549 147
3 548 549 550
3 552 551 67
3 148 553 554
3 148 555 556
3 148 557 559
3 557 149 558
3 557 558 559
3 150 149 148
3 150 68 149
3 151 152 69
3 153 152 151
3 153 71 152
3 154 155 30
3 156 155 154
3 156 72 155
3 156 157 72
3 158 157 156
3 158 73 157
3 158 159 73
3 160 159 158
3 160 74 159
3 161 162 32
3 163 162 161
3 163 75 162
3 163 164 75
3 142 164 163
3 142 560 562
3 562 561 164
3 560 561 562
3 165 166 76
3 167 166 165
3 167 78 166
3 168 169 34
3 170 169 168
3 170 79 169
3 170 171 79
3 172 171 170
3 172 80 171
3 173 174 59
3 175 174 173
3 175 81 174
3 563 176 564
3 565 564 36
3 563 564 565
3 177 566 568
3 566 176 567
3 566 567 568
3 177 82 176
3 177 178 82
3 569 178 570
3 571 570 177
3 569 570 571
3 572 83 573
3 574 573 178
3 572 573 574
3 575 179 576
3 577 576 83
3 575 576 577
3 578 179 579
3 581 580 179
3 582 180 583
3 181 584 586
3 584 180 585
3 584 585 586
3 181 85 180
3 182 183 38
3 184 183 182
3 184 86 183
3 184 185 86
3 186 185 184
3 186 87 185
3 187 188 61
3 189 188 187
3 189 88 188
3 190 191 41
3 192 191 190
3 192 89 191
3 192 193 89
3 194 193 192
3 194 90 193
3 194 195 90
3 196 195 194
3 196 91 195
3 197 198 43
3 199 198 197
3 199 92 198
3 199 200 92
3 165 200 199
3 165 76 200
3 201 202 77
3 203 202 201
3 203 93 202
3 588 587 45
3 204 205 65
3 206 205 204
3 206 94 205
3 207 589 591
3 591 590 50
3 589 590 591
3 593 592 207
3 208 594 595
3 208 596 597
3 209 210 84
3 211 210 209
3 211 95 210
3 212 213 53
3 214 213 212
3 214 96 213
3 214 215 96
3 216 215 214
3 216 97 215
3 217 218 70
3 219 218 217
3 219 98 218
3 220 221 56
3 222 221 220
3 222 99 221
3 222 223 99
3 224 223 222
3 224 100 223
3 224 225 100
3 226 225 224
3 226 101 225
3 227 228 5
3 598 228 599
3 600 599 227
3 598 599 600
3 602 601 228
3 229 603 604
3 229 605 606
3 229 607 609
3 607 138 608
3 607 608 609
3 227 138 229
3 227 5 138
3 230 610 612
3 612 611 8
3 610 611 612
3 231 613 615
3 615 614 230
3 613 614 615
3 231 616 617
3 103 231 25
3 618 231 619
3 620 619 103
3 618 619 620
3 622 621 231
3 232 233 9
3 234 233 232
3 234 28 233
3 105 234 27
3 623 234 624
3 625 624 105
3 623 624 625
3 626 28 627
3 628 627 234
3 626 627 628
3 630 629 28
3 235 631 632
3 235 633 635
3 633 11 634
3 633 634 635
3 236 237 12
3 238 237 236
3 238 30 237
3 108 238 29
3 239 238 108
3 239 30 238
3 239 154 30
3 240 154 239
3 240 14 154
3 240 241 14
3 242 241 240
3 242 32 241
3 110 242 31
3 243 242 110
3 243 32 242
3 243 161 32
3 230 161 243
3 230 8 161
3 244 245 15
3 246 245 244
3 246 34 245
3 112 246 33
3 247 246 112
3 247 34 246
3 247 168 34
3 248 168 247
3 248 17 168
3 636 249 637
3 638 637 6
3 636 637 638
3 639 249 640
3 641 36 642
3 643 642 249
3 641 642 643
3 644 36 645
3 647 646 36
3 250 251 18
3 252 251 250
3 252 38 251
3 115 252 37
3 253 252 115
3 253 38 252
3 253 182 38
3 254 182 253
3 254 20 182
3 255 256 7
3 257 256 255
3 257 41 256
3 118 257 40
3 258 257 118
3 258 41 257
3 258 190 41
3 259 190 258
3 259 21 190
3 259 260 21
3 261 260 259
3 261 43 260
3 120 261 42
3 262 261 120
3 262 43 261
3 262 197 43
3 244 197 262
3 244 15 197
3 263 264 16
3 265 264 263
3 265 45 264
3 122 265 44
3 266 265 122
3 266 45 265
3 266 648 650
3 650 649 45
3 648 649 650
3 267 651 653
3 653 652 266
3 651 652 653
3 267 654 655
3 268 269 10
3 656 269 657
3 658 657 268
3 656 657 658
3 660 659 269
3 662 661 47
3 270 663 664
3 270 665 666
3 125 270 48
3 271 270 125
3 271 667 669
3 669 668 270
3 667 668 669
3 271 670 671
3 272 672 674
3 674 673 271
3 672 673 674
3 272 675 676
3 272 677 679
3 677 273 678
3 677 678 679
3 274 273 272
3 274 50 273
3 127 274 49
3 275 274 127
3 275 50 274
3 275 207 50
3 276 207 275
3 276 22 207
3 277 278 19
3 279 278 277
3 279 53 278
3 130 279 52
3 280 279 130
3 280 53 279
3 280 212 53
3 281 212 280
3 281 23 212
3 282 283 13
3 284 283 282
3 284 56 283
3 133 284 55
3 285 284 133
3 285 56 284
3 285 220 56
3 286 220 285
3 286 24 220
3 286 287 24
3 288 287 286
3 288 680 682
3 682 681 287
3 680 681 682
3 683 288 684
3 685 684 57
3 683 684 685
3 686 288 687
3 689 688 288
3 289 290 1
3 291 290 289
3 291 59 290
3 136 291 58
3 292 291 136
3 292 59 291
3 292 173 59
3 293 173 292
3 293 6 173
3 228 137 5
3 294 137 228
3 294 60 137
3 690 294 691
3 692 294 693
3 694 60 695
3 696 695 294
3 694 695 696
3 697 293 698
3 699 698 60
3 697 698 699
3 700 293 701
3 702 6 703
3 704 703 293
3 702 703 704
3 706 705 6
3 707 61 708
3 295 709 710
3 295 711 713
3 711 61 712
3 711 712 713
3 295 187 61
3 296 187 295
3 296 7 187
3 714 62 715
3 139 716 717
3 297 718 720
3 720 719 139
3 718 719 720
3 297 721 723
3 721 62 722
3 721 722 723
3 297 296 62
3 298 296 297
3 298 7 296
3 298 255 7
3 299 255 298
3 299 40 255
3 141 299 63
3 300 299 141
3 300 40 299
3 300 117 40
3 289 117 300
3 289 1 117
3 724 143 725
3 726 725 8
3 724 725 726
3 727 143 728
3 730 729 143
3 301 302 2
3 303 302 301
3 303 65 302
3 145 303 64
3 304 303 145
3 304 65 303
3 304 204 65
3 305 204 304
3 305 10 204
3 233 146 9
3 306 146 233
3 306 66 146
3 147 306 28
3 307 306 147
3 307 66 306
3 307 305 66
3 308 305 307
3 308 10 305
3 308 268 10
3 309 268 308
3 309 47 268
3 731 309 732
3 733 732 67
3 731 732 733
3 734 309 735
3 736 47 737
3 738 737 309
3 736 737 738
3 740 739 47
3 310 741 742
3 310 743 745
3 743 48 744
3 743 744 745
3 149 746 748
3 746 310 747
3 746 747 748
3 311 310 149
3 311 48 310
3 311 124 48
3 312 124 311
3 312 4 124
3 313 314 3
3 315 314 313
3 315 70 314
3 152 315 69
3 316 315 152
3 316 70 315
3 316 217 70
3 317 217 316
3 317 13 217
3 237 153 12
3 318 153 237
3 318 71 153
3 155 318 30
3 319 318 155
3 319 71 318
3 319 317 71
3 320 317 319
3 320 13 317
3 320 282 13
3 321 282 320
3 321 55 282
3 157 321 72
3 322 321 157
3 322 55 321
3 322 132 55
3 323 132 322
3 323 749 751
3 751 750 132
3 749 750 751
3 323 752 753
3 755 754 323
3 159 756 758
3 758 757 73
3 756 757 758
3 760 759 159
3 241 160 14
3 324 160 241
3 324 74 160
3 162 324 32
3 325 324 162
3 325 74 324
3 325 761 763
3 763 762 74
3 761 762 763
3 765 764 325
3 164 766 768
3 768 767 75
3 766 767 768
3 770 769 164
3 326 327 0
3 328 327 326
3 328 77 327
3 166 328 76
3 329 328 166
3 329 77 328
3 329 201 77
3 330 201 329
3 330 16 201
3 245 167 15
3 331 167 245
3 331 78 167
3 169 331 34
3 332 331 169
3 332 78 331
3 332 330 78
3 333 330 332
3 333 16 330
3 333 263 16
3 334 263 333
3 334 44 263
3 171 334 79
3 335 334 171
3 335 44 334
3 335 121 44
3 336 121 335
3 336 2 121
3 290 113 1
3 337 113 290
3 337 35 113
3 174 337 59
3 338 337 174
3 338 35 337
3 338 248 35
3 339 248 338
3 339 17 248
3 249 175 6
3 340 175 249
3 340 81 175
3 176 340 36
3 341 340 176
3 341 81 340
3 341 339 81
3 342 339 341
3 342 17 339
3 342 172 17
3 343 172 342
3 343 80 172
3 178 343 82
3 344 343 178
3 344 80 343
3 344 336 80
3 345 336 344
3 345 2 336
3 345 301 2
3 346 301 345
3 346 64 301
3 179 346 83
3 347 346 179
3 347 64 346
3 347 144 64
3 348 144 347
3 348 9 144
3 771 348 772
3 349 773 775
3 773 348 774
3 773 774 775
3 349 9 348
3 349 232 9
3 776 232 777
3 778 777 349
3 776 777 778
3 779 27 780
3 781 780 232
3 779 780 781
3 782 27 783
3 785 784 27
3 786 350 787
3 351 788 790
3 788 350 789
3 788 789 790
3 351 84 350
3 180 791 793
3 791 351 792
3 791 792 793
3 352 351 180
3 352 84 351
3 352 209 84
3 353 209 352
3 353 19 209
3 251 181 18
3 354 181 251
3 354 85 181
3 183 354 38
3 355 354 183
3 355 85 354
3 355 353 85
3 356 353 355
3 356 19 353
3 356 277 19
3 357 277 356
3 357 52 277
3 185 357 86
3 358 357 185
3 358 52 357
3 358 129 52
3 359 129 358
3 359 3 129
3 794 116 795
3 360 796 798
3 796 116 797
3 796 797 798
3 360 39 116
3 188 360 61
3 361 360 188
3 361 39 360
3 361 254 39
3 362 254 361
3 362 20 254
3 256 189 7
3 363 189 256
3 363 88 189
3 191 363 41
3 364 363 191
3 364 88 363
3 364 362 88
3 365 362 364
3 365 20 362
3 365 186 20
3 366 186 365
3 366 87 186
3 193 366 89
3 367 366 193
3 367 87 366
3 367 359 87
3 368 359 367
3 368 3 359
3 368 313 3
3 369 313 368
3 369 69 313
3 195 369 90
3 370 369 195
3 370 69 369
3 370 151 69
3 371 151 370
3 371 12 151
3 260 196 21
3 372 196 260
3 372 91 196
3 198 372 43
3 373 372 198
3 373 91 372
3 373 371 91
3 374 371 373
3 374 12 371
3 374 236 12
3 375 236 374
3 375 29 236
3 200 375 92
3 376 375 200
3 376 29 375
3 376 107 29
3 326 107 376
3 326 0 107
3 799 18 800
3 801 18 802
3 803 250 804
3 805 804 18
3 803 804 805
3 806 250 807
3 808 37 809
3 810 809 250
3 808 809 810
3 811 37 812
3 813 114 814
3 815 814 37
3 813 814 815
3 816 114 817
3 819 818 114
3 327 104 0
3 377 104 327
3 377 26 104
3 202 377 77
3 378 377 202
3 378 26 377
3 378 820 822
3 822 821 26
3 820 821 822
3 824 823 378
3 264 203 16
3 379 203 264
3 379 93 203
3 825 379 826
3 827 826 45
3 825 826 827
3 828 379 829
3 830 93 831
3 832 831 379
3 830 831 832
3 834 833 93
3 302 123 2
3 380 123 302
3 380 46 123
3 205 380 65
3 381 380 205
3 381 46 380
3 381 267 46
3 835 267 836
3 837 836 381
3 835 836 837
3 839 838 267
3 269 206 10
3 840 206 841
3 842 841 269
3 840 841 842
3 843 94 844
3 845 844 206
3 843 844 845
3 846 94 847
3 849 848 94
3 273 850 851
3 853 852 273
3 855 854 50
3 350 856 858
3 856 106 857
3 856 857 858
3 382 106 350
3 382 859 861
3 861 860 106
3 859 860 861
3 210 382 84
3 383 382 210
3 383 862 864
3 864 863 382
3 862 863 864
3 383 865 867
3 865 235 866
3 865 866 867
3 384 235 383
3 384 11 235
3 278 211 19
3 385 211 278
3 385 95 211
3 213 385 53
3 386 385 213
3 386 95 385
3 386 384 95
3 387 384 386
3 387 11 384
3 387 150 11
3 388 150 387
3 388 68 150
3 215 388 96
3 389 388 215
3 389 68 388
3 389 312 68
3 390 312 389
3 390 4 312
3 314 131 3
3 391 131 314
3 391 54 131
3 218 391 70
3 392 391 218
3 392 54 391
3 392 281 54
3 393 281 392
3 393 23 281
3 283 219 13
3 394 219 283
3 394 98 219
3 221 394 56
3 395 394 221
3 395 98 394
3 395 393 98
3 396 393 395
3 396 23 393
3 396 216 23
3 397 216 396
3 397 97 216
3 223 397 99
3 398 397 223
3 398 97 397
3 398 390 97
3 399 390 398
3 399 4 390
3 399 128 4
3 400 128 399
3 400 51 128
3 225 400 100
3 401 400 225
3 401 51 400
3 401 276 51
3 402 276 401
3 402 22 276
3 287 226 24
3 403 226 287
3 403 101 226
3 868 403 869
3 404 870 872
3 870 403 871
3 870 871 872
3 404 101 403
3 404 402 101
3 405 402 404
3 405 22 402
3 405 208 22
3 873 208 874
3 875 874 405
3 873 874 875
3 877 876 208
