ply
format ascii 1.0
element vertex 448
property float x
property float y
property float z
element face 456
property list uchar int vertex_index
end_header
-1.347937 56.535416 -10.884073
3.15085 78.846687 6.767364
2.329779 81.102547 -20.01346
-4.670412 39.688534 -14.200459
-0.696503 57.159447 1.810526
2.870176 66.614578 9.640511
2.266714 69.300064 -3.830549
5.619522 87.96508 4.274446
2.806108 81.546692 -7.180216
-3.441458 50.145958 -6.92811
-3.287683 48.695206 -12.907389
-0.244209 56.180031 8.330876
2.949896 70.295914 15.034483
3.150215 72.770821 8.033195
2.716845 68.331253 2.85067
3.035765 74.502922 1.118629
4.359369 85.723862 -15.037514
4.080807 86.187019 -8.539371
2.389862 81.784668 -13.838078
1.777695 76.087173 -12.251261
1.061155 75.97847 -18.566946
5.283703 84.121857 -20.717611
-3.376993 50.972878 -0.648504
-1.053736 57.200272 -4.645496
2.82373 64.064804 16.445505
1.872847 60.498238 11.856041
1.600449 62.289001 5.209222
1.220146 63.187943 -1.407177
0.693953 63.343933 -7.872835
3.720549 84.228256 5.55172
3.988241 85.654259 -1.612669
3.142159 80.549149 -0.28591
2.539818 75.582596 -5.655176
-2.333799 53.347878 -8.991837
-3.380766 49.473457 -9.963095
-2.365408 52.754906 -12.008228
-2.391176 52.086098 -14.934671
-1.494223 56.043968 -13.887289
3.021397 77.728706 10.344223
3.041321 74.712929 10.913624
3.137159 75.845383 7.377645
3.139925 73.724701 4.560883
3.14632 76.798729 3.869741
3.266441 83.620285 -17.597952
3.155724 84.03569 -14.500984
2.285103 81.573143 -17.010775
1.696384 79.030411 -16.287409
1.528246 78.754982 -19.364958
0.854513 75.633018 -21.536043
1.524912 78.225441 -22.257833
6.083651 82.827728 -23.093061
-5.098448 34.741478 -14.707134
-4.664438 33.467743 -17.295759
-4.333261 38.545464 -16.874804
-1.837442 54.06395 3.707608
-3.224424 51.044044 2.551459
-2.038343 54.213432 0.476505
-2.184031 54.122063 -2.731815
-0.886398 57.287056 -1.435526
3.043751 68.534088 12.226919
2.95223 67.179878 15.681427
2.864244 65.445404 13.0475
2.510454 62.361969 14.01796
2.46501 63.559578 10.661252
1.746716 61.507965 8.536106
2.388525 64.538101 7.296773
2.531881 68.899757 -0.50868
2.096403 65.852638 0.597277
1.863707 66.217049 -2.711138
0.976227 63.343643 -4.665852
1.569513 66.418785 -5.97578
5.203552 87.179245 7.94082
4.474815 86.362206 4.916737
3.261049 84.1035 -7.884285
4.039101 86.038086 -5.11347
3.356777 83.797997 -4.446095
3.414629 83.286407 -0.952135
3.005337 81.137314 -3.755377
2.873995 78.199692 -3.042456
2.609043 78.659286 -6.439999
-4.282682 45.295547 -10.752481
-4.065035 44.341743 -13.620892
-3.839441 43.345207 -16.381716
-3.185743 47.857452 -15.752819
-0.481997 56.793694 5.07225
2.665804 71.879539 18.034163
2.877064 73.3936 14.469584
3.08049 71.63063 11.527806
3.086227 69.684608 8.774676
2.825958 67.574165 6.237513
3.061396 70.637543 5.336679
2.953825 71.403145 1.923176
2.754677 71.996422 -1.457346
5.620672 87.364105 -12.356218
5.334152 87.678268 -9.115393
4.167082 86.087509 -11.861628
3.17457 84.188927 -11.24696
2.583572 81.767929 -10.548693
2.293577 78.95871 -9.791134
1.971336 79.08873 -13.082232
1.388035 76.118813 -15.456974
0.4569 72.671066 -20.648245
6.047853 86.774918 -15.409401
4.716311 85.076813 -18.010965
3.562578 82.914009 -20.47637
2.576153 80.336472 -22.781008
4.08399 81.883759 -23.068884
-4.225809 32.216736 -19.74299
-3.446222 50.66153 -3.816458
-2.278788 53.819557 -5.894688
-1.204496 56.935249 -7.800114
2.778738 68.759903 18.540337
0.935217 58.448448 9.963038
0.7423 59.263725 6.675525
0.547623 59.840309 3.382384
2.2691 65.299232 3.937647
1.426908 62.844482 1.889652
0.348906 60.184105 0.09984
0.143326 60.313416 -3.154217
-0.072615 60.2584 -6.362234
-0.30279 60.057213 -9.509426
3.308237 81.680511 6.166583
5.127897 87.726761 -5.736496
4.943659 87.517441 -2.256392
4.735521 87.059151 1.299994
3.889191 85.047546 1.945683
3.403221 82.578568 2.587207
3.193176 79.785782 3.222733
3.058212 77.581024 0.395232
2.833191 75.118065 -2.288031
2.464699 72.43544 -4.798346
2.176672 75.905258 -8.978754
2.095911 72.737968 -8.094917
1.925476 69.556152 -7.107002
0.375572 63.223938 -11.017952
-0.550261 59.749519 -12.585344
-5.097353 37.849054 -13.096474
-4.835837 40.247473 -12.805078
-4.88443 37.215006 -14.453796
-5.311371 35.375526 -13.349812
-5.097353 37.849054 -13.096474
5.411537 87.572162 6.107633
5.924373 87.758754 7.617214
6.132359 88.151672 5.784027
-3.953688 48.153405 -7.356043
-4.013569 48.515255 -5.828009
-2.407682 51.731186 -16.349791
-2.02079 53.790917 -15.868959
-0.913955 54.919556 7.635383
-0.764336 54.589409 9.243099
-0.363103 56.486863 6.701563
-1.032849 55.226388 6.00607
-0.913955 54.919556 7.635383
2.848985 74.910301 14.208384
2.723825 74.164314 16.018142
0.933007 74.439461 -18.105207
1.096447 74.509633 -16.550221
1.224595 76.048642 -17.01196
0.759027 74.324768 -19.607596
0.63088 72.785759 -19.145857
0.933007 74.439461 -18.105207
0.546265 73.941277 -22.51655
0.839016 75.336997 -22.920284
7.134144 86.972912 -15.497101
6.798456 87.373157 -14.051262
5.000007 84.599335 -19.364288
5.691184 85.486699 -18.113243
5.97488 85.00922 -19.466566
5.46568 81.661205 -24.203243
6.596303 81.995384 -24.090503
-4.113735 34.811806 -19.582487
-4.445123 32.842239 -18.519374
-4.333049 35.437309 -18.358871
-3.947193 34.251478 -20.781744
-4.113735 34.811806 -19.582487
-3.730803 42.841383 -17.704384
-3.465445 45.169506 -17.437277
-3.960512 49.341328 0.457488
-3.884228 49.376911 2.05747
-3.300708 51.008461 0.951477
-3.997038 49.193878 -1.126142
-3.960512 49.341328 0.457488
-3.411608 50.817204 -2.232481
-4.031652 49.038204 -2.710119
-3.997038 49.193878 -1.126142
2.826554 64.84156 17.784945
2.890804 66.399098 17.402905
2.88798 65.622341 16.063466
2.79313 63.269211 18.132941
2.826554 64.84156 17.784945
2.680017 62.506851 16.899607
2.79313 63.269211 18.132941
1.92953 59.881439 13.505993
2.248334 60.813305 14.586952
2.191651 61.430104 12.937
1.50064 58.948589 12.543538
1.92953 59.881439 13.505993
1.404032 59.473343 10.909539
1.031825 57.923694 11.597036
1.50064 58.948589 12.543538
3.599322 83.7164 7.375516
3.935874 84.832855 7.067635
3.514393 82.954384 5.859152
3.393166 82.442527 7.682948
3.599322 83.7164 7.375516
1.808756 71.214405 -9.213494
1.883888 72.82729 -9.718466
1.723539 69.623497 -8.719537
2.010693 71.14706 -7.60096
1.808756 71.214405 -9.213494
1.572018 68.021896 -8.147194
1.723539 69.623497 -8.719537
0.201724 63.119243 -12.556041
0.598992 64.837414 -11.678576
-0.261192 61.382034 -13.339737
-0.087344 61.486728 -11.801648
0.201724 63.119243 -12.556041
-0.682594 59.559173 -14.08421
-0.261192 61.382034 -13.339737
2.155695 78.868279 -23.840044
2.817816 79.786377 -24.013321
-1.572313 55.769852 -15.345268
-2.02079 53.790917 -15.868959
-1.9427 54.065033 -14.41098
-0.115362 55.750656 9.950854
-0.764336 54.589409 9.243099
3.031359 76.220818 10.628923
2.931113 75.569965 12.430404
2.921151 77.077854 12.145703
1.174216 76.633209 -23.281179
0.839016 75.336997 -22.920284
1.189712 76.92923 -21.896938
6.393544 84.414849 -20.715027
5.97488 85.00922 -19.466566
6.793518 83.767784 -21.902752
5.683677 83.474793 -21.905336
6.393544 84.414849 -20.715027
7.321879 83.003463 -22.970216
6.793518 83.767784 -21.902752
6.596303 81.995384 -24.090503
7.321879 83.003463 -22.970216
-5.47958 32.832201 -13.634634
-5.311371 35.375526 -13.349812
-5.228327 32.132086 -14.956555
-5.47958 32.832201 -13.634634
-4.881443 34.10461 -16.001447
-5.011322 31.495219 -16.250867
-5.228327 32.132086 -14.956555
-4.167461 37.97617 -18.148394
-4.333049 35.437309 -18.358871
-4.49885 36.006603 -17.085282
-2.530933 52.553997 3.129533
-3.106535 50.949447 4.15525
-2.413044 52.459401 4.733325
5.647124 87.320011 9.468849
5.924373 87.758754 7.617214
4.970665 86.665336 9.799453
5.647124 87.320011 9.468849
4.677376 86.308349 8.262186
4.970665 86.665336 9.799453
4.313007 85.89983 6.750144
4.677376 86.308349 8.262186
4.839184 86.770725 6.428778
4.097682 85.295231 5.234229
3.935874 84.832855 7.067635
4.313007 85.89983 6.750144
1.724779 74.501892 -11.796637
1.502305 74.530682 -13.391022
-3.923342 47.817154 -8.873535
-3.953688 48.153405 -7.356043
-3.411112 49.809708 -8.445602
-4.3743 45.728199 -9.268228
-3.923342 47.817154 -8.873535
-3.831724 47.384502 -10.357788
-4.79161 43.575092 -9.631331
-4.3743 45.728199 -9.268228
-4.641972 43.050979 -11.081089
-4.79161 43.575092 -9.631331
-4.533148 42.574078 -12.515294
-4.641972 43.050979 -11.081089
-4.173858 44.818645 -12.186687
-4.367724 42.015138 -13.910675
-4.835837 40.247473 -12.805078
-4.533148 42.574078 -12.515294
-3.138596 47.425629 -17.122829
-3.465445 45.169506 -17.437277
-3.512592 45.60133 -16.067267
-2.804966 49.616863 -16.758865
-2.78846 49.971775 -15.343745
-2.407682 51.731186 -16.349791
-3.138596 47.425629 -17.122829
-2.804966 49.616863 -16.758865
-1.710571 53.861515 5.323749
-2.413044 52.459401 4.733325
-1.15972 55.428822 4.389929
-1.710571 53.861515 5.323749
-1.032849 55.226388 6.00607
2.618194 73.407284 17.800432
2.47902 72.561817 19.611781
2.771434 72.63657 16.251873
2.618194 73.407284 17.800432
2.723825 74.164314 16.018142
2.959192 74.053265 12.691604
2.848985 74.910301 14.208384
2.931113 75.569965 12.430404
6.389024 88.456913 3.96361
6.132359 88.151672 5.784027
5.477412 87.521186 -10.735805
6.18959 88.09119 -9.344938
6.33285 87.934109 -10.965351
1.307475 74.546502 -14.993879
1.502305 74.530682 -13.391022
1.582865 76.102993 -13.854118
1.307475 74.546502 -14.993879
1.096447 74.509633 -16.550221
0.331851 71.06649 -20.130688
0.63088 72.785759 -19.145857
0.162675 70.903957 -21.576319
0.331851 71.06649 -20.130688
0.347459 72.4603 -22.072651
0.655706 74.152042 -21.092144
0.546265 73.941277 -22.51655
0.162675 70.903957 -21.576319
0.347459 72.4603 -22.072651
2.952907 78.525482 11.886451
2.921151 77.077854 12.145703
3.076162 79.161892 10.063156
2.952907 78.525482 11.886451
3.140889 79.720883 8.274726
3.086124 78.287697 8.555794
3.076162 79.161892 10.063156
6.584865 87.667751 -12.52467
6.33285 87.934109 -10.965351
5.834262 87.069512 -13.88281
6.584865 87.667751 -12.52467
6.798456 87.373157 -14.051262
6.356955 86.335751 -16.812461
7.134144 86.972912 -15.497101
5.382082 85.925866 -16.710183
6.356955 86.335751 -16.812461
5.691184 85.486699 -18.113243
3.571734 80.560021 -24.157259
2.817816 79.786377 -24.013321
3.330071 81.110116 -22.924946
4.465849 81.189221 -24.191154
5.08382 82.355743 -23.080973
5.46568 81.661205 -24.203243
3.571734 80.560021 -24.157259
4.465849 81.189221 -24.191154
-4.751062 30.803974 -17.504003
-5.011322 31.495219 -16.250867
-4.531748 30.17847 -18.727619
-4.751062 30.803974 -17.504003
-4.445123 32.842239 -18.519374
-4.258686 29.510073 -19.901002
-4.531748 30.17847 -18.727619
-3.996269 31.609335 -20.881895
-4.258686 29.510073 -19.901002
-3.996269 31.609335 -20.881895
-3.947193 34.251478 -20.781744
-3.977712 40.441512 -17.950928
-4.086351 40.945335 -16.62826
-3.730803 42.841383 -17.704384
-4.167461 37.97617 -18.148394
-3.977712 40.441512 -17.950928
-3.792903 49.393363 3.649331
-3.106535 50.949447 4.15525
-3.792903 49.393363 3.649331
-3.884228 49.376911 2.05747
-4.015951 48.773041 -4.272182
-4.031652 49.038204 -2.710119
-3.44384 50.403744 -5.372284
-4.013569 48.515255 -5.828009
-4.015951 48.773041 -4.272182
2.546955 71.020809 19.81342
2.47902 72.561817 19.611781
2.603422 69.460991 20.066508
2.546955 71.020809 19.81342
2.722271 70.319721 18.28725
2.681966 67.887921 20.285115
2.603422 69.460991 20.066508
2.804058 67.18911 18.832361
2.865484 67.96989 17.110882
2.890804 66.399098 17.402905
2.681966 67.887921 20.285115
2.804058 67.18911 18.832361
2.523379 61.655434 15.685834
2.680017 62.506851 16.899607
2.667092 63.213386 15.231732
2.523379 61.655434 15.685834
2.248334 60.813305 14.586952
0.474351 56.884864 10.766935
1.031825 57.923694 11.597036
0.345504 57.314239 9.146957
-0.115362 55.750656 9.950854
0.474351 56.884864 10.766935
3.219583 81.137794 7.974336
3.393166 82.442527 7.682948
3.229544 80.263599 6.466973
3.140889 79.720883 8.274726
3.219583 81.137794 7.974336
5.802443 88.231289 2.472503
6.389024 88.456913 3.96361
5.994203 88.22414 -7.69809
6.18959 88.09119 -9.344938
5.891076 88.248386 -6.008641
5.994203 88.22414 -7.69809
5.231025 87.702515 -7.425944
5.723087 88.247101 -4.29585
5.891076 88.248386 -6.008641
5.630968 88.142441 -2.555798
5.723087 88.247101 -4.29585
5.035778 87.622101 -3.996444
5.464512 88.007469 -0.792917
5.630968 88.142441 -2.555798
5.360443 87.778324 0.985277
5.464512 88.007469 -0.792917
4.83959 87.288296 -0.478199
5.177522 87.512115 2.78722
5.802443 88.231289 2.472503
5.360443 87.778324 0.985277
1.924268 74.410934 -10.160384
1.977183 75.996216 -10.615008
1.724779 74.501892 -11.796637
2.136292 74.321613 -8.536836
1.924268 74.410934 -10.160384
1.883888 72.82729 -9.718466
1.394037 66.453213 -7.581583
1.747494 67.987469 -6.541391
1.572018 68.021896 -8.147194
0.956257 64.915786 -8.530111
1.131733 64.881359 -6.924308
1.394037 66.453213 -7.581583
0.797067 64.855789 -10.102669
0.598992 64.837414 -11.678576
0.534763 63.283935 -9.445393
0.956257 64.915786 -8.530111
0.797067 64.855789 -10.102669
-1.154575 57.706398 -14.735183
-1.022242 57.896743 -13.236317
-0.682594 59.559173 -14.08421
-1.572313 55.769852 -15.345268
-1.154575 57.706398 -14.735183
1.630075 77.812763 -23.578457
2.050533 79.280957 -22.519421
2.155695 78.868279 -23.840044
1.174216 76.633209 -23.281179
1.630075 77.812763 -23.578457
3 0 35 33
3 0 37 35
3 1 40 38
3 1 42 40
3 2 45 43
3 2 47 45
3 2 49 47
3 3 136 137
3 3 138 140
3 138 51 139
3 138 139 140
3 3 53 51
3 4 56 54
3 4 58 56
3 5 61 59
3 5 63 61
3 5 65 63
3 6 68 66
3 6 70 68
3 7 141 143
3 141 71 142
3 141 142 143
3 7 72 71
3 8 75 73
3 8 77 75
3 8 79 77
3 9 144 145
3 10 80 34
3 10 81 80
3 10 83 81
3 147 146 36
3 11 148 149
3 11 150 152
3 150 84 151
3 150 151 152
3 153 86 154
3 13 87 39
3 13 88 87
3 13 90 88
3 15 91 41
3 15 92 91
3 16 95 93
3 18 96 44
3 18 97 96
3 18 99 97
3 20 100 46
3 20 155 157
3 157 156 100
3 155 156 157
3 20 158 160
3 158 101 159
3 158 159 160
3 162 161 48
3 163 102 164
3 21 165 167
3 165 103 166
3 165 166 167
3 21 104 103
3 21 106 104
3 169 168 50
3 170 107 171
3 172 171 52
3 170 171 172
3 174 173 107
3 176 175 82
3 22 177 179
3 179 178 55
3 177 178 179
3 22 180 181
3 22 182 184
3 182 108 183
3 182 183 184
3 23 109 57
3 23 110 109
3 12 111 85
3 24 185 187
3 187 186 60
3 185 186 187
3 24 188 189
3 24 190 191
3 25 192 194
3 194 193 62
3 192 193 194
3 25 195 196
3 25 197 199
3 197 112 198
3 197 198 199
3 26 113 64
3 26 114 113
3 14 115 89
3 27 116 67
3 27 117 116
3 27 118 117
3 28 119 69
3 28 120 119
3 29 200 201
3 29 202 204
3 202 121 203
3 202 203 204
3 17 122 94
3 30 123 74
3 30 124 123
3 30 125 124
3 31 126 76
3 31 127 126
3 31 128 127
3 32 129 78
3 32 130 129
3 19 131 98
3 205 132 206
3 207 133 208
3 209 208 132
3 207 208 209
3 211 210 133
3 212 134 213
3 214 135 215
3 216 215 134
3 214 215 216
3 218 217 135
3 220 219 105
3 33 34 9
3 35 34 33
3 35 10 34
3 35 36 10
3 37 36 35
3 37 221 223
3 223 222 36
3 221 222 223
3 224 11 225
3 38 226 228
3 226 39 227
3 226 227 228
3 40 39 38
3 40 13 39
3 40 41 13
3 42 41 40
3 42 15 41
3 43 44 16
3 45 44 43
3 45 18 44
3 45 46 18
3 47 46 45
3 47 20 46
3 47 48 20
3 49 48 47
3 49 229 231
3 231 230 48
3 229 230 231
3 232 21 233
3 234 50 235
3 236 235 21
3 234 235 236
3 237 50 238
3 240 239 50
3 51 241 242
3 51 243 244
3 51 245 247
3 245 52 246
3 245 246 247
3 53 52 51
3 53 248 250
3 250 249 52
3 248 249 250
3 54 251 253
3 251 55 252
3 251 252 253
3 56 55 54
3 56 22 55
3 56 57 22
3 58 57 56
3 58 23 57
3 59 60 12
3 61 60 59
3 61 24 60
3 61 62 24
3 63 62 61
3 63 25 62
3 63 64 25
3 65 64 63
3 65 26 64
3 66 67 14
3 68 67 66
3 68 27 67
3 68 69 27
3 70 69 68
3 70 28 69
3 71 254 255
3 71 256 257
3 71 258 259
3 72 260 262
3 262 261 71
3 260 261 262
3 72 263 265
3 263 29 264
3 263 264 265
3 73 74 17
3 75 74 73
3 75 30 74
3 75 76 30
3 77 76 75
3 77 31 76
3 77 78 31
3 79 78 77
3 79 32 78
3 267 266 19
3 34 268 270
3 270 269 9
3 268 269 270
3 80 271 273
3 273 272 34
3 271 272 273
3 80 274 275
3 80 276 277
3 81 278 280
3 280 279 80
3 278 279 280
3 81 281 283
3 281 3 282
3 281 282 283
3 81 82 3
3 83 82 81
3 83 284 286
3 286 285 82
3 284 285 286
3 36 83 10
3 287 83 288
3 289 288 36
3 287 288 289
3 291 290 83
3 292 54 293
3 84 294 296
3 294 54 295
3 294 295 296
3 84 4 54
3 297 85 298
3 86 299 301
3 299 85 300
3 299 300 301
3 86 12 85
3 39 302 304
3 302 86 303
3 302 303 304
3 87 86 39
3 87 12 86
3 87 59 12
3 88 59 87
3 88 5 59
3 88 89 5
3 90 89 88
3 90 14 89
3 41 90 13
3 91 90 41
3 91 14 90
3 91 66 14
3 92 66 91
3 92 6 66
3 305 7 306
3 93 307 309
3 307 94 308
3 307 308 309
3 95 94 93
3 95 17 94
3 44 95 16
3 96 95 44
3 96 17 95
3 96 73 17
3 97 73 96
3 97 8 73
3 97 98 8
3 99 98 97
3 99 19 98
3 46 99 18
3 100 99 46
3 100 19 99
3 100 310 312
3 312 311 19
3 310 311 312
3 314 313 100
3 101 315 316
3 101 317 318
3 48 101 20
3 319 101 320
3 321 320 48
3 319 320 321
3 323 322 101
3 324 38 325
3 326 38 327
3 328 1 329
3 330 329 38
3 328 329 330
3 331 93 332
3 102 333 335
3 333 93 334
3 333 334 335
3 102 16 93
3 336 102 337
3 103 338 340
3 338 102 339
3 338 339 340
3 103 16 102
3 103 43 16
3 104 43 103
3 104 2 43
3 104 105 2
3 106 105 104
3 106 341 343
3 343 342 105
3 341 342 343
3 50 106 21
3 344 106 345
3 346 345 50
3 344 345 346
3 348 347 106
3 52 349 350
3 107 351 353
3 353 352 52
3 351 352 353
3 107 354 355
3 107 356 357
3 359 358 107
3 82 53 3
3 360 53 361
3 362 361 82
3 360 361 362
3 364 363 53
3 55 365 366
3 368 367 55
3 108 369 370
3 108 371 373
3 371 9 372
3 371 372 373
3 57 108 22
3 109 108 57
3 109 9 108
3 109 33 9
3 110 33 109
3 110 0 33
3 85 374 375
3 111 376 378
3 378 377 85
3 376 377 378
3 111 379 380
3 60 111 12
3 381 111 382
3 383 382 60
3 381 382 383
3 385 384 111
3 62 386 388
3 388 387 24
3 386 387 388
3 390 389 62
3 112 391 392
3 112 393 395
3 393 11 394
3 393 394 395
3 64 112 25
3 113 112 64
3 113 11 112
3 113 84 11
3 114 84 113
3 114 4 84
3 89 65 5
3 115 65 89
3 115 26 65
3 67 115 14
3 116 115 67
3 116 26 115
3 116 114 26
3 117 114 116
3 117 4 114
3 117 58 4
3 118 58 117
3 118 23 58
3 69 118 27
3 119 118 69
3 119 23 118
3 119 110 23
3 120 110 119
3 120 0 110
3 121 396 397
3 121 398 400
3 398 1 399
3 398 399 400
3 401 7 402
3 94 403 404
3 122 405 407
3 407 406 94
3 405 406 407
3 122 408 409
3 74 122 17
3 123 122 74
3 123 410 412
3 412 411 122
3 410 411 412
3 123 413 414
3 124 415 417
3 417 416 123
3 415 416 417
3 124 418 420
3 418 7 419
3 418 419 420
3 124 72 7
3 125 72 124
3 125 29 72
3 76 125 30
3 126 125 76
3 126 29 125
3 126 121 29
3 127 121 126
3 127 1 121
3 127 42 1
3 128 42 127
3 128 15 42
3 78 128 31
3 129 128 78
3 129 15 128
3 129 92 15
3 130 92 129
3 130 6 92
3 98 79 8
3 131 79 98
3 131 32 79
3 421 131 422
3 423 422 19
3 421 422 423
3 132 424 426
3 424 131 425
3 424 425 426
3 132 32 131
3 132 130 32
3 133 130 132
3 133 6 130
3 133 70 6
3 427 70 428
3 429 428 133
3 427 428 429
3 430 28 431
3 432 431 70
3 430 431 432
3 134 433 434
3 134 435 437
3 435 28 436
3 435 436 437
3 134 120 28
3 135 120 134
3 135 0 120
3 135 37 0
3 438 37 439
3 440 439 135
3 438 439 440
3 442 441 37
3 105 49 2
3 443 49 444
3 445 444 105
3 443 444 445
3 447 446 49
